M48
;Layer_Color=9474304
;FILE_FORMAT=2:4
INCH,TZ
;TYPE=PLATED
T01F00S00C0.0098
T02F00S00C0.0197
T03F00S00C0.0354
T04F00S00C0.0453
T05F00S00C0.0531
T06F00S00C0.0886
T07F00S00C0.1260
;TYPE=NON_PLATED
T08F00S00C0.1260
%
T01
X3888Y1555
X3898Y2884
X3868Y3780
X3189Y4754
X3199Y5167
X6122Y3492
X7953Y1575
X8317Y1634
X8180Y5189
X10098Y4222
X10339Y4460
X10620Y4252
X14094Y1378
X16368Y1329
X18056Y2717
X18056Y3469
Y3774
X18056Y4144
X17337Y5060
X20138Y2697
X20837Y2795
X24508Y3504
Y3809
X29262Y2765
X29456Y2490
X29369Y2136
X30561Y1884
X31124Y1879
X31120Y2361
X31411Y2421
X31752Y2510
X31752Y1922
X31624Y1181
X30042Y1170
X30600Y3337
X30827
X31043
X31270
X31486
X31713
X31841Y3514
Y3740
Y3957
Y4183
Y4400
Y4626
X31732Y4803
X31506
X31289
X31063
X30846
X30620
X30600Y4400
Y4183
Y3957
Y3740
X30807Y3553
X31024
X31250
X31467
X31506Y4567
X31289
X31063
X30846
X34350Y4154
Y3927
Y3711
Y3484
Y3268
Y3041
X34754Y3022
X34970
X35197
X35413
X35600Y3228
Y3445
Y3671
Y3888
X35817Y3907
Y3691
Y3465
Y3248
Y3022
Y4134
X35640Y4262
X35413
X35197
X34970
X34754
X34528
X34587Y3927
Y3711
Y3484
Y3268
X36240Y4980
Y5207
X41102Y3520
X40219Y2386
X40679Y1506
X42717Y2116
X43227Y2077
X43238Y2736
X44715Y2549
X44457Y1473
X46067Y1843
X44370Y7657
X44931Y8425
X44691Y9194
X44400Y14434
X44390Y14771
X44694Y15957
X44951Y20100
X44050Y19892
X42598Y19870
X42617Y20364
X42731Y20807
X40974Y20659
X41161Y19591
X41132Y16795
X40276Y16299
X40413Y15610
X42530Y15384
X42490Y16388
X43398Y15896
X42510Y14163
X42598Y13376
X41296Y12941
X41319Y10118
X40348Y9588
X40463Y9016
X39646Y7785
X41280Y6388
X42598Y6594
X42578Y7436
X42490Y8780
X42497Y9667
X44164Y9301
X36240Y8868
Y8632
Y8406
X36240Y7490
Y7195
Y6909
X36240Y5443
X34243Y8737
X33698Y8741
X32736Y9085
X32209Y9086
X31927Y9083
X31220Y9094
X30768Y9104
X30402Y8321
X29902Y7717
X29931Y7174
X30463Y6102
X30925Y6112
X29429Y6063
X32218Y7417
X31773Y10890
X31268Y10902
X31312Y11289
X31419Y11500
X31788Y11427
X31713Y12303
X31486
X31270
X31043
X30827
X30600
Y12707
Y12923
Y13150
Y13366
X30846Y13533
X31063
X31289
X31506
Y13770
X31289
X31063
X30846
X30620
X31732
X31841Y13593
Y13366
Y13150
Y12923
Y12707
Y12480
X31467Y12520
X31250
X31024
X30807
X30620Y10925
X29723Y11120
X29734Y11506
X29724Y11759
X29744Y10610
X30453Y15079
X30955
X29917Y16124
X29902Y16673
X30716Y16998
X31722Y16978
X31863Y17486
X32210Y17517
X32726Y17470
X32252Y16467
X34508Y16703
X34587Y17153
X34449Y17579
X36152Y16919
X36280Y16713
X36024
X36319Y15344
Y15049
Y14764
Y14508
Y14252
X35827Y13268
Y13041
Y12825
Y12598
Y12382
Y12156
X35423
X35207
X34980
X34764
X34596Y12402
Y12618
Y12844
Y13061
X34360
Y12844
Y12618
Y12402
Y12175
Y13287
X34537Y13396
X34764
X34980
X35207
X35423
X35650
X35610Y13022
Y12805
Y12579
Y12362
X30325Y17825
X30482Y20010
X31053Y19980
X31270Y20482
X31368Y20738
X31722Y20620
X31817Y20041
X31870Y19662
X29656Y19687
X29682Y20275
X29644Y20655
X22185Y19338
X21102Y18642
X20822Y17886
X20246Y16270
X19075Y16142
X18056Y16280
X17165Y16407
X17180Y16104
X16230Y16654
X15910Y16635
X16348Y18258
X17392Y18130
X18056Y17805
X17854Y19272
X20502Y20020
X20383Y14558
X19862Y13967
X19872Y13661
X19862Y12904
Y12598
X20374Y12974
X21860Y12980
X21732Y14380
X21703Y11358
X21235Y10820
X20403Y11094
X20482Y11407
X18056Y9528
Y8543
X19035Y7175
X17215Y6713
X17219Y6369
X17333Y5394
X17111Y10287
X16762Y10295
X18056Y14843
X15130Y18189
X24508Y15738
Y15433
Y8317
Y8012
X10359Y7423
X10108Y7431
X9538Y6706
X8895Y6456
X7417Y5369
X6763Y7160
X6778Y7562
X6811Y7884
X7174Y9468
X7521Y9474
X6675Y10728
X5098Y10246
X4690Y10641
X4695Y10906
X3927Y11211
X3927Y10059
X3258Y9577
X3266Y9210
X2501Y9940
X2229Y9952
X2091Y10808
X2303Y10974
X1309Y10413
X208Y10738
X30Y10583
X-163Y10395
X-202Y11163
X-423Y10974
X-704Y10956
X-472Y11358
X315Y11467
X480Y11257
X283Y12760
X-165Y12965
X-276Y13228
X-787Y13307
X-669Y12764
X-2278Y11978
X-2106Y11801
X-1194Y15345
X-650Y15571
X994Y15935
X2761Y15917
X2747Y16161
X3081Y15778
Y15089
Y14606
X3051Y12894
X3061Y12185
X3071Y11860
X3091Y16654
X3979Y18182
X4852Y17941
X5531Y18081
X5925Y20315
X7687Y20726
X8770Y20045
X9341Y19852
X8652Y19055
X9604Y18617
X9466Y18369
X10177Y18760
X10619Y19436
X10600Y15791
X8671Y16319
X8711Y13012
X8699Y12643
Y11895
X8652Y11604
Y11104
X8807Y10881
X10620Y11185
X10108Y11919
X10101Y12376
X10181Y12696
X4359Y7613
X3888Y7618
X3907Y6410
X3198Y5457
X5517Y5936
X5502Y6220
X2510Y7589
X3675Y19892
Y20374
X-1850Y20472
X-1860Y19843
X-1769Y18976
X-374Y18533
X-561Y18081
X-4078Y18260
Y17634
Y17000
X-3870Y17205
X-4078Y16370
Y15736
X-3673Y15799
X-3122Y15677
X-3150Y14488
X-4078Y14157
Y15102
Y13193
X-3701Y13110
X-4078Y11638
Y20161
X-3583Y20236
X-4078Y20783
Y21417
X-3650Y21520
X-3622Y22142
X-4078Y22024
Y22685
Y23299
Y23945
Y24559
Y25197
Y25823
X-3623Y25712
X-3484Y25480
X-3106Y25177
X-3031Y24921
X-3488Y24508
X-3488Y23894
X-3228Y23287
X-3327Y22805
X-2854Y23622
X-2595Y26232
X-4078Y26449
Y27082
Y27713
X-4078Y28028
X-2197Y27142
X-2195Y26880
X-1970Y26126
X-795Y25689
X-803Y25418
X-488Y25848
X-531Y24843
X-1077Y24918
X-2051Y24335
X1008Y24449
X1254
Y24134
X1008
Y23819
X1254
X2087Y23543
X1864Y23278
X1919Y22717
X1757Y22472
X2687Y22067
X3114Y20965
X3656Y20965
X4433Y21497
X4943Y22104
X7784Y21029
X10157Y21378
X11752Y22156
X10600Y25581
X10561Y29754
X10697Y30114
X10471Y30911
X10177Y30906
X9469Y29528
X8701Y29252
X7513Y29911
X7874Y31250
X6841Y32608
Y33311
X7451Y34596
X4649Y34466
X4055Y34466
X3091Y34695
X1250Y34774
X1673Y33238
X2768Y32189
X3030Y29563
X3848Y29400
X4764Y29301
X5053Y31477
X2080Y29925
X1033Y26112
X1014Y25610
X633Y21712
X637Y21334
X6014Y27687
X12124Y31993
X12421Y31988
X12439Y34294
X11654Y34449
X13622Y35059
X16368Y34577
X15837Y33317
X15837Y32628
X13091Y31988
X14272Y30571
X18056Y30512
Y30207
Y29716
X17913Y29124
X18056Y28732
X17283Y28337
X17293Y28041
X19301Y27677
X20344Y28299
X21400Y28366
X20994Y27407
X22264Y27028
X20363Y26337
X19477Y25945
X19951Y25354
Y24685
X19503Y24774
X20354Y24931
X21732Y24882
X23100Y24911
X23346
X23583
X22598Y23138
X24508Y21742
Y21437
X18056Y21358
Y23061
X17377Y22767
X17355Y22431
X17494Y24959
X18071Y24965
X13986Y25571
X18056Y30956
X18278Y34548
X18533Y34547
X18056Y35110
X18091Y35689
Y36004
X20522Y34596
X20463Y33150
X20522Y32736
X22087Y34270
X23333Y33225
X24508Y34754
Y35059
Y29803
Y29498
X30378Y26527
X31245Y26896
X31616Y26517
X32100Y26239
X32215Y25368
X32717Y27106
X33707Y27104
X34252Y27057
X34518Y26722
X34528Y26250
X34520Y25778
X34656Y25089
X34321
X34350Y22343
Y22116
Y21900
Y21673
Y21457
Y21230
X34754Y21211
X34970
X35197
X35413
X35600Y21417
Y21634
Y21860
Y22077
X35817Y22096
Y21880
Y21654
Y21437
Y21211
Y22323
X35640Y22451
X35413
X35197
X34970
X34754
X34528
X34587Y22116
Y21900
Y21673
Y21457
X31703Y21526
X31476
X31260
X31033
X30817
X30591
Y21929
Y22146
Y22372
Y22589
X30837Y22756
X31053
X31280
X31496
Y22992
X31280
X31053
X30837
X30610
X31722
X31831Y22815
Y22589
Y22372
Y22146
Y21929
Y21703
X31457Y21742
X31240
X31014
X30797
X29621Y20983
X30472Y24291
X30986Y24276
X31821Y27431
X32182Y28297
X32724Y28307
X38789Y26004
X39035Y25591
X42470Y24122
X40404Y21551
X44240Y20947
X43386Y29255
X42728Y28768
X42225Y31212
X43175Y32300
X43435Y33283
X46949Y33238
X47136Y33494
X48066Y34339
X48017Y34645
X49079Y34983
X49093Y35233
X49033Y36090
Y36327
X47311Y36056
X47297Y35805
X49429Y33683
X48878Y32949
X49156Y32637
X51191Y32490
X51869Y32102
X51457Y31673
X45266Y29743
X45674Y28418
X44518Y25758
X44724Y20906
X19528Y36654
X19341Y36860
X18533Y37175
X18081Y36535
X17500Y36772
Y37037
X11870Y37382
X11750Y37648
X11467Y37864
X11433Y38198
X11260Y38425
X11841Y38130
X9833Y37638
X10019Y37437
X9301Y36978
X9100Y36829
X4063Y37957
X3085
X2106
T02
X14803Y2884
X18829Y1781
X18848Y4222
X23317Y4242
Y1781
X39573Y4091
X40114
Y4677
X39573
X42549Y4557
Y1211
X45685Y4055
X46276
Y4650
Y5240
X45685
Y4650
Y5831
X46276
X46272Y10606
X45681
X45679Y11230
X45681Y11791
X46270
X46272Y12382
X45681
X46279Y11194
X46264Y17287
X45673
Y17882
Y18472
X46264
Y19063
X45644Y19073
X46264Y17882
X42549Y18238
X40114Y18512
X39573Y18502
Y17911
X40114Y17921
Y17335
X39573Y17325
Y19093
X40114Y19102
X38329Y15669
X37776
X37254
X39573Y12331
X40114Y12331
Y11740
X39573Y11740
Y11150
X40114Y11150
Y10563
X39573Y10563
X42549Y11467
X40114Y5858
X39573
Y5268
X40114
X38329Y6929
X37776
X37254
X23317Y6102
X23417Y9760
X23435Y11043
Y15577
Y18514
X18848Y15577
Y11043
Y9774
Y6102
X14783Y8376
X14734Y14587
X14715Y19665
X3012Y19970
Y17894
X9272Y8720
X-557Y27929
X2844Y31693
X2854Y32785
X3563Y33124
X4902Y34030
X14695Y35866
X14744Y31102
X18848Y31880
Y29331
X23435Y29350
Y31890
Y35039
Y23150
Y21496
X18848Y21457
Y23110
X14774Y26014
X30719Y33573
X30709Y34026
X31230
Y33573
X31732
X31722Y34026
X37254Y33785
X37776Y33799
X38329
X43593Y34400
X44124
X40114Y24417
X39573Y24407
Y23817
X40114Y23827
Y23236
X39573Y23226
Y22640
X40114Y22650
X38329Y22348
X37776
X37254
Y23195
X37776
X38329
X45669Y22953
Y22362
Y21772
X45659Y21201
X46289Y21220
X46260Y21772
Y22362
Y22953
X44606Y34400
X39823Y36624
X39301
X38789
X38219
X37648
X37047
X33120
X32362
X31457
X30709
X30108Y36624
X14685Y37136
X5748Y37205
T03
X1921Y2429
Y3429
Y4429
Y5429
Y6429
Y7429
Y8429
Y9429
T04
X9968Y8760
X9969Y20079
X9921Y32165
T05
X48756Y1350
X52756
Y5350
Y6980
Y10980
Y12610
X48756
Y10980
Y6980
Y5350
Y16610
Y18240
X52756
Y16610
Y22240
Y23870
X48756
Y22240
Y27870
X52756
T06
X50252Y3350
Y8980
Y14610
Y20240
Y25870
T07
X37795Y8780
X27953
Y30039
X37795
T08
X54189Y30571
Y32402
Y35571
Y37402
M30
