G04*
G04 #@! TF.GenerationSoftware,Altium Limited,Altium Designer,22.10.1 (41)*
G04*
G04 Layer_Color=8421504*
%FSLAX25Y25*%
%MOIN*%
G70*
G04*
G04 #@! TF.SameCoordinates,C0EC0AC3-021A-42EE-A01A-D5F7B593A237*
G04*
G04*
G04 #@! TF.FilePolarity,Positive*
G04*
G01*
G75*
%ADD17R,0.03937X0.03937*%
%ADD18R,0.06614X0.12362*%
%ADD19R,0.03937X0.08268*%
%ADD20R,0.03740X0.03347*%
%ADD21R,0.04528X0.05315*%
%ADD22R,0.03347X0.03740*%
%ADD23R,0.04134X0.02165*%
%ADD24R,0.03543X0.02756*%
%ADD25R,0.06102X0.05315*%
%ADD26R,0.05512X0.01772*%
%ADD27R,0.02756X0.03543*%
%ADD28R,0.03150X0.03150*%
%ADD29R,0.03347X0.01181*%
%ADD30R,0.04724X0.06299*%
%ADD31R,0.01968X0.01968*%
%ADD32R,0.04331X0.01968*%
%ADD33R,0.03150X0.02362*%
%ADD34R,0.14764X0.17362*%
%ADD35R,0.02362X0.12598*%
%ADD36R,0.03150X0.01378*%
%ADD37R,0.01968X0.01968*%
%ADD38R,0.01968X0.04331*%
%ADD39R,0.02362X0.03150*%
%ADD40R,0.17362X0.14764*%
%ADD41R,0.12598X0.02362*%
%ADD42R,0.03937X0.03937*%
%ADD43R,0.05315X0.06102*%
%ADD44R,0.12008X0.02402*%
%ADD45R,0.04724X0.02362*%
%ADD46R,0.06299X0.04724*%
%ADD47R,0.11024X0.02165*%
G04:AMPARAMS|DCode=48|XSize=47.64mil|YSize=71.65mil|CornerRadius=7.86mil|HoleSize=0mil|Usage=FLASHONLY|Rotation=90.000|XOffset=0mil|YOffset=0mil|HoleType=Round|Shape=RoundedRectangle|*
%AMROUNDEDRECTD48*
21,1,0.04764,0.05593,0,0,90.0*
21,1,0.03192,0.07165,0,0,90.0*
1,1,0.01572,0.02797,0.01596*
1,1,0.01572,0.02797,-0.01596*
1,1,0.01572,-0.02797,-0.01596*
1,1,0.01572,-0.02797,0.01596*
%
%ADD48ROUNDEDRECTD48*%
%ADD49R,0.06890X0.02362*%
%ADD50R,0.01870X0.01181*%
%ADD51R,0.10827X0.24410*%
G36*
X549547Y310000D02*
X534232D01*
Y319843D01*
X536647D01*
X536647Y319843D01*
X537148Y319281D01*
X538322Y318344D01*
X539674Y317692D01*
X541139Y317357D01*
X542640D01*
X544105Y317692D01*
X545458Y318344D01*
X546631Y319281D01*
X547132Y319843D01*
X549547Y319843D01*
Y310000D01*
D02*
G37*
G36*
Y378189D02*
X547132D01*
X546631Y378750D01*
X545458Y379687D01*
X544105Y380340D01*
X542640Y380674D01*
X541139D01*
X539674Y380340D01*
X538322Y379687D01*
X537148Y378750D01*
X536647Y378189D01*
X534232D01*
Y388032D01*
X549547D01*
Y378189D01*
D02*
G37*
D17*
X39213Y215276D02*
D03*
X33307D02*
D03*
X98543Y55748D02*
D03*
X92638D02*
D03*
X104567Y107165D02*
D03*
X98661D02*
D03*
X103110Y171102D02*
D03*
X97205D02*
D03*
X105591Y217402D02*
D03*
X99685D02*
D03*
X104606Y278150D02*
D03*
X98701D02*
D03*
X105709Y339843D02*
D03*
X99803D02*
D03*
X396732Y142087D02*
D03*
X402638D02*
D03*
X399921Y83228D02*
D03*
X405827D02*
D03*
X398150Y19094D02*
D03*
X404055D02*
D03*
X393819Y276811D02*
D03*
X399724D02*
D03*
X449961Y244331D02*
D03*
X455866D02*
D03*
X-8583Y187992D02*
D03*
X-14488D02*
D03*
D18*
X4567Y258228D02*
D03*
Y241220D02*
D03*
X-14252D02*
D03*
Y258228D02*
D03*
X4567Y275236D02*
D03*
X-14252D02*
D03*
D19*
X190118Y71811D02*
D03*
X200118D02*
D03*
X220118D02*
D03*
Y111575D02*
D03*
X190118D02*
D03*
X190118Y244291D02*
D03*
X200118D02*
D03*
X220118D02*
D03*
Y284055D02*
D03*
X190118D02*
D03*
Y306024D02*
D03*
X200118D02*
D03*
X220118D02*
D03*
Y345787D02*
D03*
X190118D02*
D03*
X190118Y225315D02*
D03*
X220118D02*
D03*
Y185551D02*
D03*
X200118D02*
D03*
X190118D02*
D03*
X190118Y54724D02*
D03*
X220118D02*
D03*
Y14961D02*
D03*
X200118D02*
D03*
X190118D02*
D03*
X190118Y168465D02*
D03*
X220118D02*
D03*
Y128701D02*
D03*
X200118D02*
D03*
X190118D02*
D03*
D20*
X117126Y66988D02*
D03*
Y72106D02*
D03*
X124063D02*
D03*
Y66988D02*
D03*
X147646Y47972D02*
D03*
Y53091D02*
D03*
X117717Y188051D02*
D03*
Y182933D02*
D03*
X124220D02*
D03*
Y188051D02*
D03*
X147803Y163917D02*
D03*
Y169035D02*
D03*
X125756Y119941D02*
D03*
Y125059D02*
D03*
X118898D02*
D03*
Y119941D02*
D03*
X149339Y102342D02*
D03*
Y107461D02*
D03*
X124409Y228937D02*
D03*
Y234055D02*
D03*
X117717D02*
D03*
Y228937D02*
D03*
X148433Y209941D02*
D03*
Y215059D02*
D03*
X113071Y18858D02*
D03*
Y23976D02*
D03*
X113071Y85079D02*
D03*
Y90197D02*
D03*
X117717Y294351D02*
D03*
Y289232D02*
D03*
X36693Y351102D02*
D03*
Y356220D02*
D03*
X28819Y351102D02*
D03*
Y356220D02*
D03*
X20945Y351102D02*
D03*
Y356220D02*
D03*
Y340472D02*
D03*
Y335354D02*
D03*
X437401Y299528D02*
D03*
Y294409D02*
D03*
X417402Y299528D02*
D03*
Y294409D02*
D03*
X450984Y266693D02*
D03*
Y261575D02*
D03*
X420275Y228819D02*
D03*
Y233937D02*
D03*
X436024Y228819D02*
D03*
Y233937D02*
D03*
X406575Y269213D02*
D03*
Y264094D02*
D03*
X113346Y198228D02*
D03*
Y203346D02*
D03*
X113346Y134528D02*
D03*
Y139646D02*
D03*
X113347Y249449D02*
D03*
Y254567D02*
D03*
X124528Y294351D02*
D03*
Y289232D02*
D03*
X148118Y275335D02*
D03*
Y270216D02*
D03*
X148189Y337992D02*
D03*
Y332874D02*
D03*
X113347Y323228D02*
D03*
Y328346D02*
D03*
X117717Y351890D02*
D03*
Y357008D02*
D03*
X124409D02*
D03*
Y351890D02*
D03*
X-16693Y118898D02*
D03*
Y124016D02*
D03*
X-6850D02*
D03*
Y118898D02*
D03*
X2992Y124016D02*
D03*
Y118898D02*
D03*
D21*
X144626Y62362D02*
D03*
X137736D02*
D03*
X137894Y178307D02*
D03*
X144783D02*
D03*
X139429Y116516D02*
D03*
X146319D02*
D03*
X138524Y224114D02*
D03*
X145413D02*
D03*
X145098Y284606D02*
D03*
X138209D02*
D03*
X145169Y347047D02*
D03*
X138280D02*
D03*
D22*
X154606Y53071D02*
D03*
X159724D02*
D03*
X355669Y18858D02*
D03*
X360787D02*
D03*
X156575Y175827D02*
D03*
X151457D02*
D03*
X159882Y169016D02*
D03*
X154764D02*
D03*
X343898Y120512D02*
D03*
X349016D02*
D03*
X330197Y120512D02*
D03*
X325079D02*
D03*
X161496Y114291D02*
D03*
X156378D02*
D03*
X343898Y105000D02*
D03*
X349016D02*
D03*
X326181Y105000D02*
D03*
X331299D02*
D03*
X161425Y107461D02*
D03*
X156307D02*
D03*
X160520Y215059D02*
D03*
X155402D02*
D03*
X161063Y223228D02*
D03*
X155945D02*
D03*
X325354Y209567D02*
D03*
X320236D02*
D03*
X339724Y209528D02*
D03*
X344843D02*
D03*
X349016Y13937D02*
D03*
X343898D02*
D03*
X325079Y13937D02*
D03*
X330197D02*
D03*
X522086Y303346D02*
D03*
X527205D02*
D03*
X160197Y282126D02*
D03*
X155079D02*
D03*
X160197Y275315D02*
D03*
X155079D02*
D03*
X421339Y257598D02*
D03*
X416221D02*
D03*
X438268D02*
D03*
X433149D02*
D03*
X349606Y227008D02*
D03*
X344488D02*
D03*
X329961Y226969D02*
D03*
X335079D02*
D03*
X155701Y346161D02*
D03*
X160819D02*
D03*
X155158Y337992D02*
D03*
X160276D02*
D03*
X349016Y318189D02*
D03*
X343898D02*
D03*
X325394Y318189D02*
D03*
X330512D02*
D03*
D23*
X119457Y53091D02*
D03*
Y56831D02*
D03*
Y60571D02*
D03*
X129693D02*
D03*
Y56831D02*
D03*
Y53091D02*
D03*
X129850Y169035D02*
D03*
Y172775D02*
D03*
Y176516D02*
D03*
X119614D02*
D03*
Y172775D02*
D03*
Y169035D02*
D03*
X131386Y106043D02*
D03*
Y109783D02*
D03*
Y113524D02*
D03*
X121150D02*
D03*
Y109783D02*
D03*
Y106043D02*
D03*
X130315Y215039D02*
D03*
Y218780D02*
D03*
Y222520D02*
D03*
X120079D02*
D03*
Y218780D02*
D03*
Y215039D02*
D03*
X119929Y275335D02*
D03*
Y279075D02*
D03*
Y282815D02*
D03*
X130165D02*
D03*
Y279075D02*
D03*
Y275335D02*
D03*
X119921Y337992D02*
D03*
Y341732D02*
D03*
Y345472D02*
D03*
X130158D02*
D03*
Y341732D02*
D03*
Y337992D02*
D03*
D24*
X110433Y55197D02*
D03*
Y49685D02*
D03*
X351299Y98228D02*
D03*
Y92716D02*
D03*
X399882Y269409D02*
D03*
Y263898D02*
D03*
X443858Y14803D02*
D03*
Y20315D02*
D03*
X444528Y136378D02*
D03*
Y141890D02*
D03*
X444095Y74528D02*
D03*
Y80039D02*
D03*
X27205Y189685D02*
D03*
Y195197D02*
D03*
X3740Y193543D02*
D03*
Y188031D02*
D03*
X348701Y282401D02*
D03*
Y276890D02*
D03*
X-2008Y188032D02*
D03*
Y193543D02*
D03*
X113701Y165551D02*
D03*
Y171063D02*
D03*
X114803Y101654D02*
D03*
Y107165D02*
D03*
X114094Y211968D02*
D03*
Y217480D02*
D03*
X347992Y203858D02*
D03*
Y198346D02*
D03*
X284685Y70591D02*
D03*
Y65079D02*
D03*
X289803Y70591D02*
D03*
Y65079D02*
D03*
X294921Y70591D02*
D03*
Y65079D02*
D03*
X269291Y44016D02*
D03*
Y49527D02*
D03*
X264331Y44016D02*
D03*
Y49527D02*
D03*
X413464Y136575D02*
D03*
Y142087D02*
D03*
Y74685D02*
D03*
Y80197D02*
D03*
X294921Y282795D02*
D03*
Y277283D02*
D03*
X284685Y282795D02*
D03*
Y277283D02*
D03*
X289803Y282795D02*
D03*
Y277283D02*
D03*
X269036Y256890D02*
D03*
Y262402D02*
D03*
X264075Y256890D02*
D03*
Y262402D02*
D03*
X324095Y20984D02*
D03*
Y26496D02*
D03*
X27520Y209763D02*
D03*
Y215275D02*
D03*
X409016Y276575D02*
D03*
Y282087D02*
D03*
X437598Y249213D02*
D03*
Y243701D02*
D03*
X413464Y13622D02*
D03*
Y19134D02*
D03*
X325276Y133780D02*
D03*
Y128268D02*
D03*
X263465Y150157D02*
D03*
Y155669D02*
D03*
X268425Y150157D02*
D03*
Y155669D02*
D03*
X284685Y172165D02*
D03*
Y166654D02*
D03*
X289803Y172165D02*
D03*
Y166654D02*
D03*
X294921Y172165D02*
D03*
Y166654D02*
D03*
X113898Y278150D02*
D03*
Y272638D02*
D03*
X325827Y239134D02*
D03*
Y233622D02*
D03*
X347599Y305984D02*
D03*
Y311496D02*
D03*
X113819Y339843D02*
D03*
Y334331D02*
D03*
D25*
X138669Y53091D02*
D03*
Y45217D02*
D03*
X138827Y161161D02*
D03*
Y169035D02*
D03*
X140401Y99547D02*
D03*
Y107421D02*
D03*
X139496Y207146D02*
D03*
Y215020D02*
D03*
X139142Y275335D02*
D03*
Y267461D02*
D03*
X139252Y337953D02*
D03*
Y330079D02*
D03*
D26*
X420472Y21555D02*
D03*
Y18996D02*
D03*
Y16437D02*
D03*
Y13878D02*
D03*
X437795D02*
D03*
Y16437D02*
D03*
Y18996D02*
D03*
Y21555D02*
D03*
Y82579D02*
D03*
Y80020D02*
D03*
Y77461D02*
D03*
Y74902D02*
D03*
X420472D02*
D03*
Y77461D02*
D03*
Y80020D02*
D03*
Y82579D02*
D03*
X437795Y144429D02*
D03*
Y141870D02*
D03*
Y139311D02*
D03*
Y136752D02*
D03*
X420472D02*
D03*
Y139311D02*
D03*
Y141870D02*
D03*
Y144429D02*
D03*
D27*
X355945Y286614D02*
D03*
X350433D02*
D03*
X440984Y239449D02*
D03*
X435472D02*
D03*
X352953Y179449D02*
D03*
X347441D02*
D03*
X355377Y70920D02*
D03*
X349866D02*
D03*
X355377Y76156D02*
D03*
X349866D02*
D03*
X352953Y174685D02*
D03*
X347441D02*
D03*
X281142Y29073D02*
D03*
X286653D02*
D03*
X437795Y153346D02*
D03*
X443307D02*
D03*
X426378D02*
D03*
X431890D02*
D03*
X420472D02*
D03*
X414961D02*
D03*
X437795Y91496D02*
D03*
X443307D02*
D03*
X426378D02*
D03*
X431890D02*
D03*
X420472D02*
D03*
X414961D02*
D03*
X437795Y30433D02*
D03*
X443307D02*
D03*
X420472D02*
D03*
X414961D02*
D03*
X426023D02*
D03*
X431535D02*
D03*
X280984Y236141D02*
D03*
X286496D02*
D03*
X280945Y241672D02*
D03*
X286457D02*
D03*
X280984Y231024D02*
D03*
X286496D02*
D03*
X416023Y263504D02*
D03*
X421535D02*
D03*
X449685Y273031D02*
D03*
X455197D02*
D03*
X432953Y263504D02*
D03*
X438464D02*
D03*
X425394Y233937D02*
D03*
X430905D02*
D03*
X286693Y18425D02*
D03*
X281181D02*
D03*
X286693Y23543D02*
D03*
X281181D02*
D03*
X281417Y124291D02*
D03*
X286929D02*
D03*
X281378Y134940D02*
D03*
X286890D02*
D03*
X281417Y129409D02*
D03*
X286929D02*
D03*
D28*
X36693Y374528D02*
D03*
Y368228D02*
D03*
X28819Y374528D02*
D03*
Y368228D02*
D03*
X20945Y374528D02*
D03*
Y368228D02*
D03*
D29*
X339567Y92480D02*
D03*
Y94449D02*
D03*
Y96417D02*
D03*
Y98386D02*
D03*
X330118D02*
D03*
Y96417D02*
D03*
Y94449D02*
D03*
Y92480D02*
D03*
X339567Y198150D02*
D03*
Y200118D02*
D03*
Y202087D02*
D03*
Y204055D02*
D03*
X330118D02*
D03*
Y202087D02*
D03*
Y200118D02*
D03*
Y198150D02*
D03*
X333780Y26890D02*
D03*
Y24921D02*
D03*
Y22953D02*
D03*
Y20984D02*
D03*
X343228D02*
D03*
Y22953D02*
D03*
Y24921D02*
D03*
Y26890D02*
D03*
X345433Y132953D02*
D03*
Y130984D02*
D03*
Y129016D02*
D03*
Y127047D02*
D03*
X335984D02*
D03*
Y129016D02*
D03*
Y130984D02*
D03*
Y132953D02*
D03*
X344095Y239409D02*
D03*
Y237441D02*
D03*
Y235472D02*
D03*
Y233504D02*
D03*
X334646D02*
D03*
Y235472D02*
D03*
Y237441D02*
D03*
Y239409D02*
D03*
X329291Y305752D02*
D03*
Y307720D02*
D03*
Y309689D02*
D03*
Y311658D02*
D03*
X338740D02*
D03*
Y309689D02*
D03*
Y307720D02*
D03*
Y305752D02*
D03*
D30*
X334842Y95433D02*
D03*
X301850Y241535D02*
D03*
X313268D02*
D03*
X301850Y249606D02*
D03*
X313268D02*
D03*
X334842Y201102D02*
D03*
X338504Y23937D02*
D03*
X340709Y130000D02*
D03*
X339370Y236456D02*
D03*
X313268Y27205D02*
D03*
X301850D02*
D03*
X313268Y35276D02*
D03*
X301850D02*
D03*
X301850Y139567D02*
D03*
X313268D02*
D03*
X301850Y131496D02*
D03*
X313268D02*
D03*
X334016Y308705D02*
D03*
D31*
X327854Y264606D02*
D03*
Y259606D02*
D03*
Y254606D02*
D03*
X327854Y144567D02*
D03*
Y149567D02*
D03*
Y154567D02*
D03*
X327854Y51220D02*
D03*
Y46220D02*
D03*
Y41220D02*
D03*
D32*
X329035Y249606D02*
D03*
X329035Y139567D02*
D03*
X329035Y36220D02*
D03*
D33*
X351476Y249606D02*
D03*
Y254606D02*
D03*
Y259606D02*
D03*
Y264606D02*
D03*
X351476Y154567D02*
D03*
Y149567D02*
D03*
Y144567D02*
D03*
Y139567D02*
D03*
X351476Y36220D02*
D03*
Y41220D02*
D03*
Y46220D02*
D03*
Y51220D02*
D03*
D34*
X342520Y257106D02*
D03*
X342520Y147067D02*
D03*
X342520Y43720D02*
D03*
D35*
X330020Y259921D02*
D03*
X330020Y149882D02*
D03*
X330020Y46535D02*
D03*
D36*
X279626Y159173D02*
D03*
Y156614D02*
D03*
Y154055D02*
D03*
Y151496D02*
D03*
Y148937D02*
D03*
Y146378D02*
D03*
Y143819D02*
D03*
X295965D02*
D03*
Y146378D02*
D03*
Y148937D02*
D03*
Y154055D02*
D03*
Y156614D02*
D03*
Y159173D02*
D03*
X279410Y54803D02*
D03*
Y52244D02*
D03*
Y49685D02*
D03*
Y47126D02*
D03*
Y44567D02*
D03*
Y42008D02*
D03*
Y39449D02*
D03*
X295748D02*
D03*
Y42008D02*
D03*
Y44567D02*
D03*
Y49685D02*
D03*
Y52244D02*
D03*
Y54803D02*
D03*
X278839Y268858D02*
D03*
Y266299D02*
D03*
Y263740D02*
D03*
Y261181D02*
D03*
Y258622D02*
D03*
Y256063D02*
D03*
Y253504D02*
D03*
X295177D02*
D03*
Y256063D02*
D03*
Y258622D02*
D03*
Y263740D02*
D03*
Y266299D02*
D03*
Y268858D02*
D03*
D37*
X328720Y276083D02*
D03*
X333720D02*
D03*
X338720D02*
D03*
X327146Y166122D02*
D03*
X332146D02*
D03*
X337146D02*
D03*
X328720Y62697D02*
D03*
X333720D02*
D03*
X338720D02*
D03*
D38*
X343721Y277264D02*
D03*
X342146Y167303D02*
D03*
X343721Y63878D02*
D03*
D39*
X343721Y299705D02*
D03*
X338720D02*
D03*
X333720D02*
D03*
X328720D02*
D03*
X342146Y189744D02*
D03*
X337146D02*
D03*
X332146D02*
D03*
X327146D02*
D03*
X343721Y86319D02*
D03*
X338720D02*
D03*
X333720D02*
D03*
X328720D02*
D03*
D40*
X336221Y290748D02*
D03*
X334646Y180787D02*
D03*
X336221Y77362D02*
D03*
D41*
X333405Y278248D02*
D03*
X331831Y168287D02*
D03*
X333405Y64862D02*
D03*
D42*
X171575Y26063D02*
D03*
Y20157D02*
D03*
Y84882D02*
D03*
Y78976D02*
D03*
X171614Y142638D02*
D03*
Y148543D02*
D03*
X171653Y189291D02*
D03*
Y195197D02*
D03*
X171772Y305394D02*
D03*
Y311299D02*
D03*
X171693Y252874D02*
D03*
Y246968D02*
D03*
D43*
X163386Y28740D02*
D03*
X155512D02*
D03*
X155512Y87401D02*
D03*
X163386D02*
D03*
X155512Y150394D02*
D03*
X163386D02*
D03*
X155512Y197835D02*
D03*
X163386D02*
D03*
X155512Y255906D02*
D03*
X163386D02*
D03*
X163386Y313189D02*
D03*
X155512D02*
D03*
X155512Y245315D02*
D03*
X163386D02*
D03*
X155512Y302636D02*
D03*
X163386D02*
D03*
X163386Y76839D02*
D03*
X155512D02*
D03*
X163386Y18071D02*
D03*
X155512D02*
D03*
X155512Y187390D02*
D03*
X163386D02*
D03*
X155512Y139685D02*
D03*
X163386D02*
D03*
D44*
X502598Y363071D02*
D03*
Y359055D02*
D03*
Y355040D02*
D03*
Y351024D02*
D03*
Y347008D02*
D03*
Y342992D02*
D03*
Y338977D02*
D03*
Y334961D02*
D03*
D45*
X20591Y220866D02*
D03*
Y217126D02*
D03*
Y213386D02*
D03*
X10748D02*
D03*
Y217126D02*
D03*
Y220866D02*
D03*
X10473Y196496D02*
D03*
Y192756D02*
D03*
Y189016D02*
D03*
X20315D02*
D03*
Y196496D02*
D03*
D46*
X314843Y68680D02*
D03*
Y57263D02*
D03*
X306772Y68680D02*
D03*
Y57262D02*
D03*
X306772Y270669D02*
D03*
Y282087D02*
D03*
X314843Y270669D02*
D03*
Y282087D02*
D03*
X314843Y160709D02*
D03*
Y172126D02*
D03*
X306772Y160709D02*
D03*
Y172126D02*
D03*
D47*
X-48976Y116500D02*
D03*
Y280280D02*
D03*
Y277130D02*
D03*
Y270831D02*
D03*
Y264531D02*
D03*
Y258232D02*
D03*
Y251933D02*
D03*
Y245634D02*
D03*
Y239335D02*
D03*
Y233035D02*
D03*
Y226736D02*
D03*
Y220437D02*
D03*
Y214138D02*
D03*
Y207839D02*
D03*
Y201539D02*
D03*
Y182642D02*
D03*
Y176343D02*
D03*
Y170043D02*
D03*
Y163744D02*
D03*
Y157445D02*
D03*
Y151146D02*
D03*
Y141697D02*
D03*
Y132248D02*
D03*
Y273980D02*
D03*
Y267681D02*
D03*
Y261382D02*
D03*
Y255083D02*
D03*
Y248783D02*
D03*
Y242484D02*
D03*
Y236185D02*
D03*
Y229886D02*
D03*
Y223587D02*
D03*
Y217287D02*
D03*
Y210988D02*
D03*
Y204689D02*
D03*
Y198390D02*
D03*
Y179492D02*
D03*
Y173193D02*
D03*
Y166894D02*
D03*
Y160594D02*
D03*
Y154295D02*
D03*
Y147996D02*
D03*
Y144846D02*
D03*
Y138547D02*
D03*
Y135398D02*
D03*
Y129098D02*
D03*
Y125949D02*
D03*
Y122799D02*
D03*
Y119650D02*
D03*
Y113350D02*
D03*
D48*
X35512Y198386D02*
D03*
Y186969D02*
D03*
D49*
X417402Y271752D02*
D03*
Y276752D02*
D03*
Y281752D02*
D03*
Y286752D02*
D03*
X437480D02*
D03*
Y281752D02*
D03*
Y276752D02*
D03*
Y271752D02*
D03*
D50*
X431488Y243701D02*
D03*
Y241732D02*
D03*
Y239764D02*
D03*
X424890D02*
D03*
Y241732D02*
D03*
Y243701D02*
D03*
D51*
X445472Y49173D02*
D03*
X412795D02*
D03*
Y110236D02*
D03*
X445472D02*
D03*
Y172087D02*
D03*
X412795D02*
D03*
X412756Y209803D02*
D03*
X445433D02*
D03*
M02*
