G04*
G04 #@! TF.GenerationSoftware,Altium Limited,Altium Designer,22.10.1 (41)*
G04*
G04 Layer_Color=16711935*
%FSLAX25Y25*%
%MOIN*%
G70*
G04*
G04 #@! TF.SameCoordinates,C0EC0AC3-021A-42EE-A01A-D5F7B593A237*
G04*
G04*
G04 #@! TF.FilePolarity,Negative*
G04*
G01*
G75*
%ADD52R,0.04737X0.04737*%
%ADD55R,0.04540X0.04147*%
%ADD57R,0.04147X0.04540*%
%ADD59R,0.04343X0.03556*%
%ADD60R,0.06902X0.06115*%
%ADD62R,0.03556X0.04343*%
%ADD77C,0.04737*%
%ADD79R,0.06115X0.06902*%
%ADD80R,0.12808X0.03202*%
%ADD83R,0.11417X0.02559*%
%ADD85R,0.07690X0.03162*%
%ADD88R,0.07591X0.07591*%
%ADD89C,0.22453*%
%ADD90C,0.13398*%
%ADD91C,0.08450*%
%ADD92C,0.14087*%
%ADD93C,0.02769*%
%ADD107R,0.24422X0.10642*%
%ADD108R,0.11824X0.09461*%
G36*
X549600Y301933D02*
X549651Y301923D01*
X549701Y301906D01*
X549748Y301883D01*
X549791Y301853D01*
X549831Y301819D01*
X549865Y301779D01*
X549894Y301736D01*
X549918Y301689D01*
X549934Y301639D01*
X549945Y301588D01*
X549948Y301535D01*
Y291693D01*
X549945Y291641D01*
X549934Y291589D01*
X549918Y291540D01*
X549894Y291493D01*
X549865Y291449D01*
X549831Y291409D01*
X549791Y291375D01*
X549748Y291346D01*
X549701Y291323D01*
X549651Y291306D01*
X549600Y291296D01*
X549547Y291292D01*
X534232D01*
X534180Y291296D01*
X534129Y291306D01*
X534079Y291323D01*
X534032Y291346D01*
X533988Y291375D01*
X533949Y291409D01*
X533914Y291449D01*
X533885Y291493D01*
X533862Y291540D01*
X533845Y291589D01*
X533835Y291641D01*
X533831Y291693D01*
Y301535D01*
X533835Y301588D01*
X533845Y301639D01*
X533862Y301689D01*
X533885Y301736D01*
X533914Y301779D01*
X533949Y301819D01*
X533988Y301853D01*
X534032Y301883D01*
X534079Y301906D01*
X534129Y301923D01*
X534180Y301933D01*
X534232Y301936D01*
X536647D01*
X536659Y301936D01*
X536670Y301936D01*
X536685Y301934D01*
X536699Y301933D01*
X536711Y301931D01*
X536722Y301929D01*
X536736Y301926D01*
X536751Y301923D01*
X536762Y301919D01*
X536773Y301916D01*
X536786Y301911D01*
X536801Y301906D01*
X536811Y301901D01*
X536821Y301896D01*
X536834Y301889D01*
X536848Y301883D01*
X536857Y301876D01*
X536867Y301871D01*
X536879Y301862D01*
X536891Y301853D01*
X536900Y301846D01*
X536909Y301839D01*
X536919Y301829D01*
X536931Y301819D01*
X536931Y301819D01*
X536938Y301810D01*
X536946Y301802D01*
X537425Y301266D01*
X538536Y300378D01*
X539808Y299766D01*
X541184Y299451D01*
X542595D01*
X543971Y299766D01*
X545243Y300378D01*
X546355Y301266D01*
X546833Y301802D01*
X546841Y301810D01*
X546848Y301819D01*
X546860Y301829D01*
X546870Y301839D01*
X546879Y301846D01*
X546888Y301853D01*
X546900Y301862D01*
X546912Y301871D01*
X546922Y301876D01*
X546932Y301883D01*
X546945Y301889D01*
X546958Y301896D01*
X546968Y301901D01*
X546979Y301906D01*
X546993Y301911D01*
X547006Y301916D01*
X547017Y301919D01*
X547028Y301923D01*
X547043Y301925D01*
X547057Y301929D01*
X547068Y301931D01*
X547080Y301933D01*
X547094Y301934D01*
X547109Y301936D01*
X547121Y301936D01*
X547132Y301936D01*
X549547Y301936D01*
X549600Y301933D01*
D02*
G37*
G36*
Y370122D02*
X549651Y370112D01*
X549701Y370095D01*
X549748Y370072D01*
X549791Y370042D01*
X549831Y370008D01*
X549865Y369968D01*
X549894Y369925D01*
X549918Y369878D01*
X549934Y369828D01*
X549945Y369777D01*
X549948Y369724D01*
Y359882D01*
X549945Y359830D01*
X549934Y359778D01*
X549918Y359729D01*
X549894Y359681D01*
X549865Y359638D01*
X549831Y359598D01*
X549791Y359564D01*
X549748Y359535D01*
X549701Y359511D01*
X549651Y359495D01*
X549600Y359485D01*
X549547Y359481D01*
X547132D01*
X547121Y359482D01*
X547109Y359482D01*
X547094Y359484D01*
X547080Y359485D01*
X547068Y359487D01*
X547057Y359488D01*
X547043Y359492D01*
X547028Y359495D01*
X547017Y359498D01*
X547006Y359501D01*
X546993Y359507D01*
X546979Y359511D01*
X546968Y359517D01*
X546958Y359521D01*
X546945Y359528D01*
X546932Y359535D01*
X546922Y359541D01*
X546912Y359547D01*
X546900Y359556D01*
X546888Y359564D01*
X546879Y359571D01*
X546870Y359578D01*
X546860Y359589D01*
X546848Y359598D01*
X546841Y359607D01*
X546833Y359615D01*
X546355Y360151D01*
X545243Y361039D01*
X543971Y361652D01*
X542595Y361966D01*
X541184D01*
X539808Y361652D01*
X538536Y361039D01*
X537425Y360151D01*
X536946Y359615D01*
X536938Y359607D01*
X536931Y359598D01*
X536919Y359589D01*
X536909Y359578D01*
X536900Y359571D01*
X536891Y359564D01*
X536879Y359556D01*
X536867Y359547D01*
X536857Y359541D01*
X536848Y359535D01*
X536834Y359528D01*
X536821Y359521D01*
X536811Y359517D01*
X536801Y359511D01*
X536786Y359507D01*
X536773Y359501D01*
X536762Y359498D01*
X536751Y359495D01*
X536736Y359492D01*
X536722Y359488D01*
X536711Y359487D01*
X536699Y359485D01*
X536685Y359484D01*
X536670Y359482D01*
X536659Y359482D01*
X536647Y359481D01*
X534232D01*
X534180Y359485D01*
X534129Y359495D01*
X534079Y359511D01*
X534032Y359535D01*
X533988Y359564D01*
X533949Y359598D01*
X533914Y359638D01*
X533885Y359681D01*
X533862Y359729D01*
X533845Y359778D01*
X533835Y359830D01*
X533831Y359882D01*
Y369724D01*
X533835Y369777D01*
X533845Y369828D01*
X533862Y369878D01*
X533885Y369925D01*
X533914Y369968D01*
X533949Y370008D01*
X533988Y370042D01*
X534032Y370072D01*
X534079Y370095D01*
X534129Y370112D01*
X534180Y370122D01*
X534232Y370125D01*
X549547D01*
X549600Y370122D01*
D02*
G37*
D52*
X104252Y45906D02*
D03*
X98347D02*
D03*
X104213Y172953D02*
D03*
X98307D02*
D03*
X103740Y300276D02*
D03*
X97835D02*
D03*
X191457Y35433D02*
D03*
X185551D02*
D03*
X216181Y149213D02*
D03*
X210276D02*
D03*
X227992Y285197D02*
D03*
X222087D02*
D03*
X227008Y349882D02*
D03*
X221102D02*
D03*
D55*
X125157Y167323D02*
D03*
Y162205D02*
D03*
Y182717D02*
D03*
Y177598D02*
D03*
X64842Y195276D02*
D03*
Y190157D02*
D03*
X84842Y195276D02*
D03*
Y190157D02*
D03*
X123071Y295158D02*
D03*
Y290039D02*
D03*
Y310551D02*
D03*
Y305433D02*
D03*
X175748Y169153D02*
D03*
Y174272D02*
D03*
X195827Y169153D02*
D03*
Y174272D02*
D03*
X64252Y318031D02*
D03*
Y323150D02*
D03*
X84252Y318031D02*
D03*
Y323150D02*
D03*
X64488Y68780D02*
D03*
Y63661D02*
D03*
X84488Y68780D02*
D03*
Y63661D02*
D03*
X188236Y309390D02*
D03*
Y304272D02*
D03*
X208315Y309390D02*
D03*
Y304272D02*
D03*
X187677Y372520D02*
D03*
Y367402D02*
D03*
X207795Y372520D02*
D03*
Y367402D02*
D03*
X124854Y35756D02*
D03*
Y40874D02*
D03*
Y51150D02*
D03*
Y56268D02*
D03*
X151270Y55343D02*
D03*
Y60461D02*
D03*
X171349Y55343D02*
D03*
Y60461D02*
D03*
D57*
X56811Y185512D02*
D03*
X51693D02*
D03*
X92559Y185512D02*
D03*
X97677D02*
D03*
X64842Y159527D02*
D03*
X59724D02*
D03*
X84921Y159528D02*
D03*
X90039D02*
D03*
X234292Y368347D02*
D03*
X229173D02*
D03*
Y375472D02*
D03*
X234292D02*
D03*
X91968Y313386D02*
D03*
X97087D02*
D03*
X64252Y287402D02*
D03*
X59134D02*
D03*
X176921Y138031D02*
D03*
X171803D02*
D03*
X161488Y160020D02*
D03*
X166606D02*
D03*
X212047Y160394D02*
D03*
X206929D02*
D03*
X198494Y138032D02*
D03*
X193376D02*
D03*
X179095Y295138D02*
D03*
X173977D02*
D03*
X218118Y295138D02*
D03*
X223236D02*
D03*
X184291Y273150D02*
D03*
X189409D02*
D03*
X205864Y273149D02*
D03*
X210982D02*
D03*
X522086Y377953D02*
D03*
X527205D02*
D03*
X174055Y359685D02*
D03*
X179173D02*
D03*
X216693Y365158D02*
D03*
X221811D02*
D03*
X179949Y344437D02*
D03*
X174831D02*
D03*
X204685Y338307D02*
D03*
X209803D02*
D03*
X89449Y287402D02*
D03*
X84331D02*
D03*
X84567Y33031D02*
D03*
X89685D02*
D03*
X168897Y24220D02*
D03*
X174016D02*
D03*
X51102Y313386D02*
D03*
X56220D02*
D03*
X51339Y59016D02*
D03*
X56457D02*
D03*
X59370Y33031D02*
D03*
X64488D02*
D03*
X97323Y59016D02*
D03*
X92205D02*
D03*
X152443Y24220D02*
D03*
X147325D02*
D03*
X137010Y46208D02*
D03*
X142128D02*
D03*
X186270Y46208D02*
D03*
X181152D02*
D03*
D59*
X92008Y172402D02*
D03*
Y177913D02*
D03*
X185276Y130669D02*
D03*
Y136181D02*
D03*
X203260Y154748D02*
D03*
Y149236D02*
D03*
X215748Y284354D02*
D03*
Y289866D02*
D03*
X215197Y349921D02*
D03*
Y355433D02*
D03*
X91417Y305787D02*
D03*
Y300276D02*
D03*
X91653Y51418D02*
D03*
Y45906D02*
D03*
X178782Y40937D02*
D03*
Y35425D02*
D03*
D60*
X114213Y167244D02*
D03*
Y159370D02*
D03*
X114213Y186614D02*
D03*
Y178740D02*
D03*
X112126Y295079D02*
D03*
Y287205D02*
D03*
Y314449D02*
D03*
Y306575D02*
D03*
X113909Y32921D02*
D03*
Y40795D02*
D03*
Y60165D02*
D03*
Y52291D02*
D03*
D62*
X56693Y172205D02*
D03*
X51181D02*
D03*
X51496Y191417D02*
D03*
X57008D02*
D03*
X97874Y191417D02*
D03*
X92362D02*
D03*
X162827Y150394D02*
D03*
X168339D02*
D03*
X166803Y165925D02*
D03*
X161291D02*
D03*
X206732Y166299D02*
D03*
X212244D02*
D03*
X205665Y267126D02*
D03*
X211177D02*
D03*
X168661Y18583D02*
D03*
X174173D02*
D03*
X180827Y285512D02*
D03*
X175315D02*
D03*
X223433Y301043D02*
D03*
X217921D02*
D03*
X173779Y301043D02*
D03*
X179291D02*
D03*
X180157Y349764D02*
D03*
X174646D02*
D03*
X179370Y365591D02*
D03*
X173858D02*
D03*
X222008Y371063D02*
D03*
X216496D02*
D03*
X91772Y319291D02*
D03*
X97283D02*
D03*
X56417Y319291D02*
D03*
X50906D02*
D03*
X50590Y300079D02*
D03*
X56102D02*
D03*
X56654Y64921D02*
D03*
X51142D02*
D03*
X92008Y64921D02*
D03*
X97520D02*
D03*
X50827Y45709D02*
D03*
X56339D02*
D03*
X138349Y36583D02*
D03*
X143860D02*
D03*
X142325Y52114D02*
D03*
X136813D02*
D03*
X180955Y52114D02*
D03*
X186467D02*
D03*
D77*
X486181Y364173D02*
D03*
X462212Y366799D02*
D03*
X486181Y356299D02*
D03*
X460118Y326969D02*
D03*
X485984Y314528D02*
D03*
Y321220D02*
D03*
X460118Y336732D02*
D03*
X487284Y333189D02*
D03*
X477756Y328346D02*
D03*
D79*
X243705Y346429D02*
D03*
X235831D02*
D03*
X243705Y355830D02*
D03*
X235830D02*
D03*
D80*
X502598Y344764D02*
D03*
Y340748D02*
D03*
Y336732D02*
D03*
Y332716D02*
D03*
Y328701D02*
D03*
Y324685D02*
D03*
Y320669D02*
D03*
Y316653D02*
D03*
D83*
X-48976Y280280D02*
D03*
Y277130D02*
D03*
Y273980D02*
D03*
Y270831D02*
D03*
Y267681D02*
D03*
Y264531D02*
D03*
Y261382D02*
D03*
Y258232D02*
D03*
Y255083D02*
D03*
Y251933D02*
D03*
Y248783D02*
D03*
Y245634D02*
D03*
Y242484D02*
D03*
Y239335D02*
D03*
Y236185D02*
D03*
Y233035D02*
D03*
Y229886D02*
D03*
Y226736D02*
D03*
Y223587D02*
D03*
Y220437D02*
D03*
Y217287D02*
D03*
Y214138D02*
D03*
Y210988D02*
D03*
Y207839D02*
D03*
Y204689D02*
D03*
Y201539D02*
D03*
Y198390D02*
D03*
Y182642D02*
D03*
Y179492D02*
D03*
Y176343D02*
D03*
Y173193D02*
D03*
Y170043D02*
D03*
Y166894D02*
D03*
Y163744D02*
D03*
Y160594D02*
D03*
Y157445D02*
D03*
Y154295D02*
D03*
Y151146D02*
D03*
Y147996D02*
D03*
Y144846D02*
D03*
Y141697D02*
D03*
Y138547D02*
D03*
Y135398D02*
D03*
Y132248D02*
D03*
Y129098D02*
D03*
Y125949D02*
D03*
Y122799D02*
D03*
Y119650D02*
D03*
Y116500D02*
D03*
Y113350D02*
D03*
D85*
X84921Y167165D02*
D03*
Y172165D02*
D03*
Y177165D02*
D03*
Y182165D02*
D03*
X64842D02*
D03*
Y177165D02*
D03*
Y172165D02*
D03*
Y167165D02*
D03*
X175748Y145394D02*
D03*
Y150394D02*
D03*
Y155394D02*
D03*
Y160394D02*
D03*
X195827D02*
D03*
Y155394D02*
D03*
Y150394D02*
D03*
Y145394D02*
D03*
X208315Y280512D02*
D03*
Y285512D02*
D03*
Y290512D02*
D03*
Y295512D02*
D03*
X188236D02*
D03*
Y290512D02*
D03*
Y285512D02*
D03*
Y280512D02*
D03*
X187756Y344705D02*
D03*
Y349705D02*
D03*
Y354705D02*
D03*
Y359705D02*
D03*
X207835D02*
D03*
Y354705D02*
D03*
Y349705D02*
D03*
Y344705D02*
D03*
X64252Y295039D02*
D03*
Y300039D02*
D03*
Y305039D02*
D03*
Y310039D02*
D03*
X84331D02*
D03*
Y305039D02*
D03*
Y300039D02*
D03*
Y295039D02*
D03*
X64488Y40669D02*
D03*
Y45669D02*
D03*
Y50669D02*
D03*
Y55669D02*
D03*
X84567D02*
D03*
Y50669D02*
D03*
Y45669D02*
D03*
Y40669D02*
D03*
X151270Y31583D02*
D03*
Y36583D02*
D03*
Y41583D02*
D03*
Y46583D02*
D03*
X171349D02*
D03*
Y41583D02*
D03*
Y36583D02*
D03*
Y31583D02*
D03*
D88*
X103622Y200787D02*
D03*
Y21378D02*
D03*
X103622Y137205D02*
D03*
X103622Y87598D02*
D03*
X103622Y251929D02*
D03*
Y325630D02*
D03*
D89*
X370079Y79921D02*
D03*
X272441D02*
D03*
Y291339D02*
D03*
X370079D02*
D03*
D90*
X541890Y374016D02*
D03*
Y324016D02*
D03*
Y355709D02*
D03*
Y305709D02*
D03*
D91*
X527557Y166102D02*
D03*
X487557D02*
D03*
Y126102D02*
D03*
X527557D02*
D03*
Y238701D02*
D03*
X487557D02*
D03*
Y278701D02*
D03*
X527557D02*
D03*
Y222402D02*
D03*
X487557D02*
D03*
Y182402D02*
D03*
X527557D02*
D03*
Y69803D02*
D03*
X487557D02*
D03*
Y109803D02*
D03*
X527557D02*
D03*
Y13504D02*
D03*
X487557D02*
D03*
Y53504D02*
D03*
X527557D02*
D03*
D92*
X502518Y146102D02*
D03*
Y258701D02*
D03*
Y202402D02*
D03*
Y89803D02*
D03*
Y33504D02*
D03*
D93*
X189764Y217638D02*
D03*
X431063Y196535D02*
D03*
X431936Y136716D02*
D03*
X437559Y10433D02*
D03*
X437598Y71457D02*
D03*
X437835Y133307D02*
D03*
X449567Y141772D02*
D03*
X448543Y80158D02*
D03*
X448425Y20315D02*
D03*
X358465Y70472D02*
D03*
X358665Y72927D02*
D03*
X348701Y279646D02*
D03*
D107*
X337795Y246063D02*
D03*
X376772D02*
D03*
X301969Y354331D02*
D03*
X262992D02*
D03*
X301969Y246063D02*
D03*
X262992D02*
D03*
X337795Y123228D02*
D03*
X376772D02*
D03*
X337795Y354331D02*
D03*
X376772D02*
D03*
X262992Y36614D02*
D03*
X301969D02*
D03*
X262992Y123228D02*
D03*
X301969D02*
D03*
X262992Y184646D02*
D03*
X301969D02*
D03*
X376772D02*
D03*
X337795D02*
D03*
Y36614D02*
D03*
X376772D02*
D03*
D108*
X337795Y236811D02*
D03*
Y255315D02*
D03*
X376772Y236811D02*
D03*
Y255315D02*
D03*
X301969Y363583D02*
D03*
Y345079D02*
D03*
X262992Y363583D02*
D03*
Y345079D02*
D03*
X301969Y255315D02*
D03*
Y236811D02*
D03*
X262992Y255315D02*
D03*
Y236811D02*
D03*
X337795Y113976D02*
D03*
Y132480D02*
D03*
X376772Y113976D02*
D03*
Y132480D02*
D03*
X337795Y345079D02*
D03*
Y363583D02*
D03*
X376772Y345079D02*
D03*
Y363583D02*
D03*
X262992Y27362D02*
D03*
Y45866D02*
D03*
X301969Y27362D02*
D03*
Y45866D02*
D03*
X262992Y113976D02*
D03*
Y132480D02*
D03*
X301969Y113976D02*
D03*
Y132480D02*
D03*
X262992Y175394D02*
D03*
Y193898D02*
D03*
X301969Y175394D02*
D03*
Y193898D02*
D03*
X376772D02*
D03*
Y175394D02*
D03*
X337795Y193898D02*
D03*
Y175394D02*
D03*
Y27362D02*
D03*
Y45866D02*
D03*
X376772Y27362D02*
D03*
Y45866D02*
D03*
M02*
