G04*
G04 #@! TF.GenerationSoftware,Altium Limited,Altium Designer,22.10.1 (41)*
G04*
G04 Layer_Physical_Order=4*
G04 Layer_Color=6736896*
%FSLAX25Y25*%
%MOIN*%
G70*
G04*
G04 #@! TF.SameCoordinates,0BB99238-86FF-4950-987D-53966723C9E6*
G04*
G04*
G04 #@! TF.FilePolarity,Positive*
G04*
G01*
G75*
%ADD12C,0.00984*%
%ADD90C,0.03937*%
%ADD92C,0.01181*%
%ADD93C,0.01772*%
%ADD98C,0.13287*%
%ADD100C,0.01968*%
G36*
X545972Y392535D02*
X547338Y392169D01*
X548645Y391628D01*
X549870Y390920D01*
X550993Y390059D01*
X551993Y389059D01*
X552854Y387937D01*
X553561Y386712D01*
X554103Y385405D01*
X554469Y384038D01*
X554654Y382636D01*
Y381928D01*
X554654Y11811D01*
X554654Y11104D01*
X554469Y9701D01*
X554103Y8335D01*
X553562Y7028D01*
X552854Y5803D01*
X551993Y4680D01*
X550993Y3680D01*
X549870Y2819D01*
X548645Y2112D01*
X547338Y1570D01*
X545972Y1204D01*
X544569Y1020D01*
X543862D01*
X11811Y1020D01*
X11104D01*
X9701Y1204D01*
X8335Y1570D01*
X7028Y2112D01*
X5803Y2819D01*
X4680Y3680D01*
X3680Y4680D01*
X2819Y5803D01*
X2112Y7028D01*
X1570Y8335D01*
X1204Y9701D01*
X1020Y11104D01*
X1020Y11811D01*
X1020Y99508D01*
X942Y99898D01*
X721Y100229D01*
X390Y100450D01*
X-0Y100527D01*
X-23910D01*
X-23934Y100522D01*
X-23960Y100526D01*
X-24345Y100507D01*
X-24419Y100489D01*
X-24494D01*
X-25251Y100338D01*
X-25344Y100300D01*
X-25442Y100280D01*
X-26155Y99985D01*
X-26239Y99929D01*
X-26332Y99891D01*
X-26974Y99462D01*
X-27044Y99391D01*
X-27128Y99335D01*
X-27674Y98789D01*
X-27729Y98706D01*
X-27801Y98635D01*
X-28229Y97993D01*
X-28268Y97900D01*
X-28324Y97817D01*
X-28619Y97104D01*
X-28638Y97005D01*
X-28677Y96913D01*
X-28828Y96156D01*
Y96080D01*
X-28846Y96007D01*
X-28865Y95621D01*
X-28861Y95596D01*
X-28866Y95571D01*
Y93209D01*
X-28866Y93098D01*
X-28951Y92894D01*
X-29107Y92738D01*
X-29311Y92653D01*
X-33834D01*
Y105413D01*
X-33839Y105439D01*
X-33836Y105464D01*
X-33855Y105850D01*
X-33873Y105923D01*
X-33873Y105998D01*
X-34023Y106755D01*
X-34062Y106848D01*
X-34082Y106946D01*
X-34377Y107659D01*
X-34433Y107743D01*
X-34471Y107835D01*
X-34900Y108477D01*
X-34971Y108548D01*
X-35026Y108632D01*
X-35572Y109177D01*
X-35656Y109233D01*
X-35727Y109304D01*
X-36368Y109733D01*
X-36461Y109772D01*
X-36545Y109827D01*
X-37258Y110123D01*
X-37356Y110142D01*
X-37449Y110181D01*
X-38206Y110331D01*
X-38282D01*
X-38355Y110350D01*
X-38741Y110369D01*
X-38766Y110365D01*
X-38791Y110370D01*
X-57457D01*
Y184807D01*
X-38004Y184807D01*
X-37971Y184814D01*
X-37937Y184809D01*
X-37321Y184850D01*
X-37224Y184876D01*
X-37123Y184882D01*
X-35932Y185202D01*
X-35813Y185261D01*
X-35686Y185303D01*
X-34618Y185920D01*
X-34518Y186008D01*
X-34407Y186082D01*
X-33535Y186954D01*
X-33461Y187065D01*
X-33373Y187165D01*
X-32756Y188233D01*
X-32713Y188360D01*
X-32654Y188479D01*
X-32335Y189671D01*
X-32326Y189804D01*
X-32300Y189935D01*
Y191168D01*
X-32326Y191299D01*
X-32335Y191432D01*
X-32654Y192623D01*
X-32713Y192743D01*
X-32756Y192869D01*
X-33373Y193937D01*
X-33461Y194037D01*
X-33535Y194148D01*
X-34407Y195020D01*
X-34518Y195094D01*
X-34618Y195182D01*
X-35686Y195799D01*
X-35813Y195842D01*
X-35932Y195901D01*
X-37123Y196220D01*
X-37224Y196227D01*
X-37321Y196253D01*
X-37937Y196293D01*
X-37971Y196289D01*
X-38004Y196295D01*
X-57457D01*
Y283331D01*
X-38791D01*
X-38766Y283336D01*
X-38741Y283332D01*
X-38355Y283351D01*
X-38282Y283369D01*
X-38206Y283369D01*
X-37449Y283520D01*
X-37356Y283558D01*
X-37258Y283578D01*
X-36545Y283873D01*
X-36461Y283929D01*
X-36368Y283967D01*
X-35727Y284396D01*
X-35656Y284467D01*
X-35572Y284523D01*
X-35026Y285069D01*
X-34971Y285152D01*
X-34900Y285223D01*
X-34471Y285865D01*
X-34432Y285958D01*
X-34377Y286041D01*
X-34081Y286754D01*
X-34062Y286853D01*
X-34023Y286946D01*
X-33873Y287703D01*
X-33873Y287778D01*
X-33854Y287852D01*
X-33835Y288237D01*
X-33839Y288263D01*
X-33834Y288287D01*
Y301047D01*
X-29421D01*
X-29421Y301047D01*
X-29421Y301047D01*
X-29311Y301047D01*
X-29107Y300963D01*
X-28951Y300807D01*
X-28866Y300603D01*
X-28866Y300492D01*
X-28866Y300492D01*
X-28866Y300492D01*
Y298130D01*
X-28861Y298105D01*
X-28865Y298080D01*
X-28846Y297694D01*
X-28828Y297621D01*
Y297545D01*
X-28677Y296788D01*
X-28638Y296695D01*
X-28619Y296597D01*
X-28324Y295884D01*
X-28268Y295800D01*
X-28229Y295708D01*
X-27801Y295066D01*
X-27730Y294995D01*
X-27674Y294911D01*
X-27128Y294366D01*
X-27044Y294310D01*
X-26974Y294239D01*
X-26332Y293810D01*
X-26239Y293772D01*
X-26155Y293716D01*
X-25442Y293421D01*
X-25344Y293401D01*
X-25251Y293362D01*
X-24494Y293212D01*
X-24419D01*
X-24345Y293194D01*
X-23959Y293175D01*
X-23934Y293178D01*
X-23910Y293173D01*
X-0D01*
X390Y293251D01*
X721Y293472D01*
X942Y293803D01*
X1020Y294193D01*
Y381890D01*
X1020Y382597D01*
X1204Y384000D01*
X1570Y385366D01*
X2112Y386673D01*
X2819Y387898D01*
X3680Y389020D01*
X4681Y390021D01*
X5803Y390882D01*
X7028Y391589D01*
X8335Y392130D01*
X9701Y392497D01*
X11104Y392681D01*
X11811Y392681D01*
X11811Y392681D01*
X11811Y392681D01*
X244153Y392698D01*
X244252Y392198D01*
X244142Y392152D01*
X243755Y391765D01*
X243545Y391258D01*
Y390710D01*
X243755Y390204D01*
X243829Y390130D01*
X244130Y389803D01*
X243829Y389476D01*
X243755Y389403D01*
X243545Y388896D01*
Y388348D01*
X243755Y387842D01*
X244142Y387454D01*
X244649Y387244D01*
X245197D01*
X245703Y387454D01*
X246091Y387842D01*
X246301Y388348D01*
Y388896D01*
X246091Y389403D01*
X246017Y389476D01*
X245715Y389803D01*
X246017Y390130D01*
X246091Y390204D01*
X246301Y390710D01*
Y391258D01*
X246091Y391765D01*
X245703Y392152D01*
X245593Y392198D01*
X245692Y392698D01*
X543862Y392720D01*
X544569D01*
X545972Y392535D01*
D02*
G37*
%LPC*%
G36*
X288407Y379724D02*
X287578D01*
X286776Y379510D01*
X286058Y379095D01*
X285472Y378509D01*
X285057Y377790D01*
X284842Y376989D01*
Y376160D01*
X285057Y375359D01*
X285472Y374641D01*
X286058Y374055D01*
X286776Y373640D01*
X287578Y373425D01*
X288407D01*
X289208Y373640D01*
X289926Y374055D01*
X290512Y374641D01*
X290927Y375359D01*
X291142Y376160D01*
Y376989D01*
X290927Y377790D01*
X290512Y378509D01*
X289926Y379095D01*
X289208Y379510D01*
X288407Y379724D01*
D02*
G37*
G36*
X198159Y375717D02*
X197611D01*
X197105Y375507D01*
X196717Y375120D01*
X196507Y374613D01*
Y374065D01*
X196717Y373558D01*
X197105Y373171D01*
X197611Y372961D01*
X197716D01*
X198160Y372944D01*
X198178Y372499D01*
Y372395D01*
X198388Y371888D01*
X198775Y371501D01*
X199282Y371291D01*
X199830D01*
X200336Y371501D01*
X200724Y371888D01*
X200934Y372395D01*
Y372943D01*
X200724Y373449D01*
X200336Y373837D01*
X199830Y374047D01*
X199725D01*
X199281Y374064D01*
X199263Y374509D01*
Y374613D01*
X199054Y375120D01*
X198666Y375507D01*
X198159Y375717D01*
D02*
G37*
G36*
X542549Y380709D02*
X541231D01*
X539937Y380451D01*
X538720Y379947D01*
X537623Y379214D01*
X536691Y378282D01*
X535959Y377186D01*
X535454Y375968D01*
X535197Y374675D01*
Y373357D01*
X535454Y372063D01*
X535959Y370845D01*
X536691Y369749D01*
X537623Y368817D01*
X538720Y368085D01*
X539937Y367580D01*
X541231Y367323D01*
X542549D01*
X543842Y367580D01*
X545060Y368085D01*
X546156Y368817D01*
X547088Y369749D01*
X547821Y370845D01*
X548325Y372063D01*
X548583Y373357D01*
Y374675D01*
X548325Y375968D01*
X547821Y377186D01*
X547088Y378282D01*
X546156Y379214D01*
X545060Y379947D01*
X543842Y380451D01*
X542549Y380709D01*
D02*
G37*
G36*
X62872Y368819D02*
X62324D01*
X61818Y368609D01*
X61430Y368221D01*
X61221Y367715D01*
Y367167D01*
X61430Y366660D01*
X61818Y366273D01*
X62324Y366063D01*
X62872D01*
X63379Y366273D01*
X63767Y366660D01*
X63976Y367167D01*
Y367715D01*
X63767Y368221D01*
X63379Y368609D01*
X62872Y368819D01*
D02*
G37*
G36*
X326202Y366398D02*
X325373D01*
X324572Y366183D01*
X323853Y365768D01*
X323267Y365182D01*
X323123Y364933D01*
X322546D01*
X322402Y365182D01*
X321816Y365768D01*
X321098Y366183D01*
X320297Y366398D01*
X319467D01*
X318666Y366183D01*
X317948Y365768D01*
X317362Y365182D01*
X317218Y364933D01*
X316640D01*
X316497Y365182D01*
X315910Y365768D01*
X315192Y366183D01*
X314391Y366398D01*
X313562D01*
X312761Y366183D01*
X312042Y365768D01*
X311456Y365182D01*
X311041Y364464D01*
X310827Y363663D01*
Y362833D01*
X311041Y362032D01*
X311177Y361797D01*
X310889Y361297D01*
X119388D01*
X119054Y361797D01*
X119134Y361990D01*
Y362538D01*
X118924Y363044D01*
X118536Y363432D01*
X118030Y363642D01*
X117482D01*
X116975Y363432D01*
X116588Y363044D01*
X116378Y362538D01*
Y361990D01*
X116458Y361797D01*
X116124Y361297D01*
X86621D01*
X86276Y361228D01*
X85983Y361032D01*
X81777Y356827D01*
X81403D01*
X80896Y356617D01*
X80814Y356536D01*
X80352Y356375D01*
X80169Y356543D01*
X79954Y356759D01*
X79447Y356969D01*
X78899D01*
X78393Y356759D01*
X78005Y356371D01*
X77795Y355865D01*
Y355316D01*
X78005Y354810D01*
X78393Y354422D01*
X78899Y354213D01*
X79007D01*
X79135Y354085D01*
X79168Y354036D01*
X79168Y354036D01*
X79168Y354036D01*
X80264Y352941D01*
X80398Y352851D01*
X80556Y352745D01*
X80557Y352745D01*
X80557Y352745D01*
X80719Y352712D01*
X80902Y352676D01*
X82451D01*
X82797Y352745D01*
X83090Y352941D01*
X87493Y357343D01*
X104295D01*
X104502Y356843D01*
X101402Y353744D01*
X101028D01*
X100521Y353534D01*
X100134Y353147D01*
X99924Y352640D01*
Y352092D01*
X100134Y351586D01*
X100521Y351198D01*
X101028Y350988D01*
X101576D01*
X102082Y351198D01*
X102281Y351397D01*
X102857Y351313D01*
X102918Y351165D01*
X103306Y350777D01*
X103812Y350568D01*
X104361D01*
X104867Y350777D01*
X105255Y351165D01*
X105464Y351671D01*
Y352046D01*
X106964Y353546D01*
X174377D01*
X174626Y353046D01*
X174483Y352701D01*
Y352153D01*
X174693Y351647D01*
X175080Y351259D01*
X175587Y351049D01*
X176135D01*
X176641Y351259D01*
X177029Y351647D01*
X177239Y352153D01*
Y352701D01*
X177575Y353197D01*
X177743Y353224D01*
X178869Y352098D01*
X179162Y351902D01*
X179508Y351833D01*
X179508Y351833D01*
X188602D01*
X191337Y349098D01*
X191630Y348903D01*
X191975Y348834D01*
X232001D01*
X232346Y348903D01*
X232639Y349098D01*
X236968Y353427D01*
X341648D01*
X341935Y353141D01*
X342228Y352945D01*
X342573Y352876D01*
X447222D01*
X447487Y352611D01*
X447994Y352402D01*
X448542D01*
X449048Y352611D01*
X449436Y352999D01*
X449646Y353505D01*
Y353610D01*
X449663Y354054D01*
X450108Y354072D01*
X450212D01*
X450719Y354282D01*
X451106Y354669D01*
X451316Y355176D01*
Y355724D01*
X451106Y356230D01*
X450719Y356618D01*
X450212Y356828D01*
X449664D01*
X449158Y356618D01*
X449137Y356597D01*
X448963Y356632D01*
X236043D01*
X235698Y356563D01*
X235405Y356367D01*
X231056Y352018D01*
X192920D01*
X190993Y353945D01*
X190993Y353946D01*
X190186Y354753D01*
X190186Y354753D01*
X188095Y356843D01*
X188303Y357343D01*
X473325D01*
X473590Y357078D01*
X474096Y356868D01*
X474645D01*
X475151Y357078D01*
X475539Y357466D01*
X475748Y357972D01*
Y358520D01*
X475539Y359027D01*
X475151Y359415D01*
X475033Y359463D01*
X474750Y360086D01*
X474764Y360120D01*
Y360668D01*
X474554Y361174D01*
X474166Y361562D01*
X473660Y361772D01*
X473112D01*
X472605Y361562D01*
X472340Y361297D01*
X328875D01*
X328586Y361797D01*
X328722Y362032D01*
X328937Y362833D01*
Y363663D01*
X328722Y364464D01*
X328308Y365182D01*
X327721Y365768D01*
X327003Y366183D01*
X326202Y366398D01*
D02*
G37*
G36*
X200208Y356778D02*
X199660D01*
X199153Y356568D01*
X198766Y356180D01*
X198556Y355674D01*
Y355125D01*
X198766Y354619D01*
X199153Y354231D01*
X199660Y354022D01*
X200208D01*
X200714Y354231D01*
X201102Y354619D01*
X201312Y355125D01*
Y355674D01*
X201102Y356180D01*
X200714Y356568D01*
X200208Y356778D01*
D02*
G37*
G36*
X196600Y356765D02*
X196052D01*
X195545Y356555D01*
X195158Y356167D01*
X194948Y355661D01*
Y355113D01*
X195158Y354606D01*
X195545Y354219D01*
X196052Y354009D01*
X196600D01*
X197106Y354219D01*
X197494Y354606D01*
X197704Y355113D01*
Y355661D01*
X197494Y356167D01*
X197106Y356555D01*
X196600Y356765D01*
D02*
G37*
G36*
X542549Y362402D02*
X541231D01*
X539937Y362144D01*
X538720Y361640D01*
X537623Y360907D01*
X536691Y359975D01*
X535959Y358879D01*
X535454Y357661D01*
X535197Y356368D01*
Y355049D01*
X535454Y353756D01*
X535959Y352538D01*
X536691Y351442D01*
X537623Y350510D01*
X538720Y349778D01*
X539937Y349273D01*
X541231Y349016D01*
X542549D01*
X543842Y349273D01*
X545060Y349778D01*
X546156Y350510D01*
X547088Y351442D01*
X547821Y352538D01*
X548325Y353756D01*
X548583Y355049D01*
Y356368D01*
X548325Y357661D01*
X547821Y358879D01*
X547088Y359975D01*
X546156Y360907D01*
X545060Y361640D01*
X543842Y362144D01*
X542549Y362402D01*
D02*
G37*
G36*
X468188Y353661D02*
X467639D01*
X467133Y353452D01*
X466745Y353064D01*
X466535Y352557D01*
Y352009D01*
X466745Y351503D01*
X466827Y351421D01*
X466988Y350958D01*
X466819Y350776D01*
X466604Y350561D01*
X466394Y350054D01*
Y349506D01*
X466604Y349000D01*
X466992Y348612D01*
X467498Y348402D01*
X468046D01*
X468553Y348612D01*
X468940Y349000D01*
X469150Y349506D01*
Y350054D01*
X468940Y350561D01*
X468859Y350642D01*
X468698Y351105D01*
X468866Y351288D01*
X469082Y351503D01*
X469291Y352009D01*
Y352557D01*
X469082Y353064D01*
X468694Y353452D01*
X468188Y353661D01*
D02*
G37*
G36*
X326202Y348819D02*
X325373D01*
X324572Y348604D01*
X323853Y348190D01*
X323267Y347603D01*
X323123Y347354D01*
X322546D01*
X322402Y347603D01*
X321816Y348189D01*
X321098Y348604D01*
X320297Y348819D01*
X319467D01*
X318666Y348604D01*
X317948Y348189D01*
X317362Y347603D01*
X317218Y347354D01*
X316640D01*
X316497Y347603D01*
X315910Y348190D01*
X315192Y348604D01*
X314391Y348819D01*
X313562D01*
X312761Y348604D01*
X312042Y348190D01*
X311456Y347603D01*
X311041Y346885D01*
X310827Y346084D01*
Y345255D01*
X311041Y344454D01*
X311456Y343735D01*
X312042Y343149D01*
X312761Y342734D01*
X313562Y342520D01*
X314391D01*
X315192Y342734D01*
X315910Y343149D01*
X316497Y343735D01*
X316640Y343984D01*
X317218D01*
X317362Y343735D01*
X317948Y343149D01*
X318666Y342734D01*
X319467Y342520D01*
X320297D01*
X321098Y342734D01*
X321816Y343149D01*
X322402Y343735D01*
X322546Y343984D01*
X323123D01*
X323267Y343735D01*
X323853Y343149D01*
X324572Y342734D01*
X325373Y342520D01*
X326202D01*
X327003Y342734D01*
X327721Y343149D01*
X328308Y343735D01*
X328722Y344454D01*
X328937Y345255D01*
Y346084D01*
X328722Y346885D01*
X328308Y347603D01*
X327721Y348190D01*
X327003Y348604D01*
X326202Y348819D01*
D02*
G37*
G36*
X29093Y348661D02*
X28545D01*
X28038Y348452D01*
X27651Y348064D01*
X27441Y347557D01*
Y347009D01*
X27651Y346503D01*
X28038Y346115D01*
X28545Y345905D01*
X29093D01*
X29599Y346115D01*
X29987Y346503D01*
X30197Y347009D01*
Y347557D01*
X29987Y348064D01*
X29599Y348452D01*
X29093Y348661D01*
D02*
G37*
G36*
X202769Y348181D02*
X202221D01*
X201715Y347971D01*
X201550Y347807D01*
X193923D01*
X193696Y347762D01*
X193539Y347730D01*
X193539Y347730D01*
X193539Y347730D01*
X193384Y347627D01*
X193214Y347513D01*
X192816Y347115D01*
X191387D01*
X191003Y347039D01*
X190677Y346821D01*
X185628Y341772D01*
X185395D01*
X184889Y341562D01*
X184501Y341174D01*
X184291Y340668D01*
Y340120D01*
X184501Y339613D01*
X184889Y339226D01*
X185395Y339016D01*
X185943D01*
X186450Y339226D01*
X186837Y339613D01*
X187047Y340120D01*
Y340352D01*
X191803Y345108D01*
X193231D01*
X193443Y345150D01*
X193615Y345184D01*
X193615Y345184D01*
X193615Y345184D01*
X193765Y345284D01*
X193941Y345402D01*
X194339Y345800D01*
X201550D01*
X201715Y345635D01*
X202221Y345425D01*
X202769D01*
X203276Y345635D01*
X203663Y346023D01*
X203873Y346529D01*
Y347077D01*
X203663Y347584D01*
X203276Y347971D01*
X202769Y348181D01*
D02*
G37*
G36*
X164762Y347559D02*
X164214D01*
X163708Y347349D01*
X163320Y346962D01*
X163110Y346455D01*
Y345907D01*
X163320Y345401D01*
X163708Y345013D01*
X164214Y344803D01*
X164762D01*
X165269Y345013D01*
X165656Y345401D01*
X165866Y345907D01*
Y346455D01*
X165656Y346962D01*
X165269Y347349D01*
X164762Y347559D01*
D02*
G37*
G36*
X151376D02*
X150828D01*
X150322Y347349D01*
X149934Y346962D01*
X149724Y346455D01*
Y345907D01*
X149934Y345401D01*
X150322Y345013D01*
X150828Y344803D01*
X151376D01*
X151883Y345013D01*
X152270Y345401D01*
X152480Y345907D01*
Y346455D01*
X152270Y346962D01*
X151883Y347349D01*
X151376Y347559D01*
D02*
G37*
G36*
X36967Y346102D02*
X36419D01*
X35912Y345893D01*
X35525Y345505D01*
X35315Y344999D01*
Y344450D01*
X35525Y343944D01*
X35912Y343556D01*
X36419Y343347D01*
X36967D01*
X37473Y343556D01*
X37861Y343944D01*
X38071Y344450D01*
Y344999D01*
X37861Y345505D01*
X37473Y345893D01*
X36967Y346102D01*
D02*
G37*
G36*
X223446Y340669D02*
X222617D01*
X221816Y340455D01*
X221098Y340040D01*
X220511Y339454D01*
X220367Y339204D01*
X219790D01*
X219646Y339454D01*
X219060Y340040D01*
X218342Y340455D01*
X217541Y340669D01*
X216711D01*
X215910Y340455D01*
X215192Y340040D01*
X214606Y339454D01*
X214191Y338735D01*
X213976Y337934D01*
Y337105D01*
X214191Y336304D01*
X214606Y335586D01*
X215192Y334999D01*
X215441Y334856D01*
Y334278D01*
X215192Y334135D01*
X214606Y333548D01*
X214191Y332830D01*
X213976Y332029D01*
Y331200D01*
X214191Y330399D01*
X214606Y329680D01*
X215192Y329094D01*
X215910Y328679D01*
X216711Y328465D01*
X217541D01*
X218342Y328679D01*
X219060Y329094D01*
X219646Y329680D01*
X219790Y329929D01*
X220367D01*
X220511Y329680D01*
X221098Y329094D01*
X221816Y328679D01*
X222617Y328465D01*
X223446D01*
X224247Y328679D01*
X224524Y328261D01*
X223937Y327675D01*
X204843D01*
X204843Y327675D01*
X204497Y327606D01*
X204204Y327410D01*
X204204Y327410D01*
X199173Y322379D01*
X198798D01*
X198291Y322169D01*
X197904Y321781D01*
X197694Y321275D01*
Y321171D01*
X197676Y320726D01*
X197232Y320709D01*
X197127D01*
X196621Y320499D01*
X196233Y320111D01*
X196024Y319605D01*
Y319057D01*
X196233Y318550D01*
X196621Y318162D01*
X197127Y317953D01*
X197676D01*
X198182Y318162D01*
X198256Y318236D01*
X198297Y318228D01*
X198297Y318228D01*
X199847D01*
X200192Y318297D01*
X200485Y318492D01*
X206405Y324412D01*
X207117D01*
X207324Y323912D01*
X206037Y322625D01*
X205804D01*
X205298Y322415D01*
X204910Y322028D01*
X204700Y321521D01*
Y320973D01*
X204910Y320467D01*
X205298Y320079D01*
X205804Y319869D01*
X206352D01*
X206859Y320079D01*
X207246Y320467D01*
X207456Y320973D01*
Y321206D01*
X208633Y322382D01*
X214623D01*
X214830Y321882D01*
X214606Y321658D01*
X214191Y320940D01*
X213976Y320139D01*
Y319310D01*
X214191Y318509D01*
X214606Y317790D01*
X215192Y317204D01*
X215441Y317060D01*
Y316483D01*
X215192Y316339D01*
X214606Y315753D01*
X214191Y315035D01*
X213976Y314234D01*
Y313404D01*
X214191Y312603D01*
X214606Y311885D01*
X215192Y311299D01*
X215910Y310884D01*
X216711Y310669D01*
X217541D01*
X218342Y310884D01*
X219060Y311299D01*
X219646Y311885D01*
X219790Y312134D01*
X220367D01*
X220511Y311885D01*
X221098Y311299D01*
X221816Y310884D01*
X222617Y310669D01*
X223446D01*
X224247Y310884D01*
X224589Y311081D01*
X224896Y310681D01*
X201142Y286927D01*
X176591D01*
X176383Y287427D01*
X176523Y287566D01*
X176732Y288072D01*
Y288621D01*
X176523Y289127D01*
X176135Y289515D01*
X175628Y289724D01*
X175080D01*
X174574Y289515D01*
X174186Y289127D01*
X173976Y288621D01*
Y288072D01*
X174186Y287566D01*
X174325Y287427D01*
X174118Y286927D01*
X151910D01*
X145757Y293080D01*
X145756Y293080D01*
X145599Y293237D01*
X145306Y293433D01*
X144960Y293502D01*
X106065D01*
X106065Y293502D01*
X105720Y293433D01*
X105427Y293237D01*
X101810Y289620D01*
X101435D01*
X100929Y289410D01*
X100541Y289023D01*
X100331Y288516D01*
Y287968D01*
X100541Y287462D01*
X100929Y287074D01*
X101435Y286864D01*
X101920D01*
X102021Y286828D01*
X102382Y286488D01*
Y286153D01*
X102592Y285646D01*
X102979Y285259D01*
X103486Y285049D01*
X104034D01*
X104541Y285259D01*
X104928Y285646D01*
X105138Y286153D01*
Y286577D01*
X108721Y290160D01*
X129019D01*
X129119Y289660D01*
X129049Y289631D01*
X128440Y289022D01*
X128110Y288226D01*
Y287365D01*
X128440Y286569D01*
X129049Y285960D01*
X129845Y285630D01*
X130706D01*
X131502Y285960D01*
X132111Y286569D01*
X132441Y287365D01*
Y288226D01*
X132111Y289022D01*
X131502Y289631D01*
X131432Y289660D01*
X131532Y290160D01*
X144173D01*
X150326Y284007D01*
X150355Y283987D01*
X150365Y283872D01*
X150262Y283449D01*
X149889Y283294D01*
X149501Y282907D01*
X149291Y282400D01*
Y281852D01*
X149501Y281345D01*
X149889Y280958D01*
X150395Y280748D01*
X150943D01*
X151450Y280958D01*
X151838Y281345D01*
X152047Y281852D01*
Y282400D01*
X151838Y282907D01*
X151502Y283243D01*
X151537Y283485D01*
X151655Y283742D01*
X164093D01*
X164136Y283670D01*
X164246Y283243D01*
X163950Y282946D01*
X163740Y282439D01*
Y281891D01*
X163950Y281385D01*
X164338Y280997D01*
X164844Y280787D01*
X165392D01*
X165899Y280997D01*
X166063Y281162D01*
X170927D01*
X175270Y276818D01*
X175063Y276319D01*
X166181D01*
X166017Y276483D01*
X165510Y276693D01*
X164962D01*
X164456Y276483D01*
X164068Y276096D01*
X163858Y275589D01*
Y275041D01*
X164068Y274534D01*
X164456Y274147D01*
X164962Y273937D01*
X165510D01*
X166017Y274147D01*
X166181Y274311D01*
X175104D01*
X205440Y243975D01*
X205766Y243758D01*
X206150Y243682D01*
X275503D01*
X275710Y243181D01*
X275448Y242919D01*
X275118Y242124D01*
Y241262D01*
X275426Y240519D01*
X275241Y240019D01*
X131951D01*
X122520Y249451D01*
Y249683D01*
X122310Y250190D01*
X121922Y250578D01*
X121416Y250787D01*
X120868D01*
X120361Y250578D01*
X119974Y250190D01*
X119764Y249683D01*
Y249135D01*
X119974Y248629D01*
X120361Y248241D01*
X120868Y248031D01*
X121100D01*
X130826Y238306D01*
X131151Y238089D01*
X131535Y238012D01*
X275385D01*
X275592Y237512D01*
X275448Y237368D01*
X275118Y236572D01*
Y235711D01*
X275448Y234915D01*
X276057Y234306D01*
X276853Y233976D01*
X277714D01*
X278510Y234306D01*
X279119Y234915D01*
X279449Y235711D01*
Y236572D01*
X279119Y237368D01*
X278975Y237512D01*
X279182Y238012D01*
X283801D01*
X284185Y238089D01*
X284510Y238306D01*
X286873Y240668D01*
X338897D01*
X347126Y232439D01*
Y232206D01*
X347336Y231700D01*
X347723Y231312D01*
X348230Y231102D01*
X348778D01*
X349285Y231312D01*
X349672Y231700D01*
X349882Y232206D01*
Y232754D01*
X349672Y233261D01*
X349285Y233648D01*
X349149Y233704D01*
X349154Y234244D01*
X349475Y234376D01*
X349639Y234541D01*
X350482D01*
X350866Y234617D01*
X351192Y234835D01*
X351733Y235376D01*
X351951Y235701D01*
X352027Y236086D01*
Y239241D01*
X351951Y239625D01*
X351733Y239950D01*
X344714Y246969D01*
X344388Y247187D01*
X344004Y247263D01*
X246740D01*
X246585Y247727D01*
X246584Y247763D01*
X259648Y260827D01*
X259880D01*
X260387Y261037D01*
X260774Y261424D01*
X260984Y261931D01*
Y262479D01*
X260774Y262985D01*
X260387Y263373D01*
X259880Y263583D01*
X259332D01*
X258826Y263373D01*
X258438Y262985D01*
X258228Y262479D01*
Y262246D01*
X245450Y249468D01*
X225113D01*
X224974Y249930D01*
X224974Y249968D01*
X225552Y250546D01*
X225967Y251265D01*
X226181Y252066D01*
Y252895D01*
X225967Y253696D01*
X225552Y254414D01*
X224965Y255001D01*
X224734Y255134D01*
Y255712D01*
X224978Y255853D01*
X225565Y256439D01*
X225979Y257157D01*
X226194Y257958D01*
Y258788D01*
X225979Y259589D01*
X225565Y260307D01*
X224978Y260893D01*
X224260Y261308D01*
X223459Y261523D01*
X222629D01*
X221829Y261308D01*
X221110Y260893D01*
X220524Y260307D01*
X220377Y260053D01*
X219800D01*
X219646Y260320D01*
X219060Y260906D01*
X218342Y261321D01*
X217541Y261535D01*
X216711D01*
X216085Y261368D01*
X215826Y261816D01*
X216819Y262809D01*
X224191D01*
X224690Y262908D01*
X225114Y263191D01*
X237193Y275270D01*
X282578D01*
X282801Y274770D01*
X282520Y274092D01*
Y273231D01*
X282849Y272435D01*
X283458Y271826D01*
X284254Y271496D01*
X285116D01*
X285912Y271826D01*
X286521Y272435D01*
X286850Y273231D01*
Y274092D01*
X286570Y274770D01*
X286792Y275270D01*
X287696D01*
X287919Y274770D01*
X287638Y274092D01*
Y273231D01*
X287967Y272435D01*
X288577Y271826D01*
X289372Y271496D01*
X290234D01*
X291030Y271826D01*
X291639Y272435D01*
X291968Y273231D01*
Y274092D01*
X291688Y274770D01*
X291910Y275270D01*
X292814D01*
X293037Y274770D01*
X292756Y274092D01*
Y273231D01*
X293086Y272435D01*
X293695Y271826D01*
X294491Y271496D01*
X295352D01*
X296148Y271826D01*
X296757Y272435D01*
X297087Y273231D01*
Y274092D01*
X296806Y274770D01*
X297028Y275270D01*
X325253D01*
X325373Y275069D01*
X325434Y274770D01*
X324921Y274257D01*
X324506Y273538D01*
X324291Y272738D01*
Y271908D01*
X324506Y271107D01*
X324921Y270389D01*
X325507Y269802D01*
X326225Y269388D01*
X327026Y269173D01*
X327856D01*
X328657Y269388D01*
X329375Y269802D01*
X329961Y270389D01*
X330105Y270638D01*
X330682D01*
X330826Y270389D01*
X331413Y269802D01*
X332131Y269388D01*
X332932Y269173D01*
X333761D01*
X334562Y269388D01*
X335280Y269802D01*
X335867Y270389D01*
X336011Y270638D01*
X336588D01*
X336732Y270389D01*
X337318Y269802D01*
X338036Y269388D01*
X338837Y269173D01*
X339667D01*
X340468Y269388D01*
X341186Y269802D01*
X341772Y270389D01*
X341916Y270638D01*
X342493D01*
X342637Y270389D01*
X343224Y269802D01*
X343942Y269388D01*
X344743Y269173D01*
X345572D01*
X346373Y269388D01*
X347091Y269802D01*
X347678Y270389D01*
X347821Y270637D01*
X348321D01*
X348464Y270389D01*
X349050Y269802D01*
X349769Y269388D01*
X350570Y269173D01*
X351399D01*
X352200Y269388D01*
X352918Y269802D01*
X353505Y270389D01*
X353688Y270706D01*
X354265D01*
X354448Y270389D01*
X355035Y269802D01*
X355753Y269388D01*
X356554Y269173D01*
X357383D01*
X358184Y269388D01*
X358902Y269802D01*
X359489Y270389D01*
X359904Y271107D01*
X360118Y271908D01*
Y272738D01*
X359904Y273538D01*
X359489Y274257D01*
X358975Y274770D01*
X359037Y275069D01*
X359157Y275270D01*
X385694D01*
X405333Y255631D01*
X405407Y255454D01*
X405794Y255067D01*
X406301Y254857D01*
X406849D01*
X407355Y255067D01*
X407487Y255198D01*
X407987Y254991D01*
Y235433D01*
X408086Y234934D01*
X408369Y234511D01*
X426121Y216759D01*
X426194Y216582D01*
X426582Y216194D01*
X427088Y215984D01*
X427636D01*
X428143Y216194D01*
X428530Y216582D01*
X428740Y217088D01*
Y217636D01*
X428530Y218143D01*
X428143Y218530D01*
X427966Y218604D01*
X424865Y221705D01*
X425072Y222205D01*
X425195D01*
X425702Y222414D01*
X426089Y222802D01*
X426299Y223308D01*
Y223857D01*
X426089Y224363D01*
X425702Y224751D01*
X425195Y224961D01*
X424647D01*
X424141Y224751D01*
X423753Y224363D01*
X423543Y223857D01*
Y223733D01*
X423043Y223526D01*
X410596Y235973D01*
Y264370D01*
X410497Y264869D01*
X410214Y265293D01*
X395844Y279663D01*
X395421Y279945D01*
X394921Y280045D01*
X373248D01*
X373169Y280545D01*
X374386Y280940D01*
X375959Y281742D01*
X377388Y282780D01*
X378637Y284029D01*
X379675Y285458D01*
X380477Y287031D01*
X381023Y288711D01*
X381299Y290456D01*
Y292222D01*
X381023Y293966D01*
X380477Y295646D01*
X379675Y297219D01*
X378637Y298648D01*
X377388Y299897D01*
X375959Y300935D01*
X374386Y301737D01*
X372706Y302283D01*
X370962Y302559D01*
X369196D01*
X367451Y302283D01*
X365772Y301737D01*
X364198Y300935D01*
X362769Y299897D01*
X361520Y298648D01*
X360482Y297219D01*
X359680Y295646D01*
X359135Y293966D01*
X358858Y292222D01*
Y290456D01*
X359135Y288711D01*
X359680Y287031D01*
X360482Y285458D01*
X361520Y284029D01*
X362769Y282780D01*
X364198Y281742D01*
X365772Y280940D01*
X366989Y280545D01*
X366910Y280045D01*
X350984D01*
X350840Y280395D01*
X350826Y280545D01*
X351379Y281098D01*
X351793Y281816D01*
X352008Y282617D01*
Y283446D01*
X351793Y284247D01*
X351379Y284965D01*
X350792Y285552D01*
X350074Y285966D01*
X349273Y286181D01*
X348444D01*
X347643Y285966D01*
X346924Y285552D01*
X346338Y284965D01*
X345923Y284247D01*
X345709Y283446D01*
Y282617D01*
X345923Y281816D01*
X346338Y281098D01*
X346891Y280545D01*
X346877Y280395D01*
X346732Y280045D01*
X275610D01*
X275531Y280545D01*
X276748Y280940D01*
X278322Y281742D01*
X279751Y282780D01*
X280999Y284029D01*
X282038Y285458D01*
X282180Y285737D01*
X282730Y285715D01*
X282849Y285427D01*
X283458Y284818D01*
X284254Y284488D01*
X285116D01*
X285912Y284818D01*
X286521Y285427D01*
X286850Y286223D01*
Y287084D01*
X286521Y287880D01*
X285912Y288489D01*
X285116Y288819D01*
X284254D01*
X283884Y288666D01*
X283434Y289020D01*
X283661Y290456D01*
Y292222D01*
X283385Y293966D01*
X282839Y295646D01*
X282038Y297219D01*
X280999Y298648D01*
X279751Y299897D01*
X278322Y300935D01*
X276748Y301737D01*
X275068Y302283D01*
X273324Y302559D01*
X271558D01*
X269813Y302283D01*
X268134Y301737D01*
X266560Y300935D01*
X265131Y299897D01*
X263882Y298648D01*
X262844Y297219D01*
X262042Y295646D01*
X261497Y293966D01*
X261221Y292222D01*
Y290456D01*
X261497Y288711D01*
X262042Y287031D01*
X262844Y285458D01*
X263882Y284029D01*
X265131Y282780D01*
X266560Y281742D01*
X268134Y280940D01*
X269351Y280545D01*
X269272Y280045D01*
X213243D01*
X212743Y279945D01*
X212320Y279663D01*
X210692Y278034D01*
X210409Y277611D01*
X210310Y277112D01*
Y272482D01*
X202913Y265086D01*
X202302D01*
X202052Y265586D01*
X202193Y265927D01*
Y266301D01*
X208158Y272267D01*
X208354Y272560D01*
X208423Y272906D01*
Y280413D01*
X247618Y319609D01*
X333528D01*
X333735Y319109D01*
X333596Y318969D01*
X333386Y318463D01*
Y317915D01*
X333596Y317408D01*
X333983Y317021D01*
X334490Y316811D01*
X335038D01*
X335544Y317021D01*
X335932Y317408D01*
X336142Y317915D01*
Y318463D01*
X335932Y318969D01*
X335793Y319109D01*
X336000Y319609D01*
X338579D01*
X338787Y319109D01*
X338714Y319036D01*
X338504Y318529D01*
Y317981D01*
X338714Y317475D01*
X339101Y317087D01*
X339608Y316877D01*
X340156D01*
X340662Y317087D01*
X341050Y317475D01*
X341260Y317981D01*
Y318529D01*
X341050Y319036D01*
X340977Y319109D01*
X341184Y319609D01*
X439944D01*
X440008Y319544D01*
Y319207D01*
X440218Y318701D01*
X440606Y318313D01*
X441112Y318103D01*
X441660D01*
X442167Y318313D01*
X442555Y318701D01*
X442764Y319207D01*
Y319755D01*
X442555Y320262D01*
X442167Y320650D01*
X441660Y320859D01*
X441329D01*
X441047Y321254D01*
X441272Y321509D01*
X441365Y321601D01*
X441575Y322108D01*
Y322656D01*
X441365Y323162D01*
X440977Y323550D01*
X440471Y323760D01*
X439923D01*
X439416Y323550D01*
X439029Y323162D01*
X438892Y322832D01*
X408694D01*
X408503Y323294D01*
X411943Y326735D01*
X426005D01*
X426095Y326645D01*
X426095Y326645D01*
X426388Y326449D01*
X426734Y326380D01*
X433994D01*
X434259Y326115D01*
X434765Y325905D01*
X435313D01*
X435820Y326115D01*
X436207Y326503D01*
X436417Y327009D01*
Y327557D01*
X436207Y328064D01*
X435820Y328452D01*
X435313Y328661D01*
X435198D01*
X434757Y328875D01*
X434747Y329123D01*
Y329428D01*
X434537Y329934D01*
X434497Y329975D01*
X434704Y330475D01*
X441949D01*
X453268Y319156D01*
Y318781D01*
X453477Y318275D01*
X453865Y317887D01*
X454372Y317677D01*
X454920D01*
X455426Y317887D01*
X455814Y318275D01*
X456024Y318781D01*
Y319085D01*
X456033Y319334D01*
X456474Y319547D01*
X456590D01*
X457096Y319757D01*
X457484Y320145D01*
X457694Y320651D01*
Y321199D01*
X457484Y321706D01*
X457096Y322093D01*
X456590Y322303D01*
X456215D01*
X445124Y333395D01*
X444831Y333590D01*
X444485Y333659D01*
X230295D01*
X230295Y333659D01*
X229950Y333590D01*
X229657Y333395D01*
X226384Y330122D01*
X225967Y330399D01*
X226181Y331200D01*
Y332029D01*
X225967Y332830D01*
X225552Y333548D01*
X224965Y334135D01*
X224716Y334278D01*
Y334856D01*
X224965Y334999D01*
X225552Y335586D01*
X225967Y336304D01*
X226181Y337105D01*
Y337934D01*
X225967Y338735D01*
X225552Y339454D01*
X224965Y340040D01*
X224247Y340455D01*
X223446Y340669D01*
D02*
G37*
G36*
X200589Y341811D02*
X200041D01*
X199534Y341601D01*
X199147Y341214D01*
X198937Y340707D01*
Y340159D01*
X199147Y339652D01*
X199534Y339265D01*
X200041Y339055D01*
X200589D01*
X201096Y339265D01*
X201483Y339652D01*
X201693Y340159D01*
Y340707D01*
X201483Y341214D01*
X201096Y341601D01*
X200589Y341811D01*
D02*
G37*
G36*
X196348Y341799D02*
X195800D01*
X195294Y341589D01*
X194906Y341201D01*
X194696Y340695D01*
Y340147D01*
X194906Y339640D01*
X195294Y339253D01*
X195800Y339043D01*
X196348D01*
X196855Y339253D01*
X197242Y339640D01*
X197452Y340147D01*
Y340695D01*
X197242Y341201D01*
X196855Y341589D01*
X196348Y341799D01*
D02*
G37*
G36*
X109644Y341142D02*
X109096D01*
X108589Y340932D01*
X108202Y340544D01*
X107992Y340038D01*
Y339490D01*
X108202Y338983D01*
X108589Y338596D01*
X109096Y338386D01*
X109644D01*
X110151Y338596D01*
X110538Y338983D01*
X110748Y339490D01*
Y340038D01*
X110538Y340544D01*
X110151Y340932D01*
X109644Y341142D01*
D02*
G37*
G36*
X106534Y338425D02*
X105986D01*
X105479Y338215D01*
X105092Y337828D01*
X104882Y337321D01*
Y336773D01*
X105092Y336267D01*
X105479Y335879D01*
X105986Y335669D01*
X106534D01*
X107040Y335879D01*
X107428Y336267D01*
X107638Y336773D01*
Y337321D01*
X107428Y337828D01*
X107040Y338215D01*
X106534Y338425D01*
D02*
G37*
G36*
X469211Y334095D02*
X468663D01*
X468157Y333885D01*
X467769Y333497D01*
X467559Y332991D01*
Y332442D01*
X467769Y331936D01*
X468157Y331548D01*
X468663Y331339D01*
X469211D01*
X469718Y331548D01*
X469791Y331622D01*
X470119Y331924D01*
X470444Y331622D01*
X470519Y331547D01*
X471025Y331337D01*
X471573D01*
X472080Y331547D01*
X472468Y331935D01*
X472677Y332441D01*
Y332990D01*
X472468Y333496D01*
X472080Y333884D01*
X471573Y334093D01*
X471025D01*
X470519Y333884D01*
X470445Y333810D01*
X470118Y333508D01*
X469792Y333810D01*
X469718Y333885D01*
X469211Y334095D01*
D02*
G37*
G36*
X107411Y329419D02*
X99833D01*
Y321841D01*
X107411D01*
Y329419D01*
D02*
G37*
G36*
X74320Y325992D02*
X73772D01*
X73266Y325782D01*
X72878Y325395D01*
X72668Y324888D01*
Y324340D01*
X72878Y323834D01*
X73266Y323446D01*
X73772Y323236D01*
X73877D01*
X74321Y323219D01*
X74339Y322774D01*
Y322670D01*
X74548Y322163D01*
X74936Y321776D01*
X75442Y321566D01*
X75991D01*
X76497Y321776D01*
X76885Y322163D01*
X77095Y322670D01*
Y323218D01*
X76885Y323724D01*
X76497Y324112D01*
X75991Y324322D01*
X75886D01*
X75442Y324339D01*
X75424Y324784D01*
Y324888D01*
X75214Y325395D01*
X74827Y325782D01*
X74320Y325992D01*
D02*
G37*
G36*
X29093Y322141D02*
X28545D01*
X28038Y321931D01*
X27651Y321543D01*
X27441Y321037D01*
Y320489D01*
X27651Y319982D01*
X28038Y319594D01*
X28545Y319385D01*
X29093D01*
X29599Y319594D01*
X29987Y319982D01*
X30197Y320489D01*
Y321037D01*
X29987Y321543D01*
X29599Y321931D01*
X29093Y322141D01*
D02*
G37*
G36*
X542549Y330709D02*
X541231D01*
X539937Y330451D01*
X538720Y329947D01*
X537623Y329214D01*
X536691Y328282D01*
X535959Y327186D01*
X535454Y325968D01*
X535197Y324675D01*
Y323357D01*
X535454Y322063D01*
X535959Y320845D01*
X536691Y319749D01*
X537623Y318817D01*
X538720Y318085D01*
X539937Y317580D01*
X541231Y317323D01*
X542549D01*
X543842Y317580D01*
X545060Y318085D01*
X546156Y318817D01*
X547088Y319749D01*
X547821Y320845D01*
X548325Y322063D01*
X548583Y323357D01*
Y324675D01*
X548325Y325968D01*
X547821Y327186D01*
X547088Y328282D01*
X546156Y329214D01*
X545060Y329947D01*
X543842Y330451D01*
X542549Y330709D01*
D02*
G37*
G36*
X174369Y319094D02*
X173820D01*
X173314Y318885D01*
X172926Y318497D01*
X172716Y317991D01*
Y317442D01*
X172926Y316936D01*
X173314Y316548D01*
X173820Y316339D01*
X174369D01*
X174875Y316548D01*
X175263Y316936D01*
X175472Y317442D01*
Y317991D01*
X175263Y318497D01*
X174875Y318885D01*
X174369Y319094D01*
D02*
G37*
G36*
X325324Y314733D02*
X324776D01*
X324270Y314523D01*
X323882Y314135D01*
X323672Y313629D01*
Y313081D01*
X323810Y312747D01*
X322599Y311535D01*
X242663D01*
X242401Y311483D01*
X242085Y311614D01*
X241537D01*
X241031Y311404D01*
X240643Y311017D01*
X240433Y310510D01*
Y309962D01*
X240643Y309456D01*
X241031Y309068D01*
X241537Y308858D01*
X242085D01*
X242592Y309068D01*
X242979Y309456D01*
X243009Y309528D01*
X323014D01*
X323398Y309605D01*
X323724Y309822D01*
X325760Y311858D01*
X325977Y312183D01*
X326014Y312370D01*
X326218Y312574D01*
X326428Y313081D01*
Y313629D01*
X326218Y314135D01*
X325831Y314523D01*
X325324Y314733D01*
D02*
G37*
G36*
X351770Y312795D02*
X351222D01*
X350715Y312585D01*
X350328Y312198D01*
X350118Y311691D01*
Y311143D01*
X350328Y310637D01*
X350715Y310249D01*
X351222Y310039D01*
X351770D01*
X352277Y310249D01*
X352664Y310637D01*
X352874Y311143D01*
Y311691D01*
X352664Y312198D01*
X352277Y312585D01*
X351770Y312795D01*
D02*
G37*
G36*
X75469Y310945D02*
X74921D01*
X74414Y310735D01*
X74027Y310348D01*
X73817Y309841D01*
Y309293D01*
X74027Y308786D01*
X74414Y308399D01*
X74921Y308189D01*
X75469D01*
X75976Y308399D01*
X76363Y308786D01*
X76573Y309293D01*
Y309841D01*
X76363Y310348D01*
X75976Y310735D01*
X75469Y310945D01*
D02*
G37*
G36*
X71142D02*
X70594D01*
X70087Y310735D01*
X69700Y310348D01*
X69490Y309841D01*
Y309293D01*
X69700Y308786D01*
X70087Y308399D01*
X70594Y308189D01*
X71142D01*
X71648Y308399D01*
X72036Y308786D01*
X72246Y309293D01*
Y309841D01*
X72036Y310348D01*
X71648Y310735D01*
X71142Y310945D01*
D02*
G37*
G36*
X343542Y311496D02*
X342994D01*
X342487Y311286D01*
X342100Y310899D01*
X341890Y310392D01*
Y309844D01*
X342100Y309338D01*
X342487Y308950D01*
X342653Y308881D01*
Y308340D01*
X342448Y308255D01*
X342060Y307867D01*
X341850Y307361D01*
Y306813D01*
X342060Y306306D01*
X342448Y305918D01*
X342954Y305709D01*
X343502D01*
X344009Y305918D01*
X344396Y306306D01*
X344606Y306813D01*
Y307361D01*
X344396Y307867D01*
X344009Y308255D01*
X343843Y308324D01*
Y308865D01*
X344048Y308950D01*
X344436Y309338D01*
X344646Y309844D01*
Y310392D01*
X344436Y310899D01*
X344048Y311286D01*
X343542Y311496D01*
D02*
G37*
G36*
X325333Y309298D02*
X324785D01*
X324278Y309088D01*
X323891Y308700D01*
X323681Y308194D01*
Y307646D01*
X323891Y307139D01*
X324278Y306752D01*
X324636Y306604D01*
X324656Y306080D01*
X324298Y305932D01*
X324055Y305689D01*
X296366D01*
X295242Y306812D01*
X294917Y307030D01*
X294533Y307106D01*
X239291D01*
X238907Y307030D01*
X238582Y306812D01*
X236494Y304724D01*
X236261D01*
X235755Y304515D01*
X235367Y304127D01*
X235157Y303621D01*
Y303072D01*
X235367Y302566D01*
X235755Y302178D01*
X236261Y301969D01*
X236809D01*
X237316Y302178D01*
X237704Y302566D01*
X237913Y303072D01*
Y303305D01*
X239707Y305099D01*
X294117D01*
X295240Y303975D01*
X295566Y303758D01*
X295950Y303681D01*
X324212D01*
X324298Y303596D01*
X324805Y303386D01*
X325353D01*
X325859Y303596D01*
X326104Y303841D01*
X326166Y303902D01*
X326590Y303619D01*
X326565Y303558D01*
X326378Y303108D01*
Y302246D01*
X326708Y301451D01*
X327317Y300841D01*
X328113Y300512D01*
X328974D01*
X329770Y300841D01*
X330379Y301451D01*
X330709Y302246D01*
Y303108D01*
X330379Y303904D01*
X329770Y304513D01*
X328974Y304842D01*
X328113D01*
X327317Y304513D01*
X326850Y304046D01*
X326789Y303985D01*
X326365Y304268D01*
X326390Y304328D01*
X326457Y304490D01*
Y305038D01*
X326247Y305544D01*
X325859Y305932D01*
X325502Y306080D01*
X325482Y306604D01*
X325840Y306752D01*
X326227Y307139D01*
X326437Y307646D01*
Y308194D01*
X326227Y308700D01*
X325840Y309088D01*
X325333Y309298D01*
D02*
G37*
G36*
X181888Y306575D02*
X181340D01*
X180834Y306365D01*
X180446Y305977D01*
X180236Y305471D01*
Y304923D01*
X180446Y304416D01*
X180834Y304029D01*
X181340Y303819D01*
X181888D01*
X182395Y304029D01*
X182559Y304193D01*
X192194D01*
X193436Y302952D01*
X193761Y302734D01*
X194145Y302658D01*
X211799D01*
X211964Y302493D01*
X212470Y302284D01*
X213018D01*
X213525Y302493D01*
X213912Y302881D01*
X214122Y303387D01*
Y303936D01*
X213912Y304442D01*
X213525Y304830D01*
X213018Y305039D01*
X212470D01*
X211964Y304830D01*
X211799Y304665D01*
X194561D01*
X193319Y305906D01*
X192994Y306124D01*
X192610Y306200D01*
X182559D01*
X182395Y306365D01*
X181888Y306575D01*
D02*
G37*
G36*
X320808Y302992D02*
X319979D01*
X319178Y302778D01*
X318460Y302363D01*
X318032Y301935D01*
X317603Y302363D01*
X316885Y302778D01*
X316084Y302992D01*
X315255D01*
X314454Y302778D01*
X313735Y302363D01*
X313307Y301935D01*
X312879Y302363D01*
X312161Y302778D01*
X311360Y302992D01*
X310530D01*
X309729Y302778D01*
X309011Y302363D01*
X308425Y301776D01*
X308010Y301058D01*
X307795Y300257D01*
Y299428D01*
X308010Y298627D01*
X308425Y297909D01*
X308715Y297618D01*
X308980Y297284D01*
X308715Y296949D01*
X308425Y296658D01*
X308010Y295940D01*
X307795Y295139D01*
Y294310D01*
X308010Y293509D01*
X308425Y292791D01*
X308715Y292500D01*
X308980Y292165D01*
X308715Y291831D01*
X308425Y291540D01*
X308010Y290822D01*
X307795Y290021D01*
Y289192D01*
X308010Y288391D01*
X308425Y287672D01*
X309011Y287086D01*
X309729Y286671D01*
X310530Y286457D01*
X311360D01*
X312161Y286671D01*
X312879Y287086D01*
X313307Y287514D01*
X313735Y287086D01*
X314454Y286671D01*
X315255Y286457D01*
X316084D01*
X316885Y286671D01*
X317603Y287086D01*
X318051Y287534D01*
X318499Y287086D01*
X319217Y286671D01*
X320018Y286457D01*
X320848D01*
X321649Y286671D01*
X322367Y287086D01*
X322953Y287672D01*
X323368Y288391D01*
X323583Y289192D01*
Y290021D01*
X323368Y290822D01*
X322953Y291540D01*
X322663Y291831D01*
X322398Y292165D01*
X322663Y292500D01*
X322953Y292791D01*
X323368Y293509D01*
X323583Y294310D01*
Y295139D01*
X323368Y295940D01*
X322953Y296658D01*
X322640Y296971D01*
X322380Y297263D01*
X322646Y297640D01*
X322914Y297909D01*
X323329Y298627D01*
X323543Y299428D01*
Y300257D01*
X323329Y301058D01*
X322914Y301776D01*
X322328Y302363D01*
X321609Y302778D01*
X320808Y302992D01*
D02*
G37*
G36*
X338895Y304842D02*
X338034D01*
X337238Y304513D01*
X336629Y303904D01*
X336299Y303108D01*
Y302246D01*
X336629Y301451D01*
X337238Y300841D01*
X338034Y300512D01*
X338895D01*
X339691Y300841D01*
X340300Y301451D01*
X340630Y302246D01*
Y303108D01*
X340300Y303904D01*
X339691Y304513D01*
X338895Y304842D01*
D02*
G37*
G36*
X333935D02*
X333073D01*
X332277Y304513D01*
X331668Y303904D01*
X331339Y303108D01*
Y302246D01*
X331668Y301451D01*
X332277Y300841D01*
X333073Y300512D01*
X333935D01*
X334731Y300841D01*
X335340Y301451D01*
X335669Y302246D01*
Y303108D01*
X335340Y303904D01*
X334731Y304513D01*
X333935Y304842D01*
D02*
G37*
G36*
X542549Y312402D02*
X541231D01*
X539937Y312144D01*
X538720Y311640D01*
X537623Y310907D01*
X536691Y309975D01*
X535959Y308879D01*
X535454Y307661D01*
X535197Y306368D01*
Y305049D01*
X535454Y303756D01*
X535959Y302538D01*
X536691Y301442D01*
X537623Y300510D01*
X538720Y299778D01*
X539937Y299273D01*
X541231Y299016D01*
X542549D01*
X543842Y299273D01*
X545060Y299778D01*
X546156Y300510D01*
X547088Y301442D01*
X547821Y302538D01*
X548325Y303756D01*
X548583Y305049D01*
Y306368D01*
X548325Y307661D01*
X547821Y308879D01*
X547088Y309975D01*
X546156Y310907D01*
X545060Y311640D01*
X543842Y312144D01*
X542549Y312402D01*
D02*
G37*
G36*
X98148Y301693D02*
X97600D01*
X97093Y301483D01*
X96706Y301096D01*
X96496Y300589D01*
Y300041D01*
X96706Y299534D01*
X97093Y299147D01*
X97600Y298937D01*
X98148D01*
X98655Y299147D01*
X99042Y299534D01*
X99252Y300041D01*
Y300589D01*
X99042Y301096D01*
X98655Y301483D01*
X98148Y301693D01*
D02*
G37*
G36*
X348682Y305157D02*
X347853D01*
X347052Y304943D01*
X346334Y304528D01*
X345747Y303942D01*
X345333Y303224D01*
X345118Y302422D01*
Y301593D01*
X345333Y300792D01*
X345747Y300074D01*
X346334Y299488D01*
X347052Y299073D01*
X347853Y298858D01*
X348682D01*
X349483Y299073D01*
X350202Y299488D01*
X350788Y300074D01*
X351203Y300792D01*
X351417Y301593D01*
Y302422D01*
X351203Y303224D01*
X350788Y303942D01*
X350202Y304528D01*
X349483Y304943D01*
X348682Y305157D01*
D02*
G37*
G36*
X117189Y300299D02*
X116641D01*
X116134Y300089D01*
X115746Y299702D01*
X115537Y299195D01*
Y298647D01*
X115746Y298141D01*
X116134Y297753D01*
X116641Y297543D01*
X117189D01*
X117695Y297753D01*
X118083Y298141D01*
X118293Y298647D01*
Y299195D01*
X118083Y299702D01*
X117695Y300089D01*
X117189Y300299D01*
D02*
G37*
G36*
X196573Y299331D02*
X196025D01*
X195519Y299121D01*
X195131Y298733D01*
X194921Y298227D01*
Y297679D01*
X195131Y297172D01*
X195519Y296785D01*
X196025Y296575D01*
X196573D01*
X197080Y296785D01*
X197467Y297172D01*
X197677Y297679D01*
Y298227D01*
X197467Y298733D01*
X197080Y299121D01*
X196573Y299331D01*
D02*
G37*
G36*
X201101Y299134D02*
X200553D01*
X200046Y298924D01*
X199659Y298536D01*
X199449Y298030D01*
Y297482D01*
X199659Y296975D01*
X200046Y296588D01*
X200553Y296378D01*
X201101D01*
X201607Y296588D01*
X201995Y296975D01*
X202205Y297482D01*
Y298030D01*
X201995Y298536D01*
X201607Y298924D01*
X201101Y299134D01*
D02*
G37*
G36*
X78069Y296378D02*
X77521D01*
X77015Y296168D01*
X76850Y296004D01*
X68032D01*
X67647Y295927D01*
X67322Y295710D01*
X64289Y292677D01*
X64057D01*
X63550Y292467D01*
X63163Y292080D01*
X62953Y291573D01*
Y291025D01*
X63163Y290519D01*
X63550Y290131D01*
X64057Y289921D01*
X64605D01*
X65111Y290131D01*
X65499Y290519D01*
X65709Y291025D01*
Y291258D01*
X68447Y293997D01*
X76850D01*
X77015Y293832D01*
X77521Y293622D01*
X78069D01*
X78576Y293832D01*
X78964Y294219D01*
X79173Y294726D01*
Y295274D01*
X78964Y295781D01*
X78576Y296168D01*
X78069Y296378D01*
D02*
G37*
G36*
X83481Y292677D02*
X82933D01*
X82426Y292467D01*
X82039Y292080D01*
X81829Y291573D01*
Y291025D01*
X82039Y290519D01*
X82426Y290131D01*
X82933Y289921D01*
X83481D01*
X83987Y290131D01*
X84375Y290519D01*
X84585Y291025D01*
Y291573D01*
X84375Y292080D01*
X83987Y292467D01*
X83481Y292677D01*
D02*
G37*
G36*
X71180Y292638D02*
X70631D01*
X70125Y292428D01*
X69737Y292040D01*
X69528Y291534D01*
Y290986D01*
X69737Y290479D01*
X70125Y290092D01*
X70631Y289882D01*
X71180D01*
X71686Y290092D01*
X72074Y290479D01*
X72284Y290986D01*
Y291534D01*
X72074Y292040D01*
X71686Y292428D01*
X71180Y292638D01*
D02*
G37*
G36*
X424447Y288150D02*
X423899D01*
X423393Y287940D01*
X423005Y287552D01*
X422795Y287046D01*
Y286497D01*
X423005Y285991D01*
X423393Y285603D01*
X423899Y285394D01*
X424447D01*
X424954Y285603D01*
X425341Y285991D01*
X425551Y286497D01*
Y287046D01*
X425341Y287552D01*
X424954Y287940D01*
X424447Y288150D01*
D02*
G37*
G36*
X430943Y288110D02*
X430395D01*
X429889Y287900D01*
X429501Y287513D01*
X429291Y287006D01*
Y286458D01*
X429501Y285952D01*
X429889Y285564D01*
X430395Y285354D01*
X430943D01*
X431450Y285564D01*
X431838Y285952D01*
X432047Y286458D01*
Y287006D01*
X431838Y287513D01*
X431450Y287900D01*
X430943Y288110D01*
D02*
G37*
G36*
X295352Y288898D02*
X294491D01*
X293695Y288568D01*
X293086Y287959D01*
X292756Y287163D01*
Y286302D01*
X293086Y285506D01*
X293695Y284897D01*
X294491Y284567D01*
X295352D01*
X296148Y284897D01*
X296757Y285506D01*
X297087Y286302D01*
Y287163D01*
X296757Y287959D01*
X296148Y288568D01*
X295352Y288898D01*
D02*
G37*
G36*
X290234D02*
X289372D01*
X288577Y288568D01*
X287967Y287959D01*
X287638Y287163D01*
Y286302D01*
X287967Y285506D01*
X288577Y284897D01*
X289372Y284567D01*
X290234D01*
X291030Y284897D01*
X291639Y285506D01*
X291968Y286302D01*
Y287163D01*
X291639Y287959D01*
X291030Y288568D01*
X290234Y288898D01*
D02*
G37*
G36*
X110195Y279528D02*
X109647D01*
X109141Y279318D01*
X108753Y278930D01*
X108543Y278424D01*
Y277875D01*
X108753Y277369D01*
X109141Y276981D01*
X109647Y276772D01*
X110195D01*
X110702Y276981D01*
X111089Y277369D01*
X111299Y277875D01*
Y278424D01*
X111089Y278930D01*
X110702Y279318D01*
X110195Y279528D01*
D02*
G37*
G36*
X447489Y279466D02*
X446941D01*
X446434Y279256D01*
X446047Y278868D01*
X445837Y278362D01*
Y277814D01*
X446047Y277307D01*
X446434Y276920D01*
X446941Y276710D01*
X447489D01*
X447995Y276920D01*
X448383Y277307D01*
X448593Y277814D01*
Y278362D01*
X448383Y278868D01*
X447995Y279256D01*
X447489Y279466D01*
D02*
G37*
G36*
X528113Y282920D02*
X527002D01*
X525929Y282632D01*
X524967Y282077D01*
X524181Y281291D01*
X523626Y280329D01*
X523338Y279256D01*
Y278145D01*
X523626Y277073D01*
X524181Y276111D01*
X524967Y275325D01*
X525929Y274770D01*
X527002Y274482D01*
X528113D01*
X529185Y274770D01*
X530148Y275325D01*
X530933Y276111D01*
X531488Y277073D01*
X531776Y278145D01*
Y279256D01*
X531488Y280329D01*
X530933Y281291D01*
X530148Y282077D01*
X529185Y282632D01*
X528113Y282920D01*
D02*
G37*
G36*
X488112D02*
X487002D01*
X485929Y282632D01*
X484967Y282077D01*
X484181Y281291D01*
X483626Y280329D01*
X483338Y279256D01*
Y278145D01*
X483626Y277073D01*
X484181Y276111D01*
X484967Y275325D01*
X485929Y274770D01*
X487002Y274482D01*
X488112D01*
X489185Y274770D01*
X490147Y275325D01*
X490933Y276111D01*
X491488Y277073D01*
X491776Y278145D01*
Y279256D01*
X491488Y280329D01*
X490933Y281291D01*
X490147Y282077D01*
X489185Y282632D01*
X488112Y282920D01*
D02*
G37*
G36*
X19113Y276713D02*
X18564D01*
X18058Y276503D01*
X17670Y276115D01*
X17461Y275609D01*
Y275061D01*
X17670Y274554D01*
X18058Y274166D01*
X18564Y273957D01*
X19113D01*
X19619Y274166D01*
X20007Y274554D01*
X20217Y275061D01*
Y275609D01*
X20007Y276115D01*
X19619Y276503D01*
X19113Y276713D01*
D02*
G37*
G36*
X-36458Y275315D02*
X-37006D01*
X-37513Y275105D01*
X-37901Y274718D01*
X-38110Y274211D01*
Y273663D01*
X-37901Y273156D01*
X-37513Y272769D01*
X-37006Y272559D01*
X-36458D01*
X-35952Y272769D01*
X-35564Y273156D01*
X-35354Y273663D01*
Y274211D01*
X-35564Y274718D01*
X-35952Y275105D01*
X-36458Y275315D01*
D02*
G37*
G36*
X-4253Y273346D02*
X-4802D01*
X-5308Y273137D01*
X-5696Y272749D01*
X-5906Y272243D01*
Y271694D01*
X-5696Y271188D01*
X-5308Y270800D01*
X-4802Y270590D01*
X-4253D01*
X-3747Y270800D01*
X-3359Y271188D01*
X-3150Y271694D01*
Y272243D01*
X-3359Y272749D01*
X-3747Y273137D01*
X-4253Y273346D01*
D02*
G37*
G36*
X443598Y273212D02*
X443049D01*
X442543Y273002D01*
X442378Y272838D01*
X416538D01*
X416154Y272761D01*
X415829Y272544D01*
X412609Y269324D01*
X412376D01*
X411870Y269115D01*
X411482Y268727D01*
X411272Y268220D01*
Y267672D01*
X411482Y267166D01*
X411870Y266778D01*
X412376Y266568D01*
X412924D01*
X413431Y266778D01*
X413819Y267166D01*
X414028Y267672D01*
Y267905D01*
X416954Y270831D01*
X442378D01*
X442543Y270666D01*
X443049Y270456D01*
X443598D01*
X444104Y270666D01*
X444491Y271054D01*
X444701Y271560D01*
Y272108D01*
X444491Y272615D01*
X444104Y273002D01*
X443598Y273212D01*
D02*
G37*
G36*
X298856Y271339D02*
X297994D01*
X297199Y271009D01*
X296589Y270400D01*
X296260Y269604D01*
Y268742D01*
X296589Y267947D01*
X297199Y267337D01*
X297994Y267008D01*
X298856D01*
X299652Y267337D01*
X300261Y267947D01*
X300590Y268742D01*
Y269604D01*
X300261Y270400D01*
X299652Y271009D01*
X298856Y271339D01*
D02*
G37*
G36*
X-40080Y269055D02*
X-40628D01*
X-41135Y268845D01*
X-41522Y268458D01*
X-41732Y267951D01*
Y267403D01*
X-41522Y266897D01*
X-41135Y266509D01*
X-40628Y266299D01*
X-40080D01*
X-39574Y266509D01*
X-39186Y266897D01*
X-38976Y267403D01*
Y267951D01*
X-39186Y268458D01*
X-39574Y268845D01*
X-40080Y269055D01*
D02*
G37*
G36*
X429762Y268543D02*
X429214D01*
X428708Y268334D01*
X428320Y267946D01*
X428110Y267440D01*
Y266891D01*
X428320Y266385D01*
X428708Y265997D01*
X429214Y265788D01*
X429762D01*
X430269Y265997D01*
X430656Y266385D01*
X430866Y266891D01*
Y267440D01*
X430656Y267946D01*
X430269Y268334D01*
X429762Y268543D01*
D02*
G37*
G36*
X425235D02*
X424686D01*
X424180Y268334D01*
X423792Y267946D01*
X423583Y267440D01*
Y266891D01*
X423792Y266385D01*
X424180Y265997D01*
X424686Y265788D01*
X425235D01*
X425741Y265997D01*
X426129Y266385D01*
X426338Y266891D01*
Y267440D01*
X426129Y267946D01*
X425741Y268334D01*
X425235Y268543D01*
D02*
G37*
G36*
X156Y267284D02*
X-392D01*
X-899Y267074D01*
X-1063Y266909D01*
X-34016D01*
X-34400Y266833D01*
X-34725Y266615D01*
X-38466Y262874D01*
X-38699D01*
X-39206Y262664D01*
X-39593Y262277D01*
X-39803Y261770D01*
Y261222D01*
X-39593Y260716D01*
X-39206Y260328D01*
X-38699Y260118D01*
X-38151D01*
X-37645Y260328D01*
X-37257Y260716D01*
X-37047Y261222D01*
Y261455D01*
X-33600Y264902D01*
X-1063D01*
X-899Y264737D01*
X-392Y264528D01*
X156D01*
X662Y264737D01*
X1050Y265125D01*
X1260Y265631D01*
Y266180D01*
X1050Y266686D01*
X662Y267074D01*
X156Y267284D01*
D02*
G37*
G36*
X274566Y264882D02*
X274017D01*
X273511Y264672D01*
X273123Y264284D01*
X272914Y263778D01*
Y263230D01*
X273123Y262723D01*
X273511Y262336D01*
X274017Y262126D01*
X274566D01*
X275072Y262336D01*
X275460Y262723D01*
X275670Y263230D01*
Y263778D01*
X275460Y264284D01*
X275072Y264672D01*
X274566Y264882D01*
D02*
G37*
G36*
X163542Y263465D02*
X162994D01*
X162487Y263255D01*
X162100Y262867D01*
X161890Y262361D01*
Y261812D01*
X162100Y261306D01*
X162487Y260918D01*
X162994Y260709D01*
X163542D01*
X164048Y260918D01*
X164436Y261306D01*
X164646Y261812D01*
Y262361D01*
X164436Y262867D01*
X164048Y263255D01*
X163542Y263465D01*
D02*
G37*
G36*
X-27600Y263032D02*
X-28148D01*
X-28655Y262822D01*
X-29042Y262434D01*
X-29252Y261928D01*
Y261379D01*
X-29042Y260873D01*
X-28655Y260485D01*
X-28148Y260276D01*
X-27600D01*
X-27093Y260485D01*
X-26706Y260873D01*
X-26496Y261379D01*
Y261928D01*
X-26706Y262434D01*
X-27093Y262822D01*
X-27600Y263032D01*
D02*
G37*
G36*
X114841Y261260D02*
X114293D01*
X113786Y261050D01*
X113399Y260662D01*
X113189Y260156D01*
Y259608D01*
X113399Y259101D01*
X113786Y258714D01*
X114293Y258504D01*
X114841D01*
X115348Y258714D01*
X115735Y259101D01*
X115945Y259608D01*
Y260156D01*
X115735Y260662D01*
X115348Y261050D01*
X114841Y261260D01*
D02*
G37*
G36*
X274061Y260152D02*
X273513D01*
X273006Y259942D01*
X272619Y259555D01*
X272409Y259048D01*
Y258500D01*
X272619Y257993D01*
X273006Y257606D01*
X273513Y257396D01*
X274061D01*
X274568Y257606D01*
X274955Y257993D01*
X275165Y258500D01*
Y259048D01*
X274955Y259555D01*
X274568Y259942D01*
X274061Y260152D01*
D02*
G37*
G36*
X282534Y259921D02*
X281986D01*
X281480Y259712D01*
X281092Y259324D01*
X280882Y258818D01*
Y258269D01*
X281092Y257763D01*
X281480Y257375D01*
X281986Y257166D01*
X282534D01*
X283041Y257375D01*
X283428Y257763D01*
X283638Y258269D01*
Y258818D01*
X283428Y259324D01*
X283041Y259712D01*
X282534Y259921D01*
D02*
G37*
G36*
X-34962Y259488D02*
X-35510D01*
X-36017Y259278D01*
X-36404Y258891D01*
X-36614Y258384D01*
Y257836D01*
X-36404Y257330D01*
X-36017Y256942D01*
X-35510Y256732D01*
X-34962D01*
X-34456Y256942D01*
X-34068Y257330D01*
X-33858Y257836D01*
Y258384D01*
X-34068Y258891D01*
X-34456Y259278D01*
X-34962Y259488D01*
D02*
G37*
G36*
X-12757Y255866D02*
X-13306D01*
X-13812Y255656D01*
X-14200Y255269D01*
X-14410Y254762D01*
Y254214D01*
X-14200Y253708D01*
X-13812Y253320D01*
X-13306Y253110D01*
X-12757D01*
X-12251Y253320D01*
X-11863Y253708D01*
X-11654Y254214D01*
Y254762D01*
X-11863Y255269D01*
X-12251Y255656D01*
X-12757Y255866D01*
D02*
G37*
G36*
X503288Y266526D02*
X501747D01*
X500235Y266225D01*
X498811Y265635D01*
X497530Y264779D01*
X496440Y263689D01*
X495583Y262407D01*
X494994Y260983D01*
X494693Y259472D01*
Y257930D01*
X494994Y256418D01*
X495583Y254994D01*
X496440Y253713D01*
X497530Y252623D01*
X498811Y251767D01*
X500235Y251177D01*
X501747Y250876D01*
X503288D01*
X504800Y251177D01*
X506224Y251767D01*
X507506Y252623D01*
X508596Y253713D01*
X509452Y254994D01*
X510042Y256418D01*
X510343Y257930D01*
Y259472D01*
X510042Y260983D01*
X509452Y262407D01*
X508596Y263689D01*
X507506Y264779D01*
X506224Y265635D01*
X504800Y266225D01*
X503288Y266526D01*
D02*
G37*
G36*
X-30356Y253150D02*
X-30904D01*
X-31410Y252940D01*
X-31798Y252552D01*
X-32008Y252046D01*
Y251498D01*
X-31798Y250991D01*
X-31410Y250604D01*
X-30904Y250394D01*
X-30356D01*
X-29849Y250604D01*
X-29462Y250991D01*
X-29252Y251498D01*
Y252046D01*
X-29462Y252552D01*
X-29849Y252940D01*
X-30356Y253150D01*
D02*
G37*
G36*
X107411Y255718D02*
X99833D01*
Y248140D01*
X107411D01*
Y255718D01*
D02*
G37*
G36*
X356596Y265787D02*
X355766D01*
X354965Y265573D01*
X354247Y265158D01*
X353661Y264572D01*
X353246Y263854D01*
X353031Y263052D01*
Y262223D01*
X353246Y261422D01*
X353661Y260704D01*
X354247Y260118D01*
X354496Y259974D01*
Y259396D01*
X354247Y259253D01*
X353661Y258666D01*
X353246Y257948D01*
X353031Y257147D01*
Y256317D01*
X353246Y255517D01*
X353661Y254798D01*
X354247Y254212D01*
X354496Y254068D01*
Y253491D01*
X354247Y253347D01*
X353661Y252761D01*
X353246Y252043D01*
X353031Y251241D01*
Y250412D01*
X353246Y249611D01*
X353661Y248893D01*
X354247Y248306D01*
X354965Y247892D01*
X355766Y247677D01*
X356596D01*
X357397Y247892D01*
X358115Y248306D01*
X358622Y248814D01*
X359169Y248267D01*
X359887Y247852D01*
X360688Y247638D01*
X361517D01*
X362318Y247852D01*
X363036Y248267D01*
X363623Y248853D01*
X364037Y249572D01*
X364252Y250373D01*
Y251202D01*
X364037Y252003D01*
X363623Y252721D01*
X363036Y253308D01*
X362787Y253451D01*
Y254029D01*
X363036Y254172D01*
X363623Y254759D01*
X364037Y255477D01*
X364252Y256278D01*
Y257107D01*
X364037Y257909D01*
X363623Y258627D01*
X363036Y259213D01*
X362787Y259357D01*
Y259934D01*
X363036Y260078D01*
X363623Y260665D01*
X364037Y261383D01*
X364252Y262184D01*
Y263013D01*
X364037Y263814D01*
X363623Y264532D01*
X363036Y265119D01*
X362318Y265533D01*
X361517Y265748D01*
X360688D01*
X359887Y265533D01*
X359169Y265119D01*
X358661Y264612D01*
X358115Y265158D01*
X357397Y265573D01*
X356596Y265787D01*
D02*
G37*
G36*
X-34608Y246457D02*
X-35156D01*
X-35662Y246247D01*
X-36050Y245859D01*
X-36260Y245353D01*
Y244805D01*
X-36050Y244298D01*
X-35662Y243911D01*
X-35156Y243701D01*
X-34608D01*
X-34101Y243911D01*
X-33714Y244298D01*
X-33504Y244805D01*
Y245353D01*
X-33714Y245859D01*
X-34101Y246247D01*
X-34608Y246457D01*
D02*
G37*
G36*
X441495Y245158D02*
X440946D01*
X440440Y244948D01*
X440052Y244560D01*
X439843Y244054D01*
Y243505D01*
X440052Y242999D01*
X440440Y242611D01*
X440946Y242402D01*
X441495D01*
X442001Y242611D01*
X442389Y242999D01*
X442598Y243505D01*
Y244054D01*
X442389Y244560D01*
X442001Y244948D01*
X441495Y245158D01*
D02*
G37*
G36*
X-27718Y240787D02*
X-28266D01*
X-28773Y240578D01*
X-29160Y240190D01*
X-29370Y239684D01*
Y239135D01*
X-29160Y238629D01*
X-28773Y238241D01*
X-28266Y238032D01*
X-27718D01*
X-27212Y238241D01*
X-26824Y238629D01*
X-26614Y239135D01*
Y239684D01*
X-26824Y240190D01*
X-27212Y240578D01*
X-27718Y240787D01*
D02*
G37*
G36*
X117912Y239961D02*
X117364D01*
X116857Y239751D01*
X116470Y239363D01*
X116260Y238857D01*
Y238309D01*
X116470Y237802D01*
X116857Y237415D01*
X117364Y237205D01*
X117912D01*
X118418Y237415D01*
X118806Y237802D01*
X119016Y238309D01*
Y238857D01*
X118806Y239363D01*
X118418Y239751D01*
X117912Y239961D01*
D02*
G37*
G36*
X76298Y236890D02*
X75749D01*
X75243Y236680D01*
X75169Y236606D01*
X74842Y236304D01*
X74516Y236606D01*
X74442Y236680D01*
X73935Y236890D01*
X73387D01*
X72881Y236680D01*
X72493Y236292D01*
X72283Y235786D01*
Y235238D01*
X72493Y234731D01*
X72881Y234344D01*
X73387Y234134D01*
X73935D01*
X74442Y234344D01*
X74516Y234418D01*
X74842Y234719D01*
X75169Y234418D01*
X75243Y234344D01*
X75749Y234134D01*
X76298D01*
X76804Y234344D01*
X77192Y234731D01*
X77402Y235238D01*
Y235786D01*
X77192Y236292D01*
X76804Y236680D01*
X76298Y236890D01*
D02*
G37*
G36*
X-4450Y238701D02*
X-4998D01*
X-5505Y238491D01*
X-5893Y238103D01*
X-6102Y237597D01*
Y237049D01*
X-5893Y236542D01*
X-5505Y236155D01*
X-4998Y235945D01*
X-4450D01*
X-3944Y236155D01*
X-3556Y236542D01*
X-3347Y237049D01*
Y237597D01*
X-3556Y238103D01*
X-3944Y238491D01*
X-4450Y238701D01*
D02*
G37*
G36*
X528113Y242919D02*
X527002D01*
X525929Y242632D01*
X524967Y242077D01*
X524181Y241291D01*
X523626Y240329D01*
X523338Y239256D01*
Y238145D01*
X523626Y237072D01*
X524181Y236110D01*
X524967Y235325D01*
X525929Y234770D01*
X527002Y234482D01*
X528113D01*
X529185Y234770D01*
X530148Y235325D01*
X530933Y236110D01*
X531488Y237072D01*
X531776Y238145D01*
Y239256D01*
X531488Y240329D01*
X530933Y241291D01*
X530148Y242077D01*
X529185Y242632D01*
X528113Y242919D01*
D02*
G37*
G36*
X488112D02*
X487002D01*
X485929Y242632D01*
X484967Y242077D01*
X484181Y241291D01*
X483626Y240329D01*
X483338Y239256D01*
Y238145D01*
X483626Y237072D01*
X484181Y236110D01*
X484967Y235325D01*
X485929Y234770D01*
X487002Y234482D01*
X488112D01*
X489185Y234770D01*
X490147Y235325D01*
X490933Y236110D01*
X491488Y237072D01*
X491776Y238145D01*
Y239256D01*
X491488Y240329D01*
X490933Y241291D01*
X490147Y242077D01*
X489185Y242632D01*
X488112Y242919D01*
D02*
G37*
G36*
X290785Y238307D02*
X289924D01*
X289128Y237977D01*
X288519Y237368D01*
X288189Y236572D01*
Y235711D01*
X288519Y234915D01*
X289128Y234306D01*
X289924Y233976D01*
X290785D01*
X291581Y234306D01*
X292190Y234915D01*
X292520Y235711D01*
Y236572D01*
X292190Y237368D01*
X291581Y237977D01*
X290785Y238307D01*
D02*
G37*
G36*
X330510Y239173D02*
X329962D01*
X329456Y238964D01*
X329068Y238576D01*
X328858Y238069D01*
Y237521D01*
X329068Y237015D01*
X329456Y236627D01*
X329650Y236547D01*
Y236005D01*
X329377Y235893D01*
X328989Y235505D01*
X328780Y234998D01*
Y234450D01*
X328989Y233944D01*
X329377Y233556D01*
X329884Y233347D01*
X330432D01*
X330938Y233556D01*
X331326Y233944D01*
X331536Y234450D01*
Y234998D01*
X331326Y235505D01*
X330938Y235893D01*
X330744Y235973D01*
Y236514D01*
X331017Y236627D01*
X331404Y237015D01*
X331614Y237521D01*
Y238069D01*
X331404Y238576D01*
X331017Y238964D01*
X330510Y239173D01*
D02*
G37*
G36*
X-21616Y235984D02*
X-22164D01*
X-22670Y235774D01*
X-23058Y235387D01*
X-23268Y234880D01*
Y234332D01*
X-23058Y233826D01*
X-22670Y233438D01*
X-22164Y233228D01*
X-21616D01*
X-21109Y233438D01*
X-20722Y233826D01*
X-20512Y234332D01*
Y234880D01*
X-20722Y235387D01*
X-21109Y235774D01*
X-21616Y235984D01*
D02*
G37*
G36*
X440904Y235000D02*
X440356D01*
X439849Y234790D01*
X439462Y234403D01*
X439252Y233896D01*
Y233348D01*
X439462Y232841D01*
X439849Y232454D01*
X440356Y232244D01*
X440904D01*
X441410Y232454D01*
X441798Y232841D01*
X442008Y233348D01*
Y233896D01*
X441798Y234403D01*
X441410Y234790D01*
X440904Y235000D01*
D02*
G37*
G36*
X290785Y233210D02*
X289924D01*
X289128Y232880D01*
X288519Y232271D01*
X288189Y231475D01*
Y230614D01*
X288519Y229818D01*
X289128Y229209D01*
X289924Y228879D01*
X290785D01*
X291581Y229209D01*
X292190Y229818D01*
X292520Y230614D01*
Y231475D01*
X292190Y232271D01*
X291581Y232880D01*
X290785Y233210D01*
D02*
G37*
G36*
X277714D02*
X276853D01*
X276057Y232880D01*
X275448Y232271D01*
X275118Y231475D01*
Y230614D01*
X275448Y229818D01*
X276057Y229209D01*
X276853Y228879D01*
X277714D01*
X278510Y229209D01*
X279119Y229818D01*
X279449Y230614D01*
Y231475D01*
X279119Y232271D01*
X278510Y232880D01*
X277714Y233210D01*
D02*
G37*
G36*
X340353Y231378D02*
X339805D01*
X339298Y231168D01*
X338911Y230781D01*
X338701Y230274D01*
Y229726D01*
X338911Y229220D01*
X339298Y228832D01*
X339805Y228622D01*
X340353D01*
X340859Y228832D01*
X341247Y229220D01*
X341457Y229726D01*
Y230274D01*
X341247Y230781D01*
X340859Y231168D01*
X340353Y231378D01*
D02*
G37*
G36*
X339290Y228268D02*
X338742D01*
X338235Y228058D01*
X337848Y227670D01*
X337638Y227164D01*
Y226616D01*
X337848Y226109D01*
X338235Y225722D01*
X338742Y225512D01*
X339290D01*
X339796Y225722D01*
X340184Y226109D01*
X340394Y226616D01*
Y227164D01*
X340184Y227670D01*
X339796Y228058D01*
X339290Y228268D01*
D02*
G37*
G36*
X115727Y222795D02*
X115179D01*
X114672Y222586D01*
X114507Y222421D01*
X112228D01*
X111844Y222344D01*
X111518Y222127D01*
X111340Y221948D01*
X26614D01*
X26450Y222113D01*
X25943Y222323D01*
X25395D01*
X24889Y222113D01*
X24501Y221725D01*
X24291Y221219D01*
Y220671D01*
X24501Y220164D01*
X24889Y219777D01*
X25395Y219567D01*
X25943D01*
X26450Y219777D01*
X26614Y219941D01*
X111755D01*
X112139Y220018D01*
X112465Y220235D01*
X112644Y220414D01*
X114507D01*
X114672Y220249D01*
X115179Y220039D01*
X115727D01*
X116233Y220249D01*
X116621Y220637D01*
X116831Y221143D01*
Y221691D01*
X116621Y222198D01*
X116233Y222586D01*
X115727Y222795D01*
D02*
G37*
G36*
X-34214Y222047D02*
X-34762D01*
X-35269Y221837D01*
X-35656Y221450D01*
X-35866Y220943D01*
Y220395D01*
X-35656Y219889D01*
X-35269Y219501D01*
X-34762Y219291D01*
X-34214D01*
X-33708Y219501D01*
X-33320Y219889D01*
X-33110Y220395D01*
Y220943D01*
X-33320Y221450D01*
X-33708Y221837D01*
X-34214Y222047D01*
D02*
G37*
G36*
X223446Y219764D02*
X222617D01*
X221816Y219549D01*
X221098Y219134D01*
X220511Y218548D01*
X220367Y218299D01*
X219790D01*
X219646Y218548D01*
X219060Y219134D01*
X218342Y219549D01*
X217541Y219764D01*
X216711D01*
X215910Y219549D01*
X215192Y219134D01*
X214606Y218548D01*
X214191Y217830D01*
X213976Y217029D01*
Y216200D01*
X214191Y215399D01*
X214606Y214680D01*
X215192Y214094D01*
X215441Y213950D01*
Y213373D01*
X215192Y213229D01*
X214606Y212643D01*
X214191Y211924D01*
X213976Y211123D01*
Y210294D01*
X214191Y209493D01*
X214606Y208775D01*
X214869Y208511D01*
X214662Y208011D01*
X177857D01*
X173425Y212443D01*
Y212676D01*
X173215Y213182D01*
X172828Y213570D01*
X172321Y213779D01*
X171773D01*
X171267Y213570D01*
X171102Y213405D01*
X137862D01*
X137478Y213329D01*
X137153Y213111D01*
X134336Y210295D01*
X88662D01*
X88458Y210499D01*
X87951Y210709D01*
X87403D01*
X86897Y210499D01*
X86509Y210111D01*
X86299Y209605D01*
Y209057D01*
X86509Y208550D01*
X86897Y208162D01*
X87403Y207953D01*
X87951D01*
X88458Y208162D01*
X88583Y208288D01*
X134752D01*
X135136Y208364D01*
X135462Y208582D01*
X138278Y211398D01*
X171102D01*
X171267Y211233D01*
X171773Y211024D01*
X172006D01*
X176731Y206298D01*
X177014Y206109D01*
X177067Y206032D01*
X177162Y205550D01*
X176533Y204921D01*
X176301D01*
X175794Y204712D01*
X175407Y204324D01*
X175197Y203817D01*
Y203269D01*
X175407Y202763D01*
X175794Y202375D01*
X176301Y202165D01*
X176849D01*
X177355Y202375D01*
X177743Y202763D01*
X177953Y203269D01*
Y203502D01*
X178762Y204311D01*
X209719D01*
X209911Y203850D01*
X204998Y198937D01*
X137790D01*
X137592Y199135D01*
X137266Y199352D01*
X136882Y199429D01*
X118662D01*
X118497Y199593D01*
X117991Y199803D01*
X117443D01*
X116936Y199593D01*
X116548Y199206D01*
X116339Y198699D01*
Y198151D01*
X116548Y197645D01*
X116936Y197257D01*
X117443Y197047D01*
X117991D01*
X118497Y197257D01*
X118662Y197422D01*
X136467D01*
X136665Y197223D01*
X136990Y197006D01*
X137374Y196930D01*
X205413D01*
X205797Y197006D01*
X206123Y197223D01*
X211636Y202737D01*
X214347D01*
X214554Y202237D01*
X214173Y201855D01*
X213758Y201137D01*
X213543Y200336D01*
Y199507D01*
X213758Y198706D01*
X214173Y197987D01*
X214759Y197401D01*
X215107Y197201D01*
Y196623D01*
X214956Y196536D01*
X214369Y195950D01*
X213955Y195231D01*
X213740Y194430D01*
Y193601D01*
X213955Y192800D01*
X214369Y192082D01*
X214956Y191496D01*
X215674Y191081D01*
X216475Y190866D01*
X217304D01*
X218105Y191081D01*
X218824Y191496D01*
X219410Y192082D01*
X219554Y192331D01*
X220131D01*
X220275Y192082D01*
X220861Y191496D01*
X221580Y191081D01*
X222381Y190866D01*
X223210D01*
X224011Y191081D01*
X224729Y191496D01*
X225316Y192082D01*
X225730Y192800D01*
X225945Y193601D01*
Y194430D01*
X225730Y195231D01*
X225316Y195950D01*
X224729Y196536D01*
X224382Y196737D01*
Y197314D01*
X224532Y197401D01*
X225119Y197987D01*
X225533Y198706D01*
X225748Y199507D01*
Y200336D01*
X225533Y201137D01*
X225119Y201855D01*
X224737Y202237D01*
X224944Y202737D01*
X283757D01*
X285630Y200864D01*
Y200631D01*
X285840Y200125D01*
X286227Y199737D01*
X286734Y199528D01*
X287282D01*
X287788Y199737D01*
X288176Y200125D01*
X288386Y200631D01*
Y201180D01*
X288176Y201686D01*
X287788Y202074D01*
X287282Y202284D01*
X287049D01*
X285483Y203850D01*
X285674Y204311D01*
X298993D01*
X299200Y203811D01*
X299055Y203666D01*
X298640Y202948D01*
X298425Y202147D01*
Y201318D01*
X298640Y200517D01*
X299055Y199798D01*
X299641Y199212D01*
X300359Y198797D01*
X301160Y198583D01*
X301989D01*
X302790Y198797D01*
X303509Y199212D01*
X304095Y199798D01*
X304510Y200517D01*
X304724Y201318D01*
Y202147D01*
X304510Y202948D01*
X304095Y203666D01*
X303950Y203811D01*
X304157Y204311D01*
X305596D01*
X312389Y197519D01*
X312715Y197301D01*
X313099Y197225D01*
X313162D01*
X313296Y196725D01*
X313106Y196615D01*
X312677Y196186D01*
X312249Y196615D01*
X311531Y197029D01*
X310730Y197244D01*
X309900D01*
X309099Y197029D01*
X308381Y196615D01*
X307795Y196028D01*
X307380Y195310D01*
X307165Y194509D01*
Y193680D01*
X307380Y192879D01*
X307795Y192161D01*
X308381Y191574D01*
X309099Y191159D01*
X309900Y190945D01*
X310730D01*
X311531Y191159D01*
X312249Y191574D01*
X312677Y192002D01*
X313106Y191574D01*
X313824Y191159D01*
X314173Y191066D01*
X314322Y190508D01*
X314015Y190202D01*
X313600Y189483D01*
X313386Y188682D01*
Y187853D01*
X313600Y187052D01*
X314015Y186334D01*
X314443Y185906D01*
X314015Y185477D01*
X313600Y184759D01*
X313386Y183958D01*
Y183129D01*
X313600Y182328D01*
X314015Y181609D01*
X314443Y181181D01*
X314015Y180753D01*
X313600Y180035D01*
X313386Y179234D01*
Y178404D01*
X313600Y177603D01*
X314015Y176885D01*
X314601Y176299D01*
X315320Y175884D01*
X316121Y175669D01*
X316950D01*
X317751Y175884D01*
X318469Y176299D01*
X318898Y176727D01*
X319326Y176299D01*
X320044Y175884D01*
X320845Y175669D01*
X321674D01*
X322476Y175884D01*
X323194Y176299D01*
X323780Y176885D01*
X324195Y177603D01*
X324409Y178404D01*
Y179234D01*
X324195Y180035D01*
X323780Y180753D01*
X323352Y181181D01*
X323780Y181609D01*
X324195Y182328D01*
X324409Y183129D01*
Y183958D01*
X324195Y184759D01*
X323780Y185477D01*
X323352Y185906D01*
X323780Y186334D01*
X324195Y187052D01*
X324409Y187853D01*
Y188682D01*
X324195Y189483D01*
X323780Y190202D01*
X323365Y190617D01*
X323623Y191066D01*
X324074Y190945D01*
X324903D01*
X325704Y191159D01*
X326422Y191574D01*
X326850Y192002D01*
X327279Y191574D01*
X327997Y191159D01*
X328798Y190945D01*
X329627D01*
X330428Y191159D01*
X331147Y191574D01*
X331733Y192161D01*
X332148Y192879D01*
X332362Y193680D01*
Y194509D01*
X332148Y195310D01*
X331733Y196028D01*
X331147Y196615D01*
X330428Y197029D01*
X329627Y197244D01*
X328798D01*
X327997Y197029D01*
X327279Y196615D01*
X326891Y196227D01*
X326509Y196552D01*
X326495Y196906D01*
X326548Y197119D01*
X326877Y197448D01*
X327087Y197954D01*
Y198502D01*
X326877Y199009D01*
X326489Y199397D01*
X325983Y199606D01*
X325435D01*
X324928Y199397D01*
X324763Y199232D01*
X313514D01*
X312086Y200660D01*
X312277Y201122D01*
X324883D01*
X325084Y200921D01*
X325590Y200712D01*
X326138D01*
X326645Y200921D01*
X327032Y201309D01*
X327242Y201816D01*
Y202364D01*
X327032Y202870D01*
X326740Y203163D01*
X326763Y203281D01*
X327151Y203668D01*
X327361Y204175D01*
Y204723D01*
X327151Y205229D01*
X326763Y205617D01*
X326257Y205827D01*
X325709D01*
X325202Y205617D01*
X325038Y205452D01*
X312660D01*
X307757Y210355D01*
X307431Y210573D01*
X307047Y210649D01*
X287874D01*
X287710Y210814D01*
X287203Y211024D01*
X286655D01*
X286149Y210814D01*
X285761Y210426D01*
X285551Y209920D01*
Y209372D01*
X285761Y208865D01*
X286115Y208511D01*
X286099Y208351D01*
X285967Y208011D01*
X225496D01*
X225289Y208511D01*
X225552Y208775D01*
X225967Y209493D01*
X226181Y210294D01*
Y211123D01*
X225967Y211924D01*
X225552Y212643D01*
X224965Y213229D01*
X224716Y213373D01*
Y213950D01*
X224965Y214094D01*
X225552Y214680D01*
X225967Y215399D01*
X226181Y216200D01*
Y217029D01*
X225967Y217830D01*
X225552Y218548D01*
X224965Y219134D01*
X224247Y219549D01*
X223446Y219764D01*
D02*
G37*
G36*
X528113Y226620D02*
X527002D01*
X525929Y226333D01*
X524967Y225777D01*
X524181Y224992D01*
X523626Y224030D01*
X523338Y222957D01*
Y221846D01*
X523626Y220773D01*
X524181Y219811D01*
X524967Y219026D01*
X525929Y218470D01*
X527002Y218183D01*
X528113D01*
X529185Y218470D01*
X530148Y219026D01*
X530933Y219811D01*
X531488Y220773D01*
X531776Y221846D01*
Y222957D01*
X531488Y224030D01*
X530933Y224992D01*
X530148Y225777D01*
X529185Y226333D01*
X528113Y226620D01*
D02*
G37*
G36*
X109250Y218819D02*
X108702D01*
X108196Y218609D01*
X107808Y218221D01*
X107598Y217715D01*
Y217167D01*
X107808Y216660D01*
X108196Y216273D01*
X108702Y216063D01*
X109250D01*
X109757Y216273D01*
X110145Y216660D01*
X110354Y217167D01*
Y217715D01*
X110145Y218221D01*
X109757Y218609D01*
X109250Y218819D01*
D02*
G37*
G36*
X432676Y218701D02*
X432128D01*
X431621Y218491D01*
X431233Y218103D01*
X431024Y217597D01*
Y217049D01*
X431233Y216542D01*
X431621Y216155D01*
X432128Y215945D01*
X432676D01*
X433182Y216155D01*
X433570Y216542D01*
X433779Y217049D01*
Y217597D01*
X433570Y218103D01*
X433182Y218491D01*
X432676Y218701D01*
D02*
G37*
G36*
X32794Y216614D02*
X32246D01*
X31739Y216404D01*
X31352Y216017D01*
X31142Y215510D01*
Y214962D01*
X31352Y214456D01*
X31739Y214068D01*
X32246Y213858D01*
X32794D01*
X33300Y214068D01*
X33688Y214456D01*
X33898Y214962D01*
Y215510D01*
X33688Y216017D01*
X33300Y216404D01*
X32794Y216614D01*
D02*
G37*
G36*
X69683Y216378D02*
X69135D01*
X68629Y216168D01*
X68241Y215780D01*
X68032Y215274D01*
Y214726D01*
X68241Y214219D01*
X68629Y213832D01*
X69135Y213622D01*
X69683D01*
X70190Y213832D01*
X70578Y214219D01*
X70787Y214726D01*
Y215274D01*
X70578Y215780D01*
X70190Y216168D01*
X69683Y216378D01*
D02*
G37*
G36*
X280313Y214724D02*
X279765D01*
X279259Y214515D01*
X278871Y214127D01*
X278661Y213621D01*
Y213072D01*
X278871Y212566D01*
X279259Y212178D01*
X279765Y211968D01*
X280313D01*
X280820Y212178D01*
X281207Y212566D01*
X281417Y213072D01*
Y213621D01*
X281207Y214127D01*
X280820Y214515D01*
X280313Y214724D01*
D02*
G37*
G36*
X134683Y236653D02*
X133821D01*
X133025Y236324D01*
X132416Y235715D01*
X132087Y234919D01*
Y234057D01*
X132416Y233262D01*
X133025Y232652D01*
X133165Y232595D01*
X141758Y224002D01*
X142442Y223545D01*
X143248Y223385D01*
X150157D01*
Y222954D01*
X150367Y222448D01*
X150755Y222060D01*
X151261Y221850D01*
X151810D01*
X152316Y222060D01*
X152704Y222448D01*
X152913Y222954D01*
Y223385D01*
X311666D01*
X316679Y218372D01*
X317363Y217915D01*
X318169Y217755D01*
X353484D01*
X354291Y217915D01*
X354974Y218372D01*
X362054Y225452D01*
X401214D01*
X417072Y209593D01*
X417756Y209136D01*
X418562Y208976D01*
X431414D01*
X431554Y208918D01*
X432415D01*
X433211Y209248D01*
X433820Y209857D01*
X434150Y210653D01*
Y211514D01*
X433820Y212310D01*
X433211Y212919D01*
X432415Y213249D01*
X431554D01*
X431414Y213191D01*
X419435D01*
X403577Y229049D01*
X402893Y229506D01*
X402087Y229666D01*
X361181D01*
X360375Y229506D01*
X359691Y229049D01*
X352611Y221970D01*
X324818D01*
X324568Y222403D01*
X324707Y222643D01*
X324921Y223444D01*
Y224273D01*
X324707Y225074D01*
X324292Y225792D01*
X323706Y226379D01*
X323457Y226522D01*
Y227100D01*
X323706Y227243D01*
X324292Y227830D01*
X324707Y228548D01*
X324921Y229349D01*
Y230178D01*
X324707Y230979D01*
X324292Y231698D01*
X323706Y232284D01*
X323032Y232673D01*
X322980Y232874D01*
X322966Y233222D01*
X323294Y233550D01*
X323504Y234057D01*
Y234605D01*
X323294Y235111D01*
X322906Y235499D01*
X322400Y235709D01*
X321852D01*
X321345Y235499D01*
X320958Y235111D01*
X320748Y234605D01*
Y234057D01*
X320958Y233550D01*
X321136Y233372D01*
X320987Y232814D01*
X320556Y232699D01*
X319838Y232284D01*
X319251Y231698D01*
X318837Y230979D01*
X318622Y230178D01*
Y229349D01*
X318837Y228548D01*
X319251Y227830D01*
X319838Y227243D01*
X320087Y227100D01*
Y226522D01*
X319838Y226379D01*
X319251Y225792D01*
X318837Y225074D01*
X318622Y224273D01*
Y223444D01*
X318749Y222970D01*
X318301Y222711D01*
X314030Y226982D01*
X313346Y227439D01*
X312539Y227600D01*
X144121D01*
X136146Y235575D01*
X136088Y235715D01*
X135478Y236324D01*
X134683Y236653D01*
D02*
G37*
G36*
X329920Y210984D02*
X329372D01*
X328865Y210774D01*
X328478Y210387D01*
X328268Y209880D01*
Y209332D01*
X328478Y208826D01*
X328865Y208438D01*
X329372Y208228D01*
X329920D01*
X330426Y208438D01*
X330814Y208826D01*
X331024Y209332D01*
Y209880D01*
X330814Y210387D01*
X330426Y210774D01*
X329920Y210984D01*
D02*
G37*
G36*
X336809Y210906D02*
X336261D01*
X335755Y210696D01*
X335367Y210308D01*
X335157Y209802D01*
Y209254D01*
X335367Y208747D01*
X335755Y208360D01*
X336261Y208150D01*
X336809D01*
X337316Y208360D01*
X337703Y208747D01*
X337913Y209254D01*
Y209802D01*
X337703Y210308D01*
X337316Y210696D01*
X336809Y210906D01*
D02*
G37*
G36*
X163266Y204606D02*
X162718D01*
X162212Y204397D01*
X161824Y204009D01*
X161614Y203502D01*
Y202954D01*
X161824Y202448D01*
X162212Y202060D01*
X162718Y201850D01*
X163266D01*
X163773Y202060D01*
X164160Y202448D01*
X164370Y202954D01*
Y203502D01*
X164160Y204009D01*
X163773Y204397D01*
X163266Y204606D01*
D02*
G37*
G36*
X235Y203740D02*
X-313D01*
X-820Y203530D01*
X-1208Y203143D01*
X-1417Y202636D01*
Y202088D01*
X-1208Y201582D01*
X-820Y201194D01*
X-313Y200984D01*
X235D01*
X741Y201194D01*
X1129Y201582D01*
X1339Y202088D01*
Y202636D01*
X1129Y203143D01*
X741Y203530D01*
X235Y203740D01*
D02*
G37*
G36*
X352361Y205118D02*
X351813D01*
X351306Y204908D01*
X350918Y204521D01*
X350709Y204014D01*
Y203466D01*
X350918Y202960D01*
X351306Y202572D01*
X351813Y202362D01*
X352361D01*
X352867Y202572D01*
X353032Y202737D01*
X359584D01*
X362087Y200234D01*
Y200002D01*
X362296Y199495D01*
X362684Y199107D01*
X363191Y198898D01*
X363739D01*
X364245Y199107D01*
X364633Y199495D01*
X364843Y200002D01*
Y200550D01*
X364633Y201056D01*
X364245Y201444D01*
X363739Y201654D01*
X363506D01*
X360710Y204450D01*
X360384Y204667D01*
X360000Y204744D01*
X353032D01*
X352867Y204908D01*
X352361Y205118D01*
D02*
G37*
G36*
X343935Y204014D02*
X343387D01*
X342881Y203804D01*
X342493Y203417D01*
X342283Y202910D01*
Y202362D01*
X342493Y201855D01*
X342849Y201500D01*
X342866Y201223D01*
X342849Y200940D01*
X342494Y200585D01*
X342285Y200078D01*
Y199530D01*
X342494Y199024D01*
X342882Y198636D01*
X343389Y198426D01*
X343937D01*
X344443Y198636D01*
X344831Y199024D01*
X345041Y199530D01*
Y200078D01*
X344831Y200585D01*
X344475Y200940D01*
X344458Y201217D01*
X344475Y201501D01*
X344830Y201855D01*
X345039Y202362D01*
Y202910D01*
X344830Y203417D01*
X344442Y203804D01*
X343935Y204014D01*
D02*
G37*
G36*
X45550Y199803D02*
X45002D01*
X44495Y199593D01*
X44107Y199206D01*
X43898Y198699D01*
Y198151D01*
X44107Y197645D01*
X44495Y197257D01*
X45002Y197047D01*
X45550D01*
X46056Y197257D01*
X46444Y197645D01*
X46654Y198151D01*
Y198699D01*
X46444Y199206D01*
X46056Y199593D01*
X45550Y199803D01*
D02*
G37*
G36*
X-35120Y199764D02*
X-35668D01*
X-36174Y199554D01*
X-36562Y199166D01*
X-36772Y198660D01*
Y198112D01*
X-36562Y197605D01*
X-36174Y197218D01*
X-35668Y197008D01*
X-35120D01*
X-34613Y197218D01*
X-34225Y197605D01*
X-34016Y198112D01*
Y198660D01*
X-34225Y199166D01*
X-34613Y199554D01*
X-35120Y199764D01*
D02*
G37*
G36*
X107411Y204577D02*
X99833D01*
Y196998D01*
X107411D01*
Y204577D01*
D02*
G37*
G36*
X348029Y196614D02*
X347168D01*
X346372Y196284D01*
X346102Y196015D01*
X345833Y196284D01*
X345037Y196614D01*
X344176D01*
X343380Y196284D01*
X342771Y195675D01*
X342441Y194879D01*
Y194018D01*
X342771Y193222D01*
X343380Y192613D01*
X344176Y192283D01*
X345037D01*
X345833Y192613D01*
X346102Y192883D01*
X346372Y192613D01*
X347168Y192283D01*
X348029D01*
X348825Y192613D01*
X349434Y193222D01*
X349764Y194018D01*
Y194879D01*
X349434Y195675D01*
X348825Y196284D01*
X348029Y196614D01*
D02*
G37*
G36*
X130458D02*
X129910D01*
X129403Y196404D01*
X129016Y196017D01*
X128806Y195510D01*
Y194962D01*
X129016Y194456D01*
X129403Y194068D01*
X129910Y193858D01*
X130458D01*
X130965Y194068D01*
X131352Y194456D01*
X131562Y194962D01*
Y195510D01*
X131352Y196017D01*
X130965Y196404D01*
X130458Y196614D01*
D02*
G37*
G36*
X407934Y192984D02*
X407105D01*
X406304Y192770D01*
X405586Y192355D01*
X404999Y191769D01*
X404856Y191519D01*
X404278D01*
X404135Y191769D01*
X403548Y192355D01*
X402830Y192770D01*
X402029Y192984D01*
X401199D01*
X400398Y192770D01*
X399680Y192355D01*
X399094Y191769D01*
X398950Y191519D01*
X398373D01*
X398229Y191769D01*
X397643Y192355D01*
X396924Y192770D01*
X396123Y192984D01*
X395294D01*
X394493Y192770D01*
X393775Y192355D01*
X393188Y191769D01*
X392774Y191050D01*
X392559Y190249D01*
Y189420D01*
X392774Y188619D01*
X393188Y187901D01*
X393775Y187314D01*
X394022Y187171D01*
Y186594D01*
X393775Y186451D01*
X393188Y185864D01*
X392774Y185146D01*
X392559Y184345D01*
Y183516D01*
X392774Y182715D01*
X393188Y181997D01*
X393775Y181410D01*
X394051Y181251D01*
Y180751D01*
X393775Y180591D01*
X393188Y180005D01*
X392774Y179287D01*
X392559Y178486D01*
Y177656D01*
X392774Y176855D01*
X393188Y176137D01*
X393775Y175550D01*
X394024Y175407D01*
Y174829D01*
X393775Y174686D01*
X393188Y174099D01*
X392774Y173381D01*
X392559Y172580D01*
Y171751D01*
X392774Y170950D01*
X393188Y170231D01*
X393775Y169645D01*
X394024Y169501D01*
Y168924D01*
X393775Y168780D01*
X393188Y168194D01*
X392774Y167475D01*
X392559Y166674D01*
Y165845D01*
X392774Y165044D01*
X393188Y164326D01*
X393775Y163740D01*
X394024Y163596D01*
Y163018D01*
X393775Y162875D01*
X393188Y162288D01*
X392774Y161570D01*
X392559Y160769D01*
Y159940D01*
X392774Y159139D01*
X393188Y158421D01*
X393775Y157834D01*
X394024Y157690D01*
Y157113D01*
X393775Y156969D01*
X393188Y156383D01*
X392774Y155665D01*
X392559Y154864D01*
Y154034D01*
X392774Y153233D01*
X393188Y152515D01*
X393775Y151928D01*
X394493Y151514D01*
X395294Y151299D01*
X396123D01*
X396924Y151514D01*
X397643Y151928D01*
X398229Y152515D01*
X398373Y152764D01*
X398950D01*
X399094Y152515D01*
X399680Y151928D01*
X400398Y151514D01*
X401199Y151299D01*
X402029D01*
X402830Y151514D01*
X403548Y151928D01*
X404135Y152515D01*
X404278Y152764D01*
X404856D01*
X404999Y152515D01*
X405586Y151928D01*
X406304Y151514D01*
X407105Y151299D01*
X407934D01*
X408735Y151514D01*
X409454Y151928D01*
X410040Y152515D01*
X410455Y153233D01*
X410669Y154034D01*
Y154864D01*
X410455Y155665D01*
X410040Y156383D01*
X409454Y156969D01*
X408735Y157384D01*
X407934Y157598D01*
X407105D01*
X406304Y157384D01*
X405586Y156969D01*
X404999Y156383D01*
X404856Y156134D01*
X404278D01*
X404135Y156383D01*
X403548Y156969D01*
X403299Y157113D01*
Y157690D01*
X403548Y157834D01*
X404135Y158421D01*
X404549Y159139D01*
X404764Y159940D01*
Y160769D01*
X404549Y161570D01*
X404135Y162288D01*
X403548Y162875D01*
X403299Y163018D01*
Y163596D01*
X403548Y163740D01*
X404135Y164326D01*
X404549Y165044D01*
X404764Y165845D01*
Y166674D01*
X404549Y167475D01*
X404135Y168194D01*
X403548Y168780D01*
X403299Y168924D01*
Y169501D01*
X403548Y169645D01*
X404135Y170231D01*
X404549Y170950D01*
X404764Y171751D01*
Y172580D01*
X404549Y173381D01*
X404135Y174099D01*
X403548Y174686D01*
X403299Y174829D01*
Y175407D01*
X403548Y175550D01*
X404135Y176137D01*
X404549Y176855D01*
X404764Y177656D01*
Y178486D01*
X404549Y179287D01*
X404135Y180005D01*
X403548Y180591D01*
X403299Y180735D01*
Y181312D01*
X403548Y181456D01*
X404135Y182043D01*
X404549Y182761D01*
X404764Y183562D01*
Y184391D01*
X404549Y185192D01*
X404135Y185910D01*
X403548Y186497D01*
X403273Y186655D01*
Y187155D01*
X403548Y187314D01*
X404135Y187901D01*
X404278Y188150D01*
X404856D01*
X404999Y187901D01*
X405586Y187314D01*
X406304Y186900D01*
X407105Y186685D01*
X407934D01*
X408735Y186900D01*
X409454Y187314D01*
X410040Y187901D01*
X410455Y188619D01*
X410669Y189420D01*
Y190249D01*
X410455Y191050D01*
X410040Y191769D01*
X409454Y192355D01*
X408735Y192770D01*
X407934Y192984D01*
D02*
G37*
G36*
X185015Y195568D02*
X184467D01*
X183961Y195358D01*
X183573Y194971D01*
X183363Y194464D01*
Y194360D01*
X183346Y193915D01*
X182901Y193898D01*
X182797D01*
X182290Y193688D01*
X181903Y193300D01*
X181693Y192794D01*
Y192245D01*
X181903Y191739D01*
X182290Y191351D01*
X182797Y191142D01*
X183345D01*
X183852Y191351D01*
X184239Y191739D01*
X184449Y192245D01*
Y192350D01*
X184466Y192794D01*
X184911Y192812D01*
X185015D01*
X185522Y193022D01*
X185909Y193410D01*
X186119Y193916D01*
Y194464D01*
X185909Y194971D01*
X185522Y195358D01*
X185015Y195568D01*
D02*
G37*
G36*
X118069Y193819D02*
X117521D01*
X117015Y193609D01*
X116627Y193221D01*
X116417Y192715D01*
Y192167D01*
X116627Y191660D01*
X117015Y191273D01*
X117521Y191063D01*
X118069D01*
X118576Y191273D01*
X118963Y191660D01*
X119173Y192167D01*
Y192715D01*
X118963Y193221D01*
X118576Y193609D01*
X118069Y193819D01*
D02*
G37*
G36*
X-5750Y189370D02*
X-6298D01*
X-6804Y189160D01*
X-7192Y188773D01*
X-7402Y188266D01*
Y187718D01*
X-7192Y187212D01*
X-6804Y186824D01*
X-6298Y186614D01*
X-5750D01*
X-5243Y186824D01*
X-4855Y187212D01*
X-4646Y187718D01*
Y188266D01*
X-4855Y188773D01*
X-5243Y189160D01*
X-5750Y189370D01*
D02*
G37*
G36*
X79053Y184253D02*
X78505D01*
X77998Y184043D01*
X77610Y183656D01*
X77401Y183149D01*
Y182601D01*
X77610Y182095D01*
X77998Y181707D01*
X78505Y181497D01*
X79053D01*
X79559Y181707D01*
X79947Y182095D01*
X80157Y182601D01*
Y183149D01*
X79947Y183656D01*
X79559Y184043D01*
X79053Y184253D01*
D02*
G37*
G36*
X71088Y183819D02*
X70540D01*
X70034Y183609D01*
X69646Y183221D01*
X69436Y182715D01*
Y182167D01*
X69646Y181660D01*
X70034Y181273D01*
X70540Y181063D01*
X71088D01*
X71595Y181273D01*
X71982Y181660D01*
X72192Y182167D01*
Y182715D01*
X71982Y183221D01*
X71595Y183609D01*
X71088Y183819D01*
D02*
G37*
G36*
X528113Y186620D02*
X527002D01*
X525929Y186333D01*
X524967Y185777D01*
X524181Y184992D01*
X523626Y184030D01*
X523338Y182957D01*
Y181846D01*
X523626Y180773D01*
X524181Y179811D01*
X524967Y179026D01*
X525929Y178470D01*
X527002Y178183D01*
X528113D01*
X529185Y178470D01*
X530148Y179026D01*
X530933Y179811D01*
X531488Y180773D01*
X531776Y181846D01*
Y182957D01*
X531488Y184030D01*
X530933Y184992D01*
X530148Y185777D01*
X529185Y186333D01*
X528113Y186620D01*
D02*
G37*
G36*
X151691Y180787D02*
X151143D01*
X150637Y180578D01*
X150249Y180190D01*
X150039Y179683D01*
Y179135D01*
X150249Y178629D01*
X150637Y178241D01*
X151143Y178032D01*
X151691D01*
X152198Y178241D01*
X152585Y178629D01*
X152795Y179135D01*
Y179683D01*
X152585Y180190D01*
X152198Y180578D01*
X151691Y180787D01*
D02*
G37*
G36*
X294998Y178032D02*
X294136D01*
X293340Y177702D01*
X292731Y177093D01*
X292430Y176366D01*
X292079Y176338D01*
X291927Y176358D01*
X291639Y177053D01*
X291030Y177663D01*
X290234Y177992D01*
X289372D01*
X288577Y177663D01*
X287967Y177053D01*
X287889Y176863D01*
X287348D01*
X287269Y177053D01*
X286660Y177663D01*
X285864Y177992D01*
X285002D01*
X284207Y177663D01*
X283597Y177053D01*
X283268Y176258D01*
Y175396D01*
X283597Y174600D01*
X284207Y173991D01*
X285002Y173661D01*
X285864D01*
X286660Y173991D01*
X287269Y174600D01*
X287348Y174790D01*
X287889D01*
X287967Y174600D01*
X288577Y173991D01*
X289372Y173661D01*
X290234D01*
X291030Y173991D01*
X291639Y174600D01*
X291940Y175326D01*
X292291Y175355D01*
X292443Y175335D01*
X292731Y174640D01*
X293340Y174030D01*
X294136Y173701D01*
X294998D01*
X295794Y174030D01*
X296403Y174640D01*
X296732Y175435D01*
Y176297D01*
X296403Y177093D01*
X295794Y177702D01*
X294998Y178032D01*
D02*
G37*
G36*
X24762Y178583D02*
X24214D01*
X23708Y178373D01*
X23320Y177985D01*
X23110Y177479D01*
Y176931D01*
X23320Y176424D01*
X23708Y176037D01*
X24214Y175827D01*
X24762D01*
X25269Y176037D01*
X25656Y176424D01*
X25866Y176931D01*
Y177479D01*
X25656Y177985D01*
X25269Y178373D01*
X24762Y178583D01*
D02*
G37*
G36*
X5471Y175394D02*
X4923D01*
X4416Y175184D01*
X4029Y174796D01*
X3819Y174290D01*
Y173742D01*
X4029Y173235D01*
X4416Y172848D01*
X4923Y172638D01*
X5471D01*
X5977Y172848D01*
X6365Y173235D01*
X6575Y173742D01*
Y174290D01*
X6365Y174796D01*
X5977Y175184D01*
X5471Y175394D01*
D02*
G37*
G36*
X-9686Y175157D02*
X-10235D01*
X-10741Y174948D01*
X-11129Y174560D01*
X-11339Y174054D01*
Y173505D01*
X-11129Y172999D01*
X-10741Y172611D01*
X-10235Y172402D01*
X-9686D01*
X-9180Y172611D01*
X-8793Y172999D01*
X-8583Y173505D01*
Y174054D01*
X-8793Y174560D01*
X-9180Y174948D01*
X-9686Y175157D01*
D02*
G37*
G36*
X107794Y173838D02*
X107246D01*
X106739Y173629D01*
X106351Y173241D01*
X106142Y172735D01*
Y172187D01*
X106351Y171680D01*
X106739Y171292D01*
X107246Y171083D01*
X107794D01*
X108300Y171292D01*
X108688Y171680D01*
X108898Y172187D01*
Y172735D01*
X108688Y173241D01*
X108300Y173629D01*
X107794Y173838D01*
D02*
G37*
G36*
X347934Y177165D02*
X347105D01*
X346304Y176951D01*
X345586Y176536D01*
X344999Y175950D01*
X344585Y175231D01*
X344370Y174430D01*
Y173601D01*
X344585Y172800D01*
X344999Y172082D01*
X345586Y171495D01*
X346304Y171081D01*
X347105Y170866D01*
X347934D01*
X348735Y171081D01*
X349454Y171495D01*
X350040Y172082D01*
X350455Y172800D01*
X350669Y173601D01*
Y174430D01*
X350455Y175231D01*
X350040Y175950D01*
X349454Y176536D01*
X348735Y176951D01*
X347934Y177165D01*
D02*
G37*
G36*
X-34883Y180827D02*
X-35432D01*
X-35938Y180617D01*
X-36326Y180229D01*
X-36535Y179723D01*
Y179175D01*
X-36326Y178668D01*
X-35938Y178281D01*
X-35432Y178071D01*
X-35199D01*
X-27009Y169881D01*
X-26683Y169663D01*
X-26299Y169587D01*
X101812D01*
X101850Y169549D01*
Y169529D01*
X102060Y169023D01*
X102448Y168635D01*
X102954Y168425D01*
X103502D01*
X104009Y168635D01*
X104396Y169023D01*
X104606Y169529D01*
Y170077D01*
X104396Y170584D01*
X104009Y170971D01*
X103502Y171181D01*
X103057D01*
X102937Y171300D01*
X102612Y171518D01*
X102228Y171594D01*
X98369D01*
X98146Y172094D01*
X98307Y172482D01*
Y173030D01*
X98097Y173537D01*
X97744Y173890D01*
X97759Y174051D01*
X97891Y174390D01*
X159783D01*
X159948Y174225D01*
X160454Y174016D01*
X161002D01*
X161509Y174225D01*
X161673Y174390D01*
X162025D01*
X163918Y172498D01*
Y167756D01*
X163994Y167372D01*
X164212Y167046D01*
X165511Y165747D01*
X165836Y165530D01*
X166220Y165453D01*
X188110D01*
X188494Y165530D01*
X188820Y165747D01*
X190809Y167737D01*
X193682D01*
X194016Y167237D01*
X193937Y167046D01*
Y166498D01*
X194147Y165991D01*
X194534Y165603D01*
X195041Y165394D01*
X195589D01*
X196096Y165603D01*
X196483Y165991D01*
X196693Y166498D01*
Y167046D01*
X196614Y167237D01*
X196948Y167737D01*
X200160D01*
X200317Y167444D01*
X200390Y167237D01*
X200197Y166770D01*
Y166222D01*
X200407Y165716D01*
X200794Y165328D01*
X201301Y165118D01*
X201849D01*
X202355Y165328D01*
X202743Y165716D01*
X202953Y166222D01*
Y166770D01*
X202760Y167237D01*
X202833Y167444D01*
X202990Y167737D01*
X217032D01*
X217212Y167616D01*
X217596Y167540D01*
X239763D01*
X239928Y167375D01*
X240435Y167165D01*
X240983D01*
X241489Y167375D01*
X241877Y167763D01*
X242087Y168269D01*
Y168817D01*
X241877Y169324D01*
X241489Y169711D01*
X240983Y169921D01*
X240435D01*
X239928Y169711D01*
X239763Y169547D01*
X229092D01*
X228885Y170046D01*
X229095Y170553D01*
Y171101D01*
X228885Y171607D01*
X228497Y171995D01*
X227991Y172205D01*
X227443D01*
X226936Y171995D01*
X226771Y171830D01*
X169843D01*
X169458Y171754D01*
X169133Y171536D01*
X167715Y170118D01*
X167482D01*
X166975Y169908D01*
X166588Y169521D01*
X166425Y169127D01*
X165925Y169227D01*
Y172913D01*
X165848Y173297D01*
X165631Y173623D01*
X163151Y176103D01*
X162825Y176321D01*
X162441Y176397D01*
X161673D01*
X161509Y176562D01*
X161002Y176772D01*
X160454D01*
X159948Y176562D01*
X159783Y176397D01*
X76605D01*
X76222Y176321D01*
X75896Y176103D01*
X75127Y175334D01*
X42481D01*
X42316Y175499D01*
X41809Y175709D01*
X41261D01*
X40755Y175499D01*
X40367Y175111D01*
X40157Y174605D01*
Y174057D01*
X40367Y173550D01*
X40755Y173162D01*
X41261Y172953D01*
X41809D01*
X42316Y173162D01*
X42481Y173327D01*
X75543D01*
X75927Y173404D01*
X76252Y173621D01*
X77021Y174390D01*
X95967D01*
X96099Y174051D01*
X96115Y173890D01*
X95761Y173537D01*
X95551Y173030D01*
Y172482D01*
X95712Y172094D01*
X95489Y171594D01*
X-25883D01*
X-33779Y179490D01*
Y179723D01*
X-33989Y180229D01*
X-34377Y180617D01*
X-34883Y180827D01*
D02*
G37*
G36*
X-35277Y168268D02*
X-35825D01*
X-36332Y168058D01*
X-36719Y167670D01*
X-36929Y167164D01*
Y166616D01*
X-36719Y166109D01*
X-36332Y165722D01*
X-35825Y165512D01*
X-35277D01*
X-34771Y165722D01*
X-34383Y166109D01*
X-34173Y166616D01*
Y167164D01*
X-34383Y167670D01*
X-34771Y168058D01*
X-35277Y168268D01*
D02*
G37*
G36*
X77676Y167756D02*
X77127D01*
X76621Y167546D01*
X76456Y167382D01*
X66299D01*
X65915Y167305D01*
X65589Y167088D01*
X63305Y164803D01*
X63073D01*
X62566Y164593D01*
X62178Y164206D01*
X61969Y163699D01*
Y163151D01*
X62178Y162645D01*
X62566Y162257D01*
X63073Y162047D01*
X63621D01*
X64127Y162257D01*
X64515Y162645D01*
X64724Y163151D01*
Y163384D01*
X66715Y165375D01*
X71342D01*
X71549Y164874D01*
X71456Y164781D01*
X71246Y164275D01*
Y163727D01*
X71456Y163220D01*
X71844Y162833D01*
X72350Y162623D01*
X72898D01*
X73405Y162833D01*
X73792Y163220D01*
X74002Y163727D01*
Y164275D01*
X73792Y164781D01*
X73699Y164874D01*
X73906Y165375D01*
X76456D01*
X76621Y165210D01*
X77127Y165000D01*
X77676D01*
X78182Y165210D01*
X78570Y165597D01*
X78780Y166104D01*
Y166652D01*
X78570Y167159D01*
X78182Y167546D01*
X77676Y167756D01*
D02*
G37*
G36*
X355769Y165236D02*
X354940D01*
X354139Y165022D01*
X353420Y164607D01*
X352834Y164021D01*
X352690Y163771D01*
X352113D01*
X351969Y164021D01*
X351383Y164607D01*
X350664Y165022D01*
X349864Y165236D01*
X349034D01*
X348233Y165022D01*
X347515Y164607D01*
X346929Y164021D01*
X346785Y163771D01*
X346207D01*
X346064Y164021D01*
X345477Y164607D01*
X344759Y165022D01*
X343958Y165236D01*
X343129D01*
X342328Y165022D01*
X341609Y164607D01*
X341023Y164021D01*
X340879Y163771D01*
X340302D01*
X340158Y164021D01*
X339572Y164607D01*
X338854Y165022D01*
X338052Y165236D01*
X337223D01*
X336422Y165022D01*
X335704Y164607D01*
X335118Y164021D01*
X334974Y163771D01*
X334396D01*
X334253Y164021D01*
X333666Y164607D01*
X332948Y165022D01*
X332147Y165236D01*
X331318D01*
X330517Y165022D01*
X329798Y164607D01*
X329212Y164021D01*
X329068Y163771D01*
X328491D01*
X328347Y164021D01*
X327761Y164607D01*
X327043Y165022D01*
X326241Y165236D01*
X325412D01*
X324611Y165022D01*
X323893Y164607D01*
X323306Y164021D01*
X322892Y163302D01*
X322677Y162501D01*
Y161672D01*
X322892Y160871D01*
X323306Y160153D01*
X323893Y159566D01*
X324611Y159152D01*
X325412Y158937D01*
X326241D01*
X327043Y159152D01*
X327761Y159566D01*
X328347Y160153D01*
X328491Y160402D01*
X329068D01*
X329212Y160153D01*
X329798Y159566D01*
X330517Y159152D01*
X331318Y158937D01*
X332147D01*
X332948Y159152D01*
X333666Y159566D01*
X334253Y160153D01*
X334396Y160402D01*
X334974D01*
X335118Y160153D01*
X335704Y159566D01*
X336422Y159152D01*
X337223Y158937D01*
X338052D01*
X338854Y159152D01*
X339572Y159566D01*
X340158Y160153D01*
X340302Y160402D01*
X340879D01*
X341023Y160153D01*
X341609Y159566D01*
X342328Y159152D01*
X343129Y158937D01*
X343958D01*
X344759Y159152D01*
X345477Y159566D01*
X346064Y160153D01*
X346207Y160402D01*
X346785D01*
X346929Y160153D01*
X347515Y159566D01*
X348233Y159152D01*
X349034Y158937D01*
X349864D01*
X350664Y159152D01*
X351383Y159566D01*
X351969Y160153D01*
X352113Y160402D01*
X352690D01*
X352834Y160153D01*
X353420Y159566D01*
X354139Y159152D01*
X354940Y158937D01*
X355769D01*
X356570Y159152D01*
X357288Y159566D01*
X357875Y160153D01*
X358289Y160871D01*
X358504Y161672D01*
Y162501D01*
X358289Y163302D01*
X357875Y164021D01*
X357288Y164607D01*
X356570Y165022D01*
X355769Y165236D01*
D02*
G37*
G36*
X-23820Y164921D02*
X-24369D01*
X-24875Y164711D01*
X-25263Y164324D01*
X-25472Y163817D01*
Y163269D01*
X-25263Y162763D01*
X-24875Y162375D01*
X-24369Y162165D01*
X-23820D01*
X-23314Y162375D01*
X-22926Y162763D01*
X-22716Y163269D01*
Y163817D01*
X-22926Y164324D01*
X-23314Y164711D01*
X-23820Y164921D01*
D02*
G37*
G36*
X84071Y164803D02*
X83523D01*
X83017Y164593D01*
X82629Y164206D01*
X82419Y163699D01*
Y163151D01*
X82629Y162645D01*
X83017Y162257D01*
X83523Y162047D01*
X84071D01*
X84578Y162257D01*
X84965Y162645D01*
X85175Y163151D01*
Y163699D01*
X84965Y164206D01*
X84578Y164593D01*
X84071Y164803D01*
D02*
G37*
G36*
X528113Y170321D02*
X527002D01*
X525929Y170034D01*
X524967Y169478D01*
X524181Y168693D01*
X523626Y167731D01*
X523338Y166658D01*
Y165547D01*
X523626Y164474D01*
X524181Y163512D01*
X524967Y162727D01*
X525929Y162171D01*
X527002Y161884D01*
X528113D01*
X529185Y162171D01*
X530148Y162727D01*
X530933Y163512D01*
X531488Y164474D01*
X531776Y165547D01*
Y166658D01*
X531488Y167731D01*
X530933Y168693D01*
X530148Y169478D01*
X529185Y170034D01*
X528113Y170321D01*
D02*
G37*
G36*
X295667Y165394D02*
X294806D01*
X294010Y165064D01*
X293401Y164455D01*
X293071Y163659D01*
Y162798D01*
X293401Y162002D01*
X294010Y161393D01*
X294806Y161063D01*
X295667D01*
X296463Y161393D01*
X297072Y162002D01*
X297402Y162798D01*
Y163659D01*
X297072Y164455D01*
X296463Y165064D01*
X295667Y165394D01*
D02*
G37*
G36*
X290195Y165394D02*
X289333D01*
X288537Y165064D01*
X287928Y164455D01*
X287598Y163659D01*
Y162798D01*
X287928Y162002D01*
X288537Y161393D01*
X289333Y161063D01*
X290195D01*
X290990Y161393D01*
X291600Y162002D01*
X291929Y162798D01*
Y163659D01*
X291600Y164455D01*
X290990Y165064D01*
X290195Y165394D01*
D02*
G37*
G36*
X285037D02*
X284176D01*
X283380Y165064D01*
X282771Y164455D01*
X282441Y163659D01*
Y162798D01*
X282771Y162002D01*
X283380Y161393D01*
X284176Y161063D01*
X285037D01*
X285833Y161393D01*
X286442Y162002D01*
X286772Y162798D01*
Y163659D01*
X286442Y164455D01*
X285833Y165064D01*
X285037Y165394D01*
D02*
G37*
G36*
X176416Y160551D02*
X175868D01*
X175361Y160341D01*
X174974Y159954D01*
X174764Y159447D01*
Y158899D01*
X174974Y158393D01*
X175361Y158005D01*
X175868Y157795D01*
X176416D01*
X176922Y158005D01*
X177310Y158393D01*
X177520Y158899D01*
Y159447D01*
X177310Y159954D01*
X176922Y160341D01*
X176416Y160551D01*
D02*
G37*
G36*
X300037Y161693D02*
X299176D01*
X298380Y161363D01*
X297771Y160754D01*
X297441Y159958D01*
Y159097D01*
X297771Y158301D01*
X298380Y157692D01*
X299176Y157362D01*
X300037D01*
X300833Y157692D01*
X301442Y158301D01*
X301772Y159097D01*
Y159958D01*
X301442Y160754D01*
X300833Y161363D01*
X300037Y161693D01*
D02*
G37*
G36*
X-34883Y158858D02*
X-35432D01*
X-35938Y158649D01*
X-36326Y158261D01*
X-36535Y157754D01*
Y157206D01*
X-36326Y156700D01*
X-35938Y156312D01*
X-35432Y156102D01*
X-34883D01*
X-34377Y156312D01*
X-33989Y156700D01*
X-33779Y157206D01*
Y157754D01*
X-33989Y158261D01*
X-34377Y158649D01*
X-34883Y158858D01*
D02*
G37*
G36*
X276206Y158078D02*
X275658D01*
X275151Y157868D01*
X274764Y157480D01*
X274554Y156974D01*
Y156426D01*
X274764Y155919D01*
X275151Y155532D01*
X275658Y155322D01*
X276206D01*
X276712Y155532D01*
X277100Y155919D01*
X277310Y156426D01*
Y156974D01*
X277100Y157480D01*
X276712Y157868D01*
X276206Y158078D01*
D02*
G37*
G36*
X163266Y157087D02*
X162718D01*
X162212Y156877D01*
X161824Y156489D01*
X161614Y155983D01*
Y155435D01*
X161824Y154928D01*
X162212Y154541D01*
X162718Y154331D01*
X163266D01*
X163773Y154541D01*
X164160Y154928D01*
X164370Y155435D01*
Y155983D01*
X164160Y156489D01*
X163773Y156877D01*
X163266Y157087D01*
D02*
G37*
G36*
X-22206Y155984D02*
X-22754D01*
X-23261Y155774D01*
X-23649Y155387D01*
X-23858Y154880D01*
Y154332D01*
X-23649Y153826D01*
X-23261Y153438D01*
X-22754Y153228D01*
X-22206D01*
X-21700Y153438D01*
X-21312Y153826D01*
X-21102Y154332D01*
Y154880D01*
X-21312Y155387D01*
X-21700Y155774D01*
X-22206Y155984D01*
D02*
G37*
G36*
X274630Y154273D02*
X274082D01*
X273575Y154063D01*
X273188Y153675D01*
X272978Y153169D01*
Y152621D01*
X273188Y152114D01*
X273575Y151726D01*
X274082Y151517D01*
X274630D01*
X275136Y151726D01*
X275524Y152114D01*
X275734Y152621D01*
Y153169D01*
X275524Y153675D01*
X275136Y154063D01*
X274630Y154273D01*
D02*
G37*
G36*
X199165Y153390D02*
X198617D01*
X198110Y153180D01*
X198096Y153166D01*
X191335D01*
X190952Y153090D01*
X190626Y152872D01*
X186728Y148974D01*
X186263Y148782D01*
X185876Y148394D01*
X185666Y147887D01*
Y147339D01*
X185876Y146833D01*
X186263Y146445D01*
X186770Y146235D01*
X187318D01*
X187824Y146445D01*
X188212Y146833D01*
X188422Y147339D01*
Y147829D01*
X191751Y151159D01*
X197795D01*
X198110Y150844D01*
X198617Y150634D01*
X199165D01*
X199671Y150844D01*
X200059Y151231D01*
X200269Y151737D01*
Y152286D01*
X200059Y152792D01*
X199671Y153180D01*
X199165Y153390D01*
D02*
G37*
G36*
X259408Y151535D02*
X258860D01*
X258353Y151326D01*
X257966Y150938D01*
X257756Y150432D01*
Y149883D01*
X257966Y149377D01*
X258353Y148989D01*
X258860Y148779D01*
X259408D01*
X259914Y148989D01*
X260302Y149377D01*
X260512Y149883D01*
Y150432D01*
X260302Y150938D01*
X259914Y151326D01*
X259408Y151535D01*
D02*
G37*
G36*
X275195Y149173D02*
X274647D01*
X274141Y148963D01*
X273753Y148576D01*
X273543Y148069D01*
Y147521D01*
X273753Y147015D01*
X274141Y146627D01*
X274647Y146417D01*
X275195D01*
X275702Y146627D01*
X276089Y147015D01*
X276299Y147521D01*
Y148069D01*
X276089Y148576D01*
X275702Y148963D01*
X275195Y149173D01*
D02*
G37*
G36*
X193470Y148944D02*
X192922D01*
X192415Y148734D01*
X192028Y148346D01*
X191818Y147840D01*
Y147292D01*
X192028Y146785D01*
X192415Y146398D01*
X192922Y146188D01*
X193470D01*
X193976Y146398D01*
X194364Y146785D01*
X194574Y147292D01*
Y147840D01*
X194364Y148346D01*
X193976Y148734D01*
X193470Y148944D01*
D02*
G37*
G36*
X223367Y146535D02*
X222538D01*
X221737Y146321D01*
X221019Y145906D01*
X220432Y145320D01*
X220289Y145071D01*
X219711D01*
X219568Y145320D01*
X218981Y145906D01*
X218263Y146321D01*
X217462Y146535D01*
X216633D01*
X215832Y146321D01*
X215113Y145906D01*
X214527Y145320D01*
X214112Y144602D01*
X213898Y143800D01*
Y142971D01*
X214112Y142170D01*
X214527Y141452D01*
X215113Y140866D01*
X215363Y140722D01*
Y140144D01*
X215113Y140000D01*
X214527Y139414D01*
X214112Y138696D01*
X213898Y137895D01*
Y137066D01*
X214112Y136265D01*
X214527Y135546D01*
X215113Y134960D01*
X215832Y134545D01*
X216633Y134331D01*
X217462D01*
X218263Y134545D01*
X218981Y134960D01*
X219568Y135546D01*
X219711Y135795D01*
X220289D01*
X220432Y135546D01*
X221019Y134960D01*
X221737Y134545D01*
X222538Y134331D01*
X223367D01*
X224168Y134545D01*
X224887Y134960D01*
X225473Y135546D01*
X225888Y136265D01*
X226102Y137066D01*
Y137895D01*
X225888Y138696D01*
X225473Y139414D01*
X224887Y140000D01*
X224638Y140144D01*
Y140722D01*
X224887Y140866D01*
X225473Y141452D01*
X225888Y142170D01*
X226102Y142971D01*
Y143800D01*
X225888Y144602D01*
X225473Y145320D01*
X224887Y145906D01*
X224168Y146321D01*
X223367Y146535D01*
D02*
G37*
G36*
X197002Y147500D02*
X196453D01*
X195947Y147290D01*
X195559Y146903D01*
X195350Y146396D01*
Y145848D01*
X195559Y145342D01*
X195947Y144954D01*
X196453Y144744D01*
X197002D01*
X197508Y144954D01*
X197896Y145342D01*
X198106Y145848D01*
Y146396D01*
X197896Y146903D01*
X197508Y147290D01*
X197002Y147500D01*
D02*
G37*
G36*
X433204Y138354D02*
X432656D01*
X432150Y138144D01*
X431762Y137757D01*
X431552Y137250D01*
Y136702D01*
X431762Y136196D01*
X432150Y135808D01*
X432656Y135598D01*
X433204D01*
X433711Y135808D01*
X434098Y136196D01*
X434308Y136702D01*
Y137250D01*
X434098Y137757D01*
X433711Y138144D01*
X433204Y138354D01*
D02*
G37*
G36*
X107411Y140994D02*
X99833D01*
Y133415D01*
X107411D01*
Y140994D01*
D02*
G37*
G36*
X407934Y131339D02*
X407105D01*
X406304Y131124D01*
X405586Y130709D01*
X404999Y130123D01*
X404856Y129874D01*
X404278D01*
X404135Y130123D01*
X403548Y130709D01*
X402830Y131124D01*
X402029Y131339D01*
X401199D01*
X400398Y131124D01*
X399680Y130709D01*
X399094Y130123D01*
X398950Y129874D01*
X398373D01*
X398229Y130123D01*
X397643Y130709D01*
X396924Y131124D01*
X396123Y131339D01*
X395294D01*
X394493Y131124D01*
X393775Y130709D01*
X393188Y130123D01*
X392774Y129405D01*
X392559Y128604D01*
Y127774D01*
X392774Y126973D01*
X393188Y126255D01*
X393775Y125669D01*
X394024Y125525D01*
Y124948D01*
X393775Y124804D01*
X393188Y124217D01*
X392774Y123499D01*
X392559Y122698D01*
Y121869D01*
X392774Y121068D01*
X393188Y120350D01*
X393775Y119763D01*
X394024Y119619D01*
Y119042D01*
X393775Y118898D01*
X393188Y118312D01*
X392774Y117594D01*
X392559Y116793D01*
Y115963D01*
X392774Y115162D01*
X393188Y114444D01*
X393775Y113858D01*
X394024Y113714D01*
Y113137D01*
X393775Y112993D01*
X393188Y112406D01*
X392774Y111688D01*
X392559Y110887D01*
Y110058D01*
X392774Y109257D01*
X393188Y108539D01*
X393775Y107952D01*
X394024Y107808D01*
Y107231D01*
X393775Y107087D01*
X393188Y106501D01*
X392774Y105783D01*
X392559Y104982D01*
Y104152D01*
X392774Y103351D01*
X393188Y102633D01*
X393775Y102047D01*
X394024Y101903D01*
Y101326D01*
X393775Y101182D01*
X393188Y100595D01*
X392774Y99877D01*
X392559Y99076D01*
Y98247D01*
X392774Y97446D01*
X393188Y96728D01*
X393775Y96141D01*
X394024Y95997D01*
Y95420D01*
X393775Y95276D01*
X393188Y94690D01*
X392774Y93972D01*
X392559Y93171D01*
Y92341D01*
X392774Y91540D01*
X393188Y90822D01*
X393775Y90236D01*
X394493Y89821D01*
X395294Y89606D01*
X396123D01*
X396924Y89821D01*
X397643Y90236D01*
X398229Y90822D01*
X398373Y91071D01*
X398950D01*
X399094Y90822D01*
X399680Y90236D01*
X400398Y89821D01*
X401199Y89606D01*
X402029D01*
X402830Y89821D01*
X403548Y90236D01*
X404135Y90822D01*
X404278Y91071D01*
X404856D01*
X404999Y90822D01*
X405586Y90236D01*
X406304Y89821D01*
X407105Y89606D01*
X407934D01*
X408735Y89821D01*
X409454Y90236D01*
X410040Y90822D01*
X410455Y91540D01*
X410669Y92341D01*
Y93171D01*
X410455Y93972D01*
X410040Y94690D01*
X409454Y95276D01*
X408735Y95691D01*
X407934Y95906D01*
X407105D01*
X406304Y95691D01*
X405586Y95276D01*
X404999Y94690D01*
X404856Y94441D01*
X404278D01*
X404135Y94690D01*
X403548Y95276D01*
X403299Y95420D01*
Y95997D01*
X403548Y96141D01*
X404134Y96728D01*
X404549Y97446D01*
X404764Y98247D01*
Y99076D01*
X404549Y99877D01*
X404134Y100595D01*
X403548Y101182D01*
X403299Y101326D01*
Y101903D01*
X403548Y102047D01*
X404134Y102633D01*
X404549Y103351D01*
X404764Y104152D01*
Y104982D01*
X404549Y105783D01*
X404134Y106501D01*
X403548Y107087D01*
X403299Y107231D01*
Y107808D01*
X403548Y107952D01*
X404134Y108539D01*
X404549Y109257D01*
X404764Y110058D01*
Y110887D01*
X404549Y111688D01*
X404134Y112406D01*
X403548Y112993D01*
X403299Y113137D01*
Y113714D01*
X403548Y113858D01*
X404134Y114444D01*
X404549Y115162D01*
X404764Y115963D01*
Y116793D01*
X404549Y117594D01*
X404134Y118312D01*
X403548Y118898D01*
X403299Y119042D01*
Y119619D01*
X403548Y119763D01*
X404134Y120350D01*
X404549Y121068D01*
X404764Y121869D01*
Y122698D01*
X404549Y123499D01*
X404134Y124217D01*
X403548Y124804D01*
X403299Y124948D01*
Y125525D01*
X403548Y125669D01*
X404135Y126255D01*
X404278Y126504D01*
X404856D01*
X404999Y126255D01*
X405586Y125669D01*
X406304Y125254D01*
X407105Y125039D01*
X407934D01*
X408735Y125254D01*
X409454Y125669D01*
X410040Y126255D01*
X410455Y126973D01*
X410669Y127774D01*
Y128604D01*
X410455Y129405D01*
X410040Y130123D01*
X409454Y130709D01*
X408735Y131124D01*
X407934Y131339D01*
D02*
G37*
G36*
X3266Y131063D02*
X2718D01*
X2212Y130853D01*
X1824Y130466D01*
X1614Y129959D01*
Y129411D01*
X1824Y128904D01*
X2212Y128517D01*
X2718Y128307D01*
X3266D01*
X3773Y128517D01*
X4160Y128904D01*
X4370Y129411D01*
Y129959D01*
X4160Y130466D01*
X3773Y130853D01*
X3266Y131063D01*
D02*
G37*
G36*
X119172Y130827D02*
X118624D01*
X118117Y130617D01*
X117729Y130229D01*
X117520Y129723D01*
Y129175D01*
X117729Y128668D01*
X118117Y128281D01*
X118624Y128071D01*
X119172D01*
X119678Y128281D01*
X120066Y128668D01*
X120276Y129175D01*
Y129723D01*
X120066Y130229D01*
X119678Y130617D01*
X119172Y130827D01*
D02*
G37*
G36*
X204917Y125817D02*
X204368D01*
X203862Y125607D01*
X203474Y125220D01*
X203264Y124713D01*
Y124165D01*
X203474Y123659D01*
X203862Y123271D01*
X204368Y123061D01*
X204917D01*
X205423Y123271D01*
X205811Y123659D01*
X206020Y124165D01*
Y124713D01*
X205811Y125220D01*
X205423Y125607D01*
X204917Y125817D01*
D02*
G37*
G36*
X528113Y130321D02*
X527002D01*
X525929Y130034D01*
X524967Y129478D01*
X524181Y128693D01*
X523626Y127731D01*
X523338Y126658D01*
Y125547D01*
X523626Y124474D01*
X524181Y123512D01*
X524967Y122727D01*
X525929Y122171D01*
X527002Y121884D01*
X528113D01*
X529185Y122171D01*
X530148Y122727D01*
X530933Y123512D01*
X531488Y124474D01*
X531776Y125547D01*
Y126658D01*
X531488Y127731D01*
X530933Y128693D01*
X530148Y129478D01*
X529185Y130034D01*
X528113Y130321D01*
D02*
G37*
G36*
X514134Y231244D02*
X514134Y231244D01*
X440276D01*
X439815Y231152D01*
X439424Y230891D01*
X439163Y230500D01*
X439071Y230039D01*
Y187992D01*
X439163Y187531D01*
X439329Y187283D01*
X439306Y187249D01*
X439214Y186788D01*
Y138779D01*
X439260Y138552D01*
X439306Y138320D01*
X439306Y138319D01*
X439306Y138319D01*
X439434Y138127D01*
X439439Y138119D01*
X439320Y137972D01*
X439177Y137802D01*
X439173Y137790D01*
X439165Y137780D01*
X439109Y137673D01*
X439093Y137620D01*
X439063Y137575D01*
X439027Y137397D01*
X438976Y137223D01*
X438982Y137168D01*
X438971Y137114D01*
Y121871D01*
X437369D01*
X418301Y140939D01*
X417618Y141396D01*
X416811Y141556D01*
X411182D01*
X410984Y141852D01*
Y142400D01*
X410775Y142907D01*
X410387Y143294D01*
X409880Y143504D01*
X409332D01*
X408826Y143294D01*
X408438Y142907D01*
X408228Y142400D01*
Y141852D01*
X408031Y141556D01*
X363997D01*
X363698Y142056D01*
X363858Y142656D01*
Y143485D01*
X363644Y144287D01*
X363229Y145005D01*
X362643Y145591D01*
X362394Y145735D01*
Y146312D01*
X362643Y146456D01*
X363229Y147042D01*
X363644Y147761D01*
X363858Y148562D01*
Y149391D01*
X363644Y150192D01*
X363229Y150910D01*
X362643Y151497D01*
X362393Y151640D01*
Y152218D01*
X362643Y152362D01*
X363229Y152948D01*
X363644Y153666D01*
X363858Y154467D01*
Y155297D01*
X363644Y156098D01*
X363229Y156816D01*
X362643Y157402D01*
X361924Y157817D01*
X361123Y158031D01*
X360294D01*
X359493Y157817D01*
X358775Y157402D01*
X358268Y156895D01*
X357721Y157442D01*
X357003Y157856D01*
X356202Y158071D01*
X355373D01*
X354572Y157856D01*
X353854Y157442D01*
X353267Y156855D01*
X352852Y156137D01*
X352638Y155336D01*
Y154507D01*
X352852Y153706D01*
X353267Y152987D01*
X353854Y152401D01*
X354103Y152257D01*
Y151680D01*
X353854Y151536D01*
X353267Y150950D01*
X352852Y150231D01*
X352638Y149430D01*
Y148601D01*
X352852Y147800D01*
X353267Y147082D01*
X353854Y146495D01*
X354102Y146352D01*
Y145774D01*
X353854Y145631D01*
X353267Y145044D01*
X352852Y144326D01*
X352638Y143525D01*
Y142696D01*
X352809Y142056D01*
X352530Y141556D01*
X247533D01*
X237835Y151254D01*
X237151Y151711D01*
X236345Y151871D01*
X224628D01*
X224494Y152371D01*
X224887Y152598D01*
X225473Y153184D01*
X225888Y153902D01*
X226102Y154703D01*
Y155533D01*
X225888Y156334D01*
X225473Y157052D01*
X224887Y157638D01*
X224638Y157782D01*
Y158360D01*
X224887Y158503D01*
X225473Y159090D01*
X225888Y159808D01*
X226102Y160609D01*
Y161438D01*
X225888Y162239D01*
X225473Y162958D01*
X224887Y163544D01*
X224168Y163959D01*
X223367Y164173D01*
X222538D01*
X221737Y163959D01*
X221019Y163544D01*
X220432Y162958D01*
X220289Y162709D01*
X219711D01*
X219568Y162958D01*
X218981Y163544D01*
X218263Y163959D01*
X217462Y164173D01*
X216633D01*
X215832Y163959D01*
X215113Y163544D01*
X214527Y162958D01*
X214112Y162239D01*
X213898Y161438D01*
Y160609D01*
X214112Y159808D01*
X214527Y159090D01*
X215113Y158503D01*
X215363Y158360D01*
Y157782D01*
X215113Y157638D01*
X214527Y157052D01*
X214112Y156334D01*
X213898Y155533D01*
Y154703D01*
X214112Y153902D01*
X214215Y153724D01*
X213815Y153417D01*
X209128Y158104D01*
X208444Y158561D01*
X207638Y158722D01*
X189140D01*
X188333Y158561D01*
X187650Y158104D01*
X182932Y153387D01*
X144286D01*
X143479Y153226D01*
X142859Y152812D01*
X142592Y152702D01*
X141983Y152093D01*
X141654Y151297D01*
Y150435D01*
X141983Y149640D01*
X142592Y149030D01*
X143388Y148701D01*
X144250D01*
X145045Y149030D01*
X145187Y149172D01*
X183805D01*
X184612Y149332D01*
X185295Y149789D01*
X190013Y154507D01*
X206765D01*
X212998Y148274D01*
X213682Y147817D01*
X214488Y147656D01*
X235472D01*
X240757Y142371D01*
X240566Y141909D01*
X237166D01*
X237001Y142074D01*
X236494Y142283D01*
X235946D01*
X235440Y142074D01*
X235052Y141686D01*
X234842Y141180D01*
Y140631D01*
X235052Y140125D01*
X235440Y139737D01*
X235946Y139528D01*
X236494D01*
X237001Y139737D01*
X237166Y139902D01*
X242143D01*
X242965Y139080D01*
X242681Y138656D01*
X242479Y138740D01*
X241931D01*
X241424Y138530D01*
X241037Y138143D01*
X240827Y137636D01*
Y137088D01*
X241037Y136582D01*
X241424Y136194D01*
X241931Y135984D01*
X242479D01*
X242985Y136194D01*
X242999Y136208D01*
X243610D01*
X248165Y131653D01*
X248491Y131435D01*
X248875Y131359D01*
X275581D01*
X275788Y130859D01*
X275487Y130557D01*
X275157Y129761D01*
Y128900D01*
X275288Y128585D01*
X275010Y128169D01*
X209929D01*
X207624Y130473D01*
X207299Y130691D01*
X206915Y130767D01*
X135101D01*
X132087Y133781D01*
Y134014D01*
X131877Y134521D01*
X131489Y134908D01*
X130983Y135118D01*
X130435D01*
X129928Y134908D01*
X129541Y134521D01*
X129331Y134014D01*
Y133466D01*
X129541Y132960D01*
X129928Y132572D01*
X130435Y132362D01*
X130667D01*
X133975Y129054D01*
X134301Y128837D01*
X134685Y128760D01*
X206499D01*
X208804Y126456D01*
X209129Y126238D01*
X209513Y126162D01*
X275320D01*
X275512Y125700D01*
X275487Y125675D01*
X275157Y124880D01*
Y124018D01*
X275487Y123222D01*
X276096Y122613D01*
X276892Y122283D01*
X277753D01*
X278549Y122613D01*
X279158Y123222D01*
X279488Y124018D01*
Y124880D01*
X279158Y125675D01*
X279134Y125700D01*
X279325Y126162D01*
X322699D01*
X322841Y125927D01*
X322941Y125662D01*
X322756Y125215D01*
Y124667D01*
X322966Y124160D01*
X323353Y123773D01*
X323860Y123563D01*
X324408D01*
X324914Y123773D01*
X325302Y124160D01*
X325512Y124667D01*
Y125215D01*
X325327Y125662D01*
X325427Y125927D01*
X325569Y126162D01*
X350787D01*
X350952Y125997D01*
X351458Y125787D01*
X352006D01*
X352513Y125997D01*
X352901Y126385D01*
X353110Y126891D01*
Y127439D01*
X352901Y127946D01*
X352513Y128333D01*
X352006Y128543D01*
X351458D01*
X350952Y128333D01*
X350787Y128169D01*
X330777D01*
X330618Y128669D01*
X330893Y128944D01*
X331102Y129450D01*
Y129999D01*
X330893Y130505D01*
X330505Y130893D01*
X329998Y131102D01*
X329450D01*
X328944Y130893D01*
X328556Y130505D01*
X328346Y129999D01*
Y129450D01*
X328556Y128944D01*
X328831Y128669D01*
X328672Y128169D01*
X292765D01*
X292558Y128669D01*
X292781Y128892D01*
X293110Y129687D01*
Y130549D01*
X292982Y130859D01*
X293316Y131359D01*
X323543D01*
X323927Y131435D01*
X324253Y131653D01*
X326676Y134075D01*
X328603D01*
X328937Y133575D01*
X328858Y133384D01*
Y132836D01*
X329068Y132330D01*
X329456Y131942D01*
X329962Y131732D01*
X330510D01*
X331017Y131942D01*
X331404Y132330D01*
X331614Y132836D01*
Y133384D01*
X331535Y133575D01*
X331869Y134075D01*
X335777D01*
X340365Y129487D01*
X340690Y129270D01*
X341075Y129193D01*
X348937D01*
X349101Y129029D01*
X349608Y128819D01*
X350156D01*
X350662Y129029D01*
X351050Y129416D01*
X351260Y129923D01*
Y130471D01*
X351050Y130977D01*
X350875Y131152D01*
X350890Y131214D01*
X351120Y131614D01*
X351534D01*
X352040Y131824D01*
X352428Y132212D01*
X352638Y132718D01*
Y133266D01*
X352428Y133773D01*
X352040Y134160D01*
X351534Y134370D01*
X351301D01*
X348792Y136880D01*
X348983Y137341D01*
X355420D01*
X355754Y136841D01*
X355709Y136731D01*
Y136183D01*
X355918Y135676D01*
X356306Y135289D01*
X356813Y135079D01*
X357361D01*
X357867Y135289D01*
X358255Y135676D01*
X358465Y136183D01*
Y136731D01*
X358419Y136841D01*
X358753Y137341D01*
X415938D01*
X435006Y118274D01*
X435689Y117817D01*
X436496Y117656D01*
X438971D01*
Y73347D01*
X439063Y72886D01*
X439148Y72759D01*
X439095Y72695D01*
X439078Y72638D01*
X439045Y72588D01*
X439010Y72415D01*
X438959Y72246D01*
X438965Y72186D01*
X438953Y72127D01*
X438953Y6457D01*
X439045Y5996D01*
X439306Y5605D01*
X439697Y5344D01*
X440158Y5252D01*
X514094D01*
X514555Y5344D01*
X514946Y5605D01*
X515207Y5996D01*
X515299Y6457D01*
Y59967D01*
X515285Y60037D01*
X515290Y60109D01*
X515233Y60591D01*
X515182Y60748D01*
X515150Y60910D01*
X515110Y60970D01*
X515097Y61011D01*
X515243Y61157D01*
X515244Y61158D01*
X515244Y61159D01*
X515375Y61355D01*
X515504Y61548D01*
X515504Y61549D01*
X515504Y61550D01*
X515550Y61782D01*
X515595Y62009D01*
X515594Y62010D01*
X515595Y62011D01*
X515442Y116161D01*
X515395Y116390D01*
X515362Y116560D01*
X515590Y116901D01*
X515682Y117362D01*
Y173507D01*
X515670Y173565D01*
X515676Y173625D01*
X515624Y173794D01*
X515590Y173968D01*
X515557Y174017D01*
X515539Y174074D01*
X515427Y174211D01*
X515329Y174358D01*
X515286Y174500D01*
X515378Y174961D01*
Y230000D01*
X515378Y230000D01*
X515286Y230461D01*
X515025Y230852D01*
X515025Y230852D01*
X514985Y230891D01*
X514595Y231152D01*
X514134Y231244D01*
D02*
G37*
G36*
X-21183Y122480D02*
X-21731D01*
X-22237Y122271D01*
X-22625Y121883D01*
X-22835Y121377D01*
Y120828D01*
X-22625Y120322D01*
X-22237Y119934D01*
X-21731Y119725D01*
X-21183D01*
X-20676Y119934D01*
X-20289Y120322D01*
X-20079Y120828D01*
Y121377D01*
X-20289Y121883D01*
X-20676Y122271D01*
X-21183Y122480D01*
D02*
G37*
G36*
X287124Y121929D02*
X286262D01*
X285466Y121599D01*
X284857Y120990D01*
X284528Y120194D01*
Y119333D01*
X284857Y118537D01*
X285466Y117928D01*
X286262Y117598D01*
X287124D01*
X287919Y117928D01*
X288529Y118537D01*
X288858Y119333D01*
Y120194D01*
X288529Y120990D01*
X287919Y121599D01*
X287124Y121929D01*
D02*
G37*
G36*
X158857Y120043D02*
X158309D01*
X157803Y119833D01*
X157415Y119445D01*
X157205Y118939D01*
Y118390D01*
X157415Y117884D01*
X157803Y117496D01*
X158309Y117287D01*
X158857D01*
X159364Y117496D01*
X159751Y117884D01*
X159961Y118390D01*
Y118939D01*
X159751Y119445D01*
X159364Y119833D01*
X158857Y120043D01*
D02*
G37*
G36*
X344959Y118307D02*
X344411D01*
X343905Y118097D01*
X343517Y117710D01*
X343307Y117203D01*
Y116655D01*
X343517Y116149D01*
X343905Y115761D01*
X344411Y115551D01*
X344959D01*
X345466Y115761D01*
X345853Y116149D01*
X346063Y116655D01*
Y117203D01*
X345853Y117710D01*
X345466Y118097D01*
X344959Y118307D01*
D02*
G37*
G36*
X151573Y115630D02*
X151025D01*
X150519Y115420D01*
X150131Y115032D01*
X149921Y114526D01*
Y113978D01*
X150131Y113471D01*
X150519Y113084D01*
X151025Y112874D01*
X151573D01*
X152080Y113084D01*
X152467Y113471D01*
X152677Y113978D01*
Y114526D01*
X152467Y115032D01*
X152080Y115420D01*
X151573Y115630D01*
D02*
G37*
G36*
X528113Y114022D02*
X527002D01*
X525929Y113734D01*
X524967Y113179D01*
X524181Y112394D01*
X523626Y111432D01*
X523338Y110359D01*
Y109248D01*
X523626Y108175D01*
X524181Y107213D01*
X524967Y106427D01*
X525929Y105872D01*
X527002Y105585D01*
X528113D01*
X529185Y105872D01*
X530148Y106427D01*
X530933Y107213D01*
X531488Y108175D01*
X531776Y109248D01*
Y110359D01*
X531488Y111432D01*
X530933Y112394D01*
X530148Y113179D01*
X529185Y113734D01*
X528113Y114022D01*
D02*
G37*
G36*
X335904Y106378D02*
X335356D01*
X334849Y106168D01*
X334462Y105780D01*
X334252Y105274D01*
Y104726D01*
X334462Y104219D01*
X334849Y103832D01*
X335356Y103622D01*
X335904D01*
X336410Y103832D01*
X336798Y104219D01*
X337008Y104726D01*
Y105274D01*
X336798Y105780D01*
X336410Y106168D01*
X335904Y106378D01*
D02*
G37*
G36*
X339802Y106299D02*
X339253D01*
X338747Y106089D01*
X338359Y105702D01*
X338150Y105195D01*
Y104647D01*
X338359Y104141D01*
X338747Y103753D01*
X339253Y103543D01*
X339802D01*
X340308Y103753D01*
X340696Y104141D01*
X340905Y104647D01*
Y105195D01*
X340696Y105702D01*
X340308Y106089D01*
X339802Y106299D01*
D02*
G37*
G36*
X109565Y108543D02*
X109017D01*
X108511Y108334D01*
X108123Y107946D01*
X107913Y107439D01*
Y106891D01*
X108123Y106385D01*
X108511Y105997D01*
X108554Y105979D01*
Y105438D01*
X108511Y105420D01*
X108123Y105033D01*
X107913Y104526D01*
Y103978D01*
X108123Y103471D01*
X108511Y103084D01*
X109017Y102874D01*
X109565D01*
X110072Y103084D01*
X110459Y103471D01*
X110669Y103978D01*
Y104526D01*
X110459Y105033D01*
X110072Y105420D01*
X110029Y105438D01*
Y105979D01*
X110072Y105997D01*
X110459Y106385D01*
X110669Y106891D01*
Y107439D01*
X110459Y107946D01*
X110072Y108334D01*
X109565Y108543D01*
D02*
G37*
G36*
X272439Y105197D02*
X271891D01*
X271385Y104987D01*
X270997Y104599D01*
X270787Y104093D01*
Y103545D01*
X270997Y103038D01*
X271385Y102651D01*
X271891Y102441D01*
X272439D01*
X272946Y102651D01*
X273334Y103038D01*
X273543Y103545D01*
Y104093D01*
X273334Y104599D01*
X272946Y104987D01*
X272439Y105197D01*
D02*
G37*
G36*
X344408Y98307D02*
X343860D01*
X343353Y98097D01*
X342966Y97710D01*
X342756Y97203D01*
Y96655D01*
X342966Y96149D01*
X343223Y95892D01*
X343186Y95407D01*
X343143Y95318D01*
X343003Y95259D01*
X342615Y94871D01*
X342405Y94365D01*
Y93817D01*
X342615Y93310D01*
X343003Y92923D01*
X343509Y92713D01*
X344057D01*
X344564Y92923D01*
X344951Y93310D01*
X345161Y93817D01*
Y94365D01*
X344951Y94871D01*
X344694Y95129D01*
X344731Y95613D01*
X344774Y95703D01*
X344914Y95761D01*
X345302Y96149D01*
X345512Y96655D01*
Y97203D01*
X345302Y97710D01*
X344914Y98097D01*
X344408Y98307D01*
D02*
G37*
G36*
X339053Y91535D02*
X338191D01*
X337396Y91206D01*
X336786Y90597D01*
X336457Y89801D01*
Y88939D01*
X336786Y88143D01*
X337396Y87534D01*
X338191Y87205D01*
X339053D01*
X339849Y87534D01*
X340458Y88143D01*
X340787Y88939D01*
Y89801D01*
X340458Y90597D01*
X339849Y91206D01*
X339053Y91535D01*
D02*
G37*
G36*
X334092D02*
X333231D01*
X332435Y91206D01*
X331826Y90597D01*
X331496Y89801D01*
Y88939D01*
X331826Y88143D01*
X332435Y87534D01*
X333231Y87205D01*
X334092D01*
X334888Y87534D01*
X335497Y88143D01*
X335827Y88939D01*
Y89801D01*
X335497Y90597D01*
X334888Y91206D01*
X334092Y91535D01*
D02*
G37*
G36*
X329132D02*
X328270D01*
X327474Y91206D01*
X326865Y90597D01*
X326535Y89801D01*
Y88939D01*
X326865Y88143D01*
X327474Y87534D01*
X328270Y87205D01*
X329132D01*
X329927Y87534D01*
X330537Y88143D01*
X330866Y88939D01*
Y89801D01*
X330537Y90597D01*
X329927Y91206D01*
X329132Y91535D01*
D02*
G37*
G36*
X348187Y90945D02*
X347325D01*
X346529Y90615D01*
X345920Y90006D01*
X345591Y89210D01*
Y88349D01*
X345910Y87579D01*
X345591Y86809D01*
Y85947D01*
X345920Y85151D01*
X346529Y84542D01*
X347325Y84213D01*
X348187D01*
X348983Y84542D01*
X349592Y85151D01*
X349921Y85947D01*
Y86809D01*
X349602Y87579D01*
X349921Y88349D01*
Y89210D01*
X349592Y90006D01*
X348983Y90615D01*
X348187Y90945D01*
D02*
G37*
G36*
X107411Y91388D02*
X99833D01*
Y83809D01*
X107411D01*
Y91388D01*
D02*
G37*
G36*
X409802Y81535D02*
X409254D01*
X408747Y81326D01*
X408359Y80938D01*
X408150Y80431D01*
Y79883D01*
X408359Y79377D01*
X408747Y78989D01*
X409254Y78780D01*
X409802D01*
X410308Y78989D01*
X410696Y79377D01*
X410906Y79883D01*
Y80431D01*
X410696Y80938D01*
X410308Y81326D01*
X409802Y81535D01*
D02*
G37*
G36*
X210786Y77854D02*
X210238D01*
X209731Y77645D01*
X209344Y77257D01*
X209134Y76750D01*
Y76202D01*
X209344Y75696D01*
X209731Y75308D01*
X210238Y75099D01*
X210786D01*
X211292Y75308D01*
X211680Y75696D01*
X211890Y76202D01*
Y76750D01*
X211680Y77257D01*
X211292Y77645D01*
X210786Y77854D01*
D02*
G37*
G36*
X117439Y77795D02*
X116891D01*
X116385Y77586D01*
X115997Y77198D01*
X115787Y76691D01*
Y76143D01*
X115997Y75637D01*
X116385Y75249D01*
X116891Y75039D01*
X117439D01*
X117946Y75249D01*
X118333Y75637D01*
X118543Y76143D01*
Y76691D01*
X118333Y77198D01*
X117946Y77586D01*
X117439Y77795D01*
D02*
G37*
G36*
X330313Y118110D02*
X329765D01*
X329259Y117901D01*
X328871Y117513D01*
X328661Y117006D01*
Y116458D01*
X328844Y116017D01*
X328737Y115738D01*
X328599Y115517D01*
X262992D01*
X262493Y115418D01*
X262070Y115135D01*
X255302Y108368D01*
X255125Y108294D01*
X254737Y107906D01*
X254528Y107400D01*
Y106852D01*
X254737Y106345D01*
X255125Y105958D01*
X255316Y105879D01*
X255433Y105289D01*
X246227Y96082D01*
X225973D01*
X225685Y96582D01*
X225888Y96934D01*
X226102Y97735D01*
Y98564D01*
X225888Y99365D01*
X225473Y100083D01*
X224887Y100670D01*
X224638Y100814D01*
Y101391D01*
X224887Y101535D01*
X225473Y102121D01*
X225888Y102839D01*
X226102Y103640D01*
Y104470D01*
X225888Y105271D01*
X225473Y105989D01*
X224887Y106576D01*
X224168Y106990D01*
X223367Y107205D01*
X222538D01*
X221737Y106990D01*
X221019Y106576D01*
X220432Y105989D01*
X220289Y105740D01*
X219711D01*
X219568Y105989D01*
X218981Y106576D01*
X218263Y106990D01*
X217462Y107205D01*
X216633D01*
X215832Y106990D01*
X215113Y106576D01*
X214527Y105989D01*
X214112Y105271D01*
X213898Y104470D01*
Y103641D01*
X214112Y102840D01*
X214527Y102121D01*
X215113Y101535D01*
X215363Y101391D01*
Y100814D01*
X215113Y100670D01*
X214527Y100083D01*
X214112Y99365D01*
X213898Y98564D01*
Y97735D01*
X214112Y96934D01*
X214315Y96582D01*
X214027Y96082D01*
X127362D01*
X126978Y96006D01*
X126653Y95788D01*
X117321Y86457D01*
X117088D01*
X116582Y86247D01*
X116194Y85859D01*
X115984Y85353D01*
Y84805D01*
X116194Y84298D01*
X116582Y83911D01*
X117088Y83701D01*
X117636D01*
X118143Y83911D01*
X118530Y84298D01*
X118740Y84805D01*
Y85037D01*
X127778Y94075D01*
X161395D01*
X161687Y93575D01*
X161575Y93306D01*
Y92757D01*
X161785Y92251D01*
X162172Y91863D01*
X162679Y91654D01*
X163227D01*
X163733Y91863D01*
X164121Y92251D01*
X164331Y92757D01*
Y93306D01*
X164219Y93575D01*
X164511Y94075D01*
X213999D01*
X214237Y93575D01*
X214088Y93214D01*
Y92666D01*
X214297Y92159D01*
X214685Y91772D01*
X215192Y91562D01*
X215740D01*
X216246Y91772D01*
X216411Y91936D01*
X247507D01*
X247531Y91941D01*
X247778Y91480D01*
X246828Y90531D01*
X209134D01*
X208969Y90696D01*
X208463Y90905D01*
X207915D01*
X207408Y90696D01*
X207021Y90308D01*
X206811Y89802D01*
Y89253D01*
X207021Y88747D01*
X207408Y88359D01*
X207915Y88150D01*
X208463D01*
X208969Y88359D01*
X209134Y88524D01*
X214504D01*
X214711Y88024D01*
X214527Y87840D01*
X214112Y87121D01*
X213898Y86320D01*
Y85491D01*
X214112Y84690D01*
X214527Y83972D01*
X215113Y83385D01*
X215363Y83241D01*
Y82664D01*
X215113Y82520D01*
X214527Y81934D01*
X214112Y81216D01*
X213898Y80415D01*
Y79585D01*
X214112Y78784D01*
X214527Y78066D01*
X215113Y77480D01*
X215832Y77065D01*
X216633Y76850D01*
X217462D01*
X218263Y77065D01*
X218981Y77480D01*
X219568Y78066D01*
X219711Y78315D01*
X220289D01*
X220432Y78066D01*
X221019Y77480D01*
X221737Y77065D01*
X222538Y76850D01*
X223367D01*
X224168Y77065D01*
X224887Y77480D01*
X225473Y78066D01*
X225888Y78784D01*
X226102Y79585D01*
Y80415D01*
X225888Y81216D01*
X225473Y81934D01*
X224887Y82520D01*
X224638Y82664D01*
Y83241D01*
X224887Y83385D01*
X225473Y83972D01*
X225888Y84690D01*
X226102Y85491D01*
Y86320D01*
X225888Y87121D01*
X225473Y87839D01*
X225288Y88024D01*
X225495Y88524D01*
X247244D01*
X247628Y88600D01*
X247954Y88818D01*
X267266Y108130D01*
X301104D01*
X301391Y107630D01*
X301120Y107161D01*
X300905Y106360D01*
Y105530D01*
X301120Y104729D01*
X301535Y104011D01*
X302121Y103425D01*
X302370Y103281D01*
Y102703D01*
X302121Y102560D01*
X301535Y101973D01*
X301120Y101255D01*
X300905Y100454D01*
Y99625D01*
X301120Y98824D01*
X301535Y98106D01*
X302121Y97519D01*
X302370Y97375D01*
Y96798D01*
X302121Y96654D01*
X301535Y96068D01*
X301120Y95350D01*
X300905Y94548D01*
Y93719D01*
X301120Y92918D01*
X301535Y92200D01*
X302121Y91614D01*
X302839Y91199D01*
X303641Y90984D01*
X304470D01*
X305271Y91199D01*
X305989Y91614D01*
X306575Y92200D01*
X306990Y92918D01*
X307205Y93719D01*
Y94548D01*
X306990Y95350D01*
X306575Y96068D01*
X305989Y96654D01*
X305740Y96798D01*
Y97375D01*
X305989Y97519D01*
X306575Y98106D01*
X306990Y98824D01*
X307205Y99625D01*
Y100454D01*
X306990Y101255D01*
X306575Y101973D01*
X305989Y102560D01*
X305740Y102703D01*
Y103281D01*
X305989Y103425D01*
X306575Y104011D01*
X306990Y104729D01*
X307205Y105530D01*
Y106360D01*
X306990Y107161D01*
X306719Y107630D01*
X307006Y108130D01*
X308269D01*
X308557Y107630D01*
X308285Y107161D01*
X308071Y106360D01*
Y105530D01*
X308285Y104729D01*
X308700Y104011D01*
X309287Y103425D01*
X309536Y103281D01*
Y102703D01*
X309287Y102560D01*
X308700Y101973D01*
X308285Y101255D01*
X308071Y100454D01*
Y99625D01*
X308285Y98824D01*
X308700Y98106D01*
X309287Y97519D01*
X309536Y97375D01*
Y96798D01*
X309287Y96654D01*
X308700Y96068D01*
X308285Y95350D01*
X308071Y94548D01*
Y93719D01*
X308285Y92918D01*
X308700Y92200D01*
X309287Y91614D01*
X309539Y91468D01*
X309469Y90931D01*
X309454Y90927D01*
X308735Y90512D01*
X308149Y89926D01*
X307734Y89208D01*
X307520Y88407D01*
Y87577D01*
X307734Y86776D01*
X308149Y86058D01*
X308440Y85768D01*
X308705Y85433D01*
X308440Y85098D01*
X308149Y84808D01*
X307734Y84090D01*
X307520Y83289D01*
Y82459D01*
X307734Y81658D01*
X308149Y80940D01*
X308439Y80650D01*
X308705Y80315D01*
X308439Y79980D01*
X308149Y79690D01*
X307734Y78972D01*
X307520Y78171D01*
Y77341D01*
X307734Y76540D01*
X308149Y75822D01*
X308735Y75236D01*
X309454Y74821D01*
X310255Y74606D01*
X311084D01*
X311885Y74821D01*
X312603Y75236D01*
X313032Y75664D01*
X313460Y75236D01*
X314178Y74821D01*
X314979Y74606D01*
X315808D01*
X316609Y74821D01*
X317328Y75236D01*
X317776Y75684D01*
X318224Y75236D01*
X318942Y74821D01*
X319743Y74606D01*
X320572D01*
X321373Y74821D01*
X322091Y75236D01*
X322678Y75822D01*
X323092Y76540D01*
X323307Y77341D01*
Y78171D01*
X323092Y78972D01*
X322678Y79690D01*
X322387Y79980D01*
X322122Y80315D01*
X322387Y80650D01*
X322678Y80940D01*
X323092Y81658D01*
X323307Y82459D01*
Y83289D01*
X323092Y84090D01*
X322678Y84808D01*
X322365Y85121D01*
X322105Y85413D01*
X322370Y85790D01*
X322638Y86058D01*
X323053Y86776D01*
X323268Y87577D01*
Y88407D01*
X323053Y89208D01*
X322638Y89926D01*
X322052Y90512D01*
X321334Y90927D01*
X320533Y91142D01*
X319704D01*
X318902Y90927D01*
X318184Y90512D01*
X317756Y90084D01*
X317328Y90512D01*
X316609Y90927D01*
X315808Y91142D01*
X314979D01*
X314178Y90927D01*
X313460Y90512D01*
X313032Y90084D01*
X312603Y90512D01*
X312351Y90658D01*
X312421Y91195D01*
X312436Y91199D01*
X313154Y91614D01*
X313741Y92200D01*
X314155Y92918D01*
X314370Y93719D01*
Y94548D01*
X314155Y95350D01*
X313741Y96068D01*
X313154Y96654D01*
X312905Y96798D01*
Y97375D01*
X313154Y97519D01*
X313741Y98106D01*
X314155Y98824D01*
X314370Y99625D01*
Y100454D01*
X314155Y101255D01*
X313741Y101973D01*
X313154Y102560D01*
X312905Y102703D01*
Y103281D01*
X313154Y103425D01*
X313741Y104011D01*
X314008Y104474D01*
X314508Y104340D01*
Y103133D01*
X314585Y102749D01*
X314802Y102424D01*
X324410Y92817D01*
Y92797D01*
X324619Y92290D01*
X325007Y91903D01*
X325513Y91693D01*
X326062D01*
X326568Y91903D01*
X326956Y92290D01*
X327165Y92797D01*
Y93345D01*
X326956Y93851D01*
X326568Y94239D01*
X326219Y94384D01*
X326318Y94884D01*
X326471D01*
X326977Y95094D01*
X327365Y95481D01*
X327575Y95988D01*
Y96536D01*
X327365Y97042D01*
X327143Y97264D01*
X327196Y97812D01*
X327215Y97845D01*
X327586Y98216D01*
X327795Y98722D01*
Y99270D01*
X327586Y99777D01*
X327198Y100164D01*
X326691Y100374D01*
X326143D01*
X325637Y100164D01*
X325623Y100150D01*
X324948D01*
X320452Y104646D01*
Y109582D01*
X320376Y109966D01*
X320158Y110291D01*
X318004Y112446D01*
X318195Y112908D01*
X334302D01*
X352896Y94314D01*
X353320Y94031D01*
X353819Y93932D01*
X382294D01*
X392503Y83723D01*
X392926Y83441D01*
X393425Y83341D01*
X417570D01*
X426829Y74082D01*
X426903Y73905D01*
X427290Y73517D01*
X427797Y73307D01*
X428345D01*
X428851Y73517D01*
X429239Y73905D01*
X429449Y74411D01*
Y74959D01*
X429239Y75466D01*
X428851Y75853D01*
X428674Y75927D01*
X419033Y85568D01*
X418609Y85851D01*
X418110Y85950D01*
X393966D01*
X383757Y96159D01*
X383334Y96442D01*
X382835Y96541D01*
X357883D01*
X357858Y96580D01*
X357730Y97041D01*
X358019Y97330D01*
X358228Y97836D01*
Y98384D01*
X358019Y98891D01*
X357631Y99278D01*
X357124Y99488D01*
X356576D01*
X356070Y99278D01*
X355682Y98891D01*
X355472Y98384D01*
Y97836D01*
X355682Y97330D01*
X355971Y97041D01*
X355842Y96580D01*
X355818Y96541D01*
X354359D01*
X335765Y115135D01*
X335342Y115418D01*
X334843Y115517D01*
X331480D01*
X331342Y115738D01*
X331235Y116017D01*
X331417Y116458D01*
Y117006D01*
X331207Y117513D01*
X330820Y117901D01*
X330313Y118110D01*
D02*
G37*
G36*
X295352Y76575D02*
X294491D01*
X293695Y76245D01*
X293086Y75636D01*
X292756Y74840D01*
Y73979D01*
X293086Y73183D01*
X293695Y72574D01*
X294491Y72244D01*
X295352D01*
X296148Y72574D01*
X296757Y73183D01*
X297087Y73979D01*
Y74840D01*
X296757Y75636D01*
X296148Y76245D01*
X295352Y76575D01*
D02*
G37*
G36*
X290234D02*
X289372D01*
X288577Y76245D01*
X287968Y75636D01*
X287638Y74840D01*
Y73979D01*
X287968Y73183D01*
X288577Y72574D01*
X289372Y72244D01*
X290234D01*
X291030Y72574D01*
X291639Y73183D01*
X291969Y73979D01*
Y74840D01*
X291639Y75636D01*
X291030Y76245D01*
X290234Y76575D01*
D02*
G37*
G36*
X273324Y91142D02*
X271558D01*
X269813Y90865D01*
X268134Y90320D01*
X266560Y89518D01*
X265131Y88480D01*
X263882Y87231D01*
X262844Y85802D01*
X262042Y84228D01*
X261497Y82549D01*
X261221Y80804D01*
Y79038D01*
X261497Y77294D01*
X262042Y75614D01*
X262844Y74040D01*
X263882Y72612D01*
X265131Y71363D01*
X266560Y70325D01*
X268134Y69523D01*
X269813Y68977D01*
X271558Y68701D01*
X273324D01*
X275068Y68977D01*
X276748Y69523D01*
X278322Y70325D01*
X279751Y71363D01*
X280999Y72612D01*
X282038Y74040D01*
X282177Y74314D01*
X282677Y74194D01*
Y73900D01*
X283007Y73104D01*
X283616Y72495D01*
X284412Y72165D01*
X285273D01*
X286069Y72495D01*
X286678Y73104D01*
X287008Y73900D01*
Y74761D01*
X286678Y75557D01*
X286069Y76166D01*
X285273Y76496D01*
X284412D01*
X283616Y76166D01*
X283510Y76061D01*
X283072Y76329D01*
X283385Y77294D01*
X283661Y79038D01*
Y80804D01*
X283385Y82549D01*
X282839Y84228D01*
X282038Y85802D01*
X280999Y87231D01*
X279751Y88480D01*
X278322Y89518D01*
X276748Y90320D01*
X275068Y90865D01*
X273324Y91142D01*
D02*
G37*
G36*
X370962D02*
X369196D01*
X367451Y90865D01*
X365772Y90320D01*
X364198Y89518D01*
X362769Y88480D01*
X361520Y87231D01*
X360482Y85802D01*
X359680Y84228D01*
X359135Y82549D01*
X358858Y80804D01*
Y79038D01*
X359135Y77294D01*
X359680Y75614D01*
X360482Y74040D01*
X361520Y72612D01*
X362769Y71363D01*
X364198Y70325D01*
X365772Y69523D01*
X367451Y68977D01*
X369196Y68701D01*
X370962D01*
X372706Y68977D01*
X374386Y69523D01*
X375959Y70325D01*
X377388Y71363D01*
X378637Y72612D01*
X379675Y74040D01*
X380477Y75614D01*
X381023Y77294D01*
X381299Y79038D01*
Y80804D01*
X381023Y82549D01*
X380477Y84228D01*
X379675Y85802D01*
X378637Y87231D01*
X377388Y88480D01*
X375959Y89518D01*
X374386Y90320D01*
X372706Y90865D01*
X370962Y91142D01*
D02*
G37*
G36*
X349115Y73425D02*
X348286D01*
X347485Y73211D01*
X346767Y72796D01*
X346181Y72210D01*
X345766Y71491D01*
X345551Y70690D01*
Y69861D01*
X345766Y69060D01*
X346181Y68342D01*
X346702Y67821D01*
X346653Y67554D01*
X346520Y67321D01*
X232510D01*
X230521Y69309D01*
X230228Y69505D01*
X229882Y69574D01*
X160751D01*
X160710Y69566D01*
X160636Y69639D01*
X160130Y69849D01*
X159582D01*
X159075Y69639D01*
X158688Y69252D01*
X158478Y68745D01*
Y68197D01*
X158688Y67690D01*
X159075Y67303D01*
X159582Y67093D01*
X159686D01*
X160131Y67076D01*
X160148Y66631D01*
Y66527D01*
X160358Y66020D01*
X160746Y65632D01*
X161252Y65423D01*
X161800D01*
X162307Y65632D01*
X162572Y65898D01*
X176111D01*
X176457Y65966D01*
X176750Y66162D01*
X176948Y66361D01*
X228967D01*
X230926Y64401D01*
X231220Y64205D01*
X231565Y64136D01*
X384848D01*
X385194Y64205D01*
X385487Y64401D01*
X390892Y69806D01*
X393528D01*
X393660Y69572D01*
X393709Y69305D01*
X393188Y68784D01*
X392774Y68066D01*
X392559Y67265D01*
Y66436D01*
X392774Y65635D01*
X393188Y64916D01*
X393775Y64330D01*
X394024Y64186D01*
Y63609D01*
X393775Y63465D01*
X393188Y62879D01*
X392774Y62161D01*
X392559Y61360D01*
Y60530D01*
X392774Y59729D01*
X393188Y59011D01*
X393775Y58425D01*
X394024Y58281D01*
Y57704D01*
X393775Y57560D01*
X393188Y56973D01*
X392774Y56255D01*
X392559Y55454D01*
Y54625D01*
X392774Y53824D01*
X393188Y53105D01*
X393775Y52519D01*
X394024Y52375D01*
Y51798D01*
X393775Y51654D01*
X393188Y51068D01*
X392774Y50350D01*
X392559Y49549D01*
Y48719D01*
X392774Y47918D01*
X393188Y47200D01*
X393775Y46614D01*
X394024Y46470D01*
Y45893D01*
X393775Y45749D01*
X393188Y45162D01*
X392774Y44444D01*
X392559Y43643D01*
Y42814D01*
X392774Y42013D01*
X393188Y41295D01*
X393775Y40708D01*
X394024Y40564D01*
Y39987D01*
X393775Y39843D01*
X393188Y39257D01*
X392774Y38539D01*
X392559Y37738D01*
Y36908D01*
X392774Y36107D01*
X393188Y35389D01*
X393775Y34803D01*
X394024Y34659D01*
Y34081D01*
X393775Y33938D01*
X393188Y33351D01*
X392774Y32633D01*
X392559Y31832D01*
Y31003D01*
X392774Y30202D01*
X393188Y29483D01*
X393307Y29365D01*
X393115Y28903D01*
X389123D01*
X362182Y55844D01*
X361759Y56126D01*
X361260Y56226D01*
X357568D01*
X357361Y56726D01*
X357638Y57003D01*
X358053Y57721D01*
X358268Y58522D01*
Y59352D01*
X358053Y60153D01*
X357638Y60871D01*
X357052Y61457D01*
X356334Y61872D01*
X355533Y62087D01*
X354703D01*
X353902Y61872D01*
X353184Y61457D01*
X352598Y60871D01*
X352454Y60622D01*
X351877D01*
X351733Y60871D01*
X351147Y61457D01*
X350428Y61872D01*
X349627Y62087D01*
X348798D01*
X347997Y61872D01*
X347279Y61457D01*
X346692Y60871D01*
X346549Y60622D01*
X345971D01*
X345828Y60871D01*
X345241Y61457D01*
X344523Y61872D01*
X343722Y62087D01*
X342893D01*
X342091Y61872D01*
X341373Y61457D01*
X340787Y60871D01*
X340643Y60622D01*
X340066D01*
X339922Y60871D01*
X339335Y61457D01*
X338617Y61872D01*
X337816Y62087D01*
X336987D01*
X336186Y61872D01*
X335468Y61457D01*
X334881Y60871D01*
X334738Y60622D01*
X334160D01*
X334016Y60871D01*
X333430Y61457D01*
X332712Y61872D01*
X331911Y62087D01*
X331082D01*
X330280Y61872D01*
X329562Y61457D01*
X328976Y60871D01*
X328832Y60622D01*
X328255D01*
X328111Y60871D01*
X327524Y61457D01*
X326806Y61872D01*
X326005Y62087D01*
X325176D01*
X324375Y61872D01*
X323657Y61457D01*
X323070Y60871D01*
X322656Y60153D01*
X322441Y59352D01*
Y58522D01*
X322656Y57721D01*
X323070Y57003D01*
X323347Y56726D01*
X323140Y56226D01*
X305472D01*
X304973Y56126D01*
X304550Y55844D01*
X302570Y53864D01*
X301857D01*
X301580Y54279D01*
X301732Y54648D01*
Y55510D01*
X301403Y56305D01*
X300794Y56914D01*
X299998Y57244D01*
X299136D01*
X298340Y56914D01*
X297731Y56305D01*
X297402Y55510D01*
Y54648D01*
X297554Y54279D01*
X297276Y53864D01*
X286052D01*
X284623Y55293D01*
X284200Y55575D01*
X283701Y55675D01*
X271775D01*
X267424Y60025D01*
X267389Y60111D01*
X267001Y60499D01*
X266495Y60709D01*
X265946D01*
X265440Y60499D01*
X265052Y60111D01*
X264843Y59605D01*
Y59057D01*
X265052Y58550D01*
X265440Y58162D01*
X265708Y58052D01*
X270036Y53723D01*
X269851Y53201D01*
X269620Y53177D01*
X266143Y56655D01*
X265817Y56872D01*
X265433Y56948D01*
X251378D01*
X251214Y57113D01*
X250707Y57323D01*
X250159D01*
X249653Y57113D01*
X249265Y56725D01*
X249055Y56219D01*
Y55671D01*
X249167Y55401D01*
X248875Y54901D01*
X247477D01*
X247308Y55308D01*
X246921Y55696D01*
X246414Y55905D01*
X245866D01*
X245360Y55696D01*
X244972Y55308D01*
X244762Y54802D01*
Y54254D01*
X244972Y53747D01*
X245360Y53359D01*
X245866Y53150D01*
X246331D01*
X246599Y52970D01*
X246983Y52894D01*
X263876D01*
X268897Y47873D01*
X269222Y47655D01*
X269606Y47579D01*
X273779D01*
X273944Y47414D01*
X274450Y47205D01*
X274998D01*
X275505Y47414D01*
X275893Y47802D01*
X276102Y48309D01*
Y48857D01*
X275893Y49363D01*
X275505Y49751D01*
X274998Y49961D01*
X274450D01*
X273944Y49751D01*
X273779Y49586D01*
X270022D01*
X269050Y50558D01*
X269296Y51019D01*
X269370Y51004D01*
X274567D01*
X274731Y50840D01*
X275238Y50630D01*
X275786D01*
X276292Y50840D01*
X276680Y51227D01*
X276890Y51734D01*
Y52282D01*
X276772Y52565D01*
X277056Y53066D01*
X283160D01*
X284589Y51637D01*
X285013Y51354D01*
X285512Y51254D01*
X303110D01*
X303609Y51354D01*
X304033Y51637D01*
X306013Y53617D01*
X360719D01*
X361413Y52923D01*
X361168Y52461D01*
X360438Y52266D01*
X359720Y51851D01*
X359213Y51344D01*
X358666Y51890D01*
X357948Y52305D01*
X357147Y52520D01*
X356318D01*
X355517Y52305D01*
X354798Y51890D01*
X354212Y51304D01*
X353797Y50586D01*
X353583Y49785D01*
Y48955D01*
X353797Y48154D01*
X354212Y47436D01*
X354798Y46850D01*
X355047Y46706D01*
Y46129D01*
X354798Y45985D01*
X354212Y45398D01*
X353797Y44680D01*
X353583Y43879D01*
Y43050D01*
X353797Y42249D01*
X354212Y41531D01*
X354798Y40944D01*
X355047Y40800D01*
Y40223D01*
X354798Y40079D01*
X354212Y39493D01*
X353797Y38775D01*
X353583Y37974D01*
Y37144D01*
X353797Y36343D01*
X354212Y35625D01*
X354798Y35039D01*
X355517Y34624D01*
X356318Y34409D01*
X357147D01*
X357948Y34624D01*
X358666Y35039D01*
X359173Y35546D01*
X359720Y34999D01*
X360438Y34585D01*
X361239Y34370D01*
X362068D01*
X362869Y34585D01*
X363587Y34999D01*
X364174Y35586D01*
X364588Y36304D01*
X364803Y37105D01*
Y37934D01*
X364588Y38735D01*
X364174Y39454D01*
X363587Y40040D01*
X363338Y40184D01*
Y40761D01*
X363587Y40905D01*
X364174Y41491D01*
X364588Y42209D01*
X364803Y43010D01*
Y43840D01*
X364588Y44641D01*
X364174Y45359D01*
X363587Y45945D01*
X363338Y46089D01*
Y46667D01*
X363587Y46810D01*
X364174Y47397D01*
X364588Y48115D01*
X364784Y48845D01*
X365246Y49090D01*
X387660Y26676D01*
X388083Y26393D01*
X388583Y26294D01*
X411024D01*
X411523Y26393D01*
X411946Y26676D01*
X418671Y33401D01*
X427492D01*
X427669Y33328D01*
X428218D01*
X428724Y33538D01*
X429112Y33925D01*
X429321Y34432D01*
Y34980D01*
X429112Y35486D01*
X428724Y35874D01*
X428218Y36084D01*
X427669D01*
X427492Y36010D01*
X418131D01*
X417632Y35911D01*
X417208Y35628D01*
X410575Y28995D01*
X410293Y29029D01*
X410149Y29287D01*
X410077Y29547D01*
X410455Y30202D01*
X410669Y31003D01*
Y31832D01*
X410455Y32633D01*
X410040Y33351D01*
X409454Y33938D01*
X408735Y34352D01*
X407934Y34567D01*
X407105D01*
X406304Y34352D01*
X405586Y33938D01*
X404999Y33351D01*
X404856Y33102D01*
X404278D01*
X404135Y33351D01*
X403548Y33938D01*
X403299Y34082D01*
Y34659D01*
X403548Y34803D01*
X404134Y35389D01*
X404549Y36107D01*
X404764Y36908D01*
Y37738D01*
X404549Y38539D01*
X404134Y39257D01*
X403548Y39843D01*
X403299Y39987D01*
Y40564D01*
X403548Y40708D01*
X404134Y41295D01*
X404549Y42013D01*
X404764Y42814D01*
Y43643D01*
X404549Y44444D01*
X404134Y45162D01*
X403548Y45749D01*
X403299Y45893D01*
Y46470D01*
X403548Y46614D01*
X404134Y47200D01*
X404549Y47918D01*
X404764Y48719D01*
Y49549D01*
X404549Y50350D01*
X404134Y51068D01*
X403548Y51654D01*
X403299Y51798D01*
Y52375D01*
X403548Y52519D01*
X404134Y53105D01*
X404549Y53824D01*
X404764Y54625D01*
Y55454D01*
X404549Y56255D01*
X404134Y56973D01*
X403548Y57560D01*
X403299Y57704D01*
Y58281D01*
X403548Y58425D01*
X404134Y59011D01*
X404549Y59729D01*
X404764Y60530D01*
Y61360D01*
X404549Y62161D01*
X404134Y62879D01*
X403548Y63465D01*
X403299Y63609D01*
Y64186D01*
X403548Y64330D01*
X404135Y64916D01*
X404278Y65166D01*
X404856D01*
X404999Y64916D01*
X405586Y64330D01*
X406304Y63915D01*
X407105Y63701D01*
X407934D01*
X408735Y63915D01*
X409454Y64330D01*
X410040Y64916D01*
X410455Y65635D01*
X410669Y66436D01*
Y67265D01*
X410455Y68066D01*
X410040Y68784D01*
X409542Y69283D01*
X409666Y69783D01*
X414485D01*
X417510Y66758D01*
X417448Y66567D01*
X417265Y66296D01*
X416812D01*
X416306Y66087D01*
X415918Y65699D01*
X415709Y65192D01*
Y64644D01*
X415918Y64138D01*
X416306Y63750D01*
X416812Y63540D01*
X417361D01*
X417867Y63750D01*
X417870Y63753D01*
X418766Y62858D01*
X419059Y62662D01*
X419405Y62593D01*
X419405Y62593D01*
X420954D01*
X421137Y62629D01*
X421299Y62662D01*
X421299Y62662D01*
X421299Y62662D01*
X421458Y62768D01*
X421592Y62858D01*
X422688Y63953D01*
X422688Y63953D01*
X422688Y63953D01*
X422794Y64112D01*
X422884Y64246D01*
X422884Y64246D01*
X422884Y64246D01*
X422918Y64420D01*
X422953Y64591D01*
X422953Y64592D01*
X422953Y64592D01*
Y66141D01*
X422884Y66487D01*
X422688Y66780D01*
X416742Y72725D01*
X416449Y72921D01*
X416104Y72990D01*
X389947D01*
X389601Y72921D01*
X389308Y72725D01*
X383903Y67321D01*
X350882D01*
X350749Y67554D01*
X350700Y67821D01*
X351221Y68342D01*
X351636Y69060D01*
X351850Y69861D01*
Y70690D01*
X351636Y71491D01*
X351221Y72210D01*
X350635Y72796D01*
X349917Y73211D01*
X349115Y73425D01*
D02*
G37*
G36*
X74035Y71101D02*
X73487D01*
X72981Y70891D01*
X72593Y70504D01*
X72383Y69997D01*
Y69449D01*
X72593Y68942D01*
X72981Y68555D01*
X73487Y68345D01*
X73592D01*
X74036Y68327D01*
X74054Y67883D01*
Y67778D01*
X74264Y67272D01*
X74651Y66884D01*
X75158Y66675D01*
X75706D01*
X76212Y66884D01*
X76600Y67272D01*
X76810Y67778D01*
Y68327D01*
X76600Y68833D01*
X76212Y69221D01*
X75706Y69431D01*
X75601D01*
X75157Y69448D01*
X75139Y69893D01*
Y69997D01*
X74929Y70504D01*
X74542Y70891D01*
X74035Y71101D01*
D02*
G37*
G36*
X55904Y68425D02*
X55356D01*
X54849Y68215D01*
X54462Y67828D01*
X54252Y67321D01*
Y66773D01*
X54462Y66267D01*
X54849Y65879D01*
X55356Y65669D01*
X55904D01*
X56410Y65879D01*
X56798Y66267D01*
X57008Y66773D01*
Y67321D01*
X56798Y67828D01*
X56410Y68215D01*
X55904Y68425D01*
D02*
G37*
G36*
X528113Y74022D02*
X527002D01*
X525929Y73734D01*
X524967Y73179D01*
X524181Y72394D01*
X523626Y71432D01*
X523338Y70359D01*
Y69248D01*
X523626Y68175D01*
X524181Y67213D01*
X524967Y66427D01*
X525929Y65872D01*
X527002Y65584D01*
X528113D01*
X529185Y65872D01*
X530148Y66427D01*
X530933Y67213D01*
X531488Y68175D01*
X531776Y69248D01*
Y70359D01*
X531488Y71432D01*
X530933Y72394D01*
X530148Y73179D01*
X529185Y73734D01*
X528113Y74022D01*
D02*
G37*
G36*
X295706Y63504D02*
X294845D01*
X294049Y63174D01*
X293440Y62565D01*
X293110Y61769D01*
Y60908D01*
X293440Y60112D01*
X294049Y59503D01*
X294845Y59173D01*
X295706D01*
X296502Y59503D01*
X297111Y60112D01*
X297441Y60908D01*
Y61769D01*
X297111Y62565D01*
X296502Y63174D01*
X295706Y63504D01*
D02*
G37*
G36*
X290234Y63504D02*
X289372D01*
X288577Y63174D01*
X287968Y62565D01*
X287638Y61769D01*
Y60908D01*
X287968Y60112D01*
X288577Y59503D01*
X289372Y59173D01*
X290234D01*
X291030Y59503D01*
X291639Y60112D01*
X291969Y60908D01*
Y61769D01*
X291639Y62565D01*
X291030Y63174D01*
X290234Y63504D01*
D02*
G37*
G36*
X285076D02*
X284215D01*
X283419Y63174D01*
X282810Y62565D01*
X282480Y61769D01*
Y60908D01*
X282810Y60112D01*
X283419Y59503D01*
X284215Y59173D01*
X285076D01*
X285872Y59503D01*
X286481Y60112D01*
X286811Y60908D01*
Y61769D01*
X286481Y62565D01*
X285872Y63174D01*
X285076Y63504D01*
D02*
G37*
G36*
X167006Y58543D02*
X166458D01*
X165952Y58333D01*
X165564Y57946D01*
X165354Y57439D01*
Y56891D01*
X165564Y56385D01*
X165952Y55997D01*
X166458Y55787D01*
X167006D01*
X167513Y55997D01*
X167901Y56385D01*
X168110Y56891D01*
Y57439D01*
X167901Y57946D01*
X167513Y58333D01*
X167006Y58543D01*
D02*
G37*
G36*
X103346Y57231D02*
X102798D01*
X102292Y57021D01*
X101904Y56633D01*
X101694Y56127D01*
Y55579D01*
X101904Y55072D01*
X102292Y54684D01*
X102798Y54475D01*
X103346D01*
X103853Y54684D01*
X104240Y55072D01*
X104450Y55579D01*
Y56127D01*
X104240Y56633D01*
X103853Y57021D01*
X103346Y57231D01*
D02*
G37*
G36*
X183109Y59291D02*
X182561D01*
X182054Y59082D01*
X181667Y58694D01*
X181457Y58188D01*
Y57639D01*
X181667Y57133D01*
X182054Y56745D01*
X182561Y56535D01*
X182580D01*
X183485Y55631D01*
Y55551D01*
X183561Y55167D01*
X183779Y54842D01*
X184104Y54624D01*
X184488Y54548D01*
X230453D01*
X230487Y54496D01*
X230220Y53996D01*
X164961D01*
X164796Y54160D01*
X164290Y54370D01*
X163742D01*
X163235Y54160D01*
X162848Y53773D01*
X162638Y53266D01*
Y52718D01*
X162766Y52409D01*
X162497Y51909D01*
X137165D01*
X136781Y51833D01*
X136456Y51615D01*
X132164Y47323D01*
X131931D01*
X131424Y47113D01*
X131037Y46725D01*
X130827Y46219D01*
Y45671D01*
X131037Y45164D01*
X131424Y44777D01*
X131931Y44567D01*
X132479D01*
X132985Y44777D01*
X133373Y45164D01*
X133583Y45671D01*
Y45904D01*
X137581Y49902D01*
X155875D01*
X156082Y49402D01*
X155997Y49317D01*
X155788Y48811D01*
Y48262D01*
X155997Y47756D01*
X156385Y47368D01*
X156891Y47159D01*
X157439D01*
X157946Y47368D01*
X158334Y47756D01*
X158543Y48262D01*
Y48811D01*
X158334Y49317D01*
X158249Y49402D01*
X158456Y49902D01*
X162214D01*
X162421Y49402D01*
X162336Y49317D01*
X162126Y48811D01*
Y48262D01*
X162336Y47756D01*
X162723Y47368D01*
X163230Y47159D01*
X163778D01*
X164285Y47368D01*
X164672Y47756D01*
X164882Y48262D01*
Y48811D01*
X164672Y49317D01*
X164587Y49402D01*
X164794Y49902D01*
X214701D01*
X214909Y49402D01*
X214527Y49020D01*
X214112Y48302D01*
X213898Y47501D01*
Y46672D01*
X214112Y45871D01*
X214527Y45153D01*
X215113Y44566D01*
X215363Y44423D01*
Y43845D01*
X215113Y43701D01*
X214527Y43115D01*
X214112Y42397D01*
X213898Y41596D01*
Y40766D01*
X214112Y39965D01*
X214527Y39247D01*
X215113Y38661D01*
X215832Y38246D01*
X216633Y38031D01*
X217462D01*
X218263Y38246D01*
X218981Y38661D01*
X219568Y39247D01*
X219711Y39496D01*
X220289D01*
X220432Y39247D01*
X221019Y38661D01*
X221737Y38246D01*
X222538Y38031D01*
X223367D01*
X224168Y38246D01*
X224887Y38661D01*
X225473Y39247D01*
X225888Y39965D01*
X226102Y40766D01*
Y41596D01*
X225888Y42397D01*
X225473Y43115D01*
X224887Y43701D01*
X224638Y43845D01*
Y44423D01*
X224887Y44566D01*
X225473Y45153D01*
X225888Y45871D01*
X226102Y46672D01*
Y47501D01*
X225888Y48302D01*
X225473Y49020D01*
X225092Y49402D01*
X225299Y49902D01*
X230372D01*
X246849Y33424D01*
X247175Y33207D01*
X247559Y33130D01*
X315614D01*
X315948Y32630D01*
X315787Y32242D01*
Y31380D01*
X316117Y30584D01*
X316426Y30276D01*
X316117Y29967D01*
X315787Y29171D01*
Y28310D01*
X316117Y27514D01*
X316726Y26904D01*
X317522Y26575D01*
X318384D01*
X319179Y26904D01*
X319789Y27514D01*
X320118Y28310D01*
Y29171D01*
X319923Y29642D01*
X320032Y29775D01*
X320326Y29975D01*
X321026Y29685D01*
X321887D01*
X322683Y30015D01*
X323292Y30624D01*
X323622Y31420D01*
Y31626D01*
X324084Y31817D01*
X328725Y27176D01*
X328608Y26586D01*
X328417Y26507D01*
X328029Y26120D01*
X327819Y25613D01*
Y25065D01*
X328029Y24559D01*
X328417Y24171D01*
X328690Y24058D01*
Y23516D01*
X328629Y23491D01*
X328241Y23103D01*
X328031Y22597D01*
Y22049D01*
X328241Y21542D01*
X328629Y21155D01*
X329135Y20945D01*
X329683D01*
X330190Y21155D01*
X330578Y21542D01*
X330787Y22049D01*
Y22597D01*
X330578Y23103D01*
X330190Y23491D01*
X329916Y23604D01*
Y24146D01*
X329978Y24171D01*
X330366Y24559D01*
X330445Y24749D01*
X331034Y24867D01*
X333658Y22243D01*
X333984Y22026D01*
X334368Y21949D01*
X346456D01*
X346621Y21785D01*
X347127Y21575D01*
X347676D01*
X348182Y21785D01*
X348570Y22172D01*
X348780Y22679D01*
Y22831D01*
X349279Y23038D01*
X349444Y22873D01*
X350162Y22459D01*
X350963Y22244D01*
X351793D01*
X352594Y22459D01*
X353312Y22873D01*
X353898Y23460D01*
X354313Y24178D01*
X354527Y24979D01*
Y25808D01*
X354313Y26609D01*
X353898Y27327D01*
X353462Y27764D01*
X353371Y28380D01*
X353701Y29176D01*
Y30037D01*
X353479Y30574D01*
X354040Y31136D01*
X354370Y31931D01*
Y32793D01*
X354040Y33589D01*
X353431Y34198D01*
X352635Y34528D01*
X351774D01*
X350978Y34198D01*
X350369Y33589D01*
X350039Y32793D01*
Y31931D01*
X350262Y31395D01*
X349700Y30833D01*
X349370Y30037D01*
Y29176D01*
X349700Y28380D01*
X349654Y28035D01*
X349444Y27914D01*
X348858Y27327D01*
X348443Y26609D01*
X348228Y25808D01*
Y24979D01*
X348330Y24601D01*
X347910Y24234D01*
X347676Y24331D01*
X347127D01*
X346621Y24121D01*
X346456Y23956D01*
X334783D01*
X324497Y34243D01*
X324688Y34705D01*
X339702D01*
X345866Y28541D01*
Y28309D01*
X346076Y27802D01*
X346463Y27415D01*
X346970Y27205D01*
X347518D01*
X348025Y27415D01*
X348412Y27802D01*
X348622Y28309D01*
Y28857D01*
X348412Y29363D01*
X348025Y29751D01*
X347518Y29961D01*
X347285D01*
X340828Y36418D01*
X340502Y36636D01*
X340118Y36712D01*
X249313D01*
X243396Y42629D01*
X243588Y43091D01*
X253976D01*
X254141Y42926D01*
X254647Y42717D01*
X255195D01*
X255702Y42926D01*
X256089Y43314D01*
X256299Y43820D01*
Y44369D01*
X256089Y44875D01*
X255702Y45263D01*
X255195Y45472D01*
X254647D01*
X254141Y45263D01*
X253976Y45098D01*
X243155D01*
X231992Y56261D01*
X231666Y56478D01*
X231282Y56555D01*
X185333D01*
X185198Y56756D01*
X184213Y57742D01*
Y58188D01*
X184003Y58694D01*
X183615Y59082D01*
X183109Y59291D01*
D02*
G37*
G36*
X76022Y55197D02*
X75474D01*
X74967Y54987D01*
X74580Y54599D01*
X74370Y54093D01*
Y53545D01*
X74580Y53038D01*
X74967Y52651D01*
X75474Y52441D01*
X76022D01*
X76529Y52651D01*
X76916Y53038D01*
X77126Y53545D01*
Y54093D01*
X76916Y54599D01*
X76529Y54987D01*
X76022Y55197D01*
D02*
G37*
G36*
X71770Y55118D02*
X71222D01*
X70716Y54908D01*
X70328Y54521D01*
X70118Y54014D01*
Y53466D01*
X70328Y52960D01*
X70716Y52572D01*
X71222Y52362D01*
X71770D01*
X72277Y52572D01*
X72664Y52960D01*
X72874Y53466D01*
Y54014D01*
X72664Y54521D01*
X72277Y54908D01*
X71770Y55118D01*
D02*
G37*
G36*
X104270Y53858D02*
X103722D01*
X103216Y53649D01*
X102828Y53261D01*
X102618Y52754D01*
Y52206D01*
X102828Y51700D01*
X103216Y51312D01*
X103722Y51102D01*
X104270D01*
X104777Y51312D01*
X105164Y51700D01*
X105374Y52206D01*
Y52754D01*
X105164Y53261D01*
X104777Y53649D01*
X104270Y53858D01*
D02*
G37*
G36*
X528113Y57723D02*
X527002D01*
X525929Y57435D01*
X524967Y56880D01*
X524181Y56094D01*
X523626Y55132D01*
X523338Y54059D01*
Y52949D01*
X523626Y51876D01*
X524181Y50914D01*
X524967Y50128D01*
X525929Y49573D01*
X527002Y49285D01*
X528113D01*
X529185Y49573D01*
X530148Y50128D01*
X530933Y50914D01*
X531488Y51876D01*
X531776Y52949D01*
Y54059D01*
X531488Y55132D01*
X530933Y56094D01*
X530148Y56880D01*
X529185Y57435D01*
X528113Y57723D01*
D02*
G37*
G36*
X97400Y47205D02*
X96852D01*
X96345Y46995D01*
X95958Y46607D01*
X95748Y46101D01*
Y45553D01*
X95958Y45046D01*
X96345Y44659D01*
X96852Y44449D01*
X97400D01*
X97907Y44659D01*
X98294Y45046D01*
X98504Y45553D01*
Y46101D01*
X98294Y46607D01*
X97907Y46995D01*
X97400Y47205D01*
D02*
G37*
G36*
X275077Y45472D02*
X274529D01*
X274023Y45263D01*
X273635Y44875D01*
X273425Y44369D01*
Y43820D01*
X273635Y43314D01*
X274023Y42926D01*
X274529Y42717D01*
X275077D01*
X275584Y42926D01*
X275971Y43314D01*
X276181Y43820D01*
Y44369D01*
X275971Y44875D01*
X275584Y45263D01*
X275077Y45472D01*
D02*
G37*
G36*
X183739Y44606D02*
X183191D01*
X182684Y44396D01*
X182296Y44009D01*
X182087Y43502D01*
Y42954D01*
X182296Y42448D01*
X182684Y42060D01*
X183191Y41850D01*
X183739D01*
X184245Y42060D01*
X184633Y42448D01*
X184843Y42954D01*
Y43502D01*
X184633Y44009D01*
X184245Y44396D01*
X183739Y44606D01*
D02*
G37*
G36*
X78817Y41850D02*
X78269D01*
X77763Y41641D01*
X77598Y41476D01*
X67598D01*
X67214Y41399D01*
X66889Y41182D01*
X63856Y38150D01*
X63624D01*
X63117Y37940D01*
X62730Y37552D01*
X62520Y37046D01*
Y36498D01*
X62730Y35991D01*
X63117Y35603D01*
X63624Y35394D01*
X64172D01*
X64678Y35603D01*
X65066Y35991D01*
X65276Y36498D01*
Y36730D01*
X68014Y39469D01*
X77598D01*
X77763Y39304D01*
X78269Y39094D01*
X78817D01*
X79324Y39304D01*
X79712Y39692D01*
X79921Y40198D01*
Y40747D01*
X79712Y41253D01*
X79324Y41641D01*
X78817Y41850D01*
D02*
G37*
G36*
X164564Y41221D02*
X164016D01*
X163509Y41011D01*
X163122Y40623D01*
X162912Y40117D01*
Y39568D01*
X163122Y39062D01*
X163509Y38674D01*
X164016Y38465D01*
X164564D01*
X165070Y38674D01*
X165458Y39062D01*
X165668Y39568D01*
Y40117D01*
X165458Y40623D01*
X165070Y41011D01*
X164564Y41221D01*
D02*
G37*
G36*
X69723Y38386D02*
X69175D01*
X68668Y38176D01*
X68281Y37788D01*
X68071Y37282D01*
Y36734D01*
X68281Y36227D01*
X68668Y35840D01*
X69175Y35630D01*
X69723D01*
X70229Y35840D01*
X70617Y36227D01*
X70827Y36734D01*
Y37282D01*
X70617Y37788D01*
X70229Y38176D01*
X69723Y38386D01*
D02*
G37*
G36*
X78716Y38073D02*
X78168D01*
X77662Y37863D01*
X77274Y37475D01*
X77064Y36969D01*
Y36421D01*
X77274Y35914D01*
X77662Y35527D01*
X78168Y35317D01*
X78716D01*
X79223Y35527D01*
X79611Y35914D01*
X79820Y36421D01*
Y36969D01*
X79611Y37475D01*
X79223Y37863D01*
X78716Y38073D01*
D02*
G37*
G36*
X150786Y36059D02*
X150238D01*
X149731Y35849D01*
X149344Y35462D01*
X149134Y34955D01*
Y34407D01*
X149344Y33900D01*
X149731Y33513D01*
X150238Y33303D01*
X150786D01*
X151292Y33513D01*
X151680Y33900D01*
X151890Y34407D01*
Y34955D01*
X151680Y35462D01*
X151292Y35849D01*
X150786Y36059D01*
D02*
G37*
G36*
X163384Y35728D02*
X162836D01*
X162330Y35519D01*
X161942Y35131D01*
X161732Y34624D01*
Y34076D01*
X161942Y33570D01*
X162330Y33182D01*
X162836Y32972D01*
X163384D01*
X163891Y33182D01*
X164278Y33570D01*
X164488Y34076D01*
Y34624D01*
X164278Y35131D01*
X163891Y35519D01*
X163384Y35728D01*
D02*
G37*
G36*
X159133Y35634D02*
X158585D01*
X158079Y35424D01*
X157691Y35036D01*
X157481Y34530D01*
Y33981D01*
X157691Y33475D01*
X158079Y33087D01*
X158585Y32878D01*
X159133D01*
X159640Y33087D01*
X160027Y33475D01*
X160237Y33981D01*
Y34530D01*
X160027Y35036D01*
X159640Y35424D01*
X159133Y35634D01*
D02*
G37*
G36*
X223367Y31470D02*
X222538D01*
X221737Y31255D01*
X221019Y30841D01*
X220432Y30254D01*
X220289Y30005D01*
X219711D01*
X219568Y30254D01*
X218981Y30841D01*
X218263Y31255D01*
X217462Y31470D01*
X216633D01*
X215832Y31255D01*
X215113Y30841D01*
X214527Y30254D01*
X214112Y29536D01*
X213898Y28735D01*
Y27906D01*
X214112Y27105D01*
X214527Y26386D01*
X215113Y25800D01*
X215363Y25656D01*
Y25079D01*
X215113Y24935D01*
X214527Y24349D01*
X214112Y23630D01*
X213898Y22829D01*
Y22000D01*
X214112Y21199D01*
X214527Y20481D01*
X215113Y19895D01*
X215832Y19480D01*
X216633Y19265D01*
X217462D01*
X218263Y19480D01*
X218981Y19895D01*
X219568Y20481D01*
X219711Y20730D01*
X220289D01*
X220432Y20481D01*
X221019Y19895D01*
X221737Y19480D01*
X222538Y19265D01*
X223367D01*
X224168Y19480D01*
X224887Y19895D01*
X225473Y20481D01*
X225888Y21199D01*
X226102Y22000D01*
Y22829D01*
X225888Y23630D01*
X225473Y24349D01*
X224887Y24935D01*
X224638Y25079D01*
Y25656D01*
X224887Y25800D01*
X225473Y26386D01*
X225888Y27105D01*
X226102Y27906D01*
Y28735D01*
X225888Y29536D01*
X225473Y30254D01*
X224887Y30841D01*
X224168Y31255D01*
X223367Y31470D01*
D02*
G37*
G36*
X290903Y31278D02*
X290042D01*
X289246Y30948D01*
X288637Y30339D01*
X288307Y29544D01*
Y28682D01*
X288637Y27886D01*
X289246Y27277D01*
X290042Y26948D01*
X290903D01*
X291699Y27277D01*
X292308Y27886D01*
X292638Y28682D01*
Y29544D01*
X292308Y30339D01*
X291699Y30948D01*
X290903Y31278D01*
D02*
G37*
G36*
X277793Y31239D02*
X276931D01*
X276136Y30909D01*
X275526Y30300D01*
X275197Y29504D01*
Y28643D01*
X275526Y27847D01*
X276136Y27238D01*
X276931Y26908D01*
X277793D01*
X278589Y27238D01*
X279198Y27847D01*
X279527Y28643D01*
Y29504D01*
X279198Y30300D01*
X278589Y30909D01*
X277793Y31239D01*
D02*
G37*
G36*
X290864Y25688D02*
X290002D01*
X289207Y25358D01*
X288597Y24749D01*
X288268Y23953D01*
Y23091D01*
X288597Y22296D01*
X289207Y21687D01*
X290002Y21357D01*
X290864D01*
X291660Y21687D01*
X292269Y22296D01*
X292599Y23091D01*
Y23953D01*
X292269Y24749D01*
X291660Y25358D01*
X290864Y25688D01*
D02*
G37*
G36*
X277793D02*
X276931D01*
X276136Y25358D01*
X275526Y24749D01*
X275197Y23953D01*
Y23091D01*
X275526Y22296D01*
X276136Y21687D01*
X276931Y21357D01*
X277793D01*
X278589Y21687D01*
X279198Y22296D01*
X279527Y23091D01*
Y23953D01*
X279198Y24749D01*
X278589Y25358D01*
X277793Y25688D01*
D02*
G37*
G36*
X320363Y22415D02*
X319815D01*
X319308Y22205D01*
X318920Y21817D01*
X318711Y21311D01*
Y20763D01*
X318920Y20256D01*
X319308Y19869D01*
X319815Y19659D01*
X320363D01*
X320869Y19869D01*
X321257Y20256D01*
X321467Y20763D01*
Y21311D01*
X321257Y21817D01*
X320869Y22205D01*
X320363Y22415D01*
D02*
G37*
G36*
X409841Y20433D02*
X409293D01*
X408786Y20223D01*
X408399Y19836D01*
X408189Y19329D01*
Y18781D01*
X408399Y18275D01*
X408786Y17887D01*
X409293Y17677D01*
X409841D01*
X410348Y17887D01*
X410735Y18275D01*
X410945Y18781D01*
Y19329D01*
X410735Y19836D01*
X410348Y20223D01*
X409841Y20433D01*
D02*
G37*
G36*
X107411Y25167D02*
X99833D01*
Y17589D01*
X107411D01*
Y25167D01*
D02*
G37*
G36*
X365550Y20157D02*
X365002D01*
X364495Y19948D01*
X364107Y19560D01*
X363898Y19054D01*
Y18505D01*
X364107Y17999D01*
X364495Y17611D01*
X365002Y17402D01*
X365550D01*
X366056Y17611D01*
X366444Y17999D01*
X366653Y18505D01*
Y19054D01*
X366444Y19560D01*
X366056Y19948D01*
X365550Y20157D01*
D02*
G37*
G36*
X329867Y19541D02*
X329319D01*
X328813Y19331D01*
X328425Y18943D01*
X328215Y18437D01*
Y17888D01*
X328425Y17382D01*
X328813Y16994D01*
X329319Y16785D01*
X329867D01*
X330374Y16994D01*
X330762Y17382D01*
X330971Y17888D01*
Y18437D01*
X330762Y18943D01*
X330374Y19331D01*
X329867Y19541D01*
D02*
G37*
G36*
X290864Y20591D02*
X290002D01*
X289207Y20261D01*
X288597Y19652D01*
X288268Y18856D01*
Y17995D01*
X288597Y17199D01*
X289207Y16590D01*
X290002Y16260D01*
X290864D01*
X291660Y16590D01*
X292269Y17199D01*
X292599Y17995D01*
Y18856D01*
X292269Y19652D01*
X291660Y20261D01*
X290864Y20591D01*
D02*
G37*
G36*
X277793D02*
X276931D01*
X276136Y20261D01*
X275526Y19652D01*
X275197Y18856D01*
Y17995D01*
X275526Y17199D01*
X276136Y16590D01*
X276931Y16260D01*
X277793D01*
X278589Y16590D01*
X279198Y17199D01*
X279527Y17995D01*
Y18856D01*
X279198Y19652D01*
X278589Y20261D01*
X277793Y20591D01*
D02*
G37*
G36*
X339565Y15984D02*
X339017D01*
X338511Y15775D01*
X338123Y15387D01*
X337913Y14880D01*
Y14332D01*
X338123Y13826D01*
X338511Y13438D01*
X339017Y13228D01*
X339565D01*
X340072Y13438D01*
X340459Y13826D01*
X340669Y14332D01*
Y14880D01*
X340459Y15387D01*
X340072Y15775D01*
X339565Y15984D01*
D02*
G37*
G36*
X432557Y15276D02*
X432009D01*
X431503Y15066D01*
X431115Y14678D01*
X430905Y14172D01*
Y13624D01*
X431115Y13117D01*
X431503Y12730D01*
X432009Y12520D01*
X432557D01*
X433064Y12730D01*
X433452Y13117D01*
X433661Y13624D01*
Y14172D01*
X433452Y14678D01*
X433064Y15066D01*
X432557Y15276D01*
D02*
G37*
G36*
X347243Y20433D02*
X346694D01*
X346188Y20223D01*
X346023Y20059D01*
X336063D01*
X335679Y19982D01*
X335353Y19765D01*
X328010Y12421D01*
X126479D01*
X120000Y18900D01*
Y19132D01*
X119790Y19639D01*
X119403Y20026D01*
X118896Y20236D01*
X118348D01*
X117841Y20026D01*
X117454Y19639D01*
X117244Y19132D01*
Y18584D01*
X117454Y18078D01*
X117841Y17690D01*
X118348Y17480D01*
X118581D01*
X125353Y10708D01*
X125679Y10490D01*
X126063Y10414D01*
X138757D01*
X139035Y9998D01*
X138937Y9761D01*
Y8900D01*
X139267Y8104D01*
X139876Y7495D01*
X140672Y7165D01*
X141533D01*
X142329Y7495D01*
X142938Y8104D01*
X143268Y8900D01*
Y9761D01*
X143170Y9998D01*
X143447Y10414D01*
X328425D01*
X328809Y10490D01*
X329135Y10708D01*
X336479Y18052D01*
X346023D01*
X346188Y17887D01*
X346694Y17677D01*
X347243D01*
X347749Y17887D01*
X348137Y18275D01*
X348346Y18781D01*
Y19329D01*
X348137Y19836D01*
X347749Y20223D01*
X347243Y20433D01*
D02*
G37*
G36*
X528113Y17723D02*
X527002D01*
X525929Y17435D01*
X524967Y16880D01*
X524181Y16094D01*
X523626Y15132D01*
X523338Y14059D01*
Y12949D01*
X523626Y11876D01*
X524181Y10914D01*
X524967Y10128D01*
X525929Y9573D01*
X527002Y9285D01*
X528113D01*
X529185Y9573D01*
X530148Y10128D01*
X530933Y10914D01*
X531488Y11876D01*
X531776Y12949D01*
Y14059D01*
X531488Y15132D01*
X530933Y16094D01*
X530148Y16880D01*
X529185Y17435D01*
X528113Y17723D01*
D02*
G37*
%LPD*%
G36*
X410778Y330012D02*
X410771Y329975D01*
X410498Y329792D01*
X406293Y325588D01*
X281458D01*
X281202Y326088D01*
X281339Y326419D01*
Y326967D01*
X281129Y327473D01*
X280741Y327861D01*
X280538Y327945D01*
X280637Y328445D01*
X311198D01*
X311732Y327911D01*
Y327679D01*
X311942Y327172D01*
X312330Y326785D01*
X312836Y326575D01*
X313384D01*
X313891Y326785D01*
X314278Y327172D01*
X314488Y327679D01*
Y328227D01*
X314278Y328733D01*
X313891Y329121D01*
X313384Y329331D01*
X313152D01*
X312507Y329975D01*
X312715Y330475D01*
X410651Y330475D01*
X410778Y330012D01*
D02*
G37*
G36*
X279383Y327945D02*
X279180Y327861D01*
X278793Y327473D01*
X278583Y326967D01*
Y326419D01*
X278720Y326088D01*
X278463Y325588D01*
X240177D01*
X239831Y325519D01*
X239539Y325324D01*
X226169Y311954D01*
X225769Y312261D01*
X225967Y312603D01*
X226181Y313404D01*
Y314234D01*
X225967Y315035D01*
X225552Y315753D01*
X224965Y316339D01*
X224716Y316483D01*
Y317060D01*
X224965Y317204D01*
X225552Y317790D01*
X225967Y318509D01*
X226181Y319310D01*
Y320139D01*
X225967Y320940D01*
X225552Y321658D01*
X225324Y321886D01*
X225322Y321983D01*
X225498Y322419D01*
X225699Y322459D01*
X226025Y322676D01*
X231794Y328445D01*
X279284D01*
X279383Y327945D01*
D02*
G37*
G36*
X244680Y321942D02*
X204755Y282017D01*
X204559Y281724D01*
X204491Y281378D01*
Y281326D01*
X203991Y281227D01*
X203963Y281292D01*
X203576Y281680D01*
X203069Y281890D01*
X202521D01*
X202015Y281680D01*
X201850Y281515D01*
X189331D01*
X188947Y281439D01*
X188621Y281221D01*
X185313Y277913D01*
X185080D01*
X184574Y277704D01*
X184186Y277316D01*
X183976Y276810D01*
Y276261D01*
X184186Y275755D01*
X184574Y275367D01*
X185080Y275157D01*
X185628D01*
X186135Y275367D01*
X186523Y275755D01*
X186732Y276261D01*
Y276494D01*
X189746Y279508D01*
X201850D01*
X202015Y279344D01*
X202521Y279134D01*
X203069D01*
X203576Y279344D01*
X203963Y279731D01*
X203991Y279797D01*
X204491Y279697D01*
Y273831D01*
X199822Y269162D01*
X199802D01*
X199725Y269239D01*
X199219Y269449D01*
X198671D01*
X198164Y269239D01*
X197777Y268851D01*
X197567Y268345D01*
Y267797D01*
X197777Y267290D01*
X198164Y266903D01*
X198671Y266693D01*
X198986D01*
X199290Y266546D01*
X199437Y266242D01*
Y265927D01*
X199578Y265586D01*
X199328Y265086D01*
X197679D01*
X197502Y265159D01*
X196954D01*
X196448Y264949D01*
X196060Y264562D01*
X195850Y264055D01*
Y263507D01*
X196060Y263001D01*
X196448Y262613D01*
X196954Y262403D01*
X197502D01*
X197679Y262477D01*
X203453D01*
X203953Y262576D01*
X204376Y262859D01*
X212537Y271020D01*
X212820Y271443D01*
X212919Y271942D01*
Y276571D01*
X213703Y277356D01*
X214183Y277315D01*
X214418Y276885D01*
X214191Y276491D01*
X213976Y275690D01*
Y274861D01*
X214191Y274060D01*
X214606Y273342D01*
X215192Y272755D01*
X215441Y272612D01*
Y272034D01*
X215192Y271890D01*
X214606Y271304D01*
X214191Y270586D01*
X213976Y269785D01*
Y268955D01*
X214191Y268155D01*
X214606Y267436D01*
X215192Y266850D01*
X215910Y266435D01*
X216711Y266221D01*
X217541D01*
X218342Y266435D01*
X219060Y266850D01*
X219646Y267436D01*
X219790Y267685D01*
X220367D01*
X220511Y267436D01*
X221098Y266850D01*
X221816Y266435D01*
X222617Y266221D01*
X223446D01*
X223856Y266331D01*
X224115Y265882D01*
X223651Y265418D01*
X216279D01*
X215779Y265319D01*
X215356Y265036D01*
X203767Y253446D01*
X203590Y253373D01*
X203202Y252985D01*
X203040Y252594D01*
X202530Y252397D01*
X172052Y282875D01*
X171727Y283092D01*
X171343Y283169D01*
X166487D01*
X166430Y283243D01*
X166675Y283742D01*
X202086D01*
X202432Y283811D01*
X202725Y284007D01*
X241122Y322404D01*
X244489D01*
X244680Y321942D01*
D02*
G37*
G36*
X235206Y276974D02*
X226519Y268287D01*
X226071Y268546D01*
X226181Y268955D01*
Y269785D01*
X225967Y270586D01*
X225552Y271304D01*
X224965Y271890D01*
X224716Y272034D01*
Y272612D01*
X224965Y272755D01*
X225552Y273342D01*
X225967Y274060D01*
X226181Y274861D01*
Y275690D01*
X225967Y276491D01*
X225710Y276936D01*
X225999Y277436D01*
X235015D01*
X235206Y276974D01*
D02*
G37*
G36*
X407987Y263830D02*
Y257479D01*
X407487Y257272D01*
X407355Y257403D01*
X407178Y257476D01*
X387681Y276974D01*
X387872Y277436D01*
X394381D01*
X407987Y263830D01*
D02*
G37*
G36*
X214144Y259427D02*
X213977Y258801D01*
Y257971D01*
X214191Y257170D01*
X214606Y256452D01*
X215192Y255866D01*
X215441Y255722D01*
Y255144D01*
X215192Y255001D01*
X214606Y254414D01*
X214191Y253696D01*
X213977Y252895D01*
Y252066D01*
X214191Y251265D01*
X214606Y250546D01*
X215184Y249968D01*
X215183Y249930D01*
X215044Y249468D01*
X210219D01*
X209528Y250159D01*
Y250392D01*
X209318Y250899D01*
X208930Y251286D01*
X208424Y251496D01*
X207875D01*
X207369Y251286D01*
X206981Y250899D01*
X206772Y250392D01*
Y249844D01*
X206981Y249338D01*
X207369Y248950D01*
X207875Y248740D01*
X208108D01*
X209085Y247763D01*
X209084Y247727D01*
X208929Y247263D01*
X207664D01*
X204562Y250365D01*
X204760Y250875D01*
X205151Y251037D01*
X205538Y251424D01*
X205612Y251601D01*
X213696Y259686D01*
X214144Y259427D01*
D02*
G37*
G36*
X347087Y238974D02*
Y238742D01*
X347296Y238235D01*
X347684Y237848D01*
X348190Y237638D01*
X348739D01*
X349245Y237848D01*
X349520Y238123D01*
X350020Y237963D01*
Y236835D01*
X349520Y236667D01*
X349475Y236713D01*
X348968Y236922D01*
X348420D01*
X347913Y236713D01*
X347526Y236325D01*
X347316Y235818D01*
Y235794D01*
X346816Y235587D01*
X340022Y242382D01*
X339696Y242599D01*
X339312Y242675D01*
X286457D01*
X286073Y242599D01*
X285747Y242382D01*
X283385Y240019D01*
X279325D01*
X279141Y240519D01*
X279449Y241262D01*
Y242124D01*
X279119Y242919D01*
X278857Y243181D01*
X279064Y243682D01*
X342380D01*
X347087Y238974D01*
D02*
G37*
%LPC*%
G36*
X195117Y278307D02*
X194569D01*
X194062Y278097D01*
X193674Y277710D01*
X193465Y277203D01*
Y276655D01*
X193674Y276149D01*
X194062Y275761D01*
X194569Y275551D01*
X195117D01*
X195623Y275761D01*
X196011Y276149D01*
X196221Y276655D01*
Y277203D01*
X196011Y277710D01*
X195623Y278097D01*
X195117Y278307D01*
D02*
G37*
G36*
X198739Y276575D02*
X198190D01*
X197684Y276365D01*
X197296Y275977D01*
X197087Y275471D01*
Y274923D01*
X197296Y274416D01*
X197684Y274029D01*
X198190Y273819D01*
X198739D01*
X199245Y274029D01*
X199633Y274416D01*
X199843Y274923D01*
Y275471D01*
X199633Y275977D01*
X199245Y276365D01*
X198739Y276575D01*
D02*
G37*
%LPD*%
G36*
X189379Y169822D02*
X189558Y169323D01*
X187695Y167460D01*
X169132D01*
X168924Y167960D01*
X169134Y168466D01*
Y168699D01*
X170258Y169823D01*
X189378D01*
X189379Y169822D01*
D02*
G37*
G36*
X514173Y230000D02*
Y174961D01*
X477992D01*
X464961Y187992D01*
X440276D01*
Y230039D01*
X514134D01*
X514173Y230000D01*
D02*
G37*
G36*
X325283Y135521D02*
X323128Y133366D01*
X293105D01*
X292851Y133866D01*
X293110Y134491D01*
Y135352D01*
X293005Y135605D01*
X293283Y136021D01*
X325076D01*
X325283Y135521D01*
D02*
G37*
G36*
X275262Y135605D02*
X275157Y135352D01*
Y134491D01*
X275416Y133866D01*
X275163Y133366D01*
X249290D01*
X247097Y135559D01*
X247289Y136021D01*
X274984D01*
X275262Y135605D01*
D02*
G37*
G36*
X349882Y132951D02*
Y132718D01*
X350092Y132212D01*
X350267Y132037D01*
X350252Y131975D01*
X350021Y131575D01*
X349608D01*
X349101Y131365D01*
X348937Y131200D01*
X341490D01*
X337170Y135521D01*
X337377Y136021D01*
X346812D01*
X349882Y132951D01*
D02*
G37*
G36*
X288908Y130859D02*
X288780Y130549D01*
Y129687D01*
X289109Y128892D01*
X289332Y128669D01*
X289125Y128169D01*
X279635D01*
X279358Y128585D01*
X279488Y128900D01*
Y129761D01*
X279158Y130557D01*
X278857Y130859D01*
X279064Y131359D01*
X288574D01*
X288908Y130859D01*
D02*
G37*
G36*
X477141Y174109D02*
X477531Y173848D01*
X477992Y173756D01*
X477992Y173756D01*
X514173D01*
X514477Y173507D01*
Y117362D01*
X482623D01*
X461226Y138760D01*
X440419Y138779D01*
Y186788D01*
X464462D01*
X477141Y174109D01*
D02*
G37*
G36*
X460726Y137556D02*
X481772Y116511D01*
X482163Y116250D01*
X482623Y116158D01*
X482623Y116158D01*
X514237D01*
X514390Y62008D01*
X514037Y61654D01*
X474073D01*
X462380Y73347D01*
X440175D01*
Y117656D01*
X456693D01*
X457499Y117817D01*
X458183Y118274D01*
X458640Y118957D01*
X458800Y119764D01*
X458640Y120570D01*
X458183Y121254D01*
X457499Y121711D01*
X456693Y121871D01*
X440175D01*
Y137114D01*
X440231Y137220D01*
X440675Y137575D01*
X460726Y137556D01*
D02*
G37*
G36*
X473221Y60802D02*
X473612Y60541D01*
X474073Y60449D01*
X474073Y60449D01*
X514037D01*
X514094Y59967D01*
Y6457D01*
X440158D01*
X440158Y72127D01*
X440175Y72142D01*
X461881D01*
X473221Y60802D01*
D02*
G37*
%LPC*%
G36*
X488216Y227408D02*
X486898D01*
X485625Y227067D01*
X484483Y226408D01*
X483551Y225475D01*
X482892Y224334D01*
X482551Y223061D01*
Y221743D01*
X482892Y220469D01*
X483551Y219328D01*
X484483Y218396D01*
X485625Y217737D01*
X486898Y217395D01*
X488216D01*
X489489Y217737D01*
X490631Y218396D01*
X491563Y219328D01*
X492222Y220469D01*
X492563Y221743D01*
Y223061D01*
X492222Y224334D01*
X491563Y225475D01*
X490631Y226408D01*
X489489Y227067D01*
X488216Y227408D01*
D02*
G37*
G36*
Y187408D02*
X486898D01*
X485625Y187067D01*
X484483Y186407D01*
X483551Y185475D01*
X482892Y184334D01*
X482551Y183061D01*
Y181743D01*
X482892Y180469D01*
X483551Y179328D01*
X484483Y178396D01*
X485625Y177737D01*
X486898Y177395D01*
X488216D01*
X489489Y177737D01*
X490631Y178396D01*
X491563Y179328D01*
X492222Y180469D01*
X492563Y181743D01*
Y183061D01*
X492222Y184334D01*
X491563Y185475D01*
X490631Y186407D01*
X489489Y187067D01*
X488216Y187408D01*
D02*
G37*
G36*
Y171108D02*
X486898D01*
X485625Y170767D01*
X484483Y170108D01*
X483551Y169176D01*
X482892Y168035D01*
X482551Y166762D01*
Y165443D01*
X482892Y164170D01*
X483551Y163029D01*
X484483Y162097D01*
X485625Y161437D01*
X486898Y161096D01*
X488216D01*
X489489Y161437D01*
X490631Y162097D01*
X491563Y163029D01*
X492222Y164170D01*
X492563Y165443D01*
Y166762D01*
X492222Y168035D01*
X491563Y169176D01*
X490631Y170108D01*
X489489Y170767D01*
X488216Y171108D01*
D02*
G37*
G36*
X444053Y151535D02*
X443191D01*
X442395Y151206D01*
X441786Y150597D01*
X441457Y149801D01*
Y148939D01*
X441786Y148143D01*
X442395Y147534D01*
X443191Y147205D01*
X444053D01*
X444849Y147534D01*
X445458Y148143D01*
X445787Y148939D01*
Y149801D01*
X445458Y150597D01*
X444849Y151206D01*
X444053Y151535D01*
D02*
G37*
G36*
X488216Y131108D02*
X486898D01*
X485625Y130767D01*
X484483Y130108D01*
X483551Y129176D01*
X482892Y128035D01*
X482551Y126761D01*
Y125443D01*
X482892Y124170D01*
X483551Y123029D01*
X484483Y122097D01*
X485625Y121438D01*
X486898Y121096D01*
X488216D01*
X489489Y121438D01*
X490631Y122097D01*
X491563Y123029D01*
X492222Y124170D01*
X492563Y125443D01*
Y126761D01*
X492222Y128035D01*
X491563Y129176D01*
X490631Y130108D01*
X489489Y130767D01*
X488216Y131108D01*
D02*
G37*
G36*
Y114809D02*
X486898D01*
X485625Y114468D01*
X484483Y113809D01*
X483551Y112877D01*
X482892Y111735D01*
X482551Y110462D01*
Y109144D01*
X482892Y107871D01*
X483551Y106729D01*
X484483Y105797D01*
X485625Y105138D01*
X486898Y104797D01*
X488216D01*
X489489Y105138D01*
X490631Y105797D01*
X491563Y106729D01*
X492222Y107871D01*
X492563Y109144D01*
Y110462D01*
X492222Y111735D01*
X491563Y112877D01*
X490631Y113809D01*
X489489Y114468D01*
X488216Y114809D01*
D02*
G37*
G36*
X444407Y89882D02*
X443546D01*
X442750Y89552D01*
X442141Y88943D01*
X441811Y88147D01*
Y87286D01*
X442141Y86490D01*
X442750Y85881D01*
X443546Y85551D01*
X444407D01*
X445203Y85881D01*
X445812Y86490D01*
X446142Y87286D01*
Y88147D01*
X445812Y88943D01*
X445203Y89552D01*
X444407Y89882D01*
D02*
G37*
G36*
X488216Y74809D02*
X486898D01*
X485625Y74468D01*
X484483Y73809D01*
X483551Y72877D01*
X482892Y71736D01*
X482551Y70462D01*
Y69144D01*
X482892Y67871D01*
X483551Y66729D01*
X484483Y65797D01*
X485625Y65138D01*
X486898Y64797D01*
X488216D01*
X489489Y65138D01*
X490631Y65797D01*
X491563Y66729D01*
X492222Y67871D01*
X492563Y69144D01*
Y70462D01*
X492222Y71736D01*
X491563Y72877D01*
X490631Y73809D01*
X489489Y74468D01*
X488216Y74809D01*
D02*
G37*
G36*
Y58510D02*
X486898D01*
X485625Y58169D01*
X484483Y57510D01*
X483551Y56578D01*
X482892Y55436D01*
X482551Y54163D01*
Y52845D01*
X482892Y51572D01*
X483551Y50430D01*
X484483Y49498D01*
X485625Y48839D01*
X486898Y48498D01*
X488216D01*
X489489Y48839D01*
X490631Y49498D01*
X491563Y50430D01*
X492222Y51572D01*
X492563Y52845D01*
Y54163D01*
X492222Y55436D01*
X491563Y56578D01*
X490631Y57510D01*
X489489Y58169D01*
X488216Y58510D01*
D02*
G37*
G36*
X444407Y28780D02*
X443546D01*
X442750Y28450D01*
X442141Y27841D01*
X441811Y27045D01*
Y26184D01*
X442141Y25388D01*
X442750Y24779D01*
X443546Y24449D01*
X444407D01*
X445203Y24779D01*
X445812Y25388D01*
X446142Y26184D01*
Y27045D01*
X445812Y27841D01*
X445203Y28450D01*
X444407Y28780D01*
D02*
G37*
G36*
X488216Y18510D02*
X486898D01*
X485625Y18169D01*
X484483Y17510D01*
X483551Y16578D01*
X482892Y15436D01*
X482551Y14163D01*
Y12845D01*
X482892Y11572D01*
X483551Y10430D01*
X484483Y9498D01*
X485625Y8839D01*
X486898Y8498D01*
X488216D01*
X489489Y8839D01*
X490631Y9498D01*
X491563Y10430D01*
X492222Y11572D01*
X492563Y12845D01*
Y14163D01*
X492222Y15436D01*
X491563Y16578D01*
X490631Y17510D01*
X489489Y18169D01*
X488216Y18510D01*
D02*
G37*
%LPD*%
D12*
X106065Y292598D02*
X144960D01*
X101709Y288242D02*
X106065Y292598D01*
X104252Y286969D02*
X108346Y291063D01*
X144547D01*
X104252Y286919D02*
Y286969D01*
X103760Y286427D02*
X104252Y286919D01*
X245945Y321929D02*
X439478D01*
X439930Y322382D01*
X440197D01*
X247244Y320512D02*
X440318D01*
X441348Y319481D01*
X441386D01*
X207520Y280787D02*
X247244Y320512D01*
X202086Y284646D02*
X240748Y323307D01*
X407238D01*
X240177Y324685D02*
X406668D01*
X407238Y323307D02*
X411569Y327638D01*
X406668Y324685D02*
X411136Y329154D01*
X201516Y286024D02*
X240177Y324685D01*
X402165Y70709D02*
X402188Y70686D01*
X416104Y72087D02*
X422049Y66141D01*
X389947Y72087D02*
X416104D01*
X414859Y70686D02*
X420179Y65366D01*
X402188Y70686D02*
X414859D01*
X200815Y266201D02*
X207520Y272906D01*
X198945Y268071D02*
X199133Y268259D01*
X205394Y273457D02*
Y281378D01*
X199133Y268259D02*
X200196D01*
X205394Y273457D01*
X231565Y65039D02*
X384848D01*
X384277Y66417D02*
X389947Y72087D01*
X232136Y66417D02*
X384277D01*
X384848Y65039D02*
X390517Y70709D01*
X229882Y68671D02*
X232136Y66417D01*
X229341Y67264D02*
X231565Y65039D01*
X442323Y331378D02*
X454646Y319055D01*
X442126Y331378D02*
X442323D01*
X230866Y331378D02*
X442126Y331378D01*
X224803Y325315D02*
X230866Y331378D01*
X206031Y325315D02*
X224803D01*
X198286Y319142D02*
X198297Y319131D01*
X197590Y319142D02*
X198286D01*
X198297Y319131D02*
X199847D01*
X197402Y319331D02*
X197590Y319142D01*
X199847Y319131D02*
X206031Y325315D01*
X444485Y332756D02*
X456316Y320925D01*
X230295Y332756D02*
X444485D01*
X224311Y326772D02*
X230295Y332756D01*
X204843Y326772D02*
X224311D01*
X199072Y321001D02*
X204843Y326772D01*
X420954Y63496D02*
X422049Y64592D01*
Y66141D01*
X419405Y63496D02*
X420954D01*
X418171Y64730D02*
X419405Y63496D01*
X160740Y68659D02*
X160751Y68671D01*
X229882D01*
X160044Y68659D02*
X160740D01*
X159856Y68471D02*
X160044Y68659D01*
X417275Y64730D02*
X418171D01*
X417087Y64918D02*
X417275Y64730D01*
X390517Y70709D02*
X402165D01*
X176574Y67264D02*
X229341D01*
X176111Y66801D02*
X176574Y67264D01*
X161526Y66801D02*
X176111D01*
X205394Y281378D02*
X245945Y321929D01*
X207520Y272906D02*
Y280787D01*
X426379Y327638D02*
X426734Y327283D01*
X411569Y327638D02*
X426379D01*
X426734Y327283D02*
X435039D01*
X411136Y329154D02*
X433369D01*
X150965Y284646D02*
X202086D01*
X144547Y291063D02*
X150965Y284646D01*
X151535Y286024D02*
X201516D01*
X145118Y292441D02*
X151535Y286024D01*
X144960Y292598D02*
X145118Y292441D01*
X145118D01*
X448963Y355728D02*
X449054Y355638D01*
X449750D01*
X236043Y355728D02*
X448963D01*
X449750Y355638D02*
X449938Y355450D01*
X231430Y351115D02*
X236043Y355728D01*
X192546Y351115D02*
X231430D01*
X189547Y354114D02*
X190355Y353307D01*
X189547Y354114D02*
X189547D01*
X190355Y353307D02*
X192546Y351115D01*
X190355Y353307D02*
Y353307D01*
X105412Y356476D02*
X187185D01*
X189547Y354114D01*
X101302Y352366D02*
X105412Y356476D01*
X342022Y354331D02*
X342573Y353780D01*
X236594Y354331D02*
X342022D01*
X342573Y353780D02*
X448268D01*
X177795Y354449D02*
X179508Y352736D01*
X106590Y354449D02*
X177795D01*
X188977Y352736D02*
X191975Y349737D01*
X179508Y352736D02*
X188977D01*
X232001Y349737D02*
X236594Y354331D01*
X191975Y349737D02*
X232001D01*
X104086Y351945D02*
X106590Y354449D01*
X86621Y360394D02*
X473386D01*
X81677Y355449D02*
X86621Y360394D01*
X87118Y358246D02*
X474370D01*
X82451Y353579D02*
X87118Y358246D01*
X80902Y353579D02*
X82451D01*
X79807Y354675D02*
Y354691D01*
X79173Y355324D02*
X79807Y354691D01*
Y354675D02*
X80902Y353579D01*
X79173Y355324D02*
Y355591D01*
D90*
X318976Y143937D02*
D03*
X457244Y34331D02*
D03*
X465118Y52047D02*
D03*
Y40236D02*
D03*
Y28425D02*
D03*
X457244Y40236D02*
D03*
Y52047D02*
D03*
X465118Y46142D02*
D03*
Y34331D02*
D03*
X457244Y57953D02*
D03*
X465118D02*
D03*
X457244Y28425D02*
D03*
Y46142D02*
D03*
X457244Y22520D02*
D03*
X465118D02*
D03*
X197244Y328386D02*
D03*
X157008Y234449D02*
D03*
X170118Y121102D02*
D03*
X389764Y222205D02*
D03*
X395669D02*
D03*
X401575Y216299D02*
D03*
X314567Y264409D02*
D03*
Y259291D02*
D03*
X319291D02*
D03*
Y264409D02*
D03*
X324016D02*
D03*
X324055Y259291D02*
D03*
Y254173D02*
D03*
X319291D02*
D03*
X323740Y143937D02*
D03*
Y149055D02*
D03*
X323701Y154173D02*
D03*
X318976D02*
D03*
Y149055D02*
D03*
X314252D02*
D03*
Y154173D02*
D03*
X313701Y51181D02*
D03*
Y46063D02*
D03*
X318425D02*
D03*
Y40945D02*
D03*
Y51181D02*
D03*
X464567Y197008D02*
D03*
X456693D02*
D03*
Y220630D02*
D03*
X464567Y226535D02*
D03*
X457244Y183071D02*
D03*
X457244Y147638D02*
D03*
X457283Y84331D02*
D03*
X457283Y119764D02*
D03*
X359252Y177992D02*
D03*
X462401Y308071D02*
D03*
Y302165D02*
D03*
X425197Y324783D02*
D03*
X419291D02*
D03*
X349252Y327716D02*
D03*
X384528Y327559D02*
D03*
X253780Y364173D02*
D03*
X247874D02*
D03*
X272402Y364488D02*
D03*
X389843Y363976D02*
D03*
X278307Y364488D02*
D03*
X178740Y185787D02*
D03*
X51693Y228622D02*
D03*
X51063Y144213D02*
D03*
X13150Y231063D02*
D03*
X202953Y215433D02*
D03*
X175591Y263819D02*
D03*
X105567Y120863D02*
D03*
X133307Y140669D02*
D03*
X193425Y83228D02*
D03*
X200709Y30551D02*
D03*
X92441Y8779D02*
D03*
X50236Y10984D02*
D03*
X133150Y303071D02*
D03*
X104184Y46954D02*
D03*
X234606Y265158D02*
D03*
X272402Y344291D02*
D03*
X278307D02*
D03*
X431063Y206450D02*
D03*
X69173Y206102D02*
D03*
X431063Y200544D02*
D03*
X25157Y140827D02*
D03*
X15315Y149685D02*
D03*
X40354Y110079D02*
D03*
X80197Y107205D02*
D03*
X82795Y228583D02*
D03*
X242323Y189173D02*
D03*
X86535Y342323D02*
D03*
X323150Y51181D02*
D03*
X323189Y40945D02*
D03*
Y46063D02*
D03*
X91457Y354213D02*
D03*
X101969Y33858D02*
D03*
X31220Y294291D02*
D03*
X194882Y378740D02*
D03*
X50669Y270433D02*
D03*
X81890Y370236D02*
D03*
X121693Y368819D02*
D03*
X431299Y54134D02*
D03*
Y48228D02*
D03*
X429134Y113189D02*
D03*
Y107283D02*
D03*
X417520Y343976D02*
D03*
X425512D02*
D03*
X440787D02*
D03*
X432795D02*
D03*
X400748Y343937D02*
D03*
X408740D02*
D03*
X368701Y380039D02*
D03*
X376693D02*
D03*
X391968D02*
D03*
X383976D02*
D03*
X416023Y380079D02*
D03*
X424016D02*
D03*
X486221Y373425D02*
D03*
Y379331D02*
D03*
X510630Y296417D02*
D03*
Y302323D02*
D03*
X523320Y341446D02*
D03*
Y347352D02*
D03*
X-12835Y233661D02*
D03*
X21379Y59827D02*
D03*
X-29410Y134488D02*
D03*
X389764Y198846D02*
D03*
X408740Y380079D02*
D03*
X400748D02*
D03*
X19094Y81142D02*
D03*
X9527Y329882D02*
D03*
X401575Y204488D02*
D03*
X395669Y210394D02*
D03*
Y204488D02*
D03*
X395932Y198845D02*
D03*
X401575Y198583D02*
D03*
X363189Y25394D02*
D03*
X357283D02*
D03*
Y31299D02*
D03*
X357126Y129861D02*
D03*
Y123956D02*
D03*
Y118050D02*
D03*
X359252Y185197D02*
D03*
Y191890D02*
D03*
X357323Y197795D02*
D03*
X390158Y341339D02*
D03*
X387126Y255354D02*
D03*
X368150D02*
D03*
Y237165D02*
D03*
X387126D02*
D03*
X465158Y119764D02*
D03*
X457283Y113858D02*
D03*
X465158D02*
D03*
X457283Y107953D02*
D03*
X465158D02*
D03*
X457283Y102047D02*
D03*
X465158D02*
D03*
X457283Y96142D02*
D03*
X465158D02*
D03*
Y90236D02*
D03*
X457283D02*
D03*
X465158Y84331D02*
D03*
X464567Y220630D02*
D03*
X465118Y147638D02*
D03*
X457244Y153543D02*
D03*
X465118D02*
D03*
Y159449D02*
D03*
X457244D02*
D03*
X465118Y165354D02*
D03*
X457244D02*
D03*
X465118Y171260D02*
D03*
X457244D02*
D03*
X465118Y177165D02*
D03*
X457244D02*
D03*
X465118Y183071D02*
D03*
X389764Y210394D02*
D03*
Y204488D02*
D03*
X401575Y222205D02*
D03*
Y210394D02*
D03*
X456693Y214724D02*
D03*
Y202913D02*
D03*
Y208819D02*
D03*
Y191102D02*
D03*
X395669Y216299D02*
D03*
X464567Y202913D02*
D03*
Y214724D02*
D03*
X389764Y216299D02*
D03*
X456693Y226535D02*
D03*
X464567Y208819D02*
D03*
Y191102D02*
D03*
D92*
X246440Y137024D02*
X347228D01*
X351260Y132992D01*
X242558Y140905D02*
X246440Y137024D01*
X247559Y34134D02*
X323187D01*
X334368Y22953D01*
X347401D01*
X230787Y50906D02*
X247559Y34134D01*
X328425Y11417D02*
X336063Y19055D01*
X118622Y18858D02*
X126063Y11417D01*
X328425D01*
X241962Y310387D02*
X242518D01*
X241811Y310236D02*
X241962Y310387D01*
X242518D02*
X242663Y310532D01*
X323014D01*
X325050Y312567D02*
Y313355D01*
X295950Y304685D02*
X325157D01*
X294533Y306102D02*
X295950Y304685D01*
X248875Y132362D02*
X323543D01*
X244025Y137212D02*
X248875Y132362D01*
X323543D02*
X326260Y135079D01*
X336193D01*
X242355Y137212D02*
X244025D01*
X242205Y137362D02*
X242355Y137212D01*
X246140Y54528D02*
X246353D01*
X246983Y53898D01*
X264291D01*
X269606Y48583D01*
X274724D01*
X269370Y52008D02*
X275512D01*
X265433Y55945D02*
X269370Y52008D01*
X250433Y55945D02*
X265433D01*
X319449Y104230D02*
Y109582D01*
X263847Y112284D02*
X316747D01*
X319449Y109582D01*
X317441Y103858D02*
Y108110D01*
X314843Y110709D02*
X317441Y108110D01*
X265276Y110709D02*
X314843D01*
X315512Y103133D02*
Y107126D01*
X266850Y109134D02*
X313504D01*
X315512Y107126D01*
X247244Y89528D02*
X266850Y109134D01*
X247507Y92940D02*
X265276Y110709D01*
X246642Y95079D02*
X263847Y112284D01*
X215466Y92940D02*
X247507D01*
X127362Y95079D02*
X246642D01*
X208189Y89528D02*
X247244D01*
X317441Y103858D02*
X323727Y97572D01*
X325984Y96262D02*
X326197D01*
X324673Y97572D02*
X325984Y96262D01*
X323727Y97572D02*
X324673D01*
X319449Y104230D02*
X324532Y99147D01*
X326267D02*
X326417Y98996D01*
X324532Y99147D02*
X326267D01*
X315512Y103133D02*
X325574Y93071D01*
X325787D01*
X117362Y85079D02*
X127362Y95079D01*
X416538Y271834D02*
X443323D01*
X325828Y202126D02*
X325864Y202090D01*
X311428Y202126D02*
X325828D01*
X312244Y204449D02*
X325983D01*
X307047Y209646D02*
X312244Y204449D01*
X286929Y209646D02*
X307047D01*
X236221Y140905D02*
X242558D01*
X336193Y135079D02*
X341075Y130197D01*
X349882D01*
X412650Y267946D02*
X416538Y271834D01*
X311614Y329449D02*
X313110Y327953D01*
X231378Y329449D02*
X311614D01*
X225315Y323386D02*
X231378Y329449D01*
X41535Y174331D02*
X75543D01*
X76605Y175394D01*
X206078Y321247D02*
X208217Y323386D01*
X225315D01*
X323014Y310532D02*
X325050Y312567D01*
X87677Y209331D02*
X87717Y209291D01*
X134752D01*
X76605Y175394D02*
X160728D01*
X102228Y170591D02*
X103015Y169803D01*
X-26299Y170591D02*
X102228D01*
X103015Y169803D02*
X103228D01*
X-35157Y179449D02*
X-26299Y170591D01*
X166220Y166457D02*
X188110D01*
X164921Y167756D02*
X166220Y166457D01*
X188110D02*
X190394Y168740D01*
X217399D02*
X217596Y168543D01*
X190394Y168740D02*
X217399D01*
X217596Y168543D02*
X240709D01*
X185354Y276535D02*
X189331Y280512D01*
X202795D01*
X194145Y303661D02*
X212744D01*
X192610Y305197D02*
X194145Y303661D01*
X181614Y305197D02*
X192610D01*
X160728Y175394D02*
X162441D01*
X184488Y55551D02*
Y56047D01*
X182835Y57700D02*
Y57913D01*
Y57700D02*
X184488Y56047D01*
X231282Y55551D02*
X242739Y44094D01*
X254921D01*
X184488Y55551D02*
X231282D01*
X164016Y52992D02*
X231614D01*
X137165Y50906D02*
X230787D01*
X248898Y35709D02*
X340118D01*
X231614Y52992D02*
X248898Y35709D01*
X-34016Y265905D02*
X-118D01*
X-38425Y261496D02*
X-34016Y265905D01*
X209803Y248465D02*
X245866D01*
X259606Y262205D01*
X208150Y250118D02*
X209803Y248465D01*
X360000Y203740D02*
X363465Y200276D01*
X352087Y203740D02*
X360000D01*
X132205Y45945D02*
X137165Y50906D01*
X205413Y197933D02*
X211221Y203740D01*
X117717Y198425D02*
X136882D01*
X137374Y197933D01*
X205413D01*
X209513Y127165D02*
X351732D01*
X186969Y147795D02*
X191335Y152162D01*
X198740D01*
X283801Y239016D02*
X286457Y241672D01*
X131535Y239016D02*
X283801D01*
X121142Y249410D02*
X131535Y239016D01*
X286457Y241672D02*
X339312D01*
X348504Y232480D01*
X236535Y303346D02*
X239291Y306102D01*
X294533D01*
X171343Y282165D02*
X207248Y246260D01*
X344004D01*
X350482Y235544D02*
X351024Y236086D01*
Y239241D01*
X348694Y235544D02*
X350482D01*
X344004Y246260D02*
X351024Y239241D01*
X206150Y244685D02*
X342795D01*
X348465Y239016D01*
X175520Y275315D02*
X206150Y244685D01*
X165118Y282165D02*
X171343D01*
X165236Y275315D02*
X175520D01*
X211221Y203740D02*
X284173D01*
X287008Y200905D01*
X313099Y198228D02*
X325709D01*
X306012Y205315D02*
X313099Y198228D01*
X177441Y207008D02*
X306546D01*
X311428Y202126D01*
X176575Y203543D02*
X178347Y205315D01*
X306012D01*
X172047Y212402D02*
X177441Y207008D01*
X137862Y212402D02*
X172047D01*
X134752Y209291D02*
X137862Y212402D01*
X112228Y221417D02*
X115453D01*
X111755Y220945D02*
X112228Y221417D01*
X25669Y220945D02*
X111755D01*
X169843Y170827D02*
X227716D01*
X167756Y168740D02*
X169843Y170827D01*
X164921Y167756D02*
Y172913D01*
X162441Y175394D02*
X164921Y172913D01*
X134685Y129764D02*
X206915D01*
X209513Y127165D01*
X130709Y133740D02*
X134685Y129764D01*
X336063Y19055D02*
X346969D01*
X340118Y35709D02*
X347244Y28583D01*
X185669Y340394D02*
X191387Y346111D01*
X193231D01*
X193923Y346803D01*
X202495D01*
X64331Y291299D02*
X68032Y295000D01*
X77795D01*
X66299Y166378D02*
X77402D01*
X63346Y163425D02*
X66299Y166378D01*
X67598Y40472D02*
X78543D01*
X63898Y36772D02*
X67598Y40472D01*
D93*
X236345Y149764D02*
X246660Y139449D01*
X416811D01*
X361260Y54921D02*
X388583Y27598D01*
X411024D02*
X418131Y34706D01*
X388583Y27598D02*
X411024D01*
X418131Y34706D02*
X427944D01*
X303110Y52559D02*
X305472Y54921D01*
X361260D01*
X285512Y52559D02*
X303110D01*
X255906Y107126D02*
X262992Y114213D01*
X334843D01*
X353819Y95236D01*
X382835D02*
X393425Y84646D01*
X418110D02*
X428071Y74685D01*
X393425Y84646D02*
X418110D01*
X203453Y263781D02*
X211614Y271942D01*
X197228Y263781D02*
X203453D01*
X211614Y271942D02*
Y277112D01*
X204370Y252205D02*
X216279Y264113D01*
X224191D01*
X236653Y276575D02*
X386235D01*
X406575Y256235D01*
X402087Y227559D02*
X418562Y211083D01*
X431985D01*
X211614Y277112D02*
X213243Y278740D01*
X394921D01*
X224191Y264113D02*
X236653Y276575D01*
X394921Y278740D02*
X409291Y264370D01*
X283701Y54370D02*
X285512Y52559D01*
X271234Y54370D02*
X283701D01*
X266274Y59331D02*
X271234Y54370D01*
X266220Y59331D02*
X266274D01*
X409291Y235433D02*
Y264370D01*
Y235433D02*
X427362Y217362D01*
X144286Y151279D02*
X183805D01*
X143819Y150866D02*
X143872D01*
X144286Y151279D01*
X183805D02*
X189140Y156614D01*
X353819Y95236D02*
X382835D01*
X353484Y219862D02*
X361181Y227559D01*
X318169Y219862D02*
X353484D01*
X312539Y225492D02*
X318169Y219862D01*
X143248Y225492D02*
X312539D01*
X134252Y234488D02*
X143248Y225492D01*
X361181Y227559D02*
X402087D01*
X416811Y139449D02*
X436496Y119764D01*
X456693D01*
X214488Y149764D02*
X236345D01*
X189140Y156614D02*
X207638D01*
X214488Y149764D01*
D98*
X502518Y146102D02*
D03*
Y202402D02*
D03*
Y89803D02*
D03*
Y33504D02*
D03*
D100*
X101709Y288242D02*
D03*
X103760Y286427D02*
D03*
X321239Y120514D02*
D03*
X440197Y322382D02*
D03*
X321654Y256732D02*
D03*
X316929D02*
D03*
X321654Y261850D02*
D03*
X316929D02*
D03*
X320669Y134409D02*
D03*
X353110Y290354D02*
D03*
Y295590D02*
D03*
X326417Y98996D02*
D03*
X326197Y96262D02*
D03*
X325787Y93071D02*
D03*
X355551Y92677D02*
D03*
X242205Y137362D02*
D03*
X316614Y151614D02*
D03*
X321339D02*
D03*
X316614Y146496D02*
D03*
X321339D02*
D03*
X353173Y82337D02*
D03*
X353173Y77101D02*
D03*
X186653Y126555D02*
D03*
X246140Y54528D02*
D03*
X260715Y51929D02*
D03*
X320787Y43504D02*
D03*
X316063D02*
D03*
X320787Y48622D02*
D03*
X316063D02*
D03*
X414213Y26496D02*
D03*
X321811Y13937D02*
D03*
X353465D02*
D03*
X255906Y107126D02*
D03*
X140394Y93110D02*
D03*
X155472D02*
D03*
X215466Y92940D02*
D03*
X149449Y97913D02*
D03*
X322716Y104961D02*
D03*
X197228Y263781D02*
D03*
X205630Y262402D02*
D03*
X200815Y266201D02*
D03*
X198945Y268071D02*
D03*
X204370Y252205D02*
D03*
X199528Y135709D02*
D03*
X196614Y24685D02*
D03*
X406575Y256235D02*
D03*
X396586Y269539D02*
D03*
X446378Y236929D02*
D03*
X432520Y10709D02*
D03*
X432126Y134016D02*
D03*
X434646Y149449D02*
D03*
X433189Y67598D02*
D03*
X428071Y74685D02*
D03*
X409606Y74606D02*
D03*
X443323Y271834D02*
D03*
X431985Y211083D02*
D03*
X441063Y249095D02*
D03*
X325864Y202090D02*
D03*
X325983Y204449D02*
D03*
X316457Y209528D02*
D03*
X348898Y209528D02*
D03*
X326181Y227047D02*
D03*
X275512Y52008D02*
D03*
X454646Y319055D02*
D03*
X197402Y319331D02*
D03*
X456316Y320925D02*
D03*
X199072Y321001D02*
D03*
X159856Y68471D02*
D03*
X417087Y64918D02*
D03*
X420179Y65366D02*
D03*
X161526Y66801D02*
D03*
X441386Y319481D02*
D03*
X313110Y327953D02*
D03*
X435039Y327283D02*
D03*
X433369Y329154D02*
D03*
X449938Y355450D02*
D03*
X101302Y352366D02*
D03*
X448268Y353780D02*
D03*
X104086Y351945D02*
D03*
X473386Y360394D02*
D03*
X81677Y355449D02*
D03*
X474370Y358246D02*
D03*
X79173Y355591D02*
D03*
X179961Y362264D02*
D03*
X124173D02*
D03*
X190039Y251102D02*
D03*
X139508Y201359D02*
D03*
X144311Y39536D02*
D03*
X206078Y321247D02*
D03*
X241811Y310236D02*
D03*
X435039Y26614D02*
D03*
X435315Y87756D02*
D03*
X97087Y49252D02*
D03*
X97913Y305748D02*
D03*
X96811Y178150D02*
D03*
X87677Y209331D02*
D03*
X103228Y169803D02*
D03*
X176142Y149016D02*
D03*
X175906Y164488D02*
D03*
X44724Y167362D02*
D03*
X179095Y278189D02*
D03*
X194488Y306102D02*
D03*
X181614Y305197D02*
D03*
X175236Y293701D02*
D03*
X185354Y276535D02*
D03*
X202795Y280512D02*
D03*
X212744Y303661D02*
D03*
X168937Y348543D02*
D03*
X169055Y342520D02*
D03*
X43819Y295394D02*
D03*
X102047Y314735D02*
D03*
X109291Y101654D02*
D03*
X-40354Y151024D02*
D03*
Y157441D02*
D03*
X182835Y57913D02*
D03*
X-118Y265905D02*
D03*
X208150Y250118D02*
D03*
X-38425Y261496D02*
D03*
X321181Y318189D02*
D03*
X363465Y200276D02*
D03*
X352087Y203740D02*
D03*
X352716Y105000D02*
D03*
X349606Y222402D02*
D03*
X134252Y234488D02*
D03*
X183425Y48537D02*
D03*
X132205Y45945D02*
D03*
X155472Y156890D02*
D03*
X115571Y165453D02*
D03*
X143819Y150866D02*
D03*
X138827Y156437D02*
D03*
X160728Y175394D02*
D03*
X145630Y203465D02*
D03*
X155512Y199901D02*
D03*
X139094Y261850D02*
D03*
X155551Y296417D02*
D03*
X409685Y136732D02*
D03*
X451653Y287244D02*
D03*
X427362Y217362D02*
D03*
X325050Y313355D02*
D03*
X121142Y249410D02*
D03*
X348504Y232480D02*
D03*
X117835Y254724D02*
D03*
X236535Y303346D02*
D03*
X325079Y304764D02*
D03*
X-40354Y207874D02*
D03*
X109291Y334252D02*
D03*
X139291Y324252D02*
D03*
X148307Y328583D02*
D03*
X148110Y265945D02*
D03*
X155472Y262402D02*
D03*
X-40354Y258307D02*
D03*
Y264528D02*
D03*
Y270748D02*
D03*
X348694Y235544D02*
D03*
X165236Y275315D02*
D03*
X348465Y239016D02*
D03*
X165118Y282165D02*
D03*
X145587Y279480D02*
D03*
X124528Y298819D02*
D03*
X110000Y272677D02*
D03*
X-40354Y201575D02*
D03*
X32559Y209685D02*
D03*
X286929Y209646D02*
D03*
X287008Y200905D02*
D03*
X172047Y212402D02*
D03*
X117717Y198425D02*
D03*
X113307Y207126D02*
D03*
X110433Y212008D02*
D03*
X176575Y203543D02*
D03*
X325709Y198228D02*
D03*
X123779Y238661D02*
D03*
X115453Y221417D02*
D03*
X145394Y231575D02*
D03*
X-35157Y179449D02*
D03*
X-40354Y170079D02*
D03*
Y176339D02*
D03*
X41535Y174331D02*
D03*
X240709Y168543D02*
D03*
X227716Y170827D02*
D03*
X236221Y140905D02*
D03*
X167756Y168740D02*
D03*
X259134Y155709D02*
D03*
X187044Y147613D02*
D03*
X349882Y130197D02*
D03*
X351260Y132992D02*
D03*
X122283Y192677D02*
D03*
X152638Y163976D02*
D03*
X198891Y152012D02*
D03*
X113307Y144488D02*
D03*
X130709Y133740D02*
D03*
X351732Y127165D02*
D03*
X113071Y94410D02*
D03*
X117362Y85079D02*
D03*
X208189Y89528D02*
D03*
X146299Y121653D02*
D03*
X-6181Y193543D02*
D03*
X130512Y125118D02*
D03*
X190118Y8819D02*
D03*
X190118Y65394D02*
D03*
X250433Y55945D02*
D03*
X274724Y48583D02*
D03*
X-40354Y245669D02*
D03*
X25669Y220945D02*
D03*
X144449Y66732D02*
D03*
X-40354Y183189D02*
D03*
Y163858D02*
D03*
X266220Y59331D02*
D03*
X409685Y13780D02*
D03*
X35709Y182047D02*
D03*
X27244Y186063D02*
D03*
X113189Y28150D02*
D03*
X118622Y18858D02*
D03*
X346969Y19055D02*
D03*
X254921Y44094D02*
D03*
X125474Y178701D02*
D03*
X347401Y22953D02*
D03*
X347244Y28583D02*
D03*
X164016Y52992D02*
D03*
X124055Y76535D02*
D03*
X124331Y57756D02*
D03*
X194764Y184528D02*
D03*
X155478Y35344D02*
D03*
X353425Y318189D02*
D03*
X351496Y306063D02*
D03*
X259606Y262205D02*
D03*
X264016Y265945D02*
D03*
X322087Y239134D02*
D03*
X320209Y26496D02*
D03*
X185669Y340394D02*
D03*
X202495Y346803D02*
D03*
X414213Y149724D02*
D03*
X413779Y87717D02*
D03*
X427944Y34706D02*
D03*
X64331Y291299D02*
D03*
X77795Y295000D02*
D03*
X125709Y310787D02*
D03*
X28898Y381247D02*
D03*
X20945D02*
D03*
X36732D02*
D03*
X-40354Y214173D02*
D03*
Y220551D02*
D03*
Y226693D02*
D03*
Y233071D02*
D03*
Y239252D02*
D03*
Y251890D02*
D03*
Y277087D02*
D03*
Y280236D02*
D03*
Y141811D02*
D03*
Y132244D02*
D03*
Y116496D02*
D03*
X458701Y273071D02*
D03*
X63346Y163425D02*
D03*
X77402Y166378D02*
D03*
X102520Y186575D02*
D03*
X48661Y41102D02*
D03*
X102559Y60157D02*
D03*
X78543Y40472D02*
D03*
X63898Y36772D02*
D03*
X412650Y267946D02*
D03*
M02*
