G04*
G04 #@! TF.GenerationSoftware,Altium Limited,Altium Designer,22.10.1 (41)*
G04*
G04 Layer_Color=128*
%FSLAX25Y25*%
%MOIN*%
G70*
G04*
G04 #@! TF.SameCoordinates,0BB99238-86FF-4950-987D-53966723C9E6*
G04*
G04*
G04 #@! TF.FilePolarity,Positive*
G04*
G01*
G75*
%ADD18R,0.03543X0.02756*%
%ADD21R,0.02756X0.03543*%
%ADD34R,0.05315X0.06102*%
%ADD35R,0.12008X0.02402*%
%ADD37R,0.03347X0.03740*%
%ADD38R,0.03740X0.03347*%
%ADD41R,0.06102X0.05315*%
%ADD44R,0.11024X0.02165*%
%ADD46R,0.06890X0.02362*%
%ADD101R,0.23622X0.09843*%
%ADD102R,0.11024X0.08661*%
G36*
X549547Y291693D02*
X534232D01*
Y301535D01*
X536647D01*
X536647Y301535D01*
X537148Y300974D01*
X538322Y300037D01*
X539674Y299385D01*
X541139Y299050D01*
X542640D01*
X544105Y299385D01*
X545458Y300037D01*
X546631Y300974D01*
X547132Y301535D01*
X549547Y301535D01*
Y291693D01*
D02*
G37*
G36*
Y359882D02*
X547132D01*
X546631Y360443D01*
X545458Y361380D01*
X544105Y362033D01*
X542640Y362367D01*
X541139D01*
X539674Y362033D01*
X538322Y361380D01*
X537148Y360443D01*
X536647Y359882D01*
X534232D01*
Y369724D01*
X549547D01*
Y359882D01*
D02*
G37*
D18*
X200984Y260787D02*
D03*
Y255276D02*
D03*
X202323Y133071D02*
D03*
Y127559D02*
D03*
X193189Y24701D02*
D03*
Y30213D02*
D03*
X179410Y288268D02*
D03*
Y293780D02*
D03*
X179842Y352913D02*
D03*
Y358425D02*
D03*
X180157Y159016D02*
D03*
Y164527D02*
D03*
X92402Y178150D02*
D03*
Y172638D02*
D03*
X93189Y305787D02*
D03*
Y300276D02*
D03*
X92362Y51417D02*
D03*
Y45906D02*
D03*
X178976Y48622D02*
D03*
Y43110D02*
D03*
X142047Y48937D02*
D03*
Y43425D02*
D03*
D21*
X180472Y282520D02*
D03*
X174961D02*
D03*
X210362Y272815D02*
D03*
X204850D02*
D03*
X186150D02*
D03*
X191661D02*
D03*
X178740Y348425D02*
D03*
X173228D02*
D03*
X192205Y336496D02*
D03*
X186693D02*
D03*
X209567D02*
D03*
X204055D02*
D03*
X179921Y153543D02*
D03*
X174409D02*
D03*
X210118Y143976D02*
D03*
X204606D02*
D03*
X185906D02*
D03*
X191417D02*
D03*
X87047Y159252D02*
D03*
X81535D02*
D03*
X68150D02*
D03*
X62638D02*
D03*
X49055Y167323D02*
D03*
X54567D02*
D03*
X86457Y287126D02*
D03*
X80945D02*
D03*
X67559D02*
D03*
X62047D02*
D03*
X48465Y295276D02*
D03*
X53976D02*
D03*
X67795Y32756D02*
D03*
X62283D02*
D03*
X86693D02*
D03*
X81181D02*
D03*
X48701Y45551D02*
D03*
X54212D02*
D03*
X153740Y30724D02*
D03*
X148228D02*
D03*
X166929D02*
D03*
X172441D02*
D03*
D34*
X231870Y364676D02*
D03*
X239744D02*
D03*
D35*
X502598Y344764D02*
D03*
Y340748D02*
D03*
Y336732D02*
D03*
Y332716D02*
D03*
Y328701D02*
D03*
Y324685D02*
D03*
Y320669D02*
D03*
Y316653D02*
D03*
D37*
X191464Y266909D02*
D03*
X186346D02*
D03*
X205047D02*
D03*
X210165D02*
D03*
X186346Y259823D02*
D03*
X191464D02*
D03*
X522086Y377953D02*
D03*
X527205D02*
D03*
X186890Y330591D02*
D03*
X192008D02*
D03*
X204252D02*
D03*
X209370D02*
D03*
X178543Y342520D02*
D03*
X173425D02*
D03*
X216575Y344685D02*
D03*
X221693D02*
D03*
X230866Y373661D02*
D03*
X235984D02*
D03*
Y380787D02*
D03*
X230866D02*
D03*
X97480Y295118D02*
D03*
X92362D02*
D03*
X98071Y167244D02*
D03*
X92953D02*
D03*
X92598Y40748D02*
D03*
X97716D02*
D03*
X191220Y138071D02*
D03*
X186102D02*
D03*
X204803D02*
D03*
X209921D02*
D03*
X186102Y130984D02*
D03*
X191220D02*
D03*
X86850Y146378D02*
D03*
X81732D02*
D03*
Y153346D02*
D03*
X86850D02*
D03*
X62835D02*
D03*
X67953D02*
D03*
X86260Y274252D02*
D03*
X81142D02*
D03*
Y281220D02*
D03*
X86260D02*
D03*
X62244D02*
D03*
X67362D02*
D03*
X62480Y26850D02*
D03*
X67598D02*
D03*
X86496Y19882D02*
D03*
X81378D02*
D03*
Y26850D02*
D03*
X86496D02*
D03*
X153543Y17732D02*
D03*
X148425D02*
D03*
Y24819D02*
D03*
X153543D02*
D03*
X172244D02*
D03*
X167126D02*
D03*
D38*
X64252Y318031D02*
D03*
Y323150D02*
D03*
X84252Y318031D02*
D03*
Y323150D02*
D03*
X64488Y68780D02*
D03*
Y63661D02*
D03*
X84488Y68780D02*
D03*
Y63661D02*
D03*
X84842Y190157D02*
D03*
Y195276D02*
D03*
X64842Y190157D02*
D03*
Y195276D02*
D03*
X188236Y309390D02*
D03*
Y304272D02*
D03*
X208315Y309390D02*
D03*
Y304272D02*
D03*
X210197Y260433D02*
D03*
Y255315D02*
D03*
X187677Y372520D02*
D03*
Y367402D02*
D03*
X207795Y372520D02*
D03*
Y367402D02*
D03*
X186338Y24898D02*
D03*
Y30016D02*
D03*
X187992Y180551D02*
D03*
Y175433D02*
D03*
X208071Y180551D02*
D03*
Y175433D02*
D03*
X209882Y132874D02*
D03*
Y127756D02*
D03*
X120905Y177598D02*
D03*
Y182717D02*
D03*
Y162205D02*
D03*
Y167323D02*
D03*
X120315Y305472D02*
D03*
Y310591D02*
D03*
Y290079D02*
D03*
Y295197D02*
D03*
X120551Y35709D02*
D03*
Y40827D02*
D03*
Y51102D02*
D03*
Y56220D02*
D03*
X150315Y62181D02*
D03*
Y67299D02*
D03*
X170394Y62181D02*
D03*
Y67299D02*
D03*
D41*
X221668Y354449D02*
D03*
Y362323D02*
D03*
X109960Y159370D02*
D03*
Y167244D02*
D03*
X109370Y287244D02*
D03*
Y295118D02*
D03*
X109606Y32874D02*
D03*
Y40748D02*
D03*
Y60118D02*
D03*
Y52244D02*
D03*
X109961Y178740D02*
D03*
Y186614D02*
D03*
X109370Y306614D02*
D03*
Y314488D02*
D03*
D44*
X-48976Y280280D02*
D03*
Y277130D02*
D03*
Y273980D02*
D03*
Y270831D02*
D03*
Y267681D02*
D03*
Y264531D02*
D03*
Y261382D02*
D03*
Y258232D02*
D03*
Y255083D02*
D03*
Y251933D02*
D03*
Y248783D02*
D03*
Y245634D02*
D03*
Y242484D02*
D03*
Y239335D02*
D03*
Y236185D02*
D03*
Y233035D02*
D03*
Y229886D02*
D03*
Y226736D02*
D03*
Y223587D02*
D03*
Y220437D02*
D03*
Y217287D02*
D03*
Y214138D02*
D03*
Y210988D02*
D03*
Y207839D02*
D03*
Y204689D02*
D03*
Y201539D02*
D03*
Y198390D02*
D03*
Y182642D02*
D03*
Y179492D02*
D03*
Y176343D02*
D03*
Y173193D02*
D03*
Y170043D02*
D03*
Y166894D02*
D03*
Y163744D02*
D03*
Y160594D02*
D03*
Y157445D02*
D03*
Y154295D02*
D03*
Y151146D02*
D03*
Y147996D02*
D03*
Y144846D02*
D03*
Y141697D02*
D03*
Y138547D02*
D03*
Y135398D02*
D03*
Y132248D02*
D03*
Y129098D02*
D03*
Y125949D02*
D03*
Y122799D02*
D03*
Y119650D02*
D03*
Y116500D02*
D03*
Y113350D02*
D03*
D46*
X208315Y280512D02*
D03*
Y285512D02*
D03*
Y290512D02*
D03*
Y295512D02*
D03*
X188236D02*
D03*
Y290512D02*
D03*
Y285512D02*
D03*
Y280512D02*
D03*
X187756Y344705D02*
D03*
Y349705D02*
D03*
Y354705D02*
D03*
Y359705D02*
D03*
X207835D02*
D03*
Y354705D02*
D03*
Y349705D02*
D03*
Y344705D02*
D03*
X208071Y151673D02*
D03*
Y156673D02*
D03*
Y161673D02*
D03*
Y166673D02*
D03*
X187992D02*
D03*
Y161673D02*
D03*
Y156673D02*
D03*
Y151673D02*
D03*
X64842Y167165D02*
D03*
Y172165D02*
D03*
Y177165D02*
D03*
Y182165D02*
D03*
X84921D02*
D03*
Y177165D02*
D03*
Y172165D02*
D03*
Y167165D02*
D03*
X64252Y295039D02*
D03*
Y300039D02*
D03*
Y305039D02*
D03*
Y310039D02*
D03*
X84331D02*
D03*
Y305039D02*
D03*
Y300039D02*
D03*
Y295039D02*
D03*
X64488Y40669D02*
D03*
Y45669D02*
D03*
Y50669D02*
D03*
Y55669D02*
D03*
X84567D02*
D03*
Y50669D02*
D03*
Y45669D02*
D03*
Y40669D02*
D03*
X150315Y38421D02*
D03*
Y43421D02*
D03*
Y48421D02*
D03*
Y53421D02*
D03*
X170394D02*
D03*
Y48421D02*
D03*
Y43421D02*
D03*
Y38421D02*
D03*
D101*
X337795Y246063D02*
D03*
X376772D02*
D03*
X301969Y354331D02*
D03*
X262992D02*
D03*
X301969Y246063D02*
D03*
X262992D02*
D03*
X337795Y123228D02*
D03*
X376772D02*
D03*
X337795Y354331D02*
D03*
X376772D02*
D03*
X262992Y36614D02*
D03*
X301969D02*
D03*
X262992Y123228D02*
D03*
X301969D02*
D03*
X262992Y184646D02*
D03*
X301969D02*
D03*
X376772D02*
D03*
X337795D02*
D03*
Y36614D02*
D03*
X376772D02*
D03*
D102*
X337795Y236811D02*
D03*
Y255315D02*
D03*
X376772Y236811D02*
D03*
Y255315D02*
D03*
X301969Y363583D02*
D03*
Y345079D02*
D03*
X262992Y363583D02*
D03*
Y345079D02*
D03*
X301969Y255315D02*
D03*
Y236811D02*
D03*
X262992Y255315D02*
D03*
Y236811D02*
D03*
X337795Y113976D02*
D03*
Y132480D02*
D03*
X376772Y113976D02*
D03*
Y132480D02*
D03*
X337795Y345079D02*
D03*
Y363583D02*
D03*
X376772Y345079D02*
D03*
Y363583D02*
D03*
X262992Y27362D02*
D03*
Y45866D02*
D03*
X301969Y27362D02*
D03*
Y45866D02*
D03*
X262992Y113976D02*
D03*
Y132480D02*
D03*
X301969Y113976D02*
D03*
Y132480D02*
D03*
X262992Y175394D02*
D03*
Y193898D02*
D03*
X301969Y175394D02*
D03*
Y193898D02*
D03*
X376772D02*
D03*
Y175394D02*
D03*
X337795Y193898D02*
D03*
Y175394D02*
D03*
Y27362D02*
D03*
Y45866D02*
D03*
X376772Y27362D02*
D03*
Y45866D02*
D03*
M02*
