G04*
G04 #@! TF.GenerationSoftware,Altium Limited,Altium Designer,22.10.1 (41)*
G04*
G04 Layer_Color=8388736*
%FSLAX25Y25*%
%MOIN*%
G70*
G04*
G04 #@! TF.SameCoordinates,0BB99238-86FF-4950-987D-53966723C9E6*
G04*
G04*
G04 #@! TF.FilePolarity,Negative*
G04*
G01*
G75*
%ADD50R,0.03950X0.03950*%
%ADD51R,0.04343X0.03556*%
%ADD52R,0.04147X0.01981*%
%ADD53R,0.05524X0.07099*%
%ADD54R,0.03556X0.04343*%
%ADD55R,0.02769X0.02769*%
%ADD56R,0.05131X0.02769*%
%ADD57R,0.03950X0.03162*%
%ADD58R,0.15564X0.18162*%
%ADD59R,0.03162X0.13398*%
%ADD60R,0.03950X0.02178*%
%ADD61R,0.02769X0.02769*%
%ADD62R,0.02769X0.05131*%
%ADD63R,0.03162X0.03950*%
%ADD64R,0.18162X0.15564*%
%ADD65R,0.13398X0.03162*%
%ADD66C,0.04737*%
%ADD67R,0.04737X0.04737*%
%ADD68R,0.06115X0.06902*%
%ADD69R,0.12808X0.03202*%
%ADD70R,0.05524X0.03162*%
%ADD71R,0.04147X0.04540*%
%ADD72R,0.04540X0.04147*%
%ADD73R,0.05328X0.06115*%
%ADD74R,0.04934X0.02965*%
%ADD75R,0.06902X0.06115*%
%ADD76R,0.04737X0.09068*%
%ADD77R,0.07099X0.05524*%
%ADD78R,0.11417X0.02559*%
G04:AMPARAMS|DCode=79|XSize=55.64mil|YSize=79.65mil|CornerRadius=11.86mil|HoleSize=0mil|Usage=FLASHONLY|Rotation=90.000|XOffset=0mil|YOffset=0mil|HoleType=Round|Shape=RoundedRectangle|*
%AMROUNDEDRECTD79*
21,1,0.05564,0.05593,0,0,90.0*
21,1,0.03192,0.07965,0,0,90.0*
1,1,0.02372,0.02797,0.01596*
1,1,0.02372,0.02797,-0.01596*
1,1,0.02372,-0.02797,-0.01596*
1,1,0.02372,-0.02797,0.01596*
%
%ADD79ROUNDEDRECTD79*%
%ADD80R,0.07690X0.03162*%
%ADD81R,0.02670X0.01981*%
%ADD82R,0.06312X0.02572*%
%ADD83R,0.11627X0.25210*%
%ADD84C,0.22453*%
%ADD85C,0.13398*%
%ADD86C,0.08450*%
%ADD87C,0.14087*%
%ADD88R,0.07591X0.07591*%
%ADD89C,0.02769*%
G36*
X549600Y320240D02*
X549651Y320230D01*
X549701Y320213D01*
X549748Y320190D01*
X549791Y320161D01*
X549831Y320126D01*
X549865Y320087D01*
X549894Y320043D01*
X549918Y319996D01*
X549934Y319946D01*
X549945Y319895D01*
X549948Y319843D01*
Y310000D01*
X549945Y309948D01*
X549934Y309896D01*
X549918Y309847D01*
X549894Y309800D01*
X549865Y309756D01*
X549831Y309717D01*
X549791Y309682D01*
X549748Y309653D01*
X549701Y309630D01*
X549651Y309613D01*
X549600Y309603D01*
X549547Y309599D01*
X534232D01*
X534180Y309603D01*
X534129Y309613D01*
X534079Y309630D01*
X534032Y309653D01*
X533988Y309682D01*
X533949Y309717D01*
X533914Y309756D01*
X533885Y309800D01*
X533862Y309847D01*
X533845Y309896D01*
X533835Y309948D01*
X533831Y310000D01*
Y319843D01*
X533835Y319895D01*
X533845Y319946D01*
X533862Y319996D01*
X533885Y320043D01*
X533914Y320087D01*
X533949Y320126D01*
X533988Y320161D01*
X534032Y320190D01*
X534079Y320213D01*
X534129Y320230D01*
X534180Y320240D01*
X534232Y320243D01*
X536647D01*
X536659Y320243D01*
X536670Y320243D01*
X536685Y320241D01*
X536699Y320240D01*
X536711Y320238D01*
X536722Y320236D01*
X536736Y320233D01*
X536751Y320230D01*
X536762Y320226D01*
X536773Y320223D01*
X536786Y320218D01*
X536801Y320213D01*
X536811Y320208D01*
X536821Y320203D01*
X536834Y320196D01*
X536848Y320190D01*
X536857Y320183D01*
X536867Y320178D01*
X536879Y320169D01*
X536891Y320161D01*
X536900Y320153D01*
X536909Y320146D01*
X536919Y320136D01*
X536931Y320126D01*
X536931Y320126D01*
X536938Y320117D01*
X536946Y320109D01*
X537425Y319573D01*
X538536Y318686D01*
X539808Y318073D01*
X541184Y317758D01*
X542595D01*
X543971Y318073D01*
X545243Y318686D01*
X546355Y319573D01*
X546833Y320109D01*
X546841Y320117D01*
X546848Y320126D01*
X546860Y320136D01*
X546870Y320146D01*
X546879Y320153D01*
X546888Y320161D01*
X546900Y320169D01*
X546912Y320178D01*
X546922Y320183D01*
X546932Y320190D01*
X546945Y320196D01*
X546958Y320203D01*
X546968Y320208D01*
X546979Y320213D01*
X546993Y320218D01*
X547006Y320223D01*
X547017Y320226D01*
X547028Y320230D01*
X547043Y320233D01*
X547057Y320236D01*
X547068Y320238D01*
X547080Y320240D01*
X547094Y320241D01*
X547109Y320243D01*
X547121Y320243D01*
X547132Y320243D01*
X549547Y320243D01*
X549600Y320240D01*
D02*
G37*
G36*
Y388429D02*
X549651Y388419D01*
X549701Y388402D01*
X549748Y388379D01*
X549791Y388350D01*
X549831Y388315D01*
X549865Y388276D01*
X549894Y388232D01*
X549918Y388185D01*
X549934Y388135D01*
X549945Y388084D01*
X549948Y388032D01*
Y378189D01*
X549945Y378137D01*
X549934Y378085D01*
X549918Y378036D01*
X549894Y377989D01*
X549865Y377945D01*
X549831Y377906D01*
X549791Y377871D01*
X549748Y377842D01*
X549701Y377819D01*
X549651Y377802D01*
X549600Y377792D01*
X549547Y377788D01*
X547132D01*
X547121Y377789D01*
X547109Y377789D01*
X547094Y377791D01*
X547080Y377792D01*
X547068Y377794D01*
X547057Y377795D01*
X547043Y377799D01*
X547028Y377802D01*
X547017Y377805D01*
X547006Y377808D01*
X546993Y377814D01*
X546979Y377819D01*
X546968Y377824D01*
X546958Y377828D01*
X546945Y377835D01*
X546932Y377842D01*
X546922Y377848D01*
X546912Y377854D01*
X546900Y377863D01*
X546888Y377871D01*
X546879Y377878D01*
X546870Y377885D01*
X546860Y377896D01*
X546848Y377906D01*
X546841Y377914D01*
X546833Y377922D01*
X546355Y378458D01*
X545243Y379346D01*
X543971Y379959D01*
X542595Y380273D01*
X541184D01*
X539808Y379959D01*
X538536Y379346D01*
X537425Y378458D01*
X536946Y377922D01*
X536938Y377914D01*
X536931Y377906D01*
X536919Y377896D01*
X536909Y377885D01*
X536900Y377878D01*
X536891Y377871D01*
X536879Y377863D01*
X536867Y377854D01*
X536857Y377848D01*
X536848Y377842D01*
X536834Y377835D01*
X536821Y377828D01*
X536811Y377824D01*
X536801Y377819D01*
X536786Y377814D01*
X536773Y377808D01*
X536762Y377805D01*
X536751Y377802D01*
X536736Y377799D01*
X536722Y377795D01*
X536711Y377794D01*
X536699Y377792D01*
X536685Y377791D01*
X536670Y377789D01*
X536659Y377789D01*
X536647Y377788D01*
X534232D01*
X534180Y377792D01*
X534129Y377802D01*
X534079Y377819D01*
X534032Y377842D01*
X533988Y377871D01*
X533949Y377906D01*
X533914Y377945D01*
X533885Y377989D01*
X533862Y378036D01*
X533845Y378085D01*
X533835Y378137D01*
X533831Y378189D01*
Y388032D01*
X533835Y388084D01*
X533845Y388135D01*
X533862Y388185D01*
X533885Y388232D01*
X533914Y388276D01*
X533949Y388315D01*
X533988Y388350D01*
X534032Y388379D01*
X534079Y388402D01*
X534129Y388419D01*
X534180Y388429D01*
X534232Y388432D01*
X549547D01*
X549600Y388429D01*
D02*
G37*
D50*
X36693Y374528D02*
D03*
Y368228D02*
D03*
X28819Y374528D02*
D03*
Y368228D02*
D03*
X20945Y374528D02*
D03*
Y368228D02*
D03*
D51*
X351299Y98228D02*
D03*
Y92716D02*
D03*
X399882Y269409D02*
D03*
Y263898D02*
D03*
X27205Y189685D02*
D03*
Y195197D02*
D03*
X3740Y193543D02*
D03*
Y188031D02*
D03*
X-2008Y188032D02*
D03*
Y193543D02*
D03*
X110433Y49685D02*
D03*
Y55197D02*
D03*
X113701Y165551D02*
D03*
Y171063D02*
D03*
X114803Y101654D02*
D03*
Y107165D02*
D03*
X114094Y211968D02*
D03*
Y217480D02*
D03*
X347992Y203858D02*
D03*
Y198346D02*
D03*
X284685Y70591D02*
D03*
Y65079D02*
D03*
X289803Y70591D02*
D03*
Y65079D02*
D03*
X294921Y70591D02*
D03*
Y65079D02*
D03*
X269291Y44016D02*
D03*
Y49527D02*
D03*
X264331Y44016D02*
D03*
Y49527D02*
D03*
X413464Y136575D02*
D03*
Y142087D02*
D03*
Y74685D02*
D03*
Y80197D02*
D03*
X294921Y282795D02*
D03*
Y277283D02*
D03*
X284685Y282795D02*
D03*
Y277283D02*
D03*
X289803Y282795D02*
D03*
Y277283D02*
D03*
X269036Y256890D02*
D03*
Y262402D02*
D03*
X264075Y256890D02*
D03*
Y262402D02*
D03*
X324095Y20984D02*
D03*
Y26496D02*
D03*
X27520Y209763D02*
D03*
Y215275D02*
D03*
X447480Y281732D02*
D03*
Y287244D02*
D03*
X437598Y249213D02*
D03*
Y243701D02*
D03*
X413464Y13622D02*
D03*
Y19134D02*
D03*
X325276Y133780D02*
D03*
Y128268D02*
D03*
X263465Y150157D02*
D03*
Y155669D02*
D03*
X268425Y150157D02*
D03*
Y155669D02*
D03*
X284685Y172165D02*
D03*
Y166654D02*
D03*
X289803Y172165D02*
D03*
Y166654D02*
D03*
X294921Y172165D02*
D03*
Y166654D02*
D03*
X113898Y278150D02*
D03*
Y272638D02*
D03*
X325827Y239134D02*
D03*
Y233622D02*
D03*
X347599Y305984D02*
D03*
Y311496D02*
D03*
X113819Y339843D02*
D03*
Y334331D02*
D03*
D52*
X339567Y92480D02*
D03*
Y94449D02*
D03*
Y96417D02*
D03*
Y98386D02*
D03*
X330118D02*
D03*
Y96417D02*
D03*
Y94449D02*
D03*
Y92480D02*
D03*
X339567Y198150D02*
D03*
Y200118D02*
D03*
Y202087D02*
D03*
Y204055D02*
D03*
X330118D02*
D03*
Y202087D02*
D03*
Y200118D02*
D03*
Y198150D02*
D03*
X333780Y26890D02*
D03*
Y24921D02*
D03*
Y22953D02*
D03*
Y20984D02*
D03*
X343228D02*
D03*
Y22953D02*
D03*
Y24921D02*
D03*
Y26890D02*
D03*
X345433Y132953D02*
D03*
Y130984D02*
D03*
Y129016D02*
D03*
Y127047D02*
D03*
X335984D02*
D03*
Y129016D02*
D03*
Y130984D02*
D03*
Y132953D02*
D03*
X344095Y239409D02*
D03*
Y237441D02*
D03*
Y235472D02*
D03*
Y233504D02*
D03*
X334646D02*
D03*
Y235472D02*
D03*
Y237441D02*
D03*
Y239409D02*
D03*
X329291Y305752D02*
D03*
Y307720D02*
D03*
Y309689D02*
D03*
Y311658D02*
D03*
X338740D02*
D03*
Y309689D02*
D03*
Y307720D02*
D03*
Y305752D02*
D03*
D53*
X334842Y95433D02*
D03*
X301850Y241535D02*
D03*
X313268D02*
D03*
X301850Y249606D02*
D03*
X313268D02*
D03*
X334842Y201102D02*
D03*
X338504Y23937D02*
D03*
X340709Y130000D02*
D03*
X339370Y236456D02*
D03*
X313268Y27205D02*
D03*
X301850D02*
D03*
X313268Y35276D02*
D03*
X301850D02*
D03*
X301850Y139567D02*
D03*
X313268D02*
D03*
X301850Y131496D02*
D03*
X313268D02*
D03*
X334016Y308705D02*
D03*
D54*
X440984Y239449D02*
D03*
X435472D02*
D03*
X435118Y8937D02*
D03*
X440630D02*
D03*
X434961Y131811D02*
D03*
X440472D02*
D03*
X435866Y70276D02*
D03*
X441378D02*
D03*
X353425Y187441D02*
D03*
X347913D02*
D03*
X355928Y77101D02*
D03*
X350417D02*
D03*
X350355Y290354D02*
D03*
X355866D02*
D03*
X355928Y82337D02*
D03*
X350417D02*
D03*
X353425Y182677D02*
D03*
X347913D02*
D03*
X350355Y295590D02*
D03*
X355866D02*
D03*
X281142Y29073D02*
D03*
X286653D02*
D03*
X437795Y153346D02*
D03*
X443307D02*
D03*
X426378D02*
D03*
X431890D02*
D03*
X420472D02*
D03*
X414961D02*
D03*
X437795Y91496D02*
D03*
X443307D02*
D03*
X426378D02*
D03*
X431890D02*
D03*
X420472D02*
D03*
X414961D02*
D03*
X437795Y30433D02*
D03*
X443307D02*
D03*
X420472D02*
D03*
X414961D02*
D03*
X426023D02*
D03*
X431535D02*
D03*
X280984Y236141D02*
D03*
X286496D02*
D03*
X280945Y241672D02*
D03*
X286457D02*
D03*
X280984Y231024D02*
D03*
X286496D02*
D03*
X416023Y263504D02*
D03*
X421535D02*
D03*
X449685Y273031D02*
D03*
X455197D02*
D03*
X432953Y263504D02*
D03*
X438464D02*
D03*
X425394Y233937D02*
D03*
X430905D02*
D03*
X286693Y18425D02*
D03*
X281181D02*
D03*
X286693Y23543D02*
D03*
X281181D02*
D03*
X281417Y124291D02*
D03*
X286929D02*
D03*
X281378Y134940D02*
D03*
X286890D02*
D03*
X281417Y129409D02*
D03*
X286929D02*
D03*
D55*
X327854Y264606D02*
D03*
Y259606D02*
D03*
Y254606D02*
D03*
X327854Y144567D02*
D03*
Y149567D02*
D03*
Y154567D02*
D03*
X327854Y51220D02*
D03*
Y46220D02*
D03*
Y41220D02*
D03*
D56*
X329035Y249606D02*
D03*
X329035Y139567D02*
D03*
X329035Y36220D02*
D03*
D57*
X351476Y249606D02*
D03*
Y254606D02*
D03*
Y259606D02*
D03*
Y264606D02*
D03*
X351476Y154567D02*
D03*
Y149567D02*
D03*
Y144567D02*
D03*
Y139567D02*
D03*
X351476Y36220D02*
D03*
Y41220D02*
D03*
Y46220D02*
D03*
Y51220D02*
D03*
D58*
X342520Y257106D02*
D03*
X342520Y147067D02*
D03*
X342520Y43720D02*
D03*
D59*
X330020Y259921D02*
D03*
X330020Y149882D02*
D03*
X330020Y46535D02*
D03*
D60*
X279626Y159173D02*
D03*
Y156614D02*
D03*
Y154055D02*
D03*
Y151496D02*
D03*
Y148937D02*
D03*
Y146378D02*
D03*
Y143819D02*
D03*
X295965D02*
D03*
Y146378D02*
D03*
Y148937D02*
D03*
Y154055D02*
D03*
Y156614D02*
D03*
Y159173D02*
D03*
X279410Y54803D02*
D03*
Y52244D02*
D03*
Y49685D02*
D03*
Y47126D02*
D03*
Y44567D02*
D03*
Y42008D02*
D03*
Y39449D02*
D03*
X295748D02*
D03*
Y42008D02*
D03*
Y44567D02*
D03*
Y49685D02*
D03*
Y52244D02*
D03*
Y54803D02*
D03*
X278839Y268858D02*
D03*
Y266299D02*
D03*
Y263740D02*
D03*
Y261181D02*
D03*
Y258622D02*
D03*
Y256063D02*
D03*
Y253504D02*
D03*
X295177D02*
D03*
Y256063D02*
D03*
Y258622D02*
D03*
Y263740D02*
D03*
Y266299D02*
D03*
Y268858D02*
D03*
D61*
X328720Y276083D02*
D03*
X333720D02*
D03*
X338720D02*
D03*
X327146Y166122D02*
D03*
X332146D02*
D03*
X337146D02*
D03*
X328720Y62697D02*
D03*
X333720D02*
D03*
X338720D02*
D03*
D62*
X343721Y277264D02*
D03*
X342146Y167303D02*
D03*
X343721Y63878D02*
D03*
D63*
X343721Y299705D02*
D03*
X338720D02*
D03*
X333720D02*
D03*
X328720D02*
D03*
X342146Y189744D02*
D03*
X337146D02*
D03*
X332146D02*
D03*
X327146D02*
D03*
X343721Y86319D02*
D03*
X338720D02*
D03*
X333720D02*
D03*
X328720D02*
D03*
D64*
X336221Y290748D02*
D03*
X334646Y180787D02*
D03*
X336221Y77362D02*
D03*
D65*
X333405Y278248D02*
D03*
X331831Y168287D02*
D03*
X333405Y64862D02*
D03*
D66*
X301654Y179488D02*
D03*
X313347Y17638D02*
D03*
X475827Y332756D02*
D03*
X462212Y366799D02*
D03*
X480905Y346890D02*
D03*
X490551Y351142D02*
D03*
X463386Y348071D02*
D03*
Y355354D02*
D03*
X488779Y368268D02*
D03*
X488819Y361535D02*
D03*
X475827Y339606D02*
D03*
X57677Y367520D02*
D03*
X32480Y335433D02*
D03*
X33347Y321772D02*
D03*
X235669Y284213D02*
D03*
Y227165D02*
D03*
Y53465D02*
D03*
Y172126D02*
D03*
Y113228D02*
D03*
Y347756D02*
D03*
X313228Y123031D02*
D03*
X302677Y289803D02*
D03*
X302480Y74606D02*
D03*
X313268Y230591D02*
D03*
D67*
X171575Y26063D02*
D03*
Y20157D02*
D03*
Y84882D02*
D03*
Y78976D02*
D03*
X171614Y142638D02*
D03*
Y148543D02*
D03*
X171653Y189291D02*
D03*
Y195197D02*
D03*
X171772Y305394D02*
D03*
Y311299D02*
D03*
X171693Y252874D02*
D03*
Y246968D02*
D03*
D68*
X163386Y28740D02*
D03*
X155512D02*
D03*
X155512Y87401D02*
D03*
X163386D02*
D03*
X155512Y150394D02*
D03*
X163386D02*
D03*
X155512Y197835D02*
D03*
X163386D02*
D03*
X155512Y255906D02*
D03*
X163386D02*
D03*
X163386Y313189D02*
D03*
X155512D02*
D03*
X155512Y245315D02*
D03*
X163386D02*
D03*
X155512Y302636D02*
D03*
X163386D02*
D03*
X163386Y76839D02*
D03*
X155512D02*
D03*
X163386Y18071D02*
D03*
X155512D02*
D03*
X155512Y187390D02*
D03*
X163386D02*
D03*
X155512Y139685D02*
D03*
X163386D02*
D03*
D69*
X502598Y363071D02*
D03*
Y359055D02*
D03*
Y355040D02*
D03*
Y351024D02*
D03*
Y347008D02*
D03*
Y342992D02*
D03*
Y338977D02*
D03*
Y334961D02*
D03*
D70*
X20591Y220866D02*
D03*
Y217126D02*
D03*
Y213386D02*
D03*
X10748D02*
D03*
Y217126D02*
D03*
Y220866D02*
D03*
X10473Y196496D02*
D03*
Y192756D02*
D03*
Y189016D02*
D03*
X20315D02*
D03*
Y196496D02*
D03*
D71*
X355669Y18858D02*
D03*
X360787D02*
D03*
X159724Y53071D02*
D03*
X154606D02*
D03*
X156575Y175827D02*
D03*
X151457D02*
D03*
X159882Y169016D02*
D03*
X154764D02*
D03*
X343898Y120512D02*
D03*
X349016D02*
D03*
X330197Y120512D02*
D03*
X325079D02*
D03*
X161496Y114291D02*
D03*
X156378D02*
D03*
X343898Y105000D02*
D03*
X349016D02*
D03*
X326181Y105000D02*
D03*
X331299D02*
D03*
X161425Y107461D02*
D03*
X156307D02*
D03*
X160520Y215059D02*
D03*
X155402D02*
D03*
X161063Y223228D02*
D03*
X155945D02*
D03*
X325354Y209567D02*
D03*
X320236D02*
D03*
X339724Y209528D02*
D03*
X344843D02*
D03*
X349016Y13937D02*
D03*
X343898D02*
D03*
X325079Y13937D02*
D03*
X330197D02*
D03*
X522086Y303346D02*
D03*
X527205D02*
D03*
X160197Y282126D02*
D03*
X155079D02*
D03*
X160197Y275315D02*
D03*
X155079D02*
D03*
X421339Y257598D02*
D03*
X416221D02*
D03*
X438268D02*
D03*
X433149D02*
D03*
X349606Y227008D02*
D03*
X344488D02*
D03*
X329961Y226969D02*
D03*
X335079D02*
D03*
X155701Y346161D02*
D03*
X160819D02*
D03*
X155158Y337992D02*
D03*
X160276D02*
D03*
X349016Y318189D02*
D03*
X343898D02*
D03*
X325394Y318189D02*
D03*
X330512D02*
D03*
D72*
X117126Y72106D02*
D03*
Y66988D02*
D03*
X124063D02*
D03*
Y72106D02*
D03*
X147646Y53091D02*
D03*
Y47972D02*
D03*
X117717Y188051D02*
D03*
Y182933D02*
D03*
X124220D02*
D03*
Y188051D02*
D03*
X147803Y163917D02*
D03*
Y169035D02*
D03*
X125756Y119941D02*
D03*
Y125059D02*
D03*
X118898D02*
D03*
Y119941D02*
D03*
X149339Y102342D02*
D03*
Y107461D02*
D03*
X124409Y228937D02*
D03*
Y234055D02*
D03*
X117717D02*
D03*
Y228937D02*
D03*
X148433Y209941D02*
D03*
Y215059D02*
D03*
X113071Y18858D02*
D03*
Y23976D02*
D03*
X113071Y85079D02*
D03*
Y90197D02*
D03*
X117717Y294351D02*
D03*
Y289232D02*
D03*
X36693Y351102D02*
D03*
Y356220D02*
D03*
X28819Y351102D02*
D03*
Y356220D02*
D03*
X20945Y351102D02*
D03*
Y356220D02*
D03*
Y340472D02*
D03*
Y335354D02*
D03*
X437401Y299528D02*
D03*
Y294409D02*
D03*
X417402Y299528D02*
D03*
Y294409D02*
D03*
X450984Y266693D02*
D03*
Y261575D02*
D03*
X420275Y228819D02*
D03*
Y233937D02*
D03*
X436024Y228819D02*
D03*
Y233937D02*
D03*
X406575Y269213D02*
D03*
Y264094D02*
D03*
X113346Y198228D02*
D03*
Y203346D02*
D03*
X113346Y134528D02*
D03*
Y139646D02*
D03*
X113347Y249449D02*
D03*
Y254567D02*
D03*
X124528Y294351D02*
D03*
Y289232D02*
D03*
X148118Y275335D02*
D03*
Y270216D02*
D03*
X148189Y337992D02*
D03*
Y332874D02*
D03*
X113347Y323228D02*
D03*
Y328346D02*
D03*
X117717Y351890D02*
D03*
Y357008D02*
D03*
X124409D02*
D03*
Y351890D02*
D03*
X-16693Y118898D02*
D03*
Y124016D02*
D03*
X-6850D02*
D03*
Y118898D02*
D03*
X2992Y124016D02*
D03*
Y118898D02*
D03*
D73*
X137736Y62362D02*
D03*
X144626D02*
D03*
X137894Y178307D02*
D03*
X144783D02*
D03*
X139429Y116516D02*
D03*
X146319D02*
D03*
X138524Y224114D02*
D03*
X145413D02*
D03*
X145098Y284606D02*
D03*
X138209D02*
D03*
X145169Y347047D02*
D03*
X138280D02*
D03*
D74*
X129693Y53091D02*
D03*
Y56831D02*
D03*
Y60571D02*
D03*
X119457D02*
D03*
Y56831D02*
D03*
Y53091D02*
D03*
X129850Y169035D02*
D03*
Y172775D02*
D03*
Y176516D02*
D03*
X119614D02*
D03*
Y172775D02*
D03*
Y169035D02*
D03*
X131386Y106043D02*
D03*
Y109783D02*
D03*
Y113524D02*
D03*
X121150D02*
D03*
Y109783D02*
D03*
Y106043D02*
D03*
X130315Y215039D02*
D03*
Y218780D02*
D03*
Y222520D02*
D03*
X120079D02*
D03*
Y218780D02*
D03*
Y215039D02*
D03*
X119929Y275335D02*
D03*
Y279075D02*
D03*
Y282815D02*
D03*
X130165D02*
D03*
Y279075D02*
D03*
Y275335D02*
D03*
X119921Y337992D02*
D03*
Y341732D02*
D03*
Y345472D02*
D03*
X130158D02*
D03*
Y341732D02*
D03*
Y337992D02*
D03*
D75*
X138669Y45217D02*
D03*
Y53091D02*
D03*
X138827Y161161D02*
D03*
Y169035D02*
D03*
X140401Y99547D02*
D03*
Y107421D02*
D03*
X139496Y207146D02*
D03*
Y215020D02*
D03*
X139142Y275335D02*
D03*
Y267461D02*
D03*
X139252Y337953D02*
D03*
Y330079D02*
D03*
D76*
X190118Y244291D02*
D03*
X200118D02*
D03*
X220118D02*
D03*
Y284055D02*
D03*
X190118D02*
D03*
Y306024D02*
D03*
X200118D02*
D03*
X220118D02*
D03*
Y345787D02*
D03*
X190118D02*
D03*
X190118Y225315D02*
D03*
X220118D02*
D03*
Y185551D02*
D03*
X200118D02*
D03*
X190118D02*
D03*
X190118Y111575D02*
D03*
X220118D02*
D03*
Y71811D02*
D03*
X200118D02*
D03*
X190118D02*
D03*
X190118Y54724D02*
D03*
X220118D02*
D03*
Y14961D02*
D03*
X200118D02*
D03*
X190118D02*
D03*
X190118Y168465D02*
D03*
X220118D02*
D03*
Y128701D02*
D03*
X200118D02*
D03*
X190118D02*
D03*
D77*
X314843Y68680D02*
D03*
Y57263D02*
D03*
X306772Y68680D02*
D03*
Y57262D02*
D03*
X306772Y270669D02*
D03*
Y282087D02*
D03*
X314843Y270669D02*
D03*
Y282087D02*
D03*
X314843Y160709D02*
D03*
Y172126D02*
D03*
X306772Y160709D02*
D03*
Y172126D02*
D03*
D78*
X-48976Y116500D02*
D03*
Y280280D02*
D03*
Y277130D02*
D03*
Y270831D02*
D03*
Y264531D02*
D03*
Y258232D02*
D03*
Y251933D02*
D03*
Y245634D02*
D03*
Y239335D02*
D03*
Y233035D02*
D03*
Y226736D02*
D03*
Y220437D02*
D03*
Y214138D02*
D03*
Y207839D02*
D03*
Y201539D02*
D03*
Y182642D02*
D03*
Y176343D02*
D03*
Y170043D02*
D03*
Y163744D02*
D03*
Y157445D02*
D03*
Y151146D02*
D03*
Y141697D02*
D03*
Y132248D02*
D03*
Y273980D02*
D03*
Y267681D02*
D03*
Y261382D02*
D03*
Y255083D02*
D03*
Y248783D02*
D03*
Y242484D02*
D03*
Y236185D02*
D03*
Y229886D02*
D03*
Y223587D02*
D03*
Y217287D02*
D03*
Y210988D02*
D03*
Y204689D02*
D03*
Y198390D02*
D03*
Y179492D02*
D03*
Y173193D02*
D03*
Y166894D02*
D03*
Y160594D02*
D03*
Y154295D02*
D03*
Y147996D02*
D03*
Y144846D02*
D03*
Y138547D02*
D03*
Y135398D02*
D03*
Y129098D02*
D03*
Y125949D02*
D03*
Y122799D02*
D03*
Y119650D02*
D03*
Y113350D02*
D03*
D79*
X35512Y198386D02*
D03*
Y186969D02*
D03*
D80*
X417402Y271752D02*
D03*
Y276752D02*
D03*
Y281752D02*
D03*
Y286752D02*
D03*
X437480D02*
D03*
Y281752D02*
D03*
Y276752D02*
D03*
Y271752D02*
D03*
D81*
X431488Y243701D02*
D03*
Y241732D02*
D03*
Y239764D02*
D03*
X424890D02*
D03*
Y241732D02*
D03*
Y243701D02*
D03*
D82*
X420472Y21555D02*
D03*
Y18996D02*
D03*
Y16437D02*
D03*
Y13878D02*
D03*
X437795D02*
D03*
Y16437D02*
D03*
Y18996D02*
D03*
Y21555D02*
D03*
Y82579D02*
D03*
Y80020D02*
D03*
Y77461D02*
D03*
Y74902D02*
D03*
X420472D02*
D03*
Y77461D02*
D03*
Y80020D02*
D03*
Y82579D02*
D03*
X437795Y144429D02*
D03*
Y141870D02*
D03*
Y139311D02*
D03*
Y136752D02*
D03*
X420472D02*
D03*
Y139311D02*
D03*
Y141870D02*
D03*
Y144429D02*
D03*
D83*
X445472Y49173D02*
D03*
X412795D02*
D03*
Y110236D02*
D03*
X445472D02*
D03*
Y172087D02*
D03*
X412795D02*
D03*
X412756Y209803D02*
D03*
X445433D02*
D03*
D84*
X370079Y79921D02*
D03*
X272441D02*
D03*
Y291339D02*
D03*
X370079D02*
D03*
D85*
X541890Y374016D02*
D03*
Y324016D02*
D03*
Y355709D02*
D03*
Y305709D02*
D03*
D86*
X527557Y166102D02*
D03*
X487557D02*
D03*
Y126102D02*
D03*
X527557D02*
D03*
Y238701D02*
D03*
X487557D02*
D03*
Y278701D02*
D03*
X527557D02*
D03*
Y222402D02*
D03*
X487557D02*
D03*
Y182402D02*
D03*
X527557D02*
D03*
Y69803D02*
D03*
X487557D02*
D03*
Y109803D02*
D03*
X527557D02*
D03*
Y13504D02*
D03*
X487557D02*
D03*
Y53504D02*
D03*
X527557D02*
D03*
D87*
X502518Y146102D02*
D03*
Y258701D02*
D03*
Y202402D02*
D03*
Y89803D02*
D03*
Y33504D02*
D03*
D88*
X103622Y200787D02*
D03*
Y21378D02*
D03*
X103622Y137205D02*
D03*
X103622Y87598D02*
D03*
X103622Y251929D02*
D03*
Y325630D02*
D03*
D89*
X320669Y134409D02*
D03*
X322716Y104961D02*
D03*
X205630Y262402D02*
D03*
X199528Y135709D02*
D03*
X316457Y209528D02*
D03*
X321181Y318189D02*
D03*
X322087Y239134D02*
D03*
X320209Y26496D02*
D03*
M02*
