G04*
G04 #@! TF.GenerationSoftware,Altium Limited,Altium Designer,22.10.1 (41)*
G04*
G04 Layer_Physical_Order=3*
G04 Layer_Color=16440176*
%FSLAX25Y25*%
%MOIN*%
G70*
G04*
G04 #@! TF.SameCoordinates,0BB99238-86FF-4950-987D-53966723C9E6*
G04*
G04*
G04 #@! TF.FilePolarity,Positive*
G04*
G01*
G75*
%ADD12C,0.00984*%
%ADD90C,0.03937*%
%ADD92C,0.01181*%
%ADD93C,0.01772*%
%ADD98C,0.13287*%
%ADD100C,0.01968*%
G36*
X545972Y392535D02*
X547338Y392169D01*
X548645Y391628D01*
X549870Y390920D01*
X550993Y390059D01*
X551993Y389059D01*
X552854Y387937D01*
X553561Y386712D01*
X554103Y385405D01*
X554469Y384038D01*
X554654Y382636D01*
Y381928D01*
X554654Y11811D01*
X554654Y11104D01*
X554469Y9701D01*
X554103Y8335D01*
X553562Y7028D01*
X552854Y5803D01*
X551993Y4680D01*
X550993Y3680D01*
X549870Y2819D01*
X548645Y2112D01*
X547338Y1570D01*
X545972Y1204D01*
X544569Y1020D01*
X543862D01*
X11811Y1020D01*
X11104D01*
X9701Y1204D01*
X8335Y1570D01*
X7028Y2112D01*
X5803Y2819D01*
X4680Y3680D01*
X3680Y4680D01*
X2819Y5803D01*
X2112Y7028D01*
X1570Y8335D01*
X1204Y9701D01*
X1020Y11104D01*
X1020Y11811D01*
X1020Y99508D01*
X942Y99898D01*
X721Y100229D01*
X390Y100450D01*
X-0Y100527D01*
X-23910D01*
X-23934Y100522D01*
X-23960Y100526D01*
X-24345Y100507D01*
X-24419Y100489D01*
X-24494D01*
X-25251Y100338D01*
X-25344Y100300D01*
X-25442Y100280D01*
X-26155Y99985D01*
X-26239Y99929D01*
X-26332Y99891D01*
X-26974Y99462D01*
X-27044Y99391D01*
X-27128Y99335D01*
X-27674Y98789D01*
X-27729Y98706D01*
X-27801Y98635D01*
X-28229Y97993D01*
X-28268Y97900D01*
X-28324Y97817D01*
X-28619Y97104D01*
X-28638Y97005D01*
X-28677Y96913D01*
X-28828Y96156D01*
Y96080D01*
X-28846Y96007D01*
X-28865Y95621D01*
X-28861Y95596D01*
X-28866Y95571D01*
Y93209D01*
X-28866Y93098D01*
X-28951Y92894D01*
X-29107Y92738D01*
X-29311Y92653D01*
X-33834D01*
Y105413D01*
X-33839Y105439D01*
X-33836Y105464D01*
X-33855Y105850D01*
X-33873Y105923D01*
X-33873Y105998D01*
X-34023Y106755D01*
X-34062Y106848D01*
X-34082Y106946D01*
X-34377Y107659D01*
X-34433Y107743D01*
X-34471Y107835D01*
X-34900Y108477D01*
X-34971Y108548D01*
X-35026Y108632D01*
X-35572Y109177D01*
X-35656Y109233D01*
X-35727Y109304D01*
X-36368Y109733D01*
X-36461Y109772D01*
X-36545Y109827D01*
X-37258Y110123D01*
X-37356Y110142D01*
X-37449Y110181D01*
X-38206Y110331D01*
X-38282D01*
X-38355Y110350D01*
X-38741Y110369D01*
X-38766Y110365D01*
X-38791Y110370D01*
X-57457D01*
Y184807D01*
X-38004Y184807D01*
X-37971Y184814D01*
X-37937Y184809D01*
X-37321Y184850D01*
X-37224Y184876D01*
X-37123Y184882D01*
X-35932Y185202D01*
X-35813Y185261D01*
X-35686Y185303D01*
X-34618Y185920D01*
X-34518Y186008D01*
X-34407Y186082D01*
X-33535Y186954D01*
X-33461Y187065D01*
X-33373Y187165D01*
X-32756Y188233D01*
X-32713Y188360D01*
X-32654Y188479D01*
X-32335Y189671D01*
X-32326Y189804D01*
X-32300Y189935D01*
Y191168D01*
X-32326Y191299D01*
X-32335Y191432D01*
X-32654Y192623D01*
X-32713Y192743D01*
X-32756Y192869D01*
X-33373Y193937D01*
X-33461Y194037D01*
X-33535Y194148D01*
X-34407Y195020D01*
X-34518Y195094D01*
X-34618Y195182D01*
X-35686Y195799D01*
X-35813Y195842D01*
X-35932Y195901D01*
X-37123Y196220D01*
X-37224Y196227D01*
X-37321Y196253D01*
X-37937Y196293D01*
X-37971Y196289D01*
X-38004Y196295D01*
X-57457D01*
Y283331D01*
X-38791D01*
X-38766Y283336D01*
X-38741Y283332D01*
X-38355Y283351D01*
X-38282Y283369D01*
X-38206Y283369D01*
X-37449Y283520D01*
X-37356Y283558D01*
X-37258Y283578D01*
X-36545Y283873D01*
X-36461Y283929D01*
X-36368Y283967D01*
X-35727Y284396D01*
X-35656Y284467D01*
X-35572Y284523D01*
X-35026Y285069D01*
X-34971Y285152D01*
X-34900Y285223D01*
X-34471Y285865D01*
X-34432Y285958D01*
X-34377Y286041D01*
X-34081Y286754D01*
X-34062Y286853D01*
X-34023Y286946D01*
X-33873Y287703D01*
X-33873Y287778D01*
X-33854Y287852D01*
X-33835Y288237D01*
X-33839Y288263D01*
X-33834Y288287D01*
Y301047D01*
X-29421D01*
X-29421Y301047D01*
X-29421Y301047D01*
X-29311Y301047D01*
X-29107Y300963D01*
X-28951Y300807D01*
X-28866Y300603D01*
X-28866Y300492D01*
X-28866Y300492D01*
X-28866Y300492D01*
Y298130D01*
X-28861Y298105D01*
X-28865Y298080D01*
X-28846Y297694D01*
X-28828Y297621D01*
Y297545D01*
X-28677Y296788D01*
X-28638Y296695D01*
X-28619Y296597D01*
X-28324Y295884D01*
X-28268Y295800D01*
X-28229Y295708D01*
X-27801Y295066D01*
X-27730Y294995D01*
X-27674Y294911D01*
X-27128Y294366D01*
X-27044Y294310D01*
X-26974Y294239D01*
X-26332Y293810D01*
X-26239Y293772D01*
X-26155Y293716D01*
X-25442Y293421D01*
X-25344Y293401D01*
X-25251Y293362D01*
X-24494Y293212D01*
X-24419D01*
X-24345Y293194D01*
X-23959Y293175D01*
X-23934Y293178D01*
X-23910Y293173D01*
X-0D01*
X390Y293251D01*
X721Y293472D01*
X942Y293803D01*
X1020Y294193D01*
Y381890D01*
X1020Y382597D01*
X1204Y384000D01*
X1570Y385366D01*
X2112Y386673D01*
X2819Y387898D01*
X3680Y389020D01*
X4681Y390021D01*
X5803Y390882D01*
X7028Y391589D01*
X8335Y392130D01*
X9701Y392497D01*
X11104Y392681D01*
X11811Y392681D01*
X11811Y392681D01*
X11811Y392681D01*
X243818Y392698D01*
X244035Y392198D01*
X243837Y391988D01*
X203189D01*
X202805Y391911D01*
X202479Y391694D01*
X197176Y386390D01*
X196958Y386065D01*
X196882Y385681D01*
Y375284D01*
X196717Y375120D01*
X196507Y374613D01*
Y374065D01*
X196717Y373558D01*
X197105Y373171D01*
X197611Y372961D01*
X197716D01*
X198160Y372944D01*
X198178Y372499D01*
Y372395D01*
X198388Y371888D01*
X198775Y371501D01*
X199282Y371291D01*
X199830D01*
X200336Y371501D01*
X200724Y371888D01*
X200934Y372395D01*
Y372841D01*
X201379Y373286D01*
X201596Y373611D01*
X201673Y373995D01*
Y385822D01*
X203470Y387618D01*
X243978D01*
X244142Y387454D01*
X244649Y387244D01*
X245197D01*
X245703Y387454D01*
X246091Y387842D01*
X246301Y388348D01*
Y388896D01*
X246091Y389403D01*
X246017Y389476D01*
X245715Y389803D01*
X246017Y390130D01*
X246091Y390204D01*
X246301Y390710D01*
Y391258D01*
X246091Y391765D01*
X245703Y392152D01*
X245593Y392198D01*
X245692Y392698D01*
X543862Y392720D01*
X544569D01*
X545972Y392535D01*
D02*
G37*
%LPC*%
G36*
X288407Y379724D02*
X287578D01*
X286776Y379510D01*
X286058Y379095D01*
X285472Y378509D01*
X285057Y377790D01*
X284842Y376989D01*
Y376160D01*
X285057Y375359D01*
X285472Y374641D01*
X286058Y374055D01*
X286776Y373640D01*
X287578Y373425D01*
X288407D01*
X289208Y373640D01*
X289926Y374055D01*
X290512Y374641D01*
X290927Y375359D01*
X291142Y376160D01*
Y376989D01*
X290927Y377790D01*
X290512Y378509D01*
X289926Y379095D01*
X289208Y379510D01*
X288407Y379724D01*
D02*
G37*
G36*
X542549Y380709D02*
X541231D01*
X539937Y380451D01*
X538720Y379947D01*
X537623Y379214D01*
X536691Y378282D01*
X535959Y377186D01*
X535454Y375968D01*
X535197Y374675D01*
Y373357D01*
X535454Y372063D01*
X535959Y370845D01*
X536691Y369749D01*
X537623Y368817D01*
X538720Y368085D01*
X539937Y367580D01*
X541231Y367323D01*
X542549D01*
X543842Y367580D01*
X545060Y368085D01*
X546156Y368817D01*
X547088Y369749D01*
X547821Y370845D01*
X548325Y372063D01*
X548583Y373357D01*
Y374675D01*
X548325Y375968D01*
X547821Y377186D01*
X547088Y378282D01*
X546156Y379214D01*
X545060Y379947D01*
X543842Y380451D01*
X542549Y380709D01*
D02*
G37*
G36*
X62872Y368819D02*
X62324D01*
X61818Y368609D01*
X61430Y368221D01*
X61221Y367715D01*
Y367167D01*
X61430Y366660D01*
X61818Y366273D01*
X62324Y366063D01*
X62872D01*
X63379Y366273D01*
X63767Y366660D01*
X63976Y367167D01*
Y367715D01*
X63767Y368221D01*
X63379Y368609D01*
X62872Y368819D01*
D02*
G37*
G36*
X326202Y366398D02*
X325373D01*
X324572Y366183D01*
X323853Y365768D01*
X323267Y365182D01*
X323123Y364933D01*
X322546D01*
X322402Y365182D01*
X321816Y365768D01*
X321098Y366183D01*
X320297Y366398D01*
X319467D01*
X318666Y366183D01*
X317948Y365768D01*
X317362Y365182D01*
X317218Y364933D01*
X316640D01*
X316497Y365182D01*
X315910Y365768D01*
X315192Y366183D01*
X314391Y366398D01*
X313562D01*
X312761Y366183D01*
X312042Y365768D01*
X311456Y365182D01*
X311041Y364464D01*
X310827Y363663D01*
Y362833D01*
X311041Y362032D01*
X311456Y361314D01*
X312042Y360728D01*
X312761Y360313D01*
X313562Y360098D01*
X314391D01*
X315192Y360313D01*
X315910Y360728D01*
X316497Y361314D01*
X316640Y361563D01*
X317218D01*
X317362Y361314D01*
X317948Y360728D01*
X318666Y360313D01*
X319467Y360098D01*
X320297D01*
X321098Y360313D01*
X321816Y360728D01*
X322402Y361314D01*
X322546Y361563D01*
X323123D01*
X323267Y361314D01*
X323853Y360728D01*
X324572Y360313D01*
X325373Y360098D01*
X326202D01*
X327003Y360313D01*
X327721Y360728D01*
X328308Y361314D01*
X328722Y362032D01*
X328937Y362833D01*
Y363663D01*
X328722Y364464D01*
X328308Y365182D01*
X327721Y365768D01*
X327003Y366183D01*
X326202Y366398D01*
D02*
G37*
G36*
X118030Y363642D02*
X117482D01*
X116975Y363432D01*
X116588Y363044D01*
X116378Y362538D01*
Y361990D01*
X116588Y361483D01*
X116975Y361096D01*
X117482Y360886D01*
X118030D01*
X118536Y361096D01*
X118924Y361483D01*
X119134Y361990D01*
Y362538D01*
X118924Y363044D01*
X118536Y363432D01*
X118030Y363642D01*
D02*
G37*
G36*
X473660Y361772D02*
X473112D01*
X472605Y361562D01*
X472218Y361174D01*
X472008Y360668D01*
Y360120D01*
X472218Y359613D01*
X472605Y359226D01*
X472723Y359177D01*
X473006Y358554D01*
X472993Y358520D01*
Y357972D01*
X473202Y357466D01*
X473590Y357078D01*
X474096Y356868D01*
X474645D01*
X475151Y357078D01*
X475539Y357466D01*
X475748Y357972D01*
Y358520D01*
X475539Y359027D01*
X475151Y359415D01*
X475033Y359463D01*
X474750Y360086D01*
X474764Y360120D01*
Y360668D01*
X474554Y361174D01*
X474166Y361562D01*
X473660Y361772D01*
D02*
G37*
G36*
X450212Y356828D02*
X449664D01*
X449158Y356618D01*
X448770Y356230D01*
X448560Y355724D01*
Y355619D01*
X448542Y355175D01*
X448098Y355157D01*
X447994D01*
X447487Y354948D01*
X447099Y354560D01*
X446890Y354054D01*
Y353505D01*
X447099Y352999D01*
X447487Y352611D01*
X447994Y352402D01*
X448542D01*
X449048Y352611D01*
X449436Y352999D01*
X449646Y353505D01*
Y353610D01*
X449663Y354054D01*
X450108Y354072D01*
X450212D01*
X450719Y354282D01*
X451106Y354669D01*
X451316Y355176D01*
Y355724D01*
X451106Y356230D01*
X450719Y356618D01*
X450212Y356828D01*
D02*
G37*
G36*
X176135Y353805D02*
X175587D01*
X175080Y353595D01*
X174693Y353208D01*
X174483Y352701D01*
Y352153D01*
X174693Y351647D01*
X175080Y351259D01*
X175587Y351049D01*
X176135D01*
X176641Y351259D01*
X177029Y351647D01*
X177239Y352153D01*
Y352701D01*
X177029Y353208D01*
X176641Y353595D01*
X176135Y353805D01*
D02*
G37*
G36*
X542549Y362402D02*
X541231D01*
X539937Y362144D01*
X538720Y361640D01*
X537623Y360907D01*
X536691Y359975D01*
X535959Y358879D01*
X535454Y357661D01*
X535197Y356368D01*
Y355049D01*
X535454Y353756D01*
X535959Y352538D01*
X536691Y351442D01*
X537623Y350510D01*
X538720Y349778D01*
X539937Y349273D01*
X541231Y349016D01*
X542549D01*
X543842Y349273D01*
X545060Y349778D01*
X546156Y350510D01*
X547088Y351442D01*
X547821Y352538D01*
X548325Y353756D01*
X548583Y355049D01*
Y356368D01*
X548325Y357661D01*
X547821Y358879D01*
X547088Y359975D01*
X546156Y360907D01*
X545060Y361640D01*
X543842Y362144D01*
X542549Y362402D01*
D02*
G37*
G36*
X468188Y353661D02*
X467639D01*
X467133Y353452D01*
X466868Y353187D01*
X460118D01*
X459772Y353118D01*
X459479Y352922D01*
X436614Y330057D01*
X434415D01*
X434150Y330322D01*
X433643Y330532D01*
X433095D01*
X432589Y330322D01*
X432201Y329934D01*
X431991Y329428D01*
Y328879D01*
X432201Y328373D01*
X432589Y327985D01*
X433095Y327776D01*
X433211D01*
X433652Y327562D01*
X433661Y327314D01*
Y327009D01*
X433871Y326503D01*
X434259Y326115D01*
X434765Y325905D01*
X435313D01*
X435820Y326115D01*
X435897Y326192D01*
X438276D01*
X438622Y326261D01*
X438915Y326457D01*
X461335Y348877D01*
X466727D01*
X466992Y348612D01*
X467498Y348402D01*
X468046D01*
X468553Y348612D01*
X468940Y349000D01*
X469150Y349506D01*
Y350054D01*
X468940Y350561D01*
X468859Y350642D01*
X468698Y351105D01*
X468866Y351288D01*
X469082Y351503D01*
X469291Y352009D01*
Y352557D01*
X469082Y353064D01*
X468694Y353452D01*
X468188Y353661D01*
D02*
G37*
G36*
X326202Y348819D02*
X325373D01*
X324572Y348604D01*
X323853Y348190D01*
X323267Y347603D01*
X323123Y347354D01*
X322546D01*
X322402Y347603D01*
X321816Y348189D01*
X321098Y348604D01*
X320297Y348819D01*
X319467D01*
X318666Y348604D01*
X317948Y348189D01*
X317362Y347603D01*
X317218Y347354D01*
X316640D01*
X316497Y347603D01*
X315910Y348190D01*
X315192Y348604D01*
X314391Y348819D01*
X313562D01*
X312761Y348604D01*
X312042Y348190D01*
X311456Y347603D01*
X311041Y346885D01*
X310827Y346084D01*
Y345255D01*
X311041Y344454D01*
X311456Y343735D01*
X312042Y343149D01*
X312761Y342734D01*
X313562Y342520D01*
X314391D01*
X315192Y342734D01*
X315910Y343149D01*
X316497Y343735D01*
X316640Y343984D01*
X317218D01*
X317362Y343735D01*
X317948Y343149D01*
X318666Y342734D01*
X319467Y342520D01*
X320297D01*
X321098Y342734D01*
X321816Y343149D01*
X322402Y343735D01*
X322546Y343984D01*
X323123D01*
X323267Y343735D01*
X323853Y343149D01*
X324572Y342734D01*
X325373Y342520D01*
X326202D01*
X327003Y342734D01*
X327721Y343149D01*
X328308Y343735D01*
X328722Y344454D01*
X328937Y345255D01*
Y346084D01*
X328722Y346885D01*
X328308Y347603D01*
X327721Y348190D01*
X327003Y348604D01*
X326202Y348819D01*
D02*
G37*
G36*
X29093Y348661D02*
X28545D01*
X28038Y348452D01*
X27651Y348064D01*
X27441Y347557D01*
Y347009D01*
X27651Y346503D01*
X28038Y346115D01*
X28545Y345905D01*
X29093D01*
X29599Y346115D01*
X29987Y346503D01*
X30197Y347009D01*
Y347557D01*
X29987Y348064D01*
X29599Y348452D01*
X29093Y348661D01*
D02*
G37*
G36*
X200208Y356778D02*
X199660D01*
X199153Y356568D01*
X198766Y356180D01*
X198556Y355674D01*
Y355125D01*
X198766Y354619D01*
X198931Y354454D01*
Y352434D01*
X199007Y352050D01*
X199224Y351724D01*
X199311Y351637D01*
Y341378D01*
X199147Y341214D01*
X198937Y340707D01*
Y340159D01*
X199147Y339652D01*
X199534Y339265D01*
X200041Y339055D01*
X200589D01*
X201096Y339265D01*
X201483Y339652D01*
X201693Y340159D01*
Y340707D01*
X201483Y341214D01*
X201319Y341378D01*
Y345324D01*
X201470Y345443D01*
X201818Y345592D01*
X202221Y345425D01*
X202769D01*
X203276Y345635D01*
X203663Y346023D01*
X203873Y346529D01*
Y347077D01*
X203663Y347584D01*
X203276Y347971D01*
X202769Y348181D01*
X202221D01*
X201818Y348014D01*
X201470Y348164D01*
X201319Y348282D01*
Y352053D01*
X201242Y352437D01*
X201025Y352763D01*
X200938Y352850D01*
Y354454D01*
X201102Y354619D01*
X201312Y355125D01*
Y355674D01*
X201102Y356180D01*
X200714Y356568D01*
X200208Y356778D01*
D02*
G37*
G36*
X164762Y347559D02*
X164214D01*
X163708Y347349D01*
X163320Y346962D01*
X163110Y346455D01*
Y345907D01*
X163320Y345401D01*
X163708Y345013D01*
X164214Y344803D01*
X164762D01*
X165269Y345013D01*
X165656Y345401D01*
X165866Y345907D01*
Y346455D01*
X165656Y346962D01*
X165269Y347349D01*
X164762Y347559D01*
D02*
G37*
G36*
X151376D02*
X150828D01*
X150322Y347349D01*
X149934Y346962D01*
X149724Y346455D01*
Y345907D01*
X149934Y345401D01*
X150322Y345013D01*
X150828Y344803D01*
X151376D01*
X151883Y345013D01*
X152270Y345401D01*
X152480Y345907D01*
Y346455D01*
X152270Y346962D01*
X151883Y347349D01*
X151376Y347559D01*
D02*
G37*
G36*
X36967Y346102D02*
X36419D01*
X35912Y345893D01*
X35525Y345505D01*
X35315Y344999D01*
Y344450D01*
X35525Y343944D01*
X35912Y343556D01*
X36419Y343347D01*
X36967D01*
X37473Y343556D01*
X37861Y343944D01*
X38071Y344450D01*
Y344999D01*
X37861Y345505D01*
X37473Y345893D01*
X36967Y346102D01*
D02*
G37*
G36*
X223446Y340669D02*
X222617D01*
X221816Y340455D01*
X221098Y340040D01*
X220511Y339454D01*
X220367Y339204D01*
X219790D01*
X219646Y339454D01*
X219060Y340040D01*
X218342Y340455D01*
X217541Y340669D01*
X216711D01*
X215910Y340455D01*
X215192Y340040D01*
X214606Y339454D01*
X214191Y338735D01*
X213976Y337934D01*
Y337105D01*
X214191Y336304D01*
X214606Y335586D01*
X215192Y334999D01*
X215441Y334856D01*
Y334278D01*
X215192Y334135D01*
X214606Y333548D01*
X214191Y332830D01*
X213976Y332029D01*
Y331200D01*
X214191Y330399D01*
X214606Y329680D01*
X215192Y329094D01*
X215910Y328679D01*
X216711Y328465D01*
X217541D01*
X218342Y328679D01*
X219060Y329094D01*
X219646Y329680D01*
X219790Y329929D01*
X220367D01*
X220511Y329680D01*
X221098Y329094D01*
X221816Y328679D01*
X222617Y328465D01*
X223446D01*
X224247Y328679D01*
X224965Y329094D01*
X225552Y329680D01*
X225967Y330399D01*
X226181Y331200D01*
Y332029D01*
X225967Y332830D01*
X225552Y333548D01*
X224965Y334135D01*
X224716Y334278D01*
Y334856D01*
X224965Y334999D01*
X225552Y335586D01*
X225967Y336304D01*
X226181Y337105D01*
Y337934D01*
X225967Y338735D01*
X225552Y339454D01*
X224965Y340040D01*
X224247Y340455D01*
X223446Y340669D01*
D02*
G37*
G36*
X196600Y356765D02*
X196052D01*
X195545Y356555D01*
X195158Y356167D01*
X194948Y355661D01*
Y355113D01*
X195158Y354606D01*
X195196Y354567D01*
Y341492D01*
X194906Y341201D01*
X194696Y340695D01*
Y340147D01*
X194906Y339640D01*
X195294Y339253D01*
X195800Y339043D01*
X196348D01*
X196855Y339253D01*
X197242Y339640D01*
X197452Y340147D01*
Y340695D01*
X197242Y341201D01*
X197204Y341240D01*
Y354316D01*
X197494Y354606D01*
X197704Y355113D01*
Y355661D01*
X197494Y356167D01*
X197106Y356555D01*
X196600Y356765D01*
D02*
G37*
G36*
X185943Y341772D02*
X185395D01*
X184889Y341562D01*
X184501Y341174D01*
X184291Y340668D01*
Y340120D01*
X184501Y339613D01*
X184889Y339226D01*
X185395Y339016D01*
X185943D01*
X186450Y339226D01*
X186837Y339613D01*
X187047Y340120D01*
Y340668D01*
X186837Y341174D01*
X186450Y341562D01*
X185943Y341772D01*
D02*
G37*
G36*
X109644Y341142D02*
X109096D01*
X108589Y340932D01*
X108202Y340544D01*
X107992Y340038D01*
Y339490D01*
X108202Y338983D01*
X108589Y338596D01*
X109096Y338386D01*
X109644D01*
X110151Y338596D01*
X110538Y338983D01*
X110748Y339490D01*
Y340038D01*
X110538Y340544D01*
X110151Y340932D01*
X109644Y341142D01*
D02*
G37*
G36*
X106534Y338425D02*
X105986D01*
X105479Y338215D01*
X105092Y337828D01*
X104882Y337321D01*
Y336773D01*
X105092Y336267D01*
X105479Y335879D01*
X105986Y335669D01*
X106534D01*
X107040Y335879D01*
X107428Y336267D01*
X107638Y336773D01*
Y337321D01*
X107428Y337828D01*
X107040Y338215D01*
X106534Y338425D01*
D02*
G37*
G36*
X280235Y328071D02*
X279686D01*
X279180Y327861D01*
X278793Y327473D01*
X278583Y326967D01*
Y326419D01*
X278793Y325912D01*
X279180Y325525D01*
X279686Y325315D01*
X280235D01*
X280741Y325525D01*
X281129Y325912D01*
X281339Y326419D01*
Y326967D01*
X281129Y327473D01*
X280741Y327861D01*
X280235Y328071D01*
D02*
G37*
G36*
X107411Y329419D02*
X99833D01*
Y321841D01*
X107411D01*
Y329419D01*
D02*
G37*
G36*
X79447Y356969D02*
X78899D01*
X78393Y356759D01*
X78005Y356371D01*
X77795Y355865D01*
Y355316D01*
X78005Y354810D01*
X78270Y354545D01*
Y330115D01*
X74147Y325992D01*
X73772D01*
X73266Y325782D01*
X72878Y325395D01*
X72668Y324888D01*
Y324340D01*
X72878Y323834D01*
X73266Y323446D01*
X73772Y323236D01*
X73877D01*
X74321Y323219D01*
X74339Y322774D01*
Y322670D01*
X74548Y322163D01*
X74936Y321776D01*
X75442Y321566D01*
X75991D01*
X76497Y321776D01*
X76885Y322163D01*
X77095Y322670D01*
Y323044D01*
X82174Y328124D01*
X82174Y328124D01*
X82370Y328417D01*
X82438Y328763D01*
X82438Y328763D01*
Y354273D01*
X82457Y354281D01*
X82845Y354669D01*
X83055Y355175D01*
Y355723D01*
X82845Y356230D01*
X82457Y356617D01*
X81951Y356827D01*
X81403D01*
X80896Y356617D01*
X80814Y356536D01*
X80352Y356375D01*
X80169Y356543D01*
X79954Y356759D01*
X79447Y356969D01*
D02*
G37*
G36*
X223446Y322874D02*
X222617D01*
X221816Y322659D01*
X221098Y322245D01*
X220511Y321658D01*
X220367Y321409D01*
X219790D01*
X219646Y321658D01*
X219060Y322245D01*
X218342Y322659D01*
X217541Y322874D01*
X216711D01*
X215910Y322659D01*
X215192Y322245D01*
X214606Y321658D01*
X214191Y320940D01*
X213976Y320139D01*
Y319310D01*
X214191Y318509D01*
X214606Y317790D01*
X215192Y317204D01*
X215441Y317060D01*
Y316483D01*
X215192Y316339D01*
X214606Y315753D01*
X214191Y315035D01*
X213976Y314234D01*
Y313404D01*
X214191Y312603D01*
X214606Y311885D01*
X214751Y311740D01*
X214544Y311240D01*
X182292D01*
X175499Y318032D01*
X175438Y318073D01*
X175263Y318497D01*
X174875Y318885D01*
X174369Y319094D01*
X173820D01*
X173314Y318885D01*
X172926Y318497D01*
X172716Y317991D01*
Y317442D01*
X172926Y316936D01*
X173314Y316548D01*
X173820Y316339D01*
X174355D01*
X181167Y309527D01*
X181492Y309309D01*
X181876Y309233D01*
X240866D01*
X241031Y309068D01*
X241537Y308858D01*
X242085D01*
X242592Y309068D01*
X242979Y309456D01*
X243189Y309962D01*
Y310510D01*
X242979Y311017D01*
X242592Y311404D01*
X242085Y311614D01*
X241537D01*
X241031Y311404D01*
X240866Y311240D01*
X225614D01*
X225407Y311740D01*
X225552Y311885D01*
X225967Y312603D01*
X226181Y313404D01*
Y314234D01*
X225967Y315035D01*
X225552Y315753D01*
X224965Y316339D01*
X224716Y316483D01*
Y317060D01*
X224965Y317204D01*
X225552Y317790D01*
X225967Y318509D01*
X226181Y319310D01*
Y320139D01*
X225967Y320940D01*
X225552Y321658D01*
X224965Y322245D01*
X224247Y322659D01*
X223446Y322874D01*
D02*
G37*
G36*
X206352Y322625D02*
X205804D01*
X205298Y322415D01*
X204910Y322028D01*
X204700Y321521D01*
Y320973D01*
X204910Y320467D01*
X205298Y320079D01*
X205804Y319869D01*
X206352D01*
X206859Y320079D01*
X207246Y320467D01*
X207456Y320973D01*
Y321521D01*
X207246Y322028D01*
X206859Y322415D01*
X206352Y322625D01*
D02*
G37*
G36*
X29093Y322141D02*
X28545D01*
X28038Y321931D01*
X27651Y321543D01*
X27441Y321037D01*
Y320489D01*
X27651Y319982D01*
X28038Y319594D01*
X28545Y319385D01*
X29093D01*
X29599Y319594D01*
X29987Y319982D01*
X30197Y320489D01*
Y321037D01*
X29987Y321543D01*
X29599Y321931D01*
X29093Y322141D01*
D02*
G37*
G36*
X440471Y323760D02*
X439923D01*
X439416Y323550D01*
X439029Y323162D01*
X438819Y322656D01*
Y322108D01*
X439029Y321601D01*
X439416Y321214D01*
X439923Y321004D01*
X440254D01*
X440460Y320504D01*
X440218Y320262D01*
X440008Y319755D01*
Y319207D01*
X440218Y318701D01*
X440606Y318313D01*
X441112Y318103D01*
X441660D01*
X442167Y318313D01*
X442555Y318701D01*
X442764Y319207D01*
Y319755D01*
X442555Y320262D01*
X442167Y320650D01*
X441660Y320859D01*
X441329D01*
X441123Y321359D01*
X441365Y321601D01*
X441575Y322108D01*
Y322656D01*
X441365Y323162D01*
X440977Y323550D01*
X440471Y323760D01*
D02*
G37*
G36*
X199346Y322379D02*
X198798D01*
X198291Y322169D01*
X197904Y321781D01*
X197694Y321275D01*
Y321171D01*
X197676Y320726D01*
X197232Y320709D01*
X197127D01*
X196621Y320499D01*
X196233Y320111D01*
X196024Y319605D01*
Y319057D01*
X196233Y318550D01*
X196621Y318162D01*
X197127Y317953D01*
X197676D01*
X198182Y318162D01*
X198570Y318550D01*
X198779Y319057D01*
Y319161D01*
X198797Y319605D01*
X199241Y319623D01*
X199346D01*
X199853Y319833D01*
X200240Y320220D01*
X200450Y320727D01*
Y321275D01*
X200240Y321781D01*
X199853Y322169D01*
X199346Y322379D01*
D02*
G37*
G36*
X456590Y322303D02*
X456042D01*
X455535Y322093D01*
X455148Y321706D01*
X454938Y321199D01*
Y320895D01*
X454928Y320646D01*
X454487Y320433D01*
X454372D01*
X453865Y320223D01*
X453477Y319836D01*
X453268Y319329D01*
Y318781D01*
X453477Y318275D01*
X453865Y317887D01*
X454372Y317677D01*
X454920D01*
X455426Y317887D01*
X455814Y318275D01*
X456024Y318781D01*
Y319085D01*
X456033Y319334D01*
X456474Y319547D01*
X456590D01*
X457096Y319757D01*
X457484Y320145D01*
X457694Y320651D01*
Y321199D01*
X457484Y321706D01*
X457096Y322093D01*
X456590Y322303D01*
D02*
G37*
G36*
X542549Y330709D02*
X541231D01*
X539937Y330451D01*
X538720Y329947D01*
X537623Y329214D01*
X536691Y328282D01*
X535959Y327186D01*
X535454Y325968D01*
X535197Y324675D01*
Y323357D01*
X535454Y322063D01*
X535959Y320845D01*
X536691Y319749D01*
X537623Y318817D01*
X538720Y318085D01*
X539937Y317580D01*
X541231Y317323D01*
X542549D01*
X543842Y317580D01*
X545060Y318085D01*
X546156Y318817D01*
X547088Y319749D01*
X547821Y320845D01*
X548325Y322063D01*
X548583Y323357D01*
Y324675D01*
X548325Y325968D01*
X547821Y327186D01*
X547088Y328282D01*
X546156Y329214D01*
X545060Y329947D01*
X543842Y330451D01*
X542549Y330709D01*
D02*
G37*
G36*
X340156Y319633D02*
X339608D01*
X339101Y319424D01*
X338714Y319036D01*
X338504Y318529D01*
Y317981D01*
X338714Y317475D01*
X339101Y317087D01*
X339608Y316877D01*
X340156D01*
X340662Y317087D01*
X341050Y317475D01*
X341260Y317981D01*
Y318529D01*
X341050Y319036D01*
X340662Y319424D01*
X340156Y319633D01*
D02*
G37*
G36*
X335038Y319567D02*
X334490D01*
X333983Y319357D01*
X333596Y318969D01*
X333386Y318463D01*
Y317915D01*
X333596Y317408D01*
X333983Y317021D01*
X334490Y316811D01*
X335038D01*
X335544Y317021D01*
X335932Y317408D01*
X336142Y317915D01*
Y318463D01*
X335932Y318969D01*
X335544Y319357D01*
X335038Y319567D01*
D02*
G37*
G36*
X325324Y314733D02*
X324776D01*
X324270Y314523D01*
X323882Y314135D01*
X323672Y313629D01*
Y313081D01*
X323882Y312574D01*
X324080Y312376D01*
X324118Y312189D01*
X324335Y311863D01*
X324341Y311858D01*
X324666Y311640D01*
X325050Y311564D01*
X325434Y311640D01*
X325760Y311858D01*
X325977Y312183D01*
X326014Y312370D01*
X326218Y312574D01*
X326428Y313081D01*
Y313629D01*
X326218Y314135D01*
X325831Y314523D01*
X325324Y314733D01*
D02*
G37*
G36*
X351770Y312795D02*
X351222D01*
X350715Y312585D01*
X350328Y312198D01*
X350118Y311691D01*
Y311143D01*
X350328Y310637D01*
X350715Y310249D01*
X351222Y310039D01*
X351770D01*
X352277Y310249D01*
X352664Y310637D01*
X352874Y311143D01*
Y311691D01*
X352664Y312198D01*
X352277Y312585D01*
X351770Y312795D01*
D02*
G37*
G36*
X343542Y311496D02*
X342994D01*
X342487Y311286D01*
X342100Y310899D01*
X341890Y310392D01*
Y309844D01*
X342100Y309338D01*
X342487Y308950D01*
X342653Y308881D01*
Y308340D01*
X342448Y308255D01*
X342060Y307867D01*
X341850Y307361D01*
Y306813D01*
X342060Y306306D01*
X342448Y305918D01*
X342954Y305709D01*
X343502D01*
X344009Y305918D01*
X344396Y306306D01*
X344606Y306813D01*
Y307361D01*
X344396Y307867D01*
X344009Y308255D01*
X343843Y308324D01*
Y308865D01*
X344048Y308950D01*
X344436Y309338D01*
X344646Y309844D01*
Y310392D01*
X344436Y310899D01*
X344048Y311286D01*
X343542Y311496D01*
D02*
G37*
G36*
X181888Y306575D02*
X181340D01*
X180834Y306365D01*
X180446Y305977D01*
X180236Y305471D01*
Y304923D01*
X180446Y304416D01*
X180834Y304029D01*
X181340Y303819D01*
X181888D01*
X182395Y304029D01*
X182782Y304416D01*
X182992Y304923D01*
Y305471D01*
X182782Y305977D01*
X182395Y306365D01*
X181888Y306575D01*
D02*
G37*
G36*
X213018Y305039D02*
X212470D01*
X211964Y304830D01*
X211576Y304442D01*
X211366Y303936D01*
Y303387D01*
X211576Y302881D01*
X211964Y302493D01*
X212470Y302284D01*
X213018D01*
X213525Y302493D01*
X213912Y302881D01*
X214122Y303387D01*
Y303936D01*
X213912Y304442D01*
X213525Y304830D01*
X213018Y305039D01*
D02*
G37*
G36*
X236809Y304724D02*
X236261D01*
X235755Y304515D01*
X235367Y304127D01*
X235157Y303621D01*
Y303072D01*
X235367Y302566D01*
X235755Y302178D01*
X236261Y301969D01*
X236809D01*
X237316Y302178D01*
X237704Y302566D01*
X237913Y303072D01*
Y303621D01*
X237704Y304127D01*
X237316Y304515D01*
X236809Y304724D01*
D02*
G37*
G36*
X320808Y302992D02*
X319979D01*
X319178Y302778D01*
X318460Y302363D01*
X318032Y301935D01*
X317603Y302363D01*
X316885Y302778D01*
X316084Y302992D01*
X315255D01*
X314454Y302778D01*
X313735Y302363D01*
X313307Y301935D01*
X312879Y302363D01*
X312161Y302778D01*
X311360Y302992D01*
X310530D01*
X309729Y302778D01*
X309011Y302363D01*
X308425Y301776D01*
X308010Y301058D01*
X307795Y300257D01*
Y299428D01*
X308010Y298627D01*
X308425Y297909D01*
X308715Y297618D01*
X308980Y297284D01*
X308715Y296949D01*
X308425Y296658D01*
X308010Y295940D01*
X307795Y295139D01*
Y294310D01*
X308010Y293509D01*
X308425Y292791D01*
X308715Y292500D01*
X308980Y292165D01*
X308715Y291831D01*
X308425Y291540D01*
X308010Y290822D01*
X307795Y290021D01*
Y289192D01*
X308010Y288391D01*
X308425Y287672D01*
X309011Y287086D01*
X309729Y286671D01*
X310530Y286457D01*
X311360D01*
X312161Y286671D01*
X312879Y287086D01*
X313307Y287514D01*
X313735Y287086D01*
X314454Y286671D01*
X315255Y286457D01*
X316084D01*
X316885Y286671D01*
X317603Y287086D01*
X318051Y287534D01*
X318499Y287086D01*
X319217Y286671D01*
X320018Y286457D01*
X320848D01*
X321649Y286671D01*
X322367Y287086D01*
X322953Y287672D01*
X323368Y288391D01*
X323583Y289192D01*
Y290021D01*
X323368Y290822D01*
X322953Y291540D01*
X322663Y291831D01*
X322398Y292165D01*
X322663Y292500D01*
X322953Y292791D01*
X323368Y293509D01*
X323583Y294310D01*
Y295139D01*
X323368Y295940D01*
X322953Y296658D01*
X322640Y296971D01*
X322380Y297263D01*
X322646Y297640D01*
X322914Y297909D01*
X323329Y298627D01*
X323543Y299428D01*
Y300257D01*
X323329Y301058D01*
X322914Y301776D01*
X322328Y302363D01*
X321609Y302778D01*
X320808Y302992D01*
D02*
G37*
G36*
X338895Y304842D02*
X338034D01*
X337238Y304513D01*
X336629Y303904D01*
X336299Y303108D01*
Y302246D01*
X336629Y301451D01*
X337238Y300841D01*
X338034Y300512D01*
X338895D01*
X339691Y300841D01*
X340300Y301451D01*
X340630Y302246D01*
Y303108D01*
X340300Y303904D01*
X339691Y304513D01*
X338895Y304842D01*
D02*
G37*
G36*
X333935D02*
X333073D01*
X332277Y304513D01*
X331668Y303904D01*
X331339Y303108D01*
Y302246D01*
X331668Y301451D01*
X332277Y300841D01*
X333073Y300512D01*
X333935D01*
X334731Y300841D01*
X335340Y301451D01*
X335669Y302246D01*
Y303108D01*
X335340Y303904D01*
X334731Y304513D01*
X333935Y304842D01*
D02*
G37*
G36*
X313384Y329331D02*
X312836D01*
X312330Y329121D01*
X311942Y328733D01*
X311732Y328227D01*
Y327679D01*
X311942Y327172D01*
X312107Y327008D01*
Y311418D01*
X312183Y311034D01*
X312401Y310708D01*
X315898Y307210D01*
X316224Y306993D01*
X316608Y306916D01*
X324114D01*
X324278Y306752D01*
X324636Y306604D01*
X324656Y306080D01*
X324298Y305932D01*
X323911Y305544D01*
X323701Y305038D01*
Y304490D01*
X323911Y303983D01*
X324298Y303596D01*
X324805Y303386D01*
X325353D01*
X325859Y303596D01*
X326104Y303841D01*
X326166Y303902D01*
X326590Y303619D01*
X326565Y303558D01*
X326378Y303108D01*
Y302246D01*
X326708Y301451D01*
X327317Y300841D01*
X328113Y300512D01*
X328974D01*
X329770Y300841D01*
X330379Y301451D01*
X330709Y302246D01*
Y303108D01*
X330379Y303904D01*
X329770Y304513D01*
X328974Y304842D01*
X328113D01*
X327317Y304513D01*
X326850Y304046D01*
X326789Y303985D01*
X326365Y304268D01*
X326390Y304328D01*
X326457Y304490D01*
Y305038D01*
X326247Y305544D01*
X325859Y305932D01*
X325502Y306080D01*
X325482Y306604D01*
X325840Y306752D01*
X326227Y307139D01*
X326437Y307646D01*
Y308194D01*
X326227Y308700D01*
X325840Y309088D01*
X325333Y309298D01*
X324785D01*
X324278Y309088D01*
X324114Y308924D01*
X317023D01*
X314114Y311833D01*
Y327008D01*
X314278Y327172D01*
X314488Y327679D01*
Y328227D01*
X314278Y328733D01*
X313891Y329121D01*
X313384Y329331D01*
D02*
G37*
G36*
X542549Y312402D02*
X541231D01*
X539937Y312144D01*
X538720Y311640D01*
X537623Y310907D01*
X536691Y309975D01*
X535959Y308879D01*
X535454Y307661D01*
X535197Y306368D01*
Y305049D01*
X535454Y303756D01*
X535959Y302538D01*
X536691Y301442D01*
X537623Y300510D01*
X538720Y299778D01*
X539937Y299273D01*
X541231Y299016D01*
X542549D01*
X543842Y299273D01*
X545060Y299778D01*
X546156Y300510D01*
X547088Y301442D01*
X547821Y302538D01*
X548325Y303756D01*
X548583Y305049D01*
Y306368D01*
X548325Y307661D01*
X547821Y308879D01*
X547088Y309975D01*
X546156Y310907D01*
X545060Y311640D01*
X543842Y312144D01*
X542549Y312402D01*
D02*
G37*
G36*
X98148Y301693D02*
X97600D01*
X97093Y301483D01*
X96706Y301096D01*
X96496Y300589D01*
Y300041D01*
X96706Y299534D01*
X97093Y299147D01*
X97600Y298937D01*
X98148D01*
X98655Y299147D01*
X99042Y299534D01*
X99252Y300041D01*
Y300589D01*
X99042Y301096D01*
X98655Y301483D01*
X98148Y301693D01*
D02*
G37*
G36*
X348682Y305157D02*
X347853D01*
X347052Y304943D01*
X346334Y304528D01*
X345747Y303942D01*
X345333Y303224D01*
X345118Y302422D01*
Y301593D01*
X345333Y300792D01*
X345747Y300074D01*
X346334Y299488D01*
X347052Y299073D01*
X347853Y298858D01*
X348682D01*
X349483Y299073D01*
X350202Y299488D01*
X350788Y300074D01*
X351203Y300792D01*
X351417Y301593D01*
Y302422D01*
X351203Y303224D01*
X350788Y303942D01*
X350202Y304528D01*
X349483Y304943D01*
X348682Y305157D01*
D02*
G37*
G36*
X117189Y300299D02*
X116641D01*
X116134Y300089D01*
X115746Y299702D01*
X115537Y299195D01*
Y298647D01*
X115746Y298141D01*
X116134Y297753D01*
X116641Y297543D01*
X117189D01*
X117695Y297753D01*
X118083Y298141D01*
X118293Y298647D01*
Y299195D01*
X118083Y299702D01*
X117695Y300089D01*
X117189Y300299D01*
D02*
G37*
G36*
X75469Y310945D02*
X74921D01*
X74414Y310735D01*
X74027Y310348D01*
X73817Y309841D01*
Y309293D01*
X74027Y308786D01*
X74191Y308622D01*
Y302169D01*
X74112Y302050D01*
X74036Y301666D01*
Y294134D01*
X74112Y293750D01*
X74330Y293424D01*
X77164Y290590D01*
X77490Y290372D01*
X77874Y290296D01*
X82262D01*
X82426Y290131D01*
X82933Y289921D01*
X83481D01*
X83987Y290131D01*
X84375Y290519D01*
X84585Y291025D01*
Y291573D01*
X84375Y292080D01*
X83987Y292467D01*
X83481Y292677D01*
X82933D01*
X82426Y292467D01*
X82262Y292303D01*
X78290D01*
X77434Y293158D01*
X77677Y293622D01*
X78069D01*
X78576Y293832D01*
X78964Y294219D01*
X79173Y294726D01*
Y295274D01*
X78964Y295781D01*
X78576Y296168D01*
X78069Y296378D01*
X77521D01*
X77015Y296168D01*
X76627Y295781D01*
X76543Y295577D01*
X76043Y295676D01*
Y301319D01*
X76122Y301438D01*
X76199Y301822D01*
Y308622D01*
X76363Y308786D01*
X76573Y309293D01*
Y309841D01*
X76363Y310348D01*
X75976Y310735D01*
X75469Y310945D01*
D02*
G37*
G36*
X64605Y292677D02*
X64057D01*
X63550Y292467D01*
X63163Y292080D01*
X62953Y291573D01*
Y291025D01*
X63163Y290519D01*
X63550Y290131D01*
X64057Y289921D01*
X64605D01*
X65111Y290131D01*
X65499Y290519D01*
X65709Y291025D01*
Y291573D01*
X65499Y292080D01*
X65111Y292467D01*
X64605Y292677D01*
D02*
G37*
G36*
X71142Y310945D02*
X70594D01*
X70087Y310735D01*
X69700Y310348D01*
X69490Y309841D01*
Y309293D01*
X69700Y308786D01*
X69883Y308603D01*
Y292186D01*
X69737Y292040D01*
X69528Y291534D01*
Y290986D01*
X69737Y290479D01*
X70125Y290092D01*
X70631Y289882D01*
X71180D01*
X71686Y290092D01*
X72074Y290479D01*
X72284Y290986D01*
Y291534D01*
X72074Y292040D01*
X71890Y292224D01*
Y308641D01*
X72036Y308786D01*
X72246Y309293D01*
Y309841D01*
X72036Y310348D01*
X71648Y310735D01*
X71142Y310945D01*
D02*
G37*
G36*
X175628Y289724D02*
X175080D01*
X174574Y289515D01*
X174186Y289127D01*
X173976Y288621D01*
Y288072D01*
X174186Y287566D01*
X174574Y287178D01*
X175080Y286968D01*
X175628D01*
X176135Y287178D01*
X176523Y287566D01*
X176732Y288072D01*
Y288621D01*
X176523Y289127D01*
X176135Y289515D01*
X175628Y289724D01*
D02*
G37*
G36*
X101983Y289620D02*
X101435D01*
X100929Y289410D01*
X100541Y289023D01*
X100331Y288516D01*
Y287968D01*
X100541Y287462D01*
X100929Y287074D01*
X101435Y286864D01*
X101920D01*
X102021Y286828D01*
X102382Y286488D01*
Y286153D01*
X102592Y285646D01*
X102979Y285259D01*
X103486Y285049D01*
X104034D01*
X104541Y285259D01*
X104928Y285646D01*
X105138Y286153D01*
Y286701D01*
X104928Y287208D01*
X104541Y287595D01*
X104034Y287805D01*
X103549D01*
X103448Y287841D01*
X103087Y288181D01*
Y288516D01*
X102877Y289023D01*
X102490Y289410D01*
X101983Y289620D01*
D02*
G37*
G36*
X290234Y288898D02*
X289372D01*
X288577Y288568D01*
X287967Y287959D01*
X287638Y287163D01*
Y286302D01*
X287967Y285506D01*
X288577Y284897D01*
X289372Y284567D01*
X290234D01*
X291030Y284897D01*
X291639Y285506D01*
X291968Y286302D01*
Y287163D01*
X291639Y287959D01*
X291030Y288568D01*
X290234Y288898D01*
D02*
G37*
G36*
X273324Y302559D02*
X271558D01*
X269813Y302283D01*
X268134Y301737D01*
X266560Y300935D01*
X265131Y299897D01*
X263882Y298648D01*
X262844Y297219D01*
X262042Y295646D01*
X261497Y293966D01*
X261221Y292222D01*
Y290456D01*
X261497Y288711D01*
X262042Y287031D01*
X262844Y285458D01*
X263882Y284029D01*
X265131Y282780D01*
X266560Y281742D01*
X268134Y280940D01*
X269813Y280394D01*
X271558Y280118D01*
X273324D01*
X275068Y280394D01*
X276748Y280940D01*
X278322Y281742D01*
X279751Y282780D01*
X280999Y284029D01*
X282038Y285458D01*
X282180Y285737D01*
X282730Y285715D01*
X282849Y285427D01*
X283458Y284818D01*
X284254Y284488D01*
X285116D01*
X285912Y284818D01*
X286521Y285427D01*
X286850Y286223D01*
Y287084D01*
X286521Y287880D01*
X285912Y288489D01*
X285116Y288819D01*
X284254D01*
X283884Y288666D01*
X283434Y289020D01*
X283661Y290456D01*
Y292222D01*
X283385Y293966D01*
X282839Y295646D01*
X282038Y297219D01*
X280999Y298648D01*
X279751Y299897D01*
X278322Y300935D01*
X276748Y301737D01*
X275068Y302283D01*
X273324Y302559D01*
D02*
G37*
G36*
X165392Y283543D02*
X164844D01*
X164338Y283333D01*
X163950Y282946D01*
X163740Y282439D01*
Y281891D01*
X163950Y281385D01*
X164338Y280997D01*
X164844Y280787D01*
X165392D01*
X165899Y280997D01*
X166286Y281385D01*
X166496Y281891D01*
Y282439D01*
X166286Y282946D01*
X165899Y283333D01*
X165392Y283543D01*
D02*
G37*
G36*
X150943Y283504D02*
X150395D01*
X149889Y283294D01*
X149501Y282907D01*
X149291Y282400D01*
Y281852D01*
X149501Y281345D01*
X149889Y280958D01*
X150395Y280748D01*
X150943D01*
X151450Y280958D01*
X151838Y281345D01*
X152047Y281852D01*
Y282400D01*
X151838Y282907D01*
X151450Y283294D01*
X150943Y283504D01*
D02*
G37*
G36*
X370962Y302559D02*
X369196D01*
X367451Y302283D01*
X365772Y301737D01*
X364198Y300935D01*
X362769Y299897D01*
X361520Y298648D01*
X360482Y297219D01*
X359680Y295646D01*
X359135Y293966D01*
X358858Y292222D01*
Y290456D01*
X359135Y288711D01*
X359680Y287031D01*
X360482Y285458D01*
X361520Y284029D01*
X362769Y282780D01*
X364198Y281742D01*
X365772Y280940D01*
X367451Y280394D01*
X369196Y280118D01*
X370962D01*
X372706Y280394D01*
X374386Y280940D01*
X375959Y281742D01*
X377388Y282780D01*
X378637Y284029D01*
X379675Y285458D01*
X380477Y287031D01*
X381023Y288711D01*
X381299Y290456D01*
Y292222D01*
X381023Y293966D01*
X380477Y295646D01*
X379675Y297219D01*
X378637Y298648D01*
X377388Y299897D01*
X375959Y300935D01*
X374386Y301737D01*
X372706Y302283D01*
X370962Y302559D01*
D02*
G37*
G36*
X349273Y286181D02*
X348444D01*
X347643Y285966D01*
X346924Y285552D01*
X346338Y284965D01*
X345923Y284247D01*
X345709Y283446D01*
Y282617D01*
X345923Y281816D01*
X346338Y281098D01*
X346924Y280511D01*
X347643Y280097D01*
X348444Y279882D01*
X349273D01*
X350074Y280097D01*
X350792Y280511D01*
X351379Y281098D01*
X351793Y281816D01*
X352008Y282617D01*
Y283446D01*
X351793Y284247D01*
X351379Y284965D01*
X350792Y285552D01*
X350074Y285966D01*
X349273Y286181D01*
D02*
G37*
G36*
X201101Y299134D02*
X200553D01*
X200046Y298924D01*
X199659Y298536D01*
X199449Y298030D01*
Y297482D01*
X199659Y296975D01*
X199823Y296811D01*
Y277975D01*
X198423Y276575D01*
X198190D01*
X197684Y276365D01*
X197296Y275977D01*
X197087Y275471D01*
Y274923D01*
X197296Y274416D01*
X197684Y274029D01*
X198190Y273819D01*
X198739D01*
X199245Y274029D01*
X199633Y274416D01*
X199843Y274923D01*
Y275156D01*
X201536Y276849D01*
X201754Y277175D01*
X201830Y277559D01*
Y278879D01*
X202330Y279213D01*
X202521Y279134D01*
X203069D01*
X203576Y279344D01*
X203963Y279731D01*
X204173Y280238D01*
Y280786D01*
X203963Y281292D01*
X203576Y281680D01*
X203069Y281890D01*
X202521D01*
X202330Y281811D01*
X201830Y282145D01*
Y296811D01*
X201995Y296975D01*
X202205Y297482D01*
Y298030D01*
X201995Y298536D01*
X201607Y298924D01*
X201101Y299134D01*
D02*
G37*
G36*
X223446Y278425D02*
X222617D01*
X221816Y278211D01*
X221098Y277796D01*
X220511Y277209D01*
X220367Y276960D01*
X219790D01*
X219646Y277209D01*
X219060Y277796D01*
X218342Y278211D01*
X217541Y278425D01*
X216711D01*
X215910Y278211D01*
X215192Y277796D01*
X214606Y277209D01*
X214191Y276491D01*
X213976Y275690D01*
Y274861D01*
X214191Y274060D01*
X214606Y273342D01*
X215192Y272755D01*
X215441Y272612D01*
Y272034D01*
X215192Y271890D01*
X214606Y271304D01*
X214191Y270586D01*
X213976Y269785D01*
Y268955D01*
X214191Y268155D01*
X214606Y267436D01*
X215192Y266850D01*
X215910Y266435D01*
X216711Y266221D01*
X217541D01*
X218342Y266435D01*
X219060Y266850D01*
X219646Y267436D01*
X219790Y267685D01*
X220367D01*
X220511Y267436D01*
X221098Y266850D01*
X221816Y266435D01*
X222617Y266221D01*
X223446D01*
X224247Y266435D01*
X224965Y266850D01*
X225552Y267436D01*
X225967Y268155D01*
X226181Y268955D01*
Y269785D01*
X225967Y270586D01*
X225552Y271304D01*
X224965Y271890D01*
X224716Y272034D01*
Y272612D01*
X224965Y272755D01*
X225552Y273342D01*
X225967Y274060D01*
X226181Y274861D01*
Y275690D01*
X225967Y276491D01*
X225552Y277209D01*
X224965Y277796D01*
X224247Y278211D01*
X223446Y278425D01*
D02*
G37*
G36*
X110195Y279528D02*
X109647D01*
X109141Y279318D01*
X108753Y278930D01*
X108543Y278424D01*
Y277875D01*
X108753Y277369D01*
X109141Y276981D01*
X109647Y276772D01*
X110195D01*
X110702Y276981D01*
X111089Y277369D01*
X111299Y277875D01*
Y278424D01*
X111089Y278930D01*
X110702Y279318D01*
X110195Y279528D01*
D02*
G37*
G36*
X447489Y279466D02*
X446941D01*
X446434Y279256D01*
X446047Y278868D01*
X445837Y278362D01*
Y277814D01*
X446047Y277307D01*
X446434Y276920D01*
X446941Y276710D01*
X447489D01*
X447995Y276920D01*
X448383Y277307D01*
X448593Y277814D01*
Y278362D01*
X448383Y278868D01*
X447995Y279256D01*
X447489Y279466D01*
D02*
G37*
G36*
X196573Y299331D02*
X196025D01*
X195519Y299121D01*
X195131Y298733D01*
X194921Y298227D01*
Y297781D01*
X194133Y296993D01*
X193915Y296667D01*
X193839Y296283D01*
Y277874D01*
X193674Y277710D01*
X193465Y277203D01*
Y276655D01*
X193674Y276149D01*
X194062Y275761D01*
X194569Y275551D01*
X195117D01*
X195623Y275761D01*
X196011Y276149D01*
X196221Y276655D01*
Y277203D01*
X196011Y277710D01*
X195846Y277874D01*
Y295867D01*
X196554Y296575D01*
X196573D01*
X197080Y296785D01*
X197467Y297172D01*
X197677Y297679D01*
Y298227D01*
X197467Y298733D01*
X197080Y299121D01*
X196573Y299331D01*
D02*
G37*
G36*
X295352Y288898D02*
X294491D01*
X293695Y288568D01*
X293086Y287959D01*
X292756Y287163D01*
Y286302D01*
X293086Y285506D01*
X293695Y284897D01*
X294491Y284567D01*
X294532D01*
X296619Y282480D01*
Y275679D01*
X296157Y275488D01*
X296148Y275497D01*
X295352Y275827D01*
X294491D01*
X293695Y275497D01*
X293086Y274888D01*
X292756Y274092D01*
Y273231D01*
X293086Y272435D01*
X293695Y271826D01*
X294491Y271496D01*
X295352D01*
X296148Y271826D01*
X296157Y271835D01*
X296619Y271644D01*
Y270429D01*
X296589Y270400D01*
X296260Y269604D01*
Y268742D01*
X296589Y267947D01*
X297199Y267337D01*
X297994Y267008D01*
X298856D01*
X299652Y267337D01*
X300261Y267947D01*
X300590Y268742D01*
Y269604D01*
X300261Y270400D01*
X300232Y270429D01*
Y283229D01*
X300094Y283920D01*
X299703Y284506D01*
X297087Y287122D01*
Y287163D01*
X296757Y287959D01*
X296148Y288568D01*
X295352Y288898D01*
D02*
G37*
G36*
X185628Y277913D02*
X185080D01*
X184574Y277704D01*
X184186Y277316D01*
X183976Y276810D01*
Y276261D01*
X184186Y275755D01*
X184574Y275367D01*
X185080Y275157D01*
X185628D01*
X186135Y275367D01*
X186523Y275755D01*
X186732Y276261D01*
Y276810D01*
X186523Y277316D01*
X186135Y277704D01*
X185628Y277913D01*
D02*
G37*
G36*
X528113Y282920D02*
X527002D01*
X525929Y282632D01*
X524967Y282077D01*
X524181Y281291D01*
X523626Y280329D01*
X523338Y279256D01*
Y278145D01*
X523626Y277073D01*
X524181Y276111D01*
X524967Y275325D01*
X525929Y274770D01*
X527002Y274482D01*
X528113D01*
X529185Y274770D01*
X530148Y275325D01*
X530933Y276111D01*
X531488Y277073D01*
X531776Y278145D01*
Y279256D01*
X531488Y280329D01*
X530933Y281291D01*
X530148Y282077D01*
X529185Y282632D01*
X528113Y282920D01*
D02*
G37*
G36*
X488112D02*
X487002D01*
X485929Y282632D01*
X484967Y282077D01*
X484181Y281291D01*
X483626Y280329D01*
X483338Y279256D01*
Y278145D01*
X483626Y277073D01*
X484181Y276111D01*
X484967Y275325D01*
X485929Y274770D01*
X487002Y274482D01*
X488112D01*
X489185Y274770D01*
X490147Y275325D01*
X490933Y276111D01*
X491488Y277073D01*
X491776Y278145D01*
Y279256D01*
X491488Y280329D01*
X490933Y281291D01*
X490147Y282077D01*
X489185Y282632D01*
X488112Y282920D01*
D02*
G37*
G36*
X357383Y275472D02*
X356554D01*
X355753Y275258D01*
X355035Y274843D01*
X354448Y274257D01*
X354265Y273939D01*
X353688D01*
X353505Y274257D01*
X352918Y274843D01*
X352200Y275258D01*
X351399Y275472D01*
X350570D01*
X349769Y275258D01*
X349050Y274843D01*
X348464Y274257D01*
X348321Y274009D01*
X347821D01*
X347678Y274257D01*
X347091Y274843D01*
X346373Y275258D01*
X345572Y275472D01*
X344743D01*
X343942Y275258D01*
X343224Y274843D01*
X342637Y274257D01*
X342493Y274008D01*
X341916D01*
X341772Y274257D01*
X341186Y274843D01*
X340468Y275258D01*
X339667Y275472D01*
X338837D01*
X338036Y275258D01*
X337318Y274843D01*
X336732Y274257D01*
X336588Y274008D01*
X336011D01*
X335867Y274257D01*
X335280Y274843D01*
X334562Y275258D01*
X333761Y275472D01*
X332932D01*
X332131Y275258D01*
X331413Y274843D01*
X330826Y274257D01*
X330682Y274008D01*
X330105D01*
X329961Y274257D01*
X329375Y274843D01*
X328657Y275258D01*
X327856Y275472D01*
X327026D01*
X326225Y275258D01*
X325507Y274843D01*
X324921Y274257D01*
X324506Y273538D01*
X324291Y272738D01*
Y271908D01*
X324506Y271107D01*
X324921Y270389D01*
X325507Y269802D01*
X326225Y269388D01*
X327026Y269173D01*
X327856D01*
X328657Y269388D01*
X329375Y269802D01*
X329961Y270389D01*
X330105Y270638D01*
X330682D01*
X330826Y270389D01*
X331413Y269802D01*
X332131Y269388D01*
X332932Y269173D01*
X333761D01*
X334562Y269388D01*
X335280Y269802D01*
X335867Y270389D01*
X336011Y270638D01*
X336588D01*
X336732Y270389D01*
X337318Y269802D01*
X338036Y269388D01*
X338837Y269173D01*
X339667D01*
X340468Y269388D01*
X341186Y269802D01*
X341772Y270389D01*
X341916Y270638D01*
X342493D01*
X342637Y270389D01*
X343224Y269802D01*
X343942Y269388D01*
X344743Y269173D01*
X345572D01*
X346373Y269388D01*
X347091Y269802D01*
X347678Y270389D01*
X347821Y270637D01*
X348321D01*
X348464Y270389D01*
X349050Y269802D01*
X349769Y269388D01*
X350570Y269173D01*
X351399D01*
X352200Y269388D01*
X352918Y269802D01*
X353505Y270389D01*
X353688Y270706D01*
X354265D01*
X354448Y270389D01*
X355035Y269802D01*
X355753Y269388D01*
X356554Y269173D01*
X357383D01*
X358184Y269388D01*
X358902Y269802D01*
X359489Y270389D01*
X359904Y271107D01*
X360118Y271908D01*
Y272738D01*
X359904Y273538D01*
X359489Y274257D01*
X358902Y274843D01*
X358184Y275258D01*
X357383Y275472D01*
D02*
G37*
G36*
X165510Y276693D02*
X164962D01*
X164456Y276483D01*
X164068Y276096D01*
X163858Y275589D01*
Y275041D01*
X164068Y274534D01*
X164456Y274147D01*
X164962Y273937D01*
X165510D01*
X166017Y274147D01*
X166404Y274534D01*
X166614Y275041D01*
Y275589D01*
X166404Y276096D01*
X166017Y276483D01*
X165510Y276693D01*
D02*
G37*
G36*
X-36458Y275315D02*
X-37006D01*
X-37513Y275105D01*
X-37901Y274718D01*
X-38110Y274211D01*
Y273663D01*
X-37901Y273156D01*
X-37513Y272769D01*
X-37006Y272559D01*
X-36458D01*
X-35952Y272769D01*
X-35564Y273156D01*
X-35354Y273663D01*
Y274211D01*
X-35564Y274718D01*
X-35952Y275105D01*
X-36458Y275315D01*
D02*
G37*
G36*
X290234Y275827D02*
X289372D01*
X288577Y275497D01*
X287967Y274888D01*
X287638Y274092D01*
Y273231D01*
X287967Y272435D01*
X288577Y271826D01*
X289372Y271496D01*
X290234D01*
X291030Y271826D01*
X291639Y272435D01*
X291968Y273231D01*
Y274092D01*
X291639Y274888D01*
X291030Y275497D01*
X290234Y275827D01*
D02*
G37*
G36*
X285116D02*
X284254D01*
X283458Y275497D01*
X282849Y274888D01*
X282520Y274092D01*
Y273231D01*
X282849Y272435D01*
X283458Y271826D01*
X284254Y271496D01*
X285116D01*
X285912Y271826D01*
X286521Y272435D01*
X286850Y273231D01*
Y274092D01*
X286521Y274888D01*
X285912Y275497D01*
X285116Y275827D01*
D02*
G37*
G36*
X-4253Y273346D02*
X-4802D01*
X-5308Y273137D01*
X-5696Y272749D01*
X-5906Y272243D01*
Y271694D01*
X-5696Y271188D01*
X-5308Y270800D01*
X-4802Y270590D01*
X-4253D01*
X-3747Y270800D01*
X-3359Y271188D01*
X-3150Y271694D01*
Y272243D01*
X-3359Y272749D01*
X-3747Y273137D01*
X-4253Y273346D01*
D02*
G37*
G36*
X443598Y273212D02*
X443049D01*
X442543Y273002D01*
X442155Y272615D01*
X441945Y272108D01*
Y271560D01*
X442155Y271054D01*
X442543Y270666D01*
X443049Y270456D01*
X443598D01*
X444104Y270666D01*
X444491Y271054D01*
X444701Y271560D01*
Y272108D01*
X444491Y272615D01*
X444104Y273002D01*
X443598Y273212D01*
D02*
G37*
G36*
X412924Y269324D02*
X412376D01*
X411870Y269115D01*
X411482Y268727D01*
X411272Y268220D01*
Y267672D01*
X411482Y267166D01*
X411870Y266778D01*
X412376Y266568D01*
X412924D01*
X413431Y266778D01*
X413819Y267166D01*
X414028Y267672D01*
Y268220D01*
X413819Y268727D01*
X413431Y269115D01*
X412924Y269324D01*
D02*
G37*
G36*
X-40080Y269055D02*
X-40628D01*
X-41135Y268845D01*
X-41522Y268458D01*
X-41732Y267951D01*
Y267403D01*
X-41522Y266897D01*
X-41135Y266509D01*
X-40628Y266299D01*
X-40080D01*
X-39574Y266509D01*
X-39186Y266897D01*
X-38976Y267403D01*
Y267951D01*
X-39186Y268458D01*
X-39574Y268845D01*
X-40080Y269055D01*
D02*
G37*
G36*
X430943Y288110D02*
X430395D01*
X429889Y287900D01*
X429501Y287513D01*
X429291Y287006D01*
Y286561D01*
X428779Y286048D01*
X428561Y285722D01*
X428485Y285338D01*
Y268111D01*
X428320Y267946D01*
X428110Y267440D01*
Y266891D01*
X428320Y266385D01*
X428708Y265997D01*
X429214Y265788D01*
X429762D01*
X430269Y265997D01*
X430656Y266385D01*
X430866Y266891D01*
Y267440D01*
X430656Y267946D01*
X430492Y268111D01*
Y284922D01*
X430924Y285354D01*
X430943D01*
X431450Y285564D01*
X431838Y285952D01*
X432047Y286458D01*
Y287006D01*
X431838Y287513D01*
X431450Y287900D01*
X430943Y288110D01*
D02*
G37*
G36*
X424447Y288150D02*
X423899D01*
X423393Y287940D01*
X423005Y287552D01*
X422795Y287046D01*
Y286497D01*
X423005Y285991D01*
X423393Y285603D01*
X423899Y285394D01*
X423919D01*
X423957Y285355D01*
Y268111D01*
X423792Y267946D01*
X423583Y267440D01*
Y266891D01*
X423792Y266385D01*
X424180Y265997D01*
X424686Y265788D01*
X425235D01*
X425741Y265997D01*
X426129Y266385D01*
X426338Y266891D01*
Y267440D01*
X426129Y267946D01*
X425964Y268111D01*
Y285771D01*
X425888Y286155D01*
X425670Y286481D01*
X425551Y286600D01*
Y287046D01*
X425341Y287552D01*
X424954Y287940D01*
X424447Y288150D01*
D02*
G37*
G36*
X156Y267284D02*
X-392D01*
X-899Y267074D01*
X-1286Y266686D01*
X-1496Y266180D01*
Y265631D01*
X-1286Y265125D01*
X-899Y264737D01*
X-392Y264528D01*
X156D01*
X662Y264737D01*
X1050Y265125D01*
X1260Y265631D01*
Y266180D01*
X1050Y266686D01*
X662Y267074D01*
X156Y267284D01*
D02*
G37*
G36*
X274566Y264882D02*
X274017D01*
X273511Y264672D01*
X273123Y264284D01*
X272914Y263778D01*
Y263230D01*
X273123Y262723D01*
X273511Y262336D01*
X274017Y262126D01*
X274566D01*
X275072Y262336D01*
X275460Y262723D01*
X275670Y263230D01*
Y263778D01*
X275460Y264284D01*
X275072Y264672D01*
X274566Y264882D01*
D02*
G37*
G36*
X-27600Y263032D02*
X-28148D01*
X-28655Y262822D01*
X-29042Y262434D01*
X-29252Y261928D01*
Y261379D01*
X-29042Y260873D01*
X-28655Y260485D01*
X-28148Y260276D01*
X-27600D01*
X-27093Y260485D01*
X-26706Y260873D01*
X-26496Y261379D01*
Y261928D01*
X-26706Y262434D01*
X-27093Y262822D01*
X-27600Y263032D01*
D02*
G37*
G36*
X-38151Y262874D02*
X-38699D01*
X-39206Y262664D01*
X-39593Y262277D01*
X-39803Y261770D01*
Y261222D01*
X-39593Y260716D01*
X-39206Y260328D01*
X-38699Y260118D01*
X-38151D01*
X-37645Y260328D01*
X-37257Y260716D01*
X-37047Y261222D01*
Y261770D01*
X-37257Y262277D01*
X-37645Y262664D01*
X-38151Y262874D01*
D02*
G37*
G36*
X114841Y261260D02*
X114293D01*
X113786Y261050D01*
X113399Y260662D01*
X113189Y260156D01*
Y259608D01*
X113399Y259101D01*
X113786Y258714D01*
X114293Y258504D01*
X114841D01*
X115348Y258714D01*
X115735Y259101D01*
X115945Y259608D01*
Y260156D01*
X115735Y260662D01*
X115348Y261050D01*
X114841Y261260D01*
D02*
G37*
G36*
X274061Y260152D02*
X273513D01*
X273006Y259942D01*
X272619Y259555D01*
X272409Y259048D01*
Y258500D01*
X272619Y257993D01*
X273006Y257606D01*
X273513Y257396D01*
X274061D01*
X274568Y257606D01*
X274955Y257993D01*
X275165Y258500D01*
Y259048D01*
X274955Y259555D01*
X274568Y259942D01*
X274061Y260152D01*
D02*
G37*
G36*
X282534Y259921D02*
X281986D01*
X281480Y259712D01*
X281092Y259324D01*
X280882Y258818D01*
Y258269D01*
X281092Y257763D01*
X281480Y257375D01*
X281986Y257166D01*
X282534D01*
X283041Y257375D01*
X283428Y257763D01*
X283638Y258269D01*
Y258818D01*
X283428Y259324D01*
X283041Y259712D01*
X282534Y259921D01*
D02*
G37*
G36*
X-34962Y259488D02*
X-35510D01*
X-36017Y259278D01*
X-36404Y258891D01*
X-36614Y258384D01*
Y257836D01*
X-36404Y257330D01*
X-36017Y256942D01*
X-35510Y256732D01*
X-34962D01*
X-34456Y256942D01*
X-34068Y257330D01*
X-33858Y257836D01*
Y258384D01*
X-34068Y258891D01*
X-34456Y259278D01*
X-34962Y259488D01*
D02*
G37*
G36*
X406849Y257613D02*
X406301D01*
X405794Y257403D01*
X405407Y257015D01*
X405197Y256509D01*
Y255961D01*
X405407Y255454D01*
X405794Y255067D01*
X406301Y254857D01*
X406849D01*
X407355Y255067D01*
X407743Y255454D01*
X407953Y255961D01*
Y256509D01*
X407743Y257015D01*
X407355Y257403D01*
X406849Y257613D01*
D02*
G37*
G36*
X-12757Y255866D02*
X-13306D01*
X-13812Y255656D01*
X-14200Y255269D01*
X-14410Y254762D01*
Y254214D01*
X-14200Y253708D01*
X-13812Y253320D01*
X-13306Y253110D01*
X-12757D01*
X-12251Y253320D01*
X-11863Y253708D01*
X-11654Y254214D01*
Y254762D01*
X-11863Y255269D01*
X-12251Y255656D01*
X-12757Y255866D01*
D02*
G37*
G36*
X503288Y266526D02*
X501747D01*
X500235Y266225D01*
X498811Y265635D01*
X497530Y264779D01*
X496440Y263689D01*
X495583Y262407D01*
X494994Y260983D01*
X494693Y259472D01*
Y257930D01*
X494994Y256418D01*
X495583Y254994D01*
X496440Y253713D01*
X497530Y252623D01*
X498811Y251767D01*
X500235Y251177D01*
X501747Y250876D01*
X503288D01*
X504800Y251177D01*
X506224Y251767D01*
X507506Y252623D01*
X508596Y253713D01*
X509452Y254994D01*
X510042Y256418D01*
X510343Y257930D01*
Y259472D01*
X510042Y260983D01*
X509452Y262407D01*
X508596Y263689D01*
X507506Y264779D01*
X506224Y265635D01*
X504800Y266225D01*
X503288Y266526D01*
D02*
G37*
G36*
X204644Y253583D02*
X204096D01*
X203590Y253373D01*
X203202Y252985D01*
X202992Y252479D01*
Y251931D01*
X203202Y251424D01*
X203590Y251037D01*
X204096Y250827D01*
X204644D01*
X205151Y251037D01*
X205538Y251424D01*
X205748Y251931D01*
Y252479D01*
X205538Y252985D01*
X205151Y253373D01*
X204644Y253583D01*
D02*
G37*
G36*
X-30356Y253150D02*
X-30904D01*
X-31410Y252940D01*
X-31798Y252552D01*
X-32008Y252046D01*
Y251498D01*
X-31798Y250991D01*
X-31410Y250604D01*
X-30904Y250394D01*
X-30356D01*
X-29849Y250604D01*
X-29462Y250991D01*
X-29252Y251498D01*
Y252046D01*
X-29462Y252552D01*
X-29849Y252940D01*
X-30356Y253150D01*
D02*
G37*
G36*
X217541Y261535D02*
X216711D01*
X215910Y261321D01*
X215192Y260906D01*
X214606Y260320D01*
X214191Y259601D01*
X213977Y258801D01*
Y257971D01*
X214191Y257170D01*
X214606Y256452D01*
X215192Y255866D01*
X215441Y255722D01*
Y255144D01*
X215192Y255001D01*
X214606Y254414D01*
X214191Y253696D01*
X213977Y252895D01*
Y252066D01*
X214191Y251265D01*
X214606Y250546D01*
X215192Y249960D01*
X215910Y249545D01*
X216711Y249331D01*
X217541D01*
X218342Y249545D01*
X219060Y249960D01*
X219646Y250546D01*
X219790Y250795D01*
X220368D01*
X220511Y250546D01*
X221098Y249960D01*
X221816Y249545D01*
X222617Y249331D01*
X223446D01*
X224247Y249545D01*
X224965Y249960D01*
X225552Y250546D01*
X225967Y251265D01*
X226181Y252066D01*
Y252895D01*
X225967Y253696D01*
X225552Y254414D01*
X224965Y255001D01*
X224734Y255134D01*
Y255712D01*
X224978Y255853D01*
X225565Y256439D01*
X225979Y257157D01*
X226194Y257958D01*
Y258788D01*
X225979Y259589D01*
X225565Y260307D01*
X224978Y260893D01*
X224260Y261308D01*
X223459Y261523D01*
X222629D01*
X221829Y261308D01*
X221110Y260893D01*
X220524Y260307D01*
X220377Y260053D01*
X219800D01*
X219646Y260320D01*
X219060Y260906D01*
X218342Y261321D01*
X217541Y261535D01*
D02*
G37*
G36*
X208424Y251496D02*
X207875D01*
X207369Y251286D01*
X206981Y250899D01*
X206772Y250392D01*
Y249844D01*
X206981Y249338D01*
X207369Y248950D01*
X207875Y248740D01*
X208424D01*
X208930Y248950D01*
X209318Y249338D01*
X209528Y249844D01*
Y250392D01*
X209318Y250899D01*
X208930Y251286D01*
X208424Y251496D01*
D02*
G37*
G36*
X107411Y255718D02*
X99833D01*
Y248140D01*
X107411D01*
Y255718D01*
D02*
G37*
G36*
X121416Y250787D02*
X120868D01*
X120361Y250578D01*
X119974Y250190D01*
X119764Y249683D01*
Y249135D01*
X119974Y248629D01*
X120361Y248241D01*
X120868Y248031D01*
X121416D01*
X121922Y248241D01*
X122310Y248629D01*
X122520Y249135D01*
Y249683D01*
X122310Y250190D01*
X121922Y250578D01*
X121416Y250787D01*
D02*
G37*
G36*
X356596Y265787D02*
X355766D01*
X354965Y265573D01*
X354247Y265158D01*
X353661Y264572D01*
X353246Y263854D01*
X353031Y263052D01*
Y262223D01*
X353246Y261422D01*
X353661Y260704D01*
X354247Y260118D01*
X354496Y259974D01*
Y259396D01*
X354247Y259253D01*
X353661Y258666D01*
X353246Y257948D01*
X353031Y257147D01*
Y256317D01*
X353246Y255517D01*
X353661Y254798D01*
X354247Y254212D01*
X354496Y254068D01*
Y253491D01*
X354247Y253347D01*
X353661Y252761D01*
X353246Y252043D01*
X353031Y251241D01*
Y250412D01*
X353246Y249611D01*
X353661Y248893D01*
X354247Y248306D01*
X354965Y247892D01*
X355766Y247677D01*
X356596D01*
X357397Y247892D01*
X358115Y248306D01*
X358622Y248814D01*
X359169Y248267D01*
X359887Y247852D01*
X360688Y247638D01*
X361517D01*
X362318Y247852D01*
X363036Y248267D01*
X363623Y248853D01*
X364037Y249572D01*
X364252Y250373D01*
Y251202D01*
X364037Y252003D01*
X363623Y252721D01*
X363036Y253308D01*
X362787Y253451D01*
Y254029D01*
X363036Y254172D01*
X363623Y254759D01*
X364037Y255477D01*
X364252Y256278D01*
Y257107D01*
X364037Y257909D01*
X363623Y258627D01*
X363036Y259213D01*
X362787Y259357D01*
Y259934D01*
X363036Y260078D01*
X363623Y260665D01*
X364037Y261383D01*
X364252Y262184D01*
Y263013D01*
X364037Y263814D01*
X363623Y264532D01*
X363036Y265119D01*
X362318Y265533D01*
X361517Y265748D01*
X360688D01*
X359887Y265533D01*
X359169Y265119D01*
X358661Y264612D01*
X358115Y265158D01*
X357397Y265573D01*
X356596Y265787D01*
D02*
G37*
G36*
X-34608Y246457D02*
X-35156D01*
X-35662Y246247D01*
X-36050Y245859D01*
X-36260Y245353D01*
Y244805D01*
X-36050Y244298D01*
X-35662Y243911D01*
X-35156Y243701D01*
X-34608D01*
X-34101Y243911D01*
X-33714Y244298D01*
X-33504Y244805D01*
Y245353D01*
X-33714Y245859D01*
X-34101Y246247D01*
X-34608Y246457D01*
D02*
G37*
G36*
X441495Y245158D02*
X440946D01*
X440440Y244948D01*
X440052Y244560D01*
X439843Y244054D01*
Y243505D01*
X440052Y242999D01*
X440440Y242611D01*
X440946Y242402D01*
X441495D01*
X442001Y242611D01*
X442389Y242999D01*
X442598Y243505D01*
Y244054D01*
X442389Y244560D01*
X442001Y244948D01*
X441495Y245158D01*
D02*
G37*
G36*
X277714Y243858D02*
X276853D01*
X276057Y243529D01*
X275448Y242919D01*
X275118Y242124D01*
Y241262D01*
X275448Y240466D01*
X276057Y239857D01*
X276853Y239528D01*
X277714D01*
X278510Y239857D01*
X279119Y240466D01*
X279449Y241262D01*
Y242124D01*
X279119Y242919D01*
X278510Y243529D01*
X277714Y243858D01*
D02*
G37*
G36*
X-27718Y240787D02*
X-28266D01*
X-28773Y240578D01*
X-29160Y240190D01*
X-29370Y239684D01*
Y239135D01*
X-29160Y238629D01*
X-28773Y238241D01*
X-28266Y238032D01*
X-27718D01*
X-27212Y238241D01*
X-26824Y238629D01*
X-26614Y239135D01*
Y239684D01*
X-26824Y240190D01*
X-27212Y240578D01*
X-27718Y240787D01*
D02*
G37*
G36*
X348739Y240394D02*
X348190D01*
X347684Y240184D01*
X347296Y239796D01*
X347087Y239290D01*
Y238742D01*
X347296Y238235D01*
X347684Y237848D01*
X348190Y237638D01*
X348739D01*
X349245Y237848D01*
X349633Y238235D01*
X349843Y238742D01*
Y239290D01*
X349633Y239796D01*
X349245Y240184D01*
X348739Y240394D01*
D02*
G37*
G36*
X117912Y239961D02*
X117364D01*
X116857Y239751D01*
X116470Y239363D01*
X116260Y238857D01*
Y238309D01*
X116470Y237802D01*
X116857Y237415D01*
X117364Y237205D01*
X117912D01*
X118418Y237415D01*
X118806Y237802D01*
X119016Y238309D01*
Y238857D01*
X118806Y239363D01*
X118418Y239751D01*
X117912Y239961D01*
D02*
G37*
G36*
X-4450Y238701D02*
X-4998D01*
X-5505Y238491D01*
X-5893Y238103D01*
X-6102Y237597D01*
Y237049D01*
X-5893Y236542D01*
X-5505Y236155D01*
X-4998Y235945D01*
X-4450D01*
X-3944Y236155D01*
X-3556Y236542D01*
X-3347Y237049D01*
Y237597D01*
X-3556Y238103D01*
X-3944Y238491D01*
X-4450Y238701D01*
D02*
G37*
G36*
X528113Y242919D02*
X527002D01*
X525929Y242632D01*
X524967Y242077D01*
X524181Y241291D01*
X523626Y240329D01*
X523338Y239256D01*
Y238145D01*
X523626Y237072D01*
X524181Y236110D01*
X524967Y235325D01*
X525929Y234770D01*
X527002Y234482D01*
X528113D01*
X529185Y234770D01*
X530148Y235325D01*
X530933Y236110D01*
X531488Y237072D01*
X531776Y238145D01*
Y239256D01*
X531488Y240329D01*
X530933Y241291D01*
X530148Y242077D01*
X529185Y242632D01*
X528113Y242919D01*
D02*
G37*
G36*
X488112D02*
X487002D01*
X485929Y242632D01*
X484967Y242077D01*
X484181Y241291D01*
X483626Y240329D01*
X483338Y239256D01*
Y238145D01*
X483626Y237072D01*
X484181Y236110D01*
X484967Y235325D01*
X485929Y234770D01*
X487002Y234482D01*
X488112D01*
X489185Y234770D01*
X490147Y235325D01*
X490933Y236110D01*
X491488Y237072D01*
X491776Y238145D01*
Y239256D01*
X491488Y240329D01*
X490933Y241291D01*
X490147Y242077D01*
X489185Y242632D01*
X488112Y242919D01*
D02*
G37*
G36*
X101576Y353744D02*
X101028D01*
X100521Y353534D01*
X100134Y353147D01*
X99924Y352640D01*
Y352532D01*
X99208Y351816D01*
X98925Y351760D01*
X98632Y351564D01*
X98632Y351564D01*
X92137Y345069D01*
X91941Y344776D01*
X91872Y344430D01*
Y290426D01*
X73023Y271577D01*
X72827Y271284D01*
X72758Y270938D01*
Y236557D01*
X72493Y236292D01*
X72283Y235786D01*
Y235238D01*
X72493Y234731D01*
X72881Y234344D01*
X73387Y234134D01*
X73935D01*
X74442Y234344D01*
X74516Y234418D01*
X74842Y234719D01*
X75169Y234418D01*
X75243Y234344D01*
X75749Y234134D01*
X76298D01*
X76804Y234344D01*
X77192Y234731D01*
X77402Y235238D01*
Y235786D01*
X77192Y236292D01*
X76927Y236557D01*
Y270977D01*
X94792Y288843D01*
X94988Y289136D01*
X95057Y289481D01*
Y343485D01*
X100215Y348644D01*
X101688D01*
X102034Y348713D01*
X102327Y348909D01*
X103986Y350568D01*
X104361D01*
X104867Y350777D01*
X105255Y351165D01*
X105464Y351671D01*
Y352220D01*
X105255Y352726D01*
X104867Y353114D01*
X104361Y353323D01*
X103812D01*
X103306Y353114D01*
X103107Y352915D01*
X102531Y352998D01*
X102470Y353147D01*
X102082Y353534D01*
X101576Y353744D01*
D02*
G37*
G36*
X290785Y238307D02*
X289924D01*
X289128Y237977D01*
X288519Y237368D01*
X288189Y236572D01*
Y235711D01*
X288519Y234915D01*
X289128Y234306D01*
X289924Y233976D01*
X290785D01*
X291581Y234306D01*
X292190Y234915D01*
X292520Y235711D01*
Y236572D01*
X292190Y237368D01*
X291581Y237977D01*
X290785Y238307D01*
D02*
G37*
G36*
X277714D02*
X276853D01*
X276057Y237977D01*
X275448Y237368D01*
X275118Y236572D01*
Y235711D01*
X275448Y234915D01*
X276057Y234306D01*
X276853Y233976D01*
X277714D01*
X278510Y234306D01*
X279119Y234915D01*
X279449Y235711D01*
Y236572D01*
X279119Y237368D01*
X278510Y237977D01*
X277714Y238307D01*
D02*
G37*
G36*
X330510Y239173D02*
X329962D01*
X329456Y238964D01*
X329068Y238576D01*
X328858Y238069D01*
Y237521D01*
X329068Y237015D01*
X329456Y236627D01*
X329650Y236547D01*
Y236005D01*
X329377Y235893D01*
X328989Y235505D01*
X328780Y234998D01*
Y234450D01*
X328989Y233944D01*
X329377Y233556D01*
X329884Y233347D01*
X330432D01*
X330938Y233556D01*
X331326Y233944D01*
X331536Y234450D01*
Y234998D01*
X331326Y235505D01*
X330938Y235893D01*
X330744Y235973D01*
Y236514D01*
X331017Y236627D01*
X331404Y237015D01*
X331614Y237521D01*
Y238069D01*
X331404Y238576D01*
X331017Y238964D01*
X330510Y239173D01*
D02*
G37*
G36*
X19113Y276713D02*
X18564D01*
X18058Y276503D01*
X17670Y276115D01*
X17461Y275609D01*
Y275376D01*
X-21931Y235984D01*
X-22164D01*
X-22670Y235774D01*
X-23058Y235387D01*
X-23268Y234880D01*
Y234332D01*
X-23058Y233826D01*
X-22670Y233438D01*
X-22164Y233228D01*
X-21616D01*
X-21109Y233438D01*
X-20722Y233826D01*
X-20512Y234332D01*
Y234565D01*
X18880Y273957D01*
X19113D01*
X19619Y274166D01*
X20007Y274554D01*
X20217Y275061D01*
Y275609D01*
X20007Y276115D01*
X19619Y276503D01*
X19113Y276713D01*
D02*
G37*
G36*
X130706Y289961D02*
X129845D01*
X129049Y289631D01*
X128440Y289022D01*
X128110Y288226D01*
Y287365D01*
X128168Y287225D01*
Y238465D01*
X128329Y237658D01*
X128785Y236974D01*
X132358Y233401D01*
X132416Y233262D01*
X133025Y232652D01*
X133821Y232323D01*
X134683D01*
X135478Y232652D01*
X136088Y233262D01*
X136417Y234057D01*
Y234919D01*
X136088Y235715D01*
X135478Y236324D01*
X135339Y236382D01*
X132383Y239337D01*
Y287225D01*
X132441Y287365D01*
Y288226D01*
X132111Y289022D01*
X131502Y289631D01*
X130706Y289961D01*
D02*
G37*
G36*
X440904Y235000D02*
X440356D01*
X439849Y234790D01*
X439462Y234403D01*
X439252Y233896D01*
Y233348D01*
X439462Y232841D01*
X439849Y232454D01*
X440356Y232244D01*
X440904D01*
X441410Y232454D01*
X441798Y232841D01*
X442008Y233348D01*
Y233896D01*
X441798Y234403D01*
X441410Y234790D01*
X440904Y235000D01*
D02*
G37*
G36*
X348968Y236922D02*
X348420D01*
X347913Y236713D01*
X347526Y236325D01*
X347316Y235818D01*
Y235270D01*
X347526Y234764D01*
X347913Y234376D01*
X348049Y234320D01*
X348044Y233781D01*
X347723Y233648D01*
X347336Y233261D01*
X347126Y232754D01*
Y232206D01*
X347336Y231700D01*
X347723Y231312D01*
X348230Y231102D01*
X348778D01*
X349285Y231312D01*
X349672Y231700D01*
X349882Y232206D01*
Y232754D01*
X349672Y233261D01*
X349285Y233648D01*
X349149Y233704D01*
X349154Y234244D01*
X349475Y234376D01*
X349862Y234764D01*
X350072Y235270D01*
Y235818D01*
X349862Y236325D01*
X349475Y236713D01*
X348968Y236922D01*
D02*
G37*
G36*
X290785Y233210D02*
X289924D01*
X289128Y232880D01*
X288519Y232271D01*
X288189Y231475D01*
Y230614D01*
X288519Y229818D01*
X289128Y229209D01*
X289924Y228879D01*
X290785D01*
X291581Y229209D01*
X292190Y229818D01*
X292520Y230614D01*
Y231475D01*
X292190Y232271D01*
X291581Y232880D01*
X290785Y233210D01*
D02*
G37*
G36*
X277714D02*
X276853D01*
X276057Y232880D01*
X275448Y232271D01*
X275118Y231475D01*
Y230614D01*
X275448Y229818D01*
X276057Y229209D01*
X276853Y228879D01*
X277714D01*
X278510Y229209D01*
X279119Y229818D01*
X279449Y230614D01*
Y231475D01*
X279119Y232271D01*
X278510Y232880D01*
X277714Y233210D01*
D02*
G37*
G36*
X340353Y231378D02*
X339805D01*
X339298Y231168D01*
X338911Y230781D01*
X338701Y230274D01*
Y229726D01*
X338911Y229220D01*
X339298Y228832D01*
X339805Y228622D01*
X340353D01*
X340859Y228832D01*
X341247Y229220D01*
X341457Y229726D01*
Y230274D01*
X341247Y230781D01*
X340859Y231168D01*
X340353Y231378D01*
D02*
G37*
G36*
X339290Y228268D02*
X338742D01*
X338235Y228058D01*
X337848Y227670D01*
X337638Y227164D01*
Y226616D01*
X337848Y226109D01*
X338235Y225722D01*
X338742Y225512D01*
X339290D01*
X339796Y225722D01*
X340184Y226109D01*
X340394Y226616D01*
Y227164D01*
X340184Y227670D01*
X339796Y228058D01*
X339290Y228268D01*
D02*
G37*
G36*
X425195Y224961D02*
X424647D01*
X424141Y224751D01*
X423753Y224363D01*
X423543Y223857D01*
Y223308D01*
X423753Y222802D01*
X424141Y222414D01*
X424647Y222205D01*
X425195D01*
X425702Y222414D01*
X426089Y222802D01*
X426299Y223308D01*
Y223857D01*
X426089Y224363D01*
X425702Y224751D01*
X425195Y224961D01*
D02*
G37*
G36*
X151810Y224606D02*
X151261D01*
X150755Y224396D01*
X150367Y224009D01*
X150157Y223502D01*
Y222954D01*
X150367Y222448D01*
X150755Y222060D01*
X151261Y221850D01*
X151810D01*
X152316Y222060D01*
X152704Y222448D01*
X152913Y222954D01*
Y223502D01*
X152704Y224009D01*
X152316Y224396D01*
X151810Y224606D01*
D02*
G37*
G36*
X322400Y235709D02*
X321852D01*
X321584Y235598D01*
X321447D01*
X320948Y235498D01*
X320524Y235215D01*
X299960Y214651D01*
X280491D01*
X280313Y214724D01*
X279765D01*
X279259Y214515D01*
X278871Y214127D01*
X278661Y213621D01*
Y213072D01*
X278871Y212566D01*
X279259Y212178D01*
X279765Y211968D01*
X280313D01*
X280491Y212042D01*
X300500D01*
X300999Y212141D01*
X301423Y212424D01*
X318156Y229157D01*
X318714Y229008D01*
X318837Y228548D01*
X319251Y227830D01*
X319838Y227243D01*
X320087Y227100D01*
Y226522D01*
X319838Y226379D01*
X319251Y225792D01*
X318837Y225074D01*
X318622Y224273D01*
Y223444D01*
X318837Y222643D01*
X319251Y221924D01*
X319838Y221338D01*
X320556Y220923D01*
X321357Y220709D01*
X322186D01*
X322987Y220923D01*
X323706Y221338D01*
X324292Y221924D01*
X324707Y222643D01*
X324921Y223444D01*
Y224273D01*
X324707Y225074D01*
X324292Y225792D01*
X323706Y226379D01*
X323457Y226522D01*
Y227100D01*
X323706Y227243D01*
X324292Y227830D01*
X324707Y228548D01*
X324921Y229349D01*
Y230178D01*
X324707Y230979D01*
X324292Y231698D01*
X323706Y232284D01*
X323032Y232673D01*
X322980Y232874D01*
X322966Y233222D01*
X323294Y233550D01*
X323504Y234057D01*
Y234605D01*
X323294Y235111D01*
X322906Y235499D01*
X322400Y235709D01*
D02*
G37*
G36*
X115727Y222795D02*
X115179D01*
X114672Y222586D01*
X114285Y222198D01*
X114075Y221691D01*
Y221143D01*
X114285Y220637D01*
X114672Y220249D01*
X115179Y220039D01*
X115727D01*
X116233Y220249D01*
X116621Y220637D01*
X116831Y221143D01*
Y221691D01*
X116621Y222198D01*
X116233Y222586D01*
X115727Y222795D01*
D02*
G37*
G36*
X25943Y222323D02*
X25395D01*
X24889Y222113D01*
X24501Y221725D01*
X24291Y221219D01*
Y220671D01*
X24501Y220164D01*
X24889Y219777D01*
X25395Y219567D01*
X25943D01*
X26450Y219777D01*
X26838Y220164D01*
X27047Y220671D01*
Y221219D01*
X26838Y221725D01*
X26450Y222113D01*
X25943Y222323D01*
D02*
G37*
G36*
X-34214Y222047D02*
X-34762D01*
X-35269Y221837D01*
X-35656Y221450D01*
X-35866Y220943D01*
Y220395D01*
X-35656Y219889D01*
X-35269Y219501D01*
X-34762Y219291D01*
X-34214D01*
X-33708Y219501D01*
X-33320Y219889D01*
X-33110Y220395D01*
Y220943D01*
X-33320Y221450D01*
X-33708Y221837D01*
X-34214Y222047D01*
D02*
G37*
G36*
X223446Y219764D02*
X222617D01*
X221816Y219549D01*
X221098Y219134D01*
X220511Y218548D01*
X220367Y218299D01*
X219790D01*
X219646Y218548D01*
X219060Y219134D01*
X218342Y219549D01*
X217541Y219764D01*
X216711D01*
X215910Y219549D01*
X215192Y219134D01*
X214606Y218548D01*
X214191Y217830D01*
X213976Y217029D01*
Y216200D01*
X214191Y215399D01*
X214606Y214680D01*
X215192Y214094D01*
X215441Y213950D01*
Y213373D01*
X215192Y213229D01*
X214606Y212643D01*
X214191Y211924D01*
X213976Y211123D01*
Y210294D01*
X214191Y209493D01*
X214606Y208775D01*
X215192Y208188D01*
X215910Y207774D01*
X216711Y207559D01*
X217541D01*
X218342Y207774D01*
X219060Y208188D01*
X219646Y208775D01*
X219790Y209024D01*
X220367D01*
X220511Y208775D01*
X221098Y208188D01*
X221816Y207774D01*
X222617Y207559D01*
X223446D01*
X224247Y207774D01*
X224965Y208188D01*
X225552Y208775D01*
X225967Y209493D01*
X226181Y210294D01*
Y211123D01*
X225967Y211924D01*
X225552Y212643D01*
X224965Y213229D01*
X224716Y213373D01*
Y213950D01*
X224965Y214094D01*
X225552Y214680D01*
X225967Y215399D01*
X226181Y216200D01*
Y217029D01*
X225967Y217830D01*
X225552Y218548D01*
X224965Y219134D01*
X224247Y219549D01*
X223446Y219764D01*
D02*
G37*
G36*
X528113Y226620D02*
X527002D01*
X525929Y226333D01*
X524967Y225777D01*
X524181Y224992D01*
X523626Y224030D01*
X523338Y222957D01*
Y221846D01*
X523626Y220773D01*
X524181Y219811D01*
X524967Y219026D01*
X525929Y218470D01*
X527002Y218183D01*
X528113D01*
X529185Y218470D01*
X530148Y219026D01*
X530933Y219811D01*
X531488Y220773D01*
X531776Y221846D01*
Y222957D01*
X531488Y224030D01*
X530933Y224992D01*
X530148Y225777D01*
X529185Y226333D01*
X528113Y226620D01*
D02*
G37*
G36*
X109250Y218819D02*
X108702D01*
X108196Y218609D01*
X107808Y218221D01*
X107598Y217715D01*
Y217167D01*
X107808Y216660D01*
X108196Y216273D01*
X108702Y216063D01*
X109250D01*
X109757Y216273D01*
X110145Y216660D01*
X110354Y217167D01*
Y217715D01*
X110145Y218221D01*
X109757Y218609D01*
X109250Y218819D01*
D02*
G37*
G36*
X427636Y218740D02*
X427088D01*
X426582Y218530D01*
X426194Y218143D01*
X425984Y217636D01*
Y217088D01*
X426194Y216582D01*
X426582Y216194D01*
X427088Y215984D01*
X427636D01*
X428143Y216194D01*
X428530Y216582D01*
X428740Y217088D01*
Y217636D01*
X428530Y218143D01*
X428143Y218530D01*
X427636Y218740D01*
D02*
G37*
G36*
X432676Y218701D02*
X432128D01*
X431621Y218491D01*
X431233Y218103D01*
X431024Y217597D01*
Y217049D01*
X431233Y216542D01*
X431621Y216155D01*
X432128Y215945D01*
X432676D01*
X433182Y216155D01*
X433570Y216542D01*
X433779Y217049D01*
Y217597D01*
X433570Y218103D01*
X433182Y218491D01*
X432676Y218701D01*
D02*
G37*
G36*
X32794Y216614D02*
X32246D01*
X31739Y216404D01*
X31352Y216017D01*
X31142Y215510D01*
Y214962D01*
X31352Y214456D01*
X31739Y214068D01*
X32246Y213858D01*
X32794D01*
X33300Y214068D01*
X33688Y214456D01*
X33898Y214962D01*
Y215510D01*
X33688Y216017D01*
X33300Y216404D01*
X32794Y216614D01*
D02*
G37*
G36*
X69683Y216378D02*
X69135D01*
X68629Y216168D01*
X68241Y215780D01*
X68032Y215274D01*
Y214726D01*
X68241Y214219D01*
X68629Y213832D01*
X69135Y213622D01*
X69683D01*
X70190Y213832D01*
X70578Y214219D01*
X70787Y214726D01*
Y215274D01*
X70578Y215780D01*
X70190Y216168D01*
X69683Y216378D01*
D02*
G37*
G36*
X172321Y213779D02*
X171773D01*
X171267Y213570D01*
X170879Y213182D01*
X170669Y212676D01*
Y212127D01*
X170879Y211621D01*
X171267Y211233D01*
X171773Y211024D01*
X172321D01*
X172828Y211233D01*
X173215Y211621D01*
X173425Y212127D01*
Y212676D01*
X173215Y213182D01*
X172828Y213570D01*
X172321Y213779D01*
D02*
G37*
G36*
X329920Y210984D02*
X329372D01*
X328865Y210774D01*
X328478Y210387D01*
X328268Y209880D01*
Y209332D01*
X328478Y208826D01*
X328865Y208438D01*
X329372Y208228D01*
X329920D01*
X330426Y208438D01*
X330814Y208826D01*
X331024Y209332D01*
Y209880D01*
X330814Y210387D01*
X330426Y210774D01*
X329920Y210984D01*
D02*
G37*
G36*
X336809Y210906D02*
X336261D01*
X335755Y210696D01*
X335367Y210308D01*
X335157Y209802D01*
Y209254D01*
X335367Y208747D01*
X335755Y208360D01*
X336261Y208150D01*
X336809D01*
X337316Y208360D01*
X337703Y208747D01*
X337913Y209254D01*
Y209802D01*
X337703Y210308D01*
X337316Y210696D01*
X336809Y210906D01*
D02*
G37*
G36*
X87951Y210709D02*
X87403D01*
X86897Y210499D01*
X86509Y210111D01*
X86299Y209605D01*
Y209057D01*
X86509Y208550D01*
X86897Y208162D01*
X87403Y207953D01*
X87951D01*
X88458Y208162D01*
X88845Y208550D01*
X89055Y209057D01*
Y209605D01*
X88845Y210111D01*
X88458Y210499D01*
X87951Y210709D01*
D02*
G37*
G36*
X514134Y231244D02*
X514134Y231244D01*
X440276D01*
X439815Y231152D01*
X439424Y230891D01*
X439163Y230500D01*
X439071Y230039D01*
Y207683D01*
X438609Y207492D01*
X433841Y212261D01*
X433820Y212310D01*
X433211Y212919D01*
X432415Y213249D01*
X431554D01*
X430758Y212919D01*
X430149Y212310D01*
X429819Y211514D01*
Y210653D01*
X430149Y209857D01*
X430758Y209248D01*
X430989Y209152D01*
X437735Y202406D01*
Y190118D01*
X437895Y189312D01*
X438352Y188628D01*
X439359Y187622D01*
X439409Y187319D01*
X439366Y187011D01*
X439283Y186855D01*
X439185Y186708D01*
X439173Y186650D01*
X439145Y186597D01*
X439127Y186421D01*
X439093Y186247D01*
Y138779D01*
X439138Y138552D01*
X439184Y138320D01*
X439184Y138319D01*
X439185Y138319D01*
X439313Y138127D01*
X439397Y138000D01*
X439318Y137882D01*
X439185Y137683D01*
X439185Y137683D01*
X439185Y137682D01*
X439141Y137465D01*
X439093Y137222D01*
X439093Y137222D01*
X439093Y137222D01*
Y73347D01*
X439185Y72886D01*
X439233Y72812D01*
X439184Y72779D01*
X439086Y72632D01*
X438974Y72496D01*
X438956Y72438D01*
X438923Y72389D01*
X438889Y72215D01*
X438837Y72046D01*
X438843Y71987D01*
X438832Y71928D01*
X438832Y6457D01*
X438923Y5996D01*
X439184Y5605D01*
X439575Y5344D01*
X440036Y5252D01*
X513973D01*
X514434Y5344D01*
X514824Y5605D01*
X515086Y5996D01*
X515177Y6457D01*
Y60449D01*
X515091Y60883D01*
X515365Y61157D01*
X515365Y61158D01*
X515366Y61159D01*
X515497Y61355D01*
X515625Y61548D01*
X515625Y61549D01*
X515626Y61550D01*
X515671Y61782D01*
X515716Y62009D01*
X515716Y62010D01*
X515716Y62011D01*
X515563Y116159D01*
X515552Y116216D01*
X515557Y116275D01*
X515506Y116445D01*
X515470Y116619D01*
X515438Y116668D01*
X515420Y116724D01*
X515381Y116771D01*
X515468Y116901D01*
X515560Y117362D01*
Y174961D01*
X515468Y175422D01*
X515283Y175699D01*
X515286Y175704D01*
X515378Y176165D01*
Y230000D01*
X515378Y230000D01*
X515286Y230461D01*
X515025Y230852D01*
X515025Y230852D01*
X514985Y230891D01*
X514595Y231152D01*
X514134Y231244D01*
D02*
G37*
G36*
X352361Y205118D02*
X351813D01*
X351306Y204908D01*
X350918Y204521D01*
X350709Y204014D01*
Y203466D01*
X350918Y202960D01*
X351306Y202572D01*
X351813Y202362D01*
X352361D01*
X352867Y202572D01*
X353255Y202960D01*
X353465Y203466D01*
Y204014D01*
X353255Y204521D01*
X352867Y204908D01*
X352361Y205118D01*
D02*
G37*
G36*
X176849Y204921D02*
X176301D01*
X175794Y204712D01*
X175407Y204324D01*
X175197Y203817D01*
Y203269D01*
X175407Y202763D01*
X175794Y202375D01*
X176301Y202165D01*
X176849D01*
X177355Y202375D01*
X177743Y202763D01*
X177953Y203269D01*
Y203817D01*
X177743Y204324D01*
X177355Y204712D01*
X176849Y204921D01*
D02*
G37*
G36*
X163542Y263465D02*
X162994D01*
X162487Y263255D01*
X162100Y262867D01*
X161945Y262493D01*
X161787Y262257D01*
X161688Y261758D01*
Y203679D01*
X161614Y203502D01*
Y202954D01*
X161824Y202448D01*
X162212Y202060D01*
X162718Y201850D01*
X163266D01*
X163773Y202060D01*
X164160Y202448D01*
X164370Y202954D01*
Y203502D01*
X164297Y203679D01*
Y261167D01*
X164436Y261306D01*
X164646Y261812D01*
Y262361D01*
X164436Y262867D01*
X164048Y263255D01*
X163542Y263465D01*
D02*
G37*
G36*
X223013Y203071D02*
X222184D01*
X221383Y202856D01*
X220664Y202442D01*
X220078Y201855D01*
X219934Y201606D01*
X219357D01*
X219213Y201855D01*
X218627Y202442D01*
X217909Y202856D01*
X217108Y203071D01*
X216278D01*
X215477Y202856D01*
X214759Y202442D01*
X214173Y201855D01*
X213758Y201137D01*
X213543Y200336D01*
Y199507D01*
X213758Y198706D01*
X214173Y197987D01*
X214759Y197401D01*
X215107Y197201D01*
Y196623D01*
X214956Y196536D01*
X214369Y195950D01*
X213955Y195231D01*
X213740Y194430D01*
Y193601D01*
X213955Y192800D01*
X214369Y192082D01*
X214956Y191496D01*
X215674Y191081D01*
X216475Y190866D01*
X217304D01*
X218105Y191081D01*
X218824Y191496D01*
X219410Y192082D01*
X219554Y192331D01*
X220131D01*
X220275Y192082D01*
X220861Y191496D01*
X221580Y191081D01*
X222381Y190866D01*
X223210D01*
X224011Y191081D01*
X224729Y191496D01*
X225316Y192082D01*
X225730Y192800D01*
X225945Y193601D01*
Y194430D01*
X225730Y195231D01*
X225316Y195950D01*
X224729Y196536D01*
X224382Y196737D01*
Y197314D01*
X224532Y197401D01*
X225119Y197987D01*
X225533Y198706D01*
X225748Y199507D01*
Y200336D01*
X225533Y201137D01*
X225119Y201855D01*
X224532Y202442D01*
X223814Y202856D01*
X223013Y203071D01*
D02*
G37*
G36*
X326257Y205827D02*
X325709D01*
X325202Y205617D01*
X324815Y205229D01*
X324605Y204723D01*
Y204175D01*
X324815Y203668D01*
X325107Y203376D01*
X325084Y203258D01*
X324696Y202870D01*
X324486Y202364D01*
Y201816D01*
X324696Y201309D01*
X325084Y200921D01*
X325590Y200712D01*
X326138D01*
X326645Y200921D01*
X327032Y201309D01*
X327242Y201816D01*
Y202364D01*
X327032Y202870D01*
X326740Y203163D01*
X326763Y203281D01*
X327151Y203668D01*
X327361Y204175D01*
Y204723D01*
X327151Y205229D01*
X326763Y205617D01*
X326257Y205827D01*
D02*
G37*
G36*
X287203Y211024D02*
X286655D01*
X286149Y210814D01*
X285761Y210426D01*
X285551Y209920D01*
Y209372D01*
X285761Y208865D01*
X285965Y208661D01*
Y201811D01*
X285840Y201686D01*
X285630Y201180D01*
Y200631D01*
X285840Y200125D01*
X286227Y199737D01*
X286734Y199528D01*
X287282D01*
X287788Y199737D01*
X288176Y200125D01*
X288386Y200631D01*
Y201180D01*
X288176Y201686D01*
X287972Y201890D01*
Y208740D01*
X288097Y208865D01*
X288307Y209372D01*
Y209920D01*
X288097Y210426D01*
X287710Y210814D01*
X287203Y211024D01*
D02*
G37*
G36*
X363739Y201654D02*
X363191D01*
X362684Y201444D01*
X362296Y201056D01*
X362087Y200550D01*
Y200002D01*
X362296Y199495D01*
X362684Y199107D01*
X363191Y198898D01*
X363739D01*
X364245Y199107D01*
X364633Y199495D01*
X364843Y200002D01*
Y200550D01*
X364633Y201056D01*
X364245Y201444D01*
X363739Y201654D01*
D02*
G37*
G36*
X301989Y204882D02*
X301160D01*
X300359Y204667D01*
X299641Y204253D01*
X299055Y203666D01*
X298640Y202948D01*
X298425Y202147D01*
Y201318D01*
X298640Y200517D01*
X299055Y199798D01*
X299641Y199212D01*
X300359Y198797D01*
X301160Y198583D01*
X301989D01*
X302790Y198797D01*
X303509Y199212D01*
X304095Y199798D01*
X304510Y200517D01*
X304724Y201318D01*
Y202147D01*
X304510Y202948D01*
X304095Y203666D01*
X303509Y204253D01*
X302790Y204667D01*
X301989Y204882D01*
D02*
G37*
G36*
X343935Y204014D02*
X343387D01*
X342881Y203804D01*
X342493Y203417D01*
X342283Y202910D01*
Y202362D01*
X342493Y201855D01*
X342849Y201500D01*
X342866Y201223D01*
X342849Y200940D01*
X342494Y200585D01*
X342285Y200078D01*
Y199530D01*
X342494Y199024D01*
X342882Y198636D01*
X343389Y198426D01*
X343937D01*
X344443Y198636D01*
X344831Y199024D01*
X345041Y199530D01*
Y200078D01*
X344831Y200585D01*
X344475Y200940D01*
X344458Y201217D01*
X344475Y201501D01*
X344830Y201855D01*
X345039Y202362D01*
Y202910D01*
X344830Y203417D01*
X344442Y203804D01*
X343935Y204014D01*
D02*
G37*
G36*
X117991Y199803D02*
X117443D01*
X116936Y199593D01*
X116548Y199206D01*
X116339Y198699D01*
Y198151D01*
X116548Y197645D01*
X116936Y197257D01*
X117443Y197047D01*
X117991D01*
X118497Y197257D01*
X118885Y197645D01*
X119095Y198151D01*
Y198699D01*
X118885Y199206D01*
X118497Y199593D01*
X117991Y199803D01*
D02*
G37*
G36*
X45550D02*
X45002D01*
X44495Y199593D01*
X44107Y199206D01*
X43898Y198699D01*
Y198151D01*
X44107Y197645D01*
X44495Y197257D01*
X45002Y197047D01*
X45550D01*
X46056Y197257D01*
X46444Y197645D01*
X46654Y198151D01*
Y198699D01*
X46444Y199206D01*
X46056Y199593D01*
X45550Y199803D01*
D02*
G37*
G36*
X-35120Y199764D02*
X-35668D01*
X-36174Y199554D01*
X-36562Y199166D01*
X-36772Y198660D01*
Y198112D01*
X-36562Y197605D01*
X-36174Y197218D01*
X-35668Y197008D01*
X-35120D01*
X-34613Y197218D01*
X-34225Y197605D01*
X-34016Y198112D01*
Y198660D01*
X-34225Y199166D01*
X-34613Y199554D01*
X-35120Y199764D01*
D02*
G37*
G36*
X107411Y204577D02*
X99833D01*
Y196998D01*
X107411D01*
Y204577D01*
D02*
G37*
G36*
X325983Y199606D02*
X325435D01*
X324928Y199397D01*
X324540Y199009D01*
X324331Y198502D01*
Y197954D01*
X324418Y197744D01*
X324091Y197244D01*
X324074D01*
X323272Y197029D01*
X322554Y196615D01*
X322126Y196186D01*
X321698Y196615D01*
X320979Y197029D01*
X320178Y197244D01*
X319349D01*
X318548Y197029D01*
X317830Y196615D01*
X317402Y196186D01*
X316973Y196615D01*
X316255Y197029D01*
X315454Y197244D01*
X314625D01*
X313824Y197029D01*
X313106Y196615D01*
X312677Y196186D01*
X312249Y196615D01*
X311531Y197029D01*
X310730Y197244D01*
X309900D01*
X309099Y197029D01*
X308381Y196615D01*
X307795Y196028D01*
X307380Y195310D01*
X307165Y194509D01*
Y193680D01*
X307380Y192879D01*
X307795Y192161D01*
X308381Y191574D01*
X309099Y191159D01*
X309900Y190945D01*
X310730D01*
X311531Y191159D01*
X312249Y191574D01*
X312677Y192002D01*
X313106Y191574D01*
X313824Y191159D01*
X314173Y191066D01*
X314322Y190508D01*
X314015Y190202D01*
X313600Y189483D01*
X313386Y188682D01*
Y187853D01*
X313600Y187052D01*
X314015Y186334D01*
X314443Y185906D01*
X314015Y185477D01*
X313600Y184759D01*
X313386Y183958D01*
Y183129D01*
X313600Y182328D01*
X314015Y181609D01*
X314443Y181181D01*
X314015Y180753D01*
X313600Y180035D01*
X313386Y179234D01*
Y178404D01*
X313600Y177603D01*
X314015Y176885D01*
X314601Y176299D01*
X315320Y175884D01*
X316121Y175669D01*
X316950D01*
X317751Y175884D01*
X318469Y176299D01*
X318898Y176727D01*
X319326Y176299D01*
X320044Y175884D01*
X320845Y175669D01*
X321674D01*
X322476Y175884D01*
X323194Y176299D01*
X323780Y176885D01*
X324195Y177603D01*
X324409Y178404D01*
Y179234D01*
X324195Y180035D01*
X323780Y180753D01*
X323352Y181181D01*
X323780Y181609D01*
X324195Y182328D01*
X324409Y183129D01*
Y183958D01*
X324195Y184759D01*
X323780Y185477D01*
X323352Y185906D01*
X323780Y186334D01*
X324195Y187052D01*
X324409Y187853D01*
Y188682D01*
X324195Y189483D01*
X323780Y190202D01*
X323365Y190617D01*
X323623Y191066D01*
X324074Y190945D01*
X324903D01*
X325704Y191159D01*
X326422Y191574D01*
X326850Y192002D01*
X327279Y191574D01*
X327997Y191159D01*
X328798Y190945D01*
X329627D01*
X330428Y191159D01*
X331147Y191574D01*
X331733Y192161D01*
X332148Y192879D01*
X332362Y193680D01*
Y194509D01*
X332148Y195310D01*
X331733Y196028D01*
X331147Y196615D01*
X330428Y197029D01*
X329627Y197244D01*
X328798D01*
X327997Y197029D01*
X327279Y196615D01*
X326891Y196227D01*
X326509Y196552D01*
X326495Y196906D01*
X326548Y197119D01*
X326877Y197448D01*
X327087Y197954D01*
Y198502D01*
X326877Y199009D01*
X326489Y199397D01*
X325983Y199606D01*
D02*
G37*
G36*
X348029Y196614D02*
X347168D01*
X346372Y196284D01*
X346102Y196015D01*
X345833Y196284D01*
X345037Y196614D01*
X344176D01*
X343380Y196284D01*
X342771Y195675D01*
X342441Y194879D01*
Y194018D01*
X342771Y193222D01*
X343380Y192613D01*
X344176Y192283D01*
X345037D01*
X345833Y192613D01*
X346102Y192883D01*
X346372Y192613D01*
X347168Y192283D01*
X348029D01*
X348825Y192613D01*
X349434Y193222D01*
X349764Y194018D01*
Y194879D01*
X349434Y195675D01*
X348825Y196284D01*
X348029Y196614D01*
D02*
G37*
G36*
X130458D02*
X129910D01*
X129403Y196404D01*
X129016Y196017D01*
X128806Y195510D01*
Y194962D01*
X129016Y194456D01*
X129403Y194068D01*
X129910Y193858D01*
X130458D01*
X130965Y194068D01*
X131352Y194456D01*
X131562Y194962D01*
Y195510D01*
X131352Y196017D01*
X130965Y196404D01*
X130458Y196614D01*
D02*
G37*
G36*
X407934Y192984D02*
X407105D01*
X406304Y192770D01*
X405586Y192355D01*
X404999Y191769D01*
X404856Y191519D01*
X404278D01*
X404135Y191769D01*
X403548Y192355D01*
X402830Y192770D01*
X402029Y192984D01*
X401199D01*
X400398Y192770D01*
X399680Y192355D01*
X399094Y191769D01*
X398950Y191519D01*
X398373D01*
X398229Y191769D01*
X397643Y192355D01*
X396924Y192770D01*
X396123Y192984D01*
X395294D01*
X394493Y192770D01*
X393775Y192355D01*
X393188Y191769D01*
X392774Y191050D01*
X392559Y190249D01*
Y189420D01*
X392774Y188619D01*
X393188Y187901D01*
X393775Y187314D01*
X394022Y187171D01*
Y186594D01*
X393775Y186451D01*
X393188Y185864D01*
X392774Y185146D01*
X392559Y184345D01*
Y183516D01*
X392774Y182715D01*
X393188Y181997D01*
X393775Y181410D01*
X394051Y181251D01*
Y180751D01*
X393775Y180591D01*
X393188Y180005D01*
X392774Y179287D01*
X392559Y178486D01*
Y177656D01*
X392774Y176855D01*
X393188Y176137D01*
X393775Y175550D01*
X394024Y175407D01*
Y174829D01*
X393775Y174686D01*
X393188Y174099D01*
X392774Y173381D01*
X392559Y172580D01*
Y171751D01*
X392774Y170950D01*
X393188Y170231D01*
X393775Y169645D01*
X394024Y169501D01*
Y168924D01*
X393775Y168780D01*
X393188Y168194D01*
X392774Y167475D01*
X392559Y166674D01*
Y165845D01*
X392774Y165044D01*
X393188Y164326D01*
X393775Y163740D01*
X394024Y163596D01*
Y163018D01*
X393775Y162875D01*
X393188Y162288D01*
X392774Y161570D01*
X392559Y160769D01*
Y159940D01*
X392774Y159139D01*
X393188Y158421D01*
X393775Y157834D01*
X394024Y157690D01*
Y157113D01*
X393775Y156969D01*
X393188Y156383D01*
X392774Y155665D01*
X392559Y154864D01*
Y154034D01*
X392774Y153233D01*
X393188Y152515D01*
X393775Y151928D01*
X394493Y151514D01*
X395294Y151299D01*
X396123D01*
X396924Y151514D01*
X397643Y151928D01*
X398229Y152515D01*
X398373Y152764D01*
X398950D01*
X399094Y152515D01*
X399680Y151928D01*
X400398Y151514D01*
X401199Y151299D01*
X402029D01*
X402830Y151514D01*
X403548Y151928D01*
X404135Y152515D01*
X404278Y152764D01*
X404856D01*
X404999Y152515D01*
X405586Y151928D01*
X406304Y151514D01*
X407105Y151299D01*
X407934D01*
X408735Y151514D01*
X409454Y151928D01*
X410040Y152515D01*
X410455Y153233D01*
X410669Y154034D01*
Y154864D01*
X410455Y155665D01*
X410040Y156383D01*
X409454Y156969D01*
X408735Y157384D01*
X407934Y157598D01*
X407105D01*
X406304Y157384D01*
X405586Y156969D01*
X404999Y156383D01*
X404856Y156134D01*
X404278D01*
X404135Y156383D01*
X403548Y156969D01*
X403299Y157113D01*
Y157690D01*
X403548Y157834D01*
X404135Y158421D01*
X404549Y159139D01*
X404764Y159940D01*
Y160769D01*
X404549Y161570D01*
X404135Y162288D01*
X403548Y162875D01*
X403299Y163018D01*
Y163596D01*
X403548Y163740D01*
X404135Y164326D01*
X404549Y165044D01*
X404764Y165845D01*
Y166674D01*
X404549Y167475D01*
X404135Y168194D01*
X403548Y168780D01*
X403299Y168924D01*
Y169501D01*
X403548Y169645D01*
X404135Y170231D01*
X404549Y170950D01*
X404764Y171751D01*
Y172580D01*
X404549Y173381D01*
X404135Y174099D01*
X403548Y174686D01*
X403299Y174829D01*
Y175407D01*
X403548Y175550D01*
X404135Y176137D01*
X404549Y176855D01*
X404764Y177656D01*
Y178486D01*
X404549Y179287D01*
X404135Y180005D01*
X403548Y180591D01*
X403299Y180735D01*
Y181312D01*
X403548Y181456D01*
X404135Y182043D01*
X404549Y182761D01*
X404764Y183562D01*
Y184391D01*
X404549Y185192D01*
X404135Y185910D01*
X403548Y186497D01*
X403273Y186655D01*
Y187155D01*
X403548Y187314D01*
X404135Y187901D01*
X404278Y188150D01*
X404856D01*
X404999Y187901D01*
X405586Y187314D01*
X406304Y186900D01*
X407105Y186685D01*
X407934D01*
X408735Y186900D01*
X409454Y187314D01*
X410040Y187901D01*
X410455Y188619D01*
X410669Y189420D01*
Y190249D01*
X410455Y191050D01*
X410040Y191769D01*
X409454Y192355D01*
X408735Y192770D01*
X407934Y192984D01*
D02*
G37*
G36*
X199219Y269449D02*
X198671D01*
X198164Y269239D01*
X197777Y268851D01*
X197567Y268345D01*
Y267797D01*
X197606Y267702D01*
X196496Y266592D01*
X196491D01*
X196146Y266523D01*
X195853Y266328D01*
X194223Y264699D01*
X194028Y264405D01*
X193959Y264060D01*
Y205426D01*
X189444Y200912D01*
X187915D01*
X187569Y200843D01*
X187276Y200647D01*
X182232Y195603D01*
X182037Y195310D01*
X181968Y194965D01*
Y193415D01*
X181976Y193374D01*
X181903Y193300D01*
X181693Y192794D01*
Y192245D01*
X181903Y191739D01*
X182290Y191351D01*
X182797Y191142D01*
X183345D01*
X183852Y191351D01*
X184239Y191739D01*
X184449Y192245D01*
Y192350D01*
X184466Y192794D01*
X184911Y192812D01*
X185015D01*
X185522Y193022D01*
X185909Y193410D01*
X186119Y193916D01*
Y194291D01*
X189556Y197727D01*
X190389D01*
X190735Y197796D01*
X191028Y197992D01*
X196879Y203843D01*
X197075Y204136D01*
X197143Y204481D01*
Y259481D01*
X200068Y262406D01*
X200264Y262699D01*
X200332Y263044D01*
X200332Y263044D01*
Y264175D01*
X200981Y264823D01*
X201089D01*
X201595Y265033D01*
X201983Y265420D01*
X202193Y265927D01*
Y266475D01*
X201983Y266981D01*
X201595Y267369D01*
X201089Y267579D01*
X200774D01*
X200470Y267726D01*
X200323Y268030D01*
Y268345D01*
X200113Y268851D01*
X199725Y269239D01*
X199219Y269449D01*
D02*
G37*
G36*
X118069Y193819D02*
X117521D01*
X117015Y193609D01*
X116627Y193221D01*
X116417Y192715D01*
Y192167D01*
X116627Y191660D01*
X117015Y191273D01*
X117521Y191063D01*
X118069D01*
X118576Y191273D01*
X118963Y191660D01*
X119173Y192167D01*
Y192715D01*
X118963Y193221D01*
X118576Y193609D01*
X118069Y193819D01*
D02*
G37*
G36*
X-5750Y189370D02*
X-6298D01*
X-6804Y189160D01*
X-7192Y188773D01*
X-7402Y188266D01*
Y187718D01*
X-7192Y187212D01*
X-6804Y186824D01*
X-6298Y186614D01*
X-5750D01*
X-5243Y186824D01*
X-4855Y187212D01*
X-4646Y187718D01*
Y188266D01*
X-4855Y188773D01*
X-5243Y189160D01*
X-5750Y189370D01*
D02*
G37*
G36*
X79053Y184253D02*
X78505D01*
X77998Y184043D01*
X77610Y183656D01*
X77401Y183149D01*
Y182916D01*
X74128Y179643D01*
X73628Y179850D01*
Y180418D01*
X73551Y180802D01*
X73334Y181127D01*
X72192Y182269D01*
Y182715D01*
X71982Y183221D01*
X71595Y183609D01*
X71088Y183819D01*
X70540D01*
X70034Y183609D01*
X69646Y183221D01*
X69436Y182715D01*
Y182167D01*
X69646Y181660D01*
X70034Y181273D01*
X70540Y181063D01*
X70560D01*
X71621Y180002D01*
Y164946D01*
X71456Y164781D01*
X71246Y164275D01*
Y163727D01*
X71456Y163220D01*
X71844Y162833D01*
X72350Y162623D01*
X72898D01*
X73405Y162833D01*
X73792Y163220D01*
X74002Y163727D01*
Y164275D01*
X73792Y164781D01*
X73848Y164931D01*
X74427Y165059D01*
X76771Y162716D01*
X77096Y162498D01*
X77480Y162422D01*
X82852D01*
X83017Y162257D01*
X83523Y162047D01*
X84071D01*
X84578Y162257D01*
X84965Y162645D01*
X85175Y163151D01*
Y163699D01*
X84965Y164206D01*
X84578Y164593D01*
X84071Y164803D01*
X83523D01*
X83017Y164593D01*
X82852Y164429D01*
X78275D01*
X78105Y164643D01*
X78182Y165210D01*
X78570Y165597D01*
X78780Y166104D01*
Y166652D01*
X78570Y167159D01*
X78182Y167546D01*
X77676Y167756D01*
X77127D01*
X76621Y167546D01*
X76233Y167159D01*
X75675Y167118D01*
X75492Y167261D01*
Y178169D01*
X78820Y181497D01*
X79053D01*
X79559Y181707D01*
X79947Y182095D01*
X80157Y182601D01*
Y183149D01*
X79947Y183656D01*
X79559Y184043D01*
X79053Y184253D01*
D02*
G37*
G36*
X528113Y186620D02*
X527002D01*
X525929Y186333D01*
X524967Y185777D01*
X524181Y184992D01*
X523626Y184030D01*
X523338Y182957D01*
Y181846D01*
X523626Y180773D01*
X524181Y179811D01*
X524967Y179026D01*
X525929Y178470D01*
X527002Y178183D01*
X528113D01*
X529185Y178470D01*
X530148Y179026D01*
X530933Y179811D01*
X531488Y180773D01*
X531776Y181846D01*
Y182957D01*
X531488Y184030D01*
X530933Y184992D01*
X530148Y185777D01*
X529185Y186333D01*
X528113Y186620D01*
D02*
G37*
G36*
X-34883Y180827D02*
X-35432D01*
X-35938Y180617D01*
X-36326Y180229D01*
X-36535Y179723D01*
Y179175D01*
X-36326Y178668D01*
X-35938Y178281D01*
X-35432Y178071D01*
X-34883D01*
X-34377Y178281D01*
X-33989Y178668D01*
X-33779Y179175D01*
Y179723D01*
X-33989Y180229D01*
X-34377Y180617D01*
X-34883Y180827D01*
D02*
G37*
G36*
X151691Y180787D02*
X151143D01*
X150637Y180578D01*
X150249Y180190D01*
X150039Y179683D01*
Y179135D01*
X150249Y178629D01*
X150637Y178241D01*
X151143Y178032D01*
X151691D01*
X152198Y178241D01*
X152585Y178629D01*
X152795Y179135D01*
Y179683D01*
X152585Y180190D01*
X152198Y180578D01*
X151691Y180787D01*
D02*
G37*
G36*
X294998Y178032D02*
X294136D01*
X293340Y177702D01*
X292731Y177093D01*
X292430Y176366D01*
X292079Y176338D01*
X291927Y176358D01*
X291639Y177053D01*
X291030Y177663D01*
X290234Y177992D01*
X289372D01*
X288577Y177663D01*
X287967Y177053D01*
X287889Y176863D01*
X287348D01*
X287269Y177053D01*
X286660Y177663D01*
X285864Y177992D01*
X285002D01*
X284207Y177663D01*
X283597Y177053D01*
X283268Y176258D01*
Y175396D01*
X283597Y174600D01*
X284207Y173991D01*
X285002Y173661D01*
X285864D01*
X286660Y173991D01*
X287269Y174600D01*
X287348Y174790D01*
X287889D01*
X287967Y174600D01*
X288577Y173991D01*
X289372Y173661D01*
X290234D01*
X291030Y173991D01*
X291639Y174600D01*
X291940Y175326D01*
X292291Y175355D01*
X292443Y175335D01*
X292731Y174640D01*
X293340Y174030D01*
X294136Y173701D01*
X294178D01*
X296619Y171260D01*
Y165541D01*
X296119Y165207D01*
X295667Y165394D01*
X294806D01*
X294010Y165064D01*
X293401Y164455D01*
X293071Y163659D01*
Y162798D01*
X293401Y162002D01*
X294010Y161393D01*
X294806Y161063D01*
X295667D01*
X296119Y161250D01*
X296619Y160916D01*
Y160709D01*
X296756Y160017D01*
X297148Y159431D01*
X297441Y159138D01*
Y159097D01*
X297771Y158301D01*
X298380Y157692D01*
X299176Y157362D01*
X300037D01*
X300833Y157692D01*
X301442Y158301D01*
X301772Y159097D01*
Y159958D01*
X301442Y160754D01*
X300833Y161363D01*
X300232Y161612D01*
Y172008D01*
X300094Y172699D01*
X299703Y173285D01*
X296732Y176255D01*
Y176297D01*
X296403Y177093D01*
X295794Y177702D01*
X294998Y178032D01*
D02*
G37*
G36*
X24762Y178583D02*
X24214D01*
X23708Y178373D01*
X23320Y177985D01*
X23110Y177479D01*
Y176931D01*
X23320Y176424D01*
X23708Y176037D01*
X24214Y175827D01*
X24762D01*
X25269Y176037D01*
X25656Y176424D01*
X25866Y176931D01*
Y177479D01*
X25656Y177985D01*
X25269Y178373D01*
X24762Y178583D01*
D02*
G37*
G36*
X161002Y176772D02*
X160454D01*
X159948Y176562D01*
X159560Y176174D01*
X159350Y175668D01*
Y175120D01*
X159560Y174613D01*
X159948Y174225D01*
X160454Y174016D01*
X161002D01*
X161509Y174225D01*
X161897Y174613D01*
X162106Y175120D01*
Y175668D01*
X161897Y176174D01*
X161509Y176562D01*
X161002Y176772D01*
D02*
G37*
G36*
X41809Y175709D02*
X41261D01*
X40755Y175499D01*
X40367Y175111D01*
X40157Y174605D01*
Y174057D01*
X40367Y173550D01*
X40755Y173162D01*
X41261Y172953D01*
X41809D01*
X42316Y173162D01*
X42704Y173550D01*
X42913Y174057D01*
Y174605D01*
X42704Y175111D01*
X42316Y175499D01*
X41809Y175709D01*
D02*
G37*
G36*
X235Y203740D02*
X-313D01*
X-820Y203530D01*
X-1208Y203143D01*
X-1417Y202636D01*
Y202088D01*
X-1208Y201582D01*
X-820Y201194D01*
X-313Y200984D01*
X-81D01*
X1989Y198915D01*
Y130630D01*
X1824Y130466D01*
X1614Y129959D01*
Y129411D01*
X1824Y128904D01*
X2212Y128517D01*
X2718Y128307D01*
X3266D01*
X3773Y128517D01*
X4160Y128904D01*
X4370Y129411D01*
Y129959D01*
X4160Y130466D01*
X3996Y130630D01*
Y172561D01*
X4187Y172691D01*
X4496Y172815D01*
X4923Y172638D01*
X5471D01*
X5977Y172848D01*
X6365Y173235D01*
X6575Y173742D01*
Y174290D01*
X6365Y174796D01*
X5977Y175184D01*
X5471Y175394D01*
X4923D01*
X4496Y175217D01*
X4187Y175340D01*
X3996Y175470D01*
Y199331D01*
X3919Y199715D01*
X3702Y200040D01*
X1339Y202403D01*
Y202636D01*
X1129Y203143D01*
X741Y203530D01*
X235Y203740D01*
D02*
G37*
G36*
X-9686Y175157D02*
X-10235D01*
X-10741Y174948D01*
X-11129Y174560D01*
X-11339Y174054D01*
Y173505D01*
X-11129Y172999D01*
X-10741Y172611D01*
X-10235Y172402D01*
X-9686D01*
X-9180Y172611D01*
X-8793Y172999D01*
X-8583Y173505D01*
Y174054D01*
X-8793Y174560D01*
X-9180Y174948D01*
X-9686Y175157D01*
D02*
G37*
G36*
X97203Y174134D02*
X96655D01*
X96149Y173924D01*
X95761Y173537D01*
X95551Y173030D01*
Y172482D01*
X95761Y171975D01*
X96149Y171588D01*
X96655Y171378D01*
X97203D01*
X97710Y171588D01*
X98097Y171975D01*
X98307Y172482D01*
Y173030D01*
X98097Y173537D01*
X97710Y173924D01*
X97203Y174134D01*
D02*
G37*
G36*
X107794Y173838D02*
X107246D01*
X106739Y173629D01*
X106351Y173241D01*
X106142Y172735D01*
Y172187D01*
X106351Y171680D01*
X106739Y171292D01*
X107246Y171083D01*
X107794D01*
X108300Y171292D01*
X108688Y171680D01*
X108898Y172187D01*
Y172735D01*
X108688Y173241D01*
X108300Y173629D01*
X107794Y173838D01*
D02*
G37*
G36*
X347934Y177165D02*
X347105D01*
X346304Y176951D01*
X345586Y176536D01*
X344999Y175950D01*
X344585Y175231D01*
X344370Y174430D01*
Y173601D01*
X344585Y172800D01*
X344999Y172082D01*
X345586Y171495D01*
X346304Y171081D01*
X347105Y170866D01*
X347934D01*
X348735Y171081D01*
X349454Y171495D01*
X350040Y172082D01*
X350455Y172800D01*
X350669Y173601D01*
Y174430D01*
X350455Y175231D01*
X350040Y175950D01*
X349454Y176536D01*
X348735Y176951D01*
X347934Y177165D01*
D02*
G37*
G36*
X103502Y171181D02*
X102954D01*
X102448Y170971D01*
X102060Y170584D01*
X101850Y170077D01*
Y169529D01*
X102060Y169023D01*
X102448Y168635D01*
X102954Y168425D01*
X103502D01*
X104009Y168635D01*
X104396Y169023D01*
X104606Y169529D01*
Y170077D01*
X104396Y170584D01*
X104009Y170971D01*
X103502Y171181D01*
D02*
G37*
G36*
X168030Y170118D02*
X167482D01*
X166975Y169908D01*
X166588Y169521D01*
X166378Y169014D01*
Y168466D01*
X166588Y167960D01*
X166975Y167572D01*
X167482Y167362D01*
X168030D01*
X168536Y167572D01*
X168924Y167960D01*
X169134Y168466D01*
Y169014D01*
X168924Y169521D01*
X168536Y169908D01*
X168030Y170118D01*
D02*
G37*
G36*
X-35277Y168268D02*
X-35825D01*
X-36332Y168058D01*
X-36719Y167670D01*
X-36929Y167164D01*
Y166616D01*
X-36719Y166109D01*
X-36332Y165722D01*
X-35825Y165512D01*
X-35277D01*
X-34771Y165722D01*
X-34383Y166109D01*
X-34173Y166616D01*
Y167164D01*
X-34383Y167670D01*
X-34771Y168058D01*
X-35277Y168268D01*
D02*
G37*
G36*
X355769Y165236D02*
X354940D01*
X354139Y165022D01*
X353420Y164607D01*
X352834Y164021D01*
X352690Y163771D01*
X352113D01*
X351969Y164021D01*
X351383Y164607D01*
X350664Y165022D01*
X349864Y165236D01*
X349034D01*
X348233Y165022D01*
X347515Y164607D01*
X346929Y164021D01*
X346785Y163771D01*
X346207D01*
X346064Y164021D01*
X345477Y164607D01*
X344759Y165022D01*
X343958Y165236D01*
X343129D01*
X342328Y165022D01*
X341609Y164607D01*
X341023Y164021D01*
X340879Y163771D01*
X340302D01*
X340158Y164021D01*
X339572Y164607D01*
X338854Y165022D01*
X338052Y165236D01*
X337223D01*
X336422Y165022D01*
X335704Y164607D01*
X335118Y164021D01*
X334974Y163771D01*
X334396D01*
X334253Y164021D01*
X333666Y164607D01*
X332948Y165022D01*
X332147Y165236D01*
X331318D01*
X330517Y165022D01*
X329798Y164607D01*
X329212Y164021D01*
X329068Y163771D01*
X328491D01*
X328347Y164021D01*
X327761Y164607D01*
X327043Y165022D01*
X326241Y165236D01*
X325412D01*
X324611Y165022D01*
X323893Y164607D01*
X323306Y164021D01*
X322892Y163302D01*
X322677Y162501D01*
Y161672D01*
X322892Y160871D01*
X323306Y160153D01*
X323893Y159566D01*
X324611Y159152D01*
X325412Y158937D01*
X326241D01*
X327043Y159152D01*
X327761Y159566D01*
X328347Y160153D01*
X328491Y160402D01*
X329068D01*
X329212Y160153D01*
X329798Y159566D01*
X330517Y159152D01*
X331318Y158937D01*
X332147D01*
X332948Y159152D01*
X333666Y159566D01*
X334253Y160153D01*
X334396Y160402D01*
X334974D01*
X335118Y160153D01*
X335704Y159566D01*
X336422Y159152D01*
X337223Y158937D01*
X338052D01*
X338854Y159152D01*
X339572Y159566D01*
X340158Y160153D01*
X340302Y160402D01*
X340879D01*
X341023Y160153D01*
X341609Y159566D01*
X342328Y159152D01*
X343129Y158937D01*
X343958D01*
X344759Y159152D01*
X345477Y159566D01*
X346064Y160153D01*
X346207Y160402D01*
X346785D01*
X346929Y160153D01*
X347515Y159566D01*
X348233Y159152D01*
X349034Y158937D01*
X349864D01*
X350664Y159152D01*
X351383Y159566D01*
X351969Y160153D01*
X352113Y160402D01*
X352690D01*
X352834Y160153D01*
X353420Y159566D01*
X354139Y159152D01*
X354940Y158937D01*
X355769D01*
X356570Y159152D01*
X357288Y159566D01*
X357875Y160153D01*
X358289Y160871D01*
X358504Y161672D01*
Y162501D01*
X358289Y163302D01*
X357875Y164021D01*
X357288Y164607D01*
X356570Y165022D01*
X355769Y165236D01*
D02*
G37*
G36*
X223367Y164173D02*
X222538D01*
X221737Y163959D01*
X221019Y163544D01*
X220432Y162958D01*
X220289Y162709D01*
X219711D01*
X219568Y162958D01*
X218981Y163544D01*
X218263Y163959D01*
X217462Y164173D01*
X216633D01*
X215832Y163959D01*
X215113Y163544D01*
X214527Y162958D01*
X214112Y162239D01*
X213898Y161438D01*
Y160609D01*
X214112Y159808D01*
X214527Y159090D01*
X215113Y158503D01*
X215363Y158360D01*
Y157782D01*
X215113Y157638D01*
X214527Y157052D01*
X214112Y156334D01*
X213898Y155533D01*
Y154703D01*
X214112Y153902D01*
X214527Y153184D01*
X215113Y152598D01*
X215832Y152183D01*
X216633Y151968D01*
X217462D01*
X218263Y152183D01*
X218981Y152598D01*
X219568Y153184D01*
X219711Y153433D01*
X220289D01*
X220432Y153184D01*
X221019Y152598D01*
X221737Y152183D01*
X222538Y151968D01*
X223367D01*
X224168Y152183D01*
X224887Y152598D01*
X225473Y153184D01*
X225888Y153902D01*
X226102Y154703D01*
Y155533D01*
X225888Y156334D01*
X225473Y157052D01*
X224887Y157638D01*
X224638Y157782D01*
Y158360D01*
X224887Y158503D01*
X225473Y159090D01*
X225888Y159808D01*
X226102Y160609D01*
Y161438D01*
X225888Y162239D01*
X225473Y162958D01*
X224887Y163544D01*
X224168Y163959D01*
X223367Y164173D01*
D02*
G37*
G36*
X-23820Y164921D02*
X-24369D01*
X-24875Y164711D01*
X-25263Y164324D01*
X-25472Y163817D01*
Y163269D01*
X-25263Y162763D01*
X-24875Y162375D01*
X-24369Y162165D01*
X-23820D01*
X-23314Y162375D01*
X-22926Y162763D01*
X-22716Y163269D01*
Y163817D01*
X-22926Y164324D01*
X-23314Y164711D01*
X-23820Y164921D01*
D02*
G37*
G36*
X63621Y164803D02*
X63073D01*
X62566Y164593D01*
X62178Y164206D01*
X61969Y163699D01*
Y163151D01*
X62178Y162645D01*
X62566Y162257D01*
X63073Y162047D01*
X63621D01*
X64127Y162257D01*
X64515Y162645D01*
X64724Y163151D01*
Y163699D01*
X64515Y164206D01*
X64127Y164593D01*
X63621Y164803D01*
D02*
G37*
G36*
X528113Y170321D02*
X527002D01*
X525929Y170034D01*
X524967Y169478D01*
X524181Y168693D01*
X523626Y167731D01*
X523338Y166658D01*
Y165547D01*
X523626Y164474D01*
X524181Y163512D01*
X524967Y162727D01*
X525929Y162171D01*
X527002Y161884D01*
X528113D01*
X529185Y162171D01*
X530148Y162727D01*
X530933Y163512D01*
X531488Y164474D01*
X531776Y165547D01*
Y166658D01*
X531488Y167731D01*
X530933Y168693D01*
X530148Y169478D01*
X529185Y170034D01*
X528113Y170321D01*
D02*
G37*
G36*
X290195Y165394D02*
X289333D01*
X288537Y165064D01*
X287928Y164455D01*
X287598Y163659D01*
Y162798D01*
X287928Y162002D01*
X288537Y161393D01*
X289333Y161063D01*
X290195D01*
X290990Y161393D01*
X291600Y162002D01*
X291929Y162798D01*
Y163659D01*
X291600Y164455D01*
X290990Y165064D01*
X290195Y165394D01*
D02*
G37*
G36*
X285037D02*
X284176D01*
X283380Y165064D01*
X282771Y164455D01*
X282441Y163659D01*
Y162798D01*
X282771Y162002D01*
X283380Y161393D01*
X284176Y161063D01*
X285037D01*
X285833Y161393D01*
X286442Y162002D01*
X286772Y162798D01*
Y163659D01*
X286442Y164455D01*
X285833Y165064D01*
X285037Y165394D01*
D02*
G37*
G36*
X176416Y160551D02*
X175868D01*
X175361Y160341D01*
X174974Y159954D01*
X174764Y159447D01*
Y158899D01*
X174974Y158393D01*
X175361Y158005D01*
X175868Y157795D01*
X176416D01*
X176922Y158005D01*
X177310Y158393D01*
X177520Y158899D01*
Y159447D01*
X177310Y159954D01*
X176922Y160341D01*
X176416Y160551D01*
D02*
G37*
G36*
X-34883Y158858D02*
X-35432D01*
X-35938Y158649D01*
X-36326Y158261D01*
X-36535Y157754D01*
Y157206D01*
X-36326Y156700D01*
X-35938Y156312D01*
X-35432Y156102D01*
X-34883D01*
X-34377Y156312D01*
X-33989Y156700D01*
X-33779Y157206D01*
Y157754D01*
X-33989Y158261D01*
X-34377Y158649D01*
X-34883Y158858D01*
D02*
G37*
G36*
X276206Y158078D02*
X275658D01*
X275151Y157868D01*
X274764Y157480D01*
X274554Y156974D01*
Y156426D01*
X274764Y155919D01*
X275151Y155532D01*
X275658Y155322D01*
X276206D01*
X276712Y155532D01*
X277100Y155919D01*
X277310Y156426D01*
Y156974D01*
X277100Y157480D01*
X276712Y157868D01*
X276206Y158078D01*
D02*
G37*
G36*
X163266Y157087D02*
X162718D01*
X162212Y156877D01*
X161824Y156489D01*
X161614Y155983D01*
Y155435D01*
X161824Y154928D01*
X162212Y154541D01*
X162718Y154331D01*
X163266D01*
X163773Y154541D01*
X164160Y154928D01*
X164370Y155435D01*
Y155983D01*
X164160Y156489D01*
X163773Y156877D01*
X163266Y157087D01*
D02*
G37*
G36*
X-22206Y155984D02*
X-22754D01*
X-23261Y155774D01*
X-23649Y155387D01*
X-23858Y154880D01*
Y154332D01*
X-23649Y153826D01*
X-23261Y153438D01*
X-22754Y153228D01*
X-22206D01*
X-21700Y153438D01*
X-21312Y153826D01*
X-21102Y154332D01*
Y154880D01*
X-21312Y155387D01*
X-21700Y155774D01*
X-22206Y155984D01*
D02*
G37*
G36*
X201849Y167874D02*
X201301D01*
X200794Y167664D01*
X200407Y167277D01*
X200197Y166770D01*
Y166222D01*
X200407Y165716D01*
X200571Y165551D01*
Y152862D01*
X200071Y152762D01*
X200059Y152792D01*
X199671Y153180D01*
X199165Y153390D01*
X198617D01*
X198110Y153180D01*
X197723Y152792D01*
X197513Y152286D01*
Y151737D01*
X197723Y151231D01*
X198110Y150844D01*
X198617Y150634D01*
X199113D01*
X199221Y150500D01*
X199359Y150173D01*
X196686Y147500D01*
X196453D01*
X195947Y147290D01*
X195559Y146903D01*
X195350Y146396D01*
Y145848D01*
X195559Y145342D01*
X195947Y144954D01*
X196453Y144744D01*
X197002D01*
X197508Y144954D01*
X197896Y145342D01*
X198106Y145848D01*
Y146081D01*
X202284Y150260D01*
X202502Y150585D01*
X202578Y150970D01*
Y165551D01*
X202743Y165716D01*
X202953Y166222D01*
Y166770D01*
X202743Y167277D01*
X202355Y167664D01*
X201849Y167874D01*
D02*
G37*
G36*
X274630Y154273D02*
X274082D01*
X273575Y154063D01*
X273188Y153675D01*
X272978Y153169D01*
Y152621D01*
X273188Y152114D01*
X273575Y151726D01*
X274082Y151517D01*
X274630D01*
X275136Y151726D01*
X275524Y152114D01*
X275734Y152621D01*
Y153169D01*
X275524Y153675D01*
X275136Y154063D01*
X274630Y154273D01*
D02*
G37*
G36*
X259880Y263583D02*
X259332D01*
X258826Y263373D01*
X258438Y262985D01*
X258228Y262479D01*
Y261931D01*
X258438Y261424D01*
X258826Y261037D01*
X259332Y260827D01*
X259352D01*
X260099Y260080D01*
Y155117D01*
X258575Y153593D01*
X258357Y153268D01*
X258281Y152883D01*
Y151253D01*
X257966Y150938D01*
X257756Y150432D01*
Y149883D01*
X257966Y149377D01*
X258353Y148989D01*
X258860Y148779D01*
X259408D01*
X259914Y148989D01*
X260302Y149377D01*
X260512Y149883D01*
Y150432D01*
X260302Y150938D01*
X260288Y150952D01*
Y152468D01*
X261812Y153992D01*
X262030Y154317D01*
X262106Y154701D01*
Y260496D01*
X262030Y260880D01*
X261812Y261205D01*
X260984Y262033D01*
Y262479D01*
X260774Y262985D01*
X260387Y263373D01*
X259880Y263583D01*
D02*
G37*
G36*
X144250Y153032D02*
X143388D01*
X142592Y152702D01*
X141983Y152093D01*
X141654Y151297D01*
Y150435D01*
X141983Y149640D01*
X142592Y149030D01*
X143388Y148701D01*
X144250D01*
X145045Y149030D01*
X145655Y149640D01*
X145984Y150435D01*
Y151297D01*
X145655Y152093D01*
X145045Y152702D01*
X144250Y153032D01*
D02*
G37*
G36*
X187318Y148991D02*
X186770D01*
X186263Y148782D01*
X185876Y148394D01*
X185666Y147887D01*
Y147339D01*
X185876Y146833D01*
X186263Y146445D01*
X186770Y146235D01*
X187318D01*
X187824Y146445D01*
X188212Y146833D01*
X188422Y147339D01*
Y147887D01*
X188212Y148394D01*
X187824Y148782D01*
X187318Y148991D01*
D02*
G37*
G36*
X195589Y168150D02*
X195041D01*
X194534Y167940D01*
X194147Y167552D01*
X193937Y167046D01*
Y166498D01*
X194147Y165991D01*
X194430Y165708D01*
Y150219D01*
X193155Y148944D01*
X192922D01*
X192415Y148734D01*
X192028Y148346D01*
X191818Y147840D01*
Y147292D01*
X192028Y146785D01*
X192415Y146398D01*
X192922Y146188D01*
X193470D01*
X193976Y146398D01*
X194364Y146785D01*
X194574Y147292D01*
Y147525D01*
X196143Y149094D01*
X196360Y149419D01*
X196437Y149803D01*
Y165945D01*
X196483Y165991D01*
X196693Y166498D01*
Y167046D01*
X196483Y167552D01*
X196096Y167940D01*
X195589Y168150D01*
D02*
G37*
G36*
X223367Y146535D02*
X222538D01*
X221737Y146321D01*
X221019Y145906D01*
X220432Y145320D01*
X220289Y145071D01*
X219711D01*
X219568Y145320D01*
X218981Y145906D01*
X218263Y146321D01*
X217462Y146535D01*
X216633D01*
X215832Y146321D01*
X215113Y145906D01*
X214527Y145320D01*
X214112Y144602D01*
X213898Y143800D01*
Y142971D01*
X214112Y142170D01*
X214527Y141452D01*
X215113Y140866D01*
X215363Y140722D01*
Y140144D01*
X215113Y140000D01*
X214527Y139414D01*
X214112Y138696D01*
X213898Y137895D01*
Y137066D01*
X214112Y136265D01*
X214527Y135546D01*
X215113Y134960D01*
X215832Y134545D01*
X216633Y134331D01*
X217462D01*
X218263Y134545D01*
X218981Y134960D01*
X219568Y135546D01*
X219711Y135795D01*
X220289D01*
X220432Y135546D01*
X221019Y134960D01*
X221737Y134545D01*
X222538Y134331D01*
X223367D01*
X224168Y134545D01*
X224887Y134960D01*
X225473Y135546D01*
X225888Y136265D01*
X226102Y137066D01*
Y137895D01*
X225888Y138696D01*
X225473Y139414D01*
X224887Y140000D01*
X224638Y140144D01*
Y140722D01*
X224887Y140866D01*
X225473Y141452D01*
X225888Y142170D01*
X226102Y142971D01*
Y143800D01*
X225888Y144602D01*
X225473Y145320D01*
X224887Y145906D01*
X224168Y146321D01*
X223367Y146535D01*
D02*
G37*
G36*
X409880Y143504D02*
X409332D01*
X408826Y143294D01*
X408438Y142907D01*
X408228Y142400D01*
Y141852D01*
X408438Y141346D01*
X408826Y140958D01*
X409332Y140748D01*
X409880D01*
X410387Y140958D01*
X410775Y141346D01*
X410984Y141852D01*
Y142400D01*
X410775Y142907D01*
X410387Y143294D01*
X409880Y143504D01*
D02*
G37*
G36*
X356202Y158071D02*
X355373D01*
X354572Y157856D01*
X353854Y157442D01*
X353267Y156855D01*
X352852Y156137D01*
X352638Y155336D01*
Y154507D01*
X352852Y153706D01*
X353267Y152987D01*
X353854Y152401D01*
X354103Y152257D01*
Y151680D01*
X353854Y151536D01*
X353267Y150950D01*
X352852Y150231D01*
X352638Y149430D01*
Y148601D01*
X352852Y147800D01*
X353267Y147082D01*
X353854Y146495D01*
X354102Y146352D01*
Y145774D01*
X353854Y145631D01*
X353267Y145044D01*
X352852Y144326D01*
X352638Y143525D01*
Y142696D01*
X352852Y141895D01*
X353267Y141176D01*
X353854Y140590D01*
X354572Y140175D01*
X355373Y139961D01*
X356202D01*
X357003Y140175D01*
X357721Y140590D01*
X358228Y141097D01*
X358775Y140551D01*
X359493Y140136D01*
X360294Y139921D01*
X361123D01*
X361924Y140136D01*
X362643Y140551D01*
X363229Y141137D01*
X363644Y141855D01*
X363858Y142656D01*
Y143485D01*
X363644Y144287D01*
X363229Y145005D01*
X362643Y145591D01*
X362394Y145735D01*
Y146312D01*
X362643Y146456D01*
X363229Y147042D01*
X363644Y147761D01*
X363858Y148562D01*
Y149391D01*
X363644Y150192D01*
X363229Y150910D01*
X362643Y151497D01*
X362393Y151640D01*
Y152218D01*
X362643Y152362D01*
X363229Y152948D01*
X363644Y153666D01*
X363858Y154467D01*
Y155297D01*
X363644Y156098D01*
X363229Y156816D01*
X362643Y157402D01*
X361924Y157817D01*
X361123Y158031D01*
X360294D01*
X359493Y157817D01*
X358775Y157402D01*
X358268Y156895D01*
X357721Y157442D01*
X357003Y157856D01*
X356202Y158071D01*
D02*
G37*
G36*
X227991Y172205D02*
X227443D01*
X226936Y171995D01*
X226548Y171607D01*
X226339Y171101D01*
Y170553D01*
X226548Y170046D01*
X226936Y169659D01*
X227443Y169449D01*
X227675D01*
X235217Y161907D01*
Y141851D01*
X235052Y141686D01*
X234842Y141180D01*
Y140631D01*
X235052Y140125D01*
X235440Y139737D01*
X235946Y139528D01*
X236494D01*
X237001Y139737D01*
X237389Y140125D01*
X237598Y140631D01*
Y141180D01*
X237389Y141686D01*
X237224Y141851D01*
Y162323D01*
X237148Y162707D01*
X236930Y163032D01*
X229095Y170868D01*
Y171101D01*
X228885Y171607D01*
X228497Y171995D01*
X227991Y172205D01*
D02*
G37*
G36*
X240983Y169921D02*
X240435D01*
X239928Y169711D01*
X239541Y169324D01*
X239331Y168817D01*
Y168269D01*
X239541Y167763D01*
X239928Y167375D01*
X240435Y167165D01*
X240454D01*
X241201Y166419D01*
Y138307D01*
X241037Y138143D01*
X240827Y137636D01*
Y137088D01*
X241037Y136582D01*
X241424Y136194D01*
X241931Y135984D01*
X242479D01*
X242985Y136194D01*
X243373Y136582D01*
X243583Y137088D01*
Y137636D01*
X243373Y138143D01*
X243208Y138307D01*
Y166834D01*
X243132Y167218D01*
X242914Y167544D01*
X242087Y168371D01*
Y168817D01*
X241877Y169324D01*
X241489Y169711D01*
X240983Y169921D01*
D02*
G37*
G36*
X433204Y138354D02*
X432656D01*
X432150Y138144D01*
X431762Y137757D01*
X431552Y137250D01*
Y136702D01*
X431762Y136196D01*
X432150Y135808D01*
X432656Y135598D01*
X433204D01*
X433711Y135808D01*
X434098Y136196D01*
X434308Y136702D01*
Y137250D01*
X434098Y137757D01*
X433711Y138144D01*
X433204Y138354D01*
D02*
G37*
G36*
X357361Y137835D02*
X356813D01*
X356306Y137625D01*
X356141Y137460D01*
X346565D01*
X346181Y137384D01*
X345855Y137166D01*
X334634Y125944D01*
X325079D01*
X324914Y126109D01*
X324408Y126319D01*
X323860D01*
X323353Y126109D01*
X322966Y125722D01*
X322756Y125215D01*
Y124667D01*
X322966Y124160D01*
X323353Y123773D01*
X323860Y123563D01*
X324408D01*
X324914Y123773D01*
X325079Y123937D01*
X335049D01*
X335433Y124014D01*
X335759Y124231D01*
X346981Y135453D01*
X356141D01*
X356306Y135289D01*
X356813Y135079D01*
X357361D01*
X357867Y135289D01*
X358255Y135676D01*
X358465Y136183D01*
Y136731D01*
X358255Y137237D01*
X357867Y137625D01*
X357361Y137835D01*
D02*
G37*
G36*
X107411Y140994D02*
X99833D01*
Y133415D01*
X107411D01*
Y140994D01*
D02*
G37*
G36*
X275195Y149173D02*
X274647D01*
X274141Y148963D01*
X273753Y148576D01*
X273543Y148069D01*
Y147521D01*
X273753Y147015D01*
X273918Y146850D01*
Y106991D01*
X272124Y105197D01*
X271891D01*
X271385Y104987D01*
X270997Y104599D01*
X270787Y104093D01*
Y103545D01*
X270997Y103038D01*
X271385Y102651D01*
X271891Y102441D01*
X272439D01*
X272946Y102651D01*
X273334Y103038D01*
X273543Y103545D01*
Y103778D01*
X275631Y105865D01*
X275848Y106191D01*
X275925Y106575D01*
Y122143D01*
X276425Y122477D01*
X276892Y122283D01*
X277753D01*
X278549Y122613D01*
X279158Y123222D01*
X279488Y124018D01*
Y124880D01*
X279158Y125675D01*
X278549Y126285D01*
X277753Y126614D01*
X276892D01*
X276615Y126499D01*
X276157Y126806D01*
Y126974D01*
X276615Y127280D01*
X276892Y127165D01*
X277753D01*
X278549Y127495D01*
X279158Y128104D01*
X279488Y128900D01*
Y129761D01*
X279158Y130557D01*
X278549Y131166D01*
X277753Y131496D01*
X276892D01*
X276425Y131302D01*
X275925Y131637D01*
Y132615D01*
X276425Y132949D01*
X276892Y132756D01*
X277753D01*
X278549Y133086D01*
X279158Y133695D01*
X279488Y134491D01*
Y135352D01*
X279158Y136148D01*
X278549Y136757D01*
X277753Y137087D01*
X276892D01*
X276425Y136893D01*
X275925Y137227D01*
Y146850D01*
X276089Y147015D01*
X276299Y147521D01*
Y148069D01*
X276089Y148576D01*
X275702Y148963D01*
X275195Y149173D01*
D02*
G37*
G36*
X130983Y135118D02*
X130435D01*
X129928Y134908D01*
X129541Y134521D01*
X129331Y134014D01*
Y133466D01*
X129541Y132960D01*
X129928Y132572D01*
X130435Y132362D01*
X130983D01*
X131489Y132572D01*
X131877Y132960D01*
X132087Y133466D01*
Y134014D01*
X131877Y134521D01*
X131489Y134908D01*
X130983Y135118D01*
D02*
G37*
G36*
X330510Y134488D02*
X329962D01*
X329456Y134278D01*
X329068Y133891D01*
X328858Y133384D01*
Y132836D01*
X329068Y132330D01*
X329456Y131942D01*
X329962Y131732D01*
X330510D01*
X331017Y131942D01*
X331404Y132330D01*
X331614Y132836D01*
Y133384D01*
X331404Y133891D01*
X331017Y134278D01*
X330510Y134488D01*
D02*
G37*
G36*
X407934Y131339D02*
X407105D01*
X406304Y131124D01*
X405586Y130709D01*
X404999Y130123D01*
X404856Y129874D01*
X404278D01*
X404135Y130123D01*
X403548Y130709D01*
X402830Y131124D01*
X402029Y131339D01*
X401199D01*
X400398Y131124D01*
X399680Y130709D01*
X399094Y130123D01*
X398950Y129874D01*
X398373D01*
X398229Y130123D01*
X397643Y130709D01*
X396924Y131124D01*
X396123Y131339D01*
X395294D01*
X394493Y131124D01*
X393775Y130709D01*
X393188Y130123D01*
X392774Y129405D01*
X392559Y128604D01*
Y127774D01*
X392774Y126973D01*
X393188Y126255D01*
X393775Y125669D01*
X394024Y125525D01*
Y124948D01*
X393775Y124804D01*
X393188Y124217D01*
X392774Y123499D01*
X392559Y122698D01*
Y121869D01*
X392774Y121068D01*
X393188Y120350D01*
X393775Y119763D01*
X394024Y119619D01*
Y119042D01*
X393775Y118898D01*
X393188Y118312D01*
X392774Y117594D01*
X392559Y116793D01*
Y115963D01*
X392774Y115162D01*
X393188Y114444D01*
X393775Y113858D01*
X394024Y113714D01*
Y113137D01*
X393775Y112993D01*
X393188Y112406D01*
X392774Y111688D01*
X392559Y110887D01*
Y110058D01*
X392774Y109257D01*
X393188Y108539D01*
X393775Y107952D01*
X394024Y107808D01*
Y107231D01*
X393775Y107087D01*
X393188Y106501D01*
X392774Y105783D01*
X392559Y104982D01*
Y104152D01*
X392774Y103351D01*
X393188Y102633D01*
X393775Y102047D01*
X394024Y101903D01*
Y101326D01*
X393775Y101182D01*
X393188Y100595D01*
X392774Y99877D01*
X392559Y99076D01*
Y98247D01*
X392774Y97446D01*
X393188Y96728D01*
X393775Y96141D01*
X394024Y95997D01*
Y95420D01*
X393775Y95276D01*
X393188Y94690D01*
X392774Y93972D01*
X392559Y93171D01*
Y92341D01*
X392774Y91540D01*
X393188Y90822D01*
X393775Y90236D01*
X394493Y89821D01*
X395294Y89606D01*
X396123D01*
X396924Y89821D01*
X397643Y90236D01*
X398229Y90822D01*
X398373Y91071D01*
X398950D01*
X399094Y90822D01*
X399680Y90236D01*
X400398Y89821D01*
X401199Y89606D01*
X402029D01*
X402830Y89821D01*
X403548Y90236D01*
X404135Y90822D01*
X404278Y91071D01*
X404856D01*
X404999Y90822D01*
X405586Y90236D01*
X406304Y89821D01*
X407105Y89606D01*
X407934D01*
X408735Y89821D01*
X409454Y90236D01*
X410040Y90822D01*
X410455Y91540D01*
X410669Y92341D01*
Y93171D01*
X410455Y93972D01*
X410040Y94690D01*
X409454Y95276D01*
X408735Y95691D01*
X407934Y95906D01*
X407105D01*
X406304Y95691D01*
X405586Y95276D01*
X404999Y94690D01*
X404856Y94441D01*
X404278D01*
X404135Y94690D01*
X403548Y95276D01*
X403299Y95420D01*
Y95997D01*
X403548Y96141D01*
X404134Y96728D01*
X404549Y97446D01*
X404764Y98247D01*
Y99076D01*
X404549Y99877D01*
X404134Y100595D01*
X403548Y101182D01*
X403299Y101326D01*
Y101903D01*
X403548Y102047D01*
X404134Y102633D01*
X404549Y103351D01*
X404764Y104152D01*
Y104982D01*
X404549Y105783D01*
X404134Y106501D01*
X403548Y107087D01*
X403299Y107231D01*
Y107808D01*
X403548Y107952D01*
X404134Y108539D01*
X404549Y109257D01*
X404764Y110058D01*
Y110887D01*
X404549Y111688D01*
X404134Y112406D01*
X403548Y112993D01*
X403299Y113137D01*
Y113714D01*
X403548Y113858D01*
X404134Y114444D01*
X404549Y115162D01*
X404764Y115963D01*
Y116793D01*
X404549Y117594D01*
X404134Y118312D01*
X403548Y118898D01*
X403299Y119042D01*
Y119619D01*
X403548Y119763D01*
X404134Y120350D01*
X404549Y121068D01*
X404764Y121869D01*
Y122698D01*
X404549Y123499D01*
X404134Y124217D01*
X403548Y124804D01*
X403299Y124948D01*
Y125525D01*
X403548Y125669D01*
X404135Y126255D01*
X404278Y126504D01*
X404856D01*
X404999Y126255D01*
X405586Y125669D01*
X406304Y125254D01*
X407105Y125039D01*
X407934D01*
X408735Y125254D01*
X409454Y125669D01*
X410040Y126255D01*
X410455Y126973D01*
X410669Y127774D01*
Y128604D01*
X410455Y129405D01*
X410040Y130123D01*
X409454Y130709D01*
X408735Y131124D01*
X407934Y131339D01*
D02*
G37*
G36*
X351534Y134370D02*
X350986D01*
X350479Y134160D01*
X350092Y133773D01*
X349882Y133266D01*
Y132718D01*
X350092Y132212D01*
X350267Y132037D01*
X350252Y131975D01*
X350021Y131575D01*
X349608D01*
X349101Y131365D01*
X348714Y130977D01*
X348504Y130471D01*
Y129923D01*
X348714Y129416D01*
X349101Y129029D01*
X349608Y128819D01*
X350156D01*
X350662Y129029D01*
X351050Y129416D01*
X351260Y129923D01*
Y130471D01*
X351050Y130977D01*
X350875Y131152D01*
X350890Y131214D01*
X351120Y131614D01*
X351534D01*
X352040Y131824D01*
X352428Y132212D01*
X352638Y132718D01*
Y133266D01*
X352428Y133773D01*
X352040Y134160D01*
X351534Y134370D01*
D02*
G37*
G36*
X329998Y131102D02*
X329450D01*
X328944Y130893D01*
X328556Y130505D01*
X328346Y129999D01*
Y129450D01*
X328556Y128944D01*
X328944Y128556D01*
X329450Y128347D01*
X329998D01*
X330505Y128556D01*
X330893Y128944D01*
X331102Y129450D01*
Y129999D01*
X330893Y130505D01*
X330505Y130893D01*
X329998Y131102D01*
D02*
G37*
G36*
X119172Y130827D02*
X118624D01*
X118117Y130617D01*
X117729Y130229D01*
X117520Y129723D01*
Y129175D01*
X117729Y128668D01*
X118117Y128281D01*
X118624Y128071D01*
X119172D01*
X119678Y128281D01*
X120066Y128668D01*
X120276Y129175D01*
Y129723D01*
X120066Y130229D01*
X119678Y130617D01*
X119172Y130827D01*
D02*
G37*
G36*
X291376Y137087D02*
X290514D01*
X289718Y136757D01*
X289109Y136148D01*
X288780Y135352D01*
Y134491D01*
X289109Y133695D01*
X289718Y133086D01*
X290514Y132756D01*
Y132283D01*
X289718Y131954D01*
X289109Y131345D01*
X288780Y130549D01*
Y129687D01*
X289109Y128892D01*
X289718Y128282D01*
X290514Y127953D01*
X291376D01*
X292172Y128282D01*
X292781Y128892D01*
X293110Y129687D01*
Y130549D01*
X292781Y131345D01*
X292172Y131954D01*
X291376Y132283D01*
Y132756D01*
X292172Y133086D01*
X292781Y133695D01*
X293110Y134491D01*
Y135352D01*
X292781Y136148D01*
X292172Y136757D01*
X291376Y137087D01*
D02*
G37*
G36*
X352006Y128543D02*
X351458D01*
X350952Y128333D01*
X350564Y127946D01*
X350354Y127439D01*
Y126891D01*
X350564Y126385D01*
X350952Y125997D01*
X351458Y125787D01*
X352006D01*
X352513Y125997D01*
X352901Y126385D01*
X353110Y126891D01*
Y127439D01*
X352901Y127946D01*
X352513Y128333D01*
X352006Y128543D01*
D02*
G37*
G36*
X204917Y125817D02*
X204368D01*
X203862Y125607D01*
X203474Y125220D01*
X203264Y124713D01*
Y124165D01*
X203474Y123659D01*
X203862Y123271D01*
X204368Y123061D01*
X204917D01*
X205423Y123271D01*
X205811Y123659D01*
X206020Y124165D01*
Y124713D01*
X205811Y125220D01*
X205423Y125607D01*
X204917Y125817D01*
D02*
G37*
G36*
X528113Y130321D02*
X527002D01*
X525929Y130034D01*
X524967Y129478D01*
X524181Y128693D01*
X523626Y127731D01*
X523338Y126658D01*
Y125547D01*
X523626Y124474D01*
X524181Y123512D01*
X524967Y122727D01*
X525929Y122171D01*
X527002Y121884D01*
X528113D01*
X529185Y122171D01*
X530148Y122727D01*
X530933Y123512D01*
X531488Y124474D01*
X531776Y125547D01*
Y126658D01*
X531488Y127731D01*
X530933Y128693D01*
X530148Y129478D01*
X529185Y130034D01*
X528113Y130321D01*
D02*
G37*
G36*
X-21183Y122480D02*
X-21731D01*
X-22237Y122271D01*
X-22625Y121883D01*
X-22835Y121377D01*
Y120828D01*
X-22625Y120322D01*
X-22237Y119934D01*
X-21731Y119725D01*
X-21183D01*
X-20676Y119934D01*
X-20289Y120322D01*
X-20079Y120828D01*
Y121377D01*
X-20289Y121883D01*
X-20676Y122271D01*
X-21183Y122480D01*
D02*
G37*
G36*
X287124Y121929D02*
X286262D01*
X285466Y121599D01*
X284857Y120990D01*
X284528Y120194D01*
Y119333D01*
X284857Y118537D01*
X285466Y117928D01*
X286262Y117598D01*
X287124D01*
X287919Y117928D01*
X288529Y118537D01*
X288858Y119333D01*
Y120194D01*
X288529Y120990D01*
X287919Y121599D01*
X287124Y121929D01*
D02*
G37*
G36*
X158857Y120043D02*
X158309D01*
X157803Y119833D01*
X157415Y119445D01*
X157205Y118939D01*
Y118390D01*
X157415Y117884D01*
X157803Y117496D01*
X158309Y117287D01*
X158857D01*
X159364Y117496D01*
X159751Y117884D01*
X159961Y118390D01*
Y118939D01*
X159751Y119445D01*
X159364Y119833D01*
X158857Y120043D01*
D02*
G37*
G36*
X344959Y118307D02*
X344411D01*
X343905Y118097D01*
X343517Y117710D01*
X343307Y117203D01*
Y116655D01*
X343517Y116149D01*
X343905Y115761D01*
X344411Y115551D01*
X344959D01*
X345466Y115761D01*
X345853Y116149D01*
X346063Y116655D01*
Y117203D01*
X345853Y117710D01*
X345466Y118097D01*
X344959Y118307D01*
D02*
G37*
G36*
X330313Y118110D02*
X329765D01*
X329259Y117901D01*
X328871Y117513D01*
X328661Y117006D01*
Y116458D01*
X328871Y115952D01*
X329259Y115564D01*
X329765Y115354D01*
X330313D01*
X330820Y115564D01*
X331207Y115952D01*
X331417Y116458D01*
Y117006D01*
X331207Y117513D01*
X330820Y117901D01*
X330313Y118110D01*
D02*
G37*
G36*
X151573Y115630D02*
X151025D01*
X150519Y115420D01*
X150131Y115032D01*
X149921Y114526D01*
Y113978D01*
X150131Y113471D01*
X150519Y113084D01*
X151025Y112874D01*
X151573D01*
X152080Y113084D01*
X152467Y113471D01*
X152677Y113978D01*
Y114526D01*
X152467Y115032D01*
X152080Y115420D01*
X151573Y115630D01*
D02*
G37*
G36*
X256180Y108504D02*
X255631D01*
X255125Y108294D01*
X254737Y107906D01*
X254528Y107400D01*
Y106852D01*
X254737Y106345D01*
X255125Y105958D01*
X255631Y105748D01*
X256180D01*
X256686Y105958D01*
X257074Y106345D01*
X257283Y106852D01*
Y107400D01*
X257074Y107906D01*
X256686Y108294D01*
X256180Y108504D01*
D02*
G37*
G36*
X528113Y114022D02*
X527002D01*
X525929Y113734D01*
X524967Y113179D01*
X524181Y112394D01*
X523626Y111432D01*
X523338Y110359D01*
Y109248D01*
X523626Y108175D01*
X524181Y107213D01*
X524967Y106427D01*
X525929Y105872D01*
X527002Y105585D01*
X528113D01*
X529185Y105872D01*
X530148Y106427D01*
X530933Y107213D01*
X531488Y108175D01*
X531776Y109248D01*
Y110359D01*
X531488Y111432D01*
X530933Y112394D01*
X530148Y113179D01*
X529185Y113734D01*
X528113Y114022D01*
D02*
G37*
G36*
X335904Y106378D02*
X335356D01*
X334849Y106168D01*
X334462Y105780D01*
X334252Y105274D01*
Y104726D01*
X334462Y104219D01*
X334849Y103832D01*
X335356Y103622D01*
X335904D01*
X336410Y103832D01*
X336798Y104219D01*
X337008Y104726D01*
Y105274D01*
X336798Y105780D01*
X336410Y106168D01*
X335904Y106378D01*
D02*
G37*
G36*
X339802Y106299D02*
X339253D01*
X338747Y106089D01*
X338359Y105702D01*
X338150Y105195D01*
Y104647D01*
X338359Y104141D01*
X338747Y103753D01*
X339253Y103543D01*
X339802D01*
X340308Y103753D01*
X340696Y104141D01*
X340905Y104647D01*
Y105195D01*
X340696Y105702D01*
X340308Y106089D01*
X339802Y106299D01*
D02*
G37*
G36*
X109565Y108543D02*
X109017D01*
X108511Y108334D01*
X108123Y107946D01*
X107913Y107439D01*
Y106891D01*
X108123Y106385D01*
X108511Y105997D01*
X108554Y105979D01*
Y105438D01*
X108511Y105420D01*
X108123Y105033D01*
X107913Y104526D01*
Y103978D01*
X108123Y103471D01*
X108511Y103084D01*
X109017Y102874D01*
X109565D01*
X110072Y103084D01*
X110459Y103471D01*
X110669Y103978D01*
Y104526D01*
X110459Y105033D01*
X110072Y105420D01*
X110029Y105438D01*
Y105979D01*
X110072Y105997D01*
X110459Y106385D01*
X110669Y106891D01*
Y107439D01*
X110459Y107946D01*
X110072Y108334D01*
X109565Y108543D01*
D02*
G37*
G36*
X357124Y99488D02*
X356576D01*
X356070Y99278D01*
X355682Y98891D01*
X355472Y98384D01*
Y97836D01*
X355682Y97330D01*
X356070Y96942D01*
X356576Y96732D01*
X357124D01*
X357631Y96942D01*
X358019Y97330D01*
X358228Y97836D01*
Y98384D01*
X358019Y98891D01*
X357631Y99278D01*
X357124Y99488D01*
D02*
G37*
G36*
X217462Y107205D02*
X216633D01*
X215832Y106990D01*
X215113Y106576D01*
X214527Y105989D01*
X214112Y105271D01*
X213898Y104470D01*
Y103641D01*
X214112Y102840D01*
X214527Y102121D01*
X215113Y101535D01*
X215363Y101391D01*
Y100814D01*
X215113Y100670D01*
X214527Y100083D01*
X214112Y99365D01*
X213898Y98564D01*
Y97735D01*
X214112Y96934D01*
X214527Y96216D01*
X215113Y95629D01*
X215832Y95215D01*
X216633Y95000D01*
X217462D01*
X218263Y95215D01*
X218981Y95629D01*
X219568Y96216D01*
X219711Y96465D01*
X220289D01*
X220432Y96216D01*
X221019Y95629D01*
X221737Y95215D01*
X222538Y95000D01*
X223367D01*
X224168Y95215D01*
X224887Y95629D01*
X225473Y96216D01*
X225888Y96934D01*
X226102Y97735D01*
Y98564D01*
X225888Y99365D01*
X225473Y100083D01*
X224887Y100670D01*
X224638Y100814D01*
Y101391D01*
X224887Y101535D01*
X225473Y102121D01*
X225888Y102839D01*
X226102Y103640D01*
Y104470D01*
X225888Y105271D01*
X225473Y105989D01*
X224887Y106576D01*
X224168Y106990D01*
X223367Y107205D01*
X222538D01*
X221737Y106990D01*
X221019Y106576D01*
X220432Y105989D01*
X220289Y105740D01*
X219711D01*
X219568Y105989D01*
X218981Y106576D01*
X218263Y106990D01*
X217462Y107205D01*
D02*
G37*
G36*
X344408Y98307D02*
X343860D01*
X343353Y98097D01*
X342966Y97710D01*
X342756Y97203D01*
Y96655D01*
X342966Y96149D01*
X343223Y95892D01*
X343186Y95407D01*
X343143Y95318D01*
X343003Y95259D01*
X342615Y94871D01*
X342405Y94365D01*
Y93817D01*
X342615Y93310D01*
X343003Y92923D01*
X343509Y92713D01*
X344057D01*
X344564Y92923D01*
X344951Y93310D01*
X345161Y93817D01*
Y94365D01*
X344951Y94871D01*
X344694Y95129D01*
X344731Y95613D01*
X344774Y95703D01*
X344914Y95761D01*
X345302Y96149D01*
X345512Y96655D01*
Y97203D01*
X345302Y97710D01*
X344914Y98097D01*
X344408Y98307D01*
D02*
G37*
G36*
X326691Y100374D02*
X326143D01*
X325637Y100164D01*
X325249Y99777D01*
X325039Y99270D01*
Y98722D01*
X325249Y98216D01*
X325471Y97994D01*
X325418Y97445D01*
X325399Y97413D01*
X325028Y97042D01*
X324819Y96536D01*
Y95988D01*
X325028Y95481D01*
X325416Y95094D01*
X325765Y94949D01*
X325666Y94449D01*
X325513D01*
X325007Y94239D01*
X324619Y93851D01*
X324410Y93345D01*
Y92797D01*
X324619Y92290D01*
X325007Y91903D01*
X325513Y91693D01*
X326062D01*
X326568Y91903D01*
X326956Y92290D01*
X327165Y92797D01*
Y93345D01*
X326956Y93851D01*
X326568Y94239D01*
X326219Y94384D01*
X326318Y94884D01*
X326471D01*
X326977Y95094D01*
X327365Y95481D01*
X327575Y95988D01*
Y96536D01*
X327365Y97042D01*
X327143Y97264D01*
X327196Y97812D01*
X327215Y97845D01*
X327586Y98216D01*
X327795Y98722D01*
Y99270D01*
X327586Y99777D01*
X327198Y100164D01*
X326691Y100374D01*
D02*
G37*
G36*
X163227Y94410D02*
X162679D01*
X162172Y94200D01*
X161785Y93812D01*
X161575Y93306D01*
Y92757D01*
X161785Y92251D01*
X162172Y91863D01*
X162679Y91654D01*
X163227D01*
X163733Y91863D01*
X164121Y92251D01*
X164331Y92757D01*
Y93306D01*
X164121Y93812D01*
X163733Y94200D01*
X163227Y94410D01*
D02*
G37*
G36*
X215740Y94318D02*
X215192D01*
X214685Y94108D01*
X214297Y93720D01*
X214088Y93214D01*
Y92666D01*
X214297Y92159D01*
X214685Y91772D01*
X215192Y91562D01*
X215740D01*
X216246Y91772D01*
X216634Y92159D01*
X216844Y92666D01*
Y93214D01*
X216634Y93720D01*
X216246Y94108D01*
X215740Y94318D01*
D02*
G37*
G36*
X304470Y109095D02*
X303641D01*
X302839Y108880D01*
X302121Y108465D01*
X301535Y107879D01*
X301120Y107161D01*
X300905Y106360D01*
Y105530D01*
X301120Y104729D01*
X301535Y104011D01*
X302121Y103425D01*
X302370Y103281D01*
Y102703D01*
X302121Y102560D01*
X301535Y101973D01*
X301120Y101255D01*
X300905Y100454D01*
Y99625D01*
X301120Y98824D01*
X301535Y98106D01*
X302121Y97519D01*
X302370Y97375D01*
Y96798D01*
X302121Y96654D01*
X301535Y96068D01*
X301120Y95350D01*
X300905Y94548D01*
Y93719D01*
X301120Y92918D01*
X301535Y92200D01*
X302121Y91614D01*
X302839Y91199D01*
X303641Y90984D01*
X304470D01*
X305271Y91199D01*
X305989Y91614D01*
X306575Y92200D01*
X306990Y92918D01*
X307205Y93719D01*
Y94548D01*
X306990Y95350D01*
X306575Y96068D01*
X305989Y96654D01*
X305740Y96798D01*
Y97375D01*
X305989Y97519D01*
X306575Y98106D01*
X306990Y98824D01*
X307205Y99625D01*
Y100454D01*
X306990Y101255D01*
X306575Y101973D01*
X305989Y102560D01*
X305740Y102703D01*
Y103281D01*
X305989Y103425D01*
X306575Y104011D01*
X306990Y104729D01*
X307205Y105530D01*
Y106360D01*
X306990Y107161D01*
X306575Y107879D01*
X305989Y108465D01*
X305271Y108880D01*
X304470Y109095D01*
D02*
G37*
G36*
X208463Y90905D02*
X207915D01*
X207408Y90696D01*
X207021Y90308D01*
X206811Y89802D01*
Y89253D01*
X207021Y88747D01*
X207408Y88359D01*
X207915Y88150D01*
X208463D01*
X208969Y88359D01*
X209357Y88747D01*
X209567Y89253D01*
Y89802D01*
X209357Y90308D01*
X208969Y90696D01*
X208463Y90905D01*
D02*
G37*
G36*
X339053Y91535D02*
X338191D01*
X337396Y91206D01*
X336786Y90597D01*
X336457Y89801D01*
Y88939D01*
X336786Y88143D01*
X337396Y87534D01*
X338191Y87205D01*
X339053D01*
X339849Y87534D01*
X340458Y88143D01*
X340787Y88939D01*
Y89801D01*
X340458Y90597D01*
X339849Y91206D01*
X339053Y91535D01*
D02*
G37*
G36*
X334092D02*
X333231D01*
X332435Y91206D01*
X331826Y90597D01*
X331496Y89801D01*
Y88939D01*
X331826Y88143D01*
X332435Y87534D01*
X333231Y87205D01*
X334092D01*
X334888Y87534D01*
X335497Y88143D01*
X335827Y88939D01*
Y89801D01*
X335497Y90597D01*
X334888Y91206D01*
X334092Y91535D01*
D02*
G37*
G36*
X329132D02*
X328270D01*
X327474Y91206D01*
X326865Y90597D01*
X326535Y89801D01*
Y88939D01*
X326865Y88143D01*
X327474Y87534D01*
X328270Y87205D01*
X329132D01*
X329927Y87534D01*
X330537Y88143D01*
X330866Y88939D01*
Y89801D01*
X330537Y90597D01*
X329927Y91206D01*
X329132Y91535D01*
D02*
G37*
G36*
X348187Y90945D02*
X347325D01*
X346529Y90615D01*
X345920Y90006D01*
X345591Y89210D01*
Y88349D01*
X345910Y87579D01*
X345591Y86809D01*
Y85947D01*
X345920Y85151D01*
X346529Y84542D01*
X347325Y84213D01*
X348187D01*
X348983Y84542D01*
X349592Y85151D01*
X349921Y85947D01*
Y86809D01*
X349602Y87579D01*
X349921Y88349D01*
Y89210D01*
X349592Y90006D01*
X348983Y90615D01*
X348187Y90945D01*
D02*
G37*
G36*
X107411Y91388D02*
X99833D01*
Y83809D01*
X107411D01*
Y91388D01*
D02*
G37*
G36*
X117636Y86457D02*
X117088D01*
X116582Y86247D01*
X116194Y85859D01*
X115984Y85353D01*
Y84805D01*
X116194Y84298D01*
X116582Y83911D01*
X117088Y83701D01*
X117636D01*
X118143Y83911D01*
X118530Y84298D01*
X118740Y84805D01*
Y85353D01*
X118530Y85859D01*
X118143Y86247D01*
X117636Y86457D01*
D02*
G37*
G36*
X409802Y81535D02*
X409254D01*
X408747Y81326D01*
X408359Y80938D01*
X408150Y80431D01*
Y79883D01*
X408359Y79377D01*
X408747Y78989D01*
X409254Y78780D01*
X409802D01*
X410308Y78989D01*
X410696Y79377D01*
X410906Y79883D01*
Y80431D01*
X410696Y80938D01*
X410308Y81326D01*
X409802Y81535D01*
D02*
G37*
G36*
X217462Y89055D02*
X216633D01*
X215832Y88841D01*
X215113Y88426D01*
X214527Y87840D01*
X214112Y87121D01*
X213898Y86320D01*
Y85491D01*
X214112Y84690D01*
X214527Y83972D01*
X215113Y83385D01*
X215363Y83241D01*
Y82664D01*
X215113Y82520D01*
X214527Y81934D01*
X214112Y81216D01*
X213898Y80415D01*
Y79585D01*
X214112Y78784D01*
X214527Y78066D01*
X215113Y77480D01*
X215832Y77065D01*
X216633Y76850D01*
X217462D01*
X218263Y77065D01*
X218981Y77480D01*
X219568Y78066D01*
X219711Y78315D01*
X220289D01*
X220432Y78066D01*
X221019Y77480D01*
X221737Y77065D01*
X222538Y76850D01*
X223367D01*
X224168Y77065D01*
X224887Y77480D01*
X225473Y78066D01*
X225888Y78784D01*
X226102Y79585D01*
Y80415D01*
X225888Y81216D01*
X225473Y81934D01*
X224887Y82520D01*
X224638Y82664D01*
Y83241D01*
X224887Y83385D01*
X225473Y83972D01*
X225888Y84690D01*
X226102Y85491D01*
Y86320D01*
X225888Y87121D01*
X225473Y87839D01*
X224887Y88426D01*
X224168Y88840D01*
X223367Y89055D01*
X222538D01*
X221737Y88840D01*
X221019Y88426D01*
X220432Y87839D01*
X220289Y87590D01*
X219711D01*
X219568Y87840D01*
X218981Y88426D01*
X218263Y88841D01*
X217462Y89055D01*
D02*
G37*
G36*
X210786Y77854D02*
X210238D01*
X209731Y77645D01*
X209344Y77257D01*
X209134Y76750D01*
Y76202D01*
X209344Y75696D01*
X209731Y75308D01*
X210238Y75099D01*
X210786D01*
X211292Y75308D01*
X211680Y75696D01*
X211890Y76202D01*
Y76750D01*
X211680Y77257D01*
X211292Y77645D01*
X210786Y77854D01*
D02*
G37*
G36*
X117439Y77795D02*
X116891D01*
X116385Y77586D01*
X115997Y77198D01*
X115787Y76691D01*
Y76143D01*
X115997Y75637D01*
X116385Y75249D01*
X116891Y75039D01*
X117439D01*
X117946Y75249D01*
X118333Y75637D01*
X118543Y76143D01*
Y76691D01*
X118333Y77198D01*
X117946Y77586D01*
X117439Y77795D01*
D02*
G37*
G36*
X311635Y109095D02*
X310806D01*
X310005Y108880D01*
X309287Y108465D01*
X308700Y107879D01*
X308285Y107161D01*
X308071Y106360D01*
Y105530D01*
X308285Y104729D01*
X308700Y104011D01*
X309287Y103425D01*
X309536Y103281D01*
Y102703D01*
X309287Y102560D01*
X308700Y101973D01*
X308285Y101255D01*
X308071Y100454D01*
Y99625D01*
X308285Y98824D01*
X308700Y98106D01*
X309287Y97519D01*
X309536Y97375D01*
Y96798D01*
X309287Y96654D01*
X308700Y96068D01*
X308285Y95350D01*
X308071Y94548D01*
Y93719D01*
X308285Y92918D01*
X308700Y92200D01*
X309287Y91614D01*
X309539Y91468D01*
X309469Y90931D01*
X309454Y90927D01*
X308735Y90512D01*
X308149Y89926D01*
X307734Y89208D01*
X307520Y88407D01*
Y87577D01*
X307734Y86776D01*
X308149Y86058D01*
X308440Y85768D01*
X308705Y85433D01*
X308440Y85098D01*
X308149Y84808D01*
X307734Y84090D01*
X307520Y83289D01*
Y82459D01*
X307734Y81658D01*
X308149Y80940D01*
X308439Y80650D01*
X308705Y80315D01*
X308439Y79980D01*
X308149Y79690D01*
X307734Y78972D01*
X307520Y78171D01*
Y77341D01*
X307734Y76540D01*
X308149Y75822D01*
X308735Y75236D01*
X309454Y74821D01*
X310255Y74606D01*
X311084D01*
X311885Y74821D01*
X312603Y75236D01*
X313032Y75664D01*
X313460Y75236D01*
X314178Y74821D01*
X314979Y74606D01*
X315808D01*
X316609Y74821D01*
X317328Y75236D01*
X317776Y75684D01*
X318224Y75236D01*
X318942Y74821D01*
X319743Y74606D01*
X320572D01*
X321373Y74821D01*
X322091Y75236D01*
X322678Y75822D01*
X323092Y76540D01*
X323307Y77341D01*
Y78171D01*
X323092Y78972D01*
X322678Y79690D01*
X322387Y79980D01*
X322122Y80315D01*
X322387Y80650D01*
X322678Y80940D01*
X323092Y81658D01*
X323307Y82459D01*
Y83289D01*
X323092Y84090D01*
X322678Y84808D01*
X322365Y85121D01*
X322105Y85413D01*
X322370Y85790D01*
X322638Y86058D01*
X323053Y86776D01*
X323268Y87577D01*
Y88407D01*
X323053Y89208D01*
X322638Y89926D01*
X322052Y90512D01*
X321334Y90927D01*
X320533Y91142D01*
X319704D01*
X318902Y90927D01*
X318184Y90512D01*
X317756Y90084D01*
X317328Y90512D01*
X316609Y90927D01*
X315808Y91142D01*
X314979D01*
X314178Y90927D01*
X313460Y90512D01*
X313032Y90084D01*
X312603Y90512D01*
X312351Y90658D01*
X312421Y91195D01*
X312436Y91199D01*
X313154Y91614D01*
X313741Y92200D01*
X314155Y92918D01*
X314370Y93719D01*
Y94548D01*
X314155Y95350D01*
X313741Y96068D01*
X313154Y96654D01*
X312905Y96798D01*
Y97375D01*
X313154Y97519D01*
X313741Y98106D01*
X314155Y98824D01*
X314370Y99625D01*
Y100454D01*
X314155Y101255D01*
X313741Y101973D01*
X313154Y102560D01*
X312905Y102703D01*
Y103281D01*
X313154Y103425D01*
X313741Y104011D01*
X314155Y104729D01*
X314370Y105530D01*
Y106360D01*
X314155Y107161D01*
X313741Y107879D01*
X313154Y108465D01*
X312436Y108880D01*
X311635Y109095D01*
D02*
G37*
G36*
X428345Y76063D02*
X427797D01*
X427290Y75853D01*
X426903Y75466D01*
X426693Y74959D01*
Y74411D01*
X426903Y73905D01*
X427290Y73517D01*
X427797Y73307D01*
X428345D01*
X428851Y73517D01*
X429239Y73905D01*
X429449Y74411D01*
Y74959D01*
X429239Y75466D01*
X428851Y75853D01*
X428345Y76063D01*
D02*
G37*
G36*
X290234Y76575D02*
X289372D01*
X288577Y76245D01*
X287968Y75636D01*
X287638Y74840D01*
Y73979D01*
X287968Y73183D01*
X288577Y72574D01*
X289372Y72244D01*
X290234D01*
X291030Y72574D01*
X291639Y73183D01*
X291969Y73979D01*
Y74840D01*
X291639Y75636D01*
X291030Y76245D01*
X290234Y76575D01*
D02*
G37*
G36*
X273324Y91142D02*
X271558D01*
X269813Y90865D01*
X268134Y90320D01*
X266560Y89518D01*
X265131Y88480D01*
X263882Y87231D01*
X262844Y85802D01*
X262042Y84228D01*
X261497Y82549D01*
X261221Y80804D01*
Y79038D01*
X261497Y77294D01*
X262042Y75614D01*
X262844Y74040D01*
X263882Y72612D01*
X265131Y71363D01*
X266560Y70325D01*
X268134Y69523D01*
X269813Y68977D01*
X271558Y68701D01*
X273324D01*
X275068Y68977D01*
X276748Y69523D01*
X278322Y70325D01*
X279751Y71363D01*
X280999Y72612D01*
X282038Y74040D01*
X282177Y74314D01*
X282677Y74194D01*
Y73900D01*
X283007Y73104D01*
X283616Y72495D01*
X284412Y72165D01*
X285273D01*
X286069Y72495D01*
X286678Y73104D01*
X287008Y73900D01*
Y74761D01*
X286678Y75557D01*
X286069Y76166D01*
X285273Y76496D01*
X284412D01*
X283616Y76166D01*
X283510Y76061D01*
X283072Y76329D01*
X283385Y77294D01*
X283661Y79038D01*
Y80804D01*
X283385Y82549D01*
X282839Y84228D01*
X282038Y85802D01*
X280999Y87231D01*
X279751Y88480D01*
X278322Y89518D01*
X276748Y90320D01*
X275068Y90865D01*
X273324Y91142D01*
D02*
G37*
G36*
X370962D02*
X369196D01*
X367451Y90865D01*
X365772Y90320D01*
X364198Y89518D01*
X362769Y88480D01*
X361520Y87231D01*
X360482Y85802D01*
X359680Y84228D01*
X359135Y82549D01*
X358858Y80804D01*
Y79038D01*
X359135Y77294D01*
X359680Y75614D01*
X360482Y74040D01*
X361520Y72612D01*
X362769Y71363D01*
X364198Y70325D01*
X365772Y69523D01*
X367451Y68977D01*
X369196Y68701D01*
X370962D01*
X372706Y68977D01*
X374386Y69523D01*
X375959Y70325D01*
X377388Y71363D01*
X378637Y72612D01*
X379675Y74040D01*
X380477Y75614D01*
X381023Y77294D01*
X381299Y79038D01*
Y80804D01*
X381023Y82549D01*
X380477Y84228D01*
X379675Y85802D01*
X378637Y87231D01*
X377388Y88480D01*
X375959Y89518D01*
X374386Y90320D01*
X372706Y90865D01*
X370962Y91142D01*
D02*
G37*
G36*
X407934Y70000D02*
X407105D01*
X406304Y69785D01*
X405586Y69371D01*
X404999Y68784D01*
X404856Y68535D01*
X404278D01*
X404135Y68784D01*
X403548Y69371D01*
X402830Y69785D01*
X402029Y70000D01*
X401199D01*
X400398Y69785D01*
X399680Y69371D01*
X399094Y68784D01*
X398950Y68535D01*
X398373D01*
X398229Y68784D01*
X397643Y69371D01*
X396924Y69785D01*
X396123Y70000D01*
X395294D01*
X394493Y69785D01*
X393775Y69371D01*
X393188Y68784D01*
X392774Y68066D01*
X392559Y67265D01*
Y66436D01*
X392774Y65635D01*
X393188Y64916D01*
X393775Y64330D01*
X394024Y64186D01*
Y63609D01*
X393775Y63465D01*
X393188Y62879D01*
X392774Y62161D01*
X392559Y61360D01*
Y60530D01*
X392774Y59729D01*
X393188Y59011D01*
X393775Y58425D01*
X394024Y58281D01*
Y57704D01*
X393775Y57560D01*
X393188Y56973D01*
X392774Y56255D01*
X392559Y55454D01*
Y54625D01*
X392774Y53824D01*
X393188Y53105D01*
X393775Y52519D01*
X394024Y52375D01*
Y51798D01*
X393775Y51654D01*
X393188Y51068D01*
X392774Y50350D01*
X392559Y49549D01*
Y48719D01*
X392774Y47918D01*
X393188Y47200D01*
X393775Y46614D01*
X394024Y46470D01*
Y45893D01*
X393775Y45749D01*
X393188Y45162D01*
X392774Y44444D01*
X392559Y43643D01*
Y42814D01*
X392774Y42013D01*
X393188Y41295D01*
X393775Y40708D01*
X394024Y40564D01*
Y39987D01*
X393775Y39843D01*
X393188Y39257D01*
X392774Y38539D01*
X392559Y37738D01*
Y36908D01*
X392774Y36107D01*
X393188Y35389D01*
X393775Y34803D01*
X394024Y34659D01*
Y34081D01*
X393775Y33938D01*
X393188Y33351D01*
X392774Y32633D01*
X392559Y31832D01*
Y31003D01*
X392774Y30202D01*
X393188Y29483D01*
X393775Y28897D01*
X394493Y28482D01*
X395294Y28268D01*
X396123D01*
X396924Y28482D01*
X397643Y28897D01*
X398229Y29483D01*
X398373Y29732D01*
X398950D01*
X399094Y29483D01*
X399680Y28897D01*
X400398Y28482D01*
X401199Y28268D01*
X402029D01*
X402830Y28482D01*
X403548Y28897D01*
X404135Y29483D01*
X404278Y29732D01*
X404856D01*
X404999Y29483D01*
X405586Y28897D01*
X406304Y28482D01*
X407105Y28268D01*
X407934D01*
X408735Y28482D01*
X409454Y28897D01*
X410040Y29483D01*
X410455Y30202D01*
X410669Y31003D01*
Y31832D01*
X410455Y32633D01*
X410040Y33351D01*
X409454Y33938D01*
X408735Y34352D01*
X407934Y34567D01*
X407105D01*
X406304Y34352D01*
X405586Y33938D01*
X404999Y33351D01*
X404856Y33102D01*
X404278D01*
X404135Y33351D01*
X403548Y33938D01*
X403299Y34082D01*
Y34659D01*
X403548Y34803D01*
X404134Y35389D01*
X404549Y36107D01*
X404764Y36908D01*
Y37738D01*
X404549Y38539D01*
X404134Y39257D01*
X403548Y39843D01*
X403299Y39987D01*
Y40564D01*
X403548Y40708D01*
X404134Y41295D01*
X404549Y42013D01*
X404764Y42814D01*
Y43643D01*
X404549Y44444D01*
X404134Y45162D01*
X403548Y45749D01*
X403299Y45893D01*
Y46470D01*
X403548Y46614D01*
X404134Y47200D01*
X404549Y47918D01*
X404764Y48719D01*
Y49549D01*
X404549Y50350D01*
X404134Y51068D01*
X403548Y51654D01*
X403299Y51798D01*
Y52375D01*
X403548Y52519D01*
X404134Y53105D01*
X404549Y53824D01*
X404764Y54625D01*
Y55454D01*
X404549Y56255D01*
X404134Y56973D01*
X403548Y57560D01*
X403299Y57704D01*
Y58281D01*
X403548Y58425D01*
X404134Y59011D01*
X404549Y59729D01*
X404764Y60530D01*
Y61360D01*
X404549Y62161D01*
X404134Y62879D01*
X403548Y63465D01*
X403299Y63609D01*
Y64186D01*
X403548Y64330D01*
X404135Y64916D01*
X404278Y65166D01*
X404856D01*
X404999Y64916D01*
X405586Y64330D01*
X406304Y63915D01*
X407105Y63701D01*
X407934D01*
X408735Y63915D01*
X409454Y64330D01*
X410040Y64916D01*
X410455Y65635D01*
X410669Y66436D01*
Y67265D01*
X410455Y68066D01*
X410040Y68784D01*
X409454Y69371D01*
X408735Y69785D01*
X407934Y70000D01*
D02*
G37*
G36*
X349115Y73425D02*
X348286D01*
X347485Y73211D01*
X346767Y72796D01*
X346181Y72210D01*
X345766Y71491D01*
X345551Y70690D01*
Y69861D01*
X345766Y69060D01*
X346181Y68342D01*
X346767Y67755D01*
X347485Y67341D01*
X348286Y67126D01*
X349115D01*
X349917Y67341D01*
X350635Y67755D01*
X351221Y68342D01*
X351636Y69060D01*
X351850Y69861D01*
Y70690D01*
X351636Y71491D01*
X351221Y72210D01*
X350635Y72796D01*
X349917Y73211D01*
X349115Y73425D01*
D02*
G37*
G36*
X74035Y71101D02*
X73487D01*
X72981Y70891D01*
X72593Y70504D01*
X72383Y69997D01*
Y69449D01*
X72593Y68942D01*
X72981Y68555D01*
X73487Y68345D01*
X73592D01*
X74036Y68327D01*
X74054Y67883D01*
Y67778D01*
X74264Y67272D01*
X74651Y66884D01*
X75158Y66675D01*
X75706D01*
X76212Y66884D01*
X76600Y67272D01*
X76810Y67778D01*
Y68327D01*
X76600Y68833D01*
X76212Y69221D01*
X75706Y69431D01*
X75601D01*
X75157Y69448D01*
X75139Y69893D01*
Y69997D01*
X74929Y70504D01*
X74542Y70891D01*
X74035Y71101D01*
D02*
G37*
G36*
X55904Y68425D02*
X55356D01*
X54849Y68215D01*
X54462Y67828D01*
X54252Y67321D01*
Y66773D01*
X54462Y66267D01*
X54849Y65879D01*
X55356Y65669D01*
X55904D01*
X56410Y65879D01*
X56798Y66267D01*
X57008Y66773D01*
Y67321D01*
X56798Y67828D01*
X56410Y68215D01*
X55904Y68425D01*
D02*
G37*
G36*
X528113Y74022D02*
X527002D01*
X525929Y73734D01*
X524967Y73179D01*
X524181Y72394D01*
X523626Y71432D01*
X523338Y70359D01*
Y69248D01*
X523626Y68175D01*
X524181Y67213D01*
X524967Y66427D01*
X525929Y65872D01*
X527002Y65584D01*
X528113D01*
X529185Y65872D01*
X530148Y66427D01*
X530933Y67213D01*
X531488Y68175D01*
X531776Y69248D01*
Y70359D01*
X531488Y71432D01*
X530933Y72394D01*
X530148Y73179D01*
X529185Y73734D01*
X528113Y74022D01*
D02*
G37*
G36*
X160130Y69849D02*
X159582D01*
X159075Y69639D01*
X158688Y69252D01*
X158478Y68745D01*
Y68197D01*
X158688Y67690D01*
X159075Y67303D01*
X159582Y67093D01*
X159686D01*
X160131Y67076D01*
X160148Y66631D01*
Y66527D01*
X160358Y66020D01*
X160746Y65632D01*
X161252Y65423D01*
X161800D01*
X162307Y65632D01*
X162694Y66020D01*
X162904Y66527D01*
Y67075D01*
X162694Y67581D01*
X162307Y67969D01*
X161800Y68179D01*
X161696D01*
X161251Y68196D01*
X161234Y68641D01*
Y68745D01*
X161024Y69252D01*
X160636Y69639D01*
X160130Y69849D01*
D02*
G37*
G36*
X469211Y334095D02*
X468663D01*
X468157Y333885D01*
X467769Y333497D01*
X467559Y332991D01*
Y332442D01*
X467769Y331936D01*
X468034Y331671D01*
Y288475D01*
X419637Y240078D01*
X419441Y239785D01*
X419372Y239440D01*
Y68481D01*
X417187Y66296D01*
X416812D01*
X416306Y66087D01*
X415918Y65699D01*
X415709Y65192D01*
Y64644D01*
X415918Y64138D01*
X416306Y63750D01*
X416812Y63540D01*
X417361D01*
X417867Y63750D01*
X418255Y64138D01*
X418455Y64621D01*
X418543Y64653D01*
X418964Y64698D01*
X419011Y64586D01*
X419399Y64198D01*
X419905Y63988D01*
X420453D01*
X420960Y64198D01*
X421347Y64586D01*
X421557Y65092D01*
Y65640D01*
X421404Y66010D01*
X422292Y66898D01*
X422488Y67191D01*
X422557Y67537D01*
Y238495D01*
X471938Y287876D01*
X471938Y287876D01*
X472134Y288169D01*
X472203Y288515D01*
Y331670D01*
X472468Y331935D01*
X472677Y332441D01*
Y332990D01*
X472468Y333496D01*
X472080Y333884D01*
X471573Y334093D01*
X471025D01*
X470519Y333884D01*
X470445Y333810D01*
X470118Y333508D01*
X469792Y333810D01*
X469718Y333885D01*
X469211Y334095D01*
D02*
G37*
G36*
X295352Y76575D02*
X294491D01*
X293695Y76245D01*
X293086Y75636D01*
X292756Y74840D01*
Y73979D01*
X293086Y73183D01*
X293695Y72574D01*
X294491Y72244D01*
X294532D01*
X297761Y69016D01*
Y62304D01*
X297261Y62205D01*
X297111Y62565D01*
X296502Y63174D01*
X295706Y63504D01*
X294845D01*
X294049Y63174D01*
X293440Y62565D01*
X293110Y61769D01*
Y60908D01*
X293440Y60112D01*
X294049Y59503D01*
X294845Y59173D01*
X295706D01*
X296502Y59503D01*
X297111Y60112D01*
X297261Y60472D01*
X297761Y60373D01*
Y56335D01*
X297731Y56305D01*
X297402Y55510D01*
Y54648D01*
X297731Y53852D01*
X298340Y53243D01*
X299136Y52913D01*
X299998D01*
X300794Y53243D01*
X301403Y53852D01*
X301732Y54648D01*
Y55510D01*
X301403Y56305D01*
X301373Y56335D01*
Y69764D01*
X301236Y70455D01*
X300844Y71041D01*
X297087Y74799D01*
Y74840D01*
X296757Y75636D01*
X296148Y76245D01*
X295352Y76575D01*
D02*
G37*
G36*
X355533Y62087D02*
X354703D01*
X353902Y61872D01*
X353184Y61457D01*
X352598Y60871D01*
X352454Y60622D01*
X351877D01*
X351733Y60871D01*
X351147Y61457D01*
X350428Y61872D01*
X349627Y62087D01*
X348798D01*
X347997Y61872D01*
X347279Y61457D01*
X346692Y60871D01*
X346549Y60622D01*
X345971D01*
X345828Y60871D01*
X345241Y61457D01*
X344523Y61872D01*
X343722Y62087D01*
X342893D01*
X342091Y61872D01*
X341373Y61457D01*
X340787Y60871D01*
X340643Y60622D01*
X340066D01*
X339922Y60871D01*
X339335Y61457D01*
X338617Y61872D01*
X337816Y62087D01*
X336987D01*
X336186Y61872D01*
X335468Y61457D01*
X334881Y60871D01*
X334738Y60622D01*
X334160D01*
X334016Y60871D01*
X333430Y61457D01*
X332712Y61872D01*
X331911Y62087D01*
X331082D01*
X330280Y61872D01*
X329562Y61457D01*
X328976Y60871D01*
X328832Y60622D01*
X328255D01*
X328111Y60871D01*
X327524Y61457D01*
X326806Y61872D01*
X326005Y62087D01*
X325176D01*
X324375Y61872D01*
X323657Y61457D01*
X323070Y60871D01*
X322656Y60153D01*
X322441Y59352D01*
Y58522D01*
X322656Y57721D01*
X323070Y57003D01*
X323657Y56417D01*
X324375Y56002D01*
X325176Y55787D01*
X326005D01*
X326806Y56002D01*
X327524Y56417D01*
X328111Y57003D01*
X328255Y57252D01*
X328832D01*
X328976Y57003D01*
X329562Y56417D01*
X330280Y56002D01*
X331082Y55787D01*
X331911D01*
X332712Y56002D01*
X333430Y56417D01*
X334016Y57003D01*
X334160Y57252D01*
X334738D01*
X334881Y57003D01*
X335468Y56417D01*
X336186Y56002D01*
X336987Y55787D01*
X337816D01*
X338617Y56002D01*
X339335Y56417D01*
X339922Y57003D01*
X340066Y57252D01*
X340643D01*
X340787Y57003D01*
X341373Y56417D01*
X342091Y56002D01*
X342893Y55787D01*
X343722D01*
X344523Y56002D01*
X345241Y56417D01*
X345828Y57003D01*
X345971Y57252D01*
X346549D01*
X346692Y57003D01*
X347279Y56417D01*
X347997Y56002D01*
X348798Y55787D01*
X349627D01*
X350428Y56002D01*
X351147Y56417D01*
X351733Y57003D01*
X351877Y57252D01*
X352454D01*
X352598Y57003D01*
X353184Y56417D01*
X353902Y56002D01*
X354703Y55787D01*
X355533D01*
X356334Y56002D01*
X357052Y56417D01*
X357638Y57003D01*
X358053Y57721D01*
X358268Y58522D01*
Y59352D01*
X358053Y60153D01*
X357638Y60871D01*
X357052Y61457D01*
X356334Y61872D01*
X355533Y62087D01*
D02*
G37*
G36*
X290234Y63504D02*
X289372D01*
X288577Y63174D01*
X287968Y62565D01*
X287638Y61769D01*
Y60908D01*
X287968Y60112D01*
X288577Y59503D01*
X289372Y59173D01*
X290234D01*
X291030Y59503D01*
X291639Y60112D01*
X291969Y60908D01*
Y61769D01*
X291639Y62565D01*
X291030Y63174D01*
X290234Y63504D01*
D02*
G37*
G36*
X285076D02*
X284215D01*
X283419Y63174D01*
X282810Y62565D01*
X282480Y61769D01*
Y60908D01*
X282810Y60112D01*
X283419Y59503D01*
X284215Y59173D01*
X285076D01*
X285872Y59503D01*
X286481Y60112D01*
X286811Y60908D01*
Y61769D01*
X286481Y62565D01*
X285872Y63174D01*
X285076Y63504D01*
D02*
G37*
G36*
X266495Y60709D02*
X265946D01*
X265440Y60499D01*
X265052Y60111D01*
X264843Y59605D01*
Y59057D01*
X265052Y58550D01*
X265440Y58162D01*
X265946Y57953D01*
X266495D01*
X267001Y58162D01*
X267389Y58550D01*
X267598Y59057D01*
Y59605D01*
X267389Y60111D01*
X267001Y60499D01*
X266495Y60709D01*
D02*
G37*
G36*
X183109Y59291D02*
X182561D01*
X182054Y59082D01*
X181667Y58694D01*
X181457Y58188D01*
Y57639D01*
X181667Y57133D01*
X182054Y56745D01*
X182561Y56535D01*
X183109D01*
X183615Y56745D01*
X184003Y57133D01*
X184213Y57639D01*
Y58188D01*
X184003Y58694D01*
X183615Y59082D01*
X183109Y59291D01*
D02*
G37*
G36*
X167006Y58543D02*
X166458D01*
X165952Y58333D01*
X165564Y57946D01*
X165354Y57439D01*
Y56891D01*
X165564Y56385D01*
X165952Y55997D01*
X166458Y55787D01*
X167006D01*
X167513Y55997D01*
X167901Y56385D01*
X168110Y56891D01*
Y57439D01*
X167901Y57946D01*
X167513Y58333D01*
X167006Y58543D01*
D02*
G37*
G36*
X250707Y57323D02*
X250159D01*
X249653Y57113D01*
X249265Y56725D01*
X249055Y56219D01*
Y55671D01*
X249265Y55164D01*
X249653Y54777D01*
X250159Y54567D01*
X250707D01*
X251214Y54777D01*
X251601Y55164D01*
X251811Y55671D01*
Y56219D01*
X251601Y56725D01*
X251214Y57113D01*
X250707Y57323D01*
D02*
G37*
G36*
X103346Y57231D02*
X102798D01*
X102292Y57021D01*
X101904Y56633D01*
X101694Y56127D01*
Y55579D01*
X101904Y55072D01*
X102292Y54684D01*
X102798Y54475D01*
X103346D01*
X103853Y54684D01*
X104240Y55072D01*
X104450Y55579D01*
Y56127D01*
X104240Y56633D01*
X103853Y57021D01*
X103346Y57231D01*
D02*
G37*
G36*
X246414Y55905D02*
X245866D01*
X245360Y55696D01*
X244972Y55308D01*
X244762Y54802D01*
Y54254D01*
X244972Y53747D01*
X245360Y53359D01*
X245866Y53150D01*
X246414D01*
X246921Y53359D01*
X247308Y53747D01*
X247518Y54254D01*
Y54802D01*
X247308Y55308D01*
X246921Y55696D01*
X246414Y55905D01*
D02*
G37*
G36*
X164290Y54370D02*
X163742D01*
X163235Y54160D01*
X162848Y53773D01*
X162638Y53266D01*
Y52718D01*
X162848Y52212D01*
X163235Y51824D01*
X163742Y51614D01*
X164290D01*
X164796Y51824D01*
X165184Y52212D01*
X165394Y52718D01*
Y53266D01*
X165184Y53773D01*
X164796Y54160D01*
X164290Y54370D01*
D02*
G37*
G36*
X104270Y53858D02*
X103722D01*
X103216Y53649D01*
X102828Y53261D01*
X102618Y52754D01*
Y52206D01*
X102828Y51700D01*
X103216Y51312D01*
X103722Y51102D01*
X104270D01*
X104777Y51312D01*
X105164Y51700D01*
X105374Y52206D01*
Y52754D01*
X105164Y53261D01*
X104777Y53649D01*
X104270Y53858D01*
D02*
G37*
G36*
X275786Y53386D02*
X275238D01*
X274731Y53176D01*
X274344Y52788D01*
X274134Y52282D01*
Y51734D01*
X274344Y51227D01*
X274731Y50840D01*
X275238Y50630D01*
X275786D01*
X276292Y50840D01*
X276680Y51227D01*
X276890Y51734D01*
Y52282D01*
X276680Y52788D01*
X276292Y53176D01*
X275786Y53386D01*
D02*
G37*
G36*
X528113Y57723D02*
X527002D01*
X525929Y57435D01*
X524967Y56880D01*
X524181Y56094D01*
X523626Y55132D01*
X523338Y54059D01*
Y52949D01*
X523626Y51876D01*
X524181Y50914D01*
X524967Y50128D01*
X525929Y49573D01*
X527002Y49285D01*
X528113D01*
X529185Y49573D01*
X530148Y50128D01*
X530933Y50914D01*
X531488Y51876D01*
X531776Y52949D01*
Y54059D01*
X531488Y55132D01*
X530933Y56094D01*
X530148Y56880D01*
X529185Y57435D01*
X528113Y57723D01*
D02*
G37*
G36*
X223367Y50236D02*
X222538D01*
X221737Y50022D01*
X221019Y49607D01*
X220432Y49020D01*
X220289Y48772D01*
X219711D01*
X219568Y49020D01*
X218981Y49607D01*
X218263Y50022D01*
X217462Y50236D01*
X216633D01*
X215832Y50022D01*
X215113Y49607D01*
X214527Y49020D01*
X214112Y48302D01*
X213898Y47501D01*
Y46672D01*
X214112Y45871D01*
X214527Y45153D01*
X215113Y44566D01*
X215363Y44423D01*
Y43845D01*
X215113Y43701D01*
X214527Y43115D01*
X214112Y42397D01*
X213898Y41596D01*
Y40766D01*
X214112Y39965D01*
X214527Y39247D01*
X215113Y38661D01*
X215832Y38246D01*
X216633Y38031D01*
X217462D01*
X218263Y38246D01*
X218981Y38661D01*
X219568Y39247D01*
X219711Y39496D01*
X220289D01*
X220432Y39247D01*
X221019Y38661D01*
X221737Y38246D01*
X222538Y38031D01*
X223367D01*
X224168Y38246D01*
X224887Y38661D01*
X225473Y39247D01*
X225888Y39965D01*
X226102Y40766D01*
Y41596D01*
X225888Y42397D01*
X225473Y43115D01*
X224887Y43701D01*
X224638Y43845D01*
Y44423D01*
X224887Y44566D01*
X225473Y45153D01*
X225888Y45871D01*
X226102Y46672D01*
Y47501D01*
X225888Y48302D01*
X225473Y49020D01*
X224887Y49607D01*
X224168Y50022D01*
X223367Y50236D01*
D02*
G37*
G36*
X274998Y49961D02*
X274450D01*
X273944Y49751D01*
X273556Y49363D01*
X273346Y48857D01*
Y48309D01*
X273556Y47802D01*
X273944Y47414D01*
X274450Y47205D01*
X274998D01*
X275505Y47414D01*
X275893Y47802D01*
X276102Y48309D01*
Y48857D01*
X275893Y49363D01*
X275505Y49751D01*
X274998Y49961D01*
D02*
G37*
G36*
X132479Y47323D02*
X131931D01*
X131424Y47113D01*
X131037Y46725D01*
X130827Y46219D01*
Y45671D01*
X131037Y45164D01*
X131424Y44777D01*
X131931Y44567D01*
X132479D01*
X132985Y44777D01*
X133373Y45164D01*
X133583Y45671D01*
Y46219D01*
X133373Y46725D01*
X132985Y47113D01*
X132479Y47323D01*
D02*
G37*
G36*
X97400Y47205D02*
X96852D01*
X96345Y46995D01*
X95958Y46607D01*
X95748Y46101D01*
Y45553D01*
X95958Y45046D01*
X96345Y44659D01*
X96852Y44449D01*
X97400D01*
X97907Y44659D01*
X98294Y45046D01*
X98504Y45553D01*
Y46101D01*
X98294Y46607D01*
X97907Y46995D01*
X97400Y47205D01*
D02*
G37*
G36*
X275077Y45472D02*
X274529D01*
X274023Y45263D01*
X273635Y44875D01*
X273425Y44369D01*
Y43820D01*
X273635Y43314D01*
X274023Y42926D01*
X274529Y42717D01*
X275077D01*
X275584Y42926D01*
X275971Y43314D01*
X276181Y43820D01*
Y44369D01*
X275971Y44875D01*
X275584Y45263D01*
X275077Y45472D01*
D02*
G37*
G36*
X255195D02*
X254647D01*
X254141Y45263D01*
X253753Y44875D01*
X253543Y44369D01*
Y43820D01*
X253753Y43314D01*
X254141Y42926D01*
X254647Y42717D01*
X255195D01*
X255702Y42926D01*
X256089Y43314D01*
X256299Y43820D01*
Y44369D01*
X256089Y44875D01*
X255702Y45263D01*
X255195Y45472D01*
D02*
G37*
G36*
X183739Y44606D02*
X183191D01*
X182684Y44396D01*
X182296Y44009D01*
X182087Y43502D01*
Y42954D01*
X182296Y42448D01*
X182684Y42060D01*
X183191Y41850D01*
X183739D01*
X184245Y42060D01*
X184633Y42448D01*
X184843Y42954D01*
Y43502D01*
X184633Y44009D01*
X184245Y44396D01*
X183739Y44606D01*
D02*
G37*
G36*
X76022Y55197D02*
X75474D01*
X74967Y54987D01*
X74580Y54599D01*
X74370Y54093D01*
Y53821D01*
X74230Y53613D01*
X74154Y53228D01*
Y39980D01*
X74230Y39596D01*
X74448Y39270D01*
X77064Y36654D01*
Y36421D01*
X77274Y35914D01*
X77662Y35527D01*
X78168Y35317D01*
X78716D01*
X79223Y35527D01*
X79611Y35914D01*
X79820Y36421D01*
Y36969D01*
X79611Y37475D01*
X79223Y37863D01*
X78716Y38073D01*
X78484D01*
X77815Y38741D01*
X78098Y39165D01*
X78269Y39094D01*
X78817D01*
X79324Y39304D01*
X79712Y39692D01*
X79921Y40198D01*
Y40747D01*
X79712Y41253D01*
X79324Y41641D01*
X78817Y41850D01*
X78269D01*
X77763Y41641D01*
X77375Y41253D01*
X77165Y40747D01*
Y40198D01*
X77236Y40027D01*
X76812Y39744D01*
X76161Y40395D01*
Y52499D01*
X76529Y52651D01*
X76916Y53038D01*
X77126Y53545D01*
Y54093D01*
X76916Y54599D01*
X76529Y54987D01*
X76022Y55197D01*
D02*
G37*
G36*
X163778Y49914D02*
X163230D01*
X162723Y49705D01*
X162336Y49317D01*
X162126Y48811D01*
Y48365D01*
X161338Y47576D01*
X161120Y47251D01*
X161044Y46867D01*
Y37649D01*
X161120Y37265D01*
X161338Y36940D01*
X161956Y36321D01*
Y35145D01*
X161942Y35131D01*
X161732Y34624D01*
Y34076D01*
X161942Y33570D01*
X162330Y33182D01*
X162836Y32972D01*
X163384D01*
X163891Y33182D01*
X164278Y33570D01*
X164488Y34076D01*
Y34624D01*
X164278Y35131D01*
X163963Y35446D01*
Y36737D01*
X163887Y37121D01*
X163669Y37446D01*
X163145Y37971D01*
X163183Y38371D01*
X163645Y38618D01*
X164016Y38465D01*
X164564D01*
X165070Y38674D01*
X165458Y39062D01*
X165668Y39568D01*
Y40117D01*
X165458Y40623D01*
X165070Y41011D01*
X164564Y41221D01*
X164016D01*
X163551Y41028D01*
X163339Y41103D01*
X163051Y41259D01*
Y46451D01*
X163758Y47159D01*
X163778D01*
X164285Y47368D01*
X164672Y47756D01*
X164882Y48262D01*
Y48811D01*
X164672Y49317D01*
X164285Y49705D01*
X163778Y49914D01*
D02*
G37*
G36*
X71770Y55118D02*
X71222D01*
X70716Y54908D01*
X70328Y54521D01*
X70118Y54014D01*
Y53466D01*
X70328Y52960D01*
X70493Y52795D01*
Y39575D01*
X69303Y38386D01*
X69175D01*
X68668Y38176D01*
X68281Y37788D01*
X68071Y37282D01*
Y36734D01*
X68281Y36227D01*
X68668Y35840D01*
X69175Y35630D01*
X69723D01*
X70229Y35840D01*
X70617Y36227D01*
X70827Y36734D01*
Y37071D01*
X72206Y38450D01*
X72423Y38775D01*
X72423Y38775D01*
X72423Y38775D01*
X72500Y39159D01*
Y52795D01*
X72664Y52960D01*
X72874Y53466D01*
Y54014D01*
X72664Y54521D01*
X72277Y54908D01*
X71770Y55118D01*
D02*
G37*
G36*
X64172Y38150D02*
X63624D01*
X63117Y37940D01*
X62730Y37552D01*
X62520Y37046D01*
Y36498D01*
X62730Y35991D01*
X63117Y35603D01*
X63624Y35394D01*
X64172D01*
X64678Y35603D01*
X65066Y35991D01*
X65276Y36498D01*
Y37046D01*
X65066Y37552D01*
X64678Y37940D01*
X64172Y38150D01*
D02*
G37*
G36*
X357147Y52520D02*
X356318D01*
X355517Y52305D01*
X354798Y51890D01*
X354212Y51304D01*
X353797Y50586D01*
X353583Y49785D01*
Y48955D01*
X353797Y48154D01*
X354212Y47436D01*
X354798Y46850D01*
X355047Y46706D01*
Y46129D01*
X354798Y45985D01*
X354212Y45398D01*
X353797Y44680D01*
X353583Y43879D01*
Y43050D01*
X353797Y42249D01*
X354212Y41531D01*
X354798Y40944D01*
X355047Y40800D01*
Y40223D01*
X354798Y40079D01*
X354212Y39493D01*
X353797Y38775D01*
X353583Y37974D01*
Y37144D01*
X353797Y36343D01*
X354212Y35625D01*
X354798Y35039D01*
X355517Y34624D01*
X356318Y34409D01*
X357147D01*
X357948Y34624D01*
X358666Y35039D01*
X359173Y35546D01*
X359720Y34999D01*
X360438Y34585D01*
X361239Y34370D01*
X362068D01*
X362869Y34585D01*
X363587Y34999D01*
X364174Y35586D01*
X364588Y36304D01*
X364803Y37105D01*
Y37934D01*
X364588Y38735D01*
X364174Y39454D01*
X363587Y40040D01*
X363338Y40184D01*
Y40761D01*
X363587Y40905D01*
X364174Y41491D01*
X364588Y42209D01*
X364803Y43010D01*
Y43840D01*
X364588Y44641D01*
X364174Y45359D01*
X363587Y45945D01*
X363338Y46089D01*
Y46667D01*
X363587Y46810D01*
X364174Y47397D01*
X364588Y48115D01*
X364803Y48916D01*
Y49745D01*
X364588Y50546D01*
X364174Y51265D01*
X363587Y51851D01*
X362869Y52266D01*
X362068Y52480D01*
X361239D01*
X360438Y52266D01*
X359720Y51851D01*
X359213Y51344D01*
X358666Y51890D01*
X357948Y52305D01*
X357147Y52520D01*
D02*
G37*
G36*
X428218Y36084D02*
X427669D01*
X427163Y35874D01*
X426775Y35486D01*
X426566Y34980D01*
Y34432D01*
X426775Y33925D01*
X427163Y33538D01*
X427669Y33328D01*
X428218D01*
X428724Y33538D01*
X429112Y33925D01*
X429321Y34432D01*
Y34980D01*
X429112Y35486D01*
X428724Y35874D01*
X428218Y36084D01*
D02*
G37*
G36*
X150786Y36059D02*
X150238D01*
X149731Y35849D01*
X149344Y35462D01*
X149134Y34955D01*
Y34407D01*
X149344Y33900D01*
X149731Y33513D01*
X150238Y33303D01*
X150786D01*
X151292Y33513D01*
X151680Y33900D01*
X151890Y34407D01*
Y34955D01*
X151680Y35462D01*
X151292Y35849D01*
X150786Y36059D01*
D02*
G37*
G36*
X321887Y34016D02*
X321026D01*
X320230Y33686D01*
X319685Y33141D01*
X319179Y33647D01*
X318383Y33976D01*
X317522D01*
X316726Y33647D01*
X316117Y33038D01*
X315787Y32242D01*
Y31380D01*
X316117Y30584D01*
X316426Y30276D01*
X316117Y29967D01*
X315787Y29171D01*
Y28310D01*
X316117Y27514D01*
X316726Y26904D01*
X317522Y26575D01*
X318384D01*
X319179Y26904D01*
X319789Y27514D01*
X320118Y28310D01*
Y29171D01*
X319923Y29642D01*
X320032Y29775D01*
X320326Y29975D01*
X321026Y29685D01*
X321887D01*
X322683Y30015D01*
X323292Y30624D01*
X323622Y31420D01*
Y32281D01*
X323292Y33077D01*
X322683Y33686D01*
X321887Y34016D01*
D02*
G37*
G36*
X157439Y49914D02*
X156891D01*
X156385Y49705D01*
X155997Y49317D01*
X155788Y48811D01*
Y48262D01*
X155997Y47756D01*
X156385Y47368D01*
X156891Y47159D01*
X156911D01*
X157856Y46214D01*
Y35201D01*
X157691Y35036D01*
X157481Y34530D01*
Y33981D01*
X157691Y33475D01*
X158079Y33087D01*
X158585Y32878D01*
X159133D01*
X159640Y33087D01*
X160027Y33475D01*
X160237Y33981D01*
Y34530D01*
X160027Y35036D01*
X159863Y35201D01*
Y46630D01*
X159786Y47014D01*
X159569Y47339D01*
X158543Y48365D01*
Y48811D01*
X158334Y49317D01*
X157946Y49705D01*
X157439Y49914D01*
D02*
G37*
G36*
X223367Y31470D02*
X222538D01*
X221737Y31255D01*
X221019Y30841D01*
X220432Y30254D01*
X220289Y30005D01*
X219711D01*
X219568Y30254D01*
X218981Y30841D01*
X218263Y31255D01*
X217462Y31470D01*
X216633D01*
X215832Y31255D01*
X215113Y30841D01*
X214527Y30254D01*
X214112Y29536D01*
X213898Y28735D01*
Y27906D01*
X214112Y27105D01*
X214527Y26386D01*
X215113Y25800D01*
X215363Y25656D01*
Y25079D01*
X215113Y24935D01*
X214527Y24349D01*
X214112Y23630D01*
X213898Y22829D01*
Y22000D01*
X214112Y21199D01*
X214527Y20481D01*
X215113Y19895D01*
X215832Y19480D01*
X216633Y19265D01*
X217462D01*
X218263Y19480D01*
X218981Y19895D01*
X219568Y20481D01*
X219711Y20730D01*
X220289D01*
X220432Y20481D01*
X221019Y19895D01*
X221737Y19480D01*
X222538Y19265D01*
X223367D01*
X224168Y19480D01*
X224887Y19895D01*
X225473Y20481D01*
X225888Y21199D01*
X226102Y22000D01*
Y22829D01*
X225888Y23630D01*
X225473Y24349D01*
X224887Y24935D01*
X224638Y25079D01*
Y25656D01*
X224887Y25800D01*
X225473Y26386D01*
X225888Y27105D01*
X226102Y27906D01*
Y28735D01*
X225888Y29536D01*
X225473Y30254D01*
X224887Y30841D01*
X224168Y31255D01*
X223367Y31470D01*
D02*
G37*
G36*
X347518Y29961D02*
X346970D01*
X346463Y29751D01*
X346076Y29363D01*
X345866Y28857D01*
Y28309D01*
X346076Y27802D01*
X346463Y27415D01*
X346970Y27205D01*
X347518D01*
X348025Y27415D01*
X348412Y27802D01*
X348622Y28309D01*
Y28857D01*
X348412Y29363D01*
X348025Y29751D01*
X347518Y29961D01*
D02*
G37*
G36*
X290903Y31278D02*
X290042D01*
X289246Y30948D01*
X288637Y30339D01*
X288307Y29544D01*
Y28682D01*
X288637Y27886D01*
X289246Y27277D01*
X290042Y26948D01*
X290903D01*
X291699Y27277D01*
X292308Y27886D01*
X292638Y28682D01*
Y29544D01*
X292308Y30339D01*
X291699Y30948D01*
X290903Y31278D01*
D02*
G37*
G36*
X277793Y31239D02*
X276931D01*
X276136Y30909D01*
X275526Y30300D01*
X275197Y29504D01*
Y28643D01*
X275526Y27847D01*
X276136Y27238D01*
X276931Y26908D01*
X277793D01*
X278589Y27238D01*
X279198Y27847D01*
X279527Y28643D01*
Y29504D01*
X279198Y30300D01*
X278589Y30909D01*
X277793Y31239D01*
D02*
G37*
G36*
X352635Y34528D02*
X351774D01*
X350978Y34198D01*
X350369Y33589D01*
X350039Y32793D01*
Y31931D01*
X350262Y31395D01*
X349700Y30833D01*
X349370Y30037D01*
Y29176D01*
X349700Y28380D01*
X349654Y28035D01*
X349444Y27914D01*
X348858Y27327D01*
X348443Y26609D01*
X348228Y25808D01*
Y24979D01*
X348330Y24601D01*
X347910Y24234D01*
X347676Y24331D01*
X347127D01*
X346621Y24121D01*
X346233Y23733D01*
X346024Y23227D01*
Y22679D01*
X346233Y22172D01*
X346621Y21785D01*
X347127Y21575D01*
X347676D01*
X348182Y21785D01*
X348570Y22172D01*
X348780Y22679D01*
Y22831D01*
X349279Y23038D01*
X349444Y22873D01*
X350162Y22459D01*
X350963Y22244D01*
X351793D01*
X352594Y22459D01*
X353312Y22873D01*
X353898Y23460D01*
X354313Y24178D01*
X354527Y24979D01*
Y25808D01*
X354313Y26609D01*
X353898Y27327D01*
X353462Y27764D01*
X353371Y28380D01*
X353701Y29176D01*
Y30037D01*
X353479Y30574D01*
X354040Y31136D01*
X354370Y31931D01*
Y32793D01*
X354040Y33589D01*
X353431Y34198D01*
X352635Y34528D01*
D02*
G37*
G36*
X290864Y25688D02*
X290002D01*
X289207Y25358D01*
X288597Y24749D01*
X288268Y23953D01*
Y23091D01*
X288597Y22296D01*
X289207Y21687D01*
X290002Y21357D01*
X290864D01*
X291660Y21687D01*
X292269Y22296D01*
X292599Y23091D01*
Y23953D01*
X292269Y24749D01*
X291660Y25358D01*
X290864Y25688D01*
D02*
G37*
G36*
X277793D02*
X276931D01*
X276136Y25358D01*
X275526Y24749D01*
X275197Y23953D01*
Y23091D01*
X275526Y22296D01*
X276136Y21687D01*
X276931Y21357D01*
X277793D01*
X278589Y21687D01*
X279198Y22296D01*
X279527Y23091D01*
Y23953D01*
X279198Y24749D01*
X278589Y25358D01*
X277793Y25688D01*
D02*
G37*
G36*
X329471Y26717D02*
X328923D01*
X328417Y26507D01*
X328029Y26120D01*
X327819Y25613D01*
Y25065D01*
X328029Y24559D01*
X328417Y24171D01*
X328690Y24058D01*
Y23516D01*
X328629Y23491D01*
X328241Y23103D01*
X328031Y22597D01*
Y22049D01*
X328241Y21542D01*
X328629Y21155D01*
X329135Y20945D01*
X329683D01*
X330190Y21155D01*
X330578Y21542D01*
X330787Y22049D01*
Y22597D01*
X330578Y23103D01*
X330190Y23491D01*
X329916Y23604D01*
Y24146D01*
X329978Y24171D01*
X330366Y24559D01*
X330575Y25065D01*
Y25613D01*
X330366Y26120D01*
X329978Y26507D01*
X329471Y26717D01*
D02*
G37*
G36*
X320363Y22415D02*
X319815D01*
X319308Y22205D01*
X318920Y21817D01*
X318711Y21311D01*
Y20763D01*
X318920Y20256D01*
X319308Y19869D01*
X319815Y19659D01*
X320363D01*
X320869Y19869D01*
X321257Y20256D01*
X321467Y20763D01*
Y21311D01*
X321257Y21817D01*
X320869Y22205D01*
X320363Y22415D01*
D02*
G37*
G36*
X409841Y20433D02*
X409293D01*
X408786Y20223D01*
X408399Y19836D01*
X408189Y19329D01*
Y18781D01*
X408399Y18275D01*
X408786Y17887D01*
X409293Y17677D01*
X409841D01*
X410348Y17887D01*
X410735Y18275D01*
X410945Y18781D01*
Y19329D01*
X410735Y19836D01*
X410348Y20223D01*
X409841Y20433D01*
D02*
G37*
G36*
X347243Y20433D02*
X346694D01*
X346188Y20223D01*
X345800Y19836D01*
X345590Y19329D01*
Y18781D01*
X345800Y18275D01*
X346188Y17887D01*
X346694Y17677D01*
X347243D01*
X347749Y17887D01*
X348137Y18275D01*
X348346Y18781D01*
Y19329D01*
X348137Y19836D01*
X347749Y20223D01*
X347243Y20433D01*
D02*
G37*
G36*
X107411Y25167D02*
X99833D01*
Y17589D01*
X107411D01*
Y25167D01*
D02*
G37*
G36*
X118896Y20236D02*
X118348D01*
X117841Y20026D01*
X117454Y19639D01*
X117244Y19132D01*
Y18584D01*
X117454Y18078D01*
X117841Y17690D01*
X118348Y17480D01*
X118896D01*
X119403Y17690D01*
X119790Y18078D01*
X120000Y18584D01*
Y19132D01*
X119790Y19639D01*
X119403Y20026D01*
X118896Y20236D01*
D02*
G37*
G36*
X365550Y20157D02*
X365002D01*
X364495Y19948D01*
X364107Y19560D01*
X363898Y19054D01*
Y18505D01*
X364107Y17999D01*
X364495Y17611D01*
X365002Y17402D01*
X365550D01*
X366056Y17611D01*
X366444Y17999D01*
X366653Y18505D01*
Y19054D01*
X366444Y19560D01*
X366056Y19948D01*
X365550Y20157D01*
D02*
G37*
G36*
X329867Y19541D02*
X329319D01*
X328813Y19331D01*
X328425Y18943D01*
X328215Y18437D01*
Y17888D01*
X328425Y17382D01*
X328813Y16994D01*
X329319Y16785D01*
X329867D01*
X330374Y16994D01*
X330762Y17382D01*
X330971Y17888D01*
Y18437D01*
X330762Y18943D01*
X330374Y19331D01*
X329867Y19541D01*
D02*
G37*
G36*
X290864Y20591D02*
X290002D01*
X289207Y20261D01*
X288597Y19652D01*
X288268Y18856D01*
Y17995D01*
X288597Y17199D01*
X289207Y16590D01*
X290002Y16260D01*
X290864D01*
X291660Y16590D01*
X292269Y17199D01*
X292599Y17995D01*
Y18856D01*
X292269Y19652D01*
X291660Y20261D01*
X290864Y20591D01*
D02*
G37*
G36*
X277793D02*
X276931D01*
X276136Y20261D01*
X275526Y19652D01*
X275197Y18856D01*
Y17995D01*
X275526Y17199D01*
X276136Y16590D01*
X276931Y16260D01*
X277793D01*
X278589Y16590D01*
X279198Y17199D01*
X279527Y17995D01*
Y18856D01*
X279198Y19652D01*
X278589Y20261D01*
X277793Y20591D01*
D02*
G37*
G36*
X339565Y15984D02*
X339017D01*
X338511Y15775D01*
X338123Y15387D01*
X337913Y14880D01*
Y14332D01*
X338123Y13826D01*
X338511Y13438D01*
X339017Y13228D01*
X339565D01*
X340072Y13438D01*
X340459Y13826D01*
X340669Y14332D01*
Y14880D01*
X340459Y15387D01*
X340072Y15775D01*
X339565Y15984D01*
D02*
G37*
G36*
X432557Y15276D02*
X432009D01*
X431503Y15066D01*
X431115Y14678D01*
X430905Y14172D01*
Y13624D01*
X431115Y13117D01*
X431503Y12730D01*
X432009Y12520D01*
X432557D01*
X433064Y12730D01*
X433452Y13117D01*
X433661Y13624D01*
Y14172D01*
X433452Y14678D01*
X433064Y15066D01*
X432557Y15276D01*
D02*
G37*
G36*
X528113Y17723D02*
X527002D01*
X525929Y17435D01*
X524967Y16880D01*
X524181Y16094D01*
X523626Y15132D01*
X523338Y14059D01*
Y12949D01*
X523626Y11876D01*
X524181Y10914D01*
X524967Y10128D01*
X525929Y9573D01*
X527002Y9285D01*
X528113D01*
X529185Y9573D01*
X530148Y10128D01*
X530933Y10914D01*
X531488Y11876D01*
X531776Y12949D01*
Y14059D01*
X531488Y15132D01*
X530933Y16094D01*
X530148Y16880D01*
X529185Y17435D01*
X528113Y17723D01*
D02*
G37*
G36*
X141533Y11496D02*
X140672D01*
X139876Y11166D01*
X139267Y10557D01*
X138937Y9761D01*
Y8900D01*
X139267Y8104D01*
X139876Y7495D01*
X140672Y7165D01*
X141533D01*
X142329Y7495D01*
X142938Y8104D01*
X143268Y8900D01*
Y9761D01*
X142938Y10557D01*
X142329Y11166D01*
X141533Y11496D01*
D02*
G37*
%LPD*%
G36*
X478053Y174961D02*
X514356D01*
Y117362D01*
X482502D01*
X461104Y138760D01*
X440297Y138779D01*
Y186247D01*
X440501Y186356D01*
X440797Y186465D01*
X441535Y186318D01*
X450466D01*
X455203Y181581D01*
X455887Y181124D01*
X456693Y180963D01*
X457499Y181124D01*
X458183Y181581D01*
X458640Y182264D01*
X458800Y183071D01*
X458640Y183877D01*
X458183Y184561D01*
X455293Y187451D01*
X455484Y187913D01*
X465100D01*
X478053Y174961D01*
D02*
G37*
G36*
X514173Y230000D02*
Y176165D01*
X478552D01*
X465952Y188765D01*
X465561Y189026D01*
X465100Y189118D01*
X465100Y189118D01*
X455484D01*
X455023Y189026D01*
X454779Y188863D01*
X454633Y188765D01*
X454010Y188734D01*
X452829Y189915D01*
X452145Y190372D01*
X451339Y190533D01*
X442408D01*
X441950Y190991D01*
Y203279D01*
X441789Y204085D01*
X441333Y204769D01*
X440276Y205826D01*
Y230039D01*
X514134D01*
X514173Y230000D01*
D02*
G37*
G36*
X460605Y137556D02*
X481650Y116511D01*
X482041Y116250D01*
X482502Y116158D01*
X482502Y116158D01*
X514356D01*
X514359Y116155D01*
X514512Y62008D01*
X514159Y61654D01*
X474195D01*
X462502Y73347D01*
X440297D01*
Y137222D01*
X440651Y137575D01*
X460605Y137556D01*
D02*
G37*
G36*
X473343Y60802D02*
X473734Y60541D01*
X474195Y60449D01*
X474195Y60449D01*
X513973D01*
Y6457D01*
X440036D01*
X440036Y71928D01*
X440297Y72142D01*
X462003D01*
X473343Y60802D01*
D02*
G37*
%LPC*%
G36*
X488216Y171108D02*
X486898D01*
X485625Y170767D01*
X484483Y170108D01*
X483551Y169176D01*
X482892Y168035D01*
X482551Y166762D01*
Y165443D01*
X482892Y164170D01*
X483551Y163029D01*
X484483Y162097D01*
X485625Y161437D01*
X486898Y161096D01*
X488216D01*
X489489Y161437D01*
X490631Y162097D01*
X491563Y163029D01*
X492222Y164170D01*
X492563Y165443D01*
Y166762D01*
X492222Y168035D01*
X491563Y169176D01*
X490631Y170108D01*
X489489Y170767D01*
X488216Y171108D01*
D02*
G37*
G36*
X444053Y151535D02*
X443191D01*
X442395Y151206D01*
X441786Y150597D01*
X441457Y149801D01*
Y148939D01*
X441786Y148143D01*
X442395Y147534D01*
X443191Y147205D01*
X444053D01*
X444849Y147534D01*
X445458Y148143D01*
X445787Y148939D01*
Y149801D01*
X445458Y150597D01*
X444849Y151206D01*
X444053Y151535D01*
D02*
G37*
G36*
X488216Y131108D02*
X486898D01*
X485625Y130767D01*
X484483Y130108D01*
X483551Y129176D01*
X482892Y128035D01*
X482551Y126761D01*
Y125443D01*
X482892Y124170D01*
X483551Y123029D01*
X484483Y122097D01*
X485625Y121438D01*
X486898Y121096D01*
X488216D01*
X489489Y121438D01*
X490631Y122097D01*
X491563Y123029D01*
X492222Y124170D01*
X492563Y125443D01*
Y126761D01*
X492222Y128035D01*
X491563Y129176D01*
X490631Y130108D01*
X489489Y130767D01*
X488216Y131108D01*
D02*
G37*
G36*
Y227408D02*
X486898D01*
X485625Y227067D01*
X484483Y226408D01*
X483551Y225475D01*
X482892Y224334D01*
X482551Y223061D01*
Y221743D01*
X482892Y220469D01*
X483551Y219328D01*
X484483Y218396D01*
X485625Y217737D01*
X486898Y217395D01*
X488216D01*
X489489Y217737D01*
X490631Y218396D01*
X491563Y219328D01*
X492222Y220469D01*
X492563Y221743D01*
Y223061D01*
X492222Y224334D01*
X491563Y225475D01*
X490631Y226408D01*
X489489Y227067D01*
X488216Y227408D01*
D02*
G37*
G36*
Y187408D02*
X486898D01*
X485625Y187067D01*
X484483Y186407D01*
X483551Y185475D01*
X482892Y184334D01*
X482551Y183061D01*
Y181743D01*
X482892Y180469D01*
X483551Y179328D01*
X484483Y178396D01*
X485625Y177737D01*
X486898Y177395D01*
X488216D01*
X489489Y177737D01*
X490631Y178396D01*
X491563Y179328D01*
X492222Y180469D01*
X492563Y181743D01*
Y183061D01*
X492222Y184334D01*
X491563Y185475D01*
X490631Y186407D01*
X489489Y187067D01*
X488216Y187408D01*
D02*
G37*
G36*
Y114809D02*
X486898D01*
X485625Y114468D01*
X484483Y113809D01*
X483551Y112877D01*
X482892Y111735D01*
X482551Y110462D01*
Y109144D01*
X482892Y107871D01*
X483551Y106729D01*
X484483Y105797D01*
X485625Y105138D01*
X486898Y104797D01*
X488216D01*
X489489Y105138D01*
X490631Y105797D01*
X491563Y106729D01*
X492222Y107871D01*
X492563Y109144D01*
Y110462D01*
X492222Y111735D01*
X491563Y112877D01*
X490631Y113809D01*
X489489Y114468D01*
X488216Y114809D01*
D02*
G37*
G36*
X444407Y89882D02*
X443546D01*
X442750Y89552D01*
X442141Y88943D01*
X441811Y88147D01*
Y87286D01*
X442141Y86490D01*
X442750Y85881D01*
X443546Y85551D01*
X444407D01*
X445203Y85881D01*
X445812Y86490D01*
X446142Y87286D01*
Y88147D01*
X445812Y88943D01*
X445203Y89552D01*
X444407Y89882D01*
D02*
G37*
G36*
X488216Y74809D02*
X486898D01*
X485625Y74468D01*
X484483Y73809D01*
X483551Y72877D01*
X482892Y71736D01*
X482551Y70462D01*
Y69144D01*
X482892Y67871D01*
X483551Y66729D01*
X484483Y65797D01*
X485625Y65138D01*
X486898Y64797D01*
X488216D01*
X489489Y65138D01*
X490631Y65797D01*
X491563Y66729D01*
X492222Y67871D01*
X492563Y69144D01*
Y70462D01*
X492222Y71736D01*
X491563Y72877D01*
X490631Y73809D01*
X489489Y74468D01*
X488216Y74809D01*
D02*
G37*
G36*
Y58510D02*
X486898D01*
X485625Y58169D01*
X484483Y57510D01*
X483551Y56578D01*
X482892Y55436D01*
X482551Y54163D01*
Y52845D01*
X482892Y51572D01*
X483551Y50430D01*
X484483Y49498D01*
X485625Y48839D01*
X486898Y48498D01*
X488216D01*
X489489Y48839D01*
X490631Y49498D01*
X491563Y50430D01*
X492222Y51572D01*
X492563Y52845D01*
Y54163D01*
X492222Y55436D01*
X491563Y56578D01*
X490631Y57510D01*
X489489Y58169D01*
X488216Y58510D01*
D02*
G37*
G36*
X444407Y28780D02*
X443546D01*
X442750Y28450D01*
X442141Y27841D01*
X441811Y27045D01*
Y26184D01*
X442141Y25388D01*
X442750Y24779D01*
X443546Y24449D01*
X444407D01*
X445203Y24779D01*
X445812Y25388D01*
X446142Y26184D01*
Y27045D01*
X445812Y27841D01*
X445203Y28450D01*
X444407Y28780D01*
D02*
G37*
G36*
X488216Y18510D02*
X486898D01*
X485625Y18169D01*
X484483Y17510D01*
X483551Y16578D01*
X482892Y15436D01*
X482551Y14163D01*
Y12845D01*
X482892Y11572D01*
X483551Y10430D01*
X484483Y9498D01*
X485625Y8839D01*
X486898Y8498D01*
X488216D01*
X489489Y8839D01*
X490631Y9498D01*
X491563Y10430D01*
X492222Y11572D01*
X492563Y12845D01*
Y14163D01*
X492222Y15436D01*
X491563Y16578D01*
X490631Y17510D01*
X489489Y18169D01*
X488216Y18510D01*
D02*
G37*
%LPD*%
D12*
X194862Y264060D02*
X196491Y265689D01*
X196870D01*
X194862Y205052D02*
Y264060D01*
X196870Y265689D02*
X198453Y267272D01*
X196240Y259855D02*
X199429Y263044D01*
Y264549D01*
X200815Y265934D01*
Y266201D01*
X196240Y204481D02*
Y259855D01*
X471299Y288515D02*
Y332716D01*
X421654Y238869D02*
X471299Y288515D01*
X420275Y239440D02*
X468937Y288101D01*
Y332717D01*
X420275Y68107D02*
Y239440D01*
X421654Y67537D02*
Y238869D01*
X417087Y64918D02*
X420275Y68107D01*
X417087Y64918D02*
Y64918D01*
X420367Y66251D02*
X421654Y67537D01*
X420367Y65555D02*
Y66251D01*
X420179Y65366D02*
X420367Y65555D01*
X189819Y200008D02*
X194862Y205052D01*
X182871Y194965D02*
X187915Y200008D01*
X189819D01*
X182871Y193415D02*
Y194965D01*
X182882Y192708D02*
Y193404D01*
X182871Y193415D02*
X182882Y193404D01*
Y192708D02*
X183071Y192520D01*
X189181Y198630D02*
X190389D01*
X196240Y204481D01*
X184741Y194190D02*
X189181Y198630D01*
X460961Y349780D02*
X467772D01*
X438276Y327095D02*
X460961Y349780D01*
X435228Y327095D02*
X438276D01*
X435039Y327283D02*
X435228Y327095D01*
X460118Y352284D02*
X467913D01*
X436988Y329154D02*
X460118Y352284D01*
X433369Y329154D02*
X436988D01*
X101035Y352366D02*
X101302D01*
X99595Y350925D02*
X101035Y352366D01*
X92775Y344430D02*
X99271Y350925D01*
X99595D01*
X92775Y290052D02*
Y344430D01*
X73661Y270938D02*
X92775Y290052D01*
X73661Y235512D02*
Y270938D01*
X101688Y349547D02*
X104086Y351945D01*
X99841Y349547D02*
X101688D01*
X94153Y289481D02*
Y343860D01*
X99841Y349547D01*
X76024Y235512D02*
Y271351D01*
X94153Y289481D01*
X81535Y355308D02*
X81677Y355449D01*
X81535Y328763D02*
Y355308D01*
X75717Y322944D02*
X81535Y328763D01*
X79173Y329741D02*
Y355591D01*
X74046Y324614D02*
X79173Y329741D01*
D90*
X318976Y143937D02*
D03*
X457244Y34331D02*
D03*
X465118Y52047D02*
D03*
Y40236D02*
D03*
Y28425D02*
D03*
X457244Y40236D02*
D03*
Y52047D02*
D03*
X465118Y46142D02*
D03*
Y34331D02*
D03*
X457244Y57953D02*
D03*
X465118D02*
D03*
X457244Y28425D02*
D03*
Y46142D02*
D03*
X457244Y22520D02*
D03*
X465118D02*
D03*
X197244Y328386D02*
D03*
X157008Y234449D02*
D03*
X170118Y121102D02*
D03*
X389764Y222205D02*
D03*
X395669D02*
D03*
X401575Y216299D02*
D03*
X314567Y264409D02*
D03*
Y259291D02*
D03*
X319291D02*
D03*
Y264409D02*
D03*
X324016D02*
D03*
X324055Y259291D02*
D03*
Y254173D02*
D03*
X319291D02*
D03*
X323740Y143937D02*
D03*
Y149055D02*
D03*
X323701Y154173D02*
D03*
X318976D02*
D03*
Y149055D02*
D03*
X314252D02*
D03*
Y154173D02*
D03*
X313701Y51181D02*
D03*
Y46063D02*
D03*
X318425D02*
D03*
Y40945D02*
D03*
Y51181D02*
D03*
X464567Y197008D02*
D03*
X456693D02*
D03*
Y220630D02*
D03*
X464567Y226535D02*
D03*
X457244Y183071D02*
D03*
X457244Y147638D02*
D03*
X457283Y84331D02*
D03*
X457283Y119764D02*
D03*
X359252Y177992D02*
D03*
X462401Y308071D02*
D03*
Y302165D02*
D03*
X425197Y324783D02*
D03*
X419291D02*
D03*
X349252Y327716D02*
D03*
X384528Y327559D02*
D03*
X253780Y364173D02*
D03*
X247874D02*
D03*
X272402Y364488D02*
D03*
X389843Y363976D02*
D03*
X278307Y364488D02*
D03*
X178740Y185787D02*
D03*
X51693Y228622D02*
D03*
X51063Y144213D02*
D03*
X13150Y231063D02*
D03*
X202953Y215433D02*
D03*
X175591Y263819D02*
D03*
X105567Y120863D02*
D03*
X133307Y140669D02*
D03*
X193425Y83228D02*
D03*
X200709Y30551D02*
D03*
X92441Y8779D02*
D03*
X50236Y10984D02*
D03*
X133150Y303071D02*
D03*
X104184Y46954D02*
D03*
X234606Y265158D02*
D03*
X272402Y344291D02*
D03*
X278307D02*
D03*
X431063Y206450D02*
D03*
X69173Y206102D02*
D03*
X431063Y200544D02*
D03*
X25157Y140827D02*
D03*
X15315Y149685D02*
D03*
X40354Y110079D02*
D03*
X80197Y107205D02*
D03*
X82795Y228583D02*
D03*
X242323Y189173D02*
D03*
X86535Y342323D02*
D03*
X323150Y51181D02*
D03*
X323189Y40945D02*
D03*
Y46063D02*
D03*
X91457Y354213D02*
D03*
X101969Y33858D02*
D03*
X31220Y294291D02*
D03*
X194882Y378740D02*
D03*
X50669Y270433D02*
D03*
X81890Y370236D02*
D03*
X121693Y368819D02*
D03*
X431299Y54134D02*
D03*
Y48228D02*
D03*
X429134Y113189D02*
D03*
Y107283D02*
D03*
X417520Y343976D02*
D03*
X425512D02*
D03*
X440787D02*
D03*
X432795D02*
D03*
X400748Y343937D02*
D03*
X408740D02*
D03*
X368701Y380039D02*
D03*
X376693D02*
D03*
X391968D02*
D03*
X383976D02*
D03*
X416023Y380079D02*
D03*
X424016D02*
D03*
X486221Y373425D02*
D03*
Y379331D02*
D03*
X510630Y296417D02*
D03*
Y302323D02*
D03*
X523320Y341446D02*
D03*
Y347352D02*
D03*
X-12835Y233661D02*
D03*
X21379Y59827D02*
D03*
X-29410Y134488D02*
D03*
X389764Y198846D02*
D03*
X408740Y380079D02*
D03*
X400748D02*
D03*
X19094Y81142D02*
D03*
X9527Y329882D02*
D03*
X401575Y204488D02*
D03*
X395669Y210394D02*
D03*
Y204488D02*
D03*
X395932Y198845D02*
D03*
X401575Y198583D02*
D03*
X363189Y25394D02*
D03*
X357283D02*
D03*
Y31299D02*
D03*
X357126Y129861D02*
D03*
Y123956D02*
D03*
Y118050D02*
D03*
X359252Y185197D02*
D03*
Y191890D02*
D03*
X357323Y197795D02*
D03*
X390158Y341339D02*
D03*
X387126Y255354D02*
D03*
X368150D02*
D03*
Y237165D02*
D03*
X387126D02*
D03*
X465158Y119764D02*
D03*
X457283Y113858D02*
D03*
X465158D02*
D03*
X457283Y107953D02*
D03*
X465158D02*
D03*
X457283Y102047D02*
D03*
X465158D02*
D03*
X457283Y96142D02*
D03*
X465158D02*
D03*
Y90236D02*
D03*
X457283D02*
D03*
X465158Y84331D02*
D03*
X464567Y220630D02*
D03*
X465118Y147638D02*
D03*
X457244Y153543D02*
D03*
X465118D02*
D03*
Y159449D02*
D03*
X457244D02*
D03*
X465118Y165354D02*
D03*
X457244D02*
D03*
X465118Y171260D02*
D03*
X457244D02*
D03*
X465118Y177165D02*
D03*
X457244D02*
D03*
X465118Y183071D02*
D03*
X389764Y210394D02*
D03*
Y204488D02*
D03*
X401575Y222205D02*
D03*
Y210394D02*
D03*
X456693Y214724D02*
D03*
Y202913D02*
D03*
Y208819D02*
D03*
Y191102D02*
D03*
X395669Y216299D02*
D03*
X464567Y202913D02*
D03*
Y214724D02*
D03*
X389764Y216299D02*
D03*
X456693Y226535D02*
D03*
X464567Y208819D02*
D03*
Y191102D02*
D03*
D92*
X316608Y307920D02*
X325059D01*
X313110Y311418D02*
X316608Y307920D01*
X240709Y168330D02*
X242205Y166834D01*
X240709Y168330D02*
Y168543D01*
X242205Y137362D02*
Y166834D01*
X298425Y160709D02*
Y172008D01*
X294567Y175866D02*
X298425Y172008D01*
Y160709D02*
X299606Y159528D01*
X272165Y103819D02*
X274921Y106575D01*
X294921Y286733D02*
X298425Y283229D01*
Y269173D02*
Y283229D01*
X294921Y74410D02*
X299567Y69764D01*
Y55079D02*
Y69764D01*
X335049Y124941D02*
X346565Y136457D01*
X357087D01*
X324134Y124941D02*
X335049D01*
X429488Y285338D02*
X430669Y286519D01*
X429488Y267165D02*
Y285338D01*
X430669Y286519D02*
Y286732D01*
X313110Y311418D02*
Y327953D01*
X197885Y385681D02*
X203189Y390984D01*
X244923D01*
X197885Y374339D02*
Y385681D01*
X203054Y388622D02*
X244923D01*
X200669Y386237D02*
X203054Y388622D01*
X199556Y372882D02*
X200669Y373995D01*
Y386237D01*
X199556Y372669D02*
Y372882D01*
X274921Y106575D02*
Y147795D01*
X181876Y310236D02*
X241811D01*
X174790Y317323D02*
X181876Y310236D01*
X174094Y317717D02*
X174308D01*
X174701Y317323D01*
X174790D01*
X195433Y149803D02*
Y166654D01*
X195315Y166772D02*
X195433Y166654D01*
X193196Y147566D02*
X195433Y149803D01*
X201575Y150970D02*
Y166496D01*
X196728Y146122D02*
X201575Y150970D01*
X198465Y275197D02*
X200827Y277559D01*
Y297756D01*
X194843Y276929D02*
Y296283D01*
X196299Y297740D01*
Y297953D01*
X196200Y355261D02*
X196326Y355387D01*
X196200Y340547D02*
Y355261D01*
X199934Y352434D02*
Y355399D01*
Y352434D02*
X200315Y352053D01*
Y340433D02*
Y352053D01*
X196074Y340421D02*
X196200Y340547D01*
X70814Y182228D02*
Y182441D01*
X72624Y164001D02*
Y180418D01*
X70814Y182228D02*
X72624Y180418D01*
X74488Y166417D02*
Y178585D01*
X78779Y182875D01*
X75195Y301822D02*
Y309567D01*
X75039Y294134D02*
Y301666D01*
X75195Y301822D01*
X70887Y291279D02*
X70906Y291260D01*
X70887Y291279D02*
Y309548D01*
X70868Y309567D02*
X70887Y309548D01*
X2992Y129685D02*
Y199331D01*
X-39Y202362D02*
X2992Y199331D01*
X259284Y150308D02*
Y152883D01*
X261102Y154701D02*
Y260496D01*
X259134Y150157D02*
X259284Y150308D01*
Y152883D02*
X261102Y154701D01*
X259606Y261992D02*
X261102Y260496D01*
X259606Y261992D02*
Y262205D01*
X157165Y48323D02*
X158859Y46630D01*
X162047Y37649D02*
Y46867D01*
X157165Y48323D02*
Y48537D01*
X162047Y46867D02*
X163504Y48323D01*
Y48537D01*
X158859Y34255D02*
Y46630D01*
X-21890Y234606D02*
X18839Y275335D01*
X424961Y267087D02*
Y285771D01*
X424173Y286559D02*
X424961Y285771D01*
X424173Y286559D02*
Y286772D01*
X325045Y312573D02*
X325050Y312567D01*
X286968Y200945D02*
Y209606D01*
X286929Y209646D02*
X286968Y209606D01*
Y200945D02*
X287008Y200905D01*
X227716Y170827D02*
X236221Y162323D01*
Y140905D02*
Y162323D01*
X162960Y34501D02*
Y36737D01*
Y34501D02*
X163110Y34350D01*
X162047Y37649D02*
X162960Y36737D01*
X75157Y53228D02*
X75748Y53819D01*
X75157Y39980D02*
Y53228D01*
Y39980D02*
X78442Y36695D01*
X77874Y291299D02*
X83207D01*
X75039Y294134D02*
X77874Y291299D01*
X77480Y163425D02*
X83797D01*
X71496Y39159D02*
Y53740D01*
X74488Y166417D02*
X77480Y163425D01*
X69449Y37112D02*
X71496Y39159D01*
X69449Y37008D02*
Y37112D01*
D93*
X280039Y213347D02*
X300500D01*
X321447Y234293D01*
X322088D01*
X322126Y234331D01*
X432038Y211083D02*
X439843Y203279D01*
Y190118D02*
Y203279D01*
X431985Y211083D02*
X432038D01*
X451339Y188425D02*
X456693Y183071D01*
X441535Y188425D02*
X451339D01*
X439843Y190118D02*
X441535Y188425D01*
X162992Y203228D02*
Y261758D01*
X163268Y262033D01*
Y262087D01*
X130276Y238465D02*
Y287795D01*
Y238465D02*
X134252Y234488D01*
D98*
X502518Y146102D02*
D03*
Y202402D02*
D03*
Y89803D02*
D03*
Y33504D02*
D03*
D100*
X321239Y120514D02*
D03*
X321654Y256732D02*
D03*
X316929D02*
D03*
X321654Y261850D02*
D03*
X316929D02*
D03*
X320669Y134409D02*
D03*
X353110Y290354D02*
D03*
Y295590D02*
D03*
X355551Y92677D02*
D03*
X242205Y137362D02*
D03*
X316614Y151614D02*
D03*
X321339D02*
D03*
X316614Y146496D02*
D03*
X321339D02*
D03*
X353173Y82337D02*
D03*
X353173Y77101D02*
D03*
X186653Y126555D02*
D03*
X260715Y51929D02*
D03*
X320787Y43504D02*
D03*
X316063D02*
D03*
X320787Y48622D02*
D03*
X316063D02*
D03*
X414213Y26496D02*
D03*
X321811Y13937D02*
D03*
X353465D02*
D03*
X140394Y93110D02*
D03*
X155472D02*
D03*
X149449Y97913D02*
D03*
X322716Y104961D02*
D03*
X272165Y103819D02*
D03*
X205630Y262402D02*
D03*
X200815Y266201D02*
D03*
X198945Y268071D02*
D03*
X199528Y135709D02*
D03*
X196614Y24685D02*
D03*
X396586Y269539D02*
D03*
X446378Y236929D02*
D03*
X432520Y10709D02*
D03*
X432126Y134016D02*
D03*
X434646Y149449D02*
D03*
X433189Y67598D02*
D03*
X409606Y74606D02*
D03*
X431985Y211083D02*
D03*
X441063Y249095D02*
D03*
X316457Y209528D02*
D03*
X348898Y209528D02*
D03*
X326181Y227047D02*
D03*
X298425Y269173D02*
D03*
X299606Y159528D02*
D03*
X299567Y55079D02*
D03*
X357087Y136457D02*
D03*
X468937Y332717D02*
D03*
X417087Y64918D02*
D03*
X471299Y332716D02*
D03*
X420179Y65366D02*
D03*
X430669Y286732D02*
D03*
X183071Y192520D02*
D03*
X184741Y194190D02*
D03*
X313110Y327953D02*
D03*
X244923Y390984D02*
D03*
X197885Y374339D02*
D03*
X244923Y388622D02*
D03*
X199556Y372669D02*
D03*
X467772Y349780D02*
D03*
X435039Y327283D02*
D03*
X467913Y352284D02*
D03*
X433369Y329154D02*
D03*
X101302Y352366D02*
D03*
X73661Y235512D02*
D03*
X104086Y351945D02*
D03*
X76024Y235512D02*
D03*
X81677Y355449D02*
D03*
X75717Y322944D02*
D03*
X79173Y355591D02*
D03*
X74046Y324614D02*
D03*
X179961Y362264D02*
D03*
X124173D02*
D03*
X190039Y251102D02*
D03*
X139508Y201359D02*
D03*
X144311Y39536D02*
D03*
X274921Y147795D02*
D03*
X174094Y317717D02*
D03*
X241811Y310236D02*
D03*
X435039Y26614D02*
D03*
X435315Y87756D02*
D03*
X97087Y49252D02*
D03*
X97913Y305748D02*
D03*
X96811Y178150D02*
D03*
X176142Y149016D02*
D03*
X175906Y164488D02*
D03*
X195315Y166772D02*
D03*
X201575Y166496D02*
D03*
X44724Y167362D02*
D03*
X179095Y278189D02*
D03*
X194488Y306102D02*
D03*
X196299Y297953D02*
D03*
X200827Y297756D02*
D03*
X175236Y293701D02*
D03*
X194843Y276929D02*
D03*
X198465Y275197D02*
D03*
X168937Y348543D02*
D03*
X169055Y342520D02*
D03*
X196326Y355387D02*
D03*
X199934Y355399D02*
D03*
X70814Y182441D02*
D03*
X78779Y182875D02*
D03*
X43819Y295394D02*
D03*
X102047Y314735D02*
D03*
X75195Y309567D02*
D03*
X70868D02*
D03*
X109291Y101654D02*
D03*
X2992Y129685D02*
D03*
X-39Y202362D02*
D03*
X-40354Y151024D02*
D03*
Y157441D02*
D03*
X280039Y213347D02*
D03*
X321181Y318189D02*
D03*
X352716Y105000D02*
D03*
X349606Y222402D02*
D03*
X130276Y287795D02*
D03*
X134252Y234488D02*
D03*
X183425Y48537D02*
D03*
X163504D02*
D03*
X157165D02*
D03*
X155472Y156890D02*
D03*
X115571Y165453D02*
D03*
X138827Y156437D02*
D03*
X163268Y262087D02*
D03*
X162992Y203228D02*
D03*
X145630Y203465D02*
D03*
X155512Y199901D02*
D03*
X139094Y261850D02*
D03*
X18839Y275335D02*
D03*
X155551Y296417D02*
D03*
X259134Y150157D02*
D03*
X409685Y136732D02*
D03*
X324134Y124941D02*
D03*
X451653Y287244D02*
D03*
X424961Y267165D02*
D03*
X325050Y313355D02*
D03*
X117835Y254724D02*
D03*
X325059Y307920D02*
D03*
X-40354Y207874D02*
D03*
X109291Y334252D02*
D03*
X139291Y324252D02*
D03*
X148307Y328583D02*
D03*
X148110Y265945D02*
D03*
X155472Y262402D02*
D03*
X-40354Y258307D02*
D03*
Y264528D02*
D03*
Y270748D02*
D03*
X-21890Y234606D02*
D03*
X145587Y279480D02*
D03*
X124528Y298819D02*
D03*
X110000Y272677D02*
D03*
X-40354Y201575D02*
D03*
X32559Y209685D02*
D03*
X286929Y209646D02*
D03*
X287008Y200905D02*
D03*
X113307Y207126D02*
D03*
X110433Y212008D02*
D03*
X123779Y238661D02*
D03*
X145394Y231575D02*
D03*
X-40354Y170079D02*
D03*
Y176339D02*
D03*
X240709Y168543D02*
D03*
X227716Y170827D02*
D03*
X236221Y140905D02*
D03*
X259134Y155709D02*
D03*
X193196Y147566D02*
D03*
X196728Y146122D02*
D03*
X122283Y192677D02*
D03*
X152638Y163976D02*
D03*
X113307Y144488D02*
D03*
X113071Y94410D02*
D03*
X294921Y74410D02*
D03*
X146299Y121653D02*
D03*
X-6181Y193543D02*
D03*
X130512Y125118D02*
D03*
X190118Y8819D02*
D03*
X190118Y65394D02*
D03*
X-40354Y245669D02*
D03*
X144449Y66732D02*
D03*
X-40354Y183189D02*
D03*
Y163858D02*
D03*
X163110Y34350D02*
D03*
X158859Y34255D02*
D03*
X409685Y13780D02*
D03*
X35709Y182047D02*
D03*
X27244Y186063D02*
D03*
X113189Y28150D02*
D03*
X75748Y53819D02*
D03*
X125474Y178701D02*
D03*
X124055Y76535D02*
D03*
X124331Y57756D02*
D03*
X194764Y184528D02*
D03*
X155478Y35344D02*
D03*
X353425Y318189D02*
D03*
X351496Y306063D02*
D03*
X259606Y262205D02*
D03*
X264016Y265945D02*
D03*
X322087Y239134D02*
D03*
X322126Y234331D02*
D03*
X320209Y26496D02*
D03*
X294921Y286733D02*
D03*
X294567Y175866D02*
D03*
X196074Y340421D02*
D03*
X200315Y340433D02*
D03*
X414213Y149724D02*
D03*
X413779Y87717D02*
D03*
X70906Y291260D02*
D03*
X83207Y291299D02*
D03*
X125709Y310787D02*
D03*
X28898Y381247D02*
D03*
X20945D02*
D03*
X36732D02*
D03*
X-40354Y214173D02*
D03*
Y220551D02*
D03*
Y226693D02*
D03*
Y233071D02*
D03*
Y239252D02*
D03*
Y251890D02*
D03*
Y277087D02*
D03*
Y280236D02*
D03*
Y141811D02*
D03*
Y132244D02*
D03*
Y116496D02*
D03*
X458701Y273071D02*
D03*
X429488Y267165D02*
D03*
X83797Y163425D02*
D03*
X71496Y53740D02*
D03*
X72624Y164001D02*
D03*
X102520Y186575D02*
D03*
X48661Y41102D02*
D03*
X69449Y37008D02*
D03*
X78442Y36695D02*
D03*
X102559Y60157D02*
D03*
X424173Y286772D02*
D03*
M02*
