M48
;Layer_Color=9474304
;FILE_FORMAT=2:4
INCH,TZ
;TYPE=PLATED
T1F00S00C0.0098
T2F00S00C0.0276
T3F00S00C0.0453
T4F00S00C0.0531
T5F00S00C0.0886
T6F00S00C0.1260
;TYPE=NON_PLATED
T7F00S00C0.1260
%
T01
X4748Y4579
X5933Y3744
X7425Y5130
X9571
X10077Y5039
X10687Y5104
X11319Y2815
X11862Y1886
X14110Y933
X16878Y1354
X19012Y882
X19661Y2469
X19142Y3921
X18295Y4102
X15908Y3375
X13520Y3846
X13220Y4594
X25492Y4409
X26071Y5193
X27551Y5201
X27472Y4858
X27480Y4409
X27736Y2907
Y2352
Y1843
X29043
Y2352
X29047Y2911
X31795Y2874
X31795Y3181
X32146Y3185
X32021Y2650
X32009Y2104
X32181Y1394
X32959Y1816
X32941Y2232
X32920Y2534
X34740Y2295
X34697Y1906
X34724Y2858
X35154Y2961
X35220Y3236
X35346Y1394
X33929Y1461
X36528Y1878
X39815Y1551
X41350Y1067
X41421Y2650
X43504Y2661
X42794Y3471
X43228Y1390
X43756Y1043
X32079Y4350
X31606
Y4862
X32079
X44398Y2661
X44843Y2032
X44854Y8016
X44398Y8772
X44957Y14177
X44362Y14937
X43465Y14945
X43194Y13672
X43783Y13331
X41350Y13339
X41421Y14972
X39238Y14289
X35709Y13646
X35126Y13299
X34988Y13020
X35173Y12717
X34469Y11693
X33004Y11673
X32124Y12051
X32413Y12494
X32972Y12972
X33024Y13311
X32067Y13441
X32134Y14650
X31661
Y15161
X32134
X29961Y15953
X29524Y16323
X28976Y16323
X28980Y17583
X29457Y17587
X31890Y18110
Y18591
X32571Y19823
X32586Y20209
X32598Y20445
X34366Y20264
X34366Y19980
X34461Y19445
X34760
X35209Y20374
X36346Y20028
X43106Y19654
X43531Y8776
X43760Y7146
X42807Y7469
X42087Y7043
X41777Y6999
X40961Y7461
X41378Y8785
X39612Y8325
X35867Y7293
X35846Y7047
X35555Y9268
X35685Y9811
X35272Y10500
X33953Y10492
X33563Y10500
X32272Y10496
X32642Y9900
X32620Y9626
X32579Y9307
X32870Y8937
X33366
X33862
X34776Y8878
Y8638
X34378Y9409
X34413Y9693
X31776Y8543
X31303
Y8031
X31776
X29492Y7441
X28980
Y6134
X29528Y6134
X29957Y5508
X29094Y13012
Y13492
X28701Y20091
X28543Y17583
X28461Y16323
X27593Y15670
X27436Y15289
X27492Y14780
X27732Y13492
Y12933
Y12445
X28669Y11976
X27217Y10382
X25591Y10713
X24220Y13736
X23622Y14091
X24071Y16854
X22772Y17083
X21075Y15374
X20752Y15484
X18967Y13460
X18157Y13067
X15858Y11866
X15130Y11425
X14630Y12165
X14945Y9791
X15547Y9311
X16295Y9303
X14039Y9311
X14445Y6673
X15986Y6847
X16153Y6680
X16673Y5717
X16402Y5299
X18283Y5791
X19012Y6539
X21051Y7648
X20819Y8953
X21547Y9294
X24614Y5453
X25043Y5594
X26622Y5933
X28465Y6134
X28484Y7433
X25913Y15016
Y15571
X19476Y18453
X18307Y19252
X18474Y19419
X17657Y20354
X16299Y20323
X15551Y19990
X14563Y20346
X13951Y20136
X15142Y17941
X16073Y17539
X16659Y17026
X16272Y15472
X15547Y15689
X15264Y16398
X13883Y15644
X14382Y15087
X13071Y13374
X13051Y12512
X11890Y12945
X11331Y14449
X11988Y16110
X10860Y16543
X10753Y16825
X9461Y16701
X9602Y17791
X9894Y17787
X10846Y18976
X11780Y19244
X11772Y19843
X11331Y20713
X12654Y19268
X13018Y19524
X7465Y19043
X7295Y17791
X5965Y16409
X5102Y16799
X4154Y17433
X3571Y18205
X2724Y18606
X2449Y17720
X520Y17402
X-996Y17378
X-1118Y15421
X-2409Y16354
X-1902Y18795
X-618Y19354
X4528Y19843
X299Y12968
X-2146Y12110
X5732Y7854
X6008Y7945
X7376Y6972
X7543Y6805
X8783Y5941
X10362Y5287
X10863Y6265
X12484Y6024
X12406Y7654
X11717Y7642
X11736Y8508
X11307Y9441
X10929Y10165
Y10425
X9390Y10709
X-4035Y11650
Y13224
Y14181
Y15102
Y15744
X-3516Y15748
X-3555Y16689
X-4035Y16386
Y17008
Y17634
Y18319
X-3516Y17945
X-3539Y19839
X-4035Y20157
Y20787
Y21417
Y22055
X-3449Y22067
X-4035Y22669
Y23307
Y23925
Y24567
X-3488Y24508
X-2992Y24874
X-3063Y25177
X-3381Y25506
X-3623Y25712
X-4035Y25831
Y26453
Y27075
Y27709
Y28024
Y25189
X-2787Y26059
X-2595Y26232
X-2799Y23618
X-2189Y23461
X-2051Y24335
X-2571Y25437
X-839Y25193
X-795Y25689
X-488Y25890
X-560Y24799
X-472Y23732
X-161Y23217
X2567Y22094
X3256Y20968
X4425Y21504
X6842Y21401
X8648Y20933
X9545Y21735
X11043Y21201
X11545Y22142
X11764Y23858
X12378Y23866
X12114Y24941
X11783Y25472
X11457Y25988
X11000Y27268
X10699Y28706
X10075Y28775
X9870Y28957
X9417Y27806
X9547Y30583
X10248Y30417
X11770Y30009
X12449Y29957
X12878Y29008
X12307Y31425
X11705Y31457
X10929Y33425
X9594Y33972
X10130Y35237
X10409Y35195
X11776Y36226
X12417
X12454Y34296
X8168Y35545
X7917Y35559
X7572Y32294
X7405Y32461
X7476Y30744
X5917Y29130
X4713Y30012
X2882Y32076
Y34728
X3669Y34472
X1938Y27404
X2024Y26559
X-484Y27524
X-193Y28902
X-2197Y27142
X7366Y23551
X7602
X13425Y23449
X14539Y23157
X15154Y22323
X17205Y21240
X18976Y21764
X19004Y25110
X19067Y26681
X19894Y26807
X20081Y26620
X20567Y26354
X21134Y26370
X20815Y25012
X21996Y29047
X22626Y28906
X23654Y30335
X24181Y31024
X21274Y30366
X19449Y30610
X19697Y31472
X19947Y31458
X20608Y32125
X17409Y31772
X18161Y30520
X17528Y28949
X16512Y28217
X16524Y27531
X16327Y26209
X15547Y26240
X14811Y26594
X13909Y26185
X14559Y27948
X15067Y28213
X15555Y29642
X14831Y32858
X13929Y32425
X15110Y34618
X16449
X17046Y34444
X17035Y34988
X21913Y35547
X22736Y35351
X27996Y32669
X28468Y28665
Y27366
X28226Y25854
X27379Y25877
X27429Y26350
X26402Y26594
X25961Y26220
X27728Y24169
Y23614
Y23104
X28004Y21335
X28693Y20965
X29035Y23104
Y23614
X32213Y23433
X32209Y23913
X33024Y23780
X33016Y23472
X32618Y22705
X33902Y22689
X34008Y23000
X34850Y23248
X34869Y23554
X34846Y23902
X34961Y22240
X34890Y20953
X33654
X32965Y20961
X31646Y20953
X31693Y25673
X32165
Y26185
X31693
X29843Y26917
X29492Y27366
X28980
Y28673
X29492
X31331Y29217
X31803
Y29728
X31331
X32508Y30476
X32506Y30792
X32505Y31335
X32118Y31819
X33476
X33988Y31826
X34327Y31012
X34323Y30709
X33846Y30268
X33350
X32854
X35150Y30606
Y31142
X35343Y31819
X35626Y28346
X34870Y27965
X39627Y27257
X39659Y26954
X41265Y26795
X42496Y26717
X43075Y26843
X43067Y28673
X42417Y28677
X40909Y28535
X40657Y25483
X44106Y24909
X44063Y23362
X43240Y21732
X43198Y21108
X42492Y22358
X44139Y31948
X44020Y32238
X43504Y32728
X43337Y32915
X31311Y32795
X46339Y31874
X46605Y31873
X46894Y33272
X47130Y33272
X46777Y34978
X46791Y35228
X47437Y35825
X47339Y36039
X45013Y35560
X44827Y35415
X44332Y27183
X45870Y27307
X44961Y23980
X44375Y23696
X24492Y38862
Y39098
X19956Y37267
X19789Y37434
X6260Y36744
X3673Y38125
X2890
X2094
T02
X5024Y1098
X9244Y878
X10197Y3386
X20071Y3055
X21705Y2832
X22295
Y2241
X21705
Y4118
X22295
Y4709
X21705
X31370Y4606
X31843
X32319
Y4094
X31843
Y5118
X31370
X32315
X35673Y4937
X36165Y4933
Y4343
X35673Y4346
Y3756
X36165Y3752
X35728Y3130
Y2539
X36319
X35138
X39571Y3142
X40161
X40752
X40161Y3732
Y4323
X39571
X39571Y3732
X39571Y4913
X40161
X43130Y4823
X45724Y4614
Y5205
X46512
Y4614
Y4024
Y3433
Y2843
Y2252
X45724
X45724Y2843
Y3433
Y4024
Y5795
X46512
X46516Y8433
Y9024
Y9614
Y10205
Y10795
Y11386
X46516Y11976
X45728
Y11386
Y10795
Y10205
Y9614
Y9024
X45728Y8433
X45724Y14764
X45724Y15354
Y15945
Y16535
Y17126
Y17717
Y18307
X46512
X46512Y17717
Y17126
Y16535
Y15945
Y15354
Y14764
X46457Y19110
Y19701
Y20291
X45669
Y19701
Y19110
X43106Y20054
Y20645
X40157Y20449
X39567
X39593Y19885
X40157Y19858
X40161Y18983
X40161Y18398
Y17807
X39571
Y18393
X39571Y18983
X40752
X40161Y17217
X39571
Y16626
X40161
Y16035
X39571
X39571Y15445
X40161
X40752
Y12819
X40161
X39571
Y12228
X40161
Y11638
Y11047
X39571
Y11638
Y10457
X40161
Y9866
X39571Y9866
X39571Y9276
X40161
X40752
Y6685
X40161
X39571
Y6094
X40161
Y5504
X39571
X43130Y5413
X42913Y10728
Y11319
X35713Y11805
Y12396
Y12986
X35579Y14311
X36071Y14307
Y14898
X35579Y14902
Y15492
X36071Y15488
X35925Y17799
Y18520
Y19189
X35732Y19780
X34736Y18646
X32921Y19409
X32449
X31976
X31504
X31031
X31654Y18827
Y18354
Y17882
X32126
Y18354
Y18827
X32583Y16209
X33173
X33764
X32370Y15417
X31898
X31425
Y14906
X31898
X32374
Y14394
X31898
X31122Y10594
Y10004
Y9413
X31067Y8799
X31539
X32012
X32016Y8287
X31539
X31067
Y7776
X31539
X32016
X32559Y5894
X33150
X33740
X34913Y8240
X30406Y9413
Y10004
Y10594
X30157Y20173
X38976Y20449
Y19885
X24232Y18917
X22280Y19402
X21689
X21669Y19992
X22260
X22295Y16102
X21705
Y15512
X22295Y15512
Y14299
X21705
Y13709
X22295
Y10406
X21705Y10406
Y9815
X22295
Y8591
Y8000
X21705
Y8591
X19343Y8323
X17012Y12110
X13331Y14067
X17874Y18579
X6917Y20610
X5106Y14421
X2516Y14083
X1531Y14969
X2169Y16280
X-2252Y18484
X-1768Y19846
X4035Y11008
X8020Y10720
X10557Y12086
X1909Y8114
X2138Y5983
X-2941Y13449
X-1295Y21480
X-1646Y23102
X1315Y23106
X1343Y26185
X5067Y26988
X5169Y22862
X8280Y22858
X8654Y34000
X9146Y35421
X953Y32988
X3122Y29429
X13315Y30307
X17559Y26382
X21713Y25839
Y25248
X22303
X22304Y25837
X22303Y26937
Y27528
X21713
Y26937
X23461Y26516
X22303Y21661
X21713
Y21071
X22303
X20295Y21543
X15701Y23445
X19724Y32839
X21713Y33161
Y33752
X22303
Y33161
Y31972
Y31382
X21713
Y31972
X24787Y36417
X25378
X27240Y36449
X27831
Y34429
X27240
X31398Y34567
X31988Y34567
X32579Y34567
Y36325
X31988
X31398
X31567Y29984
X32039
X32043Y29472
X31567
X31094
Y28961
X31567
X32043
X31094Y29984
X31457Y26441
X31929
X32402
X32406Y25929
X31929
X31457
X31929Y25417
X32406
X32744Y27232
X33335
X33925
X35618Y26264
X36110Y26260
Y25669
X35618Y25673
Y25083
X36110Y25079
X36815Y25535
Y23717
X38713
X38976Y22220
Y21630
Y21039
X39567
X40157
Y21630
X39567
Y22220
X40157
X38713Y25535
X38453Y32756
X39016Y34134
X40075Y34394
X40874
X41752Y34398
X42551
X43280
X44079
X42520Y32478
X41929
X38984Y36398
X34925Y32772
X34827Y29807
Y29217
X32177Y22976
Y22386
X45669Y22654
Y22063
Y21472
Y20882
X46457
Y21472
Y22063
Y22654
X46240Y30217
Y30807
X51063Y30232
Y29642
X52332Y34145
Y34735
X48622Y37343
Y37933
X42402Y38008
X41602
X40874
X40075
X39197Y38004
X38398
X37669
X36870
X28799Y37657
X19488Y37874
X12169Y36882
X8189Y37024
T03
X10362Y2138
X10362Y8760
X10362Y13720
X10362Y20079
Y25193
Y32563
T04
X48756Y1350
X52756
Y5350
Y6980
X48756
Y5350
Y10980
Y12610
Y16610
Y18240
X52756
Y16610
Y12610
Y10980
Y22240
Y23870
X48756
Y22240
Y27870
X52756
T05
X50252Y3350
Y8980
Y14610
Y20240
Y25870
T06
X37008Y7992
X27244
Y29134
X37008
T07
X54189Y30571
Y32402
Y35571
Y37402
M30
