M48
;Layer_Color=9474304
;FILE_FORMAT=2:4
INCH,TZ
;TYPE=PLATED
T1F00S00C0.0098
T2F00S00C0.0276
T3F00S00C0.0453
T4F00S00C0.0531
T5F00S00C0.0886
T6F00S00C0.1260
;TYPE=NON_PLATED
T7F00S00C0.1260
%
T01
X4866Y4110
X6390Y3677
X6945Y3701
X7844Y3669
X7854Y4047
X9713Y4583
X9709Y4925
X10400Y5248
X11319Y2815
X11862Y1886
X14110Y933
X14431Y3954
X15051Y3468
X15548Y3534
X15886Y3426
X16311Y3435
X16429Y3984
X16350Y4854
X15717
X18343
X18346Y4323
X19661Y2468
X19012Y882
X13220Y4594
X25492Y4409
X26071Y5193
X27551Y5201
X27472Y4858
X27480Y4409
X27736Y2907
Y2352
Y1843
X29043
Y2352
X29047Y2911
X31795Y2874
X31795Y3181
X32146Y3185
X32021Y2650
X32009Y2104
X32181Y1394
X32959Y1816
X32941Y2232
X32920Y2534
X34740Y2295
X34697Y1906
X34724Y2858
X35154Y2961
X35220Y3236
X35346Y1394
X33929Y1461
X36528Y1878
X40957Y1906
X40969Y1378
X41421Y2650
X43504Y2661
X42794Y3471
X43228Y1390
X43252Y1071
X32079Y4350
X31606
Y4862
X32079
X44398Y2661
Y8772
X44362Y14937
X43465Y14945
X43293Y13698
X43213Y13402
X40969Y13673
X40961Y14213
X41421Y14972
X41378Y8772
X40953Y8016
X40961Y7461
X41709Y6492
X42018Y6537
X43319Y6760
X42807Y7469
X43531Y8776
X35555Y9268
X35685Y9811
X35272Y10500
X33953Y10492
X33563Y10500
X32272Y10496
X32642Y9900
X32620Y9626
X32579Y9307
X32870Y8937
X33366
X33862
X34776Y8878
Y8638
X35317Y8234
X35317Y7710
X34378Y9409
X34413Y9693
X34469Y11693
X33004Y11673
X32124Y12051
X32413Y12494
X32972Y12972
X33024Y13311
X32067Y13441
X32134Y14650
X31661
Y15161
X32134
X29961Y15953
X29524Y16323
X28976Y16323
X28980Y17583
X29457Y17587
X31890Y18110
Y18591
X32571Y19823
X32586Y20209
X32598Y20445
X34366Y20264
X34366Y19980
X34461Y19445
X34760
X35209Y20374
X36346Y20028
X35709Y13646
X35126Y13299
X34988Y13020
X35173Y12717
X29094Y13012
Y13492
X28980Y7441
X29492
X29528Y6134
X28980Y6134
X29957Y5508
X31303Y8031
X31776
Y8543
X31303
X28701Y20091
X28543Y17583
X28461Y16323
X27593Y15670
X27436Y15289
X27492Y14780
X27732Y13492
Y12933
Y12445
X28669Y11976
X27217Y10382
X25591Y10713
X24220Y13736
X23622Y14091
X24071Y16854
X22772Y17083
X20157Y16650
X19532Y16677
X19476Y18453
X18307Y19252
X18474Y19419
X17657Y20354
X16299Y20323
X15551Y19990
X14563Y20346
X13951Y20136
X15142Y17941
X16073Y17539
X16776Y16874
X17591Y16449
X17614Y15917
X17614Y14902
X18704Y14761
X19320Y14757
X19673Y14612
X19889Y15201
X19953Y13571
X20464Y12444
X18665Y12656
X15858Y11866
X15130Y11425
X14630Y12165
X14945Y9791
X15547Y9311
X16295Y9303
X14039Y9311
X14445Y6673
X15986Y6847
X16153Y6680
X16673Y5717
X16402Y5299
X18283Y5791
X19012Y6539
X21051Y7648
X20819Y8953
X21547Y9294
X24614Y5453
X25043Y5594
X26622Y5933
X28465Y6134
X28484Y7433
X25913Y15016
Y15571
X16299
X15547Y15689
X15264Y16398
X13883Y15644
X14382Y15087
X13071Y13374
X13051Y12512
X11890Y12945
X11331Y14449
X11557Y16545
X10752Y17246
X10323Y16980
X9693Y17276
X9681Y17815
X10252Y18657
X11780Y19244
X12228Y19268
X11772Y19843
X11331Y20713
X13018Y19524
X12547Y17870
X7878Y18288
X7081Y18244
X7262Y16400
X7740Y16638
X8380Y16343
X6335
X4472Y16736
X4154Y17433
X3571Y18205
X2724Y18606
X2449Y17720
X520Y17402
X-996Y17378
X-602Y18799
X-618Y19354
X-4Y20236
X4528Y19843
X-2409Y16354
X-2248Y15461
X-2146Y12110
X299Y12968
X5563Y6705
X7543Y6805
X7376Y6972
X7575Y5382
X7150Y5374
X10307Y5585
X10256Y6016
X12433Y5776
X12406Y7654
X11717Y7642
X11736Y8508
X11307Y9441
X10929Y10165
Y10425
Y10717
X-4035Y11650
Y13224
Y14181
Y15102
Y15744
X-3516Y15748
X-3555Y16689
X-4035Y16386
Y17008
Y17634
Y18319
X-3516Y17945
X-3539Y19839
X-4035Y20157
Y20787
Y21417
Y22055
X-3449Y22067
X-4035Y22669
Y23307
Y23925
Y24567
X-3488Y24508
X-3063Y25177
X-4035Y25189
Y25831
X-3843Y26150
X-4035Y26453
Y26768
Y27075
Y27709
Y28024
X-3673Y27394
X-3524Y25811
X-2787Y26165
X-2799Y23941
X-2189Y23461
X-472Y23732
X-1303Y25449
X-12Y26591
X-453Y27197
X1884Y27533
X4382Y29539
X6433Y29130
X7091Y29126
X7780Y29500
X8321Y29130
X10171Y28824
X10376Y28643
X10992Y27815
X11000Y27268
X11457Y25988
X11783Y25472
X12114Y24941
X12378Y23866
X11764Y23858
X11545Y22142
X10898Y21744
X11043Y21201
X8768Y20933
X6941Y21500
X7366Y23551
X7602
X3252Y21524
X3256Y20968
X2567Y22094
X2882Y32076
Y34728
X3669Y34472
X7917Y35559
X8168Y35545
X10130Y35237
X10409Y35195
X10626Y33705
X10929Y33425
X10937Y33976
X11776Y36226
X12417
X12571Y31079
X12453Y29882
X11691Y29892
X9787Y30031
X9791Y30575
X10205Y31473
X7520Y30957
X7087
X7572Y32294
X7405Y32461
X13028Y28780
X14559Y27948
X15067Y28213
X16512Y28217
X16524Y27531
X16327Y26209
X15547Y26240
X14811Y26594
X13909Y26185
X13425Y23449
X14539Y23157
X15154Y22323
X17205Y21240
X19004Y25110
X20437Y25220
X20815Y25012
X20563Y26240
X20081Y26620
X19894Y26807
X19723Y26378
X19846Y27520
X19484Y27693
X18535Y27654
X17909Y27819
X17535Y28835
X17524Y29370
X18161Y30520
X19449Y30610
X19630Y29795
X20083Y29776
X21274Y30366
X23654Y30335
X24181Y31024
X20608Y32125
X19907Y32100
X19740Y31933
X19607Y34042
X20031Y34043
X20250Y34680
X19993Y35540
X19633Y35539
X17996Y36226
X17586Y35243
X16894Y34854
X16906Y34252
X16449Y34618
X15110
X14831Y32858
X13929Y32425
X17409Y31772
X18567Y34039
X15555Y29642
X20280Y28051
X25961Y26220
X26402Y26594
X27429Y26350
X27379Y25877
X28226Y25854
X28468Y27366
Y28665
X27996Y32669
X27728Y24169
Y23614
Y23104
X28004Y21335
X28693Y20965
X29035Y23104
Y23614
X32213Y23433
X32209Y23913
X33024Y23780
X33016Y23472
X32618Y22705
X33902Y22689
X34008Y23000
X34850Y23248
X34869Y23554
X34846Y23902
X34961Y22240
X34890Y20953
X33654
X32965Y20961
X31646Y20953
X31693Y25673
X32165
Y26185
X31693
X29843Y26917
X29492Y27366
X28980
Y28673
X29492
X31331Y29217
X31803
Y29728
X31331
X32508Y30476
X32506Y30792
X32505Y31335
X32118Y31819
X33476
X33988Y31826
X34327Y31012
X34323Y30709
X33846Y30268
X33350
X32854
X35150Y30606
Y31142
X35343Y31819
X35311Y29559
Y29035
X39659Y26954
X41265Y26795
X42496Y26717
X42949
X43067Y28673
X42417Y28677
X40657Y25623
X44106Y24909
X44122Y24378
X44063Y23362
X43240Y21732
X42736Y21736
X42492Y22358
X43198Y21108
X44139Y31948
X44020Y32238
X43504Y32728
X43337Y32915
X31311Y32795
X45632Y32093
X45465Y31906
X46894Y33272
X47130Y33272
X46777Y34978
X46791Y35228
X47437Y35825
X47339Y36039
X44994Y35545
X44827Y35378
X45165Y28724
X44721Y27809
X44332Y27183
X45870Y27307
X44638Y23693
X24492Y38862
Y39098
X19956Y37267
X19789Y37434
X6260Y36744
X3673Y38125
X2890
X2094
T02
X5024Y1098
X9244Y878
X10197Y3386
X10418Y4695
X20071Y3055
X21705Y2832
X22295
Y2241
X21705
Y4118
X22295
Y4709
X21705
X31370Y4606
X31843
X32319
Y4094
X31843
Y5118
X31370
X32315
X35673Y4937
X36165Y4933
Y4343
X35673Y4346
Y3756
X36165Y3752
X35728Y3130
Y2539
X36319
X35138
X39571Y3142
X40161
X40752
X40161Y3732
Y4323
X39571
X39571Y3732
X39571Y4913
X40161
X43130Y4823
X45724Y4614
Y5205
X46512
Y4614
Y4024
Y3433
Y2843
Y2252
X45724
X45724Y2843
Y3433
Y4024
Y5795
X46512
X46516Y8433
Y9024
Y9614
Y10205
Y10795
Y11386
X46516Y11976
X45728
Y11386
Y10795
Y10205
Y9614
Y9024
X45728Y8433
X45724Y14764
X45724Y15354
Y15945
Y16535
Y17126
Y17717
Y18307
X46512
X46512Y17717
Y17126
Y16535
Y15945
Y15354
Y14764
X46457Y19110
Y19701
Y20291
X45669
Y19701
Y19110
X43106Y20054
Y20645
X40157Y20449
X39567
X39593Y19885
X40157Y19858
X40161Y18983
X40161Y18398
Y17807
X39571
Y18393
X39571Y18983
X40752
X40161Y17217
X39571
Y16626
X40161
Y16035
X39571
X39571Y15445
X40161
X40752
Y12819
X40161
X39571
Y12228
X40161
Y11638
Y11047
X39571
Y11638
Y10457
X40161
Y9866
X39571Y9866
X39571Y9276
X40161
X40752
Y6685
X40161
X39571
Y6094
X40161
Y5504
X39571
X43130Y5413
X42913Y10728
Y11319
X35713Y11805
Y12396
Y12986
X35579Y14311
X36071Y14307
Y14898
X35579Y14902
Y15492
X36071Y15488
X35535Y16209
X34945
X34354
X33764
X33173
X32583
X32370Y15417
X31898
X31425
Y14906
X31898
X32374
Y14394
X31898
X32126Y17882
X31654
Y18354
X32126
Y18827
X31654
X31504Y19409
X31976
X32449
X32921
X31031
X30157Y20173
X35732Y19780
X35925Y19189
Y18520
Y17799
X34752Y17402
X38976Y19885
Y20449
X34870Y7028
X34921Y5894
X34331
X33740
X33150
X32559
X32016Y7776
X31539
X31067
Y8287
X31539
X32016
X32012Y8799
X31539
X31067
X31122Y9413
Y10004
Y10594
X30406
Y10004
Y9413
X35512Y5894
X22295Y8000
Y8591
X21705Y8591
Y8000
Y9815
X22295
Y10406
X21705Y10406
Y13748
X22295
Y14339
X21705
Y15512
X22295
Y16102
X21705
X21689Y19402
X22280
X22260Y19992
X21669
X24232Y18917
X17874Y18579
X17012Y12110
X13331Y14067
X19343Y8323
X10557Y12086
X8020Y10720
X4035Y11008
X5106Y14421
X2516Y14083
X1531Y14969
X1909Y8114
X2138Y5983
X6917Y20610
X-2941Y13449
X-1283Y23366
X1315Y23106
X5169Y22862
X8280Y22858
X5067Y27043
X3122Y29429
X953Y32988
X8654Y34232
X9146Y35421
X13315Y30307
X17559Y26382
X21713Y25839
Y25248
X22303
X22304Y25837
X22303Y26937
Y27528
X21713
Y26937
X23461Y26516
X22303Y21661
X21713
Y21071
X22303
X20295Y21543
X15701Y23445
X19724Y32839
X21713Y33161
Y33752
X22303
Y33161
Y31972
Y31382
X21713
Y31972
X24787Y36417
X25378
X27240Y36449
X27831
Y34429
X27240
X31398Y34567
X31988Y34567
X32579Y34567
Y36325
X31988
X31398
X31567Y29984
X32039
X32043Y29472
X31567
X31094
Y28961
X31567
X32043
X31094Y29984
X31457Y26441
X31929
X32402
X32406Y25929
X31929
X31457
X31929Y25417
X32406
X32744Y27232
X33335
X33925
X34516
X35098
X35697
X35618Y26264
X36110Y26260
Y25669
X35618Y25673
Y25083
X36110Y25079
X36815Y25535
Y23717
X38713
X38976Y22220
Y21630
Y21039
X39567
X40157
Y21630
X39567
Y22220
X40157
X38713Y25535
X34886Y28303
X34827Y30201
X34925Y32772
X38453Y32756
X39016Y34134
X40075Y34394
X40874
X41752Y34398
X42551
X43280
X44079
X42520Y32478
X41929
X38984Y36398
X32177Y22976
Y22386
X45669Y22654
Y22063
Y21472
Y20882
X46457
Y21472
Y22063
Y22654
X46240Y30217
Y30807
X51063Y30232
Y29642
X52332Y34145
Y34735
X48622Y37343
Y37933
X42402Y38008
X41602
X40874
X40075
X39197Y38004
X38398
X37669
X36870
X28799Y37657
X19488Y37874
X12169Y36882
X8189Y37024
T03
X10362Y2138
X10362Y8760
X10362Y13720
X10362Y20079
Y25193
Y32563
T04
X48756Y1350
X52756
Y5350
Y6980
X48756
Y5350
Y10980
Y12610
Y16610
Y18240
X52756
Y16610
Y12610
Y10980
Y22240
Y23870
X48756
Y22240
Y27870
X52756
T05
X50252Y3350
Y8980
Y14610
Y20240
Y25870
T06
X37008Y7992
X27244
Y29134
X37008
T07
X54189Y30571
Y32402
Y35571
Y37402
M30
