M48
;Layer_Color=9474304
;FILE_FORMAT=2:4
INCH,TZ
;TYPE=PLATED
T1F00S00C0.0098
T2F00S00C0.0197
T3F00S00C0.0354
T4F00S00C0.0453
T5F00S00C0.0531
T6F00S00C0.0886
T7F00S00C0.1260
;TYPE=NON_PLATED
T8F00S00C0.1260
%
T01
X5087Y2736
X5094Y5008
X9618Y5083
X9925Y5122
X10575Y4976
X10436Y4181
X11319Y2815
X11870Y1893
X12846Y583
X12862Y3213
X13010Y4559
X7311Y594
X14709Y1496
X14610Y4437
X13331Y4689
X13512Y3681
X18248Y4083
X19043Y3949
X18723Y2888
X18572Y1866
X17464
X22121Y2108
X25113Y2120
X28882Y4283
Y4551
X29276Y5193
X30982Y4856
X30925Y4540
X30921Y2339
X31283
X31835Y2346
X32386Y3559
X35284Y3703
X35531Y3998
X35283Y4254
X35531Y4510
X35287Y4762
X35787Y2563
X35758Y1843
X35772Y1311
X37035Y1319
X37645Y1394
X38386Y1839
X38428Y2081
X38492Y2533
X38957Y1315
X39594Y992
X40378Y1870
X40303Y2480
X42682Y2486
X42626Y2173
X42852Y1705
X43104Y1866
X43780Y870
X44102Y3236
X36575Y2480
X36543Y2087
X46067Y1843
X43378Y7799
X42787Y7827
X42561Y8769
X41353Y9426
X40325Y9198
X40327Y8457
X39913Y8141
X39394Y9626
X38384Y9837
X38565Y10103
Y10414
X38060Y9429
X37513
X36118Y9109
X36130Y8854
X35550Y8382
X35539Y8098
X35470Y7839
X34869Y9002
X34406Y8978
X33815Y8629
X33777Y8315
X33736Y7996
X32614Y7386
X32142
Y6874
X32614
X32625Y6303
X32153
X33079Y6122
Y5819
X31551Y5433
X32154Y8614
X32614Y8638
X31827Y10406
X31252Y10398
X30740Y10406
X30319Y9449
X32370Y11583
X31598Y13507
X30929Y13260
X31043Y12953
X28894Y12929
X28764Y12598
X28805Y12245
X32172Y14335
X32645
X32634Y14906
X32161
Y15417
X32634
X32476Y16654
X32165Y16697
X32192Y17355
X32831Y16961
X33303Y16654
X33382Y16304
X33516Y15984
X35143Y16376
X35158Y16637
X35591Y16508
X35786Y17119
X35795Y17472
X36004Y17752
X35810Y18032
X35961Y18433
X35445Y18335
X36799Y17775
X37116Y16927
X37350Y16866
X37783Y16968
X38110
X38213Y15894
X39193Y15217
X40386Y15161
X40331Y15921
X41429Y16094
X42565Y16130
X42791Y15047
X43776Y14126
X44098Y16551
X42768Y19157
X42545Y19468
X42579Y20685
X42789Y20502
X43242Y20213
X41740Y20051
X35122Y20032
X34874Y20287
X35122Y20543
X34878Y20796
X34874Y19736
X34504Y17350
X31799Y18500
Y18768
X32028Y19476
X30509Y20548
X33098Y14154
Y13850
X35232Y12886
X35476Y12634
X35228Y12378
X35476Y12122
X35228Y11827
X35968Y10988
X36626Y10559
X36610Y10323
X36010Y9820
X44098Y9858
X25591Y10713
X25527Y11600
X22598Y11624
X21554Y9302
X20819Y8960
X22105Y7333
X23783Y8622
X24775Y6075
X25566Y6283
X18791Y8012
X18799Y10154
X16890Y8882
X14984Y9728
X14026Y9742
X15238Y11190
X15071Y11681
X15858Y11866
X16855Y13304
X18398Y12949
X18838Y13886
X18811Y16071
X18697Y18382
X18447Y18368
X20614Y17941
X22117Y17435
X22634Y17058
X24071Y16854
X23622Y14091
X24220Y13736
X28102Y14623
X28185Y14992
X28579Y20193
X28539Y20740
X27937Y20461
X26530Y20100
X17657Y20354
X16299Y20323
X14850Y20417
X13941Y20409
X14701Y17327
X15244Y16386
X13878Y16024
X16287Y15429
X16659Y17036
X16052Y17550
X20717Y15465
X21075Y15374
X16447Y6196
X16260Y6364
X16681Y5724
X16409Y5307
X14917Y6386
X12480Y6063
X12406Y7587
X11711Y7568
X11736Y8508
X11075Y10154
X10924Y10433
X9411Y10721
X9610Y12067
X8346Y11732
X11876Y12863
X12579Y12898
X13050Y13374
X11333Y14447
X10433Y15811
X10992Y16461
X10728Y16753
X9638Y16760
X10236Y17736
X12516Y17870
X12421Y19165
X11766Y19158
X11762Y19833
X11323Y20697
X6350Y20535
X7514Y18712
X7681Y18545
X5126Y16587
X4154Y17433
X2449Y17720
X541Y17402
X-996Y17378
X-748Y15937
X-1118Y15421
X689Y15681
X1205Y14807
X2441Y15465
X5110Y14382
X1610Y11775
X315Y11467
X-1Y11493
X-100Y11279
X-187Y11059
X-301Y10852
X-433Y10650
X-587Y10438
X-669Y12764
X283Y12760
X-2174Y12082
X-2409Y16354
X5732Y7854
X6008Y7945
X7717Y7309
X7884Y7142
X10597Y5288
X-4078Y11638
Y13193
Y14157
Y15102
Y15736
X-3673Y15799
X-3614Y16130
X-3360Y16426
X-4078Y16370
Y17000
X-3870Y17205
X-3835Y17449
X-4078Y17634
Y18260
X-3518Y17947
X-3319Y19839
X-3583Y20236
X-4078Y20161
Y20783
X-3122Y15677
X-3766Y20910
X-3650Y21520
X-4078Y21417
Y22024
X-3622Y22142
X-3118Y21709
X-2972Y22776
X-2768Y23185
X-2801Y23631
X-3076Y24870
X-3106Y25177
X-3484Y25480
X-3623Y25712
X-4078Y25823
Y26449
Y27082
Y27713
X-4078Y28028
X-4078Y25197
Y24559
Y23945
Y23299
Y22685
X-3488Y24508
X-2874Y26110
X-2595Y26232
X-2571Y25437
X-1867Y24972
X-2051Y24335
X-2189Y23461
X-2276Y22488
X-1043Y23185
X-697Y24650
X-795Y25689
X-488Y25890
X-484Y27520
X-2197Y27142
X1012Y26055
Y25740
Y25425
X1008Y24449
Y24134
Y23819
X2075Y23094
X2567Y22094
X3114Y20965
X4433Y21512
X637Y21334
X633Y21712
X-1008Y20882
X1938Y27404
X5055Y27169
X9455Y27792
X10291Y28602
X9516Y29559
X12110Y29803
X11908Y30025
X12449Y30500
X12454Y34296
X12440Y36116
X11770Y36099
X10936Y33423
X9594Y33972
X7677Y31388
X7490Y31555
X2768Y32189
X2783Y29953
X2882Y34728
X3669Y34472
X11382Y26921
X11457Y25988
X12114Y24941
X12445Y23760
X11754Y23757
X11516Y22161
X11032Y21193
X9248Y21390
X9561Y21741
X8655Y20941
X15199Y21934
X14927Y22447
X17358Y21087
X20610Y20992
X22121Y22360
X23343Y23374
X23740Y23594
X25121Y22340
X26524Y20973
X27701Y23894
X27618Y24392
X27770Y24909
X20933Y25791
X21134Y26370
X21688Y26872
X21602Y27594
X22150Y28898
X23008Y28799
X22484Y33093
X23598Y33604
X21701Y35740
X20709Y35882
X16224Y35732
X15109Y35083
X14949Y34713
X15171Y34395
X14815Y32917
X13925Y32945
X17130Y32051
X18161Y30520
X18732Y30012
X20007Y30794
X20339Y31063
X20162Y31638
X17752Y28913
X16512Y28217
X16539Y27547
X16969Y27366
X15136Y28154
X14937Y28465
X14811Y26689
X13917Y26654
X19409Y26705
X18752Y24972
X31799Y24567
X32315Y24543
X32311Y24846
X32445Y25059
X32567Y25278
X33007Y25691
X34474Y25311
X35272Y25717
X36167Y25305
X35996Y24631
X35960Y24085
X35167Y24196
X35164Y24511
X32276Y23346
X31803
Y22835
X32276
X32286Y22264
X31814
X32740Y22083
Y21780
X31280Y21370
X30461Y20925
X40382Y21646
X44071Y21657
X43114Y26925
X42697Y26882
X41756Y27591
X40965Y26988
X39528Y27846
X42201Y28563
X42106Y31165
X41315Y31425
X40957Y31429
X42350Y32140
X43358Y31303
X44189Y31382
X31315Y31620
X31012Y31465
X30815Y31283
X44531Y31114
X45563Y28949
X48039Y32547
X48049Y32797
X48066Y34339
X48017Y34645
X49079Y34843
X49093Y35093
X49087Y35961
Y36197
X47374Y36004
X47360Y35754
X48918Y31966
X48909Y31717
X51315Y33181
X51313Y33419
X28126Y36764
X23622Y36866
X22488Y37169
X19106Y37413
X18638Y37882
X3685Y37957
X2878
X2106
T02
X8780Y3228
X22823Y3350
X25358Y2697
Y4484
X27173Y4437
X27181Y2697
X35772Y3703
Y4254
X35768Y4766
X40114Y4677
Y4091
X45685Y4055
X46276
Y4650
Y5240
X45685
Y4650
Y5831
X46276
X46272Y10606
X45681
Y11201
Y11791
Y12382
X46272
Y11791
Y11201
X46264Y17287
X45673
Y17882
Y18472
Y19063
X46264
Y18472
Y17882
X40114Y17921
Y17335
Y18512
Y19102
X35362Y19736
Y20287
X35358Y20799
X36209Y14850
X36213Y14339
Y13787
X35713Y12890
X35717Y12378
Y11827
X40115Y11740
Y11150
Y10563
Y12331
X40114Y5858
Y5268
X36154Y5732
Y6283
X36150Y6795
X32854Y6618
X32378
X31906
Y7130
X32378
X32854
X32551Y5886
X32571Y13917
X32398Y14650
X31925
Y15161
X32398
X32874
Y14650
X25331Y13189
X22732Y13614
X23461Y19075
X25402Y17516
X27224Y19303
X27122Y11307
X23323Y7736
X14350Y14268
X15358Y18965
X4752Y18933
X8843Y8764
X3819Y25701
X3167Y28468
X14228Y25374
X15094Y31177
X24067Y29287
X24488Y25354
X27244Y25394
X27201Y22984
X27248Y22091
X27228Y34559
X27224Y36280
X25402Y36311
X25398Y34567
X32004Y34783
Y35374
Y35965
X36724Y36357
X38618Y36358
X38642Y34520
X38583Y25500
Y23713
X39543Y23815
X40134
Y23224
X39543
Y24406
X40134
X36760Y23713
Y25500
X35839Y22811
X35839Y22299
Y21748
X32213Y21846
X32039Y22579
X31567
Y23091
X32039
X32516
Y22579
X32272Y26047
Y26638
Y27228
X31555
Y26638
Y26047
X45669Y22953
Y22362
Y21772
X46260
Y22362
Y22953
X45185Y21469
X48866Y37858
X13772Y36898
X5748Y36913
T03
X1921Y2429
Y3429
Y4429
Y5429
Y6429
Y7429
Y8429
Y9429
T04
X10362Y2138
X10362Y8760
X10362Y13720
Y20079
Y25193
Y32563
T05
X48756Y1350
X52756
Y5350
Y6980
Y10980
Y12610
X48756
Y10980
Y6980
Y5350
Y16610
Y18240
X52756
Y16610
Y22240
Y23870
X48756
Y22240
Y27870
X52756
T06
X50252Y3350
Y8980
Y14610
Y20240
Y25870
T07
X28740Y7992
X37795
X37795Y30039
X28740
T08
X54189Y30571
Y32402
Y35571
Y37402
M30
