G04*
G04 #@! TF.GenerationSoftware,Altium Limited,Altium Designer,23.4.1 (23)*
G04*
G04 Layer_Color=32896*
%FSLAX25Y25*%
%MOIN*%
G70*
G04*
G04 #@! TF.SameCoordinates,3C51E803-5CB0-4716-9101-D54A26F08D5E*
G04*
G04*
G04 #@! TF.FilePolarity,Positive*
G04*
G01*
G75*
%ADD11C,0.00787*%
%ADD12C,0.00394*%
%ADD16C,0.00591*%
D11*
X443898Y298740D02*
Y301496D01*
X434055Y298740D02*
Y301496D01*
X473740Y285669D02*
Y288425D01*
X463898Y285669D02*
Y288425D01*
X416339Y215315D02*
Y218071D01*
X426181Y215315D02*
Y218071D01*
X324843Y369213D02*
Y371969D01*
X315000Y369213D02*
Y371969D01*
X403543Y215315D02*
Y218071D01*
X413386Y215315D02*
Y218071D01*
X390748Y215315D02*
Y218071D01*
X400591Y215315D02*
Y218071D01*
X431102Y298740D02*
Y301496D01*
X421260Y298740D02*
Y301496D01*
X418307Y298740D02*
Y301496D01*
X408465Y298740D02*
Y301496D01*
X276299Y285827D02*
X279055D01*
X276299Y275984D02*
X279055D01*
X276299Y325276D02*
X279055D01*
X276299Y315433D02*
X279055D01*
X201299Y355945D02*
Y356339D01*
X204055Y355945D02*
Y356339D01*
X164685Y351851D02*
X165079D01*
X164685Y354606D02*
X165079D01*
X164016Y374685D02*
X164410D01*
X164016Y377441D02*
X164410D01*
X206536Y374685D02*
X206929D01*
X206536Y377441D02*
X206929D01*
X227500Y362559D02*
Y362953D01*
X222185Y362559D02*
Y362953D01*
X222146Y342835D02*
Y343228D01*
X227461Y342835D02*
Y343228D01*
X227144Y282370D02*
Y284732D01*
X194487Y277587D02*
X204920D01*
Y296878D01*
X194487D02*
X204920D01*
X194487Y277587D02*
Y296878D01*
X186219Y277173D02*
X193109D01*
X215798Y286134D02*
Y286527D01*
X218554Y286134D02*
Y286527D01*
X179302Y283354D02*
X179695D01*
X179302Y286110D02*
X179695D01*
X221908Y298886D02*
X222301D01*
X221908Y301642D02*
X222301D01*
X177766D02*
X178160D01*
X177766Y298886D02*
X178160D01*
X199573Y269448D02*
Y269841D01*
X196817Y269448D02*
Y269841D01*
X92795Y292756D02*
Y293150D01*
X90039Y292756D02*
Y293150D01*
X53150Y291378D02*
X53543D01*
X53150Y288622D02*
X53543D01*
X53465Y311772D02*
X53858D01*
X53465Y314528D02*
X53858D01*
X94331Y314528D02*
X94724D01*
X94331Y311772D02*
X94724D01*
X116331Y280953D02*
Y281346D01*
X111016Y280953D02*
Y281346D01*
X116331Y300323D02*
Y300716D01*
X111016Y300323D02*
Y300716D01*
X255906Y327756D02*
Y340551D01*
Y327756D02*
X296260D01*
X255906Y368110D02*
Y380905D01*
X296260D01*
X343504Y96654D02*
X383858D01*
Y109449D01*
X343504Y149803D02*
X383858D01*
Y137008D02*
Y149803D01*
X255906D02*
X296260D01*
X255906Y137008D02*
Y149803D01*
Y96654D02*
X296260D01*
X255906D02*
Y109449D01*
Y63189D02*
X296260D01*
X255906Y50394D02*
Y63189D01*
Y10039D02*
X296260D01*
X255906D02*
Y22835D01*
X90630Y164882D02*
Y165276D01*
X93386Y164882D02*
Y165276D01*
X53740Y160748D02*
X54134D01*
X53740Y163504D02*
X54134D01*
X54055Y186654D02*
X54449D01*
X54055Y183898D02*
X54449D01*
X94921Y183898D02*
X95315D01*
X94921Y186654D02*
X95315D01*
X116921Y153079D02*
Y153472D01*
X111606Y153079D02*
Y153472D01*
X116921Y172449D02*
Y172842D01*
X111606Y172449D02*
Y172842D01*
X156093Y29437D02*
X166526D01*
Y48728D01*
X156093D02*
X166526D01*
X156093Y29437D02*
Y48728D01*
X147825Y29024D02*
X154715D01*
X383858Y50394D02*
Y63189D01*
X343504D02*
X383858D01*
Y10039D02*
Y22835D01*
X343504Y10039D02*
X383858D01*
X101299Y44724D02*
Y47087D01*
Y161142D02*
Y163504D01*
X61397Y154527D02*
X68287D01*
X69665Y154941D02*
Y174232D01*
X80098D01*
Y154941D02*
Y174232D01*
X69665Y154941D02*
X80098D01*
X100709Y289016D02*
Y291378D01*
X188504Y34252D02*
Y36614D01*
X213228Y148031D02*
Y150394D01*
X211536Y352166D02*
Y354528D01*
X165386Y149016D02*
X165779D01*
X165386Y151772D02*
X165779D01*
X163850Y167303D02*
X164244D01*
X163850Y164547D02*
X164244D01*
X180571Y143248D02*
X191004D01*
Y162539D01*
X180571D02*
X191004D01*
X180571Y143248D02*
Y162539D01*
X172303Y142835D02*
X179193D01*
X185315Y135118D02*
Y135512D01*
X182559Y135118D02*
Y135512D01*
X201882Y151795D02*
Y152189D01*
X204638Y151795D02*
Y152189D01*
X207992Y164547D02*
X208386D01*
X207992Y167303D02*
X208386D01*
X343504Y219488D02*
X383858D01*
Y232283D01*
X343504Y272638D02*
X383858D01*
Y259843D02*
Y272638D01*
X149689Y19961D02*
X150083D01*
X149689Y17205D02*
X150083D01*
X255906Y272638D02*
X296260D01*
X255906Y259843D02*
Y272638D01*
Y219488D02*
X296260D01*
X255906D02*
Y232283D01*
X180059Y346024D02*
X190492D01*
Y365315D01*
X180059D02*
X190492D01*
X180059Y346024D02*
Y365315D01*
X171792Y345610D02*
X178681D01*
X343504Y327756D02*
X383858D01*
Y340551D01*
X343504Y380905D02*
X383858D01*
Y368110D02*
Y380905D01*
X255906Y158071D02*
Y170866D01*
Y158071D02*
X296260D01*
X255906Y198425D02*
Y211220D01*
X296260D01*
X501338Y298425D02*
Y314370D01*
Y347047D02*
Y362992D01*
X550748Y298425D02*
X563149D01*
X501338D02*
X533032D01*
X501338Y362992D02*
X533032D01*
X550748D02*
X563149D01*
Y298425D02*
Y362992D01*
X69075Y282815D02*
X79508D01*
Y302106D01*
X69075D02*
X79508D01*
X69075Y282815D02*
Y302106D01*
X60807Y282401D02*
X67697D01*
X116567Y36661D02*
Y37055D01*
X111252Y36661D02*
Y37055D01*
X53701Y70236D02*
X54094D01*
X53701Y67480D02*
X54094D01*
X94567Y67480D02*
X94960D01*
X94567Y70236D02*
X94960D01*
X90276Y48465D02*
Y48858D01*
X93031Y48465D02*
Y48858D01*
X53386Y44331D02*
X53780D01*
X53386Y47087D02*
X53780D01*
X69311Y38524D02*
X79744D01*
Y57815D01*
X69311D02*
X79744D01*
X69311Y38524D02*
Y57815D01*
X61043Y38110D02*
X67933D01*
X111252Y56032D02*
Y56425D01*
X116567Y56032D02*
Y56425D01*
X177404Y37984D02*
Y38378D01*
X180160Y37984D02*
Y38378D01*
X140908Y35205D02*
X141302D01*
X140908Y37961D02*
X141302D01*
X139372Y53492D02*
X139766D01*
X139372Y50736D02*
X139766D01*
X183514D02*
X183908D01*
X183514Y53492D02*
X183908D01*
X383858Y198425D02*
Y211220D01*
X343504D02*
X383858D01*
Y158071D02*
Y170866D01*
X343504Y158071D02*
X383858D01*
D12*
X62947Y350649D02*
X62787Y351608D01*
X62324Y352463D01*
X61609Y353121D01*
X60719Y353511D01*
X59750Y353591D01*
X58808Y353353D01*
X57994Y352821D01*
X57397Y352054D01*
X57082Y351135D01*
Y350163D01*
X57397Y349243D01*
X57994Y348477D01*
X58808Y347945D01*
X59750Y347706D01*
X60719Y347786D01*
X61609Y348177D01*
X62324Y348835D01*
X62787Y349690D01*
X62947Y350649D01*
D16*
X177157Y378425D02*
X177914D01*
Y368425D02*
Y378425D01*
X177157Y368425D02*
X177914D01*
X172402D02*
X173158D01*
X172402D02*
Y378425D01*
X173158D01*
X172402Y373425D02*
X177914D01*
X197276Y378425D02*
X198032D01*
Y368425D02*
Y378425D01*
X197276Y368425D02*
X198032D01*
X192520D02*
X193276D01*
X192520D02*
Y378425D01*
X193276D01*
X192520Y373425D02*
X198032D01*
X169882Y336535D02*
Y337291D01*
X159882Y336535D02*
X169882D01*
X159882D02*
Y337291D01*
Y341291D02*
Y342047D01*
X169882D01*
Y341291D02*
Y342047D01*
X164882Y336535D02*
Y342047D01*
X233268Y339449D02*
X234024D01*
X233268D02*
Y349449D01*
X234024D01*
X238024D02*
X238779D01*
Y339449D02*
Y349449D01*
X238024Y339449D02*
X238779D01*
X233268Y344449D02*
X238779D01*
X233268Y356339D02*
X234023D01*
X233268D02*
Y366339D01*
X234023D01*
X238023D02*
X238779D01*
Y356339D02*
Y366339D01*
X238023Y356339D02*
X238779D01*
X233268Y361339D02*
X238779D01*
X206732Y361142D02*
Y366654D01*
X211732Y365898D02*
Y366654D01*
X201732D02*
X211732D01*
X201732Y365898D02*
Y366654D01*
Y361142D02*
Y361898D01*
Y361142D02*
X211732D01*
Y361898D01*
X164213Y361142D02*
Y366654D01*
X169213Y365898D02*
Y366654D01*
X159213D02*
X169213D01*
X159213Y365898D02*
Y366654D01*
Y361142D02*
Y361898D01*
Y361142D02*
X169213D01*
Y361898D01*
X164213Y367756D02*
Y373268D01*
X159213Y367756D02*
Y368512D01*
Y367756D02*
X169213D01*
Y368512D01*
Y372512D02*
Y373268D01*
X159213D02*
X169213D01*
X159213Y372512D02*
Y373268D01*
X191664Y311051D02*
X192420D01*
Y301051D02*
Y311051D01*
X191664Y301051D02*
X192420D01*
X186908D02*
X187664D01*
X186908D02*
Y311051D01*
X187664D01*
X186908Y306051D02*
X192420D01*
X211742Y311051D02*
X212498D01*
Y301051D02*
Y311051D01*
X211742Y301051D02*
X212498D01*
X206987D02*
X207742D01*
X206987D02*
Y311051D01*
X207742D01*
X206987Y306051D02*
X212498D01*
X182963Y291602D02*
Y292358D01*
X172963Y291602D02*
X182963D01*
X172963D02*
Y292358D01*
Y296358D02*
Y297114D01*
X182963D01*
Y296358D02*
Y297114D01*
X177963Y291602D02*
Y297114D01*
X217105Y296358D02*
Y297114D01*
X227105D01*
Y296358D02*
Y297114D01*
Y291602D02*
Y292358D01*
X217105Y291602D02*
X227105D01*
X217105D02*
Y292358D01*
X222105Y291602D02*
Y297114D01*
X204850Y274370D02*
Y275126D01*
X214850D01*
Y274370D02*
Y275126D01*
Y269614D02*
Y270370D01*
X204850Y269614D02*
X214850D01*
X204850D02*
Y270370D01*
X209850Y269614D02*
Y275126D01*
X183280Y274370D02*
Y275126D01*
X193280D01*
Y274370D02*
Y275126D01*
Y269614D02*
Y270370D01*
X183280Y269614D02*
X193280D01*
X183280D02*
Y270370D01*
X188280Y269614D02*
Y275126D01*
X48661Y309598D02*
Y310354D01*
X58661D01*
Y309598D02*
Y310354D01*
Y304842D02*
Y305598D01*
X48661Y304842D02*
X58661D01*
X48661D02*
Y305598D01*
X53661Y304842D02*
Y310354D01*
X89527Y309597D02*
Y310353D01*
X99527D01*
Y309597D02*
Y310353D01*
Y304841D02*
Y305597D01*
X89527Y304841D02*
X99527D01*
X89527D02*
Y305597D01*
X94527Y304841D02*
Y310353D01*
X99528Y298228D02*
Y298984D01*
X89528Y298228D02*
X99528D01*
X89528D02*
Y298984D01*
Y302984D02*
Y303740D01*
X99528D01*
Y302984D02*
Y303740D01*
X94528Y298228D02*
Y303740D01*
X58662Y298228D02*
Y298984D01*
X48662Y298228D02*
X58662D01*
X48662D02*
Y298984D01*
Y302984D02*
Y303740D01*
X58662D01*
Y302984D02*
Y303740D01*
X53662Y298228D02*
Y303740D01*
X61496Y310512D02*
X67008D01*
X61496Y315512D02*
X62252D01*
X61496Y305512D02*
Y315512D01*
Y305512D02*
X62252D01*
X66252D02*
X67008D01*
Y315512D01*
X66252D02*
X67008D01*
X81575Y310512D02*
X87087D01*
X81575Y315512D02*
X82331D01*
X81575Y305512D02*
Y315512D01*
Y305512D02*
X82331D01*
X86331D02*
X87087D01*
Y315512D01*
X86331D02*
X87087D01*
X58150Y280118D02*
Y280874D01*
X48150Y280118D02*
X58150D01*
X48150D02*
Y280874D01*
Y284874D02*
Y285630D01*
X58150D01*
Y284874D02*
Y285630D01*
X53150Y280118D02*
Y285630D01*
X53150Y273622D02*
Y279134D01*
X48150Y273622D02*
Y274378D01*
Y273622D02*
X58150D01*
Y274378D01*
Y278378D02*
Y279134D01*
X48150D02*
X58150D01*
X48150Y278378D02*
Y279134D01*
X126618Y287606D02*
X127374D01*
Y277606D02*
Y287606D01*
X126618Y277606D02*
X127374D01*
X121862D02*
X122618D01*
X121862D02*
Y287606D01*
X122618D01*
X121862Y282606D02*
X127374D01*
X126618Y303000D02*
X127374D01*
Y293000D02*
Y303000D01*
X126618Y293000D02*
X127374D01*
X121862D02*
X122618D01*
X121862D02*
Y303000D01*
X122618D01*
X121862Y298000D02*
X127374D01*
X201732Y372512D02*
Y373268D01*
X211732D01*
Y372512D02*
Y373268D01*
Y367756D02*
Y368512D01*
X201732Y367756D02*
X211732D01*
X201732D02*
Y368512D01*
X206732Y367756D02*
Y373268D01*
X159882Y347945D02*
Y348701D01*
X169882D01*
Y347945D02*
Y348701D01*
Y343189D02*
Y343945D01*
X159882Y343189D02*
X169882D01*
X159882D02*
Y343945D01*
X164882Y343189D02*
Y348701D01*
X90118Y181723D02*
Y182479D01*
X100118D01*
Y181723D02*
Y182479D01*
Y176967D02*
Y177723D01*
X90118Y176967D02*
X100118D01*
X90118D02*
Y177723D01*
X95118Y176967D02*
Y182479D01*
X100118Y170354D02*
Y171110D01*
X90118Y170354D02*
X100118D01*
X90118D02*
Y171110D01*
Y175110D02*
Y175866D01*
X100118D01*
Y175110D02*
Y175866D01*
X95118Y170354D02*
Y175866D01*
X49252Y181724D02*
Y182480D01*
X59252D01*
Y181724D02*
Y182480D01*
Y176968D02*
Y177724D01*
X49252Y176968D02*
X59252D01*
X49252D02*
Y177724D01*
X54252Y176968D02*
Y182480D01*
X59252Y170354D02*
Y171110D01*
X49252Y170354D02*
X59252D01*
X49252D02*
Y171110D01*
Y175110D02*
Y175866D01*
X59252D01*
Y175110D02*
Y175866D01*
X54252Y170354D02*
Y175866D01*
X66843Y187638D02*
X67598D01*
Y177638D02*
Y187638D01*
X66843Y177638D02*
X67598D01*
X62086D02*
X62843D01*
X62086D02*
Y187638D01*
X62843D01*
X62086Y182638D02*
X67598D01*
X86921Y187638D02*
X87677D01*
Y177638D02*
Y187638D01*
X86921Y177638D02*
X87677D01*
X82165D02*
X82921D01*
X82165D02*
Y187638D01*
X82921D01*
X82165Y182638D02*
X87677D01*
X58740Y152244D02*
Y153000D01*
X48740Y152244D02*
X58740D01*
X48740D02*
Y153000D01*
Y157000D02*
Y157756D01*
X58740D01*
Y157000D02*
Y157756D01*
X53740Y152244D02*
Y157756D01*
X48740Y150504D02*
Y151260D01*
X58740D01*
Y150504D02*
Y151260D01*
Y145748D02*
Y146504D01*
X48740Y145748D02*
X58740D01*
X48740D02*
Y146504D01*
X53740Y145748D02*
Y151260D01*
X127208Y159732D02*
X127964D01*
Y149732D02*
Y159732D01*
X127208Y149732D02*
X127964D01*
X122452D02*
X123208D01*
X122452D02*
Y159732D01*
X123208D01*
X122452Y154732D02*
X127964D01*
X127208Y175126D02*
X127964D01*
Y165126D02*
Y175126D01*
X127208Y165126D02*
X127964D01*
X122452D02*
X123208D01*
X122452D02*
Y175126D01*
X123208D01*
X122452Y170126D02*
X127964D01*
X89764Y65306D02*
Y66062D01*
X99764D01*
Y65306D02*
Y66062D01*
Y60550D02*
Y61306D01*
X89764Y60550D02*
X99764D01*
X89764D02*
Y61306D01*
X94764Y60550D02*
Y66062D01*
X99764Y53937D02*
Y54693D01*
X89764Y53937D02*
X99764D01*
X89764D02*
Y54693D01*
Y58693D02*
Y59449D01*
X99764D01*
Y58693D02*
Y59449D01*
X94764Y53937D02*
Y59449D01*
X171457Y21465D02*
Y26976D01*
X166457Y21465D02*
Y22220D01*
Y21465D02*
X176457D01*
Y22220D01*
Y26220D02*
Y26976D01*
X166457D02*
X176457D01*
X166457Y26220D02*
Y26976D01*
X177748Y176713D02*
X178504D01*
Y166713D02*
Y176713D01*
X177748Y166713D02*
X178504D01*
X172992D02*
X173748D01*
X172992D02*
Y176713D01*
X173748D01*
X172992Y171713D02*
X178504D01*
X190935Y140032D02*
Y140788D01*
X200935D01*
Y140032D02*
Y140788D01*
Y135276D02*
Y136032D01*
X190935Y135276D02*
X200935D01*
X190935D02*
Y136032D01*
X195934Y135276D02*
Y140788D01*
X169047Y157264D02*
Y158019D01*
X159047Y157264D02*
X169047D01*
X159047D02*
Y158019D01*
Y162019D02*
Y162775D01*
X169047D01*
Y162019D02*
Y162775D01*
X164047Y157264D02*
Y162775D01*
X203189Y162020D02*
Y162776D01*
X213189D01*
Y162020D02*
Y162776D01*
Y157264D02*
Y158020D01*
X203189Y157264D02*
X213189D01*
X203189D02*
Y158020D01*
X208189Y157264D02*
Y162776D01*
X169364Y140032D02*
Y140787D01*
X179364D01*
Y140032D02*
Y140787D01*
Y135276D02*
Y136032D01*
X169364Y135276D02*
X179364D01*
X169364D02*
Y136032D01*
X174364Y135276D02*
Y140787D01*
X197827Y176713D02*
X198582D01*
Y166713D02*
Y176713D01*
X197827Y166713D02*
X198582D01*
X193071D02*
X193827D01*
X193071D02*
Y176713D01*
X193827D01*
X193071Y171713D02*
X198582D01*
X61732Y66221D02*
X67244D01*
X61732Y71221D02*
X62488D01*
X61732Y61221D02*
Y71221D01*
Y61221D02*
X62488D01*
X66488D02*
X67244D01*
Y71221D01*
X66488D02*
X67244D01*
X81811Y66221D02*
X87323D01*
X81811Y71221D02*
X82567D01*
X81811Y61221D02*
Y71221D01*
Y61221D02*
X82567D01*
X86567D02*
X87323D01*
Y71221D01*
X86567D02*
X87323D01*
X524646Y375197D02*
Y380709D01*
X519646Y375197D02*
Y375953D01*
Y375197D02*
X529646D01*
Y375953D01*
Y379953D02*
Y380709D01*
X519646D02*
X529646D01*
X519646Y379953D02*
Y380709D01*
X53386Y29331D02*
Y34843D01*
X48386Y29331D02*
Y30087D01*
Y29331D02*
X58386D01*
Y30087D01*
Y34087D02*
Y34843D01*
X48386D02*
X58386D01*
X48386Y34087D02*
Y34843D01*
X149886Y21464D02*
Y26976D01*
X144886Y21464D02*
Y22220D01*
Y21464D02*
X154886D01*
Y22220D01*
Y26220D02*
Y26976D01*
X144886D02*
X154886D01*
X144886Y26220D02*
Y26976D01*
X126854Y43315D02*
X127610D01*
Y33315D02*
Y43315D01*
X126854Y33315D02*
X127610D01*
X122099D02*
X122854D01*
X122099D02*
Y43315D01*
X122854D01*
X122099Y38315D02*
X127610D01*
X126854Y58709D02*
X127610D01*
Y48709D02*
Y58709D01*
X126854Y48709D02*
X127610D01*
X122099D02*
X122854D01*
X122099D02*
Y58709D01*
X122854D01*
X122099Y53709D02*
X127610D01*
X48898Y65307D02*
Y66063D01*
X58898D01*
Y65307D02*
Y66063D01*
Y60551D02*
Y61307D01*
X48898Y60551D02*
X58898D01*
X48898D02*
Y61307D01*
X53898Y60551D02*
Y66063D01*
X58386Y35827D02*
Y36583D01*
X48386Y35827D02*
X58386D01*
X48386D02*
Y36583D01*
Y40583D02*
Y41339D01*
X58386D01*
Y40583D02*
Y41339D01*
X53386Y35827D02*
Y41339D01*
X58898Y53937D02*
Y54693D01*
X48897Y53937D02*
X58898D01*
X48897D02*
Y54693D01*
Y58693D02*
Y59449D01*
X58898D01*
Y58693D02*
Y59449D01*
X53898Y53937D02*
Y59449D01*
X144569Y43453D02*
Y44208D01*
X134569Y43453D02*
X144569D01*
X134569D02*
Y44208D01*
Y48208D02*
Y48964D01*
X144569D01*
Y48208D02*
Y48964D01*
X139569Y43453D02*
Y48964D01*
X178711Y48208D02*
Y48964D01*
X188711D01*
Y48208D02*
Y48964D01*
Y43453D02*
Y44208D01*
X178711Y43453D02*
X188711D01*
X178711D02*
Y44208D01*
X183711Y43453D02*
Y48964D01*
X153270Y62902D02*
X154026D01*
Y52902D02*
Y62902D01*
X153270Y52902D02*
X154026D01*
X148514D02*
X149270D01*
X148514D02*
Y62902D01*
X149270D01*
X148514Y57902D02*
X154026D01*
X173349Y62902D02*
X174104D01*
Y52902D02*
Y62902D01*
X173349Y52902D02*
X174104D01*
X168593D02*
X169349D01*
X168593D02*
Y62902D01*
X169349D01*
X168593Y57902D02*
X174104D01*
X53268Y352091D02*
X53727Y352550D01*
X54646D01*
X55105Y352091D01*
Y350254D01*
X54646Y349795D01*
X53727D01*
X53268Y350254D01*
Y351172D01*
X54186D01*
X52350Y349795D02*
Y352550D01*
X50513Y349795D01*
Y352550D01*
X49595D02*
Y349795D01*
X48217D01*
X47758Y350254D01*
Y352091D01*
X48217Y352550D01*
X49595D01*
X470000Y298674D02*
X470459Y299133D01*
X471377D01*
X471836Y298674D01*
Y296838D01*
X471377Y296378D01*
X470459D01*
X470000Y296838D01*
X469081D02*
X468622Y296378D01*
X467704D01*
X467244Y296838D01*
Y298674D01*
X467704Y299133D01*
X468622D01*
X469081Y298674D01*
Y298215D01*
X468622Y297756D01*
X467244D01*
X466326Y296378D02*
X465408D01*
X465867D01*
Y299133D01*
X466326Y298674D01*
X423306Y228278D02*
X423765Y228737D01*
X424683D01*
X425142Y228278D01*
Y226441D01*
X424683Y225982D01*
X423765D01*
X423306Y226441D01*
X422387D02*
X421928Y225982D01*
X421010D01*
X420551Y226441D01*
Y228278D01*
X421010Y228737D01*
X421928D01*
X422387Y228278D01*
Y227818D01*
X421928Y227359D01*
X420551D01*
X419632Y228278D02*
X419173Y228737D01*
X418255D01*
X417796Y228278D01*
Y226441D01*
X418255Y225982D01*
X419173D01*
X419632Y226441D01*
Y228278D01*
X440892Y311785D02*
X441351Y312244D01*
X442269D01*
X442729Y311785D01*
Y309948D01*
X442269Y309489D01*
X441351D01*
X440892Y309948D01*
X439973Y311785D02*
X439514Y312244D01*
X438596D01*
X438137Y311785D01*
Y311325D01*
X438596Y310866D01*
X438137Y310407D01*
Y309948D01*
X438596Y309489D01*
X439514D01*
X439973Y309948D01*
Y310407D01*
X439514Y310866D01*
X439973Y311325D01*
Y311785D01*
X439514Y310866D02*
X438596D01*
X437218Y309948D02*
X436759Y309489D01*
X435841D01*
X435382Y309948D01*
Y311785D01*
X435841Y312244D01*
X436759D01*
X437218Y311785D01*
Y311325D01*
X436759Y310866D01*
X435382D01*
X321915Y382099D02*
X322375Y382559D01*
X323293D01*
X323752Y382099D01*
Y380263D01*
X323293Y379804D01*
X322375D01*
X321915Y380263D01*
X320997Y382099D02*
X320538Y382559D01*
X319620D01*
X319160Y382099D01*
Y381640D01*
X319620Y381181D01*
X319160Y380722D01*
Y380263D01*
X319620Y379804D01*
X320538D01*
X320997Y380263D01*
Y380722D01*
X320538Y381181D01*
X320997Y381640D01*
Y382099D01*
X320538Y381181D02*
X319620D01*
X318242Y382099D02*
X317783Y382559D01*
X316865D01*
X316405Y382099D01*
Y381640D01*
X316865Y381181D01*
X316405Y380722D01*
Y380263D01*
X316865Y379804D01*
X317783D01*
X318242Y380263D01*
Y380722D01*
X317783Y381181D01*
X318242Y381640D01*
Y382099D01*
X317783Y381181D02*
X316865D01*
X397663Y228202D02*
X398123Y228661D01*
X399041D01*
X399500Y228202D01*
Y226365D01*
X399041Y225906D01*
X398123D01*
X397663Y226365D01*
X396745Y228202D02*
X396286Y228661D01*
X395368D01*
X394908Y228202D01*
Y227743D01*
X395368Y227284D01*
X394908Y226824D01*
Y226365D01*
X395368Y225906D01*
X396286D01*
X396745Y226365D01*
Y226824D01*
X396286Y227284D01*
X396745Y227743D01*
Y228202D01*
X396286Y227284D02*
X395368D01*
X393990Y228661D02*
X392153D01*
Y228202D01*
X393990Y226365D01*
Y225906D01*
X428451Y311548D02*
X428910Y312007D01*
X429828D01*
X430288Y311548D01*
Y309712D01*
X429828Y309252D01*
X428910D01*
X428451Y309712D01*
X427532Y311548D02*
X427073Y312007D01*
X426155D01*
X425696Y311548D01*
Y311089D01*
X426155Y310630D01*
X425696Y310171D01*
Y309712D01*
X426155Y309252D01*
X427073D01*
X427532Y309712D01*
Y310171D01*
X427073Y310630D01*
X427532Y311089D01*
Y311548D01*
X427073Y310630D02*
X426155D01*
X422941Y312007D02*
X423859Y311548D01*
X424778Y310630D01*
Y309712D01*
X424318Y309252D01*
X423400D01*
X422941Y309712D01*
Y310171D01*
X423400Y310630D01*
X424778D01*
X266285Y281785D02*
X266745Y282244D01*
X267663D01*
X268122Y281785D01*
Y279948D01*
X267663Y279489D01*
X266745D01*
X266285Y279948D01*
X265367Y281785D02*
X264908Y282244D01*
X263990D01*
X263530Y281785D01*
Y281325D01*
X263990Y280866D01*
X263530Y280407D01*
Y279948D01*
X263990Y279489D01*
X264908D01*
X265367Y279948D01*
Y280407D01*
X264908Y280866D01*
X265367Y281325D01*
Y281785D01*
X264908Y280866D02*
X263990D01*
X260775Y282244D02*
X262612D01*
Y280866D01*
X261694Y281325D01*
X261235D01*
X260775Y280866D01*
Y279948D01*
X261235Y279489D01*
X262153D01*
X262612Y279948D01*
X266561Y321351D02*
X267020Y321811D01*
X267939D01*
X268398Y321351D01*
Y319515D01*
X267939Y319056D01*
X267020D01*
X266561Y319515D01*
X265643Y321351D02*
X265184Y321811D01*
X264265D01*
X263806Y321351D01*
Y320892D01*
X264265Y320433D01*
X263806Y319974D01*
Y319515D01*
X264265Y319056D01*
X265184D01*
X265643Y319515D01*
Y319974D01*
X265184Y320433D01*
X265643Y320892D01*
Y321351D01*
X265184Y320433D02*
X264265D01*
X262888Y321351D02*
X262429Y321811D01*
X261510D01*
X261051Y321351D01*
Y320892D01*
X261510Y320433D01*
X261969D01*
X261510D01*
X261051Y319974D01*
Y319515D01*
X261510Y319056D01*
X262429D01*
X262888Y319515D01*
X410774Y228162D02*
X411233Y228622D01*
X412151D01*
X412610Y228162D01*
Y226326D01*
X412151Y225867D01*
X411233D01*
X410774Y226326D01*
X409855Y228162D02*
X409396Y228622D01*
X408478D01*
X408019Y228162D01*
Y227703D01*
X408478Y227244D01*
X408019Y226785D01*
Y226326D01*
X408478Y225867D01*
X409396D01*
X409855Y226326D01*
Y226785D01*
X409396Y227244D01*
X409855Y227703D01*
Y228162D01*
X409396Y227244D02*
X408478D01*
X405264Y225867D02*
X407100D01*
X405264Y227703D01*
Y228162D01*
X405723Y228622D01*
X406641D01*
X407100Y228162D01*
X415000Y311706D02*
X415459Y312165D01*
X416377D01*
X416836Y311706D01*
Y309869D01*
X416377Y309410D01*
X415459D01*
X415000Y309869D01*
X414081Y311706D02*
X413622Y312165D01*
X412704D01*
X412245Y311706D01*
Y311247D01*
X412704Y310787D01*
X412245Y310328D01*
Y309869D01*
X412704Y309410D01*
X413622D01*
X414081Y309869D01*
Y310328D01*
X413622Y310787D01*
X414081Y311247D01*
Y311706D01*
X413622Y310787D02*
X412704D01*
X411326Y309410D02*
X410408D01*
X410867D01*
Y312165D01*
X411326Y311706D01*
X47492Y306221D02*
Y308976D01*
X46114D01*
X45655Y308517D01*
Y307598D01*
X46114Y307139D01*
X47492D01*
X46573D02*
X45655Y306221D01*
X42900D02*
X44737D01*
X42900Y308058D01*
Y308517D01*
X43359Y308976D01*
X44278D01*
X44737Y308517D01*
X41982D02*
X41523Y308976D01*
X40604D01*
X40145Y308517D01*
Y308058D01*
X40604Y307598D01*
X40145Y307139D01*
Y306680D01*
X40604Y306221D01*
X41523D01*
X41982Y306680D01*
Y307139D01*
X41523Y307598D01*
X41982Y308058D01*
Y308517D01*
X41523Y307598D02*
X40604D01*
X39227Y306221D02*
Y308058D01*
X38308Y308976D01*
X37390Y308058D01*
Y306221D01*
Y307598D01*
X39227D01*
X165290Y53629D02*
Y51333D01*
X164831Y50874D01*
X163912D01*
X163453Y51333D01*
Y53629D01*
X162535Y53170D02*
X162076Y53629D01*
X161157D01*
X160698Y53170D01*
Y52711D01*
X161157Y52252D01*
X161617D01*
X161157D01*
X160698Y51793D01*
Y51333D01*
X161157Y50874D01*
X162076D01*
X162535Y51333D01*
X157943Y53170D02*
X158402Y53629D01*
X159321D01*
X159780Y53170D01*
Y51333D01*
X159321Y50874D01*
X158402D01*
X157943Y51333D01*
X101812Y49707D02*
X104567D01*
Y51084D01*
X104107Y51543D01*
X103189D01*
X102730Y51084D01*
Y49707D01*
Y50625D02*
X101812Y51543D01*
Y52462D02*
Y53380D01*
Y52921D01*
X104567D01*
X104107Y52462D01*
Y54758D02*
X104567Y55217D01*
Y56135D01*
X104107Y56594D01*
X103648D01*
X103189Y56135D01*
Y55676D01*
Y56135D01*
X102730Y56594D01*
X102271D01*
X101812Y56135D01*
Y55217D01*
X102271Y54758D01*
X104107Y57513D02*
X104567Y57972D01*
Y58890D01*
X104107Y59349D01*
X102271D01*
X101812Y58890D01*
Y57972D01*
X102271Y57513D01*
X104107D01*
Y62104D02*
X104567Y61645D01*
Y60727D01*
X104107Y60268D01*
X102271D01*
X101812Y60727D01*
Y61645D01*
X102271Y62104D01*
X101890Y166163D02*
X104645D01*
Y167541D01*
X104186Y168000D01*
X103268D01*
X102809Y167541D01*
Y166163D01*
Y167082D02*
X101890Y168000D01*
Y168918D02*
Y169837D01*
Y169378D01*
X104645D01*
X104186Y168918D01*
Y171214D02*
X104645Y171673D01*
Y172592D01*
X104186Y173051D01*
X103727D01*
X103268Y172592D01*
Y172133D01*
Y172592D01*
X102809Y173051D01*
X102349D01*
X101890Y172592D01*
Y171673D01*
X102349Y171214D01*
X104186Y173969D02*
X104645Y174428D01*
Y175347D01*
X104186Y175806D01*
X102349D01*
X101890Y175347D01*
Y174428D01*
X102349Y173969D01*
X104186D01*
X104645Y176724D02*
X101890D01*
Y178102D01*
X102349Y178561D01*
X102809D01*
X103268Y178102D01*
Y176724D01*
Y178102D01*
X103727Y178561D01*
X104186D01*
X104645Y178102D01*
Y176724D01*
X109151Y294371D02*
Y297126D01*
X107774D01*
X107315Y296666D01*
Y295748D01*
X107774Y295289D01*
X109151D01*
X108233D02*
X107315Y294371D01*
X106396D02*
X105478D01*
X105937D01*
Y297126D01*
X106396Y296666D01*
X104101D02*
X103641Y297126D01*
X102723D01*
X102264Y296666D01*
Y296207D01*
X102723Y295748D01*
X103182D01*
X102723D01*
X102264Y295289D01*
Y294830D01*
X102723Y294371D01*
X103641D01*
X104101Y294830D01*
X101346Y296666D02*
X100886Y297126D01*
X99968D01*
X99509Y296666D01*
Y294830D01*
X99968Y294371D01*
X100886D01*
X101346Y294830D01*
Y296666D01*
X98591Y294371D02*
Y296207D01*
X97672Y297126D01*
X96754Y296207D01*
Y294371D01*
Y295748D01*
X98591D01*
X113522Y64174D02*
Y66929D01*
X112144D01*
X111685Y66470D01*
Y65551D01*
X112144Y65092D01*
X113522D01*
X112603D02*
X111685Y64174D01*
X110767D02*
X109848D01*
X110307D01*
Y66929D01*
X110767Y66470D01*
X106634Y64174D02*
X108471D01*
X106634Y66010D01*
Y66470D01*
X107093Y66929D01*
X108012D01*
X108471Y66470D01*
X105716Y64633D02*
X105257Y64174D01*
X104338D01*
X103879Y64633D01*
Y66470D01*
X104338Y66929D01*
X105257D01*
X105716Y66470D01*
Y66010D01*
X105257Y65551D01*
X103879D01*
X101124Y66470D02*
X101583Y66929D01*
X102501D01*
X102961Y66470D01*
Y64633D01*
X102501Y64174D01*
X101583D01*
X101124Y64633D01*
X113876Y180591D02*
Y183346D01*
X112498D01*
X112039Y182887D01*
Y181968D01*
X112498Y181509D01*
X113876D01*
X112958D02*
X112039Y180591D01*
X111121D02*
X110203D01*
X110662D01*
Y183346D01*
X111121Y182887D01*
X106988Y180591D02*
X108825D01*
X106988Y182428D01*
Y182887D01*
X107448Y183346D01*
X108366D01*
X108825Y182887D01*
X106070Y181050D02*
X105611Y180591D01*
X104693D01*
X104233Y181050D01*
Y182887D01*
X104693Y183346D01*
X105611D01*
X106070Y182887D01*
Y182428D01*
X105611Y181968D01*
X104233D01*
X103315Y183346D02*
Y180591D01*
X101937D01*
X101478Y181050D01*
Y181509D01*
X101937Y181968D01*
X103315D01*
X101937D01*
X101478Y182428D01*
Y182887D01*
X101937Y183346D01*
X103315D01*
X113285Y308465D02*
Y311220D01*
X111908D01*
X111449Y310761D01*
Y309842D01*
X111908Y309383D01*
X113285D01*
X112367D02*
X111449Y308465D01*
X110530D02*
X109612D01*
X110071D01*
Y311220D01*
X110530Y310761D01*
X106398Y308465D02*
X108235D01*
X106398Y310302D01*
Y310761D01*
X106857Y311220D01*
X107775D01*
X108235Y310761D01*
X105480Y308924D02*
X105020Y308465D01*
X104102D01*
X103643Y308924D01*
Y310761D01*
X104102Y311220D01*
X105020D01*
X105480Y310761D01*
Y310302D01*
X105020Y309842D01*
X103643D01*
X102725Y308465D02*
Y310302D01*
X101806Y311220D01*
X100888Y310302D01*
Y308465D01*
Y309842D01*
X102725D01*
X157886Y362520D02*
Y365275D01*
X156509D01*
X156049Y364816D01*
Y363898D01*
X156509Y363439D01*
X157886D01*
X156968D02*
X156049Y362520D01*
X155131Y365275D02*
X153294D01*
Y364816D01*
X155131Y362979D01*
Y362520D01*
X150539Y365275D02*
X152376D01*
Y363898D01*
X151458Y364357D01*
X150998D01*
X150539Y363898D01*
Y362979D01*
X150998Y362520D01*
X151917D01*
X152376Y362979D01*
X157847Y369292D02*
Y372047D01*
X156469D01*
X156010Y371588D01*
Y370669D01*
X156469Y370210D01*
X157847D01*
X156928D02*
X156010Y369292D01*
X155092Y372047D02*
X153255D01*
Y371588D01*
X155092Y369751D01*
Y369292D01*
X150959D02*
Y372047D01*
X152337Y370669D01*
X150500D01*
X220091Y372717D02*
Y375472D01*
X218713D01*
X218254Y375013D01*
Y374095D01*
X218713Y373635D01*
X220091D01*
X219172D02*
X218254Y372717D01*
X217336Y375472D02*
X215499D01*
Y375013D01*
X217336Y373176D01*
Y372717D01*
X214581Y375013D02*
X214122Y375472D01*
X213203D01*
X212744Y375013D01*
Y374554D01*
X213203Y374095D01*
X213662D01*
X213203D01*
X212744Y373635D01*
Y373176D01*
X213203Y372717D01*
X214122D01*
X214581Y373176D01*
X220091Y362560D02*
Y365315D01*
X218713D01*
X218254Y364855D01*
Y363937D01*
X218713Y363478D01*
X220091D01*
X219172D02*
X218254Y362560D01*
X217336Y365315D02*
X215499D01*
Y364855D01*
X217336Y363019D01*
Y362560D01*
X212744D02*
X214581D01*
X212744Y364396D01*
Y364855D01*
X213203Y365315D01*
X214122D01*
X214581Y364855D01*
X158713Y344489D02*
Y347244D01*
X157335D01*
X156876Y346784D01*
Y345866D01*
X157335Y345407D01*
X158713D01*
X157794D02*
X156876Y344489D01*
X154121Y347244D02*
X155039Y346784D01*
X155958Y345866D01*
Y344948D01*
X155499Y344489D01*
X154580D01*
X154121Y344948D01*
Y345407D01*
X154580Y345866D01*
X155958D01*
X151366Y344489D02*
X153203D01*
X151366Y346325D01*
Y346784D01*
X151825Y347244D01*
X152743D01*
X153203Y346784D01*
X222556Y354716D02*
Y351961D01*
X220719D01*
X219801Y354257D02*
X219342Y354716D01*
X218423D01*
X217964Y354257D01*
Y353798D01*
X218423Y353339D01*
X217964Y352880D01*
Y352420D01*
X218423Y351961D01*
X219342D01*
X219801Y352420D01*
Y352880D01*
X219342Y353339D01*
X219801Y353798D01*
Y354257D01*
X219342Y353339D02*
X218423D01*
X115091Y47283D02*
Y44528D01*
X113254D01*
X110958D02*
Y47283D01*
X112336Y45906D01*
X110499D01*
X107744Y46824D02*
X108203Y47283D01*
X109122D01*
X109581Y46824D01*
Y44987D01*
X109122Y44528D01*
X108203D01*
X107744Y44987D01*
X115248Y164173D02*
Y161418D01*
X113411D01*
X111116D02*
Y164173D01*
X112493Y162795D01*
X110656D01*
X109738Y164173D02*
Y161418D01*
X108361D01*
X107901Y161877D01*
Y162336D01*
X108361Y162795D01*
X109738D01*
X108361D01*
X107901Y163254D01*
Y163714D01*
X108361Y164173D01*
X109738D01*
X115130Y292086D02*
Y289331D01*
X113293D01*
X110997D02*
Y292086D01*
X112375Y290709D01*
X110538D01*
X109620Y289331D02*
Y291168D01*
X108702Y292086D01*
X107783Y291168D01*
Y289331D01*
Y290709D01*
X109620D01*
X202099Y36968D02*
Y34213D01*
X200262D01*
X199344Y36509D02*
X198884Y36968D01*
X197966D01*
X197507Y36509D01*
Y36050D01*
X197966Y35591D01*
X198425D01*
X197966D01*
X197507Y35131D01*
Y34672D01*
X197966Y34213D01*
X198884D01*
X199344Y34672D01*
X194752Y36509D02*
X195211Y36968D01*
X196129D01*
X196589Y36509D01*
Y34672D01*
X196129Y34213D01*
X195211D01*
X194752Y34672D01*
X227886Y150551D02*
Y147796D01*
X226049D01*
X225131Y150092D02*
X224672Y150551D01*
X223753D01*
X223294Y150092D01*
Y149632D01*
X223753Y149173D01*
X224213D01*
X223753D01*
X223294Y148714D01*
Y148255D01*
X223753Y147796D01*
X224672D01*
X225131Y148255D01*
X222376Y150551D02*
Y147796D01*
X220998D01*
X220539Y148255D01*
Y148714D01*
X220998Y149173D01*
X222376D01*
X220998D01*
X220539Y149632D01*
Y150092D01*
X220998Y150551D01*
X222376D01*
X241802Y284889D02*
Y282134D01*
X239965D01*
X239047Y284430D02*
X238587Y284889D01*
X237669D01*
X237210Y284430D01*
Y283971D01*
X237669Y283512D01*
X238128D01*
X237669D01*
X237210Y283052D01*
Y282593D01*
X237669Y282134D01*
X238587D01*
X239047Y282593D01*
X236292Y282134D02*
Y283971D01*
X235373Y284889D01*
X234455Y283971D01*
Y282134D01*
Y283512D01*
X236292D01*
X141718Y19619D02*
X142177Y20078D01*
X143096D01*
X143555Y19619D01*
Y17783D01*
X143096Y17323D01*
X142177D01*
X141718Y17783D01*
X140800Y19619D02*
X140341Y20078D01*
X139422D01*
X138963Y19619D01*
Y19160D01*
X139422Y18701D01*
X138963Y18242D01*
Y17783D01*
X139422Y17323D01*
X140341D01*
X140800Y17783D01*
Y18242D01*
X140341Y18701D01*
X140800Y19160D01*
Y19619D01*
X140341Y18701D02*
X139422D01*
X138045Y19619D02*
X137586Y20078D01*
X136667D01*
X136208Y19619D01*
Y19160D01*
X136667Y18701D01*
X137126D01*
X136667D01*
X136208Y18242D01*
Y17783D01*
X136667Y17323D01*
X137586D01*
X138045Y17783D01*
X133453Y19619D02*
X133912Y20078D01*
X134831D01*
X135290Y19619D01*
Y17783D01*
X134831Y17323D01*
X133912D01*
X133453Y17783D01*
X187073Y143084D02*
X187532Y143543D01*
X188450D01*
X188909Y143084D01*
Y141247D01*
X188450Y140788D01*
X187532D01*
X187073Y141247D01*
X186154Y143084D02*
X185695Y143543D01*
X184777D01*
X184317Y143084D01*
Y142624D01*
X184777Y142165D01*
X184317Y141706D01*
Y141247D01*
X184777Y140788D01*
X185695D01*
X186154Y141247D01*
Y141706D01*
X185695Y142165D01*
X186154Y142624D01*
Y143084D01*
X185695Y142165D02*
X184777D01*
X183399Y143084D02*
X182940Y143543D01*
X182022D01*
X181562Y143084D01*
Y142624D01*
X182022Y142165D01*
X182481D01*
X182022D01*
X181562Y141706D01*
Y141247D01*
X182022Y140788D01*
X182940D01*
X183399Y141247D01*
X180644Y143543D02*
Y140788D01*
X179267D01*
X178807Y141247D01*
Y141706D01*
X179267Y142165D01*
X180644D01*
X179267D01*
X178807Y142624D01*
Y143084D01*
X179267Y143543D01*
X180644D01*
X203241Y266668D02*
X203700Y266209D01*
Y265290D01*
X203241Y264831D01*
X201405D01*
X200945Y265290D01*
Y266209D01*
X201405Y266668D01*
X203241Y267586D02*
X203700Y268045D01*
Y268964D01*
X203241Y269423D01*
X202782D01*
X202323Y268964D01*
X201864Y269423D01*
X201405D01*
X200945Y268964D01*
Y268045D01*
X201405Y267586D01*
X201864D01*
X202323Y268045D01*
X202782Y267586D01*
X203241D01*
X202323Y268045D02*
Y268964D01*
X203241Y270341D02*
X203700Y270800D01*
Y271719D01*
X203241Y272178D01*
X202782D01*
X202323Y271719D01*
Y271259D01*
Y271719D01*
X201864Y272178D01*
X201405D01*
X200945Y271719D01*
Y270800D01*
X201405Y270341D01*
X200945Y273096D02*
X202782D01*
X203700Y274014D01*
X202782Y274933D01*
X200945D01*
X202323D01*
Y273096D01*
X526981Y382205D02*
Y384960D01*
X525603D01*
X525144Y384501D01*
Y383583D01*
X525603Y383123D01*
X526981D01*
X526063D02*
X525144Y382205D01*
X522389Y384960D02*
X524226D01*
Y383583D01*
X523308Y384042D01*
X522848D01*
X522389Y383583D01*
Y382664D01*
X522848Y382205D01*
X523767D01*
X524226Y382664D01*
X188680Y369803D02*
Y367507D01*
X188221Y367048D01*
X187303D01*
X186843Y367507D01*
Y369803D01*
X185925Y367048D02*
X185007D01*
X185466D01*
Y369803D01*
X185925Y369344D01*
X181792Y367048D02*
X183629D01*
X181792Y368884D01*
Y369344D01*
X182252Y369803D01*
X183170D01*
X183629Y369344D01*
X339396Y275722D02*
X339855Y276181D01*
X340773D01*
X341232Y275722D01*
Y273885D01*
X340773Y273426D01*
X339855D01*
X339396Y273885D01*
X337100Y273426D02*
Y276181D01*
X338477Y274803D01*
X336641D01*
X335722Y273885D02*
X335263Y273426D01*
X334345D01*
X333886Y273885D01*
Y275722D01*
X334345Y276181D01*
X335263D01*
X335722Y275722D01*
Y275262D01*
X335263Y274803D01*
X333886D01*
X339396Y383792D02*
X339855Y384251D01*
X340773D01*
X341232Y383792D01*
Y381956D01*
X340773Y381497D01*
X339855D01*
X339396Y381956D01*
X337100Y381497D02*
Y384251D01*
X338477Y382874D01*
X336641D01*
X335722Y383792D02*
X335263Y384251D01*
X334345D01*
X333886Y383792D01*
Y383333D01*
X334345Y382874D01*
X333886Y382415D01*
Y381956D01*
X334345Y381497D01*
X335263D01*
X335722Y381956D01*
Y382415D01*
X335263Y382874D01*
X335722Y383333D01*
Y383792D01*
X335263Y382874D02*
X334345D01*
X304396Y66903D02*
X304855Y67362D01*
X305773D01*
X306232Y66903D01*
Y65066D01*
X305773Y64607D01*
X304855D01*
X304396Y65066D01*
X302100Y64607D02*
Y67362D01*
X303477Y65984D01*
X301641D01*
X300722Y67362D02*
X298886D01*
Y66903D01*
X300722Y65066D01*
Y64607D01*
X304396Y152887D02*
X304855Y153346D01*
X305773D01*
X306232Y152887D01*
Y151050D01*
X305773Y150591D01*
X304855D01*
X304396Y151050D01*
X302100Y150591D02*
Y153346D01*
X303477Y151969D01*
X301641D01*
X298886Y153346D02*
X299804Y152887D01*
X300722Y151969D01*
Y151050D01*
X300263Y150591D01*
X299345D01*
X298886Y151050D01*
Y151509D01*
X299345Y151969D01*
X300722D01*
X339396Y214383D02*
X339855Y214842D01*
X340773D01*
X341232Y214383D01*
Y212546D01*
X340773Y212087D01*
X339855D01*
X339396Y212546D01*
X337100Y212087D02*
Y214842D01*
X338477Y213465D01*
X336641D01*
X333886Y214842D02*
X335722D01*
Y213465D01*
X334804Y213924D01*
X334345D01*
X333886Y213465D01*
Y212546D01*
X334345Y212087D01*
X335263D01*
X335722Y212546D01*
X339396Y66903D02*
X339855Y67362D01*
X340773D01*
X341232Y66903D01*
Y65066D01*
X340773Y64607D01*
X339855D01*
X339396Y65066D01*
X337100Y64607D02*
Y67362D01*
X338477Y65984D01*
X336641D01*
X334345Y64607D02*
Y67362D01*
X335722Y65984D01*
X333886D01*
X339396Y152887D02*
X339855Y153346D01*
X340773D01*
X341232Y152887D01*
Y151050D01*
X340773Y150591D01*
X339855D01*
X339396Y151050D01*
X337100Y150591D02*
Y153346D01*
X338477Y151969D01*
X336641D01*
X335722Y152887D02*
X335263Y153346D01*
X334345D01*
X333886Y152887D01*
Y152428D01*
X334345Y151969D01*
X334804D01*
X334345D01*
X333886Y151509D01*
Y151050D01*
X334345Y150591D01*
X335263D01*
X335722Y151050D01*
X304396Y214225D02*
X304855Y214685D01*
X305773D01*
X306232Y214225D01*
Y212389D01*
X305773Y211930D01*
X304855D01*
X304396Y212389D01*
X302100Y211930D02*
Y214685D01*
X303477Y213307D01*
X301641D01*
X298886Y211930D02*
X300722D01*
X298886Y213766D01*
Y214225D01*
X299345Y214685D01*
X300263D01*
X300722Y214225D01*
X303937Y275722D02*
X304396Y276181D01*
X305314D01*
X305773Y275722D01*
Y273885D01*
X305314Y273426D01*
X304396D01*
X303937Y273885D01*
X301641Y273426D02*
Y276181D01*
X303018Y274803D01*
X301182D01*
X300263Y273426D02*
X299345D01*
X299804D01*
Y276181D01*
X300263Y275722D01*
X304396Y383792D02*
X304855Y384251D01*
X305773D01*
X306232Y383792D01*
Y381956D01*
X305773Y381497D01*
X304855D01*
X304396Y381956D01*
X302100Y381497D02*
Y384251D01*
X303477Y382874D01*
X301641D01*
X300722Y383792D02*
X300263Y384251D01*
X299345D01*
X298886Y383792D01*
Y381956D01*
X299345Y381497D01*
X300263D01*
X300722Y381956D01*
Y383792D01*
X178870Y379095D02*
Y381850D01*
X177493D01*
X177034Y381391D01*
Y380472D01*
X177493Y380013D01*
X178870D01*
X177952D02*
X177034Y379095D01*
X174279Y381850D02*
X175197Y381391D01*
X176115Y380472D01*
Y379554D01*
X175656Y379095D01*
X174738D01*
X174279Y379554D01*
Y380013D01*
X174738Y380472D01*
X176115D01*
X173360Y381391D02*
X172901Y381850D01*
X171983D01*
X171524Y381391D01*
Y380932D01*
X171983Y380472D01*
X171524Y380013D01*
Y379554D01*
X171983Y379095D01*
X172901D01*
X173360Y379554D01*
Y380013D01*
X172901Y380472D01*
X173360Y380932D01*
Y381391D01*
X172901Y380472D02*
X171983D01*
X198988Y379134D02*
Y381889D01*
X197611D01*
X197152Y381430D01*
Y380512D01*
X197611Y380053D01*
X198988D01*
X198070D02*
X197152Y379134D01*
X194397Y381889D02*
X195315Y381430D01*
X196233Y380512D01*
Y379593D01*
X195774Y379134D01*
X194856D01*
X194397Y379593D01*
Y380053D01*
X194856Y380512D01*
X196233D01*
X193478Y381889D02*
X191642D01*
Y381430D01*
X193478Y379593D01*
Y379134D01*
X158713Y337796D02*
Y340551D01*
X157335D01*
X156876Y340092D01*
Y339173D01*
X157335Y338714D01*
X158713D01*
X157794D02*
X156876Y337796D01*
X154121Y340551D02*
X155039Y340092D01*
X155958Y339173D01*
Y338255D01*
X155499Y337796D01*
X154580D01*
X154121Y338255D01*
Y338714D01*
X154580Y339173D01*
X155958D01*
X153203Y340092D02*
X152743Y340551D01*
X151825D01*
X151366Y340092D01*
Y339632D01*
X151825Y339173D01*
X152284D01*
X151825D01*
X151366Y338714D01*
Y338255D01*
X151825Y337796D01*
X152743D01*
X153203Y338255D01*
X240040Y341195D02*
X242795D01*
Y342573D01*
X242336Y343032D01*
X241417D01*
X240958Y342573D01*
Y341195D01*
Y342114D02*
X240040Y343032D01*
X242795Y345787D02*
X242336Y344869D01*
X241417Y343950D01*
X240499D01*
X240040Y344409D01*
Y345328D01*
X240499Y345787D01*
X240958D01*
X241417Y345328D01*
Y343950D01*
X240040Y346705D02*
Y347624D01*
Y347165D01*
X242795D01*
X242336Y346705D01*
X240197Y357547D02*
X242952D01*
Y358925D01*
X242493Y359384D01*
X241575D01*
X241116Y358925D01*
Y357547D01*
Y358465D02*
X240197Y359384D01*
X242952Y362139D02*
X242493Y361220D01*
X241575Y360302D01*
X240656D01*
X240197Y360761D01*
Y361680D01*
X240656Y362139D01*
X241116D01*
X241575Y361680D01*
Y360302D01*
X242493Y363057D02*
X242952Y363516D01*
Y364435D01*
X242493Y364894D01*
X240656D01*
X240197Y364435D01*
Y363516D01*
X240656Y363057D01*
X242493D01*
X47728Y61930D02*
Y64685D01*
X46350D01*
X45891Y64225D01*
Y63307D01*
X46350Y62848D01*
X47728D01*
X46810D02*
X45891Y61930D01*
X43136D02*
X44973D01*
X43136Y63766D01*
Y64225D01*
X43595Y64685D01*
X44514D01*
X44973Y64225D01*
X42218D02*
X41759Y64685D01*
X40841D01*
X40381Y64225D01*
Y63766D01*
X40841Y63307D01*
X40381Y62848D01*
Y62389D01*
X40841Y61930D01*
X41759D01*
X42218Y62389D01*
Y62848D01*
X41759Y63307D01*
X42218Y63766D01*
Y64225D01*
X41759Y63307D02*
X40841D01*
X37626Y64225D02*
X38085Y64685D01*
X39004D01*
X39463Y64225D01*
Y62389D01*
X39004Y61930D01*
X38085D01*
X37626Y62389D01*
X48082Y178347D02*
Y181102D01*
X46705D01*
X46246Y180643D01*
Y179724D01*
X46705Y179265D01*
X48082D01*
X47164D02*
X46246Y178347D01*
X43491D02*
X45327D01*
X43491Y180184D01*
Y180643D01*
X43950Y181102D01*
X44868D01*
X45327Y180643D01*
X42572D02*
X42113Y181102D01*
X41195D01*
X40736Y180643D01*
Y180184D01*
X41195Y179724D01*
X40736Y179265D01*
Y178806D01*
X41195Y178347D01*
X42113D01*
X42572Y178806D01*
Y179265D01*
X42113Y179724D01*
X42572Y180184D01*
Y180643D01*
X42113Y179724D02*
X41195D01*
X39817Y181102D02*
Y178347D01*
X38440D01*
X37981Y178806D01*
Y179265D01*
X38440Y179724D01*
X39817D01*
X38440D01*
X37981Y180184D01*
Y180643D01*
X38440Y181102D01*
X39817D01*
X47571Y55315D02*
Y58070D01*
X46193D01*
X45734Y57611D01*
Y56693D01*
X46193Y56234D01*
X47571D01*
X46652D02*
X45734Y55315D01*
X42979D02*
X44815D01*
X42979Y57152D01*
Y57611D01*
X43438Y58070D01*
X44356D01*
X44815Y57611D01*
X42061Y58070D02*
X40224D01*
Y57611D01*
X42061Y55775D01*
Y55315D01*
X37469Y57611D02*
X37928Y58070D01*
X38846D01*
X39305Y57611D01*
Y55775D01*
X38846Y55315D01*
X37928D01*
X37469Y55775D01*
X47925Y171733D02*
Y174488D01*
X46547D01*
X46088Y174029D01*
Y173110D01*
X46547Y172651D01*
X47925D01*
X47006D02*
X46088Y171733D01*
X43333D02*
X45170D01*
X43333Y173569D01*
Y174029D01*
X43792Y174488D01*
X44711D01*
X45170Y174029D01*
X42415Y174488D02*
X40578D01*
Y174029D01*
X42415Y172192D01*
Y171733D01*
X39660Y174488D02*
Y171733D01*
X38282D01*
X37823Y172192D01*
Y172651D01*
X38282Y173110D01*
X39660D01*
X38282D01*
X37823Y173569D01*
Y174029D01*
X38282Y174488D01*
X39660D01*
X47334Y299607D02*
Y302362D01*
X45957D01*
X45498Y301903D01*
Y300984D01*
X45957Y300525D01*
X47334D01*
X46416D02*
X45498Y299607D01*
X42743D02*
X44579D01*
X42743Y301443D01*
Y301903D01*
X43202Y302362D01*
X44120D01*
X44579Y301903D01*
X41824Y302362D02*
X39988D01*
Y301903D01*
X41824Y300066D01*
Y299607D01*
X39069D02*
Y301443D01*
X38151Y302362D01*
X37233Y301443D01*
Y299607D01*
Y300984D01*
X39069D01*
X69539Y72481D02*
Y75236D01*
X68161D01*
X67702Y74777D01*
Y73858D01*
X68161Y73399D01*
X69539D01*
X68621D02*
X67702Y72481D01*
X64947D02*
X66784D01*
X64947Y74317D01*
Y74777D01*
X65407Y75236D01*
X66325D01*
X66784Y74777D01*
X62192Y75236D02*
X63111Y74777D01*
X64029Y73858D01*
Y72940D01*
X63570Y72481D01*
X62651D01*
X62192Y72940D01*
Y73399D01*
X62651Y73858D01*
X64029D01*
X59437Y74777D02*
X59896Y75236D01*
X60815D01*
X61274Y74777D01*
Y72940D01*
X60815Y72481D01*
X59896D01*
X59437Y72940D01*
X69893Y188898D02*
Y191653D01*
X68516D01*
X68057Y191194D01*
Y190276D01*
X68516Y189816D01*
X69893D01*
X68975D02*
X68057Y188898D01*
X65302D02*
X67138D01*
X65302Y190735D01*
Y191194D01*
X65761Y191653D01*
X66679D01*
X67138Y191194D01*
X62547Y191653D02*
X63465Y191194D01*
X64383Y190276D01*
Y189357D01*
X63924Y188898D01*
X63006D01*
X62547Y189357D01*
Y189816D01*
X63006Y190276D01*
X64383D01*
X61628Y191653D02*
Y188898D01*
X60251D01*
X59792Y189357D01*
Y189816D01*
X60251Y190276D01*
X61628D01*
X60251D01*
X59792Y190735D01*
Y191194D01*
X60251Y191653D01*
X61628D01*
X69303Y316772D02*
Y319527D01*
X67925D01*
X67466Y319068D01*
Y318150D01*
X67925Y317690D01*
X69303D01*
X68384D02*
X67466Y316772D01*
X64711D02*
X66548D01*
X64711Y318609D01*
Y319068D01*
X65170Y319527D01*
X66089D01*
X66548Y319068D01*
X61956Y319527D02*
X62875Y319068D01*
X63793Y318150D01*
Y317231D01*
X63334Y316772D01*
X62415D01*
X61956Y317231D01*
Y317690D01*
X62415Y318150D01*
X63793D01*
X61038Y316772D02*
Y318609D01*
X60119Y319527D01*
X59201Y318609D01*
Y316772D01*
Y318150D01*
X61038D01*
X89657Y72481D02*
Y75236D01*
X88280D01*
X87821Y74777D01*
Y73858D01*
X88280Y73399D01*
X89657D01*
X88739D02*
X87821Y72481D01*
X85065D02*
X86902D01*
X85065Y74317D01*
Y74777D01*
X85525Y75236D01*
X86443D01*
X86902Y74777D01*
X82310Y75236D02*
X84147D01*
Y73858D01*
X83229Y74317D01*
X82770D01*
X82310Y73858D01*
Y72940D01*
X82770Y72481D01*
X83688D01*
X84147Y72940D01*
X79555Y74777D02*
X80015Y75236D01*
X80933D01*
X81392Y74777D01*
Y72940D01*
X80933Y72481D01*
X80015D01*
X79555Y72940D01*
X90012Y188898D02*
Y191653D01*
X88634D01*
X88175Y191194D01*
Y190276D01*
X88634Y189816D01*
X90012D01*
X89093D02*
X88175Y188898D01*
X85420D02*
X87256D01*
X85420Y190735D01*
Y191194D01*
X85879Y191653D01*
X86797D01*
X87256Y191194D01*
X82665Y191653D02*
X84501D01*
Y190276D01*
X83583Y190735D01*
X83124D01*
X82665Y190276D01*
Y189357D01*
X83124Y188898D01*
X84042D01*
X84501Y189357D01*
X81746Y191653D02*
Y188898D01*
X80369D01*
X79910Y189357D01*
Y189816D01*
X80369Y190276D01*
X81746D01*
X80369D01*
X79910Y190735D01*
Y191194D01*
X80369Y191653D01*
X81746D01*
X89421Y316772D02*
Y319527D01*
X88043D01*
X87584Y319068D01*
Y318150D01*
X88043Y317690D01*
X89421D01*
X88503D02*
X87584Y316772D01*
X84829D02*
X86666D01*
X84829Y318609D01*
Y319068D01*
X85288Y319527D01*
X86207D01*
X86666Y319068D01*
X82074Y319527D02*
X83911D01*
Y318150D01*
X82993Y318609D01*
X82533D01*
X82074Y318150D01*
Y317231D01*
X82533Y316772D01*
X83452D01*
X83911Y317231D01*
X81156Y316772D02*
Y318609D01*
X80238Y319527D01*
X79319Y318609D01*
Y316772D01*
Y318150D01*
X81156D01*
X47256Y37244D02*
Y40000D01*
X45878D01*
X45419Y39540D01*
Y38622D01*
X45878Y38163D01*
X47256D01*
X46337D02*
X45419Y37244D01*
X42664D02*
X44501D01*
X42664Y39081D01*
Y39540D01*
X43123Y40000D01*
X44041D01*
X44501Y39540D01*
X40368Y37244D02*
Y40000D01*
X41745Y38622D01*
X39909D01*
X37154Y39540D02*
X37613Y40000D01*
X38531D01*
X38991Y39540D01*
Y37704D01*
X38531Y37244D01*
X37613D01*
X37154Y37704D01*
X47610Y153662D02*
Y156417D01*
X46232D01*
X45773Y155958D01*
Y155039D01*
X46232Y154580D01*
X47610D01*
X46692D02*
X45773Y153662D01*
X43018D02*
X44855D01*
X43018Y155499D01*
Y155958D01*
X43477Y156417D01*
X44396D01*
X44855Y155958D01*
X40722Y153662D02*
Y156417D01*
X42100Y155039D01*
X40263D01*
X39345Y156417D02*
Y153662D01*
X37967D01*
X37508Y154121D01*
Y154580D01*
X37967Y155039D01*
X39345D01*
X37967D01*
X37508Y155499D01*
Y155958D01*
X37967Y156417D01*
X39345D01*
X47019Y281536D02*
Y284291D01*
X45642D01*
X45183Y283832D01*
Y282913D01*
X45642Y282454D01*
X47019D01*
X46101D02*
X45183Y281536D01*
X42428D02*
X44264D01*
X42428Y283373D01*
Y283832D01*
X42887Y284291D01*
X43805D01*
X44264Y283832D01*
X40132Y281536D02*
Y284291D01*
X41509Y282913D01*
X39673D01*
X38754Y281536D02*
Y283373D01*
X37836Y284291D01*
X36918Y283373D01*
Y281536D01*
Y282913D01*
X38754D01*
X47059Y30630D02*
Y33385D01*
X45681D01*
X45222Y32926D01*
Y32008D01*
X45681Y31549D01*
X47059D01*
X46140D02*
X45222Y30630D01*
X42467D02*
X44304D01*
X42467Y32467D01*
Y32926D01*
X42926Y33385D01*
X43845D01*
X44304Y32926D01*
X41549D02*
X41089Y33385D01*
X40171D01*
X39712Y32926D01*
Y32467D01*
X40171Y32008D01*
X40630D01*
X40171D01*
X39712Y31549D01*
Y31089D01*
X40171Y30630D01*
X41089D01*
X41549Y31089D01*
X36957Y32926D02*
X37416Y33385D01*
X38335D01*
X38794Y32926D01*
Y31089D01*
X38335Y30630D01*
X37416D01*
X36957Y31089D01*
X47413Y147048D02*
Y149803D01*
X46036D01*
X45576Y149344D01*
Y148425D01*
X46036Y147966D01*
X47413D01*
X46495D02*
X45576Y147048D01*
X42821D02*
X44658D01*
X42821Y148884D01*
Y149344D01*
X43281Y149803D01*
X44199D01*
X44658Y149344D01*
X41903D02*
X41444Y149803D01*
X40525D01*
X40066Y149344D01*
Y148884D01*
X40525Y148425D01*
X40985D01*
X40525D01*
X40066Y147966D01*
Y147507D01*
X40525Y147048D01*
X41444D01*
X41903Y147507D01*
X39148Y149803D02*
Y147048D01*
X37771D01*
X37311Y147507D01*
Y147966D01*
X37771Y148425D01*
X39148D01*
X37771D01*
X37311Y148884D01*
Y149344D01*
X37771Y149803D01*
X39148D01*
X46823Y274922D02*
Y277677D01*
X45445D01*
X44986Y277218D01*
Y276299D01*
X45445Y275840D01*
X46823D01*
X45904D02*
X44986Y274922D01*
X42231D02*
X44067D01*
X42231Y276758D01*
Y277218D01*
X42690Y277677D01*
X43608D01*
X44067Y277218D01*
X41313D02*
X40853Y277677D01*
X39935D01*
X39476Y277218D01*
Y276758D01*
X39935Y276299D01*
X40394D01*
X39935D01*
X39476Y275840D01*
Y275381D01*
X39935Y274922D01*
X40853D01*
X41313Y275381D01*
X38557Y274922D02*
Y276758D01*
X37639Y277677D01*
X36721Y276758D01*
Y274922D01*
Y276299D01*
X38557D01*
X129984Y29536D02*
Y32291D01*
X128606D01*
X128147Y31832D01*
Y30913D01*
X128606Y30454D01*
X129984D01*
X129066D02*
X128147Y29536D01*
X125392D02*
X127229D01*
X125392Y31372D01*
Y31832D01*
X125851Y32291D01*
X126770D01*
X127229Y31832D01*
X122637Y29536D02*
X124474D01*
X122637Y31372D01*
Y31832D01*
X123096Y32291D01*
X124015D01*
X124474Y31832D01*
X119882D02*
X120341Y32291D01*
X121260D01*
X121719Y31832D01*
Y29995D01*
X121260Y29536D01*
X120341D01*
X119882Y29995D01*
X130338Y145953D02*
Y148708D01*
X128961D01*
X128501Y148249D01*
Y147331D01*
X128961Y146871D01*
X130338D01*
X129420D02*
X128501Y145953D01*
X125747D02*
X127583D01*
X125747Y147790D01*
Y148249D01*
X126206Y148708D01*
X127124D01*
X127583Y148249D01*
X122992Y145953D02*
X124828D01*
X122992Y147790D01*
Y148249D01*
X123451Y148708D01*
X124369D01*
X124828Y148249D01*
X122073Y148708D02*
Y145953D01*
X120696D01*
X120237Y146412D01*
Y146871D01*
X120696Y147331D01*
X122073D01*
X120696D01*
X120237Y147790D01*
Y148249D01*
X120696Y148708D01*
X122073D01*
X129748Y273827D02*
Y276582D01*
X128370D01*
X127911Y276123D01*
Y275205D01*
X128370Y274745D01*
X129748D01*
X128829D02*
X127911Y273827D01*
X125156D02*
X126993D01*
X125156Y275664D01*
Y276123D01*
X125615Y276582D01*
X126533D01*
X126993Y276123D01*
X122401Y273827D02*
X124238D01*
X122401Y275664D01*
Y276123D01*
X122860Y276582D01*
X123778D01*
X124238Y276123D01*
X121483Y273827D02*
Y275664D01*
X120564Y276582D01*
X119646Y275664D01*
Y273827D01*
Y275205D01*
X121483D01*
X129213Y48919D02*
X131968D01*
Y50296D01*
X131509Y50756D01*
X130591D01*
X130131Y50296D01*
Y48919D01*
Y49837D02*
X129213Y50756D01*
Y53511D02*
Y51674D01*
X131050Y53511D01*
X131509D01*
X131968Y53051D01*
Y52133D01*
X131509Y51674D01*
X129213Y54429D02*
Y55347D01*
Y54888D01*
X131968D01*
X131509Y54429D01*
Y58561D02*
X131968Y58102D01*
Y57184D01*
X131509Y56725D01*
X129672D01*
X129213Y57184D01*
Y58102D01*
X129672Y58561D01*
X129567Y165336D02*
X132322D01*
Y166714D01*
X131863Y167173D01*
X130945D01*
X130486Y166714D01*
Y165336D01*
Y166254D02*
X129567Y167173D01*
Y169928D02*
Y168091D01*
X131404Y169928D01*
X131863D01*
X132322Y169469D01*
Y168550D01*
X131863Y168091D01*
X129567Y170846D02*
Y171765D01*
Y171305D01*
X132322D01*
X131863Y170846D01*
X132322Y173142D02*
X129567D01*
Y174520D01*
X130026Y174979D01*
X130486D01*
X130945Y174520D01*
Y173142D01*
Y174520D01*
X131404Y174979D01*
X131863D01*
X132322Y174520D01*
Y173142D01*
X128977Y293210D02*
X131732D01*
Y294588D01*
X131273Y295047D01*
X130354D01*
X129895Y294588D01*
Y293210D01*
Y294129D02*
X128977Y295047D01*
Y297802D02*
Y295965D01*
X130814Y297802D01*
X131273D01*
X131732Y297343D01*
Y296424D01*
X131273Y295965D01*
X128977Y298720D02*
Y299639D01*
Y299179D01*
X131732D01*
X131273Y298720D01*
X128977Y301016D02*
X130814D01*
X131732Y301935D01*
X130814Y302853D01*
X128977D01*
X130354D01*
Y301016D01*
X156400Y63650D02*
Y66405D01*
X155022D01*
X154563Y65946D01*
Y65027D01*
X155022Y64568D01*
X156400D01*
X155481D02*
X154563Y63650D01*
X151808D02*
X153645D01*
X151808Y65487D01*
Y65946D01*
X152267Y66405D01*
X153185D01*
X153645Y65946D01*
X150890D02*
X150430Y66405D01*
X149512D01*
X149053Y65946D01*
Y64109D01*
X149512Y63650D01*
X150430D01*
X150890Y64109D01*
Y65946D01*
X146298D02*
X146757Y66405D01*
X147675D01*
X148135Y65946D01*
Y64109D01*
X147675Y63650D01*
X146757D01*
X146298Y64109D01*
X180878Y177461D02*
Y180216D01*
X179500D01*
X179041Y179757D01*
Y178839D01*
X179500Y178379D01*
X180878D01*
X179959D02*
X179041Y177461D01*
X176286D02*
X178123D01*
X176286Y179298D01*
Y179757D01*
X176745Y180216D01*
X177664D01*
X178123Y179757D01*
X175368D02*
X174908Y180216D01*
X173990D01*
X173531Y179757D01*
Y177920D01*
X173990Y177461D01*
X174908D01*
X175368Y177920D01*
Y179757D01*
X172613Y180216D02*
Y177461D01*
X171235D01*
X170776Y177920D01*
Y178379D01*
X171235Y178839D01*
X172613D01*
X171235D01*
X170776Y179298D01*
Y179757D01*
X171235Y180216D01*
X172613D01*
X194793Y311800D02*
Y314555D01*
X193416D01*
X192957Y314095D01*
Y313177D01*
X193416Y312718D01*
X194793D01*
X193875D02*
X192957Y311800D01*
X190202D02*
X192038D01*
X190202Y313636D01*
Y314095D01*
X190661Y314555D01*
X191579D01*
X192038Y314095D01*
X189283D02*
X188824Y314555D01*
X187906D01*
X187447Y314095D01*
Y312259D01*
X187906Y311800D01*
X188824D01*
X189283Y312259D01*
Y314095D01*
X186528Y311800D02*
Y313636D01*
X185610Y314555D01*
X184692Y313636D01*
Y311800D01*
Y313177D01*
X186528D01*
X176170Y63650D02*
Y66405D01*
X174793D01*
X174333Y65946D01*
Y65027D01*
X174793Y64568D01*
X176170D01*
X175252D02*
X174333Y63650D01*
X173415D02*
X172497D01*
X172956D01*
Y66405D01*
X173415Y65946D01*
X171119Y64109D02*
X170660Y63650D01*
X169742D01*
X169282Y64109D01*
Y65946D01*
X169742Y66405D01*
X170660D01*
X171119Y65946D01*
Y65487D01*
X170660Y65027D01*
X169282D01*
X166527Y65946D02*
X166987Y66405D01*
X167905D01*
X168364Y65946D01*
Y64109D01*
X167905Y63650D01*
X166987D01*
X166527Y64109D01*
X200648Y177461D02*
Y180216D01*
X199271D01*
X198811Y179757D01*
Y178839D01*
X199271Y178379D01*
X200648D01*
X199730D02*
X198811Y177461D01*
X197893D02*
X196975D01*
X197434D01*
Y180216D01*
X197893Y179757D01*
X195597Y177920D02*
X195138Y177461D01*
X194220D01*
X193761Y177920D01*
Y179757D01*
X194220Y180216D01*
X195138D01*
X195597Y179757D01*
Y179298D01*
X195138Y178839D01*
X193761D01*
X192842Y180216D02*
Y177461D01*
X191465D01*
X191006Y177920D01*
Y178379D01*
X191465Y178839D01*
X192842D01*
X191465D01*
X191006Y179298D01*
Y179757D01*
X191465Y180216D01*
X192842D01*
X214564Y311800D02*
Y314555D01*
X213186D01*
X212727Y314095D01*
Y313177D01*
X213186Y312718D01*
X214564D01*
X213645D02*
X212727Y311800D01*
X211809D02*
X210890D01*
X211350D01*
Y314555D01*
X211809Y314095D01*
X209513Y312259D02*
X209054Y311800D01*
X208135D01*
X207676Y312259D01*
Y314095D01*
X208135Y314555D01*
X209054D01*
X209513Y314095D01*
Y313636D01*
X209054Y313177D01*
X207676D01*
X206758Y311800D02*
Y313636D01*
X205839Y314555D01*
X204921Y313636D01*
Y311800D01*
Y313177D01*
X206758D01*
X145412Y39449D02*
Y42204D01*
X144034D01*
X143575Y41745D01*
Y40827D01*
X144034Y40368D01*
X145412D01*
X144493D02*
X143575Y39449D01*
X142657D02*
X141738D01*
X142198D01*
Y42204D01*
X142657Y41745D01*
X138524Y42204D02*
X140361D01*
Y40827D01*
X139443Y41286D01*
X138983D01*
X138524Y40827D01*
Y39908D01*
X138983Y39449D01*
X139902D01*
X140361Y39908D01*
X135769Y41745D02*
X136228Y42204D01*
X137147D01*
X137606Y41745D01*
Y39908D01*
X137147Y39449D01*
X136228D01*
X135769Y39908D01*
X158207Y158780D02*
Y161535D01*
X156830D01*
X156370Y161076D01*
Y160158D01*
X156830Y159698D01*
X158207D01*
X157289D02*
X156370Y158780D01*
X155452D02*
X154534D01*
X154993D01*
Y161535D01*
X155452Y161076D01*
X151320Y161535D02*
X153156D01*
Y160158D01*
X152238Y160617D01*
X151779D01*
X151320Y160158D01*
Y159239D01*
X151779Y158780D01*
X152697D01*
X153156Y159239D01*
X150401Y161535D02*
Y158780D01*
X149024D01*
X148565Y159239D01*
Y159698D01*
X149024Y160158D01*
X150401D01*
X149024D01*
X148565Y160617D01*
Y161076D01*
X149024Y161535D01*
X150401D01*
X171554Y293504D02*
Y296259D01*
X170176D01*
X169717Y295800D01*
Y294882D01*
X170176Y294423D01*
X171554D01*
X170635D02*
X169717Y293504D01*
X168798D02*
X167880D01*
X168339D01*
Y296259D01*
X168798Y295800D01*
X164666Y296259D02*
X166503D01*
Y294882D01*
X165584Y295341D01*
X165125D01*
X164666Y294882D01*
Y293964D01*
X165125Y293504D01*
X166043D01*
X166503Y293964D01*
X163748Y293504D02*
Y295341D01*
X162829Y296259D01*
X161911Y295341D01*
Y293504D01*
Y294882D01*
X163748D01*
X199742Y44961D02*
Y47716D01*
X198365D01*
X197906Y47257D01*
Y46339D01*
X198365Y45879D01*
X199742D01*
X198824D02*
X197906Y44961D01*
X196987D02*
X196069D01*
X196528D01*
Y47716D01*
X196987Y47257D01*
X193314Y44961D02*
Y47716D01*
X194692Y46339D01*
X192855D01*
X190100Y47257D02*
X190559Y47716D01*
X191478D01*
X191937Y47257D01*
Y45420D01*
X191478Y44961D01*
X190559D01*
X190100Y45420D01*
X222843Y158772D02*
Y161134D01*
X221662D01*
X221269Y160740D01*
Y159953D01*
X221662Y159559D01*
X222843D01*
X222056D02*
X221269Y158772D01*
X220482D02*
X219694D01*
X220088D01*
Y161134D01*
X220482Y160740D01*
X217333Y158772D02*
Y161134D01*
X218514Y159953D01*
X216939D01*
X216152Y161134D02*
Y158772D01*
X214972D01*
X214578Y159166D01*
Y159559D01*
X214972Y159953D01*
X216152D01*
X214972D01*
X214578Y160346D01*
Y160740D01*
X214972Y161134D01*
X216152D01*
X236759Y293111D02*
Y295472D01*
X235578D01*
X235184Y295078D01*
Y294291D01*
X235578Y293898D01*
X236759D01*
X235972D02*
X235184Y293111D01*
X234397D02*
X233610D01*
X234004D01*
Y295472D01*
X234397Y295078D01*
X231249Y293111D02*
Y295472D01*
X232429Y294291D01*
X230855D01*
X230068Y293111D02*
Y294685D01*
X229281Y295472D01*
X228494Y294685D01*
Y293111D01*
Y294291D01*
X230068D01*
X187262Y23268D02*
Y26023D01*
X185885D01*
X185425Y25564D01*
Y24646D01*
X185885Y24186D01*
X187262D01*
X186344D02*
X185425Y23268D01*
X184507D02*
X183589D01*
X184048D01*
Y26023D01*
X184507Y25564D01*
X182211D02*
X181752Y26023D01*
X180834D01*
X180375Y25564D01*
Y25105D01*
X180834Y24646D01*
X181293D01*
X180834D01*
X180375Y24186D01*
Y23727D01*
X180834Y23268D01*
X181752D01*
X182211Y23727D01*
X177620Y25564D02*
X178079Y26023D01*
X178997D01*
X179456Y25564D01*
Y23727D01*
X178997Y23268D01*
X178079D01*
X177620Y23727D01*
X211740Y137079D02*
Y139834D01*
X210363D01*
X209904Y139375D01*
Y138457D01*
X210363Y137998D01*
X211740D01*
X210822D02*
X209904Y137079D01*
X208985D02*
X208067D01*
X208526D01*
Y139834D01*
X208985Y139375D01*
X206689D02*
X206230Y139834D01*
X205312D01*
X204853Y139375D01*
Y138916D01*
X205312Y138457D01*
X205771D01*
X205312D01*
X204853Y137998D01*
Y137539D01*
X205312Y137079D01*
X206230D01*
X206689Y137539D01*
X203934Y139834D02*
Y137079D01*
X202557D01*
X202098Y137539D01*
Y137998D01*
X202557Y138457D01*
X203934D01*
X202557D01*
X202098Y138916D01*
Y139375D01*
X202557Y139834D01*
X203934D01*
X225656Y271418D02*
Y274173D01*
X224278D01*
X223819Y273714D01*
Y272795D01*
X224278Y272336D01*
X225656D01*
X224738D02*
X223819Y271418D01*
X222901D02*
X221983D01*
X222442D01*
Y274173D01*
X222901Y273714D01*
X220605D02*
X220146Y274173D01*
X219228D01*
X218768Y273714D01*
Y273254D01*
X219228Y272795D01*
X219687D01*
X219228D01*
X218768Y272336D01*
Y271877D01*
X219228Y271418D01*
X220146D01*
X220605Y271877D01*
X217850Y271418D02*
Y273254D01*
X216932Y274173D01*
X216013Y273254D01*
Y271418D01*
Y272795D01*
X217850D01*
X143719Y23111D02*
Y25866D01*
X142341D01*
X141882Y25407D01*
Y24488D01*
X142341Y24029D01*
X143719D01*
X142801D02*
X141882Y23111D01*
X140964D02*
X140046D01*
X140505D01*
Y25866D01*
X140964Y25407D01*
X136831Y23111D02*
X138668D01*
X136831Y24947D01*
Y25407D01*
X137291Y25866D01*
X138209D01*
X138668Y25407D01*
X134076D02*
X134536Y25866D01*
X135454D01*
X135913Y25407D01*
Y23570D01*
X135454Y23111D01*
X134536D01*
X134076Y23570D01*
X168197Y136922D02*
Y139677D01*
X166819D01*
X166360Y139218D01*
Y138299D01*
X166819Y137840D01*
X168197D01*
X167279D02*
X166360Y136922D01*
X165442D02*
X164524D01*
X164983D01*
Y139677D01*
X165442Y139218D01*
X161309Y136922D02*
X163146D01*
X161309Y138759D01*
Y139218D01*
X161769Y139677D01*
X162687D01*
X163146Y139218D01*
X160391Y139677D02*
Y136922D01*
X159014D01*
X158554Y137381D01*
Y137840D01*
X159014Y138299D01*
X160391D01*
X159014D01*
X158554Y138759D01*
Y139218D01*
X159014Y139677D01*
X160391D01*
X182113Y271260D02*
Y274015D01*
X180735D01*
X180276Y273556D01*
Y272638D01*
X180735Y272179D01*
X182113D01*
X181194D02*
X180276Y271260D01*
X179358D02*
X178439D01*
X178898D01*
Y274015D01*
X179358Y273556D01*
X175225Y271260D02*
X177062D01*
X175225Y273097D01*
Y273556D01*
X175684Y274015D01*
X176603D01*
X177062Y273556D01*
X174307Y271260D02*
Y273097D01*
X173388Y274015D01*
X172470Y273097D01*
Y271260D01*
Y272638D01*
X174307D01*
X78162Y62125D02*
Y59830D01*
X77702Y59370D01*
X76784D01*
X76325Y59830D01*
Y62125D01*
X74029Y59370D02*
Y62125D01*
X75406Y60748D01*
X73570D01*
X70815Y61666D02*
X71274Y62125D01*
X72192D01*
X72651Y61666D01*
Y59830D01*
X72192Y59370D01*
X71274D01*
X70815Y59830D01*
X78516Y178543D02*
Y176247D01*
X78057Y175788D01*
X77138D01*
X76679Y176247D01*
Y178543D01*
X74383Y175788D02*
Y178543D01*
X75761Y177165D01*
X73924D01*
X73006Y178543D02*
Y175788D01*
X71628D01*
X71169Y176247D01*
Y176706D01*
X71628Y177165D01*
X73006D01*
X71628D01*
X71169Y177624D01*
Y178084D01*
X71628Y178543D01*
X73006D01*
X77925Y306417D02*
Y304121D01*
X77466Y303662D01*
X76548D01*
X76089Y304121D01*
Y306417D01*
X73793Y303662D02*
Y306417D01*
X75170Y305039D01*
X73334D01*
X72415Y303662D02*
Y305499D01*
X71497Y306417D01*
X70579Y305499D01*
Y303662D01*
Y305039D01*
X72415D01*
X189768Y167440D02*
Y165145D01*
X189309Y164685D01*
X188390D01*
X187931Y165145D01*
Y167440D01*
X187013Y166981D02*
X186554Y167440D01*
X185635D01*
X185176Y166981D01*
Y166522D01*
X185635Y166063D01*
X186094D01*
X185635D01*
X185176Y165604D01*
Y165145D01*
X185635Y164685D01*
X186554D01*
X187013Y165145D01*
X184258Y167440D02*
Y164685D01*
X182880D01*
X182421Y165145D01*
Y165604D01*
X182880Y166063D01*
X184258D01*
X182880D01*
X182421Y166522D01*
Y166981D01*
X182880Y167440D01*
X184258D01*
X203683Y301779D02*
Y299483D01*
X203224Y299024D01*
X202306D01*
X201847Y299483D01*
Y301779D01*
X200928Y301320D02*
X200469Y301779D01*
X199551D01*
X199092Y301320D01*
Y300861D01*
X199551Y300401D01*
X200010D01*
X199551D01*
X199092Y299942D01*
Y299483D01*
X199551Y299024D01*
X200469D01*
X200928Y299483D01*
X198173Y299024D02*
Y300861D01*
X197255Y301779D01*
X196337Y300861D01*
Y299024D01*
Y300401D01*
X198173D01*
X184638Y31430D02*
X185097Y31889D01*
X186016D01*
X186475Y31430D01*
Y29594D01*
X186016Y29134D01*
X185097D01*
X184638Y29594D01*
X183720Y31430D02*
X183261Y31889D01*
X182342D01*
X181883Y31430D01*
Y30971D01*
X182342Y30512D01*
X181883Y30053D01*
Y29594D01*
X182342Y29134D01*
X183261D01*
X183720Y29594D01*
Y30053D01*
X183261Y30512D01*
X183720Y30971D01*
Y31430D01*
X183261Y30512D02*
X182342D01*
X180965Y29134D02*
X180046D01*
X180506D01*
Y31889D01*
X180965Y31430D01*
X176832D02*
X177291Y31889D01*
X178210D01*
X178669Y31430D01*
Y29594D01*
X178210Y29134D01*
X177291D01*
X176832Y29594D01*
X209116Y145241D02*
X209575Y145701D01*
X210494D01*
X210953Y145241D01*
Y143405D01*
X210494Y142945D01*
X209575D01*
X209116Y143405D01*
X208198Y145241D02*
X207739Y145701D01*
X206820D01*
X206361Y145241D01*
Y144782D01*
X206820Y144323D01*
X206361Y143864D01*
Y143405D01*
X206820Y142945D01*
X207739D01*
X208198Y143405D01*
Y143864D01*
X207739Y144323D01*
X208198Y144782D01*
Y145241D01*
X207739Y144323D02*
X206820D01*
X205443Y142945D02*
X204524D01*
X204984D01*
Y145701D01*
X205443Y145241D01*
X203147Y145701D02*
Y142945D01*
X201769D01*
X201310Y143405D01*
Y143864D01*
X201769Y144323D01*
X203147D01*
X201769D01*
X201310Y144782D01*
Y145241D01*
X201769Y145701D01*
X203147D01*
X223032Y279580D02*
X223491Y280039D01*
X224409D01*
X224868Y279580D01*
Y277743D01*
X224409Y277284D01*
X223491D01*
X223032Y277743D01*
X222113Y279580D02*
X221654Y280039D01*
X220736D01*
X220277Y279580D01*
Y279121D01*
X220736Y278661D01*
X220277Y278202D01*
Y277743D01*
X220736Y277284D01*
X221654D01*
X222113Y277743D01*
Y278202D01*
X221654Y278661D01*
X222113Y279121D01*
Y279580D01*
X221654Y278661D02*
X220736D01*
X219358Y277284D02*
X218440D01*
X218899D01*
Y280039D01*
X219358Y279580D01*
X217063Y277284D02*
Y279121D01*
X216144Y280039D01*
X215226Y279121D01*
Y277284D01*
Y278661D01*
X217063D01*
X92572Y34817D02*
X93031Y34358D01*
Y33440D01*
X92572Y32981D01*
X90735D01*
X90276Y33440D01*
Y34358D01*
X90735Y34817D01*
X92572Y35736D02*
X93031Y36195D01*
Y37113D01*
X92572Y37572D01*
X92113D01*
X91654Y37113D01*
X91194Y37572D01*
X90735D01*
X90276Y37113D01*
Y36195D01*
X90735Y35736D01*
X91194D01*
X91654Y36195D01*
X92113Y35736D01*
X92572D01*
X91654Y36195D02*
Y37113D01*
X92572Y38491D02*
X93031Y38950D01*
Y39868D01*
X92572Y40327D01*
X90735D01*
X90276Y39868D01*
Y38950D01*
X90735Y38491D01*
X92572D01*
Y43082D02*
X93031Y42623D01*
Y41705D01*
X92572Y41246D01*
X90735D01*
X90276Y41705D01*
Y42623D01*
X90735Y43082D01*
X92848Y151313D02*
X93307Y150854D01*
Y149936D01*
X92848Y149477D01*
X91011D01*
X90552Y149936D01*
Y150854D01*
X91011Y151313D01*
X92848Y152232D02*
X93307Y152691D01*
Y153609D01*
X92848Y154068D01*
X92388D01*
X91929Y153609D01*
X91470Y154068D01*
X91011D01*
X90552Y153609D01*
Y152691D01*
X91011Y152232D01*
X91470D01*
X91929Y152691D01*
X92388Y152232D01*
X92848D01*
X91929Y152691D02*
Y153609D01*
X92848Y154987D02*
X93307Y155446D01*
Y156364D01*
X92848Y156823D01*
X91011D01*
X90552Y156364D01*
Y155446D01*
X91011Y154987D01*
X92848D01*
X93307Y157742D02*
X90552D01*
Y159119D01*
X91011Y159578D01*
X91470D01*
X91929Y159119D01*
Y157742D01*
Y159119D01*
X92388Y159578D01*
X92848D01*
X93307Y159119D01*
Y157742D01*
X92375Y279227D02*
X92834Y278768D01*
Y277849D01*
X92375Y277390D01*
X90538D01*
X90079Y277849D01*
Y278768D01*
X90538Y279227D01*
X92375Y280145D02*
X92834Y280604D01*
Y281523D01*
X92375Y281982D01*
X91916D01*
X91457Y281523D01*
X90997Y281982D01*
X90538D01*
X90079Y281523D01*
Y280604D01*
X90538Y280145D01*
X90997D01*
X91457Y280604D01*
X91916Y280145D01*
X92375D01*
X91457Y280604D02*
Y281523D01*
X92375Y282900D02*
X92834Y283359D01*
Y284278D01*
X92375Y284737D01*
X90538D01*
X90079Y284278D01*
Y283359D01*
X90538Y282900D01*
X92375D01*
X90079Y285655D02*
X91916D01*
X92834Y286574D01*
X91916Y287492D01*
X90079D01*
X91457D01*
Y285655D01*
X203556Y345289D02*
X204015Y344830D01*
Y343912D01*
X203556Y343453D01*
X201719D01*
X201260Y343912D01*
Y344830D01*
X201719Y345289D01*
X204015Y348044D02*
Y346208D01*
X202638D01*
X203097Y347126D01*
Y347585D01*
X202638Y348044D01*
X201719D01*
X201260Y347585D01*
Y346667D01*
X201719Y346208D01*
Y348963D02*
X201260Y349422D01*
Y350340D01*
X201719Y350799D01*
X203556D01*
X204015Y350340D01*
Y349422D01*
X203556Y348963D01*
X203097D01*
X202638Y349422D01*
Y350799D01*
X156876Y353989D02*
X157335Y354448D01*
X158254D01*
X158713Y353989D01*
Y352152D01*
X158254Y351693D01*
X157335D01*
X156876Y352152D01*
X154121Y354448D02*
X155958D01*
Y353071D01*
X155039Y353530D01*
X154580D01*
X154121Y353071D01*
Y352152D01*
X154580Y351693D01*
X155499D01*
X155958Y352152D01*
X153203Y354448D02*
X151366D01*
Y353989D01*
X153203Y352152D01*
Y351693D01*
X156207Y376942D02*
X156666Y377401D01*
X157584D01*
X158044Y376942D01*
Y375105D01*
X157584Y374646D01*
X156666D01*
X156207Y375105D01*
X153452Y377401D02*
X155289D01*
Y376024D01*
X154370Y376483D01*
X153911D01*
X153452Y376024D01*
Y375105D01*
X153911Y374646D01*
X154829D01*
X155289Y375105D01*
X150697Y377401D02*
X151615Y376942D01*
X152533Y376024D01*
Y375105D01*
X152074Y374646D01*
X151156D01*
X150697Y375105D01*
Y375565D01*
X151156Y376024D01*
X152533D01*
X208727Y380879D02*
X209186Y381338D01*
X210104D01*
X210563Y380879D01*
Y379042D01*
X210104Y378583D01*
X209186D01*
X208727Y379042D01*
X205972Y381338D02*
X207808D01*
Y379961D01*
X206890Y380420D01*
X206431D01*
X205972Y379961D01*
Y379042D01*
X206431Y378583D01*
X207349D01*
X207808Y379042D01*
X203217Y381338D02*
X205053D01*
Y379961D01*
X204135Y380420D01*
X203676D01*
X203217Y379961D01*
Y379042D01*
X203676Y378583D01*
X204594D01*
X205053Y379042D01*
X231469Y361155D02*
X231929Y360696D01*
Y359778D01*
X231469Y359319D01*
X229633D01*
X229174Y359778D01*
Y360696D01*
X229633Y361155D01*
X231929Y363910D02*
Y362074D01*
X230551D01*
X231010Y362992D01*
Y363451D01*
X230551Y363910D01*
X229633D01*
X229174Y363451D01*
Y362533D01*
X229633Y362074D01*
X229174Y366206D02*
X231929D01*
X230551Y364829D01*
Y366666D01*
X231309Y341159D02*
X231768Y340700D01*
Y339782D01*
X231309Y339322D01*
X229472D01*
X229013Y339782D01*
Y340700D01*
X229472Y341159D01*
X231768Y343914D02*
Y342077D01*
X230391D01*
X230850Y342996D01*
Y343455D01*
X230391Y343914D01*
X229472D01*
X229013Y343455D01*
Y342537D01*
X229472Y342077D01*
X231309Y344832D02*
X231768Y345292D01*
Y346210D01*
X231309Y346669D01*
X230850D01*
X230391Y346210D01*
Y345751D01*
Y346210D01*
X229931Y346669D01*
X229472D01*
X229013Y346210D01*
Y345292D01*
X229472Y344832D01*
X143335Y32816D02*
X143794Y33275D01*
X144712D01*
X145171Y32816D01*
Y30979D01*
X144712Y30520D01*
X143794D01*
X143335Y30979D01*
X140580Y30520D02*
X142416D01*
X140580Y32357D01*
Y32816D01*
X141039Y33275D01*
X141957D01*
X142416Y32816D01*
X138284Y30520D02*
Y33275D01*
X139661Y31898D01*
X137824D01*
X135070Y32816D02*
X135529Y33275D01*
X136447D01*
X136906Y32816D01*
Y30979D01*
X136447Y30520D01*
X135529D01*
X135070Y30979D01*
X167813Y146627D02*
X168272Y147086D01*
X169190D01*
X169649Y146627D01*
Y144790D01*
X169190Y144331D01*
X168272D01*
X167813Y144790D01*
X165058Y144331D02*
X166894D01*
X165058Y146168D01*
Y146627D01*
X165517Y147086D01*
X166435D01*
X166894Y146627D01*
X162762Y144331D02*
Y147086D01*
X164139Y145709D01*
X162303D01*
X161384Y147086D02*
Y144331D01*
X160007D01*
X159548Y144790D01*
Y145249D01*
X160007Y145709D01*
X161384D01*
X160007D01*
X159548Y146168D01*
Y146627D01*
X160007Y147086D01*
X161384D01*
X181728Y280965D02*
X182187Y281425D01*
X183106D01*
X183565Y280965D01*
Y279129D01*
X183106Y278670D01*
X182187D01*
X181728Y279129D01*
X178973Y278670D02*
X180810D01*
X178973Y280506D01*
Y280965D01*
X179432Y281425D01*
X180351D01*
X180810Y280965D01*
X176677Y278670D02*
Y281425D01*
X178055Y280047D01*
X176218D01*
X175300Y278670D02*
Y280506D01*
X174382Y281425D01*
X173463Y280506D01*
Y278670D01*
Y280047D01*
X175300D01*
X45301Y46391D02*
X45760Y46850D01*
X46678D01*
X47137Y46391D01*
Y44554D01*
X46678Y44095D01*
X45760D01*
X45301Y44554D01*
X42546Y44095D02*
X44383D01*
X42546Y45932D01*
Y46391D01*
X43005Y46850D01*
X43923D01*
X44383Y46391D01*
X41627D02*
X41168Y46850D01*
X40250D01*
X39791Y46391D01*
Y45932D01*
X40250Y45472D01*
X40709D01*
X40250D01*
X39791Y45013D01*
Y44554D01*
X40250Y44095D01*
X41168D01*
X41627Y44554D01*
X37036Y46391D02*
X37495Y46850D01*
X38413D01*
X38872Y46391D01*
Y44554D01*
X38413Y44095D01*
X37495D01*
X37036Y44554D01*
X45655Y162808D02*
X46114Y163267D01*
X47033D01*
X47492Y162808D01*
Y160971D01*
X47033Y160512D01*
X46114D01*
X45655Y160971D01*
X42900Y160512D02*
X44737D01*
X42900Y162349D01*
Y162808D01*
X43359Y163267D01*
X44278D01*
X44737Y162808D01*
X41982D02*
X41523Y163267D01*
X40604D01*
X40145Y162808D01*
Y162349D01*
X40604Y161890D01*
X41063D01*
X40604D01*
X40145Y161431D01*
Y160971D01*
X40604Y160512D01*
X41523D01*
X41982Y160971D01*
X39227Y163267D02*
Y160512D01*
X37849D01*
X37390Y160971D01*
Y161431D01*
X37849Y161890D01*
X39227D01*
X37849D01*
X37390Y162349D01*
Y162808D01*
X37849Y163267D01*
X39227D01*
X45065Y290682D02*
X45524Y291141D01*
X46442D01*
X46901Y290682D01*
Y288845D01*
X46442Y288386D01*
X45524D01*
X45065Y288845D01*
X42310Y288386D02*
X44146D01*
X42310Y290223D01*
Y290682D01*
X42769Y291141D01*
X43687D01*
X44146Y290682D01*
X41391D02*
X40932Y291141D01*
X40014D01*
X39555Y290682D01*
Y290223D01*
X40014Y289764D01*
X40473D01*
X40014D01*
X39555Y289305D01*
Y288845D01*
X40014Y288386D01*
X40932D01*
X41391Y288845D01*
X38636Y288386D02*
Y290223D01*
X37718Y291141D01*
X36799Y290223D01*
Y288386D01*
Y289764D01*
X38636D01*
X45780Y69895D02*
X46239Y70354D01*
X47157D01*
X47617Y69895D01*
Y68058D01*
X47157Y67599D01*
X46239D01*
X45780Y68058D01*
X44862Y67599D02*
X43943D01*
X44402D01*
Y70354D01*
X44862Y69895D01*
X40729Y70354D02*
X41647Y69895D01*
X42566Y68976D01*
Y68058D01*
X42107Y67599D01*
X41188D01*
X40729Y68058D01*
Y68517D01*
X41188Y68976D01*
X42566D01*
X37974Y69895D02*
X38433Y70354D01*
X39351D01*
X39811Y69895D01*
Y68058D01*
X39351Y67599D01*
X38433D01*
X37974Y68058D01*
X46134Y186312D02*
X46593Y186771D01*
X47512D01*
X47971Y186312D01*
Y184476D01*
X47512Y184016D01*
X46593D01*
X46134Y184476D01*
X45216Y184016D02*
X44298D01*
X44757D01*
Y186771D01*
X45216Y186312D01*
X41083Y186771D02*
X42002Y186312D01*
X42920Y185394D01*
Y184476D01*
X42461Y184016D01*
X41543D01*
X41083Y184476D01*
Y184935D01*
X41543Y185394D01*
X42920D01*
X40165Y186771D02*
Y184016D01*
X38787D01*
X38328Y184476D01*
Y184935D01*
X38787Y185394D01*
X40165D01*
X38787D01*
X38328Y185853D01*
Y186312D01*
X38787Y186771D01*
X40165D01*
X45544Y314186D02*
X46003Y314645D01*
X46921D01*
X47380Y314186D01*
Y312350D01*
X46921Y311890D01*
X46003D01*
X45544Y312350D01*
X44625Y311890D02*
X43707D01*
X44166D01*
Y314645D01*
X44625Y314186D01*
X40493Y314645D02*
X41411Y314186D01*
X42329Y313268D01*
Y312350D01*
X41870Y311890D01*
X40952D01*
X40493Y312350D01*
Y312809D01*
X40952Y313268D01*
X42329D01*
X39575Y311890D02*
Y313727D01*
X38656Y314645D01*
X37738Y313727D01*
Y311890D01*
Y313268D01*
X39575D01*
X108811Y70722D02*
X109271Y71181D01*
X110189D01*
X110648Y70722D01*
Y68885D01*
X110189Y68426D01*
X109271D01*
X108811Y68885D01*
X107893Y68426D02*
X106975D01*
X107434D01*
Y71181D01*
X107893Y70722D01*
X103761Y71181D02*
X105597D01*
Y69803D01*
X104679Y70262D01*
X104220D01*
X103761Y69803D01*
Y68885D01*
X104220Y68426D01*
X105138D01*
X105597Y68885D01*
X101005Y70722D02*
X101465Y71181D01*
X102383D01*
X102842Y70722D01*
Y68885D01*
X102383Y68426D01*
X101465D01*
X101005Y68885D01*
X109166Y187139D02*
X109625Y187598D01*
X110543D01*
X111002Y187139D01*
Y185302D01*
X110543Y184843D01*
X109625D01*
X109166Y185302D01*
X108247Y184843D02*
X107329D01*
X107788D01*
Y187598D01*
X108247Y187139D01*
X104115Y187598D02*
X105951D01*
Y186221D01*
X105033Y186680D01*
X104574D01*
X104115Y186221D01*
Y185302D01*
X104574Y184843D01*
X105492D01*
X105951Y185302D01*
X103197Y187598D02*
Y184843D01*
X101819D01*
X101360Y185302D01*
Y185761D01*
X101819Y186221D01*
X103197D01*
X101819D01*
X101360Y186680D01*
Y187139D01*
X101819Y187598D01*
X103197D01*
X108575Y315013D02*
X109034Y315472D01*
X109953D01*
X110412Y315013D01*
Y313176D01*
X109953Y312717D01*
X109034D01*
X108575Y313176D01*
X107657Y312717D02*
X106738D01*
X107198D01*
Y315472D01*
X107657Y315013D01*
X103524Y315472D02*
X105361D01*
Y314094D01*
X104443Y314554D01*
X103983D01*
X103524Y314094D01*
Y313176D01*
X103983Y312717D01*
X104902D01*
X105361Y313176D01*
X102606Y312717D02*
Y314554D01*
X101688Y315472D01*
X100769Y314554D01*
Y312717D01*
Y314094D01*
X102606D01*
X109029Y33630D02*
X109488Y33170D01*
Y32252D01*
X109029Y31793D01*
X107192D01*
X106733Y32252D01*
Y33170D01*
X107192Y33630D01*
X106733Y34548D02*
Y35466D01*
Y35007D01*
X109488D01*
X109029Y34548D01*
X106733Y38221D02*
X109488D01*
X108110Y36844D01*
Y38680D01*
X109029Y41436D02*
X109488Y40976D01*
Y40058D01*
X109029Y39599D01*
X107192D01*
X106733Y40058D01*
Y40976D01*
X107192Y41436D01*
X109462Y149929D02*
X109921Y149470D01*
Y148551D01*
X109462Y148092D01*
X107625D01*
X107166Y148551D01*
Y149470D01*
X107625Y149929D01*
X107166Y150847D02*
Y151766D01*
Y151306D01*
X109921D01*
X109462Y150847D01*
X107166Y154520D02*
X109921D01*
X108543Y153143D01*
Y154980D01*
X109921Y155898D02*
X107166D01*
Y157275D01*
X107625Y157735D01*
X108084D01*
X108543Y157275D01*
Y155898D01*
Y157275D01*
X109002Y157735D01*
X109462D01*
X109921Y157275D01*
Y155898D01*
X108792Y278157D02*
X109251Y277698D01*
Y276780D01*
X108792Y276320D01*
X106956D01*
X106497Y276780D01*
Y277698D01*
X106956Y278157D01*
X106497Y279076D02*
Y279994D01*
Y279535D01*
X109251D01*
X108792Y279076D01*
X106497Y282749D02*
X109251D01*
X107874Y281371D01*
Y283208D01*
X106497Y284126D02*
X108333D01*
X109251Y285045D01*
X108333Y285963D01*
X106497D01*
X107874D01*
Y284126D01*
X120367Y52960D02*
X120826Y52501D01*
Y51583D01*
X120367Y51124D01*
X118530D01*
X118071Y51583D01*
Y52501D01*
X118530Y52960D01*
X118071Y53879D02*
Y54797D01*
Y54338D01*
X120826D01*
X120367Y53879D01*
Y56174D02*
X120826Y56634D01*
Y57552D01*
X120367Y58011D01*
X119908D01*
X119449Y57552D01*
Y57093D01*
Y57552D01*
X118990Y58011D01*
X118530D01*
X118071Y57552D01*
Y56634D01*
X118530Y56174D01*
X120367Y60766D02*
X120826Y60307D01*
Y59389D01*
X120367Y58930D01*
X118530D01*
X118071Y59389D01*
Y60307D01*
X118530Y60766D01*
X120721Y169378D02*
X121181Y168918D01*
Y168000D01*
X120721Y167541D01*
X118885D01*
X118426Y168000D01*
Y168918D01*
X118885Y169378D01*
X118426Y170296D02*
Y171214D01*
Y170755D01*
X121181D01*
X120721Y170296D01*
Y172592D02*
X121181Y173051D01*
Y173969D01*
X120721Y174428D01*
X120262D01*
X119803Y173969D01*
Y173510D01*
Y173969D01*
X119344Y174428D01*
X118885D01*
X118426Y173969D01*
Y173051D01*
X118885Y172592D01*
X121181Y175347D02*
X118426D01*
Y176724D01*
X118885Y177183D01*
X119344D01*
X119803Y176724D01*
Y175347D01*
Y176724D01*
X120262Y177183D01*
X120721D01*
X121181Y176724D01*
Y175347D01*
X120131Y297252D02*
X120590Y296793D01*
Y295874D01*
X120131Y295415D01*
X118294D01*
X117835Y295874D01*
Y296793D01*
X118294Y297252D01*
X117835Y298170D02*
Y299088D01*
Y298629D01*
X120590D01*
X120131Y298170D01*
Y300466D02*
X120590Y300925D01*
Y301843D01*
X120131Y302303D01*
X119672D01*
X119213Y301843D01*
Y301384D01*
Y301843D01*
X118753Y302303D01*
X118294D01*
X117835Y301843D01*
Y300925D01*
X118294Y300466D01*
X117835Y303221D02*
X119672D01*
X120590Y304139D01*
X119672Y305058D01*
X117835D01*
X119213D01*
Y303221D01*
X187463Y57658D02*
X187922Y58118D01*
X188841D01*
X189300Y57658D01*
Y55822D01*
X188841Y55362D01*
X187922D01*
X187463Y55822D01*
X186545Y55362D02*
X185626D01*
X186085D01*
Y58118D01*
X186545Y57658D01*
X182412Y55362D02*
X184249D01*
X182412Y57199D01*
Y57658D01*
X182871Y58118D01*
X183790D01*
X184249Y57658D01*
X179657D02*
X180116Y58118D01*
X181035D01*
X181494Y57658D01*
Y55822D01*
X181035Y55362D01*
X180116D01*
X179657Y55822D01*
X210826Y171142D02*
X211220Y171535D01*
X212007D01*
X212400Y171142D01*
Y169567D01*
X212007Y169174D01*
X211220D01*
X210826Y169567D01*
X210039Y169174D02*
X209252D01*
X209645D01*
Y171535D01*
X210039Y171142D01*
X206497Y169174D02*
X208071D01*
X206497Y170748D01*
Y171142D01*
X206890Y171535D01*
X207677D01*
X208071Y171142D01*
X205710Y171535D02*
Y169174D01*
X204529D01*
X204135Y169567D01*
Y169961D01*
X204529Y170354D01*
X205710D01*
X204529D01*
X204135Y170748D01*
Y171142D01*
X204529Y171535D01*
X205710D01*
X224742Y305480D02*
X225135Y305873D01*
X225922D01*
X226316Y305480D01*
Y303906D01*
X225922Y303512D01*
X225135D01*
X224742Y303906D01*
X223955Y303512D02*
X223167D01*
X223561D01*
Y305873D01*
X223955Y305480D01*
X220412Y303512D02*
X221987D01*
X220412Y305086D01*
Y305480D01*
X220806Y305873D01*
X221593D01*
X221987Y305480D01*
X219625Y303512D02*
Y305086D01*
X218838Y305873D01*
X218051Y305086D01*
Y303512D01*
Y304693D01*
X219625D01*
X142440Y57651D02*
X142899Y58110D01*
X143818D01*
X144277Y57651D01*
Y55814D01*
X143818Y55355D01*
X142899D01*
X142440Y55814D01*
X141522Y55355D02*
X140603D01*
X141063D01*
Y58110D01*
X141522Y57651D01*
X139226Y55355D02*
X138307D01*
X138767D01*
Y58110D01*
X139226Y57651D01*
X135093D02*
X135553Y58110D01*
X136471D01*
X136930Y57651D01*
Y55814D01*
X136471Y55355D01*
X135553D01*
X135093Y55814D01*
X166918Y171462D02*
X167377Y171921D01*
X168296D01*
X168755Y171462D01*
Y169625D01*
X168296Y169166D01*
X167377D01*
X166918Y169625D01*
X166000Y169166D02*
X165081D01*
X165541D01*
Y171921D01*
X166000Y171462D01*
X163704Y169166D02*
X162786D01*
X163245D01*
Y171921D01*
X163704Y171462D01*
X161408Y171921D02*
Y169166D01*
X160030D01*
X159571Y169625D01*
Y170084D01*
X160030Y170543D01*
X161408D01*
X160030D01*
X159571Y171003D01*
Y171462D01*
X160030Y171921D01*
X161408D01*
X169566Y301076D02*
X170025Y301535D01*
X170944D01*
X171403Y301076D01*
Y299239D01*
X170944Y298780D01*
X170025D01*
X169566Y299239D01*
X168648Y298780D02*
X167729D01*
X168189D01*
Y301535D01*
X168648Y301076D01*
X166352Y298780D02*
X165434D01*
X165893D01*
Y301535D01*
X166352Y301076D01*
X164056Y298780D02*
Y300617D01*
X163138Y301535D01*
X162219Y300617D01*
Y298780D01*
Y300157D01*
X164056D01*
X509514Y373186D02*
X510433D01*
X509973D01*
Y370891D01*
X510433Y370431D01*
X510892D01*
X511351Y370891D01*
X506759Y370431D02*
X508596D01*
X506759Y372268D01*
Y372727D01*
X507218Y373186D01*
X508137D01*
X508596Y372727D01*
M02*
