G04*
G04 #@! TF.GenerationSoftware,Altium Limited,Altium Designer,24.1.2 (44)*
G04*
G04 Layer_Physical_Order=3*
G04 Layer_Color=16440176*
%FSLAX25Y25*%
%MOIN*%
G70*
G04*
G04 #@! TF.SameCoordinates,304B12A8-C408-4571-83BD-6C55B5D49174*
G04*
G04*
G04 #@! TF.FilePolarity,Positive*
G04*
G01*
G75*
%ADD13C,0.00787*%
%ADD86C,0.03937*%
%ADD90C,0.01772*%
%ADD91C,0.01181*%
%ADD94C,0.05906*%
%ADD98C,0.12598*%
%ADD99C,0.01968*%
G36*
X545972Y392535D02*
X547338Y392169D01*
X548645Y391628D01*
X549870Y390920D01*
X550993Y390059D01*
X551993Y389059D01*
X552854Y387937D01*
X553561Y386712D01*
X554103Y385405D01*
X554469Y384038D01*
X554654Y382636D01*
Y381928D01*
X554654Y11811D01*
X554654Y11104D01*
X554469Y9701D01*
X554103Y8335D01*
X553562Y7028D01*
X552854Y5803D01*
X551993Y4680D01*
X550993Y3680D01*
X549870Y2819D01*
X548645Y2112D01*
X547338Y1570D01*
X545972Y1204D01*
X544569Y1020D01*
X543862D01*
X11811Y1020D01*
X11104D01*
X9701Y1204D01*
X8335Y1570D01*
X7028Y2112D01*
X5803Y2819D01*
X4680Y3680D01*
X3680Y4680D01*
X2819Y5803D01*
X2112Y7028D01*
X1570Y8335D01*
X1204Y9701D01*
X1020Y11104D01*
X1020Y11811D01*
X1020Y99508D01*
X942Y99898D01*
X721Y100229D01*
X390Y100450D01*
X-0Y100527D01*
X-23910D01*
X-23934Y100522D01*
X-23960Y100526D01*
X-24345Y100507D01*
X-24419Y100489D01*
X-24494D01*
X-25251Y100338D01*
X-25344Y100300D01*
X-25442Y100280D01*
X-26155Y99985D01*
X-26239Y99929D01*
X-26332Y99891D01*
X-26974Y99462D01*
X-27044Y99391D01*
X-27128Y99335D01*
X-27674Y98789D01*
X-27729Y98706D01*
X-27801Y98635D01*
X-28229Y97993D01*
X-28268Y97900D01*
X-28324Y97817D01*
X-28619Y97104D01*
X-28638Y97005D01*
X-28677Y96913D01*
X-28828Y96156D01*
Y96080D01*
X-28846Y96007D01*
X-28865Y95621D01*
X-28861Y95596D01*
X-28866Y95571D01*
Y93209D01*
X-28866Y93098D01*
X-28951Y92894D01*
X-29107Y92738D01*
X-29311Y92653D01*
X-33834D01*
Y105413D01*
X-33839Y105439D01*
X-33836Y105464D01*
X-33855Y105850D01*
X-33873Y105923D01*
X-33873Y105998D01*
X-34023Y106755D01*
X-34062Y106848D01*
X-34082Y106946D01*
X-34377Y107659D01*
X-34433Y107743D01*
X-34471Y107835D01*
X-34900Y108477D01*
X-34971Y108548D01*
X-35026Y108632D01*
X-35572Y109177D01*
X-35656Y109233D01*
X-35727Y109304D01*
X-36368Y109733D01*
X-36461Y109772D01*
X-36545Y109827D01*
X-37258Y110123D01*
X-37356Y110142D01*
X-37449Y110181D01*
X-38206Y110331D01*
X-38282D01*
X-38355Y110350D01*
X-38741Y110369D01*
X-38766Y110365D01*
X-38791Y110370D01*
X-43071D01*
Y184807D01*
X-38004D01*
X-37971Y184814D01*
X-37937Y184809D01*
X-37321Y184850D01*
X-37224Y184876D01*
X-37123Y184882D01*
X-35932Y185202D01*
X-35813Y185261D01*
X-35686Y185303D01*
X-34618Y185920D01*
X-34518Y186008D01*
X-34407Y186082D01*
X-33535Y186954D01*
X-33461Y187065D01*
X-33373Y187165D01*
X-32756Y188233D01*
X-32713Y188360D01*
X-32654Y188479D01*
X-32335Y189671D01*
X-32326Y189804D01*
X-32300Y189935D01*
Y191168D01*
X-32326Y191299D01*
X-32335Y191432D01*
X-32654Y192623D01*
X-32713Y192743D01*
X-32756Y192869D01*
X-33373Y193937D01*
X-33461Y194037D01*
X-33535Y194148D01*
X-34407Y195020D01*
X-34518Y195094D01*
X-34618Y195182D01*
X-35686Y195799D01*
X-35813Y195842D01*
X-35932Y195901D01*
X-37123Y196220D01*
X-37224Y196227D01*
X-37321Y196253D01*
X-37937Y196293D01*
X-37971Y196289D01*
X-38004Y196295D01*
X-43071D01*
Y283331D01*
X-38791D01*
X-38766Y283336D01*
X-38741Y283332D01*
X-38355Y283351D01*
X-38282Y283369D01*
X-38206Y283369D01*
X-37449Y283520D01*
X-37356Y283558D01*
X-37258Y283578D01*
X-36545Y283873D01*
X-36461Y283929D01*
X-36368Y283967D01*
X-35727Y284396D01*
X-35656Y284467D01*
X-35572Y284523D01*
X-35026Y285069D01*
X-34971Y285152D01*
X-34900Y285223D01*
X-34471Y285865D01*
X-34432Y285958D01*
X-34377Y286041D01*
X-34081Y286754D01*
X-34062Y286853D01*
X-34023Y286946D01*
X-33873Y287703D01*
X-33873Y287778D01*
X-33854Y287852D01*
X-33835Y288237D01*
X-33839Y288263D01*
X-33834Y288287D01*
Y301047D01*
X-29421D01*
X-29421Y301047D01*
X-29421Y301047D01*
X-29311Y301047D01*
X-29107Y300963D01*
X-28951Y300807D01*
X-28866Y300603D01*
X-28866Y300492D01*
X-28866Y300492D01*
X-28866Y300492D01*
Y298130D01*
X-28861Y298105D01*
X-28865Y298080D01*
X-28846Y297694D01*
X-28828Y297621D01*
Y297545D01*
X-28677Y296788D01*
X-28638Y296695D01*
X-28619Y296597D01*
X-28324Y295884D01*
X-28268Y295800D01*
X-28229Y295708D01*
X-27801Y295066D01*
X-27730Y294995D01*
X-27674Y294911D01*
X-27128Y294366D01*
X-27044Y294310D01*
X-26974Y294239D01*
X-26332Y293810D01*
X-26239Y293772D01*
X-26155Y293716D01*
X-25442Y293421D01*
X-25344Y293401D01*
X-25251Y293362D01*
X-24494Y293212D01*
X-24419D01*
X-24345Y293194D01*
X-23959Y293175D01*
X-23934Y293178D01*
X-23910Y293173D01*
X-0D01*
X390Y293251D01*
X721Y293472D01*
X942Y293803D01*
X1020Y294193D01*
Y381890D01*
X1020Y382597D01*
X1204Y384000D01*
X1570Y385366D01*
X2112Y386673D01*
X2819Y387898D01*
X3680Y389020D01*
X4681Y390021D01*
X5803Y390882D01*
X7028Y391589D01*
X8335Y392130D01*
X9701Y392497D01*
X11104Y392681D01*
X11811Y392681D01*
X11811Y392681D01*
X11811Y392681D01*
X543862Y392720D01*
X544569D01*
X545972Y392535D01*
D02*
G37*
%LPC*%
G36*
X455728Y391556D02*
X455728Y391556D01*
X83583D01*
X83583Y391556D01*
X83183Y391476D01*
X82845Y391250D01*
X82347Y390752D01*
X82179Y390640D01*
X74615Y383076D01*
X74503Y382908D01*
X74362Y382767D01*
X74136Y382429D01*
X74056Y382029D01*
X74056Y382029D01*
Y316654D01*
X73732Y316330D01*
X73522Y315824D01*
Y315276D01*
X73732Y314769D01*
X74120Y314382D01*
X74626Y314172D01*
X74930D01*
X75179Y314162D01*
X75392Y313721D01*
Y313605D01*
X75602Y313099D01*
X75990Y312711D01*
X76496Y312501D01*
X77044D01*
X77551Y312711D01*
X77938Y313099D01*
X78148Y313605D01*
Y314154D01*
X77938Y314660D01*
X77814Y314784D01*
Y381318D01*
X83936Y387441D01*
X92815D01*
X93006Y386979D01*
X82589Y376561D01*
X82363Y376223D01*
X82283Y375823D01*
X82283Y375823D01*
Y215058D01*
X68849Y201624D01*
X68622Y201285D01*
X68543Y200886D01*
X68543Y200886D01*
Y184604D01*
X68543Y184604D01*
X68622Y184205D01*
X68849Y183866D01*
X76123Y176592D01*
Y73994D01*
X75999Y73870D01*
X75789Y73363D01*
Y72815D01*
X75999Y72309D01*
X76386Y71921D01*
X76893Y71711D01*
X76997D01*
X77441Y71694D01*
X77459Y71249D01*
Y71145D01*
X77669Y70638D01*
X78056Y70251D01*
X78563Y70041D01*
X79111D01*
X79618Y70251D01*
X80005Y70638D01*
X80215Y71145D01*
Y71693D01*
X80069Y72045D01*
Y72257D01*
X80080Y72315D01*
Y177158D01*
X80001Y177558D01*
X79775Y177896D01*
X79775Y177896D01*
X72048Y185624D01*
Y199866D01*
X85482Y213301D01*
X85708Y213639D01*
X85788Y214039D01*
X85788Y214039D01*
Y374804D01*
X95590Y384606D01*
X191787D01*
X193272Y383120D01*
X193272Y383120D01*
X193611Y382894D01*
X194010Y382815D01*
X194010Y382815D01*
X454784D01*
X489409Y348189D01*
Y348151D01*
X489619Y347645D01*
X490007Y347257D01*
X490513Y347047D01*
X491061D01*
X491568Y347257D01*
X491956Y347645D01*
X492165Y348151D01*
Y348699D01*
X491956Y349206D01*
X491874Y349288D01*
X491713Y349750D01*
X491882Y349933D01*
X492097Y350148D01*
X492307Y350655D01*
Y351203D01*
X492097Y351709D01*
X491709Y352097D01*
X491203Y352307D01*
X490655D01*
X490393Y352198D01*
X490357D01*
X484457Y358098D01*
X484669Y358530D01*
X484700Y358563D01*
X489961D01*
X490086Y358438D01*
X490592Y358228D01*
X491140D01*
X491647Y358438D01*
X492034Y358826D01*
X492244Y359332D01*
Y359880D01*
X492034Y360387D01*
X491960Y360461D01*
X491659Y360787D01*
X491960Y361114D01*
X492034Y361188D01*
X492244Y361694D01*
Y362243D01*
X492034Y362749D01*
X491647Y363137D01*
X491140Y363347D01*
X490592D01*
X490086Y363137D01*
X489961Y363012D01*
X484760D01*
X457132Y390640D01*
X456964Y390752D01*
X456466Y391250D01*
X456128Y391476D01*
X455728Y391556D01*
D02*
G37*
G36*
X188704Y383842D02*
X188704Y383842D01*
X99280D01*
X99280Y383842D01*
X98881Y383762D01*
X98542Y383536D01*
X98542Y383536D01*
X87884Y372878D01*
X87658Y372539D01*
X87578Y372140D01*
X87578Y372140D01*
Y210980D01*
X87078Y210679D01*
X86824Y210784D01*
X86276D01*
X85769Y210575D01*
X85382Y210187D01*
X85172Y209681D01*
Y209132D01*
X85382Y208626D01*
X85769Y208238D01*
X86276Y208029D01*
X86824D01*
X87078Y208134D01*
X87578Y207833D01*
Y201040D01*
X75041Y188503D01*
X74865D01*
X74359Y188293D01*
X73971Y187905D01*
X73761Y187399D01*
Y186850D01*
X73971Y186344D01*
X74359Y185956D01*
X74865Y185747D01*
X74970D01*
X75414Y185729D01*
X75432Y185285D01*
Y185180D01*
X75642Y184674D01*
X76029Y184286D01*
X76536Y184076D01*
X77084D01*
X77590Y184286D01*
X77978Y184674D01*
X78188Y185180D01*
Y185356D01*
X90738Y197906D01*
X90738Y197907D01*
X90964Y198245D01*
X91044Y198645D01*
X91044Y198645D01*
Y199822D01*
X91083Y200020D01*
X91083Y200020D01*
Y212639D01*
X91583Y212846D01*
X91700Y212730D01*
X92206Y212520D01*
X92754D01*
X93261Y212730D01*
X93648Y213117D01*
X93858Y213623D01*
Y214172D01*
X93648Y214678D01*
X93261Y215066D01*
X92754Y215276D01*
X92206D01*
X91700Y215066D01*
X91583Y214949D01*
X91083Y215156D01*
Y371121D01*
X100300Y380337D01*
X185243D01*
X185450Y379837D01*
X185211Y379598D01*
X185002Y379092D01*
Y378543D01*
X185211Y378037D01*
X185599Y377649D01*
X186105Y377439D01*
X186282D01*
X188455Y375266D01*
X188455Y375266D01*
X188794Y375040D01*
X189193Y374960D01*
X189373D01*
X189707Y374460D01*
X189685Y374408D01*
Y373860D01*
X189895Y373353D01*
X190283Y372966D01*
X190789Y372756D01*
X191337D01*
X191844Y372966D01*
X191968Y373090D01*
X449428D01*
X478227Y344291D01*
X478395Y344179D01*
X479279Y343295D01*
Y343119D01*
X479488Y342612D01*
X479876Y342225D01*
X480382Y342015D01*
X480931D01*
X481437Y342225D01*
X481825Y342612D01*
X482035Y343119D01*
Y343667D01*
X481825Y344173D01*
X481437Y344561D01*
X480981Y344750D01*
X480931Y344923D01*
X480932Y345270D01*
X480950Y345278D01*
X481338Y345666D01*
X481547Y346172D01*
Y346720D01*
X481338Y347227D01*
X480950Y347614D01*
X480443Y347824D01*
X479895D01*
X479722Y347752D01*
X450732Y376742D01*
X450700Y376763D01*
X450852Y377263D01*
X452395D01*
X472221Y357438D01*
Y357262D01*
X472431Y356755D01*
X472818Y356368D01*
X473325Y356158D01*
X473873D01*
X474379Y356368D01*
X474767Y356755D01*
X474977Y357262D01*
Y357810D01*
X474767Y358316D01*
X474685Y358398D01*
X474524Y358861D01*
X474693Y359044D01*
X474908Y359259D01*
X475118Y359765D01*
Y360314D01*
X474908Y360820D01*
X474521Y361208D01*
X474014Y361417D01*
X473838D01*
X454793Y380462D01*
X454455Y380689D01*
X454055Y380768D01*
X454055Y380768D01*
X192210D01*
X189845Y383133D01*
X189845Y383133D01*
X189845Y383133D01*
X189442Y383536D01*
X189103Y383762D01*
X188704Y383842D01*
D02*
G37*
G36*
X542510Y380315D02*
X541269D01*
X540052Y380073D01*
X538906Y379598D01*
X537874Y378908D01*
X536997Y378031D01*
X536307Y376999D01*
X535833Y375853D01*
X535591Y374636D01*
Y373395D01*
X535833Y372178D01*
X536307Y371032D01*
X536997Y370000D01*
X537874Y369123D01*
X538906Y368433D01*
X540052Y367958D01*
X541269Y367716D01*
X542510D01*
X543727Y367958D01*
X544874Y368433D01*
X545905Y369123D01*
X546783Y370000D01*
X547472Y371032D01*
X547947Y372178D01*
X548189Y373395D01*
Y374636D01*
X547947Y375853D01*
X547472Y376999D01*
X546783Y378031D01*
X545905Y378908D01*
X544874Y379598D01*
X543727Y380073D01*
X542510Y380315D01*
D02*
G37*
G36*
X236495Y370039D02*
X235946D01*
X235440Y369830D01*
X235052Y369442D01*
X234842Y368935D01*
Y368387D01*
X235052Y367881D01*
X235440Y367493D01*
X235946Y367284D01*
X236495D01*
X237001Y367493D01*
X237389Y367881D01*
X237598Y368387D01*
Y368935D01*
X237389Y369442D01*
X237001Y369830D01*
X236495Y370039D01*
D02*
G37*
G36*
X281534Y369016D02*
X280986D01*
X280479Y368806D01*
X280092Y368418D01*
X279882Y367912D01*
Y367364D01*
X280092Y366857D01*
X280479Y366470D01*
X280986Y366260D01*
X281534D01*
X282040Y366470D01*
X282428Y366857D01*
X282638Y367364D01*
Y367912D01*
X282428Y368418D01*
X282040Y368806D01*
X281534Y369016D01*
D02*
G37*
G36*
X117972Y362371D02*
X117423D01*
X116917Y362161D01*
X116529Y361773D01*
X116320Y361267D01*
Y360719D01*
X116529Y360212D01*
X116917Y359825D01*
X117423Y359615D01*
X117972D01*
X118478Y359825D01*
X118866Y360212D01*
X119075Y360719D01*
Y361267D01*
X118866Y361773D01*
X118478Y362161D01*
X117972Y362371D01*
D02*
G37*
G36*
X320509Y362008D02*
X319569D01*
X318701Y361648D01*
X318037Y360984D01*
X317677Y360116D01*
Y359176D01*
X318037Y358308D01*
X318701Y357643D01*
X319569Y357283D01*
X320509D01*
X321377Y357643D01*
X322042Y358308D01*
X322402Y359176D01*
Y360116D01*
X322042Y360984D01*
X321377Y361648D01*
X320509Y362008D01*
D02*
G37*
G36*
X217282Y358779D02*
X216734D01*
X216227Y358569D01*
X215840Y358181D01*
X215630Y357675D01*
Y357127D01*
X215840Y356620D01*
X216227Y356233D01*
X216734Y356023D01*
X217282D01*
X217789Y356233D01*
X218176Y356620D01*
X218386Y357127D01*
Y357675D01*
X218176Y358181D01*
X217789Y358569D01*
X217282Y358779D01*
D02*
G37*
G36*
X320509Y356102D02*
X319569D01*
X318701Y355743D01*
X318037Y355078D01*
X317677Y354210D01*
Y353270D01*
X318037Y352402D01*
X318701Y351738D01*
X319569Y351378D01*
X320509D01*
X321377Y351738D01*
X322042Y352402D01*
X322402Y353270D01*
Y354210D01*
X322042Y355078D01*
X321377Y355743D01*
X320509Y356102D01*
D02*
G37*
G36*
X151368Y352205D02*
X150820D01*
X150313Y351995D01*
X149925Y351607D01*
X149716Y351101D01*
Y350553D01*
X149925Y350046D01*
X150313Y349659D01*
X150820Y349449D01*
X151368D01*
X151874Y349659D01*
X152262Y350046D01*
X152472Y350553D01*
Y351101D01*
X152262Y351607D01*
X151874Y351995D01*
X151368Y352205D01*
D02*
G37*
G36*
X542510Y362008D02*
X541269D01*
X540052Y361766D01*
X538906Y361291D01*
X537874Y360601D01*
X536997Y359724D01*
X536307Y358692D01*
X535833Y357546D01*
X535591Y356329D01*
Y355088D01*
X535833Y353871D01*
X536307Y352725D01*
X536997Y351693D01*
X537874Y350816D01*
X538906Y350126D01*
X540052Y349652D01*
X541269Y349409D01*
X542510D01*
X543727Y349652D01*
X544874Y350126D01*
X545905Y350816D01*
X546783Y351693D01*
X547472Y352725D01*
X547947Y353871D01*
X548189Y355088D01*
Y356329D01*
X547947Y357546D01*
X547472Y358692D01*
X546783Y359724D01*
X545905Y360601D01*
X544874Y361291D01*
X543727Y361766D01*
X542510Y362008D01*
D02*
G37*
G36*
X29093Y348661D02*
X28545D01*
X28038Y348452D01*
X27651Y348064D01*
X27441Y347557D01*
Y347009D01*
X27651Y346503D01*
X28038Y346115D01*
X28545Y345905D01*
X29093D01*
X29599Y346115D01*
X29987Y346503D01*
X30197Y347009D01*
Y347557D01*
X29987Y348064D01*
X29599Y348452D01*
X29093Y348661D01*
D02*
G37*
G36*
X320509Y350197D02*
X319569D01*
X318701Y349837D01*
X318037Y349173D01*
X317677Y348305D01*
Y347365D01*
X318037Y346497D01*
X318701Y345832D01*
X319569Y345473D01*
X320509D01*
X321377Y345832D01*
X322042Y346497D01*
X322402Y347365D01*
Y348305D01*
X322042Y349173D01*
X321377Y349837D01*
X320509Y350197D01*
D02*
G37*
G36*
X36967Y346102D02*
X36419D01*
X35912Y345893D01*
X35525Y345505D01*
X35315Y344999D01*
Y344450D01*
X35525Y343944D01*
X35912Y343556D01*
X36419Y343347D01*
X36967D01*
X37473Y343556D01*
X37861Y343944D01*
X38071Y344450D01*
Y344999D01*
X37861Y345505D01*
X37473Y345893D01*
X36967Y346102D01*
D02*
G37*
G36*
X151987Y345323D02*
X151439D01*
X150933Y345114D01*
X150545Y344726D01*
X150335Y344220D01*
Y343671D01*
X150545Y343165D01*
X150933Y342777D01*
X151439Y342568D01*
X151987D01*
X152494Y342777D01*
X152881Y343165D01*
X153091Y343671D01*
Y344220D01*
X152881Y344726D01*
X152494Y345114D01*
X151987Y345323D01*
D02*
G37*
G36*
X124817Y344341D02*
X124269D01*
X123763Y344131D01*
X123375Y343743D01*
X123165Y343237D01*
Y342689D01*
X123375Y342182D01*
X123763Y341795D01*
X124269Y341585D01*
X124817D01*
X125324Y341795D01*
X125711Y342182D01*
X125921Y342689D01*
Y343237D01*
X125711Y343743D01*
X125324Y344131D01*
X124817Y344341D01*
D02*
G37*
G36*
X96219Y341102D02*
X95671D01*
X95164Y340893D01*
X94777Y340505D01*
X94567Y339999D01*
Y339450D01*
X94777Y338944D01*
X95164Y338556D01*
X95671Y338347D01*
X96219D01*
X96725Y338556D01*
X97113Y338944D01*
X97323Y339450D01*
Y339999D01*
X97113Y340505D01*
X96725Y340893D01*
X96219Y341102D01*
D02*
G37*
G36*
X513403Y335572D02*
X512855D01*
X512349Y335362D01*
X512204Y335217D01*
X204937D01*
X204937Y335217D01*
X204538Y335138D01*
X204199Y334911D01*
X204199Y334911D01*
X183539Y314251D01*
X183312Y313912D01*
X183233Y313513D01*
X183233Y313513D01*
Y306180D01*
X182963Y306059D01*
X182733Y306027D01*
X182395Y306365D01*
X181888Y306575D01*
X181340D01*
X180834Y306365D01*
X180446Y305977D01*
X180236Y305471D01*
Y304923D01*
X180446Y304416D01*
X180834Y304029D01*
X181340Y303819D01*
X181888D01*
X182395Y304029D01*
X182733Y304367D01*
X182963Y304335D01*
X183233Y304214D01*
Y184304D01*
X183087Y183952D01*
Y183404D01*
X183297Y182897D01*
X183685Y182510D01*
X184191Y182300D01*
X184739D01*
X185246Y182510D01*
X185461Y182725D01*
X185644Y182894D01*
X186106Y182732D01*
X186188Y182651D01*
X186695Y182441D01*
X187243D01*
X187749Y182651D01*
X188137Y183038D01*
X188347Y183545D01*
Y184093D01*
X188137Y184599D01*
X187749Y184987D01*
X187243Y185197D01*
X187067D01*
X186738Y185526D01*
Y312494D01*
X205956Y331712D01*
X511490D01*
X511847Y331355D01*
X511981Y331031D01*
X512369Y330643D01*
X512876Y330433D01*
X513424D01*
X513930Y330643D01*
X514318Y331031D01*
X514528Y331537D01*
Y332085D01*
X514318Y332592D01*
X514223Y332686D01*
X513941Y332992D01*
X514223Y333339D01*
X514297Y333413D01*
X514507Y333920D01*
Y334468D01*
X514297Y334974D01*
X513910Y335362D01*
X513403Y335572D01*
D02*
G37*
G36*
X480760Y329351D02*
X480212D01*
X479706Y329141D01*
X479521Y328957D01*
X208032D01*
X207632Y328878D01*
X207294Y328651D01*
X207294Y328651D01*
X196082Y317440D01*
X195856Y317102D01*
X195777Y316702D01*
X195777Y316702D01*
Y307403D01*
X188236Y299862D01*
X188009Y299524D01*
X187930Y299124D01*
X187930Y299124D01*
Y260312D01*
X187930Y260312D01*
X188009Y259913D01*
X188236Y259574D01*
X192145Y255664D01*
Y172701D01*
X162068Y142623D01*
X161841Y142284D01*
X161762Y141885D01*
X161762Y141885D01*
Y64754D01*
X161430Y64422D01*
X161221Y63916D01*
Y63368D01*
X161430Y62861D01*
X161818Y62473D01*
X162324Y62264D01*
X162629D01*
X162879Y62250D01*
X163091Y61813D01*
Y61690D01*
X163300Y61184D01*
X163688Y60796D01*
X164195Y60586D01*
X164743D01*
X165249Y60796D01*
X165637Y61184D01*
X165847Y61690D01*
Y62238D01*
X165637Y62745D01*
X165512Y62869D01*
Y141111D01*
X195344Y170943D01*
X195344Y170943D01*
X195571Y171282D01*
X195650Y171681D01*
X195650Y171681D01*
Y256684D01*
X195571Y257083D01*
X195344Y257422D01*
X195344Y257422D01*
X191435Y261332D01*
Y298105D01*
X198976Y305646D01*
X198976Y305646D01*
X199202Y305984D01*
X199254Y306247D01*
X199569Y306491D01*
X199781Y306570D01*
X199794Y306564D01*
X200343D01*
X200849Y306774D01*
X201237Y307162D01*
X201446Y307668D01*
Y308217D01*
X201237Y308723D01*
X200849Y309111D01*
X200343Y309320D01*
X199794D01*
X199781Y309315D01*
X199281Y309649D01*
Y315683D01*
X199776Y316177D01*
X200288Y315983D01*
X200448Y315597D01*
X200760Y315285D01*
Y314615D01*
X200760Y314615D01*
X200840Y314215D01*
X201066Y313877D01*
X201775Y313168D01*
X201775Y313168D01*
X202114Y312942D01*
X202388Y312887D01*
X202585Y312575D01*
X202639Y312362D01*
X202613Y312323D01*
X202533Y311923D01*
X202533Y311923D01*
Y311719D01*
X202221Y311406D01*
X202011Y310899D01*
Y310351D01*
X202221Y309845D01*
X202608Y309457D01*
X203115Y309247D01*
X203663D01*
X204169Y309457D01*
X204557Y309845D01*
X204767Y310351D01*
Y310899D01*
X204621Y311252D01*
Y311491D01*
X210157Y317027D01*
X311459D01*
X311793Y316527D01*
X311772Y316475D01*
Y315927D01*
X311981Y315420D01*
X312106Y315296D01*
Y285308D01*
X311504Y284706D01*
X311042Y284897D01*
Y285569D01*
X311082Y285630D01*
X311162Y286029D01*
X311162Y286030D01*
Y313741D01*
X311286Y313865D01*
X311496Y314372D01*
Y314920D01*
X311286Y315426D01*
X310899Y315814D01*
X310392Y316024D01*
X309844D01*
X309338Y315814D01*
X308950Y315426D01*
X308740Y314920D01*
Y314623D01*
X308476Y314281D01*
X308278Y314213D01*
X307875D01*
X307369Y314003D01*
X306981Y313615D01*
X306772Y313109D01*
Y312561D01*
X306981Y312054D01*
X306986Y312050D01*
Y257398D01*
X306986Y257398D01*
X307065Y256999D01*
X307292Y256660D01*
X316225Y247727D01*
X316225Y247727D01*
X316564Y247500D01*
X316963Y247421D01*
X322205D01*
X322330Y247297D01*
X322836Y247087D01*
X323384D01*
X323891Y247297D01*
X324278Y247684D01*
X324488Y248190D01*
Y248739D01*
X324457Y248815D01*
X324723Y249213D01*
X325229Y249422D01*
X325617Y249810D01*
X325827Y250317D01*
Y250865D01*
X325810Y250904D01*
X325945Y251404D01*
X326080Y251460D01*
X326451Y251614D01*
X326839Y252002D01*
X327049Y252508D01*
Y253056D01*
X326839Y253563D01*
X326451Y253950D01*
X325945Y254160D01*
X325397D01*
X324890Y253950D01*
X324766Y253826D01*
X317532D01*
X312616Y258741D01*
Y282867D01*
X313888Y284138D01*
X313888Y284138D01*
X314114Y284476D01*
X314193Y284876D01*
Y315296D01*
X314318Y315420D01*
X314528Y315927D01*
Y316475D01*
X314506Y316527D01*
X314840Y317027D01*
X487594D01*
X487717Y316904D01*
Y316891D01*
X487926Y316385D01*
X488314Y315997D01*
X488820Y315787D01*
X489369D01*
X489875Y315997D01*
X490263Y316385D01*
X490473Y316891D01*
Y317439D01*
X490263Y317946D01*
X490164Y318045D01*
X489973Y318457D01*
X490164Y318698D01*
X490344Y318879D01*
X490554Y319385D01*
Y319933D01*
X490344Y320440D01*
X489957Y320827D01*
X489450Y321037D01*
X488902D01*
X488396Y320827D01*
X488140Y320571D01*
X425194D01*
X424860Y321071D01*
X424882Y321124D01*
Y321672D01*
X424672Y322178D01*
X424285Y322566D01*
X423778Y322776D01*
X423230D01*
X422723Y322566D01*
X422336Y322178D01*
X422126Y321672D01*
Y321124D01*
X422148Y321071D01*
X421814Y320571D01*
X208950D01*
X208551Y320492D01*
X208212Y320266D01*
X208212Y320266D01*
X203348Y315401D01*
X202848Y315608D01*
Y315752D01*
X202994Y316104D01*
Y316652D01*
X202784Y317159D01*
X202396Y317546D01*
X202011Y317706D01*
X201816Y318218D01*
X208972Y325374D01*
X478893D01*
X479016Y325251D01*
Y325198D01*
X479225Y324692D01*
X479613Y324304D01*
X480120Y324095D01*
X480668D01*
X481174Y324304D01*
X481562Y324692D01*
X481772Y325198D01*
Y325746D01*
X481562Y326253D01*
X481465Y326350D01*
X481281Y326773D01*
X481465Y327003D01*
X481654Y327193D01*
X481864Y327699D01*
Y328247D01*
X481654Y328754D01*
X481267Y329141D01*
X480760Y329351D01*
D02*
G37*
G36*
X107412Y329419D02*
X99833D01*
Y321841D01*
X107412D01*
Y329419D01*
D02*
G37*
G36*
X27951Y323264D02*
X27403D01*
X26897Y323055D01*
X26509Y322667D01*
X26299Y322161D01*
Y321612D01*
X26509Y321106D01*
X26897Y320718D01*
X27403Y320508D01*
X27951D01*
X28458Y320718D01*
X28845Y321106D01*
X29055Y321612D01*
Y322161D01*
X28845Y322667D01*
X28458Y323055D01*
X27951Y323264D01*
D02*
G37*
G36*
X171573Y321890D02*
X171025D01*
X170519Y321680D01*
X170131Y321292D01*
X169921Y320786D01*
Y320238D01*
X170131Y319731D01*
X170519Y319344D01*
X171025Y319134D01*
X171573D01*
X172080Y319344D01*
X172467Y319731D01*
X172677Y320238D01*
Y320786D01*
X172467Y321292D01*
X172080Y321680D01*
X171573Y321890D01*
D02*
G37*
G36*
X542510Y330315D02*
X541269D01*
X540052Y330073D01*
X538906Y329598D01*
X537874Y328908D01*
X536997Y328031D01*
X536307Y326999D01*
X535833Y325853D01*
X535591Y324636D01*
Y323395D01*
X535833Y322178D01*
X536307Y321032D01*
X536997Y320000D01*
X537874Y319123D01*
X538906Y318433D01*
X540052Y317958D01*
X541269Y317716D01*
X542510D01*
X543727Y317958D01*
X544874Y318433D01*
X545905Y319123D01*
X546783Y320000D01*
X547472Y321032D01*
X547947Y322178D01*
X548189Y323395D01*
Y324636D01*
X547947Y325853D01*
X547472Y326999D01*
X546783Y328031D01*
X545905Y328908D01*
X544874Y329598D01*
X543727Y330073D01*
X542510Y330315D01*
D02*
G37*
G36*
Y312008D02*
X541269D01*
X540052Y311766D01*
X538906Y311291D01*
X537874Y310601D01*
X536997Y309724D01*
X536307Y308692D01*
X535833Y307546D01*
X535591Y306329D01*
Y305088D01*
X535833Y303871D01*
X536307Y302725D01*
X536997Y301693D01*
X537874Y300816D01*
X538906Y300126D01*
X540052Y299652D01*
X541269Y299409D01*
X542510D01*
X543727Y299652D01*
X544874Y300126D01*
X545905Y300816D01*
X546783Y301693D01*
X547472Y302725D01*
X547947Y303871D01*
X548189Y305088D01*
Y306329D01*
X547947Y307546D01*
X547472Y308692D01*
X546783Y309724D01*
X545905Y310601D01*
X544874Y311291D01*
X543727Y311766D01*
X542510Y312008D01*
D02*
G37*
G36*
X119349Y301629D02*
X118801D01*
X118295Y301419D01*
X117907Y301032D01*
X117697Y300525D01*
Y299977D01*
X117907Y299471D01*
X118295Y299083D01*
X118801Y298873D01*
X119349D01*
X119856Y299083D01*
X120243Y299471D01*
X120453Y299977D01*
Y300525D01*
X120243Y301032D01*
X119856Y301419D01*
X119349Y301629D01*
D02*
G37*
G36*
X28109Y300905D02*
X27561D01*
X27054Y300696D01*
X26667Y300308D01*
X26457Y299802D01*
Y299254D01*
X26667Y298747D01*
X27054Y298359D01*
X27561Y298150D01*
X28109D01*
X28615Y298359D01*
X29003Y298747D01*
X29213Y299254D01*
Y299802D01*
X29003Y300308D01*
X28615Y300696D01*
X28109Y300905D01*
D02*
G37*
G36*
X378836Y311614D02*
X377070D01*
X375325Y311338D01*
X373646Y310792D01*
X372072Y309990D01*
X370643Y308952D01*
X369394Y307703D01*
X368356Y306275D01*
X367554Y304701D01*
X367009Y303021D01*
X366732Y301277D01*
Y299511D01*
X367009Y297766D01*
X367554Y296087D01*
X368356Y294513D01*
X369394Y293084D01*
X370643Y291835D01*
X372072Y290797D01*
X373646Y289995D01*
X375325Y289450D01*
X377070Y289173D01*
X378836D01*
X380580Y289450D01*
X382260Y289995D01*
X383834Y290797D01*
X385262Y291835D01*
X386511Y293084D01*
X387549Y294513D01*
X388351Y296087D01*
X388897Y297766D01*
X389173Y299511D01*
Y301277D01*
X388897Y303021D01*
X388351Y304701D01*
X387549Y306275D01*
X386511Y307703D01*
X385262Y308952D01*
X383834Y309990D01*
X382260Y310792D01*
X380580Y311338D01*
X378836Y311614D01*
D02*
G37*
G36*
X288285D02*
X286519D01*
X284774Y311338D01*
X283094Y310792D01*
X281521Y309990D01*
X280092Y308952D01*
X278843Y307703D01*
X277805Y306275D01*
X277003Y304701D01*
X276457Y303021D01*
X276181Y301277D01*
Y299511D01*
X276457Y297766D01*
X277003Y296087D01*
X277805Y294513D01*
X278843Y293084D01*
X280092Y291835D01*
X281521Y290797D01*
X283094Y289995D01*
X284774Y289450D01*
X286519Y289173D01*
X288285D01*
X290029Y289450D01*
X291709Y289995D01*
X293282Y290797D01*
X294711Y291835D01*
X295960Y293084D01*
X296998Y294513D01*
X297800Y296087D01*
X298346Y297766D01*
X298622Y299511D01*
Y301277D01*
X298346Y303021D01*
X297800Y304701D01*
X296998Y306275D01*
X295960Y307703D01*
X294711Y308952D01*
X293282Y309990D01*
X291709Y310792D01*
X290029Y311338D01*
X288285Y311614D01*
D02*
G37*
G36*
X230353Y289370D02*
X229805D01*
X229298Y289160D01*
X228911Y288773D01*
X228701Y288266D01*
Y287718D01*
X228911Y287212D01*
X229298Y286824D01*
X229805Y286614D01*
X230353D01*
X230859Y286824D01*
X231247Y287212D01*
X231457Y287718D01*
Y288266D01*
X231247Y288773D01*
X230859Y289160D01*
X230353Y289370D01*
D02*
G37*
G36*
X103188Y287402D02*
X102639D01*
X102133Y287192D01*
X101745Y286804D01*
X101535Y286298D01*
Y285750D01*
X101745Y285243D01*
X102133Y284856D01*
X102639Y284646D01*
X103188D01*
X103694Y284856D01*
X104082Y285243D01*
X104291Y285750D01*
Y286298D01*
X104082Y286804D01*
X103694Y287192D01*
X103188Y287402D01*
D02*
G37*
G36*
X165392Y283543D02*
X164844D01*
X164338Y283334D01*
X163950Y282946D01*
X163740Y282439D01*
Y281891D01*
X163950Y281385D01*
X164338Y280997D01*
X164844Y280787D01*
X165392D01*
X165899Y280997D01*
X166286Y281385D01*
X166496Y281891D01*
Y282439D01*
X166286Y282946D01*
X165899Y283334D01*
X165392Y283543D01*
D02*
G37*
G36*
X151633Y282922D02*
X151085D01*
X150578Y282712D01*
X150191Y282325D01*
X149981Y281818D01*
Y281270D01*
X150191Y280764D01*
X150578Y280376D01*
X151085Y280166D01*
X151633D01*
X152139Y280376D01*
X152527Y280764D01*
X152737Y281270D01*
Y281818D01*
X152527Y282325D01*
X152139Y282712D01*
X151633Y282922D01*
D02*
G37*
G36*
X94822Y279300D02*
X94274D01*
X93767Y279090D01*
X93380Y278702D01*
X93170Y278196D01*
Y277648D01*
X93380Y277141D01*
X93767Y276754D01*
X94274Y276544D01*
X94822D01*
X95328Y276754D01*
X95716Y277141D01*
X95926Y277648D01*
Y278196D01*
X95716Y278702D01*
X95328Y279090D01*
X94822Y279300D01*
D02*
G37*
G36*
X216298Y277323D02*
X215750D01*
X215243Y277113D01*
X214856Y276725D01*
X214646Y276219D01*
Y275671D01*
X214856Y275164D01*
X215243Y274777D01*
X215750Y274567D01*
X216298D01*
X216804Y274777D01*
X217192Y275164D01*
X217402Y275671D01*
Y276219D01*
X217192Y276725D01*
X216804Y277113D01*
X216298Y277323D01*
D02*
G37*
G36*
X417833Y277283D02*
X417285D01*
X416779Y277074D01*
X416391Y276686D01*
X416181Y276180D01*
Y275631D01*
X416391Y275125D01*
X416779Y274737D01*
X417285Y274528D01*
X417833D01*
X418340Y274737D01*
X418727Y275125D01*
X418937Y275631D01*
Y276180D01*
X418727Y276686D01*
X418340Y277074D01*
X417833Y277283D01*
D02*
G37*
G36*
X528113Y282920D02*
X527002D01*
X525929Y282632D01*
X524967Y282077D01*
X524181Y281291D01*
X523626Y280329D01*
X523338Y279256D01*
Y278145D01*
X523626Y277073D01*
X524181Y276111D01*
X524967Y275325D01*
X525929Y274770D01*
X527002Y274482D01*
X528113D01*
X529185Y274770D01*
X530148Y275325D01*
X530933Y276111D01*
X531488Y277073D01*
X531776Y278145D01*
Y279256D01*
X531488Y280329D01*
X530933Y281291D01*
X530148Y282077D01*
X529185Y282632D01*
X528113Y282920D01*
D02*
G37*
G36*
X488112D02*
X487002D01*
X485929Y282632D01*
X484967Y282077D01*
X484181Y281291D01*
X483626Y280329D01*
X483338Y279256D01*
Y278145D01*
X483626Y277073D01*
X484181Y276111D01*
X484967Y275325D01*
X485929Y274770D01*
X487002Y274482D01*
X488112D01*
X489185Y274770D01*
X490147Y275325D01*
X490933Y276111D01*
X491488Y277073D01*
X491776Y278145D01*
Y279256D01*
X491488Y280329D01*
X490933Y281291D01*
X490147Y282077D01*
X489185Y282632D01*
X488112Y282920D01*
D02*
G37*
G36*
X165661Y276844D02*
X165113D01*
X164606Y276634D01*
X164219Y276246D01*
X164009Y275740D01*
Y275191D01*
X164219Y274685D01*
X164606Y274297D01*
X165113Y274088D01*
X165661D01*
X166167Y274297D01*
X166555Y274685D01*
X166765Y275191D01*
Y275740D01*
X166555Y276246D01*
X166167Y276634D01*
X165661Y276844D01*
D02*
G37*
G36*
X-4568Y276575D02*
X-5117D01*
X-5623Y276365D01*
X-6011Y275978D01*
X-6220Y275471D01*
Y274923D01*
X-6011Y274416D01*
X-5623Y274029D01*
X-5117Y273819D01*
X-4568D01*
X-4062Y274029D01*
X-3674Y274416D01*
X-3464Y274923D01*
Y275471D01*
X-3674Y275978D01*
X-4062Y276365D01*
X-4568Y276575D01*
D02*
G37*
G36*
X-21694Y272795D02*
X-22242D01*
X-22749Y272586D01*
X-23137Y272198D01*
X-23346Y271691D01*
Y271143D01*
X-23137Y270637D01*
X-22749Y270249D01*
X-22242Y270040D01*
X-21694D01*
X-21188Y270249D01*
X-20800Y270637D01*
X-20591Y271143D01*
Y271691D01*
X-20800Y272198D01*
X-21188Y272586D01*
X-21694Y272795D01*
D02*
G37*
G36*
X323186Y274646D02*
X322247D01*
X321378Y274286D01*
X320714Y273622D01*
X320354Y272753D01*
Y271814D01*
X320714Y270945D01*
X321378Y270281D01*
X322247Y269921D01*
X323186D01*
X324055Y270281D01*
X324719Y270945D01*
X325079Y271814D01*
Y272753D01*
X324719Y273622D01*
X324055Y274286D01*
X323186Y274646D01*
D02*
G37*
G36*
X316021D02*
X315081D01*
X314213Y274286D01*
X313549Y273622D01*
X313189Y272753D01*
Y271814D01*
X313549Y270945D01*
X314213Y270281D01*
X315081Y269921D01*
X316021D01*
X316889Y270281D01*
X317554Y270945D01*
X317913Y271814D01*
Y272753D01*
X317554Y273622D01*
X316889Y274286D01*
X316021Y274646D01*
D02*
G37*
G36*
X427243Y270197D02*
X426694D01*
X426188Y269987D01*
X425800Y269599D01*
X425591Y269093D01*
Y268545D01*
X425800Y268038D01*
X426188Y267651D01*
X426694Y267441D01*
X427243D01*
X427749Y267651D01*
X428137Y268038D01*
X428346Y268545D01*
Y269093D01*
X428137Y269599D01*
X427749Y269987D01*
X427243Y270197D01*
D02*
G37*
G36*
X323186Y268740D02*
X322247D01*
X321378Y268381D01*
X320714Y267716D01*
X320354Y266848D01*
Y265908D01*
X320714Y265040D01*
X321378Y264375D01*
X322247Y264016D01*
X323186D01*
X324055Y264375D01*
X324719Y265040D01*
X325079Y265908D01*
Y266848D01*
X324719Y267716D01*
X324055Y268381D01*
X323186Y268740D01*
D02*
G37*
G36*
X316021D02*
X315081D01*
X314213Y268381D01*
X313549Y267716D01*
X313189Y266848D01*
Y265908D01*
X313549Y265040D01*
X314213Y264375D01*
X315081Y264016D01*
X316021D01*
X316889Y264375D01*
X317554Y265040D01*
X317913Y265908D01*
Y266848D01*
X317554Y267716D01*
X316889Y268381D01*
X316021Y268740D01*
D02*
G37*
G36*
X-25676Y263695D02*
X-26224D01*
X-26731Y263485D01*
X-27119Y263098D01*
X-27328Y262591D01*
Y262346D01*
X-27828Y262139D01*
X-27960Y262270D01*
X-28466Y262480D01*
X-29014D01*
X-29521Y262270D01*
X-29908Y261883D01*
X-30118Y261377D01*
Y260828D01*
X-29908Y260322D01*
X-29521Y259934D01*
X-29014Y259724D01*
X-28466D01*
X-27960Y259934D01*
X-27572Y260322D01*
X-27362Y260828D01*
Y261073D01*
X-26862Y261280D01*
X-26731Y261149D01*
X-26224Y260939D01*
X-25676D01*
X-25170Y261149D01*
X-24782Y261537D01*
X-24573Y262043D01*
Y262591D01*
X-24782Y263098D01*
X-25170Y263485D01*
X-25676Y263695D01*
D02*
G37*
G36*
X114841Y261260D02*
X114293D01*
X113786Y261050D01*
X113399Y260662D01*
X113189Y260156D01*
Y259608D01*
X113399Y259101D01*
X113786Y258714D01*
X114293Y258504D01*
X114841D01*
X115348Y258714D01*
X115735Y259101D01*
X115945Y259608D01*
Y260156D01*
X115735Y260662D01*
X115348Y261050D01*
X114841Y261260D01*
D02*
G37*
G36*
X323186Y262835D02*
X322247D01*
X321378Y262475D01*
X320714Y261810D01*
X320354Y260942D01*
Y260003D01*
X320714Y259134D01*
X321378Y258470D01*
X322247Y258110D01*
X323186D01*
X324055Y258470D01*
X324719Y259134D01*
X325079Y260003D01*
Y260942D01*
X324719Y261810D01*
X324055Y262475D01*
X323186Y262835D01*
D02*
G37*
G36*
X316021D02*
X315081D01*
X314213Y262475D01*
X313549Y261810D01*
X313189Y260942D01*
Y260003D01*
X313549Y259134D01*
X314213Y258470D01*
X315081Y258110D01*
X316021D01*
X316889Y258470D01*
X317554Y259134D01*
X317913Y260003D01*
Y260942D01*
X317554Y261810D01*
X316889Y262475D01*
X316021Y262835D01*
D02*
G37*
G36*
X-4608Y260276D02*
X-5156D01*
X-5662Y260066D01*
X-6050Y259678D01*
X-6260Y259172D01*
Y258624D01*
X-6050Y258117D01*
X-5662Y257729D01*
X-5156Y257520D01*
X-4608D01*
X-4101Y257729D01*
X-3714Y258117D01*
X-3504Y258624D01*
Y259172D01*
X-3714Y259678D01*
X-4101Y260066D01*
X-4608Y260276D01*
D02*
G37*
G36*
X211338Y265246D02*
X210747Y265129D01*
X210246Y264794D01*
X198767Y253315D01*
X198432Y252814D01*
X198314Y252222D01*
Y169634D01*
X187288Y158608D01*
X186953Y158106D01*
X186836Y157515D01*
Y138858D01*
X186953Y138267D01*
X187288Y137765D01*
X187790Y137430D01*
X188381Y137313D01*
X188973Y137430D01*
X189474Y137765D01*
X189809Y138267D01*
X189927Y138858D01*
Y156875D01*
X200953Y167901D01*
X201288Y168402D01*
X201405Y168994D01*
Y251582D01*
X207491Y257667D01*
X208016Y257486D01*
X208162Y257133D01*
X208550Y256745D01*
X209057Y256535D01*
X209605D01*
X210111Y256745D01*
X210499Y257133D01*
X210709Y257639D01*
Y258188D01*
X210499Y258694D01*
X210111Y259082D01*
X209758Y259228D01*
X209577Y259753D01*
X212431Y262608D01*
X212766Y263109D01*
X212884Y263701D01*
X212766Y264292D01*
X212431Y264794D01*
X211930Y265129D01*
X211338Y265246D01*
D02*
G37*
G36*
X-7679Y258268D02*
X-8227D01*
X-8733Y258058D01*
X-9121Y257670D01*
X-9331Y257164D01*
Y256616D01*
X-9121Y256109D01*
X-8733Y255722D01*
X-8227Y255512D01*
X-7679D01*
X-7172Y255722D01*
X-6785Y256109D01*
X-6575Y256616D01*
Y257164D01*
X-6785Y257670D01*
X-7172Y258058D01*
X-7679Y258268D01*
D02*
G37*
G36*
X-35956Y258495D02*
X-36504D01*
X-37010Y258285D01*
X-37398Y257897D01*
X-37608Y257391D01*
Y256843D01*
X-37398Y256336D01*
X-37010Y255949D01*
X-36504Y255739D01*
X-36488D01*
X-36154Y255239D01*
X-36220Y255077D01*
Y254529D01*
X-36011Y254023D01*
X-35623Y253635D01*
X-35117Y253425D01*
X-34568D01*
X-34062Y253635D01*
X-33674Y254023D01*
X-33465Y254529D01*
Y255077D01*
X-33674Y255584D01*
X-34062Y255971D01*
X-34568Y256181D01*
X-34585D01*
X-34919Y256681D01*
X-34852Y256843D01*
Y257391D01*
X-35061Y257897D01*
X-35449Y258285D01*
X-35956Y258495D01*
D02*
G37*
G36*
X19650Y275415D02*
X19102D01*
X18596Y275205D01*
X18208Y274817D01*
X18075Y274495D01*
X-5213Y251207D01*
X-8175D01*
X-8651Y251113D01*
X-9055Y250843D01*
X-11234Y248664D01*
X-11504Y248260D01*
X-11599Y247784D01*
Y246657D01*
X-22348Y235908D01*
X-22670Y235774D01*
X-23058Y235387D01*
X-23268Y234880D01*
Y234332D01*
X-23058Y233826D01*
X-22670Y233438D01*
X-22164Y233228D01*
X-21616D01*
X-21109Y233438D01*
X-20721Y233826D01*
X-20588Y234148D01*
X-9474Y245262D01*
X-9205Y245665D01*
X-9110Y246142D01*
Y247268D01*
X-7660Y248719D01*
X-4698D01*
X-4221Y248813D01*
X-3818Y249083D01*
X8393Y261293D01*
X8817Y261010D01*
X8740Y260825D01*
Y260277D01*
X8950Y259771D01*
X9338Y259383D01*
X9679Y259242D01*
Y258711D01*
X9338Y258570D01*
X8950Y258182D01*
X8740Y257676D01*
Y257127D01*
X8950Y256621D01*
X9338Y256233D01*
X9679Y256092D01*
Y255562D01*
X9338Y255420D01*
X8950Y255032D01*
X8740Y254526D01*
Y253978D01*
X8950Y253471D01*
X9338Y253084D01*
X9844Y252874D01*
X10392D01*
X10899Y253084D01*
X11286Y253471D01*
X11496Y253978D01*
Y254526D01*
X11286Y255032D01*
X10899Y255420D01*
X10557Y255562D01*
Y256092D01*
X10899Y256233D01*
X11286Y256621D01*
X11496Y257127D01*
Y257676D01*
X11286Y258182D01*
X10899Y258570D01*
X10557Y258711D01*
Y259242D01*
X10899Y259383D01*
X11286Y259771D01*
X11496Y260277D01*
Y260825D01*
X11286Y261332D01*
X10899Y261719D01*
X10392Y261929D01*
X9844D01*
X9659Y261853D01*
X9376Y262276D01*
X19834Y272735D01*
X20157Y272868D01*
X20545Y273256D01*
X20754Y273762D01*
Y274311D01*
X20545Y274817D01*
X20157Y275205D01*
X19650Y275415D01*
D02*
G37*
G36*
X503211Y265738D02*
X501825D01*
X500465Y265468D01*
X499184Y264937D01*
X498032Y264167D01*
X497051Y263187D01*
X496281Y262034D01*
X495751Y260753D01*
X495480Y259394D01*
Y258008D01*
X495751Y256648D01*
X496281Y255367D01*
X497051Y254215D01*
X498032Y253235D01*
X499184Y252464D01*
X500465Y251934D01*
X501825Y251663D01*
X503211D01*
X504570Y251934D01*
X505851Y252464D01*
X507004Y253235D01*
X507984Y254215D01*
X508754Y255367D01*
X509285Y256648D01*
X509555Y258008D01*
Y259394D01*
X509285Y260753D01*
X508754Y262034D01*
X507984Y263187D01*
X507004Y264167D01*
X505851Y264937D01*
X504570Y265468D01*
X503211Y265738D01*
D02*
G37*
G36*
X352991Y258543D02*
X352443D01*
X351936Y258333D01*
X351548Y257946D01*
X351339Y257439D01*
Y257363D01*
X347439Y253463D01*
X347169Y253059D01*
X347075Y252583D01*
Y249022D01*
X346575Y248815D01*
X345981Y249409D01*
Y252510D01*
X346114Y252832D01*
Y253380D01*
X345904Y253887D01*
X345517Y254274D01*
X345010Y254484D01*
X344462D01*
X343956Y254274D01*
X343568Y253887D01*
X343358Y253380D01*
Y252832D01*
X343492Y252510D01*
Y248894D01*
X343586Y248417D01*
X343856Y248014D01*
X350364Y241506D01*
X350497Y241184D01*
X350885Y240796D01*
X351391Y240586D01*
X351939D01*
X352446Y240796D01*
X352834Y241184D01*
X353043Y241690D01*
Y242238D01*
X352834Y242745D01*
X352446Y243133D01*
X352123Y243266D01*
X352113Y243277D01*
X352230Y243867D01*
X352423Y243947D01*
X352811Y244334D01*
X353021Y244841D01*
Y245389D01*
X352811Y245895D01*
X352423Y246283D01*
X352101Y246416D01*
X349563Y248954D01*
Y252068D01*
X353490Y255994D01*
X353497Y255997D01*
X353885Y256385D01*
X354095Y256891D01*
Y257439D01*
X353885Y257946D01*
X353497Y258333D01*
X352991Y258543D01*
D02*
G37*
G36*
X-18400Y251102D02*
X-18949D01*
X-19455Y250893D01*
X-19843Y250505D01*
X-20053Y249998D01*
Y249450D01*
X-19843Y248944D01*
X-19455Y248556D01*
X-18949Y248346D01*
X-18400D01*
X-17894Y248556D01*
X-17506Y248944D01*
X-17297Y249450D01*
Y249998D01*
X-17506Y250505D01*
X-17894Y250893D01*
X-18400Y251102D01*
D02*
G37*
G36*
X107412Y255718D02*
X99833D01*
Y248140D01*
X107412D01*
Y255718D01*
D02*
G37*
G36*
X121416Y250787D02*
X120868D01*
X120361Y250578D01*
X119974Y250190D01*
X119764Y249683D01*
Y249135D01*
X119974Y248629D01*
X120361Y248241D01*
X120868Y248031D01*
X121416D01*
X121922Y248241D01*
X122310Y248629D01*
X122520Y249135D01*
Y249683D01*
X122310Y250190D01*
X121922Y250578D01*
X121416Y250787D01*
D02*
G37*
G36*
X277972Y250472D02*
X277424D01*
X276917Y250263D01*
X276529Y249875D01*
X276320Y249369D01*
Y248820D01*
X276529Y248314D01*
X276917Y247926D01*
X277424Y247716D01*
X277972D01*
X278478Y247926D01*
X278866Y248314D01*
X279076Y248820D01*
Y249369D01*
X278866Y249875D01*
X278478Y250263D01*
X277972Y250472D01*
D02*
G37*
G36*
X-30789Y253150D02*
X-31337D01*
X-31844Y252940D01*
X-32231Y252552D01*
X-32441Y252046D01*
Y251498D01*
X-32231Y250991D01*
X-31844Y250604D01*
X-31457Y250443D01*
X-31395Y250003D01*
X-31407Y249923D01*
X-31539Y249868D01*
X-31927Y249480D01*
X-32136Y248974D01*
Y248426D01*
X-31927Y247919D01*
X-31539Y247532D01*
X-31032Y247322D01*
X-30484D01*
X-29978Y247532D01*
X-29590Y247919D01*
X-29380Y248426D01*
Y248974D01*
X-29590Y249480D01*
X-29978Y249868D01*
X-30365Y250028D01*
X-30426Y250468D01*
X-30414Y250549D01*
X-30283Y250604D01*
X-29895Y250991D01*
X-29685Y251498D01*
Y252046D01*
X-29895Y252552D01*
X-30283Y252940D01*
X-30789Y253150D01*
D02*
G37*
G36*
X-6694Y247874D02*
X-7243D01*
X-7749Y247664D01*
X-8137Y247277D01*
X-8347Y246770D01*
Y246222D01*
X-8137Y245715D01*
X-7749Y245328D01*
X-7243Y245118D01*
X-6694D01*
X-6188Y245328D01*
X-5800Y245715D01*
X-5591Y246222D01*
Y246770D01*
X-5800Y247277D01*
X-6188Y247664D01*
X-6694Y247874D01*
D02*
G37*
G36*
X360237Y247692D02*
X359689D01*
X359183Y247482D01*
X358795Y247094D01*
X358585Y246588D01*
Y246040D01*
X358795Y245533D01*
X359183Y245146D01*
X359689Y244936D01*
X360237D01*
X360744Y245146D01*
X361132Y245533D01*
X361341Y246040D01*
Y246588D01*
X361132Y247094D01*
X360744Y247482D01*
X360237Y247692D01*
D02*
G37*
G36*
X-34608Y246457D02*
X-35156D01*
X-35662Y246247D01*
X-36050Y245859D01*
X-36260Y245353D01*
Y244805D01*
X-36050Y244298D01*
X-35662Y243911D01*
X-35156Y243701D01*
X-34608D01*
X-34101Y243911D01*
X-33714Y244298D01*
X-33504Y244805D01*
Y245353D01*
X-33714Y245859D01*
X-34101Y246247D01*
X-34608Y246457D01*
D02*
G37*
G36*
X276455Y245299D02*
X275907D01*
X275401Y245090D01*
X275013Y244702D01*
X274803Y244195D01*
Y243647D01*
X275013Y243141D01*
X275401Y242753D01*
X275907Y242543D01*
X276455D01*
X276962Y242753D01*
X277349Y243141D01*
X277559Y243647D01*
Y244195D01*
X277349Y244702D01*
X276962Y245090D01*
X276455Y245299D01*
D02*
G37*
G36*
X-20238Y244724D02*
X-20786D01*
X-21292Y244515D01*
X-21680Y244127D01*
X-21890Y243620D01*
Y243072D01*
X-21680Y242566D01*
X-21292Y242178D01*
X-20786Y241968D01*
X-20238D01*
X-19731Y242178D01*
X-19344Y242566D01*
X-19134Y243072D01*
Y243620D01*
X-19344Y244127D01*
X-19731Y244515D01*
X-20238Y244724D01*
D02*
G37*
G36*
X277285Y240318D02*
X276737D01*
X276230Y240108D01*
X275843Y239721D01*
X275633Y239214D01*
Y238666D01*
X275843Y238159D01*
X276230Y237772D01*
X276737Y237562D01*
X277285D01*
X277791Y237772D01*
X278179Y238159D01*
X278389Y238666D01*
Y239214D01*
X278179Y239721D01*
X277791Y240108D01*
X277285Y240318D01*
D02*
G37*
G36*
X-25435Y255748D02*
X-25983D01*
X-26489Y255538D01*
X-26877Y255151D01*
X-27087Y254644D01*
Y254096D01*
X-26877Y253590D01*
X-26752Y253465D01*
Y237705D01*
X-27231Y237476D01*
X-27737Y237686D01*
X-28285D01*
X-28792Y237476D01*
X-29179Y237088D01*
X-29389Y236582D01*
Y236034D01*
X-29179Y235527D01*
X-28792Y235139D01*
X-28285Y234930D01*
X-27737D01*
X-27231Y235139D01*
X-26752Y234911D01*
Y233500D01*
X-27252Y233166D01*
X-27403Y233228D01*
X-27951D01*
X-28458Y233019D01*
X-28845Y232631D01*
X-29055Y232124D01*
Y231576D01*
X-28845Y231070D01*
X-28458Y230682D01*
X-27951Y230472D01*
X-27403D01*
X-27252Y230535D01*
X-26752Y230201D01*
Y222991D01*
X-31279Y218465D01*
X-31455D01*
X-31962Y218255D01*
X-32349Y217867D01*
X-32559Y217361D01*
Y216812D01*
X-32349Y216306D01*
X-31962Y215918D01*
X-31455Y215709D01*
X-30907D01*
X-30400Y215918D01*
X-30013Y216306D01*
X-29803Y216812D01*
Y216989D01*
X-24971Y221821D01*
X-24744Y222160D01*
X-24665Y222559D01*
X-24665Y222559D01*
Y253465D01*
X-24541Y253590D01*
X-24331Y254096D01*
Y254644D01*
X-24541Y255151D01*
X-24928Y255538D01*
X-25435Y255748D01*
D02*
G37*
G36*
X10353Y245866D02*
X9805D01*
X9298Y245656D01*
X8911Y245269D01*
X8701Y244762D01*
Y244214D01*
X8911Y243708D01*
X9298Y243320D01*
X9640Y243179D01*
Y242648D01*
X9298Y242507D01*
X8911Y242119D01*
X8701Y241613D01*
Y241065D01*
X8911Y240558D01*
X9298Y240170D01*
X9640Y240029D01*
Y239499D01*
X9298Y239357D01*
X8911Y238969D01*
X8701Y238463D01*
Y237915D01*
X8911Y237408D01*
X9298Y237021D01*
X9805Y236811D01*
X10353D01*
X10859Y237021D01*
X11247Y237408D01*
X11457Y237915D01*
Y238463D01*
X11247Y238969D01*
X10859Y239357D01*
X10518Y239499D01*
Y240029D01*
X10859Y240170D01*
X11247Y240558D01*
X11457Y241065D01*
Y241613D01*
X11247Y242119D01*
X10859Y242507D01*
X10518Y242648D01*
Y243179D01*
X10859Y243320D01*
X11247Y243708D01*
X11457Y244214D01*
Y244762D01*
X11247Y245269D01*
X10859Y245656D01*
X10353Y245866D01*
D02*
G37*
G36*
X117814Y238946D02*
X117266D01*
X116759Y238736D01*
X116372Y238348D01*
X116162Y237842D01*
Y237294D01*
X116372Y236787D01*
X116759Y236399D01*
X117266Y236190D01*
X117814D01*
X118321Y236399D01*
X118708Y236787D01*
X118918Y237294D01*
Y237842D01*
X118708Y238348D01*
X118321Y238736D01*
X117814Y238946D01*
D02*
G37*
G36*
X237676Y237323D02*
X237127D01*
X236621Y237113D01*
X236233Y236725D01*
X236024Y236219D01*
Y235671D01*
X236233Y235164D01*
X236621Y234777D01*
X237127Y234567D01*
X237676D01*
X238182Y234777D01*
X238570Y235164D01*
X238779Y235671D01*
Y236219D01*
X238570Y236725D01*
X238182Y237113D01*
X237676Y237323D01*
D02*
G37*
G36*
X528113Y242919D02*
X527002D01*
X525929Y242632D01*
X524967Y242077D01*
X524181Y241291D01*
X523626Y240329D01*
X523338Y239256D01*
Y238145D01*
X523626Y237072D01*
X524181Y236110D01*
X524967Y235325D01*
X525929Y234770D01*
X527002Y234482D01*
X528113D01*
X529185Y234770D01*
X530148Y235325D01*
X530933Y236110D01*
X531488Y237072D01*
X531776Y238145D01*
Y239256D01*
X531488Y240329D01*
X530933Y241291D01*
X530148Y242077D01*
X529185Y242632D01*
X528113Y242919D01*
D02*
G37*
G36*
X488112D02*
X487002D01*
X485929Y242632D01*
X484967Y242077D01*
X484181Y241291D01*
X483626Y240329D01*
X483338Y239256D01*
Y238145D01*
X483626Y237072D01*
X484181Y236110D01*
X484967Y235325D01*
X485929Y234770D01*
X487002Y234482D01*
X488112D01*
X489185Y234770D01*
X490147Y235325D01*
X490933Y236110D01*
X491488Y237072D01*
X491776Y238145D01*
Y239256D01*
X491488Y240329D01*
X490933Y241291D01*
X490147Y242077D01*
X489185Y242632D01*
X488112Y242919D01*
D02*
G37*
G36*
X233699Y235118D02*
X233151D01*
X232645Y234908D01*
X232257Y234521D01*
X232047Y234014D01*
Y233466D01*
X232257Y232960D01*
X232645Y232572D01*
X233151Y232362D01*
X233699D01*
X234206Y232572D01*
X234593Y232960D01*
X234803Y233466D01*
Y234014D01*
X234593Y234521D01*
X234206Y234908D01*
X233699Y235118D01*
D02*
G37*
G36*
X-10159Y233228D02*
X-10707D01*
X-11214Y233019D01*
X-11601Y232631D01*
X-11811Y232124D01*
Y231576D01*
X-11601Y231070D01*
X-11214Y230682D01*
X-10707Y230472D01*
X-10159D01*
X-9652Y230682D01*
X-9265Y231070D01*
X-9055Y231576D01*
Y232124D01*
X-9265Y232631D01*
X-9652Y233019D01*
X-10159Y233228D01*
D02*
G37*
G36*
X-29450Y229134D02*
X-29998D01*
X-30505Y228924D01*
X-30893Y228537D01*
X-31102Y228030D01*
Y227482D01*
X-30893Y226975D01*
X-30505Y226588D01*
X-29998Y226378D01*
X-29450D01*
X-28944Y226588D01*
X-28556Y226975D01*
X-28346Y227482D01*
Y228030D01*
X-28556Y228537D01*
X-28944Y228924D01*
X-29450Y229134D01*
D02*
G37*
G36*
X-22482Y226260D02*
X-23030D01*
X-23537Y226050D01*
X-23924Y225662D01*
X-24134Y225156D01*
Y224608D01*
X-23924Y224101D01*
X-23537Y223714D01*
X-23030Y223504D01*
X-22482D01*
X-21975Y223714D01*
X-21588Y224101D01*
X-21378Y224608D01*
Y225156D01*
X-21588Y225662D01*
X-21975Y226050D01*
X-22482Y226260D01*
D02*
G37*
G36*
X115432Y222992D02*
X114883D01*
X114377Y222782D01*
X113989Y222395D01*
X113779Y221888D01*
Y221340D01*
X113989Y220834D01*
X114377Y220446D01*
X114883Y220236D01*
X115432D01*
X115938Y220446D01*
X116326Y220834D01*
X116535Y221340D01*
Y221888D01*
X116326Y222395D01*
X115938Y222782D01*
X115432Y222992D01*
D02*
G37*
G36*
X-35946Y222795D02*
X-36495D01*
X-37001Y222586D01*
X-37389Y222198D01*
X-37598Y221691D01*
Y221143D01*
X-37389Y220637D01*
X-37001Y220249D01*
X-36495Y220039D01*
X-35946D01*
X-35440Y220249D01*
X-35052Y220637D01*
X-34843Y221143D01*
Y221691D01*
X-35052Y222198D01*
X-35440Y222586D01*
X-35946Y222795D01*
D02*
G37*
G36*
X25943Y222323D02*
X25395D01*
X24889Y222113D01*
X24501Y221725D01*
X24291Y221219D01*
Y220671D01*
X24501Y220164D01*
X24889Y219777D01*
X25395Y219567D01*
X25943D01*
X26450Y219777D01*
X26838Y220164D01*
X27047Y220671D01*
Y221219D01*
X26838Y221725D01*
X26450Y222113D01*
X25943Y222323D01*
D02*
G37*
G36*
X528113Y226620D02*
X527002D01*
X525929Y226333D01*
X524967Y225777D01*
X524181Y224992D01*
X523626Y224030D01*
X523338Y222957D01*
Y221846D01*
X523626Y220773D01*
X524181Y219811D01*
X524967Y219026D01*
X525929Y218470D01*
X527002Y218183D01*
X528113D01*
X529185Y218470D01*
X530148Y219026D01*
X530933Y219811D01*
X531488Y220773D01*
X531776Y221846D01*
Y222957D01*
X531488Y224030D01*
X530933Y224992D01*
X530148Y225777D01*
X529185Y226333D01*
X528113Y226620D01*
D02*
G37*
G36*
X488112D02*
X487002D01*
X485929Y226333D01*
X484967Y225777D01*
X484181Y224992D01*
X483626Y224030D01*
X483338Y222957D01*
Y221846D01*
X483626Y220773D01*
X484181Y219811D01*
X484967Y219026D01*
X485929Y218470D01*
X487002Y218183D01*
X488112D01*
X489185Y218470D01*
X490147Y219026D01*
X490933Y219811D01*
X491488Y220773D01*
X491776Y221846D01*
Y222957D01*
X491488Y224030D01*
X490933Y224992D01*
X490147Y225777D01*
X489185Y226333D01*
X488112Y226620D01*
D02*
G37*
G36*
X152263Y220717D02*
X151715D01*
X151208Y220508D01*
X150821Y220120D01*
X150611Y219613D01*
Y219065D01*
X150821Y218559D01*
X151208Y218171D01*
X151715Y217961D01*
X152263D01*
X152769Y218171D01*
X153157Y218559D01*
X153367Y219065D01*
Y219613D01*
X153157Y220120D01*
X152769Y220508D01*
X152263Y220717D01*
D02*
G37*
G36*
X95885Y218788D02*
X95337D01*
X94830Y218578D01*
X94443Y218191D01*
X94233Y217684D01*
Y217136D01*
X94443Y216630D01*
X94830Y216242D01*
X95337Y216032D01*
X95885D01*
X96391Y216242D01*
X96779Y216630D01*
X96989Y217136D01*
Y217684D01*
X96779Y218191D01*
X96391Y218578D01*
X95885Y218788D01*
D02*
G37*
G36*
X404093Y217835D02*
X403545D01*
X403038Y217625D01*
X402651Y217237D01*
X402441Y216731D01*
Y216183D01*
X402651Y215676D01*
X403038Y215288D01*
X403545Y215079D01*
X404093D01*
X404599Y215288D01*
X404987Y215676D01*
X405197Y216183D01*
Y216731D01*
X404987Y217237D01*
X404599Y217625D01*
X404093Y217835D01*
D02*
G37*
G36*
X-36222Y216575D02*
X-36770D01*
X-37277Y216365D01*
X-37664Y215977D01*
X-37874Y215471D01*
Y214923D01*
X-37664Y214416D01*
X-37277Y214029D01*
X-36770Y213819D01*
X-36222D01*
X-35715Y214029D01*
X-35328Y214416D01*
X-35118Y214923D01*
Y215471D01*
X-35328Y215977D01*
X-35715Y216365D01*
X-36222Y216575D01*
D02*
G37*
G36*
X44600Y216493D02*
X44051D01*
X43545Y216283D01*
X43157Y215896D01*
X42947Y215389D01*
Y214841D01*
X43157Y214335D01*
X43545Y213947D01*
X44051Y213737D01*
X44600D01*
X45106Y213947D01*
X45494Y214335D01*
X45703Y214841D01*
Y215389D01*
X45494Y215896D01*
X45106Y216283D01*
X44600Y216493D01*
D02*
G37*
G36*
X313069Y215079D02*
X312521D01*
X312015Y214869D01*
X311627Y214481D01*
X311417Y213975D01*
Y213427D01*
X311627Y212920D01*
X312015Y212533D01*
X312521Y212323D01*
X313069D01*
X313576Y212533D01*
X313964Y212920D01*
X314173Y213427D01*
Y213975D01*
X313964Y214481D01*
X313576Y214869D01*
X313069Y215079D01*
D02*
G37*
G36*
X173857Y212244D02*
X173309D01*
X172802Y212034D01*
X172415Y211647D01*
X172205Y211140D01*
Y210592D01*
X172415Y210086D01*
X172802Y209698D01*
X173309Y209488D01*
X173857D01*
X174363Y209698D01*
X174751Y210086D01*
X174961Y210592D01*
Y211140D01*
X174751Y211647D01*
X174363Y212034D01*
X173857Y212244D01*
D02*
G37*
G36*
X206377Y211299D02*
X205828D01*
X205322Y211089D01*
X204934Y210702D01*
X204724Y210195D01*
Y209647D01*
X204934Y209141D01*
X205322Y208753D01*
X205828Y208543D01*
X206377D01*
X206883Y208753D01*
X207271Y209141D01*
X207480Y209647D01*
Y210195D01*
X207271Y210702D01*
X206883Y211089D01*
X206377Y211299D01*
D02*
G37*
G36*
X304880Y210630D02*
X304332D01*
X303825Y210421D01*
X303438Y210033D01*
X303228Y209526D01*
Y208978D01*
X303438Y208472D01*
X303825Y208084D01*
X304332Y207874D01*
X304880D01*
X305386Y208084D01*
X305774Y208472D01*
X305984Y208978D01*
Y209526D01*
X305774Y210033D01*
X305386Y210421D01*
X304880Y210630D01*
D02*
G37*
G36*
X-37389Y210475D02*
X-37937D01*
X-38443Y210265D01*
X-38831Y209878D01*
X-39041Y209371D01*
Y208823D01*
X-38831Y208316D01*
X-38443Y207929D01*
X-37937Y207719D01*
X-37389D01*
X-36882Y207929D01*
X-36495Y208316D01*
X-36285Y208823D01*
Y209371D01*
X-36495Y209878D01*
X-36882Y210265D01*
X-37389Y210475D01*
D02*
G37*
G36*
X305366Y206854D02*
X304818D01*
X304312Y206644D01*
X303924Y206257D01*
X303714Y205750D01*
Y205202D01*
X303924Y204696D01*
X304312Y204308D01*
X304818Y204098D01*
X305366D01*
X305873Y204308D01*
X306260Y204696D01*
X306470Y205202D01*
Y205750D01*
X306260Y206257D01*
X305873Y206644D01*
X305366Y206854D01*
D02*
G37*
G36*
X63778Y206732D02*
X63230D01*
X62723Y206522D01*
X62336Y206135D01*
X62126Y205628D01*
Y205080D01*
X62336Y204574D01*
X62723Y204186D01*
X63230Y203976D01*
X63778D01*
X64284Y204186D01*
X64672Y204574D01*
X64882Y205080D01*
Y205628D01*
X64672Y206135D01*
X64284Y206522D01*
X63778Y206732D01*
D02*
G37*
G36*
X395550Y279842D02*
X395002D01*
X394495Y279633D01*
X394107Y279245D01*
X393898Y278739D01*
Y278190D01*
X394107Y277684D01*
X394495Y277296D01*
X394817Y277163D01*
X421595Y250385D01*
Y197510D01*
X421690Y197034D01*
X421959Y196630D01*
X424073Y194516D01*
Y194411D01*
X424283Y193904D01*
X424671Y193517D01*
X425177Y193307D01*
X425725D01*
X426232Y193517D01*
X426619Y193904D01*
X426829Y194411D01*
Y194959D01*
X426619Y195466D01*
X426380Y195705D01*
X426331Y195778D01*
X424084Y198025D01*
Y206059D01*
X424584Y206158D01*
X424619Y206072D01*
X425007Y205685D01*
X425513Y205475D01*
X426061D01*
X426157Y205437D01*
X426516Y205122D01*
Y204746D01*
X426725Y204239D01*
X427113Y203852D01*
X427620Y203642D01*
X428168D01*
X428674Y203852D01*
X429062Y204239D01*
X429272Y204746D01*
Y205294D01*
X429062Y205800D01*
X428674Y206188D01*
X428168Y206398D01*
X427620D01*
X427524Y206436D01*
X427165Y206751D01*
Y207127D01*
X426956Y207634D01*
X426568Y208021D01*
X426061Y208231D01*
X425513D01*
X425007Y208021D01*
X424619Y207634D01*
X424584Y207548D01*
X424084Y207647D01*
Y250901D01*
X423989Y251377D01*
X423719Y251781D01*
X396577Y278923D01*
X396444Y279245D01*
X396056Y279633D01*
X395550Y279842D01*
D02*
G37*
G36*
X279649Y205989D02*
X279101D01*
X278595Y205780D01*
X278207Y205392D01*
X277997Y204886D01*
Y204337D01*
X278207Y203831D01*
X278595Y203443D01*
X279101Y203234D01*
X279649D01*
X280156Y203443D01*
X280543Y203831D01*
X280753Y204337D01*
Y204886D01*
X280543Y205392D01*
X280156Y205780D01*
X279649Y205989D01*
D02*
G37*
G36*
X176849Y204921D02*
X176301D01*
X175794Y204711D01*
X175407Y204324D01*
X175197Y203817D01*
Y203269D01*
X175407Y202763D01*
X175794Y202375D01*
X176301Y202165D01*
X176849D01*
X177355Y202375D01*
X177743Y202763D01*
X177953Y203269D01*
Y203817D01*
X177743Y204324D01*
X177355Y204711D01*
X176849Y204921D01*
D02*
G37*
G36*
X169685Y275207D02*
X169094Y275089D01*
X168592Y274754D01*
X168257Y274253D01*
X168140Y273661D01*
Y269091D01*
X161899Y262851D01*
X161564Y262349D01*
X161447Y261758D01*
Y203228D01*
X161564Y202637D01*
X161899Y202136D01*
X162401Y201801D01*
X162992Y201683D01*
X163584Y201801D01*
X164085Y202136D01*
X164420Y202637D01*
X164538Y203228D01*
Y261118D01*
X170778Y267358D01*
X171113Y267859D01*
X171231Y268451D01*
Y273661D01*
X171113Y274253D01*
X170778Y274754D01*
X170276Y275089D01*
X169685Y275207D01*
D02*
G37*
G36*
X-35553Y203740D02*
X-36101D01*
X-36607Y203530D01*
X-36995Y203143D01*
X-37205Y202636D01*
Y202088D01*
X-36995Y201582D01*
X-36607Y201194D01*
X-36101Y200984D01*
X-35553D01*
X-35046Y201194D01*
X-34659Y201582D01*
X-34449Y202088D01*
Y202636D01*
X-34659Y203143D01*
X-35046Y203530D01*
X-35553Y203740D01*
D02*
G37*
G36*
X286062Y203307D02*
X285513D01*
X285007Y203097D01*
X284619Y202710D01*
X284409Y202203D01*
Y201655D01*
X284619Y201149D01*
X285007Y200761D01*
X285513Y200551D01*
X286062D01*
X286568Y200761D01*
X286956Y201149D01*
X287165Y201655D01*
Y202203D01*
X286956Y202710D01*
X286568Y203097D01*
X286062Y203307D01*
D02*
G37*
G36*
X265510Y211107D02*
X264962D01*
X264456Y210897D01*
X264068Y210510D01*
X263858Y210003D01*
Y209455D01*
X264068Y208948D01*
X264222Y208794D01*
Y201880D01*
X264127Y201785D01*
X263917Y201278D01*
Y200730D01*
X264127Y200223D01*
X264515Y199836D01*
X265021Y199626D01*
X265569D01*
X266076Y199836D01*
X266463Y200223D01*
X266673Y200730D01*
Y201278D01*
X266463Y201785D01*
X266309Y201939D01*
Y208854D01*
X266404Y208948D01*
X266614Y209455D01*
Y210003D01*
X266404Y210510D01*
X266017Y210897D01*
X265510Y211107D01*
D02*
G37*
G36*
X-32912Y199764D02*
X-33460D01*
X-33966Y199554D01*
X-34354Y199166D01*
X-34564Y198660D01*
Y198112D01*
X-34354Y197605D01*
X-33966Y197218D01*
X-33460Y197008D01*
X-32912D01*
X-32405Y197218D01*
X-32018Y197605D01*
X-31808Y198112D01*
Y198660D01*
X-32018Y199166D01*
X-32405Y199554D01*
X-32912Y199764D01*
D02*
G37*
G36*
X107412Y204577D02*
X99833D01*
Y196998D01*
X107412D01*
Y204577D01*
D02*
G37*
G36*
X117892Y199705D02*
X117344D01*
X116838Y199495D01*
X116450Y199107D01*
X116240Y198601D01*
Y198053D01*
X116450Y197546D01*
X116838Y197159D01*
X117344Y196949D01*
X117892D01*
X118399Y197159D01*
X118786Y197546D01*
X118996Y198053D01*
Y198601D01*
X118786Y199107D01*
X118399Y199495D01*
X117892Y199705D01*
D02*
G37*
G36*
X117932Y192961D02*
X117384D01*
X116877Y192752D01*
X116490Y192364D01*
X116280Y191858D01*
Y191309D01*
X116490Y190803D01*
X116877Y190415D01*
X117384Y190205D01*
X117932D01*
X118439Y190415D01*
X118826Y190803D01*
X119036Y191309D01*
Y191858D01*
X118826Y192364D01*
X118439Y192752D01*
X117932Y192961D01*
D02*
G37*
G36*
X427951Y192953D02*
X427403D01*
X426897Y192743D01*
X426509Y192355D01*
X426299Y191849D01*
Y191301D01*
X426509Y190794D01*
X426897Y190407D01*
X427403Y190197D01*
X427951D01*
X428458Y190407D01*
X428845Y190794D01*
X429055Y191301D01*
Y191849D01*
X428845Y192355D01*
X428458Y192743D01*
X427951Y192953D01*
D02*
G37*
G36*
X455473Y247205D02*
X439646D01*
Y221260D01*
X473504Y187402D01*
Y187402D01*
X514173D01*
Y217441D01*
X485236D01*
X455473Y247205D01*
D02*
G37*
G36*
X354725Y184724D02*
X354177D01*
X353671Y184515D01*
X353283Y184127D01*
X353073Y183621D01*
Y183072D01*
X353283Y182566D01*
X353671Y182178D01*
X354177Y181968D01*
X354725D01*
X355232Y182178D01*
X355619Y182566D01*
X355829Y183072D01*
Y183621D01*
X355619Y184127D01*
X355232Y184515D01*
X354725Y184724D01*
D02*
G37*
G36*
X528113Y186620D02*
X527002D01*
X525929Y186333D01*
X524967Y185777D01*
X524181Y184992D01*
X523626Y184030D01*
X523338Y182957D01*
Y181846D01*
X523626Y180773D01*
X524181Y179811D01*
X524967Y179026D01*
X525929Y178470D01*
X527002Y178183D01*
X528113D01*
X529185Y178470D01*
X530148Y179026D01*
X530933Y179811D01*
X531488Y180773D01*
X531776Y181846D01*
Y182957D01*
X531488Y184030D01*
X530933Y184992D01*
X530148Y185777D01*
X529185Y186333D01*
X528113Y186620D01*
D02*
G37*
G36*
X488112D02*
X487002D01*
X485929Y186333D01*
X484967Y185777D01*
X484181Y184992D01*
X483626Y184030D01*
X483338Y182957D01*
Y181846D01*
X483626Y180773D01*
X484181Y179811D01*
X484967Y179026D01*
X485929Y178470D01*
X487002Y178183D01*
X488112D01*
X489185Y178470D01*
X490147Y179026D01*
X490933Y179811D01*
X491488Y180773D01*
X491776Y181846D01*
Y182957D01*
X491488Y184030D01*
X490933Y184992D01*
X490147Y185777D01*
X489185Y186333D01*
X488112Y186620D01*
D02*
G37*
G36*
X-34905Y180849D02*
X-35453D01*
X-35960Y180639D01*
X-36347Y180251D01*
X-36557Y179745D01*
Y179197D01*
X-36347Y178690D01*
X-35960Y178302D01*
X-35453Y178093D01*
X-34905D01*
X-34399Y178302D01*
X-34011Y178690D01*
X-33801Y179197D01*
Y179745D01*
X-34011Y180251D01*
X-34399Y180639D01*
X-34905Y180849D01*
D02*
G37*
G36*
X206416Y180787D02*
X205868D01*
X205361Y180578D01*
X204974Y180190D01*
X204764Y179683D01*
Y179135D01*
X204974Y178629D01*
X205361Y178241D01*
X205868Y178032D01*
X206416D01*
X206922Y178241D01*
X207310Y178629D01*
X207520Y179135D01*
Y179683D01*
X207310Y180190D01*
X206922Y180578D01*
X206416Y180787D01*
D02*
G37*
G36*
X368266Y179131D02*
X367718D01*
X367212Y178921D01*
X366824Y178534D01*
X366614Y178027D01*
Y177479D01*
X366824Y176973D01*
X367212Y176585D01*
X367718Y176375D01*
X368266D01*
X368773Y176585D01*
X369160Y176973D01*
X369370Y177479D01*
Y178027D01*
X369160Y178534D01*
X368773Y178921D01*
X368266Y179131D01*
D02*
G37*
G36*
X360314Y181890D02*
X359765D01*
X359259Y181680D01*
X358871Y181292D01*
X358661Y180786D01*
Y180238D01*
X358871Y179731D01*
X359259Y179344D01*
X359397Y179286D01*
Y178745D01*
X359259Y178688D01*
X358871Y178300D01*
X358661Y177794D01*
Y177246D01*
X358871Y176739D01*
X359259Y176351D01*
X359765Y176142D01*
X360314D01*
X360820Y176351D01*
X361208Y176739D01*
X361417Y177246D01*
Y177794D01*
X361208Y178300D01*
X360820Y178688D01*
X360682Y178745D01*
Y179286D01*
X360820Y179344D01*
X361208Y179731D01*
X361417Y180238D01*
Y180786D01*
X361208Y181292D01*
X360820Y181680D01*
X360314Y181890D01*
D02*
G37*
G36*
X102636Y178740D02*
X102088D01*
X101582Y178530D01*
X101194Y178143D01*
X100984Y177636D01*
Y177088D01*
X101194Y176582D01*
X101582Y176194D01*
X102088Y175984D01*
X102636D01*
X103143Y176194D01*
X103530Y176582D01*
X103740Y177088D01*
Y177636D01*
X103530Y178143D01*
X103143Y178530D01*
X102636Y178740D01*
D02*
G37*
G36*
X24762Y178583D02*
X24214D01*
X23708Y178373D01*
X23320Y177985D01*
X23110Y177479D01*
Y176931D01*
X23320Y176424D01*
X23708Y176037D01*
X24214Y175827D01*
X24762D01*
X25269Y176037D01*
X25656Y176424D01*
X25866Y176931D01*
Y177479D01*
X25656Y177985D01*
X25269Y178373D01*
X24762Y178583D01*
D02*
G37*
G36*
X-9805Y210197D02*
X-10353D01*
X-10859Y209987D01*
X-11247Y209599D01*
X-11457Y209093D01*
Y208545D01*
X-11247Y208038D01*
X-10859Y207651D01*
X-10537Y207517D01*
X-8725Y205705D01*
Y175199D01*
X-9002Y175046D01*
X-9225Y174966D01*
X-9687Y175158D01*
X-10235D01*
X-10741Y174948D01*
X-11129Y174560D01*
X-11339Y174054D01*
Y173505D01*
X-11129Y172999D01*
X-10741Y172611D01*
X-10235Y172402D01*
X-9687D01*
X-9225Y172593D01*
X-9002Y172513D01*
X-8725Y172360D01*
Y154724D01*
X-8630Y154248D01*
X-8360Y153844D01*
X20380Y125104D01*
X20784Y124835D01*
X21260Y124740D01*
X25388D01*
X25710Y124606D01*
X26258D01*
X26765Y124816D01*
X27152Y125204D01*
X27362Y125710D01*
Y126258D01*
X27152Y126765D01*
X26765Y127152D01*
X26258Y127362D01*
X25710D01*
X25388Y127229D01*
X21775D01*
X-6236Y155240D01*
Y206221D01*
X-6331Y206697D01*
X-6600Y207100D01*
X-8777Y209277D01*
X-8911Y209599D01*
X-9298Y209987D01*
X-9805Y210197D01*
D02*
G37*
G36*
X160789Y176878D02*
X160241D01*
X159735Y176668D01*
X159347Y176281D01*
X159137Y175774D01*
Y175226D01*
X159347Y174720D01*
X159735Y174332D01*
X160241Y174122D01*
X160789D01*
X161296Y174332D01*
X161683Y174720D01*
X161893Y175226D01*
Y175774D01*
X161683Y176281D01*
X161296Y176668D01*
X160789Y176878D01*
D02*
G37*
G36*
X41809Y175709D02*
X41261D01*
X40755Y175499D01*
X40367Y175111D01*
X40157Y174605D01*
Y174056D01*
X40367Y173550D01*
X40755Y173162D01*
X41261Y172953D01*
X41809D01*
X42316Y173162D01*
X42704Y173550D01*
X42913Y174056D01*
Y174605D01*
X42704Y175111D01*
X42316Y175499D01*
X41809Y175709D01*
D02*
G37*
G36*
X5684Y175394D02*
X5136D01*
X4629Y175184D01*
X4242Y174796D01*
X4032Y174290D01*
Y173742D01*
X4242Y173235D01*
X4629Y172848D01*
X5136Y172638D01*
X5684D01*
X6191Y172848D01*
X6578Y173235D01*
X6788Y173742D01*
Y174290D01*
X6578Y174796D01*
X6191Y175184D01*
X5684Y175394D01*
D02*
G37*
G36*
X147282Y174646D02*
X146734D01*
X146227Y174436D01*
X145840Y174048D01*
X145630Y173542D01*
Y172994D01*
X145840Y172487D01*
X146227Y172099D01*
X146734Y171890D01*
X147282D01*
X147788Y172099D01*
X148176Y172487D01*
X148386Y172994D01*
Y173542D01*
X148176Y174048D01*
X147788Y174436D01*
X147282Y174646D01*
D02*
G37*
G36*
X358136Y172565D02*
X357588D01*
X357082Y172355D01*
X356694Y171968D01*
X356484Y171461D01*
Y170913D01*
X356694Y170407D01*
X357082Y170019D01*
X357588Y169809D01*
X358136D01*
X358643Y170019D01*
X359031Y170407D01*
X359240Y170913D01*
Y171461D01*
X359031Y171968D01*
X358643Y172355D01*
X358136Y172565D01*
D02*
G37*
G36*
X166862Y171740D02*
X166314D01*
X165807Y171531D01*
X165420Y171143D01*
X165210Y170637D01*
Y170088D01*
X165420Y169582D01*
X165807Y169194D01*
X166314Y168985D01*
X166862D01*
X167368Y169194D01*
X167756Y169582D01*
X167966Y170088D01*
Y170637D01*
X167756Y171143D01*
X167368Y171531D01*
X166862Y171740D01*
D02*
G37*
G36*
X328581Y170990D02*
X328033D01*
X327527Y170781D01*
X327139Y170393D01*
X326929Y169887D01*
Y169338D01*
X327139Y168832D01*
X327527Y168444D01*
X328033Y168235D01*
X328581D01*
X329088Y168444D01*
X329475Y168832D01*
X329685Y169338D01*
Y169887D01*
X329475Y170393D01*
X329088Y170781D01*
X328581Y170990D01*
D02*
G37*
G36*
X381475Y170669D02*
X380927D01*
X380420Y170459D01*
X380033Y170072D01*
X379823Y169565D01*
Y169017D01*
X380033Y168511D01*
X380420Y168123D01*
X380927Y167913D01*
X381475D01*
X381981Y168123D01*
X382369Y168511D01*
X382579Y169017D01*
Y169565D01*
X382369Y170072D01*
X381981Y170459D01*
X381475Y170669D01*
D02*
G37*
G36*
X378030D02*
X377482D01*
X376975Y170459D01*
X376588Y170072D01*
X376378Y169565D01*
Y169017D01*
X376588Y168511D01*
X376975Y168123D01*
X377482Y167913D01*
X378030D01*
X378537Y168123D01*
X378924Y168511D01*
X379134Y169017D01*
Y169565D01*
X378924Y170072D01*
X378537Y170459D01*
X378030Y170669D01*
D02*
G37*
G36*
X371435Y170650D02*
X370887D01*
X370380Y170440D01*
X369993Y170053D01*
X369783Y169546D01*
Y168998D01*
X369993Y168492D01*
X370380Y168104D01*
X370887Y167894D01*
X371435D01*
X371941Y168104D01*
X372382Y167837D01*
X372723Y167496D01*
X373230Y167286D01*
X373778D01*
X374285Y167496D01*
X374672Y167883D01*
X374882Y168390D01*
Y168938D01*
X374672Y169444D01*
X374285Y169832D01*
X373778Y170042D01*
X373230D01*
X372927Y169916D01*
X372329Y170053D01*
X371941Y170440D01*
X371435Y170650D01*
D02*
G37*
G36*
X348268Y238308D02*
X308882D01*
X308882Y225405D01*
X319027Y215261D01*
Y210372D01*
X363424D01*
Y189409D01*
X375787D01*
X384587Y180610D01*
Y166890D01*
X418780D01*
Y196417D01*
X384567Y230630D01*
X359685D01*
X356024Y234291D01*
X348189D01*
Y238229D01*
X348268Y238308D01*
D02*
G37*
G36*
X107552Y168908D02*
X107003D01*
X106497Y168699D01*
X106109Y168311D01*
X105900Y167804D01*
Y167256D01*
X106109Y166750D01*
X106497Y166362D01*
X107003Y166152D01*
X107552D01*
X108058Y166362D01*
X108446Y166750D01*
X108655Y167256D01*
Y167804D01*
X108446Y168311D01*
X108058Y168699D01*
X107552Y168908D01*
D02*
G37*
G36*
X333306Y167913D02*
X332757D01*
X332251Y167704D01*
X331863Y167316D01*
X331653Y166809D01*
Y166261D01*
X331863Y165755D01*
X332251Y165367D01*
X332757Y165157D01*
X333306D01*
X333812Y165367D01*
X334200Y165755D01*
X334409Y166261D01*
Y166809D01*
X334200Y167316D01*
X333812Y167704D01*
X333306Y167913D01*
D02*
G37*
G36*
X16967Y165709D02*
X16419D01*
X15912Y165499D01*
X15525Y165111D01*
X15315Y164605D01*
Y164057D01*
X15525Y163550D01*
X15912Y163163D01*
X16419Y162953D01*
X16967D01*
X17473Y163163D01*
X17861Y163550D01*
X18071Y164057D01*
Y164605D01*
X17861Y165111D01*
X17473Y165499D01*
X16967Y165709D01*
D02*
G37*
G36*
X-33326Y165640D02*
X-33874D01*
X-34381Y165431D01*
X-34768Y165043D01*
X-34978Y164537D01*
Y163988D01*
X-34768Y163482D01*
X-34381Y163094D01*
X-33874Y162885D01*
X-33326D01*
X-32820Y163094D01*
X-32432Y163482D01*
X-32222Y163988D01*
Y164537D01*
X-32432Y165043D01*
X-32820Y165431D01*
X-33326Y165640D01*
D02*
G37*
G36*
X345353Y174606D02*
X344805D01*
X344298Y174397D01*
X343911Y174009D01*
X343701Y173502D01*
Y172954D01*
X343911Y172448D01*
X344070Y172289D01*
X344080Y172238D01*
X344350Y171834D01*
X350275Y165909D01*
X350408Y165586D01*
X350562Y165432D01*
X350644Y164974D01*
X350533Y164809D01*
X350264Y164541D01*
X350055Y164034D01*
Y163486D01*
X350264Y162980D01*
X350652Y162592D01*
X351158Y162382D01*
X351707D01*
X352213Y162592D01*
X352601Y162980D01*
X352811Y163486D01*
Y164034D01*
X352601Y164541D01*
X352447Y164695D01*
X352365Y165153D01*
X352477Y165318D01*
X352745Y165586D01*
X352954Y166093D01*
Y166641D01*
X352745Y167148D01*
X352357Y167535D01*
X352034Y167669D01*
X346457Y173247D01*
Y173502D01*
X346247Y174009D01*
X345859Y174397D01*
X345353Y174606D01*
D02*
G37*
G36*
X528113Y170321D02*
X527002D01*
X525929Y170034D01*
X524967Y169478D01*
X524181Y168693D01*
X523626Y167731D01*
X523338Y166658D01*
Y165547D01*
X523626Y164474D01*
X524181Y163512D01*
X524967Y162727D01*
X525929Y162171D01*
X527002Y161884D01*
X528113D01*
X529185Y162171D01*
X530148Y162727D01*
X530933Y163512D01*
X531488Y164474D01*
X531776Y165547D01*
Y166658D01*
X531488Y167731D01*
X530933Y168693D01*
X530148Y169478D01*
X529185Y170034D01*
X528113Y170321D01*
D02*
G37*
G36*
X334093Y164415D02*
X333545D01*
X333039Y164205D01*
X332651Y163817D01*
X332441Y163311D01*
Y162763D01*
X332651Y162256D01*
X333039Y161869D01*
X333545Y161659D01*
X334093D01*
X334600Y161869D01*
X334987Y162256D01*
X335197Y162763D01*
Y163311D01*
X334987Y163817D01*
X334600Y164205D01*
X334093Y164415D01*
D02*
G37*
G36*
X425924Y162679D02*
X425376D01*
X424869Y162469D01*
X424481Y162082D01*
X424272Y161575D01*
Y161027D01*
X424481Y160521D01*
X424869Y160133D01*
X425376Y159923D01*
X425924D01*
X426430Y160133D01*
X426818Y160521D01*
X427028Y161027D01*
Y161575D01*
X426818Y162082D01*
X426430Y162469D01*
X425924Y162679D01*
D02*
G37*
G36*
X-35868Y162677D02*
X-36416D01*
X-36922Y162467D01*
X-37310Y162080D01*
X-37520Y161573D01*
Y161025D01*
X-37310Y160519D01*
X-36922Y160131D01*
X-36416Y159921D01*
X-35868D01*
X-35361Y160131D01*
X-34974Y160519D01*
X-34764Y161025D01*
Y161573D01*
X-34974Y162080D01*
X-35361Y162467D01*
X-35868Y162677D01*
D02*
G37*
G36*
X414565Y162323D02*
X414017D01*
X413511Y162113D01*
X413123Y161726D01*
X412913Y161219D01*
Y160671D01*
X413123Y160164D01*
X413511Y159777D01*
X414017Y159567D01*
X414565D01*
X415072Y159777D01*
X415459Y160164D01*
X415669Y160671D01*
Y161219D01*
X415459Y161726D01*
X415072Y162113D01*
X414565Y162323D01*
D02*
G37*
G36*
X403581Y160591D02*
X403033D01*
X402527Y160381D01*
X402139Y159993D01*
X401929Y159487D01*
Y158939D01*
X402139Y158432D01*
X402527Y158044D01*
X403033Y157835D01*
X403581D01*
X404088Y158044D01*
X404475Y158432D01*
X404685Y158939D01*
Y159487D01*
X404475Y159993D01*
X404088Y160381D01*
X403581Y160591D01*
D02*
G37*
G36*
X104599Y159485D02*
X104051D01*
X103545Y159275D01*
X103157Y158888D01*
X102947Y158381D01*
Y157833D01*
X103157Y157327D01*
X103545Y156939D01*
X104051Y156729D01*
X104599D01*
X105106Y156939D01*
X105494Y157327D01*
X105703Y157833D01*
Y158381D01*
X105494Y158888D01*
X105106Y159275D01*
X104599Y159485D01*
D02*
G37*
G36*
X-36458Y159370D02*
X-37006D01*
X-37513Y159160D01*
X-37901Y158773D01*
X-38110Y158266D01*
Y157718D01*
X-37901Y157212D01*
X-37513Y156824D01*
X-37006Y156614D01*
X-36458D01*
X-35952Y156824D01*
X-35564Y157212D01*
X-35354Y157718D01*
Y158266D01*
X-35564Y158773D01*
X-35952Y159160D01*
X-36458Y159370D01*
D02*
G37*
G36*
X10510Y158465D02*
X9962D01*
X9456Y158255D01*
X9068Y157867D01*
X8858Y157361D01*
Y156813D01*
X9068Y156306D01*
X9456Y155918D01*
X9962Y155709D01*
X10510D01*
X11017Y155918D01*
X11404Y156306D01*
X11614Y156813D01*
Y157361D01*
X11404Y157867D01*
X11017Y158255D01*
X10510Y158465D01*
D02*
G37*
G36*
X-30946Y158150D02*
X-31495D01*
X-32001Y157940D01*
X-32389Y157552D01*
X-32598Y157046D01*
Y156498D01*
X-32389Y155991D01*
X-32001Y155604D01*
X-31495Y155394D01*
X-30946D01*
X-30440Y155604D01*
X-30052Y155991D01*
X-29842Y156498D01*
Y157046D01*
X-30052Y157552D01*
X-30440Y157940D01*
X-30946Y158150D01*
D02*
G37*
G36*
X28620Y156102D02*
X28072D01*
X27566Y155893D01*
X27178Y155505D01*
X26969Y154999D01*
Y154450D01*
X27178Y153944D01*
X27566Y153556D01*
X28072Y153347D01*
X28620D01*
X29127Y153556D01*
X29515Y153944D01*
X29724Y154450D01*
Y154999D01*
X29515Y155505D01*
X29127Y155893D01*
X28620Y156102D01*
D02*
G37*
G36*
X-10907Y155591D02*
X-11455D01*
X-11962Y155381D01*
X-12349Y154993D01*
X-12559Y154487D01*
Y153938D01*
X-12349Y153432D01*
X-11962Y153044D01*
X-11455Y152835D01*
X-10907D01*
X-10401Y153044D01*
X-10013Y153432D01*
X-9803Y153938D01*
Y154487D01*
X-10013Y154993D01*
X-10401Y155381D01*
X-10907Y155591D01*
D02*
G37*
G36*
X211022Y155118D02*
X210474D01*
X209967Y154908D01*
X209580Y154521D01*
X209370Y154014D01*
Y153466D01*
X209580Y152960D01*
X209967Y152572D01*
X210474Y152362D01*
X211022D01*
X211528Y152572D01*
X211916Y152960D01*
X212126Y153466D01*
Y154014D01*
X211916Y154521D01*
X211528Y154908D01*
X211022Y155118D01*
D02*
G37*
G36*
X392203Y153543D02*
X391655D01*
X391149Y153333D01*
X390761Y152946D01*
X390551Y152439D01*
Y151891D01*
X390761Y151385D01*
X391149Y150997D01*
X391655Y150787D01*
X392203D01*
X392710Y150997D01*
X393097Y151385D01*
X393307Y151891D01*
Y152439D01*
X393097Y152946D01*
X392710Y153333D01*
X392203Y153543D01*
D02*
G37*
G36*
X428188Y151850D02*
X427639D01*
X427133Y151641D01*
X426745Y151253D01*
X426535Y150747D01*
Y150198D01*
X426745Y149692D01*
X427133Y149304D01*
X427639Y149094D01*
X428188D01*
X428694Y149304D01*
X429082Y149692D01*
X429291Y150198D01*
Y150747D01*
X429082Y151253D01*
X428694Y151641D01*
X428188Y151850D01*
D02*
G37*
G36*
X282124Y151299D02*
X281576D01*
X281070Y151089D01*
X280682Y150702D01*
X280472Y150195D01*
Y149647D01*
X280682Y149141D01*
X281070Y148753D01*
X281576Y148543D01*
X282124D01*
X282631Y148753D01*
X283018Y149141D01*
X283228Y149647D01*
Y150195D01*
X283018Y150702D01*
X282631Y151089D01*
X282124Y151299D01*
D02*
G37*
G36*
X281298Y147605D02*
X280749D01*
X280243Y147395D01*
X279855Y147008D01*
X279646Y146501D01*
Y145953D01*
X279855Y145447D01*
X280243Y145059D01*
X280749Y144849D01*
X281298D01*
X281804Y145059D01*
X282192Y145447D01*
X282401Y145953D01*
Y146501D01*
X282192Y147008D01*
X281804Y147395D01*
X281298Y147605D01*
D02*
G37*
G36*
X-31222Y146260D02*
X-31770D01*
X-32277Y146050D01*
X-32664Y145662D01*
X-32874Y145156D01*
Y144608D01*
X-32664Y144101D01*
X-32277Y143714D01*
X-31770Y143504D01*
X-31222D01*
X-30716Y143714D01*
X-30328Y144101D01*
X-30118Y144608D01*
Y145156D01*
X-30328Y145662D01*
X-30716Y146050D01*
X-31222Y146260D01*
D02*
G37*
G36*
X226618Y171962D02*
X226069D01*
X225563Y171752D01*
X225175Y171364D01*
X224966Y170858D01*
Y170310D01*
X225116Y169946D01*
X225120Y169927D01*
X225130Y169912D01*
X225175Y169803D01*
X225258Y169720D01*
X225390Y169524D01*
X225794Y169254D01*
X225995Y169214D01*
X229727Y165482D01*
X230131Y165212D01*
X230607Y165117D01*
X231666D01*
X234976Y161807D01*
Y141502D01*
X234843Y141180D01*
Y140631D01*
X235052Y140125D01*
X235440Y139737D01*
X235946Y139528D01*
X236495D01*
X237001Y139737D01*
X237389Y140125D01*
X237598Y140631D01*
Y141180D01*
X237465Y141502D01*
Y162323D01*
X237370Y162799D01*
X237101Y163203D01*
X233061Y167242D01*
X232658Y167511D01*
X232182Y167606D01*
X231122D01*
X227616Y171112D01*
X227512Y171364D01*
X227124Y171752D01*
X226618Y171962D01*
D02*
G37*
G36*
X240983Y169921D02*
X240435D01*
X239928Y169711D01*
X239541Y169324D01*
X239331Y168817D01*
Y168269D01*
X239541Y167763D01*
X239780Y167523D01*
X239829Y167450D01*
X240960Y166319D01*
Y137959D01*
X240827Y137636D01*
Y137088D01*
X241037Y136582D01*
X241424Y136194D01*
X241931Y135984D01*
X242479D01*
X242985Y136194D01*
X243373Y136582D01*
X243583Y137088D01*
Y137636D01*
X243449Y137959D01*
Y166834D01*
X243354Y167310D01*
X243085Y167714D01*
X242087Y168712D01*
Y168817D01*
X241877Y169324D01*
X241489Y169711D01*
X240983Y169921D01*
D02*
G37*
G36*
X316257Y136444D02*
X315709D01*
X315202Y136234D01*
X314815Y135846D01*
X314605Y135340D01*
Y134792D01*
X314815Y134285D01*
X315202Y133897D01*
X315709Y133688D01*
X316257D01*
X316763Y133897D01*
X317151Y134285D01*
X317361Y134792D01*
Y135340D01*
X317151Y135846D01*
X316763Y136234D01*
X316257Y136444D01*
D02*
G37*
G36*
X107412Y140994D02*
X99833D01*
Y133415D01*
X107412D01*
Y140994D01*
D02*
G37*
G36*
X130770Y135118D02*
X130221D01*
X129715Y134908D01*
X129327Y134521D01*
X129118Y134014D01*
Y133466D01*
X129327Y132960D01*
X129715Y132572D01*
X130221Y132362D01*
X130770D01*
X131276Y132572D01*
X131664Y132960D01*
X131874Y133466D01*
Y134014D01*
X131664Y134521D01*
X131276Y134908D01*
X130770Y135118D01*
D02*
G37*
G36*
X168825Y134416D02*
X168276D01*
X167770Y134207D01*
X167382Y133819D01*
X167173Y133313D01*
Y132764D01*
X167382Y132258D01*
X167770Y131870D01*
X168276Y131661D01*
X168825D01*
X169331Y131870D01*
X169719Y132258D01*
X169928Y132764D01*
Y133313D01*
X169719Y133819D01*
X169331Y134207D01*
X168825Y134416D01*
D02*
G37*
G36*
X409920Y271260D02*
X409372D01*
X408865Y271050D01*
X408477Y270662D01*
X408268Y270156D01*
Y269608D01*
X408477Y269101D01*
X408865Y268714D01*
X409188Y268580D01*
X434464Y243303D01*
Y211653D01*
X434559Y211177D01*
X434829Y210774D01*
X449432Y196171D01*
X449240Y195709D01*
X439646D01*
Y169646D01*
X478228Y131063D01*
X514173D01*
Y160906D01*
X496024D01*
X491693Y165236D01*
X491776Y165547D01*
Y166658D01*
X491488Y167731D01*
X490933Y168693D01*
X490147Y169478D01*
X489185Y170034D01*
X488112Y170321D01*
X487002D01*
X486691Y170238D01*
X461220Y195709D01*
X453413D01*
X436953Y212169D01*
Y243819D01*
X436858Y244295D01*
X436589Y244699D01*
X410947Y270340D01*
X410814Y270662D01*
X410426Y271050D01*
X409920Y271260D01*
D02*
G37*
G36*
X-36734Y132480D02*
X-37282D01*
X-37788Y132271D01*
X-38176Y131883D01*
X-38386Y131376D01*
Y130828D01*
X-38176Y130322D01*
X-37788Y129934D01*
X-37282Y129724D01*
X-36734D01*
X-36227Y129934D01*
X-35840Y130322D01*
X-35630Y130828D01*
Y131376D01*
X-35840Y131883D01*
X-36227Y132271D01*
X-36734Y132480D01*
D02*
G37*
G36*
X-38072Y175866D02*
X-38620D01*
X-39127Y175656D01*
X-39515Y175269D01*
X-39724Y174762D01*
Y174214D01*
X-39515Y173708D01*
X-39510Y173703D01*
X-39605Y173091D01*
X-39869Y172828D01*
X-40079Y172321D01*
Y171773D01*
X-39869Y171267D01*
X-39481Y170879D01*
X-38975Y170669D01*
X-38427D01*
X-37920Y170879D01*
X-37533Y171267D01*
X-37515Y171309D01*
X-37025Y171407D01*
X3559Y130823D01*
Y129528D01*
X3601Y129314D01*
X3163Y128954D01*
X3109Y128976D01*
X2561D01*
X2054Y128767D01*
X1667Y128379D01*
X1457Y127873D01*
Y127324D01*
X1667Y126818D01*
X2054Y126430D01*
X2561Y126221D01*
X3109D01*
X3615Y126430D01*
X4003Y126818D01*
X4213Y127324D01*
Y127651D01*
X4713Y127858D01*
X14517Y118054D01*
X14552Y117879D01*
X14717Y117632D01*
Y117475D01*
X14927Y116968D01*
X15315Y116581D01*
X15821Y116371D01*
X16369D01*
X16876Y116581D01*
X17263Y116968D01*
X17473Y117475D01*
Y118023D01*
X17263Y118529D01*
X17024Y118769D01*
X16975Y118842D01*
X16886Y118931D01*
X16851Y119106D01*
X16581Y119509D01*
X6047Y130043D01*
Y131339D01*
X5953Y131815D01*
X5683Y132219D01*
X-23802Y161703D01*
X-23634Y162242D01*
X-23314Y162375D01*
X-22926Y162763D01*
X-22716Y163269D01*
Y163817D01*
X-22926Y164324D01*
X-23314Y164711D01*
X-23820Y164921D01*
X-24369D01*
X-24875Y164711D01*
X-25263Y164324D01*
X-25395Y164004D01*
X-25934Y163836D01*
X-37045Y174946D01*
X-37178Y175269D01*
X-37566Y175656D01*
X-38072Y175866D01*
D02*
G37*
G36*
X309568Y133976D02*
X309019D01*
X308513Y133767D01*
X308125Y133379D01*
X307916Y132872D01*
Y132324D01*
X308125Y131818D01*
X308513Y131430D01*
X309019Y131220D01*
X309568D01*
X309569Y131221D01*
X309852Y130797D01*
X309757Y130702D01*
X309547Y130195D01*
Y129647D01*
X309757Y129141D01*
X310145Y128753D01*
X310651Y128543D01*
X311199D01*
X311706Y128753D01*
X312093Y129141D01*
X312303Y129647D01*
Y130195D01*
X312093Y130702D01*
X311706Y131089D01*
X311199Y131299D01*
X310651D01*
X310650Y131299D01*
X310366Y131722D01*
X310462Y131818D01*
X310671Y132324D01*
Y132872D01*
X310462Y133379D01*
X310074Y133767D01*
X309568Y133976D01*
D02*
G37*
G36*
X-2482Y133661D02*
X-3030D01*
X-3537Y133452D01*
X-3924Y133064D01*
X-4134Y132557D01*
Y132009D01*
X-3924Y131503D01*
X-3537Y131115D01*
X-3030Y130905D01*
X-2822Y130426D01*
X-3032Y129920D01*
Y129372D01*
X-2822Y128865D01*
X-2434Y128478D01*
X-1928Y128268D01*
X-1379D01*
X-873Y128478D01*
X-485Y128865D01*
X-276Y129372D01*
Y129920D01*
X-485Y130426D01*
X-873Y130814D01*
X-1379Y131024D01*
X-1588Y131503D01*
X-1378Y132009D01*
Y132557D01*
X-1588Y133064D01*
X-1975Y133452D01*
X-2482Y133661D01*
D02*
G37*
G36*
X119035Y130009D02*
X118486D01*
X117980Y129799D01*
X117592Y129411D01*
X117382Y128905D01*
Y128357D01*
X117592Y127850D01*
X117980Y127462D01*
X118486Y127253D01*
X119035D01*
X119541Y127462D01*
X119929Y127850D01*
X120138Y128357D01*
Y128905D01*
X119929Y129411D01*
X119541Y129799D01*
X119035Y130009D01*
D02*
G37*
G36*
X287912Y127362D02*
X287364D01*
X286857Y127152D01*
X286470Y126765D01*
X286260Y126258D01*
Y125710D01*
X286470Y125204D01*
X286857Y124816D01*
X287364Y124606D01*
X287912D01*
X288418Y124816D01*
X288806Y125204D01*
X289016Y125710D01*
Y126258D01*
X288806Y126765D01*
X288418Y127152D01*
X287912Y127362D01*
D02*
G37*
G36*
X528113Y130321D02*
X527002D01*
X525929Y130034D01*
X524967Y129478D01*
X524181Y128693D01*
X523626Y127731D01*
X523338Y126658D01*
Y125547D01*
X523626Y124474D01*
X524181Y123512D01*
X524967Y122727D01*
X525929Y122171D01*
X527002Y121884D01*
X528113D01*
X529185Y122171D01*
X530148Y122727D01*
X530933Y123512D01*
X531488Y124474D01*
X531776Y125547D01*
Y126658D01*
X531488Y127731D01*
X530933Y128693D01*
X530148Y129478D01*
X529185Y130034D01*
X528113Y130321D01*
D02*
G37*
G36*
X488112D02*
X487002D01*
X485929Y130034D01*
X484967Y129478D01*
X484181Y128693D01*
X483626Y127731D01*
X483338Y126658D01*
Y125547D01*
X483626Y124474D01*
X484181Y123512D01*
X484967Y122727D01*
X485929Y122171D01*
X487002Y121884D01*
X488112D01*
X489185Y122171D01*
X490147Y122727D01*
X490933Y123512D01*
X491488Y124474D01*
X491776Y125547D01*
Y126658D01*
X491488Y127731D01*
X490933Y128693D01*
X490147Y129478D01*
X489185Y130034D01*
X488112Y130321D01*
D02*
G37*
G36*
X288326Y123828D02*
X287778D01*
X287271Y123618D01*
X286884Y123230D01*
X286674Y122724D01*
Y122175D01*
X286884Y121669D01*
X287271Y121281D01*
X287778Y121072D01*
X288326D01*
X288832Y121281D01*
X289220Y121669D01*
X289430Y122175D01*
Y122724D01*
X289220Y123230D01*
X288832Y123618D01*
X288326Y123828D01*
D02*
G37*
G36*
X-21465Y122198D02*
X-22014D01*
X-22520Y121988D01*
X-22908Y121600D01*
X-23117Y121094D01*
Y120545D01*
X-22908Y120039D01*
X-22520Y119651D01*
X-22014Y119442D01*
X-21465D01*
X-20959Y119651D01*
X-20571Y120039D01*
X-20361Y120545D01*
Y121094D01*
X-20571Y121600D01*
X-20959Y121988D01*
X-21465Y122198D01*
D02*
G37*
G36*
X96376Y122047D02*
X95828D01*
X95322Y121837D01*
X94934Y121450D01*
X94724Y120943D01*
Y120395D01*
X94934Y119889D01*
X95322Y119501D01*
X95828Y119291D01*
X96376D01*
X96883Y119501D01*
X97271Y119889D01*
X97480Y120395D01*
Y120943D01*
X97271Y121450D01*
X96883Y121837D01*
X96376Y122047D01*
D02*
G37*
G36*
X158857Y120043D02*
X158309D01*
X157803Y119833D01*
X157415Y119445D01*
X157205Y118939D01*
Y118391D01*
X157415Y117884D01*
X157803Y117497D01*
X158309Y117287D01*
X158857D01*
X159364Y117497D01*
X159751Y117884D01*
X159961Y118391D01*
Y118939D01*
X159751Y119445D01*
X159364Y119833D01*
X158857Y120043D01*
D02*
G37*
G36*
X264Y116308D02*
X-285D01*
X-791Y116098D01*
X-1179Y115710D01*
X-1388Y115204D01*
Y114655D01*
X-1376Y114626D01*
X-1661Y114006D01*
X-1784Y113954D01*
X-2172Y113567D01*
X-2382Y113060D01*
Y112512D01*
X-2172Y112006D01*
X-2582Y111788D01*
X-2654Y111758D01*
X-3042Y111371D01*
X-3252Y110864D01*
Y110316D01*
X-3158Y110091D01*
X-3287Y109899D01*
X-3793Y109689D01*
X-4181Y109301D01*
X-4391Y108795D01*
Y108247D01*
X-4377Y108215D01*
X-4605Y107874D01*
X-5111Y107664D01*
X-5499Y107277D01*
X-5709Y106770D01*
Y106222D01*
X-6056Y105755D01*
X-6140D01*
X-6647Y105545D01*
X-7034Y105157D01*
X-7244Y104651D01*
Y104103D01*
X-7034Y103596D01*
X-6647Y103209D01*
X-6140Y102999D01*
X-5592D01*
X-5086Y103209D01*
X-4698Y103596D01*
X-4488Y104103D01*
Y104651D01*
X-4140Y105118D01*
X-4057D01*
X-3550Y105328D01*
X-3162Y105716D01*
X-2953Y106222D01*
Y106770D01*
X-2966Y106802D01*
X-2738Y107143D01*
X-2232Y107352D01*
X-1844Y107740D01*
X-1635Y108247D01*
Y108795D01*
X-1728Y109020D01*
X-1599Y109212D01*
X-1093Y109422D01*
X-705Y109810D01*
X-496Y110316D01*
Y110864D01*
X-705Y111371D01*
X-295Y111588D01*
X-223Y111618D01*
X164Y112006D01*
X374Y112512D01*
Y113060D01*
X362Y113090D01*
X646Y113710D01*
X770Y113761D01*
X1158Y114149D01*
X1272Y114424D01*
X1664Y114398D01*
X1785Y114358D01*
X1981Y113885D01*
X2369Y113497D01*
X2875Y113287D01*
X3424D01*
X3930Y113497D01*
X4318Y113885D01*
X4528Y114391D01*
Y114939D01*
X4318Y115446D01*
X3930Y115833D01*
X3424Y116043D01*
X2875D01*
X2369Y115833D01*
X1981Y115446D01*
X1867Y115171D01*
X1475Y115197D01*
X1354Y115237D01*
X1158Y115710D01*
X770Y116098D01*
X264Y116308D01*
D02*
G37*
G36*
X152656Y113276D02*
X152108D01*
X151602Y113066D01*
X151214Y112679D01*
X151005Y112172D01*
Y111624D01*
X151214Y111118D01*
X151602Y110730D01*
X152108Y110520D01*
X152656D01*
X153163Y110730D01*
X153551Y111118D01*
X153760Y111624D01*
Y112172D01*
X153551Y112679D01*
X153163Y113066D01*
X152656Y113276D01*
D02*
G37*
G36*
X94389Y108591D02*
X93841D01*
X93334Y108381D01*
X92947Y107994D01*
X92737Y107487D01*
Y106939D01*
X92947Y106433D01*
X93334Y106045D01*
X93841Y105835D01*
X94389D01*
X94895Y106045D01*
X95283Y106433D01*
X95493Y106939D01*
Y107487D01*
X95283Y107994D01*
X94895Y108381D01*
X94389Y108591D01*
D02*
G37*
G36*
X256180Y108504D02*
X255631D01*
X255125Y108294D01*
X254737Y107907D01*
X254528Y107400D01*
Y106852D01*
X254737Y106345D01*
X255125Y105958D01*
X255631Y105748D01*
X256180D01*
X256686Y105958D01*
X257074Y106345D01*
X257283Y106852D01*
Y107400D01*
X257074Y107907D01*
X256686Y108294D01*
X256180Y108504D01*
D02*
G37*
G36*
X528113Y114022D02*
X527002D01*
X525929Y113734D01*
X524967Y113179D01*
X524181Y112394D01*
X523626Y111432D01*
X523338Y110359D01*
Y109248D01*
X523626Y108175D01*
X524181Y107213D01*
X524967Y106427D01*
X525929Y105872D01*
X527002Y105585D01*
X528113D01*
X529185Y105872D01*
X530148Y106427D01*
X530933Y107213D01*
X531488Y108175D01*
X531776Y109248D01*
Y110359D01*
X531488Y111432D01*
X530933Y112394D01*
X530148Y113179D01*
X529185Y113734D01*
X528113Y114022D01*
D02*
G37*
G36*
X488112D02*
X487002D01*
X485929Y113734D01*
X484967Y113179D01*
X484181Y112394D01*
X483626Y111432D01*
X483338Y110359D01*
Y109248D01*
X483626Y108175D01*
X484181Y107213D01*
X484967Y106427D01*
X485929Y105872D01*
X487002Y105585D01*
X488112D01*
X489185Y105872D01*
X490147Y106427D01*
X490933Y107213D01*
X491488Y108175D01*
X491776Y109248D01*
Y110359D01*
X491488Y111432D01*
X490933Y112394D01*
X490147Y113179D01*
X489185Y113734D01*
X488112Y114022D01*
D02*
G37*
G36*
X109511Y105706D02*
X108963D01*
X108456Y105496D01*
X108069Y105108D01*
X107859Y104602D01*
Y104054D01*
X108069Y103547D01*
X108456Y103160D01*
X108963Y102950D01*
X109511D01*
X110017Y103160D01*
X110405Y103547D01*
X110615Y104054D01*
Y104602D01*
X110405Y105108D01*
X110017Y105496D01*
X109511Y105706D01*
D02*
G37*
G36*
X368047Y106969D02*
X367499D01*
X366993Y106759D01*
X366605Y106371D01*
X366395Y105865D01*
Y105767D01*
X366371Y105316D01*
X365934Y105305D01*
X365822D01*
X365316Y105095D01*
X364928Y104708D01*
X364718Y104201D01*
Y103653D01*
X364928Y103147D01*
X365316Y102759D01*
X365822Y102549D01*
X366370D01*
X366877Y102759D01*
X367264Y103147D01*
X367474Y103653D01*
Y103751D01*
X367499Y104202D01*
X367936Y104213D01*
X368047D01*
X368554Y104422D01*
X368942Y104810D01*
X369151Y105316D01*
Y105865D01*
X368942Y106371D01*
X368554Y106759D01*
X368047Y106969D01*
D02*
G37*
G36*
X188266Y102913D02*
X187718D01*
X187212Y102704D01*
X186824Y102316D01*
X186614Y101810D01*
Y101261D01*
X186824Y100755D01*
X187212Y100367D01*
X187718Y100157D01*
X188266D01*
X188773Y100367D01*
X189160Y100755D01*
X189370Y101261D01*
Y101810D01*
X189160Y102316D01*
X188773Y102704D01*
X188266Y102913D01*
D02*
G37*
G36*
X335435Y161213D02*
X334887D01*
X334380Y161003D01*
X333993Y160616D01*
X333783Y160109D01*
Y159764D01*
X312898D01*
Y145720D01*
X325317Y133301D01*
X367402D01*
Y110716D01*
X380228D01*
X385026Y105919D01*
X384909Y105329D01*
X384869Y105312D01*
X384481Y104925D01*
X384272Y104418D01*
Y103870D01*
X384481Y103364D01*
X384869Y102976D01*
X385152Y102858D01*
Y102317D01*
X384869Y102200D01*
X384481Y101812D01*
X384272Y101306D01*
Y100758D01*
X384481Y100251D01*
X384677Y100055D01*
X384684Y100049D01*
X384401Y99625D01*
X384390Y99629D01*
X384112Y99744D01*
X383564D01*
X383058Y99535D01*
X382670Y99147D01*
X382460Y98641D01*
Y98092D01*
X382670Y97586D01*
X383058Y97198D01*
X383564Y96988D01*
X384112D01*
X384619Y97198D01*
X385006Y97586D01*
X385216Y98092D01*
Y98641D01*
X385006Y99147D01*
X384810Y99343D01*
X384804Y99349D01*
X385087Y99773D01*
X385098Y99769D01*
X385375Y99654D01*
X385924D01*
X386430Y99864D01*
X386818Y100251D01*
X386844Y100315D01*
X418268D01*
Y131615D01*
X406574D01*
X392126Y146063D01*
X376083Y146063D01*
X370492Y151654D01*
X360039D01*
Y159764D01*
X336539D01*
Y160109D01*
X336329Y160616D01*
X335942Y161003D01*
X335435Y161213D01*
D02*
G37*
G36*
X360371Y100025D02*
X359823D01*
X359316Y99815D01*
X358929Y99427D01*
X358719Y98921D01*
Y98373D01*
X358929Y97866D01*
X359316Y97479D01*
X359823Y97269D01*
X360371D01*
X360877Y97479D01*
X361265Y97866D01*
X361475Y98373D01*
Y98921D01*
X361265Y99427D01*
X360877Y99815D01*
X360371Y100025D01*
D02*
G37*
G36*
X378030Y96063D02*
X377482D01*
X376975Y95853D01*
X376769Y95647D01*
X376445Y95521D01*
X376121Y95647D01*
X375915Y95853D01*
X375409Y96063D01*
X374860D01*
X374354Y95853D01*
X373966Y95466D01*
X373757Y94959D01*
Y94411D01*
X373966Y93905D01*
X374354Y93517D01*
X374860Y93307D01*
X375409D01*
X375915Y93517D01*
X376121Y93723D01*
X376445Y93849D01*
X376769Y93723D01*
X376975Y93517D01*
X377482Y93307D01*
X378030D01*
X378537Y93517D01*
X378924Y93905D01*
X379134Y94411D01*
Y94959D01*
X378924Y95466D01*
X378537Y95853D01*
X378030Y96063D01*
D02*
G37*
G36*
X303463Y95866D02*
X302915D01*
X302408Y95656D01*
X302021Y95269D01*
X301811Y94762D01*
Y94214D01*
X302021Y93708D01*
X302408Y93320D01*
X302915Y93110D01*
X303463D01*
X303970Y93320D01*
X304357Y93708D01*
X304567Y94214D01*
Y94762D01*
X304357Y95269D01*
X303970Y95656D01*
X303463Y95866D01*
D02*
G37*
G36*
X413807Y95640D02*
X413259D01*
X412753Y95430D01*
X412365Y95043D01*
X412155Y94536D01*
Y93988D01*
X412365Y93481D01*
X412753Y93094D01*
X413259Y92884D01*
X413807D01*
X414314Y93094D01*
X414702Y93481D01*
X414911Y93988D01*
Y94536D01*
X414702Y95043D01*
X414314Y95430D01*
X413807Y95640D01*
D02*
G37*
G36*
X215813Y94394D02*
X215265D01*
X214758Y94184D01*
X214371Y93796D01*
X214161Y93290D01*
Y92742D01*
X214371Y92235D01*
X214758Y91847D01*
X215265Y91638D01*
X215813D01*
X216319Y91847D01*
X216707Y92235D01*
X216917Y92742D01*
Y93290D01*
X216707Y93796D01*
X216319Y94184D01*
X215813Y94394D01*
D02*
G37*
G36*
X22559Y97638D02*
X15866D01*
Y90945D01*
X22559D01*
Y97638D01*
D02*
G37*
G36*
X403529Y93359D02*
X402981D01*
X402474Y93150D01*
X402086Y92762D01*
X401877Y92256D01*
Y91707D01*
X402086Y91201D01*
X402474Y90813D01*
X402981Y90604D01*
X403529D01*
X404035Y90813D01*
X404423Y91201D01*
X404633Y91707D01*
Y92256D01*
X404423Y92762D01*
X404035Y93150D01*
X403529Y93359D01*
D02*
G37*
G36*
X208466Y90981D02*
X207918D01*
X207412Y90772D01*
X207024Y90384D01*
X206814Y89877D01*
Y89329D01*
X207024Y88823D01*
X207412Y88435D01*
X207918Y88226D01*
X208466D01*
X208973Y88435D01*
X209361Y88823D01*
X209570Y89329D01*
Y89877D01*
X209361Y90384D01*
X208973Y90772D01*
X208466Y90981D01*
D02*
G37*
G36*
X169172Y90199D02*
X168623D01*
X168117Y89989D01*
X167729Y89602D01*
X167520Y89095D01*
Y88547D01*
X167729Y88041D01*
X168117Y87653D01*
X168623Y87443D01*
X169172D01*
X169678Y87653D01*
X170066Y88041D01*
X170275Y88547D01*
Y89095D01*
X170066Y89602D01*
X169678Y89989D01*
X169172Y90199D01*
D02*
G37*
G36*
X361573Y89921D02*
X361025D01*
X360519Y89711D01*
X360131Y89324D01*
X359921Y88817D01*
Y88269D01*
X360131Y87763D01*
X360519Y87375D01*
X361025Y87165D01*
X361573D01*
X362080Y87375D01*
X362467Y87763D01*
X362677Y88269D01*
Y88817D01*
X362467Y89324D01*
X362080Y89711D01*
X361573Y89921D01*
D02*
G37*
G36*
X425884Y89065D02*
X425336D01*
X424830Y88855D01*
X424442Y88468D01*
X424232Y87961D01*
Y87413D01*
X424442Y86906D01*
X424830Y86519D01*
X425336Y86309D01*
X425884D01*
X426391Y86519D01*
X426778Y86906D01*
X426988Y87413D01*
Y87961D01*
X426778Y88468D01*
X426391Y88855D01*
X425884Y89065D01*
D02*
G37*
G36*
X238109Y87598D02*
X237561D01*
X237054Y87389D01*
X236666Y87001D01*
X236457Y86495D01*
Y85946D01*
X236666Y85440D01*
X237054Y85052D01*
X237561Y84842D01*
X238109D01*
X238615Y85052D01*
X239003Y85440D01*
X239213Y85946D01*
Y86495D01*
X239003Y87001D01*
X238615Y87389D01*
X238109Y87598D01*
D02*
G37*
G36*
X107411Y91388D02*
X99833D01*
Y83809D01*
X107411D01*
Y91388D01*
D02*
G37*
G36*
X117636Y86457D02*
X117088D01*
X116582Y86247D01*
X116194Y85859D01*
X115984Y85353D01*
Y84805D01*
X116194Y84298D01*
X116582Y83911D01*
X117088Y83701D01*
X117636D01*
X118143Y83911D01*
X118530Y84298D01*
X118740Y84805D01*
Y85353D01*
X118530Y85859D01*
X118143Y86247D01*
X117636Y86457D01*
D02*
G37*
G36*
X348961Y91398D02*
X348413D01*
X347907Y91188D01*
X347519Y90800D01*
X347309Y90294D01*
Y89745D01*
X347519Y89239D01*
X347907Y88851D01*
X348413Y88642D01*
X348752D01*
X348838Y88625D01*
X348930D01*
X354194Y83361D01*
X354327Y83039D01*
X354486Y82879D01*
X354279Y82379D01*
X353216D01*
X345360Y90235D01*
X345227Y90557D01*
X344839Y90945D01*
X344333Y91155D01*
X343784D01*
X343278Y90945D01*
X342890Y90557D01*
X342681Y90051D01*
Y89503D01*
X342890Y88996D01*
X343278Y88608D01*
X343601Y88475D01*
X351820Y80255D01*
X352224Y79985D01*
X352700Y79891D01*
X354539D01*
X354613Y79816D01*
X355120Y79606D01*
X355668D01*
X356174Y79816D01*
X356562Y80204D01*
X356772Y80710D01*
Y81258D01*
X356562Y81765D01*
X356234Y82092D01*
X356230Y82424D01*
X356276Y82651D01*
X356664Y83039D01*
X356873Y83545D01*
Y84093D01*
X356664Y84600D01*
X356276Y84987D01*
X355954Y85121D01*
X350325Y90749D01*
X349922Y91019D01*
X349566Y91089D01*
X349468Y91188D01*
X348961Y91398D01*
D02*
G37*
G36*
X19653Y87638D02*
X18772D01*
X17921Y87410D01*
X17158Y86969D01*
X16535Y86346D01*
X16094Y85583D01*
X15866Y84732D01*
Y83851D01*
X16094Y83000D01*
X16535Y82237D01*
X17158Y81613D01*
X17921Y81173D01*
X18772Y80945D01*
X19653D01*
X20504Y81173D01*
X21267Y81613D01*
X21890Y82237D01*
X22331Y83000D01*
X22559Y83851D01*
Y84732D01*
X22331Y85583D01*
X21890Y86346D01*
X21267Y86969D01*
X20504Y87410D01*
X19653Y87638D01*
D02*
G37*
G36*
X399408Y82793D02*
X398860D01*
X398353Y82583D01*
X397966Y82196D01*
X397756Y81689D01*
Y81141D01*
X397966Y80634D01*
X398353Y80247D01*
X398860Y80037D01*
X399408D01*
X399914Y80247D01*
X400302Y80634D01*
X400512Y81141D01*
Y81689D01*
X400302Y82196D01*
X399914Y82583D01*
X399408Y82793D01*
D02*
G37*
G36*
X60353Y80827D02*
X59805D01*
X59298Y80617D01*
X58911Y80229D01*
X58729Y79792D01*
X58447Y79668D01*
X58201Y79614D01*
X58103Y79711D01*
X57597Y79921D01*
X57049D01*
X56542Y79711D01*
X56155Y79324D01*
X55945Y78817D01*
Y78269D01*
X56155Y77763D01*
X56542Y77375D01*
X57049Y77165D01*
X57597D01*
X58103Y77375D01*
X58491Y77763D01*
X58672Y78200D01*
X58955Y78325D01*
X59201Y78378D01*
X59298Y78281D01*
X59805Y78071D01*
X60353D01*
X60859Y78281D01*
X61247Y78668D01*
X61457Y79175D01*
Y79723D01*
X61247Y80229D01*
X60859Y80617D01*
X60353Y80827D01*
D02*
G37*
G36*
X428148Y79646D02*
X427600D01*
X427093Y79436D01*
X426706Y79048D01*
X426496Y78542D01*
Y77994D01*
X426706Y77487D01*
X427093Y77100D01*
X427600Y76890D01*
X428148D01*
X428654Y77100D01*
X429042Y77487D01*
X429252Y77994D01*
Y78542D01*
X429042Y79048D01*
X428654Y79436D01*
X428148Y79646D01*
D02*
G37*
G36*
X461575Y128976D02*
X439646D01*
Y103227D01*
X467951Y74921D01*
X514173D01*
Y104646D01*
X514173Y104646D01*
X485906D01*
X461575Y128976D01*
D02*
G37*
G36*
X117381Y77056D02*
X116833D01*
X116326Y76846D01*
X115939Y76458D01*
X115729Y75952D01*
Y75404D01*
X115939Y74897D01*
X116326Y74510D01*
X116833Y74300D01*
X117381D01*
X117887Y74510D01*
X118275Y74897D01*
X118485Y75404D01*
Y75952D01*
X118275Y76458D01*
X117887Y76846D01*
X117381Y77056D01*
D02*
G37*
G36*
X19653Y77638D02*
X18772D01*
X17921Y77410D01*
X17158Y76969D01*
X16535Y76346D01*
X16094Y75583D01*
X15866Y74732D01*
Y73851D01*
X16094Y73000D01*
X16535Y72237D01*
X17158Y71614D01*
X17921Y71173D01*
X18772Y70945D01*
X19653D01*
X20504Y71173D01*
X21267Y71614D01*
X21890Y72237D01*
X22331Y73000D01*
X22559Y73851D01*
Y74732D01*
X22331Y75583D01*
X21890Y76346D01*
X21267Y76969D01*
X20504Y77410D01*
X19653Y77638D01*
D02*
G37*
G36*
X378836Y91142D02*
X377070D01*
X375325Y90865D01*
X373646Y90320D01*
X372072Y89518D01*
X370643Y88480D01*
X369394Y87231D01*
X368356Y85802D01*
X367554Y84228D01*
X367009Y82549D01*
X366732Y80804D01*
Y79038D01*
X367009Y77294D01*
X367554Y75614D01*
X368356Y74040D01*
X369394Y72612D01*
X370643Y71363D01*
X372072Y70325D01*
X373646Y69523D01*
X375325Y68977D01*
X377070Y68701D01*
X378836D01*
X380580Y68977D01*
X382260Y69523D01*
X383834Y70325D01*
X385262Y71363D01*
X386511Y72612D01*
X387549Y74040D01*
X388351Y75614D01*
X388897Y77294D01*
X389173Y79038D01*
Y80804D01*
X388897Y82549D01*
X388351Y84228D01*
X387549Y85802D01*
X386511Y87231D01*
X385262Y88480D01*
X383834Y89518D01*
X382260Y90320D01*
X380580Y90865D01*
X378836Y91142D01*
D02*
G37*
G36*
X288285D02*
X286519D01*
X284774Y90865D01*
X283094Y90320D01*
X281521Y89518D01*
X280092Y88480D01*
X278843Y87231D01*
X277805Y85802D01*
X277003Y84228D01*
X276457Y82549D01*
X276181Y80804D01*
Y79038D01*
X276457Y77294D01*
X277003Y75614D01*
X277805Y74040D01*
X278843Y72612D01*
X280092Y71363D01*
X281521Y70325D01*
X283094Y69523D01*
X284774Y68977D01*
X286519Y68701D01*
X288285D01*
X290029Y68977D01*
X291709Y69523D01*
X293282Y70325D01*
X294711Y71363D01*
X295960Y72612D01*
X296998Y74040D01*
X297800Y75614D01*
X298346Y77294D01*
X298622Y79038D01*
Y80804D01*
X298346Y82549D01*
X297800Y84228D01*
X296998Y85802D01*
X295960Y87231D01*
X294711Y88480D01*
X293282Y89518D01*
X291709Y90320D01*
X290029Y90865D01*
X288285Y91142D01*
D02*
G37*
G36*
X528113Y74022D02*
X527002D01*
X525929Y73734D01*
X524967Y73179D01*
X524181Y72394D01*
X523626Y71432D01*
X523338Y70359D01*
Y69248D01*
X523626Y68175D01*
X524181Y67213D01*
X524967Y66427D01*
X525929Y65872D01*
X527002Y65584D01*
X528113D01*
X529185Y65872D01*
X530148Y66427D01*
X530933Y67213D01*
X531488Y68175D01*
X531776Y69248D01*
Y70359D01*
X531488Y71432D01*
X530933Y72394D01*
X530148Y73179D01*
X529185Y73734D01*
X528113Y74022D01*
D02*
G37*
G36*
X488112D02*
X487002D01*
X485929Y73734D01*
X484967Y73179D01*
X484181Y72394D01*
X483626Y71432D01*
X483338Y70359D01*
Y69248D01*
X483626Y68175D01*
X484181Y67213D01*
X484967Y66427D01*
X485929Y65872D01*
X487002Y65584D01*
X488112D01*
X489185Y65872D01*
X490147Y66427D01*
X490933Y67213D01*
X491488Y68175D01*
X491776Y69248D01*
Y70359D01*
X491488Y71432D01*
X490933Y72394D01*
X490147Y73179D01*
X489185Y73734D01*
X488112Y74022D01*
D02*
G37*
G36*
X255938Y64210D02*
X255390D01*
X254883Y64000D01*
X254496Y63612D01*
X254286Y63106D01*
Y62558D01*
X254496Y62051D01*
X254883Y61664D01*
X255390Y61454D01*
X255938D01*
X256445Y61664D01*
X256832Y62051D01*
X257042Y62558D01*
Y63106D01*
X256832Y63612D01*
X256445Y64000D01*
X255938Y64210D01*
D02*
G37*
G36*
X19653Y67638D02*
X18772D01*
X17921Y67410D01*
X17158Y66969D01*
X16535Y66346D01*
X16094Y65583D01*
X15866Y64732D01*
Y63851D01*
X16094Y63000D01*
X16535Y62237D01*
X17158Y61614D01*
X17921Y61173D01*
X18772Y60945D01*
X19653D01*
X20504Y61173D01*
X21267Y61614D01*
X21890Y62237D01*
X22331Y63000D01*
X22559Y63851D01*
Y64732D01*
X22331Y65583D01*
X21890Y66346D01*
X21267Y66969D01*
X20504Y67410D01*
X19653Y67638D01*
D02*
G37*
G36*
X248025Y62123D02*
X247477D01*
X246970Y61913D01*
X246582Y61526D01*
X246373Y61019D01*
Y60471D01*
X246582Y59965D01*
X246970Y59577D01*
X247477Y59367D01*
X248025D01*
X248531Y59577D01*
X248919Y59965D01*
X249129Y60471D01*
Y61019D01*
X248919Y61526D01*
X248531Y61913D01*
X248025Y62123D01*
D02*
G37*
G36*
X167080Y58619D02*
X166532D01*
X166025Y58409D01*
X165638Y58022D01*
X165428Y57515D01*
Y56967D01*
X165638Y56461D01*
X166025Y56073D01*
X166532Y55863D01*
X167080D01*
X167586Y56073D01*
X167974Y56461D01*
X168184Y56967D01*
Y57515D01*
X167974Y58022D01*
X167586Y58409D01*
X167080Y58619D01*
D02*
G37*
G36*
X315786Y55709D02*
X315238D01*
X314731Y55499D01*
X314344Y55111D01*
X314134Y54605D01*
Y54057D01*
X314344Y53550D01*
X314731Y53162D01*
X315238Y52953D01*
X315786D01*
X316292Y53162D01*
X316680Y53550D01*
X316890Y54057D01*
Y54605D01*
X316680Y55111D01*
X316292Y55499D01*
X315786Y55709D01*
D02*
G37*
G36*
X164363Y54446D02*
X163815D01*
X163309Y54236D01*
X162921Y53849D01*
X162711Y53342D01*
Y52794D01*
X162921Y52288D01*
X163309Y51900D01*
X163815Y51690D01*
X164363D01*
X164870Y51900D01*
X165257Y52288D01*
X165467Y52794D01*
Y53342D01*
X165257Y53849D01*
X164870Y54236D01*
X164363Y54446D01*
D02*
G37*
G36*
X106243Y54259D02*
X105695D01*
X105188Y54049D01*
X104800Y53662D01*
X104591Y53155D01*
Y52607D01*
X104800Y52101D01*
X105188Y51713D01*
X105695Y51503D01*
X106243D01*
X106749Y51713D01*
X107137Y52101D01*
X107347Y52607D01*
Y53155D01*
X107137Y53662D01*
X106749Y54049D01*
X106243Y54259D01*
D02*
G37*
G36*
X19653Y57638D02*
X18772D01*
X17921Y57410D01*
X17158Y56969D01*
X16535Y56346D01*
X16094Y55583D01*
X15866Y54732D01*
Y53851D01*
X16094Y53000D01*
X16535Y52237D01*
X17158Y51613D01*
X17921Y51173D01*
X18772Y50945D01*
X19653D01*
X20504Y51173D01*
X21267Y51613D01*
X21890Y52237D01*
X22331Y53000D01*
X22559Y53851D01*
Y54732D01*
X22331Y55583D01*
X21890Y56346D01*
X21267Y56969D01*
X20504Y57410D01*
X19653Y57638D01*
D02*
G37*
G36*
X99526Y52598D02*
X98978D01*
X98471Y52389D01*
X98084Y52001D01*
X97874Y51495D01*
Y50946D01*
X98084Y50440D01*
X98471Y50052D01*
X98978Y49843D01*
X99526D01*
X100032Y50052D01*
X100420Y50440D01*
X100630Y50946D01*
Y51495D01*
X100420Y52001D01*
X100032Y52389D01*
X99526Y52598D01*
D02*
G37*
G36*
X528113Y57723D02*
X527002D01*
X525929Y57435D01*
X524967Y56880D01*
X524181Y56094D01*
X523626Y55132D01*
X523338Y54059D01*
Y52949D01*
X523626Y51876D01*
X524181Y50914D01*
X524967Y50128D01*
X525929Y49573D01*
X527002Y49285D01*
X528113D01*
X529185Y49573D01*
X530148Y50128D01*
X530933Y50914D01*
X531488Y51876D01*
X531776Y52949D01*
Y54059D01*
X531488Y55132D01*
X530933Y56094D01*
X530148Y56880D01*
X529185Y57435D01*
X528113Y57723D01*
D02*
G37*
G36*
X130377Y46968D02*
X129829D01*
X129322Y46758D01*
X128935Y46371D01*
X128725Y45864D01*
Y45316D01*
X128935Y44809D01*
X129322Y44422D01*
X129829Y44212D01*
X130377D01*
X130883Y44422D01*
X131271Y44809D01*
X131481Y45316D01*
Y45864D01*
X131271Y46371D01*
X130883Y46758D01*
X130377Y46968D01*
D02*
G37*
G36*
X310091Y49935D02*
X309542D01*
X309036Y49725D01*
X308648Y49337D01*
X308439Y48831D01*
Y48283D01*
X308648Y47776D01*
X309036Y47388D01*
X309312Y47274D01*
X309213Y46774D01*
X308978D01*
X308471Y46564D01*
X308084Y46177D01*
X307874Y45670D01*
Y45122D01*
X308084Y44616D01*
X308471Y44228D01*
X308978Y44018D01*
X309526D01*
X310033Y44228D01*
X310420Y44616D01*
X310630Y45122D01*
Y45670D01*
X310420Y46177D01*
X310033Y46564D01*
X309756Y46679D01*
X309856Y47179D01*
X310091D01*
X310597Y47388D01*
X310985Y47776D01*
X311194Y48283D01*
Y48831D01*
X310985Y49337D01*
X310597Y49725D01*
X310091Y49935D01*
D02*
G37*
G36*
X289093Y46890D02*
X288545D01*
X288038Y46680D01*
X287651Y46292D01*
X287441Y45786D01*
Y45238D01*
X287651Y44731D01*
X287897Y44485D01*
X287988Y44173D01*
X287897Y43861D01*
X287651Y43615D01*
X287441Y43109D01*
Y42560D01*
X287651Y42054D01*
X288038Y41666D01*
X288545Y41457D01*
X289093D01*
X289599Y41666D01*
X289987Y42054D01*
X290197Y42560D01*
Y43109D01*
X289987Y43615D01*
X289741Y43861D01*
X289650Y44173D01*
X289741Y44485D01*
X289987Y44731D01*
X290197Y45238D01*
Y45786D01*
X289987Y46292D01*
X289599Y46680D01*
X289093Y46890D01*
D02*
G37*
G36*
X19653Y47638D02*
X18772D01*
X17921Y47410D01*
X17158Y46969D01*
X16535Y46346D01*
X16094Y45583D01*
X15866Y44732D01*
Y43851D01*
X16094Y43000D01*
X16535Y42237D01*
X17158Y41614D01*
X17921Y41173D01*
X18772Y40945D01*
X19653D01*
X20504Y41173D01*
X21267Y41614D01*
X21890Y42237D01*
X22331Y43000D01*
X22559Y43851D01*
Y44732D01*
X22331Y45583D01*
X21890Y46346D01*
X21267Y46969D01*
X20504Y47410D01*
X19653Y47638D01*
D02*
G37*
G36*
X104639Y43186D02*
X104091D01*
X103584Y42976D01*
X103197Y42589D01*
X102987Y42082D01*
Y41534D01*
X103197Y41028D01*
X103584Y40640D01*
X104091Y40430D01*
X104639D01*
X105145Y40640D01*
X105533Y41028D01*
X105743Y41534D01*
Y42082D01*
X105533Y42589D01*
X105145Y42976D01*
X104639Y43186D01*
D02*
G37*
G36*
X190707Y40866D02*
X190159D01*
X189653Y40656D01*
X189265Y40269D01*
X189055Y39762D01*
Y39214D01*
X189265Y38708D01*
X189653Y38320D01*
X190159Y38110D01*
X190707D01*
X191214Y38320D01*
X191601Y38708D01*
X191811Y39214D01*
Y39762D01*
X191601Y40269D01*
X191214Y40656D01*
X190707Y40866D01*
D02*
G37*
G36*
X19653Y37638D02*
X18772D01*
X17921Y37410D01*
X17158Y36969D01*
X16535Y36346D01*
X16094Y35583D01*
X15866Y34732D01*
Y33851D01*
X16094Y33000D01*
X16535Y32237D01*
X17158Y31613D01*
X17921Y31173D01*
X18772Y30945D01*
X19653D01*
X20504Y31173D01*
X21267Y31613D01*
X21890Y32237D01*
X22331Y33000D01*
X22559Y33851D01*
Y34732D01*
X22331Y35583D01*
X21890Y36346D01*
X21267Y36969D01*
X20504Y37410D01*
X19653Y37638D01*
D02*
G37*
G36*
X338423Y87670D02*
X337875D01*
X337368Y87461D01*
X336981Y87073D01*
X336771Y86567D01*
Y86018D01*
X336981Y85512D01*
X337368Y85124D01*
X337597Y85030D01*
X337497Y84530D01*
X337497D01*
X336991Y84320D01*
X336603Y83932D01*
X336393Y83426D01*
Y82877D01*
X336603Y82371D01*
X336991Y81984D01*
X337341Y81839D01*
X337241Y81339D01*
X337088D01*
X336582Y81129D01*
X336194Y80741D01*
X335984Y80235D01*
Y79686D01*
X336194Y79180D01*
X336488Y78886D01*
X336372Y78448D01*
X336335Y78386D01*
X312106D01*
Y65216D01*
X325157Y52087D01*
X367165D01*
Y30394D01*
X418583D01*
Y65118D01*
X373115D01*
X366210Y71929D01*
X359665D01*
Y78386D01*
X338389D01*
X338352Y78448D01*
X338236Y78886D01*
X338530Y79180D01*
X338740Y79686D01*
Y80235D01*
X338530Y80741D01*
X338143Y81129D01*
X337793Y81274D01*
X337892Y81774D01*
X338045D01*
X338552Y81984D01*
X338939Y82371D01*
X339149Y82877D01*
Y83426D01*
X338939Y83932D01*
X338552Y84320D01*
X338323Y84414D01*
X338423Y84914D01*
X338423D01*
X338930Y85124D01*
X339317Y85512D01*
X339527Y86018D01*
Y86567D01*
X339317Y87073D01*
X338930Y87461D01*
X338423Y87670D01*
D02*
G37*
G36*
X19713Y27732D02*
Y24791D01*
X22653D01*
X22430Y25624D01*
X21975Y26411D01*
X21333Y27054D01*
X20545Y27509D01*
X19713Y27732D01*
D02*
G37*
G36*
X18713D02*
X17880Y27509D01*
X17093Y27054D01*
X16450Y26411D01*
X15995Y25624D01*
X15772Y24791D01*
X18713D01*
Y27732D01*
D02*
G37*
G36*
X385195Y26713D02*
X384647D01*
X384141Y26503D01*
X383753Y26115D01*
X383543Y25609D01*
Y25060D01*
X383753Y24554D01*
X384141Y24167D01*
X384647Y23957D01*
X385195D01*
X385702Y24167D01*
X386089Y24554D01*
X386299Y25060D01*
Y25609D01*
X386089Y26115D01*
X385702Y26503D01*
X385195Y26713D01*
D02*
G37*
G36*
X366022Y26614D02*
X365474D01*
X364967Y26405D01*
X364580Y26017D01*
X364370Y25510D01*
Y24962D01*
X364580Y24456D01*
X364967Y24068D01*
X365474Y23858D01*
X366022D01*
X366529Y24068D01*
X366916Y24456D01*
X367126Y24962D01*
Y25510D01*
X366916Y26017D01*
X366529Y26405D01*
X366022Y26614D01*
D02*
G37*
G36*
X403306Y26181D02*
X402757D01*
X402251Y25971D01*
X401863Y25584D01*
X401653Y25077D01*
Y24529D01*
X401863Y24023D01*
X402251Y23635D01*
X402757Y23425D01*
X403306D01*
X403812Y23635D01*
X404200Y24023D01*
X404410Y24529D01*
Y25077D01*
X404200Y25584D01*
X403812Y25971D01*
X403306Y26181D01*
D02*
G37*
G36*
X22653Y23791D02*
X19713D01*
Y20851D01*
X20545Y21074D01*
X21333Y21529D01*
X21975Y22171D01*
X22430Y22959D01*
X22653Y23791D01*
D02*
G37*
G36*
X18713D02*
X15772D01*
X15995Y22959D01*
X16450Y22171D01*
X17093Y21529D01*
X17880Y21074D01*
X18713Y20851D01*
Y23791D01*
D02*
G37*
G36*
X427095Y26234D02*
X426547D01*
X426040Y26024D01*
X425653Y25636D01*
X425443Y25130D01*
Y24582D01*
X425653Y24075D01*
X426040Y23688D01*
X426227Y23610D01*
X426128Y23110D01*
X425986D01*
X425479Y22900D01*
X425092Y22513D01*
X424882Y22006D01*
Y21458D01*
X425092Y20952D01*
X425479Y20564D01*
X425986Y20354D01*
X426534D01*
X427040Y20564D01*
X427428Y20952D01*
X427638Y21458D01*
Y22006D01*
X427428Y22513D01*
X427040Y22900D01*
X426853Y22978D01*
X426953Y23478D01*
X427095D01*
X427601Y23688D01*
X427989Y24075D01*
X428199Y24582D01*
Y25130D01*
X427989Y25636D01*
X427601Y26024D01*
X427095Y26234D01*
D02*
G37*
G36*
X365707Y22244D02*
X365159D01*
X364653Y22034D01*
X364265Y21647D01*
X364055Y21140D01*
Y20592D01*
X364265Y20086D01*
X364653Y19698D01*
X365159Y19488D01*
X365707D01*
X366214Y19698D01*
X366601Y20086D01*
X366811Y20592D01*
Y21140D01*
X366601Y21647D01*
X366214Y22034D01*
X365707Y22244D01*
D02*
G37*
G36*
X431316Y20039D02*
X430768D01*
X430262Y19830D01*
X429874Y19442D01*
X429664Y18936D01*
Y18563D01*
X429523Y18426D01*
X429264Y18275D01*
X429202Y18258D01*
X428798Y18425D01*
X428250D01*
X427743Y18215D01*
X427356Y17828D01*
X427146Y17321D01*
Y16773D01*
X427356Y16267D01*
X427743Y15879D01*
X428250Y15669D01*
X428798D01*
X429304Y15879D01*
X429692Y16267D01*
X429902Y16773D01*
Y17146D01*
X430043Y17283D01*
X430302Y17434D01*
X430364Y17451D01*
X430768Y17284D01*
X431316D01*
X431823Y17493D01*
X432210Y17881D01*
X432420Y18387D01*
Y18936D01*
X432210Y19442D01*
X431823Y19830D01*
X431316Y20039D01*
D02*
G37*
G36*
X107412Y25167D02*
X99833D01*
Y17589D01*
X107412D01*
Y25167D01*
D02*
G37*
G36*
X118970Y20312D02*
X118421D01*
X117915Y20102D01*
X117527Y19715D01*
X117318Y19208D01*
Y18660D01*
X117527Y18154D01*
X117915Y17766D01*
X118421Y17556D01*
X118970D01*
X119476Y17766D01*
X119864Y18154D01*
X120073Y18660D01*
Y19208D01*
X119864Y19715D01*
X119476Y20102D01*
X118970Y20312D01*
D02*
G37*
G36*
X185990Y20036D02*
X185442D01*
X184935Y19827D01*
X184548Y19439D01*
X184338Y18933D01*
Y18384D01*
X184548Y17878D01*
X184935Y17490D01*
X185442Y17280D01*
X185990D01*
X186496Y17490D01*
X186884Y17878D01*
X187094Y18384D01*
Y18933D01*
X186884Y19439D01*
X186496Y19827D01*
X185990Y20036D01*
D02*
G37*
G36*
X174915D02*
X174366D01*
X173860Y19827D01*
X173472Y19439D01*
X173262Y18933D01*
Y18384D01*
X173472Y17878D01*
X173860Y17490D01*
X174366Y17280D01*
X174915D01*
X175421Y17490D01*
X175809Y17878D01*
X176018Y18384D01*
Y18933D01*
X175809Y19439D01*
X175421Y19827D01*
X174915Y20036D01*
D02*
G37*
G36*
X357853Y19812D02*
X357305D01*
X356799Y19602D01*
X356411Y19214D01*
X356201Y18708D01*
Y18160D01*
X356411Y17653D01*
X356799Y17266D01*
X357305Y17056D01*
X357853D01*
X358360Y17266D01*
X358748Y17653D01*
X358957Y18160D01*
Y18708D01*
X358748Y19214D01*
X358360Y19602D01*
X357853Y19812D01*
D02*
G37*
G36*
X384551Y22185D02*
X384002D01*
X383496Y21975D01*
X383108Y21588D01*
X382899Y21081D01*
Y20533D01*
X383108Y20027D01*
X383045Y19522D01*
X382690Y19166D01*
X382480Y18660D01*
Y18112D01*
X382690Y17605D01*
X383078Y17218D01*
X383584Y17008D01*
X384132D01*
X384639Y17218D01*
X385027Y17605D01*
X385236Y18112D01*
Y18660D01*
X385027Y19166D01*
X385089Y19671D01*
X385445Y20027D01*
X385654Y20533D01*
Y21081D01*
X385445Y21588D01*
X385057Y21975D01*
X384551Y22185D01*
D02*
G37*
G36*
X376721Y15315D02*
X376173D01*
X375667Y15105D01*
X375279Y14718D01*
X375069Y14211D01*
Y13663D01*
X375279Y13157D01*
X375667Y12769D01*
X376173Y12559D01*
X376721D01*
X377228Y12769D01*
X377615Y13157D01*
X377825Y13663D01*
Y14211D01*
X377615Y14718D01*
X377228Y15105D01*
X376721Y15315D01*
D02*
G37*
G36*
X370628Y14567D02*
X370080D01*
X369574Y14357D01*
X369186Y13970D01*
X368976Y13463D01*
Y12915D01*
X369186Y12409D01*
X369574Y12021D01*
X370080Y11811D01*
X370628D01*
X371135Y12021D01*
X371522Y12409D01*
X371732Y12915D01*
Y13463D01*
X371522Y13970D01*
X371135Y14357D01*
X370628Y14567D01*
D02*
G37*
G36*
X528113Y17723D02*
X527002D01*
X525929Y17435D01*
X524967Y16880D01*
X524181Y16094D01*
X523626Y15132D01*
X523338Y14059D01*
Y12949D01*
X523626Y11876D01*
X524181Y10914D01*
X524967Y10128D01*
X525929Y9573D01*
X527002Y9285D01*
X528113D01*
X529185Y9573D01*
X530148Y10128D01*
X530933Y10914D01*
X531488Y11876D01*
X531776Y12949D01*
Y14059D01*
X531488Y15132D01*
X530933Y16094D01*
X530148Y16880D01*
X529185Y17435D01*
X528113Y17723D01*
D02*
G37*
G36*
X470866Y63150D02*
X439646D01*
Y37008D01*
X459449Y17205D01*
X460015D01*
X460395Y17047D01*
X460943D01*
X461323Y17205D01*
X484585D01*
X484792Y16705D01*
X484181Y16094D01*
X483626Y15132D01*
X483338Y14059D01*
Y12949D01*
X483626Y11876D01*
X484181Y10914D01*
X484967Y10128D01*
X485929Y9573D01*
X487002Y9285D01*
X488112D01*
X489185Y9573D01*
X490147Y10128D01*
X490933Y10914D01*
X491488Y11876D01*
X491776Y12949D01*
Y14059D01*
X491488Y15132D01*
X490933Y16094D01*
X490323Y16705D01*
X490530Y17205D01*
X514173D01*
Y49724D01*
X490380D01*
X490244Y50224D01*
X490933Y50914D01*
X491488Y51876D01*
X491776Y52949D01*
Y54059D01*
X491488Y55132D01*
X490933Y56094D01*
X490147Y56880D01*
X489185Y57435D01*
X488112Y57723D01*
X487002D01*
X485929Y57435D01*
X484967Y56880D01*
X484181Y56094D01*
X483626Y55132D01*
X483338Y54059D01*
Y52949D01*
X483626Y51876D01*
X484181Y50914D01*
X484828Y50267D01*
X484690Y49799D01*
X484266Y49750D01*
X470866Y63150D01*
D02*
G37*
G36*
X396219Y11299D02*
X395671D01*
X395164Y11089D01*
X394777Y10702D01*
X394567Y10195D01*
Y9647D01*
X394777Y9141D01*
X395164Y8753D01*
X395671Y8543D01*
X396219D01*
X396725Y8753D01*
X397113Y9141D01*
X397323Y9647D01*
Y10195D01*
X397113Y10702D01*
X396725Y11089D01*
X396219Y11299D01*
D02*
G37*
G36*
X128896Y33504D02*
X128348D01*
X127841Y33294D01*
X127454Y32906D01*
X127244Y32400D01*
Y31852D01*
X127299Y31719D01*
Y6610D01*
X127296Y6607D01*
X127087Y6101D01*
Y5553D01*
X127296Y5046D01*
X127684Y4659D01*
X128191Y4449D01*
X128739D01*
X129245Y4659D01*
X129633Y5046D01*
X129842Y5553D01*
Y6101D01*
X129788Y6233D01*
Y31343D01*
X129790Y31345D01*
X130000Y31852D01*
Y32400D01*
X129790Y32906D01*
X129403Y33294D01*
X128896Y33504D01*
D02*
G37*
%LPD*%
G36*
X455927Y386888D02*
X455681Y386427D01*
X455630Y386437D01*
X455630Y386437D01*
X194911D01*
X194370Y386979D01*
X194562Y387441D01*
X455375D01*
X455927Y386888D01*
D02*
G37*
D13*
X71004Y200299D02*
X84744Y214039D01*
X71004Y185191D02*
Y200299D01*
X84744Y214039D02*
Y375236D01*
X83327Y214626D02*
Y375823D01*
X69587Y184604D02*
Y200886D01*
X83327Y214626D01*
X71004Y185191D02*
X79037Y177158D01*
X69587Y184604D02*
X77167Y177024D01*
Y73089D02*
Y177024D01*
X79037Y72315D02*
Y177158D01*
X76810Y185454D02*
X90000Y198645D01*
X75139Y187125D02*
X88622Y200607D01*
X78837Y71419D02*
X79025Y71607D01*
Y72303D02*
X79037Y72315D01*
X79025Y71607D02*
Y72303D01*
X83327Y375823D02*
X94570Y387067D01*
X84744Y375236D02*
X95157Y385650D01*
X449994Y376004D02*
X479326Y346672D01*
X449860Y374134D02*
X478965Y345029D01*
X479326Y346672D02*
X479943D01*
X189193Y376004D02*
X449994D01*
X430827Y374134D02*
X449860D01*
X478965Y345029D02*
X479021D01*
X480657Y343393D01*
X479943Y346672D02*
X480169Y346446D01*
X456394Y389902D02*
X484327Y361968D01*
X490866D01*
X82917Y389902D02*
X82972D01*
X456339D02*
X456394D01*
X75353Y382282D02*
Y382338D01*
X75100Y382029D02*
X75353Y382282D01*
X192219Y385650D02*
X194010Y383858D01*
X94570Y387067D02*
X192806D01*
X95157Y385650D02*
X192219D01*
X82972Y389902D02*
X83583Y390512D01*
X455807Y388484D02*
X484685Y359606D01*
X192806Y387067D02*
X194479Y385394D01*
X76770Y381751D02*
X83504Y388484D01*
X75353Y382338D02*
X82917Y389902D01*
X83504Y388484D02*
X455807D01*
X455728Y390512D02*
X456339Y389902D01*
X83583Y390512D02*
X455728D01*
X455748Y385276D02*
X455804D01*
X490703Y351155D02*
X490929Y350929D01*
X455804Y385276D02*
X489925Y351155D01*
X490703D01*
X455630Y385394D02*
X455748Y385276D01*
X455217Y383858D02*
X490650Y348425D01*
X194479Y385394D02*
X455630D01*
X194010Y383858D02*
X455217D01*
X191190Y378307D02*
X452828D01*
X473599Y357536D01*
X191777Y379724D02*
X454055D01*
X188117Y381381D02*
X191190Y378307D01*
X90000Y199981D02*
X90039Y200020D01*
X99867Y381381D02*
X188117D01*
X189107Y382395D02*
X191777Y379724D01*
X454055D02*
X473740Y360039D01*
X90039Y200020D02*
Y371553D01*
X99867Y381381D01*
X90000Y198645D02*
Y199981D01*
X186380Y378818D02*
X189193Y376004D01*
X512867Y331811D02*
X513150D01*
X185694Y312926D02*
X205524Y332756D01*
X511922D01*
X185694Y185093D02*
Y312926D01*
X184277Y313513D02*
X204937Y334173D01*
X184277Y183866D02*
Y313513D01*
X185694Y185093D02*
X186969Y183819D01*
X511922Y332756D02*
X512867Y331811D01*
X198238Y306384D02*
Y316115D01*
X190391Y298537D02*
X198238Y306384D01*
Y316115D02*
X208540Y326417D01*
X196820Y306971D02*
Y316702D01*
X190391Y260899D02*
X194606Y256684D01*
X164469Y141543D02*
X194606Y171681D01*
X190391Y260899D02*
Y298537D01*
X164469Y61964D02*
Y141543D01*
X196820Y316702D02*
X208032Y327913D01*
X480426D01*
X194606Y171681D02*
Y256684D01*
X208540Y326417D02*
X345433D01*
X193189Y172268D02*
Y256097D01*
X188974Y260312D02*
Y299124D01*
X196820Y306971D01*
X188974Y260312D02*
X193189Y256097D01*
X162806Y141885D02*
X193189Y172268D01*
X304134Y319528D02*
X332126D01*
X345433Y326417D02*
X373228D01*
X389803Y374134D02*
X430827D01*
X265266Y201034D02*
Y209700D01*
Y201034D02*
X265295Y201004D01*
X203328Y313906D02*
X208950Y319528D01*
X202513Y313906D02*
X203328D01*
X201804Y314615D02*
X202513Y313906D01*
X201804Y314615D02*
Y316190D01*
X201616Y316378D02*
X201804Y316190D01*
X309998Y257657D02*
Y285909D01*
X308030Y257398D02*
Y312715D01*
X309998Y285909D02*
X310118Y286029D01*
X309998Y257657D02*
X317064Y250591D01*
X308030Y312715D02*
X308150Y312835D01*
X310118Y286029D02*
Y314646D01*
X313150Y284876D02*
Y316201D01*
X311573Y283299D02*
X313150Y284876D01*
X332126Y319528D02*
X349022D01*
X208950D02*
X304134D01*
X209724Y318071D02*
X488026D01*
X373228Y326417D02*
X479325D01*
X379646Y319528D02*
X489045D01*
X488931Y317165D02*
X489094D01*
X488026Y318071D02*
X488931Y317165D01*
X489045Y319528D02*
X489176Y319659D01*
X203577Y311923D02*
X209724Y318071D01*
X349022Y319528D02*
X379646D01*
X203389Y310625D02*
X203577Y310814D01*
Y311923D01*
X480270Y325472D02*
X480394D01*
X479325Y326417D02*
X480270Y325472D01*
X480426Y327913D02*
X480486Y327973D01*
X386085Y334173D02*
X513108D01*
X513129Y334194D01*
X386085Y334173D02*
X386085Y334173D01*
X184277Y183866D02*
X184465Y183678D01*
X162787Y63830D02*
Y64526D01*
X162599Y63642D02*
X162787Y63830D01*
Y64526D02*
X162806Y64545D01*
Y141885D01*
X204937Y334173D02*
X386085D01*
X74900Y315550D02*
X75089Y315738D01*
Y316434D01*
X75100Y316445D02*
Y382029D01*
X75089Y316434D02*
X75100Y316445D01*
X76770Y313879D02*
Y381751D01*
X88622Y200607D02*
Y372140D01*
X99280Y382798D01*
X188704D02*
X189107Y382395D01*
Y382395D02*
Y382395D01*
X99280Y382798D02*
X188704D01*
X-31181Y217087D02*
X-25709Y222559D01*
Y254370D01*
X490650Y348425D02*
X490787D01*
X191063Y374134D02*
X389803D01*
X484685Y359606D02*
X490866D01*
X311573Y258309D02*
Y283299D01*
X308030Y257398D02*
X316963Y248465D01*
X317064Y250591D02*
X324449D01*
X316963Y248465D02*
X323110D01*
X311573Y258309D02*
X317100Y252782D01*
X325671D01*
X265236Y209729D02*
X265266Y209700D01*
D86*
X272115Y192902D02*
D03*
X244882Y253543D02*
D03*
X272008Y229842D02*
D03*
X272441Y253937D02*
D03*
X271811Y26969D02*
D03*
X253583D02*
D03*
Y44842D02*
D03*
X271732Y44370D02*
D03*
X271220Y113071D02*
D03*
X253307Y131890D02*
D03*
X254016Y175157D02*
D03*
X488661Y378583D02*
D03*
X150945Y311772D02*
D03*
X142283Y253740D02*
D03*
X253976Y345669D02*
D03*
X272284Y345590D02*
D03*
X272244Y362795D02*
D03*
X254016Y363110D02*
D03*
X386417Y345197D02*
D03*
X386181Y363583D02*
D03*
X367245Y363570D02*
D03*
X272480Y220905D02*
D03*
X234606Y190748D02*
D03*
X227323Y136142D02*
D03*
X233228Y77362D02*
D03*
X228228Y33504D02*
D03*
X87795Y32283D02*
D03*
X88425Y87638D02*
D03*
X143504Y142677D02*
D03*
X153583Y189646D02*
D03*
X38189Y257008D02*
D03*
X47520Y189331D02*
D03*
X31669Y284680D02*
D03*
X57480Y369134D02*
D03*
X137716Y368976D02*
D03*
X240669Y292874D02*
D03*
X357677Y47657D02*
D03*
X357717Y42540D02*
D03*
Y37028D02*
D03*
X357126Y128898D02*
D03*
X357165Y123780D02*
D03*
Y118268D02*
D03*
X353583Y207992D02*
D03*
X353622Y202874D02*
D03*
Y197362D02*
D03*
X456732Y190630D02*
D03*
X385827Y255000D02*
D03*
X367598D02*
D03*
Y237126D02*
D03*
X385827D02*
D03*
X401339Y232244D02*
D03*
Y238150D02*
D03*
Y244055D02*
D03*
X395433D02*
D03*
Y238150D02*
D03*
Y232244D02*
D03*
D90*
X188381Y138858D02*
Y157515D01*
X199860Y168994D02*
Y252222D01*
X188381Y157515D02*
X199860Y168994D01*
Y252222D02*
X211338Y263701D01*
X169685Y268451D02*
Y273661D01*
X162992Y261758D02*
X169685Y268451D01*
X162992Y203228D02*
Y261758D01*
D91*
X345079Y173015D02*
Y173228D01*
X345230Y172714D02*
X351576Y166367D01*
X345230Y172714D02*
Y172865D01*
X345079Y173015D02*
X345230Y172865D01*
X21260Y125984D02*
X25984D01*
X-7480Y154724D02*
X21260Y125984D01*
X-7480Y154724D02*
Y206221D01*
X-10079Y208819D02*
X-7480Y206221D01*
X-38346Y174488D02*
X4803Y131339D01*
Y129528D02*
Y131339D01*
Y129528D02*
X15701Y118629D01*
X16095Y117749D02*
Y117962D01*
X15701Y118356D02*
Y118629D01*
Y118356D02*
X16095Y117962D01*
X422839Y197510D02*
X425451Y194898D01*
X395276Y278465D02*
X422839Y250901D01*
Y197510D02*
Y250901D01*
X425451Y194685D02*
Y194898D01*
X-10354Y247784D02*
X-8175Y249963D01*
X-4698D01*
X-10354Y246142D02*
Y247784D01*
X-21890Y234606D02*
X-10354Y246142D01*
X-4698Y249963D02*
X19376Y274037D01*
X438071Y165512D02*
X440984D01*
X440945Y98622D02*
X440984Y98583D01*
X439094Y98622D02*
X440945D01*
X438701Y32323D02*
X438740Y32362D01*
X441024D01*
X348319Y252583D02*
X352716Y256981D01*
Y257165D01*
X348319Y248439D02*
Y252583D01*
X435709Y211653D02*
X456732Y190630D01*
X435709Y211653D02*
Y243819D01*
X409646Y269882D02*
X435709Y243819D01*
X128465Y5827D02*
X128543Y5906D01*
Y32047D01*
X128622Y32126D01*
X344736Y248894D02*
X351665Y241964D01*
X348319Y248439D02*
X351643Y245115D01*
X344736Y248894D02*
Y253106D01*
X348838Y89869D02*
X349446D01*
X355496Y83819D01*
X348687Y90020D02*
X348838Y89869D01*
X352700Y81135D02*
X355243D01*
X355394Y80984D01*
X344058Y89777D02*
X352700Y81135D01*
X226270Y170404D02*
X226417Y170551D01*
X230607Y166362D01*
X232182D01*
X236221Y162323D01*
Y140906D02*
Y162323D01*
X240709Y168330D02*
Y168543D01*
Y168330D02*
X242205Y166834D01*
Y137362D02*
Y166834D01*
D94*
X19213Y24291D02*
D03*
D98*
X541890Y374016D02*
D03*
Y324016D02*
D03*
Y355709D02*
D03*
Y305709D02*
D03*
D99*
X76810Y185454D02*
D03*
X75139Y187125D02*
D03*
X480169Y346446D02*
D03*
X187466Y300078D02*
D03*
X265295Y201004D02*
D03*
X326142Y86378D02*
D03*
X324771Y116897D02*
D03*
X318268Y104055D02*
D03*
X51575Y294291D02*
D03*
X345079Y173228D02*
D03*
X355906Y164567D02*
D03*
X289370Y129921D02*
D03*
X309842Y23720D02*
D03*
X142913Y66831D02*
D03*
X95276Y167362D02*
D03*
X-7874Y133071D02*
D03*
X24016Y154724D02*
D03*
X25984Y125984D02*
D03*
X-40780Y170000D02*
D03*
X-38346Y174488D02*
D03*
X445315Y311142D02*
D03*
X441890Y313819D02*
D03*
X421063Y311653D02*
D03*
X433583Y313032D02*
D03*
X413150Y314252D02*
D03*
X409567Y314291D02*
D03*
X432421Y202126D02*
D03*
X417402Y200512D02*
D03*
X425451Y194685D02*
D03*
X431142Y269252D02*
D03*
X183976Y129488D02*
D03*
X395276Y278465D02*
D03*
X201616Y316378D02*
D03*
X308150Y312835D02*
D03*
X310118Y314646D02*
D03*
X313150Y316201D02*
D03*
X489176Y319659D02*
D03*
X480486Y327973D02*
D03*
X513129Y334194D02*
D03*
X184465Y183678D02*
D03*
X162599Y63642D02*
D03*
X224843Y330925D02*
D03*
X235984Y336043D02*
D03*
X74900Y315550D02*
D03*
X76770Y313879D02*
D03*
X348777Y207956D02*
D03*
X-40780Y157362D02*
D03*
X-6693Y127638D02*
D03*
X16095Y117749D02*
D03*
X-31181Y217087D02*
D03*
X473740Y360039D02*
D03*
X473599Y357536D02*
D03*
X149843Y97284D02*
D03*
X422008Y285630D02*
D03*
X147087Y14961D02*
D03*
X-40780Y116378D02*
D03*
Y131929D02*
D03*
Y141575D02*
D03*
Y151024D02*
D03*
Y163701D02*
D03*
Y176339D02*
D03*
Y182598D02*
D03*
Y207835D02*
D03*
Y201614D02*
D03*
Y214173D02*
D03*
Y220236D02*
D03*
Y226850D02*
D03*
Y232992D02*
D03*
Y239449D02*
D03*
Y245590D02*
D03*
Y251969D02*
D03*
Y258228D02*
D03*
Y264488D02*
D03*
Y270821D02*
D03*
Y277130D02*
D03*
X-40778Y280279D02*
D03*
X149265Y224475D02*
D03*
X148110Y266890D02*
D03*
X96176Y50827D02*
D03*
X352716Y257165D02*
D03*
X330067Y256908D02*
D03*
X188381Y138858D02*
D03*
X441024Y32362D02*
D03*
X357874Y25630D02*
D03*
X382126Y158937D02*
D03*
X359685Y109882D02*
D03*
X359606Y184331D02*
D03*
X320276Y194764D02*
D03*
X323858Y35591D02*
D03*
X393937Y96260D02*
D03*
X354702Y78386D02*
D03*
X409646Y269882D02*
D03*
X187913Y80118D02*
D03*
X361179Y91088D02*
D03*
X128622Y32126D02*
D03*
X128465Y5827D02*
D03*
X480394Y325472D02*
D03*
X194095Y267047D02*
D03*
X162874Y154291D02*
D03*
X164469Y61964D02*
D03*
X513150Y331811D02*
D03*
X186969Y183819D02*
D03*
X490929Y350929D02*
D03*
X490787Y348425D02*
D03*
X187520Y249724D02*
D03*
X203389Y310625D02*
D03*
X489094Y317165D02*
D03*
X78837Y71419D02*
D03*
X77167Y73089D02*
D03*
X224882Y371693D02*
D03*
X186380Y378818D02*
D03*
X191063Y374134D02*
D03*
X490866Y359606D02*
D03*
Y361968D02*
D03*
X480657Y343393D02*
D03*
X351643Y245115D02*
D03*
X317992Y187677D02*
D03*
X-21890Y234606D02*
D03*
X361674Y253049D02*
D03*
X359597Y240845D02*
D03*
X357953Y174724D02*
D03*
X344058Y89777D02*
D03*
X226343Y170584D02*
D03*
X317992Y185000D02*
D03*
X211338Y263701D02*
D03*
X324764Y166538D02*
D03*
X265236Y209729D02*
D03*
X321920Y173549D02*
D03*
X351576Y166367D02*
D03*
X139173Y266535D02*
D03*
X113819Y269213D02*
D03*
X20748Y230945D02*
D03*
X-10079Y208819D02*
D03*
X83465Y117323D02*
D03*
X321535Y86142D02*
D03*
X355496Y83819D02*
D03*
X348687Y90020D02*
D03*
X312835Y23386D02*
D03*
X318347Y23465D02*
D03*
X95157Y295590D02*
D03*
X207165Y154646D02*
D03*
X51260Y165866D02*
D03*
X133307Y46890D02*
D03*
X146102Y44370D02*
D03*
X135118Y36811D02*
D03*
X182480Y40827D02*
D03*
X105745Y49761D02*
D03*
X6373Y213344D02*
D03*
X6333Y217123D02*
D03*
X36850Y379567D02*
D03*
X28780D02*
D03*
X21063D02*
D03*
X188110Y160709D02*
D03*
X31142Y209646D02*
D03*
X110748Y101535D02*
D03*
X150709Y116811D02*
D03*
X140261Y97416D02*
D03*
X113228Y206968D02*
D03*
X124449Y237598D02*
D03*
X389567Y13150D02*
D03*
X437795Y8701D02*
D03*
X440984Y98583D02*
D03*
Y165512D02*
D03*
X403858Y151614D02*
D03*
X440709Y216575D02*
D03*
X455630Y289488D02*
D03*
X73110Y5945D02*
D03*
X124055Y75866D02*
D03*
X125787Y128976D02*
D03*
X152441Y163858D02*
D03*
X138779Y160236D02*
D03*
X109921Y164606D02*
D03*
X124213Y191654D02*
D03*
X110315Y211929D02*
D03*
X148504Y204173D02*
D03*
X139409Y204095D02*
D03*
X149370Y284646D02*
D03*
X121102Y298031D02*
D03*
X148150Y329173D02*
D03*
X139252Y329449D02*
D03*
X149488Y347126D02*
D03*
X109361Y334231D02*
D03*
X124400Y361160D02*
D03*
X216881Y268720D02*
D03*
X251211Y223405D02*
D03*
X221206Y223602D02*
D03*
X221172Y174349D02*
D03*
X255266Y116003D02*
D03*
X225975Y116239D02*
D03*
X221054Y73326D02*
D03*
X251133Y21200D02*
D03*
X221211Y21082D02*
D03*
X187235Y28877D02*
D03*
X292756Y51929D02*
D03*
X355394Y80984D02*
D03*
X403268Y84567D02*
D03*
X403780Y18701D02*
D03*
X357716Y13110D02*
D03*
X312520Y103976D02*
D03*
X307402Y104055D02*
D03*
X321654Y166969D02*
D03*
X323150Y245433D02*
D03*
X317992Y245669D02*
D03*
X285394Y207402D02*
D03*
X355315Y39981D02*
D03*
Y45099D02*
D03*
X352871Y47621D02*
D03*
X352835Y42540D02*
D03*
X352835Y37028D02*
D03*
X354764Y121221D02*
D03*
Y126339D02*
D03*
X352320Y128861D02*
D03*
X352283Y123780D02*
D03*
X352284Y118268D02*
D03*
X351220Y200315D02*
D03*
Y205433D02*
D03*
X348740Y202874D02*
D03*
X348741Y197362D02*
D03*
X207087Y358819D02*
D03*
X162244Y357323D02*
D03*
X50551Y271693D02*
D03*
X124488Y305000D02*
D03*
X125157Y178701D02*
D03*
X51102Y143819D02*
D03*
X124803Y60630D02*
D03*
X113327Y144469D02*
D03*
X50866Y27362D02*
D03*
X50945Y50079D02*
D03*
X221496Y288976D02*
D03*
X177520Y289134D02*
D03*
X169685Y273661D02*
D03*
X113189Y28150D02*
D03*
X433779Y77992D02*
D03*
X437756Y141260D02*
D03*
X162992Y203228D02*
D03*
X344736Y253106D02*
D03*
X351665Y241964D02*
D03*
X325671Y252782D02*
D03*
X323110Y248465D02*
D03*
X236221Y140906D02*
D03*
X324449Y250591D02*
D03*
X-25709Y254370D02*
D03*
X242205Y137362D02*
D03*
X240709Y168543D02*
D03*
X19376Y274037D02*
D03*
M02*
