G04*
G04 #@! TF.GenerationSoftware,Altium Limited,Altium Designer,24.1.2 (44)*
G04*
G04 Layer_Physical_Order=4*
G04 Layer_Color=6736896*
%FSLAX25Y25*%
%MOIN*%
G70*
G04*
G04 #@! TF.SameCoordinates,304B12A8-C408-4571-83BD-6C55B5D49174*
G04*
G04*
G04 #@! TF.FilePolarity,Positive*
G04*
G01*
G75*
%ADD13C,0.00787*%
%ADD86C,0.03937*%
%ADD90C,0.01772*%
%ADD91C,0.01181*%
%ADD94C,0.05906*%
%ADD98C,0.12598*%
%ADD99C,0.01968*%
G36*
X545972Y392535D02*
X547338Y392169D01*
X548645Y391628D01*
X549870Y390920D01*
X550993Y390059D01*
X551993Y389059D01*
X552854Y387937D01*
X553561Y386712D01*
X554103Y385405D01*
X554469Y384038D01*
X554654Y382636D01*
Y381928D01*
X554654Y11811D01*
X554654Y11104D01*
X554469Y9701D01*
X554103Y8335D01*
X553562Y7028D01*
X552854Y5803D01*
X551993Y4680D01*
X550993Y3680D01*
X549870Y2819D01*
X548645Y2112D01*
X547338Y1570D01*
X545972Y1204D01*
X544569Y1020D01*
X543862D01*
X445596D01*
X445444Y1519D01*
X445683Y1679D01*
X461127Y17123D01*
X461323Y17205D01*
X484585D01*
X484792Y16705D01*
X484181Y16094D01*
X483626Y15132D01*
X483338Y14059D01*
Y12949D01*
X483626Y11876D01*
X484181Y10914D01*
X484967Y10128D01*
X485929Y9573D01*
X487002Y9285D01*
X488112D01*
X489185Y9573D01*
X490147Y10128D01*
X490933Y10914D01*
X491488Y11876D01*
X491776Y12949D01*
Y14059D01*
X491488Y15132D01*
X490933Y16094D01*
X490323Y16705D01*
X490530Y17205D01*
X514173D01*
Y49724D01*
X490380D01*
X490244Y50224D01*
X490933Y50914D01*
X491488Y51876D01*
X491776Y52949D01*
Y54059D01*
X491488Y55132D01*
X490933Y56094D01*
X490147Y56880D01*
X489185Y57435D01*
X488112Y57723D01*
X487002D01*
X485929Y57435D01*
X484967Y56880D01*
X484181Y56094D01*
X483626Y55132D01*
X483338Y54059D01*
Y52949D01*
X483626Y51876D01*
X484181Y50914D01*
X484828Y50267D01*
X484690Y49799D01*
X484266Y49750D01*
X470866Y63150D01*
X439646D01*
Y37008D01*
X458569Y18085D01*
X444288Y3803D01*
X132248D01*
X129766Y6285D01*
X129633Y6607D01*
X129245Y6995D01*
X128739Y7205D01*
X128191D01*
X127684Y6995D01*
X127296Y6607D01*
X127087Y6101D01*
Y5553D01*
X127296Y5046D01*
X127684Y4659D01*
X128006Y4525D01*
X130852Y1679D01*
X131091Y1519D01*
X130940Y1020D01*
X11811D01*
X11104D01*
X9701Y1204D01*
X8335Y1570D01*
X7028Y2112D01*
X5803Y2819D01*
X4680Y3680D01*
X3680Y4680D01*
X2819Y5803D01*
X2112Y7028D01*
X1570Y8335D01*
X1204Y9701D01*
X1020Y11104D01*
X1020Y11811D01*
X1020Y99508D01*
X942Y99898D01*
X721Y100229D01*
X390Y100450D01*
X-0Y100527D01*
X-23910D01*
X-23934Y100522D01*
X-23960Y100526D01*
X-24345Y100507D01*
X-24419Y100489D01*
X-24494D01*
X-25251Y100338D01*
X-25344Y100300D01*
X-25442Y100280D01*
X-26155Y99985D01*
X-26239Y99929D01*
X-26332Y99891D01*
X-26974Y99462D01*
X-27044Y99391D01*
X-27128Y99335D01*
X-27674Y98789D01*
X-27729Y98706D01*
X-27801Y98635D01*
X-28229Y97993D01*
X-28268Y97900D01*
X-28324Y97817D01*
X-28619Y97104D01*
X-28638Y97005D01*
X-28677Y96913D01*
X-28828Y96156D01*
Y96080D01*
X-28846Y96007D01*
X-28865Y95621D01*
X-28861Y95596D01*
X-28866Y95571D01*
Y93209D01*
X-28866Y93098D01*
X-28951Y92894D01*
X-29107Y92738D01*
X-29311Y92653D01*
X-33834D01*
Y105413D01*
X-33839Y105439D01*
X-33836Y105464D01*
X-33855Y105850D01*
X-33873Y105923D01*
X-33873Y105998D01*
X-34023Y106755D01*
X-34062Y106848D01*
X-34082Y106946D01*
X-34377Y107659D01*
X-34433Y107743D01*
X-34471Y107835D01*
X-34900Y108477D01*
X-34971Y108548D01*
X-35026Y108632D01*
X-35572Y109177D01*
X-35656Y109233D01*
X-35727Y109304D01*
X-36368Y109733D01*
X-36461Y109772D01*
X-36545Y109827D01*
X-37258Y110123D01*
X-37356Y110142D01*
X-37449Y110181D01*
X-38206Y110331D01*
X-38282D01*
X-38355Y110350D01*
X-38741Y110369D01*
X-38766Y110365D01*
X-38791Y110370D01*
X-42795D01*
Y184807D01*
X-38004D01*
X-37971Y184814D01*
X-37937Y184809D01*
X-37321Y184850D01*
X-37224Y184876D01*
X-37123Y184882D01*
X-35932Y185202D01*
X-35813Y185261D01*
X-35686Y185303D01*
X-34618Y185920D01*
X-34518Y186008D01*
X-34407Y186082D01*
X-33535Y186954D01*
X-33461Y187065D01*
X-33373Y187165D01*
X-32756Y188233D01*
X-32713Y188360D01*
X-32654Y188479D01*
X-32335Y189671D01*
X-32326Y189804D01*
X-32300Y189935D01*
Y191168D01*
X-32326Y191299D01*
X-32335Y191432D01*
X-32654Y192623D01*
X-32713Y192743D01*
X-32756Y192869D01*
X-33373Y193937D01*
X-33461Y194037D01*
X-33535Y194148D01*
X-34407Y195020D01*
X-34518Y195094D01*
X-34618Y195182D01*
X-35686Y195799D01*
X-35813Y195842D01*
X-35932Y195901D01*
X-37123Y196220D01*
X-37224Y196227D01*
X-37321Y196253D01*
X-37937Y196293D01*
X-37971Y196289D01*
X-38004Y196295D01*
X-42795D01*
Y283331D01*
X-38791D01*
X-38766Y283336D01*
X-38741Y283332D01*
X-38355Y283351D01*
X-38282Y283369D01*
X-38206Y283369D01*
X-37449Y283520D01*
X-37356Y283558D01*
X-37258Y283578D01*
X-36545Y283873D01*
X-36461Y283929D01*
X-36368Y283967D01*
X-35727Y284396D01*
X-35656Y284467D01*
X-35572Y284523D01*
X-35026Y285069D01*
X-34971Y285152D01*
X-34900Y285223D01*
X-34471Y285865D01*
X-34432Y285958D01*
X-34377Y286041D01*
X-34081Y286754D01*
X-34062Y286853D01*
X-34023Y286946D01*
X-33873Y287703D01*
X-33873Y287778D01*
X-33854Y287852D01*
X-33835Y288237D01*
X-33839Y288263D01*
X-33834Y288287D01*
Y301047D01*
X-29421D01*
X-29421Y301047D01*
X-29421Y301047D01*
X-29311Y301047D01*
X-29107Y300963D01*
X-28951Y300807D01*
X-28866Y300603D01*
X-28866Y300492D01*
X-28866Y300492D01*
X-28866Y300492D01*
Y298130D01*
X-28861Y298105D01*
X-28865Y298080D01*
X-28846Y297694D01*
X-28828Y297621D01*
Y297545D01*
X-28677Y296788D01*
X-28638Y296695D01*
X-28619Y296597D01*
X-28324Y295884D01*
X-28268Y295800D01*
X-28229Y295708D01*
X-27801Y295066D01*
X-27730Y294995D01*
X-27674Y294911D01*
X-27128Y294366D01*
X-27044Y294310D01*
X-26974Y294239D01*
X-26332Y293810D01*
X-26239Y293772D01*
X-26155Y293716D01*
X-25442Y293421D01*
X-25344Y293401D01*
X-25251Y293362D01*
X-24494Y293212D01*
X-24419D01*
X-24345Y293194D01*
X-23959Y293175D01*
X-23934Y293178D01*
X-23910Y293173D01*
X-0D01*
X390Y293251D01*
X721Y293472D01*
X942Y293803D01*
X1020Y294193D01*
Y381890D01*
X1020Y382597D01*
X1204Y384000D01*
X1570Y385366D01*
X2112Y386673D01*
X2819Y387898D01*
X3680Y389020D01*
X4681Y390021D01*
X5803Y390882D01*
X7028Y391589D01*
X8335Y392130D01*
X9701Y392497D01*
X11104Y392681D01*
X11811Y392681D01*
X11811Y392681D01*
X11811Y392681D01*
X543862Y392720D01*
X544569D01*
X545972Y392535D01*
D02*
G37*
%LPC*%
G36*
X186654Y380195D02*
X186105D01*
X185599Y379986D01*
X185211Y379598D01*
X185002Y379092D01*
Y378543D01*
X185211Y378037D01*
X185599Y377649D01*
X186105Y377439D01*
X186654D01*
X187160Y377649D01*
X187548Y378037D01*
X187758Y378543D01*
Y379092D01*
X187548Y379598D01*
X187160Y379986D01*
X186654Y380195D01*
D02*
G37*
G36*
X191337Y375512D02*
X190789D01*
X190283Y375302D01*
X189895Y374914D01*
X189685Y374408D01*
Y373860D01*
X189895Y373353D01*
X190283Y372966D01*
X190789Y372756D01*
X191337D01*
X191844Y372966D01*
X192231Y373353D01*
X192441Y373860D01*
Y374408D01*
X192231Y374914D01*
X191844Y375302D01*
X191337Y375512D01*
D02*
G37*
G36*
X542510Y380315D02*
X541269D01*
X540052Y380073D01*
X538906Y379598D01*
X537874Y378908D01*
X536997Y378031D01*
X536307Y376999D01*
X535833Y375853D01*
X535591Y374636D01*
Y373395D01*
X535833Y372178D01*
X536307Y371032D01*
X536997Y370000D01*
X537874Y369123D01*
X538906Y368433D01*
X540052Y367958D01*
X541269Y367716D01*
X542510D01*
X543727Y367958D01*
X544874Y368433D01*
X545905Y369123D01*
X546783Y370000D01*
X547472Y371032D01*
X547947Y372178D01*
X548189Y373395D01*
Y374636D01*
X547947Y375853D01*
X547472Y376999D01*
X546783Y378031D01*
X545905Y378908D01*
X544874Y379598D01*
X543727Y380073D01*
X542510Y380315D01*
D02*
G37*
G36*
X236495Y370039D02*
X235946D01*
X235440Y369830D01*
X235052Y369442D01*
X234842Y368935D01*
Y368387D01*
X235052Y367881D01*
X235440Y367493D01*
X235946Y367284D01*
X236495D01*
X237001Y367493D01*
X237389Y367881D01*
X237598Y368387D01*
Y368935D01*
X237389Y369442D01*
X237001Y369830D01*
X236495Y370039D01*
D02*
G37*
G36*
X281534Y369016D02*
X280986D01*
X280479Y368806D01*
X280092Y368418D01*
X279882Y367912D01*
Y367364D01*
X280092Y366857D01*
X280479Y366470D01*
X280986Y366260D01*
X281534D01*
X282040Y366470D01*
X282428Y366857D01*
X282638Y367364D01*
Y367912D01*
X282428Y368418D01*
X282040Y368806D01*
X281534Y369016D01*
D02*
G37*
G36*
X117972Y362371D02*
X117423D01*
X116917Y362161D01*
X116529Y361773D01*
X116320Y361267D01*
Y360719D01*
X116529Y360212D01*
X116917Y359825D01*
X117423Y359615D01*
X117972D01*
X118478Y359825D01*
X118866Y360212D01*
X119075Y360719D01*
Y361267D01*
X118866Y361773D01*
X118478Y362161D01*
X117972Y362371D01*
D02*
G37*
G36*
X491140Y363347D02*
X490592D01*
X490086Y363137D01*
X489698Y362749D01*
X489488Y362243D01*
Y361694D01*
X489698Y361188D01*
X489772Y361114D01*
X490074Y360787D01*
X489772Y360461D01*
X489698Y360387D01*
X489488Y359880D01*
Y359332D01*
X489698Y358826D01*
X490086Y358438D01*
X490592Y358228D01*
X491140D01*
X491647Y358438D01*
X492034Y358826D01*
X492244Y359332D01*
Y359880D01*
X492034Y360387D01*
X491960Y360461D01*
X491659Y360787D01*
X491960Y361114D01*
X492034Y361188D01*
X492244Y361694D01*
Y362243D01*
X492034Y362749D01*
X491647Y363137D01*
X491140Y363347D01*
D02*
G37*
G36*
X320509Y362008D02*
X319569D01*
X318701Y361648D01*
X318037Y360984D01*
X317677Y360116D01*
Y359176D01*
X318037Y358308D01*
X318701Y357643D01*
X319569Y357283D01*
X320509D01*
X321377Y357643D01*
X322042Y358308D01*
X322402Y359176D01*
Y360116D01*
X322042Y360984D01*
X321377Y361648D01*
X320509Y362008D01*
D02*
G37*
G36*
X474014Y361417D02*
X473466D01*
X472960Y361208D01*
X472572Y360820D01*
X472362Y360314D01*
Y359765D01*
X472572Y359259D01*
X472654Y359177D01*
X472815Y358714D01*
X472646Y358532D01*
X472431Y358316D01*
X472221Y357810D01*
Y357262D01*
X472431Y356755D01*
X472818Y356368D01*
X473325Y356158D01*
X473873D01*
X474379Y356368D01*
X474767Y356755D01*
X474977Y357262D01*
Y357810D01*
X474767Y358316D01*
X474685Y358398D01*
X474524Y358861D01*
X474693Y359044D01*
X474908Y359259D01*
X475118Y359765D01*
Y360314D01*
X474908Y360820D01*
X474521Y361208D01*
X474014Y361417D01*
D02*
G37*
G36*
X217282Y358779D02*
X216734D01*
X216227Y358569D01*
X215840Y358181D01*
X215630Y357675D01*
Y357127D01*
X215840Y356620D01*
X216227Y356233D01*
X216734Y356023D01*
X217282D01*
X217789Y356233D01*
X218176Y356620D01*
X218386Y357127D01*
Y357675D01*
X218176Y358181D01*
X217789Y358569D01*
X217282Y358779D01*
D02*
G37*
G36*
X320509Y356102D02*
X319569D01*
X318701Y355743D01*
X318037Y355078D01*
X317677Y354210D01*
Y353270D01*
X318037Y352402D01*
X318701Y351738D01*
X319569Y351378D01*
X320509D01*
X321377Y351738D01*
X322042Y352402D01*
X322402Y353270D01*
Y354210D01*
X322042Y355078D01*
X321377Y355743D01*
X320509Y356102D01*
D02*
G37*
G36*
X151368Y352205D02*
X150820D01*
X150313Y351995D01*
X149925Y351607D01*
X149716Y351101D01*
Y350553D01*
X149925Y350046D01*
X150313Y349659D01*
X150820Y349449D01*
X151368D01*
X151874Y349659D01*
X152262Y350046D01*
X152472Y350553D01*
Y351101D01*
X152262Y351607D01*
X151874Y351995D01*
X151368Y352205D01*
D02*
G37*
G36*
X542510Y362008D02*
X541269D01*
X540052Y361766D01*
X538906Y361291D01*
X537874Y360601D01*
X536997Y359724D01*
X536307Y358692D01*
X535833Y357546D01*
X535591Y356329D01*
Y355088D01*
X535833Y353871D01*
X536307Y352725D01*
X536997Y351693D01*
X537874Y350816D01*
X538906Y350126D01*
X540052Y349652D01*
X541269Y349409D01*
X542510D01*
X543727Y349652D01*
X544874Y350126D01*
X545905Y350816D01*
X546783Y351693D01*
X547472Y352725D01*
X547947Y353871D01*
X548189Y355088D01*
Y356329D01*
X547947Y357546D01*
X547472Y358692D01*
X546783Y359724D01*
X545905Y360601D01*
X544874Y361291D01*
X543727Y361766D01*
X542510Y362008D01*
D02*
G37*
G36*
X491203Y352307D02*
X490655D01*
X490148Y352097D01*
X489760Y351709D01*
X489551Y351203D01*
Y350655D01*
X489760Y350148D01*
X489842Y350066D01*
X490003Y349604D01*
X489834Y349421D01*
X489619Y349206D01*
X489409Y348699D01*
Y348151D01*
X489619Y347645D01*
X490007Y347257D01*
X490513Y347047D01*
X491061D01*
X491568Y347257D01*
X491956Y347645D01*
X492165Y348151D01*
Y348699D01*
X491956Y349206D01*
X491874Y349288D01*
X491713Y349750D01*
X491882Y349933D01*
X492097Y350148D01*
X492307Y350655D01*
Y351203D01*
X492097Y351709D01*
X491709Y352097D01*
X491203Y352307D01*
D02*
G37*
G36*
X29093Y348661D02*
X28545D01*
X28038Y348452D01*
X27651Y348064D01*
X27441Y347557D01*
Y347009D01*
X27651Y346503D01*
X28038Y346115D01*
X28545Y345905D01*
X29093D01*
X29599Y346115D01*
X29987Y346503D01*
X30197Y347009D01*
Y347557D01*
X29987Y348064D01*
X29599Y348452D01*
X29093Y348661D01*
D02*
G37*
G36*
X320509Y350197D02*
X319569D01*
X318701Y349837D01*
X318037Y349173D01*
X317677Y348305D01*
Y347365D01*
X318037Y346497D01*
X318701Y345832D01*
X319569Y345473D01*
X320509D01*
X321377Y345832D01*
X322042Y346497D01*
X322402Y347365D01*
Y348305D01*
X322042Y349173D01*
X321377Y349837D01*
X320509Y350197D01*
D02*
G37*
G36*
X36967Y346102D02*
X36419D01*
X35912Y345893D01*
X35525Y345505D01*
X35315Y344999D01*
Y344450D01*
X35525Y343944D01*
X35912Y343556D01*
X36419Y343347D01*
X36967D01*
X37473Y343556D01*
X37861Y343944D01*
X38071Y344450D01*
Y344999D01*
X37861Y345505D01*
X37473Y345893D01*
X36967Y346102D01*
D02*
G37*
G36*
X151987Y345323D02*
X151439D01*
X150933Y345114D01*
X150545Y344726D01*
X150335Y344220D01*
Y343671D01*
X150545Y343165D01*
X150933Y342777D01*
X151439Y342568D01*
X151987D01*
X152494Y342777D01*
X152881Y343165D01*
X153091Y343671D01*
Y344220D01*
X152881Y344726D01*
X152494Y345114D01*
X151987Y345323D01*
D02*
G37*
G36*
X480443Y347824D02*
X479895D01*
X479389Y347614D01*
X479001Y347227D01*
X478792Y346720D01*
Y346172D01*
X479001Y345666D01*
X479389Y345278D01*
X479845Y345089D01*
X479895Y344916D01*
X479894Y344568D01*
X479876Y344561D01*
X479488Y344173D01*
X479279Y343667D01*
Y343119D01*
X479488Y342612D01*
X479876Y342225D01*
X480382Y342015D01*
X480931D01*
X481437Y342225D01*
X481825Y342612D01*
X482035Y343119D01*
Y343667D01*
X481825Y344173D01*
X481437Y344561D01*
X480981Y344750D01*
X480931Y344923D01*
X480932Y345270D01*
X480950Y345278D01*
X481338Y345666D01*
X481547Y346172D01*
Y346720D01*
X481338Y347227D01*
X480950Y347614D01*
X480443Y347824D01*
D02*
G37*
G36*
X124817Y344341D02*
X124269D01*
X123763Y344131D01*
X123375Y343743D01*
X123165Y343237D01*
Y342689D01*
X123375Y342182D01*
X123763Y341795D01*
X124269Y341585D01*
X124817D01*
X125324Y341795D01*
X125711Y342182D01*
X125921Y342689D01*
Y343237D01*
X125711Y343743D01*
X125324Y344131D01*
X124817Y344341D01*
D02*
G37*
G36*
X96219Y341102D02*
X95671D01*
X95164Y340893D01*
X94777Y340505D01*
X94567Y339999D01*
Y339450D01*
X94777Y338944D01*
X95164Y338556D01*
X95671Y338347D01*
X96219D01*
X96725Y338556D01*
X97113Y338944D01*
X97323Y339450D01*
Y339999D01*
X97113Y340505D01*
X96725Y340893D01*
X96219Y341102D01*
D02*
G37*
G36*
X513403Y335572D02*
X512855D01*
X512349Y335362D01*
X511961Y334974D01*
X511751Y334468D01*
Y333920D01*
X511961Y333413D01*
X512055Y333319D01*
X512338Y333013D01*
X512055Y332665D01*
X511981Y332592D01*
X511772Y332085D01*
Y331537D01*
X511981Y331031D01*
X512369Y330643D01*
X512876Y330433D01*
X513424D01*
X513930Y330643D01*
X514318Y331031D01*
X514528Y331537D01*
Y332085D01*
X514318Y332592D01*
X514223Y332686D01*
X513941Y332992D01*
X514223Y333339D01*
X514297Y333413D01*
X514507Y333920D01*
Y334468D01*
X514297Y334974D01*
X513910Y335362D01*
X513403Y335572D01*
D02*
G37*
G36*
X480760Y329351D02*
X480212D01*
X479706Y329141D01*
X479318Y328754D01*
X479108Y328247D01*
Y327699D01*
X479318Y327193D01*
X479415Y327096D01*
X479599Y326673D01*
X479415Y326443D01*
X479225Y326253D01*
X479016Y325746D01*
Y325198D01*
X479225Y324692D01*
X479613Y324304D01*
X480120Y324095D01*
X480668D01*
X481174Y324304D01*
X481562Y324692D01*
X481772Y325198D01*
Y325746D01*
X481562Y326253D01*
X481465Y326350D01*
X481281Y326773D01*
X481465Y327003D01*
X481654Y327193D01*
X481864Y327699D01*
Y328247D01*
X481654Y328754D01*
X481267Y329141D01*
X480760Y329351D01*
D02*
G37*
G36*
X107412Y329419D02*
X99833D01*
Y321841D01*
X107412D01*
Y329419D01*
D02*
G37*
G36*
X27951Y323264D02*
X27403D01*
X26897Y323055D01*
X26509Y322667D01*
X26299Y322161D01*
Y321612D01*
X26509Y321106D01*
X26897Y320718D01*
X27403Y320508D01*
X27951D01*
X28458Y320718D01*
X28845Y321106D01*
X29055Y321612D01*
Y322161D01*
X28845Y322667D01*
X28458Y323055D01*
X27951Y323264D01*
D02*
G37*
G36*
X423778Y322776D02*
X423230D01*
X422723Y322566D01*
X422336Y322178D01*
X422126Y321672D01*
Y321124D01*
X422336Y320617D01*
X422723Y320230D01*
X423230Y320020D01*
X423778D01*
X424285Y320230D01*
X424672Y320617D01*
X424882Y321124D01*
Y321672D01*
X424672Y322178D01*
X424285Y322566D01*
X423778Y322776D01*
D02*
G37*
G36*
X542510Y330315D02*
X541269D01*
X540052Y330073D01*
X538906Y329598D01*
X537874Y328908D01*
X536997Y328031D01*
X536307Y326999D01*
X535833Y325853D01*
X535591Y324636D01*
Y323395D01*
X535833Y322178D01*
X536307Y321032D01*
X536997Y320000D01*
X537874Y319123D01*
X538906Y318433D01*
X540052Y317958D01*
X541269Y317716D01*
X542510D01*
X543727Y317958D01*
X544874Y318433D01*
X545905Y319123D01*
X546783Y320000D01*
X547472Y321032D01*
X547947Y322178D01*
X548189Y323395D01*
Y324636D01*
X547947Y325853D01*
X547472Y326999D01*
X546783Y328031D01*
X545905Y328908D01*
X544874Y329598D01*
X543727Y330073D01*
X542510Y330315D01*
D02*
G37*
G36*
X489450Y321037D02*
X488902D01*
X488396Y320827D01*
X488008Y320440D01*
X487798Y319933D01*
Y319385D01*
X488008Y318879D01*
X488107Y318780D01*
X488298Y318368D01*
X488107Y318127D01*
X487926Y317946D01*
X487717Y317439D01*
Y316891D01*
X487926Y316385D01*
X488314Y315997D01*
X488820Y315787D01*
X489369D01*
X489875Y315997D01*
X490263Y316385D01*
X490473Y316891D01*
Y317439D01*
X490263Y317946D01*
X490164Y318045D01*
X489973Y318457D01*
X490164Y318698D01*
X490344Y318879D01*
X490554Y319385D01*
Y319933D01*
X490344Y320440D01*
X489957Y320827D01*
X489450Y321037D01*
D02*
G37*
G36*
X171573Y321890D02*
X171025D01*
X170519Y321680D01*
X170131Y321292D01*
X169921Y320786D01*
Y320238D01*
X170131Y319731D01*
X170519Y319344D01*
X171025Y319134D01*
X171201D01*
X176663Y313671D01*
X176663Y313671D01*
X177002Y313445D01*
X177401Y313366D01*
X187654D01*
X187845Y312904D01*
X181516Y306575D01*
X181340D01*
X180834Y306365D01*
X180446Y305977D01*
X180236Y305471D01*
Y304923D01*
X180446Y304416D01*
X180834Y304029D01*
X181340Y303819D01*
X181888D01*
X182395Y304029D01*
X182782Y304416D01*
X182992Y304923D01*
Y305099D01*
X189684Y311791D01*
X201952D01*
X202173Y311291D01*
X202135Y311199D01*
X201760Y310908D01*
X201517Y310915D01*
X201319Y310955D01*
X201319Y310955D01*
X199253D01*
X198854Y310875D01*
X198515Y310649D01*
X198515Y310649D01*
X197362Y309496D01*
X197136Y309157D01*
X197056Y308758D01*
X197056Y308758D01*
Y307127D01*
X197056Y307127D01*
X197136Y306728D01*
X197362Y306389D01*
X198982Y304769D01*
X199320Y304543D01*
X199720Y304464D01*
X199720Y304464D01*
X205509D01*
X205509Y304464D01*
X205908Y304543D01*
X206247Y304769D01*
X213268Y311791D01*
X284550D01*
X284630Y311291D01*
X283094Y310792D01*
X281521Y309990D01*
X280092Y308952D01*
X278843Y307703D01*
X277805Y306275D01*
X277003Y304701D01*
X276457Y303021D01*
X276181Y301277D01*
Y299511D01*
X276457Y297766D01*
X277003Y296087D01*
X277805Y294513D01*
X278843Y293084D01*
X280092Y291835D01*
X281521Y290797D01*
X283094Y289995D01*
X284774Y289450D01*
X286519Y289173D01*
X288285D01*
X290029Y289450D01*
X291709Y289995D01*
X293282Y290797D01*
X294711Y291835D01*
X295960Y293084D01*
X296998Y294513D01*
X297800Y296087D01*
X298346Y297766D01*
X298622Y299511D01*
Y301277D01*
X298346Y303021D01*
X297800Y304701D01*
X296998Y306275D01*
X295960Y307703D01*
X294711Y308952D01*
X293282Y309990D01*
X291709Y310792D01*
X290173Y311291D01*
X290253Y311791D01*
X307245D01*
X307369Y311666D01*
X307875Y311457D01*
X308424D01*
X308930Y311666D01*
X309318Y312054D01*
X309528Y312561D01*
Y312858D01*
X309791Y313199D01*
X309990Y313268D01*
X310392D01*
X310899Y313477D01*
X311286Y313865D01*
X311496Y314372D01*
Y314920D01*
X311656Y315159D01*
X312204Y315197D01*
X312369Y315033D01*
X312876Y314823D01*
X313424D01*
X313930Y315033D01*
X314318Y315420D01*
X314528Y315927D01*
Y316475D01*
X314318Y316981D01*
X313930Y317369D01*
X313424Y317579D01*
X312876D01*
X312432Y317395D01*
X311607D01*
X311333Y317578D01*
X310933Y317658D01*
X310933Y317658D01*
X212161D01*
X211762Y317578D01*
X211423Y317352D01*
X211423Y317352D01*
X209524Y315453D01*
X203265D01*
X202931Y315953D01*
X202994Y316104D01*
Y316652D01*
X202784Y317159D01*
X202396Y317546D01*
X201890Y317756D01*
X201342D01*
X200835Y317546D01*
X200448Y317159D01*
X200238Y316652D01*
Y316104D01*
X200300Y315953D01*
X199966Y315453D01*
X177834D01*
X172677Y320610D01*
Y320786D01*
X172467Y321292D01*
X172080Y321680D01*
X171573Y321890D01*
D02*
G37*
G36*
X75174Y316928D02*
X74626D01*
X74120Y316718D01*
X73732Y316330D01*
X73522Y315824D01*
Y315276D01*
X73732Y314769D01*
X74120Y314382D01*
X74626Y314172D01*
X74930D01*
X75179Y314162D01*
X75392Y313721D01*
Y313605D01*
X75602Y313099D01*
X75990Y312711D01*
X76496Y312501D01*
X77044D01*
X77551Y312711D01*
X77938Y313099D01*
X78148Y313605D01*
Y314154D01*
X77938Y314660D01*
X77551Y315048D01*
X77044Y315257D01*
X76740D01*
X76491Y315267D01*
X76278Y315708D01*
Y315824D01*
X76068Y316330D01*
X75681Y316718D01*
X75174Y316928D01*
D02*
G37*
G36*
X542510Y312008D02*
X541269D01*
X540052Y311766D01*
X538906Y311291D01*
X537874Y310601D01*
X536997Y309724D01*
X536307Y308692D01*
X535833Y307546D01*
X535591Y306329D01*
Y305088D01*
X535833Y303871D01*
X536307Y302725D01*
X536997Y301693D01*
X537874Y300816D01*
X538906Y300126D01*
X540052Y299652D01*
X541269Y299409D01*
X542510D01*
X543727Y299652D01*
X544874Y300126D01*
X545905Y300816D01*
X546783Y301693D01*
X547472Y302725D01*
X547947Y303871D01*
X548189Y305088D01*
Y306329D01*
X547947Y307546D01*
X547472Y308692D01*
X546783Y309724D01*
X545905Y310601D01*
X544874Y311291D01*
X543727Y311766D01*
X542510Y312008D01*
D02*
G37*
G36*
X119349Y301629D02*
X118801D01*
X118295Y301419D01*
X117907Y301032D01*
X117697Y300525D01*
Y299977D01*
X117907Y299471D01*
X118295Y299083D01*
X118801Y298873D01*
X119349D01*
X119856Y299083D01*
X120243Y299471D01*
X120453Y299977D01*
Y300525D01*
X120243Y301032D01*
X119856Y301419D01*
X119349Y301629D01*
D02*
G37*
G36*
X28109Y300905D02*
X27561D01*
X27054Y300696D01*
X26667Y300308D01*
X26457Y299802D01*
Y299254D01*
X26667Y298747D01*
X27054Y298359D01*
X27561Y298150D01*
X28109D01*
X28615Y298359D01*
X29003Y298747D01*
X29213Y299254D01*
Y299802D01*
X29003Y300308D01*
X28615Y300696D01*
X28109Y300905D01*
D02*
G37*
G36*
X378836Y311614D02*
X377070D01*
X375325Y311338D01*
X373646Y310792D01*
X372072Y309990D01*
X370643Y308952D01*
X369394Y307703D01*
X368356Y306275D01*
X367554Y304701D01*
X367009Y303021D01*
X366732Y301277D01*
Y299511D01*
X367009Y297766D01*
X367554Y296087D01*
X368356Y294513D01*
X369394Y293084D01*
X370643Y291835D01*
X372072Y290797D01*
X373646Y289995D01*
X375325Y289450D01*
X377070Y289173D01*
X378836D01*
X380580Y289450D01*
X382260Y289995D01*
X383834Y290797D01*
X385262Y291835D01*
X386511Y293084D01*
X387549Y294513D01*
X388351Y296087D01*
X388897Y297766D01*
X389173Y299511D01*
Y301277D01*
X388897Y303021D01*
X388351Y304701D01*
X387549Y306275D01*
X386511Y307703D01*
X385262Y308952D01*
X383834Y309990D01*
X382260Y310792D01*
X380580Y311338D01*
X378836Y311614D01*
D02*
G37*
G36*
X230353Y289370D02*
X229805D01*
X229298Y289160D01*
X228911Y288773D01*
X228701Y288266D01*
Y287718D01*
X228911Y287212D01*
X229298Y286824D01*
X229805Y286614D01*
X230353D01*
X230859Y286824D01*
X231247Y287212D01*
X231457Y287718D01*
Y288266D01*
X231247Y288773D01*
X230859Y289160D01*
X230353Y289370D01*
D02*
G37*
G36*
X103188Y287402D02*
X102639D01*
X102133Y287192D01*
X101745Y286804D01*
X101535Y286298D01*
Y285750D01*
X101745Y285243D01*
X102133Y284856D01*
X102639Y284646D01*
X103188D01*
X103694Y284856D01*
X104082Y285243D01*
X104291Y285750D01*
Y286298D01*
X104082Y286804D01*
X103694Y287192D01*
X103188Y287402D01*
D02*
G37*
G36*
X151633Y282922D02*
X151085D01*
X150578Y282712D01*
X150191Y282325D01*
X149981Y281818D01*
Y281270D01*
X150191Y280764D01*
X150578Y280376D01*
X151085Y280166D01*
X151633D01*
X152139Y280376D01*
X152527Y280764D01*
X152737Y281270D01*
Y281818D01*
X152527Y282325D01*
X152139Y282712D01*
X151633Y282922D01*
D02*
G37*
G36*
X165392Y283543D02*
X164844D01*
X164338Y283334D01*
X163950Y282946D01*
X163740Y282439D01*
Y281891D01*
X163950Y281385D01*
X164338Y280997D01*
X164844Y280787D01*
X165392D01*
X165899Y280997D01*
X166023Y281122D01*
X170910D01*
X174858Y277174D01*
X174651Y276674D01*
X168132D01*
X168132Y276674D01*
X167733Y276594D01*
X167606Y276509D01*
X166292D01*
X166167Y276634D01*
X165661Y276844D01*
X165113D01*
X164606Y276634D01*
X164219Y276246D01*
X164009Y275740D01*
Y275191D01*
X164219Y274685D01*
X164606Y274297D01*
X165113Y274088D01*
X165661D01*
X166167Y274297D01*
X166292Y274422D01*
X167968D01*
X167968Y274422D01*
X168327Y273984D01*
X168307Y273936D01*
Y273387D01*
X168517Y272881D01*
X168905Y272493D01*
X169411Y272284D01*
X169959D01*
X170466Y272493D01*
X170853Y272881D01*
X171063Y273387D01*
Y273936D01*
X171001Y274086D01*
X171335Y274586D01*
X174773D01*
X206176Y243183D01*
X206176Y243183D01*
X206514Y242957D01*
X206914Y242878D01*
X275276D01*
X275401Y242753D01*
X275907Y242543D01*
X276455D01*
X276962Y242753D01*
X277349Y243141D01*
X277559Y243647D01*
Y244195D01*
X277349Y244702D01*
X276962Y245090D01*
X276455Y245299D01*
X275907D01*
X275401Y245090D01*
X275276Y244965D01*
X207346D01*
X204760Y247551D01*
X204967Y248051D01*
X276793D01*
X276917Y247926D01*
X277424Y247716D01*
X277972D01*
X278478Y247926D01*
X278866Y248314D01*
X279076Y248820D01*
Y249369D01*
X278866Y249875D01*
X278478Y250263D01*
X277972Y250472D01*
X277424D01*
X276917Y250263D01*
X276793Y250138D01*
X204846D01*
X172081Y282903D01*
X171742Y283130D01*
X171343Y283209D01*
X171343Y283209D01*
X166023D01*
X165899Y283334D01*
X165392Y283543D01*
D02*
G37*
G36*
X94822Y279300D02*
X94274D01*
X93767Y279090D01*
X93380Y278702D01*
X93170Y278196D01*
Y277648D01*
X93380Y277141D01*
X93767Y276754D01*
X94274Y276544D01*
X94822D01*
X95328Y276754D01*
X95716Y277141D01*
X95926Y277648D01*
Y278196D01*
X95716Y278702D01*
X95328Y279090D01*
X94822Y279300D01*
D02*
G37*
G36*
X417833Y277283D02*
X417285D01*
X416779Y277074D01*
X416391Y276686D01*
X416181Y276180D01*
Y275631D01*
X416391Y275125D01*
X416779Y274737D01*
X417285Y274528D01*
X417833D01*
X418340Y274737D01*
X418727Y275125D01*
X418937Y275631D01*
Y276180D01*
X418727Y276686D01*
X418340Y277074D01*
X417833Y277283D01*
D02*
G37*
G36*
X528113Y282920D02*
X527002D01*
X525929Y282632D01*
X524967Y282077D01*
X524181Y281291D01*
X523626Y280329D01*
X523338Y279256D01*
Y278145D01*
X523626Y277073D01*
X524181Y276111D01*
X524967Y275325D01*
X525929Y274770D01*
X527002Y274482D01*
X528113D01*
X529185Y274770D01*
X530148Y275325D01*
X530933Y276111D01*
X531488Y277073D01*
X531776Y278145D01*
Y279256D01*
X531488Y280329D01*
X530933Y281291D01*
X530148Y282077D01*
X529185Y282632D01*
X528113Y282920D01*
D02*
G37*
G36*
X488112D02*
X487002D01*
X485929Y282632D01*
X484967Y282077D01*
X484181Y281291D01*
X483626Y280329D01*
X483338Y279256D01*
Y278145D01*
X483626Y277073D01*
X484181Y276111D01*
X484967Y275325D01*
X485929Y274770D01*
X487002Y274482D01*
X488112D01*
X489185Y274770D01*
X490147Y275325D01*
X490933Y276111D01*
X491488Y277073D01*
X491776Y278145D01*
Y279256D01*
X491488Y280329D01*
X490933Y281291D01*
X490147Y282077D01*
X489185Y282632D01*
X488112Y282920D01*
D02*
G37*
G36*
X-4568Y276575D02*
X-5117D01*
X-5623Y276365D01*
X-6011Y275978D01*
X-6220Y275471D01*
Y274923D01*
X-6011Y274416D01*
X-5623Y274029D01*
X-5117Y273819D01*
X-4568D01*
X-4062Y274029D01*
X-3674Y274416D01*
X-3464Y274923D01*
Y275471D01*
X-3674Y275978D01*
X-4062Y276365D01*
X-4568Y276575D01*
D02*
G37*
G36*
X19650Y275415D02*
X19102D01*
X18596Y275205D01*
X18208Y274817D01*
X17998Y274311D01*
Y273762D01*
X18208Y273256D01*
X18596Y272868D01*
X19102Y272659D01*
X19650D01*
X20157Y272868D01*
X20545Y273256D01*
X20754Y273762D01*
Y274311D01*
X20545Y274817D01*
X20157Y275205D01*
X19650Y275415D01*
D02*
G37*
G36*
X-21694Y272795D02*
X-22242D01*
X-22749Y272586D01*
X-23137Y272198D01*
X-23346Y271691D01*
Y271143D01*
X-23137Y270637D01*
X-22749Y270249D01*
X-22242Y270040D01*
X-21694D01*
X-21188Y270249D01*
X-20800Y270637D01*
X-20591Y271143D01*
Y271691D01*
X-20800Y272198D01*
X-21188Y272586D01*
X-21694Y272795D01*
D02*
G37*
G36*
X409920Y271260D02*
X409372D01*
X409049Y271126D01*
X339678D01*
X339202Y271032D01*
X338798Y270762D01*
X325462Y257425D01*
X280594D01*
X279226Y258793D01*
X278823Y259063D01*
X278346Y259158D01*
X209927D01*
X209605Y259291D01*
X209057D01*
X208550Y259082D01*
X208162Y258694D01*
X207953Y258188D01*
Y257639D01*
X208162Y257133D01*
X208550Y256745D01*
X209057Y256535D01*
X209605D01*
X209927Y256669D01*
X277831D01*
X279199Y255301D01*
X279603Y255031D01*
X280079Y254937D01*
X325977D01*
X326454Y255031D01*
X326857Y255301D01*
X340194Y268637D01*
X409049D01*
X409372Y268504D01*
X409920D01*
X410426Y268714D01*
X410814Y269101D01*
X411024Y269608D01*
Y270156D01*
X410814Y270662D01*
X410426Y271050D01*
X409920Y271260D01*
D02*
G37*
G36*
X395550Y279842D02*
X395002D01*
X394679Y279709D01*
X218543D01*
X218067Y279614D01*
X217663Y279345D01*
X215565Y277247D01*
X215243Y277113D01*
X214856Y276725D01*
X214646Y276219D01*
Y275671D01*
X214856Y275164D01*
X215243Y274777D01*
X215750Y274567D01*
X216298D01*
X216804Y274777D01*
X217192Y275164D01*
X217325Y275487D01*
X219059Y277220D01*
X234405D01*
X234612Y276720D01*
X223138Y265246D01*
X211338D01*
X210747Y265129D01*
X210246Y264794D01*
X209911Y264292D01*
X209793Y263701D01*
X209911Y263109D01*
X210246Y262608D01*
X210747Y262273D01*
X211338Y262155D01*
X223779D01*
X224370Y262273D01*
X224871Y262608D01*
X236643Y274380D01*
X313600D01*
X313807Y273880D01*
X313549Y273622D01*
X313189Y272753D01*
Y271814D01*
X313549Y270945D01*
X314213Y270281D01*
X315081Y269921D01*
X316021D01*
X316889Y270281D01*
X317554Y270945D01*
X317913Y271814D01*
Y272753D01*
X317554Y273622D01*
X317296Y273880D01*
X317503Y274380D01*
X320765D01*
X320972Y273880D01*
X320714Y273622D01*
X320354Y272753D01*
Y271814D01*
X320714Y270945D01*
X321378Y270281D01*
X322247Y269921D01*
X323186D01*
X324055Y270281D01*
X324719Y270945D01*
X325079Y271814D01*
Y272753D01*
X324719Y273622D01*
X324461Y273880D01*
X324668Y274380D01*
X411074D01*
X417728Y267726D01*
X418230Y267391D01*
X418821Y267273D01*
X426968D01*
X427560Y267391D01*
X428061Y267726D01*
X428396Y268228D01*
X428514Y268819D01*
X428396Y269410D01*
X428061Y269912D01*
X427560Y270247D01*
X426968Y270364D01*
X419461D01*
X412807Y277018D01*
X412306Y277353D01*
X411715Y277471D01*
X396884D01*
X396563Y277971D01*
X396654Y278190D01*
Y278739D01*
X396444Y279245D01*
X396056Y279633D01*
X395550Y279842D01*
D02*
G37*
G36*
X323186Y268740D02*
X322247D01*
X321378Y268381D01*
X320714Y267716D01*
X320354Y266848D01*
Y265908D01*
X320714Y265040D01*
X321378Y264375D01*
X322247Y264016D01*
X323186D01*
X324055Y264375D01*
X324719Y265040D01*
X325079Y265908D01*
Y266848D01*
X324719Y267716D01*
X324055Y268381D01*
X323186Y268740D01*
D02*
G37*
G36*
X316021D02*
X315081D01*
X314213Y268381D01*
X313549Y267716D01*
X313189Y266848D01*
Y265908D01*
X313549Y265040D01*
X314213Y264375D01*
X315081Y264016D01*
X316021D01*
X316889Y264375D01*
X317554Y265040D01*
X317913Y265908D01*
Y266848D01*
X317554Y267716D01*
X316889Y268381D01*
X316021Y268740D01*
D02*
G37*
G36*
X-25676Y263695D02*
X-26224D01*
X-26731Y263485D01*
X-27119Y263098D01*
X-27328Y262591D01*
Y262346D01*
X-27828Y262139D01*
X-27960Y262270D01*
X-28466Y262480D01*
X-29014D01*
X-29521Y262270D01*
X-29908Y261883D01*
X-30118Y261377D01*
Y260828D01*
X-30041Y260642D01*
X-30110Y260441D01*
X-30354Y260114D01*
X-30690Y260047D01*
X-31094Y259777D01*
X-32510Y258361D01*
X-35633D01*
X-35956Y258495D01*
X-36504D01*
X-37010Y258285D01*
X-37398Y257897D01*
X-37608Y257391D01*
Y256843D01*
X-37398Y256336D01*
X-37010Y255949D01*
X-36504Y255739D01*
X-36488D01*
X-36154Y255239D01*
X-36220Y255077D01*
Y254529D01*
X-36011Y254023D01*
X-35623Y253635D01*
X-35117Y253425D01*
X-34568D01*
X-34246Y253559D01*
X-31656D01*
X-31556Y253059D01*
X-31844Y252940D01*
X-32231Y252552D01*
X-32441Y252046D01*
Y251498D01*
X-32231Y250991D01*
X-31844Y250604D01*
X-31457Y250443D01*
X-31395Y250003D01*
X-31407Y249923D01*
X-31539Y249868D01*
X-31927Y249480D01*
X-32136Y248974D01*
Y248426D01*
X-31927Y247919D01*
X-31539Y247532D01*
X-31032Y247322D01*
X-30484D01*
X-29978Y247532D01*
X-29590Y247919D01*
X-29380Y248426D01*
Y248974D01*
X-29590Y249480D01*
X-29978Y249868D01*
X-30365Y250028D01*
X-30426Y250468D01*
X-30414Y250549D01*
X-30283Y250604D01*
X-29895Y250991D01*
X-29685Y251498D01*
Y252046D01*
X-29895Y252552D01*
X-30283Y252940D01*
X-30570Y253059D01*
X-30470Y253559D01*
X-28060D01*
X-27583Y253654D01*
X-27475Y253726D01*
X-26877Y253590D01*
X-26489Y253202D01*
X-25983Y252992D01*
X-25435D01*
X-24928Y253202D01*
X-24541Y253590D01*
X-24331Y254096D01*
Y254644D01*
X-24541Y255151D01*
X-24328Y255645D01*
X-8549D01*
X-8227Y255512D01*
X-7679D01*
X-7172Y255722D01*
X-6785Y256109D01*
X-6575Y256616D01*
Y257164D01*
X-6605Y257238D01*
X-6327Y257653D01*
X-5478D01*
X-5156Y257520D01*
X-4608D01*
X-4101Y257729D01*
X-3714Y258117D01*
X-3504Y258624D01*
Y259172D01*
X-3714Y259678D01*
X-4101Y260066D01*
X-4608Y260276D01*
X-5156D01*
X-5478Y260142D01*
X-27105D01*
X-27419Y260611D01*
X-27367Y260818D01*
X-27362Y260828D01*
Y260835D01*
X-27295Y261101D01*
X-26862Y261280D01*
X-26731Y261149D01*
X-26224Y260939D01*
X-25676D01*
X-25170Y261149D01*
X-24782Y261537D01*
X-24573Y262043D01*
Y262591D01*
X-24782Y263098D01*
X-25170Y263485D01*
X-25676Y263695D01*
D02*
G37*
G36*
X114841Y261260D02*
X114293D01*
X113786Y261050D01*
X113399Y260662D01*
X113189Y260156D01*
Y259608D01*
X113399Y259101D01*
X113786Y258714D01*
X114293Y258504D01*
X114841D01*
X115348Y258714D01*
X115735Y259101D01*
X115945Y259608D01*
Y260156D01*
X115735Y260662D01*
X115348Y261050D01*
X114841Y261260D01*
D02*
G37*
G36*
X323186Y262835D02*
X322247D01*
X321378Y262475D01*
X320714Y261810D01*
X320354Y260942D01*
Y260003D01*
X320714Y259134D01*
X321378Y258470D01*
X322247Y258110D01*
X323186D01*
X324055Y258470D01*
X324719Y259134D01*
X325079Y260003D01*
Y260942D01*
X324719Y261810D01*
X324055Y262475D01*
X323186Y262835D01*
D02*
G37*
G36*
X316021D02*
X315081D01*
X314213Y262475D01*
X313549Y261810D01*
X313189Y260942D01*
Y260003D01*
X313549Y259134D01*
X314213Y258470D01*
X315081Y258110D01*
X316021D01*
X316889Y258470D01*
X317554Y259134D01*
X317913Y260003D01*
Y260942D01*
X317554Y261810D01*
X316889Y262475D01*
X316021Y262835D01*
D02*
G37*
G36*
X352991Y258543D02*
X352443D01*
X351936Y258333D01*
X351548Y257946D01*
X351339Y257439D01*
Y256891D01*
X351548Y256385D01*
X351936Y255997D01*
X352443Y255787D01*
X352991D01*
X353497Y255997D01*
X353885Y256385D01*
X354095Y256891D01*
Y257439D01*
X353885Y257946D01*
X353497Y258333D01*
X352991Y258543D01*
D02*
G37*
G36*
X10392Y261929D02*
X9844D01*
X9338Y261719D01*
X8950Y261332D01*
X8740Y260825D01*
Y260277D01*
X8950Y259771D01*
X9338Y259383D01*
X9679Y259242D01*
Y258711D01*
X9338Y258570D01*
X8950Y258182D01*
X8740Y257676D01*
Y257127D01*
X8950Y256621D01*
X9338Y256233D01*
X9679Y256092D01*
Y255562D01*
X9338Y255420D01*
X8950Y255032D01*
X8740Y254526D01*
Y253978D01*
X8950Y253471D01*
X9338Y253084D01*
X9844Y252874D01*
X10392D01*
X10899Y253084D01*
X11286Y253471D01*
X11496Y253978D01*
Y254526D01*
X11286Y255032D01*
X10899Y255420D01*
X10557Y255562D01*
Y256092D01*
X10899Y256233D01*
X11286Y256621D01*
X11496Y257127D01*
Y257676D01*
X11286Y258182D01*
X10899Y258570D01*
X10557Y258711D01*
Y259242D01*
X10899Y259383D01*
X11286Y259771D01*
X11496Y260277D01*
Y260825D01*
X11286Y261332D01*
X10899Y261719D01*
X10392Y261929D01*
D02*
G37*
G36*
X345010Y254484D02*
X344462D01*
X343956Y254274D01*
X343568Y253887D01*
X343358Y253380D01*
Y252832D01*
X343568Y252326D01*
X343956Y251938D01*
X344462Y251728D01*
X345010D01*
X345517Y251938D01*
X345904Y252326D01*
X346114Y252832D01*
Y253380D01*
X345904Y253887D01*
X345517Y254274D01*
X345010Y254484D01*
D02*
G37*
G36*
X503211Y265738D02*
X501825D01*
X500465Y265468D01*
X499184Y264937D01*
X498032Y264167D01*
X497051Y263187D01*
X496281Y262034D01*
X495751Y260753D01*
X495480Y259394D01*
Y258008D01*
X495751Y256648D01*
X496281Y255367D01*
X497051Y254215D01*
X498032Y253235D01*
X499184Y252464D01*
X500465Y251934D01*
X501825Y251663D01*
X503211D01*
X504570Y251934D01*
X505851Y252464D01*
X507004Y253235D01*
X507984Y254215D01*
X508754Y255367D01*
X509285Y256648D01*
X509555Y258008D01*
Y259394D01*
X509285Y260753D01*
X508754Y262034D01*
X507984Y263187D01*
X507004Y264167D01*
X505851Y264937D01*
X504570Y265468D01*
X503211Y265738D01*
D02*
G37*
G36*
X-18400Y251102D02*
X-18949D01*
X-19455Y250893D01*
X-19843Y250505D01*
X-20053Y249998D01*
Y249450D01*
X-19843Y248944D01*
X-19455Y248556D01*
X-18949Y248346D01*
X-18400D01*
X-17894Y248556D01*
X-17506Y248944D01*
X-17297Y249450D01*
Y249998D01*
X-17506Y250505D01*
X-17894Y250893D01*
X-18400Y251102D01*
D02*
G37*
G36*
X107412Y255718D02*
X99833D01*
Y248140D01*
X107412D01*
Y255718D01*
D02*
G37*
G36*
X325945Y254160D02*
X325397D01*
X324890Y253950D01*
X324503Y253563D01*
X324293Y253056D01*
Y252508D01*
X324309Y252469D01*
X324175Y251969D01*
X324040Y251913D01*
X323668Y251759D01*
X323281Y251371D01*
X323071Y250865D01*
Y250317D01*
X323102Y250241D01*
X322836Y249843D01*
X322330Y249633D01*
X321942Y249245D01*
X321732Y248739D01*
Y248190D01*
X321942Y247684D01*
X322330Y247297D01*
X322836Y247087D01*
X323384D01*
X323891Y247297D01*
X324278Y247684D01*
X324488Y248190D01*
Y248739D01*
X324457Y248815D01*
X324723Y249213D01*
X325229Y249422D01*
X325617Y249810D01*
X325827Y250317D01*
Y250865D01*
X325810Y250904D01*
X325945Y251404D01*
X326080Y251460D01*
X326451Y251614D01*
X326839Y252002D01*
X327049Y252508D01*
Y253056D01*
X326839Y253563D01*
X326451Y253950D01*
X325945Y254160D01*
D02*
G37*
G36*
X-6694Y247874D02*
X-7243D01*
X-7749Y247664D01*
X-8137Y247277D01*
X-8347Y246770D01*
Y246222D01*
X-8137Y245715D01*
X-7749Y245328D01*
X-7243Y245118D01*
X-6694D01*
X-6188Y245328D01*
X-5800Y245715D01*
X-5591Y246222D01*
Y246770D01*
X-5800Y247277D01*
X-6188Y247664D01*
X-6694Y247874D01*
D02*
G37*
G36*
X360237Y247692D02*
X359689D01*
X359183Y247482D01*
X358795Y247094D01*
X358585Y246588D01*
Y246040D01*
X358795Y245533D01*
X359183Y245146D01*
X359689Y244936D01*
X360237D01*
X360744Y245146D01*
X361132Y245533D01*
X361341Y246040D01*
Y246588D01*
X361132Y247094D01*
X360744Y247482D01*
X360237Y247692D01*
D02*
G37*
G36*
X-34608Y246457D02*
X-35156D01*
X-35662Y246247D01*
X-36050Y245859D01*
X-36260Y245353D01*
Y244805D01*
X-36050Y244298D01*
X-35662Y243911D01*
X-35156Y243701D01*
X-34608D01*
X-34101Y243911D01*
X-33714Y244298D01*
X-33504Y244805D01*
Y245353D01*
X-33714Y245859D01*
X-34101Y246247D01*
X-34608Y246457D01*
D02*
G37*
G36*
X-20238Y244724D02*
X-20786D01*
X-21292Y244515D01*
X-21680Y244127D01*
X-21890Y243620D01*
Y243072D01*
X-21680Y242566D01*
X-21292Y242178D01*
X-20786Y241968D01*
X-20238D01*
X-19731Y242178D01*
X-19344Y242566D01*
X-19134Y243072D01*
Y243620D01*
X-19344Y244127D01*
X-19731Y244515D01*
X-20238Y244724D01*
D02*
G37*
G36*
X351917Y246493D02*
X351369D01*
X350862Y246283D01*
X350475Y245895D01*
X350265Y245389D01*
Y244841D01*
X350475Y244334D01*
X350862Y243947D01*
X351205Y243804D01*
X351228Y243275D01*
X350885Y243133D01*
X350497Y242745D01*
X350287Y242238D01*
Y241690D01*
X350497Y241184D01*
X350885Y240796D01*
X351391Y240586D01*
X351939D01*
X352446Y240796D01*
X352834Y241184D01*
X353043Y241690D01*
Y242238D01*
X352834Y242745D01*
X352446Y243133D01*
X352102Y243275D01*
X352080Y243804D01*
X352423Y243947D01*
X352811Y244334D01*
X353021Y244841D01*
Y245389D01*
X352811Y245895D01*
X352423Y246283D01*
X351917Y246493D01*
D02*
G37*
G36*
X121416Y250787D02*
X120868D01*
X120361Y250578D01*
X119974Y250190D01*
X119764Y249683D01*
Y249135D01*
X119974Y248629D01*
X120361Y248241D01*
X120868Y248031D01*
X121044D01*
X130797Y238278D01*
X131136Y238052D01*
X131535Y237972D01*
X131535Y237972D01*
X276030D01*
X276230Y237772D01*
X276737Y237562D01*
X277285D01*
X277791Y237772D01*
X278179Y238159D01*
X278389Y238666D01*
Y239214D01*
X278179Y239721D01*
X277791Y240108D01*
X277285Y240318D01*
X276737D01*
X276230Y240108D01*
X276182Y240059D01*
X131968D01*
X122520Y249507D01*
Y249683D01*
X122310Y250190D01*
X121922Y250578D01*
X121416Y250787D01*
D02*
G37*
G36*
X10353Y245866D02*
X9805D01*
X9298Y245656D01*
X8911Y245269D01*
X8701Y244762D01*
Y244214D01*
X8911Y243708D01*
X9298Y243320D01*
X9640Y243179D01*
Y242648D01*
X9298Y242507D01*
X8911Y242119D01*
X8701Y241613D01*
Y241065D01*
X8911Y240558D01*
X9298Y240170D01*
X9640Y240029D01*
Y239499D01*
X9298Y239357D01*
X8911Y238969D01*
X8701Y238463D01*
Y237915D01*
X8911Y237408D01*
X9298Y237021D01*
X9805Y236811D01*
X10353D01*
X10859Y237021D01*
X11247Y237408D01*
X11457Y237915D01*
Y238463D01*
X11247Y238969D01*
X10859Y239357D01*
X10518Y239499D01*
Y240029D01*
X10859Y240170D01*
X11247Y240558D01*
X11457Y241065D01*
Y241613D01*
X11247Y242119D01*
X10859Y242507D01*
X10518Y242648D01*
Y243179D01*
X10859Y243320D01*
X11247Y243708D01*
X11457Y244214D01*
Y244762D01*
X11247Y245269D01*
X10859Y245656D01*
X10353Y245866D01*
D02*
G37*
G36*
X117814Y238946D02*
X117266D01*
X116759Y238736D01*
X116372Y238348D01*
X116162Y237842D01*
Y237294D01*
X116372Y236787D01*
X116759Y236399D01*
X117266Y236190D01*
X117814D01*
X118321Y236399D01*
X118708Y236787D01*
X118918Y237294D01*
Y237842D01*
X118708Y238348D01*
X118321Y238736D01*
X117814Y238946D01*
D02*
G37*
G36*
X-27737Y237686D02*
X-28285D01*
X-28792Y237476D01*
X-29179Y237088D01*
X-29389Y236582D01*
Y236034D01*
X-29179Y235527D01*
X-28792Y235139D01*
X-28285Y234930D01*
X-27737D01*
X-27231Y235139D01*
X-26843Y235527D01*
X-26633Y236034D01*
Y236582D01*
X-26843Y237088D01*
X-27231Y237476D01*
X-27737Y237686D01*
D02*
G37*
G36*
X237676Y237323D02*
X237127D01*
X236621Y237113D01*
X236233Y236725D01*
X236024Y236219D01*
Y235671D01*
X236233Y235164D01*
X236621Y234777D01*
X237127Y234567D01*
X237676D01*
X238182Y234777D01*
X238570Y235164D01*
X238779Y235671D01*
Y236219D01*
X238570Y236725D01*
X238182Y237113D01*
X237676Y237323D01*
D02*
G37*
G36*
X528113Y242919D02*
X527002D01*
X525929Y242632D01*
X524967Y242077D01*
X524181Y241291D01*
X523626Y240329D01*
X523338Y239256D01*
Y238145D01*
X523626Y237072D01*
X524181Y236110D01*
X524967Y235325D01*
X525929Y234770D01*
X527002Y234482D01*
X528113D01*
X529185Y234770D01*
X530148Y235325D01*
X530933Y236110D01*
X531488Y237072D01*
X531776Y238145D01*
Y239256D01*
X531488Y240329D01*
X530933Y241291D01*
X530148Y242077D01*
X529185Y242632D01*
X528113Y242919D01*
D02*
G37*
G36*
X488112D02*
X487002D01*
X485929Y242632D01*
X484967Y242077D01*
X484181Y241291D01*
X483626Y240329D01*
X483338Y239256D01*
Y238145D01*
X483626Y237072D01*
X484181Y236110D01*
X484967Y235325D01*
X485929Y234770D01*
X487002Y234482D01*
X488112D01*
X489185Y234770D01*
X490147Y235325D01*
X490933Y236110D01*
X491488Y237072D01*
X491776Y238145D01*
Y239256D01*
X491488Y240329D01*
X490933Y241291D01*
X490147Y242077D01*
X489185Y242632D01*
X488112Y242919D01*
D02*
G37*
G36*
X-21616Y235984D02*
X-22164D01*
X-22670Y235774D01*
X-23058Y235387D01*
X-23268Y234880D01*
Y234332D01*
X-23058Y233826D01*
X-22670Y233438D01*
X-22164Y233228D01*
X-21616D01*
X-21109Y233438D01*
X-20721Y233826D01*
X-20512Y234332D01*
Y234880D01*
X-20721Y235387D01*
X-21109Y235774D01*
X-21616Y235984D01*
D02*
G37*
G36*
X233699Y235118D02*
X233151D01*
X232645Y234908D01*
X232257Y234521D01*
X232047Y234014D01*
Y233466D01*
X232257Y232960D01*
X232645Y232572D01*
X233151Y232362D01*
X233699D01*
X234206Y232572D01*
X234593Y232960D01*
X234803Y233466D01*
Y234014D01*
X234593Y234521D01*
X234206Y234908D01*
X233699Y235118D01*
D02*
G37*
G36*
X-10159Y233228D02*
X-10707D01*
X-11214Y233019D01*
X-11601Y232631D01*
X-11811Y232124D01*
Y231576D01*
X-11601Y231070D01*
X-11214Y230682D01*
X-10707Y230472D01*
X-10159D01*
X-9652Y230682D01*
X-9265Y231070D01*
X-9055Y231576D01*
Y232124D01*
X-9265Y232631D01*
X-9652Y233019D01*
X-10159Y233228D01*
D02*
G37*
G36*
X-27403D02*
X-27951D01*
X-28458Y233019D01*
X-28845Y232631D01*
X-29055Y232124D01*
Y231576D01*
X-28845Y231070D01*
X-28458Y230682D01*
X-27951Y230472D01*
X-27403D01*
X-26897Y230682D01*
X-26509Y231070D01*
X-26299Y231576D01*
Y232124D01*
X-26509Y232631D01*
X-26897Y233019D01*
X-27403Y233228D01*
D02*
G37*
G36*
X-29450Y229134D02*
X-29998D01*
X-30505Y228924D01*
X-30893Y228537D01*
X-31102Y228030D01*
Y227482D01*
X-30893Y226975D01*
X-30505Y226588D01*
X-29998Y226378D01*
X-29450D01*
X-28944Y226588D01*
X-28556Y226975D01*
X-28346Y227482D01*
Y228030D01*
X-28556Y228537D01*
X-28944Y228924D01*
X-29450Y229134D01*
D02*
G37*
G36*
X-22482Y226260D02*
X-23030D01*
X-23537Y226050D01*
X-23924Y225662D01*
X-24134Y225156D01*
Y224608D01*
X-23924Y224101D01*
X-23537Y223714D01*
X-23030Y223504D01*
X-22482D01*
X-21975Y223714D01*
X-21588Y224101D01*
X-21378Y224608D01*
Y225156D01*
X-21588Y225662D01*
X-21975Y226050D01*
X-22482Y226260D01*
D02*
G37*
G36*
X115432Y222992D02*
X114883D01*
X114505Y222835D01*
X112402D01*
X111925Y222741D01*
X111522Y222471D01*
X111240Y222189D01*
X26266D01*
X25943Y222323D01*
X25395D01*
X24889Y222113D01*
X24501Y221725D01*
X24291Y221219D01*
Y220671D01*
X24501Y220164D01*
X24889Y219777D01*
X25395Y219567D01*
X25943D01*
X26266Y219700D01*
X111755D01*
X112232Y219795D01*
X112635Y220065D01*
X112917Y220347D01*
X114617D01*
X114883Y220236D01*
X115432D01*
X115938Y220446D01*
X116326Y220834D01*
X116535Y221340D01*
Y221888D01*
X116326Y222395D01*
X115938Y222782D01*
X115432Y222992D01*
D02*
G37*
G36*
X-35946Y222795D02*
X-36495D01*
X-37001Y222586D01*
X-37389Y222198D01*
X-37598Y221691D01*
Y221143D01*
X-37389Y220637D01*
X-37001Y220249D01*
X-36495Y220039D01*
X-35946D01*
X-35440Y220249D01*
X-35052Y220637D01*
X-34843Y221143D01*
Y221691D01*
X-35052Y222198D01*
X-35440Y222586D01*
X-35946Y222795D01*
D02*
G37*
G36*
X528113Y226620D02*
X527002D01*
X525929Y226333D01*
X524967Y225777D01*
X524181Y224992D01*
X523626Y224030D01*
X523338Y222957D01*
Y221846D01*
X523626Y220773D01*
X524181Y219811D01*
X524967Y219026D01*
X525929Y218470D01*
X527002Y218183D01*
X528113D01*
X529185Y218470D01*
X530148Y219026D01*
X530933Y219811D01*
X531488Y220773D01*
X531776Y221846D01*
Y222957D01*
X531488Y224030D01*
X530933Y224992D01*
X530148Y225777D01*
X529185Y226333D01*
X528113Y226620D01*
D02*
G37*
G36*
X488112D02*
X487002D01*
X485929Y226333D01*
X484967Y225777D01*
X484181Y224992D01*
X483626Y224030D01*
X483338Y222957D01*
Y221846D01*
X483626Y220773D01*
X484181Y219811D01*
X484967Y219026D01*
X485929Y218470D01*
X487002Y218183D01*
X488112D01*
X489185Y218470D01*
X490147Y219026D01*
X490933Y219811D01*
X491488Y220773D01*
X491776Y221846D01*
Y222957D01*
X491488Y224030D01*
X490933Y224992D01*
X490147Y225777D01*
X489185Y226333D01*
X488112Y226620D01*
D02*
G37*
G36*
X152263Y220717D02*
X151715D01*
X151208Y220508D01*
X150821Y220120D01*
X150611Y219613D01*
Y219065D01*
X150821Y218559D01*
X151208Y218171D01*
X151715Y217961D01*
X152263D01*
X152769Y218171D01*
X153157Y218559D01*
X153367Y219065D01*
Y219613D01*
X153157Y220120D01*
X152769Y220508D01*
X152263Y220717D01*
D02*
G37*
G36*
X95885Y218788D02*
X95337D01*
X94830Y218578D01*
X94443Y218191D01*
X94233Y217684D01*
Y217136D01*
X94443Y216630D01*
X94830Y216242D01*
X95337Y216032D01*
X95885D01*
X96391Y216242D01*
X96779Y216630D01*
X96989Y217136D01*
Y217684D01*
X96779Y218191D01*
X96391Y218578D01*
X95885Y218788D01*
D02*
G37*
G36*
X-30907Y218465D02*
X-31455D01*
X-31962Y218255D01*
X-32349Y217867D01*
X-32559Y217361D01*
Y216812D01*
X-32349Y216306D01*
X-31962Y215918D01*
X-31455Y215709D01*
X-30907D01*
X-30400Y215918D01*
X-30013Y216306D01*
X-29803Y216812D01*
Y217361D01*
X-30013Y217867D01*
X-30400Y218255D01*
X-30907Y218465D01*
D02*
G37*
G36*
X404093Y217835D02*
X403545D01*
X403038Y217625D01*
X402651Y217237D01*
X402441Y216731D01*
Y216183D01*
X402651Y215676D01*
X403038Y215288D01*
X403545Y215079D01*
X404093D01*
X404599Y215288D01*
X404987Y215676D01*
X405197Y216183D01*
Y216731D01*
X404987Y217237D01*
X404599Y217625D01*
X404093Y217835D01*
D02*
G37*
G36*
X-36222Y216575D02*
X-36770D01*
X-37277Y216365D01*
X-37664Y215977D01*
X-37874Y215471D01*
Y214923D01*
X-37664Y214416D01*
X-37277Y214029D01*
X-36770Y213819D01*
X-36222D01*
X-35715Y214029D01*
X-35328Y214416D01*
X-35118Y214923D01*
Y215471D01*
X-35328Y215977D01*
X-35715Y216365D01*
X-36222Y216575D01*
D02*
G37*
G36*
X44600Y216493D02*
X44051D01*
X43545Y216283D01*
X43157Y215896D01*
X42947Y215389D01*
Y214841D01*
X43157Y214335D01*
X43545Y213947D01*
X44051Y213737D01*
X44600D01*
X45106Y213947D01*
X45494Y214335D01*
X45703Y214841D01*
Y215389D01*
X45494Y215896D01*
X45106Y216283D01*
X44600Y216493D01*
D02*
G37*
G36*
X313069Y215079D02*
X312521D01*
X312015Y214869D01*
X311627Y214481D01*
X311417Y213975D01*
Y213427D01*
X311627Y212920D01*
X312015Y212533D01*
X312521Y212323D01*
X313069D01*
X313576Y212533D01*
X313964Y212920D01*
X314173Y213427D01*
Y213975D01*
X313964Y214481D01*
X313576Y214869D01*
X313069Y215079D01*
D02*
G37*
G36*
X92754Y215276D02*
X92206D01*
X91700Y215066D01*
X91312Y214678D01*
X91102Y214172D01*
Y213623D01*
X91312Y213117D01*
X91700Y212730D01*
X92206Y212520D01*
X92754D01*
X93261Y212730D01*
X93385Y212854D01*
X206867D01*
X206986Y212673D01*
X207059Y212354D01*
X206004Y211299D01*
X205828D01*
X205322Y211089D01*
X204934Y210702D01*
X204724Y210195D01*
Y209647D01*
X204934Y209141D01*
X205322Y208753D01*
X205523Y208670D01*
X205424Y208170D01*
X177755D01*
X174961Y210964D01*
Y211140D01*
X174751Y211647D01*
X174363Y212034D01*
X173857Y212244D01*
X173488D01*
X173189Y212303D01*
X172790Y212224D01*
X172451Y211998D01*
X170788Y210335D01*
X87570D01*
X87330Y210575D01*
X86824Y210784D01*
X86276D01*
X85769Y210575D01*
X85382Y210187D01*
X85172Y209681D01*
Y209132D01*
X85382Y208626D01*
X85769Y208238D01*
X86276Y208029D01*
X86824D01*
X87330Y208238D01*
X87340Y208248D01*
X171221D01*
X171221Y208248D01*
X171620Y208327D01*
X171959Y208553D01*
X173015Y209610D01*
X173309Y209488D01*
X173485D01*
X176585Y206388D01*
X176585Y206388D01*
X176924Y206162D01*
X177323Y206082D01*
X177323Y206082D01*
X265572D01*
X266636Y205018D01*
X266390Y204557D01*
X266240Y204587D01*
X266240Y204587D01*
X177480D01*
X177355Y204711D01*
X176849Y204921D01*
X176301D01*
X175794Y204711D01*
X175407Y204324D01*
X175197Y203817D01*
Y203269D01*
X175407Y202763D01*
X175622Y202548D01*
X175414Y202048D01*
X164467D01*
X164347Y202204D01*
X164202Y202548D01*
X164370Y202954D01*
Y203502D01*
X164160Y204009D01*
X163773Y204397D01*
X163266Y204606D01*
X162718D01*
X162212Y204397D01*
X161824Y204009D01*
X161614Y203502D01*
Y202954D01*
X161783Y202548D01*
X161637Y202204D01*
X161517Y202048D01*
X120295D01*
X119896Y201968D01*
X119557Y201742D01*
X119557Y201742D01*
X117520Y199705D01*
X117344D01*
X116838Y199495D01*
X116450Y199107D01*
X116240Y198601D01*
Y198053D01*
X116450Y197546D01*
X116838Y197159D01*
X117344Y196949D01*
X117892D01*
X118399Y197159D01*
X118786Y197546D01*
X118996Y198053D01*
Y198229D01*
X120728Y199960D01*
X264390D01*
X264515Y199836D01*
X265021Y199626D01*
X265569D01*
X266076Y199836D01*
X266463Y200223D01*
X266673Y200730D01*
Y200927D01*
X267173Y201134D01*
X307989Y160318D01*
X307989Y160318D01*
X308328Y160092D01*
X308727Y160013D01*
X312501D01*
X312898Y159764D01*
Y145720D01*
X325317Y133301D01*
X367402D01*
Y110716D01*
X380228D01*
X385026Y105919D01*
X385031Y105820D01*
X384849Y105388D01*
X375699D01*
X375223Y105294D01*
X374819Y105024D01*
X373126Y103331D01*
X367689D01*
X367474Y103653D01*
Y103751D01*
X367499Y104202D01*
X367936Y104213D01*
X368047D01*
X368554Y104422D01*
X368942Y104810D01*
X369151Y105316D01*
Y105865D01*
X368942Y106371D01*
X368554Y106759D01*
X368047Y106969D01*
X367499D01*
X366993Y106759D01*
X366605Y106371D01*
X366395Y105865D01*
Y105767D01*
X366371Y105316D01*
X365934Y105305D01*
X365822D01*
X365316Y105095D01*
X364928Y104708D01*
X364718Y104201D01*
Y103653D01*
X364733Y103619D01*
X364455Y103203D01*
X337441D01*
X319331Y121313D01*
X318928Y121583D01*
X318451Y121677D01*
X289673D01*
X289396Y122093D01*
X289430Y122175D01*
Y122724D01*
X289220Y123230D01*
X288832Y123618D01*
X288326Y123828D01*
X287778D01*
X287271Y123618D01*
X286884Y123230D01*
X286674Y122724D01*
Y122175D01*
X286708Y122093D01*
X286430Y121677D01*
X278232D01*
X262005Y137904D01*
X262005Y137904D01*
X261904Y138006D01*
X261500Y138276D01*
X261024Y138370D01*
X246853D01*
X243438Y141786D01*
X243035Y142055D01*
X242558Y142150D01*
X236817D01*
X236495Y142284D01*
X235946D01*
X235440Y142074D01*
X235052Y141686D01*
X234843Y141180D01*
Y140631D01*
X235052Y140125D01*
X235440Y139737D01*
X235946Y139528D01*
X236495D01*
X236817Y139661D01*
X242043D01*
X242464Y139240D01*
X242257Y138740D01*
X241931D01*
X241424Y138530D01*
X241037Y138143D01*
X240827Y137636D01*
Y137088D01*
X241037Y136582D01*
X241424Y136194D01*
X241747Y136061D01*
X243372Y134435D01*
X243776Y134165D01*
X244252Y134071D01*
X259473D01*
X269199Y124344D01*
X269008Y123882D01*
X142327D01*
X131589Y134620D01*
X131515Y134669D01*
X131276Y134908D01*
X130770Y135118D01*
X130221D01*
X129715Y134908D01*
X129327Y134521D01*
X129118Y134014D01*
Y133466D01*
X129327Y132960D01*
X129715Y132572D01*
X130221Y132362D01*
X130327D01*
X140313Y122376D01*
X140122Y121914D01*
X96699D01*
X96376Y122047D01*
X95828D01*
X95322Y121837D01*
X94934Y121450D01*
X94724Y120943D01*
Y120395D01*
X94934Y119889D01*
X95322Y119501D01*
X95828Y119291D01*
X96376D01*
X96699Y119425D01*
X156957D01*
X157235Y119009D01*
X157205Y118939D01*
Y118391D01*
X157415Y117884D01*
X157803Y117497D01*
X158309Y117287D01*
X158857D01*
X159364Y117497D01*
X159751Y117884D01*
X159961Y118391D01*
Y118939D01*
X159932Y119009D01*
X160210Y119425D01*
X268111D01*
X273534Y114002D01*
X273938Y113732D01*
X274414Y113637D01*
X315804D01*
X336484Y92957D01*
X336292Y92495D01*
X335281D01*
X319557Y108219D01*
X319056Y108554D01*
X318464Y108671D01*
X255906D01*
X255314Y108554D01*
X254813Y108219D01*
X254478Y107717D01*
X254360Y107126D01*
X254478Y106535D01*
X254813Y106033D01*
X255314Y105698D01*
X255906Y105581D01*
X317824D01*
X321165Y102240D01*
X320919Y101779D01*
X320637Y101835D01*
X252154D01*
X251678Y101740D01*
X251274Y101471D01*
X246127Y96323D01*
X127362D01*
X126886Y96228D01*
X126482Y95959D01*
X116904Y86381D01*
X116582Y86247D01*
X116194Y85859D01*
X115984Y85353D01*
Y84805D01*
X116194Y84298D01*
X116582Y83911D01*
X117088Y83701D01*
X117636D01*
X118143Y83911D01*
X118530Y84298D01*
X118664Y84621D01*
X127878Y93834D01*
X213845D01*
X214179Y93334D01*
X214161Y93290D01*
Y92742D01*
X214371Y92235D01*
X214758Y91847D01*
X215265Y91638D01*
X215813D01*
X215952Y91695D01*
X246945D01*
X247152Y91195D01*
X246729Y90772D01*
X208972D01*
X208466Y90981D01*
X207918D01*
X207412Y90772D01*
X207024Y90384D01*
X206814Y89877D01*
Y89329D01*
X207024Y88823D01*
X207412Y88435D01*
X207918Y88226D01*
X208466D01*
X208606Y88283D01*
X247244D01*
X247720Y88378D01*
X248124Y88648D01*
X255082Y95606D01*
X272871D01*
X273078Y95106D01*
X265738Y87766D01*
X237835D01*
X237243Y87648D01*
X236742Y87313D01*
X236407Y86812D01*
X236289Y86221D01*
X236407Y85629D01*
X236742Y85128D01*
X237243Y84793D01*
X237835Y84675D01*
X266378D01*
X266969Y84793D01*
X267471Y85128D01*
X275286Y92943D01*
X303189D01*
X303780Y93060D01*
X304282Y93395D01*
X304617Y93897D01*
X304734Y94488D01*
X304617Y95080D01*
X304599Y95106D01*
X304866Y95606D01*
X318264D01*
X334789Y79081D01*
X335081Y78886D01*
X334963Y78386D01*
X312106D01*
Y65216D01*
X325157Y52087D01*
X367165D01*
Y30394D01*
X418583D01*
Y65118D01*
X373115D01*
X366210Y71929D01*
X359665D01*
Y78386D01*
X338389D01*
X338352Y78448D01*
X338236Y78886D01*
X338530Y79180D01*
X338740Y79686D01*
Y80235D01*
X338530Y80741D01*
X338143Y81129D01*
X337793Y81274D01*
X337892Y81774D01*
X338045D01*
X338552Y81984D01*
X338939Y82371D01*
X339149Y82877D01*
Y83426D01*
X338939Y83932D01*
X338552Y84320D01*
X338323Y84414D01*
X338423Y84914D01*
X338423D01*
X338930Y85124D01*
X339317Y85512D01*
X339527Y86018D01*
Y86567D01*
X339317Y87073D01*
X338930Y87461D01*
X338423Y87670D01*
X337875D01*
X337874Y87670D01*
X335318D01*
X333957Y89031D01*
X334204Y89491D01*
X334641Y89404D01*
X337741D01*
X342155Y84990D01*
X342656Y84655D01*
X343248Y84537D01*
X353852D01*
X354129Y84122D01*
X354118Y84093D01*
Y83545D01*
X354327Y83039D01*
X354655Y82711D01*
X354659Y82379D01*
X354613Y82152D01*
X354225Y81765D01*
X354016Y81258D01*
Y80710D01*
X354225Y80204D01*
X354613Y79816D01*
X355120Y79606D01*
X355668D01*
X356174Y79816D01*
X356562Y80204D01*
X356772Y80710D01*
Y81258D01*
X356562Y81765D01*
X356234Y82092D01*
X356230Y82424D01*
X356276Y82651D01*
X356664Y83039D01*
X356873Y83545D01*
Y84093D01*
X356862Y84122D01*
X357139Y84537D01*
X362717D01*
X363308Y84655D01*
X363809Y84990D01*
X369695Y90876D01*
X373739D01*
X373818Y90376D01*
X373646Y90320D01*
X372072Y89518D01*
X370643Y88480D01*
X369394Y87231D01*
X368356Y85802D01*
X367554Y84228D01*
X367009Y82549D01*
X366732Y80804D01*
Y79038D01*
X367009Y77294D01*
X367554Y75614D01*
X368356Y74040D01*
X369394Y72612D01*
X370643Y71363D01*
X372072Y70325D01*
X373646Y69523D01*
X375325Y68977D01*
X377070Y68701D01*
X378836D01*
X380580Y68977D01*
X382260Y69523D01*
X383834Y70325D01*
X385262Y71363D01*
X386511Y72612D01*
X387549Y74040D01*
X388351Y75614D01*
X388897Y77294D01*
X389173Y79038D01*
Y80804D01*
X388897Y82549D01*
X388351Y84228D01*
X387549Y85802D01*
X386511Y87231D01*
X385262Y88480D01*
X383834Y89518D01*
X382260Y90320D01*
X382087Y90376D01*
X382166Y90876D01*
X386860D01*
X391141Y86594D01*
X391643Y86259D01*
X392234Y86142D01*
X425610D01*
X426202Y86259D01*
X426703Y86594D01*
X427038Y87096D01*
X427156Y87687D01*
X427038Y88278D01*
X426703Y88780D01*
X426202Y89115D01*
X425610Y89232D01*
X392874D01*
X389551Y92556D01*
X389742Y93018D01*
X401689D01*
X401985Y92518D01*
X401877Y92256D01*
Y91707D01*
X402086Y91201D01*
X402474Y90813D01*
X402981Y90604D01*
X403529D01*
X404035Y90813D01*
X404423Y91201D01*
X404633Y91707D01*
Y92256D01*
X404524Y92518D01*
X404821Y93018D01*
X412937D01*
X413259Y92884D01*
X413807D01*
X414314Y93094D01*
X414702Y93481D01*
X414911Y93988D01*
Y94536D01*
X414702Y95043D01*
X414314Y95430D01*
X413807Y95640D01*
X413259D01*
X412937Y95506D01*
X389154D01*
X387382Y97278D01*
X386978Y97548D01*
X386502Y97642D01*
X385480D01*
X385202Y98058D01*
X385216Y98092D01*
Y98641D01*
X385006Y99147D01*
X385258Y99603D01*
X385375Y99654D01*
X385924D01*
X386430Y99864D01*
X386818Y100251D01*
X386844Y100315D01*
X418268D01*
Y131615D01*
X406574D01*
X392126Y146063D01*
X376083Y146063D01*
X371486Y150660D01*
X371677Y151122D01*
X391024D01*
X391149Y150997D01*
X391655Y150787D01*
X392203D01*
X392710Y150997D01*
X393097Y151385D01*
X393307Y151891D01*
Y152439D01*
X393097Y152946D01*
X392710Y153333D01*
X392203Y153543D01*
X391655D01*
X391149Y153333D01*
X391024Y153209D01*
X369802D01*
X360482Y162530D01*
X360143Y162756D01*
X359744Y162835D01*
X359744Y162835D01*
X353082D01*
X352748Y163335D01*
X352811Y163486D01*
Y164034D01*
X352601Y164541D01*
X352447Y164695D01*
X352365Y165153D01*
X352477Y165318D01*
X352745Y165586D01*
X352954Y166093D01*
Y166641D01*
X352814Y166980D01*
X353065Y167480D01*
X356280D01*
X368356Y155404D01*
X368695Y155177D01*
X369094Y155098D01*
X369094Y155098D01*
X392244D01*
X392244Y155098D01*
X392643Y155177D01*
X392982Y155404D01*
X398739Y161161D01*
X412599D01*
X412913Y160847D01*
Y160671D01*
X413123Y160164D01*
X413511Y159777D01*
X414017Y159567D01*
X414565D01*
X415072Y159777D01*
X415459Y160164D01*
X415669Y160671D01*
Y161219D01*
X415459Y161726D01*
X415072Y162113D01*
X414565Y162323D01*
X414389D01*
X413770Y162943D01*
X413431Y163169D01*
X413032Y163249D01*
X413031Y163249D01*
X398307D01*
X398307Y163249D01*
X397908Y163169D01*
X397569Y162943D01*
X397569Y162943D01*
X391812Y157185D01*
X369527D01*
X357451Y169262D01*
X357349Y169329D01*
X357533Y169808D01*
X357588Y169809D01*
X357608Y169809D01*
X358136D01*
X358643Y170019D01*
X359031Y170407D01*
X359240Y170913D01*
Y171461D01*
X359031Y171968D01*
X358643Y172355D01*
X358136Y172565D01*
X357588D01*
X357082Y172355D01*
X356694Y171968D01*
X356484Y171461D01*
Y170913D01*
X356694Y170407D01*
X356995Y170105D01*
X357082Y170019D01*
X357091Y170002D01*
X356875Y169535D01*
X356713Y169567D01*
X356713Y169567D01*
X346122D01*
X344009Y171680D01*
X344298Y172060D01*
X344805Y171850D01*
X345353D01*
X345859Y172060D01*
X346247Y172448D01*
X346457Y172954D01*
Y173502D01*
X346247Y174009D01*
X345859Y174397D01*
X345353Y174606D01*
X344805D01*
X344298Y174397D01*
X343911Y174009D01*
X343701Y173502D01*
Y172954D01*
X343911Y172448D01*
X343531Y172158D01*
X338967Y176722D01*
X338628Y176948D01*
X338229Y177028D01*
X338229Y177028D01*
X305651D01*
X279888Y202791D01*
X280005Y203381D01*
X280156Y203443D01*
X280543Y203831D01*
X280753Y204337D01*
Y204886D01*
X280543Y205392D01*
X280156Y205780D01*
X279649Y205989D01*
X279101D01*
X278595Y205780D01*
X278207Y205392D01*
X278145Y205241D01*
X277555Y205124D01*
X268043Y214636D01*
X267705Y214862D01*
X267305Y214941D01*
X267305Y214941D01*
X93385D01*
X93261Y215066D01*
X92754Y215276D01*
D02*
G37*
G36*
X304880Y210630D02*
X304332D01*
X303825Y210421D01*
X303438Y210033D01*
X303228Y209526D01*
Y208978D01*
X303438Y208472D01*
X303825Y208084D01*
X304332Y207874D01*
X304880D01*
X305386Y208084D01*
X305774Y208472D01*
X305984Y208978D01*
Y209526D01*
X305774Y210033D01*
X305386Y210421D01*
X304880Y210630D01*
D02*
G37*
G36*
X-37389Y210475D02*
X-37937D01*
X-38443Y210265D01*
X-38831Y209878D01*
X-39041Y209371D01*
Y208823D01*
X-38831Y208316D01*
X-38443Y207929D01*
X-37937Y207719D01*
X-37389D01*
X-36882Y207929D01*
X-36495Y208316D01*
X-36285Y208823D01*
Y209371D01*
X-36495Y209878D01*
X-36882Y210265D01*
X-37389Y210475D01*
D02*
G37*
G36*
X-9805Y210197D02*
X-10353D01*
X-10859Y209987D01*
X-11247Y209599D01*
X-11457Y209093D01*
Y208545D01*
X-11247Y208038D01*
X-10859Y207651D01*
X-10353Y207441D01*
X-9805D01*
X-9298Y207651D01*
X-8911Y208038D01*
X-8701Y208545D01*
Y209093D01*
X-8911Y209599D01*
X-9298Y209987D01*
X-9805Y210197D01*
D02*
G37*
G36*
X305366Y206854D02*
X304818D01*
X304312Y206644D01*
X303924Y206257D01*
X303714Y205750D01*
Y205202D01*
X303924Y204696D01*
X304312Y204308D01*
X304818Y204098D01*
X305366D01*
X305873Y204308D01*
X306260Y204696D01*
X306470Y205202D01*
Y205750D01*
X306260Y206257D01*
X305873Y206644D01*
X305366Y206854D01*
D02*
G37*
G36*
X63778Y206732D02*
X63230D01*
X62723Y206522D01*
X62336Y206135D01*
X62126Y205628D01*
Y205080D01*
X62336Y204574D01*
X62723Y204186D01*
X63230Y203976D01*
X63778D01*
X64284Y204186D01*
X64672Y204574D01*
X64882Y205080D01*
Y205628D01*
X64672Y206135D01*
X64284Y206522D01*
X63778Y206732D01*
D02*
G37*
G36*
X426061Y208231D02*
X425513D01*
X425007Y208021D01*
X424619Y207634D01*
X424409Y207127D01*
Y206579D01*
X424619Y206072D01*
X425007Y205685D01*
X425513Y205475D01*
X426061D01*
X426157Y205437D01*
X426516Y205122D01*
Y204746D01*
X426725Y204239D01*
X427113Y203852D01*
X427620Y203642D01*
X428168D01*
X428674Y203852D01*
X429062Y204239D01*
X429272Y204746D01*
Y205294D01*
X429062Y205800D01*
X428674Y206188D01*
X428168Y206398D01*
X427620D01*
X427524Y206436D01*
X427165Y206751D01*
Y207127D01*
X426956Y207634D01*
X426568Y208021D01*
X426061Y208231D01*
D02*
G37*
G36*
X-35553Y203740D02*
X-36101D01*
X-36607Y203530D01*
X-36995Y203143D01*
X-37205Y202636D01*
Y202088D01*
X-36995Y201582D01*
X-36607Y201194D01*
X-36101Y200984D01*
X-35553D01*
X-35046Y201194D01*
X-34659Y201582D01*
X-34449Y202088D01*
Y202636D01*
X-34659Y203143D01*
X-35046Y203530D01*
X-35553Y203740D01*
D02*
G37*
G36*
X286062Y203307D02*
X285513D01*
X285007Y203097D01*
X284619Y202710D01*
X284409Y202203D01*
Y201655D01*
X284619Y201149D01*
X285007Y200761D01*
X285513Y200551D01*
X286062D01*
X286568Y200761D01*
X286956Y201149D01*
X287165Y201655D01*
Y202203D01*
X286956Y202710D01*
X286568Y203097D01*
X286062Y203307D01*
D02*
G37*
G36*
X-32912Y199764D02*
X-33460D01*
X-33966Y199554D01*
X-34354Y199166D01*
X-34564Y198660D01*
Y198112D01*
X-34354Y197605D01*
X-33966Y197218D01*
X-33460Y197008D01*
X-32912D01*
X-32405Y197218D01*
X-32018Y197605D01*
X-31808Y198112D01*
Y198660D01*
X-32018Y199166D01*
X-32405Y199554D01*
X-32912Y199764D01*
D02*
G37*
G36*
X107412Y204577D02*
X99833D01*
Y196998D01*
X107412D01*
Y204577D01*
D02*
G37*
G36*
X425725Y196063D02*
X425177D01*
X424671Y195853D01*
X424283Y195466D01*
X424073Y194959D01*
Y194411D01*
X424283Y193904D01*
X424671Y193517D01*
X425177Y193307D01*
X425725D01*
X426232Y193517D01*
X426619Y193904D01*
X426829Y194411D01*
Y194959D01*
X426619Y195466D01*
X426232Y195853D01*
X425725Y196063D01*
D02*
G37*
G36*
X117932Y192961D02*
X117384D01*
X116877Y192752D01*
X116490Y192364D01*
X116280Y191858D01*
Y191309D01*
X116490Y190803D01*
X116877Y190415D01*
X117384Y190205D01*
X117932D01*
X118439Y190415D01*
X118826Y190803D01*
X119036Y191309D01*
Y191858D01*
X118826Y192364D01*
X118439Y192752D01*
X117932Y192961D01*
D02*
G37*
G36*
X427951Y192953D02*
X427403D01*
X426897Y192743D01*
X426509Y192355D01*
X426299Y191849D01*
Y191301D01*
X426509Y190794D01*
X426897Y190407D01*
X427403Y190197D01*
X427951D01*
X428458Y190407D01*
X428845Y190794D01*
X429055Y191301D01*
Y191849D01*
X428845Y192355D01*
X428458Y192743D01*
X427951Y192953D01*
D02*
G37*
G36*
X455473Y247205D02*
X439646D01*
Y221260D01*
X473504Y187402D01*
Y187402D01*
X514173D01*
Y217441D01*
X485236D01*
X455473Y247205D01*
D02*
G37*
G36*
X187243Y185197D02*
X186695D01*
X186188Y184987D01*
X185973Y184772D01*
X185790Y184603D01*
X185327Y184764D01*
X185246Y184846D01*
X184739Y185056D01*
X184191D01*
X183685Y184846D01*
X183297Y184458D01*
X183087Y183952D01*
Y183404D01*
X183297Y182897D01*
X183685Y182510D01*
X184191Y182300D01*
X184739D01*
X185246Y182510D01*
X185461Y182725D01*
X185644Y182894D01*
X186106Y182732D01*
X186188Y182651D01*
X186695Y182441D01*
X187243D01*
X187749Y182651D01*
X188137Y183038D01*
X188347Y183545D01*
Y184093D01*
X188137Y184599D01*
X187749Y184987D01*
X187243Y185197D01*
D02*
G37*
G36*
X75413Y188503D02*
X74865D01*
X74359Y188293D01*
X73971Y187905D01*
X73761Y187399D01*
Y186850D01*
X73971Y186344D01*
X74359Y185956D01*
X74865Y185747D01*
X74970D01*
X75414Y185729D01*
X75432Y185285D01*
Y185180D01*
X75642Y184674D01*
X76029Y184286D01*
X76536Y184076D01*
X77084D01*
X77590Y184286D01*
X77978Y184674D01*
X78188Y185180D01*
Y185728D01*
X77978Y186235D01*
X77590Y186622D01*
X77084Y186832D01*
X76979D01*
X76535Y186850D01*
X76517Y187294D01*
Y187399D01*
X76307Y187905D01*
X75920Y188293D01*
X75413Y188503D01*
D02*
G37*
G36*
X354725Y184724D02*
X354177D01*
X353671Y184515D01*
X353283Y184127D01*
X353073Y183621D01*
Y183072D01*
X353283Y182566D01*
X353671Y182178D01*
X354177Y181968D01*
X354725D01*
X355232Y182178D01*
X355619Y182566D01*
X355829Y183072D01*
Y183621D01*
X355619Y184127D01*
X355232Y184515D01*
X354725Y184724D01*
D02*
G37*
G36*
X528113Y186620D02*
X527002D01*
X525929Y186333D01*
X524967Y185777D01*
X524181Y184992D01*
X523626Y184030D01*
X523338Y182957D01*
Y181846D01*
X523626Y180773D01*
X524181Y179811D01*
X524967Y179026D01*
X525929Y178470D01*
X527002Y178183D01*
X528113D01*
X529185Y178470D01*
X530148Y179026D01*
X530933Y179811D01*
X531488Y180773D01*
X531776Y181846D01*
Y182957D01*
X531488Y184030D01*
X530933Y184992D01*
X530148Y185777D01*
X529185Y186333D01*
X528113Y186620D01*
D02*
G37*
G36*
X488112D02*
X487002D01*
X485929Y186333D01*
X484967Y185777D01*
X484181Y184992D01*
X483626Y184030D01*
X483338Y182957D01*
Y181846D01*
X483626Y180773D01*
X484181Y179811D01*
X484967Y179026D01*
X485929Y178470D01*
X487002Y178183D01*
X488112D01*
X489185Y178470D01*
X490147Y179026D01*
X490933Y179811D01*
X491488Y180773D01*
X491776Y181846D01*
Y182957D01*
X491488Y184030D01*
X490933Y184992D01*
X490147Y185777D01*
X489185Y186333D01*
X488112Y186620D01*
D02*
G37*
G36*
X206416Y180787D02*
X205868D01*
X205361Y180578D01*
X204974Y180190D01*
X204764Y179683D01*
Y179135D01*
X204974Y178629D01*
X205361Y178241D01*
X205868Y178032D01*
X206416D01*
X206922Y178241D01*
X207310Y178629D01*
X207520Y179135D01*
Y179683D01*
X207310Y180190D01*
X206922Y180578D01*
X206416Y180787D01*
D02*
G37*
G36*
X368266Y179131D02*
X367718D01*
X367212Y178921D01*
X366824Y178534D01*
X366614Y178027D01*
Y177479D01*
X366824Y176973D01*
X367212Y176585D01*
X367718Y176375D01*
X368266D01*
X368773Y176585D01*
X369160Y176973D01*
X369370Y177479D01*
Y178027D01*
X369160Y178534D01*
X368773Y178921D01*
X368266Y179131D01*
D02*
G37*
G36*
X360314Y181890D02*
X359765D01*
X359259Y181680D01*
X358871Y181292D01*
X358661Y180786D01*
Y180238D01*
X358871Y179731D01*
X359259Y179344D01*
X359397Y179286D01*
Y178745D01*
X359259Y178688D01*
X358871Y178300D01*
X358661Y177794D01*
Y177246D01*
X358871Y176739D01*
X359259Y176351D01*
X359765Y176142D01*
X360314D01*
X360820Y176351D01*
X361208Y176739D01*
X361417Y177246D01*
Y177794D01*
X361208Y178300D01*
X360820Y178688D01*
X360682Y178745D01*
Y179286D01*
X360820Y179344D01*
X361208Y179731D01*
X361417Y180238D01*
Y180786D01*
X361208Y181292D01*
X360820Y181680D01*
X360314Y181890D01*
D02*
G37*
G36*
X24762Y178583D02*
X24214D01*
X23708Y178373D01*
X23320Y177985D01*
X23110Y177479D01*
Y176931D01*
X23320Y176424D01*
X23708Y176037D01*
X24214Y175827D01*
X24762D01*
X25269Y176037D01*
X25656Y176424D01*
X25866Y176931D01*
Y177479D01*
X25656Y177985D01*
X25269Y178373D01*
X24762Y178583D01*
D02*
G37*
G36*
X5684Y175394D02*
X5136D01*
X4629Y175184D01*
X4242Y174796D01*
X4032Y174290D01*
Y173742D01*
X4242Y173235D01*
X4629Y172848D01*
X5136Y172638D01*
X5684D01*
X6191Y172848D01*
X6578Y173235D01*
X6788Y173742D01*
Y174290D01*
X6578Y174796D01*
X6191Y175184D01*
X5684Y175394D01*
D02*
G37*
G36*
X-9687Y175158D02*
X-10235D01*
X-10741Y174948D01*
X-11129Y174560D01*
X-11339Y174054D01*
Y173505D01*
X-11129Y172999D01*
X-10741Y172611D01*
X-10235Y172402D01*
X-9687D01*
X-9180Y172611D01*
X-8793Y172999D01*
X-8583Y173505D01*
Y174054D01*
X-8793Y174560D01*
X-9180Y174948D01*
X-9687Y175158D01*
D02*
G37*
G36*
X-38072Y175866D02*
X-38620D01*
X-39127Y175656D01*
X-39515Y175269D01*
X-39724Y174762D01*
Y174214D01*
X-39515Y173708D01*
X-39510Y173703D01*
X-39605Y173091D01*
X-39869Y172828D01*
X-40079Y172321D01*
Y171773D01*
X-39869Y171267D01*
X-39481Y170879D01*
X-38975Y170669D01*
X-38427D01*
X-37920Y170879D01*
X-37533Y171267D01*
X-37323Y171773D01*
Y172321D01*
X-37533Y172828D01*
X-37537Y172832D01*
X-37442Y173444D01*
X-37178Y173708D01*
X-36968Y174214D01*
Y174762D01*
X-37178Y175269D01*
X-37566Y175656D01*
X-38072Y175866D01*
D02*
G37*
G36*
X381475Y170669D02*
X380927D01*
X380420Y170459D01*
X380033Y170072D01*
X379823Y169565D01*
Y169017D01*
X380033Y168511D01*
X380420Y168123D01*
X380927Y167913D01*
X381475D01*
X381981Y168123D01*
X382369Y168511D01*
X382579Y169017D01*
Y169565D01*
X382369Y170072D01*
X381981Y170459D01*
X381475Y170669D01*
D02*
G37*
G36*
X378030D02*
X377482D01*
X376975Y170459D01*
X376588Y170072D01*
X376378Y169565D01*
Y169017D01*
X376588Y168511D01*
X376975Y168123D01*
X377482Y167913D01*
X378030D01*
X378537Y168123D01*
X378924Y168511D01*
X379134Y169017D01*
Y169565D01*
X378924Y170072D01*
X378537Y170459D01*
X378030Y170669D01*
D02*
G37*
G36*
X371435Y170650D02*
X370887D01*
X370380Y170440D01*
X369993Y170053D01*
X369783Y169546D01*
Y168998D01*
X369993Y168492D01*
X370380Y168104D01*
X370887Y167894D01*
X371435D01*
X371941Y168104D01*
X372382Y167837D01*
X372723Y167496D01*
X373230Y167286D01*
X373778D01*
X374285Y167496D01*
X374672Y167883D01*
X374882Y168390D01*
Y168938D01*
X374672Y169444D01*
X374285Y169832D01*
X373778Y170042D01*
X373230D01*
X372927Y169916D01*
X372329Y170053D01*
X371941Y170440D01*
X371435Y170650D01*
D02*
G37*
G36*
X102636Y178740D02*
X102088D01*
X101582Y178530D01*
X101194Y178143D01*
X100984Y177636D01*
Y177088D01*
X100998Y177054D01*
X100721Y176638D01*
X42621D01*
X42145Y176543D01*
X41741Y176274D01*
X41116Y175648D01*
X40755Y175499D01*
X40367Y175111D01*
X40157Y174605D01*
Y174056D01*
X40367Y173550D01*
X40755Y173162D01*
X41261Y172953D01*
X41809D01*
X42316Y173162D01*
X42704Y173550D01*
X42821Y173834D01*
X43136Y174149D01*
X145340D01*
X145674Y173649D01*
X145630Y173542D01*
Y172994D01*
X145840Y172487D01*
X146227Y172099D01*
X146734Y171890D01*
X147282D01*
X147788Y172099D01*
X148176Y172487D01*
X148386Y172994D01*
Y173542D01*
X148341Y173649D01*
X148675Y174149D01*
X160000D01*
X163375Y170774D01*
Y169547D01*
X163375Y169547D01*
Y168750D01*
X163470Y168274D01*
X163739Y167870D01*
X164431Y167178D01*
X164835Y166908D01*
X165311Y166814D01*
X189711D01*
X190188Y166908D01*
X190592Y167178D01*
X190712Y167299D01*
X240112D01*
X240435Y167165D01*
X240983D01*
X241489Y167375D01*
X241877Y167763D01*
X242087Y168269D01*
Y168817D01*
X241877Y169324D01*
X241489Y169711D01*
X240983Y169921D01*
X240435D01*
X240112Y169788D01*
X228046D01*
X227712Y170288D01*
X227722Y170310D01*
Y170858D01*
X227512Y171364D01*
X227124Y171752D01*
X226618Y171962D01*
X226069D01*
X225563Y171752D01*
X225459Y171648D01*
X167085D01*
X166862Y171740D01*
X166314D01*
X166034Y171625D01*
X165769Y171766D01*
X165499Y172170D01*
X161892Y175776D01*
X161683Y176281D01*
X161296Y176668D01*
X160789Y176878D01*
X160241D01*
X159735Y176668D01*
X159704Y176638D01*
X104004D01*
X103726Y177054D01*
X103740Y177088D01*
Y177636D01*
X103530Y178143D01*
X103143Y178530D01*
X102636Y178740D01*
D02*
G37*
G36*
X348268Y238308D02*
X308882D01*
X308882Y225405D01*
X319027Y215261D01*
Y210372D01*
X363424D01*
Y189409D01*
X375787D01*
X384587Y180610D01*
Y166890D01*
X418780D01*
Y196417D01*
X384567Y230630D01*
X359685D01*
X356024Y234291D01*
X348189D01*
Y238229D01*
X348268Y238308D01*
D02*
G37*
G36*
X-34905Y180849D02*
X-35453D01*
X-35960Y180639D01*
X-36347Y180251D01*
X-36557Y179745D01*
Y179197D01*
X-36347Y178690D01*
X-35960Y178302D01*
X-35637Y178169D01*
X-27179Y169711D01*
X-26776Y169441D01*
X-26299Y169346D01*
X103552D01*
X106081Y166817D01*
X106109Y166750D01*
X106497Y166362D01*
X107003Y166152D01*
X107552D01*
X108058Y166362D01*
X108446Y166750D01*
X108655Y167256D01*
Y167804D01*
X108446Y168311D01*
X108058Y168699D01*
X107552Y168908D01*
X107510D01*
X104948Y171470D01*
X104544Y171740D01*
X104068Y171835D01*
X-25784D01*
X-33878Y179929D01*
X-34011Y180251D01*
X-34399Y180639D01*
X-34905Y180849D01*
D02*
G37*
G36*
X16967Y165709D02*
X16419D01*
X15912Y165499D01*
X15525Y165111D01*
X15315Y164605D01*
Y164057D01*
X15525Y163550D01*
X15912Y163163D01*
X16419Y162953D01*
X16967D01*
X17473Y163163D01*
X17861Y163550D01*
X18071Y164057D01*
Y164605D01*
X17861Y165111D01*
X17473Y165499D01*
X16967Y165709D01*
D02*
G37*
G36*
X-33326Y165640D02*
X-33874D01*
X-34381Y165431D01*
X-34768Y165043D01*
X-34978Y164537D01*
Y163988D01*
X-34768Y163482D01*
X-34381Y163094D01*
X-33874Y162885D01*
X-33326D01*
X-32820Y163094D01*
X-32432Y163482D01*
X-32222Y163988D01*
Y164537D01*
X-32432Y165043D01*
X-32820Y165431D01*
X-33326Y165640D01*
D02*
G37*
G36*
X-23820Y164921D02*
X-24369D01*
X-24875Y164711D01*
X-25263Y164324D01*
X-25472Y163817D01*
Y163269D01*
X-25263Y162763D01*
X-24875Y162375D01*
X-24369Y162165D01*
X-23820D01*
X-23314Y162375D01*
X-22926Y162763D01*
X-22716Y163269D01*
Y163817D01*
X-22926Y164324D01*
X-23314Y164711D01*
X-23820Y164921D01*
D02*
G37*
G36*
X528113Y170321D02*
X527002D01*
X525929Y170034D01*
X524967Y169478D01*
X524181Y168693D01*
X523626Y167731D01*
X523338Y166658D01*
Y165547D01*
X523626Y164474D01*
X524181Y163512D01*
X524967Y162727D01*
X525929Y162171D01*
X527002Y161884D01*
X528113D01*
X529185Y162171D01*
X530148Y162727D01*
X530933Y163512D01*
X531488Y164474D01*
X531776Y165547D01*
Y166658D01*
X531488Y167731D01*
X530933Y168693D01*
X530148Y169478D01*
X529185Y170034D01*
X528113Y170321D01*
D02*
G37*
G36*
X425924Y162679D02*
X425376D01*
X424869Y162469D01*
X424481Y162082D01*
X424272Y161575D01*
Y161027D01*
X424481Y160521D01*
X424869Y160133D01*
X425376Y159923D01*
X425924D01*
X426430Y160133D01*
X426818Y160521D01*
X427028Y161027D01*
Y161575D01*
X426818Y162082D01*
X426430Y162469D01*
X425924Y162679D01*
D02*
G37*
G36*
X-35868Y162677D02*
X-36416D01*
X-36922Y162467D01*
X-37310Y162080D01*
X-37520Y161573D01*
Y161025D01*
X-37310Y160519D01*
X-36922Y160131D01*
X-36416Y159921D01*
X-35868D01*
X-35361Y160131D01*
X-34974Y160519D01*
X-34764Y161025D01*
Y161573D01*
X-34974Y162080D01*
X-35361Y162467D01*
X-35868Y162677D01*
D02*
G37*
G36*
X403581Y160591D02*
X403033D01*
X402527Y160381D01*
X402139Y159993D01*
X401929Y159487D01*
Y158939D01*
X402139Y158432D01*
X402527Y158044D01*
X403033Y157835D01*
X403581D01*
X404088Y158044D01*
X404475Y158432D01*
X404685Y158939D01*
Y159487D01*
X404475Y159993D01*
X404088Y160381D01*
X403581Y160591D01*
D02*
G37*
G36*
X104599Y159485D02*
X104051D01*
X103545Y159275D01*
X103157Y158888D01*
X102947Y158381D01*
Y157833D01*
X103157Y157327D01*
X103545Y156939D01*
X104051Y156729D01*
X104599D01*
X105106Y156939D01*
X105494Y157327D01*
X105703Y157833D01*
Y158381D01*
X105494Y158888D01*
X105106Y159275D01*
X104599Y159485D01*
D02*
G37*
G36*
X-36458Y159370D02*
X-37006D01*
X-37513Y159160D01*
X-37901Y158773D01*
X-38110Y158266D01*
Y157718D01*
X-37901Y157212D01*
X-37513Y156824D01*
X-37006Y156614D01*
X-36458D01*
X-35952Y156824D01*
X-35564Y157212D01*
X-35354Y157718D01*
Y158266D01*
X-35564Y158773D01*
X-35952Y159160D01*
X-36458Y159370D01*
D02*
G37*
G36*
X10510Y158465D02*
X9962D01*
X9456Y158255D01*
X9068Y157867D01*
X8858Y157361D01*
Y156813D01*
X9068Y156306D01*
X9456Y155918D01*
X9962Y155709D01*
X10510D01*
X11017Y155918D01*
X11404Y156306D01*
X11614Y156813D01*
Y157361D01*
X11404Y157867D01*
X11017Y158255D01*
X10510Y158465D01*
D02*
G37*
G36*
X-30946Y158150D02*
X-31495D01*
X-32001Y157940D01*
X-32389Y157552D01*
X-32598Y157046D01*
Y156498D01*
X-32389Y155991D01*
X-32001Y155604D01*
X-31495Y155394D01*
X-30946D01*
X-30440Y155604D01*
X-30052Y155991D01*
X-29842Y156498D01*
Y157046D01*
X-30052Y157552D01*
X-30440Y157940D01*
X-30946Y158150D01*
D02*
G37*
G36*
X28620Y156102D02*
X28072D01*
X27566Y155893D01*
X27178Y155505D01*
X26969Y154999D01*
Y154450D01*
X27178Y153944D01*
X27566Y153556D01*
X28072Y153347D01*
X28620D01*
X29127Y153556D01*
X29515Y153944D01*
X29724Y154450D01*
Y154999D01*
X29515Y155505D01*
X29127Y155893D01*
X28620Y156102D01*
D02*
G37*
G36*
X-10907Y155591D02*
X-11455D01*
X-11962Y155381D01*
X-12349Y154993D01*
X-12559Y154487D01*
Y153938D01*
X-12349Y153432D01*
X-11962Y153044D01*
X-11455Y152835D01*
X-10907D01*
X-10401Y153044D01*
X-10013Y153432D01*
X-9803Y153938D01*
Y154487D01*
X-10013Y154993D01*
X-10401Y155381D01*
X-10907Y155591D01*
D02*
G37*
G36*
X211022Y155118D02*
X210474D01*
X209967Y154908D01*
X209580Y154521D01*
X209370Y154014D01*
Y153466D01*
X209580Y152960D01*
X209967Y152572D01*
X210474Y152362D01*
X211022D01*
X211528Y152572D01*
X211916Y152960D01*
X212126Y153466D01*
Y154014D01*
X211916Y154521D01*
X211528Y154908D01*
X211022Y155118D01*
D02*
G37*
G36*
X428188Y151850D02*
X427639D01*
X427133Y151641D01*
X426745Y151253D01*
X426535Y150747D01*
Y150198D01*
X426745Y149692D01*
X427133Y149304D01*
X427639Y149094D01*
X428188D01*
X428694Y149304D01*
X429082Y149692D01*
X429291Y150198D01*
Y150747D01*
X429082Y151253D01*
X428694Y151641D01*
X428188Y151850D01*
D02*
G37*
G36*
X282124Y151299D02*
X281576D01*
X281070Y151089D01*
X280682Y150702D01*
X280472Y150195D01*
Y149647D01*
X280682Y149141D01*
X281070Y148753D01*
X281576Y148543D01*
X282124D01*
X282631Y148753D01*
X283018Y149141D01*
X283228Y149647D01*
Y150195D01*
X283018Y150702D01*
X282631Y151089D01*
X282124Y151299D01*
D02*
G37*
G36*
X281298Y147605D02*
X280749D01*
X280243Y147395D01*
X279855Y147008D01*
X279646Y146501D01*
Y145953D01*
X279855Y145447D01*
X280243Y145059D01*
X280749Y144849D01*
X281298D01*
X281804Y145059D01*
X282192Y145447D01*
X282401Y145953D01*
Y146501D01*
X282192Y147008D01*
X281804Y147395D01*
X281298Y147605D01*
D02*
G37*
G36*
X-31222Y146260D02*
X-31770D01*
X-32277Y146050D01*
X-32664Y145662D01*
X-32874Y145156D01*
Y144608D01*
X-32664Y144101D01*
X-32277Y143714D01*
X-31770Y143504D01*
X-31222D01*
X-30716Y143714D01*
X-30328Y144101D01*
X-30118Y144608D01*
Y145156D01*
X-30328Y145662D01*
X-30716Y146050D01*
X-31222Y146260D01*
D02*
G37*
G36*
X188655Y140236D02*
X188107D01*
X187601Y140026D01*
X187213Y139639D01*
X187003Y139132D01*
Y138584D01*
X187213Y138078D01*
X187601Y137690D01*
X188107Y137480D01*
X188655D01*
X189162Y137690D01*
X189549Y138078D01*
X189759Y138584D01*
Y139132D01*
X189549Y139639D01*
X189162Y140026D01*
X188655Y140236D01*
D02*
G37*
G36*
X316257Y136444D02*
X315709D01*
X315202Y136234D01*
X314815Y135846D01*
X314605Y135340D01*
Y134792D01*
X314815Y134285D01*
X315202Y133897D01*
X315709Y133688D01*
X316257D01*
X316763Y133897D01*
X317151Y134285D01*
X317361Y134792D01*
Y135340D01*
X317151Y135846D01*
X316763Y136234D01*
X316257Y136444D01*
D02*
G37*
G36*
X107412Y140994D02*
X99833D01*
Y133415D01*
X107412D01*
Y140994D01*
D02*
G37*
G36*
X168825Y134416D02*
X168276D01*
X167770Y134207D01*
X167382Y133819D01*
X167173Y133313D01*
Y132764D01*
X167382Y132258D01*
X167770Y131870D01*
X168276Y131661D01*
X168825D01*
X169331Y131870D01*
X169719Y132258D01*
X169928Y132764D01*
Y133313D01*
X169719Y133819D01*
X169331Y134207D01*
X168825Y134416D01*
D02*
G37*
G36*
X461220Y195709D02*
X439646D01*
Y169646D01*
X478228Y131063D01*
X514173D01*
Y160906D01*
X496024D01*
X491693Y165236D01*
X491776Y165547D01*
Y166658D01*
X491488Y167731D01*
X490933Y168693D01*
X490147Y169478D01*
X489185Y170034D01*
X488112Y170321D01*
X487002D01*
X486691Y170238D01*
X461220Y195709D01*
D02*
G37*
G36*
X-36734Y132480D02*
X-37282D01*
X-37788Y132271D01*
X-38176Y131883D01*
X-38386Y131376D01*
Y130828D01*
X-38176Y130322D01*
X-37788Y129934D01*
X-37282Y129724D01*
X-36734D01*
X-36227Y129934D01*
X-35840Y130322D01*
X-35630Y130828D01*
Y131376D01*
X-35840Y131883D01*
X-36227Y132271D01*
X-36734Y132480D01*
D02*
G37*
G36*
X309568Y133976D02*
X309019D01*
X308513Y133767D01*
X308125Y133379D01*
X307916Y132872D01*
Y132324D01*
X308125Y131818D01*
X308513Y131430D01*
X309019Y131220D01*
X309568D01*
X309569Y131221D01*
X309852Y130797D01*
X309757Y130702D01*
X309547Y130195D01*
Y129647D01*
X309757Y129141D01*
X310145Y128753D01*
X310651Y128543D01*
X311199D01*
X311706Y128753D01*
X312093Y129141D01*
X312303Y129647D01*
Y130195D01*
X312093Y130702D01*
X311706Y131089D01*
X311199Y131299D01*
X310651D01*
X310650Y131299D01*
X310366Y131722D01*
X310462Y131818D01*
X310671Y132324D01*
Y132872D01*
X310462Y133379D01*
X310074Y133767D01*
X309568Y133976D01*
D02*
G37*
G36*
X-2482Y133661D02*
X-3030D01*
X-3537Y133452D01*
X-3924Y133064D01*
X-4134Y132557D01*
Y132009D01*
X-3924Y131503D01*
X-3537Y131115D01*
X-3030Y130905D01*
X-2822Y130426D01*
X-3032Y129920D01*
Y129372D01*
X-2822Y128865D01*
X-2434Y128478D01*
X-1928Y128268D01*
X-1379D01*
X-873Y128478D01*
X-485Y128865D01*
X-276Y129372D01*
Y129920D01*
X-485Y130426D01*
X-873Y130814D01*
X-1379Y131024D01*
X-1588Y131503D01*
X-1378Y132009D01*
Y132557D01*
X-1588Y133064D01*
X-1975Y133452D01*
X-2482Y133661D01*
D02*
G37*
G36*
X119035Y130009D02*
X118486D01*
X117980Y129799D01*
X117592Y129411D01*
X117382Y128905D01*
Y128357D01*
X117592Y127850D01*
X117980Y127462D01*
X118486Y127253D01*
X119035D01*
X119541Y127462D01*
X119929Y127850D01*
X120138Y128357D01*
Y128905D01*
X119929Y129411D01*
X119541Y129799D01*
X119035Y130009D01*
D02*
G37*
G36*
X3109Y128976D02*
X2561D01*
X2054Y128767D01*
X1667Y128379D01*
X1457Y127873D01*
Y127324D01*
X1667Y126818D01*
X2054Y126430D01*
X2561Y126221D01*
X3109D01*
X3615Y126430D01*
X4003Y126818D01*
X4213Y127324D01*
Y127873D01*
X4003Y128379D01*
X3615Y128767D01*
X3109Y128976D01*
D02*
G37*
G36*
X26258Y127362D02*
X25710D01*
X25204Y127152D01*
X24816Y126765D01*
X24606Y126258D01*
Y125710D01*
X24816Y125204D01*
X25204Y124816D01*
X25710Y124606D01*
X26258D01*
X26765Y124816D01*
X27152Y125204D01*
X27362Y125710D01*
Y126258D01*
X27152Y126765D01*
X26765Y127152D01*
X26258Y127362D01*
D02*
G37*
G36*
X287912Y127362D02*
X287364D01*
X286857Y127152D01*
X286470Y126765D01*
X286260Y126258D01*
Y125710D01*
X286470Y125204D01*
X286857Y124816D01*
X287364Y124606D01*
X287912D01*
X288418Y124816D01*
X288806Y125204D01*
X289016Y125710D01*
Y126258D01*
X288806Y126765D01*
X288418Y127152D01*
X287912Y127362D01*
D02*
G37*
G36*
X528113Y130321D02*
X527002D01*
X525929Y130034D01*
X524967Y129478D01*
X524181Y128693D01*
X523626Y127731D01*
X523338Y126658D01*
Y125547D01*
X523626Y124474D01*
X524181Y123512D01*
X524967Y122727D01*
X525929Y122171D01*
X527002Y121884D01*
X528113D01*
X529185Y122171D01*
X530148Y122727D01*
X530933Y123512D01*
X531488Y124474D01*
X531776Y125547D01*
Y126658D01*
X531488Y127731D01*
X530933Y128693D01*
X530148Y129478D01*
X529185Y130034D01*
X528113Y130321D01*
D02*
G37*
G36*
X488112D02*
X487002D01*
X485929Y130034D01*
X484967Y129478D01*
X484181Y128693D01*
X483626Y127731D01*
X483338Y126658D01*
Y125547D01*
X483626Y124474D01*
X484181Y123512D01*
X484967Y122727D01*
X485929Y122171D01*
X487002Y121884D01*
X488112D01*
X489185Y122171D01*
X490147Y122727D01*
X490933Y123512D01*
X491488Y124474D01*
X491776Y125547D01*
Y126658D01*
X491488Y127731D01*
X490933Y128693D01*
X490147Y129478D01*
X489185Y130034D01*
X488112Y130321D01*
D02*
G37*
G36*
X-21465Y122198D02*
X-22014D01*
X-22520Y121988D01*
X-22908Y121600D01*
X-23117Y121094D01*
Y120545D01*
X-22908Y120039D01*
X-22520Y119651D01*
X-22014Y119442D01*
X-21465D01*
X-20959Y119651D01*
X-20571Y120039D01*
X-20361Y120545D01*
Y121094D01*
X-20571Y121600D01*
X-20959Y121988D01*
X-21465Y122198D01*
D02*
G37*
G36*
X16369Y119127D02*
X15821D01*
X15315Y118917D01*
X14927Y118529D01*
X14717Y118023D01*
Y117475D01*
X14927Y116968D01*
X15315Y116581D01*
X15821Y116371D01*
X16369D01*
X16876Y116581D01*
X17263Y116968D01*
X17473Y117475D01*
Y118023D01*
X17263Y118529D01*
X16876Y118917D01*
X16369Y119127D01*
D02*
G37*
G36*
X264Y116308D02*
X-285D01*
X-791Y116098D01*
X-1179Y115710D01*
X-1388Y115204D01*
Y114655D01*
X-1376Y114626D01*
X-1661Y114006D01*
X-1784Y113954D01*
X-2172Y113567D01*
X-2382Y113060D01*
Y112512D01*
X-2172Y112006D01*
X-2582Y111788D01*
X-2654Y111758D01*
X-3042Y111371D01*
X-3252Y110864D01*
Y110316D01*
X-3158Y110091D01*
X-3287Y109899D01*
X-3793Y109689D01*
X-4181Y109301D01*
X-4391Y108795D01*
Y108247D01*
X-4377Y108215D01*
X-4605Y107874D01*
X-5111Y107664D01*
X-5499Y107277D01*
X-5709Y106770D01*
Y106222D01*
X-6056Y105755D01*
X-6140D01*
X-6647Y105545D01*
X-7034Y105157D01*
X-7244Y104651D01*
Y104103D01*
X-7034Y103596D01*
X-6647Y103209D01*
X-6140Y102999D01*
X-5592D01*
X-5086Y103209D01*
X-4698Y103596D01*
X-4488Y104103D01*
Y104651D01*
X-4140Y105118D01*
X-4057D01*
X-3550Y105328D01*
X-3162Y105716D01*
X-2953Y106222D01*
Y106770D01*
X-2966Y106802D01*
X-2738Y107143D01*
X-2232Y107352D01*
X-1844Y107740D01*
X-1635Y108247D01*
Y108795D01*
X-1728Y109020D01*
X-1599Y109212D01*
X-1093Y109422D01*
X-705Y109810D01*
X-496Y110316D01*
Y110864D01*
X-705Y111371D01*
X-295Y111588D01*
X-223Y111618D01*
X164Y112006D01*
X374Y112512D01*
Y113060D01*
X362Y113090D01*
X646Y113710D01*
X770Y113761D01*
X1158Y114149D01*
X1272Y114424D01*
X1664Y114398D01*
X1785Y114358D01*
X1981Y113885D01*
X2369Y113497D01*
X2875Y113287D01*
X3424D01*
X3930Y113497D01*
X4318Y113885D01*
X4528Y114391D01*
Y114939D01*
X4318Y115446D01*
X3930Y115833D01*
X3424Y116043D01*
X2875D01*
X2369Y115833D01*
X1981Y115446D01*
X1867Y115171D01*
X1475Y115197D01*
X1354Y115237D01*
X1158Y115710D01*
X770Y116098D01*
X264Y116308D01*
D02*
G37*
G36*
X152656Y113276D02*
X152108D01*
X151602Y113066D01*
X151214Y112679D01*
X151005Y112172D01*
Y111624D01*
X151214Y111118D01*
X151602Y110730D01*
X152108Y110520D01*
X152656D01*
X153163Y110730D01*
X153551Y111118D01*
X153760Y111624D01*
Y112172D01*
X153551Y112679D01*
X153163Y113066D01*
X152656Y113276D01*
D02*
G37*
G36*
X94389Y108591D02*
X93841D01*
X93334Y108381D01*
X92947Y107994D01*
X92737Y107487D01*
Y106939D01*
X92947Y106433D01*
X93334Y106045D01*
X93841Y105835D01*
X94389D01*
X94895Y106045D01*
X95283Y106433D01*
X95493Y106939D01*
Y107487D01*
X95283Y107994D01*
X94895Y108381D01*
X94389Y108591D01*
D02*
G37*
G36*
X528113Y114022D02*
X527002D01*
X525929Y113734D01*
X524967Y113179D01*
X524181Y112394D01*
X523626Y111432D01*
X523338Y110359D01*
Y109248D01*
X523626Y108175D01*
X524181Y107213D01*
X524967Y106427D01*
X525929Y105872D01*
X527002Y105585D01*
X528113D01*
X529185Y105872D01*
X530148Y106427D01*
X530933Y107213D01*
X531488Y108175D01*
X531776Y109248D01*
Y110359D01*
X531488Y111432D01*
X530933Y112394D01*
X530148Y113179D01*
X529185Y113734D01*
X528113Y114022D01*
D02*
G37*
G36*
X488112D02*
X487002D01*
X485929Y113734D01*
X484967Y113179D01*
X484181Y112394D01*
X483626Y111432D01*
X483338Y110359D01*
Y109248D01*
X483626Y108175D01*
X484181Y107213D01*
X484967Y106427D01*
X485929Y105872D01*
X487002Y105585D01*
X488112D01*
X489185Y105872D01*
X490147Y106427D01*
X490933Y107213D01*
X491488Y108175D01*
X491776Y109248D01*
Y110359D01*
X491488Y111432D01*
X490933Y112394D01*
X490147Y113179D01*
X489185Y113734D01*
X488112Y114022D01*
D02*
G37*
G36*
X109511Y105706D02*
X108963D01*
X108456Y105496D01*
X108069Y105108D01*
X107859Y104602D01*
Y104054D01*
X108069Y103547D01*
X108456Y103160D01*
X108963Y102950D01*
X109511D01*
X110017Y103160D01*
X110405Y103547D01*
X110615Y104054D01*
Y104602D01*
X110405Y105108D01*
X110017Y105496D01*
X109511Y105706D01*
D02*
G37*
G36*
X188266Y102913D02*
X187718D01*
X187212Y102704D01*
X186824Y102316D01*
X186614Y101810D01*
Y101261D01*
X186824Y100755D01*
X187212Y100367D01*
X187718Y100157D01*
X188266D01*
X188773Y100367D01*
X189160Y100755D01*
X189370Y101261D01*
Y101810D01*
X189160Y102316D01*
X188773Y102704D01*
X188266Y102913D01*
D02*
G37*
G36*
X22559Y97638D02*
X15866D01*
Y90945D01*
X22559D01*
Y97638D01*
D02*
G37*
G36*
X169172Y90199D02*
X168623D01*
X168117Y89989D01*
X167729Y89602D01*
X167520Y89095D01*
Y88547D01*
X167729Y88041D01*
X168117Y87653D01*
X168623Y87443D01*
X169172D01*
X169678Y87653D01*
X170066Y88041D01*
X170275Y88547D01*
Y89095D01*
X170066Y89602D01*
X169678Y89989D01*
X169172Y90199D01*
D02*
G37*
G36*
X107411Y91388D02*
X99833D01*
Y83809D01*
X107411D01*
Y91388D01*
D02*
G37*
G36*
X19653Y87638D02*
X18772D01*
X17921Y87410D01*
X17158Y86969D01*
X16535Y86346D01*
X16094Y85583D01*
X15866Y84732D01*
Y83851D01*
X16094Y83000D01*
X16535Y82237D01*
X17158Y81613D01*
X17921Y81173D01*
X18772Y80945D01*
X19653D01*
X20504Y81173D01*
X21267Y81613D01*
X21890Y82237D01*
X22331Y83000D01*
X22559Y83851D01*
Y84732D01*
X22331Y85583D01*
X21890Y86346D01*
X21267Y86969D01*
X20504Y87410D01*
X19653Y87638D01*
D02*
G37*
G36*
X60353Y80827D02*
X59805D01*
X59298Y80617D01*
X58911Y80229D01*
X58729Y79792D01*
X58447Y79668D01*
X58201Y79614D01*
X58103Y79711D01*
X57597Y79921D01*
X57049D01*
X56542Y79711D01*
X56155Y79324D01*
X55945Y78817D01*
Y78269D01*
X56155Y77763D01*
X56542Y77375D01*
X57049Y77165D01*
X57597D01*
X58103Y77375D01*
X58491Y77763D01*
X58672Y78200D01*
X58955Y78325D01*
X59201Y78378D01*
X59298Y78281D01*
X59805Y78071D01*
X60353D01*
X60859Y78281D01*
X61247Y78668D01*
X61457Y79175D01*
Y79723D01*
X61247Y80229D01*
X60859Y80617D01*
X60353Y80827D01*
D02*
G37*
G36*
X461575Y128976D02*
X439646D01*
Y103227D01*
X445717Y97155D01*
X431523Y82960D01*
X399134D01*
X398542Y82843D01*
X398041Y82508D01*
X397706Y82006D01*
X397588Y81415D01*
X397706Y80824D01*
X398041Y80322D01*
X398542Y79987D01*
X399134Y79870D01*
X426874D01*
X426968Y79684D01*
X427027Y79369D01*
X426706Y79048D01*
X426496Y78542D01*
Y77994D01*
X426706Y77487D01*
X427093Y77100D01*
X427600Y76890D01*
X428148D01*
X428654Y77100D01*
X429042Y77487D01*
X429252Y77994D01*
Y78542D01*
X429042Y79048D01*
X428721Y79369D01*
X428780Y79684D01*
X428874Y79870D01*
X432163D01*
X432754Y79987D01*
X433256Y80322D01*
X447903Y94969D01*
X467951Y74921D01*
X514173D01*
Y104646D01*
X514173Y104646D01*
X485906D01*
X461575Y128976D01*
D02*
G37*
G36*
X117381Y77056D02*
X116833D01*
X116326Y76846D01*
X115939Y76458D01*
X115729Y75952D01*
Y75404D01*
X115939Y74897D01*
X116326Y74510D01*
X116833Y74300D01*
X117381D01*
X117887Y74510D01*
X118275Y74897D01*
X118485Y75404D01*
Y75952D01*
X118275Y76458D01*
X117887Y76846D01*
X117381Y77056D01*
D02*
G37*
G36*
X19653Y77638D02*
X18772D01*
X17921Y77410D01*
X17158Y76969D01*
X16535Y76346D01*
X16094Y75583D01*
X15866Y74732D01*
Y73851D01*
X16094Y73000D01*
X16535Y72237D01*
X17158Y71614D01*
X17921Y71173D01*
X18772Y70945D01*
X19653D01*
X20504Y71173D01*
X21267Y71614D01*
X21890Y72237D01*
X22331Y73000D01*
X22559Y73851D01*
Y74732D01*
X22331Y75583D01*
X21890Y76346D01*
X21267Y76969D01*
X20504Y77410D01*
X19653Y77638D01*
D02*
G37*
G36*
X77441Y74467D02*
X76893D01*
X76386Y74257D01*
X75999Y73870D01*
X75789Y73363D01*
Y72815D01*
X75999Y72309D01*
X76386Y71921D01*
X76893Y71711D01*
X76997D01*
X77441Y71694D01*
X77459Y71249D01*
Y71145D01*
X77669Y70638D01*
X78056Y70251D01*
X78563Y70041D01*
X79111D01*
X79618Y70251D01*
X80005Y70638D01*
X80215Y71145D01*
Y71693D01*
X80005Y72199D01*
X79618Y72587D01*
X79111Y72797D01*
X79006D01*
X78562Y72815D01*
X78545Y73259D01*
Y73363D01*
X78335Y73870D01*
X77947Y74257D01*
X77441Y74467D01*
D02*
G37*
G36*
X288285Y91142D02*
X286519D01*
X284774Y90865D01*
X283094Y90320D01*
X281521Y89518D01*
X280092Y88480D01*
X278843Y87231D01*
X277805Y85802D01*
X277003Y84228D01*
X276457Y82549D01*
X276181Y80804D01*
Y79038D01*
X276457Y77294D01*
X277003Y75614D01*
X277805Y74040D01*
X278843Y72612D01*
X280092Y71363D01*
X281521Y70325D01*
X283094Y69523D01*
X284774Y68977D01*
X286519Y68701D01*
X288285D01*
X290029Y68977D01*
X291709Y69523D01*
X293282Y70325D01*
X294711Y71363D01*
X295960Y72612D01*
X296998Y74040D01*
X297800Y75614D01*
X298346Y77294D01*
X298622Y79038D01*
Y80804D01*
X298346Y82549D01*
X297800Y84228D01*
X296998Y85802D01*
X295960Y87231D01*
X294711Y88480D01*
X293282Y89518D01*
X291709Y90320D01*
X290029Y90865D01*
X288285Y91142D01*
D02*
G37*
G36*
X528113Y74022D02*
X527002D01*
X525929Y73734D01*
X524967Y73179D01*
X524181Y72394D01*
X523626Y71432D01*
X523338Y70359D01*
Y69248D01*
X523626Y68175D01*
X524181Y67213D01*
X524967Y66427D01*
X525929Y65872D01*
X527002Y65584D01*
X528113D01*
X529185Y65872D01*
X530148Y66427D01*
X530933Y67213D01*
X531488Y68175D01*
X531776Y69248D01*
Y70359D01*
X531488Y71432D01*
X530933Y72394D01*
X530148Y73179D01*
X529185Y73734D01*
X528113Y74022D01*
D02*
G37*
G36*
X488112D02*
X487002D01*
X485929Y73734D01*
X484967Y73179D01*
X484181Y72394D01*
X483626Y71432D01*
X483338Y70359D01*
Y69248D01*
X483626Y68175D01*
X484181Y67213D01*
X484967Y66427D01*
X485929Y65872D01*
X487002Y65584D01*
X488112D01*
X489185Y65872D01*
X490147Y66427D01*
X490933Y67213D01*
X491488Y68175D01*
X491776Y69248D01*
Y70359D01*
X491488Y71432D01*
X490933Y72394D01*
X490147Y73179D01*
X489185Y73734D01*
X488112Y74022D01*
D02*
G37*
G36*
X255938Y64210D02*
X255390D01*
X254883Y64000D01*
X254496Y63612D01*
X254286Y63106D01*
Y62558D01*
X254346Y62414D01*
X254012Y61914D01*
X248530D01*
X248025Y62123D01*
X247477D01*
X246970Y61913D01*
X246582Y61526D01*
X246373Y61019D01*
Y60471D01*
X246582Y59965D01*
X246970Y59577D01*
X247477Y59367D01*
X248025D01*
X248164Y59425D01*
X257004D01*
X269789Y46640D01*
X270193Y46370D01*
X270669Y46275D01*
X287194D01*
X287472Y45860D01*
X287441Y45786D01*
Y45238D01*
X287651Y44731D01*
X287897Y44485D01*
X287988Y44173D01*
X287897Y43861D01*
X287651Y43615D01*
X287441Y43109D01*
Y42560D01*
X287651Y42054D01*
X288038Y41666D01*
X288545Y41457D01*
X289093D01*
X289599Y41666D01*
X289987Y42054D01*
X290197Y42560D01*
Y43109D01*
X289987Y43615D01*
X289741Y43861D01*
X289650Y44173D01*
X289741Y44485D01*
X289987Y44731D01*
X290197Y45238D01*
Y45786D01*
X290166Y45860D01*
X290444Y46275D01*
X292893D01*
X294222Y44947D01*
X294652Y44516D01*
X295056Y44246D01*
X295532Y44152D01*
X308655D01*
X308978Y44018D01*
X309526D01*
X310033Y44228D01*
X310420Y44616D01*
X310630Y45122D01*
Y45670D01*
X310420Y46177D01*
X310033Y46564D01*
X309756Y46679D01*
X309856Y47179D01*
X310091D01*
X310597Y47388D01*
X310985Y47776D01*
X311194Y48283D01*
Y48831D01*
X310985Y49337D01*
X310597Y49725D01*
X310091Y49935D01*
X309542D01*
X309123Y49761D01*
X296800D01*
X296311Y50250D01*
X296119Y50378D01*
X295907Y50520D01*
X295907Y50520D01*
X295907Y50520D01*
X295694Y50562D01*
X295431Y50614D01*
X272523D01*
X259502Y63636D01*
X259098Y63906D01*
X258622Y64000D01*
X256444D01*
X255938Y64210D01*
D02*
G37*
G36*
X19653Y67638D02*
X18772D01*
X17921Y67410D01*
X17158Y66969D01*
X16535Y66346D01*
X16094Y65583D01*
X15866Y64732D01*
Y63851D01*
X16094Y63000D01*
X16535Y62237D01*
X17158Y61614D01*
X17921Y61173D01*
X18772Y60945D01*
X19653D01*
X20504Y61173D01*
X21267Y61614D01*
X21890Y62237D01*
X22331Y63000D01*
X22559Y63851D01*
Y64732D01*
X22331Y65583D01*
X21890Y66346D01*
X21267Y66969D01*
X20504Y67410D01*
X19653Y67638D01*
D02*
G37*
G36*
X162873Y65020D02*
X162324D01*
X161818Y64810D01*
X161430Y64422D01*
X161221Y63916D01*
Y63368D01*
X161430Y62861D01*
X161818Y62473D01*
X162324Y62264D01*
X162629D01*
X162879Y62250D01*
X163091Y61813D01*
Y61690D01*
X163300Y61184D01*
X163688Y60796D01*
X164195Y60586D01*
X164743D01*
X165249Y60796D01*
X165637Y61184D01*
X165847Y61690D01*
Y62238D01*
X165637Y62745D01*
X165249Y63132D01*
X164743Y63342D01*
X164438D01*
X164188Y63356D01*
X163976Y63793D01*
Y63916D01*
X163767Y64422D01*
X163379Y64810D01*
X162873Y65020D01*
D02*
G37*
G36*
X167080Y58619D02*
X166532D01*
X166025Y58409D01*
X165638Y58022D01*
X165428Y57515D01*
Y56967D01*
X165638Y56461D01*
X166025Y56073D01*
X166532Y55863D01*
X167080D01*
X167586Y56073D01*
X167974Y56461D01*
X168184Y56967D01*
Y57515D01*
X167974Y58022D01*
X167586Y58409D01*
X167080Y58619D01*
D02*
G37*
G36*
X315786Y55709D02*
X315238D01*
X314731Y55499D01*
X314344Y55111D01*
X314134Y54605D01*
Y54057D01*
X314344Y53550D01*
X314731Y53162D01*
X315238Y52953D01*
X315786D01*
X316292Y53162D01*
X316680Y53550D01*
X316890Y54057D01*
Y54605D01*
X316680Y55111D01*
X316292Y55499D01*
X315786Y55709D01*
D02*
G37*
G36*
X106243Y54259D02*
X105695D01*
X105188Y54049D01*
X104800Y53662D01*
X104591Y53155D01*
Y52607D01*
X104800Y52101D01*
X105188Y51713D01*
X105695Y51503D01*
X106243D01*
X106749Y51713D01*
X107137Y52101D01*
X107347Y52607D01*
Y53155D01*
X107137Y53662D01*
X106749Y54049D01*
X106243Y54259D01*
D02*
G37*
G36*
X19653Y57638D02*
X18772D01*
X17921Y57410D01*
X17158Y56969D01*
X16535Y56346D01*
X16094Y55583D01*
X15866Y54732D01*
Y53851D01*
X16094Y53000D01*
X16535Y52237D01*
X17158Y51613D01*
X17921Y51173D01*
X18772Y50945D01*
X19653D01*
X20504Y51173D01*
X21267Y51613D01*
X21890Y52237D01*
X22331Y53000D01*
X22559Y53851D01*
Y54732D01*
X22331Y55583D01*
X21890Y56346D01*
X21267Y56969D01*
X20504Y57410D01*
X19653Y57638D01*
D02*
G37*
G36*
X99526Y52598D02*
X98978D01*
X98471Y52389D01*
X98084Y52001D01*
X97874Y51495D01*
Y50946D01*
X98084Y50440D01*
X98471Y50052D01*
X98978Y49843D01*
X99526D01*
X100032Y50052D01*
X100420Y50440D01*
X100630Y50946D01*
Y51495D01*
X100420Y52001D01*
X100032Y52389D01*
X99526Y52598D01*
D02*
G37*
G36*
X528113Y57723D02*
X527002D01*
X525929Y57435D01*
X524967Y56880D01*
X524181Y56094D01*
X523626Y55132D01*
X523338Y54059D01*
Y52949D01*
X523626Y51876D01*
X524181Y50914D01*
X524967Y50128D01*
X525929Y49573D01*
X527002Y49285D01*
X528113D01*
X529185Y49573D01*
X530148Y50128D01*
X530933Y50914D01*
X531488Y51876D01*
X531776Y52949D01*
Y54059D01*
X531488Y55132D01*
X530933Y56094D01*
X530148Y56880D01*
X529185Y57435D01*
X528113Y57723D01*
D02*
G37*
G36*
X19653Y47638D02*
X18772D01*
X17921Y47410D01*
X17158Y46969D01*
X16535Y46346D01*
X16094Y45583D01*
X15866Y44732D01*
Y43851D01*
X16094Y43000D01*
X16535Y42237D01*
X17158Y41614D01*
X17921Y41173D01*
X18772Y40945D01*
X19653D01*
X20504Y41173D01*
X21267Y41614D01*
X21890Y42237D01*
X22331Y43000D01*
X22559Y43851D01*
Y44732D01*
X22331Y45583D01*
X21890Y46346D01*
X21267Y46969D01*
X20504Y47410D01*
X19653Y47638D01*
D02*
G37*
G36*
X104639Y43186D02*
X104091D01*
X103584Y42976D01*
X103197Y42589D01*
X102987Y42082D01*
Y41534D01*
X103197Y41028D01*
X103584Y40640D01*
X104091Y40430D01*
X104639D01*
X105145Y40640D01*
X105533Y41028D01*
X105743Y41534D01*
Y42082D01*
X105533Y42589D01*
X105145Y42976D01*
X104639Y43186D01*
D02*
G37*
G36*
X190707Y40866D02*
X190159D01*
X189653Y40656D01*
X189265Y40269D01*
X189055Y39762D01*
Y39214D01*
X189265Y38708D01*
X189653Y38320D01*
X190159Y38110D01*
X190707D01*
X191214Y38320D01*
X191601Y38708D01*
X191811Y39214D01*
Y39762D01*
X191601Y40269D01*
X191214Y40656D01*
X190707Y40866D01*
D02*
G37*
G36*
X19653Y37638D02*
X18772D01*
X17921Y37410D01*
X17158Y36969D01*
X16535Y36346D01*
X16094Y35583D01*
X15866Y34732D01*
Y33851D01*
X16094Y33000D01*
X16535Y32237D01*
X17158Y31613D01*
X17921Y31173D01*
X18772Y30945D01*
X19653D01*
X20504Y31173D01*
X21267Y31613D01*
X21890Y32237D01*
X22331Y33000D01*
X22559Y33851D01*
Y34732D01*
X22331Y35583D01*
X21890Y36346D01*
X21267Y36969D01*
X20504Y37410D01*
X19653Y37638D01*
D02*
G37*
G36*
X128896Y33504D02*
X128348D01*
X127841Y33294D01*
X127454Y32906D01*
X127244Y32400D01*
Y31852D01*
X127454Y31345D01*
X127841Y30958D01*
X128348Y30748D01*
X128896D01*
X129403Y30958D01*
X129790Y31345D01*
X130000Y31852D01*
Y32400D01*
X129790Y32906D01*
X129403Y33294D01*
X128896Y33504D01*
D02*
G37*
G36*
X19713Y27732D02*
Y24791D01*
X22653D01*
X22430Y25624D01*
X21975Y26411D01*
X21333Y27054D01*
X20545Y27509D01*
X19713Y27732D01*
D02*
G37*
G36*
X18713D02*
X17880Y27509D01*
X17093Y27054D01*
X16450Y26411D01*
X15995Y25624D01*
X15772Y24791D01*
X18713D01*
Y27732D01*
D02*
G37*
G36*
X403306Y26181D02*
X402757D01*
X402251Y25971D01*
X401863Y25584D01*
X401653Y25077D01*
Y24529D01*
X401863Y24023D01*
X402251Y23635D01*
X402757Y23425D01*
X403306D01*
X403812Y23635D01*
X404200Y24023D01*
X404410Y24529D01*
Y25077D01*
X404200Y25584D01*
X403812Y25971D01*
X403306Y26181D01*
D02*
G37*
G36*
X22653Y23791D02*
X19713D01*
Y20851D01*
X20545Y21074D01*
X21333Y21529D01*
X21975Y22171D01*
X22430Y22959D01*
X22653Y23791D01*
D02*
G37*
G36*
X18713D02*
X15772D01*
X15995Y22959D01*
X16450Y22171D01*
X17093Y21529D01*
X17880Y21074D01*
X18713Y20851D01*
Y23791D01*
D02*
G37*
G36*
X427095Y26234D02*
X426547D01*
X426040Y26024D01*
X425653Y25636D01*
X425443Y25130D01*
Y24582D01*
X425653Y24075D01*
X426040Y23688D01*
X426227Y23610D01*
X426128Y23110D01*
X425986D01*
X425479Y22900D01*
X425092Y22513D01*
X424882Y22006D01*
Y21458D01*
X425092Y20952D01*
X425479Y20564D01*
X425986Y20354D01*
X426534D01*
X427040Y20564D01*
X427428Y20952D01*
X427638Y21458D01*
Y22006D01*
X427428Y22513D01*
X427040Y22900D01*
X426853Y22978D01*
X426953Y23478D01*
X427095D01*
X427601Y23688D01*
X427989Y24075D01*
X428199Y24582D01*
Y25130D01*
X427989Y25636D01*
X427601Y26024D01*
X427095Y26234D01*
D02*
G37*
G36*
X431316Y20039D02*
X430768D01*
X430262Y19830D01*
X429874Y19442D01*
X429664Y18936D01*
Y18563D01*
X429523Y18426D01*
X429264Y18275D01*
X429202Y18258D01*
X428798Y18425D01*
X428250D01*
X427743Y18215D01*
X427356Y17828D01*
X427146Y17321D01*
Y16773D01*
X427356Y16267D01*
X427743Y15879D01*
X428250Y15669D01*
X428798D01*
X429304Y15879D01*
X429692Y16267D01*
X429902Y16773D01*
Y17146D01*
X430043Y17283D01*
X430302Y17434D01*
X430364Y17451D01*
X430768Y17284D01*
X431316D01*
X431823Y17493D01*
X432210Y17881D01*
X432420Y18387D01*
Y18936D01*
X432210Y19442D01*
X431823Y19830D01*
X431316Y20039D01*
D02*
G37*
G36*
X107412Y25167D02*
X99833D01*
Y17589D01*
X107412D01*
Y25167D01*
D02*
G37*
G36*
X185643Y20128D02*
X174567D01*
X173976Y20010D01*
X173474Y19675D01*
X173139Y19174D01*
X173021Y18583D01*
X173139Y17991D01*
X173474Y17490D01*
X173976Y17155D01*
X174567Y17037D01*
X185643D01*
X186234Y17155D01*
X186735Y17490D01*
X187070Y17991D01*
X187188Y18583D01*
X187070Y19174D01*
X186735Y19675D01*
X186234Y20010D01*
X185643Y20128D01*
D02*
G37*
G36*
X164363Y54446D02*
X163815D01*
X163309Y54236D01*
X162921Y53849D01*
X162711Y53342D01*
Y52794D01*
X162771Y52650D01*
X162437Y52150D01*
X134539D01*
X134063Y52055D01*
X133659Y51785D01*
X129374Y47500D01*
X129104Y47096D01*
X129009Y46620D01*
Y46445D01*
X128935Y46371D01*
X128725Y45864D01*
Y45316D01*
X128935Y44809D01*
X129322Y44422D01*
X129829Y44212D01*
X130377D01*
X130883Y44422D01*
X131271Y44809D01*
X131481Y45316D01*
Y45652D01*
X131498Y45738D01*
Y46105D01*
X135054Y49661D01*
X230272D01*
X249238Y30695D01*
X250892Y29041D01*
X251295Y28772D01*
X251772Y28677D01*
X314158D01*
X322258Y20577D01*
X322662Y20307D01*
X323138Y20212D01*
X356966D01*
X357066Y19712D01*
X356799Y19602D01*
X356411Y19214D01*
X356201Y18708D01*
Y18160D01*
X356411Y17653D01*
X356799Y17266D01*
X357012Y17177D01*
X356912Y16677D01*
X332255D01*
X331779Y16583D01*
X331375Y16313D01*
X328905Y13843D01*
X125397D01*
X120073Y19167D01*
Y19208D01*
X119864Y19715D01*
X119476Y20102D01*
X118970Y20312D01*
X118421D01*
X117915Y20102D01*
X117527Y19715D01*
X117318Y19208D01*
Y18660D01*
X117527Y18154D01*
X117915Y17766D01*
X117983Y17738D01*
X124002Y11718D01*
X124406Y11449D01*
X124882Y11354D01*
X329421D01*
X329897Y11449D01*
X330301Y11718D01*
X332771Y14189D01*
X368752D01*
X369070Y13689D01*
X368976Y13463D01*
Y12915D01*
X369186Y12409D01*
X369574Y12021D01*
X370080Y11811D01*
X370628D01*
X371135Y12021D01*
X371522Y12409D01*
X371732Y12915D01*
Y13463D01*
X371579Y13833D01*
X371527Y13981D01*
X371718Y14481D01*
X371825Y14553D01*
X374413Y17141D01*
X383262D01*
X383584Y17008D01*
X384132D01*
X384639Y17218D01*
X385027Y17605D01*
X385236Y18112D01*
Y18660D01*
X385027Y19166D01*
X385089Y19671D01*
X385445Y20027D01*
X385654Y20533D01*
Y21081D01*
X385445Y21588D01*
X385057Y21975D01*
X384551Y22185D01*
X384238D01*
X384031Y22685D01*
X385379Y24033D01*
X385702Y24167D01*
X386089Y24554D01*
X386299Y25060D01*
Y25609D01*
X386089Y26115D01*
X385702Y26503D01*
X385195Y26713D01*
X384647D01*
X384141Y26503D01*
X383753Y26115D01*
X383620Y25793D01*
X382339Y24512D01*
X367390D01*
X367112Y24928D01*
X367126Y24962D01*
Y25510D01*
X366916Y26017D01*
X366529Y26405D01*
X366022Y26614D01*
X365474D01*
X364967Y26405D01*
X364580Y26017D01*
X364370Y25510D01*
Y24962D01*
X364384Y24928D01*
X364106Y24512D01*
X326948D01*
X317115Y34345D01*
X316712Y34614D01*
X316235Y34709D01*
X251657D01*
X232494Y53872D01*
X232090Y54142D01*
X231614Y54237D01*
X164869D01*
X164363Y54446D01*
D02*
G37*
G36*
X376721Y15315D02*
X376173D01*
X375667Y15105D01*
X375279Y14718D01*
X375069Y14211D01*
Y13663D01*
X375279Y13157D01*
X375667Y12769D01*
X376173Y12559D01*
X376721D01*
X377228Y12769D01*
X377615Y13157D01*
X377825Y13663D01*
Y14211D01*
X377615Y14718D01*
X377228Y15105D01*
X376721Y15315D01*
D02*
G37*
G36*
X528113Y17723D02*
X527002D01*
X525929Y17435D01*
X524967Y16880D01*
X524181Y16094D01*
X523626Y15132D01*
X523338Y14059D01*
Y12949D01*
X523626Y11876D01*
X524181Y10914D01*
X524967Y10128D01*
X525929Y9573D01*
X527002Y9285D01*
X528113D01*
X529185Y9573D01*
X530148Y10128D01*
X530933Y10914D01*
X531488Y11876D01*
X531776Y12949D01*
Y14059D01*
X531488Y15132D01*
X530933Y16094D01*
X530148Y16880D01*
X529185Y17435D01*
X528113Y17723D01*
D02*
G37*
G36*
X396219Y11299D02*
X395671D01*
X395164Y11089D01*
X394777Y10702D01*
X394567Y10195D01*
Y9647D01*
X394777Y9141D01*
X395164Y8753D01*
X395671Y8543D01*
X396219D01*
X396725Y8753D01*
X397113Y9141D01*
X397323Y9647D01*
Y10195D01*
X397113Y10702D01*
X396725Y11089D01*
X396219Y11299D01*
D02*
G37*
%LPD*%
G36*
X263921Y210154D02*
X263858Y210003D01*
Y209455D01*
X264068Y208948D01*
X264347Y208670D01*
X264193Y208170D01*
X206781D01*
X206682Y208670D01*
X206883Y208753D01*
X207271Y209141D01*
X207480Y209647D01*
Y209823D01*
X208311Y210654D01*
X263587D01*
X263921Y210154D01*
D02*
G37*
G36*
X344951Y167786D02*
X344951Y167786D01*
X345290Y167559D01*
X345689Y167480D01*
X350087D01*
X350339Y166980D01*
X350199Y166641D01*
Y166093D01*
X350408Y165586D01*
X350562Y165432D01*
X350644Y164974D01*
X350533Y164809D01*
X350264Y164541D01*
X350055Y164034D01*
Y163486D01*
X350117Y163335D01*
X349783Y162835D01*
X341599D01*
X334044Y170390D01*
X333706Y170616D01*
X333306Y170695D01*
X333306Y170695D01*
X331484D01*
X329860Y172319D01*
X329522Y172545D01*
X329122Y172625D01*
X329122Y172625D01*
X307493D01*
X305677Y174441D01*
X305884Y174941D01*
X337796D01*
X344951Y167786D01*
D02*
G37*
G36*
X327862Y165797D02*
X327862Y165797D01*
X328201Y165571D01*
X328600Y165492D01*
X332126D01*
X332251Y165367D01*
X332757Y165157D01*
X333306D01*
X333812Y165367D01*
X334200Y165755D01*
X334409Y166261D01*
Y166366D01*
X334910Y166573D01*
X340428Y161054D01*
X340428Y161054D01*
X340767Y160828D01*
X341166Y160748D01*
X341166Y160748D01*
X359311D01*
X359796Y160264D01*
X359589Y159764D01*
X336539D01*
Y160109D01*
X336329Y160616D01*
X335942Y161003D01*
X335435Y161213D01*
X335259D01*
X334678Y161794D01*
X334947Y162216D01*
X334987Y162256D01*
X335197Y162763D01*
Y163311D01*
X334987Y163817D01*
X334600Y164205D01*
X334093Y164415D01*
X333545D01*
X333039Y164205D01*
X332914Y164081D01*
X310525D01*
X307213Y167393D01*
X307420Y167893D01*
X325766D01*
X327862Y165797D01*
D02*
G37*
G36*
X367944Y152115D02*
X367753Y151654D01*
X360039D01*
Y159313D01*
X360539Y159520D01*
X367944Y152115D01*
D02*
G37*
G36*
X362837Y100252D02*
X361866Y99282D01*
X361277Y99399D01*
X361265Y99427D01*
X360877Y99815D01*
X360371Y100025D01*
X359823D01*
X359316Y99815D01*
X358929Y99427D01*
X358719Y98921D01*
Y98373D01*
X358733Y98338D01*
X358455Y97923D01*
X340160D01*
X337830Y100252D01*
X338022Y100714D01*
X362646D01*
X362837Y100252D01*
D02*
G37*
G36*
X373578Y95218D02*
X373770Y94993D01*
X373757Y94959D01*
Y94411D01*
X373768Y94382D01*
X373491Y93967D01*
X369055D01*
X368464Y93849D01*
X367962Y93514D01*
X363177Y88729D01*
X362958Y88768D01*
X362642Y88901D01*
X362467Y89324D01*
X362080Y89711D01*
X361573Y89921D01*
X361025D01*
X360519Y89711D01*
X360131Y89324D01*
X359921Y88817D01*
Y88269D01*
X359980Y88128D01*
X359646Y87628D01*
X343907D01*
X343620Y87984D01*
X343849Y88399D01*
X344333D01*
X344839Y88608D01*
X345227Y88996D01*
X345437Y89503D01*
Y90051D01*
X345227Y90557D01*
X344839Y90945D01*
X344333Y91155D01*
X343784D01*
X343278Y90945D01*
X342890Y90557D01*
X342681Y90051D01*
Y89543D01*
X342574Y89452D01*
X342228Y89288D01*
X340166Y91350D01*
X340358Y91812D01*
X348107D01*
X348206Y91312D01*
X347907Y91188D01*
X347519Y90800D01*
X347309Y90294D01*
Y89745D01*
X347519Y89239D01*
X347907Y88851D01*
X348413Y88642D01*
X348961D01*
X349468Y88851D01*
X349855Y89239D01*
X350065Y89745D01*
Y90294D01*
X349855Y90800D01*
X349468Y91188D01*
X349168Y91312D01*
X349268Y91812D01*
X362523D01*
X362999Y91907D01*
X363403Y92176D01*
X366508Y95281D01*
X372968D01*
X373383Y95364D01*
X373578Y95218D01*
D02*
G37*
G36*
X324777Y23163D02*
X324586Y22701D01*
X323654D01*
X315553Y30801D01*
X315150Y31071D01*
X314674Y31166D01*
X252287D01*
X251694Y31758D01*
X251886Y32220D01*
X315720D01*
X324777Y23163D01*
D02*
G37*
D13*
X266240Y203543D02*
X308727Y161056D01*
X333940D01*
X176575Y203543D02*
X266240D01*
X266004Y207126D02*
X310093Y163037D01*
X333819D01*
X177323Y207126D02*
X266004D01*
X120295Y201004D02*
X265295D01*
X266241Y208937D02*
X267144D01*
X92480Y213898D02*
X267305D01*
X265449Y209729D02*
X266241Y208937D01*
X307144Y168937D02*
X326199D01*
X207879Y211698D02*
X266944D01*
X307061Y171581D01*
X305219Y175984D02*
X338229D01*
X265236Y209729D02*
X265449D01*
X267305Y213898D02*
X305219Y175984D01*
X307061Y171581D02*
X329122D01*
X267144Y208937D02*
X307144Y168937D01*
X117618Y198327D02*
X120295Y201004D01*
X173326Y211123D02*
X177323Y207126D01*
X173326Y211123D02*
Y211123D01*
X206914Y243921D02*
X276181D01*
X276935Y239016D02*
X277011Y238940D01*
X204414Y249095D02*
X277698D01*
X131535Y239016D02*
X276935D01*
X175205Y275630D02*
X206914Y243921D01*
X171343Y282165D02*
X204414Y249095D01*
X121142Y249409D02*
X131535Y239016D01*
X198100Y307127D02*
Y308758D01*
X199720Y305507D02*
X205509D01*
X198100Y308758D02*
X199253Y309911D01*
X202573Y308657D02*
X204204D01*
X189252Y312835D02*
X206020D01*
X212836D02*
X308150D01*
X206020D02*
X206712Y312143D01*
Y311164D02*
Y312143D01*
X204204Y308657D02*
X206712Y311164D01*
X205509Y305507D02*
X212836Y312835D01*
X198100Y307127D02*
X199720Y305507D01*
X177401Y314409D02*
X209957D01*
X171299Y320512D02*
X177401Y314409D01*
X181614Y305197D02*
X189252Y312835D01*
X201319Y309911D02*
X202573Y308657D01*
X209957Y314409D02*
X212161Y316614D01*
X199253Y309911D02*
X201319D01*
X308965Y314803D02*
X308972Y314796D01*
X309967D02*
X310118Y314646D01*
X308972Y314796D02*
X309967D01*
X204856Y307082D02*
X212577Y314803D01*
X308965D01*
X212161Y316614D02*
X310933D01*
X311196Y316352D02*
X312999D01*
X313150Y316201D01*
X310933Y316614D02*
X311196Y316352D01*
X86516Y209291D02*
X171221D01*
X173189Y211260D01*
X86476Y209331D02*
X86516Y209291D01*
X392244Y156142D02*
X398307Y162205D01*
X413032D02*
X414291Y160945D01*
X398307Y162205D02*
X413032D01*
X326199Y168937D02*
X328600Y166535D01*
X333032D01*
X333306Y169652D02*
X341166Y161792D01*
X359744D01*
X369370Y152165D01*
X165118Y282165D02*
X171343D01*
X168132Y275630D02*
X175205D01*
X165387Y275466D02*
X167968D01*
X168132Y275630D01*
X201061Y307943D02*
X201921Y307082D01*
X200068Y307943D02*
X201061D01*
X201921Y307082D02*
X204856D01*
X329122Y171581D02*
X331052Y169652D01*
X333306D01*
X333940Y161056D02*
X335161Y159835D01*
X206102Y209921D02*
X207879Y211698D01*
X338229Y175984D02*
X345689Y168524D01*
X356713D01*
X369094Y156142D01*
X369370Y152165D02*
X391929D01*
X369094Y156142D02*
X392244D01*
D86*
X272115Y192902D02*
D03*
X244882Y253543D02*
D03*
X272008Y229842D02*
D03*
X272441Y253937D02*
D03*
X271811Y26969D02*
D03*
X253583D02*
D03*
Y44842D02*
D03*
X271732Y44370D02*
D03*
X271220Y113071D02*
D03*
X253307Y131890D02*
D03*
X254016Y175157D02*
D03*
X488661Y378583D02*
D03*
X150945Y311772D02*
D03*
X142283Y253740D02*
D03*
X253976Y345669D02*
D03*
X272284Y345590D02*
D03*
X272244Y362795D02*
D03*
X254016Y363110D02*
D03*
X386417Y345197D02*
D03*
X386181Y363583D02*
D03*
X367245Y363570D02*
D03*
X272480Y220905D02*
D03*
X234606Y190748D02*
D03*
X227323Y136142D02*
D03*
X233228Y77362D02*
D03*
X228228Y33504D02*
D03*
X87795Y32283D02*
D03*
X88425Y87638D02*
D03*
X143504Y142677D02*
D03*
X153583Y189646D02*
D03*
X38189Y257008D02*
D03*
X47520Y189331D02*
D03*
X31669Y284680D02*
D03*
X57480Y369134D02*
D03*
X137716Y368976D02*
D03*
X240669Y292874D02*
D03*
X357677Y47657D02*
D03*
X357717Y42540D02*
D03*
Y37028D02*
D03*
X357126Y128898D02*
D03*
X357165Y123780D02*
D03*
Y118268D02*
D03*
X353583Y207992D02*
D03*
X353622Y202874D02*
D03*
Y197362D02*
D03*
X456811Y106063D02*
D03*
X385827Y255000D02*
D03*
X367598D02*
D03*
Y237126D02*
D03*
X385827D02*
D03*
X401339Y232244D02*
D03*
Y238150D02*
D03*
Y244055D02*
D03*
X395433D02*
D03*
Y238150D02*
D03*
Y232244D02*
D03*
D90*
X362717Y86083D02*
X369055Y92421D01*
X387500D02*
X392234Y87687D01*
X369055Y92421D02*
X387500D01*
X318464Y107126D02*
X334641Y90950D01*
X338381D01*
X343248Y86083D01*
X255906Y107126D02*
X318464D01*
X418821Y268819D02*
X426968D01*
X411715Y275925D02*
X418821Y268819D01*
X236003Y275925D02*
X411715D01*
X432163Y81415D02*
X456811Y106063D01*
X399134Y81415D02*
X432163D01*
X392234Y87687D02*
X425610D01*
X174567Y18583D02*
X185643D01*
X266378Y86221D02*
X274646Y94488D01*
X303189D01*
X237835Y86221D02*
X266378D01*
X343248Y86083D02*
X362717D01*
X211338Y263701D02*
X223779D01*
X236003Y275925D01*
D91*
X373096Y96653D02*
X378571D01*
X366912Y101959D02*
X367039Y102087D01*
X386502Y96398D02*
X388638Y94262D01*
X365992Y96526D02*
X372968D01*
X372218Y98337D02*
X372346Y98465D01*
X378827Y96398D02*
X386502D01*
X373642Y102087D02*
X375699Y104144D01*
X364492Y100148D02*
X369378D01*
X372346Y98465D02*
X379321D01*
X369506Y100276D02*
X374392D01*
X318451Y120433D02*
X336926Y101959D01*
X378571Y96653D02*
X378827Y96398D01*
X367039Y102087D02*
X373642D01*
X369378Y100148D02*
X369506Y100276D01*
X374392D02*
X375148Y101032D01*
X336926Y101959D02*
X366912D01*
X379321Y98465D02*
X379420Y98366D01*
X372968Y96526D02*
X373096Y96653D01*
X379420Y98366D02*
X383838D01*
X365242Y98337D02*
X372218D01*
X388638Y94262D02*
X413533D01*
X320637Y100591D02*
X334802Y86426D01*
X335254Y83152D02*
X337771D01*
X319626Y98780D02*
X335254Y83152D01*
X253346Y98780D02*
X319626D01*
X246642Y95079D02*
X252154Y100591D01*
X320637D01*
X335669Y79961D02*
X337362D01*
X318779Y96850D02*
X335669Y79961D01*
X254567Y96850D02*
X318779D01*
X375148Y101032D02*
X385649D01*
X375699Y104144D02*
X385649D01*
X276799Y118504D02*
X317819D01*
X339645Y96678D02*
X361023D01*
X338145Y93056D02*
X362523D01*
X276049Y116693D02*
X317069D01*
X317819Y118504D02*
X339645Y96678D01*
X277716Y120433D02*
X318451D01*
X316319Y114882D02*
X338145Y93056D01*
X317069Y116693D02*
X338895Y94867D01*
X361773D01*
X274414Y114882D02*
X316319D01*
X242558Y140906D02*
X246338Y137126D01*
X261024D01*
X261125Y137024D01*
X242205Y137362D02*
X244252Y135315D01*
X259988D01*
X96102Y120669D02*
X268627D01*
X274414Y114882D01*
X259988Y135315D02*
X276799Y118504D01*
X361023Y96678D02*
X364492Y100148D01*
X270104Y122638D02*
X276049Y116693D01*
X141811Y122638D02*
X270104D01*
X361773Y94867D02*
X365242Y98337D01*
X130709Y133740D02*
X141811Y122638D01*
X371848Y18898D02*
X373758Y20807D01*
X384277D01*
X370945Y15433D02*
X373898Y18386D01*
X362784Y18898D02*
X371848D01*
X332255Y15433D02*
X370945D01*
X373898Y18386D02*
X383858D01*
X323138Y21457D02*
X360225D01*
X314674Y29921D02*
X323138Y21457D01*
X250118Y31575D02*
X251772Y29921D01*
X326432Y23268D02*
X382854D01*
X251772Y29921D02*
X314674D01*
X360225Y21457D02*
X362784Y18898D01*
X444803Y2559D02*
X460669Y18425D01*
X131732Y2559D02*
X444803D01*
X127362Y95079D02*
X246642D01*
X117362Y85079D02*
X127362Y95079D01*
X218543Y278465D02*
X395276D01*
X216024Y275945D02*
X218543Y278465D01*
X209331Y257913D02*
X278346D01*
X280079Y256181D01*
X325977D01*
X339678Y269882D01*
X208119Y89528D02*
X247244D01*
X130254Y45738D02*
Y46620D01*
X130029Y45514D02*
X130254Y45738D01*
Y46620D02*
X134539Y50905D01*
X118622Y18858D02*
X124882Y12598D01*
X329421D01*
X332255Y15433D01*
X236221Y140906D02*
X242558D01*
X164619Y169547D02*
Y171290D01*
Y169547D02*
X164619Y169547D01*
X160515Y175394D02*
X164619Y171290D01*
X164619Y168750D02*
Y169547D01*
X166629Y170404D02*
X226270D01*
X42621Y175394D02*
X160515D01*
X166588Y170362D02*
X166629Y170404D01*
X164619Y168750D02*
X165311Y168058D01*
X189711D02*
X190197Y168543D01*
X165311Y168058D02*
X189711D01*
X339678Y269882D02*
X409646D01*
X-30214Y258898D02*
X-4882D01*
X-31995Y257117D02*
X-30214Y258898D01*
X-28060Y254803D02*
X-25973Y256890D01*
X-34843Y254803D02*
X-28060D01*
X-36230Y257117D02*
X-31995D01*
X247244Y89528D02*
X254567Y96850D01*
X247507Y92940D02*
X253346Y98780D01*
X215465Y92940D02*
X247507D01*
X362523Y93056D02*
X365992Y96526D01*
X128465Y5827D02*
X131732Y2559D01*
X41535Y174331D02*
X41558D01*
X42621Y175394D01*
X104068Y170591D02*
X107128Y167530D01*
X-26299Y170591D02*
X104068D01*
X107128Y167530D02*
X107278D01*
X111755Y220945D02*
X112402Y221591D01*
X115134D01*
X334802Y86426D02*
X338016D01*
X338149Y86292D01*
X309776Y48517D02*
X309817Y48557D01*
X296284Y48517D02*
X309776D01*
X230787Y50905D02*
X250118Y31575D01*
X134539Y50905D02*
X230787D01*
X115134Y221591D02*
X115157Y221614D01*
X231614Y52992D02*
X251142Y33465D01*
X164016Y52992D02*
X231614D01*
X130496Y133740D02*
X130709D01*
X295101Y45827D02*
X295532Y45396D01*
X309252D01*
X25669Y220945D02*
X111755D01*
X261125Y137024D02*
X277716Y120433D01*
X251142Y33465D02*
X316235D01*
X326432Y23268D01*
X382854D02*
X384921Y25335D01*
X190197Y168543D02*
X240709D01*
X255591Y62756D02*
X258622D01*
X272008Y49370D01*
X295431D01*
X296284Y48517D01*
X-25973Y256890D02*
X-7953D01*
X247677Y60669D02*
X257520D01*
X270669Y47520D01*
X293408D01*
X295101Y45827D01*
X-35179Y179471D02*
X-26299Y170591D01*
D94*
X19213Y24291D02*
D03*
D98*
X541890Y374016D02*
D03*
Y324016D02*
D03*
Y355709D02*
D03*
Y305709D02*
D03*
D99*
X187466Y300078D02*
D03*
X265295Y201004D02*
D03*
X326142Y86378D02*
D03*
X324771Y116897D02*
D03*
X318268Y104055D02*
D03*
X51575Y294291D02*
D03*
X355906Y164567D02*
D03*
X289370Y129921D02*
D03*
X309842Y23720D02*
D03*
X142913Y66831D02*
D03*
X95276Y167362D02*
D03*
X-7874Y133071D02*
D03*
X24016Y154724D02*
D03*
X-40780Y170000D02*
D03*
X460669Y18425D02*
D03*
X445315Y311142D02*
D03*
X441890Y313819D02*
D03*
X421063Y311653D02*
D03*
X433583Y313032D02*
D03*
X413150Y314252D02*
D03*
X409567Y314291D02*
D03*
X432421Y202126D02*
D03*
X417402Y200512D02*
D03*
X431142Y269252D02*
D03*
X183976Y129488D02*
D03*
X395276Y278465D02*
D03*
X426968Y268819D02*
D03*
X399134Y81415D02*
D03*
X308150Y312835D02*
D03*
X310118Y314646D02*
D03*
X313150Y316201D02*
D03*
X224843Y330925D02*
D03*
X235984Y336043D02*
D03*
X86550Y209406D02*
D03*
X348777Y207956D02*
D03*
X276181Y243921D02*
D03*
X277011Y238940D02*
D03*
X-40780Y157362D02*
D03*
X-6693Y127638D02*
D03*
X425610Y87687D02*
D03*
X333032Y166535D02*
D03*
X149843Y97284D02*
D03*
X422008Y285630D02*
D03*
X147087Y14961D02*
D03*
X166588Y170362D02*
D03*
X-40780Y116378D02*
D03*
Y131929D02*
D03*
Y141575D02*
D03*
Y151024D02*
D03*
Y163701D02*
D03*
Y176339D02*
D03*
Y182598D02*
D03*
Y207835D02*
D03*
Y201614D02*
D03*
Y214173D02*
D03*
Y220236D02*
D03*
Y226850D02*
D03*
Y232992D02*
D03*
Y239449D02*
D03*
Y245590D02*
D03*
Y251969D02*
D03*
Y258228D02*
D03*
Y264488D02*
D03*
Y270821D02*
D03*
Y277130D02*
D03*
X-40778Y280279D02*
D03*
X149265Y224475D02*
D03*
X148110Y266890D02*
D03*
X96176Y50827D02*
D03*
X330067Y256908D02*
D03*
X165387Y275466D02*
D03*
X441024Y32362D02*
D03*
X357874Y25630D02*
D03*
X-34843Y254803D02*
D03*
X382126Y158937D02*
D03*
X359685Y109882D02*
D03*
X359606Y184331D02*
D03*
X320276Y194764D02*
D03*
X323858Y35591D02*
D03*
X393937Y96260D02*
D03*
X354702Y78386D02*
D03*
X209331Y257913D02*
D03*
X409646Y269882D02*
D03*
X237835Y86221D02*
D03*
X187913Y80118D02*
D03*
X303189Y94488D02*
D03*
X361179Y91088D02*
D03*
X128465Y5827D02*
D03*
X194095Y267047D02*
D03*
X160515Y175500D02*
D03*
X162874Y154291D02*
D03*
X187520Y249724D02*
D03*
X92480Y213898D02*
D03*
X224882Y371693D02*
D03*
X317992Y187677D02*
D03*
X361674Y253049D02*
D03*
X359597Y240845D02*
D03*
X357953Y174724D02*
D03*
X226343Y170584D02*
D03*
X216024Y275945D02*
D03*
X317992Y185000D02*
D03*
X277698Y249095D02*
D03*
X200068Y307943D02*
D03*
X211338Y263701D02*
D03*
X324764Y166538D02*
D03*
X265236Y209729D02*
D03*
X107278Y167530D02*
D03*
X206102Y209921D02*
D03*
X173583Y210866D02*
D03*
X321920Y173549D02*
D03*
X391929Y152165D02*
D03*
X139173Y266535D02*
D03*
X113819Y269213D02*
D03*
X20748Y230945D02*
D03*
X335161Y159835D02*
D03*
X333819Y163037D02*
D03*
X414291Y160945D02*
D03*
X-35179Y179471D02*
D03*
X83465Y117323D02*
D03*
X96102Y120669D02*
D03*
X321535Y86142D02*
D03*
X413533Y94262D02*
D03*
X338149Y86292D02*
D03*
X309817Y48557D02*
D03*
X312835Y23386D02*
D03*
X318347Y23465D02*
D03*
X95157Y295590D02*
D03*
X207165Y154646D02*
D03*
X51260Y165866D02*
D03*
X133307Y46890D02*
D03*
X146102Y44370D02*
D03*
X135118Y36811D02*
D03*
X182480Y40827D02*
D03*
X115157Y221614D02*
D03*
X130103Y45590D02*
D03*
X118696Y18934D02*
D03*
X174640Y18658D02*
D03*
X185716D02*
D03*
X164089Y53068D02*
D03*
X208192Y89603D02*
D03*
X215539Y93016D02*
D03*
X247751Y60745D02*
D03*
X255664Y62832D02*
D03*
X105745Y49761D02*
D03*
X6373Y213344D02*
D03*
X6333Y217123D02*
D03*
X36850Y379567D02*
D03*
X28780D02*
D03*
X21063D02*
D03*
X188110Y160709D02*
D03*
X117618Y198327D02*
D03*
X31142Y209646D02*
D03*
X309252Y45396D02*
D03*
X110748Y101535D02*
D03*
X150709Y116811D02*
D03*
X140261Y97416D02*
D03*
X113228Y206968D02*
D03*
X124449Y237598D02*
D03*
X389567Y13150D02*
D03*
X437795Y8701D02*
D03*
X440984Y98583D02*
D03*
Y165512D02*
D03*
X403858Y151614D02*
D03*
X440709Y216575D02*
D03*
X455630Y289488D02*
D03*
X73110Y5945D02*
D03*
X124055Y75866D02*
D03*
X125787Y128976D02*
D03*
X130496Y133740D02*
D03*
X152441Y163858D02*
D03*
X138779Y160236D02*
D03*
X109921Y164606D02*
D03*
X124213Y191654D02*
D03*
X110315Y211929D02*
D03*
X148504Y204173D02*
D03*
X139409Y204095D02*
D03*
X149370Y284646D02*
D03*
X121102Y298031D02*
D03*
X148150Y329173D02*
D03*
X139252Y329449D02*
D03*
X149488Y347126D02*
D03*
X109361Y334231D02*
D03*
X124400Y361160D02*
D03*
X216881Y268720D02*
D03*
X251211Y223405D02*
D03*
X221206Y223602D02*
D03*
X221172Y174349D02*
D03*
X255266Y116003D02*
D03*
X225975Y116239D02*
D03*
X221054Y73326D02*
D03*
X251133Y21200D02*
D03*
X221211Y21082D02*
D03*
X187235Y28877D02*
D03*
X292756Y51929D02*
D03*
X403268Y84567D02*
D03*
X403780Y18701D02*
D03*
X357716Y13110D02*
D03*
X312520Y103976D02*
D03*
X307402Y104055D02*
D03*
X321654Y166969D02*
D03*
X323150Y245433D02*
D03*
X317992Y245669D02*
D03*
X285394Y207402D02*
D03*
X355315Y39981D02*
D03*
Y45099D02*
D03*
X352871Y47621D02*
D03*
X352835Y42540D02*
D03*
X352835Y37028D02*
D03*
X354764Y121221D02*
D03*
Y126339D02*
D03*
X352320Y128861D02*
D03*
X352283Y123780D02*
D03*
X352284Y118268D02*
D03*
X351220Y200315D02*
D03*
Y205433D02*
D03*
X348740Y202874D02*
D03*
X348741Y197362D02*
D03*
X207087Y358819D02*
D03*
X162244Y357323D02*
D03*
X171299Y320512D02*
D03*
X50551Y271693D02*
D03*
X124488Y305000D02*
D03*
X125157Y178701D02*
D03*
X51102Y143819D02*
D03*
X124803Y60630D02*
D03*
X113327Y144469D02*
D03*
X50866Y27362D02*
D03*
X50945Y50079D02*
D03*
X221496Y288976D02*
D03*
X177520Y289134D02*
D03*
X181614Y305197D02*
D03*
X113189Y28150D02*
D03*
X433779Y77992D02*
D03*
X437756Y141260D02*
D03*
X25669Y220945D02*
D03*
X255906Y107126D02*
D03*
X176575Y203543D02*
D03*
X117362Y85079D02*
D03*
X337362Y79961D02*
D03*
X121142Y249409D02*
D03*
X383838Y98366D02*
D03*
X236221Y140906D02*
D03*
X385649Y104144D02*
D03*
X383858Y18386D02*
D03*
X384921Y25335D02*
D03*
X337771Y83152D02*
D03*
X165118Y282165D02*
D03*
X41535Y174331D02*
D03*
X242205Y137362D02*
D03*
X240709Y168543D02*
D03*
X385649Y101032D02*
D03*
X384277Y20807D02*
D03*
X-36230Y257117D02*
D03*
X-4882Y258898D02*
D03*
X-7953Y256890D02*
D03*
M02*
