G04*
G04 #@! TF.GenerationSoftware,Altium Limited,Altium Designer,24.1.2 (44)*
G04*
G04 Layer_Physical_Order=2*
G04 Layer_Color=36540*
%FSLAX25Y25*%
%MOIN*%
G70*
G04*
G04 #@! TF.SameCoordinates,304B12A8-C408-4571-83BD-6C55B5D49174*
G04*
G04*
G04 #@! TF.FilePolarity,Positive*
G04*
G01*
G75*
%ADD10C,0.00984*%
%ADD13C,0.00787*%
%ADD86C,0.03937*%
%ADD88C,0.01968*%
%ADD90C,0.01772*%
%ADD91C,0.01181*%
%ADD93C,0.13287*%
%ADD98C,0.12598*%
%ADD99C,0.01968*%
G36*
X167165Y392339D02*
Y276079D01*
X166665Y275980D01*
X166555Y276246D01*
X166167Y276634D01*
X165661Y276844D01*
X165113D01*
X164606Y276634D01*
X164219Y276246D01*
X164009Y275740D01*
Y275191D01*
X164219Y274685D01*
X164606Y274297D01*
X165113Y274088D01*
X165661D01*
X166167Y274297D01*
X166555Y274685D01*
X166665Y274952D01*
X167165Y274852D01*
Y266732D01*
X192734D01*
X192926Y266267D01*
X193314Y265879D01*
X193820Y265669D01*
X194369D01*
X194875Y265879D01*
X195263Y266267D01*
X195456Y266732D01*
X313189D01*
Y265908D01*
X313549Y265040D01*
X314213Y264375D01*
X315081Y264016D01*
X316021D01*
X316889Y264375D01*
X317554Y265040D01*
X317913Y265908D01*
Y266732D01*
X320354D01*
Y265908D01*
X320714Y265040D01*
X321378Y264375D01*
X322247Y264016D01*
X323186D01*
X324055Y264375D01*
X324719Y265040D01*
X325079Y265908D01*
Y266732D01*
X363583D01*
X363819Y266634D01*
Y240551D01*
X360988D01*
X360975Y240571D01*
Y241119D01*
X360765Y241626D01*
X360378Y242014D01*
X359871Y242223D01*
X359323D01*
X358817Y242014D01*
X358429Y241626D01*
X358219Y241119D01*
Y240571D01*
X358206Y240551D01*
X352908D01*
X352701Y241051D01*
X352834Y241184D01*
X353043Y241690D01*
Y242238D01*
X352834Y242745D01*
X352446Y243133D01*
X352102Y243275D01*
X352080Y243804D01*
X352423Y243947D01*
X352811Y244334D01*
X353021Y244841D01*
Y245389D01*
X352811Y245895D01*
X352423Y246283D01*
X351917Y246493D01*
X351369D01*
X350862Y246283D01*
X350475Y245895D01*
X350265Y245389D01*
Y244841D01*
X350475Y244334D01*
X350862Y243947D01*
X351205Y243804D01*
X351228Y243275D01*
X350885Y243133D01*
X350497Y242745D01*
X350287Y242238D01*
Y241690D01*
X350497Y241184D01*
X350630Y241051D01*
X350423Y240551D01*
X308503D01*
X307638Y239686D01*
Y217366D01*
X307176Y217174D01*
X278741Y245609D01*
Y248189D01*
X278866Y248314D01*
X279076Y248820D01*
Y249369D01*
X278866Y249875D01*
X278478Y250263D01*
X277972Y250472D01*
X277424D01*
X276917Y250263D01*
X276529Y249875D01*
X276320Y249369D01*
Y248820D01*
X276529Y248314D01*
X276654Y248189D01*
Y245432D01*
X276455Y245299D01*
X275907D01*
X275401Y245090D01*
X275013Y244702D01*
X274803Y244195D01*
Y243647D01*
X275013Y243141D01*
X275401Y242753D01*
X275907Y242543D01*
X276083D01*
X277831Y240795D01*
X277802Y240117D01*
X277791Y240108D01*
X277285Y240318D01*
X276737D01*
X276230Y240108D01*
X275843Y239721D01*
X275633Y239214D01*
Y238666D01*
X275843Y238159D01*
X276230Y237772D01*
X276429Y237689D01*
X276330Y237189D01*
X237998D01*
X237676Y237323D01*
X237127D01*
X236621Y237113D01*
X236233Y236725D01*
X236024Y236219D01*
Y235671D01*
X236101Y235485D01*
X235767Y234984D01*
X234022D01*
X233699Y235118D01*
X233151D01*
X232645Y234908D01*
X232257Y234521D01*
X232047Y234014D01*
Y233466D01*
X232257Y232960D01*
X232645Y232572D01*
X233151Y232362D01*
X233699D01*
X234022Y232496D01*
X270934D01*
X271034Y231996D01*
X270670Y231845D01*
X270005Y231181D01*
X269646Y230312D01*
Y229373D01*
X270005Y228504D01*
X270670Y227840D01*
X271538Y227480D01*
X272478D01*
X273346Y227840D01*
X274010Y228504D01*
X274370Y229373D01*
Y230312D01*
X274010Y231181D01*
X273346Y231845D01*
X272982Y231996D01*
X273082Y232496D01*
X276313D01*
X280686Y228123D01*
X303791Y205018D01*
X303924Y204696D01*
X304312Y204308D01*
X304818Y204098D01*
X305366D01*
X305873Y204308D01*
X306260Y204696D01*
X306470Y205202D01*
Y205750D01*
X306260Y206257D01*
X305873Y206644D01*
X305550Y206778D01*
X304916Y207413D01*
X305079Y207957D01*
X305386Y208084D01*
X305774Y208472D01*
X305984Y208978D01*
Y209526D01*
X305774Y210033D01*
X305386Y210421D01*
X305064Y210554D01*
X278793Y236825D01*
X278390Y237094D01*
X277991Y237174D01*
X277868Y237392D01*
X277801Y237689D01*
X278009Y237896D01*
X278935D01*
X307638Y209193D01*
Y191220D01*
X325611D01*
X337097Y179735D01*
X337097Y179734D01*
X337435Y179508D01*
X337835Y179429D01*
X337835Y179429D01*
X354527D01*
X354528Y179429D01*
X354927Y179508D01*
X355265Y179734D01*
X356775Y181244D01*
X358401D01*
X358679Y180828D01*
X358661Y180786D01*
Y180238D01*
X358871Y179731D01*
X359259Y179344D01*
X359765Y179134D01*
X360314D01*
X360820Y179344D01*
X360884Y179408D01*
X363819D01*
Y167559D01*
X352299D01*
X351851Y167745D01*
X351302D01*
X350854Y167559D01*
X342158Y167559D01*
X339185Y170532D01*
X338782Y170801D01*
X338305Y170896D01*
X328809D01*
X328581Y170990D01*
X328033D01*
X327527Y170781D01*
X327139Y170393D01*
X326929Y169887D01*
Y169338D01*
X327139Y168832D01*
X327527Y168444D01*
X328033Y168235D01*
X328581D01*
X328999Y168407D01*
X332743D01*
X332757Y167913D01*
X332251Y167704D01*
X332106Y167559D01*
X329505D01*
X325691D01*
X325544Y167706D01*
X325038Y167916D01*
X324490D01*
X323983Y167706D01*
X323836Y167559D01*
X322900D01*
X322822Y167749D01*
X322434Y168137D01*
X321928Y168347D01*
X321379D01*
X320873Y168137D01*
X320485Y167749D01*
X320304Y167312D01*
X312992Y160000D01*
Y146365D01*
X312898Y146271D01*
Y110000D01*
X358307D01*
Y109608D01*
X358517Y109101D01*
X358905Y108714D01*
X359411Y108504D01*
X359959D01*
X360466Y108714D01*
X360853Y109101D01*
X361063Y109608D01*
Y110000D01*
X363740D01*
X363819Y109921D01*
Y94542D01*
X363319Y94335D01*
X362073Y95581D01*
X361571Y95916D01*
X360980Y96034D01*
X303189D01*
X302598Y95916D01*
X302096Y95581D01*
X301761Y95080D01*
X301643Y94488D01*
X301761Y93897D01*
X302096Y93395D01*
X302598Y93060D01*
X303189Y92943D01*
X360092D01*
X360274Y92730D01*
X360398Y92256D01*
X360011Y91868D01*
X359801Y91362D01*
Y90814D01*
X360011Y90307D01*
X360398Y89920D01*
X360905Y89710D01*
X361453D01*
X361959Y89920D01*
X362347Y90307D01*
X362399Y90431D01*
X362561Y90813D01*
X363041Y90775D01*
X363175Y90748D01*
X363819D01*
Y79961D01*
X356972D01*
X356668Y80461D01*
X356772Y80710D01*
Y81258D01*
X356562Y81765D01*
X356234Y82092D01*
X356230Y82424D01*
X356276Y82651D01*
X356664Y83039D01*
X356873Y83545D01*
Y84093D01*
X356664Y84600D01*
X356276Y84987D01*
X355770Y85197D01*
X355222D01*
X354715Y84987D01*
X354327Y84600D01*
X354208Y84312D01*
X354197Y84295D01*
X354193Y84276D01*
X354118Y84093D01*
Y83896D01*
X354102Y83819D01*
X354118Y83742D01*
Y83545D01*
X354193Y83363D01*
X354197Y83343D01*
X354208Y83326D01*
X354327Y83039D01*
X354655Y82711D01*
X354659Y82379D01*
X354613Y82152D01*
X354225Y81765D01*
X354016Y81258D01*
Y80710D01*
X354119Y80461D01*
X353815Y79961D01*
X338740D01*
Y80235D01*
X338530Y80741D01*
X338143Y81129D01*
X337793Y81274D01*
X337892Y81774D01*
X338045D01*
X338552Y81984D01*
X338939Y82371D01*
X339149Y82877D01*
Y83426D01*
X338939Y83932D01*
X338552Y84320D01*
X338323Y84414D01*
X338423Y84914D01*
X338423D01*
X338930Y85124D01*
X339317Y85512D01*
X339527Y86018D01*
Y86567D01*
X339317Y87073D01*
X338930Y87461D01*
X338423Y87670D01*
X337875D01*
X337368Y87461D01*
X336981Y87073D01*
X336771Y86567D01*
Y86018D01*
X336981Y85512D01*
X337368Y85124D01*
X337597Y85030D01*
X337497Y84530D01*
X337497D01*
X336991Y84320D01*
X336603Y83932D01*
X336393Y83426D01*
Y82877D01*
X336603Y82371D01*
X336991Y81984D01*
X337341Y81839D01*
X337241Y81339D01*
X337088D01*
X336582Y81129D01*
X336194Y80741D01*
X335984Y80235D01*
Y79961D01*
X311457D01*
Y49504D01*
X311095Y49376D01*
X310957Y49365D01*
X310597Y49725D01*
X310091Y49935D01*
X309542D01*
X309036Y49725D01*
X308648Y49337D01*
X308439Y48831D01*
Y48283D01*
X308648Y47776D01*
X309036Y47388D01*
X309312Y47274D01*
X309213Y46774D01*
X308978D01*
X308471Y46564D01*
X308084Y46177D01*
X307874Y45670D01*
Y45122D01*
X308084Y44616D01*
X308471Y44228D01*
X308978Y44018D01*
X309526D01*
X310033Y44228D01*
X310420Y44616D01*
X310630Y45122D01*
Y45670D01*
X310420Y46177D01*
X310033Y46564D01*
X309756Y46679D01*
X309856Y47179D01*
X310091D01*
X310597Y47388D01*
X310957Y47748D01*
X311095Y47737D01*
X311457Y47609D01*
Y27736D01*
X396229D01*
X396703Y28210D01*
X397165Y28019D01*
Y1020D01*
X11811Y1020D01*
X11104D01*
X9701Y1204D01*
X8335Y1570D01*
X7028Y2112D01*
X5803Y2819D01*
X4680Y3680D01*
X3680Y4680D01*
X2819Y5803D01*
X2112Y7028D01*
X1570Y8335D01*
X1204Y9701D01*
X1020Y11104D01*
X1020Y11811D01*
X1020Y99508D01*
X942Y99898D01*
X721Y100229D01*
X390Y100450D01*
X115Y100505D01*
X108Y111950D01*
X164Y112006D01*
X374Y112512D01*
Y113060D01*
X362Y113090D01*
X646Y113710D01*
X770Y113761D01*
X1158Y114149D01*
X1272Y114424D01*
X1664Y114398D01*
X1785Y114358D01*
X1981Y113885D01*
X2369Y113497D01*
X2875Y113287D01*
X3424D01*
X3930Y113497D01*
X4318Y113885D01*
X4528Y114391D01*
Y114939D01*
X4318Y115446D01*
X3930Y115833D01*
X3424Y116043D01*
X2875D01*
X2369Y115833D01*
X1981Y115446D01*
X1867Y115171D01*
X1475Y115197D01*
X1354Y115237D01*
X1158Y115710D01*
X770Y116098D01*
X264Y116308D01*
X106D01*
X80Y159701D01*
X433Y160055D01*
X13661D01*
X14138Y160150D01*
X14541Y160419D01*
X17151Y163029D01*
X17473Y163163D01*
X17861Y163550D01*
X18071Y164057D01*
Y164605D01*
X17861Y165111D01*
X17473Y165499D01*
X16967Y165709D01*
X16419D01*
X15912Y165499D01*
X15525Y165111D01*
X15391Y164789D01*
X13146Y162544D01*
X78D01*
X55Y200730D01*
X0Y293174D01*
X390Y293251D01*
X721Y293472D01*
X942Y293803D01*
X1020Y294193D01*
Y381890D01*
X1020Y382597D01*
X1204Y384000D01*
X1570Y385366D01*
X2112Y386673D01*
X2819Y387898D01*
X3680Y389020D01*
X4681Y390021D01*
X5803Y390882D01*
X7028Y391589D01*
X8335Y392130D01*
X9701Y392497D01*
X11104Y392681D01*
X11811Y392681D01*
X11811Y392681D01*
X11811Y392681D01*
X166812Y392692D01*
X167165Y392339D01*
D02*
G37*
G36*
X545972Y392535D02*
X547338Y392169D01*
X548645Y391628D01*
X549870Y390920D01*
X550993Y390059D01*
X551993Y389059D01*
X552854Y387937D01*
X553561Y386712D01*
X554103Y385405D01*
X554469Y384038D01*
X554654Y382636D01*
Y381928D01*
X554654Y230584D01*
X554188Y230118D01*
X482992D01*
Y230772D01*
X464552Y249212D01*
X439488D01*
Y230236D01*
X439606Y230118D01*
Y1020D01*
X399672D01*
X399172Y1020D01*
Y27356D01*
X401292Y29475D01*
X426454D01*
X426702Y29104D01*
X429497Y26310D01*
Y24434D01*
X428997Y24227D01*
X428199Y25025D01*
Y25130D01*
X427989Y25636D01*
X427601Y26024D01*
X427095Y26234D01*
X426547D01*
X426040Y26024D01*
X425653Y25636D01*
X425443Y25130D01*
Y24582D01*
X425653Y24075D01*
X425892Y23836D01*
X425941Y23763D01*
X426094Y23610D01*
X426041Y23366D01*
X425916Y23081D01*
X425479Y22900D01*
X425092Y22513D01*
X424882Y22006D01*
Y21458D01*
X425092Y20952D01*
X425479Y20564D01*
X425986Y20354D01*
X426534D01*
X426779Y20456D01*
X427279Y20150D01*
Y17644D01*
X427146Y17321D01*
Y16773D01*
X427356Y16267D01*
X427743Y15879D01*
X428250Y15669D01*
X428798D01*
X429304Y15879D01*
X429692Y16267D01*
X429902Y16773D01*
Y17052D01*
X430402Y17320D01*
X430451Y17287D01*
X431042Y17169D01*
X431634Y17287D01*
X432135Y17622D01*
X432470Y18123D01*
X432588Y18715D01*
Y26950D01*
X432470Y27541D01*
X432135Y28043D01*
X429341Y30837D01*
Y77793D01*
X429439Y78288D01*
Y150373D01*
X429459Y150472D01*
Y191171D01*
X431250Y192962D01*
X431585Y193464D01*
X431703Y194055D01*
Y265630D01*
X431585Y266221D01*
X431250Y266723D01*
X428099Y269874D01*
X427598Y270209D01*
X427006Y270327D01*
X426415Y270209D01*
X425913Y269874D01*
X425578Y269373D01*
X425461Y268781D01*
X425578Y268190D01*
X425913Y267688D01*
X428612Y264990D01*
Y263801D01*
X428150Y263610D01*
X418804Y272956D01*
Y275309D01*
X418937Y275631D01*
Y276180D01*
X418727Y276686D01*
X418340Y277074D01*
X417833Y277283D01*
X417285D01*
X416779Y277074D01*
X416391Y276686D01*
X416181Y276180D01*
Y275631D01*
X416315Y275309D01*
Y272441D01*
X416409Y271965D01*
X416679Y271561D01*
X426511Y261729D01*
Y208495D01*
X426096Y208217D01*
X426061Y208231D01*
X425513D01*
X425007Y208021D01*
X424619Y207634D01*
X424409Y207127D01*
Y206579D01*
X424619Y206072D01*
X424744Y205948D01*
Y200568D01*
X422745Y198569D01*
X422518Y198230D01*
X422439Y197831D01*
X422439Y197831D01*
Y194906D01*
X421977Y194715D01*
X399078Y217613D01*
Y219503D01*
X386747Y231834D01*
X365023D01*
Y238988D01*
X365238Y239132D01*
X365673Y239783D01*
X365826Y240551D01*
Y266634D01*
X365673Y267403D01*
X365238Y268054D01*
X364587Y268489D01*
X364351Y268587D01*
X363583Y268739D01*
X325079D01*
X324311Y268587D01*
X324023Y268394D01*
X323186Y268740D01*
X322247D01*
X321411Y268394D01*
X321122Y268587D01*
X320354Y268739D01*
X317913D01*
X317145Y268587D01*
X316857Y268394D01*
X316021Y268740D01*
X315081D01*
X314245Y268394D01*
X313957Y268587D01*
X313189Y268739D01*
X195456D01*
X194687Y268587D01*
X194095Y268190D01*
X193501Y268587D01*
X192734Y268739D01*
X169172D01*
Y272124D01*
X169411Y272284D01*
X169959D01*
X170466Y272493D01*
X170853Y272881D01*
X171063Y273387D01*
Y273936D01*
X170853Y274442D01*
X170466Y274830D01*
X169959Y275039D01*
X169411D01*
X169134Y275244D01*
X169058Y275426D01*
X169050Y275466D01*
X169058Y275505D01*
X169134Y275687D01*
Y275885D01*
X169172Y276079D01*
Y392339D01*
X169645Y392348D01*
X263317Y392676D01*
X270175Y392700D01*
X543862Y392720D01*
X544569D01*
X545972Y392535D01*
D02*
G37*
G36*
X427620Y203642D02*
X428168D01*
X428196Y203654D01*
X428612Y203376D01*
Y194695D01*
X426622Y192705D01*
X426287Y192204D01*
X426169Y191613D01*
X426264Y191134D01*
X425864Y190844D01*
X425852Y190839D01*
X424526Y192165D01*
Y193035D01*
X425026Y193369D01*
X425177Y193307D01*
X425725D01*
X426232Y193517D01*
X426619Y193904D01*
X426829Y194411D01*
Y194959D01*
X426619Y195466D01*
X426232Y195853D01*
X425725Y196063D01*
X425177D01*
X425026Y196001D01*
X424526Y196335D01*
Y197398D01*
X426525Y199397D01*
X426752Y199736D01*
X426831Y200135D01*
X426831Y200135D01*
Y203480D01*
X427331Y203761D01*
X427620Y203642D01*
D02*
G37*
G36*
X363819Y190000D02*
Y188248D01*
X336102D01*
X333592Y190759D01*
X333783Y191220D01*
X362598D01*
X363819Y190000D01*
D02*
G37*
G36*
X485236Y217441D02*
X514173Y217441D01*
Y187402D01*
X473504D01*
X449409Y211496D01*
Y232008D01*
X470669D01*
X485236Y217441D01*
D02*
G37*
G36*
X359217Y185661D02*
X358826Y185499D01*
X358438Y185111D01*
X358228Y184605D01*
Y184057D01*
X358322Y183831D01*
X358004Y183331D01*
X356343D01*
X356343Y183331D01*
X356329Y183328D01*
X355829Y183621D01*
X355619Y184127D01*
X355232Y184515D01*
X354725Y184724D01*
X354177D01*
X353671Y184515D01*
X353546Y184390D01*
X337733D01*
X336424Y185699D01*
X336615Y186161D01*
X359118D01*
X359217Y185661D01*
D02*
G37*
G36*
X363604Y230415D02*
X364255Y229980D01*
X365023Y229827D01*
X385291D01*
X397071Y218047D01*
Y217613D01*
X397224Y216845D01*
X397659Y216194D01*
X418583Y195270D01*
Y166890D01*
X384587D01*
Y181161D01*
X376339Y189409D01*
X365826D01*
Y190000D01*
X365673Y190768D01*
X365238Y191419D01*
X364018Y192640D01*
X363424Y193036D01*
Y212402D01*
X350866D01*
Y230630D01*
X363460D01*
X363604Y230415D01*
D02*
G37*
G36*
X486338Y170591D02*
X486208Y170108D01*
X485929Y170034D01*
X484967Y169478D01*
X484181Y168693D01*
X483626Y167731D01*
X483338Y166658D01*
Y165547D01*
X483626Y164474D01*
X484181Y163512D01*
X484967Y162727D01*
X485929Y162171D01*
X487002Y161884D01*
X488112D01*
X489185Y162171D01*
X490147Y162727D01*
X490933Y163512D01*
X491488Y164474D01*
X491563Y164753D01*
X492046Y164883D01*
X496024Y160906D01*
X514173D01*
Y131063D01*
X478268D01*
X453780Y156575D01*
Y195709D01*
X461220D01*
X486338Y170591D01*
D02*
G37*
G36*
X376083Y146063D02*
X392126D01*
X406575Y131614D01*
X418622D01*
Y100315D01*
X387294D01*
X387016Y100731D01*
X387028Y100758D01*
Y101306D01*
X386818Y101812D01*
X386430Y102200D01*
X386280Y102262D01*
Y102913D01*
X386430Y102976D01*
X386818Y103364D01*
X387028Y103870D01*
Y104418D01*
X386818Y104925D01*
X386430Y105312D01*
X385924Y105522D01*
X385423D01*
X380228Y110716D01*
X376470Y110716D01*
X367402D01*
Y133268D01*
X354449D01*
Y151654D01*
X370492D01*
X376083Y146063D01*
D02*
G37*
G36*
X485906Y104646D02*
X514173Y104646D01*
Y74921D01*
X467585D01*
X453780Y88788D01*
Y128976D01*
X461575D01*
X485906Y104646D01*
D02*
G37*
G36*
X373149Y65118D02*
X418583D01*
Y31482D01*
X401292D01*
X400651Y31355D01*
X400524Y31330D01*
X399873Y30894D01*
X399372Y30394D01*
X367165D01*
Y52165D01*
X354252Y52165D01*
Y70512D01*
X355669Y71929D01*
X366339D01*
X373149Y65118D01*
D02*
G37*
G36*
X484291Y49724D02*
X485666D01*
X485929Y49573D01*
X487002Y49285D01*
X488112D01*
X489185Y49573D01*
X489448Y49724D01*
X514173D01*
Y17205D01*
X489585D01*
X489185Y17435D01*
X488112Y17723D01*
X487002D01*
X485929Y17435D01*
X485530Y17205D01*
X460039D01*
X453780Y23465D01*
Y63150D01*
X470866D01*
X484291Y49724D01*
D02*
G37*
%LPC*%
G36*
X37124Y380945D02*
X36576D01*
X36070Y380735D01*
X35682Y380347D01*
X35472Y379841D01*
Y379293D01*
X35682Y378786D01*
X36070Y378399D01*
X36576Y378189D01*
X37124D01*
X37631Y378399D01*
X38019Y378786D01*
X38228Y379293D01*
Y379841D01*
X38019Y380347D01*
X37631Y380735D01*
X37124Y380945D01*
D02*
G37*
G36*
X29054D02*
X28505D01*
X27999Y380735D01*
X27611Y380347D01*
X27402Y379841D01*
Y379293D01*
X27611Y378786D01*
X27999Y378399D01*
X28505Y378189D01*
X29054D01*
X29560Y378399D01*
X29948Y378786D01*
X30158Y379293D01*
Y379841D01*
X29948Y380347D01*
X29560Y380735D01*
X29054Y380945D01*
D02*
G37*
G36*
X21337D02*
X20789D01*
X20282Y380735D01*
X19895Y380347D01*
X19685Y379841D01*
Y379293D01*
X19895Y378786D01*
X20282Y378399D01*
X20789Y378189D01*
X21337D01*
X21844Y378399D01*
X22231Y378786D01*
X22441Y379293D01*
Y379841D01*
X22231Y380347D01*
X21844Y380735D01*
X21337Y380945D01*
D02*
G37*
G36*
X57950Y371496D02*
X57010D01*
X56142Y371136D01*
X55478Y370472D01*
X55118Y369604D01*
Y368664D01*
X55478Y367796D01*
X56142Y367131D01*
X57010Y366772D01*
X57950D01*
X58818Y367131D01*
X59483Y367796D01*
X59842Y368664D01*
Y369604D01*
X59483Y370472D01*
X58818Y371136D01*
X57950Y371496D01*
D02*
G37*
G36*
X138186Y371339D02*
X137247D01*
X136379Y370979D01*
X135714Y370315D01*
X135354Y369446D01*
Y368507D01*
X135714Y367638D01*
X136379Y366974D01*
X137247Y366614D01*
X138186D01*
X139055Y366974D01*
X139719Y367638D01*
X140079Y368507D01*
Y369446D01*
X139719Y370315D01*
X139055Y370979D01*
X138186Y371339D01*
D02*
G37*
G36*
X124674Y362538D02*
X124126D01*
X123620Y362329D01*
X123232Y361941D01*
X123022Y361435D01*
Y360886D01*
X123232Y360380D01*
X123620Y359992D01*
X124126Y359783D01*
X124674D01*
X125181Y359992D01*
X125568Y360380D01*
X125778Y360886D01*
Y361435D01*
X125568Y361941D01*
X125181Y362329D01*
X124674Y362538D01*
D02*
G37*
G36*
X162518Y358701D02*
X161970D01*
X161463Y358491D01*
X161076Y358103D01*
X160866Y357597D01*
Y357049D01*
X161076Y356542D01*
X161463Y356155D01*
X161970Y355945D01*
X162518D01*
X163025Y356155D01*
X163412Y356542D01*
X163622Y357049D01*
Y357597D01*
X163412Y358103D01*
X163025Y358491D01*
X162518Y358701D01*
D02*
G37*
G36*
X151368Y352205D02*
X150820D01*
X150313Y351995D01*
X149925Y351607D01*
X149716Y351101D01*
Y350553D01*
X149925Y350046D01*
X150313Y349659D01*
X150820Y349449D01*
X151368D01*
X151874Y349659D01*
X152262Y350046D01*
X152472Y350553D01*
Y351101D01*
X152262Y351607D01*
X151874Y351995D01*
X151368Y352205D01*
D02*
G37*
G36*
X149762Y348504D02*
X149214D01*
X148708Y348294D01*
X148320Y347906D01*
X148110Y347400D01*
Y346852D01*
X148320Y346345D01*
X148708Y345958D01*
X149214Y345748D01*
X149762D01*
X150269Y345958D01*
X150656Y346345D01*
X150866Y346852D01*
Y347400D01*
X150656Y347906D01*
X150269Y348294D01*
X149762Y348504D01*
D02*
G37*
G36*
X36967Y346102D02*
X36419D01*
X35912Y345893D01*
X35525Y345505D01*
X35315Y344999D01*
Y344450D01*
X35525Y343944D01*
X35912Y343556D01*
X36419Y343347D01*
X36967D01*
X37473Y343556D01*
X37861Y343944D01*
X38071Y344450D01*
Y344999D01*
X37861Y345505D01*
X37473Y345893D01*
X36967Y346102D01*
D02*
G37*
G36*
X124817Y344341D02*
X124269D01*
X123763Y344131D01*
X123375Y343743D01*
X123165Y343237D01*
Y342689D01*
X123375Y342182D01*
X123763Y341795D01*
X124269Y341585D01*
X124817D01*
X125324Y341795D01*
X125711Y342182D01*
X125921Y342689D01*
Y343237D01*
X125711Y343743D01*
X125324Y344131D01*
X124817Y344341D01*
D02*
G37*
G36*
X109635Y335609D02*
X109087D01*
X108580Y335400D01*
X108193Y335012D01*
X107983Y334506D01*
Y333957D01*
X108193Y333451D01*
X108580Y333063D01*
X109087Y332854D01*
X109635D01*
X110142Y333063D01*
X110529Y333451D01*
X110739Y333957D01*
Y334506D01*
X110529Y335012D01*
X110142Y335400D01*
X109635Y335609D01*
D02*
G37*
G36*
X139526Y330827D02*
X138978D01*
X138471Y330617D01*
X138084Y330229D01*
X137874Y329723D01*
Y329175D01*
X138084Y328668D01*
X138471Y328281D01*
X138978Y328071D01*
X139526D01*
X140032Y328281D01*
X140420Y328668D01*
X140630Y329175D01*
Y329723D01*
X140420Y330229D01*
X140032Y330617D01*
X139526Y330827D01*
D02*
G37*
G36*
X148424Y330551D02*
X147875D01*
X147369Y330341D01*
X146981Y329954D01*
X146772Y329447D01*
Y328899D01*
X146981Y328393D01*
X147369Y328005D01*
X147875Y327795D01*
X148424D01*
X148930Y328005D01*
X149318Y328393D01*
X149528Y328899D01*
Y329447D01*
X149318Y329954D01*
X148930Y330341D01*
X148424Y330551D01*
D02*
G37*
G36*
X107412Y329419D02*
X99833D01*
Y321841D01*
X107412D01*
Y329419D01*
D02*
G37*
G36*
X75174Y316928D02*
X74626D01*
X74120Y316718D01*
X73732Y316330D01*
X73522Y315824D01*
Y315276D01*
X73732Y314769D01*
X74120Y314382D01*
X74626Y314172D01*
X74930D01*
X75179Y314162D01*
X75392Y313721D01*
Y313605D01*
X75602Y313099D01*
X75990Y312711D01*
X76496Y312501D01*
X77044D01*
X77551Y312711D01*
X77938Y313099D01*
X78148Y313605D01*
Y314154D01*
X77938Y314660D01*
X77551Y315048D01*
X77044Y315257D01*
X76740D01*
X76491Y315267D01*
X76278Y315708D01*
Y315824D01*
X76068Y316330D01*
X75681Y316718D01*
X75174Y316928D01*
D02*
G37*
G36*
X151415Y314134D02*
X150475D01*
X149607Y313774D01*
X148942Y313110D01*
X148583Y312242D01*
Y311302D01*
X148942Y310434D01*
X149607Y309769D01*
X150475Y309409D01*
X151415D01*
X152283Y309769D01*
X152947Y310434D01*
X153307Y311302D01*
Y312242D01*
X152947Y313110D01*
X152283Y313774D01*
X151415Y314134D01*
D02*
G37*
G36*
X124762Y306378D02*
X124214D01*
X123708Y306168D01*
X123320Y305781D01*
X123110Y305274D01*
Y304726D01*
X123320Y304220D01*
X123708Y303832D01*
X124214Y303622D01*
X124762D01*
X125269Y303832D01*
X125656Y304220D01*
X125866Y304726D01*
Y305274D01*
X125656Y305781D01*
X125269Y306168D01*
X124762Y306378D01*
D02*
G37*
G36*
X28109Y300905D02*
X27561D01*
X27054Y300696D01*
X26667Y300308D01*
X26457Y299802D01*
Y299254D01*
X26667Y298747D01*
X27054Y298359D01*
X27561Y298150D01*
X28109D01*
X28615Y298359D01*
X29003Y298747D01*
X29213Y299254D01*
Y299802D01*
X29003Y300308D01*
X28615Y300696D01*
X28109Y300905D01*
D02*
G37*
G36*
X121376Y299410D02*
X120828D01*
X120322Y299200D01*
X119934Y298812D01*
X119724Y298306D01*
Y297757D01*
X119934Y297251D01*
X120322Y296863D01*
X120828Y296654D01*
X121376D01*
X121883Y296863D01*
X122271Y297251D01*
X122480Y297757D01*
Y298306D01*
X122271Y298812D01*
X121883Y299200D01*
X121376Y299410D01*
D02*
G37*
G36*
X95432Y296969D02*
X94883D01*
X94377Y296759D01*
X93989Y296371D01*
X93779Y295865D01*
Y295317D01*
X93989Y294810D01*
X94377Y294422D01*
X94883Y294213D01*
X95432D01*
X95938Y294422D01*
X96326Y294810D01*
X96535Y295317D01*
Y295865D01*
X96326Y296371D01*
X95938Y296759D01*
X95432Y296969D01*
D02*
G37*
G36*
X51849Y295669D02*
X51301D01*
X50794Y295460D01*
X50407Y295072D01*
X50197Y294565D01*
Y294017D01*
X50407Y293511D01*
X50794Y293123D01*
X51301Y292913D01*
X51849D01*
X52355Y293123D01*
X52743Y293511D01*
X52953Y294017D01*
Y294565D01*
X52743Y295072D01*
X52355Y295460D01*
X51849Y295669D01*
D02*
G37*
G36*
X103188Y287402D02*
X102639D01*
X102133Y287192D01*
X101745Y286804D01*
X101535Y286298D01*
Y285750D01*
X101745Y285243D01*
X102133Y284856D01*
X102639Y284646D01*
X103188D01*
X103694Y284856D01*
X104082Y285243D01*
X104291Y285750D01*
Y286298D01*
X104082Y286804D01*
X103694Y287192D01*
X103188Y287402D01*
D02*
G37*
G36*
X149644Y286024D02*
X149096D01*
X148590Y285814D01*
X148202Y285426D01*
X147992Y284920D01*
Y284372D01*
X148202Y283865D01*
X148590Y283477D01*
X149096Y283268D01*
X149644D01*
X150151Y283477D01*
X150538Y283865D01*
X150748Y284372D01*
Y284920D01*
X150538Y285426D01*
X150151Y285814D01*
X149644Y286024D01*
D02*
G37*
G36*
X32139Y287042D02*
X31199D01*
X30331Y286682D01*
X29667Y286018D01*
X29307Y285150D01*
Y284210D01*
X29667Y283342D01*
X30331Y282677D01*
X31199Y282317D01*
X32139D01*
X33007Y282677D01*
X33672Y283342D01*
X34032Y284210D01*
Y285150D01*
X33672Y286018D01*
X33007Y286682D01*
X32139Y287042D01*
D02*
G37*
G36*
X19650Y275415D02*
X19102D01*
X18596Y275205D01*
X18208Y274817D01*
X17998Y274311D01*
Y273762D01*
X18208Y273256D01*
X18596Y272868D01*
X19102Y272659D01*
X19650D01*
X20157Y272868D01*
X20545Y273256D01*
X20754Y273762D01*
Y274311D01*
X20545Y274817D01*
X20157Y275205D01*
X19650Y275415D01*
D02*
G37*
G36*
X50825Y273071D02*
X50277D01*
X49771Y272861D01*
X49383Y272474D01*
X49173Y271967D01*
Y271419D01*
X49383Y270912D01*
X49771Y270525D01*
X50277Y270315D01*
X50825D01*
X51332Y270525D01*
X51719Y270912D01*
X51929Y271419D01*
Y271967D01*
X51719Y272474D01*
X51332Y272861D01*
X50825Y273071D01*
D02*
G37*
G36*
X165392Y283543D02*
X164844D01*
X164338Y283334D01*
X163950Y282946D01*
X163740Y282439D01*
Y282263D01*
X152127Y270650D01*
X124215D01*
X123816Y270570D01*
X123477Y270344D01*
X114393Y261260D01*
X114293D01*
X113786Y261050D01*
X113399Y260662D01*
X113189Y260156D01*
Y259608D01*
X113399Y259101D01*
X113786Y258714D01*
X114293Y258504D01*
X114841D01*
X115348Y258714D01*
X115735Y259101D01*
X115945Y259608D01*
Y259860D01*
X124647Y268563D01*
X147241D01*
X147341Y268063D01*
X147330Y268058D01*
X146942Y267670D01*
X146732Y267164D01*
Y266616D01*
X146942Y266109D01*
X147330Y265722D01*
X147836Y265512D01*
X148384D01*
X148891Y265722D01*
X149278Y266109D01*
X149488Y266616D01*
Y267164D01*
X149278Y267670D01*
X148891Y268058D01*
X148880Y268063D01*
X148979Y268563D01*
X152559D01*
X152559Y268563D01*
X152958Y268642D01*
X153297Y268868D01*
X165216Y280787D01*
X165392D01*
X165899Y280997D01*
X166286Y281385D01*
X166496Y281891D01*
Y282439D01*
X166286Y282946D01*
X165899Y283334D01*
X165392Y283543D01*
D02*
G37*
G36*
X114093Y270590D02*
X113545D01*
X113038Y270381D01*
X112651Y269993D01*
X112441Y269487D01*
Y268938D01*
X112651Y268432D01*
X113038Y268044D01*
X113545Y267835D01*
X114093D01*
X114600Y268044D01*
X114987Y268432D01*
X115197Y268938D01*
Y269487D01*
X114987Y269993D01*
X114600Y270381D01*
X114093Y270590D01*
D02*
G37*
G36*
X139447Y267913D02*
X138899D01*
X138393Y267703D01*
X138005Y267316D01*
X137795Y266809D01*
Y266261D01*
X138005Y265755D01*
X138393Y265367D01*
X138899Y265157D01*
X139447D01*
X139954Y265367D01*
X140341Y265755D01*
X140551Y266261D01*
Y266809D01*
X140341Y267316D01*
X139954Y267703D01*
X139447Y267913D01*
D02*
G37*
G36*
X211613Y265079D02*
X211064D01*
X210558Y264869D01*
X210170Y264481D01*
X209961Y263975D01*
Y263427D01*
X210170Y262920D01*
X210558Y262533D01*
X211064Y262323D01*
X211613D01*
X212119Y262533D01*
X212507Y262920D01*
X212717Y263427D01*
Y263975D01*
X212507Y264481D01*
X212119Y264869D01*
X211613Y265079D01*
D02*
G37*
G36*
X323186Y262835D02*
X322247D01*
X321378Y262475D01*
X320714Y261810D01*
X320354Y260942D01*
Y260003D01*
X320714Y259134D01*
X321378Y258470D01*
X322247Y258110D01*
X323186D01*
X324055Y258470D01*
X324719Y259134D01*
X325079Y260003D01*
Y260942D01*
X324719Y261810D01*
X324055Y262475D01*
X323186Y262835D01*
D02*
G37*
G36*
X316021D02*
X315081D01*
X314213Y262475D01*
X313549Y261810D01*
X313189Y260942D01*
Y260003D01*
X313549Y259134D01*
X314213Y258470D01*
X315081Y258110D01*
X316021D01*
X316889Y258470D01*
X317554Y259134D01*
X317913Y260003D01*
Y260942D01*
X317554Y261810D01*
X316889Y262475D01*
X316021Y262835D01*
D02*
G37*
G36*
X209605Y259291D02*
X209057D01*
X208550Y259082D01*
X208162Y258694D01*
X207953Y258188D01*
Y257639D01*
X208162Y257133D01*
X208550Y256745D01*
X209057Y256535D01*
X209605D01*
X210111Y256745D01*
X210499Y257133D01*
X210709Y257639D01*
Y258188D01*
X210499Y258694D01*
X210111Y259082D01*
X209605Y259291D01*
D02*
G37*
G36*
X352991Y258543D02*
X352443D01*
X351936Y258333D01*
X351548Y257946D01*
X351339Y257439D01*
Y256891D01*
X351548Y256385D01*
X351936Y255997D01*
X352443Y255787D01*
X352991D01*
X353497Y255997D01*
X353885Y256385D01*
X354095Y256891D01*
Y257439D01*
X353885Y257946D01*
X353497Y258333D01*
X352991Y258543D01*
D02*
G37*
G36*
X330341Y258286D02*
X329793D01*
X329287Y258077D01*
X328899Y257689D01*
X328689Y257183D01*
Y256634D01*
X328899Y256128D01*
X329287Y255740D01*
X329793Y255531D01*
X330341D01*
X330848Y255740D01*
X331235Y256128D01*
X331445Y256634D01*
Y257183D01*
X331235Y257689D01*
X330848Y258077D01*
X330341Y258286D01*
D02*
G37*
G36*
X38659Y259370D02*
X37719D01*
X36851Y259010D01*
X36186Y258346D01*
X35827Y257478D01*
Y256538D01*
X36186Y255670D01*
X36851Y255005D01*
X37719Y254646D01*
X38659D01*
X39527Y255005D01*
X40192Y255670D01*
X40551Y256538D01*
Y257478D01*
X40192Y258346D01*
X39527Y259010D01*
X38659Y259370D01*
D02*
G37*
G36*
X10392Y261929D02*
X9844D01*
X9338Y261719D01*
X8950Y261332D01*
X8740Y260825D01*
Y260277D01*
X8950Y259771D01*
X9338Y259383D01*
X9679Y259242D01*
Y258711D01*
X9338Y258570D01*
X8950Y258182D01*
X8740Y257676D01*
Y257127D01*
X8950Y256621D01*
X9338Y256233D01*
X9679Y256092D01*
Y255562D01*
X9338Y255420D01*
X8950Y255032D01*
X8740Y254526D01*
Y253978D01*
X8950Y253471D01*
X9338Y253084D01*
X9844Y252874D01*
X10392D01*
X10899Y253084D01*
X11286Y253471D01*
X11496Y253978D01*
Y254526D01*
X11286Y255032D01*
X10899Y255420D01*
X10557Y255562D01*
Y256092D01*
X10899Y256233D01*
X11286Y256621D01*
X11496Y257127D01*
Y257676D01*
X11286Y258182D01*
X10899Y258570D01*
X10557Y258711D01*
Y259242D01*
X10899Y259383D01*
X11286Y259771D01*
X11496Y260277D01*
Y260825D01*
X11286Y261332D01*
X10899Y261719D01*
X10392Y261929D01*
D02*
G37*
G36*
X345010Y254484D02*
X344462D01*
X343956Y254274D01*
X343568Y253887D01*
X343358Y253380D01*
Y252832D01*
X343568Y252326D01*
X343956Y251938D01*
X344462Y251728D01*
X345010D01*
X345517Y251938D01*
X345904Y252326D01*
X346114Y252832D01*
Y253380D01*
X345904Y253887D01*
X345517Y254274D01*
X345010Y254484D01*
D02*
G37*
G36*
X361948Y254427D02*
X361400D01*
X360894Y254217D01*
X360506Y253829D01*
X360296Y253323D01*
Y252775D01*
X360506Y252268D01*
X360894Y251881D01*
X361400Y251671D01*
X361948D01*
X362455Y251881D01*
X362842Y252268D01*
X363052Y252775D01*
Y253323D01*
X362842Y253829D01*
X362455Y254217D01*
X361948Y254427D01*
D02*
G37*
G36*
X272911Y256299D02*
X271971D01*
X271103Y255940D01*
X270438Y255275D01*
X270079Y254407D01*
Y253467D01*
X270438Y252599D01*
X271103Y251934D01*
X271971Y251575D01*
X272911D01*
X273779Y251934D01*
X274444Y252599D01*
X274803Y253467D01*
Y254407D01*
X274444Y255275D01*
X273779Y255940D01*
X272911Y256299D01*
D02*
G37*
G36*
X142753Y256102D02*
X141814D01*
X140945Y255743D01*
X140281Y255078D01*
X139921Y254210D01*
Y253270D01*
X140281Y252402D01*
X140945Y251738D01*
X141814Y251378D01*
X142753D01*
X143622Y251738D01*
X144286Y252402D01*
X144646Y253270D01*
Y254210D01*
X144286Y255078D01*
X143622Y255743D01*
X142753Y256102D01*
D02*
G37*
G36*
X245352Y255906D02*
X244412D01*
X243544Y255546D01*
X242879Y254881D01*
X242520Y254013D01*
Y253073D01*
X242879Y252205D01*
X243544Y251541D01*
X244412Y251181D01*
X245352D01*
X246220Y251541D01*
X246884Y252205D01*
X247244Y253073D01*
Y254013D01*
X246884Y254881D01*
X246220Y255546D01*
X245352Y255906D01*
D02*
G37*
G36*
X187794Y251102D02*
X187246D01*
X186739Y250893D01*
X186352Y250505D01*
X186142Y249998D01*
Y249450D01*
X186352Y248944D01*
X186739Y248556D01*
X187246Y248346D01*
X187794D01*
X188300Y248556D01*
X188688Y248944D01*
X188898Y249450D01*
Y249998D01*
X188688Y250505D01*
X188300Y250893D01*
X187794Y251102D01*
D02*
G37*
G36*
X107412Y255718D02*
X99833D01*
Y248140D01*
X107412D01*
Y255718D01*
D02*
G37*
G36*
X121416Y250787D02*
X120868D01*
X120361Y250578D01*
X119974Y250190D01*
X119764Y249683D01*
Y249135D01*
X119974Y248629D01*
X120361Y248241D01*
X120868Y248031D01*
X121416D01*
X121922Y248241D01*
X122310Y248629D01*
X122520Y249135D01*
Y249683D01*
X122310Y250190D01*
X121922Y250578D01*
X121416Y250787D01*
D02*
G37*
G36*
X318266Y247047D02*
X317718D01*
X317212Y246837D01*
X316824Y246450D01*
X316614Y245943D01*
Y245395D01*
X316824Y244889D01*
X317212Y244501D01*
X317718Y244291D01*
X318266D01*
X318773Y244501D01*
X319160Y244889D01*
X319370Y245395D01*
Y245943D01*
X319160Y246450D01*
X318773Y246837D01*
X318266Y247047D01*
D02*
G37*
G36*
X325945Y254160D02*
X325397D01*
X324890Y253950D01*
X324503Y253563D01*
X324293Y253056D01*
Y252508D01*
X324309Y252469D01*
X324175Y251969D01*
X324040Y251913D01*
X323668Y251759D01*
X323281Y251371D01*
X323071Y250865D01*
Y250317D01*
X323102Y250241D01*
X322836Y249843D01*
X322330Y249633D01*
X321942Y249245D01*
X321732Y248739D01*
Y248190D01*
X321942Y247684D01*
X322330Y247297D01*
X322535Y247211D01*
Y246670D01*
X322369Y246601D01*
X321981Y246214D01*
X321772Y245707D01*
Y245159D01*
X321981Y244653D01*
X322369Y244265D01*
X322875Y244055D01*
X323424D01*
X323930Y244265D01*
X324318Y244653D01*
X324528Y245159D01*
Y245707D01*
X324318Y246214D01*
X323930Y246601D01*
X323725Y246686D01*
Y247228D01*
X323891Y247297D01*
X324278Y247684D01*
X324488Y248190D01*
Y248739D01*
X324457Y248815D01*
X324723Y249213D01*
X325229Y249422D01*
X325617Y249810D01*
X325827Y250317D01*
Y250865D01*
X325810Y250904D01*
X325945Y251404D01*
X326080Y251460D01*
X326451Y251614D01*
X326839Y252002D01*
X327049Y252508D01*
Y253056D01*
X326839Y253563D01*
X326451Y253950D01*
X325945Y254160D01*
D02*
G37*
G36*
X124723Y238976D02*
X124175D01*
X123668Y238767D01*
X123281Y238379D01*
X123071Y237873D01*
Y237324D01*
X123281Y236818D01*
X123668Y236430D01*
X124175Y236221D01*
X124723D01*
X125229Y236430D01*
X125617Y236818D01*
X125827Y237324D01*
Y237873D01*
X125617Y238379D01*
X125229Y238767D01*
X124723Y238976D01*
D02*
G37*
G36*
X21022Y232323D02*
X20474D01*
X19967Y232113D01*
X19580Y231725D01*
X19370Y231219D01*
Y230671D01*
X19580Y230164D01*
X19967Y229777D01*
X20474Y229567D01*
X21022D01*
X21529Y229777D01*
X21916Y230164D01*
X22126Y230671D01*
Y231219D01*
X21916Y231725D01*
X21529Y232113D01*
X21022Y232323D01*
D02*
G37*
G36*
X149539Y225853D02*
X148991D01*
X148485Y225643D01*
X148097Y225255D01*
X147888Y224749D01*
Y224201D01*
X148097Y223694D01*
X148485Y223307D01*
X148991Y223097D01*
X149539D01*
X150046Y223307D01*
X150434Y223694D01*
X150643Y224201D01*
Y224749D01*
X150434Y225255D01*
X150046Y225643D01*
X149539Y225853D01*
D02*
G37*
G36*
X221480Y224980D02*
X220932D01*
X220426Y224770D01*
X220038Y224382D01*
X219828Y223876D01*
Y223328D01*
X220038Y222821D01*
X220426Y222434D01*
X220932Y222224D01*
X221480D01*
X221987Y222434D01*
X222374Y222821D01*
X222584Y223328D01*
Y223876D01*
X222374Y224382D01*
X221987Y224770D01*
X221480Y224980D01*
D02*
G37*
G36*
X251485Y224782D02*
X250937D01*
X250431Y224573D01*
X250043Y224185D01*
X249833Y223679D01*
Y223130D01*
X250043Y222624D01*
X250431Y222236D01*
X250937Y222027D01*
X251485D01*
X251992Y222236D01*
X252379Y222624D01*
X252589Y223130D01*
Y223679D01*
X252379Y224185D01*
X251992Y224573D01*
X251485Y224782D01*
D02*
G37*
G36*
X115432Y222992D02*
X114883D01*
X114377Y222782D01*
X113989Y222395D01*
X113779Y221888D01*
Y221340D01*
X113989Y220834D01*
X114377Y220446D01*
X114883Y220236D01*
X115432D01*
X115938Y220446D01*
X116326Y220834D01*
X116535Y221340D01*
Y221888D01*
X116326Y222395D01*
X115938Y222782D01*
X115432Y222992D01*
D02*
G37*
G36*
X25943Y222323D02*
X25395D01*
X24889Y222113D01*
X24501Y221725D01*
X24291Y221219D01*
Y220671D01*
X24501Y220164D01*
X24889Y219777D01*
X25395Y219567D01*
X25943D01*
X26450Y219777D01*
X26838Y220164D01*
X27047Y220671D01*
Y221219D01*
X26838Y221725D01*
X26450Y222113D01*
X25943Y222323D01*
D02*
G37*
G36*
X272950Y223268D02*
X272010D01*
X271142Y222908D01*
X270478Y222244D01*
X270118Y221375D01*
Y220436D01*
X270478Y219567D01*
X271142Y218903D01*
X272010Y218543D01*
X272950D01*
X273818Y218903D01*
X274483Y219567D01*
X274843Y220436D01*
Y221375D01*
X274483Y222244D01*
X273818Y222908D01*
X272950Y223268D01*
D02*
G37*
G36*
X6607Y218501D02*
X6059D01*
X5553Y218291D01*
X5165Y217904D01*
X4955Y217397D01*
Y216849D01*
X5165Y216342D01*
X5553Y215955D01*
X6059Y215745D01*
X6607D01*
X7114Y215955D01*
X7501Y216342D01*
X7711Y216849D01*
Y217397D01*
X7501Y217904D01*
X7114Y218291D01*
X6607Y218501D01*
D02*
G37*
G36*
X44600Y216493D02*
X44051D01*
X43545Y216283D01*
X43157Y215896D01*
X42947Y215389D01*
Y214841D01*
X43157Y214335D01*
X43545Y213947D01*
X44051Y213737D01*
X44600D01*
X45106Y213947D01*
X45494Y214335D01*
X45703Y214841D01*
Y215389D01*
X45494Y215896D01*
X45106Y216283D01*
X44600Y216493D01*
D02*
G37*
G36*
X92754Y215276D02*
X92206D01*
X91700Y215066D01*
X91312Y214678D01*
X91102Y214172D01*
Y213623D01*
X91312Y213117D01*
X91700Y212730D01*
X92206Y212520D01*
X92754D01*
X93261Y212730D01*
X93648Y213117D01*
X93858Y213623D01*
Y214172D01*
X93648Y214678D01*
X93261Y215066D01*
X92754Y215276D01*
D02*
G37*
G36*
X6647Y214721D02*
X6098D01*
X5592Y214512D01*
X5204Y214124D01*
X4995Y213618D01*
Y213069D01*
X5204Y212563D01*
X5592Y212175D01*
X6098Y211966D01*
X6647D01*
X7153Y212175D01*
X7541Y212563D01*
X7751Y213069D01*
Y213618D01*
X7541Y214124D01*
X7153Y214512D01*
X6647Y214721D01*
D02*
G37*
G36*
X110589Y213307D02*
X110041D01*
X109534Y213097D01*
X109147Y212710D01*
X108937Y212203D01*
Y211655D01*
X109147Y211149D01*
X109534Y210761D01*
X110041Y210551D01*
X110589D01*
X111095Y210761D01*
X111483Y211149D01*
X111693Y211655D01*
Y212203D01*
X111483Y212710D01*
X111095Y213097D01*
X110589Y213307D01*
D02*
G37*
G36*
X173857Y212244D02*
X173309D01*
X172802Y212034D01*
X172415Y211647D01*
X172205Y211140D01*
Y210592D01*
X172415Y210086D01*
X172802Y209698D01*
X173309Y209488D01*
X173857D01*
X174363Y209698D01*
X174751Y210086D01*
X174961Y210592D01*
Y211140D01*
X174751Y211647D01*
X174363Y212034D01*
X173857Y212244D01*
D02*
G37*
G36*
X206377Y211299D02*
X205828D01*
X205322Y211089D01*
X204934Y210702D01*
X204724Y210195D01*
Y209647D01*
X204934Y209141D01*
X205322Y208753D01*
X205828Y208543D01*
X206377D01*
X206883Y208753D01*
X207271Y209141D01*
X207480Y209647D01*
Y210195D01*
X207271Y210702D01*
X206883Y211089D01*
X206377Y211299D01*
D02*
G37*
G36*
X265510Y211107D02*
X264962D01*
X264456Y210897D01*
X264068Y210510D01*
X263858Y210003D01*
Y209455D01*
X264068Y208948D01*
X264456Y208561D01*
X264962Y208351D01*
X265510D01*
X266017Y208561D01*
X266404Y208948D01*
X266614Y209455D01*
Y210003D01*
X266404Y210510D01*
X266017Y210897D01*
X265510Y211107D01*
D02*
G37*
G36*
X31416Y211023D02*
X30868D01*
X30361Y210814D01*
X29974Y210426D01*
X29764Y209920D01*
Y209371D01*
X29974Y208865D01*
X30361Y208477D01*
X30868Y208267D01*
X31416D01*
X31922Y208477D01*
X32310Y208865D01*
X32520Y209371D01*
Y209920D01*
X32310Y210426D01*
X31922Y210814D01*
X31416Y211023D01*
D02*
G37*
G36*
X86824Y210784D02*
X86276D01*
X85769Y210575D01*
X85569Y210374D01*
X78397D01*
X77998Y210295D01*
X77659Y210069D01*
X77659Y210069D01*
X45839Y178249D01*
X25393D01*
X25269Y178373D01*
X24762Y178583D01*
X24214D01*
X23708Y178373D01*
X23320Y177985D01*
X23110Y177479D01*
Y176931D01*
X23320Y176424D01*
X23708Y176037D01*
X24214Y175827D01*
X24762D01*
X25269Y176037D01*
X25393Y176161D01*
X41047D01*
X41147Y175661D01*
X40755Y175499D01*
X40367Y175111D01*
X40157Y174605D01*
Y174056D01*
X40367Y173550D01*
X40755Y173162D01*
X41261Y172953D01*
X41809D01*
X42316Y173162D01*
X42704Y173550D01*
X42913Y174056D01*
Y174605D01*
X42704Y175111D01*
X42316Y175499D01*
X41924Y175661D01*
X42023Y176161D01*
X46271D01*
X46271Y176161D01*
X46671Y176241D01*
X47009Y176467D01*
X78829Y208287D01*
X85720D01*
X85769Y208238D01*
X86276Y208029D01*
X86824D01*
X87330Y208238D01*
X87718Y208626D01*
X87928Y209132D01*
Y209681D01*
X87718Y210187D01*
X87330Y210575D01*
X86824Y210784D01*
D02*
G37*
G36*
X285668Y208780D02*
X285120D01*
X284613Y208570D01*
X284226Y208182D01*
X284016Y207676D01*
Y207127D01*
X284226Y206621D01*
X284613Y206233D01*
X285120Y206024D01*
X285668D01*
X286174Y206233D01*
X286562Y206621D01*
X286772Y207127D01*
Y207676D01*
X286562Y208182D01*
X286174Y208570D01*
X285668Y208780D01*
D02*
G37*
G36*
X113502Y208347D02*
X112954D01*
X112448Y208137D01*
X112060Y207749D01*
X111850Y207243D01*
Y206694D01*
X112060Y206188D01*
X112448Y205800D01*
X112954Y205591D01*
X113502D01*
X114009Y205800D01*
X114397Y206188D01*
X114606Y206694D01*
Y207243D01*
X114397Y207749D01*
X114009Y208137D01*
X113502Y208347D01*
D02*
G37*
G36*
X63778Y206732D02*
X63230D01*
X62723Y206522D01*
X62336Y206135D01*
X62126Y205628D01*
Y205080D01*
X62336Y204574D01*
X62723Y204186D01*
X63230Y203976D01*
X63778D01*
X64284Y204186D01*
X64672Y204574D01*
X64882Y205080D01*
Y205628D01*
X64672Y206135D01*
X64284Y206522D01*
X63778Y206732D01*
D02*
G37*
G36*
X279649Y205989D02*
X279101D01*
X278595Y205780D01*
X278207Y205392D01*
X277997Y204886D01*
Y204337D01*
X278207Y203831D01*
X278595Y203443D01*
X279101Y203234D01*
X279649D01*
X280156Y203443D01*
X280543Y203831D01*
X280753Y204337D01*
Y204886D01*
X280543Y205392D01*
X280156Y205780D01*
X279649Y205989D01*
D02*
G37*
G36*
X148778Y205551D02*
X148230D01*
X147723Y205341D01*
X147336Y204954D01*
X147126Y204447D01*
Y203899D01*
X147336Y203393D01*
X147723Y203005D01*
X148230Y202795D01*
X148778D01*
X149285Y203005D01*
X149672Y203393D01*
X149882Y203899D01*
Y204447D01*
X149672Y204954D01*
X149285Y205341D01*
X148778Y205551D01*
D02*
G37*
G36*
X139683Y205472D02*
X139135D01*
X138629Y205263D01*
X138241Y204875D01*
X138031Y204369D01*
Y203820D01*
X138241Y203314D01*
X138629Y202926D01*
X139135Y202716D01*
X139683D01*
X140190Y202926D01*
X140578Y203314D01*
X140787Y203820D01*
Y204369D01*
X140578Y204875D01*
X140190Y205263D01*
X139683Y205472D01*
D02*
G37*
G36*
X176849Y204921D02*
X176301D01*
X175794Y204711D01*
X175407Y204324D01*
X175197Y203817D01*
Y203269D01*
X175407Y202763D01*
X175794Y202375D01*
X176301Y202165D01*
X176849D01*
X177355Y202375D01*
X177743Y202763D01*
X177953Y203269D01*
Y203817D01*
X177743Y204324D01*
X177355Y204711D01*
X176849Y204921D01*
D02*
G37*
G36*
X163266Y204606D02*
X162718D01*
X162212Y204397D01*
X161824Y204009D01*
X161614Y203502D01*
Y202954D01*
X161824Y202448D01*
X162212Y202060D01*
X162718Y201851D01*
X163266D01*
X163773Y202060D01*
X164160Y202448D01*
X164370Y202954D01*
Y203502D01*
X164160Y204009D01*
X163773Y204397D01*
X163266Y204606D01*
D02*
G37*
G36*
X265569Y202382D02*
X265021D01*
X264515Y202172D01*
X264127Y201785D01*
X263917Y201278D01*
Y200730D01*
X264127Y200223D01*
X264515Y199836D01*
X265021Y199626D01*
X265569D01*
X266076Y199836D01*
X266463Y200223D01*
X266673Y200730D01*
Y201278D01*
X266463Y201785D01*
X266076Y202172D01*
X265569Y202382D01*
D02*
G37*
G36*
X107412Y204577D02*
X99833D01*
Y196998D01*
X107412D01*
Y204577D01*
D02*
G37*
G36*
X117892Y199705D02*
X117344D01*
X116838Y199495D01*
X116450Y199107D01*
X116240Y198601D01*
Y198053D01*
X116450Y197546D01*
X116838Y197159D01*
X117344Y196949D01*
X117892D01*
X118399Y197159D01*
X118786Y197546D01*
X118996Y198053D01*
Y198601D01*
X118786Y199107D01*
X118399Y199495D01*
X117892Y199705D01*
D02*
G37*
G36*
X272585Y195264D02*
X271645D01*
X270777Y194905D01*
X270112Y194240D01*
X269753Y193372D01*
Y192432D01*
X270112Y191564D01*
X270777Y190900D01*
X271645Y190540D01*
X272585D01*
X273453Y190900D01*
X274117Y191564D01*
X274477Y192432D01*
Y193372D01*
X274117Y194240D01*
X273453Y194905D01*
X272585Y195264D01*
D02*
G37*
G36*
X124487Y193032D02*
X123939D01*
X123432Y192822D01*
X123044Y192434D01*
X122835Y191928D01*
Y191379D01*
X123044Y190873D01*
X123432Y190485D01*
X123939Y190276D01*
X124487D01*
X124993Y190485D01*
X125381Y190873D01*
X125591Y191379D01*
Y191928D01*
X125381Y192434D01*
X124993Y192822D01*
X124487Y193032D01*
D02*
G37*
G36*
X235076Y193110D02*
X234136D01*
X233268Y192751D01*
X232604Y192086D01*
X232244Y191218D01*
Y190278D01*
X232604Y189410D01*
X233268Y188745D01*
X234136Y188386D01*
X235076D01*
X235944Y188745D01*
X236609Y189410D01*
X236968Y190278D01*
Y191218D01*
X236609Y192086D01*
X235944Y192751D01*
X235076Y193110D01*
D02*
G37*
G36*
X154052Y192008D02*
X153113D01*
X152245Y191648D01*
X151580Y190984D01*
X151221Y190115D01*
Y189176D01*
X151580Y188308D01*
X152245Y187643D01*
X153113Y187284D01*
X154052D01*
X154921Y187643D01*
X155585Y188308D01*
X155945Y189176D01*
Y190115D01*
X155585Y190984D01*
X154921Y191648D01*
X154052Y192008D01*
D02*
G37*
G36*
X47990Y191693D02*
X47050D01*
X46182Y191333D01*
X45517Y190669D01*
X45158Y189801D01*
Y188861D01*
X45517Y187993D01*
X46182Y187328D01*
X47050Y186969D01*
X47990D01*
X48858Y187328D01*
X49522Y187993D01*
X49882Y188861D01*
Y189801D01*
X49522Y190669D01*
X48858Y191333D01*
X47990Y191693D01*
D02*
G37*
G36*
X187243Y185197D02*
X186695D01*
X186188Y184987D01*
X185973Y184772D01*
X185790Y184603D01*
X185327Y184764D01*
X185246Y184846D01*
X184739Y185056D01*
X184191D01*
X183685Y184846D01*
X183297Y184458D01*
X183087Y183952D01*
Y183404D01*
X183297Y182897D01*
X183685Y182510D01*
X184191Y182300D01*
X184739D01*
X185246Y182510D01*
X185461Y182725D01*
X185644Y182894D01*
X186106Y182732D01*
X186188Y182651D01*
X186695Y182441D01*
X187243D01*
X187749Y182651D01*
X188137Y183038D01*
X188347Y183545D01*
Y184093D01*
X188137Y184599D01*
X187749Y184987D01*
X187243Y185197D01*
D02*
G37*
G36*
X75413Y188503D02*
X74865D01*
X74359Y188293D01*
X73971Y187905D01*
X73761Y187399D01*
Y186850D01*
X73971Y186344D01*
X74359Y185956D01*
X74865Y185747D01*
X74970D01*
X75414Y185729D01*
X75432Y185285D01*
Y185180D01*
X75642Y184674D01*
X76029Y184286D01*
X76536Y184076D01*
X77084D01*
X77590Y184286D01*
X77978Y184674D01*
X78188Y185180D01*
Y185728D01*
X77978Y186235D01*
X77590Y186622D01*
X77084Y186832D01*
X76979D01*
X76535Y186850D01*
X76517Y187294D01*
Y187399D01*
X76307Y187905D01*
X75920Y188293D01*
X75413Y188503D01*
D02*
G37*
G36*
X318266Y189055D02*
X317718D01*
X317212Y188845D01*
X316824Y188458D01*
X316614Y187951D01*
Y187403D01*
X316824Y186897D01*
X317070Y186651D01*
X317161Y186339D01*
X317070Y186027D01*
X316824Y185781D01*
X316614Y185274D01*
Y184726D01*
X316824Y184220D01*
X317212Y183832D01*
X317718Y183622D01*
X318266D01*
X318773Y183832D01*
X319160Y184220D01*
X319370Y184726D01*
Y185274D01*
X319160Y185781D01*
X318914Y186027D01*
X318823Y186339D01*
X318914Y186651D01*
X319160Y186897D01*
X319370Y187403D01*
Y187951D01*
X319160Y188458D01*
X318773Y188845D01*
X318266Y189055D01*
D02*
G37*
G36*
X164506Y181713D02*
X164505Y181713D01*
X123200D01*
X123200Y181713D01*
X122801Y181633D01*
X122462Y181407D01*
X122462Y181407D01*
X109098Y168043D01*
X108508Y168160D01*
X108446Y168311D01*
X108058Y168699D01*
X107552Y168908D01*
X107003D01*
X106497Y168699D01*
X106109Y168311D01*
X105900Y167804D01*
Y167256D01*
X106109Y166750D01*
X106497Y166362D01*
X106648Y166300D01*
X106765Y165710D01*
X96744Y155689D01*
X29330D01*
X29127Y155893D01*
X28620Y156102D01*
X28072D01*
X27566Y155893D01*
X27178Y155505D01*
X26969Y154999D01*
Y154450D01*
X27178Y153944D01*
X27566Y153556D01*
X28072Y153347D01*
X28620D01*
X29127Y153556D01*
X29173Y153602D01*
X97177D01*
X97177Y153602D01*
X97576Y153681D01*
X97915Y153908D01*
X102486Y158478D01*
X102502Y158475D01*
X102947Y158233D01*
Y157833D01*
X103157Y157327D01*
X103545Y156939D01*
X104051Y156729D01*
X104599D01*
X105106Y156939D01*
X105494Y157327D01*
X105703Y157833D01*
Y158381D01*
X105494Y158888D01*
X105106Y159275D01*
X104599Y159485D01*
X104199D01*
X103958Y159930D01*
X103954Y159947D01*
X108101Y164094D01*
X108691Y163977D01*
X108753Y163826D01*
X109141Y163438D01*
X109647Y163228D01*
X110195D01*
X110702Y163438D01*
X111089Y163826D01*
X111299Y164332D01*
Y164880D01*
X111089Y165387D01*
X110702Y165775D01*
X110551Y165837D01*
X110434Y166427D01*
X123420Y179413D01*
X123839Y179132D01*
X123842Y179126D01*
X123779Y178975D01*
Y178427D01*
X123989Y177920D01*
X124377Y177533D01*
X124883Y177323D01*
X125432D01*
X125938Y177533D01*
X126326Y177920D01*
X126535Y178427D01*
Y178975D01*
X126473Y179126D01*
X126807Y179626D01*
X164073D01*
X165027Y178672D01*
X165027Y178672D01*
X165366Y178445D01*
X165765Y178366D01*
X205237D01*
X205361Y178241D01*
X205868Y178032D01*
X206416D01*
X206922Y178241D01*
X207310Y178629D01*
X207520Y179135D01*
Y179683D01*
X207310Y180190D01*
X206922Y180578D01*
X206416Y180787D01*
X205868D01*
X205361Y180578D01*
X205237Y180453D01*
X166198D01*
X165243Y181407D01*
X164905Y181633D01*
X164506Y181713D01*
D02*
G37*
G36*
X160789Y176878D02*
X160241D01*
X159735Y176668D01*
X159347Y176281D01*
X159137Y175774D01*
Y175226D01*
X159347Y174720D01*
X159735Y174332D01*
X160241Y174122D01*
X160789D01*
X161296Y174332D01*
X161683Y174720D01*
X161893Y175226D01*
Y175774D01*
X161683Y176281D01*
X161296Y176668D01*
X160789Y176878D01*
D02*
G37*
G36*
X358227Y176102D02*
X357679D01*
X357172Y175893D01*
X356785Y175505D01*
X356575Y174998D01*
Y174450D01*
X356785Y173944D01*
X357172Y173556D01*
X357679Y173346D01*
X358227D01*
X358733Y173556D01*
X359121Y173944D01*
X359331Y174450D01*
Y174998D01*
X359121Y175505D01*
X358733Y175893D01*
X358227Y176102D01*
D02*
G37*
G36*
X221446Y175727D02*
X220898D01*
X220391Y175518D01*
X220004Y175130D01*
X219794Y174624D01*
Y174075D01*
X220004Y173569D01*
X220391Y173181D01*
X220898Y172971D01*
X221446D01*
X221953Y173181D01*
X222340Y173569D01*
X222550Y174075D01*
Y174624D01*
X222340Y175130D01*
X221953Y175518D01*
X221446Y175727D01*
D02*
G37*
G36*
X254486Y177520D02*
X253546D01*
X252678Y177160D01*
X252013Y176496D01*
X251654Y175627D01*
Y174688D01*
X252013Y173819D01*
X252678Y173155D01*
X253546Y172795D01*
X254486D01*
X255354Y173155D01*
X256018Y173819D01*
X256378Y174688D01*
Y175627D01*
X256018Y176496D01*
X255354Y177160D01*
X254486Y177520D01*
D02*
G37*
G36*
X5684Y175394D02*
X5136D01*
X4629Y175184D01*
X4242Y174796D01*
X4032Y174290D01*
Y173742D01*
X4242Y173235D01*
X4629Y172848D01*
X5136Y172638D01*
X5684D01*
X6191Y172848D01*
X6578Y173235D01*
X6788Y173742D01*
Y174290D01*
X6578Y174796D01*
X6191Y175184D01*
X5684Y175394D01*
D02*
G37*
G36*
X322194Y174927D02*
X321646D01*
X321139Y174718D01*
X320752Y174330D01*
X320542Y173823D01*
Y173275D01*
X320752Y172769D01*
X321139Y172381D01*
X321646Y172171D01*
X322194D01*
X322701Y172381D01*
X323088Y172769D01*
X323298Y173275D01*
Y173823D01*
X323088Y174330D01*
X322701Y174718D01*
X322194Y174927D01*
D02*
G37*
G36*
X345353Y174606D02*
X344805D01*
X344298Y174397D01*
X343911Y174009D01*
X343701Y173502D01*
Y172954D01*
X343911Y172448D01*
X344298Y172060D01*
X344805Y171850D01*
X345353D01*
X345859Y172060D01*
X346247Y172448D01*
X346457Y172954D01*
Y173502D01*
X346247Y174009D01*
X345859Y174397D01*
X345353Y174606D01*
D02*
G37*
G36*
X226618Y171962D02*
X226069D01*
X225563Y171752D01*
X225175Y171364D01*
X224966Y170858D01*
Y170310D01*
X225175Y169803D01*
X225563Y169416D01*
X226069Y169206D01*
X226618D01*
X227124Y169416D01*
X227512Y169803D01*
X227722Y170310D01*
Y170858D01*
X227512Y171364D01*
X227124Y171752D01*
X226618Y171962D01*
D02*
G37*
G36*
X166862Y171740D02*
X166314D01*
X165807Y171531D01*
X165420Y171143D01*
X165210Y170637D01*
Y170088D01*
X165420Y169582D01*
X165807Y169194D01*
X166314Y168985D01*
X166862D01*
X167368Y169194D01*
X167756Y169582D01*
X167966Y170088D01*
Y170637D01*
X167756Y171143D01*
X167368Y171531D01*
X166862Y171740D01*
D02*
G37*
G36*
X240983Y169921D02*
X240435D01*
X239928Y169711D01*
X239541Y169324D01*
X239331Y168817D01*
Y168269D01*
X239541Y167763D01*
X239928Y167375D01*
X240435Y167165D01*
X240983D01*
X241489Y167375D01*
X241877Y167763D01*
X242087Y168269D01*
Y168817D01*
X241877Y169324D01*
X241489Y169711D01*
X240983Y169921D01*
D02*
G37*
G36*
X95550Y168740D02*
X95002D01*
X94495Y168530D01*
X94107Y168143D01*
X93898Y167636D01*
Y167088D01*
X94107Y166582D01*
X94495Y166194D01*
X95002Y165984D01*
X95550D01*
X96056Y166194D01*
X96444Y166582D01*
X96653Y167088D01*
Y167636D01*
X96444Y168143D01*
X96056Y168530D01*
X95550Y168740D01*
D02*
G37*
G36*
X51534Y167244D02*
X50986D01*
X50479Y167034D01*
X50092Y166647D01*
X49882Y166140D01*
Y165592D01*
X50092Y165086D01*
X50479Y164698D01*
X50986Y164488D01*
X51534D01*
X52040Y164698D01*
X52428Y165086D01*
X52638Y165592D01*
Y166140D01*
X52428Y166647D01*
X52040Y167034D01*
X51534Y167244D01*
D02*
G37*
G36*
X152715Y165236D02*
X152167D01*
X151660Y165026D01*
X151273Y164639D01*
X151063Y164132D01*
Y163584D01*
X151273Y163078D01*
X151660Y162690D01*
X152167Y162480D01*
X152715D01*
X153221Y162690D01*
X153609Y163078D01*
X153819Y163584D01*
Y164132D01*
X153609Y164639D01*
X153221Y165026D01*
X152715Y165236D01*
D02*
G37*
G36*
X188384Y162087D02*
X187836D01*
X187330Y161877D01*
X186942Y161489D01*
X186732Y160983D01*
Y160435D01*
X186942Y159928D01*
X187330Y159540D01*
X187836Y159331D01*
X188384D01*
X188891Y159540D01*
X189278Y159928D01*
X189488Y160435D01*
Y160983D01*
X189278Y161489D01*
X188891Y161877D01*
X188384Y162087D01*
D02*
G37*
G36*
X139054Y161614D02*
X138505D01*
X137999Y161404D01*
X137611Y161017D01*
X137402Y160510D01*
Y159962D01*
X137611Y159456D01*
X137999Y159068D01*
X138505Y158858D01*
X139054D01*
X139560Y159068D01*
X139948Y159456D01*
X140157Y159962D01*
Y160510D01*
X139948Y161017D01*
X139560Y161404D01*
X139054Y161614D01*
D02*
G37*
G36*
X24290Y156102D02*
X23742D01*
X23235Y155893D01*
X22848Y155505D01*
X22638Y154999D01*
Y154450D01*
X22848Y153944D01*
X23235Y153556D01*
X23742Y153347D01*
X24290D01*
X24796Y153556D01*
X25184Y153944D01*
X25394Y154450D01*
Y154999D01*
X25184Y155505D01*
X24796Y155893D01*
X24290Y156102D01*
D02*
G37*
G36*
X207439Y156024D02*
X206891D01*
X206385Y155814D01*
X205997Y155426D01*
X205787Y154920D01*
Y154372D01*
X205997Y153865D01*
X206385Y153478D01*
X206891Y153268D01*
X207439D01*
X207946Y153478D01*
X208333Y153865D01*
X208543Y154372D01*
Y154920D01*
X208333Y155426D01*
X207946Y155814D01*
X207439Y156024D01*
D02*
G37*
G36*
X163148Y155669D02*
X162600D01*
X162093Y155459D01*
X161706Y155072D01*
X161496Y154565D01*
Y154017D01*
X161706Y153511D01*
X162093Y153123D01*
X162600Y152913D01*
X163148D01*
X163655Y153123D01*
X164042Y153511D01*
X164252Y154017D01*
Y154565D01*
X164042Y155072D01*
X163655Y155459D01*
X163148Y155669D01*
D02*
G37*
G36*
X211022Y155118D02*
X210474D01*
X209967Y154908D01*
X209580Y154521D01*
X209370Y154014D01*
Y153466D01*
X209580Y152960D01*
X209967Y152572D01*
X210474Y152362D01*
X211022D01*
X211528Y152572D01*
X211916Y152960D01*
X212126Y153466D01*
Y154014D01*
X211916Y154521D01*
X211528Y154908D01*
X211022Y155118D01*
D02*
G37*
G36*
X113601Y145847D02*
X113053D01*
X112546Y145637D01*
X112159Y145249D01*
X111949Y144743D01*
Y144194D01*
X112159Y143688D01*
X112546Y143300D01*
X113053Y143091D01*
X113601D01*
X114107Y143300D01*
X114495Y143688D01*
X114705Y144194D01*
Y144743D01*
X114495Y145249D01*
X114107Y145637D01*
X113601Y145847D01*
D02*
G37*
G36*
X51376Y145197D02*
X50828D01*
X50322Y144987D01*
X49934Y144599D01*
X49724Y144093D01*
Y143545D01*
X49934Y143038D01*
X50322Y142651D01*
X50828Y142441D01*
X51376D01*
X51883Y142651D01*
X52271Y143038D01*
X52480Y143545D01*
Y144093D01*
X52271Y144599D01*
X51883Y144987D01*
X51376Y145197D01*
D02*
G37*
G36*
X143974Y145039D02*
X143034D01*
X142166Y144680D01*
X141501Y144015D01*
X141142Y143147D01*
Y142207D01*
X141501Y141339D01*
X142166Y140675D01*
X143034Y140315D01*
X143974D01*
X144842Y140675D01*
X145507Y141339D01*
X145866Y142207D01*
Y143147D01*
X145507Y144015D01*
X144842Y144680D01*
X143974Y145039D01*
D02*
G37*
G36*
X236495Y142284D02*
X235946D01*
X235440Y142074D01*
X235052Y141686D01*
X234843Y141180D01*
Y140631D01*
X235052Y140125D01*
X235440Y139737D01*
X235946Y139528D01*
X236495D01*
X237001Y139737D01*
X237389Y140125D01*
X237598Y140631D01*
Y141180D01*
X237389Y141686D01*
X237001Y142074D01*
X236495Y142284D01*
D02*
G37*
G36*
X188655Y140236D02*
X188107D01*
X187601Y140026D01*
X187213Y139639D01*
X187003Y139132D01*
Y138584D01*
X187213Y138078D01*
X187601Y137690D01*
X188107Y137480D01*
X188655D01*
X189162Y137690D01*
X189549Y138078D01*
X189759Y138584D01*
Y139132D01*
X189549Y139639D01*
X189162Y140026D01*
X188655Y140236D01*
D02*
G37*
G36*
X242479Y138740D02*
X241931D01*
X241424Y138530D01*
X241037Y138143D01*
X240827Y137636D01*
Y137088D01*
X241037Y136582D01*
X241424Y136194D01*
X241931Y135984D01*
X242479D01*
X242985Y136194D01*
X243373Y136582D01*
X243583Y137088D01*
Y137636D01*
X243373Y138143D01*
X242985Y138530D01*
X242479Y138740D01*
D02*
G37*
G36*
X227793Y138504D02*
X226853D01*
X225985Y138144D01*
X225320Y137480D01*
X224961Y136612D01*
Y135672D01*
X225320Y134804D01*
X225985Y134139D01*
X226853Y133780D01*
X227793D01*
X228661Y134139D01*
X229325Y134804D01*
X229685Y135672D01*
Y136612D01*
X229325Y137480D01*
X228661Y138144D01*
X227793Y138504D01*
D02*
G37*
G36*
X107412Y140994D02*
X99833D01*
Y133415D01*
X107412D01*
Y140994D01*
D02*
G37*
G36*
X130770Y135118D02*
X130221D01*
X129715Y134908D01*
X129327Y134521D01*
X129118Y134014D01*
Y133466D01*
X129327Y132960D01*
X129715Y132572D01*
X130221Y132362D01*
X130770D01*
X131276Y132572D01*
X131664Y132960D01*
X131874Y133466D01*
Y134014D01*
X131664Y134521D01*
X131276Y134908D01*
X130770Y135118D01*
D02*
G37*
G36*
X282124Y151299D02*
X281576D01*
X281070Y151089D01*
X280682Y150702D01*
X280472Y150195D01*
Y149647D01*
X280682Y149141D01*
X281070Y148753D01*
X281392Y148619D01*
X298181Y131831D01*
X298095Y131421D01*
X298017Y131302D01*
X297747Y131264D01*
X282325Y146685D01*
X282192Y147008D01*
X281804Y147395D01*
X281298Y147605D01*
X280749D01*
X280243Y147395D01*
X279855Y147008D01*
X279646Y146501D01*
Y145953D01*
X279855Y145447D01*
X280243Y145059D01*
X280566Y144925D01*
X296449Y129041D01*
X296853Y128772D01*
X297329Y128677D01*
X310329D01*
X310651Y128543D01*
X311199D01*
X311706Y128753D01*
X312093Y129141D01*
X312303Y129647D01*
Y130195D01*
X312093Y130702D01*
X311706Y131089D01*
X311199Y131299D01*
X310651D01*
X310650Y131299D01*
X310366Y131722D01*
X310462Y131818D01*
X310671Y132324D01*
Y132872D01*
X310462Y133379D01*
X310074Y133767D01*
X309568Y133976D01*
X309019D01*
X308697Y133843D01*
X299689D01*
X283152Y150379D01*
X283018Y150702D01*
X282631Y151089D01*
X282124Y151299D01*
D02*
G37*
G36*
X253777Y134252D02*
X252837D01*
X251969Y133892D01*
X251305Y133228D01*
X250945Y132360D01*
Y131420D01*
X251305Y130552D01*
X251969Y129887D01*
X252837Y129528D01*
X253777D01*
X254645Y129887D01*
X255310Y130552D01*
X255669Y131420D01*
Y132360D01*
X255310Y133228D01*
X254645Y133892D01*
X253777Y134252D01*
D02*
G37*
G36*
X289644Y131299D02*
X289096D01*
X288590Y131089D01*
X288202Y130702D01*
X287992Y130195D01*
Y129647D01*
X288202Y129141D01*
X288590Y128753D01*
X289096Y128543D01*
X289644D01*
X290151Y128753D01*
X290538Y129141D01*
X290748Y129647D01*
Y130195D01*
X290538Y130702D01*
X290151Y131089D01*
X289644Y131299D01*
D02*
G37*
G36*
X184250Y130866D02*
X183702D01*
X183196Y130656D01*
X182808Y130269D01*
X182598Y129762D01*
Y129214D01*
X182808Y128708D01*
X183196Y128320D01*
X183702Y128110D01*
X184250D01*
X184757Y128320D01*
X185145Y128708D01*
X185354Y129214D01*
Y129762D01*
X185145Y130269D01*
X184757Y130656D01*
X184250Y130866D01*
D02*
G37*
G36*
X126061Y130354D02*
X125513D01*
X125007Y130145D01*
X124619Y129757D01*
X124409Y129251D01*
Y128702D01*
X124619Y128196D01*
X125007Y127808D01*
X125513Y127598D01*
X126061D01*
X126568Y127808D01*
X126956Y128196D01*
X127165Y128702D01*
Y129251D01*
X126956Y129757D01*
X126568Y130145D01*
X126061Y130354D01*
D02*
G37*
G36*
X26258Y127362D02*
X25710D01*
X25204Y127152D01*
X24816Y126765D01*
X24606Y126258D01*
Y125710D01*
X24816Y125204D01*
X25204Y124816D01*
X25710Y124606D01*
X26258D01*
X26765Y124816D01*
X27152Y125204D01*
X27362Y125710D01*
Y126258D01*
X27152Y126765D01*
X26765Y127152D01*
X26258Y127362D01*
D02*
G37*
G36*
X287912Y127362D02*
X287364D01*
X286857Y127152D01*
X286470Y126765D01*
X286260Y126258D01*
Y125710D01*
X286470Y125204D01*
X286857Y124816D01*
X287364Y124606D01*
X287912D01*
X288418Y124816D01*
X288806Y125204D01*
X289016Y125710D01*
Y126258D01*
X288806Y126765D01*
X288418Y127152D01*
X287912Y127362D01*
D02*
G37*
G36*
X96376Y122047D02*
X95828D01*
X95322Y121837D01*
X94934Y121450D01*
X94724Y120943D01*
Y120395D01*
X94934Y119889D01*
X95322Y119501D01*
X95828Y119291D01*
X96376D01*
X96883Y119501D01*
X97271Y119889D01*
X97480Y120395D01*
Y120943D01*
X97271Y121450D01*
X96883Y121837D01*
X96376Y122047D01*
D02*
G37*
G36*
X158857Y120043D02*
X158309D01*
X157803Y119833D01*
X157415Y119445D01*
X157205Y118939D01*
Y118391D01*
X157415Y117884D01*
X157803Y117497D01*
X158309Y117287D01*
X158857D01*
X159364Y117497D01*
X159751Y117884D01*
X159961Y118391D01*
Y118939D01*
X159751Y119445D01*
X159364Y119833D01*
X158857Y120043D01*
D02*
G37*
G36*
X16369Y119127D02*
X15821D01*
X15315Y118917D01*
X14927Y118529D01*
X14717Y118023D01*
Y117475D01*
X14927Y116968D01*
X15315Y116581D01*
X15821Y116371D01*
X16369D01*
X16876Y116581D01*
X17263Y116968D01*
X17473Y117475D01*
Y118023D01*
X17263Y118529D01*
X16876Y118917D01*
X16369Y119127D01*
D02*
G37*
G36*
X83739Y118701D02*
X83191D01*
X82684Y118491D01*
X82296Y118103D01*
X82087Y117597D01*
Y117049D01*
X82296Y116542D01*
X82684Y116155D01*
X83191Y115945D01*
X83739D01*
X84245Y116155D01*
X84633Y116542D01*
X84842Y117049D01*
Y117597D01*
X84633Y118103D01*
X84245Y118491D01*
X83739Y118701D01*
D02*
G37*
G36*
X150983Y118189D02*
X150435D01*
X149928Y117979D01*
X149540Y117592D01*
X149331Y117085D01*
Y116537D01*
X149540Y116031D01*
X149928Y115643D01*
X150435Y115433D01*
X150983D01*
X151489Y115643D01*
X151877Y116031D01*
X152087Y116537D01*
Y117085D01*
X151877Y117592D01*
X151489Y117979D01*
X150983Y118189D01*
D02*
G37*
G36*
X226249Y117617D02*
X225701D01*
X225195Y117407D01*
X224807Y117020D01*
X224597Y116513D01*
Y115965D01*
X224807Y115459D01*
X225195Y115071D01*
X225701Y114861D01*
X226249D01*
X226756Y115071D01*
X227143Y115459D01*
X227353Y115965D01*
Y116513D01*
X227143Y117020D01*
X226756Y117407D01*
X226249Y117617D01*
D02*
G37*
G36*
X255540Y117381D02*
X254992D01*
X254486Y117171D01*
X254098Y116783D01*
X253889Y116277D01*
Y115729D01*
X254098Y115223D01*
X254486Y114835D01*
X254992Y114625D01*
X255540D01*
X256047Y114835D01*
X256435Y115223D01*
X256644Y115729D01*
Y116277D01*
X256435Y116783D01*
X256047Y117171D01*
X255540Y117381D01*
D02*
G37*
G36*
X271690Y115433D02*
X270751D01*
X269882Y115074D01*
X269218Y114409D01*
X268858Y113541D01*
Y112601D01*
X269218Y111733D01*
X269882Y111068D01*
X270751Y110709D01*
X271690D01*
X272559Y111068D01*
X273223Y111733D01*
X273583Y112601D01*
Y113541D01*
X273223Y114409D01*
X272559Y115074D01*
X271690Y115433D01*
D02*
G37*
G36*
X256180Y108504D02*
X255631D01*
X255125Y108294D01*
X254737Y107907D01*
X254528Y107400D01*
Y106852D01*
X254737Y106345D01*
X255125Y105958D01*
X255631Y105748D01*
X256180D01*
X256686Y105958D01*
X257074Y106345D01*
X257283Y106852D01*
Y107400D01*
X257074Y107907D01*
X256686Y108294D01*
X256180Y108504D01*
D02*
G37*
G36*
X318542Y105433D02*
X317994D01*
X317487Y105223D01*
X317099Y104836D01*
X316890Y104329D01*
Y103781D01*
X317099Y103275D01*
X317487Y102887D01*
X317994Y102677D01*
X318542D01*
X319048Y102887D01*
X319436Y103275D01*
X319646Y103781D01*
Y104329D01*
X319436Y104836D01*
X319048Y105223D01*
X318542Y105433D01*
D02*
G37*
G36*
X307676D02*
X307127D01*
X306621Y105223D01*
X306233Y104836D01*
X306024Y104329D01*
Y103781D01*
X306233Y103275D01*
X306621Y102887D01*
X307127Y102677D01*
X307676D01*
X308182Y102887D01*
X308570Y103275D01*
X308780Y103781D01*
Y104329D01*
X308570Y104836D01*
X308182Y105223D01*
X307676Y105433D01*
D02*
G37*
G36*
X312794Y105354D02*
X312246D01*
X311739Y105145D01*
X311351Y104757D01*
X311142Y104251D01*
Y103702D01*
X311351Y103196D01*
X311739Y102808D01*
X312246Y102598D01*
X312794D01*
X313300Y102808D01*
X313688Y103196D01*
X313898Y103702D01*
Y104251D01*
X313688Y104757D01*
X313300Y105145D01*
X312794Y105354D01*
D02*
G37*
G36*
X188266Y102913D02*
X187718D01*
X187212Y102704D01*
X186824Y102316D01*
X186614Y101810D01*
Y101261D01*
X186824Y100755D01*
X187212Y100367D01*
X187718Y100157D01*
X188266D01*
X188773Y100367D01*
X189160Y100755D01*
X189370Y101261D01*
Y101810D01*
X189160Y102316D01*
X188773Y102704D01*
X188266Y102913D01*
D02*
G37*
G36*
X109511Y105706D02*
X108963D01*
X108456Y105496D01*
X108069Y105108D01*
X107859Y104602D01*
Y104054D01*
X108069Y103547D01*
X108456Y103160D01*
X108963Y102950D01*
X109507D01*
X109519Y102937D01*
X109787Y102523D01*
X109580Y102316D01*
X109370Y101810D01*
Y101261D01*
X109580Y100755D01*
X109968Y100367D01*
X110474Y100157D01*
X111022D01*
X111529Y100367D01*
X111916Y100755D01*
X112126Y101261D01*
Y101810D01*
X111916Y102316D01*
X111529Y102704D01*
X111022Y102913D01*
X110478D01*
X110466Y102926D01*
X110198Y103340D01*
X110405Y103547D01*
X110615Y104054D01*
Y104602D01*
X110405Y105108D01*
X110017Y105496D01*
X109511Y105706D01*
D02*
G37*
G36*
X140535Y98794D02*
X139987D01*
X139480Y98585D01*
X139093Y98197D01*
X138883Y97690D01*
Y97142D01*
X139093Y96636D01*
X139480Y96248D01*
X139987Y96038D01*
X140535D01*
X141042Y96248D01*
X141429Y96636D01*
X141639Y97142D01*
Y97690D01*
X141429Y98197D01*
X141042Y98585D01*
X140535Y98794D01*
D02*
G37*
G36*
X150117Y98661D02*
X149568D01*
X149062Y98452D01*
X148674Y98064D01*
X148465Y97558D01*
Y97009D01*
X148674Y96503D01*
X149062Y96115D01*
X149568Y95906D01*
X150117D01*
X150623Y96115D01*
X151011Y96503D01*
X151221Y97009D01*
Y97558D01*
X151011Y98064D01*
X150623Y98452D01*
X150117Y98661D01*
D02*
G37*
G36*
X215813Y94394D02*
X215265D01*
X214758Y94184D01*
X214371Y93796D01*
X214161Y93290D01*
Y92742D01*
X214371Y92235D01*
X214758Y91847D01*
X215265Y91638D01*
X215813D01*
X216319Y91847D01*
X216707Y92235D01*
X216917Y92742D01*
Y93290D01*
X216707Y93796D01*
X216319Y94184D01*
X215813Y94394D01*
D02*
G37*
G36*
X22559Y97638D02*
X15866D01*
Y90945D01*
X22559D01*
Y97638D01*
D02*
G37*
G36*
X348961Y91398D02*
X348413D01*
X347907Y91188D01*
X347519Y90800D01*
X347309Y90294D01*
Y89745D01*
X347519Y89239D01*
X347907Y88851D01*
X348413Y88642D01*
X348961D01*
X349468Y88851D01*
X349855Y89239D01*
X350065Y89745D01*
Y90294D01*
X349855Y90800D01*
X349468Y91188D01*
X348961Y91398D01*
D02*
G37*
G36*
X344333Y91155D02*
X343784D01*
X343278Y90945D01*
X342890Y90557D01*
X342681Y90051D01*
Y89503D01*
X342890Y88996D01*
X343278Y88608D01*
X343784Y88399D01*
X344333D01*
X344839Y88608D01*
X345227Y88996D01*
X345437Y89503D01*
Y90051D01*
X345227Y90557D01*
X344839Y90945D01*
X344333Y91155D01*
D02*
G37*
G36*
X208466Y90981D02*
X207918D01*
X207412Y90772D01*
X207024Y90384D01*
X206814Y89877D01*
Y89329D01*
X207024Y88823D01*
X207412Y88435D01*
X207918Y88226D01*
X208466D01*
X208973Y88435D01*
X209361Y88823D01*
X209570Y89329D01*
Y89877D01*
X209361Y90384D01*
X208973Y90772D01*
X208466Y90981D01*
D02*
G37*
G36*
X88895Y90000D02*
X87955D01*
X87087Y89640D01*
X86423Y88976D01*
X86063Y88108D01*
Y87168D01*
X86423Y86300D01*
X87087Y85635D01*
X87955Y85276D01*
X88895D01*
X89763Y85635D01*
X90428Y86300D01*
X90787Y87168D01*
Y88108D01*
X90428Y88976D01*
X89763Y89640D01*
X88895Y90000D01*
D02*
G37*
G36*
X326416Y87756D02*
X325868D01*
X325361Y87546D01*
X324974Y87159D01*
X324764Y86652D01*
Y86104D01*
X324974Y85597D01*
X325361Y85210D01*
X325868Y85000D01*
X326416D01*
X326922Y85210D01*
X327310Y85597D01*
X327520Y86104D01*
Y86652D01*
X327310Y87159D01*
X326922Y87546D01*
X326416Y87756D01*
D02*
G37*
G36*
X238109Y87598D02*
X237561D01*
X237054Y87389D01*
X236666Y87001D01*
X236457Y86495D01*
Y85946D01*
X236666Y85440D01*
X237054Y85052D01*
X237561Y84842D01*
X238109D01*
X238615Y85052D01*
X239003Y85440D01*
X239213Y85946D01*
Y86495D01*
X239003Y87001D01*
X238615Y87389D01*
X238109Y87598D01*
D02*
G37*
G36*
X321810Y87520D02*
X321261D01*
X320755Y87310D01*
X320367Y86922D01*
X320158Y86416D01*
Y85868D01*
X320367Y85361D01*
X320755Y84974D01*
X321261Y84764D01*
X321810D01*
X322316Y84974D01*
X322704Y85361D01*
X322913Y85868D01*
Y86416D01*
X322704Y86922D01*
X322316Y87310D01*
X321810Y87520D01*
D02*
G37*
G36*
X107411Y91388D02*
X99833D01*
Y83809D01*
X107411D01*
Y91388D01*
D02*
G37*
G36*
X117636Y86457D02*
X117088D01*
X116582Y86247D01*
X116194Y85859D01*
X115984Y85353D01*
Y84805D01*
X116194Y84298D01*
X116582Y83911D01*
X117088Y83701D01*
X117636D01*
X118143Y83911D01*
X118530Y84298D01*
X118740Y84805D01*
Y85353D01*
X118530Y85859D01*
X118143Y86247D01*
X117636Y86457D01*
D02*
G37*
G36*
X19653Y87638D02*
X18772D01*
X17921Y87410D01*
X17158Y86969D01*
X16535Y86346D01*
X16094Y85583D01*
X15866Y84732D01*
Y83851D01*
X16094Y83000D01*
X16535Y82237D01*
X17158Y81613D01*
X17921Y81173D01*
X18772Y80945D01*
X19653D01*
X20504Y81173D01*
X21267Y81613D01*
X21890Y82237D01*
X22331Y83000D01*
X22559Y83851D01*
Y84732D01*
X22331Y85583D01*
X21890Y86346D01*
X21267Y86969D01*
X20504Y87410D01*
X19653Y87638D01*
D02*
G37*
G36*
X60353Y80827D02*
X59805D01*
X59298Y80617D01*
X58911Y80229D01*
X58729Y79792D01*
X58447Y79668D01*
X58201Y79614D01*
X58103Y79711D01*
X57597Y79921D01*
X57049D01*
X56542Y79711D01*
X56155Y79324D01*
X55945Y78817D01*
Y78269D01*
X56155Y77763D01*
X56542Y77375D01*
X56865Y77241D01*
X89041Y45065D01*
X89472Y44634D01*
X89876Y44364D01*
X90352Y44270D01*
X129689D01*
X129829Y44212D01*
X130377D01*
X130883Y44422D01*
X131271Y44809D01*
X131481Y45316D01*
Y45864D01*
X131271Y46371D01*
X130883Y46758D01*
X130377Y46968D01*
X129829D01*
X129323Y46758D01*
X90868D01*
X84521Y53105D01*
X84660Y53462D01*
X84755Y53578D01*
X103512D01*
X104667Y52423D01*
X104800Y52101D01*
X105188Y51713D01*
X105419Y51617D01*
X105436Y51467D01*
X105370Y51097D01*
X104964Y50929D01*
X104577Y50541D01*
X104367Y50035D01*
Y49487D01*
X104577Y48980D01*
X104964Y48593D01*
X105471Y48383D01*
X106019D01*
X106526Y48593D01*
X106913Y48980D01*
X107123Y49487D01*
Y50035D01*
X106913Y50541D01*
X106526Y50929D01*
X106295Y51025D01*
X106278Y51176D01*
X106344Y51545D01*
X106749Y51713D01*
X107137Y52101D01*
X107347Y52607D01*
Y53155D01*
X107137Y53662D01*
X106749Y54049D01*
X106427Y54183D01*
X104907Y55703D01*
X104503Y55972D01*
X104027Y56067D01*
X85220D01*
X61380Y79907D01*
X61247Y80229D01*
X60859Y80617D01*
X60353Y80827D01*
D02*
G37*
G36*
X188188Y81496D02*
X187639D01*
X187133Y81286D01*
X186745Y80899D01*
X186535Y80392D01*
Y79844D01*
X186745Y79338D01*
X187133Y78950D01*
X187639Y78740D01*
X188188D01*
X188694Y78950D01*
X189082Y79338D01*
X189291Y79844D01*
Y80392D01*
X189082Y80899D01*
X188694Y81286D01*
X188188Y81496D01*
D02*
G37*
G36*
X233698Y79724D02*
X232758D01*
X231890Y79365D01*
X231226Y78700D01*
X230866Y77832D01*
Y76892D01*
X231226Y76024D01*
X231890Y75360D01*
X232758Y75000D01*
X233698D01*
X234566Y75360D01*
X235231Y76024D01*
X235591Y76892D01*
Y77832D01*
X235231Y78700D01*
X234566Y79365D01*
X233698Y79724D01*
D02*
G37*
G36*
X124329Y77244D02*
X123781D01*
X123275Y77034D01*
X122887Y76647D01*
X122677Y76140D01*
Y75592D01*
X122887Y75086D01*
X123275Y74698D01*
X123781Y74488D01*
X124329D01*
X124836Y74698D01*
X125223Y75086D01*
X125433Y75592D01*
Y76140D01*
X125223Y76647D01*
X124836Y77034D01*
X124329Y77244D01*
D02*
G37*
G36*
X221328Y74704D02*
X220780D01*
X220273Y74494D01*
X219886Y74106D01*
X219676Y73600D01*
Y73052D01*
X219886Y72545D01*
X220273Y72158D01*
X220780Y71948D01*
X221328D01*
X221834Y72158D01*
X222222Y72545D01*
X222432Y73052D01*
Y73600D01*
X222222Y74106D01*
X221834Y74494D01*
X221328Y74704D01*
D02*
G37*
G36*
X19653Y77638D02*
X18772D01*
X17921Y77410D01*
X17158Y76969D01*
X16535Y76346D01*
X16094Y75583D01*
X15866Y74732D01*
Y73851D01*
X16094Y73000D01*
X16535Y72237D01*
X17158Y71614D01*
X17921Y71173D01*
X18772Y70945D01*
X19653D01*
X20504Y71173D01*
X21267Y71614D01*
X21890Y72237D01*
X22331Y73000D01*
X22559Y73851D01*
Y74732D01*
X22331Y75583D01*
X21890Y76346D01*
X21267Y76969D01*
X20504Y77410D01*
X19653Y77638D01*
D02*
G37*
G36*
X77441Y74467D02*
X76893D01*
X76386Y74257D01*
X75999Y73870D01*
X75789Y73363D01*
Y72815D01*
X75999Y72309D01*
X76386Y71921D01*
X76893Y71711D01*
X76997D01*
X77441Y71694D01*
X77459Y71249D01*
Y71145D01*
X77669Y70638D01*
X78056Y70251D01*
X78563Y70041D01*
X79111D01*
X79618Y70251D01*
X80005Y70638D01*
X80215Y71145D01*
Y71693D01*
X80005Y72199D01*
X79618Y72587D01*
X79111Y72797D01*
X79006D01*
X78562Y72815D01*
X78545Y73259D01*
Y73363D01*
X78335Y73870D01*
X77947Y74257D01*
X77441Y74467D01*
D02*
G37*
G36*
X288285Y91142D02*
X286519D01*
X284774Y90865D01*
X283094Y90320D01*
X281521Y89518D01*
X280092Y88480D01*
X278843Y87231D01*
X277805Y85802D01*
X277003Y84228D01*
X276457Y82549D01*
X276181Y80804D01*
Y79038D01*
X276457Y77294D01*
X277003Y75614D01*
X277805Y74040D01*
X278843Y72612D01*
X280092Y71363D01*
X281521Y70325D01*
X283094Y69523D01*
X284774Y68977D01*
X286519Y68701D01*
X288285D01*
X290029Y68977D01*
X291709Y69523D01*
X293282Y70325D01*
X294711Y71363D01*
X295960Y72612D01*
X296998Y74040D01*
X297800Y75614D01*
X298346Y77294D01*
X298622Y79038D01*
Y80804D01*
X298346Y82549D01*
X297800Y84228D01*
X296998Y85802D01*
X295960Y87231D01*
X294711Y88480D01*
X293282Y89518D01*
X291709Y90320D01*
X290029Y90865D01*
X288285Y91142D01*
D02*
G37*
G36*
X143187Y68209D02*
X142639D01*
X142133Y67999D01*
X141745Y67611D01*
X141535Y67105D01*
Y66557D01*
X141745Y66050D01*
X142133Y65662D01*
X142639Y65453D01*
X143187D01*
X143694Y65662D01*
X144082Y66050D01*
X144291Y66557D01*
Y67105D01*
X144082Y67611D01*
X143694Y67999D01*
X143187Y68209D01*
D02*
G37*
G36*
X168551Y134584D02*
X167959Y134466D01*
X167458Y134131D01*
X167123Y133630D01*
X167005Y133038D01*
Y111393D01*
X167123Y110801D01*
X167352Y110458D01*
Y89408D01*
X165639Y87695D01*
X165488Y87469D01*
X165305Y87194D01*
X165305Y87194D01*
X165305Y87194D01*
X165261Y86977D01*
X165187Y86603D01*
Y63608D01*
X164771Y63330D01*
X164743Y63342D01*
X164438D01*
X164188Y63356D01*
X163976Y63793D01*
Y63916D01*
X163767Y64422D01*
X163379Y64810D01*
X162873Y65020D01*
X162324D01*
X161818Y64810D01*
X161430Y64422D01*
X161221Y63916D01*
Y63368D01*
X161430Y62861D01*
X161818Y62473D01*
X162324Y62264D01*
X162629D01*
X162879Y62250D01*
X163091Y61813D01*
Y61690D01*
X163300Y61184D01*
X163688Y60796D01*
X164195Y60586D01*
X164743D01*
X164771Y60598D01*
X165187Y60320D01*
Y57165D01*
X165305Y56574D01*
X165640Y56073D01*
X166141Y55738D01*
X166732Y55620D01*
X167324Y55738D01*
X167825Y56073D01*
X168160Y56574D01*
X168278Y57165D01*
Y85962D01*
X169990Y87675D01*
X170199Y87987D01*
X170325Y88177D01*
Y88177D01*
X170325Y88177D01*
X170392Y88511D01*
X170443Y88768D01*
Y111046D01*
X170325Y111637D01*
X170096Y111980D01*
Y133038D01*
X169978Y133630D01*
X169643Y134131D01*
X169142Y134466D01*
X168551Y134584D01*
D02*
G37*
G36*
X255938Y64210D02*
X255390D01*
X254883Y64000D01*
X254496Y63612D01*
X254286Y63106D01*
Y62558D01*
X254496Y62051D01*
X254883Y61664D01*
X255390Y61454D01*
X255938D01*
X256445Y61664D01*
X256832Y62051D01*
X257042Y62558D01*
Y63106D01*
X256832Y63612D01*
X256445Y64000D01*
X255938Y64210D01*
D02*
G37*
G36*
X19653Y67638D02*
X18772D01*
X17921Y67410D01*
X17158Y66969D01*
X16535Y66346D01*
X16094Y65583D01*
X15866Y64732D01*
Y63851D01*
X16094Y63000D01*
X16535Y62237D01*
X17158Y61614D01*
X17921Y61173D01*
X18772Y60945D01*
X19653D01*
X20504Y61173D01*
X21267Y61614D01*
X21890Y62237D01*
X22331Y63000D01*
X22559Y63851D01*
Y64732D01*
X22331Y65583D01*
X21890Y66346D01*
X21267Y66969D01*
X20504Y67410D01*
X19653Y67638D01*
D02*
G37*
G36*
X248025Y62123D02*
X247477D01*
X246970Y61913D01*
X246582Y61526D01*
X246373Y61019D01*
Y60471D01*
X246582Y59965D01*
X246970Y59577D01*
X247477Y59367D01*
X248025D01*
X248531Y59577D01*
X248919Y59965D01*
X249129Y60471D01*
Y61019D01*
X248919Y61526D01*
X248531Y61913D01*
X248025Y62123D01*
D02*
G37*
G36*
X125077Y62008D02*
X124529D01*
X124023Y61798D01*
X123635Y61410D01*
X123425Y60904D01*
Y60356D01*
X123635Y59849D01*
X124023Y59462D01*
X124529Y59252D01*
X125077D01*
X125584Y59462D01*
X125971Y59849D01*
X126181Y60356D01*
Y60904D01*
X125971Y61410D01*
X125584Y61798D01*
X125077Y62008D01*
D02*
G37*
G36*
X164363Y54446D02*
X163815D01*
X163309Y54236D01*
X162921Y53849D01*
X162711Y53342D01*
Y52794D01*
X162921Y52288D01*
X163309Y51900D01*
X163815Y51690D01*
X164363D01*
X164870Y51900D01*
X165257Y52288D01*
X165467Y52794D01*
Y53342D01*
X165257Y53849D01*
X164870Y54236D01*
X164363Y54446D01*
D02*
G37*
G36*
X19653Y57638D02*
X18772D01*
X17921Y57410D01*
X17158Y56969D01*
X16535Y56346D01*
X16094Y55583D01*
X15866Y54732D01*
Y53851D01*
X16094Y53000D01*
X16535Y52237D01*
X17158Y51613D01*
X17921Y51173D01*
X18772Y50945D01*
X19653D01*
X20504Y51173D01*
X21267Y51613D01*
X21890Y52237D01*
X22331Y53000D01*
X22559Y53851D01*
Y54732D01*
X22331Y55583D01*
X21890Y56346D01*
X21267Y56969D01*
X20504Y57410D01*
X19653Y57638D01*
D02*
G37*
G36*
X293030Y53307D02*
X292482D01*
X291975Y53097D01*
X291588Y52710D01*
X291378Y52203D01*
Y51655D01*
X291588Y51149D01*
X291975Y50761D01*
X292482Y50551D01*
X293030D01*
X293536Y50761D01*
X293924Y51149D01*
X294134Y51655D01*
Y52203D01*
X293924Y52710D01*
X293536Y53097D01*
X293030Y53307D01*
D02*
G37*
G36*
X96450Y52205D02*
X95902D01*
X95395Y51995D01*
X95008Y51607D01*
X94798Y51101D01*
Y50553D01*
X95008Y50046D01*
X95395Y49659D01*
X95902Y49449D01*
X96450D01*
X96956Y49659D01*
X97344Y50046D01*
X97554Y50553D01*
Y51101D01*
X97344Y51607D01*
X96956Y51995D01*
X96450Y52205D01*
D02*
G37*
G36*
X51219Y51457D02*
X50671D01*
X50164Y51247D01*
X49777Y50859D01*
X49567Y50353D01*
Y49805D01*
X49777Y49298D01*
X50164Y48911D01*
X50671Y48701D01*
X51219D01*
X51725Y48911D01*
X52113Y49298D01*
X52323Y49805D01*
Y50353D01*
X52113Y50859D01*
X51725Y51247D01*
X51219Y51457D01*
D02*
G37*
G36*
X133581Y48268D02*
X133033D01*
X132527Y48058D01*
X132139Y47670D01*
X131929Y47164D01*
Y46616D01*
X132139Y46109D01*
X132527Y45722D01*
X133033Y45512D01*
X133581D01*
X134088Y45722D01*
X134475Y46109D01*
X134685Y46616D01*
Y47164D01*
X134475Y47670D01*
X134088Y48058D01*
X133581Y48268D01*
D02*
G37*
G36*
X289093Y46890D02*
X288545D01*
X288038Y46680D01*
X287651Y46292D01*
X287441Y45786D01*
Y45238D01*
X287651Y44731D01*
X288038Y44344D01*
X288545Y44134D01*
X289093D01*
X289599Y44344D01*
X289987Y44731D01*
X290197Y45238D01*
Y45786D01*
X289987Y46292D01*
X289599Y46680D01*
X289093Y46890D01*
D02*
G37*
G36*
X146376Y45748D02*
X145828D01*
X145322Y45538D01*
X144934Y45151D01*
X144724Y44644D01*
Y44096D01*
X144934Y43589D01*
X145322Y43202D01*
X145828Y42992D01*
X146376D01*
X146883Y43202D01*
X147271Y43589D01*
X147480Y44096D01*
Y44644D01*
X147271Y45151D01*
X146883Y45538D01*
X146376Y45748D01*
D02*
G37*
G36*
X254053Y47205D02*
X253113D01*
X252245Y46845D01*
X251580Y46181D01*
X251220Y45312D01*
Y44373D01*
X251580Y43504D01*
X252245Y42840D01*
X253113Y42480D01*
X254053D01*
X254921Y42840D01*
X255585Y43504D01*
X255945Y44373D01*
Y45312D01*
X255585Y46181D01*
X254921Y46845D01*
X254053Y47205D01*
D02*
G37*
G36*
X272202Y46732D02*
X271262D01*
X270394Y46373D01*
X269730Y45708D01*
X269370Y44840D01*
Y43900D01*
X269730Y43032D01*
X270394Y42368D01*
X271262Y42008D01*
X272202D01*
X273070Y42368D01*
X273735Y43032D01*
X274095Y43900D01*
Y44840D01*
X273735Y45708D01*
X273070Y46373D01*
X272202Y46732D01*
D02*
G37*
G36*
X19653Y47638D02*
X18772D01*
X17921Y47410D01*
X17158Y46969D01*
X16535Y46346D01*
X16094Y45583D01*
X15866Y44732D01*
Y43851D01*
X16094Y43000D01*
X16535Y42237D01*
X17158Y41614D01*
X17921Y41173D01*
X18772Y40945D01*
X19653D01*
X20504Y41173D01*
X21267Y41614D01*
X21890Y42237D01*
X22331Y43000D01*
X22559Y43851D01*
Y44732D01*
X22331Y45583D01*
X21890Y46346D01*
X21267Y46969D01*
X20504Y47410D01*
X19653Y47638D01*
D02*
G37*
G36*
X104639Y43186D02*
X104091D01*
X103584Y42976D01*
X103197Y42589D01*
X102987Y42082D01*
Y41534D01*
X103197Y41028D01*
X103584Y40640D01*
X104091Y40430D01*
X104639D01*
X105145Y40640D01*
X105533Y41028D01*
X105743Y41534D01*
Y42082D01*
X105533Y42589D01*
X105145Y42976D01*
X104639Y43186D01*
D02*
G37*
G36*
X182754Y42205D02*
X182206D01*
X181700Y41995D01*
X181312Y41607D01*
X181102Y41101D01*
Y40553D01*
X181312Y40046D01*
X181700Y39659D01*
X182206Y39449D01*
X182754D01*
X183261Y39659D01*
X183649Y40046D01*
X183858Y40553D01*
Y41101D01*
X183649Y41607D01*
X183261Y41995D01*
X182754Y42205D01*
D02*
G37*
G36*
X190707Y40866D02*
X190159D01*
X189653Y40656D01*
X189265Y40269D01*
X189055Y39762D01*
Y39214D01*
X189265Y38708D01*
X189653Y38320D01*
X190159Y38110D01*
X190707D01*
X191214Y38320D01*
X191601Y38708D01*
X191811Y39214D01*
Y39762D01*
X191601Y40269D01*
X191214Y40656D01*
X190707Y40866D01*
D02*
G37*
G36*
X135392Y38189D02*
X134844D01*
X134338Y37979D01*
X133950Y37592D01*
X133740Y37085D01*
Y36537D01*
X133950Y36031D01*
X134338Y35643D01*
X134844Y35433D01*
X135392D01*
X135899Y35643D01*
X136286Y36031D01*
X136496Y36537D01*
Y37085D01*
X136286Y37592D01*
X135899Y37979D01*
X135392Y38189D01*
D02*
G37*
G36*
X228698Y35866D02*
X227759D01*
X226890Y35506D01*
X226226Y34842D01*
X225866Y33974D01*
Y33034D01*
X226226Y32166D01*
X226890Y31501D01*
X227759Y31142D01*
X228698D01*
X229566Y31501D01*
X230231Y32166D01*
X230591Y33034D01*
Y33974D01*
X230231Y34842D01*
X229566Y35506D01*
X228698Y35866D01*
D02*
G37*
G36*
X19653Y37638D02*
X18772D01*
X17921Y37410D01*
X17158Y36969D01*
X16535Y36346D01*
X16094Y35583D01*
X15866Y34732D01*
Y33851D01*
X16094Y33000D01*
X16535Y32237D01*
X17158Y31613D01*
X17921Y31173D01*
X18772Y30945D01*
X19653D01*
X20504Y31173D01*
X21267Y31613D01*
X21890Y32237D01*
X22331Y33000D01*
X22559Y33851D01*
Y34732D01*
X22331Y35583D01*
X21890Y36346D01*
X21267Y36969D01*
X20504Y37410D01*
X19653Y37638D01*
D02*
G37*
G36*
X128896Y33504D02*
X128348D01*
X127841Y33294D01*
X127454Y32906D01*
X127244Y32400D01*
Y31852D01*
X127454Y31345D01*
X127841Y30958D01*
X128348Y30748D01*
X128896D01*
X129403Y30958D01*
X129790Y31345D01*
X130000Y31852D01*
Y32400D01*
X129790Y32906D01*
X129403Y33294D01*
X128896Y33504D01*
D02*
G37*
G36*
X88265Y34646D02*
X87325D01*
X86457Y34286D01*
X85793Y33621D01*
X85433Y32753D01*
Y31814D01*
X85793Y30945D01*
X86457Y30281D01*
X87325Y29921D01*
X88265D01*
X89133Y30281D01*
X89798Y30945D01*
X90158Y31814D01*
Y32753D01*
X89798Y33621D01*
X89133Y34286D01*
X88265Y34646D01*
D02*
G37*
G36*
X187509Y30255D02*
X186961D01*
X186454Y30045D01*
X186067Y29658D01*
X185857Y29151D01*
Y28603D01*
X186067Y28097D01*
X186454Y27709D01*
X186961Y27499D01*
X187509D01*
X188015Y27709D01*
X188403Y28097D01*
X188613Y28603D01*
Y29151D01*
X188403Y29658D01*
X188015Y30045D01*
X187509Y30255D01*
D02*
G37*
G36*
X113463Y29528D02*
X112915D01*
X112408Y29318D01*
X112021Y28930D01*
X111811Y28424D01*
Y27876D01*
X112021Y27369D01*
X112408Y26981D01*
X112915Y26772D01*
X113463D01*
X113970Y26981D01*
X114357Y27369D01*
X114567Y27876D01*
Y28424D01*
X114357Y28930D01*
X113970Y29318D01*
X113463Y29528D01*
D02*
G37*
G36*
X51140Y28740D02*
X50592D01*
X50086Y28530D01*
X49698Y28143D01*
X49488Y27636D01*
Y27088D01*
X49698Y26582D01*
X50086Y26194D01*
X50592Y25984D01*
X51140D01*
X51647Y26194D01*
X52034Y26582D01*
X52244Y27088D01*
Y27636D01*
X52034Y28143D01*
X51647Y28530D01*
X51140Y28740D01*
D02*
G37*
G36*
X272281Y29331D02*
X271341D01*
X270473Y28971D01*
X269808Y28307D01*
X269449Y27438D01*
Y26499D01*
X269808Y25630D01*
X270473Y24966D01*
X271341Y24606D01*
X272281D01*
X273149Y24966D01*
X273814Y25630D01*
X274173Y26499D01*
Y27438D01*
X273814Y28307D01*
X273149Y28971D01*
X272281Y29331D01*
D02*
G37*
G36*
X254053D02*
X253113D01*
X252245Y28971D01*
X251580Y28307D01*
X251220Y27438D01*
Y26499D01*
X251580Y25630D01*
X252245Y24966D01*
X253113Y24606D01*
X254053D01*
X254921Y24966D01*
X255585Y25630D01*
X255945Y26499D01*
Y27438D01*
X255585Y28307D01*
X254921Y28971D01*
X254053Y29331D01*
D02*
G37*
G36*
X358148Y27008D02*
X357600D01*
X357094Y26798D01*
X356706Y26410D01*
X356496Y25904D01*
Y25356D01*
X356706Y24849D01*
X357094Y24462D01*
X357600Y24252D01*
X358148D01*
X358655Y24462D01*
X359042Y24849D01*
X359252Y25356D01*
Y25904D01*
X359042Y26410D01*
X358655Y26798D01*
X358148Y27008D01*
D02*
G37*
G36*
X385195Y26713D02*
X384647D01*
X384141Y26503D01*
X383753Y26115D01*
X383543Y25609D01*
Y25060D01*
X383753Y24554D01*
X384141Y24167D01*
X384647Y23957D01*
X385195D01*
X385702Y24167D01*
X386089Y24554D01*
X386299Y25060D01*
Y25609D01*
X386089Y26115D01*
X385702Y26503D01*
X385195Y26713D01*
D02*
G37*
G36*
X366022Y26614D02*
X365474D01*
X364967Y26405D01*
X364580Y26017D01*
X364370Y25510D01*
Y24962D01*
X364580Y24456D01*
X364967Y24068D01*
X365474Y23858D01*
X365508D01*
X366403Y22964D01*
Y22497D01*
X366238Y22324D01*
X365949Y22144D01*
X365707Y22244D01*
X365159D01*
X364653Y22034D01*
X364265Y21647D01*
X364055Y21140D01*
Y20592D01*
X364189Y20270D01*
Y18110D01*
X364283Y17634D01*
X364553Y17230D01*
X369053Y12731D01*
X369186Y12409D01*
X369574Y12021D01*
X370080Y11811D01*
X370628D01*
X371135Y12021D01*
X371522Y12409D01*
X371732Y12915D01*
Y13463D01*
X371522Y13970D01*
X371135Y14357D01*
X370812Y14491D01*
X366677Y18626D01*
Y20270D01*
X366811Y20592D01*
Y20837D01*
X367311Y21044D01*
X375227Y13128D01*
X375470Y12965D01*
X375667Y12769D01*
X376173Y12559D01*
X376721D01*
X377228Y12769D01*
X377615Y13157D01*
X377825Y13663D01*
Y14211D01*
X377615Y14718D01*
X377228Y15105D01*
X376721Y15315D01*
X376276D01*
X368691Y22900D01*
Y23438D01*
X368604Y23876D01*
X368356Y24247D01*
X367126Y25476D01*
Y25510D01*
X366916Y26017D01*
X366529Y26405D01*
X366022Y26614D01*
D02*
G37*
G36*
X318621Y24843D02*
X318072D01*
X317566Y24633D01*
X317178Y24245D01*
X316968Y23739D01*
Y23190D01*
X317178Y22684D01*
X317566Y22296D01*
X318072Y22087D01*
X318621D01*
X319127Y22296D01*
X319515Y22684D01*
X319724Y23190D01*
Y23739D01*
X319515Y24245D01*
X319127Y24633D01*
X318621Y24843D01*
D02*
G37*
G36*
X310117Y25098D02*
X309568D01*
X309062Y24889D01*
X308674Y24501D01*
X308465Y23995D01*
Y23446D01*
X308674Y22940D01*
X309062Y22552D01*
X309568Y22343D01*
X310117D01*
X310623Y22552D01*
X311011Y22940D01*
X311540Y22911D01*
X311666Y22605D01*
X312054Y22218D01*
X312561Y22008D01*
X313109D01*
X313615Y22218D01*
X314003Y22605D01*
X314213Y23112D01*
Y23660D01*
X314003Y24166D01*
X313615Y24554D01*
X313109Y24764D01*
X312561D01*
X312054Y24554D01*
X311666Y24166D01*
X311137Y24195D01*
X311011Y24501D01*
X310623Y24889D01*
X310117Y25098D01*
D02*
G37*
G36*
X19653Y27638D02*
X18772D01*
X17921Y27410D01*
X17158Y26969D01*
X16535Y26346D01*
X16094Y25583D01*
X15866Y24732D01*
Y23851D01*
X16094Y23000D01*
X16535Y22237D01*
X17158Y21613D01*
X17921Y21173D01*
X18772Y20945D01*
X19653D01*
X20504Y21173D01*
X21267Y21613D01*
X21890Y22237D01*
X22331Y23000D01*
X22559Y23851D01*
Y24732D01*
X22331Y25583D01*
X21890Y26346D01*
X21267Y26969D01*
X20504Y27410D01*
X19653Y27638D01*
D02*
G37*
G36*
X251407Y22578D02*
X250858D01*
X250352Y22368D01*
X249964Y21980D01*
X249755Y21474D01*
Y20926D01*
X249964Y20419D01*
X250352Y20032D01*
X250858Y19822D01*
X251407D01*
X251913Y20032D01*
X252301Y20419D01*
X252510Y20926D01*
Y21474D01*
X252301Y21980D01*
X251913Y22368D01*
X251407Y22578D01*
D02*
G37*
G36*
X221485Y22460D02*
X220937D01*
X220431Y22250D01*
X220043Y21862D01*
X219833Y21356D01*
Y20808D01*
X220043Y20301D01*
X220431Y19914D01*
X220937Y19704D01*
X221485D01*
X221992Y19914D01*
X222379Y20301D01*
X222589Y20808D01*
Y21356D01*
X222379Y21862D01*
X221992Y22250D01*
X221485Y22460D01*
D02*
G37*
G36*
X107412Y25167D02*
X99833D01*
Y17589D01*
X107412D01*
Y25167D01*
D02*
G37*
G36*
X118970Y20312D02*
X118421D01*
X117915Y20102D01*
X117527Y19715D01*
X117318Y19208D01*
Y18660D01*
X117527Y18154D01*
X117915Y17766D01*
X118421Y17556D01*
X118970D01*
X119476Y17766D01*
X119864Y18154D01*
X120073Y18660D01*
Y19208D01*
X119864Y19715D01*
X119476Y20102D01*
X118970Y20312D01*
D02*
G37*
G36*
X185990Y20036D02*
X185442D01*
X184935Y19827D01*
X184548Y19439D01*
X184338Y18933D01*
Y18384D01*
X184548Y17878D01*
X184935Y17490D01*
X185442Y17280D01*
X185990D01*
X186496Y17490D01*
X186884Y17878D01*
X187094Y18384D01*
Y18933D01*
X186884Y19439D01*
X186496Y19827D01*
X185990Y20036D01*
D02*
G37*
G36*
X174915D02*
X174366D01*
X173860Y19827D01*
X173472Y19439D01*
X173262Y18933D01*
Y18384D01*
X173472Y17878D01*
X173860Y17490D01*
X174366Y17280D01*
X174915D01*
X175421Y17490D01*
X175809Y17878D01*
X176018Y18384D01*
Y18933D01*
X175809Y19439D01*
X175421Y19827D01*
X174915Y20036D01*
D02*
G37*
G36*
X384551Y22185D02*
X384002D01*
X383496Y21975D01*
X383108Y21588D01*
X382899Y21081D01*
Y20533D01*
X383108Y20027D01*
X383045Y19522D01*
X382690Y19166D01*
X382480Y18660D01*
Y18112D01*
X382690Y17605D01*
X383078Y17218D01*
X383584Y17008D01*
X384132D01*
X384639Y17218D01*
X385027Y17605D01*
X385236Y18112D01*
Y18660D01*
X385027Y19166D01*
X385089Y19671D01*
X385445Y20027D01*
X385654Y20533D01*
Y21081D01*
X385445Y21588D01*
X385057Y21975D01*
X384551Y22185D01*
D02*
G37*
G36*
X147361Y16339D02*
X146812D01*
X146306Y16129D01*
X145918Y15741D01*
X145709Y15235D01*
Y14686D01*
X145918Y14180D01*
X146306Y13792D01*
X146812Y13583D01*
X147361D01*
X147867Y13792D01*
X148255Y14180D01*
X148465Y14686D01*
Y15235D01*
X148255Y15741D01*
X147867Y16129D01*
X147361Y16339D01*
D02*
G37*
G36*
X389841Y14528D02*
X389293D01*
X388786Y14318D01*
X388399Y13930D01*
X388189Y13424D01*
Y12876D01*
X388399Y12369D01*
X388786Y11981D01*
X389293Y11772D01*
X389841D01*
X390348Y11981D01*
X390735Y12369D01*
X390945Y12876D01*
Y13424D01*
X390735Y13930D01*
X390348Y14318D01*
X389841Y14528D01*
D02*
G37*
G36*
X357991Y14488D02*
X357442D01*
X356936Y14278D01*
X356548Y13891D01*
X356339Y13384D01*
Y12836D01*
X356548Y12330D01*
X356936Y11942D01*
X357442Y11732D01*
X357991D01*
X358497Y11942D01*
X358885Y12330D01*
X359095Y12836D01*
Y13384D01*
X358885Y13891D01*
X358497Y14278D01*
X357991Y14488D01*
D02*
G37*
G36*
X73384Y7323D02*
X72836D01*
X72330Y7113D01*
X71942Y6725D01*
X71732Y6219D01*
Y5671D01*
X71942Y5164D01*
X72330Y4777D01*
X72836Y4567D01*
X73384D01*
X73891Y4777D01*
X74278Y5164D01*
X74488Y5671D01*
Y6219D01*
X74278Y6725D01*
X73891Y7113D01*
X73384Y7323D01*
D02*
G37*
G36*
X128739Y7205D02*
X128191D01*
X127684Y6995D01*
X127296Y6607D01*
X127087Y6101D01*
Y5553D01*
X127296Y5046D01*
X127684Y4659D01*
X128191Y4449D01*
X128739D01*
X129245Y4659D01*
X129633Y5046D01*
X129842Y5553D01*
Y6101D01*
X129633Y6607D01*
X129245Y6995D01*
X128739Y7205D01*
D02*
G37*
G36*
X186654Y380195D02*
X186105D01*
X185599Y379986D01*
X185211Y379598D01*
X185002Y379092D01*
Y378543D01*
X185211Y378037D01*
X185599Y377649D01*
X186105Y377439D01*
X186654D01*
X187160Y377649D01*
X187548Y378037D01*
X187758Y378543D01*
Y379092D01*
X187548Y379598D01*
X187160Y379986D01*
X186654Y380195D01*
D02*
G37*
G36*
X191337Y375512D02*
X190789D01*
X190283Y375302D01*
X189895Y374914D01*
X189685Y374408D01*
Y373860D01*
X189895Y373353D01*
X190283Y372966D01*
X190789Y372756D01*
X191337D01*
X191844Y372966D01*
X192231Y373353D01*
X192441Y373860D01*
Y374408D01*
X192231Y374914D01*
X191844Y375302D01*
X191337Y375512D01*
D02*
G37*
G36*
X542510Y380315D02*
X541269D01*
X540052Y380073D01*
X538906Y379598D01*
X537874Y378908D01*
X536997Y378031D01*
X536307Y376999D01*
X535833Y375853D01*
X535591Y374636D01*
Y373395D01*
X535833Y372178D01*
X536307Y371032D01*
X536997Y370000D01*
X537874Y369123D01*
X538906Y368433D01*
X540052Y367958D01*
X541269Y367716D01*
X542510D01*
X543727Y367958D01*
X544874Y368433D01*
X545905Y369123D01*
X546783Y370000D01*
X547472Y371032D01*
X547947Y372178D01*
X548189Y373395D01*
Y374636D01*
X547947Y375853D01*
X547472Y376999D01*
X546783Y378031D01*
X545905Y378908D01*
X544874Y379598D01*
X543727Y380073D01*
X542510Y380315D01*
D02*
G37*
G36*
X236495Y370039D02*
X235946D01*
X235440Y369830D01*
X235052Y369442D01*
X234842Y368935D01*
Y368387D01*
X235052Y367881D01*
X235440Y367493D01*
X235946Y367284D01*
X236495D01*
X237001Y367493D01*
X237389Y367881D01*
X237598Y368387D01*
Y368935D01*
X237389Y369442D01*
X237001Y369830D01*
X236495Y370039D01*
D02*
G37*
G36*
X281534Y369016D02*
X280986D01*
X280479Y368806D01*
X280092Y368418D01*
X279882Y367912D01*
Y367364D01*
X280092Y366857D01*
X280479Y366470D01*
X280986Y366260D01*
X281534D01*
X282040Y366470D01*
X282428Y366857D01*
X282638Y367364D01*
Y367912D01*
X282428Y368418D01*
X282040Y368806D01*
X281534Y369016D01*
D02*
G37*
G36*
X491140Y363347D02*
X490592D01*
X490086Y363137D01*
X489698Y362749D01*
X489488Y362243D01*
Y361694D01*
X489698Y361188D01*
X489772Y361114D01*
X490074Y360787D01*
X489772Y360461D01*
X489698Y360387D01*
X489488Y359880D01*
Y359332D01*
X489698Y358826D01*
X490086Y358438D01*
X490592Y358228D01*
X491140D01*
X491647Y358438D01*
X492034Y358826D01*
X492244Y359332D01*
Y359880D01*
X492034Y360387D01*
X491960Y360461D01*
X491659Y360787D01*
X491960Y361114D01*
X492034Y361188D01*
X492244Y361694D01*
Y362243D01*
X492034Y362749D01*
X491647Y363137D01*
X491140Y363347D01*
D02*
G37*
G36*
X320509Y362008D02*
X319569D01*
X318701Y361648D01*
X318037Y360984D01*
X317677Y360116D01*
Y359176D01*
X318037Y358308D01*
X318701Y357643D01*
X319569Y357283D01*
X320509D01*
X321377Y357643D01*
X322042Y358308D01*
X322402Y359176D01*
Y360116D01*
X322042Y360984D01*
X321377Y361648D01*
X320509Y362008D01*
D02*
G37*
G36*
X474014Y361417D02*
X473466D01*
X472960Y361208D01*
X472572Y360820D01*
X472362Y360314D01*
Y359765D01*
X472572Y359259D01*
X472654Y359177D01*
X472815Y358714D01*
X472646Y358532D01*
X472431Y358316D01*
X472221Y357810D01*
Y357262D01*
X472431Y356755D01*
X472818Y356368D01*
X473325Y356158D01*
X473873D01*
X474379Y356368D01*
X474767Y356755D01*
X474977Y357262D01*
Y357810D01*
X474767Y358316D01*
X474685Y358398D01*
X474524Y358861D01*
X474693Y359044D01*
X474908Y359259D01*
X475118Y359765D01*
Y360314D01*
X474908Y360820D01*
X474521Y361208D01*
X474014Y361417D01*
D02*
G37*
G36*
X217282Y358779D02*
X216734D01*
X216227Y358569D01*
X215840Y358181D01*
X215630Y357675D01*
Y357127D01*
X215840Y356620D01*
X216227Y356233D01*
X216734Y356023D01*
X217282D01*
X217789Y356233D01*
X218176Y356620D01*
X218386Y357127D01*
Y357675D01*
X218176Y358181D01*
X217789Y358569D01*
X217282Y358779D01*
D02*
G37*
G36*
X320509Y356102D02*
X319569D01*
X318701Y355743D01*
X318037Y355078D01*
X317677Y354210D01*
Y353270D01*
X318037Y352402D01*
X318701Y351738D01*
X319569Y351378D01*
X320509D01*
X321377Y351738D01*
X322042Y352402D01*
X322402Y353270D01*
Y354210D01*
X322042Y355078D01*
X321377Y355743D01*
X320509Y356102D01*
D02*
G37*
G36*
X542510Y362008D02*
X541269D01*
X540052Y361766D01*
X538906Y361291D01*
X537874Y360601D01*
X536997Y359724D01*
X536307Y358692D01*
X535833Y357546D01*
X535591Y356329D01*
Y355088D01*
X535833Y353871D01*
X536307Y352725D01*
X536997Y351693D01*
X537874Y350816D01*
X538906Y350126D01*
X540052Y349652D01*
X541269Y349409D01*
X542510D01*
X543727Y349652D01*
X544874Y350126D01*
X545905Y350816D01*
X546783Y351693D01*
X547472Y352725D01*
X547947Y353871D01*
X548189Y355088D01*
Y356329D01*
X547947Y357546D01*
X547472Y358692D01*
X546783Y359724D01*
X545905Y360601D01*
X544874Y361291D01*
X543727Y361766D01*
X542510Y362008D01*
D02*
G37*
G36*
X491203Y352307D02*
X490655D01*
X490148Y352097D01*
X489760Y351709D01*
X489551Y351203D01*
Y350655D01*
X489760Y350148D01*
X489842Y350066D01*
X490003Y349604D01*
X489834Y349421D01*
X489619Y349206D01*
X489409Y348699D01*
Y348151D01*
X489619Y347645D01*
X490007Y347257D01*
X490513Y347047D01*
X491061D01*
X491568Y347257D01*
X491956Y347645D01*
X492165Y348151D01*
Y348699D01*
X491956Y349206D01*
X491874Y349288D01*
X491713Y349750D01*
X491882Y349933D01*
X492097Y350148D01*
X492307Y350655D01*
Y351203D01*
X492097Y351709D01*
X491709Y352097D01*
X491203Y352307D01*
D02*
G37*
G36*
X320509Y350197D02*
X319569D01*
X318701Y349837D01*
X318037Y349173D01*
X317677Y348305D01*
Y347365D01*
X318037Y346497D01*
X318701Y345832D01*
X319569Y345473D01*
X320509D01*
X321377Y345832D01*
X322042Y346497D01*
X322402Y347365D01*
Y348305D01*
X322042Y349173D01*
X321377Y349837D01*
X320509Y350197D01*
D02*
G37*
G36*
X480443Y347824D02*
X479895D01*
X479389Y347614D01*
X479001Y347227D01*
X478792Y346720D01*
Y346172D01*
X479001Y345666D01*
X479389Y345278D01*
X479845Y345089D01*
X479895Y344916D01*
X479894Y344568D01*
X479876Y344561D01*
X479488Y344173D01*
X479279Y343667D01*
Y343119D01*
X479488Y342612D01*
X479876Y342225D01*
X480382Y342015D01*
X480931D01*
X481437Y342225D01*
X481825Y342612D01*
X482035Y343119D01*
Y343667D01*
X481825Y344173D01*
X481437Y344561D01*
X480981Y344750D01*
X480931Y344923D01*
X480932Y345270D01*
X480950Y345278D01*
X481338Y345666D01*
X481547Y346172D01*
Y346720D01*
X481338Y347227D01*
X480950Y347614D01*
X480443Y347824D01*
D02*
G37*
G36*
X513403Y335572D02*
X512855D01*
X512349Y335362D01*
X511961Y334974D01*
X511751Y334468D01*
Y333920D01*
X511961Y333413D01*
X512055Y333319D01*
X512338Y333013D01*
X512055Y332665D01*
X511981Y332592D01*
X511772Y332085D01*
Y331537D01*
X511981Y331031D01*
X512369Y330643D01*
X512876Y330433D01*
X513424D01*
X513930Y330643D01*
X514318Y331031D01*
X514528Y331537D01*
Y332085D01*
X514318Y332592D01*
X514223Y332686D01*
X513941Y332992D01*
X514223Y333339D01*
X514297Y333413D01*
X514507Y333920D01*
Y334468D01*
X514297Y334974D01*
X513910Y335362D01*
X513403Y335572D01*
D02*
G37*
G36*
X480760Y329351D02*
X480212D01*
X479706Y329141D01*
X479318Y328754D01*
X479108Y328247D01*
Y327699D01*
X479318Y327193D01*
X479415Y327096D01*
X479599Y326673D01*
X479415Y326443D01*
X479225Y326253D01*
X479016Y325746D01*
Y325198D01*
X479225Y324692D01*
X479613Y324304D01*
X480120Y324095D01*
X480668D01*
X481174Y324304D01*
X481562Y324692D01*
X481772Y325198D01*
Y325746D01*
X481562Y326253D01*
X481465Y326350D01*
X481281Y326773D01*
X481465Y327003D01*
X481654Y327193D01*
X481864Y327699D01*
Y328247D01*
X481654Y328754D01*
X481267Y329141D01*
X480760Y329351D01*
D02*
G37*
G36*
X423778Y322776D02*
X423230D01*
X422723Y322566D01*
X422336Y322178D01*
X422126Y321672D01*
Y321124D01*
X422336Y320617D01*
X422723Y320230D01*
X423230Y320020D01*
X423778D01*
X424285Y320230D01*
X424672Y320617D01*
X424882Y321124D01*
Y321672D01*
X424672Y322178D01*
X424285Y322566D01*
X423778Y322776D01*
D02*
G37*
G36*
X171573Y321890D02*
X171025D01*
X170519Y321680D01*
X170131Y321292D01*
X169921Y320786D01*
Y320238D01*
X170131Y319731D01*
X170519Y319344D01*
X171025Y319134D01*
X171573D01*
X172080Y319344D01*
X172467Y319731D01*
X172677Y320238D01*
Y320786D01*
X172467Y321292D01*
X172080Y321680D01*
X171573Y321890D01*
D02*
G37*
G36*
X542510Y330315D02*
X541269D01*
X540052Y330073D01*
X538906Y329598D01*
X537874Y328908D01*
X536997Y328031D01*
X536307Y326999D01*
X535833Y325853D01*
X535591Y324636D01*
Y323395D01*
X535833Y322178D01*
X536307Y321032D01*
X536997Y320000D01*
X537874Y319123D01*
X538906Y318433D01*
X540052Y317958D01*
X541269Y317716D01*
X542510D01*
X543727Y317958D01*
X544874Y318433D01*
X545905Y319123D01*
X546783Y320000D01*
X547472Y321032D01*
X547947Y322178D01*
X548189Y323395D01*
Y324636D01*
X547947Y325853D01*
X547472Y326999D01*
X546783Y328031D01*
X545905Y328908D01*
X544874Y329598D01*
X543727Y330073D01*
X542510Y330315D01*
D02*
G37*
G36*
X489450Y321037D02*
X488902D01*
X488396Y320827D01*
X488008Y320440D01*
X487798Y319933D01*
Y319385D01*
X488008Y318879D01*
X488107Y318780D01*
X488298Y318368D01*
X488107Y318127D01*
X487926Y317946D01*
X487717Y317439D01*
Y316891D01*
X487926Y316385D01*
X488314Y315997D01*
X488820Y315787D01*
X489369D01*
X489875Y315997D01*
X490263Y316385D01*
X490473Y316891D01*
Y317439D01*
X490263Y317946D01*
X490164Y318045D01*
X489973Y318457D01*
X490164Y318698D01*
X490344Y318879D01*
X490554Y319385D01*
Y319933D01*
X490344Y320440D01*
X489957Y320827D01*
X489450Y321037D01*
D02*
G37*
G36*
X201890Y317756D02*
X201342D01*
X200835Y317546D01*
X200448Y317159D01*
X200238Y316652D01*
Y316104D01*
X200448Y315597D01*
X200835Y315210D01*
X201342Y315000D01*
X201890D01*
X202396Y315210D01*
X202784Y315597D01*
X202994Y316104D01*
Y316652D01*
X202784Y317159D01*
X202396Y317546D01*
X201890Y317756D01*
D02*
G37*
G36*
X313424Y317579D02*
X312876D01*
X312369Y317369D01*
X311981Y316981D01*
X311772Y316475D01*
Y315927D01*
X311981Y315420D01*
X312369Y315033D01*
X312876Y314823D01*
X313424D01*
X313930Y315033D01*
X314318Y315420D01*
X314528Y315927D01*
Y316475D01*
X314318Y316981D01*
X313930Y317369D01*
X313424Y317579D01*
D02*
G37*
G36*
X310392Y316024D02*
X309844D01*
X309338Y315814D01*
X308950Y315426D01*
X308740Y314920D01*
Y314623D01*
X308476Y314281D01*
X308278Y314213D01*
X307875D01*
X307369Y314003D01*
X306981Y313615D01*
X306772Y313109D01*
Y312561D01*
X306981Y312054D01*
X307369Y311666D01*
X307875Y311457D01*
X308424D01*
X308930Y311666D01*
X309318Y312054D01*
X309528Y312561D01*
Y312858D01*
X309791Y313199D01*
X309990Y313268D01*
X310392D01*
X310899Y313477D01*
X311286Y313865D01*
X311496Y314372D01*
Y314920D01*
X311286Y315426D01*
X310899Y315814D01*
X310392Y316024D01*
D02*
G37*
G36*
X203663Y312003D02*
X203115D01*
X202608Y311794D01*
X202221Y311406D01*
X202011Y310899D01*
Y310351D01*
X202221Y309845D01*
X202608Y309457D01*
X203115Y309247D01*
X203663D01*
X204169Y309457D01*
X204557Y309845D01*
X204767Y310351D01*
Y310899D01*
X204557Y311406D01*
X204169Y311794D01*
X203663Y312003D01*
D02*
G37*
G36*
X200343Y309320D02*
X199794D01*
X199288Y309111D01*
X198900Y308723D01*
X198690Y308217D01*
Y307668D01*
X198900Y307162D01*
X199288Y306774D01*
X199794Y306564D01*
X200343D01*
X200849Y306774D01*
X201237Y307162D01*
X201446Y307668D01*
Y308217D01*
X201237Y308723D01*
X200849Y309111D01*
X200343Y309320D01*
D02*
G37*
G36*
X181888Y306575D02*
X181340D01*
X180834Y306365D01*
X180446Y305977D01*
X180236Y305471D01*
Y304923D01*
X180446Y304416D01*
X180834Y304029D01*
X181340Y303819D01*
X181888D01*
X182395Y304029D01*
X182782Y304416D01*
X182992Y304923D01*
Y305471D01*
X182782Y305977D01*
X182395Y306365D01*
X181888Y306575D01*
D02*
G37*
G36*
X542510Y312008D02*
X541269D01*
X540052Y311766D01*
X538906Y311291D01*
X537874Y310601D01*
X536997Y309724D01*
X536307Y308692D01*
X535833Y307546D01*
X535591Y306329D01*
Y305088D01*
X535833Y303871D01*
X536307Y302725D01*
X536997Y301693D01*
X537874Y300816D01*
X538906Y300126D01*
X540052Y299652D01*
X541269Y299409D01*
X542510D01*
X543727Y299652D01*
X544874Y300126D01*
X545905Y300816D01*
X546783Y301693D01*
X547472Y302725D01*
X547947Y303871D01*
X548189Y305088D01*
Y306329D01*
X547947Y307546D01*
X547472Y308692D01*
X546783Y309724D01*
X545905Y310601D01*
X544874Y311291D01*
X543727Y311766D01*
X542510Y312008D01*
D02*
G37*
G36*
X378836Y311614D02*
X377070D01*
X375325Y311338D01*
X373646Y310792D01*
X372072Y309990D01*
X370643Y308952D01*
X369394Y307703D01*
X368356Y306275D01*
X367554Y304701D01*
X367009Y303021D01*
X366732Y301277D01*
Y299511D01*
X367009Y297766D01*
X367554Y296087D01*
X368356Y294513D01*
X369394Y293084D01*
X370643Y291835D01*
X372072Y290797D01*
X373646Y289995D01*
X375325Y289450D01*
X377070Y289173D01*
X378836D01*
X380580Y289450D01*
X382260Y289995D01*
X383834Y290797D01*
X385262Y291835D01*
X386511Y293084D01*
X387549Y294513D01*
X388351Y296087D01*
X388897Y297766D01*
X389173Y299511D01*
Y301277D01*
X388897Y303021D01*
X388351Y304701D01*
X387549Y306275D01*
X386511Y307703D01*
X385262Y308952D01*
X383834Y309990D01*
X382260Y310792D01*
X380580Y311338D01*
X378836Y311614D01*
D02*
G37*
G36*
X288285D02*
X286519D01*
X284774Y311338D01*
X283094Y310792D01*
X281521Y309990D01*
X280092Y308952D01*
X278843Y307703D01*
X277805Y306275D01*
X277003Y304701D01*
X276457Y303021D01*
X276181Y301277D01*
Y299511D01*
X276457Y297766D01*
X277003Y296087D01*
X277805Y294513D01*
X278843Y293084D01*
X280092Y291835D01*
X281521Y290797D01*
X283094Y289995D01*
X284774Y289450D01*
X286519Y289173D01*
X288285D01*
X290029Y289450D01*
X291709Y289995D01*
X293282Y290797D01*
X294711Y291835D01*
X295960Y293084D01*
X296998Y294513D01*
X297800Y296087D01*
X298346Y297766D01*
X298622Y299511D01*
Y301277D01*
X298346Y303021D01*
X297800Y304701D01*
X296998Y306275D01*
X295960Y307703D01*
X294711Y308952D01*
X293282Y309990D01*
X291709Y310792D01*
X290029Y311338D01*
X288285Y311614D01*
D02*
G37*
G36*
X230353Y289370D02*
X229805D01*
X229298Y289160D01*
X228911Y288773D01*
X228701Y288266D01*
Y287718D01*
X228911Y287212D01*
X229298Y286824D01*
X229805Y286614D01*
X230353D01*
X230859Y286824D01*
X231247Y287212D01*
X231457Y287718D01*
Y288266D01*
X231247Y288773D01*
X230859Y289160D01*
X230353Y289370D01*
D02*
G37*
G36*
X395550Y279842D02*
X395002D01*
X394495Y279633D01*
X394107Y279245D01*
X393898Y278739D01*
Y278190D01*
X394107Y277684D01*
X394495Y277296D01*
X395002Y277087D01*
X395550D01*
X396056Y277296D01*
X396444Y277684D01*
X396654Y278190D01*
Y278739D01*
X396444Y279245D01*
X396056Y279633D01*
X395550Y279842D01*
D02*
G37*
G36*
X216298Y277323D02*
X215750D01*
X215243Y277113D01*
X214856Y276725D01*
X214646Y276219D01*
Y275671D01*
X214856Y275164D01*
X215243Y274777D01*
X215750Y274567D01*
X216298D01*
X216804Y274777D01*
X217192Y275164D01*
X217402Y275671D01*
Y276219D01*
X217192Y276725D01*
X216804Y277113D01*
X216298Y277323D01*
D02*
G37*
G36*
X528113Y282920D02*
X527002D01*
X525929Y282632D01*
X524967Y282077D01*
X524181Y281291D01*
X523626Y280329D01*
X523338Y279256D01*
Y278145D01*
X523626Y277073D01*
X524181Y276111D01*
X524967Y275325D01*
X525929Y274770D01*
X527002Y274482D01*
X528113D01*
X529185Y274770D01*
X530148Y275325D01*
X530933Y276111D01*
X531488Y277073D01*
X531776Y278145D01*
Y279256D01*
X531488Y280329D01*
X530933Y281291D01*
X530148Y282077D01*
X529185Y282632D01*
X528113Y282920D01*
D02*
G37*
G36*
X488112D02*
X487002D01*
X485929Y282632D01*
X484967Y282077D01*
X484181Y281291D01*
X483626Y280329D01*
X483338Y279256D01*
Y278145D01*
X483626Y277073D01*
X484181Y276111D01*
X484967Y275325D01*
X485929Y274770D01*
X487002Y274482D01*
X488112D01*
X489185Y274770D01*
X490147Y275325D01*
X490933Y276111D01*
X491488Y277073D01*
X491776Y278145D01*
Y279256D01*
X491488Y280329D01*
X490933Y281291D01*
X490147Y282077D01*
X489185Y282632D01*
X488112Y282920D01*
D02*
G37*
G36*
X323186Y274646D02*
X322247D01*
X321378Y274286D01*
X320714Y273622D01*
X320354Y272753D01*
Y271814D01*
X320714Y270945D01*
X321378Y270281D01*
X322247Y269921D01*
X323186D01*
X324055Y270281D01*
X324719Y270945D01*
X325079Y271814D01*
Y272753D01*
X324719Y273622D01*
X324055Y274286D01*
X323186Y274646D01*
D02*
G37*
G36*
X316021D02*
X315081D01*
X314213Y274286D01*
X313549Y273622D01*
X313189Y272753D01*
Y271814D01*
X313549Y270945D01*
X314213Y270281D01*
X315081Y269921D01*
X316021D01*
X316889Y270281D01*
X317554Y270945D01*
X317913Y271814D01*
Y272753D01*
X317554Y273622D01*
X316889Y274286D01*
X316021Y274646D01*
D02*
G37*
G36*
X409920Y271260D02*
X409372D01*
X408865Y271050D01*
X408477Y270662D01*
X408268Y270156D01*
Y269608D01*
X408477Y269101D01*
X408865Y268714D01*
X409372Y268504D01*
X409920D01*
X410426Y268714D01*
X410814Y269101D01*
X411024Y269608D01*
Y270156D01*
X410814Y270662D01*
X410426Y271050D01*
X409920Y271260D01*
D02*
G37*
G36*
X503211Y265738D02*
X501825D01*
X500465Y265468D01*
X499184Y264937D01*
X498032Y264167D01*
X497051Y263187D01*
X496281Y262034D01*
X495751Y260753D01*
X495480Y259394D01*
Y258008D01*
X495751Y256648D01*
X496281Y255367D01*
X497051Y254215D01*
X498032Y253235D01*
X499184Y252464D01*
X500465Y251934D01*
X501825Y251663D01*
X503211D01*
X504570Y251934D01*
X505851Y252464D01*
X507004Y253235D01*
X507984Y254215D01*
X508754Y255367D01*
X509285Y256648D01*
X509555Y258008D01*
Y259394D01*
X509285Y260753D01*
X508754Y262034D01*
X507984Y263187D01*
X507004Y264167D01*
X505851Y264937D01*
X504570Y265468D01*
X503211Y265738D01*
D02*
G37*
G36*
X528113Y242919D02*
X527002D01*
X525929Y242632D01*
X524967Y242077D01*
X524181Y241291D01*
X523626Y240329D01*
X523338Y239256D01*
Y238145D01*
X523626Y237072D01*
X524181Y236110D01*
X524967Y235325D01*
X525929Y234770D01*
X527002Y234482D01*
X528113D01*
X529185Y234770D01*
X530148Y235325D01*
X530933Y236110D01*
X531488Y237072D01*
X531776Y238145D01*
Y239256D01*
X531488Y240329D01*
X530933Y241291D01*
X530148Y242077D01*
X529185Y242632D01*
X528113Y242919D01*
D02*
G37*
G36*
X488112D02*
X487002D01*
X485929Y242632D01*
X484967Y242077D01*
X484181Y241291D01*
X483626Y240329D01*
X483338Y239256D01*
Y238145D01*
X483626Y237072D01*
X484181Y236110D01*
X484967Y235325D01*
X485929Y234770D01*
X487002Y234482D01*
X488112D01*
X489185Y234770D01*
X490147Y235325D01*
X490933Y236110D01*
X491488Y237072D01*
X491776Y238145D01*
Y239256D01*
X491488Y240329D01*
X490933Y241291D01*
X490147Y242077D01*
X489185Y242632D01*
X488112Y242919D01*
D02*
G37*
G36*
X404093Y217835D02*
X403545D01*
X403038Y217625D01*
X402651Y217237D01*
X402441Y216731D01*
Y216183D01*
X402651Y215676D01*
X403038Y215288D01*
X403545Y215079D01*
X404093D01*
X404599Y215288D01*
X404987Y215676D01*
X405197Y216183D01*
Y216731D01*
X404987Y217237D01*
X404599Y217625D01*
X404093Y217835D01*
D02*
G37*
G36*
X403306Y26181D02*
X402757D01*
X402251Y25971D01*
X401863Y25584D01*
X401653Y25077D01*
Y24529D01*
X401863Y24023D01*
X402251Y23635D01*
X402757Y23425D01*
X403306D01*
X403812Y23635D01*
X404200Y24023D01*
X404410Y24529D01*
Y25077D01*
X404200Y25584D01*
X403812Y25971D01*
X403306Y26181D01*
D02*
G37*
%LPD*%
D10*
X365748Y25236D02*
X367547Y23438D01*
Y22426D02*
Y23438D01*
Y22426D02*
X376036Y13937D01*
X376447D01*
D13*
X369961Y175020D02*
X373362Y171619D01*
X369961Y175020D02*
Y178569D01*
X373362Y168806D02*
Y171619D01*
X360099Y180452D02*
X364330D01*
X360039Y180512D02*
X360099Y180452D01*
X368808Y179722D02*
X369961Y178569D01*
X364330Y180452D02*
X365060Y179722D01*
X373362Y168806D02*
X373504Y168664D01*
X365060Y179722D02*
X368808D01*
X371112Y169320D02*
X371209Y169224D01*
X367992Y177390D02*
X367992Y177390D01*
X367992Y172441D02*
Y177390D01*
X367992Y177390D02*
Y177753D01*
X367992Y172441D02*
X371209Y169224D01*
X356343Y182288D02*
X369484D01*
X372745Y174597D02*
Y179026D01*
X369484Y182288D02*
X372745Y179026D01*
X366811Y187205D02*
X381201Y172815D01*
Y169291D02*
Y172815D01*
X372745Y174597D02*
X377605Y169737D01*
Y169442D02*
Y169737D01*
Y169442D02*
X377756Y169291D01*
X28346Y154724D02*
X28425Y154646D01*
X97177D01*
X123200Y180669D01*
X425787Y200135D02*
Y206853D01*
X423483Y197831D02*
X425787Y200135D01*
X423483Y161908D02*
Y197831D01*
X418484Y156910D02*
X423483Y161908D01*
X78397Y209331D02*
X86476D01*
X276181Y243921D02*
X279588Y240515D01*
X335669Y187205D02*
X366811D01*
X337300Y183346D02*
X354451D01*
X277698Y245176D02*
X335669Y187205D01*
X277698Y245176D02*
Y249095D01*
X279588Y240515D02*
X280132D01*
X337300Y183346D01*
X337835Y180472D02*
X354528D01*
X279367Y238940D02*
X337835Y180472D01*
X277011Y238940D02*
X279367D01*
X354528Y180472D02*
X356343Y182288D01*
X165765Y179409D02*
X206142D01*
X123200Y180669D02*
X164506D01*
X165765Y179409D01*
X-10187Y232096D02*
X-10164D01*
X-4724Y237536D02*
Y237536D01*
X-10433Y231850D02*
X-10187Y232096D01*
X-10164D02*
X-4724Y237536D01*
Y237536D02*
X-2913Y239347D01*
X396673Y156910D02*
X418484D01*
X391929Y152165D02*
X396673Y156910D01*
X46271Y177205D02*
X78397Y209331D01*
X-2913Y239347D02*
Y273268D01*
X-4843Y275197D02*
X-2913Y273268D01*
X24488Y177205D02*
X46271D01*
X114567Y259882D02*
Y259958D01*
X124215Y269606D01*
X152559D01*
X165118Y282165D01*
D86*
X488661Y378583D02*
D03*
X253976Y345669D02*
D03*
X272284Y345590D02*
D03*
X272244Y362795D02*
D03*
X254016Y363110D02*
D03*
X386417Y345197D02*
D03*
X386181Y363583D02*
D03*
X367245Y363570D02*
D03*
X240669Y292874D02*
D03*
X361536Y57323D02*
D03*
Y62835D02*
D03*
X361496Y67953D02*
D03*
X362126Y137874D02*
D03*
Y143386D02*
D03*
X362087Y148504D02*
D03*
X358386Y217480D02*
D03*
Y222992D02*
D03*
X358386Y228110D02*
D03*
X462756Y46496D02*
D03*
X456850D02*
D03*
Y58307D02*
D03*
Y52402D02*
D03*
Y40551D02*
D03*
X462756Y58307D02*
D03*
Y52402D02*
D03*
Y40551D02*
D03*
X462716Y106063D02*
D03*
Y117913D02*
D03*
Y123819D02*
D03*
X456811Y106063D02*
D03*
Y117913D02*
D03*
Y123819D02*
D03*
Y112008D02*
D03*
X462716D02*
D03*
X462638Y178819D02*
D03*
X456732D02*
D03*
Y190630D02*
D03*
Y184724D02*
D03*
Y172874D02*
D03*
X462638Y190630D02*
D03*
Y184724D02*
D03*
Y172874D02*
D03*
X401142Y46772D02*
D03*
Y52677D02*
D03*
Y58583D02*
D03*
Y40905D02*
D03*
X401152Y111499D02*
D03*
Y117405D02*
D03*
Y123310D02*
D03*
Y105633D02*
D03*
X401142Y173346D02*
D03*
Y191024D02*
D03*
Y185118D02*
D03*
Y179213D02*
D03*
X385827Y255000D02*
D03*
X367598D02*
D03*
Y237126D02*
D03*
X385827D02*
D03*
X401339Y232244D02*
D03*
Y238150D02*
D03*
Y244055D02*
D03*
X395433D02*
D03*
Y238150D02*
D03*
Y232244D02*
D03*
X462598Y217717D02*
D03*
Y223622D02*
D03*
Y229528D02*
D03*
X451850Y214685D02*
D03*
X456693Y217717D02*
D03*
Y223622D02*
D03*
Y229528D02*
D03*
D88*
X315787Y54606D02*
X355472D01*
X315512Y54331D02*
X315787Y54606D01*
X356050Y135066D02*
X356102Y135118D01*
X315983Y135066D02*
X356050D01*
D90*
X360980Y94488D02*
X363175Y92293D01*
X388255D01*
X399134Y81415D01*
X430158Y194055D02*
Y265630D01*
X427006Y268781D02*
X430158Y265630D01*
X427715Y191613D02*
X430158Y194055D01*
X352756Y213701D02*
X352953Y213898D01*
X312795Y213701D02*
X352756D01*
X427795Y30197D02*
Y78050D01*
X427913Y150472D02*
Y191285D01*
X427894Y150453D02*
X427913Y150472D01*
X427894Y78288D02*
Y150453D01*
X431042Y18715D02*
Y26950D01*
X427795Y30197D02*
X431042Y26950D01*
X303189Y94488D02*
X360980D01*
X168551Y111393D02*
Y133038D01*
Y111393D02*
X168897Y111046D01*
Y111045D02*
Y111046D01*
Y88768D02*
Y88821D01*
Y111045D01*
X166732Y57165D02*
Y86603D01*
X168897Y88768D01*
D91*
X377605Y94836D02*
X377756Y94685D01*
X372792Y97027D02*
X375134Y94685D01*
X377605Y94836D02*
Y95759D01*
X372350Y97027D02*
X372792D01*
X367773Y105591D02*
X377605Y95759D01*
X368140Y101238D02*
Y101884D01*
X366096Y103927D02*
X368140Y101884D01*
Y101238D02*
X372350Y97027D01*
X417559Y272441D02*
X427756Y262244D01*
Y205158D02*
Y262244D01*
X417559Y272441D02*
Y275905D01*
X281024Y146227D02*
X297329Y129921D01*
X310925D01*
X-36142Y161299D02*
X13661D01*
X16693Y164331D01*
X427756Y205158D02*
X427894Y205020D01*
X237402Y235945D02*
X277913D01*
X233425Y233740D02*
X276828D01*
X426821Y24643D02*
X428524Y22940D01*
X426821Y24643D02*
Y24856D01*
X428524Y17047D02*
Y22940D01*
X-28555Y246496D02*
X-6968D01*
X-30758Y248700D02*
X-28555Y246496D01*
X-31063Y251772D02*
X-20722D01*
X-18675Y249724D01*
X276828Y233740D02*
X281566Y229003D01*
X277913Y235945D02*
X304606Y209252D01*
X104027Y54823D02*
X105969Y52881D01*
X84705Y54823D02*
X104027D01*
X281566Y229003D02*
X305092Y205476D01*
X328307Y169652D02*
X338305D01*
X344176Y163781D02*
X351363D01*
X355347Y83819D02*
X355496D01*
X90352Y45514D02*
X130029D01*
X89921Y45945D02*
X90352Y45514D01*
X365433Y18110D02*
X370354Y13189D01*
X365433Y18110D02*
Y20866D01*
X60079Y79449D02*
X84705Y54823D01*
X57323Y78543D02*
X89921Y45945D01*
X338305Y169652D02*
X344176Y163781D01*
X281850Y149921D02*
X299173Y132598D01*
X309294D01*
X60039Y79449D02*
X60079D01*
D93*
X502518Y89803D02*
D03*
Y33504D02*
D03*
Y146102D02*
D03*
Y202402D02*
D03*
D98*
X541890Y374016D02*
D03*
Y324016D02*
D03*
Y355709D02*
D03*
Y305709D02*
D03*
D99*
X377756Y94685D02*
D03*
X375134D02*
D03*
X360039Y180512D02*
D03*
X367992Y177753D02*
D03*
X187466Y300078D02*
D03*
X360097Y98647D02*
D03*
X367773Y105591D02*
D03*
X366096Y103927D02*
D03*
X365748Y25236D02*
D03*
X381201Y169291D02*
D03*
X377756D02*
D03*
X310925Y129921D02*
D03*
X10236Y157087D02*
D03*
X28346Y154724D02*
D03*
X16693Y164331D02*
D03*
X460669Y18425D02*
D03*
X445315Y311142D02*
D03*
X441890Y313819D02*
D03*
X421063Y311653D02*
D03*
X433583Y313032D02*
D03*
X413150Y314252D02*
D03*
X409567Y314291D02*
D03*
X425787Y206853D02*
D03*
X427894Y205020D02*
D03*
X432421Y202126D02*
D03*
X417402Y200512D02*
D03*
X431142Y269252D02*
D03*
X417559Y275905D02*
D03*
X237402Y235945D02*
D03*
X233425Y233740D02*
D03*
X426968Y268819D02*
D03*
X399134Y81415D02*
D03*
X224843Y330925D02*
D03*
X235984Y336043D02*
D03*
X86550Y209406D02*
D03*
X315512Y54331D02*
D03*
X315983Y135066D02*
D03*
X312795Y213701D02*
D03*
X276181Y243921D02*
D03*
X277011Y238940D02*
D03*
X2835Y127598D02*
D03*
X-36142Y161299D02*
D03*
X427677Y191575D02*
D03*
X427913Y150472D02*
D03*
X428524Y17047D02*
D03*
X431042Y18661D02*
D03*
X10079Y244488D02*
D03*
X-6968Y246496D02*
D03*
X-30758Y248700D02*
D03*
X-18675Y249724D02*
D03*
X422008Y285630D02*
D03*
X151989Y219339D02*
D03*
X119075Y300251D02*
D03*
X99252Y51221D02*
D03*
X359963Y246314D02*
D03*
X360039Y177520D02*
D03*
X-31063Y251772D02*
D03*
X281024Y146227D02*
D03*
X147008Y173268D02*
D03*
X168897Y88821D02*
D03*
X303189Y94488D02*
D03*
X427874Y78268D02*
D03*
X95945Y339724D02*
D03*
X94548Y277922D02*
D03*
X224882Y371693D02*
D03*
X27677Y321886D02*
D03*
X371161Y169272D02*
D03*
X354451Y183346D02*
D03*
X305092Y205476D02*
D03*
X304606Y209252D02*
D03*
X10079Y238189D02*
D03*
Y241339D02*
D03*
X-10433Y231850D02*
D03*
X117107Y75678D02*
D03*
X94115Y107213D02*
D03*
X118760Y128631D02*
D03*
X102362Y177362D02*
D03*
X117658Y191583D02*
D03*
X95611Y217410D02*
D03*
X117540Y237568D02*
D03*
X117697Y360993D02*
D03*
X152382Y111898D02*
D03*
X151359Y281544D02*
D03*
X151713Y343946D02*
D03*
X288052Y122450D02*
D03*
X357579Y18434D02*
D03*
X288819Y42835D02*
D03*
X361299Y88543D02*
D03*
X395945Y9921D02*
D03*
X285787Y201929D02*
D03*
X277698Y249095D02*
D03*
X-4843Y275197D02*
D03*
X206142Y179409D02*
D03*
X351432Y163760D02*
D03*
X391929Y152165D02*
D03*
X60079Y79449D02*
D03*
X355496Y83819D02*
D03*
X168551Y133038D02*
D03*
X130103Y45590D02*
D03*
X166806Y57241D02*
D03*
X105969Y52881D02*
D03*
X437795Y8701D02*
D03*
X455630Y289488D02*
D03*
X216881Y268720D02*
D03*
X365433Y20866D02*
D03*
X426821Y24856D02*
D03*
X403780Y18701D02*
D03*
X376447Y13937D02*
D03*
X207087Y358819D02*
D03*
X221496Y288976D02*
D03*
X177520Y289134D02*
D03*
X433779Y77992D02*
D03*
X437756Y141260D02*
D03*
X28819Y347283D02*
D03*
X357862Y171187D02*
D03*
X328307Y169612D02*
D03*
X373504Y168664D02*
D03*
X370354Y13189D02*
D03*
X24488Y177205D02*
D03*
X114567Y259882D02*
D03*
X165118Y282165D02*
D03*
X57323Y78543D02*
D03*
X281850Y149921D02*
D03*
X309294Y132598D02*
D03*
M02*
