G04*
G04 #@! TF.GenerationSoftware,Altium Limited,Altium Designer,23.4.1 (23)*
G04*
G04 Layer_Color=128*
%FSLAX25Y25*%
%MOIN*%
G70*
G04*
G04 #@! TF.SameCoordinates,E447F854-5271-4F4A-9DC8-1AB5E23A3DD3*
G04*
G04*
G04 #@! TF.FilePolarity,Positive*
G04*
G01*
G75*
%ADD20R,0.03740X0.03347*%
%ADD22R,0.03347X0.03740*%
%ADD23R,0.03543X0.02756*%
%ADD24R,0.02756X0.03543*%
%ADD36R,0.03937X0.03937*%
%ADD40R,0.12008X0.02402*%
%ADD42R,0.11024X0.02165*%
%ADD43R,0.06890X0.02362*%
%ADD94R,0.10630X0.05118*%
%ADD95R,0.05118X0.10630*%
%ADD96R,0.06102X0.05315*%
%ADD97R,0.11024X0.08661*%
%ADD98R,0.23622X0.09843*%
G36*
X549547Y291693D02*
X534232D01*
Y301535D01*
X536647D01*
X536647Y301535D01*
X537148Y300974D01*
X538322Y300037D01*
X539674Y299385D01*
X541139Y299050D01*
X542640D01*
X544105Y299385D01*
X545458Y300037D01*
X546631Y300974D01*
X547132Y301535D01*
X549547Y301535D01*
Y291693D01*
D02*
G37*
G36*
Y359882D02*
X547132D01*
X546631Y360443D01*
X545458Y361380D01*
X544105Y362033D01*
X542640Y362367D01*
X541139D01*
X539674Y362033D01*
X538322Y361380D01*
X537148Y360443D01*
X536647Y359882D01*
X534232D01*
Y369724D01*
X549547D01*
Y359882D01*
D02*
G37*
D20*
X175157Y370866D02*
D03*
Y375984D02*
D03*
X195276Y370866D02*
D03*
Y375984D02*
D03*
X236024Y347008D02*
D03*
Y341890D02*
D03*
X236023Y363898D02*
D03*
Y358780D02*
D03*
X189664Y303492D02*
D03*
Y308610D02*
D03*
X209742Y303492D02*
D03*
Y308610D02*
D03*
X64252Y313071D02*
D03*
Y307953D02*
D03*
X84331Y313071D02*
D03*
Y307953D02*
D03*
X124618Y280047D02*
D03*
Y285165D02*
D03*
Y295441D02*
D03*
Y300559D02*
D03*
X64842Y180079D02*
D03*
Y185197D02*
D03*
X84921Y180079D02*
D03*
Y185197D02*
D03*
X125208Y152173D02*
D03*
Y157291D02*
D03*
Y167567D02*
D03*
Y172685D02*
D03*
X175748Y169153D02*
D03*
Y174272D02*
D03*
X195827Y169153D02*
D03*
Y174272D02*
D03*
X64488Y68780D02*
D03*
Y63662D02*
D03*
X84567Y68780D02*
D03*
Y63662D02*
D03*
X124854Y35756D02*
D03*
Y40874D02*
D03*
Y51150D02*
D03*
Y56268D02*
D03*
X151270Y55343D02*
D03*
Y60461D02*
D03*
X171349Y55343D02*
D03*
Y60461D02*
D03*
D22*
X162323Y339291D02*
D03*
X167441D02*
D03*
X209291Y363898D02*
D03*
X204173D02*
D03*
X166772Y363898D02*
D03*
X161654D02*
D03*
X161654Y370512D02*
D03*
X166772D02*
D03*
X175404Y294358D02*
D03*
X180522D02*
D03*
X224664Y294358D02*
D03*
X219546D02*
D03*
X212409Y272370D02*
D03*
X207291D02*
D03*
X190839Y272370D02*
D03*
X185721D02*
D03*
X56220Y307598D02*
D03*
X51102D02*
D03*
X97087Y307597D02*
D03*
X91968D02*
D03*
Y300984D02*
D03*
X97087D02*
D03*
X51103D02*
D03*
X56221D02*
D03*
X50590Y282874D02*
D03*
X55709D02*
D03*
X50591Y276378D02*
D03*
X55709D02*
D03*
X209291Y370512D02*
D03*
X204173D02*
D03*
X167441Y345945D02*
D03*
X162323D02*
D03*
X97677Y179723D02*
D03*
X92559D02*
D03*
Y173110D02*
D03*
X97677D02*
D03*
X56811Y179724D02*
D03*
X51693D02*
D03*
X51693Y173110D02*
D03*
X56811D02*
D03*
X51181Y155000D02*
D03*
X56299D02*
D03*
X56299Y148504D02*
D03*
X51181D02*
D03*
X97323Y63306D02*
D03*
X92205D02*
D03*
Y56693D02*
D03*
X97323D02*
D03*
X168897Y24220D02*
D03*
X174016D02*
D03*
X198494Y138032D02*
D03*
X193376D02*
D03*
X161488Y160019D02*
D03*
X166606D02*
D03*
X210748Y160020D02*
D03*
X205630D02*
D03*
X176923Y138032D02*
D03*
X171805D02*
D03*
X522086Y377953D02*
D03*
X527205D02*
D03*
X50827Y32087D02*
D03*
X55945D02*
D03*
X147327Y24220D02*
D03*
X152445D02*
D03*
X56457Y63307D02*
D03*
X51339D02*
D03*
X50827Y38583D02*
D03*
X55945D02*
D03*
X51338Y56693D02*
D03*
X56457D02*
D03*
X137010Y46208D02*
D03*
X142128D02*
D03*
X186270D02*
D03*
X181152D02*
D03*
D23*
X202677Y358898D02*
D03*
Y353386D02*
D03*
X217176Y289087D02*
D03*
Y283575D02*
D03*
X198195Y266889D02*
D03*
Y272400D02*
D03*
X91417Y290197D02*
D03*
Y295709D02*
D03*
X92008Y167835D02*
D03*
Y162323D02*
D03*
X183937Y132559D02*
D03*
Y138071D02*
D03*
X203260Y154748D02*
D03*
Y149236D02*
D03*
X91653Y51418D02*
D03*
Y45906D02*
D03*
X178782Y40937D02*
D03*
Y35425D02*
D03*
D24*
X162126Y353228D02*
D03*
X167638D02*
D03*
X161457Y376063D02*
D03*
X166969D02*
D03*
X203976Y376063D02*
D03*
X209488D02*
D03*
X176742Y284732D02*
D03*
X182254D02*
D03*
X219349Y300264D02*
D03*
X224860D02*
D03*
X180719D02*
D03*
X175207D02*
D03*
X56102Y290000D02*
D03*
X50591D02*
D03*
X50906Y313150D02*
D03*
X56417D02*
D03*
X97283Y313150D02*
D03*
X91772D02*
D03*
X51181Y162126D02*
D03*
X56693D02*
D03*
X57008Y185276D02*
D03*
X51496D02*
D03*
X92362Y185276D02*
D03*
X97874D02*
D03*
X162827Y150394D02*
D03*
X168339D02*
D03*
X166803Y165925D02*
D03*
X161291D02*
D03*
X205433D02*
D03*
X210945D02*
D03*
X152642Y18583D02*
D03*
X147130D02*
D03*
X56653Y68858D02*
D03*
X51142D02*
D03*
X92008D02*
D03*
X97519D02*
D03*
X50827Y45709D02*
D03*
X56339D02*
D03*
X138349Y36583D02*
D03*
X143860D02*
D03*
X142325Y52114D02*
D03*
X136813D02*
D03*
X180955D02*
D03*
X186467D02*
D03*
D36*
X224191Y283551D02*
D03*
X230097D02*
D03*
X104252Y45905D02*
D03*
X98347D02*
D03*
X104252Y162323D02*
D03*
X98347D02*
D03*
X103661Y290197D02*
D03*
X97756D02*
D03*
X191457Y35433D02*
D03*
X185551D02*
D03*
X216181Y149213D02*
D03*
X210276D02*
D03*
X214488Y353346D02*
D03*
X208583D02*
D03*
D40*
X502598Y316653D02*
D03*
Y320669D02*
D03*
Y344764D02*
D03*
Y340748D02*
D03*
Y336732D02*
D03*
Y332716D02*
D03*
Y328701D02*
D03*
Y324685D02*
D03*
D42*
X-48976Y280280D02*
D03*
Y277130D02*
D03*
Y273980D02*
D03*
Y270831D02*
D03*
Y267681D02*
D03*
Y264531D02*
D03*
Y261382D02*
D03*
Y258232D02*
D03*
Y255083D02*
D03*
Y251933D02*
D03*
Y248783D02*
D03*
Y245634D02*
D03*
Y242484D02*
D03*
Y239335D02*
D03*
Y236185D02*
D03*
Y233035D02*
D03*
Y229886D02*
D03*
Y226736D02*
D03*
Y223587D02*
D03*
Y220437D02*
D03*
Y217287D02*
D03*
Y214138D02*
D03*
Y210988D02*
D03*
Y207839D02*
D03*
Y204689D02*
D03*
Y201539D02*
D03*
Y198390D02*
D03*
Y182642D02*
D03*
Y179492D02*
D03*
Y176343D02*
D03*
Y173193D02*
D03*
Y170043D02*
D03*
Y166894D02*
D03*
Y163744D02*
D03*
Y160594D02*
D03*
Y157445D02*
D03*
Y154295D02*
D03*
Y151146D02*
D03*
Y147996D02*
D03*
Y144846D02*
D03*
Y141697D02*
D03*
Y138547D02*
D03*
Y135398D02*
D03*
Y132248D02*
D03*
Y129098D02*
D03*
Y125949D02*
D03*
Y122799D02*
D03*
Y119650D02*
D03*
Y116500D02*
D03*
Y113350D02*
D03*
D43*
X189664Y279732D02*
D03*
Y284732D02*
D03*
Y289732D02*
D03*
Y294732D02*
D03*
X209742D02*
D03*
Y289732D02*
D03*
Y284732D02*
D03*
Y279732D02*
D03*
X151270Y31583D02*
D03*
Y36583D02*
D03*
Y41583D02*
D03*
Y46583D02*
D03*
X171349D02*
D03*
Y41583D02*
D03*
Y36583D02*
D03*
Y31583D02*
D03*
X84921Y157087D02*
D03*
Y162087D02*
D03*
Y167087D02*
D03*
Y172087D02*
D03*
X64842D02*
D03*
Y167087D02*
D03*
Y162087D02*
D03*
Y157087D02*
D03*
X175748Y145394D02*
D03*
Y150394D02*
D03*
Y155394D02*
D03*
Y160394D02*
D03*
X195827D02*
D03*
Y155394D02*
D03*
Y150394D02*
D03*
Y145394D02*
D03*
X175236Y348169D02*
D03*
Y353169D02*
D03*
Y358169D02*
D03*
Y363169D02*
D03*
X195315D02*
D03*
Y358169D02*
D03*
Y353169D02*
D03*
Y348169D02*
D03*
X64252Y284961D02*
D03*
Y289961D02*
D03*
Y294961D02*
D03*
Y299961D02*
D03*
X84331D02*
D03*
Y294961D02*
D03*
Y289961D02*
D03*
Y284961D02*
D03*
X64488Y40669D02*
D03*
Y45669D02*
D03*
Y50669D02*
D03*
Y55669D02*
D03*
X84567D02*
D03*
Y50669D02*
D03*
Y45669D02*
D03*
Y40669D02*
D03*
D94*
X438976Y294606D02*
D03*
Y305630D02*
D03*
X468819Y281535D02*
D03*
Y292559D02*
D03*
X421260Y222205D02*
D03*
Y211181D02*
D03*
X319921Y365079D02*
D03*
Y376102D02*
D03*
X408465Y222205D02*
D03*
Y211181D02*
D03*
X395669Y222205D02*
D03*
Y211181D02*
D03*
X426181Y294606D02*
D03*
Y305630D02*
D03*
X413386Y294606D02*
D03*
Y305630D02*
D03*
D95*
X283189Y280906D02*
D03*
X272165D02*
D03*
X283189Y320354D02*
D03*
X272165D02*
D03*
D96*
X224843Y358819D02*
D03*
Y366693D02*
D03*
X224803Y346968D02*
D03*
Y339094D02*
D03*
X113673Y277212D02*
D03*
Y285086D02*
D03*
Y296583D02*
D03*
Y304457D02*
D03*
X114263Y149338D02*
D03*
Y157212D02*
D03*
X114264Y168709D02*
D03*
Y176583D02*
D03*
X113909Y32921D02*
D03*
Y40795D02*
D03*
Y60165D02*
D03*
Y52291D02*
D03*
D97*
X262992Y345079D02*
D03*
Y363583D02*
D03*
X301969Y345079D02*
D03*
Y363583D02*
D03*
X337795Y113976D02*
D03*
Y132480D02*
D03*
X376772Y113976D02*
D03*
Y132480D02*
D03*
X301969Y132480D02*
D03*
Y113976D02*
D03*
X262992Y132480D02*
D03*
Y113976D02*
D03*
X301969Y45866D02*
D03*
Y27362D02*
D03*
X262992Y45866D02*
D03*
Y27362D02*
D03*
X376772Y45866D02*
D03*
Y27362D02*
D03*
X337795Y45866D02*
D03*
Y27362D02*
D03*
Y236811D02*
D03*
Y255315D02*
D03*
X376772Y236811D02*
D03*
Y255315D02*
D03*
X301969D02*
D03*
Y236811D02*
D03*
X262992Y255315D02*
D03*
Y236811D02*
D03*
X337795Y345079D02*
D03*
Y363583D02*
D03*
X376772Y345079D02*
D03*
Y363583D02*
D03*
X262992Y175394D02*
D03*
Y193898D02*
D03*
X301969Y175394D02*
D03*
Y193898D02*
D03*
X376772D02*
D03*
Y175394D02*
D03*
X337795Y193898D02*
D03*
Y175394D02*
D03*
D98*
X262992Y354331D02*
D03*
X301969D02*
D03*
X337795Y123228D02*
D03*
X376772D02*
D03*
X301969D02*
D03*
X262992D02*
D03*
X301969Y36614D02*
D03*
X262992D02*
D03*
X376772D02*
D03*
X337795D02*
D03*
Y246063D02*
D03*
X376772D02*
D03*
X301969D02*
D03*
X262992D02*
D03*
X337795Y354331D02*
D03*
X376772D02*
D03*
X262992Y184646D02*
D03*
X301969D02*
D03*
X376772D02*
D03*
X337795D02*
D03*
M02*
