G04*
G04 #@! TF.GenerationSoftware,Altium Limited,Altium Designer,24.9.1 (31)*
G04*
G04 Layer_Physical_Order=5*
G04 Layer_Color=16737945*
%FSLAX25Y25*%
%MOIN*%
G70*
G04*
G04 #@! TF.SameCoordinates,E4AAA2B5-EF63-4550-BCDA-9567FD91980C*
G04*
G04*
G04 #@! TF.FilePolarity,Positive*
G04*
G01*
G75*
%ADD10C,0.00787*%
%ADD101C,0.03937*%
%ADD104C,0.01968*%
%ADD105C,0.01772*%
%ADD106C,0.01181*%
%ADD110C,0.13287*%
%ADD114C,0.12598*%
%ADD115C,0.01968*%
G36*
X545972Y392535D02*
X546062Y392511D01*
X546052Y379412D01*
X545552Y379145D01*
X544874Y379598D01*
X543727Y380073D01*
X542510Y380315D01*
X541269D01*
X540052Y380073D01*
X538906Y379598D01*
X537874Y378908D01*
X536997Y378031D01*
X536307Y376999D01*
X535833Y375853D01*
X535591Y374636D01*
Y373395D01*
X535833Y372178D01*
X536307Y371032D01*
X536997Y370000D01*
X537874Y369123D01*
X538906Y368433D01*
X540052Y367958D01*
X541269Y367716D01*
X542510D01*
X543727Y367958D01*
X544874Y368433D01*
X545544Y368881D01*
X546044Y368614D01*
X546041Y365314D01*
X546038Y361114D01*
X545546Y360847D01*
X545538Y360847D01*
X544874Y361291D01*
X543727Y361766D01*
X542510Y362008D01*
X541269D01*
X540052Y361766D01*
X538906Y361291D01*
X537874Y360601D01*
X536997Y359724D01*
X536307Y358692D01*
X535833Y357546D01*
X535591Y356329D01*
Y355088D01*
X535833Y353871D01*
X536307Y352725D01*
X536997Y351693D01*
X537874Y350816D01*
X538906Y350126D01*
X540052Y349652D01*
X541269Y349409D01*
X542510D01*
X543727Y349652D01*
X544874Y350126D01*
X545530Y350565D01*
X546030Y350297D01*
X546013Y329438D01*
X545513Y329170D01*
X544874Y329598D01*
X543727Y330073D01*
X542510Y330315D01*
X541269D01*
X540052Y330073D01*
X538906Y329598D01*
X537874Y328908D01*
X536997Y328031D01*
X536307Y326999D01*
X535833Y325853D01*
X535591Y324636D01*
Y323395D01*
X535833Y322178D01*
X536307Y321032D01*
X536997Y320000D01*
X537874Y319123D01*
X538906Y318433D01*
X540052Y317958D01*
X541269Y317716D01*
X542510D01*
X543727Y317958D01*
X544874Y318433D01*
X545505Y318855D01*
X546005Y318588D01*
X545999Y311140D01*
X545499Y310873D01*
X544874Y311291D01*
X543727Y311766D01*
X542510Y312008D01*
X541269D01*
X540052Y311766D01*
X538906Y311291D01*
X537874Y310601D01*
X536997Y309724D01*
X536307Y308692D01*
X535833Y307546D01*
X535591Y306329D01*
Y305088D01*
X535833Y303871D01*
X536307Y302725D01*
X536997Y301693D01*
X537874Y300816D01*
X538906Y300126D01*
X540052Y299652D01*
X541269Y299409D01*
X542510D01*
X543727Y299652D01*
X544874Y300126D01*
X545491Y300539D01*
X545991Y300272D01*
X545958Y257969D01*
X545936Y228938D01*
X545938Y228871D01*
X545591Y228511D01*
X513478Y228452D01*
X481890Y228346D01*
X481053Y228753D01*
X480990Y228754D01*
X462697Y247047D01*
X447441D01*
X447252Y272281D01*
X457580Y282609D01*
X457739Y282675D01*
X458237Y283173D01*
X458507Y283824D01*
Y284529D01*
X458237Y285180D01*
X457739Y285679D01*
X457088Y285948D01*
X456383D01*
X455731Y285679D01*
X455233Y285180D01*
X455167Y285022D01*
X447674Y277529D01*
X447212Y277718D01*
X446850Y326083D01*
X407958Y364370D01*
X226083D01*
Y365018D01*
X225813Y365669D01*
X225315Y366167D01*
X224663Y366437D01*
X223959D01*
X223307Y366167D01*
X222809Y365669D01*
X222539Y365018D01*
Y364370D01*
X71823D01*
X71534Y356669D01*
X66831Y351378D01*
X1020D01*
Y381890D01*
X1020Y382597D01*
X1204Y384000D01*
X1570Y385366D01*
X2112Y386673D01*
X2819Y387898D01*
X3680Y389020D01*
X4681Y390021D01*
X5803Y390882D01*
X7028Y391589D01*
X8335Y392130D01*
X9701Y392497D01*
X11104Y392681D01*
X11811Y392681D01*
X11811Y392681D01*
X11811Y392681D01*
X543862Y392720D01*
X544569D01*
X545972Y392535D01*
D02*
G37*
G36*
X444855Y324535D02*
X445205Y277703D01*
X445283Y277324D01*
X445360Y276943D01*
X445363Y276940D01*
X445363Y276936D01*
X445581Y276616D01*
X445798Y276294D01*
X445803Y276285D01*
X445823Y275677D01*
X444069Y273923D01*
X443699Y273370D01*
X443570Y272717D01*
Y212639D01*
X443478Y212418D01*
Y211713D01*
X443564Y211505D01*
X443501Y211366D01*
X443154Y211134D01*
X442944Y211221D01*
X442240D01*
X441588Y210951D01*
X441090Y210453D01*
X440820Y209801D01*
Y209097D01*
X441090Y208445D01*
X441588Y207947D01*
X442240Y207677D01*
X442944D01*
X443596Y207947D01*
X444094Y208445D01*
X444172Y208634D01*
X444663Y208732D01*
X445637Y207758D01*
Y159896D01*
X445766Y159243D01*
X446030Y158848D01*
Y145369D01*
X445530Y145269D01*
X445499Y145345D01*
X445001Y145843D01*
X444349Y146113D01*
X443645D01*
X442993Y145843D01*
X442495Y145345D01*
X442225Y144694D01*
Y143989D01*
X442495Y143338D01*
X442993Y142839D01*
X443645Y142569D01*
X444349D01*
X445001Y142839D01*
X445499Y143338D01*
X445530Y143413D01*
X446030Y143314D01*
Y125383D01*
X446109Y124988D01*
Y91417D01*
X446043Y91259D01*
Y90554D01*
X446071Y90486D01*
Y28034D01*
X445910Y27874D01*
X445641Y27222D01*
Y26518D01*
X445910Y25866D01*
X446409Y25368D01*
X447060Y25098D01*
X447765D01*
X448416Y25368D01*
X448914Y25866D01*
X449036Y26160D01*
X449353Y26635D01*
X449483Y27288D01*
Y82229D01*
X449983Y82563D01*
X450184Y82480D01*
X450889D01*
X451540Y82750D01*
X451764Y82974D01*
X452264Y82767D01*
Y12007D01*
X449536Y9279D01*
X427107D01*
X426973Y9779D01*
X427184Y9901D01*
X427697Y10414D01*
X428060Y11043D01*
X428248Y11744D01*
Y12469D01*
X428060Y13170D01*
X427697Y13798D01*
X427184Y14312D01*
X426556Y14674D01*
X425855Y14862D01*
X425129D01*
X424428Y14674D01*
X423800Y14312D01*
X423287Y13798D01*
X422924Y13170D01*
X422736Y12469D01*
Y11744D01*
X422924Y11043D01*
X423287Y10414D01*
X423800Y9901D01*
X424011Y9779D01*
X423877Y9279D01*
X389665D01*
Y36220D01*
X401575D01*
X405709Y40354D01*
X405709Y58661D01*
X400787Y63583D01*
X389665Y63583D01*
Y67469D01*
X398188Y75991D01*
X398346Y76057D01*
X398845Y76556D01*
X399114Y77207D01*
Y77912D01*
X398845Y78563D01*
X398346Y79061D01*
X397695Y79331D01*
X396990D01*
X396339Y79061D01*
X395841Y78563D01*
X395775Y78404D01*
X390127Y72756D01*
X389665Y72948D01*
Y99410D01*
X398917D01*
X405413Y103740D01*
Y123228D01*
X399409Y129232D01*
X389665D01*
Y168012D01*
X401673D01*
X406102Y172441D01*
Y191831D01*
X400886Y197047D01*
X389665Y197047D01*
X389665Y220177D01*
X400787Y220177D01*
X407185Y226575D01*
X407185Y246949D01*
X400689Y253445D01*
X390316Y253445D01*
X389897Y253894D01*
X389903Y253965D01*
X390383Y254265D01*
X390496Y254218D01*
X391201D01*
X391852Y254488D01*
X392350Y254987D01*
X392620Y255638D01*
Y256342D01*
X392350Y256994D01*
X391852Y257492D01*
X391201Y257762D01*
X390496D01*
X390165Y257625D01*
X389665Y257959D01*
Y259253D01*
X389764Y259490D01*
Y260195D01*
X389665Y260433D01*
Y329339D01*
X383674Y334767D01*
X383844Y335288D01*
X384351Y335424D01*
X384980Y335787D01*
X385493Y336300D01*
X385856Y336928D01*
X386043Y337629D01*
Y338355D01*
X385856Y339056D01*
X385493Y339684D01*
X384980Y340197D01*
X384351Y340560D01*
X383650Y340748D01*
X382925D01*
X382224Y340560D01*
X381595Y340197D01*
X381082Y339684D01*
X380800Y339195D01*
X380665Y339156D01*
X380379D01*
X380244Y339195D01*
X379961Y339684D01*
X379448Y340197D01*
X378820Y340560D01*
X378119Y340748D01*
X377393D01*
X376692Y340560D01*
X376064Y340197D01*
X375729Y339862D01*
X374429D01*
X374232Y340060D01*
X373603Y340422D01*
X372902Y340610D01*
X372177D01*
X371476Y340422D01*
X370847Y340060D01*
X370650Y339862D01*
X320004D01*
X319980Y339893D01*
Y340619D01*
X319793Y341320D01*
X319430Y341948D01*
X318917Y342461D01*
X318288Y342824D01*
X317587Y343012D01*
X316862D01*
X316161Y342824D01*
X315532Y342461D01*
X315061Y341990D01*
X314815Y341939D01*
X314712D01*
X314466Y341990D01*
X313995Y342461D01*
X313367Y342824D01*
X312666Y343012D01*
X311940D01*
X311239Y342824D01*
X310611Y342461D01*
X310098Y341948D01*
X309984Y341750D01*
X309406D01*
X309292Y341948D01*
X308779Y342461D01*
X308150Y342824D01*
X307449Y343012D01*
X306724D01*
X306023Y342824D01*
X305395Y342461D01*
X304881Y341948D01*
X304519Y341320D01*
X304331Y340619D01*
Y339893D01*
X304307Y339862D01*
X75394D01*
X75394Y340915D01*
Y344414D01*
X75511Y344463D01*
X76010Y344961D01*
X76279Y345612D01*
Y346317D01*
X76010Y346968D01*
X75511Y347466D01*
X75394Y347515D01*
X75394Y362106D01*
X179230D01*
X179361Y361765D01*
X179376Y361606D01*
X178911Y361141D01*
X178642Y360490D01*
Y359785D01*
X178911Y359134D01*
X179269Y358776D01*
X179360Y358465D01*
X179269Y358153D01*
X178911Y357795D01*
X178642Y357144D01*
Y356439D01*
X178911Y355788D01*
X179410Y355289D01*
X180061Y355020D01*
X180766D01*
X181417Y355289D01*
X181915Y355788D01*
X182185Y356439D01*
Y357144D01*
X181915Y357795D01*
X181557Y358153D01*
X181467Y358465D01*
X181557Y358776D01*
X181915Y359134D01*
X182185Y359785D01*
Y360490D01*
X181915Y361141D01*
X181450Y361606D01*
X181465Y361765D01*
X181597Y362106D01*
X407283D01*
X444855Y324535D01*
D02*
G37*
G36*
X72022Y345014D02*
X73387Y343737D01*
Y340915D01*
X73387Y340915D01*
X73387Y340915D01*
X73387Y339862D01*
X73539Y339094D01*
X73539Y339094D01*
X73539Y339094D01*
X73758Y338767D01*
X73975Y338443D01*
X73975Y338443D01*
X73975Y338443D01*
X74298Y338227D01*
X74626Y338008D01*
X74626Y338008D01*
X74626Y338008D01*
X74977Y337938D01*
X75394Y337855D01*
X296490D01*
X305377Y337812D01*
X305509Y337311D01*
X305395Y337245D01*
X304881Y336732D01*
X304519Y336103D01*
X304331Y335402D01*
Y334677D01*
X304519Y333976D01*
X304881Y333347D01*
X305395Y332834D01*
X306023Y332471D01*
X306724Y332283D01*
X307449D01*
X308150Y332471D01*
X308779Y332834D01*
X309292Y333347D01*
X309463Y333644D01*
X310040D01*
X310098Y333544D01*
X310611Y333031D01*
X311239Y332668D01*
X311940Y332480D01*
X312666D01*
X313367Y332668D01*
X313995Y333031D01*
X314493Y333528D01*
X314562Y333589D01*
X315035D01*
X315118Y333446D01*
X315631Y332932D01*
X316259Y332570D01*
X316960Y332382D01*
X317686D01*
X318387Y332570D01*
X319015Y332932D01*
X319528Y333446D01*
X319891Y334074D01*
X320079Y334775D01*
Y335501D01*
X319891Y336202D01*
X319528Y336830D01*
X319114Y337244D01*
X319231Y337657D01*
X319290Y337743D01*
X368996Y337500D01*
Y307825D01*
X368019Y306481D01*
X367190Y304852D01*
X366625Y303113D01*
X366339Y301308D01*
Y299480D01*
X366625Y297674D01*
X367190Y295935D01*
X368019Y294307D01*
X368996Y292962D01*
Y261548D01*
X347549D01*
X347303Y262049D01*
X347507Y262541D01*
Y263246D01*
X347237Y263897D01*
X346739Y264396D01*
X346088Y264665D01*
X345383D01*
X344732Y264396D01*
X344233Y263897D01*
X343964Y263246D01*
Y262541D01*
X344168Y262049D01*
X343921Y261548D01*
X322457D01*
X322268Y262049D01*
X322513Y262640D01*
Y263345D01*
X322243Y263996D01*
X321745Y264494D01*
X321094Y264764D01*
X320836D01*
X320809Y264805D01*
Y265510D01*
X320539Y266161D01*
X320040Y266659D01*
X319389Y266929D01*
X318685D01*
X318033Y266659D01*
X317936Y266563D01*
X308292D01*
X302948Y271907D01*
X303139Y272369D01*
X307502D01*
X310932Y268938D01*
X310998Y268780D01*
X311496Y268282D01*
X312148Y268012D01*
X312852D01*
X313504Y268282D01*
X314002Y268780D01*
X314272Y269431D01*
Y270136D01*
X314002Y270787D01*
X313504Y271285D01*
X313345Y271351D01*
X309829Y274867D01*
X310036Y275367D01*
X321761D01*
X325492Y271635D01*
Y271498D01*
X325762Y270847D01*
X326260Y270349D01*
X326911Y270079D01*
X327616D01*
X328267Y270349D01*
X328766Y270847D01*
X329035Y271498D01*
Y272203D01*
X328766Y272854D01*
X328267Y273352D01*
X327616Y273622D01*
X327479D01*
X323336Y277765D01*
X322880Y278070D01*
X322343Y278177D01*
X194112D01*
X194015Y278274D01*
X193364Y278543D01*
X192659D01*
X192008Y278274D01*
X191961Y278226D01*
X173629D01*
X173529Y278726D01*
X173740Y278813D01*
X174238Y279311D01*
X174508Y279963D01*
Y280667D01*
X174238Y281318D01*
X173740Y281817D01*
X173594Y281877D01*
X173541Y282047D01*
X173532Y282444D01*
X173943Y282855D01*
X174213Y283506D01*
Y284211D01*
X173943Y284862D01*
X173444Y285360D01*
X172793Y285630D01*
X172089D01*
X171437Y285360D01*
X170939Y284862D01*
X170669Y284211D01*
Y283506D01*
X170939Y282855D01*
X171437Y282356D01*
X171583Y282296D01*
X171636Y282126D01*
X171645Y281729D01*
X171234Y281318D01*
X170965Y280667D01*
Y279963D01*
X171234Y279311D01*
X171733Y278813D01*
X171943Y278726D01*
X171844Y278226D01*
X61288D01*
X61141Y278372D01*
X60490Y278642D01*
X59785D01*
X59134Y278372D01*
X58636Y277874D01*
X58366Y277222D01*
Y276518D01*
X58636Y275867D01*
X59134Y275368D01*
X59785Y275098D01*
X60490D01*
X61141Y275368D01*
X61189Y275416D01*
X191862D01*
X192008Y275270D01*
X192659Y275000D01*
X193364D01*
X194015Y275270D01*
X194112Y275367D01*
X208074D01*
X208351Y274867D01*
X208169Y274427D01*
Y273722D01*
X208278Y273460D01*
X207944Y272960D01*
X7283D01*
X6746Y272853D01*
X6290Y272549D01*
X462Y266721D01*
X-0Y266912D01*
Y279998D01*
X6200Y286197D01*
X41823D01*
X41823Y286197D01*
X42284Y286289D01*
X42674Y286550D01*
X47274Y291149D01*
X47695D01*
X48346Y291419D01*
X48845Y291917D01*
X49114Y292569D01*
Y293273D01*
X48845Y293925D01*
X48346Y294423D01*
X47695Y294693D01*
X46990D01*
X46339Y294423D01*
X45841Y293925D01*
X45571Y293273D01*
Y292852D01*
X41324Y288606D01*
X5701D01*
X5701Y288606D01*
X5240Y288514D01*
X4849Y288253D01*
X462Y283866D01*
X-0Y284057D01*
Y293173D01*
X390Y293251D01*
X721Y293472D01*
X942Y293803D01*
X1020Y294193D01*
Y349371D01*
X10922D01*
X11129Y348871D01*
X10998Y348740D01*
X10728Y348089D01*
Y347384D01*
X10998Y346733D01*
X11496Y346234D01*
X12148Y345965D01*
X12852D01*
X13504Y346234D01*
X14002Y346733D01*
X14272Y347384D01*
Y348089D01*
X14002Y348740D01*
X13871Y348871D01*
X14078Y349371D01*
X66831D01*
X66889Y349382D01*
X66949Y349374D01*
X67271Y349459D01*
X72022Y345014D01*
D02*
G37*
G36*
X60895Y277502D02*
X60917Y277483D01*
X60941Y277466D01*
X60967Y277452D01*
X60994Y277439D01*
X61023Y277429D01*
X61054Y277421D01*
X61087Y277416D01*
X61121Y277413D01*
X61157Y277411D01*
X61083Y276230D01*
X61046Y276230D01*
X60979Y276223D01*
X60949Y276217D01*
X60920Y276209D01*
X60893Y276200D01*
X60868Y276189D01*
X60845Y276177D01*
X60824Y276163D01*
X60805Y276147D01*
X60874Y277523D01*
X60895Y277502D01*
D02*
G37*
G36*
X192275Y276119D02*
X192255Y276140D01*
X192232Y276159D01*
X192208Y276176D01*
X192183Y276190D01*
X192155Y276202D01*
X192126Y276212D01*
X192095Y276220D01*
X192063Y276226D01*
X192029Y276229D01*
X191993Y276230D01*
X192067Y277411D01*
X192103Y277412D01*
X192170Y277419D01*
X192201Y277425D01*
X192230Y277432D01*
X192256Y277442D01*
X192281Y277452D01*
X192304Y277465D01*
X192325Y277479D01*
X192344Y277495D01*
X192275Y276119D01*
D02*
G37*
G36*
X193735Y277442D02*
X193757Y277425D01*
X193781Y277410D01*
X193806Y277398D01*
X193833Y277387D01*
X193862Y277378D01*
X193893Y277371D01*
X193926Y277366D01*
X193960Y277363D01*
X193996Y277362D01*
Y276181D01*
X193960Y276180D01*
X193926Y276177D01*
X193893Y276172D01*
X193862Y276165D01*
X193833Y276156D01*
X193806Y276146D01*
X193781Y276133D01*
X193757Y276118D01*
X193735Y276101D01*
X193715Y276083D01*
Y277461D01*
X193735Y277442D01*
D02*
G37*
G36*
X327012Y272939D02*
X327038Y272917D01*
X327064Y272898D01*
X327091Y272881D01*
X327118Y272866D01*
X327145Y272855D01*
X327172Y272846D01*
X327199Y272839D01*
X327226Y272836D01*
X327254Y272835D01*
X326280Y271860D01*
X326278Y271888D01*
X326275Y271915D01*
X326269Y271942D01*
X326259Y271969D01*
X326248Y271996D01*
X326234Y272023D01*
X326217Y272050D01*
X326197Y272076D01*
X326175Y272103D01*
X326150Y272129D01*
X326985Y272964D01*
X327012Y272939D01*
D02*
G37*
G36*
X303062Y267819D02*
X302964Y267328D01*
X302775Y267250D01*
X302277Y266752D01*
X302007Y266100D01*
Y265396D01*
X302277Y264744D01*
X302321Y264700D01*
X302114Y264200D01*
X223811D01*
X223603Y264700D01*
X223845Y264941D01*
X224114Y265593D01*
Y266297D01*
X223845Y266948D01*
X223346Y267447D01*
X222695Y267717D01*
X221990D01*
X221339Y267447D01*
X220841Y266948D01*
X220571Y266297D01*
Y265714D01*
X220215Y265497D01*
X220109Y265469D01*
X217065Y268513D01*
X216609Y268818D01*
X216071Y268925D01*
X94460D01*
X93923Y268818D01*
X93467Y268513D01*
X77933Y252980D01*
X-0D01*
Y262285D01*
X7865Y270150D01*
X300731D01*
X303062Y267819D01*
D02*
G37*
G36*
X320191Y262176D02*
X320177Y262182D01*
X320153Y262187D01*
X320118Y262191D01*
X320017Y262198D01*
X319580Y262205D01*
X319643Y263386D01*
X319678Y263387D01*
X319712Y263391D01*
X319743Y263399D01*
X319773Y263408D01*
X319801Y263421D01*
X319828Y263437D01*
X319852Y263455D01*
X319875Y263476D01*
X319896Y263500D01*
X319915Y263527D01*
X320191Y262176D01*
D02*
G37*
G36*
X-20293Y262356D02*
X-20106Y262325D01*
X-20056Y262322D01*
X-20012Y262323D01*
X-19974Y262327D01*
X-19942Y262335D01*
X-19916Y262346D01*
X-19896Y262361D01*
X-19485Y261659D01*
X-19499Y261642D01*
X-19514Y261618D01*
X-19529Y261588D01*
X-19544Y261552D01*
X-19576Y261460D01*
X-19609Y261343D01*
X-19643Y261201D01*
X-20367Y262373D01*
X-20293Y262356D01*
D02*
G37*
G36*
X-4103Y259333D02*
X-4128Y259307D01*
X-4150Y259281D01*
X-4169Y259254D01*
X-4186Y259228D01*
X-4201Y259201D01*
X-4212Y259174D01*
X-4221Y259147D01*
X-4228Y259120D01*
X-4231Y259092D01*
X-4232Y259065D01*
X-5207Y260039D01*
X-5179Y260040D01*
X-5152Y260044D01*
X-5125Y260050D01*
X-5098Y260059D01*
X-5071Y260071D01*
X-5044Y260085D01*
X-5017Y260102D01*
X-4991Y260122D01*
X-4964Y260144D01*
X-4938Y260169D01*
X-4103Y259333D01*
D02*
G37*
G36*
X-6607Y256526D02*
X-6607Y256495D01*
X-6604Y256465D01*
X-6597Y256435D01*
X-6588Y256406D01*
X-6576Y256378D01*
X-6561Y256349D01*
X-6543Y256322D01*
X-6521Y256296D01*
X-6497Y256270D01*
X-7468Y255570D01*
X-7494Y255596D01*
X-7545Y255640D01*
X-7569Y255658D01*
X-7614Y255687D01*
X-7635Y255698D01*
X-7656Y255706D01*
X-7675Y255712D01*
X-7694Y255715D01*
X-6604Y256558D01*
X-6607Y256526D01*
D02*
G37*
G36*
X390145Y255301D02*
X390125Y255320D01*
X390103Y255336D01*
X390080Y255351D01*
X390054Y255364D01*
X390027Y255375D01*
X389998Y255384D01*
X389967Y255391D01*
X389935Y255396D01*
X389900Y255399D01*
X389864Y255399D01*
Y256581D01*
X389900Y256581D01*
X389935Y256585D01*
X389967Y256589D01*
X389998Y256596D01*
X390027Y256605D01*
X390054Y256616D01*
X390080Y256629D01*
X390103Y256644D01*
X390125Y256660D01*
X390145Y256679D01*
Y255301D01*
D02*
G37*
G36*
X-30340Y252442D02*
X-30318Y252425D01*
X-30294Y252410D01*
X-30269Y252398D01*
X-30242Y252387D01*
X-30213Y252378D01*
X-30182Y252371D01*
X-30149Y252366D01*
X-30115Y252363D01*
X-30079Y252362D01*
Y251181D01*
X-30115Y251180D01*
X-30149Y251177D01*
X-30182Y251172D01*
X-30213Y251165D01*
X-30242Y251156D01*
X-30269Y251146D01*
X-30294Y251133D01*
X-30318Y251118D01*
X-30340Y251101D01*
X-30360Y251083D01*
Y252461D01*
X-30340Y252442D01*
D02*
G37*
G36*
X-11454Y248475D02*
X-11473Y248492D01*
X-11495Y248507D01*
X-11518Y248521D01*
X-11543Y248533D01*
X-11570Y248542D01*
X-11599Y248551D01*
X-11630Y248557D01*
X-11662Y248561D01*
X-11697Y248564D01*
X-11733Y248565D01*
X-11777Y249746D01*
X-11741Y249747D01*
X-11706Y249750D01*
X-11674Y249756D01*
X-11643Y249763D01*
X-11614Y249773D01*
X-11587Y249784D01*
X-11561Y249798D01*
X-11537Y249814D01*
X-11515Y249832D01*
X-11494Y249852D01*
X-11454Y248475D01*
D02*
G37*
G36*
X-29588Y249819D02*
X-29566Y249803D01*
X-29543Y249790D01*
X-29518Y249778D01*
X-29491Y249768D01*
X-29462Y249760D01*
X-29431Y249754D01*
X-29399Y249749D01*
X-29364Y249747D01*
X-29328Y249746D01*
X-29285Y248565D01*
X-29320Y248564D01*
X-29355Y248561D01*
X-29387Y248555D01*
X-29418Y248548D01*
X-29447Y248538D01*
X-29474Y248527D01*
X-29500Y248513D01*
X-29524Y248497D01*
X-29546Y248479D01*
X-29567Y248458D01*
X-29607Y249836D01*
X-29588Y249819D01*
D02*
G37*
G36*
X-5567Y249514D02*
X-5541Y249492D01*
X-5514Y249472D01*
X-5488Y249455D01*
X-5461Y249441D01*
X-5434Y249429D01*
X-5407Y249420D01*
X-5380Y249414D01*
X-5352Y249410D01*
X-5325Y249409D01*
X-6299Y248435D01*
X-6300Y248463D01*
X-6304Y248490D01*
X-6310Y248517D01*
X-6319Y248544D01*
X-6331Y248571D01*
X-6345Y248598D01*
X-6362Y248624D01*
X-6381Y248651D01*
X-6404Y248677D01*
X-6429Y248704D01*
X-5593Y249539D01*
X-5567Y249514D01*
D02*
G37*
G36*
X159877Y240532D02*
X159899Y240516D01*
X159922Y240501D01*
X159948Y240488D01*
X159975Y240477D01*
X160004Y240469D01*
X160035Y240462D01*
X160067Y240457D01*
X160102Y240454D01*
X160138Y240453D01*
Y239272D01*
X160102Y239271D01*
X160067Y239268D01*
X160035Y239263D01*
X160004Y239256D01*
X159975Y239247D01*
X159948Y239236D01*
X159922Y239223D01*
X159899Y239209D01*
X159877Y239192D01*
X159856Y239173D01*
Y240551D01*
X159877Y240532D01*
D02*
G37*
G36*
X-33900Y238844D02*
X-33898Y238815D01*
X-33893Y238786D01*
X-33885Y238758D01*
X-33874Y238730D01*
X-33861Y238702D01*
X-33845Y238674D01*
X-33826Y238648D01*
X-33804Y238621D01*
X-33780Y238595D01*
X-34671Y237816D01*
X-34697Y237841D01*
X-34750Y237884D01*
X-34775Y237902D01*
X-34801Y237917D01*
X-34826Y237929D01*
X-34851Y237939D01*
X-34876Y237947D01*
X-34901Y237951D01*
X-34925Y237954D01*
X-33900Y238874D01*
X-33900Y238844D01*
D02*
G37*
G36*
X-31299Y232785D02*
X-31284Y232535D01*
X-31276Y232490D01*
X-31266Y232451D01*
X-31255Y232419D01*
X-31242Y232394D01*
X-31228Y232375D01*
X-31785Y231819D01*
X-31803Y231833D01*
X-31828Y231845D01*
X-31860Y231857D01*
X-31899Y231866D01*
X-31945Y231874D01*
X-32056Y231885D01*
X-32194Y231890D01*
X-32274Y231890D01*
X-31299Y232864D01*
X-31299Y232785D01*
D02*
G37*
G36*
X-32284Y227962D02*
X-32268Y227712D01*
X-32260Y227667D01*
X-32250Y227628D01*
X-32239Y227596D01*
X-32226Y227571D01*
X-32212Y227553D01*
X-32769Y226996D01*
X-32787Y227010D01*
X-32813Y227023D01*
X-32845Y227034D01*
X-32883Y227043D01*
X-32929Y227051D01*
X-33040Y227062D01*
X-33179Y227067D01*
X-33258Y227067D01*
X-32283Y228041D01*
X-32284Y227962D01*
D02*
G37*
G36*
X18562Y226410D02*
X18545Y226422D01*
X18526Y226434D01*
X18505Y226444D01*
X18481Y226452D01*
X18455Y226460D01*
X18427Y226466D01*
X18397Y226470D01*
X18330Y226476D01*
X18293Y226476D01*
X18144Y227658D01*
X18179Y227659D01*
X18213Y227662D01*
X18246Y227669D01*
X18276Y227677D01*
X18305Y227688D01*
X18332Y227702D01*
X18358Y227718D01*
X18382Y227736D01*
X18404Y227757D01*
X18425Y227781D01*
X18562Y226410D01*
D02*
G37*
G36*
X219555Y262049D02*
X219348Y261548D01*
X196653D01*
X196001Y261419D01*
X195447Y261049D01*
X194430Y260032D01*
X194272Y259966D01*
X193774Y259468D01*
X193504Y258817D01*
Y258112D01*
X193774Y257461D01*
X194272Y256963D01*
X194923Y256693D01*
X195628D01*
X196279Y256963D01*
X196777Y257461D01*
X196843Y257620D01*
X197360Y258137D01*
X343762D01*
X344040Y257721D01*
X343964Y257537D01*
Y256833D01*
X344233Y256182D01*
X344732Y255683D01*
X345383Y255413D01*
X346088D01*
X346739Y255683D01*
X347237Y256182D01*
X347507Y256833D01*
Y257537D01*
X347431Y257721D01*
X347709Y258137D01*
X368996D01*
Y257395D01*
X365734D01*
X365196Y257288D01*
X364740Y256983D01*
X356505Y248747D01*
X347329D01*
X347229Y249248D01*
X347559Y249384D01*
X348057Y249882D01*
X348327Y250533D01*
Y251238D01*
X348057Y251889D01*
X347559Y252388D01*
X346907Y252658D01*
X346203D01*
X345552Y252388D01*
X345194Y252030D01*
X344882Y251939D01*
X344570Y252030D01*
X344212Y252388D01*
X343561Y252658D01*
X342856D01*
X342205Y252388D01*
X341707Y251889D01*
X341437Y251238D01*
Y250533D01*
X341707Y249882D01*
X342205Y249384D01*
X342534Y249248D01*
X342435Y248747D01*
X249341D01*
X248804Y248640D01*
X248348Y248336D01*
X241279Y241267D01*
X160254D01*
X160157Y241364D01*
X159506Y241634D01*
X158801D01*
X158150Y241364D01*
X157652Y240866D01*
X157382Y240215D01*
Y239510D01*
X157652Y238859D01*
X158150Y238360D01*
X158801Y238090D01*
X159506D01*
X160157Y238360D01*
X160254Y238457D01*
X241861D01*
X242399Y238564D01*
X242854Y238869D01*
X249923Y245938D01*
X357086D01*
X357624Y246044D01*
X358080Y246349D01*
X366316Y254585D01*
X368996D01*
Y233563D01*
X297933D01*
Y211317D01*
X297442Y211102D01*
X297213Y211330D01*
X296562Y211600D01*
X295857D01*
X295206Y211330D01*
X295109Y211233D01*
X182260D01*
X182053Y211733D01*
X182112Y211792D01*
X182382Y212443D01*
Y213148D01*
X182112Y213799D01*
X181614Y214297D01*
X180963Y214567D01*
X180258D01*
X179607Y214297D01*
X179108Y213799D01*
X178839Y213148D01*
Y212443D01*
X179108Y211792D01*
X179167Y211733D01*
X178960Y211233D01*
X106131D01*
X103347Y214017D01*
Y214132D01*
X103077Y214783D01*
X102578Y215282D01*
X101927Y215551D01*
X101222D01*
X100571Y215282D01*
X100073Y214783D01*
X99803Y214132D01*
Y213427D01*
X100073Y212776D01*
X100571Y212278D01*
X101222Y212008D01*
X101382D01*
X104224Y209166D01*
X104016Y208666D01*
X79425D01*
X79218Y209166D01*
X79338Y209286D01*
X79607Y209937D01*
Y210642D01*
X79338Y211293D01*
X78839Y211791D01*
X78188Y212061D01*
X77483D01*
X76832Y211791D01*
X76334Y211293D01*
X76064Y210642D01*
Y209937D01*
X76334Y209286D01*
X76067Y208846D01*
X75867Y208763D01*
X75789Y208686D01*
X33112D01*
X32834Y209101D01*
X32913Y209293D01*
Y209998D01*
X32644Y210649D01*
X32145Y211147D01*
X31494Y211417D01*
X30789D01*
X30138Y211147D01*
X29640Y210649D01*
X29370Y209998D01*
Y209293D01*
X29449Y209101D01*
X29172Y208686D01*
X-0D01*
Y225662D01*
X15244D01*
X15578Y225162D01*
X15453Y224860D01*
Y224155D01*
X15722Y223504D01*
X16221Y223006D01*
X16872Y222736D01*
X17577D01*
X18228Y223006D01*
X18726Y223504D01*
X18996Y224155D01*
Y224860D01*
X18982Y224894D01*
X19316Y225394D01*
X19545D01*
X20197Y225663D01*
X20695Y226162D01*
X20965Y226813D01*
Y227518D01*
X20695Y228169D01*
X20197Y228667D01*
X19545Y228937D01*
X18841D01*
X18189Y228667D01*
X17994Y228472D01*
X-0D01*
Y250170D01*
X78515D01*
X79053Y250277D01*
X79509Y250581D01*
X95042Y266115D01*
X215489D01*
X219555Y262049D01*
D02*
G37*
G36*
X-35236Y221328D02*
X-35221Y221078D01*
X-35213Y221033D01*
X-35203Y220994D01*
X-35192Y220962D01*
X-35179Y220937D01*
X-35165Y220919D01*
X-35722Y220362D01*
X-35740Y220376D01*
X-35765Y220389D01*
X-35797Y220400D01*
X-35836Y220409D01*
X-35882Y220417D01*
X-35993Y220428D01*
X-36131Y220433D01*
X-36211Y220433D01*
X-35236Y221408D01*
X-35236Y221328D01*
D02*
G37*
G36*
X-35512Y215108D02*
X-35496Y214858D01*
X-35488Y214813D01*
X-35479Y214774D01*
X-35468Y214742D01*
X-35455Y214717D01*
X-35441Y214698D01*
X-35997Y214141D01*
X-36016Y214156D01*
X-36041Y214168D01*
X-36073Y214179D01*
X-36112Y214189D01*
X-36157Y214197D01*
X-36269Y214208D01*
X-36407Y214213D01*
X-36486Y214213D01*
X-35512Y215187D01*
X-35512Y215108D01*
D02*
G37*
G36*
X102560Y213759D02*
X102565Y213732D01*
X102571Y213705D01*
X102580Y213679D01*
X102592Y213652D01*
X102607Y213626D01*
X102624Y213600D01*
X102644Y213573D01*
X102666Y213547D01*
X102691Y213521D01*
X101872Y212669D01*
X101846Y212694D01*
X101820Y212716D01*
X101793Y212735D01*
X101766Y212752D01*
X101739Y212766D01*
X101712Y212777D01*
X101684Y212786D01*
X101657Y212792D01*
X101629Y212795D01*
X101600Y212796D01*
X102559Y213785D01*
X102560Y213759D01*
D02*
G37*
G36*
X76154Y206586D02*
X76133Y206606D01*
X76111Y206624D01*
X76087Y206639D01*
X76061Y206653D01*
X76034Y206664D01*
X76005Y206674D01*
X75974Y206681D01*
X75942Y206686D01*
X75907Y206689D01*
X75871Y206690D01*
X75901Y207871D01*
X75937Y207872D01*
X75972Y207875D01*
X76004Y207880D01*
X76035Y207886D01*
X76064Y207894D01*
X76091Y207905D01*
X76116Y207917D01*
X76140Y207931D01*
X76161Y207946D01*
X76181Y207964D01*
X76154Y206586D01*
D02*
G37*
G36*
X77593Y207931D02*
X77615Y207915D01*
X77639Y207900D01*
X77664Y207887D01*
X77692Y207876D01*
X77721Y207867D01*
X77751Y207860D01*
X77784Y207856D01*
X77818Y207853D01*
X77854Y207852D01*
Y206670D01*
X77818Y206669D01*
X77784Y206667D01*
X77751Y206662D01*
X77721Y206655D01*
X77692Y206646D01*
X77664Y206635D01*
X77639Y206622D01*
X77615Y206608D01*
X77593Y206591D01*
X77573Y206572D01*
Y207950D01*
X77593Y207931D01*
D02*
G37*
G36*
X-17382Y204815D02*
X-17408Y204788D01*
X-17470Y204714D01*
X-17486Y204692D01*
X-17499Y204671D01*
X-17510Y204650D01*
X-17519Y204631D01*
X-17525Y204612D01*
X-17528Y204595D01*
X-18355Y205697D01*
X-18323Y205694D01*
X-18292Y205694D01*
X-18261Y205696D01*
X-18231Y205702D01*
X-18202Y205711D01*
X-18173Y205723D01*
X-18146Y205738D01*
X-18118Y205756D01*
X-18091Y205777D01*
X-18065Y205801D01*
X-17382Y204815D01*
D02*
G37*
G36*
X452264Y201356D02*
X451772Y201337D01*
X451502Y201988D01*
X451004Y202486D01*
X450352Y202756D01*
X449648D01*
X449464Y202680D01*
X449049Y202958D01*
Y208465D01*
X448919Y209117D01*
X448549Y209671D01*
X446982Y211238D01*
Y211617D01*
X447021Y211713D01*
Y212418D01*
X446982Y212513D01*
Y244622D01*
X447441Y245040D01*
X452264D01*
Y201356D01*
D02*
G37*
G36*
X-34843Y202273D02*
X-34827Y202023D01*
X-34819Y201978D01*
X-34809Y201939D01*
X-34798Y201907D01*
X-34786Y201882D01*
X-34771Y201864D01*
X-35328Y201307D01*
X-35347Y201321D01*
X-35372Y201334D01*
X-35404Y201345D01*
X-35443Y201354D01*
X-35488Y201362D01*
X-35599Y201373D01*
X-35738Y201378D01*
X-35817Y201378D01*
X-34843Y202352D01*
X-34843Y202273D01*
D02*
G37*
G36*
X452264Y200613D02*
Y152327D01*
X451764Y152120D01*
X451496Y152388D01*
X450844Y152657D01*
X450140D01*
X449942Y152576D01*
X449442Y152910D01*
Y158938D01*
X449508Y159096D01*
Y159801D01*
X449238Y160452D01*
X449049Y160642D01*
Y199011D01*
X449464Y199288D01*
X449648Y199213D01*
X450352D01*
X451004Y199482D01*
X451502Y199981D01*
X451772Y200632D01*
X452264Y200613D01*
D02*
G37*
G36*
X325295Y203839D02*
X368996D01*
Y144576D01*
X368715Y144192D01*
X368496Y144192D01*
X364862D01*
Y144349D01*
X364593Y145000D01*
X364218Y145374D01*
X364593Y145748D01*
X364862Y146400D01*
Y147104D01*
X364593Y147756D01*
X364094Y148254D01*
X363908Y148331D01*
Y148872D01*
X364193Y148990D01*
X364691Y149489D01*
X364961Y150140D01*
Y150845D01*
X364691Y151496D01*
X364218Y151969D01*
X364691Y152441D01*
X364961Y153093D01*
Y153797D01*
X364691Y154448D01*
X364193Y154947D01*
X363541Y155217D01*
X362837D01*
X362185Y154947D01*
X361687Y154448D01*
X361417Y153797D01*
Y153093D01*
X361687Y152441D01*
X362160Y151969D01*
X361687Y151496D01*
X361417Y150845D01*
Y150140D01*
X361687Y149489D01*
X362185Y148990D01*
X362372Y148913D01*
Y148372D01*
X362087Y148254D01*
X361589Y147756D01*
X361319Y147104D01*
Y146400D01*
X361589Y145748D01*
X361963Y145374D01*
X361589Y145000D01*
X361319Y144349D01*
Y144192D01*
X296766D01*
Y118898D01*
X296596D01*
X295945Y118628D01*
X295848Y118531D01*
X293987D01*
X287903Y124616D01*
X287447Y124920D01*
X286909Y125027D01*
X200593D01*
X200315Y125443D01*
X200394Y125632D01*
Y126337D01*
X200124Y126988D01*
X199929Y127183D01*
X199646Y127510D01*
X199929Y127837D01*
X200124Y128032D01*
X200394Y128683D01*
Y129388D01*
X200124Y130039D01*
X199626Y130537D01*
X198974Y130807D01*
X198270D01*
X197618Y130537D01*
X197120Y130039D01*
X196850Y129388D01*
Y128683D01*
X197120Y128032D01*
X197316Y127837D01*
X197598Y127510D01*
X197316Y127183D01*
X197120Y126988D01*
X196850Y126337D01*
Y125632D01*
X196929Y125443D01*
X196651Y125027D01*
X105734D01*
X103581Y127180D01*
Y127317D01*
X103311Y127968D01*
X102813Y128467D01*
X102162Y128736D01*
X101457D01*
X100806Y128467D01*
X100308Y127968D01*
X100038Y127317D01*
Y126612D01*
X100308Y125961D01*
X100332Y125937D01*
X100214Y125347D01*
X100009Y125262D01*
X99511Y124764D01*
X99241Y124113D01*
Y123408D01*
X99384Y123063D01*
X99052Y122563D01*
X96365D01*
X88895Y130033D01*
X88893Y130054D01*
X88893Y130108D01*
X88893Y130108D01*
X88893Y130108D01*
X88878Y130186D01*
Y130471D01*
X88608Y131122D01*
X88110Y131620D01*
X87459Y131890D01*
X86754D01*
X86103Y131620D01*
X85604Y131122D01*
X85335Y130471D01*
Y129766D01*
X85604Y129115D01*
X86103Y128616D01*
X86216Y128569D01*
Y128028D01*
X85986Y127933D01*
X85488Y127434D01*
X85218Y126783D01*
Y126078D01*
X85488Y125427D01*
X85986Y124929D01*
X86637Y124659D01*
X87342D01*
X87993Y124929D01*
X88491Y125427D01*
X88761Y126078D01*
Y126107D01*
X89223Y126298D01*
X95015Y120507D01*
X95405Y120246D01*
X95866Y120154D01*
X95866Y120154D01*
X99113D01*
X99391Y119738D01*
X99311Y119545D01*
Y118841D01*
X99581Y118189D01*
X100079Y117691D01*
X100730Y117421D01*
X101435D01*
X102086Y117691D01*
X102288Y117892D01*
X102353Y117936D01*
X102353Y117936D01*
X102354Y117937D01*
X102400Y117983D01*
X102406Y117989D01*
X283655D01*
X291225Y110418D01*
X291225Y110418D01*
X291616Y110157D01*
X292077Y110065D01*
X292077Y110065D01*
X295598D01*
X295945Y109719D01*
X296596Y109449D01*
X297301D01*
X297952Y109719D01*
X298451Y110217D01*
X298721Y110868D01*
Y111573D01*
X298451Y112224D01*
X297952Y112722D01*
X297301Y112992D01*
X296719D01*
X296501Y113351D01*
X296474Y113454D01*
X296780Y113760D01*
X297050Y114411D01*
Y115116D01*
X297209Y115354D01*
X297301D01*
X297952Y115624D01*
X298451Y116122D01*
X298721Y116774D01*
Y117224D01*
X312357D01*
X312605Y116724D01*
X312402Y116233D01*
Y115529D01*
X312671Y114877D01*
X312639Y114716D01*
X312579Y114691D01*
X312081Y114193D01*
X311811Y113541D01*
Y113120D01*
X309147Y110456D01*
X307502D01*
X307204Y110754D01*
X306553Y111024D01*
X305848D01*
X305197Y110754D01*
X304699Y110256D01*
X304429Y109604D01*
Y108900D01*
X304699Y108248D01*
X305197Y107750D01*
X305848Y107480D01*
X306553D01*
X307204Y107750D01*
X307502Y108048D01*
X309646D01*
X309646Y108048D01*
X310106Y108139D01*
X310497Y108400D01*
X310573Y108476D01*
X311115Y108311D01*
X311304Y107855D01*
X311803Y107356D01*
X312454Y107087D01*
X313159D01*
X313810Y107356D01*
X314308Y107855D01*
X314319Y107880D01*
X314498D01*
X314498Y107880D01*
X314959Y107972D01*
X315349Y108233D01*
X316599Y109483D01*
X316600Y109483D01*
X316861Y109874D01*
X316952Y110335D01*
Y114306D01*
X316952Y114306D01*
X316861Y114767D01*
X316600Y115158D01*
X316599Y115158D01*
X315945Y115812D01*
Y116233D01*
X315742Y116724D01*
X315989Y117224D01*
X325014D01*
Y112008D01*
X368496D01*
X368715Y112008D01*
X368996Y111624D01*
Y95227D01*
X368019Y93882D01*
X367190Y92254D01*
X366625Y90515D01*
X366339Y88709D01*
Y86881D01*
X366625Y85076D01*
X367190Y83337D01*
X368019Y81708D01*
X368996Y80364D01*
Y58694D01*
X295514D01*
X295420Y58881D01*
X295361Y59194D01*
X295421Y59254D01*
X295569Y59353D01*
X322796Y86580D01*
X334941D01*
X335115Y86614D01*
X335293D01*
X335458Y86682D01*
X335632Y86717D01*
X335780Y86816D01*
X335945Y86884D01*
X336070Y87010D01*
X336218Y87108D01*
X336317Y87256D01*
X336443Y87382D01*
X336511Y87547D01*
X336610Y87695D01*
X336645Y87869D01*
X336713Y88033D01*
Y88211D01*
X336747Y88386D01*
X336713Y88560D01*
Y88738D01*
X336645Y88903D01*
X336610Y89077D01*
X336511Y89225D01*
X336443Y89389D01*
X336317Y89515D01*
X336218Y89663D01*
X336070Y89762D01*
X335945Y89888D01*
X335780Y89956D01*
X335632Y90055D01*
X335458Y90089D01*
X335293Y90158D01*
X335115D01*
X334941Y90192D01*
X329149D01*
X328815Y90692D01*
X328937Y90986D01*
Y91691D01*
X328667Y92342D01*
X328169Y92840D01*
X327518Y93110D01*
X326813D01*
X326162Y92840D01*
X325663Y92342D01*
X325394Y91691D01*
Y90986D01*
X325516Y90692D01*
X325181Y90192D01*
X324060D01*
X323812Y90692D01*
X324016Y91183D01*
Y91888D01*
X323746Y92539D01*
X323248Y93037D01*
X322689Y93269D01*
X311913Y104045D01*
X311457Y104349D01*
X310919Y104456D01*
X299007D01*
X298800Y104956D01*
X298943Y105099D01*
X299213Y105750D01*
Y106455D01*
X298943Y107106D01*
X298445Y107604D01*
X297793Y107874D01*
X297089D01*
X296437Y107604D01*
X295939Y107106D01*
X295669Y106455D01*
Y105750D01*
X295939Y105099D01*
X296082Y104956D01*
X295875Y104456D01*
X263583D01*
X263045Y104349D01*
X262589Y104045D01*
X257489Y98944D01*
X191123D01*
X190834Y99444D01*
X191052Y99822D01*
X191240Y100523D01*
Y101249D01*
X191052Y101950D01*
X190690Y102578D01*
X190176Y103091D01*
X189548Y103454D01*
X188847Y103642D01*
X188121D01*
X187420Y103454D01*
X186792Y103091D01*
X186279Y102578D01*
X185916Y101950D01*
X185728Y101249D01*
Y100523D01*
X185916Y99822D01*
X186134Y99444D01*
X185846Y98944D01*
X147099D01*
X147055Y98973D01*
X146518Y99080D01*
X35682D01*
X23327Y111436D01*
Y111475D01*
X23057Y112126D01*
X22559Y112624D01*
X21907Y112894D01*
X21203D01*
X20552Y112624D01*
X20053Y112126D01*
X19783Y111475D01*
Y110770D01*
X19756Y110728D01*
X19234D01*
X18583Y110459D01*
X18085Y109960D01*
X17815Y109309D01*
Y108604D01*
X18085Y107953D01*
X18583Y107455D01*
X19234Y107185D01*
X19939D01*
X20590Y107455D01*
X21089Y107953D01*
X21358Y108604D01*
Y108723D01*
X21858Y108930D01*
X34107Y96682D01*
X34563Y96377D01*
X35100Y96270D01*
X66442D01*
X66776Y95770D01*
X66634Y95428D01*
Y94723D01*
X66904Y94072D01*
X67402Y93573D01*
X68053Y93304D01*
X68758D01*
X69409Y93573D01*
X69907Y94072D01*
X70177Y94723D01*
Y95428D01*
X70035Y95770D01*
X70369Y96270D01*
X72742D01*
X73019Y95855D01*
X72926Y95628D01*
Y94923D01*
X73195Y94272D01*
X73694Y93774D01*
X74345Y93504D01*
X75050D01*
X75701Y93774D01*
X76199Y94272D01*
X76469Y94923D01*
Y95628D01*
X76375Y95855D01*
X76653Y96270D01*
X146073D01*
X146116Y96241D01*
X146653Y96134D01*
X178588D01*
X178866Y95719D01*
X178787Y95530D01*
Y94825D01*
X179057Y94174D01*
X179555Y93675D01*
X180207Y93405D01*
X180912D01*
X181563Y93675D01*
X182061Y94174D01*
X182331Y94825D01*
Y95530D01*
X182252Y95719D01*
X182530Y96134D01*
X258071D01*
X258609Y96241D01*
X259064Y96546D01*
X263831Y101312D01*
X263857Y101306D01*
X264010Y100752D01*
X252356Y89098D01*
X116929D01*
X116929Y89098D01*
X116468Y89006D01*
X116078Y88745D01*
X110131Y82799D01*
X39278D01*
X32086Y89991D01*
X32276Y90508D01*
X32795Y90723D01*
X33293Y91221D01*
X33563Y91872D01*
Y92577D01*
X33293Y93228D01*
X32795Y93726D01*
X32144Y93996D01*
X31439D01*
X30788Y93726D01*
X30289Y93228D01*
X30075Y92709D01*
X29558Y92519D01*
X26221Y95856D01*
Y98081D01*
X26236Y98098D01*
X26274Y98136D01*
X26274Y98137D01*
X26274Y98137D01*
X26317Y98201D01*
X26515Y98399D01*
X26785Y99050D01*
Y99755D01*
X26515Y100406D01*
X26017Y100905D01*
X25365Y101174D01*
X24660D01*
X24009Y100905D01*
X23925Y100820D01*
X23425Y101028D01*
Y101337D01*
X23155Y101988D01*
X22657Y102486D01*
X22006Y102756D01*
X21301D01*
X20650Y102486D01*
X20152Y101988D01*
X19882Y101337D01*
Y100632D01*
X20152Y99981D01*
X20650Y99482D01*
X21301Y99213D01*
X22006D01*
X22657Y99482D01*
X22741Y99567D01*
X23241Y99359D01*
Y99050D01*
X23511Y98399D01*
X23716Y98194D01*
X23761Y98127D01*
X23761Y98127D01*
X23761Y98127D01*
X23808Y98081D01*
X23812Y98076D01*
Y95358D01*
X23812Y95357D01*
X23904Y94897D01*
X24165Y94506D01*
X37928Y80743D01*
X37928Y80743D01*
X38319Y80482D01*
X38780Y80390D01*
X38780Y80390D01*
X45666D01*
X45687Y80336D01*
X45749Y79890D01*
X45450Y79690D01*
X45450Y79690D01*
X43659Y77899D01*
X43238D01*
X42587Y77630D01*
X42088Y77131D01*
X41819Y76480D01*
Y75775D01*
X42088Y75124D01*
X42587Y74626D01*
X43238Y74356D01*
X43943D01*
X44594Y74626D01*
X45092Y75124D01*
X45362Y75775D01*
Y76196D01*
X46800Y77634D01*
X66368D01*
X66516Y77500D01*
X66596Y76941D01*
X66276Y76620D01*
X66006Y75969D01*
Y75264D01*
X66276Y74613D01*
X66774Y74115D01*
X67425Y73845D01*
X67358Y73373D01*
X67281D01*
X66630Y73103D01*
X66131Y72605D01*
X65862Y71954D01*
Y71249D01*
X66131Y70598D01*
X66630Y70099D01*
X67281Y69830D01*
X67986D01*
X68637Y70099D01*
X69135Y70598D01*
X69405Y71249D01*
Y71954D01*
X69135Y72605D01*
X68637Y73103D01*
X67986Y73373D01*
X68053Y73845D01*
X68130D01*
X68781Y74115D01*
X69279Y74613D01*
X69549Y75264D01*
Y75969D01*
X69279Y76620D01*
X69107Y76793D01*
X69114Y77337D01*
X69612Y77835D01*
X69882Y78486D01*
Y79191D01*
X69612Y79842D01*
X69564Y79890D01*
X69771Y80390D01*
X110630D01*
X110630Y80390D01*
X111091Y80482D01*
X111481Y80743D01*
X117428Y86690D01*
X146397D01*
X146531Y86190D01*
X146142Y85965D01*
X145629Y85452D01*
X145267Y84824D01*
X145079Y84123D01*
Y83397D01*
X145267Y82696D01*
X145629Y82068D01*
X146142Y81555D01*
X146771Y81192D01*
X147472Y81004D01*
X148197D01*
X148898Y81192D01*
X149527Y81555D01*
X150040Y82068D01*
X150403Y82696D01*
X150591Y83397D01*
Y84123D01*
X150403Y84824D01*
X150040Y85452D01*
X149527Y85965D01*
X149138Y86190D01*
X149272Y86690D01*
X178657D01*
X178955Y86189D01*
X178787Y85786D01*
Y85081D01*
X179057Y84430D01*
X179555Y83931D01*
X180207Y83661D01*
X180912D01*
X181563Y83931D01*
X182061Y84430D01*
X182331Y85081D01*
Y85786D01*
X182163Y86189D01*
X182461Y86690D01*
X252854D01*
X252854Y86689D01*
X253315Y86781D01*
X253706Y87042D01*
X265755Y99091D01*
X275110D01*
X275188Y98597D01*
X275069Y98559D01*
X273440Y97729D01*
X271961Y96654D01*
X270669Y95361D01*
X269594Y93882D01*
X268764Y92254D01*
X268199Y90515D01*
X267913Y88709D01*
Y86881D01*
X268199Y85076D01*
X268764Y83337D01*
X269594Y81708D01*
X270669Y80229D01*
X271961Y78936D01*
X273440Y77862D01*
X275069Y77032D01*
X276808Y76467D01*
X278613Y76181D01*
X280442D01*
X282247Y76467D01*
X283986Y77032D01*
X285615Y77862D01*
X287094Y78936D01*
X288386Y80229D01*
X289461Y81708D01*
X290291Y83337D01*
X290856Y85076D01*
X291142Y86881D01*
Y88709D01*
X290856Y90515D01*
X290291Y92254D01*
X289461Y93882D01*
X288386Y95361D01*
X287094Y96654D01*
X285615Y97729D01*
X283986Y98559D01*
X283867Y98597D01*
X283945Y99091D01*
X309836D01*
X317421Y91506D01*
Y91085D01*
X317691Y90434D01*
X318189Y89935D01*
X318841Y89665D01*
X319545D01*
X320197Y89935D01*
X320388Y90127D01*
X320492Y90078D01*
X320530Y90021D01*
X320587Y89480D01*
X293014Y61907D01*
X292915Y61759D01*
X292789Y61633D01*
X292721Y61469D01*
X292622Y61321D01*
X292588Y61147D01*
X292520Y60982D01*
Y60804D01*
X292485Y60630D01*
X292520Y60455D01*
Y60277D01*
X292588Y60113D01*
X292622Y59939D01*
X292721Y59791D01*
X292789Y59626D01*
X292915Y59501D01*
X293014Y59353D01*
X293162Y59254D01*
X293222Y59194D01*
X293163Y58881D01*
X293068Y58694D01*
X235444D01*
X235237Y59194D01*
X235375Y59332D01*
X235737Y59960D01*
X235925Y60661D01*
Y61386D01*
X235737Y62087D01*
X235375Y62716D01*
X234861Y63229D01*
X234233Y63592D01*
X233532Y63779D01*
X232806D01*
X232105Y63592D01*
X231477Y63229D01*
X230964Y62716D01*
X230601Y62087D01*
X230413Y61386D01*
Y60661D01*
X230601Y59960D01*
X230964Y59332D01*
X231101Y59194D01*
X230894Y58694D01*
X190759D01*
X190552Y59194D01*
X190690Y59332D01*
X191052Y59960D01*
X191240Y60661D01*
Y61386D01*
X191052Y62087D01*
X190690Y62716D01*
X190176Y63229D01*
X189548Y63592D01*
X188847Y63779D01*
X188121D01*
X187420Y63592D01*
X186792Y63229D01*
X186279Y62716D01*
X185916Y62087D01*
X185728Y61386D01*
Y60661D01*
X185916Y59960D01*
X186279Y59332D01*
X186416Y59194D01*
X186209Y58694D01*
X97236D01*
X90522Y65409D01*
X90456Y65567D01*
X89957Y66066D01*
X89306Y66335D01*
X88601D01*
X87950Y66066D01*
X87452Y65567D01*
X87182Y64916D01*
Y64211D01*
X87452Y63560D01*
X87950Y63062D01*
X88109Y62996D01*
X95323Y55782D01*
X95876Y55412D01*
X96529Y55282D01*
X171513D01*
X171759Y54782D01*
X171555Y54289D01*
Y53585D01*
X171825Y52934D01*
X172187Y52571D01*
X172292Y52304D01*
X172207Y51942D01*
X171872Y51607D01*
X171602Y50956D01*
Y50251D01*
X171872Y49600D01*
X172371Y49102D01*
X173022Y48832D01*
X173726D01*
X174378Y49102D01*
X174876Y49600D01*
X175146Y50251D01*
Y50956D01*
X174876Y51607D01*
X174513Y51970D01*
X174408Y52236D01*
X174494Y52599D01*
X174829Y52934D01*
X175098Y53585D01*
Y54289D01*
X174894Y54782D01*
X175140Y55282D01*
X360428D01*
X360706Y54866D01*
X360630Y54683D01*
Y53978D01*
X360638Y53959D01*
X360360Y53543D01*
X298917D01*
Y29823D01*
X325492D01*
Y20866D01*
X368602D01*
X368996Y20609D01*
Y9279D01*
X92216D01*
X84941Y16554D01*
Y16691D01*
X84671Y17342D01*
X84173Y17841D01*
X83522Y18110D01*
X82817D01*
X82166Y17841D01*
X81667Y17342D01*
X81497Y16930D01*
X81344Y16872D01*
X80936Y16845D01*
X80531Y17250D01*
X79880Y17520D01*
X79175D01*
X78524Y17250D01*
X78026Y16752D01*
X77756Y16100D01*
Y15396D01*
X78026Y14744D01*
X78524Y14246D01*
X79175Y13976D01*
X79880D01*
X80531Y14246D01*
X81029Y14744D01*
X81200Y15156D01*
X81353Y15215D01*
X81761Y15241D01*
X82166Y14837D01*
X82817Y14567D01*
X82954D01*
X90640Y6881D01*
X91096Y6576D01*
X91634Y6469D01*
X368996D01*
Y1020D01*
X11811Y1020D01*
X11104D01*
X9701Y1204D01*
X8335Y1570D01*
X7028Y2112D01*
X5803Y2819D01*
X4680Y3680D01*
X3680Y4680D01*
X2819Y5803D01*
X2112Y7028D01*
X1570Y8335D01*
X1204Y9701D01*
X1020Y11104D01*
X1020Y11811D01*
X1020Y99508D01*
X942Y99898D01*
X721Y100229D01*
X390Y100450D01*
X-0Y100527D01*
Y103665D01*
X325D01*
X976Y103935D01*
X1474Y104433D01*
X1940Y104526D01*
X2104Y104362D01*
X2755Y104092D01*
X3460D01*
X4111Y104362D01*
X4610Y104860D01*
X4879Y105511D01*
Y106216D01*
X4610Y106867D01*
X4111Y107366D01*
X3460Y107635D01*
X3384D01*
X3349Y107645D01*
X2826Y108168D01*
X2721Y108325D01*
X2970Y108785D01*
X3102Y108759D01*
X3102Y108759D01*
X6861D01*
X7857Y107763D01*
X7859Y107741D01*
X7859Y107687D01*
X7859Y107687D01*
X7859Y107687D01*
X7874Y107610D01*
Y107325D01*
X8144Y106674D01*
X8642Y106175D01*
X9293Y105905D01*
X9998D01*
X10649Y106175D01*
X11148Y106674D01*
X11417Y107325D01*
Y108030D01*
X11148Y108681D01*
X10649Y109179D01*
X9998Y109449D01*
X9713D01*
X9636Y109464D01*
X9636Y109464D01*
X9635Y109464D01*
X9570Y109464D01*
X9561Y109465D01*
X8211Y110815D01*
X7820Y111076D01*
X7360Y111168D01*
X7359Y111168D01*
X6714D01*
X6502Y111668D01*
X6731Y112219D01*
Y112924D01*
X6461Y113575D01*
X5963Y114074D01*
X5311Y114343D01*
X5139D01*
X4861Y114759D01*
X4921Y114903D01*
Y115608D01*
X4651Y116260D01*
X4153Y116758D01*
X3502Y117028D01*
X2797D01*
X2372Y116851D01*
X-0Y119223D01*
Y138867D01*
X462Y139059D01*
X26439Y113081D01*
X26895Y112777D01*
X27433Y112670D01*
X84931D01*
X85138Y112170D01*
X85014Y112046D01*
X84744Y111395D01*
Y110690D01*
X85014Y110038D01*
X85512Y109540D01*
X86163Y109270D01*
X86231D01*
X86322Y109135D01*
Y108430D01*
X86591Y107779D01*
X87090Y107280D01*
X87741Y107011D01*
X88446D01*
X89097Y107280D01*
X89595Y107779D01*
X89865Y108430D01*
Y109135D01*
X89595Y109786D01*
X89097Y110284D01*
X88446Y110554D01*
X88378D01*
X88287Y110690D01*
Y111395D01*
X88018Y112046D01*
X87893Y112170D01*
X88101Y112670D01*
X104536D01*
X104743Y112170D01*
X104600Y112027D01*
X104331Y111376D01*
Y110671D01*
X104600Y110020D01*
X105099Y109522D01*
X105750Y109252D01*
X106455D01*
X107106Y109522D01*
X107604Y110020D01*
X107874Y110671D01*
Y111376D01*
X107604Y112027D01*
X107462Y112170D01*
X107669Y112670D01*
X186117D01*
X186324Y112170D01*
X186279Y112125D01*
X185916Y111497D01*
X185728Y110796D01*
Y110070D01*
X185916Y109369D01*
X186279Y108741D01*
X186792Y108228D01*
X187420Y107865D01*
X188121Y107677D01*
X188847D01*
X189548Y107865D01*
X190176Y108228D01*
X190690Y108741D01*
X191052Y109369D01*
X191240Y110070D01*
Y110796D01*
X191052Y111497D01*
X190690Y112125D01*
X190645Y112170D01*
X190852Y112670D01*
X202550D01*
X202757Y112170D01*
X202529Y111942D01*
X202259Y111291D01*
Y110586D01*
X202529Y109935D01*
X203028Y109436D01*
X203679Y109167D01*
X204383D01*
X205035Y109436D01*
X205533Y109935D01*
X205803Y110586D01*
Y111291D01*
X205533Y111942D01*
X205673Y112509D01*
X205826Y112573D01*
X206325Y113071D01*
X206594Y113722D01*
Y114427D01*
X206325Y115078D01*
X205826Y115577D01*
X205175Y115847D01*
X204470D01*
X203819Y115577D01*
X203722Y115480D01*
X90901D01*
X90694Y115980D01*
X91000Y116286D01*
X91269Y116937D01*
Y117642D01*
X91000Y118293D01*
X90501Y118791D01*
X89850Y119061D01*
X89145D01*
X88655Y119399D01*
Y119687D01*
X88385Y120338D01*
X87887Y120837D01*
X87236Y121107D01*
X86531D01*
X85880Y120837D01*
X85382Y120338D01*
X85112Y119687D01*
Y118983D01*
X85382Y118331D01*
X85880Y117833D01*
X86531Y117563D01*
X87236D01*
X87726Y117225D01*
Y116937D01*
X87996Y116286D01*
X88302Y115980D01*
X88095Y115480D01*
X28015D01*
X-0Y143494D01*
Y172557D01*
X462Y172748D01*
X1861Y171349D01*
X2317Y171045D01*
X2854Y170938D01*
X307680D01*
X307753Y170889D01*
X308291Y170782D01*
X315270D01*
X315548Y170366D01*
X315453Y170136D01*
Y169431D01*
X315722Y168780D01*
X316221Y168281D01*
X316872Y168012D01*
X317577D01*
X318228Y168281D01*
X318726Y168780D01*
X318996Y169431D01*
Y170136D01*
X318901Y170366D01*
X319179Y170782D01*
X319761D01*
X320299Y170889D01*
X320755Y171193D01*
X322339Y172777D01*
X322476D01*
X323127Y173047D01*
X323626Y173545D01*
X323895Y174196D01*
Y174901D01*
X323626Y175552D01*
X323127Y176051D01*
X322476Y176320D01*
X321771D01*
X321120Y176051D01*
X320622Y175552D01*
X320352Y174901D01*
Y174764D01*
X319413Y173825D01*
X318989Y174108D01*
X319025Y174196D01*
Y174901D01*
X318756Y175552D01*
X318257Y176051D01*
X317606Y176320D01*
X316901D01*
X316250Y176051D01*
X316153Y175954D01*
X303883D01*
X303783Y176454D01*
X304252Y176648D01*
X304750Y177146D01*
X305020Y177797D01*
Y178502D01*
X304750Y179153D01*
X304252Y179651D01*
X303600Y179921D01*
X302896D01*
X302244Y179651D01*
X301746Y179153D01*
X301476Y178502D01*
Y177797D01*
X301746Y177146D01*
X302244Y176648D01*
X302713Y176454D01*
X302613Y175954D01*
X181431D01*
X181332Y176454D01*
X181563Y176549D01*
X182061Y177048D01*
X182331Y177699D01*
Y178404D01*
X182061Y179055D01*
X181563Y179553D01*
X180912Y179823D01*
X180207D01*
X179555Y179553D01*
X179057Y179055D01*
X178787Y178404D01*
Y177699D01*
X179057Y177048D01*
X179555Y176549D01*
X179786Y176454D01*
X179687Y175954D01*
X7356D01*
X-0Y183310D01*
Y186024D01*
X48985D01*
X51059Y183950D01*
X51125Y183621D01*
X51386Y183230D01*
X53445Y181171D01*
Y180750D01*
X53715Y180099D01*
X54213Y179601D01*
X54864Y179331D01*
X55569D01*
X56220Y179601D01*
X56718Y180099D01*
X56988Y180750D01*
Y181455D01*
X56718Y182106D01*
X56220Y182604D01*
X55569Y182874D01*
X55148D01*
X53415Y184607D01*
X53350Y184936D01*
X53089Y185327D01*
X53089Y185327D01*
X50336Y188080D01*
X49945Y188341D01*
X49484Y188433D01*
X49484Y188433D01*
X-0D01*
Y191119D01*
X56391D01*
X68440Y179070D01*
X68831Y178809D01*
X69291Y178717D01*
X69291Y178717D01*
X172121D01*
X172121Y178717D01*
X172582Y178809D01*
X172973Y179070D01*
X173244Y179341D01*
X173270Y179331D01*
X173975D01*
X174626Y179601D01*
X175124Y180099D01*
X175394Y180750D01*
Y181455D01*
X175124Y182106D01*
X174626Y182604D01*
X173975Y182874D01*
X173270D01*
X172618Y182604D01*
X172120Y182106D01*
X171850Y181455D01*
Y181353D01*
X171622Y181125D01*
X165190D01*
X165007Y181625D01*
X165256Y182226D01*
Y182931D01*
X164986Y183582D01*
X164488Y184081D01*
X163837Y184350D01*
X163132D01*
X162481Y184081D01*
X161982Y183582D01*
X161713Y182931D01*
Y182226D01*
X161961Y181625D01*
X161779Y181125D01*
X69790D01*
X57741Y193174D01*
X57351Y193435D01*
X56890Y193527D01*
X56890Y193527D01*
X-0D01*
Y205876D01*
X75750D01*
X75867Y205759D01*
X76518Y205489D01*
X77223D01*
X77874Y205759D01*
X77971Y205856D01*
X294807D01*
X294935Y205547D01*
X295433Y205048D01*
X295556Y204998D01*
Y204532D01*
X295180Y204157D01*
X114026D01*
X113566Y204065D01*
X113175Y203804D01*
X113175Y203804D01*
X106786Y197415D01*
X103868D01*
Y204971D01*
X95502D01*
Y199541D01*
X95002Y199334D01*
X94704Y199632D01*
X94053Y199902D01*
X93348D01*
X92697Y199632D01*
X92199Y199134D01*
X91929Y198482D01*
Y197777D01*
X92199Y197126D01*
X92697Y196628D01*
X93348Y196358D01*
X93633D01*
X93711Y196343D01*
X93711Y196343D01*
X93711Y196343D01*
X93776Y196343D01*
X93785Y196343D01*
X94769Y195359D01*
X94769Y195359D01*
X95159Y195098D01*
X95620Y195006D01*
X95620Y195006D01*
X104219D01*
X104496Y194591D01*
X104416Y194398D01*
Y193693D01*
X104686Y193042D01*
X105184Y192543D01*
X105836Y192274D01*
X106541D01*
X107192Y192543D01*
X107690Y193042D01*
X107960Y193693D01*
Y194398D01*
X107866Y194623D01*
X107747Y195089D01*
X108078Y195320D01*
X108136Y195359D01*
X114525Y201748D01*
X295254D01*
X295552Y201451D01*
X296203Y201181D01*
X296907D01*
X297559Y201451D01*
X298057Y201949D01*
X298327Y202600D01*
Y203305D01*
X298057Y203956D01*
X297559Y204455D01*
X297436Y204505D01*
Y205047D01*
X297441Y205048D01*
X297939Y205547D01*
X298209Y206198D01*
Y206903D01*
X297939Y207554D01*
X297517Y207976D01*
X297441Y208063D01*
X297469Y208582D01*
X297712Y208824D01*
X297981Y209475D01*
Y210180D01*
X297771Y210689D01*
X298055Y211094D01*
X298091Y211122D01*
X325295D01*
Y203839D01*
D02*
G37*
G36*
X-17618Y198336D02*
X-17602Y198086D01*
X-17594Y198041D01*
X-17585Y198002D01*
X-17574Y197970D01*
X-17561Y197945D01*
X-17547Y197926D01*
X-18104Y197370D01*
X-18122Y197384D01*
X-18147Y197397D01*
X-18179Y197408D01*
X-18218Y197417D01*
X-18264Y197425D01*
X-18375Y197436D01*
X-18513Y197441D01*
X-18593Y197441D01*
X-17618Y198415D01*
X-17618Y198336D01*
D02*
G37*
G36*
X94685Y198041D02*
X94701Y197791D01*
X94709Y197746D01*
X94718Y197707D01*
X94729Y197675D01*
X94742Y197650D01*
X94756Y197631D01*
X94200Y197074D01*
X94181Y197089D01*
X94156Y197101D01*
X94124Y197113D01*
X94085Y197122D01*
X94040Y197130D01*
X93928Y197141D01*
X93790Y197146D01*
X93711Y197146D01*
X94685Y198120D01*
X94685Y198041D01*
D02*
G37*
G36*
X-16705Y189675D02*
X-16690Y189425D01*
X-16682Y189380D01*
X-16672Y189341D01*
X-16661Y189309D01*
X-16648Y189284D01*
X-16634Y189265D01*
X-17191Y188708D01*
X-17209Y188723D01*
X-17234Y188735D01*
X-17266Y188746D01*
X-17305Y188756D01*
X-17351Y188764D01*
X-17462Y188775D01*
X-17600Y188780D01*
X-17680Y188780D01*
X-16705Y189754D01*
X-16705Y189675D01*
D02*
G37*
G36*
X-2755Y185026D02*
X-2751Y184999D01*
X-2745Y184971D01*
X-2736Y184944D01*
X-2724Y184917D01*
X-2710Y184891D01*
X-2693Y184864D01*
X-2674Y184837D01*
X-2651Y184811D01*
X-2627Y184785D01*
X-3462Y183950D01*
X-3488Y183975D01*
X-3514Y183997D01*
X-3541Y184016D01*
X-3568Y184033D01*
X-3594Y184047D01*
X-3621Y184059D01*
X-3648Y184068D01*
X-3675Y184074D01*
X-3703Y184078D01*
X-3730Y184079D01*
X-2756Y185054D01*
X-2755Y185026D01*
D02*
G37*
G36*
X-4625Y180770D02*
X-4621Y180742D01*
X-4615Y180715D01*
X-4606Y180688D01*
X-4594Y180661D01*
X-4580Y180634D01*
X-4563Y180608D01*
X-4544Y180581D01*
X-4521Y180555D01*
X-4497Y180529D01*
X-5332Y179693D01*
X-5358Y179718D01*
X-5384Y179741D01*
X-5411Y179760D01*
X-5438Y179777D01*
X-5464Y179791D01*
X-5491Y179803D01*
X-5518Y179812D01*
X-5546Y179818D01*
X-5573Y179822D01*
X-5600Y179823D01*
X-4626Y180797D01*
X-4625Y180770D01*
D02*
G37*
G36*
X479571Y227334D02*
X479889Y227122D01*
X480126Y226961D01*
X481299Y225787D01*
X483767D01*
X483958Y225325D01*
X483866Y225234D01*
X483259Y224182D01*
X482945Y223009D01*
Y221794D01*
X483259Y220621D01*
X483866Y219569D01*
X484725Y218711D01*
X485777Y218104D01*
X486950Y217789D01*
X488164D01*
X489337Y218104D01*
X490389Y218711D01*
X491248Y219569D01*
X491855Y220621D01*
X492170Y221794D01*
Y223009D01*
X491855Y224182D01*
X491248Y225234D01*
X491156Y225325D01*
X491348Y225787D01*
X501773Y225787D01*
X523767D01*
X523958Y225325D01*
X523866Y225234D01*
X523259Y224182D01*
X522945Y223009D01*
Y221794D01*
X523259Y220621D01*
X523866Y219569D01*
X524725Y218711D01*
X525777Y218104D01*
X526950Y217789D01*
X528164D01*
X529338Y218104D01*
X530389Y218711D01*
X531248Y219569D01*
X531855Y220621D01*
X532169Y221794D01*
Y223009D01*
X531855Y224182D01*
X531248Y225234D01*
X531156Y225325D01*
X531348Y225787D01*
X544551D01*
Y177067D01*
X483642D01*
X454271Y206438D01*
Y245040D01*
X461866D01*
X479571Y227334D01*
D02*
G37*
G36*
X316551Y173860D02*
X316531Y173879D01*
X316509Y173895D01*
X316485Y173910D01*
X316460Y173923D01*
X316432Y173934D01*
X316403Y173942D01*
X316372Y173949D01*
X316340Y173954D01*
X316306Y173957D01*
X316269Y173958D01*
Y175139D01*
X316306Y175140D01*
X316340Y175143D01*
X316372Y175148D01*
X316403Y175155D01*
X316432Y175164D01*
X316460Y175175D01*
X316485Y175188D01*
X316509Y175202D01*
X316531Y175219D01*
X316551Y175238D01*
Y173860D01*
D02*
G37*
G36*
X322114Y173565D02*
X322086Y173564D01*
X322059Y173560D01*
X322032Y173554D01*
X322005Y173545D01*
X321978Y173533D01*
X321951Y173519D01*
X321924Y173502D01*
X321898Y173482D01*
X321871Y173460D01*
X321845Y173435D01*
X321010Y174270D01*
X321035Y174297D01*
X321057Y174323D01*
X321077Y174349D01*
X321094Y174376D01*
X321108Y174403D01*
X321119Y174430D01*
X321129Y174457D01*
X321135Y174484D01*
X321139Y174511D01*
X321140Y174539D01*
X322114Y173565D01*
D02*
G37*
G36*
X-37713Y172029D02*
X-37681Y171781D01*
X-37671Y171736D01*
X-37659Y171697D01*
X-37647Y171666D01*
X-37634Y171641D01*
X-37620Y171623D01*
X-38133Y171022D01*
X-38152Y171037D01*
X-38177Y171049D01*
X-38209Y171059D01*
X-38248Y171066D01*
X-38293Y171072D01*
X-38346Y171075D01*
X-38470Y171075D01*
X-38620Y171066D01*
X-37718Y172108D01*
X-37713Y172029D01*
D02*
G37*
G36*
X-35748Y157903D02*
X-35732Y157653D01*
X-35724Y157608D01*
X-35715Y157569D01*
X-35704Y157537D01*
X-35691Y157512D01*
X-35677Y157493D01*
X-36234Y156937D01*
X-36252Y156951D01*
X-36277Y156964D01*
X-36309Y156975D01*
X-36348Y156984D01*
X-36393Y156992D01*
X-36505Y157003D01*
X-36643Y157008D01*
X-36722Y157008D01*
X-35748Y157982D01*
X-35748Y157903D01*
D02*
G37*
G36*
X-10958Y153413D02*
X-10954Y153386D01*
X-10948Y153359D01*
X-10939Y153332D01*
X-10927Y153305D01*
X-10913Y153278D01*
X-10896Y153251D01*
X-10877Y153225D01*
X-10854Y153198D01*
X-10830Y153172D01*
X-11665Y152337D01*
X-11691Y152362D01*
X-11717Y152384D01*
X-11744Y152404D01*
X-11770Y152420D01*
X-11797Y152435D01*
X-11824Y152446D01*
X-11851Y152455D01*
X-11878Y152462D01*
X-11906Y152465D01*
X-11933Y152466D01*
X-10959Y153441D01*
X-10958Y153413D01*
D02*
G37*
G36*
X452264Y149445D02*
Y85737D01*
X451764Y85530D01*
X451540Y85754D01*
X450889Y86024D01*
X450184D01*
X449983Y85940D01*
X449483Y86275D01*
Y90304D01*
X449586Y90554D01*
Y91259D01*
X449521Y91417D01*
Y125305D01*
X449442Y125700D01*
Y148862D01*
X449942Y149196D01*
X450140Y149114D01*
X450844D01*
X451496Y149384D01*
X451764Y149652D01*
X452264Y149445D01*
D02*
G37*
G36*
X88090Y130029D02*
X88106Y129779D01*
X88114Y129734D01*
X88124Y129695D01*
X88135Y129663D01*
X88147Y129638D01*
X88162Y129619D01*
X87605Y129063D01*
X87586Y129077D01*
X87561Y129090D01*
X87529Y129101D01*
X87491Y129110D01*
X87445Y129118D01*
X87334Y129129D01*
X87195Y129134D01*
X87116Y129134D01*
X88090Y130108D01*
X88090Y130029D01*
D02*
G37*
G36*
X102795Y126927D02*
X102798Y126900D01*
X102805Y126873D01*
X102814Y126846D01*
X102825Y126819D01*
X102840Y126792D01*
X102857Y126765D01*
X102876Y126739D01*
X102898Y126713D01*
X102923Y126686D01*
X102088Y125851D01*
X102062Y125876D01*
X102035Y125898D01*
X102009Y125918D01*
X101982Y125935D01*
X101955Y125949D01*
X101928Y125961D01*
X101901Y125969D01*
X101874Y125976D01*
X101847Y125979D01*
X101819Y125980D01*
X102794Y126955D01*
X102795Y126927D01*
D02*
G37*
G36*
X485806Y170926D02*
X485793Y170686D01*
X485680Y170345D01*
X484725Y169793D01*
X483866Y168935D01*
X483259Y167883D01*
X482945Y166710D01*
Y165495D01*
X483259Y164322D01*
X483866Y163270D01*
X484725Y162412D01*
X485777Y161804D01*
X486950Y161490D01*
X488164D01*
X489337Y161804D01*
X490389Y162412D01*
X491248Y163270D01*
X491855Y164322D01*
X492170Y165495D01*
Y166710D01*
X491855Y167883D01*
X491248Y168935D01*
X490389Y169793D01*
X489738Y170169D01*
X489872Y170669D01*
X525242D01*
X525376Y170169D01*
X524725Y169793D01*
X523866Y168935D01*
X523259Y167883D01*
X522945Y166710D01*
Y165495D01*
X523259Y164322D01*
X523866Y163270D01*
X524725Y162412D01*
X525777Y161804D01*
X526950Y161490D01*
X528164D01*
X529338Y161804D01*
X530389Y162412D01*
X531248Y163270D01*
X531855Y164322D01*
X532169Y165495D01*
Y166710D01*
X531855Y167883D01*
X531248Y168935D01*
X530389Y169793D01*
X529738Y170169D01*
X529872Y170669D01*
X544551D01*
Y120177D01*
X488555D01*
X487737Y121030D01*
X487933Y121490D01*
X488164D01*
X489337Y121804D01*
X490389Y122412D01*
X491248Y123270D01*
X491855Y124322D01*
X492170Y125495D01*
Y126710D01*
X491855Y127883D01*
X491248Y128935D01*
X490389Y129793D01*
X489337Y130401D01*
X488164Y130715D01*
X486950D01*
X485777Y130401D01*
X484725Y129793D01*
X483866Y128935D01*
X483259Y127883D01*
X482952Y126737D01*
X482730Y126606D01*
X482481Y126506D01*
X482285Y126710D01*
X454271Y155895D01*
Y194823D01*
X461909D01*
X485806Y170926D01*
D02*
G37*
G36*
X101842Y119826D02*
X102029Y119660D01*
X102067Y119634D01*
X102101Y119613D01*
X102132Y119598D01*
X102158Y119590D01*
X102182Y119587D01*
Y118799D01*
X102158Y118796D01*
X102132Y118787D01*
X102101Y118773D01*
X102067Y118752D01*
X102029Y118725D01*
X101943Y118655D01*
X101842Y118560D01*
X101786Y118504D01*
Y119882D01*
X101842Y119826D01*
D02*
G37*
G36*
X2224Y114921D02*
X2211Y114953D01*
X2197Y114981D01*
X2182Y115006D01*
X2165Y115028D01*
X2147Y115046D01*
X2128Y115061D01*
X2107Y115073D01*
X2086Y115082D01*
X2062Y115086D01*
X2038Y115088D01*
X2188Y115876D01*
X2224Y115876D01*
X2259Y115879D01*
X2291Y115884D01*
X2322Y115891D01*
X2351Y115899D01*
X2379Y115909D01*
X2405Y115921D01*
X2429Y115936D01*
X2451Y115951D01*
X2471Y115969D01*
X2224Y114921D01*
D02*
G37*
G36*
X-5301Y114579D02*
X-5276Y114567D01*
X-5244Y114558D01*
X-5205Y114551D01*
X-5159Y114546D01*
X-5108Y114544D01*
X-4984Y114547D01*
X-4834Y114561D01*
X-5705Y113492D01*
X-5712Y113571D01*
X-5751Y113818D01*
X-5762Y113863D01*
X-5774Y113901D01*
X-5787Y113932D01*
X-5801Y113957D01*
X-5815Y113975D01*
X-5320Y114594D01*
X-5301Y114579D01*
D02*
G37*
G36*
X4185Y111963D02*
X4136Y112024D01*
X4006Y112169D01*
X3968Y112205D01*
X3933Y112234D01*
X3900Y112256D01*
X3871Y112272D01*
X3844Y112282D01*
X3821Y112285D01*
X3915Y113073D01*
X3938Y113075D01*
X3965Y113083D01*
X3996Y113096D01*
X4031Y113114D01*
X4071Y113138D01*
X4164Y113200D01*
X4274Y113284D01*
X4335Y113333D01*
X4185Y111963D01*
D02*
G37*
G36*
X-4732Y110801D02*
X-4706Y110788D01*
X-4674Y110777D01*
X-4635Y110768D01*
X-4590Y110761D01*
X-4538Y110756D01*
X-4413Y110750D01*
X-4261Y110751D01*
X-5217Y109758D01*
X-5218Y109837D01*
X-5238Y110087D01*
X-5247Y110132D01*
X-5257Y110171D01*
X-5268Y110203D01*
X-5281Y110228D01*
X-5295Y110247D01*
X-4750Y110815D01*
X-4732Y110801D01*
D02*
G37*
G36*
X9165Y108718D02*
X9191Y108706D01*
X9223Y108695D01*
X9261Y108685D01*
X9307Y108677D01*
X9418Y108666D01*
X9556Y108661D01*
X9636Y108661D01*
X8662Y107687D01*
X8662Y107766D01*
X8646Y108016D01*
X8638Y108061D01*
X8628Y108100D01*
X8617Y108132D01*
X8604Y108157D01*
X8590Y108176D01*
X9147Y108733D01*
X9165Y108718D01*
D02*
G37*
G36*
X2883Y106967D02*
X2907Y106953D01*
X2937Y106938D01*
X2973Y106922D01*
X3065Y106891D01*
X3182Y106858D01*
X3324Y106824D01*
X2152Y106099D01*
X2169Y106174D01*
X2200Y106360D01*
X2203Y106411D01*
X2202Y106455D01*
X2198Y106493D01*
X2190Y106524D01*
X2179Y106550D01*
X2164Y106570D01*
X2866Y106982D01*
X2883Y106967D01*
D02*
G37*
G36*
X-781Y104803D02*
X-833Y104863D01*
X-968Y105005D01*
X-1007Y105039D01*
X-1043Y105068D01*
X-1076Y105090D01*
X-1106Y105105D01*
X-1132Y105115D01*
X-1156Y105118D01*
X-1090Y105905D01*
X-1067Y105908D01*
X-1040Y105916D01*
X-1009Y105930D01*
X-974Y105949D01*
X-935Y105973D01*
X-844Y106039D01*
X-736Y106126D01*
X-676Y106177D01*
X-781Y104803D01*
D02*
G37*
G36*
X25649Y98646D02*
X25484Y98458D01*
X25457Y98420D01*
X25437Y98386D01*
X25422Y98355D01*
X25413Y98328D01*
X25410Y98305D01*
X24623Y98302D01*
X24620Y98325D01*
X24611Y98352D01*
X24596Y98383D01*
X24576Y98417D01*
X24549Y98454D01*
X24478Y98541D01*
X24383Y98641D01*
X24327Y98697D01*
X25705Y98702D01*
X25649Y98646D01*
D02*
G37*
G36*
X322174Y92632D02*
X322248Y92570D01*
X322271Y92554D01*
X322292Y92540D01*
X322313Y92529D01*
X322333Y92521D01*
X322352Y92515D01*
X322369Y92512D01*
X321271Y91680D01*
X321274Y91712D01*
X321274Y91743D01*
X321271Y91774D01*
X321265Y91804D01*
X321256Y91833D01*
X321244Y91861D01*
X321229Y91890D01*
X321211Y91917D01*
X321190Y91944D01*
X321166Y91970D01*
X322148Y92658D01*
X322174Y92632D01*
D02*
G37*
G36*
X67407Y78150D02*
X67351Y78206D01*
X67164Y78371D01*
X67126Y78398D01*
X67092Y78418D01*
X67061Y78433D01*
X67035Y78442D01*
X67011Y78445D01*
Y79232D01*
X67035Y79235D01*
X67061Y79244D01*
X67092Y79259D01*
X67126Y79280D01*
X67164Y79306D01*
X67250Y79377D01*
X67351Y79471D01*
X67407Y79528D01*
Y78150D01*
D02*
G37*
G36*
X483366Y116732D02*
X544551Y116732D01*
Y64862D01*
X528870D01*
X528804Y65362D01*
X529338Y65505D01*
X530389Y66112D01*
X531248Y66971D01*
X531855Y68023D01*
X532169Y69196D01*
Y70411D01*
X531855Y71583D01*
X531248Y72635D01*
X530389Y73494D01*
X529338Y74101D01*
X528164Y74416D01*
X526950D01*
X525777Y74101D01*
X524725Y73494D01*
X523866Y72635D01*
X523259Y71583D01*
X522945Y70411D01*
Y69196D01*
X523259Y68023D01*
X523866Y66971D01*
X524725Y66112D01*
X525777Y65505D01*
X526310Y65362D01*
X526244Y64862D01*
X488870D01*
X488804Y65362D01*
X489337Y65505D01*
X490389Y66112D01*
X491248Y66971D01*
X491855Y68023D01*
X492170Y69196D01*
Y70411D01*
X491855Y71583D01*
X491248Y72635D01*
X490389Y73494D01*
X489337Y74101D01*
X488164Y74416D01*
X486950D01*
X485777Y74101D01*
X484725Y73494D01*
X483866Y72635D01*
X483259Y71583D01*
X482945Y70411D01*
Y69196D01*
X483259Y68023D01*
X483866Y66971D01*
X484725Y66112D01*
X485777Y65505D01*
X486310Y65362D01*
X486244Y64862D01*
X477408D01*
X454271Y88100D01*
Y139567D01*
X460532D01*
X483366Y116732D01*
D02*
G37*
G36*
X84154Y16301D02*
X84158Y16274D01*
X84165Y16247D01*
X84174Y16220D01*
X84185Y16193D01*
X84199Y16166D01*
X84216Y16139D01*
X84236Y16113D01*
X84258Y16086D01*
X84283Y16060D01*
X83448Y15225D01*
X83421Y15250D01*
X83395Y15272D01*
X83369Y15292D01*
X83342Y15308D01*
X83315Y15323D01*
X83288Y15334D01*
X83261Y15343D01*
X83234Y15350D01*
X83207Y15353D01*
X83179Y15354D01*
X84153Y16329D01*
X84154Y16301D01*
D02*
G37*
G36*
X475945Y57874D02*
X484901D01*
X485035Y57374D01*
X484725Y57195D01*
X483866Y56336D01*
X483259Y55284D01*
X482945Y54111D01*
Y52897D01*
X483259Y51724D01*
X483866Y50672D01*
X484725Y49813D01*
X485777Y49206D01*
X486950Y48892D01*
X488164D01*
X489337Y49206D01*
X490389Y49813D01*
X491248Y50672D01*
X491855Y51724D01*
X492170Y52897D01*
Y54111D01*
X491855Y55284D01*
X491248Y56336D01*
X490389Y57195D01*
X490079Y57374D01*
X490213Y57874D01*
X524901D01*
X525035Y57374D01*
X524725Y57195D01*
X523866Y56336D01*
X523259Y55284D01*
X522945Y54111D01*
Y52897D01*
X523259Y51724D01*
X523866Y50672D01*
X524725Y49813D01*
X525777Y49206D01*
X526950Y48892D01*
X528164D01*
X529338Y49206D01*
X530389Y49813D01*
X531248Y50672D01*
X531855Y51724D01*
X532169Y52897D01*
Y54111D01*
X531855Y55284D01*
X531248Y56336D01*
X530389Y57195D01*
X530079Y57374D01*
X530213Y57874D01*
X544551D01*
Y7382D01*
X469665D01*
X454271Y22776D01*
Y71653D01*
X462165D01*
X475945Y57874D01*
D02*
G37*
G36*
X452264Y7379D02*
Y5020D01*
X389665D01*
Y6469D01*
X450118D01*
X450656Y6576D01*
X451112Y6881D01*
X451802Y7571D01*
X452264Y7379D01*
D02*
G37*
%LPC*%
G36*
X463994Y391362D02*
X463994Y391362D01*
X109193D01*
X108732Y391270D01*
X108341Y391009D01*
X90192Y372859D01*
X89931Y372469D01*
X89839Y372008D01*
X89839Y372008D01*
Y369649D01*
X89838Y369648D01*
X89800Y369613D01*
X89800Y369613D01*
X89800Y369613D01*
X89800Y369613D01*
X89749Y369543D01*
X89498Y369293D01*
X89229Y368641D01*
Y367937D01*
X89498Y367285D01*
X89997Y366787D01*
X90648Y366517D01*
X91353D01*
X92004Y366787D01*
X92502Y367285D01*
X92772Y367937D01*
Y368641D01*
X92502Y369293D01*
X92342Y369453D01*
X92311Y369503D01*
X92311Y369504D01*
X92311Y369504D01*
X92266Y369553D01*
X92248Y369574D01*
Y371509D01*
X109692Y388953D01*
X111991D01*
X112182Y388491D01*
X100085Y376395D01*
X100064Y376393D01*
X100010Y376393D01*
X100010Y376393D01*
X100010Y376393D01*
X99932Y376378D01*
X99648D01*
X98996Y376108D01*
X98498Y375610D01*
X98228Y374959D01*
Y374254D01*
X98498Y373603D01*
X98996Y373104D01*
X99648Y372835D01*
X100352D01*
X101004Y373104D01*
X101502Y373603D01*
X101772Y374254D01*
Y374539D01*
X101787Y374616D01*
X101787Y374616D01*
X101787Y374616D01*
X101787Y374682D01*
X101787Y374691D01*
X110607Y383510D01*
X111184Y383380D01*
X111339Y383006D01*
X111837Y382508D01*
X112240Y382341D01*
X112698Y382139D01*
Y381434D01*
X112968Y380783D01*
X113466Y380285D01*
X114117Y380015D01*
X114822D01*
X115473Y380285D01*
X115972Y380783D01*
X116241Y381434D01*
Y382052D01*
X120858D01*
X120969Y381552D01*
X120687Y381363D01*
X117589Y378265D01*
X117568Y378264D01*
X117514Y378264D01*
X117514Y378264D01*
X117514Y378264D01*
X117437Y378248D01*
X117151D01*
X116500Y377979D01*
X116002Y377480D01*
X115732Y376829D01*
Y376124D01*
X116002Y375473D01*
X116500Y374975D01*
X117150Y374706D01*
X116929Y374171D01*
Y373466D01*
X117199Y372815D01*
X117697Y372317D01*
X118348Y372047D01*
X119053D01*
X119704Y372317D01*
X120203Y372815D01*
X120472Y373466D01*
Y373751D01*
X120488Y373829D01*
X120488Y373829D01*
X120488Y373829D01*
X120488Y373894D01*
X120488Y373903D01*
X122802Y376217D01*
X451636D01*
X470646Y357206D01*
X470659Y357135D01*
X470666Y357078D01*
X470666Y357077D01*
X470666Y357077D01*
X470669Y357066D01*
Y356931D01*
X470939Y356280D01*
X471437Y355782D01*
X472088Y355512D01*
X472793D01*
X473445Y355782D01*
X473943Y356280D01*
X474213Y356931D01*
Y357636D01*
X473943Y358287D01*
X473641Y358589D01*
X474084Y359032D01*
X474354Y359683D01*
Y360388D01*
X474084Y361039D01*
X473586Y361538D01*
X473515Y361567D01*
X473475Y361765D01*
X473214Y362155D01*
X454006Y381363D01*
X453724Y381552D01*
X453835Y382052D01*
X456863D01*
X471932Y366983D01*
X471968Y366802D01*
X472229Y366411D01*
X489418Y349223D01*
X489433Y349171D01*
Y349106D01*
X489702Y348455D01*
X490201Y347957D01*
X490852Y347687D01*
X491557D01*
X492208Y347957D01*
X492706Y348455D01*
X492976Y349106D01*
Y349811D01*
X492706Y350462D01*
X492276Y350892D01*
X492644Y351260D01*
X492913Y351911D01*
Y352616D01*
X492644Y353267D01*
X492145Y353766D01*
X491494Y354035D01*
X491014D01*
X490958Y354041D01*
X490927Y354039D01*
X459283Y385682D01*
X458892Y385943D01*
X458432Y386035D01*
X458431Y386035D01*
X113892D01*
X113892Y386035D01*
X113826Y386022D01*
X113579Y386482D01*
X114082Y386985D01*
X462402D01*
X474763Y374624D01*
X474765Y374612D01*
X475026Y374221D01*
X488003Y361244D01*
X488003Y361244D01*
X488394Y360983D01*
X488467Y360853D01*
X488482Y360770D01*
Y360457D01*
X488752Y359806D01*
X489250Y359308D01*
X489901Y359038D01*
X490606D01*
X491257Y359308D01*
X491756Y359806D01*
X492025Y360457D01*
Y361162D01*
X491756Y361813D01*
X491599Y361970D01*
X491613Y362040D01*
X492111Y362539D01*
X492381Y363190D01*
Y363895D01*
X492111Y364546D01*
X491613Y365044D01*
X490962Y365314D01*
X490677D01*
X490599Y365329D01*
X490599Y365329D01*
X490599Y365329D01*
X490534Y365329D01*
X490525Y365330D01*
X464846Y391009D01*
X464455Y391270D01*
X463994Y391362D01*
D02*
G37*
G36*
X446426Y346752D02*
X445700D01*
X444999Y346564D01*
X444371Y346201D01*
X443962Y345793D01*
X443652Y345730D01*
X443341Y345793D01*
X442932Y346201D01*
X442304Y346564D01*
X441603Y346752D01*
X440877D01*
X440176Y346564D01*
X439548Y346201D01*
X439035Y345688D01*
X438871Y345405D01*
X438294D01*
X438131Y345688D01*
X437617Y346201D01*
X436989Y346564D01*
X436288Y346752D01*
X435562D01*
X434862Y346564D01*
X434233Y346201D01*
X433720Y345688D01*
X433357Y345060D01*
X433169Y344359D01*
Y343633D01*
X433357Y342932D01*
X433720Y342304D01*
X434233Y341791D01*
X434862Y341428D01*
X435562Y341240D01*
X436288D01*
X436989Y341428D01*
X437617Y341791D01*
X438131Y342304D01*
X438294Y342587D01*
X438871D01*
X439035Y342304D01*
X439548Y341791D01*
X440176Y341428D01*
X440877Y341240D01*
X441603D01*
X442304Y341428D01*
X442932Y341791D01*
X443341Y342199D01*
X443652Y342262D01*
X443962Y342199D01*
X444371Y341791D01*
X444999Y341428D01*
X445700Y341240D01*
X446426D01*
X447127Y341428D01*
X447755Y341791D01*
X448268Y342304D01*
X448631Y342932D01*
X448819Y343633D01*
Y344359D01*
X448631Y345060D01*
X448268Y345688D01*
X447755Y346201D01*
X447127Y346564D01*
X446426Y346752D01*
D02*
G37*
G36*
X449902Y375614D02*
X449901Y375614D01*
X181693D01*
X181232Y375522D01*
X180841Y375261D01*
X180841Y375261D01*
X175085Y369505D01*
X175064Y369503D01*
X175010Y369504D01*
X175010Y369503D01*
X175010Y369504D01*
X174933Y369488D01*
X174648D01*
X173996Y369218D01*
X173498Y368720D01*
X173228Y368069D01*
Y367364D01*
X173498Y366713D01*
X173996Y366215D01*
X174648Y365945D01*
X175352D01*
X176004Y366215D01*
X176502Y366713D01*
X176772Y367364D01*
Y367649D01*
X176787Y367726D01*
X176787Y367726D01*
X176787Y367727D01*
X176787Y367792D01*
X176787Y367801D01*
X182192Y373205D01*
X449403D01*
X476788Y345820D01*
X477178Y345560D01*
X477639Y345468D01*
X478657D01*
X478667Y345443D01*
X479013Y345097D01*
X478806Y344597D01*
X476693D01*
X449474Y371816D01*
X449083Y372077D01*
X448622Y372169D01*
X448622Y372169D01*
X197898D01*
X197438Y372077D01*
X197047Y371816D01*
X195361Y370130D01*
X195340Y370129D01*
X195286Y370129D01*
X195286Y370129D01*
X195285Y370129D01*
X195208Y370113D01*
X194923D01*
X194272Y369844D01*
X193774Y369345D01*
X193504Y368694D01*
Y367989D01*
X193774Y367338D01*
X194272Y366840D01*
X194923Y366570D01*
X195628D01*
X196279Y366840D01*
X196777Y367338D01*
X197047Y367989D01*
Y368274D01*
X197063Y368352D01*
X197063Y368352D01*
X197063Y368352D01*
X197063Y368417D01*
X197063Y368426D01*
X198397Y369760D01*
X448123D01*
X475342Y342541D01*
X475342Y342541D01*
X475733Y342280D01*
X476194Y342189D01*
X479332D01*
X479348Y342175D01*
X479386Y342137D01*
X479386Y342136D01*
X479386Y342136D01*
X479452Y342092D01*
X479653Y341891D01*
X480304Y341621D01*
X481009D01*
X481660Y341891D01*
X482159Y342389D01*
X482428Y343040D01*
Y343745D01*
X482159Y344396D01*
X481660Y344895D01*
X481571Y345342D01*
X481671Y345443D01*
X481941Y346094D01*
Y346798D01*
X481671Y347450D01*
X481173Y347948D01*
X480522Y348218D01*
X479817D01*
X479166Y347948D01*
X479112Y347894D01*
X479080Y347876D01*
X478138D01*
X450753Y375261D01*
X450362Y375522D01*
X449902Y375614D01*
D02*
G37*
G36*
X494640Y338996D02*
X493935D01*
X493284Y338726D01*
X492785Y338228D01*
X492516Y337577D01*
Y336872D01*
X492785Y336221D01*
X493284Y335722D01*
X493935Y335453D01*
X494640D01*
X495291Y335722D01*
X495789Y336221D01*
X496059Y336872D01*
Y337577D01*
X495789Y338228D01*
X495291Y338726D01*
X494640Y338996D01*
D02*
G37*
G36*
X472203Y336811D02*
X471498D01*
X470847Y336541D01*
X470349Y336043D01*
X470079Y335392D01*
Y334687D01*
X470087Y334668D01*
X469809Y334252D01*
X469628D01*
X468977Y333982D01*
X468478Y333484D01*
X468209Y332833D01*
Y332128D01*
X468478Y331477D01*
X468977Y330978D01*
X469628Y330709D01*
X470333D01*
X470984Y330978D01*
X471482Y331477D01*
X471752Y332128D01*
Y332833D01*
X471744Y332852D01*
X472022Y333268D01*
X472203D01*
X472854Y333537D01*
X473352Y334036D01*
X473622Y334687D01*
Y335392D01*
X473352Y336043D01*
X472854Y336541D01*
X472203Y336811D01*
D02*
G37*
G36*
X489132Y331257D02*
X488427D01*
X487776Y330987D01*
X487278Y330489D01*
X487008Y329838D01*
Y329133D01*
X487278Y328482D01*
X487776Y327984D01*
X488427Y327714D01*
X489132D01*
X489783Y327984D01*
X490281Y328482D01*
X490551Y329133D01*
Y329838D01*
X490281Y330489D01*
X489783Y330987D01*
X489132Y331257D01*
D02*
G37*
G36*
X491916Y328142D02*
X491211D01*
X490560Y327873D01*
X490062Y327374D01*
X489792Y326723D01*
Y326018D01*
X490062Y325367D01*
X490560Y324869D01*
X491211Y324599D01*
X491916D01*
X492567Y324869D01*
X493066Y325367D01*
X493335Y326018D01*
Y326723D01*
X493066Y327374D01*
X492567Y327873D01*
X491916Y328142D01*
D02*
G37*
G36*
X512262Y326673D02*
X511557D01*
X510906Y326403D01*
X510407Y325905D01*
X510138Y325254D01*
Y324549D01*
X510407Y323898D01*
X510906Y323400D01*
X511557Y323130D01*
X512262D01*
X512913Y323400D01*
X513411Y323898D01*
X513681Y324549D01*
Y325254D01*
X513411Y325905D01*
X512913Y326403D01*
X512262Y326673D01*
D02*
G37*
G36*
X519038Y322794D02*
X518333D01*
X517682Y322525D01*
X517184Y322026D01*
X516914Y321375D01*
Y320670D01*
X517184Y320019D01*
X517682Y319521D01*
X518333Y319251D01*
X519038D01*
X519689Y319521D01*
X520188Y320019D01*
X520457Y320670D01*
Y321375D01*
X520188Y322026D01*
X519689Y322525D01*
X519038Y322794D01*
D02*
G37*
G36*
X514919Y318504D02*
X514215D01*
X513563Y318234D01*
X513065Y317736D01*
X512795Y317085D01*
Y316380D01*
X513065Y315729D01*
X513563Y315230D01*
X514215Y314961D01*
X514919D01*
X515570Y315230D01*
X516069Y315729D01*
X516339Y316380D01*
Y317085D01*
X516069Y317736D01*
X515570Y318234D01*
X514919Y318504D01*
D02*
G37*
G36*
X528164Y283313D02*
X526950D01*
X525777Y282999D01*
X524725Y282392D01*
X523866Y281533D01*
X523259Y280481D01*
X522945Y279308D01*
Y278094D01*
X523259Y276921D01*
X523866Y275869D01*
X524725Y275010D01*
X525777Y274403D01*
X526950Y274088D01*
X528164D01*
X529338Y274403D01*
X530389Y275010D01*
X531248Y275869D01*
X531855Y276921D01*
X532169Y278094D01*
Y279308D01*
X531855Y280481D01*
X531248Y281533D01*
X530389Y282392D01*
X529338Y282999D01*
X528164Y283313D01*
D02*
G37*
G36*
X488164D02*
X486950D01*
X485777Y282999D01*
X484725Y282392D01*
X483866Y281533D01*
X483259Y280481D01*
X482945Y279308D01*
Y278094D01*
X483259Y276921D01*
X483866Y275869D01*
X484725Y275010D01*
X485777Y274403D01*
X486950Y274088D01*
X488164D01*
X489337Y274403D01*
X490389Y275010D01*
X491248Y275869D01*
X491855Y276921D01*
X492170Y278094D01*
Y279308D01*
X491855Y280481D01*
X491248Y281533D01*
X490389Y282392D01*
X489337Y282999D01*
X488164Y283313D01*
D02*
G37*
G36*
X503250Y266132D02*
X501786D01*
X500350Y265846D01*
X498998Y265286D01*
X497781Y264473D01*
X496746Y263438D01*
X495932Y262221D01*
X495372Y260868D01*
X495087Y259433D01*
Y257969D01*
X495372Y256533D01*
X495932Y255181D01*
X496746Y253964D01*
X497781Y252929D01*
X498998Y252116D01*
X500350Y251555D01*
X501786Y251270D01*
X503250D01*
X504685Y251555D01*
X506038Y252116D01*
X507255Y252929D01*
X508290Y253964D01*
X509103Y255181D01*
X509663Y256533D01*
X509949Y257969D01*
Y259433D01*
X509663Y260868D01*
X509103Y262221D01*
X508290Y263438D01*
X507255Y264473D01*
X506038Y265286D01*
X504685Y265846D01*
X503250Y266132D01*
D02*
G37*
G36*
X528164Y243313D02*
X526950D01*
X525777Y242999D01*
X524725Y242392D01*
X523866Y241533D01*
X523259Y240481D01*
X522945Y239308D01*
Y238094D01*
X523259Y236920D01*
X523866Y235869D01*
X524725Y235010D01*
X525777Y234403D01*
X526950Y234088D01*
X528164D01*
X529338Y234403D01*
X530389Y235010D01*
X531248Y235869D01*
X531855Y236920D01*
X532169Y238094D01*
Y239308D01*
X531855Y240481D01*
X531248Y241533D01*
X530389Y242392D01*
X529338Y242999D01*
X528164Y243313D01*
D02*
G37*
G36*
X488164D02*
X486950D01*
X485777Y242999D01*
X484725Y242392D01*
X483866Y241533D01*
X483259Y240481D01*
X482945Y239308D01*
Y238094D01*
X483259Y236920D01*
X483866Y235869D01*
X484725Y235010D01*
X485777Y234403D01*
X486950Y234088D01*
X488164D01*
X489337Y234403D01*
X490389Y235010D01*
X491248Y235869D01*
X491855Y236920D01*
X492170Y238094D01*
Y239308D01*
X491855Y240481D01*
X491248Y241533D01*
X490389Y242392D01*
X489337Y242999D01*
X488164Y243313D01*
D02*
G37*
%LPD*%
G36*
X113947Y384329D02*
X113933Y384311D01*
X113919Y384287D01*
X113906Y384257D01*
X113892Y384219D01*
X113878Y384175D01*
X113852Y384067D01*
X113813Y383856D01*
X113014Y384979D01*
X113090Y384966D01*
X113282Y384946D01*
X113333Y384946D01*
X113378Y384948D01*
X113416Y384954D01*
X113448Y384962D01*
X113474Y384974D01*
X113494Y384988D01*
X113947Y384329D01*
D02*
G37*
G36*
X115413Y382493D02*
X115399Y382474D01*
X115387Y382448D01*
X115379Y382416D01*
X115375Y382378D01*
X115375Y382334D01*
X115378Y382284D01*
X115384Y382228D01*
X115408Y382097D01*
X115425Y382023D01*
X114253Y382747D01*
X114328Y382764D01*
X114604Y382846D01*
X114641Y382861D01*
X114671Y382876D01*
X114694Y382891D01*
X114711Y382905D01*
X115413Y382493D01*
D02*
G37*
G36*
X453335Y378628D02*
X452986Y378273D01*
X452595Y378534D01*
X452134Y378625D01*
X452134Y378625D01*
X122303D01*
X122303Y378625D01*
X122242Y378613D01*
X121959Y379067D01*
X122143Y379308D01*
X452656D01*
X453335Y378628D01*
D02*
G37*
G36*
X118559Y376975D02*
X118545Y376957D01*
X118532Y376932D01*
X118521Y376900D01*
X118512Y376861D01*
X118504Y376816D01*
X118493Y376704D01*
X118488Y376566D01*
X118488Y376487D01*
X117514Y377461D01*
X117593Y377461D01*
X117843Y377477D01*
X117888Y377485D01*
X117927Y377494D01*
X117959Y377505D01*
X117984Y377518D01*
X118003Y377532D01*
X118559Y376975D01*
D02*
G37*
G36*
X101055Y375105D02*
X101041Y375086D01*
X101029Y375061D01*
X101017Y375029D01*
X101008Y374991D01*
X101000Y374945D01*
X100989Y374834D01*
X100984Y374695D01*
X100984Y374616D01*
X100010Y375590D01*
X100089Y375590D01*
X100339Y375606D01*
X100384Y375614D01*
X100423Y375624D01*
X100455Y375635D01*
X100480Y375647D01*
X100499Y375662D01*
X101055Y375105D01*
D02*
G37*
G36*
X119756Y374318D02*
X119742Y374299D01*
X119729Y374274D01*
X119718Y374242D01*
X119709Y374203D01*
X119701Y374158D01*
X119690Y374046D01*
X119685Y373908D01*
X119685Y373829D01*
X118711Y374803D01*
X118790Y374803D01*
X119040Y374819D01*
X119085Y374827D01*
X119124Y374836D01*
X119156Y374847D01*
X119181Y374860D01*
X119200Y374874D01*
X119756Y374318D01*
D02*
G37*
G36*
X91437Y369368D02*
X91440Y369345D01*
X91448Y369318D01*
X91462Y369287D01*
X91482Y369253D01*
X91508Y369214D01*
X91575Y369125D01*
X91666Y369020D01*
X91719Y368961D01*
X90343Y369021D01*
X90401Y369075D01*
X90573Y369255D01*
X90601Y369292D01*
X90622Y369325D01*
X90637Y369355D01*
X90646Y369382D01*
X90650Y369406D01*
X91437Y369368D01*
D02*
G37*
G36*
X490129Y364584D02*
X490154Y364571D01*
X490186Y364560D01*
X490225Y364550D01*
X490271Y364542D01*
X490382Y364531D01*
X490520Y364527D01*
X490599Y364527D01*
X489625Y363552D01*
X489625Y363632D01*
X489609Y363881D01*
X489602Y363927D01*
X489592Y363965D01*
X489581Y363997D01*
X489568Y364023D01*
X489554Y364041D01*
X490111Y364598D01*
X490129Y364584D01*
D02*
G37*
G36*
X489792Y361858D02*
X489817Y361845D01*
X489849Y361834D01*
X489888Y361824D01*
X489933Y361815D01*
X490045Y361802D01*
X490183Y361795D01*
X490262Y361794D01*
X489270Y360838D01*
X489271Y360917D01*
X489260Y361167D01*
X489253Y361212D01*
X489244Y361251D01*
X489233Y361283D01*
X489220Y361308D01*
X489206Y361327D01*
X489774Y361872D01*
X489792Y361858D01*
D02*
G37*
G36*
X472760Y361177D02*
X472770Y361151D01*
X472787Y361122D01*
X472811Y361092D01*
X472842Y361061D01*
X472879Y361027D01*
X472923Y360992D01*
X473032Y360915D01*
X473097Y360875D01*
X471754Y360567D01*
X471795Y360632D01*
X471935Y360885D01*
X471950Y360921D01*
X471960Y360953D01*
X471967Y360980D01*
X471969Y361002D01*
X472756Y361201D01*
X472760Y361177D01*
D02*
G37*
G36*
X471846Y358271D02*
X471872Y358259D01*
X471904Y358249D01*
X471943Y358243D01*
X471988Y358239D01*
X472040Y358238D01*
X472163Y358243D01*
X472312Y358259D01*
X471463Y357174D01*
X471453Y357252D01*
X471411Y357498D01*
X471398Y357542D01*
X471386Y357580D01*
X471373Y357612D01*
X471359Y357636D01*
X471345Y357654D01*
X471827Y358285D01*
X471846Y358271D01*
D02*
G37*
G36*
X490564Y353260D02*
X490589Y353248D01*
X490622Y353238D01*
X490660Y353231D01*
X490706Y353227D01*
X490758Y353225D01*
X490881Y353228D01*
X491031Y353242D01*
X490162Y352172D01*
X490154Y352251D01*
X490115Y352498D01*
X490103Y352542D01*
X490091Y352581D01*
X490079Y352612D01*
X490065Y352637D01*
X490051Y352655D01*
X490545Y353274D01*
X490564Y353260D01*
D02*
G37*
G36*
X490244Y349242D02*
X490227Y349317D01*
X490145Y349593D01*
X490130Y349629D01*
X490115Y349659D01*
X490100Y349683D01*
X490086Y349700D01*
X490498Y350402D01*
X490518Y350387D01*
X490544Y350376D01*
X490575Y350368D01*
X490613Y350364D01*
X490657Y350363D01*
X490707Y350366D01*
X490764Y350373D01*
X490894Y350397D01*
X490969Y350414D01*
X490244Y349242D01*
D02*
G37*
G36*
X196331Y368841D02*
X196317Y368822D01*
X196304Y368797D01*
X196293Y368765D01*
X196283Y368726D01*
X196275Y368681D01*
X196265Y368569D01*
X196260Y368431D01*
X196260Y368352D01*
X195285Y369326D01*
X195365Y369326D01*
X195614Y369342D01*
X195660Y369350D01*
X195699Y369359D01*
X195731Y369370D01*
X195756Y369383D01*
X195774Y369397D01*
X196331Y368841D01*
D02*
G37*
G36*
X176055Y368215D02*
X176041Y368197D01*
X176029Y368172D01*
X176017Y368140D01*
X176008Y368101D01*
X176000Y368055D01*
X175989Y367944D01*
X175984Y367806D01*
X175984Y367726D01*
X175010Y368701D01*
X175089Y368701D01*
X175339Y368717D01*
X175384Y368724D01*
X175423Y368734D01*
X175455Y368745D01*
X175480Y368758D01*
X175499Y368772D01*
X176055Y368215D01*
D02*
G37*
G36*
X479327Y345937D02*
X479287Y346002D01*
X479176Y346155D01*
X479143Y346193D01*
X479111Y346224D01*
X479081Y346248D01*
X479053Y346265D01*
X479027Y346275D01*
X479003Y346278D01*
X479208Y347066D01*
X479230Y347068D01*
X479257Y347074D01*
X479289Y347085D01*
X479325Y347100D01*
X479413Y347142D01*
X479519Y347202D01*
X479643Y347278D01*
X479327Y345937D01*
D02*
G37*
G36*
X479954Y342704D02*
X479898Y342760D01*
X479710Y342925D01*
X479672Y342952D01*
X479638Y342973D01*
X479608Y342987D01*
X479581Y342996D01*
X479558Y342999D01*
Y343787D01*
X479581Y343790D01*
X479608Y343798D01*
X479638Y343813D01*
X479672Y343834D01*
X479710Y343860D01*
X479797Y343931D01*
X479898Y344026D01*
X479954Y344082D01*
Y342704D01*
D02*
G37*
%LPC*%
G36*
X180912Y352867D02*
X180207D01*
X179555Y352598D01*
X179057Y352099D01*
X178787Y351448D01*
Y350743D01*
X179057Y350092D01*
X179555Y349594D01*
X180207Y349324D01*
X180912D01*
X181563Y349594D01*
X182061Y350092D01*
X182331Y350743D01*
Y351448D01*
X182061Y352099D01*
X181563Y352598D01*
X180912Y352867D01*
D02*
G37*
G36*
X234713Y353150D02*
X233988D01*
X233287Y352962D01*
X232658Y352599D01*
X232145Y352086D01*
X231782Y351457D01*
X231594Y350757D01*
Y350031D01*
X231782Y349330D01*
X232145Y348702D01*
X232658Y348188D01*
X233287Y347826D01*
X233988Y347638D01*
X234713D01*
X235414Y347826D01*
X236042Y348188D01*
X236556Y348702D01*
X236918Y349330D01*
X237106Y350031D01*
Y350757D01*
X236918Y351457D01*
X236556Y352086D01*
X236042Y352599D01*
X235414Y352962D01*
X234713Y353150D01*
D02*
G37*
G36*
X245431Y352362D02*
X244726D01*
X244075Y352093D01*
X243577Y351594D01*
X243307Y350943D01*
Y350238D01*
X243577Y349587D01*
X243772Y349392D01*
X244055Y349065D01*
X243772Y348738D01*
X243577Y348543D01*
X243307Y347892D01*
Y347187D01*
X243577Y346536D01*
X244075Y346037D01*
X244726Y345768D01*
X245431D01*
X246082Y346037D01*
X246581Y346536D01*
X246850Y347187D01*
Y347892D01*
X246581Y348543D01*
X246385Y348738D01*
X246103Y349065D01*
X246385Y349392D01*
X246581Y349587D01*
X246850Y350238D01*
Y350943D01*
X246581Y351594D01*
X246082Y352093D01*
X245431Y352362D01*
D02*
G37*
G36*
X206278Y347638D02*
X205573D01*
X204922Y347368D01*
X204423Y346870D01*
X204154Y346218D01*
Y345514D01*
X204423Y344863D01*
X204922Y344364D01*
X205573Y344094D01*
X206278D01*
X206929Y344364D01*
X207427Y344863D01*
X207697Y345514D01*
Y346218D01*
X207427Y346870D01*
X206929Y347368D01*
X206278Y347638D01*
D02*
G37*
G36*
X163837Y347539D02*
X163132D01*
X162481Y347270D01*
X161982Y346771D01*
X161713Y346120D01*
Y345415D01*
X161982Y344764D01*
X162481Y344266D01*
X163132Y343996D01*
X163837D01*
X164488Y344266D01*
X164986Y344764D01*
X165256Y345415D01*
Y346120D01*
X164986Y346771D01*
X164488Y347270D01*
X163837Y347539D01*
D02*
G37*
G36*
X186278Y347342D02*
X185573D01*
X184922Y347073D01*
X184423Y346574D01*
X184153Y345923D01*
Y345218D01*
X184423Y344567D01*
X184922Y344069D01*
X185573Y343799D01*
X186278D01*
X186929Y344069D01*
X187427Y344567D01*
X187697Y345218D01*
Y345923D01*
X187427Y346574D01*
X186929Y347073D01*
X186278Y347342D01*
D02*
G37*
G36*
X117774Y346555D02*
X117069D01*
X116418Y346285D01*
X115919Y345787D01*
X115650Y345136D01*
Y344431D01*
X115919Y343780D01*
X116418Y343282D01*
X117069Y343012D01*
X117774D01*
X118425Y343282D01*
X118923Y343780D01*
X119193Y344431D01*
Y345136D01*
X118923Y345787D01*
X118425Y346285D01*
X117774Y346555D01*
D02*
G37*
G36*
X431356Y324803D02*
X430652D01*
X430000Y324533D01*
X429502Y324035D01*
X429232Y323384D01*
Y322679D01*
X429502Y322028D01*
X430000Y321530D01*
X430652Y321260D01*
X431356D01*
X432008Y321530D01*
X432506Y322028D01*
X432776Y322679D01*
Y323384D01*
X432506Y324035D01*
X432008Y324533D01*
X431356Y324803D01*
D02*
G37*
G36*
X422196Y311976D02*
X421491D01*
X420840Y311707D01*
X420342Y311208D01*
X420072Y310557D01*
Y309852D01*
X420342Y309201D01*
X420840Y308703D01*
X421491Y308433D01*
X422196D01*
X422847Y308703D01*
X423346Y309201D01*
X423615Y309852D01*
Y310557D01*
X423346Y311208D01*
X422847Y311707D01*
X422196Y311976D01*
D02*
G37*
G36*
X434214Y294325D02*
X433509D01*
X432858Y294055D01*
X432359Y293557D01*
X432090Y292906D01*
Y292201D01*
X432359Y291550D01*
X432858Y291051D01*
X433509Y290782D01*
X434214D01*
X434865Y291051D01*
X435363Y291550D01*
X435633Y292201D01*
Y292906D01*
X435363Y293557D01*
X434865Y294055D01*
X434214Y294325D01*
D02*
G37*
G36*
X427715Y289075D02*
X427010D01*
X426359Y288805D01*
X425860Y288307D01*
X425591Y287655D01*
Y286951D01*
X425860Y286300D01*
X426359Y285801D01*
X427010Y285531D01*
X427715D01*
X428366Y285801D01*
X428864Y286300D01*
X429134Y286951D01*
Y287655D01*
X428864Y288307D01*
X428366Y288805D01*
X427715Y289075D01*
D02*
G37*
G36*
X425057Y242992D02*
X424352D01*
X423701Y242722D01*
X423203Y242224D01*
X422933Y241573D01*
Y240868D01*
X423203Y240217D01*
X423701Y239718D01*
X424352Y239449D01*
X425057D01*
X425708Y239718D01*
X426207Y240217D01*
X426476Y240868D01*
Y241573D01*
X426207Y242224D01*
X425708Y242722D01*
X425057Y242992D01*
D02*
G37*
G36*
X426084Y208293D02*
X425379D01*
X424728Y208024D01*
X424230Y207525D01*
X423960Y206874D01*
Y206169D01*
X424230Y205518D01*
X424728Y205020D01*
X425379Y204750D01*
X426084D01*
X426735Y205020D01*
X427234Y205518D01*
X427503Y206169D01*
Y206874D01*
X427234Y207525D01*
X426735Y208024D01*
X426084Y208293D01*
D02*
G37*
G36*
X410097Y207874D02*
X409392D01*
X408741Y207604D01*
X408242Y207106D01*
X407972Y206455D01*
Y205750D01*
X408242Y205099D01*
X408741Y204600D01*
X409392Y204331D01*
X410097D01*
X410748Y204600D01*
X411246Y205099D01*
X411516Y205750D01*
Y206455D01*
X411246Y207106D01*
X410748Y207604D01*
X410097Y207874D01*
D02*
G37*
G36*
X426306Y203710D02*
X425602D01*
X424951Y203440D01*
X424452Y202942D01*
X424182Y202290D01*
Y201586D01*
X424452Y200935D01*
X424951Y200436D01*
X425602Y200166D01*
X426306D01*
X426958Y200436D01*
X427456Y200935D01*
X427726Y201586D01*
Y202290D01*
X427456Y202942D01*
X426958Y203440D01*
X426306Y203710D01*
D02*
G37*
G36*
X441101Y201378D02*
X440396D01*
X439745Y201108D01*
X439246Y200610D01*
X438976Y199959D01*
Y199254D01*
X439246Y198603D01*
X439745Y198104D01*
X440396Y197835D01*
X441101D01*
X441752Y198104D01*
X442250Y198603D01*
X442520Y199254D01*
Y199959D01*
X442250Y200610D01*
X441752Y201108D01*
X441101Y201378D01*
D02*
G37*
G36*
X411967Y197677D02*
X411262D01*
X410611Y197407D01*
X410112Y196909D01*
X409842Y196258D01*
Y195553D01*
X410112Y194902D01*
X410611Y194404D01*
X411262Y194134D01*
X411967D01*
X412618Y194404D01*
X413116Y194902D01*
X413386Y195553D01*
Y196258D01*
X413116Y196909D01*
X412618Y197407D01*
X411967Y197677D01*
D02*
G37*
G36*
X425855Y185138D02*
X425129D01*
X424428Y184950D01*
X423800Y184587D01*
X423287Y184074D01*
X422924Y183446D01*
X422736Y182745D01*
Y182019D01*
X422924Y181318D01*
X423287Y180690D01*
X423800Y180177D01*
X424428Y179814D01*
X425129Y179626D01*
X425855D01*
X426556Y179814D01*
X427184Y180177D01*
X427697Y180690D01*
X428060Y181318D01*
X428248Y182019D01*
Y182745D01*
X428060Y183446D01*
X427697Y184074D01*
X427184Y184587D01*
X426556Y184950D01*
X425855Y185138D01*
D02*
G37*
G36*
X411671Y169725D02*
X410966D01*
X410315Y169455D01*
X409817Y168956D01*
X409547Y168305D01*
Y167600D01*
X409817Y166949D01*
X410315Y166451D01*
X410966Y166181D01*
X411671D01*
X412323Y166451D01*
X412821Y166949D01*
X413091Y167600D01*
Y168305D01*
X412821Y168956D01*
X412323Y169455D01*
X411671Y169725D01*
D02*
G37*
G36*
X425254Y165650D02*
X424549D01*
X423898Y165380D01*
X423400Y164882D01*
X423130Y164230D01*
Y163525D01*
X423400Y162874D01*
X423898Y162376D01*
X424549Y162106D01*
X425254D01*
X425905Y162376D01*
X426404Y162874D01*
X426673Y163525D01*
Y164230D01*
X426404Y164882D01*
X425905Y165380D01*
X425254Y165650D01*
D02*
G37*
G36*
X404486Y157874D02*
X403782D01*
X403130Y157604D01*
X402632Y157106D01*
X402362Y156455D01*
Y155750D01*
X402632Y155099D01*
X403130Y154600D01*
X403782Y154331D01*
X404486D01*
X405137Y154600D01*
X405636Y155099D01*
X405905Y155750D01*
Y156455D01*
X405636Y157106D01*
X405137Y157604D01*
X404486Y157874D01*
D02*
G37*
G36*
X425648Y155610D02*
X424943D01*
X424292Y155341D01*
X423793Y154842D01*
X423524Y154191D01*
Y153486D01*
X423793Y152835D01*
X424292Y152337D01*
X424943Y152067D01*
X425648D01*
X426299Y152337D01*
X426797Y152835D01*
X427067Y153486D01*
Y154191D01*
X426797Y154842D01*
X426299Y155341D01*
X425648Y155610D01*
D02*
G37*
G36*
X428404Y136713D02*
X427699D01*
X427048Y136443D01*
X426549Y135944D01*
X426279Y135293D01*
Y134589D01*
X426549Y133937D01*
X427048Y133439D01*
X427699Y133169D01*
X428404D01*
X429055Y133439D01*
X429553Y133937D01*
X429823Y134589D01*
Y135293D01*
X429553Y135944D01*
X429055Y136443D01*
X428404Y136713D01*
D02*
G37*
G36*
X413246Y131201D02*
X412541D01*
X411890Y130931D01*
X411392Y130433D01*
X411122Y129781D01*
Y129077D01*
X411392Y128426D01*
X411890Y127927D01*
X412541Y127657D01*
X413246D01*
X413897Y127927D01*
X414396Y128426D01*
X414665Y129077D01*
Y129781D01*
X414396Y130433D01*
X413897Y130931D01*
X413246Y131201D01*
D02*
G37*
G36*
X425855Y117421D02*
X425129D01*
X424428Y117233D01*
X423800Y116871D01*
X423287Y116358D01*
X422924Y115729D01*
X422736Y115028D01*
Y114303D01*
X422924Y113602D01*
X423287Y112973D01*
X423800Y112460D01*
X424428Y112097D01*
X425129Y111909D01*
X425855D01*
X426556Y112097D01*
X427184Y112460D01*
X427697Y112973D01*
X428060Y113602D01*
X428248Y114303D01*
Y115028D01*
X428060Y115729D01*
X427697Y116358D01*
X427184Y116871D01*
X426556Y117233D01*
X425855Y117421D01*
D02*
G37*
G36*
X411283Y102816D02*
X410579D01*
X409927Y102546D01*
X409429Y102048D01*
X409159Y101397D01*
Y100692D01*
X409429Y100040D01*
X409927Y99542D01*
X410579Y99272D01*
X411283D01*
X411935Y99542D01*
X412433Y100040D01*
X412703Y100692D01*
Y101397D01*
X412433Y102048D01*
X411935Y102546D01*
X411283Y102816D01*
D02*
G37*
G36*
X425262Y98689D02*
X424557D01*
X423906Y98419D01*
X423408Y97921D01*
X423138Y97270D01*
Y96565D01*
X423408Y95914D01*
X423906Y95415D01*
X424557Y95146D01*
X425262D01*
X425913Y95415D01*
X426411Y95914D01*
X426681Y96565D01*
Y97270D01*
X426411Y97921D01*
X425913Y98419D01*
X425262Y98689D01*
D02*
G37*
G36*
X403774Y91929D02*
X403069D01*
X402418Y91659D01*
X401920Y91161D01*
X401650Y90510D01*
Y89805D01*
X401920Y89154D01*
X402418Y88656D01*
X403069Y88386D01*
X403774D01*
X404425Y88656D01*
X404924Y89154D01*
X405193Y89805D01*
Y90510D01*
X404924Y91161D01*
X404425Y91659D01*
X403774Y91929D01*
D02*
G37*
G36*
X425746Y89567D02*
X425041D01*
X424390Y89297D01*
X423892Y88799D01*
X423622Y88148D01*
Y87443D01*
X423892Y86792D01*
X424390Y86293D01*
X425041Y86024D01*
X425746D01*
X426397Y86293D01*
X426896Y86792D01*
X427165Y87443D01*
Y88148D01*
X426896Y88799D01*
X426397Y89297D01*
X425746Y89567D01*
D02*
G37*
G36*
X444053Y78347D02*
X443348D01*
X442697Y78077D01*
X442199Y77578D01*
X441929Y76927D01*
Y76222D01*
X442199Y75571D01*
X442697Y75073D01*
X443348Y74803D01*
X444053D01*
X444704Y75073D01*
X445203Y75571D01*
X445472Y76222D01*
Y76927D01*
X445203Y77578D01*
X444704Y78077D01*
X444053Y78347D01*
D02*
G37*
G36*
X428404Y71254D02*
X427699D01*
X427048Y70984D01*
X426549Y70486D01*
X426279Y69835D01*
Y69130D01*
X426549Y68479D01*
X427048Y67980D01*
X427699Y67711D01*
X428404D01*
X429055Y67980D01*
X429553Y68479D01*
X429823Y69130D01*
Y69835D01*
X429553Y70486D01*
X429055Y70984D01*
X428404Y71254D01*
D02*
G37*
G36*
X413246Y66043D02*
X412541D01*
X411890Y65774D01*
X411392Y65275D01*
X411122Y64624D01*
Y63919D01*
X411392Y63268D01*
X411890Y62770D01*
X412541Y62500D01*
X413246D01*
X413897Y62770D01*
X414396Y63268D01*
X414665Y63919D01*
Y64624D01*
X414396Y65275D01*
X413897Y65774D01*
X413246Y66043D01*
D02*
G37*
G36*
X425560Y48228D02*
X424834D01*
X424133Y48041D01*
X423505Y47678D01*
X422992Y47165D01*
X422629Y46536D01*
X422441Y45835D01*
Y45110D01*
X422629Y44409D01*
X422992Y43780D01*
X423505Y43267D01*
X424133Y42904D01*
X424834Y42717D01*
X425560D01*
X426261Y42904D01*
X426889Y43267D01*
X427402Y43780D01*
X427765Y44409D01*
X427953Y45110D01*
Y45835D01*
X427765Y46536D01*
X427402Y47165D01*
X426889Y47678D01*
X426261Y48041D01*
X425560Y48228D01*
D02*
G37*
G36*
X411373Y36285D02*
X410669D01*
X410017Y36015D01*
X409519Y35517D01*
X409249Y34866D01*
Y34161D01*
X409519Y33510D01*
X410017Y33011D01*
X410669Y32742D01*
X411373D01*
X412024Y33011D01*
X412523Y33510D01*
X412793Y34161D01*
Y34866D01*
X412523Y35517D01*
X412024Y36015D01*
X411373Y36285D01*
D02*
G37*
G36*
X430864Y30038D02*
X430159D01*
X429508Y29768D01*
X429010Y29270D01*
X428740Y28618D01*
Y27914D01*
X429010Y27263D01*
X429508Y26764D01*
X430159Y26495D01*
X430864D01*
X431515Y26764D01*
X432014Y27263D01*
X432283Y27914D01*
Y28618D01*
X432014Y29270D01*
X431515Y29768D01*
X430864Y30038D01*
D02*
G37*
G36*
X427518Y22933D02*
X426813D01*
X426162Y22663D01*
X425663Y22165D01*
X425394Y21514D01*
Y20809D01*
X425663Y20158D01*
X426162Y19659D01*
X426813Y19390D01*
X427518D01*
X428169Y19659D01*
X428667Y20158D01*
X428937Y20809D01*
Y21514D01*
X428667Y22165D01*
X428169Y22663D01*
X427518Y22933D01*
D02*
G37*
G36*
X432623Y22540D02*
X431918D01*
X431267Y22271D01*
X430769Y21772D01*
X430499Y21121D01*
Y20416D01*
X430769Y19765D01*
X431267Y19267D01*
X431918Y18997D01*
X432623D01*
X433274Y19267D01*
X433773Y19765D01*
X434042Y20416D01*
Y21121D01*
X433773Y21772D01*
X433274Y22271D01*
X432623Y22540D01*
D02*
G37*
G36*
X407144Y16831D02*
X406439D01*
X405788Y16561D01*
X405289Y16063D01*
X405020Y15412D01*
Y14707D01*
X405289Y14055D01*
X405788Y13557D01*
X406439Y13287D01*
X407144D01*
X407795Y13557D01*
X408293Y14055D01*
X408563Y14707D01*
Y15412D01*
X408293Y16063D01*
X407795Y16561D01*
X407144Y16831D01*
D02*
G37*
G36*
X444919Y16499D02*
X444214D01*
X443563Y16229D01*
X443065Y15731D01*
X442795Y15080D01*
Y14375D01*
X443065Y13724D01*
X443563Y13226D01*
X444214Y12956D01*
X444919D01*
X445570Y13226D01*
X446069Y13724D01*
X446338Y14375D01*
Y15080D01*
X446069Y15731D01*
X445570Y16229D01*
X444919Y16499D01*
D02*
G37*
G36*
X40904Y346433D02*
X40199D01*
X39548Y346163D01*
X39049Y345665D01*
X38780Y345014D01*
Y344309D01*
X39049Y343658D01*
X39548Y343160D01*
X40199Y342890D01*
X40904D01*
X41555Y343160D01*
X42053Y343658D01*
X42323Y344309D01*
Y345014D01*
X42053Y345665D01*
X41555Y346163D01*
X40904Y346433D01*
D02*
G37*
G36*
X46839Y346433D02*
X46134D01*
X45483Y346163D01*
X44985Y345665D01*
X44715Y345014D01*
Y344309D01*
X44985Y343658D01*
X45483Y343159D01*
X46134Y342890D01*
X46839D01*
X47077Y342988D01*
X47380Y342580D01*
X47365Y342550D01*
X47324Y342501D01*
X47292Y342469D01*
X46810Y341987D01*
X46448Y341359D01*
X46260Y340658D01*
Y339932D01*
X46448Y339231D01*
X46810Y338603D01*
X47324Y338090D01*
X47952Y337727D01*
X48653Y337539D01*
X49379D01*
X50080Y337727D01*
X50708Y338090D01*
X51221Y338603D01*
X51584Y339231D01*
X51772Y339932D01*
Y340658D01*
X51584Y341359D01*
X51221Y341987D01*
X50708Y342501D01*
X50080Y342863D01*
X49379Y343051D01*
X48653D01*
X48069Y342895D01*
X47952Y342863D01*
X47952Y342863D01*
X47952D01*
X48020Y342881D01*
X47943Y342866D01*
X47913Y342875D01*
X47772Y343441D01*
X47989Y343658D01*
X48258Y344309D01*
Y345014D01*
X47989Y345665D01*
X47490Y346163D01*
X46839Y346433D01*
D02*
G37*
G36*
X68661Y334842D02*
X67957D01*
X67305Y334573D01*
X66807Y334074D01*
X66537Y333423D01*
Y332718D01*
X66807Y332067D01*
X67305Y331569D01*
X67957Y331299D01*
X68661D01*
X69313Y331569D01*
X69811Y332067D01*
X70081Y332718D01*
Y333423D01*
X69811Y334074D01*
X69313Y334573D01*
X68661Y334842D01*
D02*
G37*
G36*
X17085Y334154D02*
X16380D01*
X15729Y333884D01*
X15230Y333385D01*
X14961Y332734D01*
Y332030D01*
X15230Y331378D01*
X15729Y330880D01*
X16380Y330610D01*
X17085D01*
X17736Y330880D01*
X18234Y331378D01*
X18504Y332030D01*
Y332734D01*
X18234Y333385D01*
X17736Y333884D01*
X17085Y334154D01*
D02*
G37*
G36*
X35993Y333996D02*
X35267D01*
X34566Y333808D01*
X33938Y333445D01*
X33425Y332932D01*
X33062Y332304D01*
X32874Y331603D01*
Y330877D01*
X33062Y330176D01*
X33425Y329548D01*
X33938Y329035D01*
X34566Y328672D01*
X35267Y328484D01*
X35993D01*
X36694Y328672D01*
X37322Y329035D01*
X37835Y329548D01*
X38198Y330176D01*
X38386Y330877D01*
Y331603D01*
X38198Y332304D01*
X37835Y332932D01*
X37322Y333445D01*
X36694Y333808D01*
X35993Y333996D01*
D02*
G37*
G36*
X204978Y333268D02*
X204274D01*
X203622Y332998D01*
X203124Y332500D01*
X202854Y331849D01*
Y331144D01*
X203124Y330492D01*
X203622Y329994D01*
X203871Y329891D01*
X203829Y329367D01*
X203327Y329159D01*
X202829Y328661D01*
X202559Y328010D01*
Y327305D01*
X202829Y326654D01*
X203327Y326155D01*
X203978Y325886D01*
X204683D01*
X205334Y326155D01*
X205833Y326654D01*
X206102Y327305D01*
Y328010D01*
X205833Y328661D01*
X205334Y329159D01*
X205085Y329262D01*
X205128Y329786D01*
X205629Y329994D01*
X206128Y330492D01*
X206398Y331144D01*
Y331849D01*
X206128Y332500D01*
X205629Y332998D01*
X204978Y333268D01*
D02*
G37*
G36*
X68497Y328051D02*
X67792D01*
X67141Y327782D01*
X66643Y327283D01*
X66373Y326632D01*
Y325927D01*
X66643Y325276D01*
X67141Y324778D01*
X67792Y324508D01*
X68497D01*
X69148Y324778D01*
X69647Y325276D01*
X69916Y325927D01*
Y326632D01*
X69647Y327283D01*
X69148Y327782D01*
X68497Y328051D01*
D02*
G37*
G36*
X162557Y324626D02*
X161852D01*
X161201Y324356D01*
X160703Y323858D01*
X160433Y323207D01*
Y322502D01*
X160703Y321851D01*
X161201Y321353D01*
X161852Y321083D01*
X162557D01*
X163208Y321353D01*
X163707Y321851D01*
X163976Y322502D01*
Y323207D01*
X163707Y323858D01*
X163208Y324356D01*
X162557Y324626D01*
D02*
G37*
G36*
X131258Y321654D02*
X130553D01*
X129902Y321384D01*
X129404Y320885D01*
X129134Y320234D01*
Y319530D01*
X129404Y318878D01*
X129902Y318380D01*
X130553Y318110D01*
X131258D01*
X131909Y318380D01*
X132407Y318878D01*
X132677Y319530D01*
Y320234D01*
X132407Y320885D01*
X131909Y321384D01*
X131258Y321654D01*
D02*
G37*
G36*
X121594Y321706D02*
X120889D01*
X120238Y321437D01*
X119739Y320938D01*
X119470Y320287D01*
Y319582D01*
X119739Y318931D01*
X120238Y318433D01*
X120889Y318163D01*
X121594D01*
X122245Y318433D01*
X122351Y318539D01*
X123051Y318538D01*
X123209Y318380D01*
X123860Y318110D01*
X124565D01*
X125216Y318380D01*
X125715Y318878D01*
X125984Y319530D01*
Y320234D01*
X125715Y320885D01*
X125216Y321384D01*
X124565Y321654D01*
X123860D01*
X123209Y321384D01*
X123103Y321278D01*
X122403Y321279D01*
X122245Y321437D01*
X121594Y321706D01*
D02*
G37*
G36*
X103396Y325837D02*
X95029D01*
Y317471D01*
X103396D01*
Y325837D01*
D02*
G37*
G36*
X234713Y321654D02*
X233988D01*
X233287Y321466D01*
X232658Y321103D01*
X232145Y320590D01*
X231782Y319961D01*
X231594Y319260D01*
Y318535D01*
X231782Y317834D01*
X232145Y317206D01*
X232658Y316692D01*
X233287Y316330D01*
X233988Y316142D01*
X234713D01*
X235414Y316330D01*
X236042Y316692D01*
X236556Y317206D01*
X236918Y317834D01*
X237106Y318535D01*
Y319260D01*
X236918Y319961D01*
X236556Y320590D01*
X236042Y321103D01*
X235414Y321466D01*
X234713Y321654D01*
D02*
G37*
G36*
X188847Y321555D02*
X188121D01*
X187420Y321367D01*
X186792Y321005D01*
X186279Y320491D01*
X185916Y319863D01*
X185728Y319162D01*
Y318436D01*
X185916Y317736D01*
X186279Y317107D01*
X186792Y316594D01*
X187420Y316231D01*
X188121Y316043D01*
X188847D01*
X189548Y316231D01*
X190176Y316594D01*
X190690Y317107D01*
X191052Y317736D01*
X191240Y318436D01*
Y319162D01*
X191052Y319863D01*
X190690Y320491D01*
X190176Y321005D01*
X189548Y321367D01*
X188847Y321555D01*
D02*
G37*
G36*
X105058Y310880D02*
X104353D01*
X103702Y310610D01*
X103212Y310120D01*
X102775Y310557D01*
X102124Y310827D01*
X101419D01*
X100768Y310557D01*
X100270Y310059D01*
X100000Y309407D01*
Y308703D01*
X100270Y308052D01*
X100768Y307553D01*
X101419Y307283D01*
X102124D01*
X102775Y307553D01*
X103265Y308043D01*
X103702Y307606D01*
X104353Y307336D01*
X105058D01*
X105710Y307606D01*
X106208Y308104D01*
X106478Y308756D01*
Y309460D01*
X106208Y310112D01*
X105710Y310610D01*
X105058Y310880D01*
D02*
G37*
G36*
X147804Y313779D02*
X147078D01*
X146377Y313592D01*
X145749Y313229D01*
X145236Y312716D01*
X144873Y312087D01*
X144685Y311386D01*
Y310661D01*
X144873Y309960D01*
X145236Y309331D01*
X145749Y308818D01*
X146377Y308455D01*
X147078Y308268D01*
X147804D01*
X148505Y308455D01*
X149133Y308818D01*
X149646Y309331D01*
X150009Y309960D01*
X150197Y310661D01*
Y311386D01*
X150009Y312087D01*
X149646Y312716D01*
X149133Y313229D01*
X148505Y313592D01*
X147804Y313779D01*
D02*
G37*
G36*
X180912Y311332D02*
X180207D01*
X179555Y311062D01*
X179057Y310564D01*
X178787Y309913D01*
Y309208D01*
X179057Y308557D01*
X179555Y308058D01*
X180207Y307789D01*
X180912D01*
X181563Y308058D01*
X182061Y308557D01*
X182331Y309208D01*
Y309913D01*
X182061Y310564D01*
X181563Y311062D01*
X180912Y311332D01*
D02*
G37*
G36*
X143069Y307480D02*
X142364D01*
X141713Y307211D01*
X141215Y306712D01*
X140945Y306061D01*
Y305356D01*
X141215Y304705D01*
X141713Y304207D01*
X142364Y303937D01*
X143069D01*
X143720Y304207D01*
X144219Y304705D01*
X144488Y305356D01*
Y306061D01*
X144219Y306712D01*
X143720Y307211D01*
X143069Y307480D01*
D02*
G37*
G36*
X180912Y306890D02*
X180207D01*
X179555Y306620D01*
X179057Y306122D01*
X178787Y305470D01*
Y304766D01*
X179057Y304115D01*
X179253Y303919D01*
X179535Y303592D01*
X179253Y303266D01*
X179057Y303070D01*
X178787Y302419D01*
Y301714D01*
X179057Y301063D01*
X179555Y300565D01*
X180207Y300295D01*
X180912D01*
X181563Y300565D01*
X182061Y301063D01*
X182331Y301714D01*
Y302419D01*
X182061Y303070D01*
X181866Y303266D01*
X181583Y303592D01*
X181866Y303919D01*
X182061Y304115D01*
X182331Y304766D01*
Y305470D01*
X182061Y306122D01*
X181563Y306620D01*
X180912Y306890D01*
D02*
G37*
G36*
X21150Y301025D02*
X20445D01*
X19794Y300756D01*
X19296Y300257D01*
X19026Y299606D01*
Y298901D01*
X19296Y298250D01*
X19794Y297752D01*
X20445Y297482D01*
X21150D01*
X21801Y297752D01*
X22299Y298250D01*
X22569Y298901D01*
Y299606D01*
X22299Y300257D01*
X21801Y300756D01*
X21150Y301025D01*
D02*
G37*
G36*
X75482Y300886D02*
X74777D01*
X74126Y300616D01*
X73627Y300118D01*
X73358Y299466D01*
Y298762D01*
X73627Y298111D01*
X74126Y297612D01*
X74777Y297342D01*
X75482D01*
X76133Y297612D01*
X76631Y298111D01*
X76901Y298762D01*
Y299466D01*
X76631Y300118D01*
X76133Y300616D01*
X75482Y300886D01*
D02*
G37*
G36*
X107322Y302907D02*
X106617D01*
X105966Y302638D01*
X105468Y302139D01*
X105198Y301488D01*
Y300783D01*
X105468Y300132D01*
X105789Y299811D01*
X105582Y299311D01*
X105258D01*
X104607Y299041D01*
X104108Y298543D01*
X103839Y297892D01*
Y297187D01*
X104108Y296536D01*
X104607Y296037D01*
X105258Y295768D01*
X105963D01*
X106614Y296037D01*
X107112Y296536D01*
X107382Y297187D01*
Y297892D01*
X107112Y298543D01*
X106791Y298864D01*
X106998Y299364D01*
X107322D01*
X107973Y299634D01*
X108472Y300132D01*
X108741Y300783D01*
Y301488D01*
X108472Y302139D01*
X107973Y302638D01*
X107322Y302907D01*
D02*
G37*
G36*
X180912Y298930D02*
X180207D01*
X179555Y298661D01*
X179057Y298162D01*
X178787Y297511D01*
Y296806D01*
X179057Y296155D01*
X179555Y295657D01*
X180207Y295387D01*
X180912D01*
X181563Y295657D01*
X182061Y296155D01*
X182331Y296806D01*
Y297511D01*
X182061Y298162D01*
X181563Y298661D01*
X180912Y298930D01*
D02*
G37*
G36*
X95037Y297047D02*
X94333D01*
X93682Y296778D01*
X93183Y296279D01*
X92913Y295628D01*
Y294923D01*
X93183Y294272D01*
X93682Y293774D01*
X94333Y293504D01*
X95037D01*
X95689Y293774D01*
X96187Y294272D01*
X96457Y294923D01*
Y295628D01*
X96187Y296279D01*
X95689Y296778D01*
X95037Y297047D01*
D02*
G37*
G36*
X245431Y299803D02*
X244726D01*
X244075Y299533D01*
X243577Y299035D01*
X243307Y298384D01*
Y297679D01*
X243577Y297028D01*
X243772Y296832D01*
X244055Y296506D01*
X243772Y296179D01*
X243577Y295984D01*
X243307Y295333D01*
Y294628D01*
X243577Y293977D01*
X244075Y293478D01*
X244726Y293209D01*
X245431D01*
X246082Y293478D01*
X246581Y293977D01*
X246850Y294628D01*
Y295333D01*
X246581Y295984D01*
X246385Y296179D01*
X246103Y296506D01*
X246385Y296832D01*
X246581Y297028D01*
X246850Y297679D01*
Y298384D01*
X246581Y299035D01*
X246082Y299533D01*
X245431Y299803D01*
D02*
G37*
G36*
X38443Y295768D02*
X37738D01*
X37087Y295498D01*
X36589Y295000D01*
X36319Y294349D01*
Y293644D01*
X36589Y292992D01*
X37087Y292494D01*
X37738Y292224D01*
X38443D01*
X39094Y292494D01*
X39592Y292992D01*
X39862Y293644D01*
Y294349D01*
X39592Y295000D01*
X39094Y295498D01*
X38443Y295768D01*
D02*
G37*
G36*
X87360Y294291D02*
X86655D01*
X86004Y294022D01*
X85506Y293523D01*
X85236Y292872D01*
Y292167D01*
X85506Y291516D01*
X86004Y291018D01*
X86655Y290748D01*
X87360D01*
X88011Y291018D01*
X88510Y291516D01*
X88779Y292167D01*
Y292872D01*
X88510Y293523D01*
X88011Y294022D01*
X87360Y294291D01*
D02*
G37*
G36*
X234713Y296260D02*
X233988D01*
X233287Y296072D01*
X232658Y295709D01*
X232145Y295196D01*
X231782Y294568D01*
X231594Y293867D01*
Y293141D01*
X231782Y292440D01*
X232145Y291812D01*
X232658Y291299D01*
X233287Y290936D01*
X233988Y290748D01*
X234713D01*
X235414Y290936D01*
X236042Y291299D01*
X236556Y291812D01*
X236918Y292440D01*
X237106Y293141D01*
Y293867D01*
X236918Y294568D01*
X236556Y295196D01*
X236042Y295709D01*
X235414Y296072D01*
X234713Y296260D01*
D02*
G37*
G36*
X188847Y296063D02*
X188121D01*
X187420Y295875D01*
X186792Y295512D01*
X186279Y294999D01*
X185916Y294371D01*
X185728Y293670D01*
Y292944D01*
X185916Y292243D01*
X186279Y291615D01*
X186792Y291102D01*
X187420Y290739D01*
X188121Y290551D01*
X188847D01*
X189548Y290739D01*
X190176Y291102D01*
X190690Y291615D01*
X191052Y292243D01*
X191240Y292944D01*
Y293670D01*
X191052Y294371D01*
X190690Y294999D01*
X190176Y295512D01*
X189548Y295875D01*
X188847Y296063D01*
D02*
G37*
G36*
X179486Y293012D02*
X178781D01*
X178130Y292742D01*
X177632Y292244D01*
X177362Y291593D01*
Y290888D01*
X177632Y290237D01*
X178130Y289738D01*
X178781Y289469D01*
X179486D01*
X180137Y289738D01*
X180636Y290237D01*
X180905Y290888D01*
Y291593D01*
X180636Y292244D01*
X180137Y292742D01*
X179486Y293012D01*
D02*
G37*
G36*
X280442Y312008D02*
X278613D01*
X276808Y311722D01*
X275069Y311157D01*
X273440Y310327D01*
X271961Y309253D01*
X270669Y307960D01*
X269594Y306481D01*
X268764Y304852D01*
X268199Y303113D01*
X267913Y301308D01*
Y299480D01*
X268199Y297674D01*
X268764Y295935D01*
X269594Y294307D01*
X270669Y292828D01*
X271961Y291535D01*
X273440Y290460D01*
X275069Y289630D01*
X276808Y289066D01*
X278613Y288779D01*
X280442D01*
X282247Y289066D01*
X283986Y289630D01*
X285615Y290460D01*
X287094Y291535D01*
X288386Y292828D01*
X289461Y294307D01*
X290291Y295935D01*
X290856Y297674D01*
X291142Y299480D01*
Y301308D01*
X290856Y303113D01*
X290291Y304852D01*
X289461Y306481D01*
X288386Y307960D01*
X287094Y309253D01*
X285615Y310327D01*
X283986Y311157D01*
X282247Y311722D01*
X280442Y312008D01*
D02*
G37*
G36*
X180912Y289088D02*
X180207D01*
X179555Y288818D01*
X179057Y288320D01*
X178787Y287668D01*
Y286964D01*
X179057Y286313D01*
X179555Y285814D01*
X180207Y285544D01*
X180912D01*
X181563Y285814D01*
X182061Y286313D01*
X182331Y286964D01*
Y287668D01*
X182061Y288320D01*
X181563Y288818D01*
X180912Y289088D01*
D02*
G37*
G36*
X322203Y286221D02*
X321498D01*
X320847Y285951D01*
X320349Y285452D01*
X320079Y284801D01*
Y284096D01*
X320349Y283445D01*
X320847Y282947D01*
X321498Y282677D01*
X322203D01*
X322854Y282947D01*
X323352Y283445D01*
X323622Y284096D01*
Y284801D01*
X323352Y285452D01*
X322854Y285951D01*
X322203Y286221D01*
D02*
G37*
G36*
X214350Y285433D02*
X213645D01*
X212994Y285163D01*
X212496Y284665D01*
X212226Y284014D01*
Y283309D01*
X212496Y282658D01*
X212994Y282159D01*
X213645Y281890D01*
X214350D01*
X215001Y282159D01*
X215499Y282658D01*
X215769Y283309D01*
Y284014D01*
X215499Y284665D01*
X215001Y285163D01*
X214350Y285433D01*
D02*
G37*
G36*
X203793Y284757D02*
X203088D01*
X202437Y284487D01*
X201939Y283989D01*
X201669Y283338D01*
Y282633D01*
X201939Y281982D01*
X202437Y281484D01*
X203088Y281214D01*
X203793D01*
X204444Y281484D01*
X204942Y281982D01*
X205212Y282633D01*
Y283338D01*
X204942Y283989D01*
X204444Y284487D01*
X203793Y284757D01*
D02*
G37*
G36*
X337423Y272814D02*
X336719D01*
X336068Y272544D01*
X335569Y272045D01*
X335299Y271394D01*
Y270690D01*
X335569Y270038D01*
X336068Y269540D01*
X336719Y269270D01*
X337423D01*
X338075Y269540D01*
X338573Y270038D01*
X338843Y270690D01*
Y271394D01*
X338573Y272045D01*
X338075Y272544D01*
X337423Y272814D01*
D02*
G37*
G36*
X10687Y262894D02*
X9982D01*
X9331Y262624D01*
X8833Y262126D01*
X8563Y261474D01*
Y260770D01*
X8833Y260119D01*
X9331Y259620D01*
X9982Y259350D01*
X10687D01*
X11338Y259620D01*
X11837Y260119D01*
X12106Y260770D01*
Y261474D01*
X11837Y262126D01*
X11338Y262624D01*
X10687Y262894D01*
D02*
G37*
G36*
X10490Y257874D02*
X9785D01*
X9134Y257604D01*
X8636Y257106D01*
X8366Y256455D01*
Y255750D01*
X8636Y255099D01*
X9134Y254600D01*
X9785Y254331D01*
X10490D01*
X11141Y254600D01*
X11640Y255099D01*
X11909Y255750D01*
Y256455D01*
X11640Y257106D01*
X11141Y257604D01*
X10490Y257874D01*
D02*
G37*
G36*
X148099Y262894D02*
X147373D01*
X146672Y262706D01*
X146044Y262343D01*
X145531Y261830D01*
X145168Y261202D01*
X144980Y260501D01*
Y259775D01*
X145168Y259074D01*
X145531Y258446D01*
X146044Y257932D01*
X146672Y257570D01*
X147373Y257382D01*
X148099D01*
X148800Y257570D01*
X149428Y257932D01*
X149942Y258446D01*
X150304Y259074D01*
X150492Y259775D01*
Y260501D01*
X150304Y261202D01*
X149942Y261830D01*
X149428Y262343D01*
X148800Y262706D01*
X148099Y262894D01*
D02*
G37*
G36*
X106356Y257579D02*
X105651D01*
X105000Y257309D01*
X104502Y256811D01*
X104232Y256159D01*
Y255455D01*
X104502Y254803D01*
X105000Y254305D01*
X105651Y254035D01*
X106356D01*
X107008Y254305D01*
X107506Y254803D01*
X107776Y255455D01*
Y256159D01*
X107506Y256811D01*
X107008Y257309D01*
X106356Y257579D01*
D02*
G37*
G36*
X322301Y257480D02*
X321596D01*
X320945Y257211D01*
X320447Y256712D01*
X320177Y256061D01*
Y255356D01*
X320447Y254705D01*
X320945Y254207D01*
X321596Y253937D01*
X322301D01*
X322952Y254207D01*
X323451Y254705D01*
X323721Y255356D01*
Y256061D01*
X323451Y256712D01*
X322952Y257211D01*
X322301Y257480D01*
D02*
G37*
G36*
X199565Y255118D02*
X198860D01*
X198209Y254848D01*
X197711Y254350D01*
X197441Y253699D01*
Y252994D01*
X197711Y252343D01*
X198209Y251845D01*
X198860Y251575D01*
X199565D01*
X200216Y251845D01*
X200714Y252343D01*
X200984Y252994D01*
Y253699D01*
X200714Y254350D01*
X200216Y254848D01*
X199565Y255118D01*
D02*
G37*
G36*
X237360Y250886D02*
X236655D01*
X236004Y250616D01*
X235581Y250192D01*
X235157Y250616D01*
X234506Y250886D01*
X233801D01*
X233150Y250616D01*
X232905Y250372D01*
X232579Y250164D01*
X232252Y250372D01*
X232008Y250616D01*
X231356Y250886D01*
X230651D01*
X230000Y250616D01*
X229502Y250118D01*
X229232Y249467D01*
Y248762D01*
X229502Y248111D01*
X230000Y247612D01*
X230651Y247342D01*
X231356D01*
X232008Y247612D01*
X232252Y247857D01*
X232579Y248064D01*
X232905Y247857D01*
X233150Y247612D01*
X233801Y247342D01*
X234506D01*
X235157Y247612D01*
X235581Y248036D01*
X236004Y247612D01*
X236655Y247342D01*
X237360D01*
X238011Y247612D01*
X238510Y248111D01*
X238779Y248762D01*
Y249467D01*
X238510Y250118D01*
X238011Y250616D01*
X237360Y250886D01*
D02*
G37*
G36*
X203896Y251083D02*
X203191D01*
X202540Y250813D01*
X202041Y250315D01*
X201772Y249663D01*
Y248959D01*
X202041Y248307D01*
X202540Y247809D01*
X203191Y247539D01*
X203896D01*
X204547Y247809D01*
X205045Y248307D01*
X205315Y248959D01*
Y249663D01*
X205045Y250315D01*
X204547Y250813D01*
X203896Y251083D01*
D02*
G37*
G36*
X217675Y250590D02*
X216970D01*
X216319Y250321D01*
X215821Y249822D01*
X215551Y249171D01*
Y248466D01*
X215821Y247815D01*
X216319Y247317D01*
X216970Y247047D01*
X217675D01*
X218326Y247317D01*
X218825Y247815D01*
X219094Y248466D01*
Y249171D01*
X218825Y249822D01*
X218326Y250321D01*
X217675Y250590D01*
D02*
G37*
G36*
X196514Y249705D02*
X195809D01*
X195158Y249435D01*
X194659Y248937D01*
X194390Y248286D01*
Y247581D01*
X194659Y246930D01*
X195158Y246431D01*
X195809Y246161D01*
X196514D01*
X197165Y246431D01*
X197274Y246540D01*
X197853Y246412D01*
X198006Y246044D01*
X198504Y245545D01*
X199155Y245276D01*
X199860D01*
X200511Y245545D01*
X201010Y246044D01*
X201279Y246695D01*
Y247400D01*
X201010Y248051D01*
X200511Y248549D01*
X199860Y248819D01*
X199155D01*
X198504Y248549D01*
X198395Y248440D01*
X197816Y248568D01*
X197663Y248937D01*
X197165Y249435D01*
X196514Y249705D01*
D02*
G37*
G36*
X169866Y248425D02*
X169161D01*
X168510Y248155D01*
X168011Y247657D01*
X167742Y247006D01*
Y246301D01*
X168011Y245650D01*
X168510Y245152D01*
X169161Y244882D01*
X169866D01*
X170517Y245152D01*
X171015Y245650D01*
X171285Y246301D01*
Y247006D01*
X171015Y247657D01*
X170517Y248155D01*
X169866Y248425D01*
D02*
G37*
G36*
X181547Y246186D02*
X180843D01*
X180192Y245917D01*
X179693Y245418D01*
X179423Y244767D01*
Y244062D01*
X179693Y243411D01*
X180192Y242913D01*
X180843Y242643D01*
X181547D01*
X182199Y242913D01*
X182697Y243411D01*
X182967Y244062D01*
Y244767D01*
X182697Y245418D01*
X182199Y245917D01*
X181547Y246186D01*
D02*
G37*
G36*
X305175Y245374D02*
X304470D01*
X303819Y245104D01*
X303321Y244606D01*
X303051Y243955D01*
Y243250D01*
X303321Y242599D01*
X303819Y242100D01*
X304470Y241831D01*
X305175D01*
X305826Y242100D01*
X306325Y242599D01*
X306594Y243250D01*
Y243955D01*
X306325Y244606D01*
X305826Y245104D01*
X305175Y245374D01*
D02*
G37*
G36*
X310293Y245374D02*
X309589D01*
X308937Y245104D01*
X308439Y244606D01*
X308169Y243955D01*
Y243250D01*
X308439Y242599D01*
X308937Y242100D01*
X309589Y241831D01*
X310293D01*
X310945Y242100D01*
X311443Y242599D01*
X311713Y243250D01*
Y243955D01*
X311443Y244606D01*
X310945Y245104D01*
X310293Y245374D01*
D02*
G37*
G36*
X23248Y235175D02*
X22544D01*
X21892Y234905D01*
X21394Y234407D01*
X21124Y233756D01*
Y233051D01*
X21394Y232400D01*
X21892Y231901D01*
X22544Y231632D01*
X23248D01*
X23900Y231901D01*
X24398Y232400D01*
X24668Y233051D01*
Y233756D01*
X24398Y234407D01*
X23900Y234905D01*
X23248Y235175D01*
D02*
G37*
G36*
X226337Y233148D02*
X225632D01*
X224981Y232878D01*
X224482Y232380D01*
X224213Y231729D01*
Y231024D01*
X224482Y230373D01*
X224981Y229874D01*
X225632Y229605D01*
X226337D01*
X226988Y229874D01*
X227486Y230373D01*
X227756Y231024D01*
Y231729D01*
X227486Y232380D01*
X226988Y232878D01*
X226337Y233148D01*
D02*
G37*
G36*
X180912Y232382D02*
X180207D01*
X179555Y232112D01*
X179057Y231614D01*
X178787Y230963D01*
Y230258D01*
X179057Y229607D01*
X179555Y229108D01*
X180207Y228839D01*
X180912D01*
X181563Y229108D01*
X182061Y229607D01*
X182331Y230258D01*
Y230963D01*
X182061Y231614D01*
X181563Y232112D01*
X180912Y232382D01*
D02*
G37*
G36*
X234713Y234252D02*
X233988D01*
X233287Y234064D01*
X232658Y233701D01*
X232145Y233188D01*
X231782Y232560D01*
X231594Y231859D01*
Y231133D01*
X231782Y230432D01*
X232145Y229804D01*
X232658Y229291D01*
X233287Y228928D01*
X233988Y228740D01*
X234713D01*
X235414Y228928D01*
X236042Y229291D01*
X236556Y229804D01*
X236918Y230432D01*
X237106Y231133D01*
Y231859D01*
X236918Y232560D01*
X236556Y233188D01*
X236042Y233701D01*
X235414Y234064D01*
X234713Y234252D01*
D02*
G37*
G36*
X188847Y233857D02*
X188121D01*
X187420Y233669D01*
X186792Y233306D01*
X186279Y232793D01*
X185916Y232165D01*
X185728Y231464D01*
Y230738D01*
X185916Y230037D01*
X186279Y229409D01*
X186792Y228896D01*
X187420Y228533D01*
X188121Y228345D01*
X188847D01*
X189548Y228533D01*
X190176Y228896D01*
X190690Y229409D01*
X191052Y230037D01*
X191240Y230738D01*
Y231464D01*
X191052Y232165D01*
X190690Y232793D01*
X190176Y233306D01*
X189548Y233669D01*
X188847Y233857D01*
D02*
G37*
G36*
X174120Y229442D02*
X173415D01*
X172764Y229172D01*
X172266Y228674D01*
X171996Y228023D01*
Y227318D01*
X172266Y226667D01*
X172569Y226363D01*
X172548Y225836D01*
X172507Y225772D01*
X172049Y225315D01*
X171779Y224663D01*
Y223959D01*
X172049Y223307D01*
X172547Y222809D01*
X173199Y222539D01*
X173904D01*
X174555Y222809D01*
X175053Y223307D01*
X175323Y223959D01*
Y224663D01*
X175053Y225315D01*
X174749Y225618D01*
X174770Y226145D01*
X174812Y226209D01*
X175270Y226667D01*
X175539Y227318D01*
Y228023D01*
X175270Y228674D01*
X174771Y229172D01*
X174120Y229442D01*
D02*
G37*
G36*
X49781Y222809D02*
X49076D01*
X48425Y222539D01*
X47927Y222041D01*
X47857Y221873D01*
X28195D01*
X28179Y221888D01*
X28141Y221926D01*
X28141Y221926D01*
X28141Y221926D01*
X28075Y221970D01*
X27874Y222171D01*
X27222Y222441D01*
X26518D01*
X25866Y222171D01*
X25368Y221673D01*
X25098Y221022D01*
Y220317D01*
X25368Y219666D01*
X25866Y219167D01*
X26518Y218898D01*
X27222D01*
X27874Y219167D01*
X28075Y219369D01*
X28141Y219413D01*
X28141Y219413D01*
X28141Y219413D01*
X28187Y219459D01*
X28194Y219465D01*
X48537D01*
X48677Y219415D01*
X48717Y219398D01*
X48718Y219397D01*
X48719Y219397D01*
X48800Y219380D01*
X49076Y219265D01*
X49781D01*
X50432Y219535D01*
X50931Y220033D01*
X51200Y220685D01*
Y221389D01*
X50931Y222041D01*
X50432Y222539D01*
X49781Y222809D01*
D02*
G37*
G36*
X117872Y223327D02*
X117167D01*
X116516Y223057D01*
X116018Y222559D01*
X115748Y221907D01*
Y221203D01*
X116018Y220552D01*
X116516Y220053D01*
X117167Y219783D01*
X117872D01*
X118523Y220053D01*
X119022Y220552D01*
X119291Y221203D01*
Y221907D01*
X119022Y222559D01*
X118523Y223057D01*
X117872Y223327D01*
D02*
G37*
G36*
X44678Y216745D02*
X43973D01*
X43322Y216476D01*
X42823Y215977D01*
X42554Y215326D01*
Y214621D01*
X42823Y213970D01*
X43322Y213472D01*
X43973Y213202D01*
X44678D01*
X45329Y213472D01*
X45827Y213970D01*
X46097Y214621D01*
Y215326D01*
X45827Y215977D01*
X45329Y216476D01*
X44678Y216745D01*
D02*
G37*
G36*
X245431Y219193D02*
X244726D01*
X244075Y218923D01*
X243577Y218425D01*
X243307Y217774D01*
Y217069D01*
X243577Y216418D01*
X243772Y216222D01*
X244055Y215896D01*
X243772Y215569D01*
X243577Y215374D01*
X243307Y214722D01*
Y214018D01*
X243577Y213367D01*
X244075Y212868D01*
X244726Y212598D01*
X245431D01*
X246082Y212868D01*
X246581Y213367D01*
X246850Y214018D01*
Y214722D01*
X246581Y215374D01*
X246385Y215569D01*
X246103Y215896D01*
X246385Y216222D01*
X246581Y216418D01*
X246850Y217069D01*
Y217774D01*
X246581Y218425D01*
X246082Y218923D01*
X245431Y219193D01*
D02*
G37*
G36*
X234713Y217717D02*
X233988D01*
X233287Y217529D01*
X232658Y217166D01*
X232145Y216653D01*
X231782Y216024D01*
X231594Y215323D01*
Y214598D01*
X231782Y213897D01*
X232145Y213268D01*
X232658Y212755D01*
X233287Y212392D01*
X233988Y212205D01*
X234713D01*
X235414Y212392D01*
X236042Y212755D01*
X236556Y213268D01*
X236918Y213897D01*
X237106Y214598D01*
Y215323D01*
X236918Y216024D01*
X236556Y216653D01*
X236042Y217166D01*
X235414Y217529D01*
X234713Y217717D01*
D02*
G37*
G36*
X188897Y217373D02*
X188172D01*
X187471Y217185D01*
X186842Y216822D01*
X186329Y216309D01*
X185966Y215681D01*
X185778Y214980D01*
Y214254D01*
X185966Y213553D01*
X186329Y212925D01*
X186842Y212412D01*
X187471Y212049D01*
X188172Y211861D01*
X188897D01*
X189598Y212049D01*
X190226Y212412D01*
X190740Y212925D01*
X191103Y213553D01*
X191290Y214254D01*
Y214980D01*
X191103Y215681D01*
X190740Y216309D01*
X190226Y216822D01*
X189598Y217185D01*
X188897Y217373D01*
D02*
G37*
G36*
X6686Y218895D02*
X5981D01*
X5330Y218625D01*
X4831Y218127D01*
X4562Y217475D01*
Y216771D01*
X4831Y216120D01*
X5330Y215621D01*
X5632Y215496D01*
Y214954D01*
X5369Y214845D01*
X4871Y214347D01*
X4601Y213696D01*
Y212991D01*
X4871Y212340D01*
X5369Y211842D01*
X6020Y211572D01*
X6725D01*
X7376Y211842D01*
X7875Y212340D01*
X8144Y212991D01*
Y213696D01*
X7875Y214347D01*
X7376Y214845D01*
X7074Y214971D01*
Y215512D01*
X7337Y215621D01*
X7835Y216120D01*
X8105Y216771D01*
Y217475D01*
X7835Y218127D01*
X7337Y218625D01*
X6686Y218895D01*
D02*
G37*
%LPD*%
G36*
X49034Y220135D02*
X48972Y220162D01*
X48691Y220263D01*
X48659Y220270D01*
X48631Y220274D01*
X48608Y220276D01*
X48248Y221063D01*
X48273Y221066D01*
X48299Y221077D01*
X48325Y221094D01*
X48352Y221119D01*
X48379Y221151D01*
X48406Y221189D01*
X48434Y221235D01*
X48462Y221287D01*
X48519Y221413D01*
X49034Y220135D01*
D02*
G37*
G36*
X27629Y221302D02*
X27817Y221137D01*
X27854Y221110D01*
X27889Y221090D01*
X27919Y221075D01*
X27946Y221066D01*
X27969Y221063D01*
Y220276D01*
X27946Y220273D01*
X27919Y220264D01*
X27889Y220249D01*
X27854Y220228D01*
X27817Y220202D01*
X27730Y220131D01*
X27629Y220036D01*
X27573Y219980D01*
Y221358D01*
X27629Y221302D01*
D02*
G37*
%LPC*%
G36*
X314034Y209154D02*
X313329D01*
X312678Y208884D01*
X312179Y208385D01*
X311910Y207734D01*
Y207030D01*
X312022Y206757D01*
X311938Y206181D01*
X311440Y205682D01*
X311170Y205031D01*
Y204812D01*
X308058Y201700D01*
X305923D01*
X305826Y201797D01*
X305175Y202067D01*
X304470D01*
X303819Y201797D01*
X303321Y201299D01*
X303051Y200647D01*
Y199943D01*
X303321Y199292D01*
X303819Y198793D01*
X304470Y198523D01*
X305175D01*
X305826Y198793D01*
X305923Y198890D01*
X308640D01*
X309177Y198997D01*
X309633Y199302D01*
X309993Y199661D01*
X310484Y199564D01*
X310574Y199345D01*
X311073Y198846D01*
X311724Y198577D01*
X312429D01*
X313080Y198846D01*
X313578Y199345D01*
X313848Y199996D01*
Y200149D01*
X316298Y202598D01*
X316602Y203054D01*
X316709Y203592D01*
Y205664D01*
X316602Y206202D01*
X316298Y206658D01*
X315453Y207503D01*
Y207734D01*
X315183Y208385D01*
X314685Y208884D01*
X314034Y209154D01*
D02*
G37*
G36*
X295537Y198364D02*
X294832D01*
X294181Y198094D01*
X293682Y197596D01*
X293413Y196945D01*
Y196240D01*
X293682Y195589D01*
X294181Y195090D01*
X294832Y194820D01*
X295537D01*
X296188Y195090D01*
X296686Y195589D01*
X296956Y196240D01*
Y196945D01*
X296686Y197596D01*
X296188Y198094D01*
X295537Y198364D01*
D02*
G37*
G36*
X319084Y201673D02*
X318379D01*
X317728Y201403D01*
X317230Y200905D01*
X316960Y200254D01*
Y199549D01*
X317230Y198898D01*
X317728Y198400D01*
X317936Y198314D01*
X318053Y197724D01*
X317888Y197559D01*
X317618Y196907D01*
Y196203D01*
X317888Y195552D01*
X318386Y195053D01*
X319038Y194783D01*
X319742D01*
X320393Y195053D01*
X320892Y195552D01*
X321162Y196203D01*
Y196907D01*
X320892Y197559D01*
X320393Y198057D01*
X320186Y198143D01*
X320069Y198733D01*
X320234Y198898D01*
X320503Y199549D01*
Y200254D01*
X320234Y200905D01*
X319735Y201403D01*
X319084Y201673D01*
D02*
G37*
G36*
X147509Y199409D02*
X146783D01*
X146082Y199222D01*
X145454Y198859D01*
X144940Y198346D01*
X144578Y197717D01*
X144390Y197016D01*
Y196291D01*
X144578Y195590D01*
X144940Y194961D01*
X145454Y194448D01*
X146082Y194085D01*
X146783Y193898D01*
X147509D01*
X148209Y194085D01*
X148838Y194448D01*
X149351Y194961D01*
X149714Y195590D01*
X149902Y196291D01*
Y197016D01*
X149714Y197717D01*
X149351Y198346D01*
X148838Y198859D01*
X148209Y199222D01*
X147509Y199409D01*
D02*
G37*
G36*
X222203Y195156D02*
X221498D01*
X220847Y194886D01*
X220349Y194388D01*
X220079Y193737D01*
Y193032D01*
X220349Y192381D01*
X220847Y191882D01*
X221498Y191613D01*
X222203D01*
X222854Y191882D01*
X223352Y192381D01*
X223622Y193032D01*
Y193737D01*
X223352Y194388D01*
X222854Y194886D01*
X222203Y195156D01*
D02*
G37*
G36*
X85392Y190847D02*
X84687D01*
X84036Y190577D01*
X83537Y190078D01*
X83268Y189427D01*
Y188722D01*
X83537Y188071D01*
X84036Y187573D01*
X84687Y187303D01*
X85392D01*
X86043Y187573D01*
X86541Y188071D01*
X86811Y188722D01*
Y189427D01*
X86541Y190078D01*
X86043Y190577D01*
X85392Y190847D01*
D02*
G37*
G36*
X234713Y191831D02*
X233988D01*
X233287Y191643D01*
X232658Y191280D01*
X232145Y190767D01*
X231782Y190138D01*
X231594Y189438D01*
Y188712D01*
X231782Y188011D01*
X232145Y187383D01*
X232658Y186870D01*
X233287Y186507D01*
X233988Y186319D01*
X234713D01*
X235414Y186507D01*
X236042Y186870D01*
X236556Y187383D01*
X236918Y188011D01*
X237106Y188712D01*
Y189438D01*
X236918Y190138D01*
X236556Y190767D01*
X236042Y191280D01*
X235414Y191643D01*
X234713Y191831D01*
D02*
G37*
G36*
X102124Y189370D02*
X101419D01*
X100768Y189100D01*
X100270Y188602D01*
X100000Y187951D01*
Y187246D01*
X100270Y186595D01*
X100768Y186097D01*
X101419Y185827D01*
X102124D01*
X102775Y186097D01*
X103274Y186595D01*
X103543Y187246D01*
Y187951D01*
X103274Y188602D01*
X102775Y189100D01*
X102124Y189370D01*
D02*
G37*
G36*
X211376Y188189D02*
X210671D01*
X210020Y187919D01*
X209522Y187421D01*
X209252Y186770D01*
Y186065D01*
X209522Y185414D01*
X210020Y184915D01*
X210671Y184646D01*
X211376D01*
X212027Y184915D01*
X212526Y185414D01*
X212795Y186065D01*
Y186770D01*
X212526Y187421D01*
X212027Y187919D01*
X211376Y188189D01*
D02*
G37*
G36*
X96397Y187947D02*
X95692D01*
X95041Y187677D01*
X94543Y187179D01*
X94273Y186527D01*
Y185823D01*
X94377Y185570D01*
X94303Y185459D01*
X93652Y185189D01*
X93154Y184691D01*
X92884Y184040D01*
Y183335D01*
X93154Y182684D01*
X93652Y182185D01*
X94303Y181915D01*
X95008D01*
X95659Y182185D01*
X96158Y182684D01*
X96427Y183335D01*
Y184040D01*
X96323Y184292D01*
X96397Y184403D01*
X97048Y184673D01*
X97546Y185171D01*
X97816Y185823D01*
Y186527D01*
X97546Y187179D01*
X97048Y187677D01*
X96397Y187947D01*
D02*
G37*
G36*
X326238Y183661D02*
X325533D01*
X324882Y183392D01*
X324384Y182893D01*
X324114Y182242D01*
Y181537D01*
X324384Y180886D01*
X324882Y180388D01*
X325533Y180118D01*
X326238D01*
X326889Y180388D01*
X327388Y180886D01*
X327658Y181537D01*
Y182242D01*
X327388Y182893D01*
X326889Y183392D01*
X326238Y183661D01*
D02*
G37*
G36*
X49936Y180962D02*
X49231D01*
X48580Y180693D01*
X48081Y180194D01*
X47812Y179543D01*
Y178838D01*
X48081Y178187D01*
X48580Y177689D01*
X49231Y177419D01*
X49936D01*
X50587Y177689D01*
X51085Y178187D01*
X51355Y178838D01*
Y179543D01*
X51085Y180194D01*
X50587Y180693D01*
X49936Y180962D01*
D02*
G37*
G36*
X208575Y180629D02*
X207870D01*
X207219Y180359D01*
X206720Y179861D01*
X206451Y179209D01*
Y178505D01*
X206720Y177854D01*
X207219Y177355D01*
X207870Y177085D01*
X208575D01*
X209226Y177355D01*
X209724Y177854D01*
X209994Y178505D01*
Y179209D01*
X209724Y179861D01*
X209226Y180359D01*
X208575Y180629D01*
D02*
G37*
G36*
X346612Y177911D02*
X345907D01*
X345256Y177642D01*
X344758Y177143D01*
X344488Y176492D01*
Y175787D01*
X344758Y175136D01*
X345256Y174638D01*
X345907Y174368D01*
X346612D01*
X347263Y174638D01*
X347762Y175136D01*
X348031Y175787D01*
Y176492D01*
X347762Y177143D01*
X347263Y177642D01*
X346612Y177911D01*
D02*
G37*
G36*
X346218Y173306D02*
X345514D01*
X344863Y173036D01*
X344364Y172538D01*
X344094Y171886D01*
Y171182D01*
X344364Y170530D01*
X344863Y170032D01*
X345514Y169762D01*
X346218D01*
X346870Y170032D01*
X347368Y170530D01*
X347638Y171182D01*
Y171886D01*
X347368Y172538D01*
X346870Y173036D01*
X346218Y173306D01*
D02*
G37*
G36*
X162655Y168799D02*
X161951D01*
X161300Y168529D01*
X160801Y168031D01*
X160718Y167830D01*
X160227Y167732D01*
X160106Y167853D01*
X159455Y168123D01*
X158750D01*
X158099Y167853D01*
X157600Y167355D01*
X157331Y166704D01*
Y165999D01*
X157600Y165348D01*
X158099Y164850D01*
X158750Y164580D01*
X159455D01*
X160106Y164850D01*
X160604Y165348D01*
X160688Y165550D01*
X161178Y165647D01*
X161300Y165526D01*
X161684Y165366D01*
X161999Y165156D01*
X162652Y165026D01*
X169680D01*
X169958Y164611D01*
X169882Y164427D01*
Y163722D01*
X170152Y163071D01*
X170650Y162573D01*
X170680Y162423D01*
X170297Y162040D01*
X170028Y161389D01*
Y160684D01*
X170297Y160033D01*
X170796Y159535D01*
X171447Y159265D01*
X172152D01*
X172803Y159535D01*
X173301Y160033D01*
X173571Y160684D01*
Y161389D01*
X173301Y162040D01*
X172803Y162539D01*
X172773Y162689D01*
X173155Y163071D01*
X173425Y163722D01*
Y164427D01*
X173349Y164611D01*
X173627Y165026D01*
X180009D01*
X180108Y164526D01*
X179555Y164297D01*
X179057Y163799D01*
X178787Y163148D01*
Y162443D01*
X179057Y161792D01*
X179555Y161293D01*
X180207Y161024D01*
X180912D01*
X181563Y161293D01*
X182061Y161792D01*
X182331Y162443D01*
Y163148D01*
X182061Y163799D01*
X181563Y164297D01*
X181010Y164526D01*
X181109Y165026D01*
X200787D01*
X200887Y164526D01*
X200571Y164396D01*
X200073Y163897D01*
X199803Y163246D01*
Y162541D01*
X200073Y161890D01*
X200571Y161392D01*
X201222Y161122D01*
X201927D01*
X202578Y161392D01*
X203077Y161890D01*
X203346Y162541D01*
Y163246D01*
X203077Y163897D01*
X202578Y164396D01*
X202263Y164526D01*
X202362Y165026D01*
X298505D01*
X298663Y164961D01*
X299368D01*
X300019Y165230D01*
X300518Y165729D01*
X300787Y166380D01*
Y167085D01*
X300518Y167736D01*
X300019Y168234D01*
X299368Y168504D01*
X298663D01*
X298505Y168438D01*
X163398D01*
X163307Y168529D01*
X162655Y168799D01*
D02*
G37*
G36*
X346218D02*
X345514D01*
X344863Y168529D01*
X344364Y168031D01*
X344094Y167380D01*
Y166675D01*
X344364Y166024D01*
X344863Y165526D01*
X345514Y165256D01*
X346218D01*
X346870Y165526D01*
X347368Y166024D01*
X347638Y166675D01*
Y167380D01*
X347368Y168031D01*
X346870Y168529D01*
X346218Y168799D01*
D02*
G37*
G36*
X85589Y165157D02*
X84884D01*
X84233Y164888D01*
X84031Y164686D01*
X83966Y164643D01*
X83965Y164642D01*
X83965Y164642D01*
X83919Y164596D01*
X83913Y164590D01*
X29245D01*
X29244Y164590D01*
X28784Y164498D01*
X28393Y164237D01*
X28393Y164237D01*
X27558Y163402D01*
X27537Y163401D01*
X27483Y163401D01*
X27483Y163401D01*
X27483Y163401D01*
X27405Y163386D01*
X27120D01*
X26469Y163116D01*
X25971Y162618D01*
X25701Y161967D01*
Y161262D01*
X25971Y160611D01*
X26303Y160279D01*
X26260Y160065D01*
X25762Y159567D01*
X25492Y158915D01*
Y158211D01*
X25762Y157559D01*
X26260Y157061D01*
X26911Y156791D01*
X27616D01*
X28267Y157061D01*
X28766Y157559D01*
X29035Y158211D01*
Y158915D01*
X28766Y159567D01*
X28434Y159898D01*
X28476Y160112D01*
X28975Y160611D01*
X29244Y161262D01*
Y161547D01*
X29260Y161624D01*
X29260Y161624D01*
X29260Y161624D01*
X29260Y161690D01*
X29260Y161698D01*
X29743Y162182D01*
X83911D01*
X83927Y162167D01*
X83965Y162129D01*
X83965Y162129D01*
X83966Y162129D01*
X84031Y162085D01*
X84233Y161884D01*
X84884Y161614D01*
X85589D01*
X86240Y161884D01*
X86738Y162382D01*
X87008Y163033D01*
Y163738D01*
X86738Y164389D01*
X86240Y164888D01*
X85589Y165157D01*
D02*
G37*
G36*
X362754Y170177D02*
X362049D01*
X361398Y169907D01*
X360900Y169409D01*
X360630Y168758D01*
Y168053D01*
X360900Y167402D01*
X361292Y167010D01*
X361385Y166806D01*
X361327Y166392D01*
X360998Y166063D01*
X360728Y165411D01*
Y164707D01*
X360998Y164056D01*
X361496Y163557D01*
X362148Y163287D01*
X362852D01*
X363504Y163557D01*
X364002Y164056D01*
X364272Y164707D01*
Y165411D01*
X364002Y166063D01*
X363610Y166455D01*
X363517Y166658D01*
X363574Y167073D01*
X363903Y167402D01*
X364173Y168053D01*
Y168758D01*
X363903Y169409D01*
X363405Y169907D01*
X362754Y170177D01*
D02*
G37*
G36*
X322597Y166732D02*
X321892D01*
X321240Y166463D01*
X320742Y165964D01*
X320472Y165313D01*
Y164608D01*
X320742Y163957D01*
X321240Y163459D01*
X321892Y163189D01*
X322597D01*
X323248Y163459D01*
X323746Y163957D01*
X324016Y164608D01*
Y165313D01*
X323746Y165964D01*
X323248Y166463D01*
X322597Y166732D01*
D02*
G37*
G36*
X191100Y163189D02*
X190396D01*
X189744Y162919D01*
X189246Y162421D01*
X188976Y161770D01*
Y161065D01*
X189246Y160414D01*
X189744Y159915D01*
X190396Y159646D01*
X191100D01*
X191752Y159915D01*
X192250Y160414D01*
X192520Y161065D01*
Y161770D01*
X192250Y162421D01*
X191752Y162919D01*
X191100Y163189D01*
D02*
G37*
G36*
X299522Y163009D02*
X298817D01*
X298166Y162739D01*
X297668Y162241D01*
X297398Y161590D01*
Y160885D01*
X297668Y160234D01*
X298166Y159735D01*
X298817Y159466D01*
X299522D01*
X300173Y159735D01*
X300672Y160234D01*
X300941Y160885D01*
Y161590D01*
X300672Y162241D01*
X300173Y162739D01*
X299522Y163009D01*
D02*
G37*
G36*
X106356Y159684D02*
X105651D01*
X105000Y159415D01*
X104502Y158916D01*
X104232Y158265D01*
Y157560D01*
X104502Y156909D01*
X105000Y156411D01*
X105651Y156141D01*
X106356D01*
X107008Y156411D01*
X107506Y156909D01*
X107776Y157560D01*
Y158265D01*
X107506Y158916D01*
X107008Y159415D01*
X106356Y159684D01*
D02*
G37*
G36*
X234713Y158529D02*
X233988D01*
X233287Y158341D01*
X232658Y157978D01*
X232145Y157465D01*
X231782Y156837D01*
X231594Y156136D01*
Y155410D01*
X231782Y154709D01*
X232145Y154081D01*
X232658Y153568D01*
X233287Y153205D01*
X233988Y153017D01*
X234713D01*
X235414Y153205D01*
X236042Y153568D01*
X236556Y154081D01*
X236918Y154709D01*
X237106Y155410D01*
Y156136D01*
X236918Y156837D01*
X236556Y157465D01*
X236042Y157978D01*
X235414Y158341D01*
X234713Y158529D01*
D02*
G37*
G36*
X188847D02*
X188121D01*
X187420Y158341D01*
X186792Y157978D01*
X186279Y157465D01*
X185916Y156837D01*
X185728Y156136D01*
Y155410D01*
X185916Y154709D01*
X186279Y154081D01*
X186792Y153568D01*
X187420Y153205D01*
X188121Y153017D01*
X188847D01*
X189548Y153205D01*
X190176Y153568D01*
X190690Y154081D01*
X191052Y154709D01*
X191240Y155410D01*
Y156136D01*
X191052Y156837D01*
X190690Y157465D01*
X190176Y157978D01*
X189548Y158341D01*
X188847Y158529D01*
D02*
G37*
G36*
X245431Y159153D02*
X244726D01*
X244075Y158884D01*
X243577Y158386D01*
X243307Y157734D01*
Y157029D01*
X243577Y156378D01*
X243772Y156183D01*
X244055Y155856D01*
X243772Y155530D01*
X243577Y155334D01*
X243307Y154683D01*
Y153978D01*
X243577Y153327D01*
X244075Y152829D01*
X244726Y152559D01*
X245431D01*
X246082Y152829D01*
X246581Y153327D01*
X246850Y153978D01*
Y154683D01*
X246581Y155334D01*
X246385Y155530D01*
X246103Y155856D01*
X246385Y156183D01*
X246581Y156378D01*
X246850Y157029D01*
Y157734D01*
X246581Y158386D01*
X246082Y158884D01*
X245431Y159153D01*
D02*
G37*
G36*
X309900Y153248D02*
X309195D01*
X308544Y152978D01*
X308045Y152480D01*
X307776Y151829D01*
Y151124D01*
X308045Y150473D01*
X308544Y149975D01*
X309195Y149705D01*
X309900D01*
X310551Y149975D01*
X311049Y150473D01*
X311319Y151124D01*
Y151829D01*
X311049Y152480D01*
X310551Y152978D01*
X309900Y153248D01*
D02*
G37*
G36*
X304880Y153051D02*
X304175D01*
X303524Y152781D01*
X303026Y152283D01*
X302756Y151632D01*
Y150927D01*
X303026Y150276D01*
X303524Y149777D01*
X304175Y149508D01*
X304880D01*
X305531Y149777D01*
X306030Y150276D01*
X306299Y150927D01*
Y151632D01*
X306030Y152283D01*
X305531Y152781D01*
X304880Y153051D01*
D02*
G37*
G36*
X180912Y150197D02*
X180207D01*
X179555Y149927D01*
X179057Y149429D01*
X178787Y148778D01*
Y148073D01*
X179057Y147422D01*
X179555Y146923D01*
X180207Y146653D01*
X180912D01*
X181563Y146923D01*
X182061Y147422D01*
X182331Y148073D01*
Y148778D01*
X182061Y149429D01*
X181563Y149927D01*
X180912Y150197D01*
D02*
G37*
G36*
X204187Y147355D02*
X203482D01*
X202831Y147086D01*
X202332Y146587D01*
X202063Y145936D01*
Y145231D01*
X202332Y144580D01*
X202831Y144082D01*
X203482Y143812D01*
X204187D01*
X204838Y144082D01*
X205336Y144580D01*
X205606Y145231D01*
Y145936D01*
X205336Y146587D01*
X204838Y147086D01*
X204187Y147355D01*
D02*
G37*
G36*
X147705Y148622D02*
X146980D01*
X146279Y148434D01*
X145650Y148071D01*
X145137Y147558D01*
X144774Y146930D01*
X144587Y146229D01*
Y145503D01*
X144774Y144802D01*
X145137Y144174D01*
X145650Y143661D01*
X146279Y143298D01*
X146980Y143110D01*
X147705D01*
X148406Y143298D01*
X149035Y143661D01*
X149548Y144174D01*
X149911Y144802D01*
X150098Y145503D01*
Y146229D01*
X149911Y146930D01*
X149548Y147558D01*
X149035Y148071D01*
X148406Y148434D01*
X147705Y148622D01*
D02*
G37*
G36*
X217675Y145571D02*
X216970D01*
X216319Y145301D01*
X215821Y144803D01*
X215551Y144152D01*
Y143447D01*
X215821Y142796D01*
X216319Y142297D01*
X216970Y142027D01*
X217675D01*
X218326Y142297D01*
X218825Y142796D01*
X219094Y143447D01*
Y144152D01*
X218825Y144803D01*
X218326Y145301D01*
X217675Y145571D01*
D02*
G37*
G36*
X198975Y141437D02*
X198270D01*
X197618Y141167D01*
X197120Y140669D01*
X196850Y140018D01*
Y139313D01*
X197120Y138662D01*
X197618Y138163D01*
X197365Y137764D01*
X197219Y137618D01*
X196949Y136967D01*
Y136262D01*
X197219Y135611D01*
X197717Y135112D01*
X198368Y134843D01*
X199073D01*
X199724Y135112D01*
X200222Y135611D01*
X200492Y136262D01*
Y136967D01*
X200222Y137618D01*
X199724Y138116D01*
X199978Y138516D01*
X200124Y138662D01*
X200394Y139313D01*
Y140018D01*
X200124Y140669D01*
X199626Y141167D01*
X198975Y141437D01*
D02*
G37*
G36*
X218955Y131573D02*
X218250D01*
X217599Y131304D01*
X217100Y130805D01*
X216831Y130154D01*
Y129449D01*
X217100Y128798D01*
X217599Y128300D01*
X218250Y128030D01*
X218955D01*
X219606Y128300D01*
X220104Y128798D01*
X220374Y129449D01*
Y130154D01*
X220104Y130805D01*
X219606Y131304D01*
X218955Y131573D01*
D02*
G37*
G36*
X217380Y115354D02*
X216675D01*
X216024Y115085D01*
X215526Y114586D01*
X215256Y113935D01*
Y113230D01*
X215526Y112579D01*
X216024Y112081D01*
X216675Y111811D01*
X217380D01*
X218031Y112081D01*
X218530Y112579D01*
X218799Y113230D01*
Y113935D01*
X218530Y114586D01*
X218031Y115085D01*
X217380Y115354D01*
D02*
G37*
G36*
X234713Y113189D02*
X233988D01*
X233287Y113001D01*
X232658Y112638D01*
X232145Y112125D01*
X231782Y111497D01*
X231594Y110796D01*
Y110070D01*
X231782Y109369D01*
X232145Y108741D01*
X232658Y108228D01*
X233287Y107865D01*
X233988Y107677D01*
X234713D01*
X235414Y107865D01*
X236042Y108228D01*
X236556Y108741D01*
X236918Y109369D01*
X237106Y110070D01*
Y110796D01*
X236918Y111497D01*
X236556Y112125D01*
X236042Y112638D01*
X235414Y113001D01*
X234713Y113189D01*
D02*
G37*
G36*
X321093Y110263D02*
X320389D01*
X319737Y109993D01*
X319239Y109495D01*
X318969Y108844D01*
Y108139D01*
X319239Y107488D01*
X319737Y106989D01*
X320389Y106720D01*
X321093D01*
X321744Y106989D01*
X322243Y107488D01*
X322513Y108139D01*
Y108844D01*
X322243Y109495D01*
X321744Y109993D01*
X321093Y110263D01*
D02*
G37*
G36*
X212705Y109968D02*
X212000D01*
X211349Y109698D01*
X210850Y109200D01*
X210581Y108548D01*
Y107844D01*
X210850Y107193D01*
X211349Y106694D01*
X212000Y106424D01*
X212705D01*
X213356Y106694D01*
X213854Y107193D01*
X214124Y107844D01*
Y108548D01*
X213854Y109200D01*
X213356Y109698D01*
X212705Y109968D01*
D02*
G37*
G36*
X67106Y109006D02*
X66402D01*
X65750Y108736D01*
X65252Y108238D01*
X64982Y107587D01*
Y106882D01*
X65252Y106231D01*
X65750Y105732D01*
X66402Y105463D01*
X67106D01*
X67757Y105732D01*
X68256Y106231D01*
X68526Y106882D01*
Y107587D01*
X68256Y108238D01*
X67757Y108736D01*
X67106Y109006D01*
D02*
G37*
G36*
X47965Y111171D02*
X47260D01*
X46609Y110901D01*
X46111Y110403D01*
X45841Y109752D01*
Y109047D01*
X46111Y108396D01*
X46437Y108071D01*
X46365Y107509D01*
X46357Y107497D01*
X46142Y107407D01*
X45644Y106909D01*
X45374Y106258D01*
Y105553D01*
X45644Y104902D01*
X46142Y104404D01*
X46793Y104134D01*
X47498D01*
X48149Y104404D01*
X48648Y104902D01*
X48917Y105553D01*
Y106258D01*
X48648Y106909D01*
X48322Y107235D01*
X48393Y107796D01*
X48401Y107809D01*
X48616Y107898D01*
X49115Y108396D01*
X49385Y109047D01*
Y109752D01*
X49115Y110403D01*
X48616Y110901D01*
X47965Y111171D01*
D02*
G37*
G36*
X167971Y104724D02*
X167266D01*
X166615Y104455D01*
X166116Y103956D01*
X165847Y103305D01*
Y102600D01*
X166116Y101949D01*
X166615Y101451D01*
X167266Y101181D01*
X167971D01*
X168622Y101451D01*
X169058Y101887D01*
X169597Y101892D01*
X169608Y101864D01*
X170107Y101365D01*
X170758Y101096D01*
X171463D01*
X172114Y101365D01*
X172612Y101864D01*
X172882Y102515D01*
Y103220D01*
X172612Y103871D01*
X172114Y104369D01*
X171463Y104639D01*
X170758D01*
X170107Y104369D01*
X169671Y103933D01*
X169132Y103928D01*
X169120Y103956D01*
X168622Y104455D01*
X167971Y104724D01*
D02*
G37*
G36*
X51334Y104232D02*
X50630D01*
X49978Y103963D01*
X49480Y103464D01*
X49210Y102813D01*
Y102108D01*
X49480Y101457D01*
X49978Y100959D01*
X50630Y100689D01*
X51334D01*
X51986Y100959D01*
X52484Y101457D01*
X52754Y102108D01*
Y102813D01*
X52484Y103464D01*
X51986Y103963D01*
X51334Y104232D01*
D02*
G37*
G36*
X22953Y98032D02*
X15473D01*
Y90551D01*
X22953D01*
Y98032D01*
D02*
G37*
G36*
X312557Y93602D02*
X311852D01*
X311201Y93333D01*
X310703Y92834D01*
X310433Y92183D01*
Y91478D01*
X310703Y90827D01*
X311201Y90329D01*
X311852Y90059D01*
X312557D01*
X313208Y90329D01*
X313707Y90827D01*
X313976Y91478D01*
Y92183D01*
X313707Y92834D01*
X313208Y93333D01*
X312557Y93602D01*
D02*
G37*
G36*
X308128D02*
X307423D01*
X306772Y93333D01*
X306274Y92834D01*
X306004Y92183D01*
Y91478D01*
X306274Y90827D01*
X306772Y90329D01*
X307423Y90059D01*
X308128D01*
X308779Y90329D01*
X309278Y90827D01*
X309547Y91478D01*
Y92183D01*
X309278Y92834D01*
X308779Y93333D01*
X308128Y93602D01*
D02*
G37*
G36*
X342872Y89961D02*
X342167D01*
X341516Y89691D01*
X341018Y89192D01*
X340748Y88541D01*
Y87837D01*
X341018Y87185D01*
X341516Y86687D01*
X342167Y86417D01*
X342872D01*
X343523Y86687D01*
X344022Y87185D01*
X344291Y87837D01*
Y88541D01*
X344022Y89192D01*
X343523Y89691D01*
X342872Y89961D01*
D02*
G37*
G36*
X92390Y90059D02*
X91665D01*
X90964Y89871D01*
X90335Y89508D01*
X89822Y88995D01*
X89460Y88367D01*
X89272Y87666D01*
Y86940D01*
X89460Y86239D01*
X89822Y85611D01*
X90335Y85098D01*
X90964Y84735D01*
X91665Y84547D01*
X92390D01*
X93091Y84735D01*
X93720Y85098D01*
X94233Y85611D01*
X94596Y86239D01*
X94784Y86940D01*
Y87666D01*
X94596Y88367D01*
X94233Y88995D01*
X93720Y89508D01*
X93091Y89871D01*
X92390Y90059D01*
D02*
G37*
G36*
X103868Y91782D02*
X95502D01*
Y83415D01*
X103868D01*
Y91782D01*
D02*
G37*
G36*
X362754Y90945D02*
X362049D01*
X361398Y90675D01*
X360900Y90177D01*
X360630Y89526D01*
Y88821D01*
X360900Y88170D01*
X361323Y87746D01*
X360900Y87322D01*
X360630Y86671D01*
Y85966D01*
X360900Y85315D01*
X361323Y84892D01*
X360900Y84468D01*
X360630Y83817D01*
Y83112D01*
X360900Y82461D01*
X361398Y81963D01*
X362049Y81693D01*
X362754D01*
X363405Y81963D01*
X363903Y82461D01*
X364173Y83112D01*
Y83817D01*
X363903Y84468D01*
X363480Y84892D01*
X363903Y85315D01*
X364173Y85966D01*
Y86671D01*
X363903Y87322D01*
X363480Y87746D01*
X363903Y88170D01*
X364173Y88821D01*
Y89526D01*
X363903Y90177D01*
X363405Y90675D01*
X362754Y90945D01*
D02*
G37*
G36*
X19705Y88032D02*
X18720D01*
X17769Y87777D01*
X16916Y87284D01*
X16220Y86588D01*
X15727Y85735D01*
X15473Y84784D01*
Y83799D01*
X15727Y82848D01*
X16220Y81995D01*
X16916Y81299D01*
X17769Y80806D01*
X18720Y80551D01*
X19705D01*
X20656Y80806D01*
X21509Y81299D01*
X22206Y81995D01*
X22698Y82848D01*
X22953Y83799D01*
Y84784D01*
X22698Y85735D01*
X22206Y86588D01*
X21509Y87284D01*
X20656Y87777D01*
X19705Y88032D01*
D02*
G37*
G36*
X245431Y84941D02*
X244726D01*
X244075Y84671D01*
X243577Y84173D01*
X243307Y83522D01*
Y82817D01*
X243577Y82166D01*
X243772Y81970D01*
X244055Y81644D01*
X243772Y81317D01*
X243577Y81122D01*
X243307Y80471D01*
Y79766D01*
X243577Y79115D01*
X244075Y78616D01*
X244726Y78347D01*
X245431D01*
X246082Y78616D01*
X246581Y79115D01*
X246850Y79766D01*
Y80471D01*
X246581Y81122D01*
X246385Y81317D01*
X246103Y81644D01*
X246385Y81970D01*
X246581Y82166D01*
X246850Y82817D01*
Y83522D01*
X246581Y84173D01*
X246082Y84671D01*
X245431Y84941D01*
D02*
G37*
G36*
X39230Y77953D02*
X38526D01*
X37874Y77683D01*
X37376Y77185D01*
X37106Y76534D01*
Y75829D01*
X37376Y75178D01*
X37874Y74679D01*
X38526Y74410D01*
X39230D01*
X39882Y74679D01*
X40380Y75178D01*
X40650Y75829D01*
Y76534D01*
X40380Y77185D01*
X39882Y77683D01*
X39230Y77953D01*
D02*
G37*
G36*
X25451Y77658D02*
X24746D01*
X24095Y77388D01*
X23596Y76889D01*
X23327Y76238D01*
Y75533D01*
X23596Y74882D01*
X24095Y74384D01*
X24746Y74114D01*
X25451D01*
X26102Y74384D01*
X26600Y74882D01*
X26870Y75533D01*
Y76238D01*
X26600Y76889D01*
X26102Y77388D01*
X25451Y77658D01*
D02*
G37*
G36*
X322301Y76673D02*
X321596D01*
X320945Y76403D01*
X320447Y75905D01*
X320177Y75254D01*
Y74549D01*
X320447Y73898D01*
X320945Y73400D01*
X321596Y73130D01*
X322301D01*
X322952Y73400D01*
X323451Y73898D01*
X323721Y74549D01*
Y75254D01*
X323451Y75905D01*
X322952Y76403D01*
X322301Y76673D01*
D02*
G37*
G36*
X101435Y76083D02*
X100730D01*
X100079Y75813D01*
X99581Y75315D01*
X99311Y74663D01*
Y73959D01*
X99581Y73308D01*
X100079Y72809D01*
X100730Y72539D01*
X101435D01*
X102086Y72809D01*
X102585Y73308D01*
X102854Y73959D01*
Y74663D01*
X102585Y75315D01*
X102086Y75813D01*
X101435Y76083D01*
D02*
G37*
G36*
X19705Y78031D02*
X18720D01*
X17769Y77777D01*
X16916Y77284D01*
X16220Y76588D01*
X15727Y75735D01*
X15473Y74784D01*
Y73799D01*
X15727Y72848D01*
X16220Y71995D01*
X16916Y71298D01*
X17769Y70806D01*
X18720Y70551D01*
X19705D01*
X20656Y70806D01*
X21509Y71298D01*
X22206Y71995D01*
X22698Y72848D01*
X22953Y73799D01*
Y74784D01*
X22698Y75735D01*
X22206Y76588D01*
X21509Y77284D01*
X20656Y77777D01*
X19705Y78031D01*
D02*
G37*
G36*
X190707Y73524D02*
X190002D01*
X189351Y73254D01*
X188852Y72755D01*
X188583Y72104D01*
Y71400D01*
X188852Y70748D01*
X189351Y70250D01*
X190002Y69980D01*
X190707D01*
X191358Y70250D01*
X191856Y70748D01*
X192126Y71400D01*
Y72104D01*
X191856Y72755D01*
X191358Y73254D01*
X190707Y73524D01*
D02*
G37*
G36*
X299016Y78972D02*
X298841Y78937D01*
X298663D01*
X298499Y78869D01*
X298324Y78834D01*
X298177Y78735D01*
X298012Y78667D01*
X297886Y78541D01*
X297739Y78443D01*
X288228Y68932D01*
X172146D01*
X171971Y68898D01*
X171793D01*
X171629Y68830D01*
X171454Y68795D01*
X171307Y68696D01*
X171142Y68628D01*
X171016Y68502D01*
X170868Y68403D01*
X170770Y68255D01*
X170644Y68129D01*
X170576Y67965D01*
X170477Y67817D01*
X170442Y67643D01*
X170374Y67478D01*
Y67300D01*
X170339Y67126D01*
X170374Y66952D01*
Y66774D01*
X170442Y66609D01*
X170477Y66435D01*
X170576Y66287D01*
X170644Y66122D01*
X170770Y65997D01*
X170868Y65849D01*
X171016Y65750D01*
X171076Y65690D01*
X171128Y65464D01*
X171096Y65108D01*
X171092Y65098D01*
X170691Y64698D01*
X170421Y64047D01*
Y63342D01*
X170691Y62691D01*
X171189Y62192D01*
X171841Y61922D01*
X172545D01*
X173196Y62192D01*
X173695Y62691D01*
X173965Y63342D01*
Y64047D01*
X173695Y64698D01*
X173573Y64820D01*
X173780Y65320D01*
X288976D01*
X289668Y65457D01*
X290254Y65849D01*
X296585Y72180D01*
X296858Y72077D01*
X297047Y71935D01*
Y71301D01*
X297317Y70650D01*
X297815Y70152D01*
X298466Y69882D01*
X299171D01*
X299822Y70152D01*
X300321Y70650D01*
X300590Y71301D01*
Y72006D01*
X300321Y72657D01*
X299822Y73155D01*
X299171Y73425D01*
X298537D01*
X298395Y73614D01*
X298292Y73887D01*
X300293Y75888D01*
X300392Y76036D01*
X300518Y76162D01*
X300586Y76326D01*
X300685Y76474D01*
X300719Y76649D01*
X300787Y76813D01*
Y76991D01*
X300822Y77165D01*
X300787Y77340D01*
Y77518D01*
X300719Y77682D01*
X300685Y77857D01*
X300586Y78005D01*
X300518Y78169D01*
X300392Y78295D01*
X300293Y78443D01*
X300145Y78541D01*
X300019Y78667D01*
X299855Y78735D01*
X299707Y78834D01*
X299533Y78869D01*
X299368Y78937D01*
X299190D01*
X299016Y78972D01*
D02*
G37*
G36*
X362754Y76673D02*
X362049D01*
X361398Y76403D01*
X360900Y75905D01*
X360630Y75254D01*
Y74549D01*
X360900Y73898D01*
X361372Y73425D01*
X360900Y72952D01*
X360630Y72301D01*
Y71596D01*
X360900Y70945D01*
X361323Y70522D01*
X360900Y70098D01*
X360630Y69447D01*
Y68742D01*
X360900Y68091D01*
X361398Y67593D01*
X362049Y67323D01*
X362754D01*
X363405Y67593D01*
X363903Y68091D01*
X364173Y68742D01*
Y69447D01*
X363903Y70098D01*
X363480Y70522D01*
X363903Y70945D01*
X364173Y71596D01*
Y72301D01*
X363903Y72952D01*
X363431Y73425D01*
X363903Y73898D01*
X364173Y74549D01*
Y75254D01*
X363903Y75905D01*
X363405Y76403D01*
X362754Y76673D01*
D02*
G37*
G36*
X95628Y68602D02*
X94923D01*
X94272Y68333D01*
X93774Y67834D01*
X93504Y67183D01*
Y66478D01*
X93774Y65827D01*
X94272Y65329D01*
X94923Y65059D01*
X95628D01*
X96279Y65329D01*
X96777Y65827D01*
X97047Y66478D01*
Y67183D01*
X96777Y67834D01*
X96279Y68333D01*
X95628Y68602D01*
D02*
G37*
G36*
X19705Y68032D02*
X18720D01*
X17769Y67777D01*
X16916Y67284D01*
X16220Y66588D01*
X15727Y65735D01*
X15473Y64784D01*
Y63799D01*
X15727Y62848D01*
X16220Y61995D01*
X16916Y61299D01*
X17769Y60806D01*
X18720Y60551D01*
X19705D01*
X20656Y60806D01*
X21509Y61299D01*
X22206Y61995D01*
X22698Y62848D01*
X22953Y63799D01*
Y64784D01*
X22698Y65735D01*
X22206Y66588D01*
X21509Y67284D01*
X20656Y67777D01*
X19705Y68032D01*
D02*
G37*
G36*
X309801Y63583D02*
X309096D01*
X308445Y63313D01*
X307947Y62814D01*
X307677Y62163D01*
Y61458D01*
X307947Y60807D01*
X308445Y60309D01*
X309096Y60039D01*
X309801D01*
X310452Y60309D01*
X310951Y60807D01*
X311221Y61458D01*
Y62163D01*
X310951Y62814D01*
X310452Y63313D01*
X309801Y63583D01*
D02*
G37*
G36*
X305077D02*
X304372D01*
X303721Y63313D01*
X303222Y62814D01*
X302953Y62163D01*
Y61458D01*
X303222Y60807D01*
X303721Y60309D01*
X304372Y60039D01*
X305077D01*
X305728Y60309D01*
X306226Y60807D01*
X306496Y61458D01*
Y62163D01*
X306226Y62814D01*
X305728Y63313D01*
X305077Y63583D01*
D02*
G37*
G36*
X55372Y63976D02*
X54667D01*
X54016Y63707D01*
X53518Y63208D01*
X53248Y62557D01*
Y61852D01*
X53518Y61201D01*
X54008Y60711D01*
X53663Y60367D01*
X53394Y59716D01*
Y59011D01*
X53663Y58360D01*
X54162Y57861D01*
X54813Y57592D01*
X55518D01*
X56169Y57861D01*
X56667Y58360D01*
X56937Y59011D01*
Y59716D01*
X56667Y60367D01*
X56177Y60857D01*
X56522Y61201D01*
X56791Y61852D01*
Y62557D01*
X56522Y63208D01*
X56023Y63707D01*
X55372Y63976D01*
D02*
G37*
G36*
X32332Y56344D02*
X31627D01*
X30976Y56074D01*
X30477Y55576D01*
X30208Y54925D01*
Y54220D01*
X30477Y53569D01*
X30976Y53071D01*
X31627Y52801D01*
X32332D01*
X32983Y53071D01*
X33481Y53569D01*
X33751Y54220D01*
Y54925D01*
X33481Y55576D01*
X32983Y56074D01*
X32332Y56344D01*
D02*
G37*
G36*
X74523Y55465D02*
X73818D01*
X73167Y55195D01*
X72669Y54697D01*
X72399Y54046D01*
Y53341D01*
X72669Y52690D01*
X73167Y52192D01*
X73818Y51922D01*
X74523D01*
X75174Y52192D01*
X75673Y52690D01*
X75942Y53341D01*
Y54046D01*
X75673Y54697D01*
X75174Y55195D01*
X74523Y55465D01*
D02*
G37*
G36*
X19705Y58031D02*
X18720D01*
X17769Y57777D01*
X16916Y57284D01*
X16220Y56588D01*
X15727Y55735D01*
X15473Y54784D01*
Y53799D01*
X15727Y52848D01*
X16220Y51995D01*
X16916Y51298D01*
X17769Y50806D01*
X18720Y50551D01*
X19705D01*
X20656Y50806D01*
X21509Y51298D01*
X22206Y51995D01*
X22698Y52848D01*
X22953Y53799D01*
Y54784D01*
X22698Y55735D01*
X22206Y56588D01*
X21509Y57284D01*
X20656Y57777D01*
X19705Y58031D01*
D02*
G37*
G36*
X82144Y53937D02*
X81439D01*
X80788Y53667D01*
X80289Y53169D01*
X80020Y52518D01*
Y51813D01*
X80289Y51162D01*
X80788Y50663D01*
X81439Y50394D01*
X82144D01*
X82795Y50663D01*
X83293Y51162D01*
X83563Y51813D01*
Y52518D01*
X83293Y53169D01*
X82795Y53667D01*
X82144Y53937D01*
D02*
G37*
G36*
X106553Y44291D02*
X105848D01*
X105197Y44022D01*
X104699Y43523D01*
X104429Y42872D01*
Y42167D01*
X104699Y41516D01*
X105197Y41018D01*
X105848Y40748D01*
X106553D01*
X107204Y41018D01*
X107703Y41516D01*
X107972Y42167D01*
Y42872D01*
X107703Y43523D01*
X107204Y44022D01*
X106553Y44291D01*
D02*
G37*
G36*
X19705Y48031D02*
X18720D01*
X17769Y47777D01*
X16916Y47284D01*
X16220Y46588D01*
X15727Y45735D01*
X15473Y44784D01*
Y43799D01*
X15727Y42848D01*
X16220Y41995D01*
X16916Y41298D01*
X17769Y40806D01*
X18720Y40551D01*
X19705D01*
X20656Y40806D01*
X21509Y41298D01*
X22206Y41995D01*
X22698Y42848D01*
X22953Y43799D01*
Y44784D01*
X22698Y45735D01*
X22206Y46588D01*
X21509Y47284D01*
X20656Y47777D01*
X19705Y48031D01*
D02*
G37*
G36*
X97006Y43996D02*
X96301D01*
X95650Y43726D01*
X95152Y43228D01*
X94882Y42577D01*
Y41872D01*
X95152Y41221D01*
X95650Y40723D01*
X96301Y40453D01*
X97006D01*
X97657Y40723D01*
X98155Y41221D01*
X98425Y41872D01*
Y42577D01*
X98155Y43228D01*
X97657Y43726D01*
X97006Y43996D01*
D02*
G37*
G36*
X233532Y45177D02*
X232806D01*
X232105Y44989D01*
X231477Y44627D01*
X230964Y44113D01*
X230601Y43485D01*
X230413Y42784D01*
Y42058D01*
X230601Y41357D01*
X230964Y40729D01*
X231477Y40216D01*
X232105Y39853D01*
X232806Y39665D01*
X233532D01*
X234233Y39853D01*
X234861Y40216D01*
X235375Y40729D01*
X235737Y41357D01*
X235925Y42058D01*
Y42784D01*
X235737Y43485D01*
X235375Y44113D01*
X234861Y44627D01*
X234233Y44989D01*
X233532Y45177D01*
D02*
G37*
G36*
X188847Y44980D02*
X188121D01*
X187420Y44793D01*
X186792Y44430D01*
X186279Y43917D01*
X185916Y43288D01*
X185728Y42587D01*
Y41862D01*
X185916Y41161D01*
X186279Y40532D01*
X186792Y40019D01*
X187420Y39656D01*
X188121Y39469D01*
X188847D01*
X189548Y39656D01*
X190176Y40019D01*
X190690Y40532D01*
X191052Y41161D01*
X191240Y41862D01*
Y42587D01*
X191052Y43288D01*
X190690Y43917D01*
X190176Y44430D01*
X189548Y44793D01*
X188847Y44980D01*
D02*
G37*
G36*
X39132Y38976D02*
X38427D01*
X37776Y38707D01*
X37278Y38208D01*
X37008Y37557D01*
Y36852D01*
X37278Y36201D01*
X37776Y35703D01*
X38427Y35433D01*
X39132D01*
X39783Y35703D01*
X40282Y36201D01*
X40551Y36852D01*
Y37557D01*
X40282Y38208D01*
X39783Y38707D01*
X39132Y38976D01*
D02*
G37*
G36*
X61573Y36693D02*
X60868D01*
X60217Y36423D01*
X59719Y35925D01*
X59449Y35274D01*
Y34569D01*
X59719Y33917D01*
X60217Y33419D01*
X60868Y33149D01*
X61573D01*
X62224Y33419D01*
X62722Y33917D01*
X62992Y34569D01*
Y35274D01*
X62722Y35925D01*
X62224Y36423D01*
X61573Y36693D01*
D02*
G37*
G36*
X19705Y38032D02*
X18720D01*
X17769Y37777D01*
X16916Y37284D01*
X16220Y36588D01*
X15727Y35735D01*
X15473Y34784D01*
Y33799D01*
X15727Y32848D01*
X16220Y31995D01*
X16916Y31299D01*
X17769Y30806D01*
X18720Y30551D01*
X19705D01*
X20656Y30806D01*
X21509Y31299D01*
X22206Y31995D01*
X22698Y32848D01*
X22953Y33799D01*
Y34784D01*
X22698Y35735D01*
X22206Y36588D01*
X21509Y37284D01*
X20656Y37777D01*
X19705Y38032D01*
D02*
G37*
G36*
X101337Y43996D02*
X100632D01*
X99981Y43726D01*
X99482Y43228D01*
X99213Y42577D01*
Y41872D01*
X99482Y41221D01*
X99981Y40723D01*
X100632Y40453D01*
X100769D01*
X110030Y31192D01*
X110486Y30887D01*
X111024Y30780D01*
X145393D01*
X145682Y30280D01*
X145463Y29902D01*
X145276Y29201D01*
Y28476D01*
X145463Y27775D01*
X145826Y27146D01*
X146339Y26633D01*
X146968Y26270D01*
X147669Y26083D01*
X148394D01*
X149095Y26270D01*
X149724Y26633D01*
X150237Y27146D01*
X150600Y27775D01*
X150787Y28476D01*
Y29201D01*
X150600Y29902D01*
X150382Y30280D01*
X150670Y30780D01*
X287509D01*
X290849Y27439D01*
Y27302D01*
X291055Y26807D01*
X290810Y26307D01*
X211999D01*
X210138Y28168D01*
Y28305D01*
X209868Y28956D01*
X209370Y29455D01*
X208718Y29724D01*
X208014D01*
X207363Y29455D01*
X206864Y28956D01*
X206594Y28305D01*
Y27600D01*
X206864Y26949D01*
X207363Y26451D01*
X208014Y26181D01*
X208151D01*
X210424Y23908D01*
X210880Y23604D01*
X211417Y23497D01*
X292915D01*
X293014Y22997D01*
X292685Y22860D01*
X292588Y22763D01*
X207570D01*
X203150Y27184D01*
Y27321D01*
X202880Y27972D01*
X202381Y28470D01*
X201730Y28740D01*
X201026D01*
X200374Y28470D01*
X199876Y27972D01*
X199606Y27321D01*
Y26616D01*
X199876Y25965D01*
X200374Y25467D01*
X201026Y25197D01*
X201163D01*
X205995Y20365D01*
X206451Y20060D01*
X206988Y19953D01*
X230779D01*
X230805Y19892D01*
X230933Y19453D01*
X230601Y18879D01*
X230413Y18178D01*
Y17452D01*
X230601Y16751D01*
X230964Y16123D01*
X231477Y15610D01*
X232105Y15247D01*
X232806Y15059D01*
X233532D01*
X234233Y15247D01*
X234861Y15610D01*
X235375Y16123D01*
X235737Y16751D01*
X235925Y17452D01*
Y18178D01*
X235737Y18879D01*
X235406Y19453D01*
X235534Y19892D01*
X235559Y19953D01*
X292588D01*
X292685Y19856D01*
X293336Y19587D01*
X294041D01*
X294692Y19856D01*
X295190Y20355D01*
X295460Y21006D01*
Y21711D01*
X295190Y22362D01*
X294772Y22781D01*
X294856Y23157D01*
X294925Y23281D01*
X295063D01*
X295714Y23550D01*
X296213Y24049D01*
X296482Y24700D01*
Y25405D01*
X296213Y26056D01*
X295714Y26554D01*
X295063Y26824D01*
X294736D01*
X294393Y27302D01*
Y28007D01*
X294123Y28658D01*
X293625Y29157D01*
X292973Y29426D01*
X292836D01*
X289084Y33178D01*
X288628Y33483D01*
X288091Y33590D01*
X246788D01*
X246603Y34090D01*
X246850Y34687D01*
Y35392D01*
X246581Y36043D01*
X246385Y36238D01*
X246103Y36565D01*
X246385Y36892D01*
X246581Y37087D01*
X246850Y37738D01*
Y38443D01*
X246581Y39094D01*
X246082Y39592D01*
X245431Y39862D01*
X244726D01*
X244075Y39592D01*
X243577Y39094D01*
X243307Y38443D01*
Y37738D01*
X243577Y37087D01*
X243772Y36892D01*
X244055Y36565D01*
X243772Y36238D01*
X243577Y36043D01*
X243307Y35392D01*
Y34687D01*
X243554Y34090D01*
X243369Y33590D01*
X182565D01*
X182231Y34090D01*
X182333Y34335D01*
Y35040D01*
X182063Y35691D01*
X181868Y35886D01*
X181585Y36213D01*
X181868Y36539D01*
X182063Y36735D01*
X182333Y37386D01*
Y38091D01*
X182063Y38742D01*
X181564Y39240D01*
X181378Y39318D01*
Y39859D01*
X181563Y39935D01*
X182061Y40433D01*
X182331Y41085D01*
Y41789D01*
X182061Y42441D01*
X181563Y42939D01*
X180912Y43209D01*
X180207D01*
X179555Y42939D01*
X179057Y42441D01*
X178787Y41789D01*
Y41085D01*
X179057Y40433D01*
X179555Y39935D01*
X179742Y39858D01*
Y39317D01*
X179557Y39240D01*
X179059Y38742D01*
X178789Y38091D01*
Y37386D01*
X179059Y36735D01*
X179254Y36539D01*
X179537Y36213D01*
X179254Y35886D01*
X179059Y35691D01*
X178789Y35040D01*
Y34335D01*
X178891Y34090D01*
X178557Y33590D01*
X111606D01*
X102756Y42440D01*
Y42577D01*
X102486Y43228D01*
X101988Y43726D01*
X101337Y43996D01*
D02*
G37*
G36*
X180912Y28937D02*
X180207D01*
X179555Y28667D01*
X179057Y28169D01*
X178787Y27518D01*
Y26813D01*
X179057Y26162D01*
X179555Y25663D01*
X180207Y25394D01*
X180912D01*
X181563Y25663D01*
X182061Y26162D01*
X182331Y26813D01*
Y27518D01*
X182061Y28169D01*
X181563Y28667D01*
X180912Y28937D01*
D02*
G37*
G36*
X314530Y26528D02*
X313825D01*
X313174Y26258D01*
X312676Y25760D01*
X312422Y25147D01*
X312065Y25295D01*
X311360D01*
X310709Y25025D01*
X310211Y24527D01*
X309941Y23876D01*
Y23841D01*
X306947Y20847D01*
X306484D01*
X305963Y21063D01*
X305258D01*
X304607Y20793D01*
X304108Y20295D01*
X303839Y19644D01*
Y18939D01*
X304108Y18288D01*
X304607Y17789D01*
X305258Y17520D01*
X305963D01*
X306614Y17789D01*
X306861Y18037D01*
X307529D01*
X308067Y18144D01*
X308523Y18449D01*
X309146Y19072D01*
X309646Y18865D01*
Y18841D01*
X309915Y18189D01*
X310414Y17691D01*
X311065Y17421D01*
X311770D01*
X312421Y17691D01*
X312919Y18189D01*
X313189Y18841D01*
Y18931D01*
X314586Y20327D01*
X314612Y20333D01*
X315068Y20637D01*
X315373Y21093D01*
X315480Y21631D01*
Y23553D01*
X315680Y23753D01*
X315949Y24404D01*
Y25109D01*
X315680Y25760D01*
X315181Y26258D01*
X314530Y26528D01*
D02*
G37*
G36*
X19705Y28032D02*
X18720D01*
X17769Y27777D01*
X16916Y27284D01*
X16220Y26588D01*
X15727Y25735D01*
X15473Y24784D01*
Y23799D01*
X15727Y22848D01*
X16220Y21995D01*
X16916Y21298D01*
X17769Y20806D01*
X18720Y20551D01*
X19705D01*
X20656Y20806D01*
X21509Y21298D01*
X22206Y21995D01*
X22698Y22848D01*
X22953Y23799D01*
Y24784D01*
X22698Y25735D01*
X22206Y26588D01*
X21509Y27284D01*
X20656Y27777D01*
X19705Y28032D01*
D02*
G37*
G36*
X321317Y23720D02*
X320612D01*
X319961Y23451D01*
X319463Y22952D01*
X319193Y22301D01*
Y21596D01*
X319463Y20945D01*
X319961Y20447D01*
X320612Y20177D01*
X321317D01*
X321968Y20447D01*
X322467Y20945D01*
X322736Y21596D01*
Y22301D01*
X322467Y22952D01*
X321968Y23451D01*
X321317Y23720D01*
D02*
G37*
G36*
X188650Y20571D02*
X187925D01*
X187224Y20383D01*
X186595Y20020D01*
X186082Y19507D01*
X185719Y18879D01*
X185531Y18178D01*
Y17452D01*
X185719Y16751D01*
X186082Y16123D01*
X186595Y15610D01*
X187224Y15247D01*
X187925Y15059D01*
X188650D01*
X189351Y15247D01*
X189980Y15610D01*
X190493Y16123D01*
X190856Y16751D01*
X191043Y17452D01*
Y18178D01*
X190856Y18879D01*
X190493Y19507D01*
X189980Y20020D01*
X189351Y20383D01*
X188650Y20571D01*
D02*
G37*
G36*
X164033Y15059D02*
X163329D01*
X162678Y14789D01*
X162179Y14291D01*
X161909Y13640D01*
Y12935D01*
X162179Y12284D01*
X162678Y11785D01*
X163329Y11516D01*
X164033D01*
X164685Y11785D01*
X165183Y12284D01*
X165453Y12935D01*
Y13640D01*
X165183Y14291D01*
X164685Y14789D01*
X164033Y15059D01*
D02*
G37*
G36*
X316593Y13583D02*
X315888D01*
X315237Y13313D01*
X314738Y12815D01*
X314469Y12163D01*
Y11459D01*
X314738Y10808D01*
X315237Y10309D01*
X315888Y10039D01*
X316593D01*
X317244Y10309D01*
X317742Y10808D01*
X318012Y11459D01*
Y12163D01*
X317742Y12815D01*
X317244Y13313D01*
X316593Y13583D01*
D02*
G37*
G36*
X300773Y13477D02*
X300068D01*
X299416Y13207D01*
X298918Y12709D01*
X298649Y12057D01*
Y11353D01*
X298918Y10701D01*
X299416Y10203D01*
X300068Y9933D01*
X300773D01*
X301424Y10203D01*
X301922Y10701D01*
X302192Y11353D01*
Y12057D01*
X301922Y12709D01*
X301424Y13207D01*
X300773Y13477D01*
D02*
G37*
%LPD*%
G36*
X84533Y162697D02*
X84477Y162753D01*
X84290Y162918D01*
X84252Y162945D01*
X84218Y162966D01*
X84187Y162980D01*
X84160Y162989D01*
X84137Y162992D01*
Y163779D01*
X84160Y163783D01*
X84187Y163791D01*
X84218Y163806D01*
X84252Y163827D01*
X84290Y163853D01*
X84376Y163924D01*
X84477Y164019D01*
X84533Y164075D01*
Y162697D01*
D02*
G37*
G36*
X28528Y162113D02*
X28514Y162094D01*
X28501Y162069D01*
X28490Y162037D01*
X28481Y161998D01*
X28473Y161953D01*
X28462Y161842D01*
X28457Y161703D01*
X28457Y161624D01*
X27483Y162598D01*
X27562Y162598D01*
X27812Y162614D01*
X27857Y162622D01*
X27896Y162631D01*
X27928Y162643D01*
X27953Y162655D01*
X27971Y162670D01*
X28528Y162113D01*
D02*
G37*
G36*
X101970Y42187D02*
X101973Y42160D01*
X101979Y42132D01*
X101988Y42105D01*
X102000Y42079D01*
X102014Y42052D01*
X102031Y42025D01*
X102051Y41999D01*
X102073Y41972D01*
X102098Y41946D01*
X101263Y41111D01*
X101236Y41136D01*
X101210Y41158D01*
X101184Y41177D01*
X101157Y41194D01*
X101130Y41209D01*
X101103Y41220D01*
X101076Y41229D01*
X101049Y41236D01*
X101022Y41239D01*
X100994Y41240D01*
X101968Y42215D01*
X101970Y42187D01*
D02*
G37*
G36*
X292369Y28743D02*
X292395Y28721D01*
X292422Y28702D01*
X292448Y28685D01*
X292475Y28670D01*
X292502Y28659D01*
X292529Y28650D01*
X292556Y28644D01*
X292584Y28640D01*
X292611Y28639D01*
X291637Y27664D01*
X291636Y27692D01*
X291632Y27719D01*
X291626Y27746D01*
X291617Y27773D01*
X291605Y27801D01*
X291591Y27827D01*
X291574Y27854D01*
X291554Y27880D01*
X291532Y27907D01*
X291508Y27933D01*
X292343Y28768D01*
X292369Y28743D01*
D02*
G37*
G36*
X209351Y27915D02*
X209355Y27888D01*
X209361Y27861D01*
X209370Y27834D01*
X209382Y27807D01*
X209396Y27780D01*
X209413Y27753D01*
X209433Y27727D01*
X209455Y27701D01*
X209480Y27674D01*
X208645Y26839D01*
X208618Y26864D01*
X208592Y26886D01*
X208565Y26906D01*
X208539Y26923D01*
X208512Y26937D01*
X208485Y26948D01*
X208458Y26957D01*
X208431Y26964D01*
X208403Y26967D01*
X208376Y26969D01*
X209350Y27943D01*
X209351Y27915D01*
D02*
G37*
G36*
X202363Y26931D02*
X202367Y26904D01*
X202373Y26877D01*
X202382Y26849D01*
X202394Y26823D01*
X202408Y26796D01*
X202425Y26769D01*
X202445Y26743D01*
X202467Y26716D01*
X202491Y26690D01*
X201656Y25855D01*
X201630Y25880D01*
X201604Y25902D01*
X201577Y25921D01*
X201551Y25938D01*
X201524Y25953D01*
X201497Y25964D01*
X201470Y25973D01*
X201443Y25980D01*
X201415Y25983D01*
X201388Y25984D01*
X202362Y26959D01*
X202363Y26931D01*
D02*
G37*
G36*
X294122Y24264D02*
X294108Y24273D01*
X294091Y24281D01*
X294072Y24288D01*
X294050Y24294D01*
X294026Y24299D01*
X293999Y24304D01*
X293938Y24309D01*
X293866Y24311D01*
X293633Y25492D01*
X293669Y25493D01*
X293703Y25497D01*
X293735Y25504D01*
X293765Y25513D01*
X293794Y25526D01*
X293820Y25540D01*
X293846Y25558D01*
X293869Y25578D01*
X293891Y25600D01*
X293911Y25626D01*
X294122Y24264D01*
D02*
G37*
G36*
X292986Y20669D02*
X292965Y20688D01*
X292943Y20705D01*
X292920Y20719D01*
X292894Y20732D01*
X292867Y20743D01*
X292838Y20752D01*
X292807Y20759D01*
X292775Y20764D01*
X292740Y20767D01*
X292704Y20768D01*
Y21949D01*
X292740Y21950D01*
X292775Y21953D01*
X292807Y21958D01*
X292838Y21965D01*
X292867Y21973D01*
X292894Y21984D01*
X292920Y21997D01*
X292943Y22012D01*
X292965Y22028D01*
X292986Y22047D01*
Y20669D01*
D02*
G37*
G36*
X314789Y23985D02*
X314766Y23965D01*
X314745Y23942D01*
X314726Y23919D01*
X314710Y23893D01*
X314696Y23866D01*
X314685Y23837D01*
X314676Y23806D01*
X314670Y23774D01*
X314667Y23740D01*
X314665Y23704D01*
X313484Y23861D01*
X313484Y23897D01*
X313478Y23964D01*
X313474Y23994D01*
X313468Y24022D01*
X313461Y24048D01*
X313452Y24072D01*
X313442Y24093D01*
X313431Y24112D01*
X313419Y24129D01*
X314789Y23985D01*
D02*
G37*
G36*
X306213Y20071D02*
X306230Y20063D01*
X306249Y20056D01*
X306271Y20050D01*
X306295Y20044D01*
X306322Y20040D01*
X306383Y20034D01*
X306455Y20032D01*
X306688Y18851D01*
X306652Y18850D01*
X306618Y18846D01*
X306586Y18839D01*
X306556Y18830D01*
X306527Y18818D01*
X306501Y18803D01*
X306475Y18786D01*
X306452Y18766D01*
X306430Y18743D01*
X306410Y18718D01*
X306199Y20080D01*
X306213Y20071D01*
D02*
G37*
%LPC*%
G36*
X528164Y187014D02*
X526950D01*
X525777Y186700D01*
X524725Y186092D01*
X523866Y185234D01*
X523259Y184182D01*
X522945Y183009D01*
Y181794D01*
X523259Y180621D01*
X523866Y179569D01*
X524725Y178711D01*
X525777Y178103D01*
X526950Y177789D01*
X528164D01*
X529338Y178103D01*
X530389Y178711D01*
X531248Y179569D01*
X531855Y180621D01*
X532169Y181794D01*
Y183009D01*
X531855Y184182D01*
X531248Y185234D01*
X530389Y186092D01*
X529338Y186700D01*
X528164Y187014D01*
D02*
G37*
G36*
X488164D02*
X486950D01*
X485777Y186700D01*
X484725Y186092D01*
X483866Y185234D01*
X483259Y184182D01*
X482945Y183009D01*
Y181794D01*
X483259Y180621D01*
X483866Y179569D01*
X484725Y178711D01*
X485777Y178103D01*
X486950Y177789D01*
X488164D01*
X489337Y178103D01*
X490389Y178711D01*
X491248Y179569D01*
X491855Y180621D01*
X492170Y181794D01*
Y183009D01*
X491855Y184182D01*
X491248Y185234D01*
X490389Y186092D01*
X489337Y186700D01*
X488164Y187014D01*
D02*
G37*
G36*
X528164Y130715D02*
X526950D01*
X525777Y130401D01*
X524725Y129793D01*
X523866Y128935D01*
X523259Y127883D01*
X522945Y126710D01*
Y125495D01*
X523259Y124322D01*
X523866Y123270D01*
X524725Y122412D01*
X525777Y121804D01*
X526950Y121490D01*
X528164D01*
X529338Y121804D01*
X530389Y122412D01*
X531248Y123270D01*
X531855Y124322D01*
X532169Y125495D01*
Y126710D01*
X531855Y127883D01*
X531248Y128935D01*
X530389Y129793D01*
X529338Y130401D01*
X528164Y130715D01*
D02*
G37*
G36*
Y114416D02*
X526950D01*
X525777Y114101D01*
X524725Y113494D01*
X523866Y112635D01*
X523259Y111583D01*
X522945Y110410D01*
Y109196D01*
X523259Y108023D01*
X523866Y106971D01*
X524725Y106112D01*
X525777Y105505D01*
X526950Y105191D01*
X528164D01*
X529338Y105505D01*
X530389Y106112D01*
X531248Y106971D01*
X531855Y108023D01*
X532169Y109196D01*
Y110410D01*
X531855Y111583D01*
X531248Y112635D01*
X530389Y113494D01*
X529338Y114101D01*
X528164Y114416D01*
D02*
G37*
G36*
X488164D02*
X486950D01*
X485777Y114101D01*
X484725Y113494D01*
X483866Y112635D01*
X483259Y111583D01*
X482945Y110410D01*
Y109196D01*
X483259Y108023D01*
X483866Y106971D01*
X484725Y106112D01*
X485777Y105505D01*
X486950Y105191D01*
X488164D01*
X489337Y105505D01*
X490389Y106112D01*
X491248Y106971D01*
X491855Y108023D01*
X492170Y109196D01*
Y110410D01*
X491855Y111583D01*
X491248Y112635D01*
X490389Y113494D01*
X489337Y114101D01*
X488164Y114416D01*
D02*
G37*
G36*
X528164Y18116D02*
X526950D01*
X525777Y17802D01*
X524725Y17195D01*
X523866Y16336D01*
X523259Y15284D01*
X522945Y14111D01*
Y12897D01*
X523259Y11724D01*
X523866Y10672D01*
X524725Y9813D01*
X525777Y9206D01*
X526950Y8892D01*
X528164D01*
X529338Y9206D01*
X530389Y9813D01*
X531248Y10672D01*
X531855Y11724D01*
X532169Y12897D01*
Y14111D01*
X531855Y15284D01*
X531248Y16336D01*
X530389Y17195D01*
X529338Y17802D01*
X528164Y18116D01*
D02*
G37*
G36*
X488164D02*
X486950D01*
X485777Y17802D01*
X484725Y17195D01*
X483866Y16336D01*
X483259Y15284D01*
X482945Y14111D01*
Y12897D01*
X483259Y11724D01*
X483866Y10672D01*
X484725Y9813D01*
X485777Y9206D01*
X486950Y8892D01*
X488164D01*
X489337Y9206D01*
X490389Y9813D01*
X491248Y10672D01*
X491855Y11724D01*
X492170Y12897D01*
Y14111D01*
X491855Y15284D01*
X491248Y16336D01*
X490389Y17195D01*
X489337Y17802D01*
X488164Y18116D01*
D02*
G37*
%LPD*%
D10*
X95620Y196211D02*
X107284D01*
X114026Y202953D01*
X296555D01*
X313032Y109084D02*
X314498D01*
X315748Y110335D02*
Y114306D01*
X314173Y115881D02*
X315748Y114306D01*
X314498Y109084D02*
X315748Y110335D01*
X306201Y109252D02*
X309646D01*
X312806Y108858D02*
X313032Y109084D01*
X309646Y109252D02*
X313583Y113189D01*
X292077Y111270D02*
X296900D01*
X296949Y111221D01*
X265256Y100295D02*
X310335D01*
X319193Y91437D01*
X172121Y179921D02*
X173302Y181103D01*
X173622D01*
X69291Y179921D02*
X172121D01*
X41823Y287402D02*
X47343Y292921D01*
X5701Y287402D02*
X41823D01*
X7360Y109963D02*
X9646Y107677D01*
X3102Y109963D02*
X7360D01*
X-20641Y129358D02*
X-4866Y113583D01*
X-4724D01*
X2614Y112679D02*
X4852D01*
X4959Y112572D01*
X1784Y107507D02*
X3108Y106183D01*
X-103Y105512D02*
X-28Y105437D01*
X3108Y105864D02*
Y106183D01*
X-11428Y105512D02*
X-103D01*
X1784Y107507D02*
Y107602D01*
X27473Y161614D02*
X29244Y163386D01*
X85236D01*
X52237Y184082D02*
Y184475D01*
Y184082D02*
X55216Y181102D01*
X49484Y187229D02*
X52237Y184475D01*
X197898Y370965D02*
X448622D01*
X195276Y368342D02*
X197898Y370965D01*
X-20283Y261417D02*
X5701Y287402D01*
X-20603Y261417D02*
X-20283D01*
X-23796Y124004D02*
X-7394Y107602D01*
X1784D01*
X-15709Y133228D02*
X2038Y115482D01*
X2924D02*
X3150Y115256D01*
X2038Y115482D02*
X2924D01*
X-18976Y132042D02*
Y163577D01*
Y132042D02*
X3102Y109963D01*
X-17402Y132694D02*
Y164230D01*
Y132694D02*
X2614Y112679D01*
X-15709Y133228D02*
Y164764D01*
X100000Y374606D02*
X113583Y388189D01*
X113072Y384010D02*
X113892Y384831D01*
X457362Y383256D02*
X473080Y367537D01*
X112841Y384010D02*
X113072D01*
X458432Y384831D02*
X490998Y352264D01*
X115619Y383256D02*
X457362D01*
X113892Y384831D02*
X458432D01*
X114470Y382106D02*
X115619Y383256D01*
X113583Y388189D02*
X462900D01*
X114470Y381787D02*
Y382106D01*
X91043Y372008D02*
X109193Y390158D01*
X95866Y121358D02*
X285728D01*
X292126Y114961D01*
X452134Y377421D02*
X472272Y357283D01*
X472363Y360255D02*
Y361304D01*
Y360255D02*
X472582Y360036D01*
X472272Y357283D02*
X472441D01*
X453155Y380512D02*
X472363Y361304D01*
X122303Y377421D02*
X452134D01*
X479943Y346672D02*
X480169Y346446D01*
X449902Y374410D02*
X477639Y346672D01*
X479943D01*
X488994Y362095D02*
X490254Y360836D01*
X475878Y375073D02*
Y375212D01*
X488855Y362095D02*
X488994D01*
X475878Y375073D02*
X488855Y362095D01*
X109193Y390158D02*
X463994D01*
X462900Y388189D02*
X475878Y375212D01*
X463994Y390158D02*
X490609Y363542D01*
X490254Y360809D02*
Y360836D01*
X473080Y367263D02*
X490885Y349459D01*
X473080Y367263D02*
Y367537D01*
X490998Y352264D02*
X491142D01*
X490885Y349459D02*
X491204D01*
X292126Y114961D02*
X295081D01*
X295278Y114764D01*
X56890Y192323D02*
X69291Y179921D01*
X25017Y95357D02*
X38780Y81595D01*
X25017Y95357D02*
Y99399D01*
X38780Y81595D02*
X110630D01*
X-4259Y109767D02*
X-4232D01*
X-22216Y127724D02*
X-4259Y109767D01*
X-25371Y119455D02*
X-11428Y105512D01*
X-23796Y124004D02*
Y157243D01*
X-25371Y119455D02*
Y146631D01*
X-36732Y157992D02*
X-25371Y146631D01*
X-15154Y187229D02*
X49484D01*
X93701Y198130D02*
X95620Y196211D01*
X87106Y130118D02*
X95866Y121358D01*
X25013Y99403D02*
X25017Y99399D01*
X-35813Y202348D02*
X-27989Y194525D01*
Y164356D02*
Y194525D01*
X-36220Y221417D02*
X-24839Y210036D01*
Y169440D02*
Y210036D01*
X-32283Y232874D02*
X-21575Y222165D01*
Y170630D02*
Y222165D01*
X284154Y119193D02*
X292077Y111270D01*
X101083Y119193D02*
X284154D01*
X110630Y81595D02*
X116929Y87894D01*
X-12500Y192323D02*
X56890D01*
X-18602Y198425D02*
X-12500Y192323D01*
X116929Y87894D02*
X252854D01*
X-17689Y189764D02*
X-15154Y187229D01*
X49061Y220669D02*
X49428Y221037D01*
X26870Y220669D02*
X49061D01*
X-21575Y170630D02*
X-15709Y164764D01*
X252854Y87894D02*
X265256Y100295D01*
X-20641Y129358D02*
Y162975D01*
X-22216Y127724D02*
Y158583D01*
X-23194Y170022D02*
X-17402Y164230D01*
X-26414Y168748D02*
Y205115D01*
X-36496Y215197D02*
X-26414Y205115D01*
X43590Y76128D02*
X46301Y78839D01*
X68110D01*
X-23194Y170022D02*
Y217978D01*
X-24839Y169440D02*
X-18976Y163577D01*
X-26414Y168748D02*
X-20641Y162975D01*
X-38701Y172047D02*
X-38601D01*
X-23796Y157243D01*
X-27989Y164356D02*
X-22216Y158583D01*
X-33268Y228051D02*
X-23194Y217978D01*
X117504Y376477D02*
X121539Y380512D01*
X453155D01*
X118701Y373819D02*
X122303Y377421D01*
X181693Y374410D02*
X449902D01*
X175000Y367717D02*
X181693Y374410D01*
X476194Y343393D02*
X480657D01*
X448622Y370965D02*
X476194Y343393D01*
X91043Y368602D02*
Y372008D01*
D101*
X387894Y366240D02*
D03*
X370472D02*
D03*
X398228D02*
D03*
X382185D02*
D03*
X393012D02*
D03*
X376476D02*
D03*
X307087D02*
D03*
X323622D02*
D03*
X314567D02*
D03*
X331201D02*
D03*
X301083Y366240D02*
D03*
X57480Y372047D02*
D03*
X146850Y371358D02*
D03*
X30118Y178937D02*
D03*
Y199705D02*
D03*
X28543Y327854D02*
D03*
X28445Y316929D02*
D03*
X146949Y358661D02*
D03*
X456437Y190728D02*
D03*
X462716Y106063D02*
D03*
X456595Y212008D02*
D03*
X456732Y178819D02*
D03*
X456811Y106063D02*
D03*
X456693Y217717D02*
D03*
X456811Y123819D02*
D03*
X456791Y112303D02*
D03*
X456732Y172874D02*
D03*
X456811Y117913D02*
D03*
X456693Y229528D02*
D03*
X456732Y184724D02*
D03*
X456693Y223622D02*
D03*
X462638Y184724D02*
D03*
X462598Y217717D02*
D03*
X462638Y172874D02*
D03*
X462598Y223622D02*
D03*
X462716Y123819D02*
D03*
X462638Y190630D02*
D03*
X462785Y111939D02*
D03*
X462598Y229528D02*
D03*
X462638Y178819D02*
D03*
X462697Y117913D02*
D03*
X462894Y212205D02*
D03*
X462756Y46496D02*
D03*
X456850D02*
D03*
Y58307D02*
D03*
Y52402D02*
D03*
Y40551D02*
D03*
X462756Y58307D02*
D03*
Y52402D02*
D03*
Y40551D02*
D03*
D104*
X294291Y60630D02*
X322047Y88386D01*
X334941D01*
X172146Y67126D02*
X288976D01*
X299016Y77165D01*
D105*
X195276Y258465D02*
X196653Y259842D01*
X387992D01*
X447736Y159449D02*
Y159502D01*
Y125383D02*
Y159449D01*
X445276Y210531D02*
Y272717D01*
Y210531D02*
X447342Y208465D01*
Y159896D02*
Y208465D01*
X445276Y272717D02*
X456735Y284177D01*
X447342Y159896D02*
X447736Y159502D01*
X447815Y90906D02*
Y125305D01*
X447736Y125383D02*
X447815Y125305D01*
X447777Y27288D02*
Y90815D01*
X447412Y26923D02*
X447777Y27288D01*
X447412Y26870D02*
Y26923D01*
X376772Y56988D02*
X397342Y77559D01*
X96529Y56988D02*
X376772D01*
X209941Y274075D02*
X308209D01*
X312500Y269783D01*
X162356Y167028D02*
X162652Y166732D01*
X162303Y167028D02*
X162356D01*
X162652Y166732D02*
X298962D01*
X88954Y64564D02*
X96529Y56988D01*
D106*
X21555Y111122D02*
X21654D01*
X35100Y97675D01*
X146518D01*
X27433Y114075D02*
X204823D01*
X-30290Y249126D02*
X-30261Y249155D01*
X-31063Y251772D02*
X-8661D01*
X-30261Y249155D02*
X-10800D01*
X7283Y271555D02*
X301312D01*
X307710Y265158D01*
X312076Y200364D02*
X315304Y203592D01*
X312076Y200348D02*
Y200364D01*
X304823Y200295D02*
X308640D01*
X312942Y204597D01*
X315304Y203592D02*
Y205664D01*
X319761Y172187D02*
X322124Y174549D01*
X2854Y172343D02*
X308135D01*
X308291Y172187D02*
X319761D01*
X308135Y172343D02*
X308291Y172187D01*
X322124Y174336D02*
Y174549D01*
X-5610Y180807D02*
X2854Y172343D01*
X-3740Y185063D02*
X6774Y174549D01*
X317254D01*
X313902Y21631D02*
X314075D01*
Y24653D02*
X314178Y24756D01*
X311611Y23524D02*
X311713D01*
X311464Y19193D02*
X313902Y21631D01*
X314075D02*
Y24653D01*
X311417Y19193D02*
X311464D01*
X307529Y19442D02*
X311611Y23524D01*
X305610Y19291D02*
X305761Y19442D01*
X307529D01*
X310919Y103051D02*
X322244Y91726D01*
Y91535D02*
Y91726D01*
X263583Y103051D02*
X310919D01*
X146518Y97675D02*
X146653Y97539D01*
X258071D01*
X263583Y103051D01*
X357086Y247342D02*
X365734Y255990D01*
X241861Y239862D02*
X249341Y247342D01*
X357086D01*
X159153Y239862D02*
X241861D01*
X220796Y262795D02*
X320015D01*
X320061Y262842D01*
X307710Y265158D02*
X319037D01*
X320591Y262842D02*
X320742Y262992D01*
X216071Y267520D02*
X220796Y262795D01*
X365734Y255990D02*
X390848D01*
X322343Y276772D02*
X327264Y271850D01*
X193012Y276772D02*
X322343D01*
X312942Y204597D02*
Y204679D01*
X313681Y207287D02*
Y207382D01*
Y207287D02*
X315304Y205664D01*
X105549Y209828D02*
X296210D01*
X-2638Y251575D02*
X78515D01*
X-7579Y256516D02*
X-2638Y251575D01*
X-7579Y256516D02*
Y256693D01*
X286909Y123622D02*
X293406Y117126D01*
X105152Y123622D02*
X286909D01*
X101810Y126965D02*
X105152Y123622D01*
X293406Y117126D02*
X296949D01*
X294560Y24902D02*
X294711Y25052D01*
X211417Y24902D02*
X294560D01*
X-5217Y259055D02*
X7283Y271555D01*
X-10800Y249155D02*
X-10772Y249184D01*
X-11943Y153451D02*
X27433Y114075D01*
X192963Y276821D02*
X193012Y276772D01*
X60187Y276821D02*
X192963D01*
X60138Y276870D02*
X60187Y276821D01*
X101597Y213779D02*
X105549Y209828D01*
X100984Y42224D02*
X111024Y32185D01*
X288091D01*
X76870Y207261D02*
X295407D01*
X296117Y206550D01*
X296437D01*
X288091Y32185D02*
X292621Y27655D01*
X206988Y21358D02*
X293688D01*
X201378Y26969D02*
X206988Y21358D01*
X208366Y27953D02*
X211417Y24902D01*
X6945Y227067D02*
X19094D01*
X19193Y227165D01*
X-23087Y227067D02*
X6945D01*
X-34882Y238862D02*
X-23087Y227067D01*
X94460Y267520D02*
X216071D01*
X78515Y251575D02*
X94460Y267520D01*
X-8661Y251772D02*
X-5315Y248425D01*
X-15751Y207281D02*
X76614D01*
X-18307Y204724D02*
X-15751Y207281D01*
X-18504Y204724D02*
X-18307D01*
X91634Y7874D02*
X450118D01*
X83169Y16339D02*
X91634Y7874D01*
X450118D02*
X460669Y18425D01*
D110*
X502518Y89803D02*
D03*
Y33504D02*
D03*
Y146102D02*
D03*
Y202402D02*
D03*
D114*
X541890Y374016D02*
D03*
Y324016D02*
D03*
Y355709D02*
D03*
Y305709D02*
D03*
D115*
X21555Y111122D02*
D03*
X483172Y319423D02*
D03*
X479137Y323754D02*
D03*
X475200Y327100D02*
D03*
X472149Y343439D02*
D03*
X195276Y258465D02*
D03*
X428516Y202953D02*
D03*
X320965Y27854D02*
D03*
X445250Y212065D02*
D03*
X447736Y159449D02*
D03*
X447815Y90906D02*
D03*
X423848Y74833D02*
D03*
X397342Y77559D02*
D03*
X426870Y143012D02*
D03*
X-30290Y249126D02*
D03*
X-31063Y251772D02*
D03*
X320768Y208563D02*
D03*
X312076Y200348D02*
D03*
X304823Y200295D02*
D03*
X296555Y202953D02*
D03*
X303248Y169882D02*
D03*
X322124Y174549D02*
D03*
X317254D02*
D03*
X312806Y108858D02*
D03*
X314173Y115881D02*
D03*
X313583Y113189D02*
D03*
X311417Y19193D02*
D03*
X311713Y23524D02*
D03*
X314178Y24756D02*
D03*
X305610Y19291D02*
D03*
X296949Y111221D02*
D03*
X320602Y113878D02*
D03*
X334941Y88386D02*
D03*
X322244Y91535D02*
D03*
X319193Y91437D02*
D03*
X32160Y48265D02*
D03*
X173622Y181103D02*
D03*
X47343Y292921D02*
D03*
X9646Y107677D02*
D03*
X-4724Y113583D02*
D03*
X4959Y112572D02*
D03*
X3108Y105864D02*
D03*
X-28Y105437D02*
D03*
X387992Y259842D02*
D03*
X159153Y239862D02*
D03*
X319037Y265158D02*
D03*
X320742Y262992D02*
D03*
X390848Y255990D02*
D03*
X327264Y271850D02*
D03*
Y284449D02*
D03*
X447412Y26870D02*
D03*
X403346Y215453D02*
D03*
X312942Y204679D02*
D03*
X85236Y163386D02*
D03*
X55216Y181102D02*
D03*
X39370Y181791D02*
D03*
X312500Y269783D02*
D03*
X50886Y314961D02*
D03*
X124116Y343408D02*
D03*
X195276Y368342D02*
D03*
X192588Y368953D02*
D03*
X296210Y209828D02*
D03*
X-20603Y261417D02*
D03*
X-7579Y256693D02*
D03*
X100000Y374606D02*
D03*
X118405Y381090D02*
D03*
X99945Y377614D02*
D03*
X112841Y384010D02*
D03*
X114470Y381787D02*
D03*
X39272Y100591D02*
D03*
X162303Y167028D02*
D03*
X472441Y357283D02*
D03*
X472582Y360036D02*
D03*
X480169Y346446D02*
D03*
X490254Y360809D02*
D03*
X490609Y363542D02*
D03*
X491204Y349459D02*
D03*
X491142Y352264D02*
D03*
X480657Y343393D02*
D03*
X295278Y114764D02*
D03*
X296949Y117126D02*
D03*
X294711Y25052D02*
D03*
X313681Y207382D02*
D03*
X154626Y182087D02*
D03*
X30906Y347342D02*
D03*
X26870Y220669D02*
D03*
X-5217Y259055D02*
D03*
X3150Y115256D02*
D03*
X-4232Y109767D02*
D03*
X-3740Y185063D02*
D03*
X87701Y200454D02*
D03*
X93701Y198130D02*
D03*
X101083Y119193D02*
D03*
X294291Y60630D02*
D03*
X25013Y99403D02*
D03*
X60138Y276870D02*
D03*
X185335Y371752D02*
D03*
X180807Y365354D02*
D03*
X93307Y369980D02*
D03*
X452656Y297429D02*
D03*
X174508Y370866D02*
D03*
X114665Y378642D02*
D03*
X40630Y379567D02*
D03*
X30847D02*
D03*
X21063D02*
D03*
X205020Y200197D02*
D03*
X193012Y276772D02*
D03*
X209941Y274075D02*
D03*
X78740Y312500D02*
D03*
X101575Y213779D02*
D03*
X101810Y126965D02*
D03*
X100984Y42224D02*
D03*
X204823Y114075D02*
D03*
X39272Y111516D02*
D03*
X172146Y67126D02*
D03*
X306201Y109252D02*
D03*
X293688Y21358D02*
D03*
X201378Y26969D02*
D03*
X208366Y27953D02*
D03*
X292621Y27655D02*
D03*
X49428Y221037D02*
D03*
X27473Y161614D02*
D03*
X19193Y227165D02*
D03*
X-10772Y249184D02*
D03*
X-5610Y180807D02*
D03*
X-5315Y248425D02*
D03*
X-11943Y153451D02*
D03*
X304017Y83206D02*
D03*
X-32283Y232874D02*
D03*
X299016Y77165D02*
D03*
X299016Y166732D02*
D03*
X30709Y118602D02*
D03*
X87106Y130118D02*
D03*
X76870Y207261D02*
D03*
X296437Y206550D02*
D03*
X-18504Y204724D02*
D03*
X83169Y16339D02*
D03*
X182780Y345480D02*
D03*
X30512Y128937D02*
D03*
X38878Y15551D02*
D03*
X38976Y28839D02*
D03*
X456735Y284177D02*
D03*
X434350Y332835D02*
D03*
X136221Y350590D02*
D03*
X30807Y157776D02*
D03*
X32579Y95768D02*
D03*
X9685Y241339D02*
D03*
Y238189D02*
D03*
Y244488D02*
D03*
X2835Y127598D02*
D03*
X27677Y321886D02*
D03*
X178543Y192717D02*
D03*
X9941Y159350D02*
D03*
X30299Y295629D02*
D03*
X36752Y198917D02*
D03*
Y203740D02*
D03*
X12539Y238189D02*
D03*
Y241339D02*
D03*
Y244488D02*
D03*
X30807Y146063D02*
D03*
X30610Y121850D02*
D03*
X59252Y203150D02*
D03*
X36555Y209646D02*
D03*
X18642Y232776D02*
D03*
X30807Y150886D02*
D03*
X31988Y51673D02*
D03*
X39075Y64102D02*
D03*
X30906Y166535D02*
D03*
X91000Y368289D02*
D03*
X43590Y76128D02*
D03*
X68110Y78839D02*
D03*
X-17689Y189764D02*
D03*
X-33268Y228051D02*
D03*
X-18602Y198425D02*
D03*
X-34882Y238937D02*
D03*
X402192Y23859D02*
D03*
X117504Y376477D02*
D03*
X118701Y373819D02*
D03*
X220866Y342705D02*
D03*
X-36220Y221417D02*
D03*
X175000Y367717D02*
D03*
X88954Y64564D02*
D03*
X-36732Y157992D02*
D03*
X403483Y95884D02*
D03*
X402756Y162992D02*
D03*
X-38701Y172047D02*
D03*
X460669Y18425D02*
D03*
X-35827Y202362D02*
D03*
X-36496Y215197D02*
D03*
M02*
