G04*
G04 #@! TF.GenerationSoftware,Altium Limited,Altium Designer,24.9.1 (31)*
G04*
G04 Layer_Color=16711935*
%FSLAX25Y25*%
%MOIN*%
G70*
G04*
G04 #@! TF.SameCoordinates,750FAD7C-2C45-4948-A75F-6248DA3FEDE9*
G04*
G04*
G04 #@! TF.FilePolarity,Negative*
G04*
G01*
G75*
%ADD58R,0.03556X0.04343*%
%ADD61R,0.04343X0.03556*%
%ADD62R,0.04147X0.04540*%
%ADD63R,0.05918X0.11430*%
%ADD75R,0.11430X0.05918*%
%ADD77R,0.04737X0.04737*%
%ADD78R,0.04540X0.04147*%
%ADD79C,0.04737*%
%ADD82R,0.06902X0.06115*%
%ADD85R,0.04737X0.04737*%
%ADD89R,0.12808X0.03202*%
%ADD90R,0.05524X0.03162*%
%ADD91R,0.11417X0.02559*%
%ADD93C,0.22453*%
%ADD94C,0.08450*%
%ADD95C,0.14087*%
%ADD96C,0.06706*%
%ADD97R,0.06706X0.06706*%
%ADD98R,0.07591X0.07591*%
%ADD99C,0.13398*%
%ADD100C,0.02769*%
%ADD121R,0.02965X0.04934*%
%ADD122R,0.07690X0.03162*%
%ADD123R,0.03162X0.07690*%
%ADD124R,0.05328X0.06115*%
%ADD125R,0.06115X0.06902*%
G36*
X549600Y301933D02*
X549651Y301923D01*
X549701Y301906D01*
X549748Y301883D01*
X549791Y301853D01*
X549831Y301819D01*
X549865Y301779D01*
X549894Y301736D01*
X549918Y301689D01*
X549934Y301639D01*
X549945Y301588D01*
X549948Y301535D01*
Y291693D01*
X549945Y291641D01*
X549934Y291589D01*
X549918Y291540D01*
X549894Y291493D01*
X549865Y291449D01*
X549831Y291409D01*
X549791Y291375D01*
X549748Y291346D01*
X549701Y291323D01*
X549651Y291306D01*
X549600Y291296D01*
X549547Y291292D01*
X534232D01*
X534180Y291296D01*
X534129Y291306D01*
X534079Y291323D01*
X534032Y291346D01*
X533988Y291375D01*
X533949Y291409D01*
X533914Y291449D01*
X533885Y291493D01*
X533862Y291540D01*
X533845Y291589D01*
X533835Y291641D01*
X533831Y291693D01*
Y301535D01*
X533835Y301588D01*
X533845Y301639D01*
X533862Y301689D01*
X533885Y301736D01*
X533914Y301779D01*
X533949Y301819D01*
X533988Y301853D01*
X534032Y301883D01*
X534079Y301906D01*
X534129Y301923D01*
X534180Y301933D01*
X534232Y301936D01*
X536647D01*
X536659Y301936D01*
X536670Y301936D01*
X536685Y301934D01*
X536699Y301933D01*
X536711Y301931D01*
X536722Y301929D01*
X536736Y301926D01*
X536751Y301923D01*
X536762Y301919D01*
X536773Y301916D01*
X536786Y301911D01*
X536801Y301906D01*
X536811Y301901D01*
X536821Y301896D01*
X536834Y301889D01*
X536848Y301883D01*
X536857Y301876D01*
X536867Y301871D01*
X536879Y301862D01*
X536891Y301853D01*
X536900Y301846D01*
X536909Y301839D01*
X536919Y301829D01*
X536931Y301819D01*
X536931Y301819D01*
X536938Y301810D01*
X536946Y301802D01*
X537425Y301266D01*
X538536Y300378D01*
X539808Y299766D01*
X541184Y299451D01*
X542595D01*
X543971Y299766D01*
X545243Y300378D01*
X546355Y301266D01*
X546833Y301802D01*
X546841Y301810D01*
X546848Y301819D01*
X546860Y301829D01*
X546870Y301839D01*
X546879Y301846D01*
X546888Y301853D01*
X546900Y301862D01*
X546912Y301871D01*
X546922Y301876D01*
X546932Y301883D01*
X546945Y301889D01*
X546958Y301896D01*
X546968Y301901D01*
X546979Y301906D01*
X546993Y301911D01*
X547006Y301916D01*
X547017Y301919D01*
X547028Y301923D01*
X547043Y301925D01*
X547057Y301929D01*
X547068Y301931D01*
X547080Y301933D01*
X547094Y301934D01*
X547109Y301936D01*
X547121Y301936D01*
X547132Y301936D01*
X549547Y301936D01*
X549600Y301933D01*
D02*
G37*
G36*
Y370122D02*
X549651Y370112D01*
X549701Y370095D01*
X549748Y370072D01*
X549791Y370042D01*
X549831Y370008D01*
X549865Y369968D01*
X549894Y369925D01*
X549918Y369878D01*
X549934Y369828D01*
X549945Y369777D01*
X549948Y369724D01*
Y359882D01*
X549945Y359830D01*
X549934Y359778D01*
X549918Y359729D01*
X549894Y359681D01*
X549865Y359638D01*
X549831Y359598D01*
X549791Y359564D01*
X549748Y359535D01*
X549701Y359511D01*
X549651Y359495D01*
X549600Y359485D01*
X549547Y359481D01*
X547132D01*
X547121Y359482D01*
X547109Y359482D01*
X547094Y359484D01*
X547080Y359485D01*
X547068Y359487D01*
X547057Y359488D01*
X547043Y359492D01*
X547028Y359495D01*
X547017Y359498D01*
X547006Y359501D01*
X546993Y359507D01*
X546979Y359511D01*
X546968Y359517D01*
X546958Y359521D01*
X546945Y359528D01*
X546932Y359535D01*
X546922Y359541D01*
X546912Y359547D01*
X546900Y359556D01*
X546888Y359564D01*
X546879Y359571D01*
X546870Y359578D01*
X546860Y359589D01*
X546848Y359598D01*
X546841Y359607D01*
X546833Y359615D01*
X546355Y360151D01*
X545243Y361039D01*
X543971Y361652D01*
X542595Y361966D01*
X541184D01*
X539808Y361652D01*
X538536Y361039D01*
X537425Y360151D01*
X536946Y359615D01*
X536938Y359607D01*
X536931Y359598D01*
X536919Y359589D01*
X536909Y359578D01*
X536900Y359571D01*
X536891Y359564D01*
X536879Y359556D01*
X536867Y359547D01*
X536857Y359541D01*
X536848Y359535D01*
X536834Y359528D01*
X536821Y359521D01*
X536811Y359517D01*
X536801Y359511D01*
X536786Y359507D01*
X536773Y359501D01*
X536762Y359498D01*
X536751Y359495D01*
X536736Y359492D01*
X536722Y359488D01*
X536711Y359487D01*
X536699Y359485D01*
X536685Y359484D01*
X536670Y359482D01*
X536659Y359482D01*
X536647Y359481D01*
X534232D01*
X534180Y359485D01*
X534129Y359495D01*
X534079Y359511D01*
X534032Y359535D01*
X533988Y359564D01*
X533949Y359598D01*
X533914Y359638D01*
X533885Y359681D01*
X533862Y359729D01*
X533845Y359778D01*
X533835Y359830D01*
X533831Y359882D01*
Y369724D01*
X533835Y369777D01*
X533845Y369828D01*
X533862Y369878D01*
X533885Y369925D01*
X533914Y369968D01*
X533949Y370008D01*
X533988Y370042D01*
X534032Y370072D01*
X534079Y370095D01*
X534129Y370112D01*
X534180Y370122D01*
X534232Y370125D01*
X549547D01*
X549600Y370122D01*
D02*
G37*
D58*
X67126Y199016D02*
D03*
X61614D02*
D03*
X163878Y266240D02*
D03*
X158366D02*
D03*
X447146Y205512D02*
D03*
X441634D02*
D03*
X447154Y139953D02*
D03*
X441642D02*
D03*
X433571Y165157D02*
D03*
X428059D02*
D03*
X434646Y323032D02*
D03*
X440157D02*
D03*
X434744Y296662D02*
D03*
X440256D02*
D03*
X446949Y70776D02*
D03*
X441437D02*
D03*
X156201Y199016D02*
D03*
X161713D02*
D03*
X58957Y308760D02*
D03*
X53445D02*
D03*
X73054Y363268D02*
D03*
X67542D02*
D03*
X166673Y363268D02*
D03*
X161162D02*
D03*
X209193Y363268D02*
D03*
X203681D02*
D03*
X29331Y70275D02*
D03*
X34843D02*
D03*
X428051Y198547D02*
D03*
X433563D02*
D03*
X35433Y112205D02*
D03*
X29921D02*
D03*
X70571Y111221D02*
D03*
X76083D02*
D03*
X428059Y96941D02*
D03*
X433571D02*
D03*
X428051Y131398D02*
D03*
X433563D02*
D03*
X428051Y65939D02*
D03*
X433563D02*
D03*
X427067Y31890D02*
D03*
X432579D02*
D03*
D61*
X35703Y52848D02*
D03*
Y47337D02*
D03*
X411614Y312894D02*
D03*
Y307382D02*
D03*
X461910Y307382D02*
D03*
Y312894D02*
D03*
X453543Y289469D02*
D03*
Y294980D02*
D03*
X413386Y98032D02*
D03*
Y92520D02*
D03*
X166831Y176969D02*
D03*
Y182480D02*
D03*
X71752Y176969D02*
D03*
Y182480D02*
D03*
X63484Y285728D02*
D03*
Y291240D02*
D03*
X78344Y345866D02*
D03*
Y340354D02*
D03*
X112916Y344630D02*
D03*
Y339118D02*
D03*
X114097Y355457D02*
D03*
Y349945D02*
D03*
X167126Y340354D02*
D03*
Y345866D02*
D03*
X202382Y340591D02*
D03*
Y346102D02*
D03*
X70374Y48228D02*
D03*
Y53740D02*
D03*
X70571Y58268D02*
D03*
Y63780D02*
D03*
X417421Y198720D02*
D03*
Y204232D02*
D03*
X413386Y163878D02*
D03*
Y158366D02*
D03*
X71161Y92224D02*
D03*
Y86712D02*
D03*
X35335Y92126D02*
D03*
Y86614D02*
D03*
X417421Y131791D02*
D03*
Y137303D02*
D03*
X413386Y30187D02*
D03*
Y24675D02*
D03*
X417028Y65551D02*
D03*
Y71063D02*
D03*
D62*
X442717Y30807D02*
D03*
X437598D02*
D03*
X183760Y182283D02*
D03*
X178642D02*
D03*
X83760Y182283D02*
D03*
X88878D02*
D03*
X81004Y290846D02*
D03*
X75886D02*
D03*
X72759Y351102D02*
D03*
X67641D02*
D03*
X67641Y357717D02*
D03*
X72759D02*
D03*
X77648Y333150D02*
D03*
X72529D02*
D03*
X77483Y326496D02*
D03*
X72365D02*
D03*
X85653Y356244D02*
D03*
X90771D02*
D03*
X105535Y356343D02*
D03*
X100416D02*
D03*
X161358Y351102D02*
D03*
X166476D02*
D03*
X166476Y357717D02*
D03*
X161358D02*
D03*
X167146Y326496D02*
D03*
X162028D02*
D03*
X162028Y333150D02*
D03*
X167146D02*
D03*
X203878Y357717D02*
D03*
X208996D02*
D03*
X203878Y351103D02*
D03*
X208996D02*
D03*
X34350Y58071D02*
D03*
X29232D02*
D03*
X29331Y64665D02*
D03*
X34449D02*
D03*
X418209Y171752D02*
D03*
X413091D02*
D03*
X418012Y191634D02*
D03*
X412894D02*
D03*
X443898Y164960D02*
D03*
X438780D02*
D03*
X75787Y105610D02*
D03*
X70669D02*
D03*
X70965Y98917D02*
D03*
X76083D02*
D03*
X35138Y106496D02*
D03*
X30020D02*
D03*
X29921Y99901D02*
D03*
X35039D02*
D03*
X418209Y104626D02*
D03*
X413091D02*
D03*
X443898Y96851D02*
D03*
X438779D02*
D03*
X418012Y124705D02*
D03*
X412894D02*
D03*
X522086Y377953D02*
D03*
X527205D02*
D03*
X418701Y38652D02*
D03*
X413583D02*
D03*
X418012Y58632D02*
D03*
X412894D02*
D03*
D63*
X472933Y277067D02*
D03*
X461909D02*
D03*
Y251575D02*
D03*
X472933D02*
D03*
X461909Y264567D02*
D03*
X472933D02*
D03*
D75*
X174213D02*
D03*
Y253543D02*
D03*
D77*
X77067Y91240D02*
D03*
Y85335D02*
D03*
D78*
X447638Y294586D02*
D03*
Y289469D02*
D03*
X456398Y312697D02*
D03*
Y307579D02*
D03*
X427067Y294587D02*
D03*
Y289469D02*
D03*
X421752Y65649D02*
D03*
Y70768D02*
D03*
X139764Y197933D02*
D03*
Y203051D02*
D03*
X418287Y307579D02*
D03*
Y312697D02*
D03*
X427343Y325020D02*
D03*
Y330138D02*
D03*
X447343Y325020D02*
D03*
Y330138D02*
D03*
X224706Y335567D02*
D03*
Y330449D02*
D03*
X76181Y58563D02*
D03*
Y63681D02*
D03*
X89665Y30709D02*
D03*
Y35827D02*
D03*
X174114Y198327D02*
D03*
Y193209D02*
D03*
X172539Y182382D02*
D03*
Y177264D02*
D03*
X149508Y197638D02*
D03*
Y202756D02*
D03*
X75984Y196252D02*
D03*
Y191134D02*
D03*
X77362Y182382D02*
D03*
Y177264D02*
D03*
X48614Y202748D02*
D03*
Y197630D02*
D03*
X55610Y197638D02*
D03*
Y202756D02*
D03*
X66437Y303051D02*
D03*
Y308169D02*
D03*
X69488Y285925D02*
D03*
Y291043D02*
D03*
X40248Y309736D02*
D03*
Y314854D02*
D03*
X47244Y314862D02*
D03*
Y309744D02*
D03*
X126302Y349847D02*
D03*
Y354965D02*
D03*
X119708Y355063D02*
D03*
Y349945D02*
D03*
X124531Y329177D02*
D03*
Y324059D02*
D03*
X131125Y324256D02*
D03*
Y329374D02*
D03*
X174862Y363189D02*
D03*
Y358071D02*
D03*
X194981Y363189D02*
D03*
Y358071D02*
D03*
X224213Y351181D02*
D03*
Y356299D02*
D03*
X82973Y36024D02*
D03*
Y30906D02*
D03*
X28642Y42323D02*
D03*
Y37205D02*
D03*
X35138Y42224D02*
D03*
Y37106D02*
D03*
X82775Y58464D02*
D03*
Y63583D02*
D03*
X43012Y66634D02*
D03*
Y71752D02*
D03*
X63091Y66437D02*
D03*
Y71555D02*
D03*
X418110Y158858D02*
D03*
Y163976D02*
D03*
X422342Y203937D02*
D03*
Y198819D02*
D03*
X446457Y196457D02*
D03*
Y191339D02*
D03*
X43307Y102953D02*
D03*
Y108071D02*
D03*
X62795Y102953D02*
D03*
Y108071D02*
D03*
X35236Y75787D02*
D03*
Y80905D02*
D03*
X28740Y80906D02*
D03*
Y75788D02*
D03*
X88878Y70374D02*
D03*
Y75492D02*
D03*
X95374Y75492D02*
D03*
Y70374D02*
D03*
X446850Y58760D02*
D03*
Y63878D02*
D03*
X446457Y130027D02*
D03*
Y124909D02*
D03*
X418111Y92815D02*
D03*
Y97933D02*
D03*
X422343Y137205D02*
D03*
Y132086D02*
D03*
X418110Y24971D02*
D03*
Y30089D02*
D03*
D79*
X49508Y329528D02*
D03*
D82*
X115869Y329177D02*
D03*
Y321303D02*
D03*
X217126Y359154D02*
D03*
Y351279D02*
D03*
D85*
X61910Y204528D02*
D03*
X67815D02*
D03*
X440374Y328602D02*
D03*
X434469D02*
D03*
X162106Y204528D02*
D03*
X156201D02*
D03*
X59646Y314666D02*
D03*
X53740D02*
D03*
X118428Y339020D02*
D03*
X124334D02*
D03*
X208288Y340551D02*
D03*
X214193D02*
D03*
X75886Y48425D02*
D03*
X81791D02*
D03*
X435433Y206693D02*
D03*
X429528D02*
D03*
X427756Y74803D02*
D03*
X433662D02*
D03*
X427461Y138779D02*
D03*
X433366D02*
D03*
D89*
X502598Y316653D02*
D03*
Y320669D02*
D03*
Y344764D02*
D03*
Y340748D02*
D03*
Y336732D02*
D03*
Y332716D02*
D03*
Y328701D02*
D03*
Y324685D02*
D03*
D90*
X163681Y253346D02*
D03*
Y260827D02*
D03*
X153839D02*
D03*
Y257087D02*
D03*
Y253346D02*
D03*
D91*
X-48976Y280280D02*
D03*
Y277130D02*
D03*
Y273980D02*
D03*
Y270831D02*
D03*
Y267681D02*
D03*
Y264531D02*
D03*
Y261382D02*
D03*
Y258232D02*
D03*
Y255083D02*
D03*
Y251933D02*
D03*
Y248783D02*
D03*
Y245634D02*
D03*
Y242484D02*
D03*
Y239335D02*
D03*
Y236185D02*
D03*
Y233035D02*
D03*
Y229886D02*
D03*
Y226736D02*
D03*
Y223587D02*
D03*
Y220437D02*
D03*
Y217287D02*
D03*
Y214138D02*
D03*
Y210988D02*
D03*
Y207839D02*
D03*
Y204689D02*
D03*
Y201539D02*
D03*
Y198390D02*
D03*
Y182642D02*
D03*
Y179492D02*
D03*
Y176343D02*
D03*
Y173193D02*
D03*
Y170043D02*
D03*
Y166894D02*
D03*
Y163744D02*
D03*
Y160594D02*
D03*
Y157445D02*
D03*
Y154295D02*
D03*
Y151146D02*
D03*
Y147996D02*
D03*
Y144846D02*
D03*
Y141697D02*
D03*
Y138547D02*
D03*
Y135398D02*
D03*
Y132248D02*
D03*
Y129098D02*
D03*
Y125949D02*
D03*
Y122799D02*
D03*
Y119650D02*
D03*
Y116500D02*
D03*
Y113350D02*
D03*
D93*
X279528Y87795D02*
D03*
X377953D02*
D03*
X279528Y300394D02*
D03*
X377953D02*
D03*
D94*
X527557Y109803D02*
D03*
X487557D02*
D03*
Y69803D02*
D03*
X527557D02*
D03*
Y53504D02*
D03*
X487557D02*
D03*
Y13504D02*
D03*
X527557D02*
D03*
Y126102D02*
D03*
X487557D02*
D03*
Y166102D02*
D03*
X527557D02*
D03*
Y238701D02*
D03*
X487557D02*
D03*
Y278701D02*
D03*
X527557D02*
D03*
Y222402D02*
D03*
X487557D02*
D03*
Y182402D02*
D03*
X527557D02*
D03*
D95*
X502518Y89803D02*
D03*
Y33504D02*
D03*
Y146102D02*
D03*
Y258701D02*
D03*
Y202402D02*
D03*
D96*
X19213Y24291D02*
D03*
Y34291D02*
D03*
Y44291D02*
D03*
Y54291D02*
D03*
Y64291D02*
D03*
Y74291D02*
D03*
Y84291D02*
D03*
D97*
Y94291D02*
D03*
D98*
X99685Y200787D02*
D03*
X99685Y87598D02*
D03*
X99213Y321654D02*
D03*
D99*
X541890Y374016D02*
D03*
Y324016D02*
D03*
Y355709D02*
D03*
Y305709D02*
D03*
D100*
X313189Y135236D02*
D03*
X310925D02*
D03*
X306299Y131398D02*
D03*
Y129134D02*
D03*
X306299Y133661D02*
D03*
Y126772D02*
D03*
X313681Y125197D02*
D03*
X306299Y122933D02*
D03*
X318504D02*
D03*
X316240D02*
D03*
X313976Y122835D02*
D03*
X311516D02*
D03*
X308760D02*
D03*
X311324Y125117D02*
D03*
X308957Y125098D02*
D03*
X316035Y125188D02*
D03*
X318406Y125295D02*
D03*
Y127756D02*
D03*
X318307Y130315D02*
D03*
Y132874D02*
D03*
X318209Y135236D02*
D03*
X315846D02*
D03*
X318209Y137598D02*
D03*
X315945D02*
D03*
X313386Y137500D02*
D03*
X311122D02*
D03*
X308563Y135236D02*
D03*
X308760Y137500D02*
D03*
X306398D02*
D03*
X312795Y227559D02*
D03*
X310531D02*
D03*
X305906Y223721D02*
D03*
Y221457D02*
D03*
X305906Y225984D02*
D03*
Y219094D02*
D03*
X313287Y217520D02*
D03*
X305906Y215256D02*
D03*
X318110D02*
D03*
X315846D02*
D03*
X313583Y215158D02*
D03*
X311122D02*
D03*
X308366D02*
D03*
X310930Y217440D02*
D03*
X308563Y217421D02*
D03*
X315641Y217510D02*
D03*
X318012Y217618D02*
D03*
Y220079D02*
D03*
X317913Y222638D02*
D03*
Y225197D02*
D03*
X317815Y227559D02*
D03*
X315453D02*
D03*
X317815Y229921D02*
D03*
X315551D02*
D03*
X312992Y229823D02*
D03*
X310728D02*
D03*
X308169Y227559D02*
D03*
X308366Y229823D02*
D03*
X306004D02*
D03*
X306496Y47835D02*
D03*
X308858D02*
D03*
X308661Y45571D02*
D03*
X311221Y47835D02*
D03*
X313484D02*
D03*
X316043Y47933D02*
D03*
X318307D02*
D03*
X315945Y45571D02*
D03*
X318307D02*
D03*
X318406Y43209D02*
D03*
Y40650D02*
D03*
X318504Y38091D02*
D03*
Y35630D02*
D03*
X316134Y35522D02*
D03*
X309055Y35433D02*
D03*
X311422Y35452D02*
D03*
X308858Y33169D02*
D03*
X311614D02*
D03*
X314075D02*
D03*
X316339Y33268D02*
D03*
X318602D02*
D03*
X306398D02*
D03*
X313779Y35531D02*
D03*
X306398Y37106D02*
D03*
Y43996D02*
D03*
X306398Y39469D02*
D03*
Y41732D02*
D03*
X311024Y45571D02*
D03*
X313287D02*
D03*
X345768Y37008D02*
D03*
Y34744D02*
D03*
X349606Y30118D02*
D03*
X351870D02*
D03*
X347342Y30118D02*
D03*
X354232D02*
D03*
X355807Y37500D02*
D03*
X358071Y30118D02*
D03*
Y42323D02*
D03*
Y40059D02*
D03*
X358169Y37795D02*
D03*
Y35335D02*
D03*
Y32579D02*
D03*
X355887Y35143D02*
D03*
X355906Y32776D02*
D03*
X355816Y39854D02*
D03*
X355709Y42224D02*
D03*
X353248D02*
D03*
X350689Y42126D02*
D03*
X348130D02*
D03*
X345768Y42028D02*
D03*
Y39665D02*
D03*
X343406Y42028D02*
D03*
Y39764D02*
D03*
X343504Y37205D02*
D03*
Y34941D02*
D03*
X345768Y32382D02*
D03*
X343504Y32579D02*
D03*
Y30217D02*
D03*
X345768Y128642D02*
D03*
Y126378D02*
D03*
X349606Y121752D02*
D03*
X351870D02*
D03*
X347342Y121752D02*
D03*
X354232D02*
D03*
X355807Y129134D02*
D03*
X358071Y121752D02*
D03*
Y133957D02*
D03*
Y131693D02*
D03*
X358169Y129429D02*
D03*
Y126969D02*
D03*
Y124213D02*
D03*
X355887Y126777D02*
D03*
X355906Y124409D02*
D03*
X355816Y131488D02*
D03*
X355709Y133858D02*
D03*
X353248D02*
D03*
X350689Y133760D02*
D03*
X348130D02*
D03*
X345768Y133661D02*
D03*
Y131299D02*
D03*
X343406Y133661D02*
D03*
Y131398D02*
D03*
X343504Y128839D02*
D03*
Y126575D02*
D03*
X345768Y124016D02*
D03*
X343504Y124213D02*
D03*
Y121850D02*
D03*
X343602Y212205D02*
D03*
Y214567D02*
D03*
X345866Y214370D02*
D03*
X343602Y216929D02*
D03*
Y219193D02*
D03*
X343504Y221752D02*
D03*
Y224016D02*
D03*
X345866Y221654D02*
D03*
Y224016D02*
D03*
X348228Y224114D02*
D03*
X350787D02*
D03*
X353346Y224213D02*
D03*
X355807D02*
D03*
X355915Y221842D02*
D03*
X356004Y214764D02*
D03*
X355985Y217131D02*
D03*
X358268Y214567D02*
D03*
Y217323D02*
D03*
Y219783D02*
D03*
X358169Y222047D02*
D03*
Y224311D02*
D03*
Y212106D02*
D03*
X355906Y219488D02*
D03*
X354331Y212106D02*
D03*
X347441D02*
D03*
X351969Y212106D02*
D03*
X349705D02*
D03*
X345866Y216732D02*
D03*
Y218996D02*
D03*
D121*
X65158Y182677D02*
D03*
X61417D02*
D03*
X57677D02*
D03*
Y192913D02*
D03*
X61417D02*
D03*
X65158D02*
D03*
X160039Y192913D02*
D03*
X156299D02*
D03*
X152559D02*
D03*
Y182677D02*
D03*
X156299D02*
D03*
X160039D02*
D03*
X57382Y291437D02*
D03*
X53642D02*
D03*
X49902D02*
D03*
Y301673D02*
D03*
X53642D02*
D03*
X57382D02*
D03*
D122*
X85849Y335374D02*
D03*
Y340374D02*
D03*
Y345374D02*
D03*
Y350374D02*
D03*
X105928D02*
D03*
Y345374D02*
D03*
Y340374D02*
D03*
Y335374D02*
D03*
X43110Y81279D02*
D03*
Y86279D02*
D03*
Y91280D02*
D03*
Y96280D02*
D03*
X63189D02*
D03*
Y91280D02*
D03*
Y86279D02*
D03*
Y81279D02*
D03*
X43012Y44862D02*
D03*
Y49862D02*
D03*
Y54862D02*
D03*
Y59862D02*
D03*
X63090D02*
D03*
Y54862D02*
D03*
Y49862D02*
D03*
Y44862D02*
D03*
X427461Y302146D02*
D03*
Y307146D02*
D03*
Y312146D02*
D03*
Y317146D02*
D03*
X447539D02*
D03*
Y312146D02*
D03*
Y307146D02*
D03*
Y302146D02*
D03*
X195020Y335374D02*
D03*
Y340374D02*
D03*
Y345374D02*
D03*
Y350374D02*
D03*
X174941D02*
D03*
Y345374D02*
D03*
Y340374D02*
D03*
Y335374D02*
D03*
D123*
X438504Y171653D02*
D03*
X433504D02*
D03*
X428504D02*
D03*
X423504D02*
D03*
Y191732D02*
D03*
X428504D02*
D03*
X433504D02*
D03*
X438504D02*
D03*
X438504Y104528D02*
D03*
X433504D02*
D03*
X428504D02*
D03*
X423504D02*
D03*
Y124606D02*
D03*
X428504D02*
D03*
X433504D02*
D03*
X438504D02*
D03*
X438504Y38652D02*
D03*
X433504D02*
D03*
X428504D02*
D03*
X423504D02*
D03*
Y58730D02*
D03*
X428504D02*
D03*
X433504D02*
D03*
X438504D02*
D03*
D124*
X138484Y182776D02*
D03*
X145374D02*
D03*
X43602Y182480D02*
D03*
X50492D02*
D03*
X43110Y291043D02*
D03*
X36220D02*
D03*
D125*
X74803Y36024D02*
D03*
X66929D02*
D03*
X72834Y75394D02*
D03*
X80708D02*
D03*
M02*
