G04*
G04 #@! TF.GenerationSoftware,Altium Limited,Altium Designer,24.6.1 (21)*
G04*
G04 Layer_Physical_Order=3*
G04 Layer_Color=16440176*
%FSLAX25Y25*%
%MOIN*%
G70*
G04*
G04 #@! TF.SameCoordinates,FB0B4A90-FCBE-4164-A370-9FCB178B57EA*
G04*
G04*
G04 #@! TF.FilePolarity,Positive*
G04*
G01*
G75*
%ADD10C,0.00787*%
%ADD16C,0.02362*%
%ADD101C,0.03937*%
%ADD103C,0.01968*%
%ADD104C,0.01772*%
%ADD107C,0.01181*%
%ADD110C,0.13287*%
%ADD111C,0.05906*%
%ADD114C,0.12598*%
%ADD115C,0.01968*%
G36*
X224705Y392343D02*
Y270721D01*
X224205Y270672D01*
X224158Y270905D01*
X223801Y271439D01*
X221823Y273418D01*
Y315945D01*
X221698Y316575D01*
X221341Y317109D01*
X205790Y332660D01*
X205256Y333017D01*
X204626Y333142D01*
X203996Y333017D01*
X203462Y332660D01*
X203105Y332126D01*
X202980Y331496D01*
X203105Y330866D01*
X203462Y330332D01*
X218531Y315263D01*
Y272736D01*
X218657Y272106D01*
X219013Y271572D01*
X221474Y269112D01*
X222008Y268755D01*
X222638Y268630D01*
X223268Y268755D01*
X223801Y269112D01*
X224158Y269646D01*
X224205Y269879D01*
X224705Y269830D01*
Y1020D01*
X11811D01*
X11104D01*
X9701Y1204D01*
X8335Y1570D01*
X7028Y2112D01*
X5803Y2819D01*
X4680Y3680D01*
X3680Y4680D01*
X2819Y5803D01*
X2112Y7028D01*
X1570Y8335D01*
X1204Y9701D01*
X1020Y11104D01*
X1020Y11811D01*
X1020Y99508D01*
X942Y99898D01*
X721Y100229D01*
X390Y100450D01*
X-0Y100527D01*
X-23910D01*
X-23934Y100522D01*
X-23960Y100526D01*
X-24345Y100507D01*
X-24419Y100489D01*
X-24494D01*
X-25251Y100338D01*
X-25344Y100300D01*
X-25442Y100280D01*
X-26155Y99985D01*
X-26239Y99929D01*
X-26332Y99891D01*
X-26974Y99462D01*
X-27044Y99391D01*
X-27128Y99335D01*
X-27674Y98789D01*
X-27729Y98706D01*
X-27801Y98635D01*
X-28229Y97993D01*
X-28268Y97900D01*
X-28324Y97817D01*
X-28619Y97104D01*
X-28638Y97005D01*
X-28677Y96913D01*
X-28828Y96156D01*
Y96080D01*
X-28846Y96007D01*
X-28865Y95621D01*
X-28861Y95596D01*
X-28866Y95571D01*
Y93209D01*
X-28866Y93098D01*
X-28951Y92894D01*
X-29107Y92738D01*
X-29311Y92653D01*
X-33834D01*
Y105413D01*
X-33839Y105439D01*
X-33836Y105464D01*
X-33855Y105850D01*
X-33873Y105923D01*
X-33873Y105998D01*
X-34023Y106755D01*
X-34062Y106848D01*
X-34082Y106946D01*
X-34377Y107659D01*
X-34433Y107743D01*
X-34471Y107835D01*
X-34900Y108477D01*
X-34971Y108548D01*
X-35026Y108632D01*
X-35572Y109177D01*
X-35656Y109233D01*
X-35727Y109304D01*
X-36368Y109733D01*
X-36461Y109772D01*
X-36545Y109827D01*
X-37258Y110123D01*
X-37356Y110142D01*
X-37449Y110181D01*
X-38206Y110331D01*
X-38282D01*
X-38355Y110350D01*
X-38741Y110369D01*
X-38766Y110365D01*
X-38791Y110370D01*
X-56496D01*
Y184807D01*
X-38004Y184807D01*
X-37971Y184814D01*
X-37937Y184809D01*
X-37321Y184850D01*
X-37224Y184876D01*
X-37123Y184882D01*
X-35932Y185202D01*
X-35813Y185261D01*
X-35686Y185303D01*
X-34618Y185920D01*
X-34518Y186008D01*
X-34407Y186082D01*
X-33535Y186954D01*
X-33461Y187065D01*
X-33373Y187165D01*
X-32756Y188233D01*
X-32713Y188360D01*
X-32654Y188479D01*
X-32335Y189671D01*
X-32326Y189804D01*
X-32300Y189935D01*
Y191168D01*
X-32326Y191299D01*
X-32335Y191432D01*
X-32654Y192623D01*
X-32713Y192743D01*
X-32756Y192869D01*
X-33373Y193937D01*
X-33461Y194037D01*
X-33535Y194148D01*
X-34407Y195020D01*
X-34518Y195094D01*
X-34618Y195182D01*
X-35686Y195799D01*
X-35813Y195842D01*
X-35932Y195901D01*
X-37123Y196220D01*
X-37224Y196227D01*
X-37321Y196253D01*
X-37937Y196293D01*
X-37971Y196289D01*
X-38004Y196295D01*
X-56496D01*
Y283331D01*
X-38791D01*
X-38766Y283336D01*
X-38741Y283332D01*
X-38355Y283351D01*
X-38282Y283369D01*
X-38206Y283369D01*
X-37449Y283520D01*
X-37356Y283558D01*
X-37258Y283578D01*
X-36545Y283873D01*
X-36461Y283929D01*
X-36368Y283967D01*
X-35727Y284396D01*
X-35656Y284467D01*
X-35572Y284523D01*
X-35026Y285069D01*
X-34971Y285152D01*
X-34900Y285223D01*
X-34471Y285865D01*
X-34432Y285958D01*
X-34377Y286041D01*
X-34081Y286754D01*
X-34062Y286853D01*
X-34023Y286946D01*
X-33873Y287703D01*
X-33873Y287778D01*
X-33854Y287852D01*
X-33835Y288237D01*
X-33839Y288263D01*
X-33834Y288287D01*
Y301047D01*
X-29421D01*
X-29421Y301047D01*
X-29421Y301047D01*
X-29311Y301047D01*
X-29107Y300963D01*
X-28951Y300807D01*
X-28866Y300603D01*
X-28866Y300492D01*
X-28866Y300492D01*
X-28866Y300492D01*
Y298130D01*
X-28861Y298105D01*
X-28865Y298080D01*
X-28846Y297694D01*
X-28828Y297621D01*
Y297545D01*
X-28677Y296788D01*
X-28638Y296695D01*
X-28619Y296597D01*
X-28324Y295884D01*
X-28268Y295800D01*
X-28229Y295708D01*
X-27801Y295066D01*
X-27730Y294995D01*
X-27674Y294911D01*
X-27128Y294366D01*
X-27044Y294310D01*
X-26974Y294239D01*
X-26332Y293810D01*
X-26239Y293772D01*
X-26155Y293716D01*
X-25442Y293421D01*
X-25344Y293401D01*
X-25251Y293362D01*
X-24494Y293212D01*
X-24419D01*
X-24345Y293194D01*
X-23959Y293175D01*
X-23934Y293178D01*
X-23910Y293173D01*
X-0D01*
X390Y293251D01*
X721Y293472D01*
X942Y293803D01*
X1020Y294193D01*
Y381890D01*
X1020Y382597D01*
X1204Y384000D01*
X1570Y385366D01*
X2112Y386673D01*
X2819Y387898D01*
X3680Y389020D01*
X4681Y390021D01*
X5803Y390882D01*
X7028Y391589D01*
X8335Y392130D01*
X9701Y392497D01*
X11104Y392681D01*
X11811Y392681D01*
X11811Y392681D01*
X11811Y392681D01*
X224351Y392697D01*
X224705Y392343D01*
D02*
G37*
G36*
X387302Y258612D02*
X387894Y258494D01*
X397195D01*
X398315Y257373D01*
X397997Y256985D01*
X397891Y257055D01*
X397415Y257150D01*
X390972D01*
X390892Y257204D01*
X390354Y257311D01*
X389817Y257204D01*
X389361Y256899D01*
X389056Y256443D01*
X388949Y255906D01*
X389056Y255368D01*
X389361Y254912D01*
X389817Y254608D01*
X390354Y254501D01*
X390892Y254608D01*
X390972Y254661D01*
X396900D01*
X436846Y214715D01*
Y209490D01*
X436941Y209014D01*
X437211Y208611D01*
X449001Y196820D01*
X448810Y196358D01*
X437795D01*
Y194081D01*
X437791Y194075D01*
X437639Y193307D01*
Y169449D01*
X437639Y169448D01*
X437639Y169448D01*
X437715Y169062D01*
X437791Y168681D01*
X437792Y168680D01*
X437792Y168680D01*
X437795Y168675D01*
Y165256D01*
X441003D01*
X445847Y160417D01*
X445637Y160104D01*
X445531Y159566D01*
X445637Y159029D01*
X445942Y158573D01*
X446398Y158268D01*
X446935Y158161D01*
X447473Y158268D01*
X447787Y158478D01*
X464272Y142011D01*
Y139469D01*
X463679D01*
X463485Y139507D01*
X440670D01*
X440476Y139469D01*
X437303D01*
Y103347D01*
X439074Y101482D01*
X439251Y101218D01*
X440741Y99727D01*
X441043Y99410D01*
X441059D01*
X446663Y93806D01*
X446498Y93263D01*
X446372Y93238D01*
X445916Y92933D01*
X445611Y92478D01*
X445505Y91940D01*
X445611Y91402D01*
X445916Y90947D01*
X446372Y90642D01*
X446910Y90535D01*
X447447Y90642D01*
X447903Y90947D01*
X448207Y91402D01*
X448233Y91529D01*
X448775Y91694D01*
X453836Y86632D01*
X449261Y82057D01*
X399167D01*
X398576Y81940D01*
X398075Y81605D01*
X395524Y79054D01*
X395364Y78947D01*
X395029Y78446D01*
X394911Y77854D01*
X395029Y77263D01*
X395260Y76916D01*
X395057Y76436D01*
X395039Y76416D01*
X390453D01*
X390453Y93209D01*
X390453Y97047D01*
X402001D01*
X402269Y96547D01*
X402185Y96422D01*
X402078Y95884D01*
X402185Y95346D01*
X402489Y94890D01*
X402945Y94586D01*
X403483Y94479D01*
X404020Y94586D01*
X404476Y94890D01*
X404781Y95346D01*
X404888Y95884D01*
X404781Y96422D01*
X404697Y96547D01*
X404964Y97047D01*
X419882D01*
X422096Y99262D01*
X421870Y99488D01*
Y130887D01*
X420502Y132256D01*
X420476Y132382D01*
X420041Y133033D01*
X415435Y137640D01*
X415435Y137640D01*
X390829Y162246D01*
X390177Y162681D01*
X390048Y162707D01*
X385046Y167708D01*
X385237Y168170D01*
X409736D01*
X409914Y167953D01*
X410021Y167415D01*
X410325Y166959D01*
X410781Y166655D01*
X411319Y166548D01*
X411857Y166655D01*
X412312Y166959D01*
X412617Y167415D01*
X412724Y167953D01*
X412902Y168170D01*
X418583D01*
X419271Y168307D01*
X421870D01*
Y194666D01*
X386713Y229823D01*
Y234250D01*
X386751Y234443D01*
Y258379D01*
X387251Y258646D01*
X387302Y258612D01*
D02*
G37*
G36*
X391081Y256576D02*
X391115Y256559D01*
X391159Y256544D01*
X391212Y256532D01*
X391274Y256521D01*
X391428Y256505D01*
X391621Y256497D01*
X391732Y256496D01*
Y255315D01*
X391621Y255314D01*
X391274Y255290D01*
X391212Y255279D01*
X391159Y255267D01*
X391115Y255252D01*
X391081Y255235D01*
X391057Y255217D01*
Y256594D01*
X391081Y256576D01*
D02*
G37*
G36*
X545972Y392535D02*
X547338Y392169D01*
X548645Y391628D01*
X549870Y390920D01*
X550993Y390059D01*
X551993Y389059D01*
X552854Y387937D01*
X553561Y386712D01*
X554103Y385405D01*
X554469Y384038D01*
X554654Y382636D01*
Y381928D01*
X554654Y235925D01*
X531403D01*
X531115Y236425D01*
X531488Y237072D01*
X531776Y238145D01*
Y239256D01*
X531488Y240329D01*
X530933Y241291D01*
X530148Y242077D01*
X529185Y242632D01*
X528113Y242919D01*
X527002D01*
X525929Y242632D01*
X524967Y242077D01*
X524181Y241291D01*
X523626Y240329D01*
X523338Y239256D01*
Y238145D01*
X523626Y237072D01*
X524000Y236425D01*
X523711Y235925D01*
X491403D01*
X491115Y236425D01*
X491488Y237072D01*
X491776Y238145D01*
Y239256D01*
X491488Y240329D01*
X490933Y241291D01*
X490147Y242077D01*
X489185Y242632D01*
X488112Y242919D01*
X487002D01*
X485929Y242632D01*
X484967Y242077D01*
X484181Y241291D01*
X483626Y240329D01*
X483338Y239256D01*
Y238145D01*
X483626Y237072D01*
X484000Y236425D01*
X483711Y235925D01*
X480413D01*
X468602Y247736D01*
X455465D01*
X455281Y247773D01*
X439454D01*
X439270Y247736D01*
X413189D01*
X396850Y264075D01*
X384744D01*
Y234443D01*
X384244Y234109D01*
X383757Y234311D01*
X382818D01*
X381949Y233951D01*
X381285Y233287D01*
X380925Y232419D01*
Y231479D01*
X381285Y230611D01*
X381573Y230323D01*
X381366Y229823D01*
X379678D01*
X379471Y230323D01*
X379759Y230611D01*
X380118Y231479D01*
Y232419D01*
X379759Y233287D01*
X379094Y233951D01*
X378226Y234311D01*
X377286D01*
X376418Y233951D01*
X375753Y233287D01*
X375394Y232419D01*
X374902D01*
X374542Y233287D01*
X373877Y233951D01*
X373009Y234311D01*
X372070D01*
X371201Y233951D01*
X370537Y233287D01*
X370177Y232419D01*
Y231479D01*
X370537Y230611D01*
X370825Y230323D01*
X370618Y229823D01*
X349213Y229823D01*
X349153Y229763D01*
X321260D01*
X320492Y229610D01*
X319841Y229175D01*
X319406Y228524D01*
X319253Y227756D01*
Y201923D01*
X318753Y201655D01*
X318443Y201783D01*
X317895D01*
X317388Y201573D01*
X317001Y201186D01*
X316791Y200679D01*
Y200131D01*
X317001Y199625D01*
X317388Y199237D01*
X317895Y199027D01*
X318443D01*
X318753Y199155D01*
X319253Y198887D01*
Y198186D01*
X318978Y198002D01*
X318429D01*
X317923Y197792D01*
X317535Y197404D01*
X317326Y196898D01*
Y196350D01*
X317535Y195843D01*
X317923Y195456D01*
X318429Y195246D01*
X318978D01*
X319484Y195456D01*
X319872Y195843D01*
X320237Y195954D01*
X320492Y195783D01*
X321260Y195631D01*
X339228D01*
X366043Y168815D01*
Y162716D01*
X365866Y162681D01*
X365215Y162246D01*
X364780Y161595D01*
X364627Y160827D01*
Y154663D01*
X364127Y154456D01*
X363969Y154613D01*
X363463Y154823D01*
X362915D01*
X362408Y154613D01*
X362021Y154225D01*
X361811Y153719D01*
Y153171D01*
X362021Y152664D01*
X362408Y152277D01*
X362499Y152239D01*
Y151698D01*
X362408Y151660D01*
X362021Y151273D01*
X361811Y150766D01*
Y150218D01*
X362021Y149712D01*
X362408Y149324D01*
Y148806D01*
X362021Y148418D01*
X361811Y147912D01*
Y147364D01*
X362021Y146857D01*
X362193Y146685D01*
X362354Y146358D01*
X362193Y146032D01*
X362021Y145859D01*
X361811Y145353D01*
Y144805D01*
X362021Y144298D01*
X362193Y144126D01*
X362354Y143799D01*
X362193Y143473D01*
X362021Y143300D01*
X361811Y142794D01*
Y142246D01*
X362021Y141739D01*
X362408Y141351D01*
X362915Y141142D01*
X363463D01*
X363969Y141351D01*
X364127Y141509D01*
X364627Y141302D01*
Y138227D01*
X321457D01*
X320689Y138075D01*
X320038Y137640D01*
X319602Y136988D01*
X319450Y136221D01*
Y115308D01*
X319426Y115293D01*
X318950Y115155D01*
X318665Y115440D01*
X318158Y115650D01*
X317610D01*
X317103Y115440D01*
X316716Y115052D01*
X316506Y114546D01*
Y113997D01*
X316716Y113491D01*
X317103Y113103D01*
X317610Y112894D01*
X318158D01*
X318665Y113103D01*
X318950Y113389D01*
X319426Y113251D01*
X319450Y113235D01*
Y111417D01*
X319602Y110649D01*
X320038Y109998D01*
X331947Y98089D01*
X332598Y97654D01*
X333366Y97501D01*
X366043D01*
Y76416D01*
X364272D01*
X363504Y76264D01*
X363195Y76057D01*
X363182Y76070D01*
X362676Y76279D01*
X362127D01*
X361621Y76070D01*
X361233Y75682D01*
X361024Y75176D01*
Y74628D01*
X361233Y74121D01*
X361621Y73733D01*
X361712Y73696D01*
Y73155D01*
X361621Y73117D01*
X361233Y72729D01*
X361024Y72223D01*
Y71675D01*
X361233Y71168D01*
X361621Y70781D01*
Y70263D01*
X361233Y69875D01*
X361024Y69369D01*
Y68820D01*
X361233Y68314D01*
X361621Y67926D01*
X362127Y67716D01*
X362265D01*
Y55807D01*
X362127D01*
X361621Y55597D01*
X361233Y55210D01*
X361024Y54703D01*
Y54155D01*
X361233Y53649D01*
X361307Y53575D01*
X361609Y53248D01*
X361307Y52921D01*
X361233Y52847D01*
X361024Y52341D01*
Y51793D01*
X361233Y51286D01*
X361585Y50935D01*
X361233Y50584D01*
X361024Y50077D01*
Y49529D01*
X361233Y49023D01*
X361621Y48635D01*
X362127Y48425D01*
X362265D01*
Y47775D01*
X321555D01*
X320787Y47622D01*
X320136Y47187D01*
X319701Y46536D01*
X319548Y45768D01*
Y4035D01*
X319701Y3267D01*
X320136Y2616D01*
X320787Y2181D01*
X321555Y2028D01*
X366043D01*
Y1020D01*
X228937Y1020D01*
Y392697D01*
X543862Y392720D01*
X544569D01*
X545972Y392535D01*
D02*
G37*
G36*
X437447Y244837D02*
X437447Y223266D01*
X436985Y223075D01*
X414792Y245267D01*
X414984Y245729D01*
X436554D01*
X437447Y244837D01*
D02*
G37*
G36*
X440728Y214961D02*
X445683Y210006D01*
Y209071D01*
X445800Y208480D01*
X446135Y207978D01*
X446151Y207962D01*
X446653Y207627D01*
X447244Y207510D01*
X447835Y207627D01*
X448337Y207962D01*
X448672Y208464D01*
X448790Y209055D01*
X448789Y209056D01*
X448951Y209209D01*
X449228Y209324D01*
X461746Y196820D01*
X461554Y196358D01*
X452983D01*
X439335Y210006D01*
Y215230D01*
X439240Y215706D01*
X439170Y215812D01*
X439558Y216130D01*
X440728Y214961D01*
D02*
G37*
G36*
X474275Y226772D02*
X485723D01*
X485823Y226272D01*
X484967Y225777D01*
X484181Y224992D01*
X483626Y224030D01*
X483338Y222957D01*
Y221846D01*
X483626Y220773D01*
X484181Y219811D01*
X484967Y219026D01*
X485929Y218470D01*
X487002Y218183D01*
X488112D01*
X489185Y218470D01*
X490147Y219026D01*
X490933Y219811D01*
X491488Y220773D01*
X491776Y221846D01*
Y222957D01*
X491488Y224030D01*
X490933Y224992D01*
X490147Y225777D01*
X489291Y226272D01*
X489391Y226772D01*
X525723Y226772D01*
X525823Y226272D01*
X524967Y225777D01*
X524181Y224992D01*
X523626Y224030D01*
X523338Y222957D01*
Y221846D01*
X523626Y220773D01*
X524181Y219811D01*
X524967Y219026D01*
X525929Y218470D01*
X527002Y218183D01*
X528113D01*
X529185Y218470D01*
X530148Y219026D01*
X530933Y219811D01*
X531488Y220773D01*
X531776Y221846D01*
Y222957D01*
X531488Y224030D01*
X530933Y224992D01*
X530148Y225777D01*
X529291Y226272D01*
X529391Y226772D01*
X545477Y226772D01*
X545477Y177953D01*
X529185D01*
X529120Y178453D01*
X529185Y178470D01*
X530148Y179026D01*
X530933Y179811D01*
X531488Y180773D01*
X531776Y181846D01*
Y182957D01*
X531488Y184030D01*
X530933Y184992D01*
X530148Y185777D01*
X529185Y186333D01*
X528113Y186620D01*
X527002D01*
X525929Y186333D01*
X524967Y185777D01*
X524181Y184992D01*
X523626Y184030D01*
X523338Y182957D01*
Y181846D01*
X523626Y180773D01*
X524181Y179811D01*
X524967Y179026D01*
X525929Y178470D01*
X525995Y178453D01*
X525929Y177953D01*
X489185Y177953D01*
X489120Y178453D01*
X489185Y178470D01*
X490147Y179026D01*
X490933Y179811D01*
X491488Y180773D01*
X491776Y181846D01*
Y182957D01*
X491488Y184030D01*
X490933Y184992D01*
X490147Y185777D01*
X489185Y186333D01*
X488112Y186620D01*
X487002D01*
X485929Y186333D01*
X484967Y185777D01*
X484181Y184992D01*
X483626Y184030D01*
X483338Y182957D01*
Y181846D01*
X483626Y180773D01*
X484181Y179811D01*
X484967Y179026D01*
X485929Y178470D01*
X485995Y178453D01*
X485929Y177953D01*
X483473D01*
X439454Y221925D01*
X439454Y245766D01*
X455281D01*
X474275Y226772D01*
D02*
G37*
G36*
X418583Y194409D02*
Y170177D01*
X367520D01*
X340059Y197638D01*
X321260D01*
Y227756D01*
X385236D01*
X418583Y194409D01*
D02*
G37*
G36*
X455108Y193318D02*
X455122Y193307D01*
X463425D01*
X485276Y171457D01*
X543862D01*
Y121260D01*
X488196D01*
X488110Y121384D01*
X488110Y121478D01*
X488331Y121942D01*
X489185Y122171D01*
X490147Y122727D01*
X490933Y123512D01*
X491488Y124474D01*
X491776Y125547D01*
Y126658D01*
X491488Y127731D01*
X490933Y128693D01*
X490147Y129478D01*
X489185Y130034D01*
X488112Y130321D01*
X487002D01*
X485929Y130034D01*
X484967Y129478D01*
X484181Y128693D01*
X483626Y127731D01*
X483338Y126658D01*
Y126453D01*
X482876Y126262D01*
X439646Y169449D01*
Y193307D01*
X454811D01*
X454984Y193432D01*
X455108Y193318D01*
D02*
G37*
G36*
X414016Y136221D02*
X418622Y131614D01*
X418622Y99508D01*
X414057D01*
X413958Y100008D01*
X413970Y100013D01*
X414357Y100400D01*
X414567Y100907D01*
Y101455D01*
X414357Y101962D01*
X413970Y102349D01*
X413463Y102559D01*
X412915D01*
X412408Y102349D01*
X412021Y101962D01*
X411811Y101455D01*
Y100907D01*
X412021Y100400D01*
X412408Y100013D01*
X412421Y100008D01*
X412321Y99508D01*
X333366D01*
X321457Y111417D01*
Y136221D01*
X366535D01*
X366634Y136319D01*
Y160827D01*
X389409D01*
X414016Y136221D01*
D02*
G37*
G36*
X464272Y76197D02*
Y73130D01*
X462851D01*
X462657Y73168D01*
X443090D01*
X442897Y73130D01*
X440905D01*
X437303Y69587D01*
Y36713D01*
X437772Y36143D01*
X437791Y36043D01*
X438227Y35392D01*
X439141Y34477D01*
X440945Y32283D01*
X446228Y27001D01*
X446178Y26503D01*
X446152Y26486D01*
X445848Y26030D01*
X445741Y25492D01*
X445848Y24954D01*
X446152Y24499D01*
X446608Y24194D01*
X447146Y24087D01*
X447683Y24194D01*
X448139Y24499D01*
X448157Y24525D01*
X448654Y24574D01*
X464272Y8957D01*
Y5020D01*
X421870D01*
Y74332D01*
X419748Y76279D01*
X419271D01*
X418583Y76416D01*
X397965Y76416D01*
X397758Y76916D01*
X399808Y78966D01*
X449902D01*
X450493Y79084D01*
X450994Y79419D01*
X456022Y84447D01*
X464272Y76197D01*
D02*
G37*
G36*
X472859Y128125D02*
X485566Y116003D01*
X544882D01*
Y64862D01*
X478445D01*
X440670Y102637D01*
Y137500D01*
X463485D01*
X472859Y128125D01*
D02*
G37*
G36*
X474862Y58957D02*
X543862D01*
Y8071D01*
X468386D01*
X439646Y36811D01*
Y67716D01*
X443090Y71161D01*
X462657D01*
X474862Y58957D01*
D02*
G37*
G36*
X418583Y74409D02*
Y31299D01*
X418386Y31102D01*
Y4035D01*
X321555D01*
Y45768D01*
X364272D01*
Y74410D01*
X418583Y74409D01*
D02*
G37*
%LPC*%
G36*
X112598Y385657D02*
X112061Y385550D01*
X111605Y385245D01*
X111300Y384790D01*
X111211Y384341D01*
X101932Y375061D01*
X101322Y375158D01*
X101187Y375360D01*
X100732Y375664D01*
X100194Y375771D01*
X99656Y375664D01*
X99200Y375360D01*
X98896Y374904D01*
X98789Y374366D01*
X98896Y373828D01*
X99200Y373373D01*
X99402Y373238D01*
X99499Y372628D01*
X82589Y355718D01*
X82363Y355380D01*
X82283Y354980D01*
X82283Y354980D01*
Y89418D01*
X72747Y79882D01*
X69029D01*
X68648Y80137D01*
X68110Y80243D01*
X67573Y80137D01*
X67117Y79832D01*
X66812Y79376D01*
X66705Y78839D01*
X66812Y78301D01*
X67117Y77845D01*
X67573Y77541D01*
X68110Y77434D01*
X68648Y77541D01*
X69029Y77795D01*
X73180D01*
X73180Y77795D01*
X73579Y77874D01*
X73918Y78101D01*
X83239Y87421D01*
X83700Y87230D01*
Y84405D01*
X71941Y72645D01*
X68552D01*
X68171Y72899D01*
X67633Y73006D01*
X67096Y72899D01*
X66640Y72595D01*
X66335Y72139D01*
X66228Y71601D01*
X66335Y71064D01*
X66640Y70608D01*
X67096Y70303D01*
X67633Y70196D01*
X68171Y70303D01*
X68552Y70558D01*
X72373D01*
X72373Y70558D01*
X72772Y70637D01*
X73111Y70863D01*
X85482Y83234D01*
X85482Y83234D01*
X85708Y83573D01*
X85788Y83972D01*
X85788Y83972D01*
Y109316D01*
X86288Y109683D01*
X86516Y109637D01*
X87053Y109744D01*
X87509Y110049D01*
X87814Y110504D01*
X87903Y110953D01*
X92176Y115226D01*
X92402Y115564D01*
X92481Y115964D01*
Y196928D01*
X92981Y197203D01*
X93405Y197119D01*
X93943Y197226D01*
X94399Y197530D01*
X94704Y197986D01*
X94810Y198524D01*
X94704Y199061D01*
X94449Y199442D01*
Y249992D01*
X98671Y254213D01*
X98671Y254213D01*
X98897Y254552D01*
X98977Y254951D01*
X98977Y254952D01*
Y292027D01*
X98977Y292028D01*
X98897Y292427D01*
X98671Y292765D01*
X98671Y292766D01*
X96072Y295364D01*
X95983Y295813D01*
X95679Y296269D01*
X95223Y296574D01*
X94685Y296680D01*
X94147Y296574D01*
X93692Y296269D01*
X93387Y295813D01*
X93280Y295276D01*
X93387Y294738D01*
X93692Y294282D01*
X94147Y293978D01*
X94596Y293888D01*
X96889Y291595D01*
Y255384D01*
X92981Y251476D01*
X92481Y251683D01*
Y343860D01*
X119439Y370817D01*
X119439Y370817D01*
X119665Y371156D01*
X119745Y371555D01*
Y372901D01*
X119999Y373281D01*
X120106Y373819D01*
X119999Y374357D01*
X119694Y374812D01*
X119238Y375117D01*
X118886Y375187D01*
X118654Y375632D01*
X118646Y375706D01*
X118802Y375939D01*
X118909Y376477D01*
X118802Y377014D01*
X118497Y377470D01*
X118042Y377775D01*
X117504Y377882D01*
X116966Y377775D01*
X116510Y377470D01*
X116206Y377014D01*
X116117Y376565D01*
X89282Y349731D01*
X89056Y349392D01*
X88977Y348993D01*
X88977Y348993D01*
Y201858D01*
X88477Y201593D01*
X88239Y201752D01*
X87701Y201859D01*
X87164Y201752D01*
X86708Y201448D01*
X86404Y200992D01*
X86297Y200454D01*
X86404Y199916D01*
X86708Y199461D01*
X87164Y199156D01*
X87701Y199049D01*
X88239Y199156D01*
X88477Y199315D01*
X88977Y199050D01*
Y130396D01*
X88957Y130340D01*
X88477Y130293D01*
X88451Y130419D01*
X88404Y130656D01*
X88100Y131112D01*
X87756Y131341D01*
Y162271D01*
X88011Y162651D01*
X88118Y163189D01*
X88011Y163727D01*
X87706Y164182D01*
X87658Y164215D01*
Y189780D01*
X87814Y190014D01*
X87921Y190551D01*
X87814Y191089D01*
X87509Y191545D01*
X87053Y191849D01*
X86516Y191956D01*
X86288Y191911D01*
X85788Y192278D01*
Y351959D01*
X114419Y380590D01*
X114868Y380680D01*
X115323Y380984D01*
X115628Y381440D01*
X115735Y381978D01*
X115628Y382515D01*
X115323Y382971D01*
X114868Y383276D01*
X114330Y383383D01*
X114268Y383370D01*
X114112Y383515D01*
X113916Y383810D01*
X114003Y384252D01*
X113896Y384790D01*
X113592Y385245D01*
X113136Y385550D01*
X112598Y385657D01*
D02*
G37*
G36*
X91000Y369694D02*
X90463Y369587D01*
X90007Y369283D01*
X89702Y368827D01*
X89595Y368289D01*
X89702Y367751D01*
X90007Y367296D01*
X90463Y366991D01*
X91000Y366884D01*
X91538Y366991D01*
X91994Y367296D01*
X92298Y367751D01*
X92405Y368289D01*
X92298Y368827D01*
X91994Y369283D01*
X91538Y369587D01*
X91000Y369694D01*
D02*
G37*
G36*
X175000Y369122D02*
X174462Y369015D01*
X174006Y368710D01*
X173702Y368254D01*
X173595Y367717D01*
X173702Y367179D01*
X174006Y366723D01*
X174462Y366419D01*
X175000Y366312D01*
X175538Y366419D01*
X175994Y366723D01*
X176298Y367179D01*
X176405Y367717D01*
X176298Y368254D01*
X175994Y368710D01*
X175538Y369015D01*
X175000Y369122D01*
D02*
G37*
G36*
X195276Y367940D02*
X194738Y367833D01*
X194282Y367529D01*
X193978Y367073D01*
X193871Y366535D01*
X193978Y365998D01*
X194282Y365542D01*
X194738Y365237D01*
X195276Y365130D01*
X195813Y365237D01*
X196269Y365542D01*
X196574Y365998D01*
X196680Y366535D01*
X196574Y367073D01*
X196269Y367529D01*
X195813Y367833D01*
X195276Y367940D01*
D02*
G37*
G36*
X146949Y361070D02*
X146027Y360887D01*
X145246Y360365D01*
X144724Y359583D01*
X144540Y358661D01*
X144724Y357740D01*
X145246Y356958D01*
X146027Y356436D01*
X146949Y356253D01*
X147871Y356436D01*
X148652Y356958D01*
X149174Y357740D01*
X149357Y358661D01*
X149174Y359583D01*
X148652Y360365D01*
X147871Y360887D01*
X146949Y361070D01*
D02*
G37*
G36*
X136221Y351995D02*
X135683Y351888D01*
X135227Y351584D01*
X134923Y351128D01*
X134816Y350590D01*
X134923Y350053D01*
X135227Y349597D01*
X135683Y349292D01*
X136221Y349186D01*
X136758Y349292D01*
X137214Y349597D01*
X137519Y350053D01*
X137625Y350590D01*
X137519Y351128D01*
X137214Y351584D01*
X136758Y351888D01*
X136221Y351995D01*
D02*
G37*
G36*
X30906Y348354D02*
X30368Y348247D01*
X29912Y347942D01*
X29607Y347486D01*
X29501Y346949D01*
X29607Y346411D01*
X29912Y345955D01*
X30368Y345651D01*
X30906Y345544D01*
X31443Y345651D01*
X31899Y345955D01*
X32204Y346411D01*
X32311Y346949D01*
X32204Y347486D01*
X31899Y347942D01*
X31443Y348247D01*
X30906Y348354D01*
D02*
G37*
G36*
X40551Y346066D02*
X40014Y345959D01*
X39558Y345655D01*
X39253Y345199D01*
X39146Y344661D01*
X39253Y344124D01*
X39558Y343668D01*
X40014Y343363D01*
X40551Y343256D01*
X41089Y343363D01*
X41545Y343668D01*
X41849Y344124D01*
X41956Y344661D01*
X41849Y345199D01*
X41545Y345655D01*
X41089Y345959D01*
X40551Y346066D01*
D02*
G37*
G36*
X124392Y344345D02*
X123854Y344238D01*
X123398Y343934D01*
X123094Y343478D01*
X122987Y342940D01*
X123094Y342403D01*
X123398Y341947D01*
X123854Y341642D01*
X124392Y341535D01*
X124929Y341642D01*
X125385Y341947D01*
X125690Y342403D01*
X125797Y342940D01*
X125690Y343478D01*
X125385Y343934D01*
X124929Y344238D01*
X124392Y344345D01*
D02*
G37*
G36*
X220866Y344110D02*
X220328Y344003D01*
X219873Y343698D01*
X219568Y343242D01*
X219461Y342705D01*
X219568Y342167D01*
X219873Y341711D01*
X220328Y341407D01*
X220866Y341300D01*
X221404Y341407D01*
X221860Y341711D01*
X222164Y342167D01*
X222271Y342705D01*
X222164Y343242D01*
X221860Y343698D01*
X221404Y344003D01*
X220866Y344110D01*
D02*
G37*
G36*
X46487Y346307D02*
X45857Y346182D01*
X45323Y345825D01*
X43162Y343664D01*
X42805Y343130D01*
X42680Y342500D01*
Y330945D01*
X42180Y330738D01*
X39895Y333022D01*
X39812Y333077D01*
X39749Y333154D01*
X39489Y333293D01*
X39244Y333457D01*
X39147Y333476D01*
X39059Y333523D01*
X38765Y333552D01*
X38476Y333610D01*
X38424Y333599D01*
X38161Y333772D01*
X37989Y334034D01*
X37999Y334086D01*
X37942Y334376D01*
X37913Y334669D01*
X37866Y334757D01*
X37847Y334854D01*
X37683Y335100D01*
X37544Y335360D01*
X37467Y335423D01*
X37412Y335506D01*
X36163Y336754D01*
X35512Y337189D01*
X34744Y337342D01*
X25000Y337342D01*
X24232Y337189D01*
X23581Y336754D01*
X21022Y334195D01*
X20587Y333544D01*
X20434Y332776D01*
Y300899D01*
X20360D01*
X19730Y300774D01*
X19197Y300417D01*
X18840Y300061D01*
X18378Y300252D01*
Y332382D01*
X18253Y333012D01*
X17896Y333546D01*
X17362Y333902D01*
X16732Y334028D01*
X16103Y333902D01*
X15568Y333546D01*
X15212Y333012D01*
X15087Y332382D01*
Y260852D01*
X11983Y257748D01*
X10138D01*
X9508Y257623D01*
X8974Y257266D01*
X8617Y256732D01*
X8492Y256102D01*
X8617Y255472D01*
X8974Y254939D01*
X9508Y254582D01*
X10138Y254457D01*
X11985D01*
X12175Y253994D01*
X7424Y249290D01*
X1760Y249346D01*
X1755Y249345D01*
X1749Y249346D01*
X1370Y249272D01*
X991Y249201D01*
X986Y249198D01*
X981Y249197D01*
X657Y248983D01*
X335Y248772D01*
X332Y248768D01*
X327Y248764D01*
X-133Y248308D01*
X-136Y248304D01*
X-140Y248302D01*
X-355Y247980D01*
X-571Y247659D01*
X-572Y247654D01*
X-575Y247650D01*
X-650Y247270D01*
X-728Y246891D01*
X-727Y246887D01*
X-728Y246882D01*
Y234941D01*
X-575Y234173D01*
X-140Y233522D01*
X512Y233087D01*
X1280Y232934D01*
X11373D01*
X17259Y227049D01*
X17423Y226939D01*
X17563Y226799D01*
X17745Y226723D01*
X17900Y226620D01*
X18200Y226172D01*
X18655Y225867D01*
X18750Y225849D01*
X20317Y224282D01*
Y111427D01*
X20412Y110951D01*
X20681Y110548D01*
X21662Y109567D01*
X21734Y109206D01*
X22038Y108751D01*
X22494Y108446D01*
X23031Y108339D01*
X23259Y108385D01*
X23760Y108018D01*
Y100575D01*
X23312D01*
X23118Y100537D01*
X22920Y100537D01*
X22738Y100461D01*
X22544Y100422D01*
X22380Y100312D01*
X22197Y100237D01*
X22129Y100169D01*
X21869Y99996D01*
X21730Y99856D01*
X21565Y99746D01*
X21456Y99582D01*
X21316Y99442D01*
X21240Y99259D01*
X21130Y99095D01*
X21092Y98901D01*
X21016Y98718D01*
Y98521D01*
X20978Y98327D01*
Y97638D01*
X15866D01*
Y90945D01*
X20978D01*
Y87724D01*
X20478Y87390D01*
X20086Y87552D01*
X19213Y87667D01*
X18339Y87552D01*
X17525Y87214D01*
X16826Y86678D01*
X16289Y85979D01*
X15952Y85165D01*
X15837Y84291D01*
X15952Y83418D01*
X16289Y82604D01*
X16826Y81905D01*
X17525Y81368D01*
X18339Y81031D01*
X19213Y80916D01*
X20086Y81031D01*
X20478Y81193D01*
X20978Y80859D01*
Y77724D01*
X20478Y77390D01*
X20086Y77552D01*
X19213Y77667D01*
X18339Y77552D01*
X17525Y77214D01*
X16826Y76678D01*
X16289Y75979D01*
X15952Y75165D01*
X15837Y74291D01*
X15952Y73418D01*
X16289Y72604D01*
X16826Y71905D01*
X17525Y71368D01*
X18339Y71031D01*
X19213Y70916D01*
X20086Y71031D01*
X20478Y71193D01*
X20978Y70859D01*
Y67724D01*
X20478Y67390D01*
X20086Y67552D01*
X19213Y67667D01*
X18339Y67552D01*
X17525Y67215D01*
X16826Y66678D01*
X16289Y65979D01*
X15952Y65165D01*
X15837Y64291D01*
X15952Y63418D01*
X16289Y62604D01*
X16826Y61905D01*
X17525Y61368D01*
X18339Y61031D01*
X19213Y60916D01*
X20086Y61031D01*
X20478Y61193D01*
X20978Y60859D01*
Y57724D01*
X20478Y57390D01*
X20086Y57552D01*
X19213Y57667D01*
X18339Y57552D01*
X17525Y57214D01*
X16826Y56678D01*
X16289Y55979D01*
X15952Y55165D01*
X15837Y54291D01*
X15952Y53418D01*
X16289Y52604D01*
X16826Y51905D01*
X17525Y51368D01*
X18339Y51031D01*
X19213Y50916D01*
X20086Y51031D01*
X20478Y51193D01*
X20978Y50859D01*
Y47724D01*
X20478Y47390D01*
X20086Y47552D01*
X19213Y47667D01*
X18339Y47552D01*
X17525Y47214D01*
X16826Y46678D01*
X16289Y45979D01*
X15952Y45165D01*
X15837Y44291D01*
X15952Y43418D01*
X16289Y42604D01*
X16826Y41905D01*
X17525Y41368D01*
X18339Y41031D01*
X19213Y40916D01*
X20086Y41031D01*
X20900Y41368D01*
X21373Y41290D01*
X21565Y41002D01*
X22217Y40567D01*
X22985Y40414D01*
X23873D01*
X34410Y29877D01*
Y12992D01*
X34563Y12224D01*
X34998Y11573D01*
X35649Y11138D01*
X36417Y10985D01*
X41240D01*
X42008Y11138D01*
X42659Y11573D01*
X43095Y12224D01*
X43247Y12992D01*
Y42323D01*
X43149Y42818D01*
Y74417D01*
X43535Y74734D01*
X43590Y74723D01*
X44128Y74830D01*
X44584Y75134D01*
X44888Y75590D01*
X44995Y76128D01*
X44888Y76666D01*
X44584Y77121D01*
X44128Y77426D01*
X43590Y77533D01*
X43535Y77522D01*
X43149Y77839D01*
Y213116D01*
X43649Y213323D01*
X49240Y207732D01*
Y102557D01*
X49336Y102074D01*
Y66242D01*
X49461Y65613D01*
X49818Y65079D01*
X53856Y61041D01*
X54390Y60684D01*
X55020Y60559D01*
X55650Y60684D01*
X56183Y61041D01*
X56540Y61575D01*
X56665Y62205D01*
X56540Y62835D01*
X56183Y63368D01*
X52628Y66924D01*
Y102461D01*
X52532Y102944D01*
Y208413D01*
X52406Y209043D01*
X52050Y209577D01*
X45971Y215656D01*
Y292126D01*
X46471Y292278D01*
X46644Y292018D01*
X47100Y291714D01*
X47638Y291607D01*
X48175Y291714D01*
X48631Y292018D01*
X48936Y292474D01*
X49043Y293012D01*
X48936Y293549D01*
X48631Y294005D01*
X48175Y294310D01*
X47638Y294417D01*
X47100Y294310D01*
X46644Y294005D01*
X46471Y293746D01*
X45971Y293898D01*
Y341818D01*
X47651Y343498D01*
X48007Y344032D01*
X48133Y344661D01*
X48007Y345291D01*
X47651Y345825D01*
X47117Y346182D01*
X46487Y346307D01*
D02*
G37*
G36*
X103002Y325443D02*
X95423D01*
Y317864D01*
X103002D01*
Y325443D01*
D02*
G37*
G36*
X50529Y316176D02*
X49991Y316069D01*
X49535Y315764D01*
X49231Y315309D01*
X49124Y314771D01*
X49231Y314233D01*
X49535Y313778D01*
X49991Y313473D01*
X50529Y313366D01*
X51066Y313473D01*
X51522Y313778D01*
X51827Y314233D01*
X51934Y314771D01*
X51827Y315309D01*
X51522Y315764D01*
X51066Y316069D01*
X50529Y316176D01*
D02*
G37*
G36*
X78740Y313905D02*
X78202Y313798D01*
X77747Y313493D01*
X77442Y313038D01*
X77335Y312500D01*
X77442Y311962D01*
X77747Y311507D01*
X78202Y311202D01*
X78740Y311095D01*
X79278Y311202D01*
X79734Y311507D01*
X80038Y311962D01*
X80145Y312500D01*
X80038Y313038D01*
X79734Y313493D01*
X79278Y313798D01*
X78740Y313905D01*
D02*
G37*
G36*
X182780Y346885D02*
X182243Y346778D01*
X181787Y346473D01*
X181482Y346018D01*
X181393Y345568D01*
X173967Y338142D01*
X173740Y337804D01*
X173661Y337404D01*
X173661Y337404D01*
Y282140D01*
X173161Y281773D01*
X172933Y281818D01*
X172395Y281711D01*
X171940Y281407D01*
X171635Y280951D01*
X171528Y280413D01*
X171635Y279876D01*
X171940Y279420D01*
X172395Y279115D01*
X172933Y279008D01*
X173161Y279054D01*
X173661Y278687D01*
Y255658D01*
X173661Y255658D01*
X173740Y255258D01*
X173967Y254920D01*
X179321Y249565D01*
X179411Y249116D01*
X179715Y248660D01*
X180171Y248356D01*
X180709Y248249D01*
X181246Y248356D01*
X181702Y248660D01*
X182007Y249116D01*
X182114Y249654D01*
X182007Y250192D01*
X181702Y250647D01*
X181246Y250952D01*
X180797Y251041D01*
X175748Y256090D01*
Y336972D01*
X182869Y344092D01*
X183318Y344182D01*
X183774Y344486D01*
X184078Y344942D01*
X184185Y345480D01*
X184078Y346018D01*
X183774Y346473D01*
X183318Y346778D01*
X182780Y346885D01*
D02*
G37*
G36*
X184449Y292786D02*
X179134D01*
X178542Y292668D01*
X178041Y292333D01*
X177706Y291832D01*
X177588Y291240D01*
X177706Y290649D01*
X178041Y290147D01*
X178542Y289812D01*
X179134Y289695D01*
X183809D01*
X200521Y272982D01*
X201023Y272647D01*
X201614Y272529D01*
X209941D01*
X210532Y272647D01*
X211034Y272982D01*
X211369Y273483D01*
X211486Y274075D01*
X211369Y274666D01*
X211034Y275168D01*
X210532Y275503D01*
X209941Y275620D01*
X202254D01*
X185542Y292333D01*
X185040Y292668D01*
X184449Y292786D01*
D02*
G37*
G36*
X-21969Y272822D02*
X-22506Y272715D01*
X-22962Y272411D01*
X-23267Y271955D01*
X-23373Y271417D01*
X-23267Y270880D01*
X-22962Y270424D01*
X-22506Y270119D01*
X-21969Y270012D01*
X-21431Y270119D01*
X-20975Y270424D01*
X-20671Y270880D01*
X-20563Y271417D01*
X-20671Y271955D01*
X-20975Y272411D01*
X-21431Y272715D01*
X-21969Y272822D01*
D02*
G37*
G36*
X-25951Y263722D02*
X-26488Y263615D01*
X-26944Y263311D01*
X-27248Y262855D01*
X-27355Y262317D01*
X-27248Y261780D01*
X-26944Y261324D01*
X-26488Y261019D01*
X-25951Y260912D01*
X-25413Y261019D01*
X-24957Y261324D01*
X-24653Y261780D01*
X-24545Y262317D01*
X-24653Y262855D01*
X-24957Y263311D01*
X-25413Y263615D01*
X-25951Y263722D01*
D02*
G37*
G36*
X12500Y349382D02*
X11870Y349257D01*
X11336Y348900D01*
X10979Y348366D01*
X10854Y347736D01*
Y263969D01*
X9171Y262286D01*
X8814Y261752D01*
X8689Y261122D01*
X8814Y260492D01*
X9171Y259958D01*
X9705Y259601D01*
X10335Y259476D01*
X10965Y259601D01*
X11498Y259958D01*
X13664Y262124D01*
X14020Y262658D01*
X14146Y263287D01*
Y347736D01*
X14020Y348366D01*
X13664Y348900D01*
X13130Y349257D01*
X12500Y349382D01*
D02*
G37*
G36*
X194768Y260854D02*
X194230Y260747D01*
X193774Y260442D01*
X193470Y259986D01*
X193363Y259449D01*
X193470Y258911D01*
X193774Y258455D01*
X194230Y258151D01*
X194768Y258044D01*
X195305Y258151D01*
X195761Y258455D01*
X196066Y258911D01*
X196172Y259449D01*
X196066Y259986D01*
X195761Y260442D01*
X195305Y260747D01*
X194768Y260854D01*
D02*
G37*
G36*
X-4882Y259884D02*
X-5420Y259777D01*
X-5875Y259472D01*
X-6180Y259016D01*
X-6287Y258479D01*
X-6180Y257941D01*
X-5875Y257485D01*
X-5420Y257181D01*
X-4882Y257074D01*
X-4344Y257181D01*
X-3888Y257485D01*
X-3584Y257941D01*
X-3477Y258479D01*
X-3584Y259016D01*
X-3888Y259472D01*
X-4344Y259777D01*
X-4882Y259884D01*
D02*
G37*
G36*
X-7953Y258295D02*
X-8490Y258188D01*
X-8946Y257883D01*
X-9251Y257428D01*
X-9358Y256890D01*
X-9251Y256352D01*
X-8946Y255896D01*
X-8490Y255592D01*
X-7953Y255485D01*
X-7415Y255592D01*
X-6959Y255896D01*
X-6655Y256352D01*
X-6548Y256890D01*
X-6655Y257428D01*
X-6959Y257883D01*
X-7415Y258188D01*
X-7953Y258295D01*
D02*
G37*
G36*
X124213Y321287D02*
X123675Y321180D01*
X123219Y320875D01*
X122915Y320420D01*
X122808Y319882D01*
X122915Y319344D01*
X122968Y319264D01*
Y265059D01*
X123063Y264583D01*
X123333Y264179D01*
X132683Y254829D01*
X133087Y254559D01*
X133563Y254464D01*
X139244D01*
X139324Y254411D01*
X139862Y254304D01*
X140400Y254411D01*
X140856Y254715D01*
X141160Y255171D01*
X141267Y255709D01*
X141160Y256246D01*
X140856Y256702D01*
X140400Y257007D01*
X139862Y257114D01*
X139324Y257007D01*
X139244Y256953D01*
X134078D01*
X125457Y265575D01*
Y319264D01*
X125511Y319344D01*
X125618Y319882D01*
X125511Y320420D01*
X125206Y320875D01*
X124750Y321180D01*
X124213Y321287D01*
D02*
G37*
G36*
X-36230Y258522D02*
X-36767Y258415D01*
X-37223Y258110D01*
X-37528Y257655D01*
X-37635Y257117D01*
X-37528Y256579D01*
X-37223Y256123D01*
X-36767Y255819D01*
X-36463Y255758D01*
X-36187Y255401D01*
X-36163Y255228D01*
X-36248Y254803D01*
X-36140Y254265D01*
X-35836Y253810D01*
X-35380Y253505D01*
X-34843Y253398D01*
X-34305Y253505D01*
X-33849Y253810D01*
X-33544Y254265D01*
X-33438Y254803D01*
X-33544Y255341D01*
X-33849Y255797D01*
X-34305Y256101D01*
X-34609Y256162D01*
X-34885Y256519D01*
X-34909Y256692D01*
X-34825Y257117D01*
X-34932Y257655D01*
X-35236Y258110D01*
X-35692Y258415D01*
X-36230Y258522D01*
D02*
G37*
G36*
X-31063Y253177D02*
X-31601Y253070D01*
X-32056Y252765D01*
X-32361Y252309D01*
X-32468Y251772D01*
X-32361Y251234D01*
X-32056Y250778D01*
X-31659Y250513D01*
X-31598Y250459D01*
X-31486Y249941D01*
X-31613Y249750D01*
X-31720Y249213D01*
X-31613Y248675D01*
X-31308Y248219D01*
X-30853Y247915D01*
X-30315Y247808D01*
X-29777Y247915D01*
X-29322Y248219D01*
X-29017Y248675D01*
X-28910Y249213D01*
X-29017Y249750D01*
X-29322Y250206D01*
X-29719Y250472D01*
X-29781Y250525D01*
X-29893Y251043D01*
X-29765Y251234D01*
X-29658Y251772D01*
X-29765Y252309D01*
X-30070Y252765D01*
X-30525Y253070D01*
X-31063Y253177D01*
D02*
G37*
G36*
X-34882Y246484D02*
X-35419Y246377D01*
X-35875Y246072D01*
X-36180Y245617D01*
X-36287Y245079D01*
X-36180Y244541D01*
X-35875Y244085D01*
X-35419Y243781D01*
X-34882Y243674D01*
X-34344Y243781D01*
X-33888Y244085D01*
X-33584Y244541D01*
X-33477Y245079D01*
X-33584Y245617D01*
X-33888Y246072D01*
X-34344Y246377D01*
X-34882Y246484D01*
D02*
G37*
G36*
X-20512Y244751D02*
X-21049Y244644D01*
X-21505Y244340D01*
X-21810Y243884D01*
X-21917Y243346D01*
X-21810Y242809D01*
X-21505Y242353D01*
X-21049Y242048D01*
X-20512Y241941D01*
X-19974Y242048D01*
X-19518Y242353D01*
X-19214Y242809D01*
X-19107Y243346D01*
X-19214Y243884D01*
X-19518Y244340D01*
X-19974Y244644D01*
X-20512Y244751D01*
D02*
G37*
G36*
X-34882Y240342D02*
X-35419Y240235D01*
X-35875Y239931D01*
X-36180Y239475D01*
X-36287Y238937D01*
X-36180Y238399D01*
X-35875Y237944D01*
X-35419Y237639D01*
X-34882Y237532D01*
X-34344Y237639D01*
X-33888Y237944D01*
X-33584Y238399D01*
X-33477Y238937D01*
X-33584Y239475D01*
X-33888Y239931D01*
X-34344Y240235D01*
X-34882Y240342D01*
D02*
G37*
G36*
X-19702Y262665D02*
X-20239Y262558D01*
X-20695Y262253D01*
X-21000Y261797D01*
X-21079Y261401D01*
X-24754Y257726D01*
X-24980Y257388D01*
X-25059Y256988D01*
X-25059Y256988D01*
Y241180D01*
X-28632Y237608D01*
X-29081Y237519D01*
X-29537Y237214D01*
X-29841Y236758D01*
X-29948Y236221D01*
X-29841Y235683D01*
X-29537Y235227D01*
X-29081Y234923D01*
X-28543Y234816D01*
X-28006Y234923D01*
X-27550Y235227D01*
X-27245Y235683D01*
X-27156Y236132D01*
X-23278Y240010D01*
X-23278Y240010D01*
X-23052Y240349D01*
X-22972Y240748D01*
X-22972Y240748D01*
Y256556D01*
X-19666Y259862D01*
X-19164Y259962D01*
X-18708Y260266D01*
X-18404Y260722D01*
X-18297Y261260D01*
X-18404Y261797D01*
X-18708Y262253D01*
X-19164Y262558D01*
X-19702Y262665D01*
D02*
G37*
G36*
X-32283Y234279D02*
X-32821Y234172D01*
X-33277Y233868D01*
X-33582Y233412D01*
X-33688Y232874D01*
X-33582Y232336D01*
X-33277Y231881D01*
X-32821Y231576D01*
X-32283Y231469D01*
X-31746Y231576D01*
X-31290Y231881D01*
X-30986Y232336D01*
X-30878Y232874D01*
X-30986Y233412D01*
X-31290Y233868D01*
X-31746Y234172D01*
X-32283Y234279D01*
D02*
G37*
G36*
X-33268Y229456D02*
X-33805Y229349D01*
X-34261Y229045D01*
X-34566Y228589D01*
X-34673Y228051D01*
X-34566Y227514D01*
X-34261Y227058D01*
X-33805Y226753D01*
X-33268Y226646D01*
X-32730Y226753D01*
X-32274Y227058D01*
X-31970Y227514D01*
X-31863Y228051D01*
X-31970Y228589D01*
X-32274Y229045D01*
X-32730Y229349D01*
X-33268Y229456D01*
D02*
G37*
G36*
X-36220Y222822D02*
X-36758Y222715D01*
X-37214Y222411D01*
X-37519Y221955D01*
X-37625Y221417D01*
X-37519Y220880D01*
X-37214Y220424D01*
X-36758Y220119D01*
X-36220Y220012D01*
X-35683Y220119D01*
X-35227Y220424D01*
X-34923Y220880D01*
X-34815Y221417D01*
X-34923Y221955D01*
X-35227Y222411D01*
X-35683Y222715D01*
X-36220Y222822D01*
D02*
G37*
G36*
X60138Y278275D02*
X59600Y278168D01*
X59144Y277864D01*
X58840Y277408D01*
X58750Y276959D01*
X55266Y273474D01*
X55040Y273136D01*
X54960Y272736D01*
X54960Y272736D01*
Y228045D01*
X49340Y222424D01*
X48891Y222335D01*
X48435Y222030D01*
X48131Y221575D01*
X48024Y221037D01*
X48131Y220499D01*
X48435Y220043D01*
X48891Y219739D01*
X49428Y219632D01*
X49966Y219739D01*
X50422Y220043D01*
X50726Y220499D01*
X50816Y220948D01*
X56742Y226874D01*
X56968Y227213D01*
X57048Y227612D01*
X57048Y227612D01*
Y272304D01*
X60227Y275483D01*
X60676Y275572D01*
X61131Y275877D01*
X61436Y276332D01*
X61543Y276870D01*
X61436Y277408D01*
X61131Y277864D01*
X60676Y278168D01*
X60138Y278275D01*
D02*
G37*
G36*
X-36496Y216602D02*
X-37034Y216495D01*
X-37490Y216190D01*
X-37794Y215735D01*
X-37901Y215197D01*
X-37794Y214659D01*
X-37490Y214203D01*
X-37034Y213899D01*
X-36496Y213792D01*
X-35958Y213899D01*
X-35503Y214203D01*
X-35198Y214659D01*
X-35091Y215197D01*
X-35198Y215735D01*
X-35503Y216190D01*
X-35958Y216495D01*
X-36496Y216602D01*
D02*
G37*
G36*
X101772Y310460D02*
X101234Y310353D01*
X100778Y310049D01*
X100474Y309593D01*
X100367Y309055D01*
X100474Y308518D01*
X100630Y308284D01*
Y214805D01*
X100581Y214773D01*
X100277Y214317D01*
X100170Y213779D01*
X100277Y213242D01*
X100581Y212786D01*
X101037Y212481D01*
X101575Y212375D01*
X102112Y212481D01*
X102568Y212786D01*
X102873Y213242D01*
X102980Y213779D01*
X102873Y214317D01*
X102717Y214550D01*
Y308030D01*
X102765Y308062D01*
X103070Y308518D01*
X103177Y309055D01*
X103070Y309593D01*
X102765Y310049D01*
X102309Y310353D01*
X101772Y310460D01*
D02*
G37*
G36*
X75129Y300519D02*
X74592Y300412D01*
X74136Y300108D01*
X73831Y299652D01*
X73724Y299114D01*
X73760Y298938D01*
Y209328D01*
X73760Y209328D01*
X73839Y208929D01*
X74065Y208590D01*
X75483Y207172D01*
X75572Y206723D01*
X75877Y206268D01*
X76332Y205963D01*
X76870Y205856D01*
X77408Y205963D01*
X77864Y206268D01*
X78168Y206723D01*
X78275Y207261D01*
X78168Y207799D01*
X77864Y208255D01*
X77408Y208559D01*
X76959Y208648D01*
X75847Y209760D01*
Y297936D01*
X76123Y298121D01*
X76427Y298576D01*
X76534Y299114D01*
X76427Y299652D01*
X76123Y300108D01*
X75667Y300412D01*
X75129Y300519D01*
D02*
G37*
G36*
X-18504Y206129D02*
X-19042Y206022D01*
X-19497Y205718D01*
X-19802Y205262D01*
X-19909Y204724D01*
X-19802Y204187D01*
X-19497Y203731D01*
X-19042Y203426D01*
X-18504Y203320D01*
X-17966Y203426D01*
X-17511Y203731D01*
X-17206Y204187D01*
X-17099Y204724D01*
X-17206Y205262D01*
X-17511Y205718D01*
X-17966Y206022D01*
X-18504Y206129D01*
D02*
G37*
G36*
X59252Y204555D02*
X58714Y204448D01*
X58258Y204143D01*
X57954Y203687D01*
X57847Y203150D01*
X57954Y202612D01*
X58258Y202156D01*
X58714Y201852D01*
X59252Y201745D01*
X59790Y201852D01*
X60245Y202156D01*
X60550Y202612D01*
X60657Y203150D01*
X60550Y203687D01*
X60245Y204143D01*
X59790Y204448D01*
X59252Y204555D01*
D02*
G37*
G36*
X-35827Y203767D02*
X-36364Y203660D01*
X-36820Y203356D01*
X-37125Y202900D01*
X-37232Y202362D01*
X-37125Y201824D01*
X-36820Y201369D01*
X-36364Y201064D01*
X-35827Y200957D01*
X-35289Y201064D01*
X-34833Y201369D01*
X-34529Y201824D01*
X-34422Y202362D01*
X-34529Y202900D01*
X-34833Y203356D01*
X-35289Y203660D01*
X-35827Y203767D01*
D02*
G37*
G36*
X205020Y201602D02*
X204482Y201495D01*
X204026Y201190D01*
X203722Y200734D01*
X203615Y200197D01*
X203722Y199659D01*
X204026Y199203D01*
X204482Y198899D01*
X205020Y198792D01*
X205557Y198899D01*
X206013Y199203D01*
X206318Y199659D01*
X206425Y200197D01*
X206318Y200734D01*
X206013Y201190D01*
X205557Y201495D01*
X205020Y201602D01*
D02*
G37*
G36*
X-18602Y199830D02*
X-19140Y199723D01*
X-19596Y199419D01*
X-19900Y198963D01*
X-20007Y198425D01*
X-19900Y197888D01*
X-19596Y197432D01*
X-19140Y197127D01*
X-18602Y197020D01*
X-18065Y197127D01*
X-17609Y197432D01*
X-17304Y197888D01*
X-17197Y198425D01*
X-17304Y198963D01*
X-17609Y199419D01*
X-18065Y199723D01*
X-18602Y199830D01*
D02*
G37*
G36*
X103474Y204577D02*
X95896D01*
Y196998D01*
X103474D01*
Y204577D01*
D02*
G37*
G36*
X178543Y194122D02*
X178006Y194015D01*
X177550Y193710D01*
X177245Y193254D01*
X177138Y192717D01*
X177245Y192179D01*
X177550Y191723D01*
X178006Y191419D01*
X178543Y191312D01*
X179081Y191419D01*
X179537Y191723D01*
X179841Y192179D01*
X179948Y192717D01*
X179841Y193254D01*
X179537Y193710D01*
X179081Y194015D01*
X178543Y194122D01*
D02*
G37*
G36*
X-17689Y191169D02*
X-18227Y191062D01*
X-18683Y190757D01*
X-18988Y190301D01*
X-19094Y189764D01*
X-18988Y189226D01*
X-18683Y188770D01*
X-18227Y188466D01*
X-17689Y188359D01*
X-17152Y188466D01*
X-16696Y188770D01*
X-16391Y189226D01*
X-16285Y189764D01*
X-16391Y190301D01*
X-16696Y190757D01*
X-17152Y191062D01*
X-17689Y191169D01*
D02*
G37*
G36*
X-5315Y249830D02*
X-5853Y249723D01*
X-6308Y249419D01*
X-6613Y248963D01*
X-6720Y248425D01*
X-6613Y247888D01*
X-6559Y247807D01*
Y186909D01*
X-6465Y186433D01*
X-6195Y186030D01*
X-5057Y184892D01*
X-5038Y184797D01*
X-4734Y184341D01*
X-4278Y184037D01*
X-3740Y183930D01*
X-3202Y184037D01*
X-2747Y184341D01*
X-2442Y184797D01*
X-2335Y185335D01*
X-2442Y185872D01*
X-2747Y186328D01*
X-3202Y186633D01*
X-3297Y186652D01*
X-4071Y187425D01*
Y247807D01*
X-4017Y247888D01*
X-3910Y248425D01*
X-4017Y248963D01*
X-4321Y249419D01*
X-4777Y249723D01*
X-5315Y249830D01*
D02*
G37*
G36*
X151299Y183295D02*
X150761Y183188D01*
X150306Y182883D01*
X150001Y182427D01*
X149894Y181890D01*
X150001Y181352D01*
X150306Y180896D01*
X150761Y180592D01*
X151299Y180485D01*
X151837Y180592D01*
X152293Y180896D01*
X152597Y181352D01*
X152704Y181890D01*
X152597Y182427D01*
X152293Y182883D01*
X151837Y183188D01*
X151299Y183295D01*
D02*
G37*
G36*
X173917Y182704D02*
X173380Y182597D01*
X172924Y182293D01*
X172619Y181837D01*
X172512Y181299D01*
X172619Y180762D01*
X172924Y180306D01*
X173380Y180001D01*
X173917Y179894D01*
X174455Y180001D01*
X174911Y180306D01*
X175215Y180762D01*
X175322Y181299D01*
X175215Y181837D01*
X174911Y182293D01*
X174455Y182597D01*
X173917Y182704D01*
D02*
G37*
G36*
X193012Y278177D02*
X192474Y278070D01*
X192018Y277765D01*
X191714Y277309D01*
X191607Y276772D01*
X191714Y276234D01*
X192018Y275778D01*
X192474Y275474D01*
X192569Y275455D01*
X209779Y258244D01*
Y187035D01*
X209726Y186955D01*
X209619Y186417D01*
X209726Y185880D01*
X209779Y185799D01*
Y179907D01*
X209279Y179755D01*
X209216Y179850D01*
X208760Y180155D01*
X208222Y180262D01*
X207684Y180155D01*
X207229Y179850D01*
X206924Y179395D01*
X206817Y178857D01*
X206924Y178319D01*
X207122Y178024D01*
Y114189D01*
X206660Y113998D01*
X206140Y114518D01*
X206121Y114612D01*
X205816Y115068D01*
X205361Y115373D01*
X204823Y115480D01*
X204285Y115373D01*
X203829Y115068D01*
X203525Y114612D01*
X203418Y114075D01*
X203525Y113537D01*
X203829Y113081D01*
X204285Y112777D01*
X204380Y112758D01*
X207122Y110016D01*
Y28571D01*
X207068Y28490D01*
X206961Y27953D01*
X207068Y27415D01*
X207373Y26959D01*
X207828Y26655D01*
X208366Y26548D01*
X208904Y26655D01*
X209360Y26959D01*
X209664Y27415D01*
X209771Y27953D01*
X209664Y28490D01*
X209611Y28571D01*
Y108543D01*
X210110Y108695D01*
X210144Y108645D01*
X211035Y107753D01*
X211054Y107658D01*
X211359Y107203D01*
X211815Y106898D01*
X212352Y106791D01*
X212890Y106898D01*
X213346Y107203D01*
X213650Y107658D01*
X213757Y108196D01*
X213650Y108734D01*
X213346Y109189D01*
X212890Y109494D01*
X212795Y109513D01*
X212268Y110040D01*
Y185799D01*
X212322Y185880D01*
X212429Y186417D01*
X212322Y186955D01*
X212268Y187035D01*
Y258760D01*
X212173Y259236D01*
X211904Y259640D01*
X194329Y277215D01*
X194310Y277309D01*
X194005Y277765D01*
X193550Y278070D01*
X193012Y278177D01*
D02*
G37*
G36*
X55315Y182212D02*
X54777Y182105D01*
X54321Y181800D01*
X54017Y181345D01*
X53910Y180807D01*
X54017Y180269D01*
X54321Y179814D01*
X54777Y179509D01*
X55315Y179402D01*
X55853Y179509D01*
X56308Y179814D01*
X56613Y180269D01*
X56720Y180807D01*
X56613Y181345D01*
X56308Y181800D01*
X55853Y182105D01*
X55315Y182212D01*
D02*
G37*
G36*
X-10772Y250589D02*
X-11309Y250482D01*
X-11765Y250178D01*
X-12070Y249722D01*
X-12176Y249184D01*
X-12070Y248647D01*
X-11765Y248191D01*
X-11459Y247987D01*
X-9807Y246335D01*
Y183760D01*
X-9713Y183284D01*
X-9443Y182880D01*
X-6927Y180364D01*
X-6908Y180269D01*
X-6604Y179814D01*
X-6148Y179509D01*
X-5610Y179402D01*
X-5073Y179509D01*
X-4617Y179814D01*
X-4312Y180269D01*
X-4205Y180807D01*
X-4312Y181345D01*
X-4617Y181800D01*
X-5073Y182105D01*
X-5167Y182124D01*
X-7319Y184275D01*
Y246850D01*
X-7413Y247327D01*
X-7683Y247730D01*
X-9424Y249471D01*
X-9473Y249722D01*
X-9778Y250178D01*
X-10234Y250482D01*
X-10772Y250589D01*
D02*
G37*
G36*
X-38701Y173452D02*
X-39238Y173345D01*
X-39694Y173041D01*
X-39999Y172585D01*
X-40106Y172047D01*
X-39999Y171510D01*
X-39694Y171054D01*
X-39238Y170749D01*
X-38701Y170642D01*
X-38163Y170749D01*
X-37707Y171054D01*
X-37403Y171510D01*
X-37296Y172047D01*
X-37403Y172585D01*
X-37707Y173041D01*
X-38163Y173345D01*
X-38701Y173452D01*
D02*
G37*
G36*
X162303Y167940D02*
X161766Y167833D01*
X161310Y167529D01*
X161005Y167073D01*
X160898Y166535D01*
X161005Y165998D01*
X161310Y165542D01*
X161766Y165237D01*
X162303Y165130D01*
X162841Y165237D01*
X163297Y165542D01*
X163601Y165998D01*
X163708Y166535D01*
X163601Y167073D01*
X163297Y167529D01*
X162841Y167833D01*
X162303Y167940D01*
D02*
G37*
G36*
X171653Y165480D02*
X171116Y165373D01*
X170660Y165068D01*
X170355Y164612D01*
X170249Y164075D01*
X170355Y163537D01*
X170660Y163081D01*
X171116Y162777D01*
X171653Y162670D01*
X172191Y162777D01*
X172647Y163081D01*
X172951Y163537D01*
X173058Y164075D01*
X172951Y164612D01*
X172647Y165068D01*
X172191Y165373D01*
X171653Y165480D01*
D02*
G37*
G36*
X173622Y225957D02*
X173551D01*
X172921Y225832D01*
X172387Y225475D01*
X172030Y224941D01*
X171905Y224311D01*
X172030Y223681D01*
X172387Y223147D01*
X172601Y223004D01*
X184772Y210834D01*
Y165748D01*
X184897Y165118D01*
X185254Y164584D01*
X189584Y160254D01*
X190118Y159897D01*
X190748Y159772D01*
X191378Y159897D01*
X191912Y160254D01*
X192269Y160787D01*
X192394Y161417D01*
X192269Y162047D01*
X191912Y162581D01*
X188063Y166430D01*
Y211516D01*
X187938Y212146D01*
X187581Y212680D01*
X174786Y225475D01*
X174252Y225832D01*
X173622Y225957D01*
D02*
G37*
G36*
X9941Y160755D02*
X9403Y160648D01*
X8947Y160344D01*
X8643Y159888D01*
X8536Y159350D01*
X8643Y158813D01*
X8947Y158357D01*
X9403Y158052D01*
X9941Y157945D01*
X10479Y158052D01*
X10934Y158357D01*
X11239Y158813D01*
X11346Y159350D01*
X11239Y159888D01*
X10934Y160344D01*
X10479Y160648D01*
X9941Y160755D01*
D02*
G37*
G36*
X-36732Y159397D02*
X-37270Y159290D01*
X-37726Y158986D01*
X-38030Y158530D01*
X-38137Y157992D01*
X-38030Y157455D01*
X-37726Y156999D01*
X-37270Y156694D01*
X-36732Y156587D01*
X-36195Y156694D01*
X-35739Y156999D01*
X-35434Y157455D01*
X-35327Y157992D01*
X-35434Y158530D01*
X-35739Y158986D01*
X-36195Y159290D01*
X-36732Y159397D01*
D02*
G37*
G36*
X-31220Y158177D02*
X-31758Y158070D01*
X-32214Y157765D01*
X-32519Y157309D01*
X-32625Y156772D01*
X-32519Y156234D01*
X-32214Y155778D01*
X-31758Y155474D01*
X-31220Y155367D01*
X-30683Y155474D01*
X-30227Y155778D01*
X-29923Y156234D01*
X-29816Y156772D01*
X-29923Y157309D01*
X-30227Y157765D01*
X-30683Y158070D01*
X-31220Y158177D01*
D02*
G37*
G36*
X-11943Y154856D02*
X-12481Y154749D01*
X-12936Y154444D01*
X-13241Y153988D01*
X-13348Y153451D01*
X-13241Y152913D01*
X-12936Y152457D01*
X-12481Y152153D01*
X-11943Y152046D01*
X-11406Y152153D01*
X-10950Y152457D01*
X-10645Y152913D01*
X-10538Y153451D01*
X-10645Y153988D01*
X-10950Y154444D01*
X-11406Y154749D01*
X-11943Y154856D01*
D02*
G37*
G36*
X-31496Y146287D02*
X-32034Y146180D01*
X-32489Y145875D01*
X-32794Y145420D01*
X-32901Y144882D01*
X-32794Y144344D01*
X-32489Y143888D01*
X-32034Y143584D01*
X-31496Y143477D01*
X-30958Y143584D01*
X-30503Y143888D01*
X-30198Y144344D01*
X-30091Y144882D01*
X-30198Y145420D01*
X-30503Y145875D01*
X-30958Y146180D01*
X-31496Y146287D01*
D02*
G37*
G36*
X-37008Y132507D02*
X-37545Y132400D01*
X-38001Y132096D01*
X-38306Y131640D01*
X-38413Y131102D01*
X-38306Y130565D01*
X-38001Y130109D01*
X-37545Y129804D01*
X-37008Y129697D01*
X-36470Y129804D01*
X-36014Y130109D01*
X-35710Y130565D01*
X-35603Y131102D01*
X-35710Y131640D01*
X-36014Y132096D01*
X-36470Y132400D01*
X-37008Y132507D01*
D02*
G37*
G36*
X-2756Y133688D02*
X-3294Y133581D01*
X-3749Y133277D01*
X-4054Y132821D01*
X-4161Y132283D01*
X-4054Y131746D01*
X-3749Y131290D01*
X-3294Y130985D01*
X-3037Y130934D01*
X-2809Y130397D01*
X-2952Y130183D01*
X-3059Y129646D01*
X-2952Y129108D01*
X-2647Y128652D01*
X-2191Y128348D01*
X-1654Y128241D01*
X-1116Y128348D01*
X-660Y128652D01*
X-356Y129108D01*
X-249Y129646D01*
X-356Y130183D01*
X-660Y130639D01*
X-1116Y130944D01*
X-1373Y130995D01*
X-1601Y131532D01*
X-1458Y131746D01*
X-1351Y132283D01*
X-1458Y132821D01*
X-1763Y133277D01*
X-2218Y133581D01*
X-2756Y133688D01*
D02*
G37*
G36*
X2835Y129003D02*
X2297Y128896D01*
X1841Y128592D01*
X1537Y128136D01*
X1430Y127598D01*
X1537Y127061D01*
X1841Y126605D01*
X2297Y126300D01*
X2835Y126193D01*
X3372Y126300D01*
X3828Y126605D01*
X4133Y127061D01*
X4240Y127598D01*
X4133Y128136D01*
X3828Y128592D01*
X3372Y128896D01*
X2835Y129003D01*
D02*
G37*
G36*
X101772Y189003D02*
X101234Y188896D01*
X100778Y188592D01*
X100474Y188136D01*
X100367Y187598D01*
X100474Y187061D01*
X100565Y186924D01*
Y127583D01*
X100512Y127502D01*
X100405Y126965D01*
X100512Y126427D01*
X100816Y125971D01*
X101272Y125667D01*
X101810Y125560D01*
X102347Y125667D01*
X102803Y125971D01*
X103108Y126427D01*
X103215Y126965D01*
X103108Y127502D01*
X103054Y127583D01*
Y187037D01*
X103070Y187061D01*
X103177Y187598D01*
X103070Y188136D01*
X102765Y188592D01*
X102309Y188896D01*
X101772Y189003D01*
D02*
G37*
G36*
X-22778Y121186D02*
X-23316Y121079D01*
X-23772Y120774D01*
X-24076Y120318D01*
X-24183Y119781D01*
X-24076Y119243D01*
X-23772Y118787D01*
X-23316Y118483D01*
X-22778Y118376D01*
X-22241Y118483D01*
X-21785Y118787D01*
X-21480Y119243D01*
X-21373Y119781D01*
X-21480Y120318D01*
X-21785Y120774D01*
X-22241Y121079D01*
X-22778Y121186D01*
D02*
G37*
G36*
X94656Y185092D02*
X94118Y184985D01*
X93662Y184681D01*
X93358Y184225D01*
X93251Y183687D01*
X93358Y183150D01*
X93662Y182694D01*
X94118Y182389D01*
X94567Y182300D01*
X95216Y181651D01*
Y124016D01*
X95216Y124016D01*
X95296Y123616D01*
X95522Y123278D01*
X99695Y119104D01*
X99785Y118655D01*
X100089Y118200D01*
X100545Y117895D01*
X101083Y117788D01*
X101620Y117895D01*
X102076Y118200D01*
X102381Y118655D01*
X102488Y119193D01*
X102381Y119731D01*
X102076Y120186D01*
X101620Y120491D01*
X101171Y120580D01*
X97303Y124448D01*
Y182083D01*
X97303Y182083D01*
X97224Y182482D01*
X96998Y182821D01*
X96043Y183776D01*
X95954Y184225D01*
X95649Y184681D01*
X95193Y184985D01*
X94656Y185092D01*
D02*
G37*
G36*
X-4724Y114988D02*
X-5262Y114881D01*
X-5718Y114576D01*
X-6022Y114120D01*
X-6129Y113583D01*
X-6022Y113045D01*
X-5718Y112589D01*
X-5262Y112285D01*
X-4724Y112178D01*
X-4187Y112285D01*
X-3731Y112589D01*
X-3426Y113045D01*
X-3320Y113583D01*
X-3426Y114120D01*
X-3731Y114576D01*
X-4187Y114881D01*
X-4724Y114988D01*
D02*
G37*
G36*
X3150Y116070D02*
X2612Y115963D01*
X2156Y115659D01*
X1852Y115203D01*
X1745Y114665D01*
X1852Y114128D01*
X2156Y113672D01*
X2612Y113367D01*
X3061Y113278D01*
X3164Y113238D01*
X3438Y112808D01*
X3391Y112572D01*
X3498Y112034D01*
X3803Y111578D01*
X4258Y111274D01*
X4796Y111167D01*
X5334Y111274D01*
X5790Y111578D01*
X6094Y112034D01*
X6201Y112572D01*
X6094Y113109D01*
X5790Y113565D01*
X5334Y113870D01*
X4885Y113959D01*
X4782Y113999D01*
X4507Y114429D01*
X4555Y114665D01*
X4448Y115203D01*
X4143Y115659D01*
X3687Y115963D01*
X3150Y116070D01*
D02*
G37*
G36*
X-4232Y111149D02*
X-4770Y111042D01*
X-5226Y110738D01*
X-5530Y110282D01*
X-5637Y109744D01*
X-5530Y109206D01*
X-5226Y108751D01*
X-4770Y108446D01*
X-4232Y108339D01*
X-3695Y108446D01*
X-3239Y108751D01*
X-2934Y109206D01*
X-2827Y109744D01*
X-2934Y110282D01*
X-3239Y110738D01*
X-3695Y111042D01*
X-4232Y111149D01*
D02*
G37*
G36*
X46949Y110460D02*
X46411Y110353D01*
X45955Y110049D01*
X45651Y109593D01*
X45544Y109055D01*
X45651Y108518D01*
X45955Y108062D01*
X46411Y107757D01*
X46949Y107650D01*
X47486Y107757D01*
X47942Y108062D01*
X48247Y108518D01*
X48354Y109055D01*
X48247Y109593D01*
X47942Y110049D01*
X47486Y110353D01*
X46949Y110460D01*
D02*
G37*
G36*
X66754Y108688D02*
X66216Y108581D01*
X65760Y108277D01*
X65456Y107821D01*
X65349Y107283D01*
X65456Y106746D01*
X65760Y106290D01*
X66216Y105985D01*
X66754Y105878D01*
X67292Y105985D01*
X67747Y106290D01*
X68052Y106746D01*
X68159Y107283D01*
X68052Y107821D01*
X67747Y108277D01*
X67292Y108581D01*
X66754Y108688D01*
D02*
G37*
G36*
X2079Y108784D02*
X1541Y108677D01*
X1085Y108373D01*
X781Y107917D01*
X674Y107379D01*
X197Y107215D01*
X-242Y107128D01*
X-698Y106824D01*
X-1003Y106368D01*
X-1110Y105830D01*
X-1003Y105293D01*
X-698Y104837D01*
X-242Y104532D01*
X295Y104425D01*
X833Y104532D01*
X1289Y104837D01*
X1593Y105293D01*
X1700Y105830D01*
X2177Y105994D01*
X2616Y106081D01*
X3072Y106386D01*
X3377Y106842D01*
X3484Y107379D01*
X3377Y107917D01*
X3072Y108373D01*
X2616Y108677D01*
X2079Y108784D01*
D02*
G37*
G36*
X13091Y105539D02*
X12553Y105432D01*
X12097Y105127D01*
X11793Y104672D01*
X11686Y104134D01*
X11793Y103596D01*
X12097Y103140D01*
X12553Y102836D01*
X13091Y102729D01*
X13628Y102836D01*
X14084Y103140D01*
X14389Y103596D01*
X14495Y104134D01*
X14389Y104672D01*
X14084Y105127D01*
X13628Y105432D01*
X13091Y105539D01*
D02*
G37*
G36*
X75208Y96143D02*
X74670Y96036D01*
X74214Y95732D01*
X73909Y95276D01*
X73803Y94738D01*
X73909Y94201D01*
X74214Y93745D01*
X74670Y93440D01*
X75208Y93333D01*
X75745Y93440D01*
X76201Y93745D01*
X76506Y94201D01*
X76612Y94738D01*
X76506Y95276D01*
X76201Y95732D01*
X75745Y96036D01*
X75208Y96143D01*
D02*
G37*
G36*
X103474Y91388D02*
X95896D01*
Y83809D01*
X103474D01*
Y91388D01*
D02*
G37*
G36*
X167618Y104599D02*
X166988Y104473D01*
X166454Y104116D01*
X166098Y103583D01*
X165972Y102953D01*
Y94488D01*
X166098Y93858D01*
X166454Y93324D01*
X189191Y70588D01*
X189725Y70231D01*
X190354Y70106D01*
X190984Y70231D01*
X191518Y70588D01*
X191875Y71122D01*
X192000Y71752D01*
X191875Y72382D01*
X191518Y72916D01*
X169264Y95170D01*
Y102953D01*
X169139Y103583D01*
X168782Y104116D01*
X168248Y104473D01*
X167618Y104599D01*
D02*
G37*
G36*
X172146Y68531D02*
X171608Y68424D01*
X171152Y68119D01*
X170848Y67664D01*
X170741Y67126D01*
X170848Y66588D01*
X171152Y66132D01*
X171608Y65828D01*
X172146Y65721D01*
X172683Y65828D01*
X173139Y66132D01*
X173444Y66588D01*
X173551Y67126D01*
X173444Y67664D01*
X173139Y68119D01*
X172683Y68424D01*
X172146Y68531D01*
D02*
G37*
G36*
X88954Y65969D02*
X88416Y65862D01*
X87960Y65557D01*
X87656Y65101D01*
X87549Y64564D01*
X87656Y64026D01*
X87960Y63570D01*
X88416Y63266D01*
X88954Y63159D01*
X89491Y63266D01*
X89947Y63570D01*
X90252Y64026D01*
X90359Y64564D01*
X90252Y65101D01*
X89947Y65557D01*
X89491Y65862D01*
X88954Y65969D01*
D02*
G37*
G36*
X173327Y55342D02*
X172789Y55235D01*
X172333Y54931D01*
X172029Y54475D01*
X171922Y53937D01*
X172029Y53399D01*
X172333Y52944D01*
X172789Y52639D01*
X173327Y52532D01*
X173864Y52639D01*
X174320Y52944D01*
X174625Y53399D01*
X174732Y53937D01*
X174625Y54475D01*
X174320Y54931D01*
X173864Y55235D01*
X173327Y55342D01*
D02*
G37*
G36*
X81801Y53294D02*
X81263Y53187D01*
X80807Y52882D01*
X80503Y52426D01*
X80396Y51889D01*
X80503Y51351D01*
X80807Y50895D01*
X81263Y50591D01*
X81801Y50484D01*
X82338Y50591D01*
X82794Y50895D01*
X83099Y51351D01*
X83206Y51889D01*
X83099Y52426D01*
X82794Y52882D01*
X82338Y53187D01*
X81801Y53294D01*
D02*
G37*
G36*
X101083Y75716D02*
X100545Y75609D01*
X100089Y75305D01*
X99785Y74849D01*
X99678Y74311D01*
X99785Y73773D01*
X99789Y73767D01*
Y42916D01*
X99686Y42762D01*
X99579Y42224D01*
X99686Y41687D01*
X99991Y41231D01*
X100447Y40926D01*
X100984Y40819D01*
X101522Y40926D01*
X101978Y41231D01*
X102282Y41687D01*
X102389Y42224D01*
X102282Y42762D01*
X102278Y42769D01*
Y73620D01*
X102381Y73773D01*
X102488Y74311D01*
X102381Y74849D01*
X102076Y75305D01*
X101620Y75609D01*
X101083Y75716D01*
D02*
G37*
G36*
X105610Y299386D02*
X104904Y299245D01*
X104305Y298845D01*
X103904Y298246D01*
X103764Y297539D01*
X103904Y296833D01*
X104305Y296234D01*
X104354Y296184D01*
Y158703D01*
X104298Y158619D01*
X104157Y157913D01*
X104298Y157206D01*
X104354Y157122D01*
Y42520D01*
X104495Y41813D01*
X104895Y41214D01*
X105494Y40814D01*
X106201Y40673D01*
X106907Y40814D01*
X107507Y41214D01*
X107907Y41813D01*
X108047Y42520D01*
Y157716D01*
X108008Y157913D01*
X108047Y158109D01*
Y296949D01*
X107907Y297655D01*
X107507Y298254D01*
X106916Y298845D01*
X106317Y299245D01*
X105610Y299386D01*
D02*
G37*
G36*
X19213Y37667D02*
X18339Y37552D01*
X17525Y37214D01*
X16826Y36678D01*
X16289Y35979D01*
X15952Y35165D01*
X15837Y34291D01*
X15952Y33418D01*
X16289Y32604D01*
X16826Y31905D01*
X17525Y31368D01*
X18339Y31031D01*
X19213Y30916D01*
X20086Y31031D01*
X20900Y31368D01*
X21599Y31905D01*
X22136Y32604D01*
X22473Y33418D01*
X22588Y34291D01*
X22473Y35165D01*
X22136Y35979D01*
X21599Y36678D01*
X20900Y37214D01*
X20086Y37552D01*
X19213Y37667D01*
D02*
G37*
G36*
X202461Y164102D02*
X201923Y163995D01*
X201467Y163690D01*
X201163Y163234D01*
X201144Y163140D01*
X200301Y162297D01*
X200031Y161893D01*
X199937Y161417D01*
Y27722D01*
X199983Y27490D01*
Y27119D01*
X199993Y27069D01*
X199973Y26969D01*
X200080Y26431D01*
X200384Y25975D01*
X200840Y25670D01*
X201378Y25564D01*
X201916Y25670D01*
X202371Y25975D01*
X202676Y26431D01*
X202783Y26969D01*
X202676Y27506D01*
X202433Y27869D01*
X202426Y27908D01*
Y160902D01*
X202904Y161380D01*
X202998Y161399D01*
X203454Y161703D01*
X203759Y162159D01*
X203866Y162697D01*
X203759Y163234D01*
X203454Y163690D01*
X202998Y163995D01*
X202461Y164102D01*
D02*
G37*
G36*
X19713Y27708D02*
Y24791D01*
X22629D01*
X22577Y25193D01*
X22229Y26033D01*
X21675Y26754D01*
X20954Y27307D01*
X20114Y27655D01*
X19713Y27708D01*
D02*
G37*
G36*
X18713D02*
X18311Y27655D01*
X17471Y27307D01*
X16750Y26754D01*
X16197Y26033D01*
X15849Y25193D01*
X15796Y24791D01*
X18713D01*
Y27708D01*
D02*
G37*
G36*
X22629Y23791D02*
X19713D01*
Y20875D01*
X20114Y20928D01*
X20954Y21275D01*
X21675Y21829D01*
X22229Y22550D01*
X22577Y23390D01*
X22629Y23791D01*
D02*
G37*
G36*
X18713D02*
X15796D01*
X15849Y23390D01*
X16197Y22550D01*
X16750Y21829D01*
X17471Y21275D01*
X18311Y20928D01*
X18713Y20875D01*
Y23791D01*
D02*
G37*
G36*
X83169Y17743D02*
X82632Y17637D01*
X82176Y17332D01*
X81871Y16876D01*
X81764Y16339D01*
X81871Y15801D01*
X82176Y15345D01*
X82632Y15041D01*
X83169Y14934D01*
X83707Y15041D01*
X84163Y15345D01*
X84467Y15801D01*
X84574Y16339D01*
X84467Y16876D01*
X84163Y17332D01*
X83707Y17637D01*
X83169Y17743D01*
D02*
G37*
%LPD*%
G36*
X112589Y383268D02*
X112506Y383265D01*
X112426Y383255D01*
X112346Y383238D01*
X112267Y383214D01*
X112190Y383182D01*
X112114Y383144D01*
X112039Y383098D01*
X111965Y383045D01*
X111893Y382985D01*
X111821Y382918D01*
X111265Y383475D01*
X111332Y383546D01*
X111392Y383619D01*
X111445Y383693D01*
X111490Y383768D01*
X111529Y383844D01*
X111560Y383921D01*
X111584Y383999D01*
X111602Y384079D01*
X111611Y384160D01*
X111614Y384242D01*
X112589Y383268D01*
D02*
G37*
G36*
X114320Y380993D02*
X114238Y380991D01*
X114157Y380981D01*
X114077Y380964D01*
X113999Y380940D01*
X113922Y380908D01*
X113846Y380870D01*
X113771Y380824D01*
X113697Y380771D01*
X113624Y380711D01*
X113553Y380644D01*
X112996Y381201D01*
X113063Y381272D01*
X113123Y381345D01*
X113176Y381418D01*
X113222Y381493D01*
X113260Y381569D01*
X113292Y381647D01*
X113316Y381725D01*
X113333Y381805D01*
X113343Y381886D01*
X113346Y381968D01*
X114320Y380993D01*
D02*
G37*
G36*
X117494Y375493D02*
X117412Y375490D01*
X117331Y375480D01*
X117251Y375463D01*
X117173Y375439D01*
X117096Y375407D01*
X117019Y375369D01*
X116945Y375323D01*
X116871Y375270D01*
X116798Y375210D01*
X116727Y375143D01*
X116170Y375700D01*
X116237Y375771D01*
X116297Y375844D01*
X116350Y375917D01*
X116396Y375992D01*
X116434Y376068D01*
X116466Y376146D01*
X116490Y376224D01*
X116507Y376304D01*
X116517Y376385D01*
X116520Y376467D01*
X117494Y375493D01*
D02*
G37*
G36*
X119334Y373056D02*
X119283Y372992D01*
X119239Y372923D01*
X119201Y372851D01*
X119168Y372774D01*
X119142Y372693D01*
X119121Y372607D01*
X119106Y372518D01*
X119097Y372424D01*
X119095Y372326D01*
X118307D01*
X118304Y372424D01*
X118295Y372518D01*
X118280Y372607D01*
X118260Y372693D01*
X118233Y372774D01*
X118201Y372851D01*
X118162Y372923D01*
X118118Y372992D01*
X118068Y373056D01*
X118012Y373116D01*
X119390D01*
X119334Y373056D01*
D02*
G37*
G36*
X112800Y382507D02*
X112858Y381982D01*
X84970Y354093D01*
X84469Y354286D01*
X84432Y354609D01*
X112416Y382593D01*
X112800Y382507D01*
D02*
G37*
G36*
X117362Y374152D02*
X117296Y373819D01*
X117403Y373281D01*
X117657Y372901D01*
Y371987D01*
X91526Y345856D01*
X91064Y346047D01*
Y348561D01*
X116901Y374398D01*
X117362Y374152D01*
D02*
G37*
G36*
X95672Y295184D02*
X95682Y295103D01*
X95699Y295023D01*
X95723Y294945D01*
X95755Y294867D01*
X95793Y294791D01*
X95839Y294716D01*
X95892Y294642D01*
X95952Y294570D01*
X96019Y294498D01*
X95462Y293942D01*
X95391Y294009D01*
X95318Y294069D01*
X95244Y294122D01*
X95170Y294167D01*
X95093Y294206D01*
X95016Y294237D01*
X94938Y294262D01*
X94858Y294279D01*
X94777Y294289D01*
X94695Y294291D01*
X95669Y295266D01*
X95672Y295184D01*
D02*
G37*
G36*
X93802Y199918D02*
X93811Y199825D01*
X93826Y199735D01*
X93846Y199650D01*
X93873Y199569D01*
X93906Y199492D01*
X93944Y199419D01*
X93988Y199351D01*
X94038Y199286D01*
X94095Y199226D01*
X92716D01*
X92773Y199286D01*
X92823Y199351D01*
X92867Y199419D01*
X92905Y199492D01*
X92938Y199569D01*
X92965Y199650D01*
X92985Y199735D01*
X93000Y199825D01*
X93009Y199918D01*
X93012Y200016D01*
X93799D01*
X93802Y199918D01*
D02*
G37*
G36*
X87221Y189856D02*
X87177Y189787D01*
X87137Y189715D01*
X87103Y189639D01*
X87074Y189559D01*
X87050Y189477D01*
X87032Y189390D01*
X87018Y189300D01*
X87011Y189206D01*
X87008Y189108D01*
X86221Y189022D01*
X86217Y189120D01*
X86208Y189214D01*
X86192Y189302D01*
X86169Y189386D01*
X86141Y189464D01*
X86105Y189538D01*
X86064Y189607D01*
X86016Y189671D01*
X85961Y189729D01*
X85900Y189783D01*
X87272Y189921D01*
X87221Y189856D01*
D02*
G37*
G36*
X87011Y164620D02*
X87021Y164526D01*
X87037Y164438D01*
X87059Y164354D01*
X87088Y164276D01*
X87123Y164202D01*
X87165Y164133D01*
X87213Y164070D01*
X87267Y164011D01*
X87328Y163957D01*
X85957Y163820D01*
X86007Y163884D01*
X86052Y163953D01*
X86091Y164025D01*
X86125Y164101D01*
X86155Y164181D01*
X86178Y164264D01*
X86197Y164350D01*
X86210Y164441D01*
X86218Y164534D01*
X86221Y164632D01*
X87008Y164718D01*
X87011Y164620D01*
D02*
G37*
G36*
X87345Y162426D02*
X87295Y162362D01*
X87251Y162294D01*
X87213Y162221D01*
X87180Y162144D01*
X87154Y162063D01*
X87133Y161978D01*
X87118Y161888D01*
X87109Y161794D01*
X87106Y161696D01*
X86319D01*
X86316Y161794D01*
X86307Y161888D01*
X86292Y161978D01*
X86272Y162063D01*
X86245Y162144D01*
X86213Y162221D01*
X86174Y162294D01*
X86130Y162362D01*
X86080Y162426D01*
X86024Y162486D01*
X87402D01*
X87345Y162426D01*
D02*
G37*
G36*
X87110Y131593D02*
X87120Y131500D01*
X87138Y131415D01*
X87162Y131338D01*
X87194Y131268D01*
X87232Y131207D01*
X87278Y131153D01*
X87331Y131107D01*
X87390Y131069D01*
X87457Y131038D01*
X86195Y130490D01*
X86218Y130552D01*
X86239Y130619D01*
X86274Y130765D01*
X86288Y130844D01*
X86308Y131014D01*
X86318Y131200D01*
X86319Y131299D01*
X87106Y131693D01*
X87110Y131593D01*
D02*
G37*
G36*
X88957Y129896D02*
X88977Y129840D01*
Y118244D01*
X88045Y117313D01*
X87096D01*
X87053Y117341D01*
X86516Y117448D01*
X86288Y117403D01*
X85788Y117770D01*
Y128780D01*
X86288Y129008D01*
X86569Y128820D01*
X87106Y128713D01*
X87644Y128820D01*
X88100Y129125D01*
X88404Y129580D01*
X88451Y129818D01*
X88477Y129943D01*
X88957Y129896D01*
D02*
G37*
G36*
X87110Y116835D02*
X87182Y116799D01*
X87257Y116767D01*
X87335Y116739D01*
X87417Y116716D01*
X87501Y116697D01*
X87589Y116682D01*
X87774Y116665D01*
X87871Y116663D01*
X88076Y115876D01*
X87977Y115872D01*
X87884Y115862D01*
X87797Y115845D01*
X87716Y115821D01*
X87641Y115790D01*
X87572Y115753D01*
X87509Y115708D01*
X87453Y115657D01*
X87402Y115599D01*
X87358Y115534D01*
X87042Y116875D01*
X87110Y116835D01*
D02*
G37*
G36*
X87850Y111819D02*
X87782Y111748D01*
X87722Y111675D01*
X87669Y111601D01*
X87624Y111527D01*
X87585Y111451D01*
X87554Y111373D01*
X87530Y111295D01*
X87513Y111215D01*
X87503Y111134D01*
X87500Y111052D01*
X86526Y112026D01*
X86608Y112029D01*
X86689Y112039D01*
X86768Y112056D01*
X86847Y112080D01*
X86924Y112112D01*
X87000Y112150D01*
X87075Y112196D01*
X87149Y112249D01*
X87221Y112309D01*
X87293Y112376D01*
X87850Y111819D01*
D02*
G37*
G36*
X68873Y79471D02*
X68937Y79421D01*
X69006Y79377D01*
X69078Y79339D01*
X69155Y79306D01*
X69236Y79280D01*
X69322Y79259D01*
X69411Y79244D01*
X69505Y79235D01*
X69603Y79232D01*
Y78445D01*
X69505Y78442D01*
X69411Y78433D01*
X69322Y78418D01*
X69236Y78398D01*
X69155Y78371D01*
X69078Y78339D01*
X69006Y78300D01*
X68937Y78256D01*
X68873Y78206D01*
X68813Y78150D01*
Y79528D01*
X68873Y79471D01*
D02*
G37*
G36*
X68396Y72234D02*
X68460Y72184D01*
X68529Y72140D01*
X68602Y72101D01*
X68678Y72069D01*
X68759Y72042D01*
X68845Y72022D01*
X68934Y72007D01*
X69028Y71998D01*
X69126Y71995D01*
Y71207D01*
X69028Y71205D01*
X68934Y71196D01*
X68845Y71181D01*
X68759Y71160D01*
X68678Y71134D01*
X68602Y71101D01*
X68529Y71063D01*
X68460Y71019D01*
X68396Y70968D01*
X68336Y70912D01*
Y72290D01*
X68396Y72234D01*
D02*
G37*
G36*
X35992Y334086D02*
X35746Y333626D01*
X35630Y333649D01*
X34708Y333465D01*
X33927Y332943D01*
X33405Y332162D01*
X33221Y331240D01*
X33405Y330318D01*
X33927Y329537D01*
X34708Y329015D01*
X35630Y328832D01*
X36552Y329015D01*
X37333Y329537D01*
X37855Y330318D01*
X38038Y331240D01*
X38015Y331356D01*
X38476Y331603D01*
X41142Y328937D01*
Y42421D01*
X41240Y42323D01*
Y12992D01*
X36417D01*
Y30709D01*
X24705Y42421D01*
X22985D01*
Y98327D01*
X23285Y98527D01*
X23312Y98568D01*
X23913D01*
X24020Y98409D01*
X24475Y98105D01*
X25013Y97998D01*
X25551Y98105D01*
X26006Y98409D01*
X26311Y98865D01*
X26418Y99403D01*
X26311Y99940D01*
X26006Y100396D01*
X25847Y100503D01*
Y158196D01*
X25944Y158275D01*
X26613Y158173D01*
X27069Y157869D01*
X27606Y157762D01*
X28144Y157869D01*
X28600Y158173D01*
X28904Y158629D01*
X29011Y159167D01*
X28904Y159704D01*
X28624Y160125D01*
X28466Y160512D01*
Y160621D01*
X28771Y161076D01*
X28878Y161614D01*
X28771Y162152D01*
X28466Y162608D01*
X28010Y162912D01*
X27473Y163019D01*
X26935Y162912D01*
X26479Y162608D01*
X26347Y162409D01*
X25847Y162561D01*
Y219094D01*
X26331Y219371D01*
X26347Y219368D01*
X26870Y219264D01*
X27408Y219371D01*
X27863Y219676D01*
X28168Y220132D01*
X28275Y220669D01*
X28168Y221207D01*
X27863Y221663D01*
X27408Y221967D01*
X26870Y222074D01*
X26347Y221970D01*
X26331Y221968D01*
X25847Y222244D01*
Y231496D01*
X25767Y231895D01*
X25541Y232234D01*
X25541Y232234D01*
X22253Y235522D01*
X22164Y235971D01*
X21860Y236426D01*
X21404Y236731D01*
X20866Y236838D01*
X20328Y236731D01*
X19873Y236426D01*
X19568Y235971D01*
X19461Y235433D01*
X19568Y234895D01*
X19873Y234440D01*
X20328Y234135D01*
X20777Y234046D01*
X23760Y231064D01*
Y111725D01*
X23306Y111529D01*
X22985Y111791D01*
Y224161D01*
X22806Y224340D01*
Y224797D01*
X22711Y225273D01*
X22441Y225677D01*
X20510Y227608D01*
X20491Y227703D01*
X20186Y228159D01*
X19731Y228463D01*
X19193Y228570D01*
X18678Y228468D01*
X12205Y234941D01*
X1280D01*
Y246882D01*
X1740Y247339D01*
X8242Y247274D01*
X22441Y261334D01*
Y299242D01*
X22443Y299254D01*
X22441Y299265D01*
Y332776D01*
X25000Y335335D01*
X34744Y335335D01*
X35992Y334086D01*
D02*
G37*
G36*
X20434Y296346D02*
Y262171D01*
X18878Y260631D01*
X18378Y260839D01*
Y294944D01*
X19972Y296538D01*
X20434Y296346D01*
D02*
G37*
G36*
X21853Y235341D02*
X21863Y235260D01*
X21880Y235180D01*
X21904Y235102D01*
X21936Y235025D01*
X21974Y234949D01*
X22020Y234874D01*
X22073Y234800D01*
X22133Y234727D01*
X22200Y234656D01*
X21643Y234099D01*
X21572Y234166D01*
X21499Y234226D01*
X21426Y234279D01*
X21351Y234325D01*
X21274Y234364D01*
X21197Y234395D01*
X21119Y234419D01*
X21039Y234436D01*
X20958Y234446D01*
X20876Y234449D01*
X21850Y235423D01*
X21853Y235341D01*
D02*
G37*
G36*
X20181Y227125D02*
X20193Y227090D01*
X20213Y227048D01*
X20242Y227002D01*
X20278Y226950D01*
X20376Y226830D01*
X20507Y226688D01*
X20585Y226609D01*
X19750Y225773D01*
X19671Y225851D01*
X19408Y226080D01*
X19356Y226117D01*
X19310Y226145D01*
X19269Y226165D01*
X19233Y226177D01*
X19203Y226181D01*
X20177Y227155D01*
X20181Y227125D01*
D02*
G37*
G36*
X22760Y111065D02*
X23128Y110739D01*
X23154Y110724D01*
X23172Y110718D01*
X22060Y109905D01*
X22061Y109939D01*
X22054Y109979D01*
X22037Y110024D01*
X22012Y110073D01*
X21979Y110128D01*
X21936Y110187D01*
X21826Y110320D01*
X21757Y110394D01*
X21680Y110473D01*
X22680Y111144D01*
X22760Y111065D01*
D02*
G37*
G36*
X25200Y100861D02*
X25210Y100768D01*
X25227Y100680D01*
X25251Y100599D01*
X25282Y100524D01*
X25319Y100454D01*
X25363Y100391D01*
X25414Y100333D01*
X25472Y100282D01*
X25536Y100236D01*
X24190Y99942D01*
X24232Y100011D01*
X24269Y100083D01*
X24302Y100157D01*
X24330Y100236D01*
X24355Y100317D01*
X24374Y100401D01*
X24390Y100489D01*
X24401Y100580D01*
X24409Y100771D01*
X25197Y100960D01*
X25200Y100861D01*
D02*
G37*
%LPC*%
G36*
X38484Y295401D02*
X37947Y295294D01*
X37491Y294989D01*
X37186Y294534D01*
X37079Y293996D01*
X37186Y293458D01*
X37491Y293003D01*
X37947Y292698D01*
X38484Y292591D01*
X39022Y292698D01*
X39478Y293003D01*
X39782Y293458D01*
X39889Y293996D01*
X39782Y294534D01*
X39478Y294989D01*
X39022Y295294D01*
X38484Y295401D01*
D02*
G37*
G36*
X31142Y211051D02*
X30604Y210944D01*
X30148Y210639D01*
X29844Y210183D01*
X29737Y209646D01*
X29844Y209108D01*
X30148Y208652D01*
X30604Y208348D01*
X31142Y208241D01*
X31679Y208348D01*
X32135Y208652D01*
X32440Y209108D01*
X32547Y209646D01*
X32440Y210183D01*
X32135Y210639D01*
X31679Y210944D01*
X31142Y211051D01*
D02*
G37*
G36*
X32664Y93500D02*
X32126Y93393D01*
X31671Y93089D01*
X31366Y92633D01*
X31259Y92095D01*
X31366Y91558D01*
X31671Y91102D01*
X32126Y90797D01*
X32664Y90690D01*
X33202Y90797D01*
X33658Y91102D01*
X33962Y91558D01*
X34069Y92095D01*
X33962Y92633D01*
X33658Y93089D01*
X33202Y93393D01*
X32664Y93500D01*
D02*
G37*
G36*
X38878Y77586D02*
X38340Y77479D01*
X37885Y77175D01*
X37580Y76719D01*
X37473Y76181D01*
X37580Y75643D01*
X37885Y75188D01*
X38340Y74883D01*
X38878Y74776D01*
X39416Y74883D01*
X39871Y75188D01*
X40176Y75643D01*
X40283Y76181D01*
X40176Y76719D01*
X39871Y77175D01*
X39416Y77479D01*
X38878Y77586D01*
D02*
G37*
G36*
X25098Y77291D02*
X24561Y77184D01*
X24105Y76879D01*
X23800Y76424D01*
X23694Y75886D01*
X23800Y75348D01*
X24105Y74892D01*
X24561Y74588D01*
X25098Y74481D01*
X25636Y74588D01*
X26092Y74892D01*
X26396Y75348D01*
X26503Y75886D01*
X26396Y76424D01*
X26092Y76879D01*
X25636Y77184D01*
X25098Y77291D01*
D02*
G37*
G36*
X31979Y55977D02*
X31442Y55870D01*
X30986Y55566D01*
X30681Y55110D01*
X30574Y54572D01*
X30681Y54035D01*
X30986Y53579D01*
X31442Y53275D01*
X31979Y53167D01*
X32517Y53275D01*
X32973Y53579D01*
X33277Y54035D01*
X33384Y54572D01*
X33277Y55110D01*
X32973Y55566D01*
X32517Y55870D01*
X31979Y55977D01*
D02*
G37*
G36*
X38681Y39200D02*
X38144Y39093D01*
X37688Y38789D01*
X37383Y38333D01*
X37276Y37795D01*
X37383Y37258D01*
X37688Y36802D01*
X38144Y36497D01*
X38681Y36390D01*
X39219Y36497D01*
X39674Y36802D01*
X39979Y37258D01*
X40086Y37795D01*
X39979Y38333D01*
X39674Y38789D01*
X39219Y39093D01*
X38681Y39200D01*
D02*
G37*
%LPD*%
G36*
X182770Y344496D02*
X182688Y344493D01*
X182607Y344483D01*
X182528Y344466D01*
X182449Y344442D01*
X182372Y344410D01*
X182296Y344372D01*
X182221Y344326D01*
X182147Y344273D01*
X182074Y344213D01*
X182003Y344146D01*
X181446Y344703D01*
X181514Y344774D01*
X181573Y344847D01*
X181626Y344920D01*
X181672Y344995D01*
X181711Y345072D01*
X181742Y345149D01*
X181766Y345227D01*
X181783Y345307D01*
X181793Y345388D01*
X181796Y345470D01*
X182770Y344496D01*
D02*
G37*
G36*
X180003Y250921D02*
X180076Y250861D01*
X180149Y250808D01*
X180224Y250762D01*
X180300Y250723D01*
X180378Y250692D01*
X180456Y250668D01*
X180536Y250651D01*
X180617Y250641D01*
X180699Y250638D01*
X179725Y249664D01*
X179722Y249746D01*
X179712Y249827D01*
X179695Y249906D01*
X179671Y249985D01*
X179639Y250062D01*
X179601Y250138D01*
X179555Y250213D01*
X179502Y250287D01*
X179442Y250360D01*
X179375Y250431D01*
X179932Y250988D01*
X180003Y250921D01*
D02*
G37*
G36*
X124883Y319155D02*
X124866Y319121D01*
X124851Y319078D01*
X124839Y319025D01*
X124828Y318962D01*
X124812Y318808D01*
X124804Y318615D01*
X124803Y318504D01*
X123622D01*
X123621Y318615D01*
X123597Y318962D01*
X123587Y319025D01*
X123574Y319078D01*
X123559Y319121D01*
X123542Y319155D01*
X123524Y319179D01*
X124902D01*
X124883Y319155D01*
D02*
G37*
G36*
X139159Y255020D02*
X139135Y255038D01*
X139101Y255055D01*
X139058Y255070D01*
X139005Y255083D01*
X138942Y255094D01*
X138788Y255109D01*
X138595Y255117D01*
X138484Y255118D01*
Y256299D01*
X138595Y256300D01*
X138942Y256324D01*
X139005Y256335D01*
X139058Y256347D01*
X139101Y256362D01*
X139135Y256379D01*
X139159Y256398D01*
Y255020D01*
D02*
G37*
G36*
X-19741Y260276D02*
X-19824Y260276D01*
X-19904Y260268D01*
X-19984Y260253D01*
X-20062Y260230D01*
X-20140Y260200D01*
X-20216Y260163D01*
X-20291Y260118D01*
X-20365Y260065D01*
X-20437Y260006D01*
X-20509Y259938D01*
X-21047Y260514D01*
X-20980Y260585D01*
X-20920Y260657D01*
X-20866Y260731D01*
X-20820Y260806D01*
X-20780Y260882D01*
X-20748Y260959D01*
X-20722Y261037D01*
X-20703Y261117D01*
X-20691Y261198D01*
X-20686Y261280D01*
X-19741Y260276D01*
D02*
G37*
G36*
X-27209Y236998D02*
X-27277Y236926D01*
X-27337Y236854D01*
X-27389Y236780D01*
X-27435Y236705D01*
X-27474Y236629D01*
X-27505Y236551D01*
X-27529Y236473D01*
X-27546Y236393D01*
X-27556Y236312D01*
X-27559Y236230D01*
X-28534Y237205D01*
X-28451Y237207D01*
X-28370Y237217D01*
X-28291Y237234D01*
X-28212Y237259D01*
X-28135Y237290D01*
X-28059Y237329D01*
X-27984Y237374D01*
X-27910Y237427D01*
X-27838Y237487D01*
X-27766Y237554D01*
X-27209Y236998D01*
D02*
G37*
G36*
X60128Y275886D02*
X60046Y275883D01*
X59965Y275873D01*
X59885Y275856D01*
X59807Y275832D01*
X59729Y275800D01*
X59653Y275762D01*
X59578Y275716D01*
X59505Y275663D01*
X59432Y275603D01*
X59361Y275536D01*
X58804Y276093D01*
X58871Y276164D01*
X58931Y276237D01*
X58984Y276311D01*
X59030Y276386D01*
X59068Y276462D01*
X59100Y276539D01*
X59124Y276618D01*
X59141Y276697D01*
X59151Y276778D01*
X59154Y276860D01*
X60128Y275886D01*
D02*
G37*
G36*
X50762Y221814D02*
X50695Y221743D01*
X50635Y221670D01*
X50582Y221596D01*
X50537Y221521D01*
X50498Y221445D01*
X50467Y221368D01*
X50442Y221289D01*
X50425Y221210D01*
X50415Y221129D01*
X50413Y221047D01*
X49438Y222021D01*
X49520Y222024D01*
X49601Y222034D01*
X49681Y222051D01*
X49760Y222075D01*
X49837Y222107D01*
X49913Y222145D01*
X49988Y222191D01*
X50062Y222244D01*
X50134Y222304D01*
X50206Y222371D01*
X50762Y221814D01*
D02*
G37*
G36*
X102387Y308287D02*
X102326Y308233D01*
X102272Y308174D01*
X102224Y308111D01*
X102182Y308042D01*
X102147Y307968D01*
X102118Y307890D01*
X102096Y307806D01*
X102080Y307718D01*
X102070Y307624D01*
X102067Y307526D01*
X101279Y307612D01*
X101277Y307710D01*
X101269Y307804D01*
X101256Y307894D01*
X101237Y307980D01*
X101214Y308064D01*
X101185Y308143D01*
X101150Y308219D01*
X101111Y308291D01*
X101066Y308360D01*
X101016Y308425D01*
X102387Y308287D01*
D02*
G37*
G36*
X102067Y215223D02*
X102070Y215125D01*
X102077Y215031D01*
X102091Y214941D01*
X102109Y214854D01*
X102133Y214771D01*
X102162Y214692D01*
X102196Y214616D01*
X102236Y214544D01*
X102280Y214475D01*
X102331Y214410D01*
X100960Y214548D01*
X101020Y214601D01*
X101075Y214660D01*
X101123Y214724D01*
X101164Y214793D01*
X101199Y214866D01*
X101228Y214945D01*
X101251Y215028D01*
X101267Y215117D01*
X101276Y215211D01*
X101279Y215309D01*
X102067Y215223D01*
D02*
G37*
G36*
X75546Y298223D02*
X75480Y298186D01*
X75421Y298143D01*
X75368Y298093D01*
X75323Y298035D01*
X75284Y297971D01*
X75253Y297899D01*
X75228Y297820D01*
X75211Y297734D01*
X75200Y297642D01*
X75197Y297542D01*
X74410Y297852D01*
X74408Y297950D01*
X74395Y298135D01*
X74383Y298223D01*
X74351Y298388D01*
X74330Y298466D01*
X74277Y298611D01*
X74246Y298679D01*
X75546Y298223D01*
D02*
G37*
G36*
X76165Y208528D02*
X76237Y208468D01*
X76311Y208415D01*
X76386Y208369D01*
X76462Y208331D01*
X76539Y208299D01*
X76618Y208275D01*
X76697Y208258D01*
X76778Y208248D01*
X76860Y208245D01*
X75886Y207271D01*
X75883Y207353D01*
X75873Y207434D01*
X75856Y207514D01*
X75832Y207592D01*
X75801Y207669D01*
X75762Y207746D01*
X75716Y207821D01*
X75664Y207894D01*
X75603Y207967D01*
X75536Y208038D01*
X76093Y208595D01*
X76165Y208528D01*
D02*
G37*
G36*
X-4645Y247698D02*
X-4661Y247664D01*
X-4676Y247621D01*
X-4689Y247568D01*
X-4700Y247505D01*
X-4716Y247351D01*
X-4723Y247158D01*
X-4724Y247047D01*
X-5906D01*
X-5906Y247158D01*
X-5930Y247505D01*
X-5941Y247568D01*
X-5954Y247621D01*
X-5968Y247664D01*
X-5985Y247698D01*
X-6004Y247722D01*
X-4626D01*
X-4645Y247698D01*
D02*
G37*
G36*
X-4218Y186649D02*
X-3956Y186420D01*
X-3904Y186383D01*
X-3857Y186355D01*
X-3816Y186335D01*
X-3780Y186323D01*
X-3750Y186319D01*
X-4724Y185345D01*
X-4728Y185375D01*
X-4740Y185410D01*
X-4761Y185452D01*
X-4789Y185498D01*
X-4826Y185550D01*
X-4924Y185670D01*
X-5054Y185812D01*
X-5132Y185891D01*
X-4297Y186727D01*
X-4218Y186649D01*
D02*
G37*
G36*
X194000Y276731D02*
X194012Y276696D01*
X194032Y276655D01*
X194061Y276608D01*
X194097Y276556D01*
X194195Y276436D01*
X194326Y276294D01*
X194404Y276215D01*
X193569Y275380D01*
X193490Y275457D01*
X193227Y275686D01*
X193175Y275723D01*
X193129Y275751D01*
X193088Y275772D01*
X193052Y275784D01*
X193022Y275787D01*
X193996Y276762D01*
X194000Y276731D01*
D02*
G37*
G36*
X211615Y187684D02*
X211639Y187337D01*
X211650Y187275D01*
X211662Y187222D01*
X211677Y187178D01*
X211694Y187144D01*
X211713Y187120D01*
X210335D01*
X210353Y187144D01*
X210370Y187178D01*
X210385Y187222D01*
X210398Y187275D01*
X210408Y187337D01*
X210424Y187492D01*
X210432Y187684D01*
X210433Y187795D01*
X211614D01*
X211615Y187684D01*
D02*
G37*
G36*
X211694Y185690D02*
X211677Y185656D01*
X211662Y185613D01*
X211650Y185560D01*
X211639Y185497D01*
X211623Y185343D01*
X211615Y185150D01*
X211614Y185039D01*
X210433D01*
X210432Y185150D01*
X210408Y185497D01*
X210398Y185560D01*
X210385Y185613D01*
X210370Y185656D01*
X210353Y185690D01*
X210335Y185714D01*
X211713D01*
X211694Y185690D01*
D02*
G37*
G36*
X208997Y178244D02*
X208989Y178215D01*
X208981Y178176D01*
X208975Y178127D01*
X208965Y177997D01*
X208957Y177611D01*
X207776Y177389D01*
X207774Y177500D01*
X207754Y177773D01*
X207743Y177845D01*
X207728Y177907D01*
X207711Y177960D01*
X207691Y178003D01*
X207668Y178037D01*
X207643Y178061D01*
X209007Y178262D01*
X208997Y178244D01*
D02*
G37*
G36*
X205811Y114035D02*
X205823Y113999D01*
X205843Y113958D01*
X205872Y113911D01*
X205908Y113859D01*
X206006Y113739D01*
X206137Y113597D01*
X206215Y113518D01*
X205380Y112683D01*
X205300Y112761D01*
X205038Y112989D01*
X204986Y113026D01*
X204940Y113055D01*
X204899Y113075D01*
X204863Y113087D01*
X204833Y113091D01*
X205807Y114065D01*
X205811Y114035D01*
D02*
G37*
G36*
X211875Y109510D02*
X212137Y109282D01*
X212189Y109245D01*
X212235Y109216D01*
X212277Y109196D01*
X212312Y109184D01*
X212343Y109180D01*
X211368Y108206D01*
X211364Y108236D01*
X211352Y108272D01*
X211332Y108313D01*
X211303Y108360D01*
X211267Y108412D01*
X211169Y108532D01*
X211038Y108674D01*
X210960Y108753D01*
X211795Y109588D01*
X211875Y109510D01*
D02*
G37*
G36*
X208958Y29220D02*
X208981Y28873D01*
X208992Y28810D01*
X209005Y28757D01*
X209020Y28714D01*
X209036Y28680D01*
X209055Y28656D01*
X207677D01*
X207696Y28680D01*
X207713Y28714D01*
X207727Y28757D01*
X207740Y28810D01*
X207751Y28873D01*
X207767Y29027D01*
X207775Y29220D01*
X207776Y29331D01*
X208957D01*
X208958Y29220D01*
D02*
G37*
G36*
X-9791Y249052D02*
X-9781Y249014D01*
X-9764Y248970D01*
X-9737Y248921D01*
X-9702Y248867D01*
X-9659Y248809D01*
X-9546Y248676D01*
X-9400Y248523D01*
X-10331Y247783D01*
X-10410Y247861D01*
X-10715Y248132D01*
X-10758Y248162D01*
X-10795Y248184D01*
X-10826Y248198D01*
X-10850Y248203D01*
X-9792Y249086D01*
X-9791Y249052D01*
D02*
G37*
G36*
X-6088Y182121D02*
X-5826Y181893D01*
X-5774Y181856D01*
X-5727Y181827D01*
X-5686Y181807D01*
X-5650Y181795D01*
X-5620Y181791D01*
X-6594Y180817D01*
X-6598Y180847D01*
X-6610Y180883D01*
X-6631Y180924D01*
X-6659Y180971D01*
X-6696Y181023D01*
X-6794Y181143D01*
X-6925Y181285D01*
X-7002Y181364D01*
X-6167Y182199D01*
X-6088Y182121D01*
D02*
G37*
G36*
X102471Y186899D02*
X102456Y186866D01*
X102443Y186823D01*
X102431Y186771D01*
X102422Y186708D01*
X102408Y186555D01*
X102401Y186362D01*
X102400Y186250D01*
X101219Y186194D01*
X101218Y186304D01*
X101192Y186651D01*
X101180Y186714D01*
X101166Y186767D01*
X101149Y186811D01*
X101131Y186845D01*
X101110Y186870D01*
X102487Y186923D01*
X102471Y186899D01*
D02*
G37*
G36*
X102401Y128232D02*
X102425Y127885D01*
X102436Y127822D01*
X102448Y127769D01*
X102463Y127726D01*
X102480Y127692D01*
X102498Y127668D01*
X101120D01*
X101139Y127692D01*
X101156Y127726D01*
X101171Y127769D01*
X101183Y127822D01*
X101194Y127885D01*
X101210Y128039D01*
X101218Y128232D01*
X101219Y128343D01*
X102400D01*
X102401Y128232D01*
D02*
G37*
G36*
X95643Y183595D02*
X95653Y183514D01*
X95670Y183435D01*
X95694Y183356D01*
X95725Y183279D01*
X95764Y183203D01*
X95809Y183128D01*
X95862Y183054D01*
X95922Y182981D01*
X95990Y182910D01*
X95433Y182353D01*
X95361Y182421D01*
X95289Y182481D01*
X95215Y182533D01*
X95140Y182579D01*
X95064Y182618D01*
X94987Y182649D01*
X94908Y182673D01*
X94828Y182690D01*
X94748Y182700D01*
X94665Y182703D01*
X95640Y183677D01*
X95643Y183595D01*
D02*
G37*
G36*
X100377Y120460D02*
X100450Y120399D01*
X100523Y120347D01*
X100598Y120301D01*
X100674Y120262D01*
X100752Y120231D01*
X100830Y120207D01*
X100910Y120190D01*
X100991Y120180D01*
X101073Y120177D01*
X100099Y119203D01*
X100096Y119285D01*
X100086Y119366D01*
X100069Y119446D01*
X100045Y119524D01*
X100013Y119601D01*
X99975Y119677D01*
X99929Y119752D01*
X99876Y119826D01*
X99816Y119899D01*
X99749Y119970D01*
X100306Y120527D01*
X100377Y120460D01*
D02*
G37*
G36*
X101736Y73575D02*
X101714Y73550D01*
X101696Y73516D01*
X101679Y73472D01*
X101664Y73419D01*
X101652Y73356D01*
X101642Y73284D01*
X101628Y73110D01*
X101624Y72899D01*
X100443Y72973D01*
X100442Y73084D01*
X100413Y73493D01*
X100402Y73545D01*
X100390Y73588D01*
X100375Y73620D01*
X100359Y73643D01*
X101736Y73575D01*
D02*
G37*
G36*
X101624Y43563D02*
X101625Y43452D01*
X101654Y43043D01*
X101665Y42990D01*
X101678Y42948D01*
X101692Y42915D01*
X101707Y42892D01*
X100331Y42961D01*
X100353Y42985D01*
X100372Y43020D01*
X100388Y43063D01*
X100403Y43117D01*
X100415Y43179D01*
X100425Y43252D01*
X100438Y43425D01*
X100443Y43637D01*
X101624Y43563D01*
D02*
G37*
G36*
X202451Y161713D02*
X202420Y161709D01*
X202385Y161697D01*
X202344Y161677D01*
X202297Y161648D01*
X202245Y161611D01*
X202125Y161513D01*
X201983Y161383D01*
X201904Y161305D01*
X201069Y162140D01*
X201146Y162219D01*
X201375Y162481D01*
X201412Y162533D01*
X201440Y162580D01*
X201461Y162621D01*
X201473Y162657D01*
X201476Y162687D01*
X202451Y161713D01*
D02*
G37*
G36*
X201772Y28461D02*
X201773Y28351D01*
X201794Y28078D01*
X201807Y28007D01*
X201822Y27945D01*
X201841Y27893D01*
X201862Y27851D01*
X201886Y27818D01*
X201912Y27795D01*
X200562Y27519D01*
X200568Y27537D01*
X200572Y27573D01*
X200577Y27627D01*
X200589Y28175D01*
X200591Y28523D01*
X201772Y28461D01*
D02*
G37*
%LPC*%
G36*
X404035Y216917D02*
X403498Y216810D01*
X403042Y216505D01*
X402737Y216050D01*
X402631Y215512D01*
X402737Y214974D01*
X403042Y214518D01*
X403498Y214214D01*
X404035Y214107D01*
X404573Y214214D01*
X405029Y214518D01*
X405333Y214974D01*
X405440Y215512D01*
X405333Y216050D01*
X405029Y216505D01*
X404573Y216810D01*
X404035Y216917D01*
D02*
G37*
G36*
X427306Y209476D02*
X426768Y209369D01*
X426313Y209064D01*
X426008Y208609D01*
X425901Y208071D01*
X426008Y207533D01*
X426313Y207077D01*
X426768Y206773D01*
X427306Y206666D01*
X427844Y206773D01*
X428300Y207077D01*
X428604Y207533D01*
X428711Y208071D01*
X428604Y208609D01*
X428300Y209064D01*
X427844Y209369D01*
X427306Y209476D01*
D02*
G37*
G36*
X426170Y205042D02*
X425633Y204935D01*
X425177Y204630D01*
X424872Y204174D01*
X424765Y203637D01*
X424872Y203099D01*
X425177Y202643D01*
X425633Y202339D01*
X426170Y202232D01*
X426708Y202339D01*
X427164Y202643D01*
X427468Y203099D01*
X427575Y203637D01*
X427468Y204174D01*
X427164Y204630D01*
X426708Y204935D01*
X426170Y205042D01*
D02*
G37*
G36*
X440497Y200325D02*
X439959Y200219D01*
X439879Y200165D01*
X436421D01*
X435944Y200070D01*
X435541Y199801D01*
X428549Y192809D01*
X428279Y192405D01*
X428185Y191929D01*
Y158488D01*
X424852Y155155D01*
X424758Y155137D01*
X424302Y154832D01*
X423997Y154376D01*
X423890Y153839D01*
X423997Y153301D01*
X424302Y152845D01*
X424758Y152541D01*
X425295Y152434D01*
X425833Y152541D01*
X426289Y152845D01*
X426593Y153301D01*
X426612Y153396D01*
X430309Y157092D01*
X430579Y157496D01*
X430674Y157972D01*
Y191414D01*
X436936Y197676D01*
X439879D01*
X439959Y197623D01*
X440497Y197516D01*
X441034Y197623D01*
X441490Y197927D01*
X441795Y198383D01*
X441902Y198921D01*
X441795Y199458D01*
X441490Y199914D01*
X441034Y200219D01*
X440497Y200325D01*
D02*
G37*
G36*
X402756Y164397D02*
X402218Y164290D01*
X401762Y163986D01*
X401458Y163530D01*
X401351Y162992D01*
X401458Y162454D01*
X401762Y161999D01*
X402218Y161694D01*
X402756Y161587D01*
X403294Y161694D01*
X403749Y161999D01*
X404054Y162454D01*
X404161Y162992D01*
X404054Y163530D01*
X403749Y163986D01*
X403294Y164290D01*
X402756Y164397D01*
D02*
G37*
G36*
X425098Y143039D02*
X424561Y142932D01*
X424105Y142627D01*
X423800Y142172D01*
X423694Y141634D01*
X423800Y141096D01*
X424105Y140640D01*
X424561Y140336D01*
X425098Y140229D01*
X425636Y140336D01*
X426092Y140640D01*
X426396Y141096D01*
X426503Y141634D01*
X426396Y142172D01*
X426092Y142627D01*
X425636Y142932D01*
X425098Y143039D01*
D02*
G37*
G36*
X443997Y145887D02*
X435581D01*
X434990Y145769D01*
X434489Y145434D01*
X429911Y140857D01*
X429576Y140355D01*
X429459Y139764D01*
Y94538D01*
X423809Y88888D01*
X423474Y88387D01*
X423356Y87795D01*
X423474Y87204D01*
X423809Y86703D01*
X424310Y86367D01*
X424902Y86250D01*
X425493Y86367D01*
X425994Y86703D01*
X432097Y92805D01*
X432432Y93306D01*
X432549Y93898D01*
Y139124D01*
X436222Y142796D01*
X443997D01*
X444588Y142913D01*
X445090Y143248D01*
X445425Y143750D01*
X445542Y144341D01*
X445425Y144933D01*
X445090Y145434D01*
X444588Y145769D01*
X443997Y145887D01*
D02*
G37*
%LPD*%
G36*
X439794Y198232D02*
X439770Y198250D01*
X439736Y198267D01*
X439692Y198282D01*
X439640Y198295D01*
X439577Y198305D01*
X439423Y198321D01*
X439230Y198329D01*
X439119Y198330D01*
Y199511D01*
X439230Y199512D01*
X439577Y199536D01*
X439640Y199547D01*
X439692Y199559D01*
X439736Y199574D01*
X439770Y199591D01*
X439794Y199610D01*
Y198232D01*
D02*
G37*
G36*
X426687Y154395D02*
X426610Y154316D01*
X426381Y154054D01*
X426344Y154002D01*
X426316Y153955D01*
X426295Y153914D01*
X426283Y153879D01*
X426279Y153848D01*
X425305Y154823D01*
X425335Y154827D01*
X425371Y154839D01*
X425412Y154859D01*
X425459Y154887D01*
X425511Y154924D01*
X425631Y155022D01*
X425773Y155153D01*
X425852Y155230D01*
X426687Y154395D01*
D02*
G37*
%LPC*%
G36*
X542510Y380315D02*
X541269D01*
X540052Y380073D01*
X538906Y379598D01*
X537874Y378908D01*
X536997Y378031D01*
X536307Y376999D01*
X535833Y375853D01*
X535591Y374636D01*
Y373395D01*
X535833Y372178D01*
X536307Y371032D01*
X536997Y370000D01*
X537874Y369123D01*
X538906Y368433D01*
X540052Y367958D01*
X541269Y367716D01*
X542510D01*
X543727Y367958D01*
X544874Y368433D01*
X545905Y369123D01*
X546783Y370000D01*
X547472Y371032D01*
X547947Y372178D01*
X548189Y373395D01*
Y374636D01*
X547947Y375853D01*
X547472Y376999D01*
X546783Y378031D01*
X545905Y378908D01*
X544874Y379598D01*
X543727Y380073D01*
X542510Y380315D01*
D02*
G37*
G36*
X398698Y368602D02*
X397759D01*
X396890Y368243D01*
X396226Y367578D01*
X395866Y366710D01*
X395374D01*
X395014Y367578D01*
X394350Y368243D01*
X393482Y368602D01*
X392542D01*
X391674Y368243D01*
X391009Y367578D01*
X390718Y366875D01*
X390188D01*
X389896Y367578D01*
X389232Y368243D01*
X388364Y368602D01*
X387424D01*
X386556Y368243D01*
X385891Y367578D01*
X385531Y366710D01*
Y365770D01*
X385891Y364902D01*
X386556Y364238D01*
X387424Y363878D01*
X388364D01*
X389232Y364238D01*
X389896Y364902D01*
X390188Y365606D01*
X390718D01*
X391009Y364902D01*
X391674Y364238D01*
X392542Y363878D01*
X393482D01*
X394350Y364238D01*
X395014Y364902D01*
X395374Y365770D01*
X395866D01*
X396226Y364902D01*
X396890Y364238D01*
X397759Y363878D01*
X398698D01*
X399566Y364238D01*
X400231Y364902D01*
X400591Y365770D01*
Y366710D01*
X400231Y367578D01*
X399566Y368243D01*
X398698Y368602D01*
D02*
G37*
G36*
X382655D02*
X381715D01*
X380847Y368243D01*
X380183Y367578D01*
X379823Y366710D01*
Y365770D01*
X380183Y364902D01*
X380847Y364238D01*
X381715Y363878D01*
X382655D01*
X383523Y364238D01*
X384188Y364902D01*
X384547Y365770D01*
Y366710D01*
X384188Y367578D01*
X383523Y368243D01*
X382655Y368602D01*
D02*
G37*
G36*
X376946D02*
X376007D01*
X375138Y368243D01*
X374474Y367578D01*
X374114Y366710D01*
Y365770D01*
X374474Y364902D01*
X375138Y364238D01*
X376007Y363878D01*
X376946D01*
X377815Y364238D01*
X378479Y364902D01*
X378839Y365770D01*
Y366710D01*
X378479Y367578D01*
X377815Y368243D01*
X376946Y368602D01*
D02*
G37*
G36*
X370942D02*
X370003D01*
X369134Y368243D01*
X368470Y367578D01*
X368110Y366710D01*
Y365770D01*
X368470Y364902D01*
X369134Y364238D01*
X370003Y363878D01*
X370942D01*
X371811Y364238D01*
X372475Y364902D01*
X372835Y365770D01*
Y366710D01*
X372475Y367578D01*
X371811Y368243D01*
X370942Y368602D01*
D02*
G37*
G36*
X331671D02*
X330731D01*
X329863Y368243D01*
X329198Y367578D01*
X328839Y366710D01*
Y365770D01*
X329198Y364902D01*
X329863Y364238D01*
X330731Y363878D01*
X331671D01*
X332539Y364238D01*
X333203Y364902D01*
X333563Y365770D01*
Y366710D01*
X333203Y367578D01*
X332539Y368243D01*
X331671Y368602D01*
D02*
G37*
G36*
X324092D02*
X323152D01*
X322284Y368243D01*
X321620Y367578D01*
X321260Y366710D01*
Y365770D01*
X321620Y364902D01*
X322284Y364238D01*
X323152Y363878D01*
X324092D01*
X324960Y364238D01*
X325625Y364902D01*
X325984Y365770D01*
Y366710D01*
X325625Y367578D01*
X324960Y368243D01*
X324092Y368602D01*
D02*
G37*
G36*
X315037D02*
X314097D01*
X313229Y368243D01*
X312564Y367578D01*
X312205Y366710D01*
Y365770D01*
X312564Y364902D01*
X313229Y364238D01*
X314097Y363878D01*
X315037D01*
X315905Y364238D01*
X316569Y364902D01*
X316929Y365770D01*
Y366710D01*
X316569Y367578D01*
X315905Y368243D01*
X315037Y368602D01*
D02*
G37*
G36*
X307557D02*
X306617D01*
X305749Y368243D01*
X305084Y367578D01*
X304724Y366710D01*
Y365770D01*
X305084Y364902D01*
X305749Y364238D01*
X306617Y363878D01*
X307557D01*
X308425Y364238D01*
X309089Y364902D01*
X309449Y365770D01*
Y366710D01*
X309089Y367578D01*
X308425Y368243D01*
X307557Y368602D01*
D02*
G37*
G36*
X301553Y368602D02*
X300613D01*
X299745Y368243D01*
X299080Y367578D01*
X298721Y366710D01*
Y365770D01*
X299080Y364902D01*
X299745Y364238D01*
X300613Y363878D01*
X301553D01*
X302421Y364238D01*
X303085Y364902D01*
X303445Y365770D01*
Y366710D01*
X303085Y367578D01*
X302421Y368243D01*
X301553Y368602D01*
D02*
G37*
G36*
X490603Y364645D02*
X490054D01*
X489548Y364435D01*
X489160Y364047D01*
X488950Y363541D01*
Y362992D01*
X489160Y362486D01*
X489234Y362412D01*
X489536Y362085D01*
X489234Y361759D01*
X489160Y361685D01*
X488950Y361178D01*
Y360630D01*
X489160Y360124D01*
X489548Y359736D01*
X490054Y359526D01*
X490603D01*
X491109Y359736D01*
X491497Y360124D01*
X491706Y360630D01*
Y361178D01*
X491497Y361685D01*
X491423Y361759D01*
X491121Y362085D01*
X491423Y362412D01*
X491497Y362486D01*
X491706Y362992D01*
Y363541D01*
X491497Y364047D01*
X491109Y364435D01*
X490603Y364645D01*
D02*
G37*
G36*
X473384Y361935D02*
X472835D01*
X472329Y361725D01*
X471942Y361337D01*
X471732Y360831D01*
Y360283D01*
X471942Y359776D01*
X472023Y359695D01*
X472184Y359232D01*
X472015Y359049D01*
X471800Y358834D01*
X471590Y358328D01*
Y357779D01*
X471800Y357273D01*
X472188Y356885D01*
X472694Y356675D01*
X473243D01*
X473749Y356885D01*
X474137Y357273D01*
X474346Y357779D01*
Y358328D01*
X474137Y358834D01*
X474055Y358916D01*
X473894Y359378D01*
X474063Y359561D01*
X474278Y359776D01*
X474488Y360283D01*
Y360831D01*
X474278Y361337D01*
X473890Y361725D01*
X473384Y361935D01*
D02*
G37*
G36*
X542510Y362008D02*
X541269D01*
X540052Y361766D01*
X538906Y361291D01*
X537874Y360601D01*
X536997Y359724D01*
X536307Y358692D01*
X535833Y357546D01*
X535591Y356329D01*
Y355088D01*
X535833Y353871D01*
X536307Y352725D01*
X536997Y351693D01*
X537874Y350816D01*
X538906Y350126D01*
X540052Y349652D01*
X541269Y349409D01*
X542510D01*
X543727Y349652D01*
X544874Y350126D01*
X545905Y350816D01*
X546783Y351693D01*
X547472Y352725D01*
X547947Y353871D01*
X548189Y355088D01*
Y356329D01*
X547947Y357546D01*
X547472Y358692D01*
X546783Y359724D01*
X545905Y360601D01*
X544874Y361291D01*
X543727Y361766D01*
X542510Y362008D01*
D02*
G37*
G36*
X491203Y353712D02*
X490655D01*
X490148Y353502D01*
X489760Y353114D01*
X489551Y352608D01*
Y352060D01*
X489760Y351553D01*
X489842Y351471D01*
X490003Y351009D01*
X489834Y350826D01*
X489619Y350611D01*
X489409Y350104D01*
Y349556D01*
X489619Y349050D01*
X490007Y348662D01*
X490513Y348452D01*
X491061D01*
X491568Y348662D01*
X491956Y349050D01*
X492165Y349556D01*
Y350104D01*
X491956Y350611D01*
X491874Y350692D01*
X491713Y351155D01*
X491882Y351338D01*
X492097Y351553D01*
X492307Y352060D01*
Y352608D01*
X492097Y353114D01*
X491709Y353502D01*
X491203Y353712D01*
D02*
G37*
G36*
X480443Y347824D02*
X479895D01*
X479389Y347614D01*
X479001Y347227D01*
X478792Y346720D01*
Y346172D01*
X479001Y345666D01*
X479389Y345278D01*
X479845Y345089D01*
X479895Y344916D01*
X479894Y344568D01*
X479876Y344561D01*
X479488Y344173D01*
X479279Y343667D01*
Y343119D01*
X479488Y342612D01*
X479876Y342225D01*
X480382Y342015D01*
X480931D01*
X481437Y342225D01*
X481825Y342612D01*
X482035Y343119D01*
Y343667D01*
X481825Y344173D01*
X481437Y344561D01*
X480981Y344750D01*
X480931Y344923D01*
X480932Y345270D01*
X480950Y345278D01*
X481338Y345666D01*
X481547Y346172D01*
Y346720D01*
X481338Y347227D01*
X480950Y347614D01*
X480443Y347824D01*
D02*
G37*
G36*
X494561Y338209D02*
X494013D01*
X493507Y337999D01*
X493119Y337611D01*
X492909Y337105D01*
Y336557D01*
X493119Y336050D01*
X493507Y335663D01*
X494013Y335453D01*
X494561D01*
X495068Y335663D01*
X495455Y336050D01*
X495665Y336557D01*
Y337105D01*
X495455Y337611D01*
X495068Y337999D01*
X494561Y338209D01*
D02*
G37*
G36*
X471632Y336319D02*
X471084D01*
X470578Y336109D01*
X470190Y335721D01*
X469980Y335215D01*
Y334667D01*
X470190Y334160D01*
X470253Y334098D01*
X469969Y333674D01*
X469762Y333760D01*
X469214D01*
X468708Y333550D01*
X468320Y333162D01*
X468110Y332656D01*
Y332108D01*
X468320Y331601D01*
X468708Y331214D01*
X469214Y331004D01*
X469762D01*
X470269Y331214D01*
X470656Y331601D01*
X470866Y332108D01*
Y332656D01*
X470656Y333162D01*
X470594Y333225D01*
X470877Y333649D01*
X471084Y333563D01*
X471632D01*
X472139Y333773D01*
X472526Y334160D01*
X472736Y334667D01*
Y335215D01*
X472526Y335721D01*
X472139Y336109D01*
X471632Y336319D01*
D02*
G37*
G36*
X434624Y334213D02*
X434076D01*
X433570Y334003D01*
X433182Y333615D01*
X432972Y333109D01*
Y332561D01*
X433182Y332054D01*
X433570Y331666D01*
X434076Y331457D01*
X434624D01*
X435131Y331666D01*
X435519Y332054D01*
X435728Y332561D01*
Y333109D01*
X435519Y333615D01*
X435131Y334003D01*
X434624Y334213D01*
D02*
G37*
G36*
X489054Y330863D02*
X488505D01*
X487999Y330654D01*
X487611Y330266D01*
X487402Y329760D01*
Y329211D01*
X487611Y328705D01*
X487999Y328317D01*
X488505Y328108D01*
X489054D01*
X489560Y328317D01*
X489948Y328705D01*
X490158Y329211D01*
Y329760D01*
X489948Y330266D01*
X489560Y330654D01*
X489054Y330863D01*
D02*
G37*
G36*
X491838Y327749D02*
X491290D01*
X490783Y327539D01*
X490395Y327151D01*
X490186Y326645D01*
Y326097D01*
X490395Y325590D01*
X490783Y325202D01*
X491290Y324993D01*
X491838D01*
X492344Y325202D01*
X492732Y325590D01*
X492942Y326097D01*
Y326645D01*
X492732Y327151D01*
X492344Y327539D01*
X491838Y327749D01*
D02*
G37*
G36*
X512184Y326279D02*
X511635D01*
X511129Y326070D01*
X510741Y325682D01*
X510532Y325176D01*
Y324627D01*
X510741Y324121D01*
X511129Y323733D01*
X511635Y323524D01*
X512184D01*
X512690Y323733D01*
X513078Y324121D01*
X513287Y324627D01*
Y325176D01*
X513078Y325682D01*
X512690Y326070D01*
X512184Y326279D01*
D02*
G37*
G36*
X432020Y324381D02*
X431472D01*
X430965Y324171D01*
X430578Y323783D01*
X430368Y323277D01*
Y322729D01*
X430578Y322222D01*
X430965Y321835D01*
X431472Y321625D01*
X432020D01*
X432526Y321835D01*
X432914Y322222D01*
X433124Y322729D01*
Y323277D01*
X432914Y323783D01*
X432526Y324171D01*
X432020Y324381D01*
D02*
G37*
G36*
X518960Y322401D02*
X518412D01*
X517905Y322191D01*
X517518Y321803D01*
X517308Y321297D01*
Y320749D01*
X517518Y320242D01*
X517905Y319855D01*
X518412Y319645D01*
X518960D01*
X519466Y319855D01*
X519854Y320242D01*
X520064Y320749D01*
Y321297D01*
X519854Y321803D01*
X519466Y322191D01*
X518960Y322401D01*
D02*
G37*
G36*
X542510Y330315D02*
X541269D01*
X540052Y330073D01*
X538906Y329598D01*
X537874Y328908D01*
X536997Y328031D01*
X536307Y326999D01*
X535833Y325853D01*
X535591Y324636D01*
Y323395D01*
X535833Y322178D01*
X536307Y321032D01*
X536997Y320000D01*
X537874Y319123D01*
X538906Y318433D01*
X540052Y317958D01*
X541269Y317716D01*
X542510D01*
X543727Y317958D01*
X544874Y318433D01*
X545905Y319123D01*
X546783Y320000D01*
X547472Y321032D01*
X547947Y322178D01*
X548189Y323395D01*
Y324636D01*
X547947Y325853D01*
X547472Y326999D01*
X546783Y328031D01*
X545905Y328908D01*
X544874Y329598D01*
X543727Y330073D01*
X542510Y330315D01*
D02*
G37*
G36*
X514841Y318110D02*
X514293D01*
X513786Y317900D01*
X513399Y317513D01*
X513189Y317006D01*
Y316458D01*
X513399Y315952D01*
X513786Y315564D01*
X514293Y315354D01*
X514841D01*
X515347Y315564D01*
X515735Y315952D01*
X515945Y316458D01*
Y317006D01*
X515735Y317513D01*
X515347Y317900D01*
X514841Y318110D01*
D02*
G37*
G36*
X422523Y313497D02*
X421975D01*
X421468Y313288D01*
X421080Y312900D01*
X420871Y312394D01*
Y311845D01*
X421080Y311339D01*
X421468Y310951D01*
X421975Y310741D01*
X422523D01*
X423029Y310951D01*
X423417Y311339D01*
X423627Y311845D01*
Y312394D01*
X423417Y312900D01*
X423029Y313288D01*
X422523Y313497D01*
D02*
G37*
G36*
X542510Y312008D02*
X541269D01*
X540052Y311766D01*
X538906Y311291D01*
X537874Y310601D01*
X536997Y309724D01*
X536307Y308692D01*
X535833Y307546D01*
X535591Y306329D01*
Y305088D01*
X535833Y303871D01*
X536307Y302725D01*
X536997Y301693D01*
X537874Y300816D01*
X538906Y300126D01*
X540052Y299652D01*
X541269Y299409D01*
X542510D01*
X543727Y299652D01*
X544874Y300126D01*
X545905Y300816D01*
X546783Y301693D01*
X547472Y302725D01*
X547947Y303871D01*
X548189Y305088D01*
Y306329D01*
X547947Y307546D01*
X547472Y308692D01*
X546783Y309724D01*
X545905Y310601D01*
X544874Y311291D01*
X543727Y311766D01*
X542510Y312008D01*
D02*
G37*
G36*
X452930Y298807D02*
X452382D01*
X451876Y298597D01*
X451488Y298210D01*
X451278Y297703D01*
Y297155D01*
X451488Y296648D01*
X451876Y296261D01*
X452382Y296051D01*
X452930D01*
X453437Y296261D01*
X453824Y296648D01*
X454034Y297155D01*
Y297703D01*
X453824Y298210D01*
X453437Y298597D01*
X452930Y298807D01*
D02*
G37*
G36*
X434135Y293931D02*
X433587D01*
X433081Y293721D01*
X432693Y293334D01*
X432483Y292827D01*
Y292279D01*
X432693Y291773D01*
X433081Y291385D01*
X433587Y291175D01*
X434135D01*
X434642Y291385D01*
X435030Y291773D01*
X435239Y292279D01*
Y292827D01*
X435030Y293334D01*
X434642Y293721D01*
X434135Y293931D01*
D02*
G37*
G36*
X378836Y311614D02*
X377070D01*
X375325Y311338D01*
X373646Y310792D01*
X372072Y309990D01*
X370643Y308952D01*
X369394Y307703D01*
X368356Y306275D01*
X367554Y304701D01*
X367009Y303021D01*
X366732Y301277D01*
Y299511D01*
X367009Y297766D01*
X367554Y296087D01*
X368356Y294513D01*
X369394Y293084D01*
X370643Y291835D01*
X372072Y290797D01*
X373646Y289995D01*
X375325Y289450D01*
X377070Y289173D01*
X378836D01*
X380580Y289450D01*
X382260Y289995D01*
X383834Y290797D01*
X385262Y291835D01*
X386511Y293084D01*
X387549Y294513D01*
X388351Y296087D01*
X388897Y297766D01*
X389173Y299511D01*
Y301277D01*
X388897Y303021D01*
X388351Y304701D01*
X387549Y306275D01*
X386511Y307703D01*
X385262Y308952D01*
X383834Y309990D01*
X382260Y310792D01*
X380580Y311338D01*
X378836Y311614D01*
D02*
G37*
G36*
X280411D02*
X278644D01*
X276900Y311338D01*
X275220Y310792D01*
X273647Y309990D01*
X272218Y308952D01*
X270969Y307703D01*
X269931Y306275D01*
X269129Y304701D01*
X268583Y303021D01*
X268307Y301277D01*
Y299511D01*
X268583Y297766D01*
X269129Y296087D01*
X269931Y294513D01*
X270969Y293084D01*
X272218Y291835D01*
X273647Y290797D01*
X275220Y289995D01*
X276900Y289450D01*
X278644Y289173D01*
X280411D01*
X282155Y289450D01*
X283835Y289995D01*
X285408Y290797D01*
X286837Y291835D01*
X288086Y293084D01*
X289124Y294513D01*
X289926Y296087D01*
X290472Y297766D01*
X290748Y299511D01*
Y301277D01*
X290472Y303021D01*
X289926Y304701D01*
X289124Y306275D01*
X288086Y307703D01*
X286837Y308952D01*
X285408Y309990D01*
X283835Y310792D01*
X282155Y311338D01*
X280411Y311614D01*
D02*
G37*
G36*
X427556Y289061D02*
X427008D01*
X426501Y288851D01*
X426114Y288463D01*
X425904Y287957D01*
Y287409D01*
X426114Y286902D01*
X426501Y286515D01*
X427008Y286305D01*
X427556D01*
X428062Y286515D01*
X428450Y286902D01*
X428660Y287409D01*
Y287957D01*
X428450Y288463D01*
X428062Y288851D01*
X427556Y289061D01*
D02*
G37*
G36*
X457009Y285555D02*
X456461D01*
X455955Y285345D01*
X455567Y284957D01*
X455357Y284451D01*
Y283903D01*
X455567Y283396D01*
X455955Y283009D01*
X456461Y282799D01*
X457009D01*
X457516Y283009D01*
X457903Y283396D01*
X458113Y283903D01*
Y284451D01*
X457903Y284957D01*
X457516Y285345D01*
X457009Y285555D01*
D02*
G37*
G36*
X327512Y284452D02*
X326964D01*
X326457Y284242D01*
X326070Y283854D01*
X325860Y283348D01*
Y282800D01*
X326070Y282293D01*
X326457Y281906D01*
X326964Y281696D01*
X327512D01*
X328018Y281906D01*
X328406Y282293D01*
X328616Y282800D01*
Y283348D01*
X328406Y283854D01*
X328018Y284242D01*
X327512Y284452D01*
D02*
G37*
G36*
X322092Y284347D02*
X321544D01*
X321038Y284137D01*
X320650Y283750D01*
X320440Y283243D01*
Y282695D01*
X320650Y282189D01*
X321038Y281801D01*
X321544Y281591D01*
X322092D01*
X322599Y281801D01*
X322986Y282189D01*
X323196Y282695D01*
Y283243D01*
X322986Y283750D01*
X322599Y284137D01*
X322092Y284347D01*
D02*
G37*
G36*
X528113Y282920D02*
X527002D01*
X525929Y282632D01*
X524967Y282077D01*
X524181Y281291D01*
X523626Y280329D01*
X523338Y279256D01*
Y278145D01*
X523626Y277073D01*
X524181Y276111D01*
X524967Y275325D01*
X525929Y274770D01*
X527002Y274482D01*
X528113D01*
X529185Y274770D01*
X530148Y275325D01*
X530933Y276111D01*
X531488Y277073D01*
X531776Y278145D01*
Y279256D01*
X531488Y280329D01*
X530933Y281291D01*
X530148Y282077D01*
X529185Y282632D01*
X528113Y282920D01*
D02*
G37*
G36*
X488112D02*
X487002D01*
X485929Y282632D01*
X484967Y282077D01*
X484181Y281291D01*
X483626Y280329D01*
X483338Y279256D01*
Y278145D01*
X483626Y277073D01*
X484181Y276111D01*
X484967Y275325D01*
X485929Y274770D01*
X487002Y274482D01*
X488112D01*
X489185Y274770D01*
X490147Y275325D01*
X490933Y276111D01*
X491488Y277073D01*
X491776Y278145D01*
Y279256D01*
X491488Y280329D01*
X490933Y281291D01*
X490147Y282077D01*
X489185Y282632D01*
X488112Y282920D01*
D02*
G37*
G36*
X318483Y275689D02*
X317935D01*
X317428Y275479D01*
X317040Y275092D01*
X316831Y274585D01*
Y274037D01*
X317040Y273531D01*
X317428Y273143D01*
X317935Y272933D01*
X318483D01*
X318989Y273143D01*
X319377Y273531D01*
X319587Y274037D01*
Y274585D01*
X319377Y275092D01*
X318989Y275479D01*
X318483Y275689D01*
D02*
G37*
G36*
X327439Y272441D02*
X326891D01*
X326385Y272231D01*
X325997Y271844D01*
X325787Y271337D01*
Y270789D01*
X325997Y270283D01*
X326385Y269895D01*
X326891Y269685D01*
X327439D01*
X327946Y269895D01*
X328333Y270283D01*
X328543Y270789D01*
Y271337D01*
X328333Y271844D01*
X327946Y272231D01*
X327439Y272441D01*
D02*
G37*
G36*
X337345Y272420D02*
X336797D01*
X336291Y272210D01*
X335903Y271823D01*
X335693Y271316D01*
Y270768D01*
X335903Y270261D01*
X336291Y269874D01*
X336797Y269664D01*
X337345D01*
X337852Y269874D01*
X338239Y270261D01*
X338449Y270768D01*
Y271316D01*
X338239Y271823D01*
X337852Y272210D01*
X337345Y272420D01*
D02*
G37*
G36*
X342794Y271949D02*
X342246D01*
X341739Y271739D01*
X341352Y271351D01*
X341142Y270845D01*
Y270297D01*
X341352Y269790D01*
X341739Y269403D01*
X342246Y269193D01*
X342794D01*
X343300Y269403D01*
X343688Y269790D01*
X343898Y270297D01*
Y270845D01*
X343688Y271351D01*
X343300Y271739D01*
X342794Y271949D01*
D02*
G37*
G36*
X312722Y270335D02*
X312174D01*
X311667Y270125D01*
X311280Y269738D01*
X311070Y269231D01*
Y268683D01*
X311280Y268177D01*
X311667Y267789D01*
X312174Y267579D01*
X312722D01*
X313228Y267789D01*
X313616Y268177D01*
X313826Y268683D01*
Y269231D01*
X313616Y269738D01*
X313228Y270125D01*
X312722Y270335D01*
D02*
G37*
G36*
X345451Y268602D02*
X344903D01*
X344397Y268393D01*
X344009Y268005D01*
X343799Y267498D01*
Y266950D01*
X344009Y266444D01*
X344397Y266056D01*
X344903Y265846D01*
X345451D01*
X345958Y266056D01*
X346345Y266444D01*
X346555Y266950D01*
Y267498D01*
X346345Y268005D01*
X345958Y268393D01*
X345451Y268602D01*
D02*
G37*
G36*
X304053Y266647D02*
X303505D01*
X302998Y266437D01*
X302611Y266049D01*
X302401Y265543D01*
Y264995D01*
X302611Y264488D01*
X302998Y264101D01*
X303505Y263891D01*
X304053D01*
X304559Y264101D01*
X304947Y264488D01*
X305157Y264995D01*
Y265543D01*
X304947Y266049D01*
X304559Y266437D01*
X304053Y266647D01*
D02*
G37*
G36*
X316434Y266545D02*
X315886D01*
X315380Y266335D01*
X314992Y265947D01*
X314782Y265441D01*
Y264893D01*
X314992Y264386D01*
X315380Y263998D01*
X315886Y263789D01*
X316434D01*
X316941Y263998D01*
X317328Y264386D01*
X317538Y264893D01*
Y265441D01*
X317328Y265947D01*
X316941Y266335D01*
X316434Y266545D01*
D02*
G37*
G36*
X345550Y263878D02*
X345002D01*
X344495Y263668D01*
X344107Y263281D01*
X343898Y262774D01*
Y262226D01*
X344107Y261719D01*
X344495Y261332D01*
X345002Y261122D01*
X345550D01*
X346056Y261332D01*
X346444Y261719D01*
X346654Y262226D01*
Y262774D01*
X346444Y263281D01*
X346056Y263668D01*
X345550Y263878D01*
D02*
G37*
G36*
X321276Y263772D02*
X320728D01*
X320221Y263562D01*
X319834Y263175D01*
X319624Y262668D01*
Y262120D01*
X319834Y261614D01*
X320221Y261226D01*
X320728Y261016D01*
X321276D01*
X321782Y261226D01*
X322170Y261614D01*
X322380Y262120D01*
Y262668D01*
X322170Y263175D01*
X321782Y263562D01*
X321276Y263772D01*
D02*
G37*
G36*
X345474Y259154D02*
X344926D01*
X344419Y258944D01*
X344032Y258556D01*
X343822Y258050D01*
Y257502D01*
X344032Y256995D01*
X344419Y256607D01*
X344926Y256398D01*
X345474D01*
X345980Y256607D01*
X346368Y256995D01*
X346578Y257502D01*
Y258050D01*
X346368Y258556D01*
X345980Y258944D01*
X345474Y259154D01*
D02*
G37*
G36*
X445177Y259124D02*
X445124D01*
X444532Y259007D01*
X444031Y258671D01*
X443696Y258170D01*
X443578Y257579D01*
X443696Y256987D01*
X444031Y256486D01*
X444532Y256151D01*
X445124Y256033D01*
X445177D01*
X445769Y256151D01*
X446270Y256486D01*
X446605Y256987D01*
X446723Y257579D01*
X446605Y258170D01*
X446270Y258671D01*
X445769Y259007D01*
X445177Y259124D01*
D02*
G37*
G36*
X322420Y255058D02*
X321872D01*
X321365Y254848D01*
X320978Y254460D01*
X320768Y253954D01*
Y253405D01*
X320978Y252899D01*
X321365Y252511D01*
X321872Y252302D01*
X322420D01*
X322926Y252511D01*
X323314Y252899D01*
X323524Y253405D01*
Y253954D01*
X323314Y254460D01*
X322926Y254848D01*
X322420Y255058D01*
D02*
G37*
G36*
X304998Y244291D02*
X304450D01*
X303944Y244082D01*
X303556Y243694D01*
X303346Y243187D01*
Y242639D01*
X303556Y242133D01*
X303944Y241745D01*
X304450Y241535D01*
X304998D01*
X305505Y241745D01*
X305893Y242133D01*
X306102Y242639D01*
Y243187D01*
X305893Y243694D01*
X305505Y244082D01*
X304998Y244291D01*
D02*
G37*
G36*
X310132Y244136D02*
X309584D01*
X309078Y243926D01*
X308690Y243539D01*
X308480Y243032D01*
Y242484D01*
X308690Y241978D01*
X309078Y241590D01*
X309584Y241380D01*
X310132D01*
X310639Y241590D01*
X311026Y241978D01*
X311236Y242484D01*
Y243032D01*
X311026Y243539D01*
X310639Y243926D01*
X310132Y244136D01*
D02*
G37*
G36*
X296484Y211206D02*
X295936D01*
X295429Y210996D01*
X295041Y210609D01*
X294832Y210102D01*
Y209554D01*
X295041Y209047D01*
X295429Y208660D01*
X295936Y208450D01*
X296484D01*
X296990Y208660D01*
X297378Y209047D01*
X297588Y209554D01*
Y210102D01*
X297378Y210609D01*
X296990Y210996D01*
X296484Y211206D01*
D02*
G37*
G36*
X296711Y207928D02*
X296163D01*
X295656Y207718D01*
X295269Y207331D01*
X295059Y206824D01*
Y206276D01*
X295269Y205770D01*
X295656Y205382D01*
X296163Y205172D01*
X296711D01*
X297218Y205382D01*
X297605Y205770D01*
X297815Y206276D01*
Y206824D01*
X297605Y207331D01*
X297218Y207718D01*
X296711Y207928D01*
D02*
G37*
G36*
X317499Y207579D02*
X316950D01*
X316444Y207369D01*
X316056Y206981D01*
X315847Y206475D01*
Y205927D01*
X316056Y205420D01*
X316444Y205032D01*
X316950Y204823D01*
X317499D01*
X318005Y205032D01*
X318393Y205420D01*
X318602Y205927D01*
Y206475D01*
X318393Y206981D01*
X318005Y207369D01*
X317499Y207579D01*
D02*
G37*
G36*
X313955Y208760D02*
X313407D01*
X312901Y208550D01*
X312513Y208162D01*
X312303Y207656D01*
Y207108D01*
X312472Y206701D01*
X312450Y206482D01*
X312270Y206137D01*
X311916Y205991D01*
X311529Y205603D01*
X311319Y205097D01*
Y204549D01*
X311529Y204042D01*
X311916Y203655D01*
X312423Y203445D01*
X312971D01*
X313477Y203655D01*
X313865Y204042D01*
X314075Y204549D01*
Y205097D01*
X313906Y205504D01*
X313928Y205723D01*
X314108Y206067D01*
X314462Y206214D01*
X314849Y206601D01*
X315059Y207108D01*
Y207656D01*
X314849Y208162D01*
X314462Y208550D01*
X313955Y208760D01*
D02*
G37*
G36*
X297096Y204130D02*
X296547D01*
X296041Y203920D01*
X295653Y203533D01*
X295444Y203026D01*
Y202478D01*
X295653Y201972D01*
X296041Y201584D01*
X296547Y201374D01*
X297096D01*
X297602Y201584D01*
X297990Y201972D01*
X298200Y202478D01*
Y203026D01*
X297990Y203533D01*
X297602Y203920D01*
X297096Y204130D01*
D02*
G37*
G36*
X305097Y201476D02*
X304549D01*
X304042Y201267D01*
X303655Y200879D01*
X303445Y200373D01*
Y199824D01*
X303655Y199318D01*
X304042Y198930D01*
X304549Y198721D01*
X305097D01*
X305603Y198930D01*
X305991Y199318D01*
X306201Y199824D01*
Y200373D01*
X305991Y200879D01*
X305603Y201267D01*
X305097Y201476D01*
D02*
G37*
G36*
X310806Y201181D02*
X310257D01*
X309751Y200971D01*
X309363Y200584D01*
X309154Y200077D01*
Y199529D01*
X309363Y199023D01*
X309751Y198635D01*
X310257Y198425D01*
X310806D01*
X311312Y198635D01*
X311700Y199023D01*
X311910Y199529D01*
Y200077D01*
X311700Y200584D01*
X311312Y200971D01*
X310806Y201181D01*
D02*
G37*
G36*
X296836Y198244D02*
X296288D01*
X295782Y198034D01*
X295394Y197647D01*
X295184Y197140D01*
Y196592D01*
X295394Y196086D01*
X295782Y195698D01*
X296288Y195488D01*
X296836D01*
X297343Y195698D01*
X297730Y196086D01*
X297940Y196592D01*
Y197140D01*
X297730Y197647D01*
X297343Y198034D01*
X296836Y198244D01*
D02*
G37*
G36*
X303522Y179626D02*
X302974D01*
X302467Y179416D01*
X302080Y179029D01*
X301870Y178522D01*
Y177974D01*
X302080Y177468D01*
X302467Y177080D01*
X302974Y176870D01*
X303522D01*
X304029Y177080D01*
X304416Y177468D01*
X304626Y177974D01*
Y178522D01*
X304416Y179029D01*
X304029Y179416D01*
X303522Y179626D01*
D02*
G37*
G36*
X344762Y177165D02*
X344214D01*
X343708Y176956D01*
X343320Y176568D01*
X343110Y176061D01*
Y175513D01*
X343320Y175007D01*
X343708Y174619D01*
X344214Y174409D01*
X344762D01*
X345269Y174619D01*
X345656Y175007D01*
X345866Y175513D01*
Y176061D01*
X345656Y176568D01*
X345269Y176956D01*
X344762Y177165D01*
D02*
G37*
G36*
X322376Y176551D02*
X321828D01*
X321321Y176342D01*
X320934Y175954D01*
X320724Y175447D01*
Y174899D01*
X320934Y174393D01*
X321321Y174005D01*
X321828Y173795D01*
X322376D01*
X322882Y174005D01*
X323270Y174393D01*
X323480Y174899D01*
Y175447D01*
X323270Y175954D01*
X322882Y176342D01*
X322376Y176551D01*
D02*
G37*
G36*
X318902Y176237D02*
X318354D01*
X317847Y176027D01*
X317460Y175639D01*
X317250Y175133D01*
Y174585D01*
X317460Y174078D01*
X317847Y173691D01*
X318354Y173481D01*
X318902D01*
X319409Y173691D01*
X319796Y174078D01*
X320006Y174585D01*
Y175133D01*
X319796Y175639D01*
X319409Y176027D01*
X318902Y176237D01*
D02*
G37*
G36*
X327538Y176083D02*
X326990D01*
X326483Y175873D01*
X326096Y175485D01*
X325886Y174979D01*
Y174431D01*
X326096Y173924D01*
X326483Y173537D01*
X326990Y173327D01*
X327538D01*
X328044Y173537D01*
X328432Y173924D01*
X328642Y174431D01*
Y174979D01*
X328432Y175485D01*
X328044Y175873D01*
X327538Y176083D01*
D02*
G37*
G36*
X346140Y172912D02*
X345592D01*
X345086Y172702D01*
X344698Y172315D01*
X344488Y171808D01*
Y171260D01*
X344698Y170754D01*
X345086Y170366D01*
X345592Y170156D01*
X346140D01*
X346647Y170366D01*
X347034Y170754D01*
X347244Y171260D01*
Y171808D01*
X347034Y172315D01*
X346647Y172702D01*
X346140Y172912D01*
D02*
G37*
G36*
X307431Y171358D02*
X306883D01*
X306376Y171149D01*
X305989Y170761D01*
X305779Y170254D01*
Y169706D01*
X305989Y169200D01*
X306376Y168812D01*
X306883Y168602D01*
X307431D01*
X307937Y168812D01*
X308325Y169200D01*
X308535Y169706D01*
Y170254D01*
X308325Y170761D01*
X307937Y171149D01*
X307431Y171358D01*
D02*
G37*
G36*
X317498Y171161D02*
X316950D01*
X316444Y170952D01*
X316056Y170564D01*
X315846Y170057D01*
Y169509D01*
X316056Y169003D01*
X316444Y168615D01*
X316950Y168405D01*
X317498D01*
X318005Y168615D01*
X318393Y169003D01*
X318602Y169509D01*
Y170057D01*
X318393Y170564D01*
X318005Y170952D01*
X317498Y171161D01*
D02*
G37*
G36*
X345353Y168406D02*
X344805D01*
X344298Y168196D01*
X343911Y167808D01*
X343701Y167302D01*
Y166753D01*
X343911Y166247D01*
X344298Y165859D01*
X344805Y165650D01*
X345353D01*
X345859Y165859D01*
X346247Y166247D01*
X346457Y166753D01*
Y167302D01*
X346247Y167808D01*
X345859Y168196D01*
X345353Y168406D01*
D02*
G37*
G36*
X299290Y168110D02*
X298742D01*
X298235Y167901D01*
X297848Y167513D01*
X297638Y167006D01*
Y166458D01*
X297848Y165952D01*
X298235Y165564D01*
X298742Y165354D01*
X299290D01*
X299796Y165564D01*
X300184Y165952D01*
X300394Y166458D01*
Y167006D01*
X300184Y167513D01*
X299796Y167901D01*
X299290Y168110D01*
D02*
G37*
G36*
X322796Y166043D02*
X322248D01*
X321741Y165834D01*
X321354Y165446D01*
X321144Y164939D01*
Y164391D01*
X321354Y163885D01*
X321741Y163497D01*
X322248Y163287D01*
X322796D01*
X323302Y163497D01*
X323690Y163885D01*
X323900Y164391D01*
Y164939D01*
X323690Y165446D01*
X323302Y165834D01*
X322796Y166043D01*
D02*
G37*
G36*
X299444Y162615D02*
X298896D01*
X298389Y162406D01*
X298002Y162018D01*
X297792Y161511D01*
Y160963D01*
X298002Y160457D01*
X298389Y160069D01*
X298896Y159859D01*
X299444D01*
X299950Y160069D01*
X300338Y160457D01*
X300548Y160963D01*
Y161511D01*
X300338Y162018D01*
X299950Y162406D01*
X299444Y162615D01*
D02*
G37*
G36*
X309821Y152165D02*
X309273D01*
X308767Y151956D01*
X308379Y151568D01*
X308169Y151061D01*
Y150513D01*
X308379Y150007D01*
X308767Y149619D01*
X309273Y149409D01*
X309821D01*
X310328Y149619D01*
X310715Y150007D01*
X310925Y150513D01*
Y151061D01*
X310715Y151568D01*
X310328Y151956D01*
X309821Y152165D01*
D02*
G37*
G36*
X304802D02*
X304254D01*
X303747Y151956D01*
X303359Y151568D01*
X303150Y151061D01*
Y150513D01*
X303359Y150007D01*
X303747Y149619D01*
X304254Y149409D01*
X304802D01*
X305308Y149619D01*
X305696Y150007D01*
X305906Y150513D01*
Y151061D01*
X305696Y151568D01*
X305308Y151956D01*
X304802Y152165D01*
D02*
G37*
G36*
X297516Y118966D02*
X296968D01*
X296461Y118756D01*
X296074Y118368D01*
X295864Y117862D01*
Y117314D01*
X296074Y116807D01*
X296281Y116600D01*
X296447Y116380D01*
X296286Y115951D01*
X296174Y115840D01*
X295965Y115333D01*
Y114785D01*
X296174Y114278D01*
X296562Y113891D01*
X297068Y113681D01*
X297617D01*
X298123Y113891D01*
X298511Y114278D01*
X298721Y114785D01*
Y115333D01*
X298511Y115840D01*
X298303Y116047D01*
X298138Y116267D01*
X298299Y116696D01*
X298410Y116807D01*
X298620Y117314D01*
Y117862D01*
X298410Y118368D01*
X298023Y118756D01*
X297516Y118966D01*
D02*
G37*
G36*
X314466Y116377D02*
X313918D01*
X313411Y116167D01*
X313024Y115780D01*
X312814Y115273D01*
Y114725D01*
X312517Y114135D01*
X312341Y114062D01*
X311953Y113674D01*
X311743Y113168D01*
Y112620D01*
X311953Y112113D01*
X312341Y111725D01*
X312847Y111516D01*
X313396D01*
X313902Y111725D01*
X314290Y112113D01*
X314499Y112620D01*
Y113168D01*
X314796Y113758D01*
X314972Y113831D01*
X315360Y114219D01*
X315570Y114725D01*
Y115273D01*
X315360Y115780D01*
X314972Y116167D01*
X314466Y116377D01*
D02*
G37*
G36*
X297502Y112575D02*
X296954D01*
X296447Y112365D01*
X296060Y111977D01*
X295850Y111471D01*
Y110923D01*
X296060Y110416D01*
X296447Y110029D01*
X296954Y109819D01*
X297502D01*
X298008Y110029D01*
X298396Y110416D01*
X298606Y110923D01*
Y111471D01*
X298396Y111977D01*
X298008Y112365D01*
X297502Y112575D01*
D02*
G37*
G36*
X306475Y110630D02*
X305927D01*
X305420Y110420D01*
X305033Y110032D01*
X304823Y109526D01*
Y108978D01*
X305033Y108471D01*
X305420Y108084D01*
X305927Y107874D01*
X306475D01*
X306981Y108084D01*
X307369Y108471D01*
X307579Y108978D01*
Y109526D01*
X307369Y110032D01*
X306981Y110420D01*
X306475Y110630D01*
D02*
G37*
G36*
X312954Y110394D02*
X312406D01*
X311900Y110185D01*
X311512Y109797D01*
X311302Y109291D01*
Y108742D01*
X311512Y108236D01*
X311900Y107848D01*
X312406Y107639D01*
X312954D01*
X313461Y107848D01*
X313848Y108236D01*
X314058Y108742D01*
Y109291D01*
X313848Y109797D01*
X313461Y110185D01*
X312954Y110394D01*
D02*
G37*
G36*
X318006Y110282D02*
X317458D01*
X316951Y110072D01*
X316564Y109685D01*
X316354Y109178D01*
Y108630D01*
X316564Y108123D01*
X316951Y107736D01*
X317458Y107526D01*
X318006D01*
X318512Y107736D01*
X318900Y108123D01*
X319110Y108630D01*
Y109178D01*
X318900Y109685D01*
X318512Y110072D01*
X318006Y110282D01*
D02*
G37*
G36*
X297715Y107480D02*
X297167D01*
X296660Y107271D01*
X296273Y106883D01*
X296063Y106376D01*
Y105828D01*
X296273Y105322D01*
X296660Y104934D01*
X297167Y104724D01*
X297715D01*
X298221Y104934D01*
X298609Y105322D01*
X298819Y105828D01*
Y106376D01*
X298609Y106883D01*
X298221Y107271D01*
X297715Y107480D01*
D02*
G37*
G36*
X322368Y92240D02*
X321820D01*
X321314Y92031D01*
X320926Y91643D01*
X320887Y91640D01*
X320390Y91656D01*
X320049Y91997D01*
X319543Y92207D01*
X318994D01*
X318488Y91997D01*
X318100Y91610D01*
X317891Y91103D01*
Y90555D01*
X318100Y90049D01*
X318488Y89661D01*
X318994Y89451D01*
X319543D01*
X320049Y89661D01*
X320437Y90049D01*
X320476Y90051D01*
X320972Y90035D01*
X321314Y89694D01*
X321820Y89484D01*
X322368D01*
X322875Y89694D01*
X323262Y90082D01*
X323472Y90588D01*
Y91136D01*
X323262Y91643D01*
X322875Y92031D01*
X322368Y92240D01*
D02*
G37*
G36*
X307951Y92421D02*
X307403D01*
X306897Y92212D01*
X306509Y91824D01*
X306299Y91317D01*
Y90769D01*
X306509Y90263D01*
X306897Y89875D01*
X307403Y89665D01*
X307951D01*
X308458Y89875D01*
X308845Y90263D01*
X309055Y90769D01*
Y91317D01*
X308845Y91824D01*
X308458Y92212D01*
X307951Y92421D01*
D02*
G37*
G36*
X312479Y92323D02*
X311931D01*
X311424Y92113D01*
X311036Y91725D01*
X310827Y91219D01*
Y90671D01*
X311036Y90164D01*
X311424Y89777D01*
X311931Y89567D01*
X312479D01*
X312985Y89777D01*
X313373Y90164D01*
X313583Y90671D01*
Y91219D01*
X313373Y91725D01*
X312985Y92113D01*
X312479Y92323D01*
D02*
G37*
G36*
X327636Y92224D02*
X327088D01*
X326582Y92015D01*
X326194Y91627D01*
X325984Y91121D01*
Y90572D01*
X326194Y90066D01*
X326582Y89678D01*
X327088Y89468D01*
X327636D01*
X328143Y89678D01*
X328530Y90066D01*
X328740Y90572D01*
Y91121D01*
X328530Y91627D01*
X328143Y92015D01*
X327636Y92224D01*
D02*
G37*
G36*
X337250Y88785D02*
X336702D01*
X336195Y88576D01*
X335807Y88188D01*
X335598Y87681D01*
Y87133D01*
X335807Y86627D01*
X336195Y86239D01*
X336702Y86029D01*
X337250D01*
X337756Y86239D01*
X338144Y86627D01*
X338354Y87133D01*
Y87681D01*
X338144Y88188D01*
X337756Y88576D01*
X337250Y88785D01*
D02*
G37*
G36*
X342700Y88750D02*
X342152D01*
X341645Y88540D01*
X341258Y88153D01*
X341048Y87646D01*
Y87098D01*
X341258Y86592D01*
X341645Y86204D01*
X342152Y85994D01*
X342700D01*
X343207Y86204D01*
X343594Y86592D01*
X343804Y87098D01*
Y87646D01*
X343594Y88153D01*
X343207Y88540D01*
X342700Y88750D01*
D02*
G37*
G36*
X304292Y84584D02*
X303743D01*
X303237Y84374D01*
X302849Y83987D01*
X302640Y83480D01*
Y82932D01*
X302849Y82426D01*
X303237Y82038D01*
X303743Y81828D01*
X304292D01*
X304798Y82038D01*
X305186Y82426D01*
X305395Y82932D01*
Y83480D01*
X305186Y83987D01*
X304798Y84374D01*
X304292Y84584D01*
D02*
G37*
G36*
X280411Y99016D02*
X278644D01*
X276900Y98739D01*
X275220Y98194D01*
X273647Y97392D01*
X272218Y96354D01*
X270969Y95105D01*
X269931Y93676D01*
X269129Y92102D01*
X268583Y90423D01*
X268307Y88678D01*
Y86912D01*
X268583Y85168D01*
X269129Y83488D01*
X269931Y81915D01*
X270969Y80486D01*
X272218Y79237D01*
X273647Y78199D01*
X275220Y77397D01*
X276900Y76851D01*
X278644Y76575D01*
X280411D01*
X282155Y76851D01*
X283835Y77397D01*
X285408Y78199D01*
X286837Y79237D01*
X288086Y80486D01*
X289124Y81915D01*
X289926Y83488D01*
X290472Y85168D01*
X290748Y86912D01*
Y88678D01*
X290472Y90423D01*
X289926Y92102D01*
X289124Y93676D01*
X288086Y95105D01*
X286837Y96354D01*
X285408Y97392D01*
X283835Y98194D01*
X282155Y98739D01*
X280411Y99016D01*
D02*
G37*
G36*
X299290Y78543D02*
X298742D01*
X298235Y78334D01*
X297848Y77946D01*
X297638Y77439D01*
Y76891D01*
X297848Y76385D01*
X298235Y75997D01*
X298742Y75788D01*
X299290D01*
X299796Y75997D01*
X300184Y76385D01*
X300394Y76891D01*
Y77439D01*
X300184Y77946D01*
X299796Y78334D01*
X299290Y78543D01*
D02*
G37*
G36*
X322458Y75552D02*
X321910D01*
X321403Y75343D01*
X321016Y74955D01*
X320806Y74449D01*
Y73900D01*
X321016Y73394D01*
X321403Y73006D01*
X321910Y72796D01*
X322458D01*
X322964Y73006D01*
X323352Y73394D01*
X323562Y73900D01*
Y74449D01*
X323352Y74955D01*
X322964Y75343D01*
X322458Y75552D01*
D02*
G37*
G36*
X299588Y73118D02*
X299040D01*
X298534Y72908D01*
X298146Y72520D01*
X297936Y72014D01*
Y71466D01*
X298146Y70959D01*
X298534Y70572D01*
X299040Y70362D01*
X299588D01*
X300095Y70572D01*
X300482Y70959D01*
X300692Y71466D01*
Y72014D01*
X300482Y72520D01*
X300095Y72908D01*
X299588Y73118D01*
D02*
G37*
G36*
X309526Y62500D02*
X308978D01*
X308471Y62290D01*
X308084Y61903D01*
X307874Y61396D01*
Y60848D01*
X308084Y60342D01*
X308471Y59954D01*
X308978Y59744D01*
X309526D01*
X310033Y59954D01*
X310420Y60342D01*
X310630Y60848D01*
Y61396D01*
X310420Y61903D01*
X310033Y62290D01*
X309526Y62500D01*
D02*
G37*
G36*
X304900Y62402D02*
X304352D01*
X303845Y62192D01*
X303458Y61804D01*
X303248Y61298D01*
Y60750D01*
X303458Y60243D01*
X303845Y59855D01*
X304352Y59646D01*
X304900D01*
X305406Y59855D01*
X305794Y60243D01*
X306004Y60750D01*
Y61298D01*
X305794Y61804D01*
X305406Y62192D01*
X304900Y62402D01*
D02*
G37*
G36*
X294565Y62008D02*
X294017D01*
X293511Y61798D01*
X293123Y61410D01*
X292913Y60904D01*
Y60356D01*
X293123Y59849D01*
X293511Y59462D01*
X294017Y59252D01*
X294565D01*
X295072Y59462D01*
X295460Y59849D01*
X295669Y60356D01*
Y60904D01*
X295460Y61410D01*
X295072Y61798D01*
X294565Y62008D01*
D02*
G37*
G36*
X292895Y29032D02*
X292347D01*
X291841Y28823D01*
X291453Y28435D01*
X291243Y27929D01*
Y27380D01*
X291453Y26874D01*
X291841Y26486D01*
X292347Y26277D01*
X292895D01*
X293402Y26486D01*
X293789Y26874D01*
X293999Y27380D01*
Y27929D01*
X293789Y28435D01*
X293402Y28823D01*
X292895Y29032D01*
D02*
G37*
G36*
X314386Y25584D02*
X313837D01*
X313331Y25374D01*
X312943Y24986D01*
X312794Y24626D01*
X312736Y24594D01*
X312342Y24511D01*
X312249Y24518D01*
X311984Y24783D01*
X311478Y24993D01*
X310930D01*
X310423Y24783D01*
X310036Y24395D01*
X309826Y23889D01*
Y23340D01*
X310036Y22834D01*
X310423Y22446D01*
X310930Y22237D01*
X311478D01*
X311984Y22446D01*
X312372Y22834D01*
X312521Y23194D01*
X312580Y23226D01*
X312973Y23310D01*
X313066Y23302D01*
X313331Y23038D01*
X313837Y22828D01*
X314386D01*
X314892Y23038D01*
X315280Y23425D01*
X315489Y23932D01*
Y24480D01*
X315280Y24986D01*
X314892Y25374D01*
X314386Y25584D01*
D02*
G37*
G36*
X317794Y26476D02*
X317246D01*
X316739Y26267D01*
X316352Y25879D01*
X316142Y25372D01*
Y24824D01*
X316352Y24318D01*
X316739Y23930D01*
X317246Y23720D01*
X317794D01*
X318300Y23930D01*
X318688Y24318D01*
X318898Y24824D01*
Y25372D01*
X318688Y25879D01*
X318300Y26267D01*
X317794Y26476D01*
D02*
G37*
G36*
X294834Y26280D02*
X294286D01*
X293779Y26070D01*
X293392Y25682D01*
X293182Y25176D01*
Y24627D01*
X293392Y24121D01*
X293779Y23733D01*
X294286Y23524D01*
X294834D01*
X295341Y23733D01*
X295728Y24121D01*
X295938Y24627D01*
Y25176D01*
X295728Y25682D01*
X295341Y26070D01*
X294834Y26280D01*
D02*
G37*
G36*
X293963Y22736D02*
X293414D01*
X292908Y22526D01*
X292520Y22139D01*
X292311Y21632D01*
Y21084D01*
X292520Y20578D01*
X292908Y20190D01*
X293414Y19980D01*
X293963D01*
X294469Y20190D01*
X294857Y20578D01*
X295066Y21084D01*
Y21632D01*
X294857Y22139D01*
X294469Y22526D01*
X293963Y22736D01*
D02*
G37*
G36*
X317793Y20596D02*
X317245D01*
X316738Y20387D01*
X316351Y19999D01*
X316141Y19492D01*
Y18944D01*
X316351Y18438D01*
X316738Y18050D01*
X317245Y17841D01*
X317793D01*
X318299Y18050D01*
X318687Y18438D01*
X318897Y18944D01*
Y19492D01*
X318687Y19999D01*
X318299Y20387D01*
X317793Y20596D01*
D02*
G37*
G36*
X305884Y20220D02*
X305336D01*
X304830Y20010D01*
X304442Y19623D01*
X304232Y19117D01*
Y18568D01*
X304442Y18062D01*
X304830Y17674D01*
X305336Y17464D01*
X305884D01*
X306391Y17674D01*
X306778Y18062D01*
X306988Y18568D01*
Y19117D01*
X306778Y19623D01*
X306391Y20010D01*
X305884Y20220D01*
D02*
G37*
G36*
X311511Y20171D02*
X310963D01*
X310457Y19961D01*
X310069Y19574D01*
X309859Y19067D01*
Y18519D01*
X310069Y18012D01*
X310457Y17625D01*
X310963Y17415D01*
X311511D01*
X312018Y17625D01*
X312405Y18012D01*
X312615Y18519D01*
Y19067D01*
X312405Y19574D01*
X312018Y19961D01*
X311511Y20171D01*
D02*
G37*
G36*
X233639Y20177D02*
X232699D01*
X231831Y19817D01*
X231167Y19153D01*
X230807Y18285D01*
Y17345D01*
X231167Y16477D01*
X231831Y15812D01*
X232699Y15453D01*
X233639D01*
X234507Y15812D01*
X235172Y16477D01*
X235531Y17345D01*
Y18285D01*
X235172Y19153D01*
X234507Y19817D01*
X233639Y20177D01*
D02*
G37*
G36*
X316514Y13189D02*
X315966D01*
X315460Y12979D01*
X315072Y12592D01*
X314862Y12085D01*
Y11537D01*
X315072Y11030D01*
X315460Y10643D01*
X315966Y10433D01*
X316514D01*
X317021Y10643D01*
X317408Y11030D01*
X317618Y11537D01*
Y12085D01*
X317408Y12592D01*
X317021Y12979D01*
X316514Y13189D01*
D02*
G37*
G36*
X300694Y13083D02*
X300146D01*
X299640Y12873D01*
X299252Y12485D01*
X299042Y11979D01*
Y11431D01*
X299252Y10924D01*
X299640Y10537D01*
X300146Y10327D01*
X300694D01*
X301201Y10537D01*
X301588Y10924D01*
X301798Y11431D01*
Y11979D01*
X301588Y12485D01*
X301201Y12873D01*
X300694Y13083D01*
D02*
G37*
G36*
X411888Y197283D02*
X411340D01*
X410834Y197074D01*
X410446Y196686D01*
X410236Y196180D01*
Y195632D01*
X410446Y195125D01*
X410834Y194737D01*
X411340Y194528D01*
X411888D01*
X412395Y194737D01*
X412782Y195125D01*
X412992Y195632D01*
Y196180D01*
X412782Y196686D01*
X412395Y197074D01*
X411888Y197283D01*
D02*
G37*
G36*
X528113Y170321D02*
X527002D01*
X525929Y170034D01*
X524967Y169478D01*
X524181Y168693D01*
X523626Y167731D01*
X523338Y166658D01*
Y165547D01*
X523626Y164474D01*
X524181Y163512D01*
X524967Y162727D01*
X525929Y162171D01*
X527002Y161884D01*
X528113D01*
X529185Y162171D01*
X530148Y162727D01*
X530933Y163512D01*
X531488Y164474D01*
X531776Y165547D01*
Y166658D01*
X531488Y167731D01*
X530933Y168693D01*
X530148Y169478D01*
X529185Y170034D01*
X528113Y170321D01*
D02*
G37*
G36*
X488112D02*
X487002D01*
X485929Y170034D01*
X484967Y169478D01*
X484181Y168693D01*
X483626Y167731D01*
X483338Y166658D01*
Y165547D01*
X483626Y164474D01*
X484181Y163512D01*
X484967Y162727D01*
X485929Y162171D01*
X487002Y161884D01*
X488112D01*
X489185Y162171D01*
X490147Y162727D01*
X490933Y163512D01*
X491488Y164474D01*
X491776Y165547D01*
Y166658D01*
X491488Y167731D01*
X490933Y168693D01*
X490147Y169478D01*
X489185Y170034D01*
X488112Y170321D01*
D02*
G37*
G36*
X528113Y130321D02*
X527002D01*
X525929Y130034D01*
X524967Y129478D01*
X524181Y128693D01*
X523626Y127731D01*
X523338Y126658D01*
Y125547D01*
X523626Y124474D01*
X524181Y123512D01*
X524967Y122727D01*
X525929Y122171D01*
X527002Y121884D01*
X528113D01*
X529185Y122171D01*
X530148Y122727D01*
X530933Y123512D01*
X531488Y124474D01*
X531776Y125547D01*
Y126658D01*
X531488Y127731D01*
X530933Y128693D01*
X530148Y129478D01*
X529185Y130034D01*
X528113Y130321D01*
D02*
G37*
G36*
X413237Y130789D02*
X412689D01*
X412183Y130580D01*
X411795Y130192D01*
X411585Y129685D01*
Y129137D01*
X411795Y128631D01*
X412183Y128243D01*
X412689Y128033D01*
X413237D01*
X413744Y128243D01*
X414131Y128631D01*
X414341Y129137D01*
Y129685D01*
X414131Y130192D01*
X413744Y130580D01*
X413237Y130789D01*
D02*
G37*
G36*
X425780Y75762D02*
X425242Y75655D01*
X424786Y75350D01*
X424481Y74894D01*
X424375Y74357D01*
X424481Y73819D01*
X424786Y73363D01*
X425242Y73059D01*
X425780Y72952D01*
X426317Y73059D01*
X426773Y73363D01*
X427077Y73819D01*
X427184Y74357D01*
X427077Y74894D01*
X426773Y75350D01*
X426317Y75655D01*
X425780Y75762D01*
D02*
G37*
G36*
X443701Y78120D02*
X437303D01*
X436712Y78003D01*
X436210Y77668D01*
X428139Y69597D01*
X427805Y69095D01*
X427687Y68504D01*
Y23868D01*
X426073Y22254D01*
X425738Y21753D01*
X425620Y21161D01*
X425738Y20570D01*
X426073Y20069D01*
X426574Y19734D01*
X427165Y19616D01*
X427757Y19734D01*
X428258Y20069D01*
X430325Y22136D01*
X430660Y22637D01*
X430778Y23228D01*
Y67864D01*
X437943Y75029D01*
X443701D01*
X444292Y75147D01*
X444794Y75482D01*
X445129Y75983D01*
X445246Y76575D01*
X445129Y77166D01*
X444794Y77668D01*
X444292Y78003D01*
X443701Y78120D01*
D02*
G37*
G36*
X528113Y114022D02*
X527002D01*
X525929Y113734D01*
X524967Y113179D01*
X524181Y112394D01*
X523626Y111432D01*
X523338Y110359D01*
Y109248D01*
X523626Y108175D01*
X524181Y107213D01*
X524967Y106427D01*
X525929Y105872D01*
X527002Y105585D01*
X528113D01*
X529185Y105872D01*
X530148Y106427D01*
X530933Y107213D01*
X531488Y108175D01*
X531776Y109248D01*
Y110359D01*
X531488Y111432D01*
X530933Y112394D01*
X530148Y113179D01*
X529185Y113734D01*
X528113Y114022D01*
D02*
G37*
G36*
X488112D02*
X487002D01*
X485929Y113734D01*
X484967Y113179D01*
X484181Y112394D01*
X483626Y111432D01*
X483338Y110359D01*
Y109248D01*
X483626Y108175D01*
X484181Y107213D01*
X484967Y106427D01*
X485929Y105872D01*
X487002Y105585D01*
X488112D01*
X489185Y105872D01*
X490147Y106427D01*
X490933Y107213D01*
X491488Y108175D01*
X491776Y109248D01*
Y110359D01*
X491488Y111432D01*
X490933Y112394D01*
X490147Y113179D01*
X489185Y113734D01*
X488112Y114022D01*
D02*
G37*
G36*
X528113Y74022D02*
X527002D01*
X525929Y73734D01*
X524967Y73179D01*
X524181Y72394D01*
X523626Y71432D01*
X523338Y70359D01*
Y69248D01*
X523626Y68175D01*
X524181Y67213D01*
X524967Y66427D01*
X525929Y65872D01*
X527002Y65584D01*
X528113D01*
X529185Y65872D01*
X530148Y66427D01*
X530933Y67213D01*
X531488Y68175D01*
X531776Y69248D01*
Y70359D01*
X531488Y71432D01*
X530933Y72394D01*
X530148Y73179D01*
X529185Y73734D01*
X528113Y74022D01*
D02*
G37*
G36*
X488112D02*
X487002D01*
X485929Y73734D01*
X484967Y73179D01*
X484181Y72394D01*
X483626Y71432D01*
X483338Y70359D01*
Y69248D01*
X483626Y68175D01*
X484181Y67213D01*
X484967Y66427D01*
X485929Y65872D01*
X487002Y65584D01*
X488112D01*
X489185Y65872D01*
X490147Y66427D01*
X490933Y67213D01*
X491488Y68175D01*
X491776Y69248D01*
Y70359D01*
X491488Y71432D01*
X490933Y72394D01*
X490147Y73179D01*
X489185Y73734D01*
X488112Y74022D01*
D02*
G37*
G36*
X528113Y57723D02*
X527002D01*
X525929Y57435D01*
X524967Y56880D01*
X524181Y56094D01*
X523626Y55132D01*
X523338Y54059D01*
Y52949D01*
X523626Y51876D01*
X524181Y50914D01*
X524967Y50128D01*
X525929Y49573D01*
X527002Y49285D01*
X528113D01*
X529185Y49573D01*
X530148Y50128D01*
X530933Y50914D01*
X531488Y51876D01*
X531776Y52949D01*
Y54059D01*
X531488Y55132D01*
X530933Y56094D01*
X530148Y56880D01*
X529185Y57435D01*
X528113Y57723D01*
D02*
G37*
G36*
X488112D02*
X487002D01*
X485929Y57435D01*
X484967Y56880D01*
X484181Y56094D01*
X483626Y55132D01*
X483338Y54059D01*
Y52949D01*
X483626Y51876D01*
X484181Y50914D01*
X484967Y50128D01*
X485929Y49573D01*
X487002Y49285D01*
X488112D01*
X489185Y49573D01*
X490147Y50128D01*
X490933Y50914D01*
X491488Y51876D01*
X491776Y52949D01*
Y54059D01*
X491488Y55132D01*
X490933Y56094D01*
X490147Y56880D01*
X489185Y57435D01*
X488112Y57723D01*
D02*
G37*
G36*
X528113Y17723D02*
X527002D01*
X525929Y17435D01*
X524967Y16880D01*
X524181Y16094D01*
X523626Y15132D01*
X523338Y14059D01*
Y12949D01*
X523626Y11876D01*
X524181Y10914D01*
X524967Y10128D01*
X525929Y9573D01*
X527002Y9285D01*
X528113D01*
X529185Y9573D01*
X530148Y10128D01*
X530933Y10914D01*
X531488Y11876D01*
X531776Y12949D01*
Y14059D01*
X531488Y15132D01*
X530933Y16094D01*
X530148Y16880D01*
X529185Y17435D01*
X528113Y17723D01*
D02*
G37*
G36*
X488112D02*
X487002D01*
X485929Y17435D01*
X484967Y16880D01*
X484181Y16094D01*
X483626Y15132D01*
X483338Y14059D01*
Y12949D01*
X483626Y11876D01*
X484181Y10914D01*
X484967Y10128D01*
X485929Y9573D01*
X487002Y9285D01*
X488112D01*
X489185Y9573D01*
X490147Y10128D01*
X490933Y10914D01*
X491488Y11876D01*
X491776Y12949D01*
Y14059D01*
X491488Y15132D01*
X490933Y16094D01*
X490147Y16880D01*
X489185Y17435D01*
X488112Y17723D01*
D02*
G37*
G36*
X413069Y65256D02*
X412521D01*
X412015Y65046D01*
X411627Y64658D01*
X411417Y64152D01*
Y63604D01*
X411627Y63097D01*
X412015Y62710D01*
X412521Y62500D01*
X413069D01*
X413576Y62710D01*
X413964Y63097D01*
X414173Y63604D01*
Y64152D01*
X413964Y64658D01*
X413576Y65046D01*
X413069Y65256D01*
D02*
G37*
G36*
X411298Y36575D02*
X410749D01*
X410243Y36365D01*
X409856Y35977D01*
X409646Y35471D01*
Y34923D01*
X409856Y34416D01*
X410243Y34029D01*
X410749Y33819D01*
X411298D01*
X411804Y34029D01*
X412192Y34416D01*
X412402Y34923D01*
Y35471D01*
X412192Y35977D01*
X411804Y36365D01*
X411298Y36575D01*
D02*
G37*
G36*
X402466Y25237D02*
X401918D01*
X401412Y25027D01*
X401024Y24640D01*
X400814Y24133D01*
Y23585D01*
X401024Y23078D01*
X401412Y22691D01*
X401918Y22481D01*
X402466D01*
X402973Y22691D01*
X403361Y23078D01*
X403570Y23585D01*
Y24133D01*
X403361Y24640D01*
X402973Y25027D01*
X402466Y25237D01*
D02*
G37*
G36*
X407065Y16437D02*
X406517D01*
X406011Y16227D01*
X405623Y15840D01*
X405413Y15333D01*
Y14785D01*
X405623Y14278D01*
X406011Y13891D01*
X406517Y13681D01*
X407065D01*
X407572Y13891D01*
X407960Y14278D01*
X408169Y14785D01*
Y15333D01*
X407960Y15840D01*
X407572Y16227D01*
X407065Y16437D01*
D02*
G37*
%LPD*%
D10*
X24803Y99612D02*
X25013Y99403D01*
X24803Y99612D02*
Y231496D01*
X56004Y272736D02*
X60138Y276870D01*
X56004Y227612D02*
Y272736D01*
X101673Y308957D02*
X101772Y309055D01*
X101673Y213878D02*
Y308957D01*
X101575Y213779D02*
X101673Y213878D01*
X97933Y254951D02*
Y292028D01*
X94685Y295276D02*
X97933Y292028D01*
X101772Y187598D02*
X101810Y187561D01*
X96260Y124016D02*
X101083Y119193D01*
X96260Y124016D02*
Y182083D01*
X94656Y183687D02*
X96260Y182083D01*
X93405Y250424D02*
X97933Y254951D01*
X93405Y198524D02*
Y250424D01*
X86516Y116043D02*
X86742Y116269D01*
X88478D02*
X90020Y117812D01*
X86742Y116269D02*
X88478D01*
X91438Y115964D02*
Y344292D01*
X86516Y111042D02*
X91438Y115964D01*
X174705Y255658D02*
Y337404D01*
X182780Y345480D01*
X174705Y255658D02*
X180709Y249654D01*
X86516Y190551D02*
X86614Y190453D01*
Y163287D02*
Y190453D01*
X74803Y209328D02*
Y299114D01*
X49428Y221037D02*
X56004Y227612D01*
X20866Y235433D02*
X24803Y231496D01*
X86713Y130512D02*
X87106Y130118D01*
X86713Y130512D02*
Y163189D01*
X83327Y88986D02*
Y354980D01*
X72373Y71601D02*
X84744Y83972D01*
Y352392D01*
X73180Y78839D02*
X83327Y88986D01*
X90020Y348993D02*
X117504Y376477D01*
X91438Y344292D02*
X118701Y371555D01*
X90020Y117812D02*
Y348993D01*
X74803Y209328D02*
X76870Y207261D01*
X75129Y299114D02*
X75129Y299114D01*
X74803Y299114D02*
X75129D01*
X86614Y163287D02*
X86713Y163189D01*
X84744Y352392D02*
X114330Y381978D01*
X83327Y354980D02*
X112598Y384252D01*
X68110Y78839D02*
X73180D01*
X-28543Y236221D02*
X-24016Y240748D01*
X118701Y371555D02*
Y373819D01*
X-24016Y240748D02*
Y256988D01*
X-19744Y261260D02*
X-19702D01*
X-24016Y256988D02*
X-19744Y261260D01*
X67633Y71601D02*
X72373D01*
D16*
X106201Y158109D02*
Y296949D01*
X105610Y297539D02*
X106201Y296949D01*
Y42520D02*
Y157716D01*
X106004Y157913D02*
X106201Y158109D01*
X106004Y157913D02*
X106201Y157716D01*
D101*
X372539Y337854D02*
D03*
X188287Y17815D02*
D03*
X425492Y12106D02*
D03*
Y45571D02*
D03*
Y114665D02*
D03*
Y182382D02*
D03*
X188484Y214567D02*
D03*
Y293307D02*
D03*
Y318799D02*
D03*
Y231101D02*
D03*
Y155773D02*
D03*
Y110433D02*
D03*
Y97736D02*
D03*
Y61024D02*
D03*
Y42224D02*
D03*
X234350Y350394D02*
D03*
Y293504D02*
D03*
Y214961D02*
D03*
Y155773D02*
D03*
X234167Y97604D02*
D03*
X233169Y42421D02*
D03*
X401142Y232362D02*
D03*
Y238268D02*
D03*
Y244173D02*
D03*
Y226496D02*
D03*
X395728Y226398D02*
D03*
Y244075D02*
D03*
Y238169D02*
D03*
Y232264D02*
D03*
X234350Y318898D02*
D03*
Y231496D02*
D03*
Y185138D02*
D03*
Y110433D02*
D03*
X233169Y61024D02*
D03*
X148031Y28839D02*
D03*
X147835Y83760D02*
D03*
X147441Y311024D02*
D03*
X147736Y260138D02*
D03*
X147146Y196653D02*
D03*
X49016Y340295D02*
D03*
X312303Y340256D02*
D03*
X317224D02*
D03*
X307087D02*
D03*
X435925Y343996D02*
D03*
X446063D02*
D03*
X441240D02*
D03*
X377756Y337992D02*
D03*
X383287D02*
D03*
X-5569Y279290D02*
D03*
X147343Y145866D02*
D03*
X317323Y335728D02*
D03*
X307185D02*
D03*
X312303D02*
D03*
X57480Y372047D02*
D03*
X92716Y87205D02*
D03*
X146850Y371358D02*
D03*
X30118Y178937D02*
D03*
Y199705D02*
D03*
X28543Y327854D02*
D03*
X28445Y316929D02*
D03*
X377756Y69291D02*
D03*
X383287D02*
D03*
X372539D02*
D03*
Y156693D02*
D03*
X383287D02*
D03*
X377756D02*
D03*
X377756Y223484D02*
D03*
X372539D02*
D03*
X383287D02*
D03*
X395728Y40905D02*
D03*
X401142D02*
D03*
Y46772D02*
D03*
X395728D02*
D03*
X401142Y52677D02*
D03*
X395728D02*
D03*
X401142Y58583D02*
D03*
X395728D02*
D03*
X456437Y190728D02*
D03*
X462716Y106063D02*
D03*
X395728Y105630D02*
D03*
Y123307D02*
D03*
Y117402D02*
D03*
Y111496D02*
D03*
X395728Y179114D02*
D03*
Y185020D02*
D03*
Y190925D02*
D03*
Y173248D02*
D03*
X456595Y212008D02*
D03*
X456732Y178819D02*
D03*
X456811Y106063D02*
D03*
X456693Y217717D02*
D03*
X456811Y123819D02*
D03*
X456791Y112303D02*
D03*
X456732Y172874D02*
D03*
X456811Y117913D02*
D03*
X456693Y229528D02*
D03*
X456732Y184724D02*
D03*
X456693Y223622D02*
D03*
X462638Y184724D02*
D03*
X462598Y217717D02*
D03*
X462638Y172874D02*
D03*
X462598Y223622D02*
D03*
X462716Y123819D02*
D03*
X462638Y190630D02*
D03*
X462785Y111939D02*
D03*
X462598Y229528D02*
D03*
X462638Y178819D02*
D03*
X462697Y117913D02*
D03*
X462894Y212205D02*
D03*
X462756Y46496D02*
D03*
X456850D02*
D03*
Y58307D02*
D03*
Y52402D02*
D03*
Y40551D02*
D03*
X462756Y58307D02*
D03*
Y52402D02*
D03*
Y40551D02*
D03*
X401142Y111499D02*
D03*
Y117405D02*
D03*
Y123310D02*
D03*
Y105633D02*
D03*
Y173346D02*
D03*
Y191024D02*
D03*
Y185118D02*
D03*
Y179213D02*
D03*
D103*
X173622Y224311D02*
X186417Y211516D01*
X173551Y224311D02*
X173622D01*
X186417Y165748D02*
Y211516D01*
X220177Y272736D02*
X222638Y270276D01*
X220177Y272736D02*
Y315945D01*
X204626Y331496D02*
X220177Y315945D01*
X186417Y165748D02*
X190748Y161417D01*
X167618Y94488D02*
Y102953D01*
Y94488D02*
X190354Y71752D01*
X44325Y214974D02*
Y342500D01*
Y214974D02*
X50886Y208413D01*
X44325Y342500D02*
X46487Y344661D01*
X10138Y256102D02*
X12665D01*
X16732Y260170D02*
Y332382D01*
X12665Y256102D02*
X16732Y260170D01*
X12500Y263287D02*
Y347736D01*
X10335Y261122D02*
X12500Y263287D01*
X50886Y102557D02*
Y208413D01*
X50982Y66242D02*
Y102461D01*
Y66242D02*
X55020Y62205D01*
X50886Y102557D02*
X50982Y102461D01*
X20360Y299254D02*
X20798D01*
X16803Y295697D02*
X20360Y299254D01*
D104*
X447228Y209071D02*
X447244Y209055D01*
X447228Y209071D02*
Y210646D01*
X397835Y260039D02*
X447228Y210646D01*
X387894Y260039D02*
X397835D01*
X435581Y144341D02*
X443997D01*
X431004Y93898D02*
Y139764D01*
X435581Y144341D01*
X424902Y87795D02*
X431004Y93898D01*
X437303Y76575D02*
X443701D01*
X429232Y68504D02*
X437303Y76575D01*
X449902Y80512D02*
X456811Y87421D01*
X396510Y77854D02*
X399167Y80512D01*
X449902D01*
X427165Y21161D02*
X429232Y23228D01*
Y68504D01*
X396457Y77854D02*
X396510D01*
X179134Y291240D02*
X184449D01*
X201614Y274075D01*
X209941D01*
X445124Y257579D02*
X445177D01*
X456811Y87421D02*
Y106063D01*
D107*
X397415Y255906D02*
X438091Y215230D01*
Y209490D02*
Y215230D01*
X390354Y255906D02*
X397415D01*
X436421Y198921D02*
X440497D01*
X429429Y191929D02*
X436421Y198921D01*
X429429Y157972D02*
Y191929D01*
X425295Y153839D02*
X429429Y157972D01*
X211024Y109525D02*
X212352Y108196D01*
X211024Y109525D02*
Y186417D01*
Y258760D01*
X193012Y276772D02*
X211024Y258760D01*
X208366Y27953D02*
Y110630D01*
Y178713D01*
X208222Y178857D02*
X208366Y178713D01*
X101810Y126965D02*
Y187561D01*
X101033Y42274D02*
Y74262D01*
X100984Y42224D02*
X101033Y42274D01*
Y74262D02*
X101083Y74311D01*
X201227Y27119D02*
X201378Y26969D01*
X201181Y27722D02*
X201227Y27676D01*
X201181Y27722D02*
Y161417D01*
X201227Y27119D02*
Y27676D01*
X201181Y161417D02*
X202461Y162697D01*
X204823Y114075D02*
X208268Y110630D01*
X438091Y209490D02*
X456437Y191144D01*
Y190728D02*
Y191144D01*
X21561Y111427D02*
X23031Y109957D01*
Y109744D02*
Y109957D01*
X21561Y111427D02*
Y224797D01*
X19193Y227165D02*
X21561Y224797D01*
X-10772Y249059D02*
X-8563Y246850D01*
Y183760D02*
X-5610Y180807D01*
X-8563Y183760D02*
Y246850D01*
X-10772Y249059D02*
Y249184D01*
X-5315Y186909D02*
X-3740Y185335D01*
X-5315Y186909D02*
Y248425D01*
X124213Y265059D02*
Y319882D01*
Y265059D02*
X133563Y255709D01*
X139862D01*
D110*
X502518Y89803D02*
D03*
Y33504D02*
D03*
Y146102D02*
D03*
Y258701D02*
D03*
Y202402D02*
D03*
D111*
X19213Y24291D02*
D03*
D114*
X541890Y374016D02*
D03*
Y324016D02*
D03*
Y355709D02*
D03*
Y305709D02*
D03*
D115*
X424705Y241220D02*
D03*
X343209Y250886D02*
D03*
X346555D02*
D03*
X442403Y209467D02*
D03*
X88072Y108813D02*
D03*
X86989Y118950D02*
D03*
Y126431D02*
D03*
X101013Y123760D02*
D03*
X96044Y186175D02*
D03*
X77836Y210289D02*
D03*
X121241Y319935D02*
D03*
X106970Y301136D02*
D03*
X104706Y309108D02*
D03*
X17567Y224718D02*
D03*
X-21063Y118012D02*
D03*
X-2020Y111627D02*
D03*
X-7039Y109560D02*
D03*
X-1626Y103950D02*
D03*
X46898Y106411D02*
D03*
X20913Y108084D02*
D03*
X22291Y99521D02*
D03*
X25013Y99403D02*
D03*
X55165Y59363D02*
D03*
X103394Y44600D02*
D03*
X103591Y74226D02*
D03*
X173374Y50603D02*
D03*
X172193Y63694D02*
D03*
X171110Y102867D02*
D03*
X171799Y161037D02*
D03*
X159102Y166351D02*
D03*
X173768Y227670D02*
D03*
X172835Y283366D02*
D03*
X180559Y287316D02*
D03*
X205217Y327362D02*
D03*
X68405Y333114D02*
D03*
Y326083D02*
D03*
X74508Y345965D02*
D03*
X163681Y345768D02*
D03*
X130905Y319882D02*
D03*
X158366Y326279D02*
D03*
X158366Y333169D02*
D03*
X425984Y65942D02*
D03*
X233465Y249114D02*
D03*
X231004D02*
D03*
X235827D02*
D03*
X-8026Y254179D02*
D03*
X60138Y276870D02*
D03*
X449311Y84252D02*
D03*
X432271Y20769D02*
D03*
X361516Y169193D02*
D03*
X360236Y167126D02*
D03*
X362795D02*
D03*
X362402Y84055D02*
D03*
Y86319D02*
D03*
Y88681D02*
D03*
X185335Y371752D02*
D03*
X180905Y360039D02*
D03*
Y356890D02*
D03*
X180559Y305118D02*
D03*
Y302067D02*
D03*
X199508Y253543D02*
D03*
Y246850D02*
D03*
X198622Y129035D02*
D03*
Y125984D02*
D03*
X198622Y139665D02*
D03*
X198721Y136614D02*
D03*
X180561Y37738D02*
D03*
Y34687D02*
D03*
X180559Y213583D02*
D03*
X245079Y350591D02*
D03*
Y347539D02*
D03*
Y298031D02*
D03*
Y294980D02*
D03*
Y217421D02*
D03*
Y214370D02*
D03*
Y157382D02*
D03*
Y154331D02*
D03*
Y83169D02*
D03*
Y80118D02*
D03*
Y35039D02*
D03*
Y38091D02*
D03*
X306201Y48031D02*
D03*
X310630D02*
D03*
X312894D02*
D03*
X315059D02*
D03*
X317323D02*
D03*
X308465D02*
D03*
X314862Y33366D02*
D03*
X306004D02*
D03*
X308268D02*
D03*
X310433D02*
D03*
X312697D02*
D03*
X317126D02*
D03*
X318406Y43996D02*
D03*
Y37402D02*
D03*
Y41831D02*
D03*
Y35138D02*
D03*
Y46260D02*
D03*
Y39567D02*
D03*
X306004Y43996D02*
D03*
Y37402D02*
D03*
Y39567D02*
D03*
Y41831D02*
D03*
X310236Y35531D02*
D03*
X312500D02*
D03*
X314665D02*
D03*
X308071D02*
D03*
X310630Y45669D02*
D03*
X312894D02*
D03*
X315059D02*
D03*
X308465D02*
D03*
X306201Y137697D02*
D03*
X310630D02*
D03*
X312894D02*
D03*
X315059D02*
D03*
X317323D02*
D03*
X308465D02*
D03*
X314862Y123031D02*
D03*
X306004D02*
D03*
X308268D02*
D03*
X310433D02*
D03*
X312697D02*
D03*
X317126D02*
D03*
X318406Y133661D02*
D03*
Y127067D02*
D03*
Y131496D02*
D03*
Y124803D02*
D03*
Y135925D02*
D03*
Y129232D02*
D03*
X306004Y133661D02*
D03*
Y127067D02*
D03*
Y129232D02*
D03*
Y131496D02*
D03*
X310236Y125197D02*
D03*
X312500D02*
D03*
X314665D02*
D03*
X308071D02*
D03*
X310630Y135335D02*
D03*
X312894D02*
D03*
X315059D02*
D03*
X308465D02*
D03*
X308366Y227559D02*
D03*
X314961D02*
D03*
X312795D02*
D03*
X310531D02*
D03*
X307972Y217421D02*
D03*
X314567D02*
D03*
X312402D02*
D03*
X310138D02*
D03*
X305906Y223721D02*
D03*
Y221457D02*
D03*
Y219291D02*
D03*
Y225886D02*
D03*
X318307Y221457D02*
D03*
Y228150D02*
D03*
Y217028D02*
D03*
Y223721D02*
D03*
Y219291D02*
D03*
Y225886D02*
D03*
X317028Y215256D02*
D03*
X312598D02*
D03*
X310335D02*
D03*
X308169D02*
D03*
X305906D02*
D03*
X314764D02*
D03*
X308366Y229921D02*
D03*
X317224D02*
D03*
X314961D02*
D03*
X312795D02*
D03*
X310531D02*
D03*
X306102D02*
D03*
X217028Y113583D02*
D03*
X218602Y129802D02*
D03*
X203628Y263372D02*
D03*
X217323Y248819D02*
D03*
Y143799D02*
D03*
X163484Y182579D02*
D03*
X195033Y247744D02*
D03*
X204031Y110938D02*
D03*
X203834Y145584D02*
D03*
X203736Y129737D02*
D03*
X180807Y365354D02*
D03*
X180559Y351096D02*
D03*
Y309560D02*
D03*
Y297159D02*
D03*
X203441Y282985D02*
D03*
X203543Y249311D02*
D03*
X180559Y230610D02*
D03*
Y178051D02*
D03*
Y148425D02*
D03*
Y162795D02*
D03*
Y85433D02*
D03*
Y95276D02*
D03*
Y41437D02*
D03*
Y27165D02*
D03*
X163681Y13287D02*
D03*
X98327Y376378D02*
D03*
X93012Y369783D02*
D03*
X205217Y345965D02*
D03*
X117520Y221555D02*
D03*
X441640Y93013D02*
D03*
X432382Y27362D02*
D03*
X424973Y96666D02*
D03*
X449508Y201002D02*
D03*
X48524Y179407D02*
D03*
X221850Y193384D02*
D03*
X-40780Y239449D02*
D03*
X71744Y94675D02*
D03*
X140945Y13780D02*
D03*
X409744Y206594D02*
D03*
X213998Y283661D02*
D03*
X433977Y158957D02*
D03*
X425984Y133760D02*
D03*
X174940Y249587D02*
D03*
X116535Y344488D02*
D03*
X61221Y34921D02*
D03*
X79528Y15748D02*
D03*
X74171Y53693D02*
D03*
X424902Y163878D02*
D03*
X425984Y198701D02*
D03*
X443898Y147711D02*
D03*
X-6496Y155709D02*
D03*
X-21949Y268799D02*
D03*
X87008Y292520D02*
D03*
X142717Y305709D02*
D03*
X185335Y345472D02*
D03*
X193405Y368602D02*
D03*
X175000Y370374D02*
D03*
X114665Y378642D02*
D03*
X233334Y332251D02*
D03*
X118405Y381299D02*
D03*
X6373Y213344D02*
D03*
X444567Y14728D02*
D03*
X95384Y67057D02*
D03*
X67778Y75617D02*
D03*
X-40780Y176339D02*
D03*
X404626Y90158D02*
D03*
X404134Y156102D02*
D03*
X-7874Y133071D02*
D03*
X-40780Y170000D02*
D03*
Y157362D02*
D03*
X-6693Y127638D02*
D03*
X-40780Y116378D02*
D03*
Y131929D02*
D03*
Y141575D02*
D03*
Y151024D02*
D03*
Y163701D02*
D03*
Y182598D02*
D03*
Y207835D02*
D03*
Y201614D02*
D03*
Y214173D02*
D03*
Y220236D02*
D03*
Y226850D02*
D03*
Y232992D02*
D03*
Y245590D02*
D03*
Y251969D02*
D03*
Y258228D02*
D03*
Y264488D02*
D03*
Y270821D02*
D03*
Y277130D02*
D03*
X-40778Y280279D02*
D03*
X6333Y217123D02*
D03*
X40630Y379567D02*
D03*
X30847D02*
D03*
X21063D02*
D03*
X440497Y198921D02*
D03*
X443997Y144341D02*
D03*
X443701Y76575D02*
D03*
X173551Y224311D02*
D03*
X343504Y212303D02*
D03*
Y216732D02*
D03*
Y218996D02*
D03*
Y221161D02*
D03*
Y223425D02*
D03*
Y214567D02*
D03*
X358169Y220965D02*
D03*
Y212106D02*
D03*
Y214370D02*
D03*
Y216535D02*
D03*
Y218799D02*
D03*
Y223228D02*
D03*
X347539Y224508D02*
D03*
X354134D02*
D03*
X349705D02*
D03*
X356398D02*
D03*
X345276D02*
D03*
X351969D02*
D03*
X347539Y212106D02*
D03*
X354134D02*
D03*
X351969D02*
D03*
X349705D02*
D03*
X356004Y216339D02*
D03*
Y218602D02*
D03*
Y220768D02*
D03*
Y214173D02*
D03*
X345866Y216732D02*
D03*
Y218996D02*
D03*
Y221161D02*
D03*
Y214567D02*
D03*
X343602Y121752D02*
D03*
Y126181D02*
D03*
Y128445D02*
D03*
Y130610D02*
D03*
Y132874D02*
D03*
Y124016D02*
D03*
X358268Y130413D02*
D03*
Y121555D02*
D03*
Y123819D02*
D03*
Y125984D02*
D03*
Y128248D02*
D03*
Y132677D02*
D03*
X347638Y133957D02*
D03*
X354232D02*
D03*
X349803D02*
D03*
X356496D02*
D03*
X345374D02*
D03*
X352067D02*
D03*
X347638Y121555D02*
D03*
X354232D02*
D03*
X352067D02*
D03*
X349803D02*
D03*
X356102Y125787D02*
D03*
Y128051D02*
D03*
Y130217D02*
D03*
Y123622D02*
D03*
X345965Y126181D02*
D03*
Y128445D02*
D03*
Y130610D02*
D03*
Y124016D02*
D03*
X343504Y30413D02*
D03*
Y34843D02*
D03*
Y37106D02*
D03*
Y39272D02*
D03*
Y41535D02*
D03*
Y32677D02*
D03*
X358169Y39075D02*
D03*
Y30217D02*
D03*
Y32480D02*
D03*
Y34646D02*
D03*
Y36909D02*
D03*
Y41339D02*
D03*
X347539Y42618D02*
D03*
X354134D02*
D03*
X349705D02*
D03*
X356398D02*
D03*
X345276D02*
D03*
X351969D02*
D03*
X347539Y30217D02*
D03*
X354134D02*
D03*
X351969D02*
D03*
X349705D02*
D03*
X356004Y34449D02*
D03*
Y36713D02*
D03*
Y38878D02*
D03*
Y32283D02*
D03*
X345866Y34843D02*
D03*
Y37106D02*
D03*
Y39272D02*
D03*
Y32677D02*
D03*
X212352Y108196D02*
D03*
X211024Y186417D02*
D03*
X193012Y276772D02*
D03*
X209941Y274075D02*
D03*
X94656Y183687D02*
D03*
X208222Y178857D02*
D03*
X204626Y331496D02*
D03*
X101575Y213779D02*
D03*
X101772Y309055D02*
D03*
X105610Y297539D02*
D03*
X101772Y187598D02*
D03*
X101810Y126965D02*
D03*
X106004Y255807D02*
D03*
X106188Y194361D02*
D03*
X106004Y157913D02*
D03*
X106201Y111852D02*
D03*
Y42520D02*
D03*
X100984Y42224D02*
D03*
X101083Y74311D02*
D03*
Y119193D02*
D03*
X93405Y198524D02*
D03*
X204823Y114075D02*
D03*
X39272Y112106D02*
D03*
X86516Y116043D02*
D03*
Y111042D02*
D03*
X190748Y161417D02*
D03*
X167618Y102953D02*
D03*
X179134Y291240D02*
D03*
X86516Y190551D02*
D03*
X201378Y26969D02*
D03*
X208366Y27953D02*
D03*
X49428Y221037D02*
D03*
X23031Y109744D02*
D03*
X19193Y227165D02*
D03*
X10138Y256102D02*
D03*
X10335Y261122D02*
D03*
X190354Y71752D02*
D03*
X-10772Y249184D02*
D03*
X-3740Y185335D02*
D03*
X-5610Y180807D02*
D03*
X-5315Y248425D02*
D03*
X39790Y181820D02*
D03*
X202461Y162697D02*
D03*
X222638Y270276D02*
D03*
X30709Y118602D02*
D03*
X87106Y130118D02*
D03*
X76870Y207261D02*
D03*
X75129Y299114D02*
D03*
X390354Y255906D02*
D03*
X387894Y260039D02*
D03*
X427165Y21161D02*
D03*
X180709Y249654D02*
D03*
X182780Y345480D02*
D03*
X30512Y128937D02*
D03*
X447244Y209055D02*
D03*
X38878Y15551D02*
D03*
X38976Y28839D02*
D03*
X445177Y257579D02*
D03*
X30807Y157776D02*
D03*
X32579Y95768D02*
D03*
X10079Y241339D02*
D03*
Y238189D02*
D03*
Y244488D02*
D03*
X27677Y321886D02*
D03*
X30299Y295629D02*
D03*
X36752Y198917D02*
D03*
Y203740D02*
D03*
X12539Y238189D02*
D03*
Y241339D02*
D03*
Y244488D02*
D03*
X39272Y100591D02*
D03*
X30807Y146063D02*
D03*
X30610Y121850D02*
D03*
X36555Y209646D02*
D03*
X18642Y232776D02*
D03*
X30807Y150886D02*
D03*
X31988Y51673D02*
D03*
X31890Y47539D02*
D03*
X39075Y64102D02*
D03*
X30906Y166535D02*
D03*
X50982Y102461D02*
D03*
X124213Y319882D02*
D03*
X94685Y295276D02*
D03*
X86713Y163189D02*
D03*
X55020Y62205D02*
D03*
X68110Y78839D02*
D03*
X20798Y299254D02*
D03*
X20866Y235433D02*
D03*
X-28543Y236221D02*
D03*
X139862Y255709D02*
D03*
X44325Y214974D02*
D03*
X16732Y332382D02*
D03*
X12500Y347736D02*
D03*
X46487Y344661D02*
D03*
X114330Y381978D02*
D03*
X112598Y384252D02*
D03*
X117504Y376477D02*
D03*
X118701Y373819D02*
D03*
X396457Y77854D02*
D03*
X425295Y153839D02*
D03*
X424902Y87795D02*
D03*
X67633Y71601D02*
D03*
X-19702Y261260D02*
D03*
X460669Y18425D02*
D03*
M02*
