G04*
G04 #@! TF.GenerationSoftware,Altium Limited,Altium Designer,24.9.1 (31)*
G04*
G04 Layer_Physical_Order=2*
G04 Layer_Color=36540*
%FSLAX25Y25*%
%MOIN*%
G70*
G04*
G04 #@! TF.SameCoordinates,E4AAA2B5-EF63-4550-BCDA-9567FD91980C*
G04*
G04*
G04 #@! TF.FilePolarity,Positive*
G04*
G01*
G75*
%ADD101C,0.03937*%
%ADD110C,0.13287*%
%ADD111C,0.05906*%
%ADD114C,0.12598*%
%ADD115C,0.01968*%
G36*
X545972Y392535D02*
X547338Y392169D01*
X548645Y391628D01*
X549870Y390920D01*
X550993Y390059D01*
X551993Y389059D01*
X552854Y387937D01*
X553561Y386712D01*
X554103Y385405D01*
X554469Y384038D01*
X554654Y382636D01*
Y381928D01*
X554654Y229206D01*
X554188Y228740D01*
X482992D01*
Y229394D01*
X464552Y247834D01*
X462583D01*
X461951Y248466D01*
X461300Y248902D01*
X460532Y249054D01*
X440846D01*
X440078Y248902D01*
X439427Y248466D01*
X438992Y247815D01*
X438839Y247047D01*
Y220059D01*
X438992Y219291D01*
X439427Y218640D01*
X439488Y218579D01*
Y218287D01*
X444227Y213548D01*
X443748Y213069D01*
X443478Y212418D01*
Y211713D01*
X443748Y211062D01*
X444246Y210563D01*
X444897Y210294D01*
X445602D01*
X446253Y210563D01*
X446733Y211043D01*
X453248Y204528D01*
Y197716D01*
X442021D01*
X441863Y198216D01*
X442250Y198603D01*
X442520Y199254D01*
Y199959D01*
X442250Y200610D01*
X441752Y201108D01*
X441101Y201378D01*
X440396D01*
X439745Y201108D01*
X439246Y200610D01*
X438976Y199959D01*
Y199254D01*
X439246Y198603D01*
X439642Y198206D01*
X439646Y198128D01*
X439556Y197767D01*
X439510Y197685D01*
X438897Y197563D01*
X438246Y197128D01*
X437811Y196477D01*
X437658Y195709D01*
Y171279D01*
X437731Y170914D01*
X437796Y170549D01*
X437807Y170531D01*
X437811Y170511D01*
X438017Y170202D01*
X438217Y169889D01*
X439488Y168565D01*
Y168203D01*
X446734Y160957D01*
X446733Y160951D01*
X446234Y160452D01*
X445965Y159801D01*
Y159096D01*
X446234Y158445D01*
X446733Y157947D01*
X447384Y157677D01*
X448089D01*
X448740Y157947D01*
X448967Y158174D01*
X449467Y158169D01*
X453248Y154230D01*
Y143209D01*
X445987D01*
X445652Y143709D01*
X445769Y143989D01*
Y144694D01*
X445499Y145345D01*
X445001Y145843D01*
X444349Y146113D01*
X443645D01*
X442993Y145843D01*
X442495Y145345D01*
X442225Y144694D01*
Y143989D01*
X442341Y143709D01*
X442007Y143209D01*
X439488D01*
Y142952D01*
X437795D01*
X437027Y142799D01*
X436376Y142364D01*
X435941Y141713D01*
X435788Y140945D01*
Y104841D01*
X435864Y104458D01*
X435939Y104077D01*
X435941Y104076D01*
X435941Y104074D01*
X436157Y103750D01*
X436373Y103425D01*
X439488Y100297D01*
Y98898D01*
X446394Y91991D01*
X446313Y91910D01*
X446043Y91259D01*
Y90554D01*
X446313Y89903D01*
X446811Y89404D01*
X447463Y89135D01*
X448167D01*
X448818Y89404D01*
X448900Y89486D01*
X453248Y85138D01*
X453150Y85039D01*
Y74350D01*
X444265D01*
X444165Y74850D01*
X444704Y75073D01*
X445203Y75571D01*
X445472Y76222D01*
Y76927D01*
X445203Y77578D01*
X444704Y78077D01*
X444053Y78347D01*
X443348D01*
X442697Y78077D01*
X442199Y77578D01*
X441929Y76927D01*
Y76222D01*
X442199Y75571D01*
X442697Y75073D01*
X443236Y74850D01*
X443137Y74350D01*
X440256D01*
X439488Y74197D01*
X438837Y73762D01*
X438402Y73111D01*
X438249Y72342D01*
Y36988D01*
X438402Y36220D01*
X438837Y35569D01*
X439488Y34918D01*
Y34843D01*
X439563D01*
X446221Y28184D01*
X445910Y27874D01*
X445641Y27222D01*
Y26518D01*
X445910Y25866D01*
X446409Y25368D01*
X447060Y25098D01*
X447765D01*
X448416Y25368D01*
X448727Y25679D01*
X453248Y21158D01*
Y1020D01*
X439488D01*
X11811Y1020D01*
X11104D01*
X9701Y1204D01*
X8335Y1570D01*
X7028Y2112D01*
X5803Y2819D01*
X4680Y3680D01*
X3680Y4680D01*
X2819Y5803D01*
X2112Y7028D01*
X1570Y8335D01*
X1204Y9701D01*
X1020Y11104D01*
X1020Y11811D01*
X1020Y99508D01*
X942Y99898D01*
X721Y100229D01*
X390Y100450D01*
X-0Y100527D01*
X-23910D01*
X-23934Y100522D01*
X-23960Y100526D01*
X-24345Y100507D01*
X-24419Y100489D01*
X-24494D01*
X-25251Y100338D01*
X-25344Y100300D01*
X-25442Y100280D01*
X-26155Y99985D01*
X-26239Y99929D01*
X-26332Y99891D01*
X-26974Y99462D01*
X-27044Y99391D01*
X-27128Y99335D01*
X-27674Y98789D01*
X-27729Y98706D01*
X-27801Y98635D01*
X-28229Y97993D01*
X-28268Y97900D01*
X-28324Y97817D01*
X-28619Y97104D01*
X-28638Y97005D01*
X-28677Y96913D01*
X-28828Y96156D01*
Y96080D01*
X-28846Y96007D01*
X-28865Y95621D01*
X-28861Y95596D01*
X-28866Y95571D01*
Y93209D01*
X-28866Y93098D01*
X-28951Y92894D01*
X-29107Y92738D01*
X-29311Y92653D01*
X-33834D01*
Y105413D01*
X-33839Y105439D01*
X-33836Y105464D01*
X-33855Y105850D01*
X-33873Y105923D01*
X-33873Y105998D01*
X-34023Y106755D01*
X-34062Y106848D01*
X-34082Y106946D01*
X-34377Y107659D01*
X-34433Y107743D01*
X-34471Y107835D01*
X-34900Y108477D01*
X-34971Y108548D01*
X-35026Y108632D01*
X-35572Y109177D01*
X-35656Y109233D01*
X-35727Y109304D01*
X-36368Y109733D01*
X-36461Y109772D01*
X-36545Y109827D01*
X-37258Y110123D01*
X-37356Y110142D01*
X-37449Y110181D01*
X-38206Y110331D01*
X-38282D01*
X-38355Y110350D01*
X-38741Y110369D01*
X-38766Y110365D01*
X-38791Y110370D01*
X-57457D01*
Y184807D01*
X-38004Y184807D01*
X-37971Y184814D01*
X-37937Y184809D01*
X-37321Y184850D01*
X-37224Y184876D01*
X-37123Y184882D01*
X-35932Y185202D01*
X-35813Y185261D01*
X-35686Y185303D01*
X-34618Y185920D01*
X-34518Y186008D01*
X-34407Y186082D01*
X-33535Y186954D01*
X-33461Y187065D01*
X-33373Y187165D01*
X-32756Y188233D01*
X-32713Y188360D01*
X-32654Y188479D01*
X-32335Y189671D01*
X-32326Y189804D01*
X-32300Y189935D01*
Y191168D01*
X-32326Y191299D01*
X-32335Y191432D01*
X-32654Y192623D01*
X-32713Y192743D01*
X-32756Y192869D01*
X-33373Y193937D01*
X-33461Y194037D01*
X-33535Y194148D01*
X-34407Y195020D01*
X-34518Y195094D01*
X-34618Y195182D01*
X-35686Y195799D01*
X-35813Y195842D01*
X-35932Y195901D01*
X-37123Y196220D01*
X-37224Y196227D01*
X-37321Y196253D01*
X-37937Y196293D01*
X-37971Y196289D01*
X-38004Y196295D01*
X-57457D01*
Y283331D01*
X-38791D01*
X-38766Y283336D01*
X-38741Y283332D01*
X-38355Y283351D01*
X-38282Y283369D01*
X-38206Y283369D01*
X-37449Y283520D01*
X-37356Y283558D01*
X-37258Y283578D01*
X-36545Y283873D01*
X-36461Y283929D01*
X-36368Y283967D01*
X-35727Y284396D01*
X-35656Y284467D01*
X-35572Y284523D01*
X-35026Y285069D01*
X-34971Y285152D01*
X-34900Y285223D01*
X-34471Y285865D01*
X-34432Y285958D01*
X-34377Y286041D01*
X-34081Y286754D01*
X-34062Y286853D01*
X-34023Y286946D01*
X-33873Y287703D01*
X-33873Y287778D01*
X-33854Y287852D01*
X-33835Y288237D01*
X-33839Y288263D01*
X-33834Y288287D01*
Y301047D01*
X-29421D01*
X-29421Y301047D01*
X-29421Y301047D01*
X-29311Y301047D01*
X-29107Y300963D01*
X-28951Y300807D01*
X-28866Y300603D01*
X-28866Y300492D01*
X-28866Y300492D01*
X-28866Y300492D01*
Y298130D01*
X-28861Y298105D01*
X-28865Y298080D01*
X-28846Y297694D01*
X-28828Y297621D01*
Y297545D01*
X-28677Y296788D01*
X-28638Y296695D01*
X-28619Y296597D01*
X-28324Y295884D01*
X-28268Y295800D01*
X-28229Y295708D01*
X-27801Y295066D01*
X-27730Y294995D01*
X-27674Y294911D01*
X-27128Y294366D01*
X-27044Y294310D01*
X-26974Y294239D01*
X-26332Y293810D01*
X-26239Y293772D01*
X-26155Y293716D01*
X-25442Y293421D01*
X-25344Y293401D01*
X-25251Y293362D01*
X-24494Y293212D01*
X-24419D01*
X-24345Y293194D01*
X-23959Y293175D01*
X-23934Y293178D01*
X-23910Y293173D01*
X-0D01*
X390Y293251D01*
X721Y293472D01*
X942Y293803D01*
X1020Y294193D01*
Y381890D01*
X1020Y382597D01*
X1204Y384000D01*
X1570Y385366D01*
X2112Y386673D01*
X2819Y387898D01*
X3680Y389020D01*
X4681Y390021D01*
X5803Y390882D01*
X7028Y391589D01*
X8335Y392130D01*
X9701Y392497D01*
X11104Y392681D01*
X11811Y392681D01*
X11811Y392681D01*
X11811Y392681D01*
X543862Y392720D01*
X544569D01*
X545972Y392535D01*
D02*
G37*
G36*
X481299Y226279D02*
X484205D01*
X484412Y225780D01*
X483866Y225234D01*
X483259Y224182D01*
X482945Y223009D01*
Y221794D01*
X483259Y220621D01*
X483866Y219569D01*
X484725Y218711D01*
X485777Y218104D01*
X486950Y217789D01*
X488164D01*
X489337Y218104D01*
X490389Y218711D01*
X491248Y219569D01*
X491855Y220621D01*
X492170Y221794D01*
Y223009D01*
X491855Y224182D01*
X491248Y225234D01*
X490702Y225780D01*
X490909Y226279D01*
X524205Y226279D01*
X524412Y225780D01*
X523866Y225234D01*
X523259Y224182D01*
X522945Y223009D01*
Y221794D01*
X523259Y220621D01*
X523866Y219569D01*
X524725Y218711D01*
X525777Y218104D01*
X526950Y217789D01*
X528164D01*
X529338Y218104D01*
X530389Y218711D01*
X531248Y219569D01*
X531855Y220621D01*
X532169Y221794D01*
Y223009D01*
X531855Y224182D01*
X531248Y225234D01*
X530702Y225780D01*
X530909Y226279D01*
X543862Y226280D01*
Y178740D01*
X531072D01*
X530880Y179202D01*
X531248Y179569D01*
X531855Y180621D01*
X532169Y181794D01*
Y183009D01*
X531855Y184182D01*
X531248Y185234D01*
X530389Y186092D01*
X529338Y186700D01*
X528164Y187014D01*
X526950D01*
X525777Y186700D01*
X524725Y186092D01*
X523866Y185234D01*
X523259Y184182D01*
X522945Y183009D01*
Y181794D01*
X523259Y180621D01*
X523866Y179569D01*
X524234Y179202D01*
X524042Y178740D01*
X491072D01*
X490880Y179202D01*
X491248Y179569D01*
X491855Y180621D01*
X492170Y181794D01*
Y183009D01*
X491855Y184182D01*
X491248Y185234D01*
X490389Y186092D01*
X489337Y186700D01*
X488164Y187014D01*
X486950D01*
X485777Y186700D01*
X484725Y186092D01*
X483866Y185234D01*
X483259Y184182D01*
X482945Y183009D01*
Y181794D01*
X483259Y180621D01*
X483866Y179569D01*
X484234Y179202D01*
X484042Y178740D01*
X482165D01*
X440846Y220059D01*
Y247047D01*
X460532D01*
X481299Y226279D01*
D02*
G37*
G36*
X485650Y171279D02*
X543862D01*
Y121260D01*
X529237D01*
X529171Y121760D01*
X529338Y121804D01*
X530389Y122412D01*
X531248Y123270D01*
X531855Y124322D01*
X532169Y125495D01*
Y126710D01*
X531855Y127883D01*
X531248Y128935D01*
X530389Y129793D01*
X529338Y130401D01*
X528164Y130715D01*
X526950D01*
X525777Y130401D01*
X524725Y129793D01*
X523866Y128935D01*
X523259Y127883D01*
X522945Y126710D01*
Y125495D01*
X523259Y124322D01*
X523866Y123270D01*
X524725Y122412D01*
X525777Y121804D01*
X525943Y121760D01*
X525877Y121260D01*
X489237D01*
X489171Y121760D01*
X489337Y121804D01*
X490389Y122412D01*
X491248Y123270D01*
X491855Y124322D01*
X492170Y125495D01*
Y126710D01*
X491855Y127883D01*
X491248Y128935D01*
X490389Y129793D01*
X489337Y130401D01*
X488164Y130715D01*
X486950D01*
X485777Y130401D01*
X484725Y129793D01*
X483866Y128935D01*
X483259Y127883D01*
X482987Y126868D01*
X482484Y126671D01*
X439665Y171279D01*
Y195709D01*
X461220D01*
X485650Y171279D01*
D02*
G37*
G36*
X484842Y115551D02*
X543862Y115551D01*
Y64862D01*
X528870D01*
X528804Y65362D01*
X529338Y65505D01*
X530389Y66112D01*
X531248Y66971D01*
X531855Y68023D01*
X532169Y69196D01*
Y70411D01*
X531855Y71583D01*
X531248Y72635D01*
X530389Y73494D01*
X529338Y74101D01*
X528164Y74416D01*
X526950D01*
X525777Y74101D01*
X524725Y73494D01*
X523866Y72635D01*
X523259Y71583D01*
X522945Y70411D01*
Y69196D01*
X523259Y68023D01*
X523866Y66971D01*
X524725Y66112D01*
X525777Y65505D01*
X526310Y65362D01*
X526244Y64862D01*
X488870D01*
X488804Y65362D01*
X489337Y65505D01*
X490389Y66112D01*
X491248Y66971D01*
X491855Y68023D01*
X492170Y69196D01*
Y70411D01*
X491855Y71583D01*
X491248Y72635D01*
X490389Y73494D01*
X489337Y74101D01*
X488164Y74416D01*
X486950D01*
X485777Y74101D01*
X484725Y73494D01*
X483866Y72635D01*
X483259Y71583D01*
X482945Y70411D01*
Y69196D01*
X483259Y68023D01*
X483866Y66971D01*
X484725Y66112D01*
X485777Y65505D01*
X486310Y65362D01*
X486244Y64862D01*
X477601D01*
X437795Y104841D01*
Y140945D01*
X459449D01*
X484842Y115551D01*
D02*
G37*
G36*
X475157Y58858D02*
X543862D01*
Y7677D01*
X469567D01*
X440256Y36988D01*
Y72342D01*
X461673D01*
X475157Y58858D01*
D02*
G37*
%LPC*%
G36*
X113193Y385781D02*
X112488D01*
X111837Y385512D01*
X111339Y385013D01*
X111069Y384362D01*
Y383657D01*
X111339Y383006D01*
X111837Y382508D01*
X112240Y382341D01*
X112698Y382139D01*
Y381434D01*
X112968Y380783D01*
X113466Y380285D01*
X114117Y380015D01*
X114822D01*
X115473Y380285D01*
X115972Y380783D01*
X116241Y381434D01*
Y382139D01*
X115972Y382790D01*
X115473Y383289D01*
X115070Y383456D01*
X114612Y383657D01*
Y384362D01*
X114343Y385013D01*
X113844Y385512D01*
X113193Y385781D01*
D02*
G37*
G36*
X100352Y376378D02*
X99648D01*
X98996Y376108D01*
X98498Y375610D01*
X98228Y374959D01*
Y374254D01*
X98498Y373603D01*
X98996Y373104D01*
X99648Y372835D01*
X100352D01*
X101004Y373104D01*
X101502Y373603D01*
X101772Y374254D01*
Y374959D01*
X101502Y375610D01*
X101004Y376108D01*
X100352Y376378D01*
D02*
G37*
G36*
X117856Y378248D02*
X117151D01*
X116500Y377979D01*
X116002Y377480D01*
X115732Y376829D01*
Y376124D01*
X116002Y375473D01*
X116500Y374975D01*
X117150Y374706D01*
X116929Y374171D01*
Y373466D01*
X117199Y372815D01*
X117697Y372317D01*
X118348Y372047D01*
X119053D01*
X119704Y372317D01*
X120203Y372815D01*
X120472Y373466D01*
Y374171D01*
X120203Y374822D01*
X119704Y375321D01*
X119054Y375590D01*
X119276Y376124D01*
Y376829D01*
X119006Y377480D01*
X118508Y377979D01*
X117856Y378248D01*
D02*
G37*
G36*
X542510Y380315D02*
X541269D01*
X540052Y380073D01*
X538906Y379598D01*
X537874Y378908D01*
X536997Y378031D01*
X536307Y376999D01*
X535833Y375853D01*
X535591Y374636D01*
Y373395D01*
X535833Y372178D01*
X536307Y371032D01*
X536997Y370000D01*
X537874Y369123D01*
X538906Y368433D01*
X540052Y367958D01*
X541269Y367716D01*
X542510D01*
X543727Y367958D01*
X544874Y368433D01*
X545905Y369123D01*
X546783Y370000D01*
X547472Y371032D01*
X547947Y372178D01*
X548189Y373395D01*
Y374636D01*
X547947Y375853D01*
X547472Y376999D01*
X546783Y378031D01*
X545905Y378908D01*
X544874Y379598D01*
X543727Y380073D01*
X542510Y380315D01*
D02*
G37*
G36*
X195628Y370113D02*
X194923D01*
X194272Y369844D01*
X193774Y369345D01*
X193504Y368694D01*
Y367989D01*
X193774Y367338D01*
X194272Y366840D01*
X194923Y366570D01*
X195628D01*
X196279Y366840D01*
X196777Y367338D01*
X197047Y367989D01*
Y368694D01*
X196777Y369345D01*
X196279Y369844D01*
X195628Y370113D01*
D02*
G37*
G36*
X91353Y370061D02*
X90648D01*
X89997Y369791D01*
X89498Y369293D01*
X89229Y368641D01*
Y367937D01*
X89498Y367285D01*
X89997Y366787D01*
X90648Y366517D01*
X91353D01*
X92004Y366787D01*
X92502Y367285D01*
X92772Y367937D01*
Y368641D01*
X92502Y369293D01*
X92004Y369791D01*
X91353Y370061D01*
D02*
G37*
G36*
X175352Y369488D02*
X174648D01*
X173996Y369218D01*
X173498Y368720D01*
X173228Y368069D01*
Y367364D01*
X173498Y366713D01*
X173996Y366215D01*
X174648Y365945D01*
X175352D01*
X176004Y366215D01*
X176502Y366713D01*
X176772Y367364D01*
Y368069D01*
X176502Y368720D01*
X176004Y369218D01*
X175352Y369488D01*
D02*
G37*
G36*
X224663Y366437D02*
X223959D01*
X223307Y366167D01*
X222809Y365669D01*
X222539Y365018D01*
Y364313D01*
X222809Y363662D01*
X223307Y363163D01*
X223959Y362894D01*
X224663D01*
X225315Y363163D01*
X225813Y363662D01*
X226083Y364313D01*
Y365018D01*
X225813Y365669D01*
X225315Y366167D01*
X224663Y366437D01*
D02*
G37*
G36*
X490962Y365314D02*
X490257D01*
X489606Y365044D01*
X489107Y364546D01*
X488838Y363895D01*
Y363190D01*
X489107Y362539D01*
X488939Y362000D01*
X488752Y361813D01*
X488482Y361162D01*
Y360457D01*
X488752Y359806D01*
X489250Y359308D01*
X489901Y359038D01*
X490606D01*
X491257Y359308D01*
X491756Y359806D01*
X492025Y360457D01*
Y361162D01*
X491756Y361813D01*
X491924Y362352D01*
X492111Y362539D01*
X492381Y363190D01*
Y363895D01*
X492111Y364546D01*
X491613Y365044D01*
X490962Y365314D01*
D02*
G37*
G36*
X147312Y361417D02*
X146586D01*
X145885Y361229D01*
X145257Y360867D01*
X144744Y360354D01*
X144381Y359725D01*
X144193Y359024D01*
Y358299D01*
X144381Y357598D01*
X144744Y356969D01*
X145257Y356456D01*
X145885Y356093D01*
X146586Y355906D01*
X147312D01*
X148013Y356093D01*
X148641Y356456D01*
X149154Y356969D01*
X149517Y357598D01*
X149705Y358299D01*
Y359024D01*
X149517Y359725D01*
X149154Y360354D01*
X148641Y360867D01*
X148013Y361229D01*
X147312Y361417D01*
D02*
G37*
G36*
X472935Y361807D02*
X472230D01*
X471579Y361538D01*
X471080Y361039D01*
X470811Y360388D01*
Y359683D01*
X471080Y359032D01*
X471382Y358730D01*
X470939Y358287D01*
X470669Y357636D01*
Y356931D01*
X470939Y356280D01*
X471437Y355782D01*
X472088Y355512D01*
X472793D01*
X473445Y355782D01*
X473943Y356280D01*
X474213Y356931D01*
Y357636D01*
X473943Y358287D01*
X473641Y358589D01*
X474084Y359032D01*
X474354Y359683D01*
Y360388D01*
X474084Y361039D01*
X473586Y361538D01*
X472935Y361807D01*
D02*
G37*
G36*
X542510Y362008D02*
X541269D01*
X540052Y361766D01*
X538906Y361291D01*
X537874Y360601D01*
X536997Y359724D01*
X536307Y358692D01*
X535833Y357546D01*
X535591Y356329D01*
Y355088D01*
X535833Y353871D01*
X536307Y352725D01*
X536997Y351693D01*
X537874Y350816D01*
X538906Y350126D01*
X540052Y349652D01*
X541269Y349409D01*
X542510D01*
X543727Y349652D01*
X544874Y350126D01*
X545905Y350816D01*
X546783Y351693D01*
X547472Y352725D01*
X547947Y353871D01*
X548189Y355088D01*
Y356329D01*
X547947Y357546D01*
X547472Y358692D01*
X546783Y359724D01*
X545905Y360601D01*
X544874Y361291D01*
X543727Y361766D01*
X542510Y362008D01*
D02*
G37*
G36*
X136573Y352362D02*
X135868D01*
X135217Y352093D01*
X134719Y351594D01*
X134449Y350943D01*
Y350238D01*
X134719Y349587D01*
X135217Y349089D01*
X135868Y348819D01*
X136573D01*
X137224Y349089D01*
X137722Y349587D01*
X137992Y350238D01*
Y350943D01*
X137722Y351594D01*
X137224Y352093D01*
X136573Y352362D01*
D02*
G37*
G36*
X491494Y354035D02*
X490789D01*
X490138Y353766D01*
X489640Y353267D01*
X489370Y352616D01*
Y351911D01*
X489640Y351260D01*
X490070Y350830D01*
X489702Y350462D01*
X489433Y349811D01*
Y349106D01*
X489702Y348455D01*
X490201Y347957D01*
X490852Y347687D01*
X491557D01*
X492208Y347957D01*
X492706Y348455D01*
X492976Y349106D01*
Y349811D01*
X492706Y350462D01*
X492276Y350892D01*
X492644Y351260D01*
X492913Y351911D01*
Y352616D01*
X492644Y353267D01*
X492145Y353766D01*
X491494Y354035D01*
D02*
G37*
G36*
X234713Y353150D02*
X233988D01*
X233287Y352962D01*
X232658Y352599D01*
X232145Y352086D01*
X231782Y351457D01*
X231594Y350757D01*
Y350031D01*
X231782Y349330D01*
X232145Y348702D01*
X232658Y348188D01*
X233287Y347826D01*
X233988Y347638D01*
X234713D01*
X235414Y347826D01*
X236042Y348188D01*
X236556Y348702D01*
X236918Y349330D01*
X237106Y350031D01*
Y350757D01*
X236918Y351457D01*
X236556Y352086D01*
X236042Y352599D01*
X235414Y352962D01*
X234713Y353150D01*
D02*
G37*
G36*
X12852Y349508D02*
X12148D01*
X11496Y349238D01*
X10998Y348740D01*
X10728Y348089D01*
Y347384D01*
X10998Y346733D01*
X11496Y346234D01*
X12148Y345965D01*
X12852D01*
X13504Y346234D01*
X14002Y346733D01*
X14272Y347384D01*
Y348089D01*
X14002Y348740D01*
X13504Y349238D01*
X12852Y349508D01*
D02*
G37*
G36*
X245431Y352362D02*
X244726D01*
X244075Y352093D01*
X243577Y351594D01*
X243307Y350943D01*
Y350238D01*
X243577Y349587D01*
X243772Y349392D01*
X244055Y349065D01*
X243772Y348738D01*
X243577Y348543D01*
X243307Y347892D01*
Y347187D01*
X243577Y346536D01*
X244075Y346037D01*
X244726Y345768D01*
X245431D01*
X246082Y346037D01*
X246581Y346536D01*
X246850Y347187D01*
Y347892D01*
X246581Y348543D01*
X246385Y348738D01*
X246103Y349065D01*
X246385Y349392D01*
X246581Y349587D01*
X246850Y350238D01*
Y350943D01*
X246581Y351594D01*
X246082Y352093D01*
X245431Y352362D01*
D02*
G37*
G36*
X446426Y346752D02*
X445700D01*
X444999Y346564D01*
X444371Y346201D01*
X443962Y345793D01*
X443652Y345730D01*
X443341Y345793D01*
X442932Y346201D01*
X442304Y346564D01*
X441603Y346752D01*
X440877D01*
X440176Y346564D01*
X439548Y346201D01*
X439035Y345688D01*
X438871Y345405D01*
X438294D01*
X438131Y345688D01*
X437617Y346201D01*
X436989Y346564D01*
X436288Y346752D01*
X435562D01*
X434862Y346564D01*
X434233Y346201D01*
X433720Y345688D01*
X433357Y345060D01*
X433169Y344359D01*
Y343633D01*
X433357Y342932D01*
X433720Y342304D01*
X434233Y341791D01*
X434862Y341428D01*
X435562Y341240D01*
X436288D01*
X436989Y341428D01*
X437617Y341791D01*
X438131Y342304D01*
X438294Y342587D01*
X438871D01*
X439035Y342304D01*
X439548Y341791D01*
X440176Y341428D01*
X440877Y341240D01*
X441603D01*
X442304Y341428D01*
X442932Y341791D01*
X443341Y342199D01*
X443652Y342262D01*
X443962Y342199D01*
X444371Y341791D01*
X444999Y341428D01*
X445700Y341240D01*
X446426D01*
X447127Y341428D01*
X447755Y341791D01*
X448268Y342304D01*
X448631Y342932D01*
X448819Y343633D01*
Y344359D01*
X448631Y345060D01*
X448268Y345688D01*
X447755Y346201D01*
X447127Y346564D01*
X446426Y346752D01*
D02*
G37*
G36*
X31258Y349114D02*
X30553D01*
X29902Y348844D01*
X29404Y348346D01*
X29134Y347695D01*
Y346990D01*
X29404Y346339D01*
X29902Y345841D01*
X30553Y345571D01*
X31258D01*
X31909Y345841D01*
X32407Y346339D01*
X32677Y346990D01*
Y347695D01*
X32407Y348346D01*
X31909Y348844D01*
X31258Y349114D01*
D02*
G37*
G36*
X183133Y347252D02*
X182428D01*
X181777Y346982D01*
X181278Y346483D01*
X181009Y345832D01*
Y345128D01*
X181278Y344476D01*
X181777Y343978D01*
X182428Y343708D01*
X183133D01*
X183784Y343978D01*
X184282Y344476D01*
X184552Y345128D01*
Y345832D01*
X184282Y346483D01*
X183784Y346982D01*
X183133Y347252D01*
D02*
G37*
G36*
X40904Y346433D02*
X40199D01*
X39548Y346163D01*
X39049Y345665D01*
X38780Y345014D01*
Y344309D01*
X39049Y343658D01*
X39548Y343160D01*
X40199Y342890D01*
X40904D01*
X41555Y343160D01*
X42053Y343658D01*
X42323Y344309D01*
Y345014D01*
X42053Y345665D01*
X41555Y346163D01*
X40904Y346433D01*
D02*
G37*
G36*
X46839Y346433D02*
X46134D01*
X45483Y346163D01*
X44985Y345665D01*
X44715Y345014D01*
Y344309D01*
X44985Y343658D01*
X45483Y343159D01*
X46134Y342890D01*
X46839D01*
X47490Y343159D01*
X47989Y343658D01*
X48258Y344309D01*
Y345014D01*
X47989Y345665D01*
X47490Y346163D01*
X46839Y346433D01*
D02*
G37*
G36*
X317587Y343012D02*
X316862D01*
X316161Y342824D01*
X315532Y342461D01*
X315061Y341990D01*
X314815Y341939D01*
X314712D01*
X314466Y341990D01*
X313995Y342461D01*
X313367Y342824D01*
X312666Y343012D01*
X311940D01*
X311239Y342824D01*
X310611Y342461D01*
X310098Y341948D01*
X309984Y341750D01*
X309406D01*
X309292Y341948D01*
X308779Y342461D01*
X308150Y342824D01*
X307449Y343012D01*
X306724D01*
X306023Y342824D01*
X305395Y342461D01*
X304881Y341948D01*
X304519Y341320D01*
X304331Y340619D01*
Y339893D01*
X304519Y339192D01*
X304881Y338564D01*
X305395Y338051D01*
X305592Y337936D01*
Y337359D01*
X305395Y337245D01*
X304881Y336732D01*
X304519Y336103D01*
X304331Y335402D01*
Y334677D01*
X304519Y333976D01*
X304881Y333347D01*
X305395Y332834D01*
X306023Y332471D01*
X306724Y332283D01*
X307449D01*
X308150Y332471D01*
X308779Y332834D01*
X309292Y333347D01*
X309463Y333644D01*
X310040D01*
X310098Y333544D01*
X310611Y333031D01*
X311239Y332668D01*
X311940Y332480D01*
X312666D01*
X313367Y332668D01*
X313995Y333031D01*
X314493Y333528D01*
X314562Y333589D01*
X315035D01*
X315118Y333446D01*
X315631Y332932D01*
X316259Y332570D01*
X316960Y332382D01*
X317686D01*
X318387Y332570D01*
X319015Y332932D01*
X319528Y333446D01*
X319891Y334074D01*
X320079Y334775D01*
Y335501D01*
X319891Y336202D01*
X319528Y336830D01*
X319015Y337343D01*
X318853Y337437D01*
Y338014D01*
X318917Y338051D01*
X319430Y338564D01*
X319793Y339192D01*
X319980Y339893D01*
Y340619D01*
X319793Y341320D01*
X319430Y341948D01*
X318917Y342461D01*
X318288Y342824D01*
X317587Y343012D01*
D02*
G37*
G36*
X124469Y345179D02*
X123764D01*
X123113Y344910D01*
X122615Y344411D01*
X122345Y343760D01*
Y343055D01*
X122615Y342404D01*
X123113Y341906D01*
X123764Y341636D01*
X124469D01*
X125120Y341906D01*
X125618Y342404D01*
X125888Y343055D01*
Y343760D01*
X125618Y344411D01*
X125120Y344910D01*
X124469Y345179D01*
D02*
G37*
G36*
X480522Y348218D02*
X479817D01*
X479166Y347948D01*
X478667Y347450D01*
X478398Y346798D01*
Y346094D01*
X478667Y345443D01*
X479166Y344944D01*
X479255Y344497D01*
X479155Y344396D01*
X478885Y343745D01*
Y343040D01*
X479155Y342389D01*
X479653Y341891D01*
X480304Y341621D01*
X481009D01*
X481660Y341891D01*
X482159Y342389D01*
X482428Y343040D01*
Y343745D01*
X482159Y344396D01*
X481660Y344895D01*
X481571Y345342D01*
X481671Y345443D01*
X481941Y346094D01*
Y346798D01*
X481671Y347450D01*
X481173Y347948D01*
X480522Y348218D01*
D02*
G37*
G36*
X221218Y344476D02*
X220514D01*
X219863Y344207D01*
X219364Y343708D01*
X219094Y343057D01*
Y342352D01*
X219364Y341701D01*
X219863Y341203D01*
X220514Y340933D01*
X221218D01*
X221870Y341203D01*
X222368Y341701D01*
X222638Y342352D01*
Y343057D01*
X222368Y343708D01*
X221870Y344207D01*
X221218Y344476D01*
D02*
G37*
G36*
X383650Y340748D02*
X382925D01*
X382224Y340560D01*
X381595Y340197D01*
X381082Y339684D01*
X380800Y339195D01*
X380665Y339156D01*
X380379D01*
X380244Y339195D01*
X379961Y339684D01*
X379448Y340197D01*
X378820Y340560D01*
X378119Y340748D01*
X377393D01*
X376692Y340560D01*
X376064Y340197D01*
X375551Y339684D01*
X375396Y339417D01*
X374819D01*
X374745Y339546D01*
X374232Y340060D01*
X373603Y340422D01*
X372902Y340610D01*
X372177D01*
X371476Y340422D01*
X370847Y340060D01*
X370334Y339546D01*
X369971Y338918D01*
X369783Y338217D01*
Y337491D01*
X369971Y336791D01*
X370334Y336162D01*
X370847Y335649D01*
X371476Y335286D01*
X372177Y335098D01*
X372902D01*
X373603Y335286D01*
X374232Y335649D01*
X374745Y336162D01*
X374899Y336429D01*
X375476D01*
X375551Y336300D01*
X376064Y335787D01*
X376692Y335424D01*
X377393Y335236D01*
X378119D01*
X378820Y335424D01*
X379448Y335787D01*
X379961Y336300D01*
X380244Y336789D01*
X380379Y336829D01*
X380665D01*
X380800Y336789D01*
X381082Y336300D01*
X381595Y335787D01*
X382224Y335424D01*
X382925Y335236D01*
X383650D01*
X384351Y335424D01*
X384980Y335787D01*
X385493Y336300D01*
X385856Y336928D01*
X386043Y337629D01*
Y338355D01*
X385856Y339056D01*
X385493Y339684D01*
X384980Y340197D01*
X384351Y340560D01*
X383650Y340748D01*
D02*
G37*
G36*
X494640Y338996D02*
X493935D01*
X493284Y338726D01*
X492785Y338228D01*
X492516Y337577D01*
Y336872D01*
X492785Y336221D01*
X493284Y335722D01*
X493935Y335453D01*
X494640D01*
X495291Y335722D01*
X495789Y336221D01*
X496059Y336872D01*
Y337577D01*
X495789Y338228D01*
X495291Y338726D01*
X494640Y338996D01*
D02*
G37*
G36*
X434703Y334606D02*
X433998D01*
X433347Y334337D01*
X432849Y333838D01*
X432579Y333187D01*
Y332482D01*
X432849Y331831D01*
X433347Y331333D01*
X433998Y331063D01*
X434703D01*
X435354Y331333D01*
X435852Y331831D01*
X436122Y332482D01*
Y333187D01*
X435852Y333838D01*
X435354Y334337D01*
X434703Y334606D01*
D02*
G37*
G36*
X472203Y336811D02*
X471498D01*
X470847Y336541D01*
X470349Y336043D01*
X470079Y335392D01*
Y334687D01*
X470087Y334668D01*
X469809Y334252D01*
X469628D01*
X468977Y333982D01*
X468478Y333484D01*
X468209Y332833D01*
Y332128D01*
X468478Y331477D01*
X468977Y330978D01*
X469628Y330709D01*
X470333D01*
X470984Y330978D01*
X471482Y331477D01*
X471752Y332128D01*
Y332833D01*
X471744Y332852D01*
X472022Y333268D01*
X472203D01*
X472854Y333537D01*
X473352Y334036D01*
X473622Y334687D01*
Y335392D01*
X473352Y336043D01*
X472854Y336541D01*
X472203Y336811D01*
D02*
G37*
G36*
X17085Y334154D02*
X16380D01*
X15729Y333884D01*
X15230Y333385D01*
X14961Y332734D01*
Y332030D01*
X15230Y331378D01*
X15729Y330880D01*
X16380Y330610D01*
X17085D01*
X17736Y330880D01*
X18234Y331378D01*
X18504Y332030D01*
Y332734D01*
X18234Y333385D01*
X17736Y333884D01*
X17085Y334154D01*
D02*
G37*
G36*
X204978Y333268D02*
X204274D01*
X203622Y332998D01*
X203124Y332500D01*
X202854Y331849D01*
Y331144D01*
X203124Y330492D01*
X203622Y329994D01*
X204274Y329724D01*
X204978D01*
X205629Y329994D01*
X206128Y330492D01*
X206398Y331144D01*
Y331849D01*
X206128Y332500D01*
X205629Y332998D01*
X204978Y333268D01*
D02*
G37*
G36*
X489132Y331257D02*
X488427D01*
X487776Y330987D01*
X487278Y330489D01*
X487008Y329838D01*
Y329133D01*
X487278Y328482D01*
X487776Y327984D01*
X488427Y327714D01*
X489132D01*
X489783Y327984D01*
X490281Y328482D01*
X490551Y329133D01*
Y329838D01*
X490281Y330489D01*
X489783Y330987D01*
X489132Y331257D01*
D02*
G37*
G36*
X28906Y330610D02*
X28181D01*
X27480Y330422D01*
X26851Y330060D01*
X26338Y329546D01*
X25975Y328918D01*
X25787Y328217D01*
Y327491D01*
X25975Y326791D01*
X26338Y326162D01*
X26851Y325649D01*
X27480Y325286D01*
X28181Y325098D01*
X28906D01*
X29607Y325286D01*
X30235Y325649D01*
X30749Y326162D01*
X31111Y326791D01*
X31299Y327491D01*
Y328217D01*
X31111Y328918D01*
X30749Y329546D01*
X30235Y330060D01*
X29607Y330422D01*
X28906Y330610D01*
D02*
G37*
G36*
X491916Y328142D02*
X491211D01*
X490560Y327873D01*
X490062Y327374D01*
X489792Y326723D01*
Y326018D01*
X490062Y325367D01*
X490560Y324869D01*
X491211Y324599D01*
X491916D01*
X492567Y324869D01*
X493066Y325367D01*
X493335Y326018D01*
Y326723D01*
X493066Y327374D01*
X492567Y327873D01*
X491916Y328142D01*
D02*
G37*
G36*
X512262Y326673D02*
X511557D01*
X510906Y326403D01*
X510407Y325905D01*
X510138Y325254D01*
Y324549D01*
X510407Y323898D01*
X510906Y323400D01*
X511557Y323130D01*
X512262D01*
X512913Y323400D01*
X513411Y323898D01*
X513681Y324549D01*
Y325254D01*
X513411Y325905D01*
X512913Y326403D01*
X512262Y326673D01*
D02*
G37*
G36*
X519038Y322794D02*
X518333D01*
X517682Y322525D01*
X517184Y322026D01*
X516914Y321375D01*
Y320670D01*
X517184Y320019D01*
X517682Y319521D01*
X518333Y319251D01*
X519038D01*
X519689Y319521D01*
X520188Y320019D01*
X520457Y320670D01*
Y321375D01*
X520188Y322026D01*
X519689Y322525D01*
X519038Y322794D01*
D02*
G37*
G36*
X124565Y321654D02*
X123860D01*
X123209Y321384D01*
X122711Y320885D01*
X122441Y320234D01*
Y319530D01*
X122711Y318878D01*
X123209Y318380D01*
X123860Y318110D01*
X124565D01*
X125216Y318380D01*
X125715Y318878D01*
X125984Y319530D01*
Y320234D01*
X125715Y320885D01*
X125216Y321384D01*
X124565Y321654D01*
D02*
G37*
G36*
X542510Y330315D02*
X541269D01*
X540052Y330073D01*
X538906Y329598D01*
X537874Y328908D01*
X536997Y328031D01*
X536307Y326999D01*
X535833Y325853D01*
X535591Y324636D01*
Y323395D01*
X535833Y322178D01*
X536307Y321032D01*
X536997Y320000D01*
X537874Y319123D01*
X538906Y318433D01*
X540052Y317958D01*
X541269Y317716D01*
X542510D01*
X543727Y317958D01*
X544874Y318433D01*
X545905Y319123D01*
X546783Y320000D01*
X547472Y321032D01*
X547947Y322178D01*
X548189Y323395D01*
Y324636D01*
X547947Y325853D01*
X547472Y326999D01*
X546783Y328031D01*
X545905Y328908D01*
X544874Y329598D01*
X543727Y330073D01*
X542510Y330315D01*
D02*
G37*
G36*
X103396Y325837D02*
X95029D01*
Y317471D01*
X103396D01*
Y325837D01*
D02*
G37*
G36*
X234713Y321654D02*
X233988D01*
X233287Y321466D01*
X232658Y321103D01*
X232145Y320590D01*
X231782Y319961D01*
X231594Y319260D01*
Y318535D01*
X231782Y317834D01*
X232145Y317206D01*
X232658Y316692D01*
X233287Y316330D01*
X233988Y316142D01*
X234713D01*
X235414Y316330D01*
X236042Y316692D01*
X236556Y317206D01*
X236918Y317834D01*
X237106Y318535D01*
Y319260D01*
X236918Y319961D01*
X236556Y320590D01*
X236042Y321103D01*
X235414Y321466D01*
X234713Y321654D01*
D02*
G37*
G36*
X514919Y318504D02*
X514215D01*
X513563Y318234D01*
X513065Y317736D01*
X512795Y317085D01*
Y316380D01*
X513065Y315729D01*
X513563Y315230D01*
X514215Y314961D01*
X514919D01*
X515570Y315230D01*
X516069Y315729D01*
X516339Y316380D01*
Y317085D01*
X516069Y317736D01*
X515570Y318234D01*
X514919Y318504D01*
D02*
G37*
G36*
X28030Y323658D02*
X27325D01*
X26674Y323388D01*
X26175Y322890D01*
X25905Y322239D01*
Y321534D01*
X26175Y320883D01*
X26674Y320385D01*
X27325Y320115D01*
X27714D01*
X27754Y320115D01*
X27820Y319615D01*
X27804Y319611D01*
X27381Y319497D01*
X26753Y319134D01*
X26240Y318621D01*
X25877Y317993D01*
X25689Y317292D01*
Y316566D01*
X25877Y315865D01*
X26240Y315237D01*
X26753Y314724D01*
X27381Y314361D01*
X28082Y314173D01*
X28808D01*
X29509Y314361D01*
X30137Y314724D01*
X30650Y315237D01*
X31013Y315865D01*
X31201Y316566D01*
Y317292D01*
X31013Y317993D01*
X30650Y318621D01*
X30137Y319134D01*
X29509Y319497D01*
X28808Y319685D01*
X28315D01*
X28299Y319685D01*
X28199Y320185D01*
X28238Y320201D01*
X28681Y320385D01*
X29179Y320883D01*
X29449Y321534D01*
Y322239D01*
X29179Y322890D01*
X28681Y323388D01*
X28030Y323658D01*
D02*
G37*
G36*
X51238Y316732D02*
X50533D01*
X49882Y316463D01*
X49384Y315964D01*
X49114Y315313D01*
Y314608D01*
X49384Y313957D01*
X49882Y313459D01*
X50533Y313189D01*
X51238D01*
X51889Y313459D01*
X52388Y313957D01*
X52658Y314608D01*
Y315313D01*
X52388Y315964D01*
X51889Y316463D01*
X51238Y316732D01*
D02*
G37*
G36*
X79093Y314272D02*
X78388D01*
X77737Y314002D01*
X77238Y313504D01*
X76968Y312852D01*
Y312148D01*
X77238Y311496D01*
X77737Y310998D01*
X78388Y310728D01*
X79093D01*
X79744Y310998D01*
X80242Y311496D01*
X80512Y312148D01*
Y312852D01*
X80242Y313504D01*
X79744Y314002D01*
X79093Y314272D01*
D02*
G37*
G36*
X102124Y310827D02*
X101419D01*
X100768Y310557D01*
X100270Y310059D01*
X100000Y309407D01*
Y308703D01*
X100270Y308052D01*
X100768Y307553D01*
X101419Y307283D01*
X102124D01*
X102775Y307553D01*
X103274Y308052D01*
X103543Y308703D01*
Y309407D01*
X103274Y310059D01*
X102775Y310557D01*
X102124Y310827D01*
D02*
G37*
G36*
X542510Y312008D02*
X541269D01*
X540052Y311766D01*
X538906Y311291D01*
X537874Y310601D01*
X536997Y309724D01*
X536307Y308692D01*
X535833Y307546D01*
X535591Y306329D01*
Y305088D01*
X535833Y303871D01*
X536307Y302725D01*
X536997Y301693D01*
X537874Y300816D01*
X538906Y300126D01*
X540052Y299652D01*
X541269Y299409D01*
X542510D01*
X543727Y299652D01*
X544874Y300126D01*
X545905Y300816D01*
X546783Y301693D01*
X547472Y302725D01*
X547947Y303871D01*
X548189Y305088D01*
Y306329D01*
X547947Y307546D01*
X547472Y308692D01*
X546783Y309724D01*
X545905Y310601D01*
X544874Y311291D01*
X543727Y311766D01*
X542510Y312008D01*
D02*
G37*
G36*
X21150Y301025D02*
X20445D01*
X19794Y300756D01*
X19296Y300257D01*
X19026Y299606D01*
Y298901D01*
X19296Y298250D01*
X19794Y297752D01*
X20445Y297482D01*
X21150D01*
X21801Y297752D01*
X22299Y298250D01*
X22569Y298901D01*
Y299606D01*
X22299Y300257D01*
X21801Y300756D01*
X21150Y301025D01*
D02*
G37*
G36*
X75482Y300886D02*
X74777D01*
X74126Y300616D01*
X73627Y300118D01*
X73358Y299466D01*
Y298762D01*
X73627Y298111D01*
X74126Y297612D01*
X74777Y297342D01*
X75482D01*
X76133Y297612D01*
X76631Y298111D01*
X76901Y298762D01*
Y299466D01*
X76631Y300118D01*
X76133Y300616D01*
X75482Y300886D01*
D02*
G37*
G36*
X105963Y299311D02*
X105258D01*
X104607Y299041D01*
X104108Y298543D01*
X103839Y297892D01*
Y297187D01*
X104108Y296536D01*
X104607Y296037D01*
X105258Y295768D01*
X105963D01*
X106614Y296037D01*
X107112Y296536D01*
X107382Y297187D01*
Y297892D01*
X107112Y298543D01*
X106614Y299041D01*
X105963Y299311D01*
D02*
G37*
G36*
X30651Y297400D02*
X29947D01*
X29295Y297131D01*
X28797Y296632D01*
X28527Y295981D01*
Y295276D01*
X28797Y294625D01*
X29295Y294127D01*
X29947Y293857D01*
X30651D01*
X31302Y294127D01*
X31801Y294625D01*
X32070Y295276D01*
Y295981D01*
X31801Y296632D01*
X31302Y297131D01*
X30651Y297400D01*
D02*
G37*
G36*
X95037Y297047D02*
X94333D01*
X93682Y296778D01*
X93183Y296279D01*
X92913Y295628D01*
Y294923D01*
X93183Y294272D01*
X93682Y293774D01*
X94333Y293504D01*
X95037D01*
X95689Y293774D01*
X96187Y294272D01*
X96457Y294923D01*
Y295628D01*
X96187Y296279D01*
X95689Y296778D01*
X95037Y297047D01*
D02*
G37*
G36*
X245431Y299803D02*
X244726D01*
X244075Y299533D01*
X243577Y299035D01*
X243307Y298384D01*
Y297679D01*
X243577Y297028D01*
X243772Y296832D01*
X244055Y296506D01*
X243772Y296179D01*
X243577Y295984D01*
X243307Y295333D01*
Y294628D01*
X243577Y293977D01*
X244075Y293478D01*
X244726Y293209D01*
X245431D01*
X246082Y293478D01*
X246581Y293977D01*
X246850Y294628D01*
Y295333D01*
X246581Y295984D01*
X246385Y296179D01*
X246103Y296506D01*
X246385Y296832D01*
X246581Y297028D01*
X246850Y297679D01*
Y298384D01*
X246581Y299035D01*
X246082Y299533D01*
X245431Y299803D01*
D02*
G37*
G36*
X47695Y294693D02*
X46990D01*
X46339Y294423D01*
X45841Y293925D01*
X45571Y293273D01*
Y292569D01*
X45841Y291917D01*
X46339Y291419D01*
X46990Y291149D01*
X47695D01*
X48346Y291419D01*
X48845Y291917D01*
X49114Y292569D01*
Y293273D01*
X48845Y293925D01*
X48346Y294423D01*
X47695Y294693D01*
D02*
G37*
G36*
X234713Y296260D02*
X233988D01*
X233287Y296072D01*
X232658Y295709D01*
X232145Y295196D01*
X231782Y294568D01*
X231594Y293867D01*
Y293141D01*
X231782Y292440D01*
X232145Y291812D01*
X232658Y291299D01*
X233287Y290936D01*
X233988Y290748D01*
X234713D01*
X235414Y290936D01*
X236042Y291299D01*
X236556Y291812D01*
X236918Y292440D01*
X237106Y293141D01*
Y293867D01*
X236918Y294568D01*
X236556Y295196D01*
X236042Y295709D01*
X235414Y296072D01*
X234713Y296260D01*
D02*
G37*
G36*
X179486Y293012D02*
X178781D01*
X178130Y292742D01*
X177632Y292244D01*
X177362Y291593D01*
Y290888D01*
X177632Y290237D01*
X178130Y289738D01*
X178781Y289469D01*
X179486D01*
X180137Y289738D01*
X180636Y290237D01*
X180905Y290888D01*
Y291593D01*
X180636Y292244D01*
X180137Y292742D01*
X179486Y293012D01*
D02*
G37*
G36*
X378867Y312008D02*
X377039D01*
X375233Y311722D01*
X373495Y311157D01*
X371866Y310327D01*
X370387Y309253D01*
X369094Y307960D01*
X368019Y306481D01*
X367190Y304852D01*
X366625Y303113D01*
X366339Y301308D01*
Y299480D01*
X366625Y297674D01*
X367190Y295935D01*
X368019Y294307D01*
X369094Y292828D01*
X370387Y291535D01*
X371866Y290460D01*
X373495Y289630D01*
X375233Y289066D01*
X377039Y288779D01*
X378867D01*
X380672Y289066D01*
X382411Y289630D01*
X384040Y290460D01*
X385519Y291535D01*
X386811Y292828D01*
X387886Y294307D01*
X388716Y295935D01*
X389281Y297674D01*
X389567Y299480D01*
Y301308D01*
X389281Y303113D01*
X388716Y304852D01*
X387886Y306481D01*
X386811Y307960D01*
X385519Y309253D01*
X384040Y310327D01*
X382411Y311157D01*
X380672Y311722D01*
X378867Y312008D01*
D02*
G37*
G36*
X280442D02*
X278613D01*
X276808Y311722D01*
X275069Y311157D01*
X273440Y310327D01*
X271961Y309253D01*
X270669Y307960D01*
X269594Y306481D01*
X268764Y304852D01*
X268199Y303113D01*
X267913Y301308D01*
Y299480D01*
X268199Y297674D01*
X268764Y295935D01*
X269594Y294307D01*
X270669Y292828D01*
X271961Y291535D01*
X273440Y290460D01*
X275069Y289630D01*
X276808Y289066D01*
X278613Y288779D01*
X280442D01*
X282247Y289066D01*
X283986Y289630D01*
X285615Y290460D01*
X287094Y291535D01*
X288386Y292828D01*
X289461Y294307D01*
X290291Y295935D01*
X290856Y297674D01*
X291142Y299480D01*
Y301308D01*
X290856Y303113D01*
X290291Y304852D01*
X289461Y306481D01*
X288386Y307960D01*
X287094Y309253D01*
X285615Y310327D01*
X283986Y311157D01*
X282247Y311722D01*
X280442Y312008D01*
D02*
G37*
G36*
X427715Y289075D02*
X427010D01*
X426359Y288805D01*
X425860Y288307D01*
X425591Y287655D01*
Y286951D01*
X425860Y286300D01*
X426359Y285801D01*
X427010Y285531D01*
X427715D01*
X428366Y285801D01*
X428864Y286300D01*
X429134Y286951D01*
Y287655D01*
X428864Y288307D01*
X428366Y288805D01*
X427715Y289075D01*
D02*
G37*
G36*
X327616Y286221D02*
X326911D01*
X326260Y285951D01*
X325762Y285452D01*
X325492Y284801D01*
Y284096D01*
X325762Y283445D01*
X326260Y282947D01*
X326911Y282677D01*
X327616D01*
X328267Y282947D01*
X328766Y283445D01*
X329035Y284096D01*
Y284801D01*
X328766Y285452D01*
X328267Y285951D01*
X327616Y286221D01*
D02*
G37*
G36*
X457088Y285948D02*
X456383D01*
X455731Y285679D01*
X455233Y285180D01*
X454963Y284529D01*
Y283824D01*
X455233Y283173D01*
X455731Y282675D01*
X456383Y282405D01*
X457088D01*
X457739Y282675D01*
X458237Y283173D01*
X458507Y283824D01*
Y284529D01*
X458237Y285180D01*
X457739Y285679D01*
X457088Y285948D01*
D02*
G37*
G36*
X173089Y282087D02*
X172384D01*
X171733Y281817D01*
X171234Y281318D01*
X170965Y280667D01*
Y279963D01*
X171234Y279311D01*
X171733Y278813D01*
X172384Y278543D01*
X173089D01*
X173740Y278813D01*
X174238Y279311D01*
X174508Y279963D01*
Y280667D01*
X174238Y281318D01*
X173740Y281817D01*
X173089Y282087D01*
D02*
G37*
G36*
X-19923Y280020D02*
X-20628D01*
X-21279Y279750D01*
X-21778Y279252D01*
X-22047Y278600D01*
Y277896D01*
X-21778Y277244D01*
X-21279Y276746D01*
X-20628Y276476D01*
X-19923D01*
X-19272Y276746D01*
X-18774Y277244D01*
X-18504Y277896D01*
Y278600D01*
X-18774Y279252D01*
X-19272Y279750D01*
X-19923Y280020D01*
D02*
G37*
G36*
X60490Y278642D02*
X59785D01*
X59134Y278372D01*
X58636Y277874D01*
X58366Y277222D01*
Y276518D01*
X58636Y275867D01*
X59134Y275368D01*
X59785Y275098D01*
X60490D01*
X61141Y275368D01*
X61640Y275867D01*
X61910Y276518D01*
Y277222D01*
X61640Y277874D01*
X61141Y278372D01*
X60490Y278642D01*
D02*
G37*
G36*
X193364Y278543D02*
X192659D01*
X192008Y278274D01*
X191510Y277775D01*
X191240Y277124D01*
Y276419D01*
X191510Y275768D01*
X192008Y275270D01*
X192659Y275000D01*
X193364D01*
X194015Y275270D01*
X194514Y275768D01*
X194783Y276419D01*
Y277124D01*
X194514Y277775D01*
X194015Y278274D01*
X193364Y278543D01*
D02*
G37*
G36*
X528164Y283313D02*
X526950D01*
X525777Y282999D01*
X524725Y282392D01*
X523866Y281533D01*
X523259Y280481D01*
X522945Y279308D01*
Y278094D01*
X523259Y276921D01*
X523866Y275869D01*
X524725Y275010D01*
X525777Y274403D01*
X526950Y274088D01*
X528164D01*
X529338Y274403D01*
X530389Y275010D01*
X531248Y275869D01*
X531855Y276921D01*
X532169Y278094D01*
Y279308D01*
X531855Y280481D01*
X531248Y281533D01*
X530389Y282392D01*
X529338Y282999D01*
X528164Y283313D01*
D02*
G37*
G36*
X488164D02*
X486950D01*
X485777Y282999D01*
X484725Y282392D01*
X483866Y281533D01*
X483259Y280481D01*
X482945Y279308D01*
Y278094D01*
X483259Y276921D01*
X483866Y275869D01*
X484725Y275010D01*
X485777Y274403D01*
X486950Y274088D01*
X488164D01*
X489337Y274403D01*
X490389Y275010D01*
X491248Y275869D01*
X491855Y276921D01*
X492170Y278094D01*
Y279308D01*
X491855Y280481D01*
X491248Y281533D01*
X490389Y282392D01*
X489337Y282999D01*
X488164Y283313D01*
D02*
G37*
G36*
X210293Y275847D02*
X209589D01*
X208937Y275577D01*
X208439Y275078D01*
X208169Y274427D01*
Y273722D01*
X208439Y273071D01*
X208937Y272573D01*
X209589Y272303D01*
X210293D01*
X210945Y272573D01*
X211443Y273071D01*
X211713Y273722D01*
Y274427D01*
X211443Y275078D01*
X210945Y275577D01*
X210293Y275847D01*
D02*
G37*
G36*
X327616Y273622D02*
X326911D01*
X326260Y273352D01*
X325762Y272854D01*
X325492Y272203D01*
Y271498D01*
X325762Y270847D01*
X326260Y270349D01*
X326911Y270079D01*
X327616D01*
X328267Y270349D01*
X328766Y270847D01*
X329035Y271498D01*
Y272203D01*
X328766Y272854D01*
X328267Y273352D01*
X327616Y273622D01*
D02*
G37*
G36*
X337423Y272814D02*
X336719D01*
X336068Y272544D01*
X335569Y272045D01*
X335299Y271394D01*
Y270690D01*
X335569Y270038D01*
X336068Y269540D01*
X336719Y269270D01*
X337423D01*
X338075Y269540D01*
X338573Y270038D01*
X338843Y270690D01*
Y271394D01*
X338573Y272045D01*
X338075Y272544D01*
X337423Y272814D01*
D02*
G37*
G36*
X312852Y271555D02*
X312148D01*
X311496Y271285D01*
X310998Y270787D01*
X310728Y270136D01*
Y269431D01*
X310998Y268780D01*
X311496Y268282D01*
X312148Y268012D01*
X312852D01*
X313504Y268282D01*
X314002Y268780D01*
X314272Y269431D01*
Y270136D01*
X314002Y270787D01*
X313504Y271285D01*
X312852Y271555D01*
D02*
G37*
G36*
X222695Y267717D02*
X221990D01*
X221339Y267447D01*
X220841Y266948D01*
X220571Y266297D01*
Y265593D01*
X220841Y264941D01*
X221339Y264443D01*
X221990Y264173D01*
X222695D01*
X223346Y264443D01*
X223845Y264941D01*
X224114Y265593D01*
Y266297D01*
X223845Y266948D01*
X223346Y267447D01*
X222695Y267717D01*
D02*
G37*
G36*
X304131Y267520D02*
X303427D01*
X302775Y267250D01*
X302277Y266752D01*
X302007Y266100D01*
Y265396D01*
X302277Y264744D01*
X302775Y264246D01*
X303427Y263976D01*
X304131D01*
X304783Y264246D01*
X305281Y264744D01*
X305551Y265396D01*
Y266100D01*
X305281Y266752D01*
X304783Y267250D01*
X304131Y267520D01*
D02*
G37*
G36*
X319389Y266929D02*
X318685D01*
X318033Y266659D01*
X317535Y266161D01*
X317265Y265510D01*
Y264805D01*
X317535Y264154D01*
X318033Y263656D01*
X318685Y263386D01*
X318942D01*
X318970Y263345D01*
Y262640D01*
X319240Y261989D01*
X319738Y261490D01*
X320389Y261221D01*
X321094D01*
X321745Y261490D01*
X322243Y261989D01*
X322513Y262640D01*
Y263345D01*
X322243Y263996D01*
X321745Y264494D01*
X321094Y264764D01*
X320836D01*
X320809Y264805D01*
Y265510D01*
X320539Y266161D01*
X320040Y266659D01*
X319389Y266929D01*
D02*
G37*
G36*
X-25598Y264089D02*
X-26303D01*
X-26954Y263819D01*
X-27452Y263321D01*
X-27722Y262670D01*
Y261965D01*
X-27452Y261314D01*
X-26954Y260815D01*
X-26303Y260546D01*
X-25598D01*
X-24947Y260815D01*
X-24449Y261314D01*
X-24179Y261965D01*
Y262670D01*
X-24449Y263321D01*
X-24947Y263819D01*
X-25598Y264089D01*
D02*
G37*
G36*
X-20251Y263189D02*
X-20955D01*
X-21607Y262919D01*
X-22105Y262421D01*
X-22375Y261770D01*
Y261065D01*
X-22105Y260414D01*
X-21607Y259915D01*
X-20955Y259646D01*
X-20251D01*
X-19599Y259915D01*
X-19101Y260414D01*
X-18831Y261065D01*
Y261770D01*
X-19101Y262421D01*
X-19599Y262919D01*
X-20251Y263189D01*
D02*
G37*
G36*
X10687Y262894D02*
X9982D01*
X9331Y262624D01*
X8833Y262126D01*
X8563Y261474D01*
Y260770D01*
X8833Y260119D01*
X9331Y259620D01*
X9982Y259350D01*
X10687D01*
X11338Y259620D01*
X11837Y260119D01*
X12106Y260770D01*
Y261474D01*
X11837Y262126D01*
X11338Y262624D01*
X10687Y262894D01*
D02*
G37*
G36*
X388345Y261614D02*
X387640D01*
X386989Y261345D01*
X386490Y260846D01*
X386221Y260195D01*
Y259490D01*
X386490Y258839D01*
X386989Y258341D01*
X387640Y258071D01*
X388345D01*
X388996Y258341D01*
X389494Y258839D01*
X389764Y259490D01*
Y260195D01*
X389494Y260846D01*
X388996Y261345D01*
X388345Y261614D01*
D02*
G37*
G36*
X195628Y260236D02*
X194923D01*
X194272Y259966D01*
X193774Y259468D01*
X193504Y258817D01*
Y258112D01*
X193774Y257461D01*
X194272Y256963D01*
X194923Y256693D01*
X195628D01*
X196279Y256963D01*
X196777Y257461D01*
X197047Y258112D01*
Y258817D01*
X196777Y259468D01*
X196279Y259966D01*
X195628Y260236D01*
D02*
G37*
G36*
X-4864Y260827D02*
X-5569D01*
X-6220Y260557D01*
X-6718Y260059D01*
X-6988Y259407D01*
Y258907D01*
X-7143Y258619D01*
X-7431Y258465D01*
X-7931D01*
X-8582Y258195D01*
X-9081Y257697D01*
X-9350Y257045D01*
Y256341D01*
X-9081Y255689D01*
X-8582Y255191D01*
X-7931Y254921D01*
X-7226D01*
X-6575Y255191D01*
X-6077Y255689D01*
X-5807Y256341D01*
Y256841D01*
X-5652Y257129D01*
X-5364Y257283D01*
X-4864D01*
X-4213Y257553D01*
X-3715Y258052D01*
X-3445Y258703D01*
Y259407D01*
X-3715Y260059D01*
X-4213Y260557D01*
X-4864Y260827D01*
D02*
G37*
G36*
X10490Y257874D02*
X9785D01*
X9134Y257604D01*
X8636Y257106D01*
X8366Y256455D01*
Y255750D01*
X8636Y255099D01*
X9134Y254600D01*
X9785Y254331D01*
X10490D01*
X11141Y254600D01*
X11640Y255099D01*
X11909Y255750D01*
Y256455D01*
X11640Y257106D01*
X11141Y257604D01*
X10490Y257874D01*
D02*
G37*
G36*
X391201Y257762D02*
X390496D01*
X389845Y257492D01*
X389347Y256994D01*
X389077Y256342D01*
Y255638D01*
X389347Y254987D01*
X389845Y254488D01*
X390496Y254218D01*
X391201D01*
X391852Y254488D01*
X392350Y254987D01*
X392620Y255638D01*
Y256342D01*
X392350Y256994D01*
X391852Y257492D01*
X391201Y257762D01*
D02*
G37*
G36*
X106356Y257579D02*
X105651D01*
X105000Y257309D01*
X104502Y256811D01*
X104232Y256159D01*
Y255455D01*
X104502Y254803D01*
X105000Y254305D01*
X105651Y254035D01*
X106356D01*
X107008Y254305D01*
X107506Y254803D01*
X107776Y255455D01*
Y256159D01*
X107506Y256811D01*
X107008Y257309D01*
X106356Y257579D01*
D02*
G37*
G36*
X322301Y257480D02*
X321596D01*
X320945Y257211D01*
X320447Y256712D01*
X320177Y256061D01*
Y255356D01*
X320447Y254705D01*
X320945Y254207D01*
X321596Y253937D01*
X322301D01*
X322952Y254207D01*
X323451Y254705D01*
X323721Y255356D01*
Y256061D01*
X323451Y256712D01*
X322952Y257211D01*
X322301Y257480D01*
D02*
G37*
G36*
X-35877Y259077D02*
X-36582D01*
X-37233Y258807D01*
X-37732Y258309D01*
X-38001Y257658D01*
Y256953D01*
X-37732Y256301D01*
X-37233Y255803D01*
X-36582Y255533D01*
X-36464Y255357D01*
X-36568Y255107D01*
Y254402D01*
X-36298Y253751D01*
X-35800Y253253D01*
X-35148Y252983D01*
X-34444D01*
X-33792Y253253D01*
X-33294Y253751D01*
X-33024Y254402D01*
Y255107D01*
X-33294Y255758D01*
X-33792Y256257D01*
X-34444Y256526D01*
X-34561Y256703D01*
X-34458Y256953D01*
Y257658D01*
X-34728Y258309D01*
X-35226Y258807D01*
X-35877Y259077D01*
D02*
G37*
G36*
X346907Y252658D02*
X346203D01*
X345552Y252388D01*
X345194Y252030D01*
X344882Y251939D01*
X344570Y252030D01*
X344212Y252388D01*
X343561Y252658D01*
X342856D01*
X342205Y252388D01*
X341707Y251889D01*
X341437Y251238D01*
Y250533D01*
X341707Y249882D01*
X342205Y249384D01*
X342856Y249114D01*
X343561D01*
X344212Y249384D01*
X344570Y249742D01*
X344882Y249833D01*
X345194Y249742D01*
X345552Y249384D01*
X346203Y249114D01*
X346907D01*
X347559Y249384D01*
X348057Y249882D01*
X348327Y250533D01*
Y251238D01*
X348057Y251889D01*
X347559Y252388D01*
X346907Y252658D01*
D02*
G37*
G36*
X503250Y266132D02*
X501786D01*
X500350Y265846D01*
X498998Y265286D01*
X497781Y264473D01*
X496746Y263438D01*
X495932Y262221D01*
X495372Y260868D01*
X495087Y259433D01*
Y257969D01*
X495372Y256533D01*
X495932Y255181D01*
X496746Y253964D01*
X497781Y252929D01*
X498998Y252116D01*
X500350Y251555D01*
X501786Y251270D01*
X503250D01*
X504685Y251555D01*
X506038Y252116D01*
X507255Y252929D01*
X508290Y253964D01*
X509103Y255181D01*
X509663Y256533D01*
X509949Y257969D01*
Y259433D01*
X509663Y260868D01*
X509103Y262221D01*
X508290Y263438D01*
X507255Y264473D01*
X506038Y265286D01*
X504685Y265846D01*
X503250Y266132D01*
D02*
G37*
G36*
X237360Y250886D02*
X236655D01*
X236004Y250616D01*
X235581Y250192D01*
X235157Y250616D01*
X234506Y250886D01*
X233801D01*
X233150Y250616D01*
X232905Y250372D01*
X232579Y250164D01*
X232252Y250372D01*
X232008Y250616D01*
X231356Y250886D01*
X230651D01*
X230000Y250616D01*
X229502Y250118D01*
X229232Y249467D01*
Y248762D01*
X229502Y248111D01*
X230000Y247612D01*
X230651Y247342D01*
X231356D01*
X232008Y247612D01*
X232252Y247857D01*
X232579Y248064D01*
X232905Y247857D01*
X233150Y247612D01*
X233801Y247342D01*
X234506D01*
X235157Y247612D01*
X235581Y248036D01*
X236004Y247612D01*
X236655Y247342D01*
X237360D01*
X238011Y247612D01*
X238510Y248111D01*
X238779Y248762D01*
Y249467D01*
X238510Y250118D01*
X238011Y250616D01*
X237360Y250886D01*
D02*
G37*
G36*
X-10419Y250956D02*
X-11124D01*
X-11775Y250686D01*
X-12273Y250188D01*
X-12543Y249537D01*
Y248832D01*
X-12273Y248181D01*
X-11775Y247682D01*
X-11124Y247413D01*
X-10419D01*
X-9768Y247682D01*
X-9269Y248181D01*
X-9000Y248832D01*
Y249537D01*
X-9269Y250188D01*
X-9768Y250686D01*
X-10419Y250956D01*
D02*
G37*
G36*
X-30711Y253543D02*
X-31416D01*
X-32067Y253274D01*
X-32565Y252775D01*
X-32835Y252124D01*
Y251419D01*
X-32565Y250768D01*
X-32185Y250388D01*
X-32067Y250270D01*
X-31954Y249738D01*
X-32061Y249479D01*
Y248774D01*
X-31792Y248123D01*
X-31293Y247624D01*
X-30642Y247355D01*
X-29937D01*
X-29286Y247624D01*
X-28788Y248123D01*
X-28518Y248774D01*
Y249479D01*
X-28788Y250130D01*
X-29168Y250510D01*
X-29286Y250628D01*
X-29399Y251160D01*
X-29291Y251419D01*
Y252124D01*
X-29561Y252775D01*
X-30059Y253274D01*
X-30711Y253543D01*
D02*
G37*
G36*
X-4963Y250197D02*
X-5667D01*
X-6318Y249927D01*
X-6817Y249429D01*
X-7087Y248778D01*
Y248073D01*
X-6817Y247422D01*
X-6318Y246923D01*
X-5667Y246654D01*
X-4963D01*
X-4311Y246923D01*
X-3813Y247422D01*
X-3543Y248073D01*
Y248778D01*
X-3813Y249429D01*
X-4311Y249927D01*
X-4963Y250197D01*
D02*
G37*
G36*
X12892Y246260D02*
X12187D01*
X11536Y245990D01*
X11112Y245567D01*
X10689Y245990D01*
X10037Y246260D01*
X9333D01*
X8681Y245990D01*
X8183Y245492D01*
X7913Y244841D01*
Y244136D01*
X8183Y243485D01*
X8428Y243240D01*
X8635Y242913D01*
X8428Y242587D01*
X8183Y242342D01*
X7913Y241691D01*
Y240986D01*
X8183Y240335D01*
X8428Y240090D01*
X8635Y239764D01*
X8428Y239437D01*
X8183Y239193D01*
X7913Y238541D01*
Y237837D01*
X8183Y237185D01*
X8681Y236687D01*
X9333Y236417D01*
X10037D01*
X10689Y236687D01*
X11112Y237111D01*
X11536Y236687D01*
X12187Y236417D01*
X12892D01*
X13543Y236687D01*
X14041Y237185D01*
X14311Y237837D01*
Y238541D01*
X14041Y239193D01*
X13797Y239437D01*
X13589Y239764D01*
X13797Y240090D01*
X14041Y240335D01*
X14311Y240986D01*
Y241691D01*
X14041Y242342D01*
X13797Y242587D01*
X13589Y242913D01*
X13797Y243240D01*
X14041Y243485D01*
X14311Y244136D01*
Y244841D01*
X14041Y245492D01*
X13543Y245990D01*
X12892Y246260D01*
D02*
G37*
G36*
X-34530Y246850D02*
X-35234D01*
X-35885Y246581D01*
X-36384Y246082D01*
X-36654Y245431D01*
Y244726D01*
X-36384Y244075D01*
X-35885Y243577D01*
X-35234Y243307D01*
X-34530D01*
X-33878Y243577D01*
X-33380Y244075D01*
X-33110Y244726D01*
Y245431D01*
X-33380Y246082D01*
X-33878Y246581D01*
X-34530Y246850D01*
D02*
G37*
G36*
X181547Y246186D02*
X180843D01*
X180192Y245917D01*
X179693Y245418D01*
X179423Y244767D01*
Y244062D01*
X179693Y243411D01*
X180192Y242913D01*
X180843Y242643D01*
X181547D01*
X182199Y242913D01*
X182697Y243411D01*
X182967Y244062D01*
Y244767D01*
X182697Y245418D01*
X182199Y245917D01*
X181547Y246186D01*
D02*
G37*
G36*
X-19431Y244291D02*
X-20136D01*
X-20787Y244022D01*
X-21285Y243523D01*
X-21555Y242872D01*
Y242167D01*
X-21285Y241516D01*
X-20787Y241018D01*
X-20136Y240748D01*
X-19431D01*
X-18780Y241018D01*
X-18282Y241516D01*
X-18012Y242167D01*
Y242872D01*
X-18282Y243523D01*
X-18780Y244022D01*
X-19431Y244291D01*
D02*
G37*
G36*
X159506Y241634D02*
X158801D01*
X158150Y241364D01*
X157652Y240866D01*
X157382Y240215D01*
Y239510D01*
X157652Y238859D01*
X158150Y238360D01*
X158801Y238090D01*
X159506D01*
X160157Y238360D01*
X160655Y238859D01*
X160925Y239510D01*
Y240215D01*
X160655Y240866D01*
X160157Y241364D01*
X159506Y241634D01*
D02*
G37*
G36*
X-34530Y240709D02*
X-35234D01*
X-35885Y240439D01*
X-36384Y239941D01*
X-36654Y239289D01*
Y238585D01*
X-36384Y237933D01*
X-35885Y237435D01*
X-35234Y237165D01*
X-34530D01*
X-33878Y237435D01*
X-33380Y237933D01*
X-33110Y238585D01*
Y239289D01*
X-33380Y239941D01*
X-33878Y240439D01*
X-34530Y240709D01*
D02*
G37*
G36*
X-28191Y237992D02*
X-28896D01*
X-29547Y237722D01*
X-30045Y237224D01*
X-30315Y236573D01*
Y235868D01*
X-30045Y235217D01*
X-29547Y234718D01*
X-28896Y234449D01*
X-28191D01*
X-27540Y234718D01*
X-27041Y235217D01*
X-26772Y235868D01*
Y236573D01*
X-27041Y237224D01*
X-27540Y237722D01*
X-28191Y237992D01*
D02*
G37*
G36*
X528164Y243313D02*
X526950D01*
X525777Y242999D01*
X524725Y242392D01*
X523866Y241533D01*
X523259Y240481D01*
X522945Y239308D01*
Y238094D01*
X523259Y236920D01*
X523866Y235869D01*
X524725Y235010D01*
X525777Y234403D01*
X526950Y234088D01*
X528164D01*
X529338Y234403D01*
X530389Y235010D01*
X531248Y235869D01*
X531855Y236920D01*
X532169Y238094D01*
Y239308D01*
X531855Y240481D01*
X531248Y241533D01*
X530389Y242392D01*
X529338Y242999D01*
X528164Y243313D01*
D02*
G37*
G36*
X488164D02*
X486950D01*
X485777Y242999D01*
X484725Y242392D01*
X483866Y241533D01*
X483259Y240481D01*
X482945Y239308D01*
Y238094D01*
X483259Y236920D01*
X483866Y235869D01*
X484725Y235010D01*
X485777Y234403D01*
X486950Y234088D01*
X488164D01*
X489337Y234403D01*
X490389Y235010D01*
X491248Y235869D01*
X491855Y236920D01*
X492170Y238094D01*
Y239308D01*
X491855Y240481D01*
X491248Y241533D01*
X490389Y242392D01*
X489337Y242999D01*
X488164Y243313D01*
D02*
G37*
G36*
X23248Y235175D02*
X22544D01*
X21892Y234905D01*
X21394Y234407D01*
X21124Y233756D01*
Y233051D01*
X21394Y232400D01*
X21892Y231901D01*
X22544Y231632D01*
X23248D01*
X23900Y231901D01*
X24398Y232400D01*
X24668Y233051D01*
Y233756D01*
X24398Y234407D01*
X23900Y234905D01*
X23248Y235175D01*
D02*
G37*
G36*
X318167Y231693D02*
X317463D01*
X316811Y231423D01*
X316683Y231295D01*
X316555Y231423D01*
X315904Y231693D01*
X315199D01*
X314548Y231423D01*
X314222Y231098D01*
X313996Y231325D01*
X313345Y231594D01*
X312640D01*
X311989Y231325D01*
X311860Y231196D01*
X311732Y231325D01*
X311081Y231594D01*
X310376D01*
X309725Y231325D01*
X309547Y231147D01*
X309370Y231325D01*
X308718Y231594D01*
X308014D01*
X307363Y231325D01*
X307185Y231147D01*
X307008Y231325D01*
X306356Y231594D01*
X305651D01*
X305000Y231325D01*
X304502Y230826D01*
X304232Y230175D01*
Y229470D01*
X304502Y228819D01*
X305000Y228321D01*
X305306Y228194D01*
Y227653D01*
X304902Y227486D01*
X304404Y226988D01*
X304134Y226337D01*
Y225632D01*
X304404Y224981D01*
X304532Y224852D01*
X304404Y224724D01*
X304134Y224073D01*
Y223368D01*
X304404Y222717D01*
X304532Y222589D01*
X304404Y222460D01*
X304134Y221809D01*
Y221104D01*
X304404Y220453D01*
X304581Y220276D01*
X304404Y220098D01*
X304134Y219447D01*
Y218742D01*
X304404Y218091D01*
X304902Y217593D01*
X305256Y217446D01*
Y216905D01*
X304902Y216758D01*
X304404Y216260D01*
X304134Y215608D01*
Y214903D01*
X304404Y214252D01*
X304902Y213754D01*
X305553Y213484D01*
X306258D01*
X306909Y213754D01*
X307087Y213931D01*
X307363Y213655D01*
X308014Y213386D01*
X308719D01*
X309370Y213655D01*
X309744Y214030D01*
X310119Y213655D01*
X310770Y213386D01*
X311474D01*
X312126Y213655D01*
X312352Y213882D01*
X312579Y213655D01*
X313230Y213386D01*
X313935D01*
X314586Y213655D01*
X314764Y213833D01*
X314843Y213754D01*
X315494Y213484D01*
X316199D01*
X316850Y213754D01*
X316978Y213882D01*
X317107Y213754D01*
X317758Y213484D01*
X318463D01*
X318753Y213604D01*
X319253Y213270D01*
Y210277D01*
X319373Y209673D01*
X319266Y209567D01*
X318996Y208915D01*
Y208211D01*
X319266Y207559D01*
X319373Y207453D01*
X319253Y206849D01*
Y197638D01*
X319406Y196870D01*
X319841Y196219D01*
X320492Y195783D01*
X321260Y195631D01*
X337555D01*
X362508Y170677D01*
X362301Y170177D01*
X362049D01*
X361398Y169907D01*
X360900Y169409D01*
X360630Y168758D01*
Y168053D01*
X360900Y167402D01*
X361292Y167010D01*
X361385Y166806D01*
X361327Y166392D01*
X360998Y166063D01*
X360728Y165411D01*
Y164707D01*
X360998Y164056D01*
X361496Y163557D01*
X362148Y163287D01*
X362852D01*
X363504Y163557D01*
X364002Y164056D01*
X364272Y164707D01*
Y165411D01*
X364002Y166063D01*
X363610Y166455D01*
X363517Y166658D01*
X363574Y167073D01*
X363903Y167402D01*
X364173Y168053D01*
Y168392D01*
X364673Y168659D01*
X364881Y168520D01*
X365650Y168367D01*
X409073Y168367D01*
X409547Y167867D01*
Y167600D01*
X409817Y166949D01*
X410315Y166451D01*
X410966Y166181D01*
X411671D01*
X412323Y166451D01*
X412821Y166949D01*
X413091Y167600D01*
Y168305D01*
X413132Y168367D01*
X418583D01*
X419351Y168520D01*
X420002Y168955D01*
X420437Y169606D01*
X420590Y170374D01*
Y194409D01*
X420437Y195177D01*
X420002Y195829D01*
X402476Y213354D01*
X402759Y213778D01*
X402994Y213681D01*
X403699D01*
X404350Y213951D01*
X404848Y214449D01*
X405118Y215100D01*
Y215805D01*
X404848Y216456D01*
X404350Y216955D01*
X403699Y217224D01*
X402994D01*
X402343Y216955D01*
X401845Y216456D01*
X401575Y215805D01*
Y215100D01*
X401672Y214866D01*
X401248Y214582D01*
X386655Y229175D01*
X386004Y229610D01*
X385236Y229763D01*
X321260D01*
X320492Y229610D01*
X320012Y229290D01*
X319710Y229488D01*
X319587Y229607D01*
Y230274D01*
X319317Y230925D01*
X318818Y231423D01*
X318167Y231693D01*
D02*
G37*
G36*
X-31931Y234646D02*
X-32636D01*
X-33287Y234376D01*
X-33785Y233878D01*
X-34055Y233226D01*
Y232522D01*
X-33785Y231871D01*
X-33287Y231372D01*
X-32636Y231102D01*
X-31931D01*
X-31280Y231372D01*
X-30781Y231871D01*
X-30512Y232522D01*
Y233226D01*
X-30781Y233878D01*
X-31280Y234376D01*
X-31931Y234646D01*
D02*
G37*
G36*
X18994Y234547D02*
X18289D01*
X17638Y234278D01*
X17140Y233779D01*
X16870Y233128D01*
Y232423D01*
X17140Y231772D01*
X17638Y231274D01*
X18289Y231004D01*
X18994D01*
X19645Y231274D01*
X20144Y231772D01*
X20413Y232423D01*
Y233128D01*
X20144Y233779D01*
X19645Y234278D01*
X18994Y234547D01*
D02*
G37*
G36*
X234713Y234252D02*
X233988D01*
X233287Y234064D01*
X232658Y233701D01*
X232145Y233188D01*
X231782Y232560D01*
X231594Y231859D01*
Y231133D01*
X231782Y230432D01*
X232145Y229804D01*
X232658Y229291D01*
X233287Y228928D01*
X233988Y228740D01*
X234713D01*
X235414Y228928D01*
X236042Y229291D01*
X236556Y229804D01*
X236918Y230432D01*
X237106Y231133D01*
Y231859D01*
X236918Y232560D01*
X236556Y233188D01*
X236042Y233701D01*
X235414Y234064D01*
X234713Y234252D01*
D02*
G37*
G36*
X-32915Y229823D02*
X-33620D01*
X-34271Y229553D01*
X-34770Y229055D01*
X-35039Y228404D01*
Y227699D01*
X-34770Y227048D01*
X-34271Y226549D01*
X-33620Y226279D01*
X-32915D01*
X-32264Y226549D01*
X-31766Y227048D01*
X-31496Y227699D01*
Y228404D01*
X-31766Y229055D01*
X-32264Y229553D01*
X-32915Y229823D01*
D02*
G37*
G36*
X19545Y228937D02*
X18841D01*
X18189Y228667D01*
X17691Y228169D01*
X17421Y227518D01*
Y226813D01*
X17691Y226162D01*
X18189Y225663D01*
X18841Y225394D01*
X19545D01*
X20197Y225663D01*
X20695Y226162D01*
X20965Y226813D01*
Y227518D01*
X20695Y228169D01*
X20197Y228667D01*
X19545Y228937D01*
D02*
G37*
G36*
X173904Y226083D02*
X173199D01*
X172547Y225813D01*
X172049Y225315D01*
X171779Y224663D01*
Y223959D01*
X172049Y223307D01*
X172547Y222809D01*
X173199Y222539D01*
X173904D01*
X174555Y222809D01*
X175053Y223307D01*
X175323Y223959D01*
Y224663D01*
X175053Y225315D01*
X174555Y225813D01*
X173904Y226083D01*
D02*
G37*
G36*
X-35868Y223189D02*
X-36573D01*
X-37224Y222919D01*
X-37722Y222421D01*
X-37992Y221770D01*
Y221065D01*
X-37722Y220414D01*
X-37224Y219915D01*
X-36573Y219646D01*
X-35868D01*
X-35217Y219915D01*
X-34718Y220414D01*
X-34449Y221065D01*
Y221770D01*
X-34718Y222421D01*
X-35217Y222919D01*
X-35868Y223189D01*
D02*
G37*
G36*
X49781Y222809D02*
X49076D01*
X48425Y222539D01*
X47927Y222041D01*
X47657Y221389D01*
Y220685D01*
X47927Y220033D01*
X48425Y219535D01*
X49076Y219265D01*
X49781D01*
X50432Y219535D01*
X50931Y220033D01*
X51200Y220685D01*
Y221389D01*
X50931Y222041D01*
X50432Y222539D01*
X49781Y222809D01*
D02*
G37*
G36*
X27222Y222441D02*
X26518D01*
X25866Y222171D01*
X25368Y221673D01*
X25098Y221022D01*
Y220317D01*
X25368Y219666D01*
X25866Y219167D01*
X26518Y218898D01*
X27222D01*
X27874Y219167D01*
X28372Y219666D01*
X28642Y220317D01*
Y221022D01*
X28372Y221673D01*
X27874Y222171D01*
X27222Y222441D01*
D02*
G37*
G36*
X-36144Y216968D02*
X-36849D01*
X-37500Y216699D01*
X-37998Y216200D01*
X-38268Y215549D01*
Y214844D01*
X-37998Y214193D01*
X-37500Y213695D01*
X-36849Y213425D01*
X-36144D01*
X-35493Y213695D01*
X-34994Y214193D01*
X-34724Y214844D01*
Y215549D01*
X-34994Y216200D01*
X-35493Y216699D01*
X-36144Y216968D01*
D02*
G37*
G36*
X44678Y216745D02*
X43973D01*
X43322Y216476D01*
X42823Y215977D01*
X42554Y215326D01*
Y214621D01*
X42823Y213970D01*
X43322Y213472D01*
X43973Y213202D01*
X44678D01*
X45329Y213472D01*
X45827Y213970D01*
X46097Y214621D01*
Y215326D01*
X45827Y215977D01*
X45329Y216476D01*
X44678Y216745D01*
D02*
G37*
G36*
X245431Y219193D02*
X244726D01*
X244075Y218923D01*
X243577Y218425D01*
X243307Y217774D01*
Y217069D01*
X243577Y216418D01*
X243772Y216222D01*
X244055Y215896D01*
X243772Y215569D01*
X243577Y215374D01*
X243307Y214722D01*
Y214018D01*
X243577Y213367D01*
X244075Y212868D01*
X244726Y212598D01*
X245431D01*
X246082Y212868D01*
X246581Y213367D01*
X246850Y214018D01*
Y214722D01*
X246581Y215374D01*
X246385Y215569D01*
X246103Y215896D01*
X246385Y216222D01*
X246581Y216418D01*
X246850Y217069D01*
Y217774D01*
X246581Y218425D01*
X246082Y218923D01*
X245431Y219193D01*
D02*
G37*
G36*
X234713Y217717D02*
X233988D01*
X233287Y217529D01*
X232658Y217166D01*
X232145Y216653D01*
X231782Y216024D01*
X231594Y215323D01*
Y214598D01*
X231782Y213897D01*
X232145Y213268D01*
X232658Y212755D01*
X233287Y212392D01*
X233988Y212205D01*
X234713D01*
X235414Y212392D01*
X236042Y212755D01*
X236556Y213268D01*
X236918Y213897D01*
X237106Y214598D01*
Y215323D01*
X236918Y216024D01*
X236556Y216653D01*
X236042Y217166D01*
X235414Y217529D01*
X234713Y217717D01*
D02*
G37*
G36*
X101927Y215551D02*
X101222D01*
X100571Y215282D01*
X100073Y214783D01*
X99803Y214132D01*
Y213427D01*
X100073Y212776D01*
X100571Y212278D01*
X101222Y212008D01*
X101927D01*
X102578Y212278D01*
X103077Y212776D01*
X103347Y213427D01*
Y214132D01*
X103077Y214783D01*
X102578Y215282D01*
X101927Y215551D01*
D02*
G37*
G36*
X36908Y211417D02*
X36203D01*
X35552Y211148D01*
X35053Y210649D01*
X34784Y209998D01*
Y209293D01*
X35053Y208642D01*
X35552Y208144D01*
X36203Y207874D01*
X36908D01*
X37559Y208144D01*
X38057Y208642D01*
X38327Y209293D01*
Y209998D01*
X38057Y210649D01*
X37559Y211148D01*
X36908Y211417D01*
D02*
G37*
G36*
X77223Y209033D02*
X76518D01*
X75867Y208763D01*
X75368Y208265D01*
X75099Y207613D01*
Y206909D01*
X75368Y206258D01*
X75867Y205759D01*
X76518Y205489D01*
X77223D01*
X77874Y205759D01*
X78372Y206258D01*
X78642Y206909D01*
Y207613D01*
X78372Y208265D01*
X77874Y208763D01*
X77223Y209033D01*
D02*
G37*
G36*
X426084Y208293D02*
X425379D01*
X424728Y208024D01*
X424230Y207525D01*
X423960Y206874D01*
Y206169D01*
X424230Y205518D01*
X424728Y205020D01*
X425379Y204750D01*
X426084D01*
X426735Y205020D01*
X427234Y205518D01*
X427503Y206169D01*
Y206874D01*
X427234Y207525D01*
X426735Y208024D01*
X426084Y208293D01*
D02*
G37*
G36*
X-18151Y206496D02*
X-18856D01*
X-19508Y206226D01*
X-20006Y205728D01*
X-20276Y205077D01*
Y204372D01*
X-20006Y203721D01*
X-19508Y203222D01*
X-18856Y202953D01*
X-18151D01*
X-17500Y203222D01*
X-17002Y203721D01*
X-16732Y204372D01*
Y205077D01*
X-17002Y205728D01*
X-17500Y206226D01*
X-18151Y206496D01*
D02*
G37*
G36*
X314034Y209154D02*
X313329D01*
X312678Y208884D01*
X312179Y208385D01*
X311910Y207734D01*
Y207030D01*
X312022Y206757D01*
X311938Y206181D01*
X311440Y205682D01*
X311170Y205031D01*
Y204327D01*
X311440Y203675D01*
X311938Y203177D01*
X312590Y202907D01*
X313294D01*
X313946Y203177D01*
X314444Y203675D01*
X314714Y204327D01*
Y205031D01*
X314601Y205304D01*
X314685Y205880D01*
X315183Y206378D01*
X315453Y207030D01*
Y207734D01*
X315183Y208385D01*
X314685Y208884D01*
X314034Y209154D01*
D02*
G37*
G36*
X37104Y205512D02*
X36400D01*
X35748Y205242D01*
X35250Y204744D01*
X34980Y204093D01*
Y203388D01*
X35250Y202737D01*
X35748Y202238D01*
X36400Y201969D01*
X37104D01*
X37756Y202238D01*
X38254Y202737D01*
X38524Y203388D01*
Y204093D01*
X38254Y204744D01*
X37756Y205242D01*
X37104Y205512D01*
D02*
G37*
G36*
X59604Y204921D02*
X58900D01*
X58248Y204651D01*
X57750Y204153D01*
X57480Y203502D01*
Y202797D01*
X57750Y202146D01*
X58248Y201648D01*
X58900Y201378D01*
X59604D01*
X60255Y201648D01*
X60754Y202146D01*
X61024Y202797D01*
Y203502D01*
X60754Y204153D01*
X60255Y204651D01*
X59604Y204921D01*
D02*
G37*
G36*
X428869Y204724D02*
X428164D01*
X427513Y204455D01*
X427014Y203956D01*
X426745Y203305D01*
Y202600D01*
X427014Y201949D01*
X427513Y201451D01*
X428164Y201181D01*
X428869D01*
X429520Y201451D01*
X430018Y201949D01*
X430288Y202600D01*
Y203305D01*
X430018Y203956D01*
X429520Y204455D01*
X428869Y204724D01*
D02*
G37*
G36*
X296562Y211600D02*
X295857D01*
X295206Y211330D01*
X294708Y210831D01*
X294438Y210180D01*
Y209475D01*
X294708Y208824D01*
X295130Y208402D01*
X295205Y208315D01*
X295178Y207797D01*
X294935Y207554D01*
X294665Y206903D01*
Y206198D01*
X294935Y205547D01*
X295433Y205048D01*
X295556Y204998D01*
Y204456D01*
X295552Y204455D01*
X295053Y203956D01*
X294783Y203305D01*
Y202600D01*
X295053Y201949D01*
X295552Y201451D01*
X296203Y201181D01*
X296907D01*
X297559Y201451D01*
X298057Y201949D01*
X298327Y202600D01*
Y203305D01*
X298057Y203956D01*
X297559Y204455D01*
X297436Y204505D01*
Y205047D01*
X297441Y205048D01*
X297939Y205547D01*
X298209Y206198D01*
Y206903D01*
X297939Y207554D01*
X297517Y207976D01*
X297441Y208063D01*
X297469Y208582D01*
X297712Y208824D01*
X297981Y209475D01*
Y210180D01*
X297712Y210831D01*
X297213Y211330D01*
X296562Y211600D01*
D02*
G37*
G36*
X-35474Y204134D02*
X-36179D01*
X-36830Y203864D01*
X-37329Y203366D01*
X-37598Y202715D01*
Y202010D01*
X-37329Y201359D01*
X-36830Y200860D01*
X-36179Y200591D01*
X-35474D01*
X-34823Y200860D01*
X-34325Y201359D01*
X-34055Y202010D01*
Y202715D01*
X-34325Y203366D01*
X-34823Y203864D01*
X-35474Y204134D01*
D02*
G37*
G36*
X103868Y204971D02*
X95502D01*
Y199541D01*
X95002Y199334D01*
X94704Y199632D01*
X94053Y199902D01*
X93348D01*
X92697Y199632D01*
X92199Y199134D01*
X91929Y198482D01*
Y197777D01*
X92199Y197126D01*
X92697Y196628D01*
X93348Y196358D01*
X94053D01*
X94704Y196628D01*
X95002Y196926D01*
X95502Y196719D01*
Y196604D01*
X103868D01*
Y204971D01*
D02*
G37*
G36*
X88054Y202226D02*
X87349D01*
X86698Y201956D01*
X86200Y201458D01*
X85930Y200806D01*
Y200102D01*
X86200Y199451D01*
X86698Y198952D01*
X87349Y198682D01*
X88054D01*
X88705Y198952D01*
X89204Y199451D01*
X89473Y200102D01*
Y200806D01*
X89204Y201458D01*
X88705Y201956D01*
X88054Y202226D01*
D02*
G37*
G36*
X312429Y202120D02*
X311724D01*
X311073Y201850D01*
X310574Y201352D01*
X310305Y200701D01*
Y199996D01*
X310574Y199345D01*
X311073Y198846D01*
X311724Y198577D01*
X312429D01*
X313080Y198846D01*
X313578Y199345D01*
X313848Y199996D01*
Y200701D01*
X313578Y201352D01*
X313080Y201850D01*
X312429Y202120D01*
D02*
G37*
G36*
X305175Y202067D02*
X304470D01*
X303819Y201797D01*
X303321Y201299D01*
X303051Y200647D01*
Y199943D01*
X303321Y199292D01*
X303819Y198793D01*
X304470Y198523D01*
X305175D01*
X305826Y198793D01*
X306325Y199292D01*
X306594Y199943D01*
Y200647D01*
X306325Y201299D01*
X305826Y201797D01*
X305175Y202067D01*
D02*
G37*
G36*
X205372Y201969D02*
X204667D01*
X204016Y201699D01*
X203518Y201200D01*
X203248Y200549D01*
Y199845D01*
X203518Y199193D01*
X204016Y198695D01*
X204667Y198425D01*
X205372D01*
X206023Y198695D01*
X206522Y199193D01*
X206791Y199845D01*
Y200549D01*
X206522Y201200D01*
X206023Y201699D01*
X205372Y201969D01*
D02*
G37*
G36*
X37104Y200689D02*
X36400D01*
X35748Y200419D01*
X35250Y199921D01*
X34980Y199270D01*
Y198565D01*
X35250Y197914D01*
X35748Y197415D01*
X36400Y197146D01*
X37104D01*
X37756Y197415D01*
X38254Y197914D01*
X38524Y198565D01*
Y199270D01*
X38254Y199921D01*
X37756Y200419D01*
X37104Y200689D01*
D02*
G37*
G36*
X30481Y202461D02*
X29755D01*
X29054Y202273D01*
X28426Y201910D01*
X27913Y201397D01*
X27550Y200768D01*
X27362Y200067D01*
Y199342D01*
X27550Y198641D01*
X27913Y198013D01*
X28426Y197500D01*
X29054Y197137D01*
X29755Y196949D01*
X30481D01*
X31182Y197137D01*
X31810Y197500D01*
X32323Y198013D01*
X32686Y198641D01*
X32874Y199342D01*
Y200067D01*
X32686Y200768D01*
X32323Y201397D01*
X31810Y201910D01*
X31182Y202273D01*
X30481Y202461D01*
D02*
G37*
G36*
X-18250Y200197D02*
X-18955D01*
X-19606Y199927D01*
X-20104Y199429D01*
X-20374Y198778D01*
Y198073D01*
X-20104Y197422D01*
X-19606Y196923D01*
X-18955Y196653D01*
X-18250D01*
X-17599Y196923D01*
X-17100Y197422D01*
X-16831Y198073D01*
Y198778D01*
X-17100Y199429D01*
X-17599Y199927D01*
X-18250Y200197D01*
D02*
G37*
G36*
X106541Y195817D02*
X105836D01*
X105184Y195547D01*
X104686Y195049D01*
X104416Y194398D01*
Y193693D01*
X104686Y193042D01*
X105184Y192543D01*
X105836Y192274D01*
X106541D01*
X107192Y192543D01*
X107690Y193042D01*
X107960Y193693D01*
Y194398D01*
X107690Y195049D01*
X107192Y195547D01*
X106541Y195817D01*
D02*
G37*
G36*
X178896Y194488D02*
X178191D01*
X177540Y194219D01*
X177041Y193720D01*
X176772Y193069D01*
Y192364D01*
X177041Y191713D01*
X177540Y191215D01*
X178191Y190945D01*
X178896D01*
X179547Y191215D01*
X180045Y191713D01*
X180315Y192364D01*
Y193069D01*
X180045Y193720D01*
X179547Y194219D01*
X178896Y194488D01*
D02*
G37*
G36*
X-17337Y191535D02*
X-18042D01*
X-18693Y191266D01*
X-19192Y190767D01*
X-19461Y190116D01*
Y189411D01*
X-19192Y188760D01*
X-18693Y188262D01*
X-18042Y187992D01*
X-17337D01*
X-16686Y188262D01*
X-16188Y188760D01*
X-15918Y189411D01*
Y190116D01*
X-16188Y190767D01*
X-16686Y191266D01*
X-17337Y191535D01*
D02*
G37*
G36*
X85392Y190847D02*
X84687D01*
X84036Y190577D01*
X83537Y190078D01*
X83268Y189427D01*
Y188722D01*
X83537Y188071D01*
X84036Y187573D01*
X84687Y187303D01*
X85392D01*
X86043Y187573D01*
X86541Y188071D01*
X86811Y188722D01*
Y189427D01*
X86541Y190078D01*
X86043Y190577D01*
X85392Y190847D01*
D02*
G37*
G36*
X234713Y191831D02*
X233988D01*
X233287Y191643D01*
X232658Y191280D01*
X232145Y190767D01*
X231782Y190138D01*
X231594Y189438D01*
Y188712D01*
X231782Y188011D01*
X232145Y187383D01*
X232658Y186870D01*
X233287Y186507D01*
X233988Y186319D01*
X234713D01*
X235414Y186507D01*
X236042Y186870D01*
X236556Y187383D01*
X236918Y188011D01*
X237106Y188712D01*
Y189438D01*
X236918Y190138D01*
X236556Y190767D01*
X236042Y191280D01*
X235414Y191643D01*
X234713Y191831D01*
D02*
G37*
G36*
X102124Y189370D02*
X101419D01*
X100768Y189100D01*
X100270Y188602D01*
X100000Y187951D01*
Y187246D01*
X100270Y186595D01*
X100768Y186097D01*
X101419Y185827D01*
X102124D01*
X102775Y186097D01*
X103274Y186595D01*
X103543Y187246D01*
Y187951D01*
X103274Y188602D01*
X102775Y189100D01*
X102124Y189370D01*
D02*
G37*
G36*
X211376Y188189D02*
X210671D01*
X210020Y187919D01*
X209522Y187421D01*
X209252Y186770D01*
Y186065D01*
X209522Y185414D01*
X210020Y184915D01*
X210671Y184646D01*
X211376D01*
X212027Y184915D01*
X212526Y185414D01*
X212795Y186065D01*
Y186770D01*
X212526Y187421D01*
X212027Y187919D01*
X211376Y188189D01*
D02*
G37*
G36*
X-3388Y186835D02*
X-4093D01*
X-4744Y186565D01*
X-5242Y186067D01*
X-5512Y185416D01*
Y184711D01*
X-5242Y184060D01*
X-4744Y183561D01*
X-4093Y183292D01*
X-3388D01*
X-2737Y183561D01*
X-2238Y184060D01*
X-1969Y184711D01*
Y185416D01*
X-2238Y186067D01*
X-2737Y186565D01*
X-3388Y186835D01*
D02*
G37*
G36*
X95008Y185459D02*
X94303D01*
X93652Y185189D01*
X93154Y184691D01*
X92884Y184040D01*
Y183335D01*
X93154Y182684D01*
X93652Y182185D01*
X94303Y181915D01*
X95008D01*
X95659Y182185D01*
X96158Y182684D01*
X96427Y183335D01*
Y184040D01*
X96158Y184691D01*
X95659Y185189D01*
X95008Y185459D01*
D02*
G37*
G36*
X154978Y183858D02*
X154274D01*
X153622Y183589D01*
X153124Y183090D01*
X152854Y182439D01*
Y181734D01*
X153124Y181083D01*
X153622Y180585D01*
X154274Y180315D01*
X154978D01*
X155630Y180585D01*
X156128Y181083D01*
X156398Y181734D01*
Y182439D01*
X156128Y183090D01*
X155630Y183589D01*
X154978Y183858D01*
D02*
G37*
G36*
X326238Y183661D02*
X325533D01*
X324882Y183392D01*
X324384Y182893D01*
X324114Y182242D01*
Y181537D01*
X324384Y180886D01*
X324882Y180388D01*
X325533Y180118D01*
X326238D01*
X326889Y180388D01*
X327388Y180886D01*
X327658Y181537D01*
Y182242D01*
X327388Y182893D01*
X326889Y183392D01*
X326238Y183661D01*
D02*
G37*
G36*
X39722Y183563D02*
X39018D01*
X38366Y183293D01*
X37868Y182795D01*
X37598Y182144D01*
Y181439D01*
X37868Y180788D01*
X38366Y180289D01*
X39018Y180020D01*
X39722D01*
X40374Y180289D01*
X40872Y180788D01*
X41142Y181439D01*
Y182144D01*
X40872Y182795D01*
X40374Y183293D01*
X39722Y183563D01*
D02*
G37*
G36*
X173975Y182874D02*
X173270D01*
X172618Y182604D01*
X172120Y182106D01*
X171850Y181455D01*
Y180750D01*
X172120Y180099D01*
X172618Y179601D01*
X173270Y179331D01*
X173975D01*
X174626Y179601D01*
X175124Y180099D01*
X175394Y180750D01*
Y181455D01*
X175124Y182106D01*
X174626Y182604D01*
X173975Y182874D01*
D02*
G37*
G36*
X55569Y182874D02*
X54864D01*
X54213Y182604D01*
X53715Y182106D01*
X53445Y181455D01*
Y180750D01*
X53715Y180099D01*
X54213Y179601D01*
X54864Y179331D01*
X55569D01*
X56220Y179601D01*
X56718Y180099D01*
X56988Y180750D01*
Y181455D01*
X56718Y182106D01*
X56220Y182604D01*
X55569Y182874D01*
D02*
G37*
G36*
X-5258Y182579D02*
X-5963D01*
X-6614Y182309D01*
X-7112Y181811D01*
X-7382Y181159D01*
Y180455D01*
X-7112Y179804D01*
X-6614Y179305D01*
X-5963Y179035D01*
X-5258D01*
X-4607Y179305D01*
X-4108Y179804D01*
X-3839Y180455D01*
Y181159D01*
X-4108Y181811D01*
X-4607Y182309D01*
X-5258Y182579D01*
D02*
G37*
G36*
X208575Y180629D02*
X207870D01*
X207219Y180359D01*
X206720Y179861D01*
X206451Y179209D01*
Y178505D01*
X206720Y177854D01*
X207219Y177355D01*
X207870Y177085D01*
X208575D01*
X209226Y177355D01*
X209724Y177854D01*
X209994Y178505D01*
Y179209D01*
X209724Y179861D01*
X209226Y180359D01*
X208575Y180629D01*
D02*
G37*
G36*
X30481Y181693D02*
X29755D01*
X29054Y181505D01*
X28426Y181142D01*
X27913Y180629D01*
X27550Y180001D01*
X27362Y179300D01*
Y178574D01*
X27550Y177873D01*
X27913Y177245D01*
X28426Y176732D01*
X29054Y176369D01*
X29755Y176181D01*
X30481D01*
X31182Y176369D01*
X31810Y176732D01*
X32323Y177245D01*
X32686Y177873D01*
X32874Y178574D01*
Y179300D01*
X32686Y180001D01*
X32323Y180629D01*
X31810Y181142D01*
X31182Y181505D01*
X30481Y181693D01*
D02*
G37*
G36*
X322476Y176320D02*
X321771D01*
X321120Y176051D01*
X320622Y175552D01*
X320352Y174901D01*
Y174196D01*
X320622Y173545D01*
X321120Y173047D01*
X321771Y172777D01*
X322476D01*
X323127Y173047D01*
X323626Y173545D01*
X323895Y174196D01*
Y174901D01*
X323626Y175552D01*
X323127Y176051D01*
X322476Y176320D01*
D02*
G37*
G36*
X317606D02*
X316901D01*
X316250Y176051D01*
X315752Y175552D01*
X315482Y174901D01*
Y174196D01*
X315752Y173545D01*
X316250Y173047D01*
X316901Y172777D01*
X317606D01*
X318257Y173047D01*
X318756Y173545D01*
X319025Y174196D01*
Y174901D01*
X318756Y175552D01*
X318257Y176051D01*
X317606Y176320D01*
D02*
G37*
G36*
X-38348Y173819D02*
X-39053D01*
X-39704Y173549D01*
X-40203Y173051D01*
X-40472Y172400D01*
Y171695D01*
X-40203Y171044D01*
X-39704Y170545D01*
X-39053Y170276D01*
X-38348D01*
X-37697Y170545D01*
X-37199Y171044D01*
X-36929Y171695D01*
Y172400D01*
X-37199Y173051D01*
X-37697Y173549D01*
X-38348Y173819D01*
D02*
G37*
G36*
X303600Y171654D02*
X302896D01*
X302244Y171384D01*
X301746Y170886D01*
X301476Y170234D01*
Y169529D01*
X301746Y168878D01*
X302244Y168380D01*
X302896Y168110D01*
X303600D01*
X304252Y168380D01*
X304750Y168878D01*
X305020Y169529D01*
Y170234D01*
X304750Y170886D01*
X304252Y171384D01*
X303600Y171654D01*
D02*
G37*
G36*
X317577Y171555D02*
X316872D01*
X316221Y171285D01*
X315722Y170787D01*
X315453Y170136D01*
Y169431D01*
X315722Y168780D01*
X316221Y168281D01*
X316872Y168012D01*
X317577D01*
X318228Y168281D01*
X318726Y168780D01*
X318996Y169431D01*
Y170136D01*
X318726Y170787D01*
X318228Y171285D01*
X317577Y171555D01*
D02*
G37*
G36*
X162655Y168799D02*
X161951D01*
X161300Y168529D01*
X160801Y168031D01*
X160531Y167380D01*
Y166675D01*
X160801Y166024D01*
X161300Y165526D01*
X161951Y165256D01*
X162655D01*
X163307Y165526D01*
X163805Y166024D01*
X164075Y166675D01*
Y167380D01*
X163805Y168031D01*
X163307Y168529D01*
X162655Y168799D01*
D02*
G37*
G36*
X299368Y168504D02*
X298663D01*
X298012Y168234D01*
X297514Y167736D01*
X297244Y167085D01*
Y166380D01*
X297514Y165729D01*
X298012Y165230D01*
X298663Y164961D01*
X299368D01*
X300019Y165230D01*
X300518Y165729D01*
X300787Y166380D01*
Y167085D01*
X300518Y167736D01*
X300019Y168234D01*
X299368Y168504D01*
D02*
G37*
G36*
X31258Y168307D02*
X30553D01*
X29902Y168037D01*
X29404Y167539D01*
X29134Y166888D01*
Y166183D01*
X29404Y165532D01*
X29902Y165033D01*
X30553Y164764D01*
X31258D01*
X31909Y165033D01*
X32407Y165532D01*
X32677Y166183D01*
Y166888D01*
X32407Y167539D01*
X31909Y168037D01*
X31258Y168307D01*
D02*
G37*
G36*
X322597Y166732D02*
X321892D01*
X321240Y166463D01*
X320742Y165964D01*
X320472Y165313D01*
Y164608D01*
X320742Y163957D01*
X321240Y163459D01*
X321892Y163189D01*
X322597D01*
X323248Y163459D01*
X323746Y163957D01*
X324016Y164608D01*
Y165313D01*
X323746Y165964D01*
X323248Y166463D01*
X322597Y166732D01*
D02*
G37*
G36*
X172006Y165847D02*
X171301D01*
X170650Y165577D01*
X170152Y165078D01*
X169882Y164427D01*
Y163722D01*
X170152Y163071D01*
X170650Y162573D01*
X171301Y162303D01*
X172006D01*
X172657Y162573D01*
X173155Y163071D01*
X173425Y163722D01*
Y164427D01*
X173155Y165078D01*
X172657Y165577D01*
X172006Y165847D01*
D02*
G37*
G36*
X85589Y165157D02*
X84884D01*
X84233Y164888D01*
X83734Y164389D01*
X83465Y163738D01*
Y163033D01*
X83734Y162382D01*
X84233Y161884D01*
X84884Y161614D01*
X85589D01*
X86240Y161884D01*
X86738Y162382D01*
X87008Y163033D01*
Y163738D01*
X86738Y164389D01*
X86240Y164888D01*
X85589Y165157D01*
D02*
G37*
G36*
X403108Y164764D02*
X402403D01*
X401752Y164494D01*
X401254Y163996D01*
X400984Y163345D01*
Y162640D01*
X401254Y161989D01*
X401752Y161490D01*
X402403Y161221D01*
X403108D01*
X403759Y161490D01*
X404258Y161989D01*
X404528Y162640D01*
Y163345D01*
X404258Y163996D01*
X403759Y164494D01*
X403108Y164764D01*
D02*
G37*
G36*
X201927Y164665D02*
X201222D01*
X200571Y164396D01*
X200073Y163897D01*
X199803Y163246D01*
Y162541D01*
X200073Y161890D01*
X200571Y161392D01*
X201222Y161122D01*
X201927D01*
X202578Y161392D01*
X203077Y161890D01*
X203346Y162541D01*
Y163246D01*
X203077Y163897D01*
X202578Y164396D01*
X201927Y164665D01*
D02*
G37*
G36*
X27825Y163386D02*
X27120D01*
X26469Y163116D01*
X25971Y162618D01*
X25701Y161967D01*
Y161262D01*
X25971Y160611D01*
X26469Y160112D01*
X27120Y159843D01*
X27825D01*
X28476Y160112D01*
X28975Y160611D01*
X29244Y161262D01*
Y161967D01*
X28975Y162618D01*
X28476Y163116D01*
X27825Y163386D01*
D02*
G37*
G36*
X191100Y163189D02*
X190396D01*
X189744Y162919D01*
X189246Y162421D01*
X188976Y161770D01*
Y161065D01*
X189246Y160414D01*
X189744Y159915D01*
X190396Y159646D01*
X191100D01*
X191752Y159915D01*
X192250Y160414D01*
X192520Y161065D01*
Y161770D01*
X192250Y162421D01*
X191752Y162919D01*
X191100Y163189D01*
D02*
G37*
G36*
X299522Y163009D02*
X298817D01*
X298166Y162739D01*
X297668Y162241D01*
X297398Y161590D01*
Y160885D01*
X297668Y160234D01*
X298166Y159735D01*
X298817Y159466D01*
X299522D01*
X300173Y159735D01*
X300672Y160234D01*
X300941Y160885D01*
Y161590D01*
X300672Y162241D01*
X300173Y162739D01*
X299522Y163009D01*
D02*
G37*
G36*
X10293Y161122D02*
X9589D01*
X8937Y160852D01*
X8439Y160354D01*
X8169Y159703D01*
Y158998D01*
X8439Y158347D01*
X8937Y157849D01*
X9589Y157579D01*
X10293D01*
X10944Y157849D01*
X11443Y158347D01*
X11713Y158998D01*
Y159703D01*
X11443Y160354D01*
X10944Y160852D01*
X10293Y161122D01*
D02*
G37*
G36*
X-36380Y159764D02*
X-37085D01*
X-37736Y159494D01*
X-38234Y158996D01*
X-38504Y158344D01*
Y157640D01*
X-38234Y156989D01*
X-37736Y156490D01*
X-37085Y156220D01*
X-36380D01*
X-35729Y156490D01*
X-35230Y156989D01*
X-34961Y157640D01*
Y158344D01*
X-35230Y158996D01*
X-35729Y159494D01*
X-36380Y159764D01*
D02*
G37*
G36*
X106356Y159684D02*
X105651D01*
X105000Y159415D01*
X104502Y158916D01*
X104232Y158265D01*
Y157560D01*
X104502Y156909D01*
X105000Y156411D01*
X105651Y156141D01*
X106356D01*
X107008Y156411D01*
X107506Y156909D01*
X107776Y157560D01*
Y158265D01*
X107506Y158916D01*
X107008Y159415D01*
X106356Y159684D01*
D02*
G37*
G36*
X31159Y159547D02*
X30455D01*
X29803Y159277D01*
X29305Y158779D01*
X29035Y158128D01*
Y157423D01*
X29305Y156772D01*
X29803Y156274D01*
X30455Y156004D01*
X31159D01*
X31811Y156274D01*
X32309Y156772D01*
X32579Y157423D01*
Y158128D01*
X32309Y158779D01*
X31811Y159277D01*
X31159Y159547D01*
D02*
G37*
G36*
X-30868Y158543D02*
X-31573D01*
X-32224Y158274D01*
X-32722Y157775D01*
X-32992Y157124D01*
Y156419D01*
X-32722Y155768D01*
X-32224Y155270D01*
X-31573Y155000D01*
X-30868D01*
X-30217Y155270D01*
X-29719Y155768D01*
X-29449Y156419D01*
Y157124D01*
X-29719Y157775D01*
X-30217Y158274D01*
X-30868Y158543D01*
D02*
G37*
G36*
X234713Y158529D02*
X233988D01*
X233287Y158341D01*
X232658Y157978D01*
X232145Y157465D01*
X231782Y156837D01*
X231594Y156136D01*
Y155410D01*
X231782Y154709D01*
X232145Y154081D01*
X232658Y153568D01*
X233287Y153205D01*
X233988Y153017D01*
X234713D01*
X235414Y153205D01*
X236042Y153568D01*
X236556Y154081D01*
X236918Y154709D01*
X237106Y155410D01*
Y156136D01*
X236918Y156837D01*
X236556Y157465D01*
X236042Y157978D01*
X235414Y158341D01*
X234713Y158529D01*
D02*
G37*
G36*
X245431Y159153D02*
X244726D01*
X244075Y158884D01*
X243577Y158386D01*
X243307Y157734D01*
Y157029D01*
X243577Y156378D01*
X243772Y156183D01*
X244055Y155856D01*
X243772Y155530D01*
X243577Y155334D01*
X243307Y154683D01*
Y153978D01*
X243577Y153327D01*
X244075Y152829D01*
X244726Y152559D01*
X245431D01*
X246082Y152829D01*
X246581Y153327D01*
X246850Y153978D01*
Y154683D01*
X246581Y155334D01*
X246385Y155530D01*
X246103Y155856D01*
X246385Y156183D01*
X246581Y156378D01*
X246850Y157029D01*
Y157734D01*
X246581Y158386D01*
X246082Y158884D01*
X245431Y159153D01*
D02*
G37*
G36*
X425648Y155610D02*
X424943D01*
X424292Y155341D01*
X423793Y154842D01*
X423524Y154191D01*
Y153486D01*
X423793Y152835D01*
X424292Y152337D01*
X424943Y152067D01*
X425648D01*
X426299Y152337D01*
X426797Y152835D01*
X427067Y153486D01*
Y154191D01*
X426797Y154842D01*
X426299Y155341D01*
X425648Y155610D01*
D02*
G37*
G36*
X-11591Y155222D02*
X-12296D01*
X-12947Y154953D01*
X-13445Y154454D01*
X-13715Y153803D01*
Y153098D01*
X-13445Y152447D01*
X-12947Y151949D01*
X-12296Y151679D01*
X-11591D01*
X-10939Y151949D01*
X-10441Y152447D01*
X-10171Y153098D01*
Y153803D01*
X-10441Y154454D01*
X-10939Y154953D01*
X-11591Y155222D01*
D02*
G37*
G36*
X31159Y152657D02*
X30455D01*
X29803Y152388D01*
X29305Y151889D01*
X29035Y151238D01*
Y150533D01*
X29305Y149882D01*
X29803Y149384D01*
X30455Y149114D01*
X31159D01*
X31811Y149384D01*
X32309Y149882D01*
X32579Y150533D01*
Y151238D01*
X32309Y151889D01*
X31811Y152388D01*
X31159Y152657D01*
D02*
G37*
G36*
Y147835D02*
X30455D01*
X29803Y147565D01*
X29305Y147067D01*
X29035Y146415D01*
Y145711D01*
X29305Y145059D01*
X29803Y144561D01*
X30455Y144291D01*
X31159D01*
X31811Y144561D01*
X32309Y145059D01*
X32579Y145711D01*
Y146415D01*
X32309Y147067D01*
X31811Y147565D01*
X31159Y147835D01*
D02*
G37*
G36*
X-31144Y146653D02*
X-31848D01*
X-32500Y146384D01*
X-32998Y145885D01*
X-33268Y145234D01*
Y144529D01*
X-32998Y143878D01*
X-32500Y143380D01*
X-31848Y143110D01*
X-31144D01*
X-30492Y143380D01*
X-29994Y143878D01*
X-29724Y144529D01*
Y145234D01*
X-29994Y145885D01*
X-30492Y146384D01*
X-31144Y146653D01*
D02*
G37*
G36*
X427222Y144783D02*
X426518D01*
X425867Y144514D01*
X425368Y144015D01*
X425098Y143364D01*
Y142659D01*
X425368Y142008D01*
X425867Y141510D01*
X426518Y141240D01*
X427222D01*
X427874Y141510D01*
X428372Y142008D01*
X428642Y142659D01*
Y143364D01*
X428372Y144015D01*
X427874Y144514D01*
X427222Y144783D01*
D02*
G37*
G36*
X390591Y161653D02*
X368504D01*
X367736Y161500D01*
X367085Y161065D01*
X366650Y160414D01*
X366497Y159646D01*
Y138227D01*
X321457D01*
X320689Y138075D01*
X320480Y137936D01*
X320377Y137939D01*
X319899Y138148D01*
X319711Y138602D01*
X319212Y139100D01*
X318561Y139370D01*
X317856D01*
X317205Y139100D01*
X317077Y138972D01*
X316949Y139100D01*
X316297Y139370D01*
X315593D01*
X314941Y139100D01*
X314616Y138775D01*
X314389Y139002D01*
X313738Y139272D01*
X313033D01*
X312382Y139002D01*
X312254Y138874D01*
X312126Y139002D01*
X311474Y139272D01*
X310770D01*
X310119Y139002D01*
X309941Y138824D01*
X309763Y139002D01*
X309112Y139272D01*
X308407D01*
X307756Y139002D01*
X307579Y138824D01*
X307401Y139002D01*
X306750Y139272D01*
X306045D01*
X305394Y139002D01*
X304896Y138504D01*
X304626Y137852D01*
Y137148D01*
X304896Y136496D01*
X305394Y135998D01*
X305699Y135872D01*
Y135330D01*
X305296Y135163D01*
X304797Y134665D01*
X304528Y134014D01*
Y133309D01*
X304797Y132658D01*
X304926Y132529D01*
X304797Y132401D01*
X304528Y131750D01*
Y131045D01*
X304797Y130394D01*
X304926Y130266D01*
X304797Y130137D01*
X304528Y129486D01*
Y128781D01*
X304797Y128130D01*
X304975Y127953D01*
X304797Y127775D01*
X304528Y127124D01*
Y126419D01*
X304797Y125768D01*
X305296Y125270D01*
X305650Y125123D01*
Y124582D01*
X305296Y124435D01*
X304797Y123937D01*
X304528Y123285D01*
Y122581D01*
X304797Y121930D01*
X305296Y121431D01*
X305947Y121161D01*
X306652D01*
X307303Y121431D01*
X307480Y121609D01*
X307756Y121333D01*
X308407Y121063D01*
X309112D01*
X309763Y121333D01*
X310138Y121707D01*
X310512Y121333D01*
X311163Y121063D01*
X311868D01*
X312519Y121333D01*
X312746Y121560D01*
X312973Y121333D01*
X313624Y121063D01*
X314329D01*
X314980Y121333D01*
X315158Y121510D01*
X315237Y121431D01*
X315888Y121161D01*
X316593D01*
X317244Y121431D01*
X317372Y121560D01*
X317500Y121431D01*
X318151Y121161D01*
X318856D01*
X319034Y121235D01*
X319450Y120957D01*
Y115441D01*
X319484Y115266D01*
X319100Y114882D01*
X318830Y114230D01*
Y113525D01*
X319100Y112874D01*
X319484Y112490D01*
X319450Y112314D01*
Y111417D01*
X319602Y110649D01*
X320038Y109998D01*
X331947Y98089D01*
X332598Y97654D01*
X333366Y97501D01*
X370743D01*
X370898Y97025D01*
X370387Y96654D01*
X369094Y95361D01*
X368019Y93882D01*
X367190Y92254D01*
X366625Y90515D01*
X366339Y88709D01*
Y86881D01*
X366625Y85076D01*
X367190Y83337D01*
X368019Y81708D01*
X369094Y80229D01*
X370387Y78936D01*
X371866Y77862D01*
X373495Y77032D01*
X375233Y76467D01*
X377039Y76181D01*
X378867D01*
X380672Y76467D01*
X382411Y77032D01*
X384040Y77862D01*
X385519Y78936D01*
X386811Y80229D01*
X387886Y81708D01*
X388716Y83337D01*
X389281Y85076D01*
X389567Y86881D01*
Y88709D01*
X389281Y90515D01*
X388716Y92254D01*
X387886Y93882D01*
X386811Y95361D01*
X385519Y96654D01*
X385008Y97025D01*
X385162Y97501D01*
X401887D01*
X402094Y97001D01*
X401981Y96887D01*
X401711Y96236D01*
Y95531D01*
X401981Y94880D01*
X402479Y94382D01*
X403130Y94112D01*
X403835D01*
X404486Y94382D01*
X404985Y94880D01*
X405254Y95531D01*
Y96236D01*
X404985Y96887D01*
X404871Y97001D01*
X405079Y97501D01*
X409255D01*
X410023Y97654D01*
X410674Y98089D01*
X410674Y98089D01*
X411188Y98089D01*
X411839Y97654D01*
X412607Y97501D01*
X418622D01*
X419390Y97654D01*
X420041Y98089D01*
X420476Y98740D01*
X420629Y99508D01*
X420629Y131614D01*
X420476Y132382D01*
X420041Y133033D01*
X415435Y137640D01*
X415435Y137640D01*
X392010Y161065D01*
X391359Y161500D01*
X390591Y161653D01*
D02*
G37*
G36*
X-36656Y133169D02*
X-37360D01*
X-38011Y132900D01*
X-38510Y132401D01*
X-38780Y131750D01*
Y131045D01*
X-38510Y130394D01*
X-38011Y129896D01*
X-37360Y129626D01*
X-36656D01*
X-36004Y129896D01*
X-35506Y130394D01*
X-35236Y131045D01*
Y131750D01*
X-35506Y132401D01*
X-36004Y132900D01*
X-36656Y133169D01*
D02*
G37*
G36*
X87459Y131890D02*
X86754D01*
X86103Y131620D01*
X85604Y131122D01*
X85335Y130471D01*
Y129766D01*
X85604Y129115D01*
X86103Y128616D01*
X86754Y128347D01*
X87459D01*
X88110Y128616D01*
X88608Y129115D01*
X88878Y129766D01*
Y130471D01*
X88608Y131122D01*
X88110Y131620D01*
X87459Y131890D01*
D02*
G37*
G36*
X-2403Y134055D02*
X-3108D01*
X-3760Y133785D01*
X-4258Y133287D01*
X-4528Y132636D01*
Y131931D01*
X-4258Y131280D01*
X-3760Y130781D01*
X-3530Y130686D01*
X-3413Y130097D01*
X-3470Y130039D01*
X-3740Y129388D01*
Y128683D01*
X-3470Y128032D01*
X-2972Y127533D01*
X-2321Y127264D01*
X-1616D01*
X-965Y127533D01*
X-467Y128032D01*
X-197Y128683D01*
Y129388D01*
X-467Y130039D01*
X-965Y130537D01*
X-1194Y130632D01*
X-1312Y131222D01*
X-1254Y131280D01*
X-984Y131931D01*
Y132636D01*
X-1254Y133287D01*
X-1752Y133785D01*
X-2403Y134055D01*
D02*
G37*
G36*
X30864Y130709D02*
X30159D01*
X29508Y130439D01*
X29010Y129941D01*
X28740Y129289D01*
Y128585D01*
X29010Y127933D01*
X29508Y127435D01*
X30159Y127165D01*
X30864D01*
X31515Y127435D01*
X32014Y127933D01*
X32283Y128585D01*
Y129289D01*
X32014Y129941D01*
X31515Y130439D01*
X30864Y130709D01*
D02*
G37*
G36*
X3187Y129370D02*
X2482D01*
X1831Y129100D01*
X1333Y128602D01*
X1063Y127951D01*
Y127246D01*
X1333Y126595D01*
X1831Y126096D01*
X2482Y125827D01*
X3187D01*
X3838Y126096D01*
X4337Y126595D01*
X4606Y127246D01*
Y127951D01*
X4337Y128602D01*
X3838Y129100D01*
X3187Y129370D01*
D02*
G37*
G36*
X102162Y128736D02*
X101457D01*
X100806Y128467D01*
X100308Y127968D01*
X100038Y127317D01*
Y126612D01*
X100308Y125961D01*
X100806Y125463D01*
X101457Y125193D01*
X102162D01*
X102813Y125463D01*
X103311Y125961D01*
X103581Y126612D01*
Y127317D01*
X103311Y127968D01*
X102813Y128467D01*
X102162Y128736D01*
D02*
G37*
G36*
X-22384Y121653D02*
X-23089D01*
X-23740Y121384D01*
X-24238Y120885D01*
X-24508Y120234D01*
Y119529D01*
X-24238Y118878D01*
X-23740Y118380D01*
X-23089Y118110D01*
X-22384D01*
X-21733Y118380D01*
X-21234Y118878D01*
X-20965Y119529D01*
Y120234D01*
X-21234Y120885D01*
X-21733Y121384D01*
X-22384Y121653D01*
D02*
G37*
G36*
X101435Y120965D02*
X100730D01*
X100079Y120695D01*
X99581Y120196D01*
X99311Y119545D01*
Y118841D01*
X99581Y118189D01*
X100079Y117691D01*
X100730Y117421D01*
X101435D01*
X102086Y117691D01*
X102585Y118189D01*
X102854Y118841D01*
Y119545D01*
X102585Y120196D01*
X102086Y120695D01*
X101435Y120965D01*
D02*
G37*
G36*
X30963Y123622D02*
X30258D01*
X29607Y123352D01*
X29108Y122854D01*
X28839Y122203D01*
Y121498D01*
X29108Y120847D01*
X29451Y120504D01*
X29589Y120287D01*
X29466Y119865D01*
X29207Y119606D01*
X28937Y118955D01*
Y118250D01*
X29207Y117599D01*
X29705Y117100D01*
X30356Y116831D01*
X31061D01*
X31712Y117100D01*
X32211Y117599D01*
X32480Y118250D01*
Y118955D01*
X32211Y119606D01*
X31868Y119949D01*
X31730Y120166D01*
X31853Y120587D01*
X32112Y120847D01*
X32382Y121498D01*
Y122203D01*
X32112Y122854D01*
X31614Y123352D01*
X30963Y123622D01*
D02*
G37*
G36*
X89850Y119061D02*
X89145D01*
X88494Y118791D01*
X87996Y118293D01*
X87726Y117642D01*
Y116937D01*
X87996Y116286D01*
X88494Y115787D01*
X89145Y115518D01*
X89850D01*
X90501Y115787D01*
X91000Y116286D01*
X91269Y116937D01*
Y117642D01*
X91000Y118293D01*
X90501Y118791D01*
X89850Y119061D01*
D02*
G37*
G36*
X205175Y115847D02*
X204470D01*
X203819Y115577D01*
X203321Y115078D01*
X203051Y114427D01*
Y113722D01*
X203321Y113071D01*
X203819Y112573D01*
X204470Y112303D01*
X205175D01*
X205826Y112573D01*
X206325Y113071D01*
X206594Y113722D01*
Y114427D01*
X206325Y115078D01*
X205826Y115577D01*
X205175Y115847D01*
D02*
G37*
G36*
X314526Y117652D02*
X313821D01*
X313170Y117383D01*
X312671Y116884D01*
X312402Y116233D01*
Y115529D01*
X312532Y115213D01*
X312574Y114750D01*
X312365Y114477D01*
X312081Y114193D01*
X311811Y113541D01*
Y112837D01*
X312081Y112185D01*
X312579Y111687D01*
X313230Y111417D01*
X313935D01*
X314586Y111687D01*
X315085Y112185D01*
X315354Y112837D01*
Y113541D01*
X315224Y113857D01*
X315182Y114320D01*
X315391Y114593D01*
X315675Y114877D01*
X315945Y115529D01*
Y116233D01*
X315675Y116884D01*
X315177Y117383D01*
X314526Y117652D01*
D02*
G37*
G36*
X3502Y117028D02*
X2797D01*
X2146Y116758D01*
X1648Y116260D01*
X1378Y115608D01*
Y114903D01*
X1648Y114252D01*
X2146Y113754D01*
X2797Y113484D01*
X2970D01*
X3247Y113068D01*
X3187Y112924D01*
Y112219D01*
X3457Y111568D01*
X3956Y111070D01*
X4607Y110800D01*
X5311D01*
X5963Y111070D01*
X6461Y111568D01*
X6731Y112219D01*
Y112924D01*
X6461Y113575D01*
X5963Y114074D01*
X5311Y114343D01*
X5139D01*
X4861Y114759D01*
X4921Y114903D01*
Y115608D01*
X4651Y116260D01*
X4153Y116758D01*
X3502Y117028D01*
D02*
G37*
G36*
X39624Y113287D02*
X38919D01*
X38268Y113018D01*
X37770Y112519D01*
X37500Y111868D01*
Y111163D01*
X37770Y110512D01*
X38268Y110014D01*
X38919Y109744D01*
X39624D01*
X40275Y110014D01*
X40774Y110512D01*
X41043Y111163D01*
Y111868D01*
X40774Y112519D01*
X40275Y113018D01*
X39624Y113287D01*
D02*
G37*
G36*
X297301Y118898D02*
X296596D01*
X295945Y118628D01*
X295447Y118130D01*
X295177Y117478D01*
Y116774D01*
X295018Y116535D01*
X294925D01*
X294274Y116266D01*
X293776Y115767D01*
X293506Y115116D01*
Y114411D01*
X293776Y113760D01*
X294274Y113262D01*
X294925Y112992D01*
X295508D01*
X295726Y112633D01*
X295753Y112530D01*
X295447Y112224D01*
X295177Y111573D01*
Y110868D01*
X295447Y110217D01*
X295945Y109719D01*
X296596Y109449D01*
X297301D01*
X297952Y109719D01*
X298451Y110217D01*
X298721Y110868D01*
Y111573D01*
X298451Y112224D01*
X297952Y112722D01*
X297301Y112992D01*
X296719D01*
X296501Y113351D01*
X296474Y113454D01*
X296780Y113760D01*
X297050Y114411D01*
Y115116D01*
X297209Y115354D01*
X297301D01*
X297952Y115624D01*
X298451Y116122D01*
X298721Y116774D01*
Y117478D01*
X298451Y118130D01*
X297952Y118628D01*
X297301Y118898D01*
D02*
G37*
G36*
X21907Y112894D02*
X21203D01*
X20552Y112624D01*
X20053Y112126D01*
X19783Y111475D01*
Y110770D01*
X20053Y110118D01*
X20552Y109620D01*
X21203Y109350D01*
X21907D01*
X22559Y109620D01*
X23057Y110118D01*
X23327Y110770D01*
Y111475D01*
X23057Y112126D01*
X22559Y112624D01*
X21907Y112894D01*
D02*
G37*
G36*
X86868Y112814D02*
X86163D01*
X85512Y112544D01*
X85014Y112046D01*
X84744Y111395D01*
Y110690D01*
X85014Y110038D01*
X85512Y109540D01*
X86163Y109270D01*
X86868D01*
X87519Y109540D01*
X88018Y110038D01*
X88287Y110690D01*
Y111395D01*
X88018Y112046D01*
X87519Y112544D01*
X86868Y112814D01*
D02*
G37*
G36*
X106455Y112795D02*
X105750D01*
X105099Y112525D01*
X104600Y112027D01*
X104331Y111376D01*
Y110671D01*
X104600Y110020D01*
X105099Y109522D01*
X105750Y109252D01*
X106455D01*
X107106Y109522D01*
X107604Y110020D01*
X107874Y110671D01*
Y111376D01*
X107604Y112027D01*
X107106Y112525D01*
X106455Y112795D01*
D02*
G37*
G36*
X-4372Y115354D02*
X-5077D01*
X-5728Y115085D01*
X-6226Y114586D01*
X-6496Y113935D01*
Y113230D01*
X-6226Y112579D01*
X-5728Y112081D01*
X-5156Y111844D01*
X-5092Y111563D01*
X-5106Y111323D01*
X-5236Y111269D01*
X-5734Y110771D01*
X-6004Y110120D01*
Y109415D01*
X-5734Y108764D01*
X-5236Y108265D01*
X-4585Y107996D01*
X-3880D01*
X-3229Y108265D01*
X-2730Y108764D01*
X-2461Y109415D01*
Y110120D01*
X-2730Y110771D01*
X-3229Y111269D01*
X-3801Y111506D01*
X-3865Y111787D01*
X-3851Y112027D01*
X-3721Y112081D01*
X-3223Y112579D01*
X-2953Y113230D01*
Y113935D01*
X-3223Y114586D01*
X-3721Y115085D01*
X-4372Y115354D01*
D02*
G37*
G36*
X234713Y113189D02*
X233988D01*
X233287Y113001D01*
X232658Y112638D01*
X232145Y112125D01*
X231782Y111497D01*
X231594Y110796D01*
Y110070D01*
X231782Y109369D01*
X232145Y108741D01*
X232658Y108228D01*
X233287Y107865D01*
X233988Y107677D01*
X234713D01*
X235414Y107865D01*
X236042Y108228D01*
X236556Y108741D01*
X236918Y109369D01*
X237106Y110070D01*
Y110796D01*
X236918Y111497D01*
X236556Y112125D01*
X236042Y112638D01*
X235414Y113001D01*
X234713Y113189D01*
D02*
G37*
G36*
X47965Y111171D02*
X47260D01*
X46609Y110901D01*
X46111Y110403D01*
X45841Y109752D01*
Y109047D01*
X46111Y108396D01*
X46609Y107898D01*
X47260Y107628D01*
X47965D01*
X48616Y107898D01*
X49115Y108396D01*
X49385Y109047D01*
Y109752D01*
X49115Y110403D01*
X48616Y110901D01*
X47965Y111171D01*
D02*
G37*
G36*
X306553Y111024D02*
X305848D01*
X305197Y110754D01*
X304699Y110256D01*
X304429Y109604D01*
Y108900D01*
X304699Y108248D01*
X305197Y107750D01*
X305848Y107480D01*
X306553D01*
X307204Y107750D01*
X307703Y108248D01*
X307972Y108900D01*
Y109604D01*
X307703Y110256D01*
X307204Y110754D01*
X306553Y111024D01*
D02*
G37*
G36*
X313159Y110630D02*
X312454D01*
X311803Y110360D01*
X311304Y109862D01*
X311035Y109211D01*
Y108506D01*
X311304Y107855D01*
X311803Y107356D01*
X312454Y107087D01*
X313159D01*
X313810Y107356D01*
X314308Y107855D01*
X314578Y108506D01*
Y109211D01*
X314308Y109862D01*
X313810Y110360D01*
X313159Y110630D01*
D02*
G37*
G36*
X3460Y107635D02*
X2755D01*
X2104Y107366D01*
X1606Y106867D01*
X1140Y106774D01*
X976Y106938D01*
X325Y107208D01*
X-380D01*
X-1031Y106938D01*
X-1530Y106440D01*
X-1799Y105789D01*
Y105084D01*
X-1530Y104433D01*
X-1031Y103935D01*
X-380Y103665D01*
X325D01*
X976Y103935D01*
X1474Y104433D01*
X1940Y104526D01*
X2104Y104362D01*
X2755Y104092D01*
X3460D01*
X4111Y104362D01*
X4610Y104860D01*
X4879Y105511D01*
Y106216D01*
X4610Y106867D01*
X4111Y107366D01*
X3460Y107635D01*
D02*
G37*
G36*
X212705Y109968D02*
X212000D01*
X211349Y109698D01*
X210850Y109200D01*
X210581Y108548D01*
Y107844D01*
X210850Y107193D01*
X211349Y106694D01*
X212000Y106424D01*
X212705D01*
X213356Y106694D01*
X213854Y107193D01*
X214124Y107844D01*
Y108548D01*
X213854Y109200D01*
X213356Y109698D01*
X212705Y109968D01*
D02*
G37*
G36*
X9998Y109449D02*
X9293D01*
X8642Y109179D01*
X8144Y108681D01*
X7874Y108030D01*
Y107325D01*
X8144Y106674D01*
X8642Y106175D01*
X9293Y105905D01*
X9998D01*
X10649Y106175D01*
X11148Y106674D01*
X11417Y107325D01*
Y108030D01*
X11148Y108681D01*
X10649Y109179D01*
X9998Y109449D01*
D02*
G37*
G36*
X67106Y109006D02*
X66402D01*
X65750Y108736D01*
X65252Y108238D01*
X64982Y107587D01*
Y106882D01*
X65252Y106231D01*
X65750Y105732D01*
X66402Y105463D01*
X67106D01*
X67757Y105732D01*
X68256Y106231D01*
X68526Y106882D01*
Y107587D01*
X68256Y108238D01*
X67757Y108736D01*
X67106Y109006D01*
D02*
G37*
G36*
X167971Y104724D02*
X167266D01*
X166615Y104455D01*
X166116Y103956D01*
X165847Y103305D01*
Y102600D01*
X166116Y101949D01*
X166615Y101451D01*
X167266Y101181D01*
X167971D01*
X168622Y101451D01*
X169120Y101949D01*
X169390Y102600D01*
Y103305D01*
X169120Y103956D01*
X168622Y104455D01*
X167971Y104724D01*
D02*
G37*
G36*
X51334Y104232D02*
X50630D01*
X49978Y103963D01*
X49480Y103464D01*
X49210Y102813D01*
Y102108D01*
X49480Y101457D01*
X49978Y100959D01*
X50630Y100689D01*
X51334D01*
X51986Y100959D01*
X52484Y101457D01*
X52754Y102108D01*
Y102813D01*
X52484Y103464D01*
X51986Y103963D01*
X51334Y104232D01*
D02*
G37*
G36*
X39624Y102362D02*
X38919D01*
X38268Y102093D01*
X37770Y101594D01*
X37500Y100943D01*
Y100238D01*
X37770Y99587D01*
X38268Y99089D01*
X38919Y98819D01*
X39624D01*
X40275Y99089D01*
X40774Y99587D01*
X41043Y100238D01*
Y100943D01*
X40774Y101594D01*
X40275Y102093D01*
X39624Y102362D01*
D02*
G37*
G36*
X25365Y101174D02*
X24660D01*
X24009Y100905D01*
X23511Y100406D01*
X23241Y99755D01*
Y99050D01*
X23511Y98399D01*
X24009Y97901D01*
X24660Y97631D01*
X25365D01*
X26017Y97901D01*
X26515Y98399D01*
X26785Y99050D01*
Y99755D01*
X26515Y100406D01*
X26017Y100905D01*
X25365Y101174D01*
D02*
G37*
G36*
X32931Y97539D02*
X32226D01*
X31575Y97270D01*
X31077Y96771D01*
X30807Y96120D01*
Y95415D01*
X31077Y94764D01*
X31575Y94266D01*
X32226Y93996D01*
X32931D01*
X33582Y94266D01*
X34081Y94764D01*
X34350Y95415D01*
Y96120D01*
X34081Y96771D01*
X33582Y97270D01*
X32931Y97539D01*
D02*
G37*
G36*
X75050Y97047D02*
X74345D01*
X73694Y96777D01*
X73195Y96279D01*
X72926Y95628D01*
Y94923D01*
X73195Y94272D01*
X73694Y93774D01*
X74345Y93504D01*
X75050D01*
X75701Y93774D01*
X76199Y94272D01*
X76469Y94923D01*
Y95628D01*
X76199Y96279D01*
X75701Y96777D01*
X75050Y97047D01*
D02*
G37*
G36*
X322597Y93307D02*
X321892D01*
X321240Y93037D01*
X320742Y92539D01*
X320343Y92793D01*
X320197Y92939D01*
X319545Y93209D01*
X318841D01*
X318189Y92939D01*
X317691Y92441D01*
X317421Y91789D01*
Y91085D01*
X317691Y90434D01*
X318189Y89935D01*
X318841Y89665D01*
X319545D01*
X320197Y89935D01*
X320695Y90433D01*
X321094Y90180D01*
X321240Y90034D01*
X321892Y89764D01*
X322597D01*
X323248Y90034D01*
X323746Y90532D01*
X324016Y91183D01*
Y91888D01*
X323746Y92539D01*
X323248Y93037D01*
X322597Y93307D01*
D02*
G37*
G36*
X22953Y98032D02*
X15473D01*
Y90551D01*
X22953D01*
Y98032D01*
D02*
G37*
G36*
X327518Y93110D02*
X326813D01*
X326162Y92840D01*
X325663Y92342D01*
X325394Y91691D01*
Y90986D01*
X325663Y90335D01*
X326162Y89837D01*
X326813Y89567D01*
X327518D01*
X328169Y89837D01*
X328667Y90335D01*
X328937Y90986D01*
Y91691D01*
X328667Y92342D01*
X328169Y92840D01*
X327518Y93110D01*
D02*
G37*
G36*
X335293Y90158D02*
X334589D01*
X333937Y89888D01*
X333439Y89389D01*
X333169Y88738D01*
Y88033D01*
X333439Y87382D01*
X333937Y86884D01*
X334589Y86614D01*
X335293D01*
X335945Y86884D01*
X336443Y87382D01*
X336713Y88033D01*
Y88738D01*
X336443Y89389D01*
X335945Y89888D01*
X335293Y90158D01*
D02*
G37*
G36*
X425746Y89567D02*
X425041D01*
X424390Y89297D01*
X423892Y88799D01*
X423622Y88148D01*
Y87443D01*
X423892Y86792D01*
X424390Y86293D01*
X425041Y86024D01*
X425746D01*
X426397Y86293D01*
X426896Y86792D01*
X427165Y87443D01*
Y88148D01*
X426896Y88799D01*
X426397Y89297D01*
X425746Y89567D01*
D02*
G37*
G36*
X103868Y91782D02*
X95502D01*
Y83415D01*
X103868D01*
Y91782D01*
D02*
G37*
G36*
X362754Y90945D02*
X362049D01*
X361398Y90675D01*
X360900Y90177D01*
X360630Y89526D01*
Y88821D01*
X360900Y88170D01*
X361323Y87746D01*
X360900Y87322D01*
X360630Y86671D01*
Y85966D01*
X360900Y85315D01*
X361323Y84892D01*
X360900Y84468D01*
X360630Y83817D01*
Y83112D01*
X360900Y82461D01*
X361398Y81963D01*
X362049Y81693D01*
X362754D01*
X363405Y81963D01*
X363903Y82461D01*
X364173Y83112D01*
Y83817D01*
X363903Y84468D01*
X363480Y84892D01*
X363903Y85315D01*
X364173Y85966D01*
Y86671D01*
X363903Y87322D01*
X363480Y87746D01*
X363903Y88170D01*
X364173Y88821D01*
Y89526D01*
X363903Y90177D01*
X363405Y90675D01*
X362754Y90945D01*
D02*
G37*
G36*
X304370Y84978D02*
X303665D01*
X303014Y84708D01*
X302516Y84210D01*
X302246Y83559D01*
Y82854D01*
X302516Y82203D01*
X303014Y81704D01*
X303665Y81435D01*
X304370D01*
X305021Y81704D01*
X305519Y82203D01*
X305789Y82854D01*
Y83559D01*
X305519Y84210D01*
X305021Y84708D01*
X304370Y84978D01*
D02*
G37*
G36*
X19705Y88032D02*
X18720D01*
X17769Y87777D01*
X16916Y87284D01*
X16220Y86588D01*
X15727Y85735D01*
X15473Y84784D01*
Y83799D01*
X15727Y82848D01*
X16220Y81995D01*
X16916Y81299D01*
X17769Y80806D01*
X18720Y80551D01*
X19705D01*
X20656Y80806D01*
X21509Y81299D01*
X22206Y81995D01*
X22698Y82848D01*
X22953Y83799D01*
Y84784D01*
X22698Y85735D01*
X22206Y86588D01*
X21509Y87284D01*
X20656Y87777D01*
X19705Y88032D01*
D02*
G37*
G36*
X245431Y84941D02*
X244726D01*
X244075Y84671D01*
X243577Y84173D01*
X243307Y83522D01*
Y82817D01*
X243577Y82166D01*
X243772Y81970D01*
X244055Y81644D01*
X243772Y81317D01*
X243577Y81122D01*
X243307Y80471D01*
Y79766D01*
X243577Y79115D01*
X244075Y78616D01*
X244726Y78347D01*
X245431D01*
X246082Y78616D01*
X246581Y79115D01*
X246850Y79766D01*
Y80471D01*
X246581Y81122D01*
X246385Y81317D01*
X246103Y81644D01*
X246385Y81970D01*
X246581Y82166D01*
X246850Y82817D01*
Y83522D01*
X246581Y84173D01*
X246082Y84671D01*
X245431Y84941D01*
D02*
G37*
G36*
X68463Y80610D02*
X67758D01*
X67107Y80340D01*
X66608Y79842D01*
X66339Y79191D01*
Y78486D01*
X66608Y77835D01*
X67107Y77337D01*
X67758Y77067D01*
X68463D01*
X69114Y77337D01*
X69612Y77835D01*
X69882Y78486D01*
Y79191D01*
X69612Y79842D01*
X69114Y80340D01*
X68463Y80610D01*
D02*
G37*
G36*
X280442Y99410D02*
X278613D01*
X276808Y99124D01*
X275069Y98559D01*
X273440Y97729D01*
X271961Y96654D01*
X270669Y95361D01*
X269594Y93882D01*
X268764Y92254D01*
X268199Y90515D01*
X267913Y88709D01*
Y86881D01*
X268199Y85076D01*
X268764Y83337D01*
X269594Y81708D01*
X270669Y80229D01*
X271961Y78936D01*
X273440Y77862D01*
X275069Y77032D01*
X276808Y76467D01*
X278613Y76181D01*
X280442D01*
X282247Y76467D01*
X283986Y77032D01*
X285615Y77862D01*
X287094Y78936D01*
X288386Y80229D01*
X289461Y81708D01*
X290291Y83337D01*
X290856Y85076D01*
X291142Y86881D01*
Y88709D01*
X290856Y90515D01*
X290291Y92254D01*
X289461Y93882D01*
X288386Y95361D01*
X287094Y96654D01*
X285615Y97729D01*
X283986Y98559D01*
X282247Y99124D01*
X280442Y99410D01*
D02*
G37*
G36*
X397695Y79331D02*
X396990D01*
X396339Y79061D01*
X395841Y78563D01*
X395571Y77912D01*
Y77207D01*
X395841Y76556D01*
X396339Y76057D01*
X396990Y75787D01*
X397695D01*
X398346Y76057D01*
X398845Y76556D01*
X399114Y77207D01*
Y77912D01*
X398845Y78563D01*
X398346Y79061D01*
X397695Y79331D01*
D02*
G37*
G36*
X299368Y78937D02*
X298663D01*
X298012Y78667D01*
X297514Y78169D01*
X297244Y77518D01*
Y76813D01*
X297514Y76162D01*
X298012Y75664D01*
X298663Y75394D01*
X299368D01*
X300019Y75664D01*
X300518Y76162D01*
X300787Y76813D01*
Y77518D01*
X300518Y78169D01*
X300019Y78667D01*
X299368Y78937D01*
D02*
G37*
G36*
X43943Y77899D02*
X43238D01*
X42587Y77630D01*
X42088Y77131D01*
X41819Y76480D01*
Y75775D01*
X42088Y75124D01*
X42587Y74626D01*
X43238Y74356D01*
X43943D01*
X44594Y74626D01*
X45092Y75124D01*
X45362Y75775D01*
Y76480D01*
X45092Y77131D01*
X44594Y77630D01*
X43943Y77899D01*
D02*
G37*
G36*
X322301Y76673D02*
X321596D01*
X320945Y76403D01*
X320447Y75905D01*
X320177Y75254D01*
Y74549D01*
X320447Y73898D01*
X320945Y73400D01*
X321596Y73130D01*
X322301D01*
X322952Y73400D01*
X323451Y73898D01*
X323721Y74549D01*
Y75254D01*
X323451Y75905D01*
X322952Y76403D01*
X322301Y76673D01*
D02*
G37*
G36*
X424200Y76605D02*
X423496D01*
X422845Y76335D01*
X422346Y75837D01*
X422077Y75186D01*
Y74481D01*
X422346Y73830D01*
X422845Y73331D01*
X423496Y73062D01*
X424200D01*
X424852Y73331D01*
X425350Y73830D01*
X425620Y74481D01*
Y75186D01*
X425350Y75837D01*
X424852Y76335D01*
X424200Y76605D01*
D02*
G37*
G36*
X101435Y76083D02*
X100730D01*
X100079Y75813D01*
X99581Y75315D01*
X99311Y74663D01*
Y73959D01*
X99581Y73308D01*
X100079Y72809D01*
X100730Y72539D01*
X101435D01*
X102086Y72809D01*
X102585Y73308D01*
X102854Y73959D01*
Y74663D01*
X102585Y75315D01*
X102086Y75813D01*
X101435Y76083D01*
D02*
G37*
G36*
X19705Y78031D02*
X18720D01*
X17769Y77777D01*
X16916Y77284D01*
X16220Y76588D01*
X15727Y75735D01*
X15473Y74784D01*
Y73799D01*
X15727Y72848D01*
X16220Y71995D01*
X16916Y71298D01*
X17769Y70806D01*
X18720Y70551D01*
X19705D01*
X20656Y70806D01*
X21509Y71298D01*
X22206Y71995D01*
X22698Y72848D01*
X22953Y73799D01*
Y74784D01*
X22698Y75735D01*
X22206Y76588D01*
X21509Y77284D01*
X20656Y77777D01*
X19705Y78031D01*
D02*
G37*
G36*
X190707Y73524D02*
X190002D01*
X189351Y73254D01*
X188852Y72755D01*
X188583Y72104D01*
Y71400D01*
X188852Y70748D01*
X189351Y70250D01*
X190002Y69980D01*
X190707D01*
X191358Y70250D01*
X191856Y70748D01*
X192126Y71400D01*
Y72104D01*
X191856Y72755D01*
X191358Y73254D01*
X190707Y73524D01*
D02*
G37*
G36*
X299171Y73425D02*
X298466D01*
X297815Y73155D01*
X297317Y72657D01*
X297047Y72006D01*
Y71301D01*
X297317Y70650D01*
X297815Y70152D01*
X298466Y69882D01*
X299171D01*
X299822Y70152D01*
X300321Y70650D01*
X300590Y71301D01*
Y72006D01*
X300321Y72657D01*
X299822Y73155D01*
X299171Y73425D01*
D02*
G37*
G36*
X67986Y73373D02*
X67281D01*
X66630Y73103D01*
X66131Y72605D01*
X65862Y71954D01*
Y71249D01*
X66131Y70598D01*
X66630Y70099D01*
X67281Y69830D01*
X67986D01*
X68637Y70099D01*
X69135Y70598D01*
X69405Y71249D01*
Y71954D01*
X69135Y72605D01*
X68637Y73103D01*
X67986Y73373D01*
D02*
G37*
G36*
X172498Y68898D02*
X171793D01*
X171142Y68628D01*
X170644Y68129D01*
X170374Y67478D01*
Y66774D01*
X170644Y66122D01*
X171142Y65624D01*
X171793Y65354D01*
X172498D01*
X173149Y65624D01*
X173648Y66122D01*
X173917Y66774D01*
Y67478D01*
X173648Y68129D01*
X173149Y68628D01*
X172498Y68898D01*
D02*
G37*
G36*
X89306Y66335D02*
X88601D01*
X87950Y66066D01*
X87452Y65567D01*
X87182Y64916D01*
Y64211D01*
X87452Y63560D01*
X87950Y63062D01*
X88601Y62792D01*
X89306D01*
X89957Y63062D01*
X90456Y63560D01*
X90725Y64211D01*
Y64916D01*
X90456Y65567D01*
X89957Y66066D01*
X89306Y66335D01*
D02*
G37*
G36*
X39427Y65873D02*
X38722D01*
X38071Y65604D01*
X37573Y65105D01*
X37303Y64454D01*
Y63749D01*
X37573Y63098D01*
X38071Y62600D01*
X38722Y62330D01*
X39427D01*
X40078Y62600D01*
X40577Y63098D01*
X40846Y63749D01*
Y64454D01*
X40577Y65105D01*
X40078Y65604D01*
X39427Y65873D01*
D02*
G37*
G36*
X19705Y68032D02*
X18720D01*
X17769Y67777D01*
X16916Y67284D01*
X16220Y66588D01*
X15727Y65735D01*
X15473Y64784D01*
Y63799D01*
X15727Y62848D01*
X16220Y61995D01*
X16916Y61299D01*
X17769Y60806D01*
X18720Y60551D01*
X19705D01*
X20656Y60806D01*
X21509Y61299D01*
X22206Y61995D01*
X22698Y62848D01*
X22953Y63799D01*
Y64784D01*
X22698Y65735D01*
X22206Y66588D01*
X21509Y67284D01*
X20656Y67777D01*
X19705Y68032D01*
D02*
G37*
G36*
X55372Y63976D02*
X54667D01*
X54016Y63707D01*
X53518Y63208D01*
X53248Y62557D01*
Y61852D01*
X53518Y61201D01*
X54016Y60703D01*
X54667Y60433D01*
X55372D01*
X56023Y60703D01*
X56522Y61201D01*
X56791Y61852D01*
Y62557D01*
X56522Y63208D01*
X56023Y63707D01*
X55372Y63976D01*
D02*
G37*
G36*
X294644Y62402D02*
X293939D01*
X293288Y62132D01*
X292789Y61633D01*
X292520Y60982D01*
Y60277D01*
X292789Y59626D01*
X293288Y59128D01*
X293939Y58858D01*
X294644D01*
X295295Y59128D01*
X295793Y59626D01*
X296063Y60277D01*
Y60982D01*
X295793Y61633D01*
X295295Y62132D01*
X294644Y62402D01*
D02*
G37*
G36*
X233532Y63779D02*
X232806D01*
X232105Y63592D01*
X231477Y63229D01*
X230964Y62716D01*
X230601Y62087D01*
X230413Y61386D01*
Y60661D01*
X230601Y59960D01*
X230964Y59332D01*
X231477Y58818D01*
X232105Y58455D01*
X232806Y58268D01*
X233532D01*
X234233Y58455D01*
X234861Y58818D01*
X235375Y59332D01*
X235737Y59960D01*
X235925Y60661D01*
Y61386D01*
X235737Y62087D01*
X235375Y62716D01*
X234861Y63229D01*
X234233Y63592D01*
X233532Y63779D01*
D02*
G37*
G36*
X173679Y55709D02*
X172974D01*
X172323Y55439D01*
X171825Y54941D01*
X171555Y54289D01*
Y53585D01*
X171825Y52934D01*
X172323Y52435D01*
X172974Y52165D01*
X173679D01*
X174330Y52435D01*
X174829Y52934D01*
X175098Y53585D01*
Y54289D01*
X174829Y54941D01*
X174330Y55439D01*
X173679Y55709D01*
D02*
G37*
G36*
X19705Y58031D02*
X18720D01*
X17769Y57777D01*
X16916Y57284D01*
X16220Y56588D01*
X15727Y55735D01*
X15473Y54784D01*
Y53799D01*
X15727Y52848D01*
X16220Y51995D01*
X16916Y51298D01*
X17769Y50806D01*
X18720Y50551D01*
X19705D01*
X20656Y50806D01*
X21509Y51298D01*
X22206Y51995D01*
X22698Y52848D01*
X22953Y53799D01*
Y54784D01*
X22698Y55735D01*
X22206Y56588D01*
X21509Y57284D01*
X20656Y57777D01*
X19705Y58031D01*
D02*
G37*
G36*
X82144Y53937D02*
X81439D01*
X80788Y53667D01*
X80289Y53169D01*
X80020Y52518D01*
Y51813D01*
X80289Y51162D01*
X80788Y50663D01*
X81439Y50394D01*
X82144D01*
X82795Y50663D01*
X83293Y51162D01*
X83563Y51813D01*
Y52518D01*
X83293Y53169D01*
X82795Y53667D01*
X82144Y53937D01*
D02*
G37*
G36*
X418583Y74153D02*
X367520D01*
X366752Y74000D01*
X366101Y73565D01*
X365665Y72914D01*
X365513Y72146D01*
Y47775D01*
X321555D01*
X320787Y47622D01*
X320541Y47457D01*
X320483Y47473D01*
X320079Y47750D01*
Y48285D01*
X319809Y48937D01*
X319311Y49435D01*
X318659Y49705D01*
X317955D01*
X317303Y49435D01*
X317175Y49307D01*
X317047Y49435D01*
X316396Y49705D01*
X315691D01*
X315040Y49435D01*
X314715Y49110D01*
X314488Y49337D01*
X313837Y49606D01*
X313132D01*
X312481Y49337D01*
X312352Y49208D01*
X312224Y49337D01*
X311573Y49606D01*
X310868D01*
X310217Y49337D01*
X310039Y49159D01*
X309862Y49337D01*
X309211Y49606D01*
X308506D01*
X307855Y49337D01*
X307677Y49159D01*
X307500Y49337D01*
X306849Y49606D01*
X306144D01*
X305492Y49337D01*
X304994Y48838D01*
X304724Y48187D01*
Y47482D01*
X304994Y46831D01*
X305492Y46333D01*
X305798Y46206D01*
Y45665D01*
X305394Y45498D01*
X304896Y45000D01*
X304626Y44348D01*
Y43644D01*
X304896Y42992D01*
X305024Y42864D01*
X304896Y42736D01*
X304626Y42085D01*
Y41380D01*
X304896Y40729D01*
X305024Y40600D01*
X304896Y40472D01*
X304626Y39821D01*
Y39116D01*
X304896Y38465D01*
X305073Y38287D01*
X304896Y38110D01*
X304626Y37459D01*
Y36754D01*
X304896Y36103D01*
X305394Y35604D01*
X305748Y35458D01*
Y34916D01*
X305394Y34770D01*
X304896Y34271D01*
X304626Y33620D01*
Y32915D01*
X304896Y32264D01*
X305394Y31766D01*
X306045Y31496D01*
X306750D01*
X307401Y31766D01*
X307579Y31943D01*
X307855Y31667D01*
X308506Y31398D01*
X309211D01*
X309862Y31667D01*
X310236Y32042D01*
X310611Y31667D01*
X311262Y31398D01*
X311967D01*
X312618Y31667D01*
X312844Y31894D01*
X313071Y31667D01*
X313722Y31398D01*
X314427D01*
X315078Y31667D01*
X315256Y31845D01*
X315335Y31766D01*
X315986Y31496D01*
X316691D01*
X317342Y31766D01*
X317471Y31894D01*
X317599Y31766D01*
X318250Y31496D01*
X318955D01*
X319132Y31570D01*
X319548Y31292D01*
Y29527D01*
X319645Y29040D01*
X319463Y28858D01*
X319193Y28207D01*
Y27502D01*
X319463Y26851D01*
X319645Y26669D01*
X319548Y26181D01*
Y23622D01*
X319701Y22854D01*
X320136Y22203D01*
X320136Y22203D01*
X320136Y21695D01*
X319701Y21044D01*
X319548Y20276D01*
Y4035D01*
X319701Y3267D01*
X320136Y2616D01*
X320787Y2181D01*
X321555Y2028D01*
X418583D01*
X419351Y2181D01*
X420002Y2616D01*
X420437Y3267D01*
X420590Y4035D01*
Y31299D01*
Y72146D01*
X420437Y72914D01*
X420002Y73565D01*
X419351Y74000D01*
X418583Y74153D01*
D02*
G37*
G36*
X32341Y53445D02*
X31636D01*
X30985Y53175D01*
X30486Y52677D01*
X30217Y52026D01*
Y51321D01*
X30486Y50670D01*
X30946Y50210D01*
X30987Y50124D01*
X31009Y49620D01*
X30658Y49268D01*
X30388Y48617D01*
Y47913D01*
X30658Y47261D01*
X31156Y46763D01*
X31807Y46493D01*
X32512D01*
X33163Y46763D01*
X33661Y47261D01*
X33931Y47913D01*
Y48617D01*
X33661Y49268D01*
X33202Y49728D01*
X33161Y49814D01*
X33139Y50318D01*
X33490Y50670D01*
X33760Y51321D01*
Y52026D01*
X33490Y52677D01*
X32992Y53175D01*
X32341Y53445D01*
D02*
G37*
G36*
X106553Y44291D02*
X105848D01*
X105197Y44022D01*
X104699Y43523D01*
X104429Y42872D01*
Y42167D01*
X104699Y41516D01*
X105197Y41018D01*
X105848Y40748D01*
X106553D01*
X107204Y41018D01*
X107703Y41516D01*
X107972Y42167D01*
Y42872D01*
X107703Y43523D01*
X107204Y44022D01*
X106553Y44291D01*
D02*
G37*
G36*
X19705Y48031D02*
X18720D01*
X17769Y47777D01*
X16916Y47284D01*
X16220Y46588D01*
X15727Y45735D01*
X15473Y44784D01*
Y43799D01*
X15727Y42848D01*
X16220Y41995D01*
X16916Y41298D01*
X17769Y40806D01*
X18720Y40551D01*
X19705D01*
X20656Y40806D01*
X21509Y41298D01*
X22206Y41995D01*
X22698Y42848D01*
X22953Y43799D01*
Y44784D01*
X22698Y45735D01*
X22206Y46588D01*
X21509Y47284D01*
X20656Y47777D01*
X19705Y48031D01*
D02*
G37*
G36*
X101337Y43996D02*
X100632D01*
X99981Y43726D01*
X99482Y43228D01*
X99213Y42577D01*
Y41872D01*
X99482Y41221D01*
X99981Y40723D01*
X100632Y40453D01*
X101337D01*
X101988Y40723D01*
X102486Y41221D01*
X102756Y41872D01*
Y42577D01*
X102486Y43228D01*
X101988Y43726D01*
X101337Y43996D01*
D02*
G37*
G36*
X233532Y45177D02*
X232806D01*
X232105Y44989D01*
X231477Y44627D01*
X230964Y44113D01*
X230601Y43485D01*
X230413Y42784D01*
Y42058D01*
X230601Y41357D01*
X230964Y40729D01*
X231477Y40216D01*
X232105Y39853D01*
X232806Y39665D01*
X233532D01*
X234233Y39853D01*
X234861Y40216D01*
X235375Y40729D01*
X235737Y41357D01*
X235925Y42058D01*
Y42784D01*
X235737Y43485D01*
X235375Y44113D01*
X234861Y44627D01*
X234233Y44989D01*
X233532Y45177D01*
D02*
G37*
G36*
X245431Y39862D02*
X244726D01*
X244075Y39592D01*
X243577Y39094D01*
X243307Y38443D01*
Y37738D01*
X243577Y37087D01*
X243772Y36892D01*
X244055Y36565D01*
X243772Y36238D01*
X243577Y36043D01*
X243307Y35392D01*
Y34687D01*
X243577Y34036D01*
X244075Y33538D01*
X244726Y33268D01*
X245431D01*
X246082Y33538D01*
X246581Y34036D01*
X246850Y34687D01*
Y35392D01*
X246581Y36043D01*
X246385Y36238D01*
X246103Y36565D01*
X246385Y36892D01*
X246581Y37087D01*
X246850Y37738D01*
Y38443D01*
X246581Y39094D01*
X246082Y39592D01*
X245431Y39862D01*
D02*
G37*
G36*
X19705Y38032D02*
X18720D01*
X17769Y37777D01*
X16916Y37284D01*
X16220Y36588D01*
X15727Y35735D01*
X15473Y34784D01*
Y33799D01*
X15727Y32848D01*
X16220Y31995D01*
X16916Y31299D01*
X17769Y30806D01*
X18720Y30551D01*
X19705D01*
X20656Y30806D01*
X21509Y31299D01*
X22206Y31995D01*
X22698Y32848D01*
X22953Y33799D01*
Y34784D01*
X22698Y35735D01*
X22206Y36588D01*
X21509Y37284D01*
X20656Y37777D01*
X19705Y38032D01*
D02*
G37*
G36*
X39329Y30610D02*
X38624D01*
X37973Y30340D01*
X37475Y29842D01*
X37205Y29191D01*
Y28486D01*
X37475Y27835D01*
X37973Y27337D01*
X38624Y27067D01*
X39329D01*
X39980Y27337D01*
X40478Y27835D01*
X40748Y28486D01*
Y29191D01*
X40478Y29842D01*
X39980Y30340D01*
X39329Y30610D01*
D02*
G37*
G36*
X208718Y29724D02*
X208014D01*
X207363Y29455D01*
X206864Y28956D01*
X206594Y28305D01*
Y27600D01*
X206864Y26949D01*
X207363Y26451D01*
X208014Y26181D01*
X208718D01*
X209370Y26451D01*
X209868Y26949D01*
X210138Y27600D01*
Y28305D01*
X209868Y28956D01*
X209370Y29455D01*
X208718Y29724D01*
D02*
G37*
G36*
X201730Y28740D02*
X201026D01*
X200374Y28470D01*
X199876Y27972D01*
X199606Y27321D01*
Y26616D01*
X199876Y25965D01*
X200374Y25467D01*
X201026Y25197D01*
X201730D01*
X202381Y25467D01*
X202880Y25965D01*
X203150Y26616D01*
Y27321D01*
X202880Y27972D01*
X202381Y28470D01*
X201730Y28740D01*
D02*
G37*
G36*
X314530Y26528D02*
X313825D01*
X313174Y26258D01*
X312676Y25760D01*
X312422Y25147D01*
X312065Y25295D01*
X311360D01*
X310709Y25025D01*
X310211Y24527D01*
X309941Y23876D01*
Y23171D01*
X310211Y22520D01*
X310709Y22022D01*
X311360Y21752D01*
X312065D01*
X312716Y22022D01*
X313215Y22520D01*
X313468Y23132D01*
X313825Y22985D01*
X314530D01*
X315181Y23254D01*
X315680Y23753D01*
X315949Y24404D01*
Y25109D01*
X315680Y25760D01*
X315181Y26258D01*
X314530Y26528D01*
D02*
G37*
G36*
X19713Y28030D02*
Y24791D01*
X22951D01*
X22698Y25735D01*
X22206Y26588D01*
X21509Y27284D01*
X20656Y27777D01*
X19713Y28030D01*
D02*
G37*
G36*
X18713D02*
X17769Y27777D01*
X16916Y27284D01*
X16220Y26588D01*
X15727Y25735D01*
X15474Y24791D01*
X18713D01*
Y28030D01*
D02*
G37*
G36*
X22951Y23791D02*
X19713D01*
Y20553D01*
X20656Y20806D01*
X21509Y21298D01*
X22206Y21995D01*
X22698Y22848D01*
X22951Y23791D01*
D02*
G37*
G36*
X18713D02*
X15474D01*
X15727Y22848D01*
X16220Y21995D01*
X16916Y21298D01*
X17769Y20806D01*
X18713Y20553D01*
Y23791D01*
D02*
G37*
G36*
X292973Y29426D02*
X292269D01*
X291617Y29157D01*
X291119Y28658D01*
X290849Y28007D01*
Y27302D01*
X291119Y26651D01*
X291617Y26153D01*
X292269Y25883D01*
X292596D01*
X292939Y25405D01*
Y24700D01*
X293209Y24049D01*
X293628Y23630D01*
X293543Y23254D01*
X293474Y23130D01*
X293336D01*
X292685Y22860D01*
X292186Y22362D01*
X291917Y21711D01*
Y21006D01*
X292186Y20355D01*
X292685Y19856D01*
X293336Y19587D01*
X294041D01*
X294692Y19856D01*
X295190Y20355D01*
X295460Y21006D01*
Y21711D01*
X295190Y22362D01*
X294772Y22781D01*
X294856Y23157D01*
X294925Y23281D01*
X295063D01*
X295714Y23550D01*
X296213Y24049D01*
X296482Y24700D01*
Y25405D01*
X296213Y26056D01*
X295714Y26554D01*
X295063Y26824D01*
X294736D01*
X294393Y27302D01*
Y28007D01*
X294123Y28658D01*
X293625Y29157D01*
X292973Y29426D01*
D02*
G37*
G36*
X427518Y22933D02*
X426813D01*
X426162Y22663D01*
X425663Y22165D01*
X425394Y21514D01*
Y20809D01*
X425663Y20158D01*
X426162Y19659D01*
X426813Y19390D01*
X427518D01*
X428169Y19659D01*
X428667Y20158D01*
X428937Y20809D01*
Y21514D01*
X428667Y22165D01*
X428169Y22663D01*
X427518Y22933D01*
D02*
G37*
G36*
X305963Y21063D02*
X305258D01*
X304607Y20793D01*
X304108Y20295D01*
X303839Y19644D01*
Y18939D01*
X304108Y18288D01*
X304607Y17789D01*
X305258Y17520D01*
X305963D01*
X306614Y17789D01*
X307112Y18288D01*
X307382Y18939D01*
Y19644D01*
X307112Y20295D01*
X306614Y20793D01*
X305963Y21063D01*
D02*
G37*
G36*
X311770Y20965D02*
X311065D01*
X310414Y20695D01*
X309915Y20197D01*
X309646Y19545D01*
Y18841D01*
X309915Y18189D01*
X310414Y17691D01*
X311065Y17421D01*
X311770D01*
X312421Y17691D01*
X312919Y18189D01*
X313189Y18841D01*
Y19545D01*
X312919Y20197D01*
X312421Y20695D01*
X311770Y20965D01*
D02*
G37*
G36*
X83522Y18110D02*
X82817D01*
X82166Y17841D01*
X81667Y17342D01*
X81398Y16691D01*
Y15986D01*
X81667Y15335D01*
X82166Y14837D01*
X82817Y14567D01*
X83522D01*
X84173Y14837D01*
X84671Y15335D01*
X84941Y15986D01*
Y16691D01*
X84671Y17342D01*
X84173Y17841D01*
X83522Y18110D01*
D02*
G37*
G36*
X39230Y17323D02*
X38526D01*
X37874Y17053D01*
X37376Y16555D01*
X37106Y15904D01*
Y15199D01*
X37376Y14548D01*
X37874Y14049D01*
X38526Y13780D01*
X39230D01*
X39882Y14049D01*
X40380Y14548D01*
X40650Y15199D01*
Y15904D01*
X40380Y16555D01*
X39882Y17053D01*
X39230Y17323D01*
D02*
G37*
%LPD*%
G36*
X418583Y194409D02*
Y170374D01*
X365650Y170374D01*
X338386Y197638D01*
X321260D01*
Y206849D01*
X321771Y207061D01*
X322270Y207559D01*
X322539Y208211D01*
Y208915D01*
X322270Y209567D01*
X321771Y210065D01*
X321260Y210277D01*
Y227756D01*
X385236D01*
X418583Y194409D01*
D02*
G37*
%LPC*%
G36*
X411967Y197677D02*
X411262D01*
X410611Y197407D01*
X410112Y196909D01*
X409842Y196258D01*
Y195553D01*
X410112Y194902D01*
X410611Y194404D01*
X411262Y194134D01*
X411967D01*
X412618Y194404D01*
X413116Y194902D01*
X413386Y195553D01*
Y196258D01*
X413116Y196909D01*
X412618Y197407D01*
X411967Y197677D01*
D02*
G37*
%LPD*%
G36*
X414016Y136221D02*
X418622Y131614D01*
X418622Y99508D01*
X412607D01*
X412400Y100008D01*
X412433Y100040D01*
X412703Y100692D01*
Y101397D01*
X412433Y102048D01*
X411935Y102546D01*
X411283Y102816D01*
X410579D01*
X409927Y102546D01*
X409429Y102048D01*
X409159Y101397D01*
Y100692D01*
X409429Y100040D01*
X409462Y100008D01*
X409255Y99508D01*
X333366D01*
X321457Y111417D01*
Y112314D01*
X321605Y112376D01*
X322104Y112874D01*
X322374Y113525D01*
Y114230D01*
X322104Y114882D01*
X321605Y115380D01*
X321457Y115441D01*
Y136221D01*
X368504D01*
Y159646D01*
X390591D01*
X414016Y136221D01*
D02*
G37*
%LPC*%
G36*
X413246Y131201D02*
X412541D01*
X411890Y130931D01*
X411392Y130433D01*
X411122Y129781D01*
Y129077D01*
X411392Y128426D01*
X411890Y127927D01*
X412541Y127657D01*
X413246D01*
X413897Y127927D01*
X414396Y128426D01*
X414665Y129077D01*
Y129781D01*
X414396Y130433D01*
X413897Y130931D01*
X413246Y131201D01*
D02*
G37*
%LPD*%
G36*
X418583Y31299D02*
Y4035D01*
X321555D01*
Y20276D01*
X321968Y20447D01*
X322467Y20945D01*
X322736Y21596D01*
Y22301D01*
X322467Y22952D01*
X321968Y23451D01*
X321555Y23622D01*
Y26181D01*
X321968Y26352D01*
X322467Y26851D01*
X322736Y27502D01*
Y28207D01*
X322467Y28858D01*
X321968Y29356D01*
X321555Y29527D01*
Y45768D01*
X367520D01*
Y72146D01*
X418583D01*
Y31299D01*
D02*
G37*
%LPC*%
G36*
X413246Y66043D02*
X412541D01*
X411890Y65774D01*
X411392Y65275D01*
X411122Y64624D01*
Y63919D01*
X411392Y63268D01*
X411890Y62770D01*
X412541Y62500D01*
X413246D01*
X413897Y62770D01*
X414396Y63268D01*
X414665Y63919D01*
Y64624D01*
X414396Y65275D01*
X413897Y65774D01*
X413246Y66043D01*
D02*
G37*
G36*
X411373Y36285D02*
X410669D01*
X410017Y36015D01*
X409519Y35517D01*
X409249Y34866D01*
Y34161D01*
X409519Y33510D01*
X410017Y33011D01*
X410669Y32742D01*
X411373D01*
X412024Y33011D01*
X412523Y33510D01*
X412793Y34161D01*
Y34866D01*
X412523Y35517D01*
X412024Y36015D01*
X411373Y36285D01*
D02*
G37*
G36*
X402545Y25631D02*
X401840D01*
X401189Y25361D01*
X400690Y24863D01*
X400421Y24211D01*
Y23507D01*
X400690Y22855D01*
X401189Y22357D01*
X401840Y22087D01*
X402545D01*
X403196Y22357D01*
X403694Y22855D01*
X403964Y23507D01*
Y24211D01*
X403694Y24863D01*
X403196Y25361D01*
X402545Y25631D01*
D02*
G37*
G36*
X407144Y16831D02*
X406439D01*
X405788Y16561D01*
X405289Y16063D01*
X405020Y15412D01*
Y14707D01*
X405289Y14055D01*
X405788Y13557D01*
X406439Y13287D01*
X407144D01*
X407795Y13557D01*
X408293Y14055D01*
X408563Y14707D01*
Y15412D01*
X408293Y16063D01*
X407795Y16561D01*
X407144Y16831D01*
D02*
G37*
G36*
X528164Y170715D02*
X526950D01*
X525777Y170401D01*
X524725Y169793D01*
X523866Y168935D01*
X523259Y167883D01*
X522945Y166710D01*
Y165495D01*
X523259Y164322D01*
X523866Y163270D01*
X524725Y162412D01*
X525777Y161804D01*
X526950Y161490D01*
X528164D01*
X529338Y161804D01*
X530389Y162412D01*
X531248Y163270D01*
X531855Y164322D01*
X532169Y165495D01*
Y166710D01*
X531855Y167883D01*
X531248Y168935D01*
X530389Y169793D01*
X529338Y170401D01*
X528164Y170715D01*
D02*
G37*
G36*
X488164D02*
X486950D01*
X485777Y170401D01*
X484725Y169793D01*
X483866Y168935D01*
X483259Y167883D01*
X482945Y166710D01*
Y165495D01*
X483259Y164322D01*
X483866Y163270D01*
X484725Y162412D01*
X485777Y161804D01*
X486950Y161490D01*
X488164D01*
X489337Y161804D01*
X490389Y162412D01*
X491248Y163270D01*
X491855Y164322D01*
X492170Y165495D01*
Y166710D01*
X491855Y167883D01*
X491248Y168935D01*
X490389Y169793D01*
X489337Y170401D01*
X488164Y170715D01*
D02*
G37*
G36*
X528164Y114416D02*
X526950D01*
X525777Y114101D01*
X524725Y113494D01*
X523866Y112635D01*
X523259Y111583D01*
X522945Y110410D01*
Y109196D01*
X523259Y108023D01*
X523866Y106971D01*
X524725Y106112D01*
X525777Y105505D01*
X526950Y105191D01*
X528164D01*
X529338Y105505D01*
X530389Y106112D01*
X531248Y106971D01*
X531855Y108023D01*
X532169Y109196D01*
Y110410D01*
X531855Y111583D01*
X531248Y112635D01*
X530389Y113494D01*
X529338Y114101D01*
X528164Y114416D01*
D02*
G37*
G36*
X488164D02*
X486950D01*
X485777Y114101D01*
X484725Y113494D01*
X483866Y112635D01*
X483259Y111583D01*
X482945Y110410D01*
Y109196D01*
X483259Y108023D01*
X483866Y106971D01*
X484725Y106112D01*
X485777Y105505D01*
X486950Y105191D01*
X488164D01*
X489337Y105505D01*
X490389Y106112D01*
X491248Y106971D01*
X491855Y108023D01*
X492170Y109196D01*
Y110410D01*
X491855Y111583D01*
X491248Y112635D01*
X490389Y113494D01*
X489337Y114101D01*
X488164Y114416D01*
D02*
G37*
G36*
X528164Y58116D02*
X526950D01*
X525777Y57802D01*
X524725Y57195D01*
X523866Y56336D01*
X523259Y55284D01*
X522945Y54111D01*
Y52897D01*
X523259Y51724D01*
X523866Y50672D01*
X524725Y49813D01*
X525777Y49206D01*
X526950Y48892D01*
X528164D01*
X529338Y49206D01*
X530389Y49813D01*
X531248Y50672D01*
X531855Y51724D01*
X532169Y52897D01*
Y54111D01*
X531855Y55284D01*
X531248Y56336D01*
X530389Y57195D01*
X529338Y57802D01*
X528164Y58116D01*
D02*
G37*
G36*
X488164D02*
X486950D01*
X485777Y57802D01*
X484725Y57195D01*
X483866Y56336D01*
X483259Y55284D01*
X482945Y54111D01*
Y52897D01*
X483259Y51724D01*
X483866Y50672D01*
X484725Y49813D01*
X485777Y49206D01*
X486950Y48892D01*
X488164D01*
X489337Y49206D01*
X490389Y49813D01*
X491248Y50672D01*
X491855Y51724D01*
X492170Y52897D01*
Y54111D01*
X491855Y55284D01*
X491248Y56336D01*
X490389Y57195D01*
X489337Y57802D01*
X488164Y58116D01*
D02*
G37*
G36*
X528164Y18116D02*
X526950D01*
X525777Y17802D01*
X524725Y17195D01*
X523866Y16336D01*
X523259Y15284D01*
X522945Y14111D01*
Y12897D01*
X523259Y11724D01*
X523866Y10672D01*
X524725Y9813D01*
X525777Y9206D01*
X526950Y8892D01*
X528164D01*
X529338Y9206D01*
X530389Y9813D01*
X531248Y10672D01*
X531855Y11724D01*
X532169Y12897D01*
Y14111D01*
X531855Y15284D01*
X531248Y16336D01*
X530389Y17195D01*
X529338Y17802D01*
X528164Y18116D01*
D02*
G37*
G36*
X488164D02*
X486950D01*
X485777Y17802D01*
X484725Y17195D01*
X483866Y16336D01*
X483259Y15284D01*
X482945Y14111D01*
Y12897D01*
X483259Y11724D01*
X483866Y10672D01*
X484725Y9813D01*
X485777Y9206D01*
X486950Y8892D01*
X488164D01*
X489337Y9206D01*
X490389Y9813D01*
X491248Y10672D01*
X491855Y11724D01*
X492170Y12897D01*
Y14111D01*
X491855Y15284D01*
X491248Y16336D01*
X490389Y17195D01*
X489337Y17802D01*
X488164Y18116D01*
D02*
G37*
%LPD*%
D101*
X188484Y231101D02*
D03*
X-6217Y279938D02*
D03*
X188484Y100886D02*
D03*
X188534Y214617D02*
D03*
X35630Y331240D02*
D03*
X383287Y231949D02*
D03*
X372539D02*
D03*
X377756D02*
D03*
X233169Y17815D02*
D03*
X188287Y17815D02*
D03*
X425492Y12106D02*
D03*
X425197Y45472D02*
D03*
X425492Y114665D02*
D03*
Y182382D02*
D03*
X188484Y293307D02*
D03*
Y318799D02*
D03*
Y155773D02*
D03*
Y110433D02*
D03*
Y61024D02*
D03*
Y42224D02*
D03*
X401142Y232362D02*
D03*
Y238268D02*
D03*
Y244173D02*
D03*
Y226496D02*
D03*
X395728Y226398D02*
D03*
Y244075D02*
D03*
Y238169D02*
D03*
Y232264D02*
D03*
X148031Y28839D02*
D03*
X147835Y83760D02*
D03*
X147441Y311024D02*
D03*
X147736Y260138D02*
D03*
X147146Y196653D02*
D03*
X387894Y366240D02*
D03*
X370472D02*
D03*
X398228D02*
D03*
X382185D02*
D03*
X393012D02*
D03*
X376476D02*
D03*
X307087D02*
D03*
X323622D02*
D03*
X314567D02*
D03*
X331201D02*
D03*
X301083Y366240D02*
D03*
X49016Y340295D02*
D03*
X147343Y145866D02*
D03*
X57480Y372047D02*
D03*
X92028Y87303D02*
D03*
X146850Y371358D02*
D03*
X377756Y69291D02*
D03*
X383287D02*
D03*
X372539D02*
D03*
Y156693D02*
D03*
X383287D02*
D03*
X377756D02*
D03*
X377756Y223484D02*
D03*
X372539D02*
D03*
X383287D02*
D03*
X395728Y40905D02*
D03*
X401142D02*
D03*
Y46772D02*
D03*
X395728D02*
D03*
X401142Y52677D02*
D03*
X395728D02*
D03*
X401142Y58583D02*
D03*
X395728D02*
D03*
X456437Y190728D02*
D03*
X462716Y106063D02*
D03*
X395728Y105630D02*
D03*
Y123307D02*
D03*
Y117402D02*
D03*
Y111496D02*
D03*
X395728Y179114D02*
D03*
Y185020D02*
D03*
Y190925D02*
D03*
Y173248D02*
D03*
X456595Y212008D02*
D03*
X456732Y178819D02*
D03*
X456811Y106063D02*
D03*
X456693Y217717D02*
D03*
X456811Y123819D02*
D03*
X456791Y112303D02*
D03*
X456732Y172874D02*
D03*
X456811Y117913D02*
D03*
X456693Y229528D02*
D03*
X456732Y184724D02*
D03*
X456693Y223622D02*
D03*
X462638Y184724D02*
D03*
X462598Y217717D02*
D03*
X462638Y172874D02*
D03*
X462598Y223622D02*
D03*
X462716Y123819D02*
D03*
X462638Y190630D02*
D03*
X462785Y111939D02*
D03*
X462598Y229528D02*
D03*
X462638Y178819D02*
D03*
X462697Y117913D02*
D03*
X462894Y212205D02*
D03*
X462756Y46496D02*
D03*
X456850D02*
D03*
Y58307D02*
D03*
Y52402D02*
D03*
Y40551D02*
D03*
X462756Y58307D02*
D03*
Y52402D02*
D03*
Y40551D02*
D03*
X401142Y111499D02*
D03*
Y117405D02*
D03*
Y123310D02*
D03*
Y105633D02*
D03*
Y173346D02*
D03*
Y191024D02*
D03*
Y185118D02*
D03*
Y179213D02*
D03*
D110*
X502518Y89803D02*
D03*
Y33504D02*
D03*
Y146102D02*
D03*
Y202402D02*
D03*
D111*
X19213Y24291D02*
D03*
D114*
X541890Y374016D02*
D03*
Y324016D02*
D03*
Y355709D02*
D03*
Y305709D02*
D03*
D115*
X345768Y37008D02*
D03*
Y34744D02*
D03*
X349606Y30118D02*
D03*
X351870D02*
D03*
X347342Y30118D02*
D03*
X354232D02*
D03*
X355807Y37500D02*
D03*
X358071Y30118D02*
D03*
Y42323D02*
D03*
Y40059D02*
D03*
X358169Y37795D02*
D03*
Y35335D02*
D03*
Y32579D02*
D03*
X355887Y35143D02*
D03*
X355906Y32776D02*
D03*
X355816Y39854D02*
D03*
X355709Y42224D02*
D03*
X353248D02*
D03*
X350689Y42126D02*
D03*
X348130D02*
D03*
X345768Y42028D02*
D03*
Y39665D02*
D03*
X343406Y42028D02*
D03*
Y39764D02*
D03*
X343504Y37205D02*
D03*
Y34941D02*
D03*
X345768Y32382D02*
D03*
X343504Y32579D02*
D03*
Y30217D02*
D03*
X345768Y128642D02*
D03*
Y126378D02*
D03*
X349606Y121752D02*
D03*
X351870D02*
D03*
X347342Y121752D02*
D03*
X354232D02*
D03*
X355807Y129134D02*
D03*
X358071Y121752D02*
D03*
Y133957D02*
D03*
Y131693D02*
D03*
X358169Y129429D02*
D03*
Y126969D02*
D03*
Y124213D02*
D03*
X355887Y126777D02*
D03*
X355906Y124409D02*
D03*
X355816Y131488D02*
D03*
X355709Y133858D02*
D03*
X353248D02*
D03*
X350689Y133760D02*
D03*
X348130D02*
D03*
X345768Y133661D02*
D03*
Y131299D02*
D03*
X343406Y133661D02*
D03*
Y131398D02*
D03*
X343504Y128839D02*
D03*
Y126575D02*
D03*
X345768Y124016D02*
D03*
X343504Y124213D02*
D03*
Y121850D02*
D03*
X343602Y212205D02*
D03*
Y214567D02*
D03*
X345866Y214370D02*
D03*
X343602Y216929D02*
D03*
Y219193D02*
D03*
X343504Y221752D02*
D03*
Y224016D02*
D03*
X345866Y221654D02*
D03*
Y224016D02*
D03*
X348228Y224114D02*
D03*
X350787D02*
D03*
X353346Y224213D02*
D03*
X355807D02*
D03*
X355915Y221842D02*
D03*
X356004Y214764D02*
D03*
X355985Y217131D02*
D03*
X358268Y214567D02*
D03*
Y217323D02*
D03*
Y219783D02*
D03*
X358169Y222047D02*
D03*
Y224311D02*
D03*
Y212106D02*
D03*
X355906Y219488D02*
D03*
X354331Y212106D02*
D03*
X347441D02*
D03*
X351969Y212106D02*
D03*
X349705D02*
D03*
X345866Y216732D02*
D03*
Y218996D02*
D03*
X309941Y243602D02*
D03*
X21654Y100984D02*
D03*
X19587Y108957D02*
D03*
X86884Y119335D02*
D03*
X88093Y108782D02*
D03*
X-2264Y123721D02*
D03*
X-40780Y245590D02*
D03*
X483172Y319423D02*
D03*
X479137Y323754D02*
D03*
X475200Y327100D02*
D03*
X472149Y343439D02*
D03*
X196161Y247933D02*
D03*
X199508Y247047D02*
D03*
X169513Y246654D02*
D03*
X425954Y201938D02*
D03*
X442592Y209449D02*
D03*
X430512Y28266D02*
D03*
X428051Y69482D02*
D03*
Y134941D02*
D03*
X320965Y21949D02*
D03*
X319390Y196555D02*
D03*
X346260Y176140D02*
D03*
X345866Y167028D02*
D03*
X304528Y151279D02*
D03*
X309547Y151476D02*
D03*
X403422Y90158D02*
D03*
X309449Y61811D02*
D03*
X304724D02*
D03*
X320741Y108491D02*
D03*
X342520Y88189D02*
D03*
X312205Y91831D02*
D03*
X307776D02*
D03*
X68405Y95075D02*
D03*
X95276Y66831D02*
D03*
X38780Y37205D02*
D03*
X31791Y92224D02*
D03*
X38091Y293996D02*
D03*
X-7677Y133386D02*
D03*
X-2165Y103347D02*
D03*
X304823Y243602D02*
D03*
X225984Y231377D02*
D03*
X180559Y230610D02*
D03*
X203543Y249311D02*
D03*
X217323Y248819D02*
D03*
X199213Y253346D02*
D03*
X345735Y262894D02*
D03*
X345735Y257185D02*
D03*
X321850Y284449D02*
D03*
X431004Y323031D02*
D03*
X421844Y310205D02*
D03*
X450492Y150886D02*
D03*
X450000Y200984D02*
D03*
X450536Y84252D02*
D03*
X424909Y96917D02*
D03*
X409744Y206102D02*
D03*
X318732Y199901D02*
D03*
X49584Y179191D02*
D03*
X68145Y326279D02*
D03*
X68309Y333071D02*
D03*
X117421Y344783D02*
D03*
X162205Y322854D02*
D03*
X163484Y345768D02*
D03*
X205925Y345866D02*
D03*
X192588Y368953D02*
D03*
X118405Y381090D02*
D03*
X99945Y377614D02*
D03*
X180559Y95177D02*
D03*
X303248Y178150D02*
D03*
X362402Y54331D02*
D03*
X-7677Y261516D02*
D03*
X295184Y196592D02*
D03*
X424705Y241220D02*
D03*
X86989Y126431D02*
D03*
X101013Y123760D02*
D03*
X96044Y186175D02*
D03*
X77836Y210289D02*
D03*
X121241Y319935D02*
D03*
X106970Y301136D02*
D03*
X104706Y309108D02*
D03*
X17224Y224508D02*
D03*
X27264Y158563D02*
D03*
X47146Y105905D02*
D03*
X55165Y59363D02*
D03*
X96653Y42224D02*
D03*
X173374Y50603D02*
D03*
X172193Y63694D02*
D03*
X171110Y102867D02*
D03*
X171799Y161037D02*
D03*
X159102Y166351D02*
D03*
X173768Y227670D02*
D03*
X172441Y283858D02*
D03*
X180559Y287316D02*
D03*
X204331Y327658D02*
D03*
X25098Y75886D02*
D03*
X38878Y76181D02*
D03*
X74508Y345965D02*
D03*
X130905Y319882D02*
D03*
X432271Y20769D02*
D03*
X185335Y371752D02*
D03*
X180413Y360138D02*
D03*
Y356791D02*
D03*
X180559Y305118D02*
D03*
Y302067D02*
D03*
X198622Y129035D02*
D03*
Y125984D02*
D03*
X198622Y139665D02*
D03*
X198721Y136614D02*
D03*
X180561Y37738D02*
D03*
Y34687D02*
D03*
X180610Y212795D02*
D03*
X345866Y171534D02*
D03*
X362402Y51476D02*
D03*
Y48720D02*
D03*
X363090Y143996D02*
D03*
X363189Y140945D02*
D03*
X297441Y106102D02*
D03*
X217028Y113583D02*
D03*
X218602Y129802D02*
D03*
X217323Y143799D02*
D03*
X163484Y182579D02*
D03*
X204031Y110938D02*
D03*
X203834Y145584D02*
D03*
X180807Y365354D02*
D03*
X180559Y351096D02*
D03*
Y309560D02*
D03*
Y297159D02*
D03*
X203441Y282985D02*
D03*
X180559Y178051D02*
D03*
Y148425D02*
D03*
Y162795D02*
D03*
Y85433D02*
D03*
Y41437D02*
D03*
Y27165D02*
D03*
X163681Y13287D02*
D03*
X93307Y369980D02*
D03*
X117520Y221555D02*
D03*
X316240Y11811D02*
D03*
X300420Y11705D02*
D03*
X363189Y153445D02*
D03*
X362402Y74902D02*
D03*
Y71949D02*
D03*
Y69095D02*
D03*
X363090Y146752D02*
D03*
X363189Y150492D02*
D03*
X221850Y193384D02*
D03*
X-40780Y239449D02*
D03*
X213998Y283661D02*
D03*
X61221Y34921D02*
D03*
X79528Y15748D02*
D03*
X74171Y53693D02*
D03*
X31979Y54572D02*
D03*
X424902Y163878D02*
D03*
X452656Y297429D02*
D03*
X433861Y292553D02*
D03*
X-6496Y155709D02*
D03*
X31142Y209646D02*
D03*
X-22047Y268209D02*
D03*
X87008Y292520D02*
D03*
X142717Y305709D02*
D03*
X185925Y345571D02*
D03*
X174508Y370866D02*
D03*
X114665Y378642D02*
D03*
X6373Y213344D02*
D03*
X444567Y14728D02*
D03*
X67778Y75617D02*
D03*
X-40780Y176339D02*
D03*
X404134Y156102D02*
D03*
X-40780Y170000D02*
D03*
Y157362D02*
D03*
Y116378D02*
D03*
Y131929D02*
D03*
Y141575D02*
D03*
Y151024D02*
D03*
Y163701D02*
D03*
Y182598D02*
D03*
Y207835D02*
D03*
Y201614D02*
D03*
Y214173D02*
D03*
Y220236D02*
D03*
Y226850D02*
D03*
Y232992D02*
D03*
Y251969D02*
D03*
Y258228D02*
D03*
Y264488D02*
D03*
Y270821D02*
D03*
Y277130D02*
D03*
X-40778Y280279D02*
D03*
X6333Y217123D02*
D03*
X40630Y379567D02*
D03*
X30847D02*
D03*
X21063D02*
D03*
X460669Y18425D02*
D03*
M02*
