G04*
G04 #@! TF.GenerationSoftware,Altium Limited,Altium Designer,24.8.2 (39)*
G04*
G04 Layer_Color=16711935*
%FSLAX25Y25*%
%MOIN*%
G70*
G04*
G04 #@! TF.SameCoordinates,15C99CB6-3A05-4735-80B8-A5D9E124C9A1*
G04*
G04*
G04 #@! TF.FilePolarity,Negative*
G04*
G01*
G75*
%ADD56R,0.03556X0.04343*%
%ADD57R,0.05918X0.11430*%
%ADD58R,0.04147X0.04540*%
%ADD60R,0.04343X0.03556*%
%ADD72R,0.11430X0.05918*%
%ADD75R,0.04737X0.04737*%
%ADD76R,0.04540X0.04147*%
%ADD78C,0.04737*%
%ADD81R,0.06902X0.06115*%
%ADD85R,0.04737X0.04737*%
%ADD89R,0.12808X0.03202*%
%ADD90R,0.05524X0.03162*%
%ADD91R,0.11417X0.02559*%
%ADD93C,0.22453*%
%ADD94C,0.08450*%
%ADD95C,0.14087*%
%ADD96C,0.06706*%
%ADD97R,0.06706X0.06706*%
%ADD98R,0.07591X0.07591*%
%ADD99C,0.13398*%
%ADD100C,0.02769*%
%ADD121R,0.07690X0.03162*%
%ADD122R,0.04934X0.02965*%
%ADD123R,0.05328X0.06115*%
%ADD124R,0.06115X0.06902*%
%ADD125R,0.03162X0.07690*%
G36*
X549600Y301933D02*
X549651Y301923D01*
X549701Y301906D01*
X549748Y301883D01*
X549791Y301853D01*
X549831Y301819D01*
X549865Y301779D01*
X549894Y301736D01*
X549918Y301689D01*
X549934Y301639D01*
X549945Y301588D01*
X549948Y301535D01*
Y291693D01*
X549945Y291641D01*
X549934Y291589D01*
X549918Y291540D01*
X549894Y291493D01*
X549865Y291449D01*
X549831Y291409D01*
X549791Y291375D01*
X549748Y291346D01*
X549701Y291323D01*
X549651Y291306D01*
X549600Y291296D01*
X549547Y291292D01*
X534232D01*
X534180Y291296D01*
X534129Y291306D01*
X534079Y291323D01*
X534032Y291346D01*
X533988Y291375D01*
X533949Y291409D01*
X533914Y291449D01*
X533885Y291493D01*
X533862Y291540D01*
X533845Y291589D01*
X533835Y291641D01*
X533831Y291693D01*
Y301535D01*
X533835Y301588D01*
X533845Y301639D01*
X533862Y301689D01*
X533885Y301736D01*
X533914Y301779D01*
X533949Y301819D01*
X533988Y301853D01*
X534032Y301883D01*
X534079Y301906D01*
X534129Y301923D01*
X534180Y301933D01*
X534232Y301936D01*
X536647D01*
X536659Y301936D01*
X536670Y301936D01*
X536685Y301934D01*
X536699Y301933D01*
X536711Y301931D01*
X536722Y301929D01*
X536736Y301926D01*
X536751Y301923D01*
X536762Y301919D01*
X536773Y301916D01*
X536786Y301911D01*
X536801Y301906D01*
X536811Y301901D01*
X536821Y301896D01*
X536834Y301889D01*
X536848Y301883D01*
X536857Y301876D01*
X536867Y301871D01*
X536879Y301862D01*
X536891Y301853D01*
X536900Y301846D01*
X536909Y301839D01*
X536919Y301829D01*
X536931Y301819D01*
X536931Y301819D01*
X536938Y301810D01*
X536946Y301802D01*
X537425Y301266D01*
X538536Y300378D01*
X539808Y299766D01*
X541184Y299451D01*
X542595D01*
X543971Y299766D01*
X545243Y300378D01*
X546355Y301266D01*
X546833Y301802D01*
X546841Y301810D01*
X546848Y301819D01*
X546860Y301829D01*
X546870Y301839D01*
X546879Y301846D01*
X546888Y301853D01*
X546900Y301862D01*
X546912Y301871D01*
X546922Y301876D01*
X546932Y301883D01*
X546945Y301889D01*
X546958Y301896D01*
X546968Y301901D01*
X546979Y301906D01*
X546993Y301911D01*
X547006Y301916D01*
X547017Y301919D01*
X547028Y301923D01*
X547043Y301925D01*
X547057Y301929D01*
X547068Y301931D01*
X547080Y301933D01*
X547094Y301934D01*
X547109Y301936D01*
X547121Y301936D01*
X547132Y301936D01*
X549547Y301936D01*
X549600Y301933D01*
D02*
G37*
G36*
Y370122D02*
X549651Y370112D01*
X549701Y370095D01*
X549748Y370072D01*
X549791Y370042D01*
X549831Y370008D01*
X549865Y369968D01*
X549894Y369925D01*
X549918Y369878D01*
X549934Y369828D01*
X549945Y369777D01*
X549948Y369724D01*
Y359882D01*
X549945Y359830D01*
X549934Y359778D01*
X549918Y359729D01*
X549894Y359681D01*
X549865Y359638D01*
X549831Y359598D01*
X549791Y359564D01*
X549748Y359535D01*
X549701Y359511D01*
X549651Y359495D01*
X549600Y359485D01*
X549547Y359481D01*
X547132D01*
X547121Y359482D01*
X547109Y359482D01*
X547094Y359484D01*
X547080Y359485D01*
X547068Y359487D01*
X547057Y359488D01*
X547043Y359492D01*
X547028Y359495D01*
X547017Y359498D01*
X547006Y359501D01*
X546993Y359507D01*
X546979Y359511D01*
X546968Y359517D01*
X546958Y359521D01*
X546945Y359528D01*
X546932Y359535D01*
X546922Y359541D01*
X546912Y359547D01*
X546900Y359556D01*
X546888Y359564D01*
X546879Y359571D01*
X546870Y359578D01*
X546860Y359589D01*
X546848Y359598D01*
X546841Y359607D01*
X546833Y359615D01*
X546355Y360151D01*
X545243Y361039D01*
X543971Y361652D01*
X542595Y361966D01*
X541184D01*
X539808Y361652D01*
X538536Y361039D01*
X537425Y360151D01*
X536946Y359615D01*
X536938Y359607D01*
X536931Y359598D01*
X536919Y359589D01*
X536909Y359578D01*
X536900Y359571D01*
X536891Y359564D01*
X536879Y359556D01*
X536867Y359547D01*
X536857Y359541D01*
X536848Y359535D01*
X536834Y359528D01*
X536821Y359521D01*
X536811Y359517D01*
X536801Y359511D01*
X536786Y359507D01*
X536773Y359501D01*
X536762Y359498D01*
X536751Y359495D01*
X536736Y359492D01*
X536722Y359488D01*
X536711Y359487D01*
X536699Y359485D01*
X536685Y359484D01*
X536670Y359482D01*
X536659Y359482D01*
X536647Y359481D01*
X534232D01*
X534180Y359485D01*
X534129Y359495D01*
X534079Y359511D01*
X534032Y359535D01*
X533988Y359564D01*
X533949Y359598D01*
X533914Y359638D01*
X533885Y359681D01*
X533862Y359729D01*
X533845Y359778D01*
X533835Y359830D01*
X533831Y359882D01*
Y369724D01*
X533835Y369777D01*
X533845Y369828D01*
X533862Y369878D01*
X533885Y369925D01*
X533914Y369968D01*
X533949Y370008D01*
X533988Y370042D01*
X534032Y370072D01*
X534079Y370095D01*
X534129Y370112D01*
X534180Y370122D01*
X534232Y370125D01*
X549547D01*
X549600Y370122D01*
D02*
G37*
D56*
X433571Y165157D02*
D03*
X428059D02*
D03*
X178175Y246850D02*
D03*
X172663D02*
D03*
X434646Y323032D02*
D03*
X440157D02*
D03*
X439338Y296212D02*
D03*
X433827D02*
D03*
X443898Y22252D02*
D03*
X438386D02*
D03*
X73054Y363268D02*
D03*
X67542D02*
D03*
X166673Y363268D02*
D03*
X161162D02*
D03*
X209193Y363268D02*
D03*
X203681D02*
D03*
X29331Y70275D02*
D03*
X34843D02*
D03*
X428051Y198664D02*
D03*
X433563D02*
D03*
X438386Y159843D02*
D03*
X443898D02*
D03*
X35433Y112205D02*
D03*
X29921D02*
D03*
X70571Y111221D02*
D03*
X76083D02*
D03*
X428059Y96941D02*
D03*
X433571D02*
D03*
X438386Y89272D02*
D03*
X443898D02*
D03*
X428051Y131398D02*
D03*
X433563D02*
D03*
X428051Y65939D02*
D03*
X433563D02*
D03*
X427067Y31890D02*
D03*
X432579D02*
D03*
D57*
X472933Y277067D02*
D03*
X461909D02*
D03*
Y251575D02*
D03*
X472933D02*
D03*
X461909Y264567D02*
D03*
X472933D02*
D03*
D58*
X84153Y183563D02*
D03*
X89271D02*
D03*
X81693Y295472D02*
D03*
X76575D02*
D03*
X72759Y351102D02*
D03*
X67641D02*
D03*
X67641Y357717D02*
D03*
X72759D02*
D03*
X77648Y333150D02*
D03*
X72529D02*
D03*
X77483Y326496D02*
D03*
X72365D02*
D03*
X85653Y356244D02*
D03*
X90771D02*
D03*
X105535Y356343D02*
D03*
X100416D02*
D03*
X161358Y351102D02*
D03*
X166476D02*
D03*
X166476Y357717D02*
D03*
X161358D02*
D03*
X167146Y326496D02*
D03*
X162028D02*
D03*
X162028Y333150D02*
D03*
X167146D02*
D03*
X203878Y357717D02*
D03*
X208996D02*
D03*
X203878Y351103D02*
D03*
X208996D02*
D03*
X34350Y58071D02*
D03*
X29232D02*
D03*
X29331Y64665D02*
D03*
X34449D02*
D03*
X418209Y171752D02*
D03*
X413091D02*
D03*
X418012Y191634D02*
D03*
X412894D02*
D03*
X443898Y164960D02*
D03*
X438780D02*
D03*
X75787Y105610D02*
D03*
X70669D02*
D03*
X70965Y98917D02*
D03*
X76083D02*
D03*
X35138Y106496D02*
D03*
X30020D02*
D03*
X29921Y99901D02*
D03*
X35039D02*
D03*
X418209Y104626D02*
D03*
X413091D02*
D03*
X443898Y96555D02*
D03*
X438779D02*
D03*
X418012Y124705D02*
D03*
X412894D02*
D03*
X522086Y377953D02*
D03*
X527205D02*
D03*
X437598Y30807D02*
D03*
X442717D02*
D03*
X418701Y38652D02*
D03*
X413583D02*
D03*
X418012Y58632D02*
D03*
X412894D02*
D03*
D60*
X49429Y187992D02*
D03*
Y182481D02*
D03*
X35703Y52848D02*
D03*
Y47337D02*
D03*
X462382Y312618D02*
D03*
Y307106D02*
D03*
X412382Y307106D02*
D03*
Y312618D02*
D03*
X452559Y288583D02*
D03*
Y294094D02*
D03*
X413386Y98032D02*
D03*
Y92520D02*
D03*
X189862Y178347D02*
D03*
Y183858D02*
D03*
X167717Y187992D02*
D03*
Y182480D02*
D03*
X72146Y178347D02*
D03*
Y183858D02*
D03*
X63976Y290157D02*
D03*
Y295669D02*
D03*
X41634Y294094D02*
D03*
Y299606D02*
D03*
X78344Y345866D02*
D03*
Y340354D02*
D03*
X112916Y344630D02*
D03*
Y339118D02*
D03*
X114097Y355457D02*
D03*
Y349945D02*
D03*
X167126Y340354D02*
D03*
Y345866D02*
D03*
X202382Y340591D02*
D03*
Y346102D02*
D03*
X70374Y48228D02*
D03*
Y53740D02*
D03*
X70571Y58268D02*
D03*
Y63780D02*
D03*
X417421Y198720D02*
D03*
Y204232D02*
D03*
X413386Y163878D02*
D03*
Y158366D02*
D03*
X71161Y92224D02*
D03*
Y86712D02*
D03*
X35335Y92126D02*
D03*
Y86614D02*
D03*
X417421Y131791D02*
D03*
Y137303D02*
D03*
X413386Y30187D02*
D03*
Y24675D02*
D03*
X417421Y65551D02*
D03*
Y71063D02*
D03*
D72*
X187795Y247539D02*
D03*
Y258563D02*
D03*
D75*
X158661Y181791D02*
D03*
Y187697D02*
D03*
X43406Y181791D02*
D03*
Y187697D02*
D03*
X77067Y91240D02*
D03*
Y85335D02*
D03*
D76*
X447461Y293917D02*
D03*
Y288799D02*
D03*
X422343Y65649D02*
D03*
Y70768D02*
D03*
X166831Y197630D02*
D03*
Y202748D02*
D03*
X456476Y307303D02*
D03*
Y312421D02*
D03*
X447342Y325020D02*
D03*
Y330138D02*
D03*
X427343Y325020D02*
D03*
Y330138D02*
D03*
X418287Y307303D02*
D03*
Y312421D02*
D03*
X427303Y290925D02*
D03*
Y296043D02*
D03*
X224706Y335567D02*
D03*
Y330449D02*
D03*
X76181Y58563D02*
D03*
Y63681D02*
D03*
X89665Y30709D02*
D03*
Y35827D02*
D03*
X205020Y195964D02*
D03*
Y190846D02*
D03*
X202559Y171358D02*
D03*
Y176476D02*
D03*
X195472Y183760D02*
D03*
Y178642D02*
D03*
X173425Y197638D02*
D03*
Y202756D02*
D03*
X89468Y195965D02*
D03*
Y190847D02*
D03*
X77756Y183760D02*
D03*
Y178642D02*
D03*
X48614Y202748D02*
D03*
Y197630D02*
D03*
X55610Y197638D02*
D03*
Y202756D02*
D03*
X78740Y302559D02*
D03*
Y307677D02*
D03*
X70087Y290264D02*
D03*
Y295382D02*
D03*
X40248Y309736D02*
D03*
Y314854D02*
D03*
X47244Y314862D02*
D03*
Y309744D02*
D03*
X126302Y349847D02*
D03*
Y354965D02*
D03*
X119708Y355063D02*
D03*
Y349945D02*
D03*
X124531Y329177D02*
D03*
Y324059D02*
D03*
X131125Y324256D02*
D03*
Y329374D02*
D03*
X174862Y363189D02*
D03*
Y358071D02*
D03*
X194981Y363189D02*
D03*
Y358071D02*
D03*
X224213Y351181D02*
D03*
Y356299D02*
D03*
X82973Y36024D02*
D03*
Y30906D02*
D03*
X28642Y42323D02*
D03*
Y37205D02*
D03*
X35138Y42224D02*
D03*
Y37106D02*
D03*
X82775Y58464D02*
D03*
Y63583D02*
D03*
X43012Y66634D02*
D03*
Y71752D02*
D03*
X63091Y66437D02*
D03*
Y71555D02*
D03*
X418110Y158858D02*
D03*
Y163976D02*
D03*
X422342Y203937D02*
D03*
Y198819D02*
D03*
X443799Y196555D02*
D03*
Y191437D02*
D03*
X43307Y103839D02*
D03*
Y108957D02*
D03*
X62795Y102953D02*
D03*
Y108071D02*
D03*
X35236Y75787D02*
D03*
Y80905D02*
D03*
X28740Y80906D02*
D03*
Y75788D02*
D03*
X88878Y70374D02*
D03*
Y75492D02*
D03*
X95374Y75492D02*
D03*
Y70374D02*
D03*
X443799Y58337D02*
D03*
Y63455D02*
D03*
X443799Y129626D02*
D03*
Y124508D02*
D03*
X418111Y92815D02*
D03*
Y97933D02*
D03*
X422343Y137205D02*
D03*
Y132086D02*
D03*
X418110Y24971D02*
D03*
Y30089D02*
D03*
D78*
X63878Y318701D02*
D03*
D81*
X115869Y329177D02*
D03*
Y321303D02*
D03*
X217126Y359154D02*
D03*
Y351279D02*
D03*
D85*
X440374Y328602D02*
D03*
X434469D02*
D03*
X30413Y299508D02*
D03*
X36319D02*
D03*
X118428Y339020D02*
D03*
X124334D02*
D03*
X208288Y340551D02*
D03*
X214193D02*
D03*
X75886Y48425D02*
D03*
X81791D02*
D03*
X435433Y203740D02*
D03*
X429528D02*
D03*
X427756Y70866D02*
D03*
X433662D02*
D03*
X427461Y137500D02*
D03*
X433366D02*
D03*
D89*
X502598Y316653D02*
D03*
Y320669D02*
D03*
Y344764D02*
D03*
Y340748D02*
D03*
Y336732D02*
D03*
Y332716D02*
D03*
Y328701D02*
D03*
Y324685D02*
D03*
D90*
X168234Y259842D02*
D03*
Y256102D02*
D03*
Y252362D02*
D03*
X178076D02*
D03*
Y259842D02*
D03*
D91*
X-48976Y280280D02*
D03*
Y277130D02*
D03*
Y273980D02*
D03*
Y270831D02*
D03*
Y267681D02*
D03*
Y264531D02*
D03*
Y261382D02*
D03*
Y258232D02*
D03*
Y255083D02*
D03*
Y251933D02*
D03*
Y248783D02*
D03*
Y245634D02*
D03*
Y242484D02*
D03*
Y239335D02*
D03*
Y236185D02*
D03*
Y233035D02*
D03*
Y229886D02*
D03*
Y226736D02*
D03*
Y223587D02*
D03*
Y220437D02*
D03*
Y217287D02*
D03*
Y214138D02*
D03*
Y210988D02*
D03*
Y207839D02*
D03*
Y204689D02*
D03*
Y201539D02*
D03*
Y198390D02*
D03*
Y182642D02*
D03*
Y179492D02*
D03*
Y176343D02*
D03*
Y173193D02*
D03*
Y170043D02*
D03*
Y166894D02*
D03*
Y163744D02*
D03*
Y160594D02*
D03*
Y157445D02*
D03*
Y154295D02*
D03*
Y151146D02*
D03*
Y147996D02*
D03*
Y144846D02*
D03*
Y141697D02*
D03*
Y138547D02*
D03*
Y135398D02*
D03*
Y132248D02*
D03*
Y129098D02*
D03*
Y125949D02*
D03*
Y122799D02*
D03*
Y119650D02*
D03*
Y116500D02*
D03*
Y113350D02*
D03*
D93*
X279528Y87795D02*
D03*
X377953D02*
D03*
X279528Y300394D02*
D03*
X377953D02*
D03*
D94*
X527557Y109803D02*
D03*
X487557D02*
D03*
Y69803D02*
D03*
X527557D02*
D03*
Y53504D02*
D03*
X487557D02*
D03*
Y13504D02*
D03*
X527557D02*
D03*
Y126102D02*
D03*
X487557D02*
D03*
Y166102D02*
D03*
X527557D02*
D03*
Y238701D02*
D03*
X487557D02*
D03*
Y278701D02*
D03*
X527557D02*
D03*
Y222402D02*
D03*
X487557D02*
D03*
Y182402D02*
D03*
X527557D02*
D03*
D95*
X502518Y89803D02*
D03*
Y33504D02*
D03*
Y146102D02*
D03*
Y258701D02*
D03*
Y202402D02*
D03*
D96*
X19213Y24291D02*
D03*
Y34291D02*
D03*
Y44291D02*
D03*
Y54291D02*
D03*
Y64291D02*
D03*
Y74291D02*
D03*
Y84291D02*
D03*
D97*
Y94291D02*
D03*
D98*
X99685Y200787D02*
D03*
X99685Y87598D02*
D03*
X99213Y321654D02*
D03*
D99*
X541890Y374016D02*
D03*
Y324016D02*
D03*
Y355709D02*
D03*
Y305709D02*
D03*
D100*
X343209Y250886D02*
D03*
X346555D02*
D03*
X306201Y48031D02*
D03*
X310630D02*
D03*
X312894D02*
D03*
X315059D02*
D03*
X317323D02*
D03*
X308465D02*
D03*
X314862Y33366D02*
D03*
X306004D02*
D03*
X308268D02*
D03*
X310433D02*
D03*
X312697D02*
D03*
X317126D02*
D03*
X318406Y43996D02*
D03*
Y37402D02*
D03*
Y41831D02*
D03*
Y35138D02*
D03*
Y46260D02*
D03*
Y39567D02*
D03*
X306004Y43996D02*
D03*
Y37402D02*
D03*
Y39567D02*
D03*
Y41831D02*
D03*
X310236Y35531D02*
D03*
X312500D02*
D03*
X314665D02*
D03*
X308071D02*
D03*
X310630Y45669D02*
D03*
X312894D02*
D03*
X315059D02*
D03*
X308465D02*
D03*
X306201Y137697D02*
D03*
X310630D02*
D03*
X312894D02*
D03*
X315059D02*
D03*
X317323D02*
D03*
X308465D02*
D03*
X314862Y123031D02*
D03*
X306004D02*
D03*
X308268D02*
D03*
X310433D02*
D03*
X312697D02*
D03*
X317126D02*
D03*
X318406Y133661D02*
D03*
Y127067D02*
D03*
Y131496D02*
D03*
Y124803D02*
D03*
Y135925D02*
D03*
Y129232D02*
D03*
X306004Y133661D02*
D03*
Y127067D02*
D03*
Y129232D02*
D03*
Y131496D02*
D03*
X310236Y125197D02*
D03*
X312500D02*
D03*
X314665D02*
D03*
X308071D02*
D03*
X310630Y135335D02*
D03*
X312894D02*
D03*
X315059D02*
D03*
X308465D02*
D03*
X308366Y227559D02*
D03*
X314961D02*
D03*
X312795D02*
D03*
X310531D02*
D03*
X307972Y217421D02*
D03*
X314567D02*
D03*
X312402D02*
D03*
X310138D02*
D03*
X305906Y223721D02*
D03*
Y221457D02*
D03*
Y219291D02*
D03*
Y225886D02*
D03*
X318307Y221457D02*
D03*
Y228150D02*
D03*
Y217028D02*
D03*
Y223721D02*
D03*
Y219291D02*
D03*
Y225886D02*
D03*
X317028Y215256D02*
D03*
X312598D02*
D03*
X310335D02*
D03*
X308169D02*
D03*
X305906D02*
D03*
X314764D02*
D03*
X308366Y229921D02*
D03*
X317224D02*
D03*
X314961D02*
D03*
X312795D02*
D03*
X310531D02*
D03*
X306102D02*
D03*
X343504Y212303D02*
D03*
Y216732D02*
D03*
Y218996D02*
D03*
Y221161D02*
D03*
Y223425D02*
D03*
Y214567D02*
D03*
X358169Y220965D02*
D03*
Y212106D02*
D03*
Y214370D02*
D03*
Y216535D02*
D03*
Y218799D02*
D03*
Y223228D02*
D03*
X347539Y224508D02*
D03*
X354134D02*
D03*
X349705D02*
D03*
X356398D02*
D03*
X345276D02*
D03*
X351969D02*
D03*
X347539Y212106D02*
D03*
X354134D02*
D03*
X351969D02*
D03*
X349705D02*
D03*
X356004Y216339D02*
D03*
Y218602D02*
D03*
Y220768D02*
D03*
Y214173D02*
D03*
X345866Y216732D02*
D03*
Y218996D02*
D03*
Y221161D02*
D03*
Y214567D02*
D03*
X343602Y121752D02*
D03*
Y126181D02*
D03*
Y128445D02*
D03*
Y130610D02*
D03*
Y132874D02*
D03*
Y124016D02*
D03*
X358268Y130413D02*
D03*
Y121555D02*
D03*
Y123819D02*
D03*
Y125984D02*
D03*
Y128248D02*
D03*
Y132677D02*
D03*
X347638Y133957D02*
D03*
X354232D02*
D03*
X349803D02*
D03*
X356496D02*
D03*
X345374D02*
D03*
X352067D02*
D03*
X347638Y121555D02*
D03*
X354232D02*
D03*
X352067D02*
D03*
X349803D02*
D03*
X356102Y125787D02*
D03*
Y128051D02*
D03*
Y130217D02*
D03*
Y123622D02*
D03*
X345965Y126181D02*
D03*
Y128445D02*
D03*
Y130610D02*
D03*
Y124016D02*
D03*
X343504Y30413D02*
D03*
Y34843D02*
D03*
Y37106D02*
D03*
Y39272D02*
D03*
Y41535D02*
D03*
Y32677D02*
D03*
X358169Y39075D02*
D03*
Y30217D02*
D03*
Y32480D02*
D03*
Y34646D02*
D03*
Y36909D02*
D03*
Y41339D02*
D03*
X347539Y42618D02*
D03*
X354134D02*
D03*
X349705D02*
D03*
X356398D02*
D03*
X345276D02*
D03*
X351969D02*
D03*
X347539Y30217D02*
D03*
X354134D02*
D03*
X351969D02*
D03*
X349705D02*
D03*
X356004Y34449D02*
D03*
Y36713D02*
D03*
Y38878D02*
D03*
Y32283D02*
D03*
X345866Y34843D02*
D03*
Y37106D02*
D03*
Y39272D02*
D03*
Y32677D02*
D03*
D121*
X447047Y301949D02*
D03*
Y306949D02*
D03*
Y311949D02*
D03*
Y316949D02*
D03*
X426968D02*
D03*
Y311949D02*
D03*
Y306949D02*
D03*
Y301949D02*
D03*
X85849Y335374D02*
D03*
Y340374D02*
D03*
Y345374D02*
D03*
Y350374D02*
D03*
X105928D02*
D03*
Y345374D02*
D03*
Y340374D02*
D03*
Y335374D02*
D03*
X195020Y335374D02*
D03*
Y340374D02*
D03*
Y345374D02*
D03*
Y350374D02*
D03*
X174941D02*
D03*
Y345374D02*
D03*
Y340374D02*
D03*
Y335374D02*
D03*
X63090Y44862D02*
D03*
Y49862D02*
D03*
Y54862D02*
D03*
Y59862D02*
D03*
X43012D02*
D03*
Y54862D02*
D03*
Y49862D02*
D03*
Y44862D02*
D03*
X63189Y81279D02*
D03*
Y86279D02*
D03*
Y91280D02*
D03*
Y96280D02*
D03*
X43110D02*
D03*
Y91280D02*
D03*
Y86279D02*
D03*
Y81279D02*
D03*
D122*
X173819Y183957D02*
D03*
Y187697D02*
D03*
Y191437D02*
D03*
X184055D02*
D03*
Y187697D02*
D03*
Y183957D02*
D03*
X55905Y183957D02*
D03*
Y187697D02*
D03*
Y191437D02*
D03*
X66142D02*
D03*
Y187697D02*
D03*
Y183957D02*
D03*
X57767Y295775D02*
D03*
Y299516D02*
D03*
Y303256D02*
D03*
X47531D02*
D03*
Y299516D02*
D03*
Y295775D02*
D03*
D123*
X198031Y191240D02*
D03*
X191142D02*
D03*
X80118Y191240D02*
D03*
X73228D02*
D03*
X64862Y303150D02*
D03*
X71752D02*
D03*
D124*
X74803Y36024D02*
D03*
X66929D02*
D03*
X72834Y75394D02*
D03*
X80708D02*
D03*
D125*
X438504Y171653D02*
D03*
X433504D02*
D03*
X428504D02*
D03*
X423504D02*
D03*
Y191732D02*
D03*
X428504D02*
D03*
X433504D02*
D03*
X438504D02*
D03*
X438504Y38652D02*
D03*
X433504D02*
D03*
X428504D02*
D03*
X423504D02*
D03*
Y58730D02*
D03*
X428504D02*
D03*
X433504D02*
D03*
X438504D02*
D03*
X438504Y104528D02*
D03*
X433504D02*
D03*
X428504D02*
D03*
X423504D02*
D03*
Y124606D02*
D03*
X428504D02*
D03*
X433504D02*
D03*
X438504D02*
D03*
M02*
