G04*
G04 #@! TF.GenerationSoftware,Altium Limited,Altium Designer,24.8.2 (39)*
G04*
G04 Layer_Color=8421504*
%FSLAX25Y25*%
%MOIN*%
G70*
G04*
G04 #@! TF.SameCoordinates,15C99CB6-3A05-4735-80B8-A5D9E124C9A1*
G04*
G04*
G04 #@! TF.FilePolarity,Positive*
G04*
G01*
G75*
%ADD20R,0.02756X0.03543*%
%ADD21R,0.05118X0.10630*%
%ADD22R,0.03347X0.03740*%
%ADD23R,0.01378X0.03150*%
%ADD24R,0.03543X0.02756*%
%ADD25R,0.12598X0.02362*%
%ADD26R,0.17362X0.14764*%
%ADD27R,0.02362X0.03150*%
%ADD28R,0.01968X0.04331*%
%ADD29R,0.01968X0.01968*%
%ADD30R,0.01968X0.01968*%
%ADD31R,0.04331X0.01968*%
%ADD32R,0.03150X0.02362*%
%ADD33R,0.14764X0.17362*%
%ADD34R,0.02362X0.12598*%
%ADD35R,0.09252X0.22244*%
%ADD36R,0.10630X0.05118*%
%ADD37R,0.04134X0.01968*%
%ADD38R,0.04134X0.03543*%
%ADD39R,0.03937X0.03937*%
%ADD40R,0.03740X0.03347*%
%ADD41R,0.22244X0.09252*%
%ADD42R,0.05512X0.01772*%
%ADD43R,0.03937X0.08268*%
%ADD44R,0.06102X0.05315*%
G04:AMPARAMS|DCode=45|XSize=23.62mil|YSize=57.09mil|CornerRadius=2.01mil|HoleSize=0mil|Usage=FLASHONLY|Rotation=90.000|XOffset=0mil|YOffset=0mil|HoleType=Round|Shape=RoundedRectangle|*
%AMROUNDEDRECTD45*
21,1,0.02362,0.05307,0,0,90.0*
21,1,0.01961,0.05709,0,0,90.0*
1,1,0.00402,0.02653,0.00980*
1,1,0.00402,0.02653,-0.00980*
1,1,0.00402,-0.02653,-0.00980*
1,1,0.00402,-0.02653,0.00980*
%
%ADD45ROUNDEDRECTD45*%
%ADD46R,0.03200X0.04000*%
%ADD47R,0.06614X0.12402*%
%ADD48R,0.03937X0.03937*%
%ADD49R,0.03150X0.03150*%
%ADD50R,0.03347X0.01181*%
%ADD51R,0.04724X0.06299*%
%ADD52R,0.12008X0.02402*%
%ADD53R,0.04724X0.02362*%
%ADD54R,0.11024X0.02165*%
%ADD55R,0.10827X0.24410*%
G36*
X549547Y378189D02*
X547132D01*
X546631Y378750D01*
X545458Y379687D01*
X544105Y380340D01*
X542640Y380674D01*
X541139D01*
X539674Y380340D01*
X538322Y379687D01*
X537148Y378750D01*
X536647Y378189D01*
X534232D01*
Y388032D01*
X549547D01*
Y378189D01*
D02*
G37*
G36*
Y310000D02*
X534232D01*
Y319843D01*
X536647D01*
X536647Y319843D01*
X537148Y319281D01*
X538322Y318344D01*
X539674Y317692D01*
X541139Y317357D01*
X542640D01*
X544105Y317692D01*
X545458Y318344D01*
X546631Y319281D01*
X547132Y319843D01*
X549547Y319843D01*
Y310000D01*
D02*
G37*
G36*
X22848Y142488D02*
X21847D01*
X19848Y144488D01*
X21847Y146488D01*
X22848D01*
Y142488D01*
D02*
G37*
G36*
X18847Y144488D02*
X20847Y142488D01*
X17848D01*
Y144488D01*
Y146488D01*
X20847D01*
X18847Y144488D01*
D02*
G37*
D20*
X337008Y75197D02*
D03*
X342520D02*
D03*
X337008Y79823D02*
D03*
X342520D02*
D03*
X337008Y171268D02*
D03*
X342520D02*
D03*
X337074Y262507D02*
D03*
X342585D02*
D03*
X306988Y265551D02*
D03*
X312500D02*
D03*
X307083Y256398D02*
D03*
X312595D02*
D03*
X307083Y260925D02*
D03*
X312595D02*
D03*
X321850Y279725D02*
D03*
X327362D02*
D03*
X321752Y274606D02*
D03*
X327264D02*
D03*
X342586Y257881D02*
D03*
X337074D02*
D03*
X342586Y267231D02*
D03*
X337074D02*
D03*
X407579Y90158D02*
D03*
X413091D02*
D03*
X407972Y156102D02*
D03*
X413484D02*
D03*
X409547Y209744D02*
D03*
X415059D02*
D03*
X406791Y19094D02*
D03*
X412303D02*
D03*
X4724Y153543D02*
D03*
X10236D02*
D03*
X337008Y166838D02*
D03*
X342520D02*
D03*
X337008Y175689D02*
D03*
X342519D02*
D03*
X337008Y84252D02*
D03*
X342520D02*
D03*
D21*
X203543Y256693D02*
D03*
X214567D02*
D03*
Y270079D02*
D03*
X203543D02*
D03*
X214567Y136614D02*
D03*
X203543D02*
D03*
X214567Y122933D02*
D03*
X203543D02*
D03*
D22*
X95965Y78740D02*
D03*
X101083D02*
D03*
X306102Y106004D02*
D03*
X300984D02*
D03*
X316240Y15650D02*
D03*
X311122D02*
D03*
X15945Y138189D02*
D03*
X21063D02*
D03*
X15945Y131890D02*
D03*
X21063D02*
D03*
X-19094Y148425D02*
D03*
X-24213D02*
D03*
X-19094Y141339D02*
D03*
X-24213D02*
D03*
X-19094Y134252D02*
D03*
X-24213D02*
D03*
X317618Y106004D02*
D03*
X312500D02*
D03*
X300492Y15650D02*
D03*
X305610D02*
D03*
X101083Y192913D02*
D03*
X95964D02*
D03*
X315945Y196653D02*
D03*
X310827D02*
D03*
X299606Y196653D02*
D03*
X304724D02*
D03*
X101083Y313772D02*
D03*
X95964D02*
D03*
D23*
X317028Y177953D02*
D03*
X319587D02*
D03*
X322146D02*
D03*
X324705D02*
D03*
X327264D02*
D03*
X329823D02*
D03*
X332382D02*
D03*
Y161614D02*
D03*
X329823D02*
D03*
X327264D02*
D03*
X322146D02*
D03*
X319587D02*
D03*
X317028D02*
D03*
X317027Y71555D02*
D03*
X319587D02*
D03*
X322146D02*
D03*
X327264D02*
D03*
X329823D02*
D03*
X332382D02*
D03*
Y87893D02*
D03*
X329823D02*
D03*
X327264D02*
D03*
X324705D02*
D03*
X322146D02*
D03*
X319587D02*
D03*
X317027D02*
D03*
X317027Y252165D02*
D03*
X319586D02*
D03*
X327264D02*
D03*
X329823D02*
D03*
X332382D02*
D03*
Y268504D02*
D03*
X329823D02*
D03*
X327264D02*
D03*
X324705D02*
D03*
X322146D02*
D03*
X319586D02*
D03*
X317027D02*
D03*
X322146Y252165D02*
D03*
D24*
X307579Y71752D02*
D03*
Y77264D02*
D03*
X307283Y161319D02*
D03*
Y166831D02*
D03*
X302756Y166732D02*
D03*
Y161221D02*
D03*
X312008Y166831D02*
D03*
Y161319D02*
D03*
X444488Y18209D02*
D03*
Y23720D02*
D03*
X27244Y215236D02*
D03*
Y209724D02*
D03*
X309547Y148031D02*
D03*
Y142520D02*
D03*
X304527Y148130D02*
D03*
Y142618D02*
D03*
X311122Y172736D02*
D03*
Y178248D02*
D03*
X306988Y172736D02*
D03*
Y178248D02*
D03*
X312106Y71654D02*
D03*
Y77165D02*
D03*
X302756Y77165D02*
D03*
Y71654D02*
D03*
X304331Y58661D02*
D03*
Y53149D02*
D03*
X309350Y58661D02*
D03*
Y53149D02*
D03*
X304724Y240453D02*
D03*
Y234941D02*
D03*
X317421Y27461D02*
D03*
Y21949D02*
D03*
X444882Y206299D02*
D03*
Y200787D02*
D03*
X444685Y156299D02*
D03*
Y150787D02*
D03*
X444390Y90158D02*
D03*
Y84646D02*
D03*
X309843Y234941D02*
D03*
Y240453D02*
D03*
X317717Y116634D02*
D03*
Y111122D02*
D03*
X307677Y83169D02*
D03*
Y88681D02*
D03*
X312205Y83169D02*
D03*
Y88681D02*
D03*
X317225Y203051D02*
D03*
Y208563D02*
D03*
D25*
X353701Y140094D02*
D03*
X353701Y230618D02*
D03*
X353701Y48819D02*
D03*
D26*
X350886Y127594D02*
D03*
X350886Y218118D02*
D03*
X350886Y36319D02*
D03*
D27*
X358386Y118638D02*
D03*
X353386D02*
D03*
X348386D02*
D03*
X343386D02*
D03*
X358386Y209161D02*
D03*
X353386D02*
D03*
X348386D02*
D03*
X343386D02*
D03*
X358386Y27362D02*
D03*
X353386D02*
D03*
X348386D02*
D03*
X343386D02*
D03*
D28*
X343386Y141079D02*
D03*
X343386Y231603D02*
D03*
X343386Y49803D02*
D03*
D29*
X348386Y142260D02*
D03*
X353386D02*
D03*
X358386D02*
D03*
X348386Y232784D02*
D03*
X353386D02*
D03*
X358386D02*
D03*
X348386Y50984D02*
D03*
X353386D02*
D03*
X358386D02*
D03*
D30*
X326772Y215147D02*
D03*
Y220147D02*
D03*
Y225147D02*
D03*
X326772Y132972D02*
D03*
Y127972D02*
D03*
Y122972D02*
D03*
X326772Y33150D02*
D03*
Y38150D02*
D03*
Y43150D02*
D03*
D31*
X325591Y230147D02*
D03*
X325590Y137972D02*
D03*
X325590Y48150D02*
D03*
D32*
X303150Y230147D02*
D03*
Y225147D02*
D03*
Y220147D02*
D03*
Y215147D02*
D03*
X303150Y122972D02*
D03*
Y127972D02*
D03*
Y132972D02*
D03*
Y137972D02*
D03*
X303150Y48150D02*
D03*
Y43150D02*
D03*
Y38150D02*
D03*
Y33150D02*
D03*
D33*
X312106Y222647D02*
D03*
X312106Y130472D02*
D03*
X312106Y40650D02*
D03*
D34*
X324606Y219832D02*
D03*
X324606Y127657D02*
D03*
X324606Y37835D02*
D03*
D35*
X287803Y370768D02*
D03*
Y332579D02*
D03*
X342921D02*
D03*
Y370768D02*
D03*
D36*
X367520Y254035D02*
D03*
Y243012D02*
D03*
X353346Y75492D02*
D03*
Y86516D02*
D03*
X354232Y243012D02*
D03*
Y254035D02*
D03*
X353346Y167717D02*
D03*
Y156693D02*
D03*
X380610Y254035D02*
D03*
Y243012D02*
D03*
X398031Y254626D02*
D03*
Y265650D02*
D03*
X423228Y265846D02*
D03*
Y254823D02*
D03*
X410630Y254626D02*
D03*
Y265650D02*
D03*
D37*
X325543Y236122D02*
D03*
X316583D02*
D03*
X333118Y145177D02*
D03*
X342079D02*
D03*
X342177Y54921D02*
D03*
X333217D02*
D03*
X332921Y236122D02*
D03*
X341882D02*
D03*
X316681Y54823D02*
D03*
X325642D02*
D03*
Y145079D02*
D03*
X316681D02*
D03*
D38*
X335236Y246752D02*
D03*
Y240453D02*
D03*
X341437Y246752D02*
D03*
Y240453D02*
D03*
X319488Y246752D02*
D03*
Y240453D02*
D03*
X325295Y246752D02*
D03*
Y240453D02*
D03*
X318898Y156004D02*
D03*
Y149705D02*
D03*
X325295Y156004D02*
D03*
Y149705D02*
D03*
X318898Y65453D02*
D03*
Y59153D02*
D03*
X325295Y65354D02*
D03*
Y59055D02*
D03*
X341437D02*
D03*
Y65354D02*
D03*
Y149705D02*
D03*
Y156004D02*
D03*
X335236Y59055D02*
D03*
Y65354D02*
D03*
Y149705D02*
D03*
Y156004D02*
D03*
D39*
X120472Y35531D02*
D03*
Y29626D02*
D03*
X120473Y288582D02*
D03*
Y294488D02*
D03*
X120472Y241043D02*
D03*
Y246949D02*
D03*
X120472Y141587D02*
D03*
Y147492D02*
D03*
X120473Y180512D02*
D03*
Y186417D02*
D03*
X120472Y97638D02*
D03*
Y103543D02*
D03*
D40*
X34095Y356221D02*
D03*
Y351102D02*
D03*
X-16693Y124016D02*
D03*
Y118898D02*
D03*
X526280Y310721D02*
D03*
Y305602D02*
D03*
X40630Y351102D02*
D03*
Y356220D02*
D03*
X27559Y351102D02*
D03*
Y356220D02*
D03*
X20945Y351102D02*
D03*
Y356220D02*
D03*
Y340472D02*
D03*
Y335354D02*
D03*
X-6850Y124016D02*
D03*
Y118898D02*
D03*
X2992Y124016D02*
D03*
Y118898D02*
D03*
D41*
X193504Y303150D02*
D03*
X231693D02*
D03*
Y34744D02*
D03*
X193504D02*
D03*
X231693Y89862D02*
D03*
X193504D02*
D03*
X231693Y169291D02*
D03*
X193504D02*
D03*
X231693Y223622D02*
D03*
X193504D02*
D03*
X231693Y358268D02*
D03*
X193504D02*
D03*
D42*
X420079Y161516D02*
D03*
Y158957D02*
D03*
Y156398D02*
D03*
Y153839D02*
D03*
X437402D02*
D03*
Y156398D02*
D03*
Y158957D02*
D03*
Y161516D02*
D03*
X420472Y95472D02*
D03*
Y92913D02*
D03*
Y90354D02*
D03*
Y87795D02*
D03*
X437795D02*
D03*
Y90354D02*
D03*
Y92913D02*
D03*
Y95472D02*
D03*
X420571Y211910D02*
D03*
Y209350D02*
D03*
Y206791D02*
D03*
Y204232D02*
D03*
X437894D02*
D03*
Y206791D02*
D03*
Y209350D02*
D03*
Y211910D02*
D03*
X420472Y28839D02*
D03*
Y26280D02*
D03*
Y23720D02*
D03*
Y21161D02*
D03*
X437795D02*
D03*
Y23720D02*
D03*
Y26280D02*
D03*
Y28839D02*
D03*
D43*
X137559Y278740D02*
D03*
X167559D02*
D03*
Y238976D02*
D03*
X147559D02*
D03*
X137559D02*
D03*
Y56004D02*
D03*
X167559D02*
D03*
Y16240D02*
D03*
X147559D02*
D03*
X137559D02*
D03*
Y109449D02*
D03*
X167559D02*
D03*
Y69685D02*
D03*
X147559D02*
D03*
X137559D02*
D03*
Y167093D02*
D03*
X167559D02*
D03*
Y127329D02*
D03*
X147559D02*
D03*
X137559D02*
D03*
X137559Y224046D02*
D03*
X167559D02*
D03*
Y184282D02*
D03*
X147559D02*
D03*
X137559D02*
D03*
X137559Y331496D02*
D03*
X167559D02*
D03*
Y291732D02*
D03*
X147559D02*
D03*
X137559D02*
D03*
D44*
X112500Y132410D02*
D03*
Y140284D02*
D03*
X112500Y158001D02*
D03*
Y150127D02*
D03*
X112500Y196098D02*
D03*
Y188224D02*
D03*
X112500Y170507D02*
D03*
Y178381D02*
D03*
X112500Y21063D02*
D03*
Y28937D02*
D03*
X112500Y286516D02*
D03*
Y278642D02*
D03*
X112500Y249124D02*
D03*
Y256998D02*
D03*
X112500Y238986D02*
D03*
Y231112D02*
D03*
X112500Y305020D02*
D03*
Y297146D02*
D03*
X112500Y44079D02*
D03*
Y36205D02*
D03*
X112500Y89272D02*
D03*
Y97146D02*
D03*
X112500Y105709D02*
D03*
Y113583D02*
D03*
D45*
X-12382Y147973D02*
D03*
Y142973D02*
D03*
Y137972D02*
D03*
Y132973D02*
D03*
X9075Y147973D02*
D03*
Y142973D02*
D03*
Y137972D02*
D03*
Y132973D02*
D03*
D46*
X23847Y144488D02*
D03*
X17097D02*
D03*
D47*
X-14252Y241220D02*
D03*
X4567D02*
D03*
X-14252Y258228D02*
D03*
X4567D02*
D03*
X-14252Y275236D02*
D03*
X4567D02*
D03*
D48*
X39213Y215276D02*
D03*
X33307D02*
D03*
X407283Y163091D02*
D03*
X413189D02*
D03*
X407283Y95965D02*
D03*
X413189D02*
D03*
X406397Y23819D02*
D03*
X412303D02*
D03*
X407677Y215059D02*
D03*
X413583D02*
D03*
D49*
X40630Y374528D02*
D03*
Y368228D02*
D03*
X30847Y374528D02*
D03*
Y368228D02*
D03*
X20945Y374528D02*
D03*
Y368228D02*
D03*
D50*
X308268Y21654D02*
D03*
Y23622D02*
D03*
Y25591D02*
D03*
Y27559D02*
D03*
X298819D02*
D03*
Y25591D02*
D03*
Y23622D02*
D03*
Y21654D02*
D03*
X309842Y111220D02*
D03*
Y113189D02*
D03*
Y115157D02*
D03*
Y117126D02*
D03*
X300394D02*
D03*
Y115157D02*
D03*
Y113189D02*
D03*
Y111220D02*
D03*
X300048Y202840D02*
D03*
Y204808D02*
D03*
Y206777D02*
D03*
Y208745D02*
D03*
X309497D02*
D03*
Y206777D02*
D03*
Y204808D02*
D03*
Y202840D02*
D03*
D51*
X303543Y24606D02*
D03*
X305118Y114173D02*
D03*
X304773Y205792D02*
D03*
D52*
X502598Y363071D02*
D03*
Y359055D02*
D03*
Y355039D02*
D03*
Y351024D02*
D03*
Y347008D02*
D03*
Y342992D02*
D03*
Y338976D02*
D03*
Y334961D02*
D03*
D53*
X20591Y220866D02*
D03*
Y217126D02*
D03*
Y213386D02*
D03*
X10748D02*
D03*
Y217126D02*
D03*
Y220866D02*
D03*
D54*
X-48976Y116500D02*
D03*
Y280280D02*
D03*
Y277130D02*
D03*
Y270831D02*
D03*
Y264531D02*
D03*
Y258232D02*
D03*
Y251933D02*
D03*
Y245634D02*
D03*
Y239335D02*
D03*
Y233035D02*
D03*
Y226736D02*
D03*
Y220437D02*
D03*
Y214138D02*
D03*
Y207839D02*
D03*
Y201539D02*
D03*
Y182642D02*
D03*
Y176343D02*
D03*
Y170043D02*
D03*
Y163744D02*
D03*
Y157445D02*
D03*
Y151146D02*
D03*
Y141697D02*
D03*
Y132248D02*
D03*
Y273980D02*
D03*
Y267681D02*
D03*
Y261382D02*
D03*
Y255083D02*
D03*
Y248783D02*
D03*
Y242484D02*
D03*
Y236185D02*
D03*
Y229886D02*
D03*
Y223587D02*
D03*
Y217287D02*
D03*
Y210988D02*
D03*
Y204689D02*
D03*
Y198390D02*
D03*
Y179492D02*
D03*
Y173193D02*
D03*
Y166894D02*
D03*
Y160594D02*
D03*
Y154295D02*
D03*
Y147996D02*
D03*
Y144846D02*
D03*
Y138547D02*
D03*
Y135398D02*
D03*
Y129098D02*
D03*
Y125949D02*
D03*
Y122799D02*
D03*
Y119650D02*
D03*
Y113350D02*
D03*
D55*
X445472Y49173D02*
D03*
X412795D02*
D03*
Y115157D02*
D03*
X445472D02*
D03*
Y181929D02*
D03*
X412795D02*
D03*
Y233425D02*
D03*
X445472D02*
D03*
M02*
