G04*
G04 #@! TF.GenerationSoftware,Altium Limited,Altium Designer,24.6.1 (21)*
G04*
G04 Layer_Color=128*
%FSLAX25Y25*%
%MOIN*%
G70*
G04*
G04 #@! TF.SameCoordinates,FB0B4A90-FCBE-4164-A370-9FCB178B57EA*
G04*
G04*
G04 #@! TF.FilePolarity,Positive*
G04*
G01*
G75*
%ADD20R,0.02756X0.03543*%
%ADD21R,0.05118X0.10630*%
%ADD22R,0.03347X0.03740*%
%ADD24R,0.03543X0.02756*%
%ADD36R,0.10630X0.05118*%
%ADD39R,0.03937X0.03937*%
%ADD40R,0.03740X0.03347*%
%ADD44R,0.06102X0.05315*%
%ADD48R,0.03937X0.03937*%
%ADD52R,0.12008X0.02402*%
%ADD53R,0.04724X0.02362*%
%ADD54R,0.11024X0.02165*%
%ADD116R,0.06890X0.02362*%
%ADD117R,0.04134X0.02165*%
%ADD118R,0.04528X0.05315*%
%ADD119R,0.05315X0.06102*%
%ADD120R,0.02362X0.06890*%
G36*
X549547Y291693D02*
X534232D01*
Y301535D01*
X536647D01*
X536647Y301535D01*
X537148Y300974D01*
X538322Y300037D01*
X539674Y299385D01*
X541139Y299050D01*
X542640D01*
X544105Y299385D01*
X545458Y300037D01*
X546631Y300974D01*
X547132Y301535D01*
X549547Y301535D01*
Y291693D01*
D02*
G37*
G36*
Y359882D02*
X547132D01*
X546631Y360443D01*
X545458Y361380D01*
X544105Y362033D01*
X542640Y362367D01*
X541139D01*
X539674Y362033D01*
X538322Y361380D01*
X537148Y360443D01*
X536647Y359882D01*
X534232D01*
Y369724D01*
X549547D01*
Y359882D01*
D02*
G37*
D20*
X433571Y165157D02*
D03*
X428059D02*
D03*
X178175Y246850D02*
D03*
X172663D02*
D03*
X434646Y323032D02*
D03*
X440157D02*
D03*
X439338Y296212D02*
D03*
X433827D02*
D03*
X443898Y22252D02*
D03*
X438386D02*
D03*
X73054Y363268D02*
D03*
X67542D02*
D03*
X166673Y363268D02*
D03*
X161162D02*
D03*
X209193Y363268D02*
D03*
X203681D02*
D03*
X29331Y70275D02*
D03*
X34843D02*
D03*
X428051Y198664D02*
D03*
X433563D02*
D03*
X438386Y159843D02*
D03*
X443898D02*
D03*
X35433Y112205D02*
D03*
X29921D02*
D03*
X70571Y111221D02*
D03*
X76083D02*
D03*
X428059Y96941D02*
D03*
X433571D02*
D03*
X438386Y89272D02*
D03*
X443898D02*
D03*
X428051Y131398D02*
D03*
X433563D02*
D03*
X428051Y65939D02*
D03*
X433563D02*
D03*
X427067Y31890D02*
D03*
X432579D02*
D03*
D21*
X472933Y277067D02*
D03*
X461909D02*
D03*
Y251575D02*
D03*
X472933D02*
D03*
X461909Y264567D02*
D03*
X472933D02*
D03*
D22*
X84153Y183563D02*
D03*
X89271D02*
D03*
X81693Y295472D02*
D03*
X76575D02*
D03*
X72759Y351102D02*
D03*
X67641D02*
D03*
X67641Y357717D02*
D03*
X72759D02*
D03*
X77648Y333150D02*
D03*
X72529D02*
D03*
X77483Y326496D02*
D03*
X72365D02*
D03*
X85653Y356244D02*
D03*
X90771D02*
D03*
X105535Y356343D02*
D03*
X100416D02*
D03*
X161358Y351102D02*
D03*
X166476D02*
D03*
X166476Y357717D02*
D03*
X161358D02*
D03*
X167146Y326496D02*
D03*
X162028D02*
D03*
X162028Y333150D02*
D03*
X167146D02*
D03*
X203878Y357717D02*
D03*
X208996D02*
D03*
X203878Y351103D02*
D03*
X208996D02*
D03*
X34350Y58071D02*
D03*
X29232D02*
D03*
X29331Y64665D02*
D03*
X34449D02*
D03*
X418209Y171752D02*
D03*
X413091D02*
D03*
X418012Y191634D02*
D03*
X412894D02*
D03*
X443898Y164960D02*
D03*
X438780D02*
D03*
X75787Y105610D02*
D03*
X70669D02*
D03*
X70965Y98917D02*
D03*
X76083D02*
D03*
X35138Y106496D02*
D03*
X30020D02*
D03*
X29921Y99901D02*
D03*
X35039D02*
D03*
X418209Y104626D02*
D03*
X413091D02*
D03*
X443898Y96555D02*
D03*
X438779D02*
D03*
X418012Y124705D02*
D03*
X412894D02*
D03*
X522086Y377953D02*
D03*
X527205D02*
D03*
X437598Y30807D02*
D03*
X442717D02*
D03*
X418701Y38652D02*
D03*
X413583D02*
D03*
X418012Y58632D02*
D03*
X412894D02*
D03*
D24*
X49429Y187992D02*
D03*
Y182481D02*
D03*
X35703Y52848D02*
D03*
Y47337D02*
D03*
X462382Y312618D02*
D03*
Y307106D02*
D03*
X412382Y307106D02*
D03*
Y312618D02*
D03*
X452559Y288583D02*
D03*
Y294094D02*
D03*
X413386Y98032D02*
D03*
Y92520D02*
D03*
X189862Y178347D02*
D03*
Y183858D02*
D03*
X167717Y187992D02*
D03*
Y182480D02*
D03*
X72146Y178347D02*
D03*
Y183858D02*
D03*
X63976Y290157D02*
D03*
Y295669D02*
D03*
X41634Y294094D02*
D03*
Y299606D02*
D03*
X78344Y345866D02*
D03*
Y340354D02*
D03*
X112916Y344630D02*
D03*
Y339118D02*
D03*
X114097Y355457D02*
D03*
Y349945D02*
D03*
X167126Y340354D02*
D03*
Y345866D02*
D03*
X202382Y340591D02*
D03*
Y346102D02*
D03*
X70374Y48228D02*
D03*
Y53740D02*
D03*
X70571Y58268D02*
D03*
Y63780D02*
D03*
X417421Y198720D02*
D03*
Y204232D02*
D03*
X413386Y163878D02*
D03*
Y158366D02*
D03*
X71161Y92224D02*
D03*
Y86712D02*
D03*
X35335Y92126D02*
D03*
Y86614D02*
D03*
X417421Y131791D02*
D03*
Y137303D02*
D03*
X413386Y30187D02*
D03*
Y24675D02*
D03*
X417421Y65551D02*
D03*
Y71063D02*
D03*
D36*
X187795Y247539D02*
D03*
Y258563D02*
D03*
D39*
X158661Y181791D02*
D03*
Y187697D02*
D03*
X43406Y181791D02*
D03*
Y187697D02*
D03*
X77067Y91240D02*
D03*
Y85335D02*
D03*
D40*
X447461Y293917D02*
D03*
Y288799D02*
D03*
X422343Y65649D02*
D03*
Y70768D02*
D03*
X166831Y197630D02*
D03*
Y202748D02*
D03*
X456476Y307303D02*
D03*
Y312421D02*
D03*
X447342Y325020D02*
D03*
Y330138D02*
D03*
X427343Y325020D02*
D03*
Y330138D02*
D03*
X418287Y307303D02*
D03*
Y312421D02*
D03*
X427303Y290925D02*
D03*
Y296043D02*
D03*
X224706Y335567D02*
D03*
Y330449D02*
D03*
X76181Y58563D02*
D03*
Y63681D02*
D03*
X89665Y30709D02*
D03*
Y35827D02*
D03*
X205020Y195964D02*
D03*
Y190846D02*
D03*
X202559Y171358D02*
D03*
Y176476D02*
D03*
X195472Y183760D02*
D03*
Y178642D02*
D03*
X173425Y197638D02*
D03*
Y202756D02*
D03*
X89468Y195965D02*
D03*
Y190847D02*
D03*
X77756Y183760D02*
D03*
Y178642D02*
D03*
X48614Y202748D02*
D03*
Y197630D02*
D03*
X55610Y197638D02*
D03*
Y202756D02*
D03*
X78740Y302559D02*
D03*
Y307677D02*
D03*
X70087Y290264D02*
D03*
Y295382D02*
D03*
X40248Y309736D02*
D03*
Y314854D02*
D03*
X47244Y314862D02*
D03*
Y309744D02*
D03*
X126302Y349847D02*
D03*
Y354965D02*
D03*
X119708Y355063D02*
D03*
Y349945D02*
D03*
X124531Y329177D02*
D03*
Y324059D02*
D03*
X131125Y324256D02*
D03*
Y329374D02*
D03*
X174862Y363189D02*
D03*
Y358071D02*
D03*
X194981Y363189D02*
D03*
Y358071D02*
D03*
X224213Y351181D02*
D03*
Y356299D02*
D03*
X82973Y36024D02*
D03*
Y30906D02*
D03*
X28642Y42323D02*
D03*
Y37205D02*
D03*
X35138Y42224D02*
D03*
Y37106D02*
D03*
X82775Y58464D02*
D03*
Y63583D02*
D03*
X43012Y66634D02*
D03*
Y71752D02*
D03*
X63091Y66437D02*
D03*
Y71555D02*
D03*
X418110Y158858D02*
D03*
Y163976D02*
D03*
X422342Y203937D02*
D03*
Y198819D02*
D03*
X443799Y196555D02*
D03*
Y191437D02*
D03*
X43307Y103839D02*
D03*
Y108957D02*
D03*
X62795Y102953D02*
D03*
Y108071D02*
D03*
X35236Y75787D02*
D03*
Y80905D02*
D03*
X28740Y80906D02*
D03*
Y75788D02*
D03*
X88878Y70374D02*
D03*
Y75492D02*
D03*
X95374Y75492D02*
D03*
Y70374D02*
D03*
X443799Y58337D02*
D03*
Y63455D02*
D03*
X443799Y129626D02*
D03*
Y124508D02*
D03*
X418111Y92815D02*
D03*
Y97933D02*
D03*
X422343Y137205D02*
D03*
Y132086D02*
D03*
X418110Y24971D02*
D03*
Y30089D02*
D03*
D44*
X115869Y329177D02*
D03*
Y321303D02*
D03*
X217126Y359154D02*
D03*
Y351279D02*
D03*
D48*
X440374Y328602D02*
D03*
X434469D02*
D03*
X30413Y299508D02*
D03*
X36319D02*
D03*
X118428Y339020D02*
D03*
X124334D02*
D03*
X208288Y340551D02*
D03*
X214193D02*
D03*
X75886Y48425D02*
D03*
X81791D02*
D03*
X435433Y203740D02*
D03*
X429528D02*
D03*
X427756Y70866D02*
D03*
X433662D02*
D03*
X427461Y137500D02*
D03*
X433366D02*
D03*
D52*
X502598Y316653D02*
D03*
Y320669D02*
D03*
Y344764D02*
D03*
Y340748D02*
D03*
Y336732D02*
D03*
Y332716D02*
D03*
Y328701D02*
D03*
Y324685D02*
D03*
D53*
X168234Y259842D02*
D03*
Y256102D02*
D03*
Y252362D02*
D03*
X178076D02*
D03*
Y259842D02*
D03*
D54*
X-48976Y280280D02*
D03*
Y277130D02*
D03*
Y273980D02*
D03*
Y270831D02*
D03*
Y267681D02*
D03*
Y264531D02*
D03*
Y261382D02*
D03*
Y258232D02*
D03*
Y255083D02*
D03*
Y251933D02*
D03*
Y248783D02*
D03*
Y245634D02*
D03*
Y242484D02*
D03*
Y239335D02*
D03*
Y236185D02*
D03*
Y233035D02*
D03*
Y229886D02*
D03*
Y226736D02*
D03*
Y223587D02*
D03*
Y220437D02*
D03*
Y217287D02*
D03*
Y214138D02*
D03*
Y210988D02*
D03*
Y207839D02*
D03*
Y204689D02*
D03*
Y201539D02*
D03*
Y198390D02*
D03*
Y182642D02*
D03*
Y179492D02*
D03*
Y176343D02*
D03*
Y173193D02*
D03*
Y170043D02*
D03*
Y166894D02*
D03*
Y163744D02*
D03*
Y160594D02*
D03*
Y157445D02*
D03*
Y154295D02*
D03*
Y151146D02*
D03*
Y147996D02*
D03*
Y144846D02*
D03*
Y141697D02*
D03*
Y138547D02*
D03*
Y135398D02*
D03*
Y132248D02*
D03*
Y129098D02*
D03*
Y125949D02*
D03*
Y122799D02*
D03*
Y119650D02*
D03*
Y116500D02*
D03*
Y113350D02*
D03*
D116*
X447047Y301949D02*
D03*
Y306949D02*
D03*
Y311949D02*
D03*
Y316949D02*
D03*
X426968D02*
D03*
Y311949D02*
D03*
Y306949D02*
D03*
Y301949D02*
D03*
X85849Y335374D02*
D03*
Y340374D02*
D03*
Y345374D02*
D03*
Y350374D02*
D03*
X105928D02*
D03*
Y345374D02*
D03*
Y340374D02*
D03*
Y335374D02*
D03*
X195020Y335374D02*
D03*
Y340374D02*
D03*
Y345374D02*
D03*
Y350374D02*
D03*
X174941D02*
D03*
Y345374D02*
D03*
Y340374D02*
D03*
Y335374D02*
D03*
X63090Y44862D02*
D03*
Y49862D02*
D03*
Y54862D02*
D03*
Y59862D02*
D03*
X43012D02*
D03*
Y54862D02*
D03*
Y49862D02*
D03*
Y44862D02*
D03*
X63189Y81279D02*
D03*
Y86279D02*
D03*
Y91280D02*
D03*
Y96280D02*
D03*
X43110D02*
D03*
Y91280D02*
D03*
Y86279D02*
D03*
Y81279D02*
D03*
D117*
X173819Y183957D02*
D03*
Y187697D02*
D03*
Y191437D02*
D03*
X184055D02*
D03*
Y187697D02*
D03*
Y183957D02*
D03*
X55905Y183957D02*
D03*
Y187697D02*
D03*
Y191437D02*
D03*
X66142D02*
D03*
Y187697D02*
D03*
Y183957D02*
D03*
X57767Y295775D02*
D03*
Y299516D02*
D03*
Y303256D02*
D03*
X47531D02*
D03*
Y299516D02*
D03*
Y295775D02*
D03*
D118*
X198031Y191240D02*
D03*
X191142D02*
D03*
X80118Y191240D02*
D03*
X73228D02*
D03*
X64862Y303150D02*
D03*
X71752D02*
D03*
D119*
X74803Y36024D02*
D03*
X66929D02*
D03*
X72834Y75394D02*
D03*
X80708D02*
D03*
D120*
X438504Y171653D02*
D03*
X433504D02*
D03*
X428504D02*
D03*
X423504D02*
D03*
Y191732D02*
D03*
X428504D02*
D03*
X433504D02*
D03*
X438504D02*
D03*
X438504Y38652D02*
D03*
X433504D02*
D03*
X428504D02*
D03*
X423504D02*
D03*
Y58730D02*
D03*
X428504D02*
D03*
X433504D02*
D03*
X438504D02*
D03*
X438504Y104528D02*
D03*
X433504D02*
D03*
X428504D02*
D03*
X423504D02*
D03*
Y124606D02*
D03*
X428504D02*
D03*
X433504D02*
D03*
X438504D02*
D03*
M02*
