G04*
G04 #@! TF.GenerationSoftware,Altium Limited,Altium Designer,24.8.2 (39)*
G04*
G04 Layer_Color=32896*
%FSLAX25Y25*%
%MOIN*%
G70*
G04*
G04 #@! TF.SameCoordinates,15C99CB6-3A05-4735-80B8-A5D9E124C9A1*
G04*
G04*
G04 #@! TF.FilePolarity,Positive*
G04*
G01*
G75*
%ADD10C,0.00787*%
%ADD11C,0.00394*%
%ADD12C,0.00500*%
%ADD18C,0.00591*%
D10*
X34325Y49896D02*
Y50289D01*
X37081Y49896D02*
Y50289D01*
X175222Y248228D02*
X175616D01*
X175222Y245472D02*
X175616D01*
X192717Y251673D02*
Y254429D01*
X182874Y251673D02*
Y254429D01*
X430618Y166535D02*
X431012D01*
X430618Y163779D02*
X431012D01*
X466043Y281988D02*
X468799D01*
X466043Y272146D02*
X468799D01*
X466043Y246654D02*
X468799D01*
X466043Y256496D02*
X468799D01*
X466043Y259646D02*
X468799D01*
X466043Y269488D02*
X468799D01*
X461004Y309665D02*
Y310059D01*
X463760Y309665D02*
Y310059D01*
X437422Y327421D02*
Y329783D01*
X437205Y321654D02*
X437598D01*
X437205Y324410D02*
X437598D01*
X413760Y309665D02*
Y310059D01*
X411004Y309665D02*
Y310059D01*
X431791Y299803D02*
X442225D01*
X431791D02*
Y319094D01*
X442225D01*
Y299803D02*
Y319094D01*
X443603Y299390D02*
X450492D01*
X436386Y297590D02*
X436779D01*
X436386Y294835D02*
X436779D01*
X453937Y291142D02*
Y291535D01*
X451181Y291142D02*
Y291535D01*
X171974Y261811D02*
X174336D01*
Y250394D02*
Y261811D01*
X171974Y250394D02*
X174336D01*
X171974D02*
Y261811D01*
X412008Y95079D02*
Y95472D01*
X414764Y95079D02*
Y95472D01*
X440945Y23630D02*
X441339D01*
X440945Y20874D02*
X441339D01*
X90672Y333228D02*
X101105D01*
Y352520D01*
X90672D02*
X101105D01*
X90672Y333228D02*
Y352520D01*
X82405Y332815D02*
X89294D01*
X181988Y181496D02*
X186122D01*
X180610Y181988D02*
Y193406D01*
X177264D02*
X180610D01*
X177264Y181988D02*
Y193406D01*
Y181988D02*
X180610D01*
X191240Y180905D02*
Y181299D01*
X188484Y180905D02*
Y181299D01*
X166339Y185039D02*
Y185433D01*
X169095Y185039D02*
Y185433D01*
X157480Y184744D02*
X159842D01*
X73524Y180905D02*
Y181299D01*
X70768Y180905D02*
Y181299D01*
X64075Y181496D02*
X68209D01*
X62697Y181988D02*
Y193405D01*
X59350D02*
X62697D01*
X59350Y181988D02*
Y193405D01*
Y181988D02*
X62697D01*
X48051Y185039D02*
Y185433D01*
X50807Y185039D02*
Y185433D01*
X42224Y184744D02*
X44587D01*
X65354Y292717D02*
Y293110D01*
X62598Y292717D02*
Y293110D01*
X43012Y296654D02*
Y297047D01*
X40256Y296654D02*
Y297047D01*
X50976Y293807D02*
X54323D01*
X50976D02*
Y305224D01*
X54323D01*
Y293807D02*
Y305224D01*
X55701Y293315D02*
X59834D01*
X33366Y298327D02*
Y300689D01*
X70101Y364646D02*
X70495D01*
X70101Y361890D02*
X70495D01*
X76966Y342913D02*
Y343307D01*
X79722Y342913D02*
Y343307D01*
X111538Y341677D02*
Y342071D01*
X114294Y341677D02*
Y342071D01*
X121381Y337839D02*
Y340201D01*
X112719Y352504D02*
Y352898D01*
X115475Y352504D02*
Y352898D01*
X113212Y325044D02*
Y325437D01*
X118527Y325044D02*
Y325437D01*
X168504Y342913D02*
Y343307D01*
X165748Y342913D02*
Y343307D01*
X163721Y364646D02*
X164114D01*
X163721Y361890D02*
X164114D01*
X171496Y332815D02*
X178386D01*
X179764Y333228D02*
Y352520D01*
X190197D01*
Y333228D02*
Y352520D01*
X179764Y333228D02*
X190197D01*
X206240Y364646D02*
X206634D01*
X206240Y361890D02*
X206634D01*
X211240Y339370D02*
Y341732D01*
X214468Y355020D02*
Y355414D01*
X219783Y355020D02*
Y355414D01*
X203760Y343150D02*
Y343543D01*
X201004Y343150D02*
Y343543D01*
X31890Y68898D02*
X32283D01*
X31890Y71653D02*
X32283D01*
X39567Y42303D02*
X46457D01*
X47835Y42717D02*
Y62008D01*
X58268D01*
Y42717D02*
Y62008D01*
X47835Y42717D02*
X58268D01*
X78838Y47244D02*
Y49606D01*
X71752Y50788D02*
Y51181D01*
X68996Y50788D02*
Y51181D01*
X71949Y60827D02*
Y61221D01*
X69193Y60827D02*
Y61221D01*
X70669Y38681D02*
X71063D01*
X70669Y33366D02*
X71063D01*
X432480Y202559D02*
Y204921D01*
X440650Y176477D02*
Y186909D01*
X421358D02*
X440650D01*
X421358Y176477D02*
Y186909D01*
Y176477D02*
X440650D01*
X441063Y168209D02*
Y175099D01*
X430610Y197286D02*
X431004D01*
X430610Y200042D02*
X431004D01*
X418799Y201279D02*
Y201673D01*
X416043Y201279D02*
Y201673D01*
X412008Y160925D02*
Y161319D01*
X414764Y160925D02*
Y161319D01*
X440945Y158465D02*
X441339D01*
X440945Y161221D02*
X441339D01*
X69783Y89271D02*
Y89665D01*
X72539Y89271D02*
Y89665D01*
X33957Y89173D02*
Y89567D01*
X36713Y89173D02*
Y89567D01*
X32480Y113583D02*
X32874D01*
X32480Y110827D02*
X32874D01*
X73130Y109843D02*
X73524D01*
X73130Y112599D02*
X73524D01*
X76575Y72736D02*
X76968D01*
X76575Y78051D02*
X76968D01*
X440650Y43474D02*
Y53908D01*
X421358D02*
X440650D01*
X421358Y43474D02*
Y53908D01*
Y43474D02*
X440650D01*
X441063Y35207D02*
Y42097D01*
X75886Y88287D02*
X78248D01*
X39665Y78720D02*
X46555D01*
X47933Y79134D02*
Y98425D01*
X58366D01*
Y79134D02*
Y98425D01*
X47933Y79134D02*
X58366D01*
X430709Y69685D02*
Y72047D01*
X430413Y136319D02*
Y138681D01*
X430618Y95563D02*
X431012D01*
X430618Y98319D02*
X431012D01*
X440650Y109350D02*
Y119784D01*
X421358D02*
X440650D01*
X421358Y109350D02*
Y119784D01*
Y109350D02*
X440650D01*
X441063Y101083D02*
Y107972D01*
X440945Y87894D02*
X441339D01*
X440945Y90650D02*
X441339D01*
X430610Y130020D02*
X431004D01*
X430610Y132776D02*
X431004D01*
X418799Y134350D02*
Y134744D01*
X416043Y134350D02*
Y134744D01*
X501338Y298425D02*
Y314370D01*
Y347047D02*
Y362992D01*
X550748Y298425D02*
X563149D01*
X501338D02*
X533032D01*
X501338Y362992D02*
X533032D01*
X550748D02*
X563149D01*
Y298425D02*
Y362992D01*
X430610Y64561D02*
X431004D01*
X430610Y67317D02*
X431004D01*
X429626Y30512D02*
X430020D01*
X429626Y33268D02*
X430020D01*
X412008Y27234D02*
Y27628D01*
X414764Y27234D02*
Y27628D01*
X418799Y68110D02*
Y68504D01*
X416043Y68110D02*
Y68504D01*
D11*
X66831Y318701D02*
X66671Y319659D01*
X66208Y320514D01*
X65493Y321173D01*
X64603Y321563D01*
X63634Y321643D01*
X62692Y321405D01*
X61878Y320873D01*
X61281Y320106D01*
X60966Y319187D01*
Y318215D01*
X61281Y317295D01*
X61878Y316528D01*
X62692Y315997D01*
X63634Y315758D01*
X64603Y315838D01*
X65493Y316229D01*
X66208Y316887D01*
X66671Y317742D01*
X66831Y318701D01*
X46687Y351705D02*
X47146Y352165D01*
X48064D01*
X48524Y351705D01*
Y349869D01*
X48064Y349410D01*
X47146D01*
X46687Y349869D01*
Y350787D01*
X47605D01*
X45769Y349410D02*
Y352165D01*
X43932Y349410D01*
Y352165D01*
X43014D02*
Y349410D01*
X41636D01*
X41177Y349869D01*
Y351705D01*
X41636Y352165D01*
X43014D01*
D12*
X167255Y262602D02*
D03*
D18*
X419587Y68209D02*
X425098D01*
X424343Y63209D02*
X425098D01*
Y73209D01*
X424343D02*
X425098D01*
X419587D02*
X420343D01*
X419587Y63209D02*
Y73209D01*
Y63209D02*
X420343D01*
X168831Y205189D02*
X169587D01*
Y195189D02*
Y205189D01*
X168831Y195189D02*
X169587D01*
X164075D02*
X164831D01*
X164075D02*
Y205189D01*
X164831D01*
X164075Y200189D02*
X169587D01*
X453720Y309862D02*
X459232D01*
X458476Y304862D02*
X459232D01*
Y314862D01*
X458476D02*
X459232D01*
X453720D02*
X454476D01*
X453720Y304862D02*
Y314862D01*
Y304862D02*
X454476D01*
X444705Y291358D02*
X450216D01*
X444705Y296358D02*
X445461D01*
X444705Y286358D02*
Y296358D01*
Y286358D02*
X445461D01*
X449461D02*
X450216D01*
Y296358D01*
X449461D02*
X450216D01*
X449342Y332579D02*
X450098D01*
Y322579D02*
Y332579D01*
X449342Y322579D02*
X450098D01*
X444587D02*
X445342D01*
X444587D02*
Y332579D01*
X445342D01*
X444587Y327579D02*
X450098D01*
X429343Y332579D02*
X430098D01*
Y322579D02*
Y332579D01*
X429343Y322579D02*
X430098D01*
X424586D02*
X425343D01*
X424586D02*
Y332579D01*
X425343D01*
X424586Y327579D02*
X430098D01*
X420287Y314862D02*
X421043D01*
Y304862D02*
Y314862D01*
X420287Y304862D02*
X421043D01*
X415531D02*
X416287D01*
X415531D02*
Y314862D01*
X416287D01*
X415531Y309862D02*
X421043D01*
X429303Y298484D02*
X430059D01*
Y288484D02*
Y298484D01*
X429303Y288484D02*
X430059D01*
X424547D02*
X425303D01*
X424547D02*
Y298484D01*
X425303D01*
X424547Y293484D02*
X430059D01*
X221950Y328008D02*
X222706D01*
X221950D02*
Y338008D01*
X222706D01*
X226706D02*
X227462D01*
Y328008D02*
Y338008D01*
X226706Y328008D02*
X227462D01*
X221950Y333008D02*
X227462D01*
X78181Y66122D02*
X78937D01*
Y56122D02*
Y66122D01*
X78181Y56122D02*
X78937D01*
X73425D02*
X74181D01*
X73425D02*
Y66122D01*
X74181D01*
X73425Y61122D02*
X78937D01*
X86909Y33268D02*
X92421D01*
X91665Y28268D02*
X92421D01*
Y38268D01*
X91665D02*
X92421D01*
X86909D02*
X87665D01*
X86909Y28268D02*
Y38268D01*
Y28268D02*
X87665D01*
X202264Y193405D02*
X207775D01*
X202264Y198405D02*
X203020D01*
X202264Y188405D02*
Y198405D01*
Y188405D02*
X203020D01*
X207020D02*
X207775D01*
Y198405D01*
X207020D02*
X207775D01*
X204559Y178917D02*
X205315D01*
Y168917D02*
Y178917D01*
X204559Y168917D02*
X205315D01*
X199803D02*
X200559D01*
X199803D02*
Y178917D01*
X200559D01*
X199803Y173917D02*
X205315D01*
X192717Y181201D02*
X198228D01*
X192717Y186201D02*
X193472D01*
X192717Y176201D02*
Y186201D01*
Y176201D02*
X193472D01*
X197472D02*
X198228D01*
Y186201D01*
X197472D02*
X198228D01*
X201279Y193996D02*
Y194783D01*
X187894D02*
X201279D01*
X187894Y193996D02*
Y194783D01*
X201279Y187697D02*
Y188484D01*
X187894Y187697D02*
X201279D01*
X187894D02*
Y188484D01*
X194587Y187697D02*
Y194783D01*
X170669Y200197D02*
X176181D01*
X175425Y195197D02*
X176181D01*
Y205197D01*
X175425D02*
X176181D01*
X170669D02*
X171425D01*
X170669Y195197D02*
Y205197D01*
Y195197D02*
X171425D01*
X86712Y193405D02*
X92224D01*
X86712Y198406D02*
X87468D01*
X86712Y188406D02*
Y198406D01*
Y188406D02*
X87468D01*
X91468D02*
X92224D01*
Y198406D01*
X91468D02*
X92224D01*
X86712Y180807D02*
Y186319D01*
X81713Y180807D02*
Y181563D01*
Y180807D02*
X91712D01*
Y181563D01*
Y185563D02*
Y186319D01*
X81713D02*
X91712D01*
X81713Y185563D02*
Y186319D01*
X75000Y181201D02*
X80512D01*
X75000Y186201D02*
X75756D01*
X75000Y176201D02*
Y186201D01*
Y176201D02*
X75756D01*
X79756D02*
X80512D01*
Y186201D01*
X79756D02*
X80512D01*
X83366Y193996D02*
Y194783D01*
X69980D02*
X83366D01*
X69980Y193996D02*
Y194783D01*
X83366Y187697D02*
Y188484D01*
X69980Y187697D02*
X83366D01*
X69980D02*
Y188484D01*
X76673Y187697D02*
Y194783D01*
X45858Y200189D02*
X51370D01*
X45858Y205189D02*
X46614D01*
X45858Y195189D02*
Y205189D01*
Y195189D02*
X46614D01*
X50614D02*
X51370D01*
Y205189D01*
X50614D02*
X51370D01*
X52854Y200197D02*
X58366D01*
X57610Y195197D02*
X58366D01*
Y205197D01*
X57610D02*
X58366D01*
X52854D02*
X53610D01*
X52854Y195197D02*
Y205197D01*
Y195197D02*
X53610D01*
X74134Y297472D02*
Y298228D01*
X84134D01*
Y297472D02*
Y298228D01*
Y292716D02*
Y293472D01*
X74134Y292716D02*
X84134D01*
X74134D02*
Y293472D01*
X79134Y292716D02*
Y298228D01*
X80740Y310118D02*
X81496D01*
Y300118D02*
Y310118D01*
X80740Y300118D02*
X81496D01*
X75984D02*
X76740D01*
X75984D02*
Y310118D01*
X76740D01*
X75984Y305118D02*
X81496D01*
X72087Y297823D02*
X72842D01*
Y287823D02*
Y297823D01*
X72087Y287823D02*
X72842D01*
X67331D02*
X68087D01*
X67331D02*
Y297823D01*
X68087D01*
X67331Y292823D02*
X72842D01*
X68307Y299606D02*
Y306693D01*
X61614Y299606D02*
Y300394D01*
Y299606D02*
X75000D01*
Y300394D01*
X61614Y305906D02*
Y306693D01*
X75000D01*
Y305906D02*
Y306693D01*
X42248Y317295D02*
X43004D01*
Y307295D02*
Y317295D01*
X42248Y307295D02*
X43004D01*
X37492D02*
X38248D01*
X37492D02*
Y317295D01*
X38248D01*
X37492Y312295D02*
X43004D01*
X44488Y307303D02*
X45244D01*
X44488D02*
Y317303D01*
X45244D01*
X49244D02*
X50000D01*
Y307303D02*
Y317303D01*
X49244Y307303D02*
X50000D01*
X44488Y312303D02*
X50000D01*
X70200Y348347D02*
Y353858D01*
X75200Y353102D02*
Y353858D01*
X65200D02*
X75200D01*
X65200Y353102D02*
Y353858D01*
Y348347D02*
Y349102D01*
Y348347D02*
X75200D01*
Y349102D01*
X70200Y354961D02*
Y360472D01*
X65200Y354961D02*
Y355717D01*
Y354961D02*
X75200D01*
Y355717D01*
Y359717D02*
Y360472D01*
X65200D02*
X75200D01*
X65200Y359717D02*
Y360472D01*
X75089Y330394D02*
Y335906D01*
X80089Y335150D02*
Y335906D01*
X70088D02*
X80089D01*
X70088Y335150D02*
Y335906D01*
Y330394D02*
Y331150D01*
Y330394D02*
X80089D01*
Y331150D01*
X69924Y328496D02*
Y329252D01*
X79924D01*
Y328496D02*
Y329252D01*
Y323740D02*
Y324496D01*
X69924Y323740D02*
X79924D01*
X69924D02*
Y324496D01*
X74924Y323740D02*
Y329252D01*
X93212Y353488D02*
Y354244D01*
X83212Y353488D02*
X93212D01*
X83212D02*
Y354244D01*
Y358244D02*
Y359000D01*
X93212D01*
Y358244D02*
Y359000D01*
X88212Y353488D02*
Y359000D01*
X123546Y352406D02*
X129058D01*
X128302Y347406D02*
X129058D01*
Y357406D01*
X128302D02*
X129058D01*
X123546D02*
X124302D01*
X123546Y347406D02*
Y357406D01*
Y347406D02*
X124302D01*
X116952Y352504D02*
X122464D01*
X116952Y357504D02*
X117708D01*
X116952Y347504D02*
Y357504D01*
Y347504D02*
X117708D01*
X121708D02*
X122464D01*
Y357504D01*
X121708D02*
X122464D01*
X97975Y358343D02*
Y359099D01*
X107975D01*
Y358343D02*
Y359099D01*
Y353587D02*
Y354343D01*
X97975Y353587D02*
X107975D01*
X97975D02*
Y354343D01*
X102975Y353587D02*
Y359099D01*
X121775Y326618D02*
X127287D01*
X121775Y331618D02*
X122531D01*
X121775Y321618D02*
Y331618D01*
Y321618D02*
X122531D01*
X126531D02*
X127287D01*
Y331618D01*
X126531D02*
X127287D01*
X128369Y326815D02*
X133881D01*
X133125Y321815D02*
X133881D01*
Y331815D01*
X133125D02*
X133881D01*
X128369D02*
X129125D01*
X128369Y321815D02*
Y331815D01*
Y321815D02*
X129125D01*
X168917Y348346D02*
Y349102D01*
X158917Y348346D02*
X168917D01*
X158917D02*
Y349102D01*
Y353102D02*
Y353858D01*
X168917D01*
Y353102D02*
Y353858D01*
X163917Y348346D02*
Y353858D01*
X158917Y359717D02*
Y360472D01*
X168917D01*
Y359717D02*
Y360472D01*
Y354961D02*
Y355717D01*
X158917Y354961D02*
X168917D01*
X158917D02*
Y355717D01*
X163917Y354961D02*
Y360472D01*
X172107Y360630D02*
X177618D01*
X172107Y365630D02*
X172862D01*
X172107Y355630D02*
Y365630D01*
Y355630D02*
X172862D01*
X176862D02*
X177618D01*
Y365630D01*
X176862D02*
X177618D01*
X192225Y360630D02*
X197737D01*
X192225Y365630D02*
X192981D01*
X192225Y355630D02*
Y365630D01*
Y355630D02*
X192981D01*
X196981D02*
X197737D01*
Y365630D01*
X196981D02*
X197737D01*
X164587Y323740D02*
Y329252D01*
X169587Y328496D02*
Y329252D01*
X159587D02*
X169587D01*
X159587Y328496D02*
Y329252D01*
Y323740D02*
Y324496D01*
Y323740D02*
X169587D01*
Y324496D01*
X164587Y330394D02*
Y335906D01*
X159587Y330394D02*
Y331150D01*
Y330394D02*
X169587D01*
Y331150D01*
Y335150D02*
Y335906D01*
X159587D02*
X169587D01*
X159587Y335150D02*
Y335906D01*
X206437Y354961D02*
Y360472D01*
X201437Y354961D02*
Y355717D01*
Y354961D02*
X211437D01*
Y355717D01*
Y359717D02*
Y360472D01*
X201437D02*
X211437D01*
X201437Y359717D02*
Y360472D01*
X221457Y353740D02*
X226969D01*
X226213Y348740D02*
X226969D01*
Y358740D01*
X226213D02*
X226969D01*
X221457D02*
X222213D01*
X221457Y348740D02*
Y358740D01*
Y348740D02*
X222213D01*
X211437Y348347D02*
Y349103D01*
X201437Y348347D02*
X211437D01*
X201437D02*
Y349103D01*
Y353103D02*
Y353858D01*
X211437D01*
Y353103D02*
Y353858D01*
X206437Y348347D02*
Y353858D01*
X80217Y33465D02*
X85729D01*
X80217Y38465D02*
X80972D01*
X80217Y28465D02*
Y38465D01*
Y28465D02*
X80972D01*
X84973D02*
X85729D01*
Y38465D01*
X84973D02*
X85729D01*
X31791Y55315D02*
Y60827D01*
X36791Y60071D02*
Y60827D01*
X26791D02*
X36791D01*
X26791Y60071D02*
Y60827D01*
Y55315D02*
Y56071D01*
Y55315D02*
X36791D01*
Y56071D01*
X25886Y34764D02*
X26642D01*
X25886D02*
Y44764D01*
X26642D01*
X30642D02*
X31398D01*
Y34764D02*
Y44764D01*
X30642Y34764D02*
X31398D01*
X25886Y39764D02*
X31398D01*
X32382Y39665D02*
X37894D01*
X32382Y44665D02*
X33138D01*
X32382Y34665D02*
Y44665D01*
Y34665D02*
X33138D01*
X37138D02*
X37894D01*
Y44665D01*
X37138D02*
X37894D01*
X31890Y61910D02*
Y67421D01*
X26890Y61910D02*
Y62665D01*
Y61910D02*
X36890D01*
Y62665D01*
Y66665D02*
Y67421D01*
X26890D02*
X36890D01*
X26890Y66665D02*
Y67421D01*
X80020Y61024D02*
X85532D01*
X84776Y56024D02*
X85532D01*
Y66024D01*
X84776D02*
X85532D01*
X80020D02*
X80775D01*
X80020Y56024D02*
Y66024D01*
Y56024D02*
X80775D01*
X45012Y74193D02*
X45768D01*
Y64193D02*
Y74193D01*
X45012Y64193D02*
X45768D01*
X40256D02*
X41012D01*
X40256D02*
Y74193D01*
X41012D01*
X40256Y69193D02*
X45768D01*
X65091Y73996D02*
X65847D01*
Y63996D02*
Y73996D01*
X65091Y63996D02*
X65847D01*
X60335D02*
X61091D01*
X60335D02*
Y73996D01*
X61091D01*
X60335Y68996D02*
X65847D01*
X410650Y173752D02*
Y174508D01*
X420650D01*
Y173752D02*
Y174508D01*
Y168996D02*
Y169752D01*
X410650Y168996D02*
X420650D01*
X410650D02*
Y169752D01*
X415650Y168996D02*
Y174508D01*
X410453Y193634D02*
Y194390D01*
X420453D01*
Y193634D02*
Y194390D01*
Y188878D02*
Y189634D01*
X410453Y188878D02*
X420453D01*
X410453D02*
Y189634D01*
X415453Y188878D02*
Y194390D01*
X420110Y166417D02*
X420866D01*
Y156417D02*
Y166417D01*
X420110Y156417D02*
X420866D01*
X415354D02*
X416110D01*
X415354D02*
Y166417D01*
X416110D01*
X415354Y161417D02*
X420866D01*
X419587Y196378D02*
X420342D01*
X419587D02*
Y206378D01*
X420342D01*
X424342D02*
X425098D01*
Y196378D02*
Y206378D01*
X424342Y196378D02*
X425098D01*
X419587Y201378D02*
X425098D01*
X441043Y188996D02*
X441799D01*
X441043D02*
Y198996D01*
X441799D01*
X445799D02*
X446555D01*
Y188996D02*
Y198996D01*
X445799Y188996D02*
X446555D01*
X441043Y193996D02*
X446555D01*
X436339Y166960D02*
Y167716D01*
X446339D01*
Y166960D02*
Y167716D01*
Y162205D02*
Y162960D01*
X436339Y162205D02*
X446339D01*
X436339D02*
Y162960D01*
X441339Y162205D02*
Y167716D01*
X68228Y107610D02*
Y108366D01*
X78228D01*
Y107610D02*
Y108366D01*
Y102854D02*
Y103610D01*
X68228Y102854D02*
X78228D01*
X68228D02*
Y103610D01*
X73228Y102854D02*
Y108366D01*
X78524Y96162D02*
Y96917D01*
X68524Y96162D02*
X78524D01*
X68524D02*
Y96917D01*
Y100917D02*
Y101673D01*
X78524D01*
Y100917D02*
Y101673D01*
X73524Y96162D02*
Y101673D01*
X27579Y108496D02*
Y109252D01*
X37579D01*
Y108496D02*
Y109252D01*
Y103740D02*
Y104496D01*
X27579Y103740D02*
X37579D01*
X27579D02*
Y104496D01*
X32579Y103740D02*
Y109252D01*
X37480Y97146D02*
Y97901D01*
X27480Y97146D02*
X37480D01*
X27480D02*
Y97901D01*
Y101901D02*
Y102657D01*
X37480D01*
Y101901D02*
Y102657D01*
X32480Y97146D02*
Y102657D01*
X45307Y111398D02*
X46063D01*
Y101398D02*
Y111398D01*
X45307Y101398D02*
X46063D01*
X40551D02*
X41307D01*
X40551D02*
Y111398D01*
X41307D01*
X40551Y106398D02*
X46063D01*
X64795Y110512D02*
X65551D01*
Y100512D02*
Y110512D01*
X64795Y100512D02*
X65551D01*
X60039D02*
X60795D01*
X60039D02*
Y110512D01*
X60795D01*
X60039Y105512D02*
X65551D01*
X37236Y83346D02*
X37992D01*
Y73346D02*
Y83346D01*
X37236Y73346D02*
X37992D01*
X32480D02*
X33236D01*
X32480D02*
Y83346D01*
X33236D01*
X32480Y78346D02*
X37992D01*
X25984Y73347D02*
X26740D01*
X25984D02*
Y83346D01*
X26740D01*
X30740D02*
X31496D01*
Y73347D02*
Y83346D01*
X30740Y73347D02*
X31496D01*
X25984Y78347D02*
X31496D01*
X90878Y77933D02*
X91634D01*
Y67933D02*
Y77933D01*
X90878Y67933D02*
X91634D01*
X86122D02*
X86878D01*
X86122D02*
Y77933D01*
X86878D01*
X86122Y72933D02*
X91634D01*
X92618Y67933D02*
X93374D01*
X92618D02*
Y77933D01*
X93374D01*
X97374D02*
X98130D01*
Y67933D02*
Y77933D01*
X97374Y67933D02*
X98130D01*
X92618Y72933D02*
X98130D01*
X441043Y60896D02*
X446555D01*
X445799Y55896D02*
X446555D01*
Y65896D01*
X445799D02*
X446555D01*
X441043D02*
X441799D01*
X441043Y55896D02*
Y65896D01*
Y55896D02*
X441799D01*
X410650Y106626D02*
Y107382D01*
X420650D01*
Y106626D02*
Y107382D01*
Y101870D02*
Y102626D01*
X410650Y101870D02*
X420650D01*
X410650D02*
Y102626D01*
X415650Y101870D02*
Y107382D01*
X441043Y122067D02*
X441799D01*
X441043D02*
Y132067D01*
X441799D01*
X445799D02*
X446555D01*
Y122067D02*
Y132067D01*
X445799Y122067D02*
X446555D01*
X441043Y127067D02*
X446555D01*
X420111Y100374D02*
X420866D01*
Y90374D02*
Y100374D01*
X420111Y90374D02*
X420866D01*
X415354D02*
X416111D01*
X415354D02*
Y100374D01*
X416111D01*
X415354Y95374D02*
X420866D01*
X419587Y129645D02*
X420343D01*
X419587D02*
Y139645D01*
X420343D01*
X424343D02*
X425098D01*
Y129645D02*
Y139645D01*
X424343Y129645D02*
X425098D01*
X419587Y134645D02*
X425098D01*
X436339Y98555D02*
Y99311D01*
X446339D01*
Y98555D02*
Y99311D01*
Y93799D02*
Y94555D01*
X436339Y93799D02*
X446339D01*
X436339D02*
Y94555D01*
X441338Y93799D02*
Y99311D01*
X410453Y126705D02*
Y127461D01*
X420453D01*
Y126705D02*
Y127461D01*
Y121949D02*
Y122705D01*
X410453Y121949D02*
X420453D01*
X410453D02*
Y122705D01*
X415453Y121949D02*
Y127461D01*
X524646Y375197D02*
Y380709D01*
X519646Y375197D02*
Y375953D01*
Y375197D02*
X529646D01*
Y375953D01*
Y379953D02*
Y380709D01*
X519646D02*
X529646D01*
X519646Y379953D02*
Y380709D01*
X440157Y28051D02*
Y33563D01*
X435157Y28051D02*
Y28807D01*
Y28051D02*
X445157D01*
Y28807D01*
Y32807D02*
Y33563D01*
X435157D02*
X445157D01*
X435157Y32807D02*
Y33563D01*
X420110Y32530D02*
X420866D01*
Y22530D02*
Y32530D01*
X420110Y22530D02*
X420866D01*
X415354D02*
X416110D01*
X415354D02*
Y32530D01*
X416110D01*
X415354Y27530D02*
X420866D01*
X411141Y40652D02*
Y41408D01*
X421141D01*
Y40652D02*
Y41408D01*
Y35896D02*
Y36652D01*
X411141Y35896D02*
X421141D01*
X411141D02*
Y36652D01*
X416142Y35896D02*
Y41408D01*
X410453Y60632D02*
Y61388D01*
X420453D01*
Y60632D02*
Y61388D01*
Y55876D02*
Y56632D01*
X410453Y55876D02*
X420453D01*
X410453D02*
Y56632D01*
X415453Y55876D02*
Y61388D01*
X175558Y242847D02*
X176017Y243307D01*
X176935D01*
X177394Y242847D01*
Y241011D01*
X176935Y240552D01*
X176017D01*
X175558Y241011D01*
X174639Y243307D02*
X172803D01*
Y242847D01*
X174639Y241011D01*
Y240552D01*
X187959Y265485D02*
X188418Y265944D01*
X189337D01*
X189796Y265485D01*
Y263649D01*
X189337Y263189D01*
X188418D01*
X187959Y263649D01*
X187041Y265485D02*
X186582Y265944D01*
X185663D01*
X185204Y265485D01*
Y265026D01*
X185663Y264567D01*
X185204Y264108D01*
Y263649D01*
X185663Y263189D01*
X186582D01*
X187041Y263649D01*
Y264108D01*
X186582Y264567D01*
X187041Y265026D01*
Y265485D01*
X186582Y264567D02*
X185663D01*
X84251Y26180D02*
X81497D01*
Y24802D01*
X81956Y24343D01*
X82874D01*
X83333Y24802D01*
Y26180D01*
Y25261D02*
X84251Y24343D01*
Y21588D02*
Y23425D01*
X82415Y21588D01*
X81956D01*
X81497Y22047D01*
Y22965D01*
X81956Y23425D01*
X84251Y20670D02*
Y19751D01*
Y20210D01*
X81497D01*
X81956Y20670D01*
Y16537D02*
X81497Y16996D01*
Y17914D01*
X81956Y18374D01*
X83792D01*
X84251Y17914D01*
Y16996D01*
X83792Y16537D01*
X77853Y320472D02*
X76016D01*
X76934D01*
Y317717D01*
X75098D02*
Y320472D01*
X73720D01*
X73261Y320013D01*
Y319094D01*
X73720Y318635D01*
X75098D01*
X72343Y317717D02*
X71424D01*
X71884D01*
Y320472D01*
X72343Y320013D01*
X70047Y320472D02*
X68210D01*
Y320013D01*
X70047Y318176D01*
Y317717D01*
X406463Y98129D02*
X406004Y98588D01*
Y99507D01*
X406463Y99966D01*
X408300D01*
X408759Y99507D01*
Y98588D01*
X408300Y98129D01*
X408759Y97211D02*
Y96292D01*
Y96751D01*
X406004D01*
X406463Y97211D01*
X408759Y94915D02*
Y93997D01*
Y94456D01*
X406004D01*
X406463Y94915D01*
X406004Y92619D02*
X408759D01*
Y91242D01*
X408300Y90782D01*
X407841D01*
X407382Y91242D01*
Y92619D01*
Y91242D01*
X406923Y90782D01*
X406463D01*
X406004Y91242D01*
Y92619D01*
X454789Y22572D02*
X455248Y23031D01*
X456167D01*
X456626Y22572D01*
Y20735D01*
X456167Y20276D01*
X455248D01*
X454789Y20735D01*
X453871Y22572D02*
X453411Y23031D01*
X452493D01*
X452034Y22572D01*
Y22113D01*
X452493Y21654D01*
X452034Y21194D01*
Y20735D01*
X452493Y20276D01*
X453411D01*
X453871Y20735D01*
Y21194D01*
X453411Y21654D01*
X453871Y22113D01*
Y22572D01*
X453411Y21654D02*
X452493D01*
X451116Y22572D02*
X450657Y23031D01*
X449738D01*
X449279Y22572D01*
Y22113D01*
X449738Y21654D01*
X450197D01*
X449738D01*
X449279Y21194D01*
Y20735D01*
X449738Y20276D01*
X450657D01*
X451116Y20735D01*
X446524Y22572D02*
X446983Y23031D01*
X447901D01*
X448361Y22572D01*
Y20735D01*
X447901Y20276D01*
X446983D01*
X446524Y20735D01*
X85530Y51871D02*
Y54625D01*
X84152D01*
X83693Y54166D01*
Y53248D01*
X84152Y52789D01*
X85530D01*
X84611D02*
X83693Y51871D01*
X82775D02*
X81856D01*
X82315D01*
Y54625D01*
X82775Y54166D01*
X78642Y51871D02*
X80479D01*
X78642Y53707D01*
Y54166D01*
X79101Y54625D01*
X80019D01*
X80479Y54166D01*
X77724Y52330D02*
X77264Y51871D01*
X76346D01*
X75887Y52330D01*
Y54166D01*
X76346Y54625D01*
X77264D01*
X77724Y54166D01*
Y53707D01*
X77264Y53248D01*
X75887D01*
X73132Y54166D02*
X73591Y54625D01*
X74509D01*
X74969Y54166D01*
Y52330D01*
X74509Y51871D01*
X73591D01*
X73132Y52330D01*
X30773Y51017D02*
X31232Y51476D01*
X32151D01*
X32610Y51017D01*
Y49180D01*
X32151Y48721D01*
X31232D01*
X30773Y49180D01*
X28018Y48721D02*
X29855D01*
X28018Y50558D01*
Y51017D01*
X28477Y51476D01*
X29396D01*
X29855Y51017D01*
X27100D02*
X26641Y51476D01*
X25722D01*
X25263Y51017D01*
Y50558D01*
X25722Y50098D01*
X26182D01*
X25722D01*
X25263Y49639D01*
Y49180D01*
X25722Y48721D01*
X26641D01*
X27100Y49180D01*
X22508Y51017D02*
X22967Y51476D01*
X23886D01*
X24345Y51017D01*
Y49180D01*
X23886Y48721D01*
X22967D01*
X22508Y49180D01*
X176475Y267027D02*
Y264731D01*
X176016Y264272D01*
X175098D01*
X174639Y264731D01*
Y267027D01*
X173720Y264272D02*
X172802D01*
X173261D01*
Y267027D01*
X173720Y266568D01*
X170047Y264272D02*
Y267027D01*
X171424Y265650D01*
X169588D01*
X455184Y253313D02*
X454725Y253772D01*
Y254691D01*
X455184Y255150D01*
X457021D01*
X457480Y254691D01*
Y253772D01*
X457021Y253313D01*
Y252395D02*
X457480Y251936D01*
Y251017D01*
X457021Y250558D01*
X455184D01*
X454725Y251017D01*
Y251936D01*
X455184Y252395D01*
X455643D01*
X456102Y251936D01*
Y250558D01*
X454725Y247803D02*
X455184Y248721D01*
X456102Y249640D01*
X457021D01*
X457480Y249181D01*
Y248262D01*
X457021Y247803D01*
X456562D01*
X456102Y248262D01*
Y249640D01*
X455381Y266207D02*
X454922Y266666D01*
Y267584D01*
X455381Y268043D01*
X457218D01*
X457677Y267584D01*
Y266666D01*
X457218Y266207D01*
Y265288D02*
X457677Y264829D01*
Y263911D01*
X457218Y263452D01*
X455381D01*
X454922Y263911D01*
Y264829D01*
X455381Y265288D01*
X455840D01*
X456299Y264829D01*
Y263452D01*
X454922Y260697D02*
Y262533D01*
X456299D01*
X455840Y261615D01*
Y261156D01*
X456299Y260697D01*
X457218D01*
X457677Y261156D01*
Y262074D01*
X457218Y262533D01*
X454987Y278707D02*
X454528Y279166D01*
Y280084D01*
X454987Y280543D01*
X456824D01*
X457283Y280084D01*
Y279166D01*
X456824Y278707D01*
Y277788D02*
X457283Y277329D01*
Y276411D01*
X456824Y275952D01*
X454987D01*
X454528Y276411D01*
Y277329D01*
X454987Y277788D01*
X455446D01*
X455905Y277329D01*
Y275952D01*
X457283Y273656D02*
X454528D01*
X455905Y275033D01*
Y273197D01*
X63712Y356398D02*
Y359153D01*
X62335D01*
X61876Y358694D01*
Y357776D01*
X62335Y357316D01*
X63712D01*
X62794D02*
X61876Y356398D01*
X59121D02*
X60957D01*
X59121Y358235D01*
Y358694D01*
X59580Y359153D01*
X60498D01*
X60957Y358694D01*
X58202D02*
X57743Y359153D01*
X56825D01*
X56366Y358694D01*
Y358235D01*
X56825Y357776D01*
X56366Y357316D01*
Y356857D01*
X56825Y356398D01*
X57743D01*
X58202Y356857D01*
Y357316D01*
X57743Y357776D01*
X58202Y358235D01*
Y358694D01*
X57743Y357776D02*
X56825D01*
X55447Y356398D02*
Y358235D01*
X54529Y359153D01*
X53611Y358235D01*
Y356398D01*
Y357776D01*
X55447D01*
X417126Y52561D02*
X419422D01*
X419881Y52102D01*
Y51184D01*
X419422Y50725D01*
X417126D01*
X417586Y49806D02*
X417126Y49347D01*
Y48429D01*
X417586Y47969D01*
X418045D01*
X418504Y48429D01*
Y48888D01*
Y48429D01*
X418963Y47969D01*
X419422D01*
X419881Y48429D01*
Y49347D01*
X419422Y49806D01*
X417586Y45214D02*
X417126Y45674D01*
Y46592D01*
X417586Y47051D01*
X419422D01*
X419881Y46592D01*
Y45674D01*
X419422Y45214D01*
X89960Y66140D02*
X87205D01*
Y64762D01*
X87664Y64303D01*
X88583D01*
X89042Y64762D01*
Y66140D01*
Y65221D02*
X89960Y64303D01*
Y63385D02*
Y62466D01*
Y62925D01*
X87205D01*
X87664Y63385D01*
Y61089D02*
X87205Y60630D01*
Y59711D01*
X87664Y59252D01*
X88124D01*
X88583Y59711D01*
Y60171D01*
Y59711D01*
X89042Y59252D01*
X89501D01*
X89960Y59711D01*
Y60630D01*
X89501Y61089D01*
X87664Y58334D02*
X87205Y57875D01*
Y56956D01*
X87664Y56497D01*
X89501D01*
X89960Y56956D01*
Y57875D01*
X89501Y58334D01*
X87664D01*
Y53742D02*
X87205Y54201D01*
Y55120D01*
X87664Y55579D01*
X89501D01*
X89960Y55120D01*
Y54201D01*
X89501Y53742D01*
X93994Y98130D02*
Y100885D01*
X92617D01*
X92157Y100426D01*
Y99508D01*
X92617Y99049D01*
X93994D01*
X93076D02*
X92157Y98130D01*
X91239D02*
X90321D01*
X90780D01*
Y100885D01*
X91239Y100426D01*
X88943D02*
X88484Y100885D01*
X87566D01*
X87107Y100426D01*
Y99967D01*
X87566Y99508D01*
X88025D01*
X87566D01*
X87107Y99049D01*
Y98589D01*
X87566Y98130D01*
X88484D01*
X88943Y98589D01*
X86188Y100426D02*
X85729Y100885D01*
X84811D01*
X84351Y100426D01*
Y98589D01*
X84811Y98130D01*
X85729D01*
X86188Y98589D01*
Y100426D01*
X83433Y100885D02*
Y98130D01*
X82056D01*
X81596Y98589D01*
Y99049D01*
X82056Y99508D01*
X83433D01*
X82056D01*
X81596Y99967D01*
Y100426D01*
X82056Y100885D01*
X83433D01*
X127952Y370274D02*
X125197D01*
Y368896D01*
X125656Y368437D01*
X126575D01*
X127034Y368896D01*
Y370274D01*
Y369355D02*
X127952Y368437D01*
Y367519D02*
Y366600D01*
Y367059D01*
X125197D01*
X125656Y367519D01*
Y365223D02*
X125197Y364763D01*
Y363845D01*
X125656Y363386D01*
X126116D01*
X126575Y363845D01*
Y364304D01*
Y363845D01*
X127034Y363386D01*
X127493D01*
X127952Y363845D01*
Y364763D01*
X127493Y365223D01*
X125656Y362468D02*
X125197Y362009D01*
Y361090D01*
X125656Y360631D01*
X127493D01*
X127952Y361090D01*
Y362009D01*
X127493Y362468D01*
X125656D01*
X127952Y359713D02*
X126116D01*
X125197Y358794D01*
X126116Y357876D01*
X127952D01*
X126575D01*
Y359713D01*
X93994Y104430D02*
Y107185D01*
X92617D01*
X92157Y106725D01*
Y105807D01*
X92617Y105348D01*
X93994D01*
X93076D02*
X92157Y104430D01*
X91239D02*
X90321D01*
X90780D01*
Y107185D01*
X91239Y106725D01*
X87107Y104430D02*
X88943D01*
X87107Y106266D01*
Y106725D01*
X87566Y107185D01*
X88484D01*
X88943Y106725D01*
X86188Y104889D02*
X85729Y104430D01*
X84811D01*
X84351Y104889D01*
Y106725D01*
X84811Y107185D01*
X85729D01*
X86188Y106725D01*
Y106266D01*
X85729Y105807D01*
X84351D01*
X83433Y107185D02*
Y104430D01*
X82056D01*
X81596Y104889D01*
Y105348D01*
X82056Y105807D01*
X83433D01*
X82056D01*
X81596Y106266D01*
Y106725D01*
X82056Y107185D01*
X83433D01*
X121259Y370470D02*
X118504D01*
Y369093D01*
X118964Y368634D01*
X119882D01*
X120341Y369093D01*
Y370470D01*
Y369552D02*
X121259Y368634D01*
Y367715D02*
Y366797D01*
Y367256D01*
X118504D01*
X118964Y367715D01*
X121259Y363583D02*
Y365420D01*
X119423Y363583D01*
X118964D01*
X118504Y364042D01*
Y364960D01*
X118964Y365420D01*
X120800Y362665D02*
X121259Y362205D01*
Y361287D01*
X120800Y360828D01*
X118964D01*
X118504Y361287D01*
Y362205D01*
X118964Y362665D01*
X119423D01*
X119882Y362205D01*
Y360828D01*
X121259Y359910D02*
X119423D01*
X118504Y358991D01*
X119423Y358073D01*
X121259D01*
X119882D01*
Y359910D01*
X157413Y349705D02*
Y352460D01*
X156036D01*
X155577Y352001D01*
Y351083D01*
X156036Y350623D01*
X157413D01*
X156495D02*
X155577Y349705D01*
X154658Y352460D02*
X152822D01*
Y352001D01*
X154658Y350164D01*
Y349705D01*
X150067Y352460D02*
X151903D01*
Y351083D01*
X150985Y351542D01*
X150526D01*
X150067Y351083D01*
Y350164D01*
X150526Y349705D01*
X151444D01*
X151903Y350164D01*
X157413Y355906D02*
Y358661D01*
X156036D01*
X155577Y358202D01*
Y357283D01*
X156036Y356824D01*
X157413D01*
X156495D02*
X155577Y355906D01*
X154658Y358661D02*
X152822D01*
Y358202D01*
X154658Y356365D01*
Y355906D01*
X150526D02*
Y358661D01*
X151903Y357283D01*
X150067D01*
X201279Y364697D02*
X198524D01*
Y363319D01*
X198983Y362860D01*
X199902D01*
X200361Y363319D01*
Y364697D01*
Y363779D02*
X201279Y362860D01*
X198524Y361942D02*
Y360105D01*
X198983D01*
X200820Y361942D01*
X201279D01*
X198983Y359187D02*
X198524Y358728D01*
Y357809D01*
X198983Y357350D01*
X199442D01*
X199902Y357809D01*
Y358269D01*
Y357809D01*
X200361Y357350D01*
X200820D01*
X201279Y357809D01*
Y358728D01*
X200820Y359187D01*
X215287Y344095D02*
Y346850D01*
X213910D01*
X213451Y346391D01*
Y345472D01*
X213910Y345013D01*
X215287D01*
X214369D02*
X213451Y344095D01*
X212532Y346850D02*
X210696D01*
Y346391D01*
X212532Y344554D01*
Y344095D01*
X207941D02*
X209777D01*
X207941Y345932D01*
Y346391D01*
X208400Y346850D01*
X209318D01*
X209777Y346391D01*
X157413Y331497D02*
Y334251D01*
X156036D01*
X155577Y333792D01*
Y332874D01*
X156036Y332415D01*
X157413D01*
X156495D02*
X155577Y331497D01*
X152822Y334251D02*
X153740Y333792D01*
X154658Y332874D01*
Y331956D01*
X154199Y331497D01*
X153281D01*
X152822Y331956D01*
Y332415D01*
X153281Y332874D01*
X154658D01*
X150067Y331497D02*
X151903D01*
X150067Y333333D01*
Y333792D01*
X150526Y334251D01*
X151444D01*
X151903Y333792D01*
X152363Y188516D02*
X155118D01*
Y186679D01*
X154658Y185761D02*
X155118Y185302D01*
Y184383D01*
X154658Y183924D01*
X152822D01*
X152363Y184383D01*
Y185302D01*
X152822Y185761D01*
X153281D01*
X153740Y185302D01*
Y183924D01*
X152822Y181169D02*
X152363Y181628D01*
Y182547D01*
X152822Y183006D01*
X154658D01*
X155118Y182547D01*
Y181628D01*
X154658Y181169D01*
X37500Y188319D02*
X40255D01*
Y186482D01*
X39796Y185564D02*
X40255Y185105D01*
Y184186D01*
X39796Y183727D01*
X37960D01*
X37500Y184186D01*
Y185105D01*
X37960Y185564D01*
X38419D01*
X38878Y185105D01*
Y183727D01*
X37500Y182809D02*
X40255D01*
Y181431D01*
X39796Y180972D01*
X39337D01*
X38878Y181431D01*
Y182809D01*
Y181431D01*
X38419Y180972D01*
X37960D01*
X37500Y181431D01*
Y182809D01*
X25524Y300689D02*
Y297934D01*
X23687D01*
X22769Y298393D02*
X22310Y297934D01*
X21391D01*
X20932Y298393D01*
Y300229D01*
X21391Y300689D01*
X22310D01*
X22769Y300229D01*
Y299770D01*
X22310Y299311D01*
X20932D01*
X20014Y297934D02*
Y299770D01*
X19095Y300689D01*
X18177Y299770D01*
Y297934D01*
Y299311D01*
X20014D01*
X222261Y341921D02*
Y339166D01*
X220424D01*
X219506Y341462D02*
X219046Y341921D01*
X218128D01*
X217669Y341462D01*
Y341003D01*
X218128Y340543D01*
X217669Y340084D01*
Y339625D01*
X218128Y339166D01*
X219046D01*
X219506Y339625D01*
Y340084D01*
X219046Y340543D01*
X219506Y341003D01*
Y341462D01*
X219046Y340543D02*
X218128D01*
X439402Y336515D02*
Y333760D01*
X437566D01*
X436647Y336515D02*
X434810D01*
Y336056D01*
X436647Y334220D01*
Y333760D01*
X84941Y49047D02*
X87696D01*
Y47211D01*
Y44915D02*
X84941D01*
X86319Y46292D01*
Y44456D01*
X85400Y41701D02*
X84941Y42160D01*
Y43078D01*
X85400Y43537D01*
X87237D01*
X87696Y43078D01*
Y42160D01*
X87237Y41701D01*
X81103Y91666D02*
X83858D01*
Y89829D01*
Y87533D02*
X81103D01*
X82480Y88911D01*
Y87074D01*
X81103Y86155D02*
X83858D01*
Y84778D01*
X83399Y84319D01*
X82939D01*
X82480Y84778D01*
Y86155D01*
Y84778D01*
X82021Y84319D01*
X81562D01*
X81103Y84778D01*
Y86155D01*
X136055Y340354D02*
Y337599D01*
X134219D01*
X131923D02*
Y340354D01*
X133300Y338976D01*
X131464D01*
X130545Y337599D02*
Y339436D01*
X129627Y340354D01*
X128709Y339436D01*
Y337599D01*
Y338976D01*
X130545D01*
X434874Y77952D02*
Y75197D01*
X433038D01*
X432119Y77493D02*
X431660Y77952D01*
X430742D01*
X430282Y77493D01*
Y77034D01*
X430742Y76575D01*
X431201D01*
X430742D01*
X430282Y76116D01*
Y75656D01*
X430742Y75197D01*
X431660D01*
X432119Y75656D01*
X427527Y77493D02*
X427987Y77952D01*
X428905D01*
X429364Y77493D01*
Y75656D01*
X428905Y75197D01*
X427987D01*
X427527Y75656D01*
X434874Y144488D02*
Y141733D01*
X433038D01*
X432119Y144029D02*
X431660Y144488D01*
X430742D01*
X430282Y144029D01*
Y143569D01*
X430742Y143110D01*
X431201D01*
X430742D01*
X430282Y142651D01*
Y142192D01*
X430742Y141733D01*
X431660D01*
X432119Y142192D01*
X429364Y144488D02*
Y141733D01*
X427987D01*
X427527Y142192D01*
Y142651D01*
X427987Y143110D01*
X429364D01*
X427987D01*
X427527Y143569D01*
Y144029D01*
X427987Y144488D01*
X429364D01*
X436547Y210826D02*
Y208071D01*
X434711D01*
X433792Y210367D02*
X433333Y210826D01*
X432415D01*
X431956Y210367D01*
Y209908D01*
X432415Y209449D01*
X432874D01*
X432415D01*
X431956Y208990D01*
Y208530D01*
X432415Y208071D01*
X433333D01*
X433792Y208530D01*
X431037Y208071D02*
Y209908D01*
X430119Y210826D01*
X429201Y209908D01*
Y208071D01*
Y209449D01*
X431037D01*
X455676Y293471D02*
X455217Y293930D01*
Y294848D01*
X455676Y295307D01*
X457513D01*
X457972Y294848D01*
Y293930D01*
X457513Y293471D01*
X455676Y292552D02*
X455217Y292093D01*
Y291175D01*
X455676Y290716D01*
X456135D01*
X456595Y291175D01*
X457054Y290716D01*
X457513D01*
X457972Y291175D01*
Y292093D01*
X457513Y292552D01*
X457054D01*
X456595Y292093D01*
X456135Y292552D01*
X455676D01*
X456595Y292093D02*
Y291175D01*
X457972Y288420D02*
X455217D01*
X456595Y289797D01*
Y287961D01*
X454789Y87960D02*
X455248Y87500D01*
X456167D01*
X456626Y87960D01*
Y89796D01*
X456167Y90255D01*
X455248D01*
X454789Y89796D01*
X453871Y87960D02*
X453411Y87500D01*
X452493D01*
X452034Y87960D01*
Y88419D01*
X452493Y88878D01*
X452034Y89337D01*
Y89796D01*
X452493Y90255D01*
X453411D01*
X453871Y89796D01*
Y89337D01*
X453411Y88878D01*
X453871Y88419D01*
Y87960D01*
X453411Y88878D02*
X452493D01*
X451116Y87960D02*
X450656Y87500D01*
X449738D01*
X449279Y87960D01*
Y88419D01*
X449738Y88878D01*
X450197D01*
X449738D01*
X449279Y89337D01*
Y89796D01*
X449738Y90255D01*
X450656D01*
X451116Y89796D01*
X448361Y87500D02*
Y90255D01*
X446983D01*
X446524Y89796D01*
Y89337D01*
X446983Y88878D01*
X448361D01*
X446983D01*
X446524Y88419D01*
Y87960D01*
X446983Y87500D01*
X448361D01*
X454789Y160466D02*
X455248Y160925D01*
X456167D01*
X456626Y160466D01*
Y158629D01*
X456167Y158170D01*
X455248D01*
X454789Y158629D01*
X453871Y160466D02*
X453411Y160925D01*
X452493D01*
X452034Y160466D01*
Y160006D01*
X452493Y159547D01*
X452034Y159088D01*
Y158629D01*
X452493Y158170D01*
X453411D01*
X453871Y158629D01*
Y159088D01*
X453411Y159547D01*
X453871Y160006D01*
Y160466D01*
X453411Y159547D02*
X452493D01*
X451116Y160466D02*
X450657Y160925D01*
X449738D01*
X449279Y160466D01*
Y160006D01*
X449738Y159547D01*
X450197D01*
X449738D01*
X449279Y159088D01*
Y158629D01*
X449738Y158170D01*
X450657D01*
X451116Y158629D01*
X448361Y158170D02*
Y160006D01*
X447442Y160925D01*
X446524Y160006D01*
Y158170D01*
Y159547D01*
X448361D01*
X526981Y382205D02*
Y384960D01*
X525603D01*
X525144Y384501D01*
Y383583D01*
X525603Y383123D01*
X526981D01*
X526063D02*
X525144Y382205D01*
X522389Y384960D02*
X524226D01*
Y383583D01*
X523308Y384042D01*
X522848D01*
X522389Y383583D01*
Y382664D01*
X522848Y382205D01*
X523767D01*
X524226Y382664D01*
X188582Y330905D02*
Y328609D01*
X188122Y328150D01*
X187204D01*
X186745Y328609D01*
Y330905D01*
X185827Y328150D02*
X184908D01*
X185367D01*
Y330905D01*
X185827Y330446D01*
X181694Y328150D02*
X183531D01*
X181694Y329987D01*
Y330446D01*
X182153Y330905D01*
X183071D01*
X183531Y330446D01*
X178575Y367126D02*
Y369881D01*
X177197D01*
X176738Y369422D01*
Y368504D01*
X177197Y368045D01*
X178575D01*
X177657D02*
X176738Y367126D01*
X173983Y369881D02*
X174902Y369422D01*
X175820Y368504D01*
Y367586D01*
X175361Y367126D01*
X174442D01*
X173983Y367586D01*
Y368045D01*
X174442Y368504D01*
X175820D01*
X173065Y369422D02*
X172606Y369881D01*
X171687D01*
X171228Y369422D01*
Y368963D01*
X171687Y368504D01*
X171228Y368045D01*
Y367586D01*
X171687Y367126D01*
X172606D01*
X173065Y367586D01*
Y368045D01*
X172606Y368504D01*
X173065Y368963D01*
Y369422D01*
X172606Y368504D02*
X171687D01*
X198457Y366831D02*
Y369586D01*
X197079D01*
X196620Y369127D01*
Y368209D01*
X197079Y367750D01*
X198457D01*
X197538D02*
X196620Y366831D01*
X193865Y369586D02*
X194783Y369127D01*
X195702Y368209D01*
Y367290D01*
X195243Y366831D01*
X194324D01*
X193865Y367290D01*
Y367750D01*
X194324Y368209D01*
X195702D01*
X192947Y369586D02*
X191110D01*
Y369127D01*
X192947Y367290D01*
Y366831D01*
X157413Y324410D02*
Y327165D01*
X156036D01*
X155577Y326706D01*
Y325787D01*
X156036Y325328D01*
X157413D01*
X156495D02*
X155577Y324410D01*
X152822Y327165D02*
X153740Y326706D01*
X154658Y325787D01*
Y324869D01*
X154199Y324410D01*
X153281D01*
X152822Y324869D01*
Y325328D01*
X153281Y325787D01*
X154658D01*
X151903Y326706D02*
X151444Y327165D01*
X150526D01*
X150067Y326706D01*
Y326247D01*
X150526Y325787D01*
X150985D01*
X150526D01*
X150067Y325328D01*
Y324869D01*
X150526Y324410D01*
X151444D01*
X151903Y324869D01*
X231594Y336777D02*
X228839D01*
Y335400D01*
X229298Y334941D01*
X230217D01*
X230676Y335400D01*
Y336777D01*
Y335859D02*
X231594Y334941D01*
X228839Y332186D02*
X229298Y333104D01*
X230217Y334022D01*
X231135D01*
X231594Y333563D01*
Y332645D01*
X231135Y332186D01*
X230676D01*
X230217Y332645D01*
Y334022D01*
X231594Y331267D02*
Y330349D01*
Y330808D01*
X228839D01*
X229298Y331267D01*
X231102Y357709D02*
X228347D01*
Y356331D01*
X228806Y355872D01*
X229724D01*
X230184Y356331D01*
Y357709D01*
Y356790D02*
X231102Y355872D01*
X228347Y353117D02*
X228806Y354035D01*
X229724Y354954D01*
X230643D01*
X231102Y354495D01*
Y353576D01*
X230643Y353117D01*
X230184D01*
X229724Y353576D01*
Y354954D01*
X228806Y352199D02*
X228347Y351740D01*
Y350821D01*
X228806Y350362D01*
X230643D01*
X231102Y350821D01*
Y351740D01*
X230643Y352199D01*
X228806D01*
X451016Y333760D02*
Y336515D01*
X449638D01*
X449179Y336056D01*
Y335138D01*
X449638Y334679D01*
X451016D01*
X450098D02*
X449179Y333760D01*
X446424Y336515D02*
X448261D01*
Y335138D01*
X447342Y335597D01*
X446883D01*
X446424Y335138D01*
Y334220D01*
X446883Y333760D01*
X447802D01*
X448261Y334220D01*
X445506Y336056D02*
X445047Y336515D01*
X444128D01*
X443669Y336056D01*
Y335597D01*
X444128Y335138D01*
X443669Y334679D01*
Y334220D01*
X444128Y333760D01*
X445047D01*
X445506Y334220D01*
Y334679D01*
X445047Y335138D01*
X445506Y335597D01*
Y336056D01*
X445047Y335138D02*
X444128D01*
X430150Y333760D02*
Y336515D01*
X428772D01*
X428313Y336056D01*
Y335138D01*
X428772Y334679D01*
X430150D01*
X429231D02*
X428313Y333760D01*
X425558Y336515D02*
X427395D01*
Y335138D01*
X426476Y335597D01*
X426017D01*
X425558Y335138D01*
Y334220D01*
X426017Y333760D01*
X426935D01*
X427395Y334220D01*
X424640Y336515D02*
X422803D01*
Y336056D01*
X424640Y334220D01*
Y333760D01*
X457775Y322866D02*
X455020D01*
Y321489D01*
X455479Y321030D01*
X456398D01*
X456857Y321489D01*
Y322866D01*
Y321948D02*
X457775Y321030D01*
X455020Y318275D02*
Y320111D01*
X456398D01*
X455938Y319193D01*
Y318734D01*
X456398Y318275D01*
X457316D01*
X457775Y318734D01*
Y319652D01*
X457316Y320111D01*
X455020Y315519D02*
X455479Y316438D01*
X456398Y317356D01*
X457316D01*
X457775Y316897D01*
Y315979D01*
X457316Y315519D01*
X456857D01*
X456398Y315979D01*
Y317356D01*
X419783Y322965D02*
X417028D01*
Y321587D01*
X417487Y321128D01*
X418405D01*
X418865Y321587D01*
Y322965D01*
Y322046D02*
X419783Y321128D01*
X417028Y318373D02*
Y320210D01*
X418405D01*
X417946Y319291D01*
Y318832D01*
X418405Y318373D01*
X419324D01*
X419783Y318832D01*
Y319750D01*
X419324Y320210D01*
X417028Y315618D02*
Y317455D01*
X418405D01*
X417946Y316536D01*
Y316077D01*
X418405Y315618D01*
X419324D01*
X419783Y316077D01*
Y316996D01*
X419324Y317455D01*
X430839Y282186D02*
Y284941D01*
X429461D01*
X429002Y284481D01*
Y283563D01*
X429461Y283104D01*
X430839D01*
X429920D02*
X429002Y282186D01*
X426247Y284941D02*
X428084D01*
Y283563D01*
X427165Y284022D01*
X426706D01*
X426247Y283563D01*
Y282645D01*
X426706Y282186D01*
X427625D01*
X428084Y282645D01*
X423951Y282186D02*
Y284941D01*
X425329Y283563D01*
X423492D01*
X450917Y282186D02*
Y284941D01*
X449540D01*
X449081Y284481D01*
Y283563D01*
X449540Y283104D01*
X450917D01*
X449999D02*
X449081Y282186D01*
X446326Y284941D02*
X448162D01*
Y283563D01*
X447244Y284022D01*
X446785D01*
X446326Y283563D01*
Y282645D01*
X446785Y282186D01*
X447703D01*
X448162Y282645D01*
X445407Y284481D02*
X444948Y284941D01*
X444030D01*
X443571Y284481D01*
Y284022D01*
X444030Y283563D01*
X444489D01*
X444030D01*
X443571Y283104D01*
Y282645D01*
X444030Y282186D01*
X444948D01*
X445407Y282645D01*
X212303Y198653D02*
X209548D01*
Y197276D01*
X210007Y196817D01*
X210925D01*
X211384Y197276D01*
Y198653D01*
Y197735D02*
X212303Y196817D01*
Y194521D02*
X209548D01*
X210925Y195898D01*
Y194062D01*
X210007Y193143D02*
X209548Y192684D01*
Y191766D01*
X210007Y191306D01*
X210466D01*
X210925Y191766D01*
Y192225D01*
Y191766D01*
X211384Y191306D01*
X211843D01*
X212303Y191766D01*
Y192684D01*
X211843Y193143D01*
X210007Y188551D02*
X209548Y189011D01*
Y189929D01*
X210007Y190388D01*
X211843D01*
X212303Y189929D01*
Y189011D01*
X211843Y188551D01*
X96161Y198653D02*
X93406D01*
Y197276D01*
X93865Y196817D01*
X94783D01*
X95243Y197276D01*
Y198653D01*
Y197735D02*
X96161Y196817D01*
Y194521D02*
X93406D01*
X94783Y195898D01*
Y194062D01*
X93865Y193143D02*
X93406Y192684D01*
Y191766D01*
X93865Y191306D01*
X94324D01*
X94783Y191766D01*
Y192225D01*
Y191766D01*
X95243Y191306D01*
X95702D01*
X96161Y191766D01*
Y192684D01*
X95702Y193143D01*
X93406Y190388D02*
X96161D01*
Y189011D01*
X95702Y188551D01*
X95243D01*
X94783Y189011D01*
Y190388D01*
Y189011D01*
X94324Y188551D01*
X93865D01*
X93406Y189011D01*
Y190388D01*
X85629Y310071D02*
X82875D01*
Y308693D01*
X83334Y308234D01*
X84252D01*
X84711Y308693D01*
Y310071D01*
Y309152D02*
X85629Y308234D01*
Y305938D02*
X82875D01*
X84252Y307315D01*
Y305479D01*
X83334Y304560D02*
X82875Y304101D01*
Y303183D01*
X83334Y302724D01*
X83793D01*
X84252Y303183D01*
Y303642D01*
Y303183D01*
X84711Y302724D01*
X85170D01*
X85629Y303183D01*
Y304101D01*
X85170Y304560D01*
X85629Y301805D02*
X83793D01*
X82875Y300887D01*
X83793Y299969D01*
X85629D01*
X84252D01*
Y301805D01*
X162598Y205740D02*
X159843D01*
Y204362D01*
X160302Y203903D01*
X161221D01*
X161680Y204362D01*
Y205740D01*
Y204821D02*
X162598Y203903D01*
X160302Y202985D02*
X159843Y202526D01*
Y201607D01*
X160302Y201148D01*
X160761D01*
X161221Y201607D01*
Y202066D01*
Y201607D01*
X161680Y201148D01*
X162139D01*
X162598Y201607D01*
Y202526D01*
X162139Y202985D01*
X159843Y198393D02*
Y200230D01*
X161221D01*
X160761Y199311D01*
Y198852D01*
X161221Y198393D01*
X162139D01*
X162598Y198852D01*
Y199771D01*
X162139Y200230D01*
X160302Y195638D02*
X159843Y196097D01*
Y197016D01*
X160302Y197475D01*
X162139D01*
X162598Y197016D01*
Y196097D01*
X162139Y195638D01*
X43897Y205740D02*
X41142D01*
Y204362D01*
X41601Y203903D01*
X42520D01*
X42979Y204362D01*
Y205740D01*
Y204821D02*
X43897Y203903D01*
X41601Y202985D02*
X41142Y202526D01*
Y201607D01*
X41601Y201148D01*
X42061D01*
X42520Y201607D01*
Y202066D01*
Y201607D01*
X42979Y201148D01*
X43438D01*
X43897Y201607D01*
Y202526D01*
X43438Y202985D01*
X41142Y198393D02*
Y200230D01*
X42520D01*
X42061Y199311D01*
Y198852D01*
X42520Y198393D01*
X43438D01*
X43897Y198852D01*
Y199771D01*
X43438Y200230D01*
X41142Y197475D02*
X43897D01*
Y196097D01*
X43438Y195638D01*
X42979D01*
X42520Y196097D01*
Y197475D01*
Y196097D01*
X42061Y195638D01*
X41601D01*
X41142Y196097D01*
Y197475D01*
X36310Y317346D02*
X33555D01*
Y315969D01*
X34015Y315509D01*
X34933D01*
X35392Y315969D01*
Y317346D01*
Y316428D02*
X36310Y315509D01*
X34015Y314591D02*
X33555Y314132D01*
Y313213D01*
X34015Y312754D01*
X34474D01*
X34933Y313213D01*
Y313673D01*
Y313213D01*
X35392Y312754D01*
X35851D01*
X36310Y313213D01*
Y314132D01*
X35851Y314591D01*
X33555Y309999D02*
Y311836D01*
X34933D01*
X34474Y310918D01*
Y310458D01*
X34933Y309999D01*
X35851D01*
X36310Y310458D01*
Y311377D01*
X35851Y311836D01*
X36310Y309081D02*
X34474D01*
X33555Y308163D01*
X34474Y307244D01*
X36310D01*
X34933D01*
Y309081D01*
X180216Y205740D02*
X177461D01*
Y204362D01*
X177920Y203903D01*
X178839D01*
X179298Y204362D01*
Y205740D01*
Y204821D02*
X180216Y203903D01*
X177920Y202985D02*
X177461Y202526D01*
Y201607D01*
X177920Y201148D01*
X178379D01*
X178839Y201607D01*
Y202066D01*
Y201607D01*
X179298Y201148D01*
X179757D01*
X180216Y201607D01*
Y202526D01*
X179757Y202985D01*
X180216Y198852D02*
X177461D01*
X178839Y200230D01*
Y198393D01*
X177920Y195638D02*
X177461Y196097D01*
Y197016D01*
X177920Y197475D01*
X179757D01*
X180216Y197016D01*
Y196097D01*
X179757Y195638D01*
X62696Y205740D02*
X59941D01*
Y204362D01*
X60400Y203903D01*
X61319D01*
X61778Y204362D01*
Y205740D01*
Y204821D02*
X62696Y203903D01*
X60400Y202985D02*
X59941Y202526D01*
Y201607D01*
X60400Y201148D01*
X60860D01*
X61319Y201607D01*
Y202066D01*
Y201607D01*
X61778Y201148D01*
X62237D01*
X62696Y201607D01*
Y202526D01*
X62237Y202985D01*
X62696Y198852D02*
X59941D01*
X61319Y200230D01*
Y198393D01*
X59941Y197475D02*
X62696D01*
Y196097D01*
X62237Y195638D01*
X61778D01*
X61319Y196097D01*
Y197475D01*
Y196097D01*
X60860Y195638D01*
X60400D01*
X59941Y196097D01*
Y197475D01*
X54055Y317315D02*
X51300D01*
Y315937D01*
X51759Y315478D01*
X52677D01*
X53136Y315937D01*
Y317315D01*
Y316396D02*
X54055Y315478D01*
X51759Y314560D02*
X51300Y314100D01*
Y313182D01*
X51759Y312723D01*
X52218D01*
X52677Y313182D01*
Y313641D01*
Y313182D01*
X53136Y312723D01*
X53596D01*
X54055Y313182D01*
Y314100D01*
X53596Y314560D01*
X54055Y310427D02*
X51300D01*
X52677Y311805D01*
Y309968D01*
X54055Y309050D02*
X52218D01*
X51300Y308131D01*
X52218Y307213D01*
X54055D01*
X52677D01*
Y309050D01*
X198949Y195768D02*
Y198523D01*
X197571D01*
X197112Y198064D01*
Y197146D01*
X197571Y196686D01*
X198949D01*
X198030D02*
X197112Y195768D01*
X196194Y198064D02*
X195734Y198523D01*
X194816D01*
X194357Y198064D01*
Y197605D01*
X194816Y197146D01*
X195275D01*
X194816D01*
X194357Y196686D01*
Y196227D01*
X194816Y195768D01*
X195734D01*
X196194Y196227D01*
X193438Y198064D02*
X192979Y198523D01*
X192061D01*
X191602Y198064D01*
Y197605D01*
X192061Y197146D01*
X192520D01*
X192061D01*
X191602Y196686D01*
Y196227D01*
X192061Y195768D01*
X192979D01*
X193438Y196227D01*
X188847Y198064D02*
X189306Y198523D01*
X190224D01*
X190683Y198064D01*
Y196227D01*
X190224Y195768D01*
X189306D01*
X188847Y196227D01*
X80543Y195768D02*
Y198523D01*
X79166D01*
X78706Y198064D01*
Y197146D01*
X79166Y196686D01*
X80543D01*
X79625D02*
X78706Y195768D01*
X77788Y198064D02*
X77329Y198523D01*
X76411D01*
X75951Y198064D01*
Y197605D01*
X76411Y197146D01*
X76870D01*
X76411D01*
X75951Y196686D01*
Y196227D01*
X76411Y195768D01*
X77329D01*
X77788Y196227D01*
X75033Y198064D02*
X74574Y198523D01*
X73655D01*
X73196Y198064D01*
Y197605D01*
X73655Y197146D01*
X74115D01*
X73655D01*
X73196Y196686D01*
Y196227D01*
X73655Y195768D01*
X74574D01*
X75033Y196227D01*
X72278Y198523D02*
Y195768D01*
X70900D01*
X70441Y196227D01*
Y196686D01*
X70900Y197146D01*
X72278D01*
X70900D01*
X70441Y197605D01*
Y198064D01*
X70900Y198523D01*
X72278D01*
X73260Y307678D02*
Y310433D01*
X71882D01*
X71423Y309974D01*
Y309055D01*
X71882Y308596D01*
X73260D01*
X72341D02*
X71423Y307678D01*
X70504Y309974D02*
X70045Y310433D01*
X69127D01*
X68668Y309974D01*
Y309514D01*
X69127Y309055D01*
X69586D01*
X69127D01*
X68668Y308596D01*
Y308137D01*
X69127Y307678D01*
X70045D01*
X70504Y308137D01*
X67750Y309974D02*
X67290Y310433D01*
X66372D01*
X65913Y309974D01*
Y309514D01*
X66372Y309055D01*
X66831D01*
X66372D01*
X65913Y308596D01*
Y308137D01*
X66372Y307678D01*
X67290D01*
X67750Y308137D01*
X64995Y307678D02*
Y309514D01*
X64076Y310433D01*
X63158Y309514D01*
Y307678D01*
Y309055D01*
X64995D01*
X212303Y179165D02*
X209548D01*
Y177787D01*
X210007Y177328D01*
X210925D01*
X211384Y177787D01*
Y179165D01*
Y178247D02*
X212303Y177328D01*
X210007Y176410D02*
X209548Y175951D01*
Y175032D01*
X210007Y174573D01*
X210466D01*
X210925Y175032D01*
Y175492D01*
Y175032D01*
X211384Y174573D01*
X211843D01*
X212303Y175032D01*
Y175951D01*
X211843Y176410D01*
X210007Y173655D02*
X209548Y173196D01*
Y172277D01*
X210007Y171818D01*
X211843D01*
X212303Y172277D01*
Y173196D01*
X211843Y173655D01*
X210007D01*
Y169063D02*
X209548Y169523D01*
Y170441D01*
X210007Y170900D01*
X211843D01*
X212303Y170441D01*
Y169523D01*
X211843Y169063D01*
X96161Y180149D02*
X93406D01*
Y178772D01*
X93865Y178313D01*
X94784D01*
X95243Y178772D01*
Y180149D01*
Y179231D02*
X96161Y178313D01*
X93865Y177394D02*
X93406Y176935D01*
Y176017D01*
X93865Y175558D01*
X94324D01*
X94784Y176017D01*
Y176476D01*
Y176017D01*
X95243Y175558D01*
X95702D01*
X96161Y176017D01*
Y176935D01*
X95702Y177394D01*
X93865Y174639D02*
X93406Y174180D01*
Y173262D01*
X93865Y172803D01*
X95702D01*
X96161Y173262D01*
Y174180D01*
X95702Y174639D01*
X93865D01*
X93406Y171884D02*
X96161D01*
Y170507D01*
X95702Y170048D01*
X95243D01*
X94784Y170507D01*
Y171884D01*
Y170507D01*
X94324Y170048D01*
X93865D01*
X93406Y170507D01*
Y171884D01*
X83988Y288583D02*
Y291338D01*
X82610D01*
X82151Y290879D01*
Y289961D01*
X82610Y289502D01*
X83988D01*
X83069D02*
X82151Y288583D01*
X81233Y290879D02*
X80774Y291338D01*
X79855D01*
X79396Y290879D01*
Y290420D01*
X79855Y289961D01*
X80314D01*
X79855D01*
X79396Y289502D01*
Y289042D01*
X79855Y288583D01*
X80774D01*
X81233Y289042D01*
X78478Y290879D02*
X78019Y291338D01*
X77100D01*
X76641Y290879D01*
Y289042D01*
X77100Y288583D01*
X78019D01*
X78478Y289042D01*
Y290879D01*
X75723Y288583D02*
Y290420D01*
X74805Y291338D01*
X73886Y290420D01*
Y288583D01*
Y289961D01*
X75723D01*
X196850Y174637D02*
X194095D01*
Y173260D01*
X194554Y172801D01*
X195472D01*
X195932Y173260D01*
Y174637D01*
Y173719D02*
X196850Y172801D01*
Y170046D02*
Y171882D01*
X195013Y170046D01*
X194554D01*
X194095Y170505D01*
Y171423D01*
X194554Y171882D01*
X196391Y169127D02*
X196850Y168668D01*
Y167750D01*
X196391Y167291D01*
X194554D01*
X194095Y167750D01*
Y168668D01*
X194554Y169127D01*
X195013D01*
X195472Y168668D01*
Y167291D01*
X194554Y164536D02*
X194095Y164995D01*
Y165913D01*
X194554Y166372D01*
X196391D01*
X196850Y165913D01*
Y164995D01*
X196391Y164536D01*
X79133Y174637D02*
X76378D01*
Y173260D01*
X76838Y172801D01*
X77756D01*
X78215Y173260D01*
Y174637D01*
Y173719D02*
X79133Y172801D01*
Y170046D02*
Y171882D01*
X77297Y170046D01*
X76838D01*
X76378Y170505D01*
Y171423D01*
X76838Y171882D01*
X78674Y169127D02*
X79133Y168668D01*
Y167750D01*
X78674Y167291D01*
X76838D01*
X76378Y167750D01*
Y168668D01*
X76838Y169127D01*
X77297D01*
X77756Y168668D01*
Y167291D01*
X76378Y166372D02*
X79133D01*
Y164995D01*
X78674Y164536D01*
X78215D01*
X77756Y164995D01*
Y166372D01*
Y164995D01*
X77297Y164536D01*
X76838D01*
X76378Y164995D01*
Y166372D01*
X73260Y283859D02*
Y286614D01*
X71882D01*
X71423Y286155D01*
Y285236D01*
X71882Y284777D01*
X73260D01*
X72341D02*
X71423Y283859D01*
X68668D02*
X70504D01*
X68668Y285695D01*
Y286155D01*
X69127Y286614D01*
X70045D01*
X70504Y286155D01*
X67750Y284318D02*
X67290Y283859D01*
X66372D01*
X65913Y284318D01*
Y286155D01*
X66372Y286614D01*
X67290D01*
X67750Y286155D01*
Y285695D01*
X67290Y285236D01*
X65913D01*
X64995Y283859D02*
Y285695D01*
X64076Y286614D01*
X63158Y285695D01*
Y283859D01*
Y285236D01*
X64995D01*
X13712Y63386D02*
Y66141D01*
X12335D01*
X11876Y65682D01*
Y64764D01*
X12335Y64305D01*
X13712D01*
X12794D02*
X11876Y63386D01*
X9121D02*
X10957D01*
X9121Y65223D01*
Y65682D01*
X9580Y66141D01*
X10498D01*
X10957Y65682D01*
X8202D02*
X7743Y66141D01*
X6825D01*
X6366Y65682D01*
Y65223D01*
X6825Y64764D01*
X6366Y64305D01*
Y63845D01*
X6825Y63386D01*
X7743D01*
X8202Y63845D01*
Y64305D01*
X7743Y64764D01*
X8202Y65223D01*
Y65682D01*
X7743Y64764D02*
X6825D01*
X3610Y65682D02*
X4070Y66141D01*
X4988D01*
X5447Y65682D01*
Y63845D01*
X4988Y63386D01*
X4070D01*
X3610Y63845D01*
X25326Y104823D02*
Y107578D01*
X23949D01*
X23490Y107119D01*
Y106201D01*
X23949Y105742D01*
X25326D01*
X24408D02*
X23490Y104823D01*
X20735D02*
X22571D01*
X20735Y106660D01*
Y107119D01*
X21194Y107578D01*
X22112D01*
X22571Y107119D01*
X19816D02*
X19357Y107578D01*
X18439D01*
X17980Y107119D01*
Y106660D01*
X18439Y106201D01*
X17980Y105742D01*
Y105282D01*
X18439Y104823D01*
X19357D01*
X19816Y105282D01*
Y105742D01*
X19357Y106201D01*
X19816Y106660D01*
Y107119D01*
X19357Y106201D02*
X18439D01*
X17061Y107578D02*
Y104823D01*
X15684D01*
X15225Y105282D01*
Y105742D01*
X15684Y106201D01*
X17061D01*
X15684D01*
X15225Y106660D01*
Y107119D01*
X15684Y107578D01*
X17061D01*
X13909Y56693D02*
Y59448D01*
X12532D01*
X12072Y58989D01*
Y58071D01*
X12532Y57612D01*
X13909D01*
X12991D02*
X12072Y56693D01*
X9317D02*
X11154D01*
X9317Y58530D01*
Y58989D01*
X9777Y59448D01*
X10695D01*
X11154Y58989D01*
X8399Y59448D02*
X6562D01*
Y58989D01*
X8399Y57152D01*
Y56693D01*
X3807Y58989D02*
X4267Y59448D01*
X5185D01*
X5644Y58989D01*
Y57152D01*
X5185Y56693D01*
X4267D01*
X3807Y57152D01*
X25622Y98130D02*
Y100885D01*
X24244D01*
X23785Y100426D01*
Y99508D01*
X24244Y99049D01*
X25622D01*
X24703D02*
X23785Y98130D01*
X21030D02*
X22867D01*
X21030Y99967D01*
Y100426D01*
X21489Y100885D01*
X22408D01*
X22867Y100426D01*
X20112Y100885D02*
X18275D01*
Y100426D01*
X20112Y98589D01*
Y98130D01*
X17357Y100885D02*
Y98130D01*
X15979D01*
X15520Y98589D01*
Y99049D01*
X15979Y99508D01*
X17357D01*
X15979D01*
X15520Y99967D01*
Y100426D01*
X15979Y100885D01*
X17357D01*
X63712Y349725D02*
Y352480D01*
X62335D01*
X61876Y352021D01*
Y351102D01*
X62335Y350643D01*
X63712D01*
X62794D02*
X61876Y349725D01*
X59121D02*
X60957D01*
X59121Y351561D01*
Y352021D01*
X59580Y352480D01*
X60498D01*
X60957Y352021D01*
X58202Y352480D02*
X56366D01*
Y352021D01*
X58202Y350184D01*
Y349725D01*
X55447D02*
Y351561D01*
X54529Y352480D01*
X53611Y351561D01*
Y349725D01*
Y351102D01*
X55447D01*
X50523Y75000D02*
Y77755D01*
X49146D01*
X48687Y77296D01*
Y76378D01*
X49146Y75919D01*
X50523D01*
X49605D02*
X48687Y75000D01*
X45932D02*
X47768D01*
X45932Y76837D01*
Y77296D01*
X46391Y77755D01*
X47309D01*
X47768Y77296D01*
X43177Y77755D02*
X44095Y77296D01*
X45013Y76378D01*
Y75460D01*
X44554Y75000D01*
X43636D01*
X43177Y75460D01*
Y75919D01*
X43636Y76378D01*
X45013D01*
X40422Y77296D02*
X40881Y77755D01*
X41799D01*
X42258Y77296D01*
Y75460D01*
X41799Y75000D01*
X40881D01*
X40422Y75460D01*
X48653Y114764D02*
Y117519D01*
X47276D01*
X46817Y117060D01*
Y116142D01*
X47276Y115683D01*
X48653D01*
X47735D02*
X46817Y114764D01*
X44061D02*
X45898D01*
X44061Y116601D01*
Y117060D01*
X44521Y117519D01*
X45439D01*
X45898Y117060D01*
X41306Y117519D02*
X42225Y117060D01*
X43143Y116142D01*
Y115223D01*
X42684Y114764D01*
X41766D01*
X41306Y115223D01*
Y115683D01*
X41766Y116142D01*
X43143D01*
X40388Y117519D02*
Y114764D01*
X39011D01*
X38552Y115223D01*
Y115683D01*
X39011Y116142D01*
X40388D01*
X39011D01*
X38552Y116601D01*
Y117060D01*
X39011Y117519D01*
X40388D01*
X92452Y360827D02*
Y363582D01*
X91075D01*
X90616Y363123D01*
Y362205D01*
X91075Y361746D01*
X92452D01*
X91534D02*
X90616Y360827D01*
X87861D02*
X89697D01*
X87861Y362664D01*
Y363123D01*
X88320Y363582D01*
X89238D01*
X89697Y363123D01*
X85106Y363582D02*
X86024Y363123D01*
X86942Y362205D01*
Y361286D01*
X86483Y360827D01*
X85565D01*
X85106Y361286D01*
Y361746D01*
X85565Y362205D01*
X86942D01*
X84187Y360827D02*
Y362664D01*
X83269Y363582D01*
X82351Y362664D01*
Y360827D01*
Y362205D01*
X84187D01*
X66075Y75296D02*
Y78051D01*
X64697D01*
X64238Y77592D01*
Y76673D01*
X64697Y76214D01*
X66075D01*
X65156D02*
X64238Y75296D01*
X61483D02*
X63319D01*
X61483Y77132D01*
Y77592D01*
X61942Y78051D01*
X62860D01*
X63319Y77592D01*
X58728Y78051D02*
X60564D01*
Y76673D01*
X59646Y77132D01*
X59187D01*
X58728Y76673D01*
Y75755D01*
X59187Y75296D01*
X60105D01*
X60564Y75755D01*
X55973Y77592D02*
X56432Y78051D01*
X57350D01*
X57809Y77592D01*
Y75755D01*
X57350Y75296D01*
X56432D01*
X55973Y75755D01*
X67649Y114764D02*
Y117519D01*
X66272D01*
X65813Y117060D01*
Y116142D01*
X66272Y115683D01*
X67649D01*
X66731D02*
X65813Y114764D01*
X63058D02*
X64894D01*
X63058Y116601D01*
Y117060D01*
X63517Y117519D01*
X64435D01*
X64894Y117060D01*
X60303Y117519D02*
X62139D01*
Y116142D01*
X61221Y116601D01*
X60762D01*
X60303Y116142D01*
Y115223D01*
X60762Y114764D01*
X61680D01*
X62139Y115223D01*
X59384Y117519D02*
Y114764D01*
X58007D01*
X57548Y115223D01*
Y115683D01*
X58007Y116142D01*
X59384D01*
X58007D01*
X57548Y116601D01*
Y117060D01*
X58007Y117519D01*
X59384D01*
X108791Y360630D02*
Y363385D01*
X107413D01*
X106954Y362926D01*
Y362008D01*
X107413Y361549D01*
X108791D01*
X107873D02*
X106954Y360630D01*
X104199D02*
X106036D01*
X104199Y362467D01*
Y362926D01*
X104658Y363385D01*
X105577D01*
X106036Y362926D01*
X101444Y363385D02*
X103281D01*
Y362008D01*
X102363Y362467D01*
X101903D01*
X101444Y362008D01*
Y361089D01*
X101903Y360630D01*
X102822D01*
X103281Y361089D01*
X100526Y360630D02*
Y362467D01*
X99608Y363385D01*
X98689Y362467D01*
Y360630D01*
Y362008D01*
X100526D01*
X29921Y32413D02*
X27166D01*
Y31036D01*
X27625Y30576D01*
X28543D01*
X29002Y31036D01*
Y32413D01*
Y31495D02*
X29921Y30576D01*
Y27821D02*
Y29658D01*
X28084Y27821D01*
X27625D01*
X27166Y28280D01*
Y29199D01*
X27625Y29658D01*
X29921Y25526D02*
X27166D01*
X28543Y26903D01*
Y25066D01*
X27625Y22311D02*
X27166Y22771D01*
Y23689D01*
X27625Y24148D01*
X29462D01*
X29921Y23689D01*
Y22771D01*
X29462Y22311D01*
X13515Y75099D02*
Y77854D01*
X12138D01*
X11679Y77395D01*
Y76476D01*
X12138Y76017D01*
X13515D01*
X12597D02*
X11679Y75099D01*
X8924D02*
X10760D01*
X8924Y76936D01*
Y77395D01*
X9383Y77854D01*
X10301D01*
X10760Y77395D01*
X6628Y75099D02*
Y77854D01*
X8005Y76476D01*
X6169D01*
X5250Y77854D02*
Y75099D01*
X3873D01*
X3414Y75558D01*
Y76017D01*
X3873Y76476D01*
X5250D01*
X3873D01*
X3414Y76936D01*
Y77395D01*
X3873Y77854D01*
X5250D01*
X66665Y331890D02*
Y334645D01*
X65288D01*
X64828Y334186D01*
Y333268D01*
X65288Y332809D01*
X66665D01*
X65747D02*
X64828Y331890D01*
X62073D02*
X63910D01*
X62073Y333727D01*
Y334186D01*
X62533Y334645D01*
X63451D01*
X63910Y334186D01*
X59777Y331890D02*
Y334645D01*
X61155Y333268D01*
X59318D01*
X58400Y331890D02*
Y333727D01*
X57482Y334645D01*
X56563Y333727D01*
Y331890D01*
Y333268D01*
X58400D01*
X36220Y32413D02*
X33465D01*
Y31036D01*
X33924Y30576D01*
X34843D01*
X35302Y31036D01*
Y32413D01*
Y31495D02*
X36220Y30576D01*
Y27821D02*
Y29658D01*
X34383Y27821D01*
X33924D01*
X33465Y28280D01*
Y29199D01*
X33924Y29658D01*
Y26903D02*
X33465Y26444D01*
Y25526D01*
X33924Y25066D01*
X34383D01*
X34843Y25526D01*
Y25985D01*
Y25526D01*
X35302Y25066D01*
X35761D01*
X36220Y25526D01*
Y26444D01*
X35761Y26903D01*
X33924Y22311D02*
X33465Y22771D01*
Y23689D01*
X33924Y24148D01*
X35761D01*
X36220Y23689D01*
Y22771D01*
X35761Y22311D01*
X13614Y79626D02*
Y82381D01*
X12236D01*
X11777Y81922D01*
Y81004D01*
X12236Y80545D01*
X13614D01*
X12696D02*
X11777Y79626D01*
X9022D02*
X10859D01*
X9022Y81463D01*
Y81922D01*
X9481Y82381D01*
X10400D01*
X10859Y81922D01*
X8104D02*
X7645Y82381D01*
X6726D01*
X6267Y81922D01*
Y81463D01*
X6726Y81004D01*
X7186D01*
X6726D01*
X6267Y80545D01*
Y80086D01*
X6726Y79626D01*
X7645D01*
X8104Y80086D01*
X5349Y82381D02*
Y79626D01*
X3971D01*
X3512Y80086D01*
Y80545D01*
X3971Y81004D01*
X5349D01*
X3971D01*
X3512Y81463D01*
Y81922D01*
X3971Y82381D01*
X5349D01*
X66862Y324804D02*
Y327559D01*
X65484D01*
X65025Y327099D01*
Y326181D01*
X65484Y325722D01*
X66862D01*
X65944D02*
X65025Y324804D01*
X62270D02*
X64107D01*
X62270Y326640D01*
Y327099D01*
X62729Y327559D01*
X63648D01*
X64107Y327099D01*
X61352D02*
X60893Y327559D01*
X59974D01*
X59515Y327099D01*
Y326640D01*
X59974Y326181D01*
X60434D01*
X59974D01*
X59515Y325722D01*
Y325263D01*
X59974Y324804D01*
X60893D01*
X61352Y325263D01*
X58597Y324804D02*
Y326640D01*
X57679Y327559D01*
X56760Y326640D01*
Y324804D01*
Y326181D01*
X58597D01*
X90452Y26409D02*
X87697D01*
Y25032D01*
X88156Y24573D01*
X89075D01*
X89534Y25032D01*
Y26409D01*
Y25491D02*
X90452Y24573D01*
Y21817D02*
Y23654D01*
X88616Y21817D01*
X88156D01*
X87697Y22277D01*
Y23195D01*
X88156Y23654D01*
X90452Y19062D02*
Y20899D01*
X88616Y19062D01*
X88156D01*
X87697Y19522D01*
Y20440D01*
X88156Y20899D01*
Y16307D02*
X87697Y16767D01*
Y17685D01*
X88156Y18144D01*
X89993D01*
X90452Y17685D01*
Y16767D01*
X89993Y16307D01*
X95570Y89992D02*
X92815D01*
Y88614D01*
X93275Y88155D01*
X94193D01*
X94652Y88614D01*
Y89992D01*
Y89073D02*
X95570Y88155D01*
Y85400D02*
Y87237D01*
X93734Y85400D01*
X93275D01*
X92815Y85859D01*
Y86778D01*
X93275Y87237D01*
X95570Y82645D02*
Y84482D01*
X93734Y82645D01*
X93275D01*
X92815Y83104D01*
Y84023D01*
X93275Y84482D01*
X92815Y81727D02*
X95570D01*
Y80349D01*
X95111Y79890D01*
X94652D01*
X94193Y80349D01*
Y81727D01*
Y80349D01*
X93734Y79890D01*
X93275D01*
X92815Y80349D01*
Y81727D01*
X125590Y320110D02*
X122835D01*
Y318732D01*
X123294Y318273D01*
X124213D01*
X124672Y318732D01*
Y320110D01*
Y319192D02*
X125590Y318273D01*
Y315518D02*
Y317355D01*
X123753Y315518D01*
X123294D01*
X122835Y315977D01*
Y316896D01*
X123294Y317355D01*
X125590Y312763D02*
Y314600D01*
X123753Y312763D01*
X123294D01*
X122835Y313222D01*
Y314141D01*
X123294Y314600D01*
X125590Y311845D02*
X123753D01*
X122835Y310927D01*
X123753Y310008D01*
X125590D01*
X124213D01*
Y311845D01*
X91535Y89762D02*
X88780D01*
Y88385D01*
X89239Y87925D01*
X90158D01*
X90617Y88385D01*
Y89762D01*
Y88844D02*
X91535Y87925D01*
Y85171D02*
Y87007D01*
X89698Y85171D01*
X89239D01*
X88780Y85630D01*
Y86548D01*
X89239Y87007D01*
X91535Y84252D02*
Y83334D01*
Y83793D01*
X88780D01*
X89239Y84252D01*
X88780Y81956D02*
X91535D01*
Y80579D01*
X91076Y80120D01*
X90617D01*
X90158Y80579D01*
Y81956D01*
Y80579D01*
X89698Y80120D01*
X89239D01*
X88780Y80579D01*
Y81956D01*
X132185Y320077D02*
X129430D01*
Y318700D01*
X129889Y318240D01*
X130807D01*
X131266Y318700D01*
Y320077D01*
Y319159D02*
X132185Y318240D01*
Y315486D02*
Y317322D01*
X130348Y315486D01*
X129889D01*
X129430Y315945D01*
Y316863D01*
X129889Y317322D01*
X132185Y314567D02*
Y313649D01*
Y314108D01*
X129430D01*
X129889Y314567D01*
X132185Y312271D02*
X130348D01*
X129430Y311353D01*
X130348Y310435D01*
X132185D01*
X130807D01*
Y312271D01*
X408759Y42846D02*
X406004D01*
Y41469D01*
X406463Y41010D01*
X407382D01*
X407841Y41469D01*
Y42846D01*
Y41928D02*
X408759Y41010D01*
Y38254D02*
Y40091D01*
X406923Y38254D01*
X406463D01*
X406004Y38714D01*
Y39632D01*
X406463Y40091D01*
Y37336D02*
X406004Y36877D01*
Y35959D01*
X406463Y35499D01*
X408300D01*
X408759Y35959D01*
Y36877D01*
X408300Y37336D01*
X406463D01*
Y32744D02*
X406004Y33204D01*
Y34122D01*
X406463Y34581D01*
X408300D01*
X408759Y34122D01*
Y33204D01*
X408300Y32744D01*
X408759Y112827D02*
X406004D01*
Y111449D01*
X406463Y110990D01*
X407382D01*
X407841Y111449D01*
Y112827D01*
Y111908D02*
X408759Y110990D01*
Y108235D02*
Y110071D01*
X406923Y108235D01*
X406463D01*
X406004Y108694D01*
Y109612D01*
X406463Y110071D01*
Y107316D02*
X406004Y106857D01*
Y105939D01*
X406463Y105480D01*
X408300D01*
X408759Y105939D01*
Y106857D01*
X408300Y107316D01*
X406463D01*
X406004Y104561D02*
X408759D01*
Y103184D01*
X408300Y102725D01*
X407841D01*
X407382Y103184D01*
Y104561D01*
Y103184D01*
X406923Y102725D01*
X406463D01*
X406004Y103184D01*
Y104561D01*
X408759Y177100D02*
X406004D01*
Y175722D01*
X406463Y175263D01*
X407382D01*
X407841Y175722D01*
Y177100D01*
Y176181D02*
X408759Y175263D01*
Y172508D02*
Y174345D01*
X406923Y172508D01*
X406463D01*
X406004Y172967D01*
Y173886D01*
X406463Y174345D01*
Y171590D02*
X406004Y171131D01*
Y170212D01*
X406463Y169753D01*
X408300D01*
X408759Y170212D01*
Y171131D01*
X408300Y171590D01*
X406463D01*
X408759Y168835D02*
X406923D01*
X406004Y167916D01*
X406923Y166998D01*
X408759D01*
X407382D01*
Y168835D01*
X408759Y63679D02*
X406004D01*
Y62302D01*
X406463Y61843D01*
X407382D01*
X407841Y62302D01*
Y63679D01*
Y62761D02*
X408759Y61843D01*
Y60925D02*
Y60006D01*
Y60465D01*
X406004D01*
X406463Y60925D01*
X408300Y58629D02*
X408759Y58170D01*
Y57251D01*
X408300Y56792D01*
X406463D01*
X406004Y57251D01*
Y58170D01*
X406463Y58629D01*
X406923D01*
X407382Y58170D01*
Y56792D01*
X406463Y54037D02*
X406004Y54496D01*
Y55414D01*
X406463Y55874D01*
X408300D01*
X408759Y55414D01*
Y54496D01*
X408300Y54037D01*
X408759Y129526D02*
X406004D01*
Y128148D01*
X406463Y127689D01*
X407382D01*
X407841Y128148D01*
Y129526D01*
Y128608D02*
X408759Y127689D01*
Y126771D02*
Y125853D01*
Y126312D01*
X406004D01*
X406463Y126771D01*
X408300Y124475D02*
X408759Y124016D01*
Y123098D01*
X408300Y122638D01*
X406463D01*
X406004Y123098D01*
Y124016D01*
X406463Y124475D01*
X406923D01*
X407382Y124016D01*
Y122638D01*
X406004Y121720D02*
X408759D01*
Y120343D01*
X408300Y119884D01*
X407841D01*
X407382Y120343D01*
Y121720D01*
Y120343D01*
X406923Y119884D01*
X406463D01*
X406004Y120343D01*
Y121720D01*
X408759Y196555D02*
X406004D01*
Y195178D01*
X406463Y194719D01*
X407382D01*
X407841Y195178D01*
Y196555D01*
Y195637D02*
X408759Y194719D01*
Y193800D02*
Y192882D01*
Y193341D01*
X406004D01*
X406463Y193800D01*
X408300Y191504D02*
X408759Y191045D01*
Y190127D01*
X408300Y189668D01*
X406463D01*
X406004Y190127D01*
Y191045D01*
X406463Y191504D01*
X406923D01*
X407382Y191045D01*
Y189668D01*
X408759Y188749D02*
X406923D01*
X406004Y187831D01*
X406923Y186913D01*
X408759D01*
X407382D01*
Y188749D01*
X422735Y16536D02*
Y19291D01*
X421357D01*
X420898Y18832D01*
Y17913D01*
X421357Y17454D01*
X422735D01*
X421816D02*
X420898Y16536D01*
X419980D02*
X419061D01*
X419521D01*
Y19291D01*
X419980Y18832D01*
X415847Y19291D02*
X417684D01*
Y17913D01*
X416765Y18373D01*
X416306D01*
X415847Y17913D01*
Y16995D01*
X416306Y16536D01*
X417225D01*
X417684Y16995D01*
X413092Y18832D02*
X413551Y19291D01*
X414470D01*
X414929Y18832D01*
Y16995D01*
X414470Y16536D01*
X413551D01*
X413092Y16995D01*
X422735Y82481D02*
Y85236D01*
X421357D01*
X420898Y84777D01*
Y83858D01*
X421357Y83399D01*
X422735D01*
X421816D02*
X420898Y82481D01*
X419980D02*
X419061D01*
X419521D01*
Y85236D01*
X419980Y84777D01*
X415847Y85236D02*
X417684D01*
Y83858D01*
X416765Y84317D01*
X416306D01*
X415847Y83858D01*
Y82940D01*
X416306Y82481D01*
X417225D01*
X417684Y82940D01*
X414929Y85236D02*
Y82481D01*
X413551D01*
X413092Y82940D01*
Y83399D01*
X413551Y83858D01*
X414929D01*
X413551D01*
X413092Y84317D01*
Y84777D01*
X413551Y85236D01*
X414929D01*
X422735Y151871D02*
Y154625D01*
X421357D01*
X420898Y154166D01*
Y153248D01*
X421357Y152789D01*
X422735D01*
X421816D02*
X420898Y151871D01*
X419980D02*
X419061D01*
X419521D01*
Y154625D01*
X419980Y154166D01*
X415847Y154625D02*
X417684D01*
Y153248D01*
X416765Y153707D01*
X416306D01*
X415847Y153248D01*
Y152330D01*
X416306Y151871D01*
X417225D01*
X417684Y152330D01*
X414929Y151871D02*
Y153707D01*
X414010Y154625D01*
X413092Y153707D01*
Y151871D01*
Y153248D01*
X414929D01*
X424605Y75099D02*
Y77854D01*
X423227D01*
X422768Y77395D01*
Y76476D01*
X423227Y76017D01*
X424605D01*
X423686D02*
X422768Y75099D01*
X421850D02*
X420931D01*
X421390D01*
Y77854D01*
X421850Y77395D01*
X418176Y75099D02*
Y77854D01*
X419554Y76476D01*
X417717D01*
X414962Y77395D02*
X415421Y77854D01*
X416340D01*
X416799Y77395D01*
Y75558D01*
X416340Y75099D01*
X415421D01*
X414962Y75558D01*
X424605Y141733D02*
Y144488D01*
X423227D01*
X422768Y144029D01*
Y143110D01*
X423227Y142651D01*
X424605D01*
X423686D02*
X422768Y141733D01*
X421850D02*
X420931D01*
X421390D01*
Y144488D01*
X421850Y144029D01*
X418176Y141733D02*
Y144488D01*
X419554Y143110D01*
X417717D01*
X416799Y144488D02*
Y141733D01*
X415421D01*
X414962Y142192D01*
Y142651D01*
X415421Y143110D01*
X416799D01*
X415421D01*
X414962Y143569D01*
Y144029D01*
X415421Y144488D01*
X416799D01*
X426672Y208170D02*
Y210925D01*
X425294D01*
X424835Y210466D01*
Y209547D01*
X425294Y209088D01*
X426672D01*
X425753D02*
X424835Y208170D01*
X423917D02*
X422998D01*
X423457D01*
Y210925D01*
X423917Y210466D01*
X420243Y208170D02*
Y210925D01*
X421621Y209547D01*
X419784D01*
X418866Y208170D02*
Y210006D01*
X417947Y210925D01*
X417029Y210006D01*
Y208170D01*
Y209547D01*
X418866D01*
X451181Y66140D02*
X448426D01*
Y64763D01*
X448885Y64303D01*
X449803D01*
X450262Y64763D01*
Y66140D01*
Y65222D02*
X451181Y64303D01*
Y63385D02*
Y62467D01*
Y62926D01*
X448426D01*
X448885Y63385D01*
Y61089D02*
X448426Y60630D01*
Y59712D01*
X448885Y59253D01*
X449344D01*
X449803Y59712D01*
Y60171D01*
Y59712D01*
X450262Y59253D01*
X450722D01*
X451181Y59712D01*
Y60630D01*
X450722Y61089D01*
X448885Y56498D02*
X448426Y56957D01*
Y57875D01*
X448885Y58334D01*
X450722D01*
X451181Y57875D01*
Y56957D01*
X450722Y56498D01*
X451181Y132380D02*
X448426D01*
Y131003D01*
X448885Y130544D01*
X449803D01*
X450262Y131003D01*
Y132380D01*
Y131462D02*
X451181Y130544D01*
Y129625D02*
Y128707D01*
Y129166D01*
X448426D01*
X448885Y129625D01*
Y127330D02*
X448426Y126870D01*
Y125952D01*
X448885Y125493D01*
X449344D01*
X449803Y125952D01*
Y126411D01*
Y125952D01*
X450262Y125493D01*
X450722D01*
X451181Y125952D01*
Y126870D01*
X450722Y127330D01*
X448426Y124574D02*
X451181D01*
Y123197D01*
X450722Y122738D01*
X450262D01*
X449803Y123197D01*
Y124574D01*
Y123197D01*
X449344Y122738D01*
X448885D01*
X448426Y123197D01*
Y124574D01*
X451181Y198522D02*
X448426D01*
Y197145D01*
X448885Y196685D01*
X449803D01*
X450262Y197145D01*
Y198522D01*
Y197604D02*
X451181Y196685D01*
Y195767D02*
Y194849D01*
Y195308D01*
X448426D01*
X448885Y195767D01*
Y193471D02*
X448426Y193012D01*
Y192094D01*
X448885Y191635D01*
X449344D01*
X449803Y192094D01*
Y192553D01*
Y192094D01*
X450262Y191635D01*
X450722D01*
X451181Y192094D01*
Y193012D01*
X450722Y193471D01*
X451181Y190716D02*
X449344D01*
X448426Y189798D01*
X449344Y188880D01*
X451181D01*
X449803D01*
Y190716D01*
X456396Y29626D02*
Y32381D01*
X455019D01*
X454559Y31922D01*
Y31004D01*
X455019Y30545D01*
X456396D01*
X455478D02*
X454559Y29626D01*
X453641D02*
X452723D01*
X453182D01*
Y32381D01*
X453641Y31922D01*
X449508Y29626D02*
X451345D01*
X449508Y31463D01*
Y31922D01*
X449968Y32381D01*
X450886D01*
X451345Y31922D01*
X446754D02*
X447213Y32381D01*
X448131D01*
X448590Y31922D01*
Y30086D01*
X448131Y29626D01*
X447213D01*
X446754Y30086D01*
X456396Y94882D02*
Y97637D01*
X455019D01*
X454559Y97178D01*
Y96260D01*
X455019Y95801D01*
X456396D01*
X455478D02*
X454559Y94882D01*
X453641D02*
X452723D01*
X453182D01*
Y97637D01*
X453641Y97178D01*
X449508Y94882D02*
X451345D01*
X449508Y96719D01*
Y97178D01*
X449968Y97637D01*
X450886D01*
X451345Y97178D01*
X448590Y97637D02*
Y94882D01*
X447213D01*
X446754Y95341D01*
Y95801D01*
X447213Y96260D01*
X448590D01*
X447213D01*
X446754Y96719D01*
Y97178D01*
X447213Y97637D01*
X448590D01*
X456396Y163878D02*
Y166633D01*
X455019D01*
X454559Y166174D01*
Y165256D01*
X455019Y164797D01*
X456396D01*
X455478D02*
X454559Y163878D01*
X453641D02*
X452723D01*
X453182D01*
Y166633D01*
X453641Y166174D01*
X449508Y163878D02*
X451345D01*
X449508Y165715D01*
Y166174D01*
X449968Y166633D01*
X450886D01*
X451345Y166174D01*
X448590Y163878D02*
Y165715D01*
X447672Y166633D01*
X446754Y165715D01*
Y163878D01*
Y165256D01*
X448590D01*
X421456Y301771D02*
Y299475D01*
X420996Y299016D01*
X420078D01*
X419619Y299475D01*
Y301771D01*
X418701Y299016D02*
X417782D01*
X418241D01*
Y301771D01*
X418701Y301312D01*
X416405D02*
X415945Y301771D01*
X415027D01*
X414568Y301312D01*
Y299475D01*
X415027Y299016D01*
X415945D01*
X416405Y299475D01*
Y301312D01*
X182610Y178937D02*
Y176641D01*
X182151Y176181D01*
X181233D01*
X180774Y176641D01*
Y178937D01*
X178019D02*
X178937Y178477D01*
X179855Y177559D01*
Y176641D01*
X179396Y176181D01*
X178478D01*
X178019Y176641D01*
Y177100D01*
X178478Y177559D01*
X179855D01*
X175264Y178477D02*
X175723Y178937D01*
X176641D01*
X177100Y178477D01*
Y176641D01*
X176641Y176181D01*
X175723D01*
X175264Y176641D01*
X64500Y179724D02*
Y177428D01*
X64041Y176969D01*
X63123D01*
X62664Y177428D01*
Y179724D01*
X59908D02*
X60827Y179265D01*
X61745Y178347D01*
Y177428D01*
X61286Y176969D01*
X60368D01*
X59908Y177428D01*
Y177887D01*
X60368Y178347D01*
X61745D01*
X58990Y179724D02*
Y176969D01*
X57613D01*
X57153Y177428D01*
Y177887D01*
X57613Y178347D01*
X58990D01*
X57613D01*
X57153Y178806D01*
Y179265D01*
X57613Y179724D01*
X58990D01*
X56244Y292074D02*
Y289779D01*
X55785Y289319D01*
X54866D01*
X54407Y289779D01*
Y292074D01*
X51652D02*
X52570Y291615D01*
X53489Y290697D01*
Y289779D01*
X53030Y289319D01*
X52111D01*
X51652Y289779D01*
Y290238D01*
X52111Y290697D01*
X53489D01*
X50734Y289319D02*
Y291156D01*
X49815Y292074D01*
X48897Y291156D01*
Y289319D01*
Y290697D01*
X50734D01*
X56232Y66043D02*
Y63747D01*
X55773Y63288D01*
X54855D01*
X54396Y63747D01*
Y66043D01*
X52100Y63288D02*
Y66043D01*
X53477Y64665D01*
X51641D01*
X48886Y65584D02*
X49345Y66043D01*
X50263D01*
X50722Y65584D01*
Y63747D01*
X50263Y63288D01*
X49345D01*
X48886Y63747D01*
X56528Y102755D02*
Y100460D01*
X56068Y100001D01*
X55150D01*
X54691Y100460D01*
Y102755D01*
X52395Y100001D02*
Y102755D01*
X53773Y101378D01*
X51936D01*
X51018Y102755D02*
Y100001D01*
X49640D01*
X49181Y100460D01*
Y100919D01*
X49640Y101378D01*
X51018D01*
X49640D01*
X49181Y101837D01*
Y102296D01*
X49640Y102755D01*
X51018D01*
X99835Y330905D02*
Y328609D01*
X99376Y328150D01*
X98457D01*
X97998Y328609D01*
Y330905D01*
X95702Y328150D02*
Y330905D01*
X97080Y329528D01*
X95243D01*
X94325Y328150D02*
Y329987D01*
X93406Y330905D01*
X92488Y329987D01*
Y328150D01*
Y329528D01*
X94325D01*
X417126Y118634D02*
X419422D01*
X419881Y118175D01*
Y117256D01*
X419422Y116797D01*
X417126D01*
X417586Y115879D02*
X417126Y115420D01*
Y114502D01*
X417586Y114042D01*
X418045D01*
X418504Y114502D01*
Y114961D01*
Y114502D01*
X418963Y114042D01*
X419422D01*
X419881Y114502D01*
Y115420D01*
X419422Y115879D01*
X417126Y113124D02*
X419881D01*
Y111746D01*
X419422Y111287D01*
X418963D01*
X418504Y111746D01*
Y113124D01*
Y111746D01*
X418045Y111287D01*
X417586D01*
X417126Y111746D01*
Y113124D01*
X417126Y185171D02*
X419422D01*
X419881Y184712D01*
Y183794D01*
X419422Y183334D01*
X417126D01*
X417586Y182416D02*
X417126Y181957D01*
Y181038D01*
X417586Y180579D01*
X418045D01*
X418504Y181038D01*
Y181498D01*
Y181038D01*
X418963Y180579D01*
X419422D01*
X419881Y181038D01*
Y181957D01*
X419422Y182416D01*
X419881Y179661D02*
X418045D01*
X417126Y178743D01*
X418045Y177824D01*
X419881D01*
X418504D01*
Y179661D01*
X439395Y70647D02*
X439854Y71106D01*
Y72025D01*
X439395Y72484D01*
X437558D01*
X437099Y72025D01*
Y71106D01*
X437558Y70647D01*
X439395Y69729D02*
X439854Y69270D01*
Y68352D01*
X439395Y67892D01*
X438935D01*
X438476Y68352D01*
Y68811D01*
Y68352D01*
X438017Y67892D01*
X437558D01*
X437099Y68352D01*
Y69270D01*
X437558Y69729D01*
X439395Y65137D02*
X439854Y65596D01*
Y66515D01*
X439395Y66974D01*
X437558D01*
X437099Y66515D01*
Y65596D01*
X437558Y65137D01*
X437558Y135990D02*
X437099Y136449D01*
Y137368D01*
X437558Y137827D01*
X439395D01*
X439854Y137368D01*
Y136449D01*
X439395Y135990D01*
X437558Y135072D02*
X437099Y134613D01*
Y133694D01*
X437558Y133235D01*
X438017D01*
X438476Y133694D01*
Y134153D01*
Y133694D01*
X438936Y133235D01*
X439395D01*
X439854Y133694D01*
Y134613D01*
X439395Y135072D01*
X437099Y132317D02*
X439854D01*
Y130939D01*
X439395Y130480D01*
X438936D01*
X438476Y130939D01*
Y132317D01*
Y130939D01*
X438017Y130480D01*
X437558D01*
X437099Y130939D01*
Y132317D01*
X438550Y204002D02*
X438091Y204461D01*
Y205380D01*
X438550Y205839D01*
X440387D01*
X440846Y205380D01*
Y204461D01*
X440387Y204002D01*
X438550Y203084D02*
X438091Y202625D01*
Y201706D01*
X438550Y201247D01*
X439009D01*
X439468Y201706D01*
Y202165D01*
Y201706D01*
X439928Y201247D01*
X440387D01*
X440846Y201706D01*
Y202625D01*
X440387Y203084D01*
X440846Y200329D02*
X439009D01*
X438091Y199410D01*
X439009Y198492D01*
X440846D01*
X439468D01*
Y200329D01*
X77230Y44816D02*
X77689Y45275D01*
X78607D01*
X79067Y44816D01*
Y42979D01*
X78607Y42520D01*
X77689D01*
X77230Y42979D01*
X76312Y44816D02*
X75852Y45275D01*
X74934D01*
X74475Y44816D01*
Y44357D01*
X74934Y43898D01*
X74475Y43439D01*
Y42979D01*
X74934Y42520D01*
X75852D01*
X76312Y42979D01*
Y43439D01*
X75852Y43898D01*
X76312Y44357D01*
Y44816D01*
X75852Y43898D02*
X74934D01*
X73557Y44816D02*
X73097Y45275D01*
X72179D01*
X71720Y44816D01*
Y42979D01*
X72179Y42520D01*
X73097D01*
X73557Y42979D01*
Y44816D01*
X68965D02*
X69424Y45275D01*
X70342D01*
X70802Y44816D01*
Y42979D01*
X70342Y42520D01*
X69424D01*
X68965Y42979D01*
X91009Y95997D02*
X91469Y96456D01*
X92387D01*
X92846Y95997D01*
Y94160D01*
X92387Y93701D01*
X91469D01*
X91009Y94160D01*
X90091Y95997D02*
X89632Y96456D01*
X88714D01*
X88254Y95997D01*
Y95538D01*
X88714Y95079D01*
X88254Y94620D01*
Y94160D01*
X88714Y93701D01*
X89632D01*
X90091Y94160D01*
Y94620D01*
X89632Y95079D01*
X90091Y95538D01*
Y95997D01*
X89632Y95079D02*
X88714D01*
X87336Y95997D02*
X86877Y96456D01*
X85959D01*
X85499Y95997D01*
Y94160D01*
X85959Y93701D01*
X86877D01*
X87336Y94160D01*
Y95997D01*
X84581Y96456D02*
Y93701D01*
X83204D01*
X82744Y94160D01*
Y94620D01*
X83204Y95079D01*
X84581D01*
X83204D01*
X82744Y95538D01*
Y95997D01*
X83204Y96456D01*
X84581D01*
X126836Y345505D02*
X127295Y345964D01*
X128214D01*
X128673Y345505D01*
Y343668D01*
X128214Y343209D01*
X127295D01*
X126836Y343668D01*
X125918Y345505D02*
X125459Y345964D01*
X124540D01*
X124081Y345505D01*
Y345046D01*
X124540Y344587D01*
X124081Y344127D01*
Y343668D01*
X124540Y343209D01*
X125459D01*
X125918Y343668D01*
Y344127D01*
X125459Y344587D01*
X125918Y345046D01*
Y345505D01*
X125459Y344587D02*
X124540D01*
X123163Y345505D02*
X122704Y345964D01*
X121785D01*
X121326Y345505D01*
Y343668D01*
X121785Y343209D01*
X122704D01*
X123163Y343668D01*
Y345505D01*
X120408Y343209D02*
Y345046D01*
X119490Y345964D01*
X118571Y345046D01*
Y343209D01*
Y344587D01*
X120408D01*
X446227Y322080D02*
X446686Y322539D01*
X447604D01*
X448064Y322080D01*
Y320243D01*
X447604Y319784D01*
X446686D01*
X446227Y320243D01*
X443472Y319784D02*
X445308D01*
X443472Y321621D01*
Y322080D01*
X443931Y322539D01*
X444849D01*
X445308Y322080D01*
X206364Y336745D02*
X206823Y337204D01*
X207742D01*
X208201Y336745D01*
Y334908D01*
X207742Y334449D01*
X206823D01*
X206364Y334908D01*
X203609Y337204D02*
X205446D01*
Y335827D01*
X204528Y336286D01*
X204068D01*
X203609Y335827D01*
Y334908D01*
X204068Y334449D01*
X204987D01*
X205446Y334908D01*
X202691D02*
X202232Y334449D01*
X201313D01*
X200854Y334908D01*
Y336745D01*
X201313Y337204D01*
X202232D01*
X202691Y336745D01*
Y336286D01*
X202232Y335827D01*
X200854D01*
X438746Y290092D02*
X439205Y290551D01*
X440124D01*
X440583Y290092D01*
Y288255D01*
X440124Y287796D01*
X439205D01*
X438746Y288255D01*
X435991Y290551D02*
X437828D01*
Y289173D01*
X436909Y289632D01*
X436450D01*
X435991Y289173D01*
Y288255D01*
X436450Y287796D01*
X437369D01*
X437828Y288255D01*
X435073Y290092D02*
X434614Y290551D01*
X433695D01*
X433236Y290092D01*
Y289632D01*
X433695Y289173D01*
X433236Y288714D01*
Y288255D01*
X433695Y287796D01*
X434614D01*
X435073Y288255D01*
Y288714D01*
X434614Y289173D01*
X435073Y289632D01*
Y290092D01*
X434614Y289173D02*
X433695D01*
X163320Y341077D02*
X163779Y340617D01*
Y339699D01*
X163320Y339240D01*
X161483D01*
X161024Y339699D01*
Y340617D01*
X161483Y341077D01*
X163779Y343832D02*
Y341995D01*
X162402D01*
X162861Y342913D01*
Y343373D01*
X162402Y343832D01*
X161483D01*
X161024Y343373D01*
Y342454D01*
X161483Y341995D01*
X163779Y344750D02*
Y346587D01*
X163320D01*
X161483Y344750D01*
X161024D01*
X155577Y363320D02*
X156036Y363779D01*
X156954D01*
X157413Y363320D01*
Y361483D01*
X156954Y361024D01*
X156036D01*
X155577Y361483D01*
X152822Y363779D02*
X154658D01*
Y362402D01*
X153740Y362861D01*
X153281D01*
X152822Y362402D01*
Y361483D01*
X153281Y361024D01*
X154199D01*
X154658Y361483D01*
X150067Y363779D02*
X150985Y363320D01*
X151903Y362402D01*
Y361483D01*
X151444Y361024D01*
X150526D01*
X150067Y361483D01*
Y361942D01*
X150526Y362402D01*
X151903D01*
X208530Y368930D02*
X208989Y369389D01*
X209907D01*
X210366Y368930D01*
Y367093D01*
X209907Y366634D01*
X208989D01*
X208530Y367093D01*
X205775Y369389D02*
X207611D01*
Y368012D01*
X206693Y368471D01*
X206234D01*
X205775Y368012D01*
Y367093D01*
X206234Y366634D01*
X207152D01*
X207611Y367093D01*
X203020Y369389D02*
X204856D01*
Y368012D01*
X203938Y368471D01*
X203479D01*
X203020Y368012D01*
Y367093D01*
X203479Y366634D01*
X204397D01*
X204856Y367093D01*
X219061Y366076D02*
X219520Y366535D01*
X220439D01*
X220898Y366076D01*
Y364239D01*
X220439Y363780D01*
X219520D01*
X219061Y364239D01*
X216306Y366535D02*
X218143D01*
Y365158D01*
X217224Y365617D01*
X216765D01*
X216306Y365158D01*
Y364239D01*
X216765Y363780D01*
X217684D01*
X218143Y364239D01*
X214010Y363780D02*
Y366535D01*
X215388Y365158D01*
X213551D01*
X461188Y320866D02*
X460729Y321325D01*
Y322243D01*
X461188Y322702D01*
X463025D01*
X463484Y322243D01*
Y321325D01*
X463025Y320866D01*
X460729Y318111D02*
Y319947D01*
X462106D01*
X461647Y319029D01*
Y318570D01*
X462106Y318111D01*
X463025D01*
X463484Y318570D01*
Y319488D01*
X463025Y319947D01*
X463484Y317192D02*
Y316274D01*
Y316733D01*
X460729D01*
X461188Y317192D01*
X411463Y321030D02*
X411004Y321489D01*
Y322407D01*
X411463Y322866D01*
X413300D01*
X413759Y322407D01*
Y321489D01*
X413300Y321030D01*
X411004Y318275D02*
Y320111D01*
X412382D01*
X411923Y319193D01*
Y318734D01*
X412382Y318275D01*
X413300D01*
X413759Y318734D01*
Y319652D01*
X413300Y320111D01*
X411463Y317356D02*
X411004Y316897D01*
Y315979D01*
X411463Y315519D01*
X413300D01*
X413759Y315979D01*
Y316897D01*
X413300Y317356D01*
X411463D01*
X433332Y26115D02*
X433791Y26574D01*
X434710D01*
X435169Y26115D01*
Y24279D01*
X434710Y23819D01*
X433791D01*
X433332Y24279D01*
X430577Y23819D02*
X432414D01*
X430577Y25656D01*
Y26115D01*
X431036Y26574D01*
X431955D01*
X432414Y26115D01*
X428281Y23819D02*
Y26574D01*
X429659Y25197D01*
X427822D01*
X425067Y26115D02*
X425526Y26574D01*
X426445D01*
X426904Y26115D01*
Y24279D01*
X426445Y23819D01*
X425526D01*
X425067Y24279D01*
X433332Y91962D02*
X433791Y92421D01*
X434710D01*
X435169Y91962D01*
Y90125D01*
X434710Y89666D01*
X433791D01*
X433332Y90125D01*
X430577Y89666D02*
X432414D01*
X430577Y91502D01*
Y91962D01*
X431036Y92421D01*
X431955D01*
X432414Y91962D01*
X428281Y89666D02*
Y92421D01*
X429659Y91043D01*
X427822D01*
X426904Y92421D02*
Y89666D01*
X425526D01*
X425067Y90125D01*
Y90584D01*
X425526Y91043D01*
X426904D01*
X425526D01*
X425067Y91502D01*
Y91962D01*
X425526Y92421D01*
X426904D01*
X433332Y160564D02*
X433791Y161023D01*
X434710D01*
X435169Y160564D01*
Y158727D01*
X434710Y158268D01*
X433791D01*
X433332Y158727D01*
X430577Y158268D02*
X432414D01*
X430577Y160105D01*
Y160564D01*
X431036Y161023D01*
X431955D01*
X432414Y160564D01*
X428281Y158268D02*
Y161023D01*
X429659Y159646D01*
X427822D01*
X426904Y158268D02*
Y160105D01*
X425986Y161023D01*
X425067Y160105D01*
Y158268D01*
Y159646D01*
X426904D01*
X29101Y92289D02*
X28642Y92748D01*
Y93666D01*
X29101Y94126D01*
X30938D01*
X31397Y93666D01*
Y92748D01*
X30938Y92289D01*
X31397Y89534D02*
Y91371D01*
X29561Y89534D01*
X29101D01*
X28642Y89993D01*
Y90912D01*
X29101Y91371D01*
Y88616D02*
X28642Y88156D01*
Y87238D01*
X29101Y86779D01*
X29561D01*
X30020Y87238D01*
Y87697D01*
Y87238D01*
X30479Y86779D01*
X30938D01*
X31397Y87238D01*
Y88156D01*
X30938Y88616D01*
X28642Y85861D02*
X31397D01*
Y84483D01*
X30938Y84024D01*
X30479D01*
X30020Y84483D01*
Y85861D01*
Y84483D01*
X29561Y84024D01*
X29101D01*
X28642Y84483D01*
Y85861D01*
X77189Y357821D02*
X76730Y358280D01*
Y359198D01*
X77189Y359657D01*
X79026D01*
X79485Y359198D01*
Y358280D01*
X79026Y357821D01*
X79485Y355065D02*
Y356902D01*
X77649Y355065D01*
X77189D01*
X76730Y355525D01*
Y356443D01*
X77189Y356902D01*
Y354147D02*
X76730Y353688D01*
Y352770D01*
X77189Y352310D01*
X77649D01*
X78108Y352770D01*
Y353229D01*
Y352770D01*
X78567Y352310D01*
X79026D01*
X79485Y352770D01*
Y353688D01*
X79026Y354147D01*
X79485Y351392D02*
X77649D01*
X76730Y350474D01*
X77649Y349555D01*
X79485D01*
X78108D01*
Y351392D01*
X167256Y192749D02*
X167715Y193208D01*
X168634D01*
X169093Y192749D01*
Y190912D01*
X168634Y190453D01*
X167715D01*
X167256Y190912D01*
X166338Y190453D02*
X165420D01*
X165879D01*
Y193208D01*
X166338Y192749D01*
X164042Y190912D02*
X163583Y190453D01*
X162665D01*
X162205Y190912D01*
Y192749D01*
X162665Y193208D01*
X163583D01*
X164042Y192749D01*
Y192290D01*
X163583Y191831D01*
X162205D01*
X159450Y192749D02*
X159909Y193208D01*
X160828D01*
X161287Y192749D01*
Y190912D01*
X160828Y190453D01*
X159909D01*
X159450Y190912D01*
X49737Y192749D02*
X50196Y193208D01*
X51114D01*
X51573Y192749D01*
Y190912D01*
X51114Y190453D01*
X50196D01*
X49737Y190912D01*
X48818Y190453D02*
X47900D01*
X48359D01*
Y193208D01*
X48818Y192749D01*
X46522Y190912D02*
X46063Y190453D01*
X45145D01*
X44686Y190912D01*
Y192749D01*
X45145Y193208D01*
X46063D01*
X46522Y192749D01*
Y192290D01*
X46063Y191831D01*
X44686D01*
X43767Y193208D02*
Y190453D01*
X42390D01*
X41931Y190912D01*
Y191372D01*
X42390Y191831D01*
X43767D01*
X42390D01*
X41931Y192290D01*
Y192749D01*
X42390Y193208D01*
X43767D01*
X42256Y304757D02*
X42715Y305216D01*
X43634D01*
X44093Y304757D01*
Y302920D01*
X43634Y302461D01*
X42715D01*
X42256Y302920D01*
X41338Y302461D02*
X40420D01*
X40879D01*
Y305216D01*
X41338Y304757D01*
X39042Y302920D02*
X38583Y302461D01*
X37665D01*
X37205Y302920D01*
Y304757D01*
X37665Y305216D01*
X38583D01*
X39042Y304757D01*
Y304298D01*
X38583Y303839D01*
X37205D01*
X36287Y302461D02*
Y304298D01*
X35369Y305216D01*
X34450Y304298D01*
Y302461D01*
Y303839D01*
X36287D01*
X188944Y172571D02*
X188485Y173030D01*
Y173949D01*
X188944Y174408D01*
X190780D01*
X191240Y173949D01*
Y173030D01*
X190780Y172571D01*
X191240Y171653D02*
Y170735D01*
Y171194D01*
X188485D01*
X188944Y171653D01*
Y169357D02*
X188485Y168898D01*
Y167980D01*
X188944Y167520D01*
X189403D01*
X189862Y167980D01*
X190321Y167520D01*
X190780D01*
X191240Y167980D01*
Y168898D01*
X190780Y169357D01*
X190321D01*
X189862Y168898D01*
X189403Y169357D01*
X188944D01*
X189862Y168898D02*
Y167980D01*
X188944Y164765D02*
X188485Y165225D01*
Y166143D01*
X188944Y166602D01*
X190780D01*
X191240Y166143D01*
Y165225D01*
X190780Y164765D01*
X70932Y172571D02*
X70473Y173030D01*
Y173949D01*
X70932Y174408D01*
X72769D01*
X73228Y173949D01*
Y173030D01*
X72769Y172571D01*
X73228Y171653D02*
Y170735D01*
Y171194D01*
X70473D01*
X70932Y171653D01*
Y169357D02*
X70473Y168898D01*
Y167980D01*
X70932Y167520D01*
X71391D01*
X71850Y167980D01*
X72310Y167520D01*
X72769D01*
X73228Y167980D01*
Y168898D01*
X72769Y169357D01*
X72310D01*
X71850Y168898D01*
X71391Y169357D01*
X70932D01*
X71850Y168898D02*
Y167980D01*
X70473Y166602D02*
X73228D01*
Y165225D01*
X72769Y164765D01*
X72310D01*
X71850Y165225D01*
Y166602D01*
Y165225D01*
X71391Y164765D01*
X70932D01*
X70473Y165225D01*
Y166602D01*
X58235Y289205D02*
X57776Y289664D01*
Y290583D01*
X58235Y291042D01*
X60072D01*
X60531Y290583D01*
Y289664D01*
X60072Y289205D01*
X60531Y288287D02*
Y287368D01*
Y287828D01*
X57776D01*
X58235Y288287D01*
Y285991D02*
X57776Y285532D01*
Y284613D01*
X58235Y284154D01*
X58694D01*
X59153Y284613D01*
X59613Y284154D01*
X60072D01*
X60531Y284613D01*
Y285532D01*
X60072Y285991D01*
X59613D01*
X59153Y285532D01*
X58694Y285991D01*
X58235D01*
X59153Y285532D02*
Y284613D01*
X60531Y283236D02*
X58694D01*
X57776Y282317D01*
X58694Y281399D01*
X60531D01*
X59153D01*
Y283236D01*
X11843Y71391D02*
X12302Y71850D01*
X13220D01*
X13680Y71391D01*
Y69554D01*
X13220Y69095D01*
X12302D01*
X11843Y69554D01*
X10925Y69095D02*
X10006D01*
X10465D01*
Y71850D01*
X10925Y71391D01*
X6792Y71850D02*
X7710Y71391D01*
X8629Y70472D01*
Y69554D01*
X8169Y69095D01*
X7251D01*
X6792Y69554D01*
Y70013D01*
X7251Y70472D01*
X8629D01*
X4037Y71391D02*
X4496Y71850D01*
X5415D01*
X5874Y71391D01*
Y69554D01*
X5415Y69095D01*
X4496D01*
X4037Y69554D01*
X23359Y112828D02*
X23818Y113287D01*
X24736D01*
X25195Y112828D01*
Y110991D01*
X24736Y110532D01*
X23818D01*
X23359Y110991D01*
X22440Y110532D02*
X21522D01*
X21981D01*
Y113287D01*
X22440Y112828D01*
X18308Y113287D02*
X19226Y112828D01*
X20144Y111909D01*
Y110991D01*
X19685Y110532D01*
X18767D01*
X18308Y110991D01*
Y111450D01*
X18767Y111909D01*
X20144D01*
X17389Y113287D02*
Y110532D01*
X16012D01*
X15553Y110991D01*
Y111450D01*
X16012Y111909D01*
X17389D01*
X16012D01*
X15553Y112369D01*
Y112828D01*
X16012Y113287D01*
X17389D01*
X73654Y368438D02*
X74113Y368897D01*
X75031D01*
X75491Y368438D01*
Y366601D01*
X75031Y366142D01*
X74113D01*
X73654Y366601D01*
X72736Y366142D02*
X71817D01*
X72276D01*
Y368897D01*
X72736Y368438D01*
X68603Y368897D02*
X69521Y368438D01*
X70440Y367520D01*
Y366601D01*
X69981Y366142D01*
X69062D01*
X68603Y366601D01*
Y367060D01*
X69062Y367520D01*
X70440D01*
X67685Y366142D02*
Y367979D01*
X66766Y368897D01*
X65848Y367979D01*
Y366142D01*
Y367520D01*
X67685D01*
X75721Y69816D02*
X76180Y70275D01*
X77098D01*
X77557Y69816D01*
Y67979D01*
X77098Y67520D01*
X76180D01*
X75721Y67979D01*
X74803Y67520D02*
X73884D01*
X74343D01*
Y70275D01*
X74803Y69816D01*
X70670Y70275D02*
X72507D01*
Y68898D01*
X71588Y69357D01*
X71129D01*
X70670Y68898D01*
Y67979D01*
X71129Y67520D01*
X72048D01*
X72507Y67979D01*
X67915Y69816D02*
X68374Y70275D01*
X69292D01*
X69752Y69816D01*
Y67979D01*
X69292Y67520D01*
X68374D01*
X67915Y67979D01*
X76311Y117060D02*
X76771Y117519D01*
X77689D01*
X78148Y117060D01*
Y115223D01*
X77689Y114764D01*
X76771D01*
X76311Y115223D01*
X75393Y114764D02*
X74475D01*
X74934D01*
Y117519D01*
X75393Y117060D01*
X71260Y117519D02*
X73097D01*
Y116142D01*
X72179Y116601D01*
X71720D01*
X71260Y116142D01*
Y115223D01*
X71720Y114764D01*
X72638D01*
X73097Y115223D01*
X70342Y117519D02*
Y114764D01*
X68965D01*
X68506Y115223D01*
Y115683D01*
X68965Y116142D01*
X70342D01*
X68965D01*
X68506Y116601D01*
Y117060D01*
X68965Y117519D01*
X70342D01*
X113058Y368634D02*
X112599Y369093D01*
Y370012D01*
X113058Y370471D01*
X114895D01*
X115354Y370012D01*
Y369093D01*
X114895Y368634D01*
X115354Y367716D02*
Y366797D01*
Y367257D01*
X112599D01*
X113058Y367716D01*
X112599Y363583D02*
Y365420D01*
X113976D01*
X113517Y364502D01*
Y364042D01*
X113976Y363583D01*
X114895D01*
X115354Y364042D01*
Y364961D01*
X114895Y365420D01*
X115354Y362665D02*
X113517D01*
X112599Y361747D01*
X113517Y360828D01*
X115354D01*
X113976D01*
Y362665D01*
X73851Y30052D02*
X74310Y30511D01*
X75228D01*
X75687Y30052D01*
Y28216D01*
X75228Y27756D01*
X74310D01*
X73851Y28216D01*
X72932Y27756D02*
X72014D01*
X72473D01*
Y30511D01*
X72932Y30052D01*
X69259Y27756D02*
Y30511D01*
X70636Y29134D01*
X68800D01*
X66045Y30052D02*
X66504Y30511D01*
X67422D01*
X67882Y30052D01*
Y28216D01*
X67422Y27756D01*
X66504D01*
X66045Y28216D01*
X79855Y82021D02*
X80314Y82480D01*
X81232D01*
X81691Y82021D01*
Y80184D01*
X81232Y79725D01*
X80314D01*
X79855Y80184D01*
X78936Y79725D02*
X78018D01*
X78477D01*
Y82480D01*
X78936Y82021D01*
X75263Y79725D02*
Y82480D01*
X76640Y81102D01*
X74804D01*
X73886Y82480D02*
Y79725D01*
X72508D01*
X72049Y80184D01*
Y80643D01*
X72508Y81102D01*
X73886D01*
X72508D01*
X72049Y81561D01*
Y82021D01*
X72508Y82480D01*
X73886D01*
X115125Y314402D02*
X114666Y314861D01*
Y315779D01*
X115125Y316239D01*
X116962D01*
X117421Y315779D01*
Y314861D01*
X116962Y314402D01*
X117421Y313484D02*
Y312565D01*
Y313024D01*
X114666D01*
X115125Y313484D01*
X117421Y309810D02*
X114666D01*
X116043Y311188D01*
Y309351D01*
X117421Y308433D02*
X115584D01*
X114666Y307514D01*
X115584Y306596D01*
X117421D01*
X116043D01*
Y308433D01*
X411877Y72276D02*
X411418Y72735D01*
Y73653D01*
X411877Y74113D01*
X413714D01*
X414173Y73653D01*
Y72735D01*
X413714Y72276D01*
X414173Y71358D02*
Y70439D01*
Y70898D01*
X411418D01*
X411877Y71358D01*
X414173Y67225D02*
Y69062D01*
X412336Y67225D01*
X411877D01*
X411418Y67684D01*
Y68603D01*
X411877Y69062D01*
Y64470D02*
X411418Y64929D01*
Y65848D01*
X411877Y66307D01*
X413714D01*
X414173Y65848D01*
Y64929D01*
X413714Y64470D01*
X411975Y138024D02*
X411516Y138483D01*
Y139401D01*
X411975Y139861D01*
X413812D01*
X414271Y139401D01*
Y138483D01*
X413812Y138024D01*
X414271Y137106D02*
Y136187D01*
Y136646D01*
X411516D01*
X411975Y137106D01*
X414271Y132973D02*
Y134810D01*
X412434Y132973D01*
X411975D01*
X411516Y133432D01*
Y134351D01*
X411975Y134810D01*
X411516Y132055D02*
X414271D01*
Y130677D01*
X413812Y130218D01*
X413353D01*
X412894Y130677D01*
Y132055D01*
Y130677D01*
X412434Y130218D01*
X411975D01*
X411516Y130677D01*
Y132055D01*
X411877Y205347D02*
X411418Y205806D01*
Y206724D01*
X411877Y207184D01*
X413714D01*
X414173Y206724D01*
Y205806D01*
X413714Y205347D01*
X414173Y204429D02*
Y203510D01*
Y203969D01*
X411418D01*
X411877Y204429D01*
X414173Y200296D02*
Y202133D01*
X412336Y200296D01*
X411877D01*
X411418Y200755D01*
Y201673D01*
X411877Y202133D01*
X414173Y199378D02*
X412336D01*
X411418Y198459D01*
X412336Y197541D01*
X414173D01*
X412795D01*
Y199378D01*
X406365Y29133D02*
X405906Y29592D01*
Y30511D01*
X406365Y30970D01*
X408202D01*
X408661Y30511D01*
Y29592D01*
X408202Y29133D01*
X408661Y28215D02*
Y27296D01*
Y27755D01*
X405906D01*
X406365Y28215D01*
X408661Y25919D02*
Y25000D01*
Y25460D01*
X405906D01*
X406365Y25919D01*
Y21786D02*
X405906Y22245D01*
Y23164D01*
X406365Y23623D01*
X408202D01*
X408661Y23164D01*
Y22245D01*
X408202Y21786D01*
X406463Y163385D02*
X406004Y163844D01*
Y164762D01*
X406463Y165222D01*
X408300D01*
X408759Y164762D01*
Y163844D01*
X408300Y163385D01*
X408759Y162467D02*
Y161548D01*
Y162007D01*
X406004D01*
X406463Y162467D01*
X408759Y160171D02*
Y159252D01*
Y159712D01*
X406004D01*
X406463Y160171D01*
X408759Y157875D02*
X406923D01*
X406004Y156957D01*
X406923Y156038D01*
X408759D01*
X407382D01*
Y157875D01*
X509514Y373186D02*
X510433D01*
X509973D01*
Y370891D01*
X510433Y370431D01*
X510892D01*
X511351Y370891D01*
X506759Y370431D02*
X508596D01*
X506759Y372268D01*
Y372727D01*
X507218Y373186D01*
X508137D01*
X508596Y372727D01*
M02*
