G04*
G04 #@! TF.GenerationSoftware,Altium Limited,Altium Designer,24.9.1 (31)*
G04*
G04 Layer_Color=8388736*
%FSLAX25Y25*%
%MOIN*%
G70*
G04*
G04 #@! TF.SameCoordinates,C12236CE-760B-4618-8C58-460BE9B597AF*
G04*
G04*
G04 #@! TF.FilePolarity,Negative*
G04*
G01*
G75*
%ADD56R,0.03556X0.04343*%
%ADD57R,0.05918X0.11430*%
%ADD58R,0.04147X0.04540*%
%ADD59R,0.02178X0.03950*%
%ADD60R,0.04343X0.03556*%
%ADD61R,0.13398X0.03162*%
%ADD62R,0.18162X0.15564*%
%ADD63R,0.03162X0.03950*%
%ADD64R,0.02769X0.05131*%
%ADD65R,0.02769X0.02769*%
%ADD66R,0.02769X0.02769*%
%ADD67R,0.05131X0.02769*%
%ADD68R,0.03950X0.03162*%
%ADD69R,0.15564X0.18162*%
%ADD70R,0.03162X0.13398*%
%ADD71R,0.10052X0.23044*%
%ADD72R,0.11430X0.05918*%
%ADD73R,0.04934X0.02769*%
%ADD74R,0.04934X0.04343*%
%ADD75R,0.04737X0.04737*%
%ADD76R,0.04540X0.04147*%
%ADD77R,0.23044X0.10052*%
%ADD78C,0.04737*%
%ADD79R,0.06312X0.02572*%
%ADD80R,0.04737X0.09068*%
%ADD81R,0.06902X0.06115*%
G04:AMPARAMS|DCode=82|XSize=31.62mil|YSize=65.09mil|CornerRadius=6.01mil|HoleSize=0mil|Usage=FLASHONLY|Rotation=90.000|XOffset=0mil|YOffset=0mil|HoleType=Round|Shape=RoundedRectangle|*
%AMROUNDEDRECTD82*
21,1,0.03162,0.05307,0,0,90.0*
21,1,0.01961,0.06509,0,0,90.0*
1,1,0.01202,0.02653,0.00980*
1,1,0.01202,0.02653,-0.00980*
1,1,0.01202,-0.02653,-0.00980*
1,1,0.01202,-0.02653,0.00980*
%
%ADD82ROUNDEDRECTD82*%
%ADD83R,0.04000X0.04800*%
%ADD84R,0.07414X0.13202*%
%ADD85R,0.04737X0.04737*%
%ADD86R,0.03950X0.03950*%
%ADD87R,0.04147X0.01981*%
%ADD88R,0.05524X0.07099*%
%ADD89R,0.12808X0.03202*%
%ADD90R,0.05524X0.03162*%
%ADD91R,0.11417X0.02559*%
%ADD92R,0.11627X0.25210*%
%ADD93C,0.22453*%
%ADD94C,0.08450*%
%ADD95C,0.14087*%
%ADD96C,0.06706*%
%ADD97R,0.06706X0.06706*%
%ADD98R,0.07591X0.07591*%
%ADD99C,0.13398*%
%ADD100C,0.02769*%
G36*
X549600Y388429D02*
X549651Y388419D01*
X549701Y388402D01*
X549748Y388379D01*
X549791Y388350D01*
X549831Y388315D01*
X549865Y388276D01*
X549894Y388232D01*
X549918Y388185D01*
X549934Y388135D01*
X549945Y388084D01*
X549948Y388032D01*
Y378189D01*
X549945Y378137D01*
X549934Y378085D01*
X549918Y378036D01*
X549894Y377989D01*
X549865Y377945D01*
X549831Y377906D01*
X549791Y377871D01*
X549748Y377842D01*
X549701Y377819D01*
X549651Y377802D01*
X549600Y377792D01*
X549547Y377788D01*
X547132D01*
X547121Y377789D01*
X547109Y377789D01*
X547094Y377791D01*
X547080Y377792D01*
X547068Y377794D01*
X547057Y377795D01*
X547043Y377799D01*
X547028Y377802D01*
X547017Y377805D01*
X547006Y377808D01*
X546993Y377814D01*
X546979Y377819D01*
X546968Y377824D01*
X546958Y377828D01*
X546945Y377835D01*
X546932Y377842D01*
X546922Y377848D01*
X546912Y377854D01*
X546900Y377863D01*
X546888Y377871D01*
X546879Y377878D01*
X546870Y377885D01*
X546860Y377896D01*
X546848Y377906D01*
X546841Y377914D01*
X546833Y377922D01*
X546355Y378458D01*
X545243Y379346D01*
X543971Y379959D01*
X542595Y380273D01*
X541184D01*
X539808Y379959D01*
X538536Y379346D01*
X537425Y378458D01*
X536946Y377922D01*
X536938Y377914D01*
X536931Y377906D01*
X536919Y377896D01*
X536909Y377885D01*
X536900Y377878D01*
X536891Y377871D01*
X536879Y377863D01*
X536867Y377854D01*
X536857Y377848D01*
X536848Y377842D01*
X536834Y377835D01*
X536821Y377828D01*
X536811Y377824D01*
X536801Y377819D01*
X536786Y377814D01*
X536773Y377808D01*
X536762Y377805D01*
X536751Y377802D01*
X536736Y377799D01*
X536722Y377795D01*
X536711Y377794D01*
X536699Y377792D01*
X536685Y377791D01*
X536670Y377789D01*
X536659Y377789D01*
X536647Y377788D01*
X534232D01*
X534180Y377792D01*
X534129Y377802D01*
X534079Y377819D01*
X534032Y377842D01*
X533988Y377871D01*
X533949Y377906D01*
X533914Y377945D01*
X533885Y377989D01*
X533862Y378036D01*
X533845Y378085D01*
X533835Y378137D01*
X533831Y378189D01*
Y388032D01*
X533835Y388084D01*
X533845Y388135D01*
X533862Y388185D01*
X533885Y388232D01*
X533914Y388276D01*
X533949Y388315D01*
X533988Y388350D01*
X534032Y388379D01*
X534079Y388402D01*
X534129Y388419D01*
X534180Y388429D01*
X534232Y388432D01*
X549547D01*
X549600Y388429D01*
D02*
G37*
G36*
Y320240D02*
X549651Y320230D01*
X549701Y320213D01*
X549748Y320190D01*
X549791Y320161D01*
X549831Y320126D01*
X549865Y320087D01*
X549894Y320043D01*
X549918Y319996D01*
X549934Y319946D01*
X549945Y319895D01*
X549948Y319843D01*
Y310000D01*
X549945Y309948D01*
X549934Y309896D01*
X549918Y309847D01*
X549894Y309800D01*
X549865Y309756D01*
X549831Y309717D01*
X549791Y309682D01*
X549748Y309653D01*
X549701Y309630D01*
X549651Y309613D01*
X549600Y309603D01*
X549547Y309599D01*
X534232D01*
X534180Y309603D01*
X534129Y309613D01*
X534079Y309630D01*
X534032Y309653D01*
X533988Y309682D01*
X533949Y309717D01*
X533914Y309756D01*
X533885Y309800D01*
X533862Y309847D01*
X533845Y309896D01*
X533835Y309948D01*
X533831Y310000D01*
Y319843D01*
X533835Y319895D01*
X533845Y319946D01*
X533862Y319996D01*
X533885Y320043D01*
X533914Y320087D01*
X533949Y320126D01*
X533988Y320161D01*
X534032Y320190D01*
X534079Y320213D01*
X534129Y320230D01*
X534180Y320240D01*
X534232Y320243D01*
X536647D01*
X536659Y320243D01*
X536670Y320243D01*
X536685Y320241D01*
X536699Y320240D01*
X536711Y320238D01*
X536722Y320236D01*
X536736Y320233D01*
X536751Y320230D01*
X536762Y320226D01*
X536773Y320223D01*
X536786Y320218D01*
X536801Y320213D01*
X536811Y320208D01*
X536821Y320203D01*
X536834Y320196D01*
X536848Y320190D01*
X536857Y320183D01*
X536867Y320178D01*
X536879Y320169D01*
X536891Y320161D01*
X536900Y320153D01*
X536909Y320146D01*
X536919Y320136D01*
X536931Y320126D01*
X536931Y320126D01*
X536938Y320117D01*
X536946Y320109D01*
X537425Y319573D01*
X538536Y318686D01*
X539808Y318073D01*
X541184Y317758D01*
X542595D01*
X543971Y318073D01*
X545243Y318686D01*
X546355Y319573D01*
X546833Y320109D01*
X546841Y320117D01*
X546848Y320126D01*
X546860Y320136D01*
X546870Y320146D01*
X546879Y320153D01*
X546888Y320161D01*
X546900Y320169D01*
X546912Y320178D01*
X546922Y320183D01*
X546932Y320190D01*
X546945Y320196D01*
X546958Y320203D01*
X546968Y320208D01*
X546979Y320213D01*
X546993Y320218D01*
X547006Y320223D01*
X547017Y320226D01*
X547028Y320230D01*
X547043Y320233D01*
X547057Y320236D01*
X547068Y320238D01*
X547080Y320240D01*
X547094Y320241D01*
X547109Y320243D01*
X547121Y320243D01*
X547132Y320243D01*
X549547Y320243D01*
X549600Y320240D01*
D02*
G37*
G36*
X22848Y142088D02*
X21847D01*
X19447Y144488D01*
X21847Y146888D01*
X22848D01*
Y142088D01*
D02*
G37*
G36*
X19248Y144488D02*
X21647Y142088D01*
X17848D01*
Y144488D01*
Y146888D01*
X21647D01*
X19248Y144488D01*
D02*
G37*
D56*
X337008Y75197D02*
D03*
X342520D02*
D03*
X337008Y79823D02*
D03*
X342520D02*
D03*
X337008Y171268D02*
D03*
X342520D02*
D03*
X337074Y262507D02*
D03*
X342585D02*
D03*
X306988Y265551D02*
D03*
X312500D02*
D03*
X307083Y256398D02*
D03*
X312595D02*
D03*
X307083Y260925D02*
D03*
X312595D02*
D03*
X321850Y279725D02*
D03*
X327362D02*
D03*
X321752Y274606D02*
D03*
X327264D02*
D03*
X342586Y257881D02*
D03*
X337074D02*
D03*
X342586Y267231D02*
D03*
X337074D02*
D03*
X407579Y90158D02*
D03*
X413091D02*
D03*
X407972Y156102D02*
D03*
X413484D02*
D03*
X409547Y209744D02*
D03*
X415059D02*
D03*
X406791Y19094D02*
D03*
X412303D02*
D03*
X4724Y153543D02*
D03*
X10236D02*
D03*
X337008Y166838D02*
D03*
X342520D02*
D03*
X337008Y175689D02*
D03*
X342519D02*
D03*
X337008Y84252D02*
D03*
X342520D02*
D03*
D57*
X203543Y256693D02*
D03*
X214567D02*
D03*
Y270079D02*
D03*
X203543D02*
D03*
X214567Y136614D02*
D03*
X203543D02*
D03*
X214567Y122933D02*
D03*
X203543D02*
D03*
D58*
X95965Y78740D02*
D03*
X101083D02*
D03*
X306102Y105216D02*
D03*
X300984D02*
D03*
X316240Y15650D02*
D03*
X311122D02*
D03*
X15945Y138189D02*
D03*
X21063D02*
D03*
X15945Y131890D02*
D03*
X21063D02*
D03*
X-19094Y148425D02*
D03*
X-24213D02*
D03*
X-19094Y141339D02*
D03*
X-24213D02*
D03*
X-19094Y134252D02*
D03*
X-24213D02*
D03*
X317618Y105217D02*
D03*
X312500D02*
D03*
X300492Y15650D02*
D03*
X305610D02*
D03*
X101083Y192913D02*
D03*
X95964D02*
D03*
X315945Y196653D02*
D03*
X310827D02*
D03*
X299606Y196653D02*
D03*
X304724D02*
D03*
X101083Y313772D02*
D03*
X95964D02*
D03*
D59*
X317028Y177953D02*
D03*
X319587D02*
D03*
X322146D02*
D03*
X324705D02*
D03*
X327264D02*
D03*
X329823D02*
D03*
X332382D02*
D03*
Y161614D02*
D03*
X329823D02*
D03*
X327264D02*
D03*
X322146D02*
D03*
X319587D02*
D03*
X317028D02*
D03*
X317027Y71555D02*
D03*
X319587D02*
D03*
X322146D02*
D03*
X327264D02*
D03*
X329823D02*
D03*
X332382D02*
D03*
Y87893D02*
D03*
X329823D02*
D03*
X327264D02*
D03*
X324705D02*
D03*
X322146D02*
D03*
X319587D02*
D03*
X317027D02*
D03*
X317027Y252165D02*
D03*
X319586D02*
D03*
X327264D02*
D03*
X329823D02*
D03*
X332382D02*
D03*
Y268504D02*
D03*
X329823D02*
D03*
X327264D02*
D03*
X324705D02*
D03*
X322146D02*
D03*
X319586D02*
D03*
X317027D02*
D03*
X322146Y252165D02*
D03*
D60*
X307579Y71752D02*
D03*
Y77264D02*
D03*
X307283Y161319D02*
D03*
Y166831D02*
D03*
X302756Y166732D02*
D03*
Y161221D02*
D03*
X312008Y166831D02*
D03*
Y161319D02*
D03*
X444488Y18209D02*
D03*
Y23720D02*
D03*
X27244Y215236D02*
D03*
Y209724D02*
D03*
X309547Y148031D02*
D03*
Y142520D02*
D03*
X304527Y148130D02*
D03*
Y142618D02*
D03*
X311122Y172736D02*
D03*
Y178248D02*
D03*
X306988Y172736D02*
D03*
Y178248D02*
D03*
X312106Y71654D02*
D03*
Y77165D02*
D03*
X302756Y77165D02*
D03*
Y71654D02*
D03*
X304331Y58661D02*
D03*
Y53149D02*
D03*
X309350Y58661D02*
D03*
Y53149D02*
D03*
X304724Y240453D02*
D03*
Y234941D02*
D03*
X317421Y27461D02*
D03*
Y21949D02*
D03*
X444882Y206299D02*
D03*
Y200787D02*
D03*
X444685Y156299D02*
D03*
Y150787D02*
D03*
X444390Y90158D02*
D03*
Y84646D02*
D03*
X309843Y234941D02*
D03*
Y240453D02*
D03*
X317717Y116634D02*
D03*
Y111122D02*
D03*
X307677Y83169D02*
D03*
Y88681D02*
D03*
X312205Y83169D02*
D03*
Y88681D02*
D03*
X317225Y203051D02*
D03*
Y208563D02*
D03*
D61*
X353701Y140094D02*
D03*
X353701Y230618D02*
D03*
X353701Y48819D02*
D03*
D62*
X350886Y127594D02*
D03*
X350886Y218118D02*
D03*
X350886Y36319D02*
D03*
D63*
X358386Y118638D02*
D03*
X353386D02*
D03*
X348386D02*
D03*
X343386D02*
D03*
X358386Y209161D02*
D03*
X353386D02*
D03*
X348386D02*
D03*
X343386D02*
D03*
X358386Y27362D02*
D03*
X353386D02*
D03*
X348386D02*
D03*
X343386D02*
D03*
D64*
X343386Y141079D02*
D03*
X343386Y231603D02*
D03*
X343386Y49803D02*
D03*
D65*
X348386Y142260D02*
D03*
X353386D02*
D03*
X358386D02*
D03*
X348386Y232784D02*
D03*
X353386D02*
D03*
X358386D02*
D03*
X348386Y50984D02*
D03*
X353386D02*
D03*
X358386D02*
D03*
D66*
X326772Y215147D02*
D03*
Y220147D02*
D03*
Y225147D02*
D03*
X326772Y132972D02*
D03*
Y127972D02*
D03*
Y122972D02*
D03*
X326772Y33150D02*
D03*
Y38150D02*
D03*
Y43150D02*
D03*
D67*
X325591Y230147D02*
D03*
X325590Y137972D02*
D03*
X325590Y48150D02*
D03*
D68*
X303150Y230147D02*
D03*
Y225147D02*
D03*
Y220147D02*
D03*
Y215147D02*
D03*
X303150Y122972D02*
D03*
Y127972D02*
D03*
Y132972D02*
D03*
Y137972D02*
D03*
X303150Y48150D02*
D03*
Y43150D02*
D03*
Y38150D02*
D03*
Y33150D02*
D03*
D69*
X312106Y222647D02*
D03*
X312106Y130472D02*
D03*
X312106Y40650D02*
D03*
D70*
X324606Y219832D02*
D03*
X324606Y127657D02*
D03*
X324606Y37835D02*
D03*
D71*
X287803Y370768D02*
D03*
Y332579D02*
D03*
X342921D02*
D03*
Y370768D02*
D03*
D72*
X367520Y254035D02*
D03*
Y243012D02*
D03*
X353346Y75492D02*
D03*
Y86516D02*
D03*
X354232Y243012D02*
D03*
Y254035D02*
D03*
X353346Y167717D02*
D03*
Y156693D02*
D03*
X380610Y254035D02*
D03*
Y243012D02*
D03*
X398031Y254626D02*
D03*
Y265650D02*
D03*
X423228Y265846D02*
D03*
Y254823D02*
D03*
X410630Y254626D02*
D03*
Y265650D02*
D03*
D73*
X325543Y236122D02*
D03*
X316583D02*
D03*
X333118Y145177D02*
D03*
X342079D02*
D03*
X342177Y54921D02*
D03*
X333217D02*
D03*
X332921Y236122D02*
D03*
X341882D02*
D03*
X316681Y54823D02*
D03*
X325642D02*
D03*
Y145079D02*
D03*
X316681D02*
D03*
D74*
X335236Y246752D02*
D03*
Y240453D02*
D03*
X341437Y246752D02*
D03*
Y240453D02*
D03*
X319488Y246752D02*
D03*
Y240453D02*
D03*
X325295Y246752D02*
D03*
Y240453D02*
D03*
X318898Y156004D02*
D03*
Y149705D02*
D03*
X325295Y156004D02*
D03*
Y149705D02*
D03*
X318898Y65453D02*
D03*
Y59153D02*
D03*
X325295Y65354D02*
D03*
Y59055D02*
D03*
X341437D02*
D03*
Y65354D02*
D03*
Y149705D02*
D03*
Y156004D02*
D03*
X335236Y59055D02*
D03*
Y65354D02*
D03*
Y149705D02*
D03*
Y156004D02*
D03*
D75*
X120472Y35531D02*
D03*
Y29626D02*
D03*
X120473Y288582D02*
D03*
Y294488D02*
D03*
X120472Y241043D02*
D03*
Y246949D02*
D03*
X120472Y141587D02*
D03*
Y147492D02*
D03*
X120473Y180512D02*
D03*
Y186417D02*
D03*
X120472Y97638D02*
D03*
Y103543D02*
D03*
D76*
X34095Y356221D02*
D03*
Y351102D02*
D03*
X-16693Y124016D02*
D03*
Y118898D02*
D03*
X526280Y310721D02*
D03*
Y305602D02*
D03*
X40630Y351102D02*
D03*
Y356220D02*
D03*
X27559Y351102D02*
D03*
Y356220D02*
D03*
X20945Y351102D02*
D03*
Y356220D02*
D03*
Y340472D02*
D03*
Y335354D02*
D03*
X-6850Y124016D02*
D03*
Y118898D02*
D03*
X2992Y124016D02*
D03*
Y118898D02*
D03*
D77*
X193504Y303150D02*
D03*
X231693D02*
D03*
Y34744D02*
D03*
X193504D02*
D03*
X231693Y89862D02*
D03*
X193504D02*
D03*
X231693Y169291D02*
D03*
X193504D02*
D03*
X231693Y223622D02*
D03*
X193504D02*
D03*
X231693Y358268D02*
D03*
X193504D02*
D03*
D78*
X32480Y300669D02*
D03*
X32480Y322001D02*
D03*
X63866Y334831D02*
D03*
X32480Y335433D02*
D03*
D79*
X420079Y161516D02*
D03*
Y158957D02*
D03*
Y156398D02*
D03*
Y153839D02*
D03*
X437402D02*
D03*
Y156398D02*
D03*
Y158957D02*
D03*
Y161516D02*
D03*
X420472Y95472D02*
D03*
Y92913D02*
D03*
Y90354D02*
D03*
Y87795D02*
D03*
X437795D02*
D03*
Y90354D02*
D03*
Y92913D02*
D03*
Y95472D02*
D03*
X420571Y211910D02*
D03*
Y209350D02*
D03*
Y206791D02*
D03*
Y204232D02*
D03*
X437894D02*
D03*
Y206791D02*
D03*
Y209350D02*
D03*
Y211910D02*
D03*
X420472Y28839D02*
D03*
Y26280D02*
D03*
Y23720D02*
D03*
Y21161D02*
D03*
X437795D02*
D03*
Y23720D02*
D03*
Y26280D02*
D03*
Y28839D02*
D03*
D80*
X137559Y278740D02*
D03*
X167559D02*
D03*
Y238976D02*
D03*
X147559D02*
D03*
X137559D02*
D03*
Y56004D02*
D03*
X167559D02*
D03*
Y16240D02*
D03*
X147559D02*
D03*
X137559D02*
D03*
Y109449D02*
D03*
X167559D02*
D03*
Y69685D02*
D03*
X147559D02*
D03*
X137559D02*
D03*
Y167093D02*
D03*
X167559D02*
D03*
Y127329D02*
D03*
X147559D02*
D03*
X137559D02*
D03*
X137559Y224046D02*
D03*
X167559D02*
D03*
Y184282D02*
D03*
X147559D02*
D03*
X137559D02*
D03*
X137559Y331496D02*
D03*
X167559D02*
D03*
Y291732D02*
D03*
X147559D02*
D03*
X137559D02*
D03*
D81*
X112500Y132410D02*
D03*
Y140284D02*
D03*
X112500Y158001D02*
D03*
Y150127D02*
D03*
X112500Y196098D02*
D03*
Y188224D02*
D03*
X112500Y170507D02*
D03*
Y178381D02*
D03*
X112500Y21063D02*
D03*
Y28937D02*
D03*
X112500Y286516D02*
D03*
Y278642D02*
D03*
X112500Y249124D02*
D03*
Y256998D02*
D03*
X112500Y238986D02*
D03*
Y231112D02*
D03*
X112500Y305020D02*
D03*
Y297146D02*
D03*
X112500Y44079D02*
D03*
Y36205D02*
D03*
X112500Y89272D02*
D03*
Y97146D02*
D03*
X112500Y105709D02*
D03*
Y113583D02*
D03*
D82*
X-12382Y147973D02*
D03*
Y142973D02*
D03*
Y137972D02*
D03*
Y132973D02*
D03*
X9075Y147973D02*
D03*
Y142973D02*
D03*
Y137972D02*
D03*
Y132973D02*
D03*
D83*
X23847Y144488D02*
D03*
X17097D02*
D03*
D84*
X-14252Y241220D02*
D03*
X4567D02*
D03*
X-14252Y258228D02*
D03*
X4567D02*
D03*
X-14252Y275236D02*
D03*
X4567D02*
D03*
D85*
X39213Y215276D02*
D03*
X33307D02*
D03*
X407283Y163091D02*
D03*
X413189D02*
D03*
X407283Y95965D02*
D03*
X413189D02*
D03*
X406397Y23819D02*
D03*
X412303D02*
D03*
X407677Y215059D02*
D03*
X413583D02*
D03*
D86*
X40630Y374528D02*
D03*
Y368228D02*
D03*
X30847Y374528D02*
D03*
Y368228D02*
D03*
X20945Y374528D02*
D03*
Y368228D02*
D03*
D87*
X308268Y21654D02*
D03*
Y23622D02*
D03*
Y25591D02*
D03*
Y27559D02*
D03*
X298819D02*
D03*
Y25591D02*
D03*
Y23622D02*
D03*
Y21654D02*
D03*
X309842Y111220D02*
D03*
Y113189D02*
D03*
Y115157D02*
D03*
Y117126D02*
D03*
X300394D02*
D03*
Y115157D02*
D03*
Y113189D02*
D03*
Y111220D02*
D03*
X300048Y202840D02*
D03*
Y204808D02*
D03*
Y206777D02*
D03*
Y208745D02*
D03*
X309497D02*
D03*
Y206777D02*
D03*
Y204808D02*
D03*
Y202840D02*
D03*
D88*
X303543Y24606D02*
D03*
X305118Y114173D02*
D03*
X304773Y205792D02*
D03*
D89*
X502598Y363071D02*
D03*
Y359055D02*
D03*
Y355039D02*
D03*
Y351024D02*
D03*
Y347008D02*
D03*
Y342992D02*
D03*
Y338976D02*
D03*
Y334961D02*
D03*
D90*
X20591Y220866D02*
D03*
Y217126D02*
D03*
Y213386D02*
D03*
X10748D02*
D03*
Y217126D02*
D03*
Y220866D02*
D03*
D91*
X-48976Y116500D02*
D03*
Y280280D02*
D03*
Y277130D02*
D03*
Y270831D02*
D03*
Y264531D02*
D03*
Y258232D02*
D03*
Y251933D02*
D03*
Y245634D02*
D03*
Y239335D02*
D03*
Y233035D02*
D03*
Y226736D02*
D03*
Y220437D02*
D03*
Y214138D02*
D03*
Y207839D02*
D03*
Y201539D02*
D03*
Y182642D02*
D03*
Y176343D02*
D03*
Y170043D02*
D03*
Y163744D02*
D03*
Y157445D02*
D03*
Y151146D02*
D03*
Y141697D02*
D03*
Y132248D02*
D03*
Y273980D02*
D03*
Y267681D02*
D03*
Y261382D02*
D03*
Y255083D02*
D03*
Y248783D02*
D03*
Y242484D02*
D03*
Y236185D02*
D03*
Y229886D02*
D03*
Y223587D02*
D03*
Y217287D02*
D03*
Y210988D02*
D03*
Y204689D02*
D03*
Y198390D02*
D03*
Y179492D02*
D03*
Y173193D02*
D03*
Y166894D02*
D03*
Y160594D02*
D03*
Y154295D02*
D03*
Y147996D02*
D03*
Y144846D02*
D03*
Y138547D02*
D03*
Y135398D02*
D03*
Y129098D02*
D03*
Y125949D02*
D03*
Y122799D02*
D03*
Y119650D02*
D03*
Y113350D02*
D03*
D92*
X445472Y49173D02*
D03*
X412795D02*
D03*
Y115157D02*
D03*
X445472D02*
D03*
Y181929D02*
D03*
X412795D02*
D03*
Y233425D02*
D03*
X445472D02*
D03*
D93*
X279528Y87795D02*
D03*
X377953D02*
D03*
X279528Y300394D02*
D03*
X377953D02*
D03*
D94*
X527557Y109803D02*
D03*
X487557D02*
D03*
Y69803D02*
D03*
X527557D02*
D03*
Y53504D02*
D03*
X487557D02*
D03*
Y13504D02*
D03*
X527557D02*
D03*
Y126102D02*
D03*
X487557D02*
D03*
Y166102D02*
D03*
X527557D02*
D03*
Y238701D02*
D03*
X487557D02*
D03*
Y278701D02*
D03*
X527557D02*
D03*
Y222402D02*
D03*
X487557D02*
D03*
Y182402D02*
D03*
X527557D02*
D03*
D95*
X502518Y89803D02*
D03*
Y33504D02*
D03*
Y146102D02*
D03*
Y258701D02*
D03*
Y202402D02*
D03*
D96*
X19213Y24291D02*
D03*
Y34291D02*
D03*
Y44291D02*
D03*
Y54291D02*
D03*
Y64291D02*
D03*
Y74291D02*
D03*
Y84291D02*
D03*
D97*
Y94291D02*
D03*
D98*
X99685Y200787D02*
D03*
X99685Y87598D02*
D03*
X99213Y321654D02*
D03*
D99*
X541890Y374016D02*
D03*
Y324016D02*
D03*
Y355709D02*
D03*
Y305709D02*
D03*
D100*
X343209Y250886D02*
D03*
X346555D02*
D03*
X306201Y48031D02*
D03*
X310630D02*
D03*
X312894D02*
D03*
X315059D02*
D03*
X317323D02*
D03*
X308465D02*
D03*
X314862Y33366D02*
D03*
X306004D02*
D03*
X308268D02*
D03*
X310433D02*
D03*
X312697D02*
D03*
X317126D02*
D03*
X318406Y43996D02*
D03*
Y37402D02*
D03*
Y41831D02*
D03*
Y35138D02*
D03*
Y46260D02*
D03*
Y39567D02*
D03*
X306004Y43996D02*
D03*
Y37402D02*
D03*
Y39567D02*
D03*
Y41831D02*
D03*
X310236Y35531D02*
D03*
X312500D02*
D03*
X314665D02*
D03*
X308071D02*
D03*
X310630Y45669D02*
D03*
X312894D02*
D03*
X315059D02*
D03*
X308465D02*
D03*
X306201Y137697D02*
D03*
X310630D02*
D03*
X312894D02*
D03*
X315059D02*
D03*
X317323D02*
D03*
X308465D02*
D03*
X314862Y123031D02*
D03*
X306004D02*
D03*
X308268D02*
D03*
X310433D02*
D03*
X312697D02*
D03*
X317126D02*
D03*
X318406Y133661D02*
D03*
Y127067D02*
D03*
Y131496D02*
D03*
Y124803D02*
D03*
Y135925D02*
D03*
Y129232D02*
D03*
X306004Y133661D02*
D03*
Y127067D02*
D03*
Y129232D02*
D03*
Y131496D02*
D03*
X310236Y125197D02*
D03*
X312500D02*
D03*
X314665D02*
D03*
X308071D02*
D03*
X310630Y135335D02*
D03*
X312894D02*
D03*
X315059D02*
D03*
X308465D02*
D03*
X308366Y227559D02*
D03*
X314961D02*
D03*
X312795D02*
D03*
X310531D02*
D03*
X307972Y217421D02*
D03*
X314567D02*
D03*
X312402D02*
D03*
X310138D02*
D03*
X305906Y223721D02*
D03*
Y221457D02*
D03*
Y219291D02*
D03*
Y225886D02*
D03*
X318307Y221457D02*
D03*
Y228150D02*
D03*
Y217028D02*
D03*
Y223721D02*
D03*
Y219291D02*
D03*
Y225886D02*
D03*
X317028Y215256D02*
D03*
X312598D02*
D03*
X310335D02*
D03*
X308169D02*
D03*
X305906D02*
D03*
X314764D02*
D03*
X308366Y229921D02*
D03*
X317224D02*
D03*
X314961D02*
D03*
X312795D02*
D03*
X310531D02*
D03*
X306102D02*
D03*
X343504Y212303D02*
D03*
Y216732D02*
D03*
Y218996D02*
D03*
Y221161D02*
D03*
Y223425D02*
D03*
Y214567D02*
D03*
X358169Y220965D02*
D03*
Y212106D02*
D03*
Y214370D02*
D03*
Y216535D02*
D03*
Y218799D02*
D03*
Y223228D02*
D03*
X347539Y224508D02*
D03*
X354134D02*
D03*
X349705D02*
D03*
X356398D02*
D03*
X345276D02*
D03*
X351969D02*
D03*
X347539Y212106D02*
D03*
X354134D02*
D03*
X351969D02*
D03*
X349705D02*
D03*
X356004Y216339D02*
D03*
Y218602D02*
D03*
Y220768D02*
D03*
Y214173D02*
D03*
X345866Y216732D02*
D03*
Y218996D02*
D03*
Y221161D02*
D03*
Y214567D02*
D03*
X343602Y121752D02*
D03*
Y126181D02*
D03*
Y128445D02*
D03*
Y130610D02*
D03*
Y132874D02*
D03*
Y124016D02*
D03*
X358268Y130413D02*
D03*
Y121555D02*
D03*
Y123819D02*
D03*
Y125984D02*
D03*
Y128248D02*
D03*
Y132677D02*
D03*
X347638Y133957D02*
D03*
X354232D02*
D03*
X349803D02*
D03*
X356496D02*
D03*
X345374D02*
D03*
X352067D02*
D03*
X347638Y121555D02*
D03*
X354232D02*
D03*
X352067D02*
D03*
X349803D02*
D03*
X356102Y125787D02*
D03*
Y128051D02*
D03*
Y130217D02*
D03*
Y123622D02*
D03*
X345965Y126181D02*
D03*
Y128445D02*
D03*
Y130610D02*
D03*
Y124016D02*
D03*
X343504Y30413D02*
D03*
Y34843D02*
D03*
Y37106D02*
D03*
Y39272D02*
D03*
Y41535D02*
D03*
Y32677D02*
D03*
X358169Y39075D02*
D03*
Y30217D02*
D03*
Y32480D02*
D03*
Y34646D02*
D03*
Y36909D02*
D03*
Y41339D02*
D03*
X347539Y42618D02*
D03*
X354134D02*
D03*
X349705D02*
D03*
X356398D02*
D03*
X345276D02*
D03*
X351969D02*
D03*
X347539Y30217D02*
D03*
X354134D02*
D03*
X351969D02*
D03*
X349705D02*
D03*
X356004Y34449D02*
D03*
Y36713D02*
D03*
Y38878D02*
D03*
Y32283D02*
D03*
X345866Y34843D02*
D03*
Y37106D02*
D03*
Y39272D02*
D03*
Y32677D02*
D03*
M02*
