G04*
G04 #@! TF.GenerationSoftware,Altium Limited,Altium Designer,24.9.1 (31)*
G04*
G04 Layer_Physical_Order=4*
G04 Layer_Color=6736896*
%FSLAX25Y25*%
%MOIN*%
G70*
G04*
G04 #@! TF.SameCoordinates,E4AAA2B5-EF63-4550-BCDA-9567FD91980C*
G04*
G04*
G04 #@! TF.FilePolarity,Positive*
G04*
G01*
G75*
%ADD10C,0.00787*%
%ADD15C,0.00984*%
%ADD101C,0.03937*%
%ADD104C,0.01968*%
%ADD106C,0.01181*%
%ADD110C,0.13287*%
%ADD111C,0.05906*%
%ADD114C,0.12598*%
%ADD115C,0.01968*%
G36*
X545972Y392535D02*
X547338Y392169D01*
X548645Y391628D01*
X549870Y390920D01*
X550993Y390059D01*
X551993Y389059D01*
X552854Y387937D01*
X553561Y386712D01*
X554103Y385405D01*
X554469Y384038D01*
X554654Y382636D01*
Y381928D01*
X554654Y233563D01*
X527702D01*
X527669Y234063D01*
X527922Y234097D01*
X528761Y234207D01*
X529883Y234672D01*
X530847Y235411D01*
X531586Y236375D01*
X532051Y237497D01*
X532209Y238701D01*
X532051Y239905D01*
X531586Y241027D01*
X530847Y241990D01*
X529883Y242730D01*
X528761Y243195D01*
X527557Y243353D01*
X526353Y243195D01*
X525231Y242730D01*
X524267Y241990D01*
X523528Y241027D01*
X523064Y239905D01*
X522905Y238701D01*
X523064Y237497D01*
X523528Y236375D01*
X524267Y235411D01*
X525231Y234672D01*
X526353Y234207D01*
X527192Y234097D01*
X527445Y234063D01*
X527413Y233563D01*
X487702D01*
X487669Y234063D01*
X487922Y234097D01*
X488761Y234207D01*
X489883Y234672D01*
X490847Y235411D01*
X491586Y236375D01*
X492051Y237497D01*
X492209Y238701D01*
X492051Y239905D01*
X491586Y241027D01*
X490847Y241990D01*
X489883Y242730D01*
X488761Y243195D01*
X487557Y243353D01*
X486353Y243195D01*
X485231Y242730D01*
X484268Y241990D01*
X483528Y241027D01*
X483064Y239905D01*
X482905Y238701D01*
X483064Y237497D01*
X483528Y236375D01*
X484268Y235411D01*
X485231Y234672D01*
X486353Y234207D01*
X487192Y234097D01*
X487445Y234063D01*
X487413Y233563D01*
X471460D01*
X456892Y248132D01*
X456241Y248567D01*
X455473Y248720D01*
X443465D01*
X442697Y248567D01*
X442045Y248132D01*
X441610Y247481D01*
X441458Y246713D01*
Y216949D01*
X441610Y216181D01*
X442045Y215530D01*
X443996Y213579D01*
X443972Y213343D01*
X443581Y212756D01*
X443443Y212065D01*
X443581Y211374D01*
X443972Y210788D01*
X444558Y210396D01*
X445250Y210259D01*
X445941Y210396D01*
X446527Y210788D01*
X446764Y210811D01*
X460480Y197095D01*
X460288Y196633D01*
X443898D01*
X443130Y196480D01*
X442478Y196045D01*
X442043Y195394D01*
X441891Y194626D01*
Y164610D01*
X441891Y164610D01*
X441891Y164609D01*
X441964Y164241D01*
X442043Y163842D01*
X442044Y163842D01*
X442044Y163841D01*
X442263Y163514D01*
X442478Y163191D01*
X442479Y163191D01*
X442479Y163190D01*
X445900Y159773D01*
X445983Y159718D01*
X445930Y159449D01*
X446067Y158758D01*
X446459Y158171D01*
X447045Y157780D01*
X447736Y157642D01*
X448006Y157696D01*
X448062Y157613D01*
X448063Y157613D01*
X448063Y157612D01*
X461807Y143882D01*
Y141024D01*
X461345Y140833D01*
X460540Y141638D01*
X459889Y142074D01*
X459121Y142226D01*
X444852D01*
X444801Y142365D01*
X444769Y142726D01*
X445274Y143064D01*
X445666Y143650D01*
X445803Y144341D01*
X445666Y145032D01*
X445274Y145618D01*
X444688Y146010D01*
X443997Y146148D01*
X443306Y146010D01*
X442720Y145618D01*
X442328Y145032D01*
X442191Y144341D01*
X442328Y143650D01*
X442720Y143064D01*
X443306Y142672D01*
X443343Y142665D01*
Y142155D01*
X442933Y142074D01*
X442282Y141638D01*
X441847Y140987D01*
X441694Y140219D01*
Y97962D01*
X441847Y97194D01*
X442282Y96543D01*
X446547Y92277D01*
X446538Y92184D01*
X446146Y91598D01*
X446008Y90906D01*
X446146Y90215D01*
X446538Y89629D01*
X447124Y89237D01*
X447815Y89100D01*
X448506Y89237D01*
X449092Y89629D01*
X449186Y89638D01*
X461807Y77017D01*
Y74245D01*
X461421Y73928D01*
X461279Y73956D01*
X439941D01*
X439590Y74244D01*
Y197719D01*
X439980Y197928D01*
X440090Y197931D01*
X440748Y197800D01*
X441439Y197937D01*
X442025Y198329D01*
X442417Y198915D01*
X442554Y199606D01*
X442417Y200298D01*
X442025Y200884D01*
X441439Y201275D01*
X440748Y201413D01*
X440090Y201282D01*
X439980Y201285D01*
X439590Y201494D01*
Y269285D01*
X454452Y284146D01*
X454972Y283959D01*
X455066Y283486D01*
X455458Y282899D01*
X456044Y282508D01*
X456735Y282370D01*
X457426Y282508D01*
X458012Y282899D01*
X458404Y283486D01*
X458541Y284177D01*
X458404Y284868D01*
X458012Y285454D01*
X457426Y285846D01*
X456952Y285940D01*
X456766Y286460D01*
X492415Y322110D01*
X492676Y322500D01*
X492768Y322961D01*
X492768Y322961D01*
Y325045D01*
X492841Y325093D01*
X493232Y325679D01*
X493370Y326371D01*
X493232Y327062D01*
X492841Y327648D01*
X492255Y328040D01*
X491564Y328177D01*
X490872Y328040D01*
X490286Y327648D01*
X489895Y327062D01*
X489757Y326371D01*
X489895Y325679D01*
X490286Y325093D01*
X490359Y325045D01*
Y323460D01*
X438280Y271381D01*
X437818Y271572D01*
Y276821D01*
X488693Y327696D01*
X488779Y327679D01*
X489471Y327817D01*
X490057Y328208D01*
X490448Y328794D01*
X490586Y329486D01*
X490448Y330177D01*
X490057Y330763D01*
X489471Y331154D01*
X489393Y331170D01*
X489443Y331670D01*
X503438D01*
X510120Y324988D01*
X510103Y324902D01*
X510241Y324210D01*
X510632Y323624D01*
X511218Y323233D01*
X511909Y323095D01*
X512601Y323233D01*
X512762Y323341D01*
X513262Y323073D01*
Y317969D01*
X512898Y317424D01*
X512761Y316732D01*
X512898Y316041D01*
X513290Y315455D01*
X513876Y315063D01*
X514567Y314926D01*
X515258Y315063D01*
X515844Y315455D01*
X516236Y316041D01*
X516373Y316732D01*
X516236Y317424D01*
X515871Y317969D01*
Y337303D01*
X515772Y337802D01*
X515489Y338226D01*
X512635Y341080D01*
X512379Y341251D01*
X512531Y341751D01*
X514672D01*
X519168Y337255D01*
Y323350D01*
X518638Y322819D01*
X517994Y322692D01*
X517408Y322300D01*
X517017Y321714D01*
X516879Y321023D01*
X517017Y320332D01*
X517408Y319745D01*
X517994Y319354D01*
X518686Y319216D01*
X519377Y319354D01*
X519963Y319745D01*
X520355Y320332D01*
X520482Y320974D01*
X521395Y321887D01*
X521678Y322310D01*
X521777Y322809D01*
Y337795D01*
X521678Y338295D01*
X521395Y338718D01*
X516135Y343978D01*
X515711Y344261D01*
X515212Y344360D01*
X494053D01*
X491238Y347174D01*
X491424Y347696D01*
X491896Y347790D01*
X492482Y348181D01*
X492873Y348767D01*
X493011Y349459D01*
X492873Y350150D01*
X492624Y350522D01*
X492498Y350808D01*
X492600Y351258D01*
X492811Y351572D01*
X492948Y352264D01*
X492811Y352955D01*
X492419Y353541D01*
X491833Y353933D01*
X491142Y354070D01*
X490450Y353933D01*
X489864Y353541D01*
X489473Y352955D01*
X489335Y352264D01*
X489473Y351572D01*
X489722Y351200D01*
X489848Y350914D01*
X489746Y350465D01*
X489536Y350150D01*
X489442Y349678D01*
X488920Y349493D01*
X488781Y349632D01*
X488357Y349915D01*
X487858Y350014D01*
X472135D01*
X471636Y349915D01*
X471213Y349632D01*
X417778Y296198D01*
X417495Y295775D01*
X417396Y295276D01*
Y203533D01*
X411566Y197702D01*
X410923Y197574D01*
X410337Y197183D01*
X409945Y196597D01*
X409808Y195906D01*
X409945Y195214D01*
X410337Y194628D01*
X410923Y194237D01*
X411614Y194099D01*
X412305Y194237D01*
X412891Y194628D01*
X413283Y195214D01*
X413411Y195857D01*
X419623Y202070D01*
X419652Y202113D01*
X420152Y201961D01*
Y178631D01*
X411271Y169750D01*
X410628Y169622D01*
X410042Y169230D01*
X409650Y168644D01*
X409513Y167953D01*
X409650Y167262D01*
X410042Y166675D01*
X410628Y166284D01*
X411319Y166147D01*
X412010Y166284D01*
X412596Y166675D01*
X412988Y167262D01*
X413116Y167905D01*
X422379Y177168D01*
X422662Y177591D01*
X422761Y178091D01*
Y290011D01*
X471603Y338853D01*
X481381D01*
X481430Y338353D01*
X481350Y338337D01*
X480960Y338076D01*
X480960Y338076D01*
X429857Y286974D01*
X429596Y286583D01*
X429504Y286122D01*
X429504Y286122D01*
Y204979D01*
X429004Y204662D01*
X428516Y204759D01*
X427825Y204622D01*
X427239Y204230D01*
X426847Y203644D01*
X426710Y202953D01*
X426847Y202261D01*
X427239Y201676D01*
X427825Y201284D01*
X428516Y201146D01*
X429004Y201243D01*
X429504Y200927D01*
Y152467D01*
X412042Y135005D01*
X411781Y134614D01*
X411690Y134153D01*
X411690Y134153D01*
Y130755D01*
X411616Y130706D01*
X411225Y130120D01*
X411087Y129429D01*
X411225Y128738D01*
X411616Y128152D01*
X412202Y127760D01*
X412894Y127623D01*
X413585Y127760D01*
X414171Y128152D01*
X414563Y128738D01*
X414700Y129429D01*
X414563Y130120D01*
X414171Y130706D01*
X414098Y130755D01*
Y133655D01*
X431560Y151117D01*
X431560Y151117D01*
X431662Y151269D01*
X432162Y151118D01*
Y112999D01*
X420134Y100971D01*
X412797D01*
X412737Y101044D01*
X412600Y101735D01*
X412208Y102321D01*
X411622Y102713D01*
X410931Y102850D01*
X410240Y102713D01*
X409654Y102321D01*
X409262Y101735D01*
X409125Y101044D01*
X409262Y100353D01*
X409654Y99767D01*
X410240Y99375D01*
X410931Y99238D01*
X411017Y99255D01*
X411357Y98915D01*
X411747Y98654D01*
X412208Y98563D01*
X420633D01*
X420633Y98563D01*
X421094Y98654D01*
X421485Y98915D01*
X434218Y111648D01*
X434218Y111648D01*
X434479Y112039D01*
X434570Y112500D01*
Y281096D01*
X485145Y331670D01*
X488117D01*
X488166Y331170D01*
X488088Y331154D01*
X487502Y330763D01*
X487111Y330177D01*
X486973Y329486D01*
X486990Y329399D01*
X435763Y278172D01*
X435502Y277781D01*
X435410Y277320D01*
X435410Y277320D01*
Y94003D01*
X412042Y70635D01*
X411781Y70244D01*
X411690Y69784D01*
X411690Y69783D01*
Y65598D01*
X411616Y65549D01*
X411225Y64963D01*
X411087Y64272D01*
X411225Y63580D01*
X411616Y62994D01*
X412202Y62603D01*
X412894Y62465D01*
X413585Y62603D01*
X414171Y62994D01*
X414563Y63580D01*
X414700Y64272D01*
X414563Y64963D01*
X414171Y65549D01*
X414098Y65598D01*
Y69285D01*
X436720Y91906D01*
X437182Y91715D01*
Y64534D01*
X410178Y37530D01*
X409917Y37139D01*
X409825Y36679D01*
X409825Y36678D01*
Y35845D01*
X409825Y35845D01*
X409744Y35791D01*
X409352Y35204D01*
X409215Y34513D01*
X409352Y33822D01*
X409744Y33236D01*
X410330Y32844D01*
X411021Y32707D01*
X411712Y32844D01*
X412298Y33236D01*
X412690Y33822D01*
X412827Y34513D01*
X412690Y35204D01*
X412298Y35791D01*
X412338Y36284D01*
X437472Y61418D01*
X437934Y61227D01*
Y35925D01*
X438087Y35157D01*
X438522Y34506D01*
X445697Y27330D01*
X445606Y26870D01*
X445744Y26179D01*
X446135Y25593D01*
X446721Y25201D01*
X447412Y25064D01*
X447872Y25155D01*
X461807Y11220D01*
Y1020D01*
X11811Y1020D01*
X11104D01*
X9701Y1204D01*
X8335Y1570D01*
X7028Y2112D01*
X5803Y2819D01*
X4680Y3680D01*
X3680Y4680D01*
X2819Y5803D01*
X2112Y7028D01*
X1570Y8335D01*
X1204Y9701D01*
X1020Y11104D01*
X1020Y11811D01*
X1020Y99508D01*
X942Y99898D01*
X721Y100229D01*
X390Y100450D01*
X-0Y100527D01*
X-23910D01*
X-23934Y100522D01*
X-23960Y100526D01*
X-24345Y100507D01*
X-24419Y100489D01*
X-24494D01*
X-25251Y100338D01*
X-25344Y100300D01*
X-25442Y100280D01*
X-26155Y99985D01*
X-26239Y99929D01*
X-26332Y99891D01*
X-26974Y99462D01*
X-27044Y99391D01*
X-27128Y99335D01*
X-27674Y98789D01*
X-27729Y98706D01*
X-27801Y98635D01*
X-28229Y97993D01*
X-28268Y97900D01*
X-28324Y97817D01*
X-28619Y97104D01*
X-28638Y97005D01*
X-28677Y96913D01*
X-28828Y96156D01*
Y96080D01*
X-28846Y96007D01*
X-28865Y95621D01*
X-28861Y95596D01*
X-28866Y95571D01*
Y93209D01*
X-28866Y93098D01*
X-28951Y92894D01*
X-29107Y92738D01*
X-29311Y92653D01*
X-33834D01*
Y105413D01*
X-33839Y105439D01*
X-33836Y105464D01*
X-33855Y105850D01*
X-33873Y105923D01*
X-33873Y105998D01*
X-34023Y106755D01*
X-34062Y106848D01*
X-34082Y106946D01*
X-34377Y107659D01*
X-34433Y107743D01*
X-34471Y107835D01*
X-34900Y108477D01*
X-34971Y108548D01*
X-35026Y108632D01*
X-35572Y109177D01*
X-35656Y109233D01*
X-35727Y109304D01*
X-36368Y109733D01*
X-36461Y109772D01*
X-36545Y109827D01*
X-37258Y110123D01*
X-37356Y110142D01*
X-37449Y110181D01*
X-38206Y110331D01*
X-38282D01*
X-38355Y110350D01*
X-38741Y110369D01*
X-38766Y110365D01*
X-38791Y110370D01*
X-57457D01*
Y184807D01*
X-38004Y184807D01*
X-37971Y184814D01*
X-37937Y184809D01*
X-37321Y184850D01*
X-37224Y184876D01*
X-37123Y184882D01*
X-35932Y185202D01*
X-35813Y185261D01*
X-35686Y185303D01*
X-34618Y185920D01*
X-34518Y186008D01*
X-34407Y186082D01*
X-33535Y186954D01*
X-33461Y187065D01*
X-33373Y187165D01*
X-32756Y188233D01*
X-32713Y188360D01*
X-32654Y188479D01*
X-32335Y189671D01*
X-32326Y189804D01*
X-32300Y189935D01*
Y191168D01*
X-32326Y191299D01*
X-32335Y191432D01*
X-32654Y192623D01*
X-32713Y192743D01*
X-32756Y192869D01*
X-33373Y193937D01*
X-33461Y194037D01*
X-33535Y194148D01*
X-34407Y195020D01*
X-34518Y195094D01*
X-34618Y195182D01*
X-35686Y195799D01*
X-35813Y195842D01*
X-35932Y195901D01*
X-37123Y196220D01*
X-37224Y196227D01*
X-37321Y196253D01*
X-37937Y196293D01*
X-37971Y196289D01*
X-38004Y196295D01*
X-57457D01*
Y283331D01*
X-38791D01*
X-38766Y283336D01*
X-38741Y283332D01*
X-38355Y283351D01*
X-38282Y283369D01*
X-38206Y283369D01*
X-37449Y283520D01*
X-37356Y283558D01*
X-37258Y283578D01*
X-36545Y283873D01*
X-36461Y283929D01*
X-36368Y283967D01*
X-35727Y284396D01*
X-35656Y284467D01*
X-35572Y284523D01*
X-35026Y285069D01*
X-34971Y285152D01*
X-34900Y285223D01*
X-34471Y285865D01*
X-34432Y285958D01*
X-34377Y286041D01*
X-34081Y286754D01*
X-34062Y286853D01*
X-34023Y286946D01*
X-33873Y287703D01*
X-33873Y287778D01*
X-33854Y287852D01*
X-33835Y288237D01*
X-33839Y288263D01*
X-33834Y288287D01*
Y301047D01*
X-29421D01*
X-29421Y301047D01*
X-29421Y301047D01*
X-29311Y301047D01*
X-29107Y300963D01*
X-28951Y300807D01*
X-28866Y300603D01*
X-28866Y300492D01*
X-28866Y300492D01*
X-28866Y300492D01*
Y298130D01*
X-28861Y298105D01*
X-28865Y298080D01*
X-28846Y297694D01*
X-28828Y297621D01*
Y297545D01*
X-28677Y296788D01*
X-28638Y296695D01*
X-28619Y296597D01*
X-28324Y295884D01*
X-28268Y295800D01*
X-28229Y295708D01*
X-27801Y295066D01*
X-27730Y294995D01*
X-27674Y294911D01*
X-27128Y294366D01*
X-27044Y294310D01*
X-26974Y294239D01*
X-26332Y293810D01*
X-26239Y293772D01*
X-26155Y293716D01*
X-25442Y293421D01*
X-25344Y293401D01*
X-25251Y293362D01*
X-24494Y293212D01*
X-24419D01*
X-24345Y293194D01*
X-23959Y293175D01*
X-23934Y293178D01*
X-23910Y293173D01*
X-0D01*
X390Y293251D01*
X721Y293472D01*
X942Y293803D01*
X1020Y294193D01*
Y381890D01*
X1020Y382597D01*
X1204Y384000D01*
X1570Y385366D01*
X2112Y386673D01*
X2819Y387898D01*
X3680Y389020D01*
X4681Y390021D01*
X5803Y390882D01*
X7028Y391589D01*
X8335Y392130D01*
X9701Y392497D01*
X11104Y392681D01*
X11811Y392681D01*
X11811Y392681D01*
X11811Y392681D01*
X543862Y392720D01*
X544569D01*
X545972Y392535D01*
D02*
G37*
G36*
X492590Y342133D02*
X492846Y341962D01*
X492694Y341462D01*
X481856D01*
X481704Y341962D01*
X481934Y342115D01*
X482326Y342702D01*
X482463Y343393D01*
X482326Y344084D01*
X481934Y344670D01*
X481751Y344792D01*
X481447Y345169D01*
X481623Y345433D01*
X481838Y345755D01*
X481976Y346446D01*
X481884Y346905D01*
X482215Y347405D01*
X487318D01*
X492590Y342133D01*
D02*
G37*
G36*
X513262Y336763D02*
Y326730D01*
X512762Y326462D01*
X512601Y326570D01*
X511909Y326708D01*
X511823Y326691D01*
X504788Y333726D01*
X504398Y333987D01*
X503937Y334078D01*
X503937Y334078D01*
X484646D01*
X484646Y334078D01*
X484185Y333987D01*
X483794Y333726D01*
X483794Y333726D01*
X432515Y282446D01*
X432413Y282294D01*
X431913Y282446D01*
Y285623D01*
X482310Y336020D01*
X492961D01*
X493010Y335947D01*
X493596Y335556D01*
X494287Y335418D01*
X494978Y335556D01*
X495565Y335947D01*
X495956Y336533D01*
X496094Y337224D01*
X495956Y337916D01*
X495664Y338353D01*
X495870Y338853D01*
X511172D01*
X513262Y336763D01*
D02*
G37*
G36*
X488770Y328501D02*
X488690Y328501D01*
X488441Y328486D01*
X488395Y328478D01*
X488356Y328468D01*
X488324Y328457D01*
X488299Y328444D01*
X488281Y328430D01*
X487724Y328987D01*
X487738Y329005D01*
X487751Y329030D01*
X487762Y329063D01*
X487772Y329101D01*
X487780Y329147D01*
X487791Y329258D01*
X487795Y329396D01*
X487795Y329476D01*
X488770Y328501D01*
D02*
G37*
G36*
X492197Y325612D02*
X492031Y325424D01*
X492005Y325386D01*
X491984Y325352D01*
X491969Y325322D01*
X491960Y325295D01*
X491957Y325272D01*
X491170D01*
X491167Y325295D01*
X491158Y325322D01*
X491143Y325352D01*
X491123Y325386D01*
X491096Y325424D01*
X491025Y325511D01*
X490931Y325612D01*
X490875Y325668D01*
X492253D01*
X492197Y325612D01*
D02*
G37*
G36*
X511429Y325943D02*
X511454Y325930D01*
X511486Y325919D01*
X511525Y325909D01*
X511571Y325902D01*
X511682Y325890D01*
X511820Y325886D01*
X511900Y325886D01*
X510925Y324911D01*
X510925Y324991D01*
X510910Y325240D01*
X510902Y325286D01*
X510892Y325325D01*
X510881Y325357D01*
X510868Y325382D01*
X510854Y325400D01*
X511411Y325957D01*
X511429Y325943D01*
D02*
G37*
G36*
X519776Y321417D02*
X519755Y321393D01*
X519737Y321367D01*
X519721Y321337D01*
X519707Y321303D01*
X519695Y321266D01*
X519686Y321226D01*
X519678Y321183D01*
X519673Y321136D01*
X519670Y321033D01*
X518696Y322007D01*
X518749Y322007D01*
X518846Y322015D01*
X518889Y322023D01*
X518929Y322032D01*
X518966Y322044D01*
X518999Y322058D01*
X519030Y322074D01*
X519056Y322092D01*
X519080Y322113D01*
X519776Y321417D01*
D02*
G37*
G36*
X515061Y317750D02*
X515067Y317719D01*
X515077Y317686D01*
X515091Y317653D01*
X515108Y317618D01*
X515130Y317583D01*
X515156Y317547D01*
X515185Y317511D01*
X515256Y317435D01*
X513878D01*
X513915Y317473D01*
X513978Y317547D01*
X514004Y317583D01*
X514026Y317618D01*
X514043Y317653D01*
X514057Y317686D01*
X514067Y317719D01*
X514073Y317750D01*
X514075Y317781D01*
X515059D01*
X515061Y317750D01*
D02*
G37*
G36*
X478454Y346905D02*
X478363Y346446D01*
X478501Y345755D01*
X478892Y345169D01*
X479075Y345046D01*
X479379Y344670D01*
X479203Y344406D01*
X478988Y344084D01*
X478850Y343393D01*
X478988Y342702D01*
X479379Y342115D01*
X479609Y341962D01*
X479457Y341462D01*
X471063D01*
X470564Y341363D01*
X470141Y341080D01*
X420534Y291474D01*
X420505Y291430D01*
X420005Y291582D01*
Y294735D01*
X472675Y347405D01*
X478124D01*
X478454Y346905D01*
D02*
G37*
G36*
X412704Y196300D02*
X412683Y196276D01*
X412665Y196249D01*
X412649Y196219D01*
X412635Y196186D01*
X412623Y196149D01*
X412614Y196109D01*
X412607Y196066D01*
X412602Y196019D01*
X412598Y195915D01*
X411624Y196890D01*
X411678Y196890D01*
X411774Y196898D01*
X411818Y196905D01*
X411858Y196915D01*
X411895Y196926D01*
X411928Y196940D01*
X411958Y196957D01*
X411985Y196975D01*
X412008Y196995D01*
X412704Y196300D01*
D02*
G37*
G36*
X475807Y226378D02*
X484303D01*
X484511Y225878D01*
X483866Y225234D01*
X483259Y224182D01*
X482945Y223009D01*
Y221794D01*
X483259Y220621D01*
X483866Y219569D01*
X484725Y218711D01*
X485777Y218104D01*
X486950Y217789D01*
X488164D01*
X489337Y218104D01*
X490389Y218711D01*
X491248Y219569D01*
X491855Y220621D01*
X492170Y221794D01*
Y223009D01*
X491855Y224182D01*
X491248Y225234D01*
X490604Y225878D01*
X490811Y226378D01*
X524303Y226378D01*
X524510Y225878D01*
X523866Y225234D01*
X523259Y224182D01*
X522945Y223009D01*
Y221794D01*
X523259Y220621D01*
X523866Y219569D01*
X524725Y218711D01*
X525777Y218104D01*
X526950Y217789D01*
X528164D01*
X529338Y218104D01*
X530389Y218711D01*
X531248Y219569D01*
X531855Y220621D01*
X532169Y221794D01*
Y223009D01*
X531855Y224182D01*
X531248Y225234D01*
X530604Y225878D01*
X530811Y226378D01*
X545669D01*
Y178347D01*
X530717D01*
X530525Y178847D01*
X531248Y179569D01*
X531855Y180621D01*
X532169Y181794D01*
Y183009D01*
X531855Y184182D01*
X531248Y185234D01*
X530389Y186092D01*
X529338Y186700D01*
X528164Y187014D01*
X526950D01*
X525777Y186700D01*
X524725Y186092D01*
X523866Y185234D01*
X523259Y184182D01*
X522945Y183009D01*
Y181794D01*
X523259Y180621D01*
X523866Y179569D01*
X524589Y178847D01*
X524398Y178347D01*
X490717D01*
X490525Y178847D01*
X491248Y179569D01*
X491855Y180621D01*
X492170Y181794D01*
Y183009D01*
X491855Y184182D01*
X491248Y185234D01*
X490389Y186092D01*
X489337Y186700D01*
X488164Y187014D01*
X486950D01*
X485777Y186700D01*
X484725Y186092D01*
X483866Y185234D01*
X483259Y184182D01*
X482945Y183009D01*
Y181794D01*
X483259Y180621D01*
X483866Y179569D01*
X484589Y178847D01*
X484398Y178347D01*
X482067D01*
X443465Y216949D01*
Y246713D01*
X455473D01*
X475807Y226378D01*
D02*
G37*
G36*
X412409Y168347D02*
X412388Y168323D01*
X412370Y168297D01*
X412354Y168267D01*
X412340Y168233D01*
X412328Y168196D01*
X412319Y168156D01*
X412312Y168113D01*
X412306Y168066D01*
X412303Y167963D01*
X411329Y168937D01*
X411382Y168938D01*
X411479Y168945D01*
X411522Y168953D01*
X411563Y168962D01*
X411599Y168974D01*
X411633Y168988D01*
X411663Y169004D01*
X411690Y169022D01*
X411713Y169043D01*
X412409Y168347D01*
D02*
G37*
G36*
X413290Y130505D02*
X413299Y130478D01*
X413314Y130448D01*
X413335Y130413D01*
X413361Y130376D01*
X413432Y130289D01*
X413527Y130188D01*
X413583Y130132D01*
X412205D01*
X412261Y130188D01*
X412426Y130376D01*
X412453Y130413D01*
X412473Y130448D01*
X412488Y130478D01*
X412497Y130505D01*
X412500Y130528D01*
X413287D01*
X413290Y130505D01*
D02*
G37*
G36*
X485388Y170754D02*
X485417Y170193D01*
X484725Y169793D01*
X483866Y168935D01*
X483259Y167883D01*
X482945Y166710D01*
Y165495D01*
X483259Y164322D01*
X483866Y163270D01*
X484725Y162412D01*
X485777Y161804D01*
X486950Y161490D01*
X488164D01*
X489337Y161804D01*
X490389Y162412D01*
X491248Y163270D01*
X491855Y164322D01*
X492170Y165495D01*
Y166710D01*
X491855Y167883D01*
X491248Y168935D01*
X490389Y169793D01*
X489738Y170169D01*
X489872Y170669D01*
X525242D01*
X525376Y170169D01*
X524725Y169793D01*
X523866Y168935D01*
X523259Y167883D01*
X522945Y166710D01*
Y165495D01*
X523259Y164322D01*
X523866Y163270D01*
X524725Y162412D01*
X525777Y161804D01*
X526950Y161490D01*
X528164D01*
X529338Y161804D01*
X530389Y162412D01*
X531248Y163270D01*
X531855Y164322D01*
X532169Y165495D01*
Y166710D01*
X531855Y167883D01*
X531248Y168935D01*
X530389Y169793D01*
X529738Y170169D01*
X529872Y170669D01*
X544158D01*
Y121457D01*
X529735D01*
X529601Y121957D01*
X530389Y122412D01*
X531248Y123270D01*
X531855Y124322D01*
X532169Y125495D01*
Y126710D01*
X531855Y127883D01*
X531248Y128935D01*
X530389Y129793D01*
X529338Y130401D01*
X528164Y130715D01*
X526950D01*
X525777Y130401D01*
X524725Y129793D01*
X523866Y128935D01*
X523259Y127883D01*
X522945Y126710D01*
Y125495D01*
X523259Y124322D01*
X523866Y123270D01*
X524725Y122412D01*
X525513Y121957D01*
X525379Y121457D01*
X489735D01*
X489601Y121957D01*
X490389Y122412D01*
X491248Y123270D01*
X491855Y124322D01*
X492170Y125495D01*
Y126710D01*
X491855Y127883D01*
X491248Y128935D01*
X490389Y129793D01*
X489337Y130401D01*
X488164Y130715D01*
X486950D01*
X485777Y130401D01*
X484725Y129793D01*
X483866Y128935D01*
X483259Y127883D01*
X482945Y126710D01*
Y126256D01*
X482483Y126065D01*
X449481Y159032D01*
X449508Y159096D01*
Y159801D01*
X449238Y160452D01*
X448740Y160951D01*
X448089Y161221D01*
X447384D01*
X447318Y161193D01*
X443898Y164610D01*
Y194626D01*
X461516D01*
X485388Y170754D01*
D02*
G37*
G36*
X471646Y127694D02*
X484982Y114971D01*
X485005Y114950D01*
X485057Y114916D01*
X485114Y114892D01*
X485176Y114880D01*
X485207Y114878D01*
X486744D01*
X486810Y114378D01*
X485777Y114101D01*
X484725Y113494D01*
X483866Y112635D01*
X483259Y111583D01*
X482945Y110410D01*
Y109196D01*
X483259Y108023D01*
X483866Y106971D01*
X484725Y106112D01*
X485777Y105505D01*
X486950Y105191D01*
X488164D01*
X489337Y105505D01*
X490389Y106112D01*
X491248Y106971D01*
X491855Y108023D01*
X492170Y109196D01*
Y110410D01*
X491855Y111583D01*
X491248Y112635D01*
X490389Y113494D01*
X489337Y114101D01*
X488304Y114378D01*
X488370Y114878D01*
X526744D01*
X526810Y114378D01*
X525777Y114101D01*
X524725Y113494D01*
X523866Y112635D01*
X523259Y111583D01*
X522945Y110410D01*
Y109196D01*
X523259Y108023D01*
X523866Y106971D01*
X524725Y106112D01*
X525777Y105505D01*
X526950Y105191D01*
X528164D01*
X529338Y105505D01*
X530389Y106112D01*
X531248Y106971D01*
X531855Y108023D01*
X532169Y109196D01*
Y110410D01*
X531855Y111583D01*
X531248Y112635D01*
X530389Y113494D01*
X529338Y114101D01*
X528304Y114378D01*
X528370Y114878D01*
X543673D01*
Y65354D01*
X530076D01*
X529942Y65854D01*
X530389Y66112D01*
X531248Y66971D01*
X531855Y68023D01*
X532169Y69196D01*
Y70411D01*
X531855Y71583D01*
X531248Y72635D01*
X530389Y73494D01*
X529338Y74101D01*
X528164Y74416D01*
X526950D01*
X525777Y74101D01*
X524725Y73494D01*
X523866Y72635D01*
X523259Y71583D01*
X522945Y70411D01*
Y69196D01*
X523259Y68023D01*
X523866Y66971D01*
X524725Y66112D01*
X525172Y65854D01*
X525038Y65354D01*
X490076D01*
X489942Y65854D01*
X490389Y66112D01*
X491248Y66971D01*
X491855Y68023D01*
X492170Y69196D01*
Y70411D01*
X491855Y71583D01*
X491248Y72635D01*
X490389Y73494D01*
X489337Y74101D01*
X488164Y74416D01*
X486950D01*
X485777Y74101D01*
X484725Y73494D01*
X483866Y72635D01*
X483259Y71583D01*
X482945Y70411D01*
Y69196D01*
X483259Y68023D01*
X483866Y66971D01*
X484725Y66112D01*
X485172Y65854D01*
X485038Y65354D01*
X476308D01*
X443701Y97962D01*
Y140219D01*
X459121D01*
X471646Y127694D01*
D02*
G37*
G36*
X413290Y65347D02*
X413299Y65321D01*
X413314Y65290D01*
X413335Y65256D01*
X413361Y65218D01*
X413432Y65132D01*
X413527Y65031D01*
X413583Y64974D01*
X412205D01*
X412261Y65031D01*
X412426Y65218D01*
X412453Y65256D01*
X412473Y65290D01*
X412488Y65321D01*
X412497Y65347D01*
X412500Y65371D01*
X413287D01*
X413290Y65347D01*
D02*
G37*
G36*
X411423Y35608D02*
X411426Y35585D01*
X411435Y35559D01*
X411449Y35528D01*
X411470Y35494D01*
X411496Y35456D01*
X411567Y35369D01*
X411660Y35267D01*
X411716Y35210D01*
X410338Y35222D01*
X410395Y35278D01*
X410561Y35464D01*
X410588Y35501D01*
X410609Y35535D01*
X410624Y35566D01*
X410633Y35593D01*
X410636Y35616D01*
X411423Y35608D01*
D02*
G37*
G36*
X474370Y58858D02*
X544158D01*
Y8465D01*
X528503D01*
X528437Y8965D01*
X529338Y9206D01*
X530389Y9813D01*
X531248Y10672D01*
X531855Y11724D01*
X532169Y12897D01*
Y14111D01*
X531855Y15284D01*
X531248Y16336D01*
X530389Y17195D01*
X529338Y17802D01*
X528164Y18116D01*
X526950D01*
X525777Y17802D01*
X524725Y17195D01*
X523866Y16336D01*
X523259Y15284D01*
X522945Y14111D01*
Y12897D01*
X523259Y11724D01*
X523866Y10672D01*
X524725Y9813D01*
X525777Y9206D01*
X526678Y8965D01*
X526612Y8465D01*
X488503D01*
X488437Y8965D01*
X489337Y9206D01*
X490389Y9813D01*
X491248Y10672D01*
X491855Y11724D01*
X492170Y12897D01*
Y14111D01*
X491855Y15284D01*
X491248Y16336D01*
X490389Y17195D01*
X489337Y17802D01*
X488164Y18116D01*
X486950D01*
X485777Y17802D01*
X484725Y17195D01*
X483866Y16336D01*
X483259Y15284D01*
X482945Y14111D01*
Y12897D01*
X483259Y11724D01*
X483866Y10672D01*
X484725Y9813D01*
X485777Y9206D01*
X486678Y8965D01*
X486612Y8465D01*
X467402D01*
X449184Y26682D01*
Y27222D01*
X448914Y27874D01*
X448416Y28372D01*
X447765Y28642D01*
X447224D01*
X439941Y35925D01*
Y71949D01*
X461279D01*
X474370Y58858D01*
D02*
G37*
%LPC*%
G36*
X112841Y385816D02*
X112149Y385679D01*
X111563Y385287D01*
X111172Y384701D01*
X111034Y384010D01*
X111172Y383318D01*
X111563Y382733D01*
X112149Y382341D01*
X112750Y382221D01*
X112663Y381787D01*
X112801Y381096D01*
X113192Y380510D01*
X113778Y380118D01*
X114470Y379980D01*
X115161Y380118D01*
X115747Y380510D01*
X116139Y381096D01*
X116276Y381787D01*
X116139Y382478D01*
X115747Y383064D01*
X115161Y383456D01*
X114561Y383575D01*
X114647Y384010D01*
X114509Y384701D01*
X114118Y385287D01*
X113532Y385679D01*
X112841Y385816D01*
D02*
G37*
G36*
X100000Y376413D02*
X99309Y376275D01*
X98723Y375884D01*
X98331Y375298D01*
X98194Y374606D01*
X98331Y373915D01*
X98723Y373329D01*
X99309Y372937D01*
X100000Y372800D01*
X100691Y372937D01*
X101277Y373329D01*
X101669Y373915D01*
X101806Y374606D01*
X101669Y375298D01*
X101277Y375884D01*
X100691Y376275D01*
X100000Y376413D01*
D02*
G37*
G36*
X117504Y378283D02*
X116813Y378146D01*
X116227Y377754D01*
X115835Y377168D01*
X115698Y376477D01*
X115835Y375785D01*
X116227Y375199D01*
X116813Y374808D01*
X116997Y374332D01*
X116894Y373819D01*
X117032Y373128D01*
X117423Y372542D01*
X118009Y372150D01*
X118701Y372012D01*
X119392Y372150D01*
X119978Y372542D01*
X120370Y373128D01*
X120507Y373819D01*
X120370Y374510D01*
X119978Y375096D01*
X119392Y375488D01*
X119208Y375964D01*
X119310Y376477D01*
X119173Y377168D01*
X118781Y377754D01*
X118195Y378146D01*
X117504Y378283D01*
D02*
G37*
G36*
X541890Y380345D02*
X540655Y380224D01*
X539467Y379864D01*
X538373Y379279D01*
X537414Y378491D01*
X536627Y377532D01*
X536042Y376438D01*
X535682Y375251D01*
X535560Y374016D01*
X535682Y372781D01*
X536042Y371593D01*
X536627Y370499D01*
X537414Y369540D01*
X538373Y368753D01*
X539467Y368168D01*
X540655Y367808D01*
X541890Y367686D01*
X543125Y367808D01*
X544312Y368168D01*
X545406Y368753D01*
X546365Y369540D01*
X547153Y370499D01*
X547738Y371593D01*
X548098Y372781D01*
X548219Y374016D01*
X548098Y375251D01*
X547738Y376438D01*
X547153Y377532D01*
X546365Y378491D01*
X545406Y379279D01*
X544312Y379864D01*
X543125Y380224D01*
X541890Y380345D01*
D02*
G37*
G36*
X195276Y370148D02*
X194584Y370011D01*
X193998Y369619D01*
X193607Y369033D01*
X193469Y368342D01*
X193607Y367651D01*
X193998Y367064D01*
X194584Y366673D01*
X195276Y366535D01*
X195967Y366673D01*
X196553Y367064D01*
X196944Y367651D01*
X197082Y368342D01*
X196944Y369033D01*
X196553Y369619D01*
X195967Y370011D01*
X195276Y370148D01*
D02*
G37*
G36*
X91000Y370095D02*
X90309Y369958D01*
X89723Y369566D01*
X89332Y368980D01*
X89194Y368289D01*
X89332Y367598D01*
X89723Y367012D01*
X90309Y366620D01*
X91000Y366483D01*
X91692Y366620D01*
X92278Y367012D01*
X92669Y367598D01*
X92807Y368289D01*
X92669Y368980D01*
X92278Y369566D01*
X91692Y369958D01*
X91000Y370095D01*
D02*
G37*
G36*
X175000Y369523D02*
X174309Y369385D01*
X173723Y368994D01*
X173331Y368408D01*
X173194Y367717D01*
X173331Y367025D01*
X173723Y366439D01*
X174309Y366048D01*
X175000Y365910D01*
X175691Y366048D01*
X176277Y366439D01*
X176669Y367025D01*
X176806Y367717D01*
X176669Y368408D01*
X176277Y368994D01*
X175691Y369385D01*
X175000Y369523D01*
D02*
G37*
G36*
X224311Y366472D02*
X223620Y366334D01*
X223034Y365943D01*
X222642Y365357D01*
X222505Y364665D01*
X222642Y363974D01*
X223034Y363388D01*
X223620Y362997D01*
X224311Y362859D01*
X225002Y362997D01*
X225588Y363388D01*
X225980Y363974D01*
X226117Y364665D01*
X225980Y365357D01*
X225588Y365943D01*
X225002Y366334D01*
X224311Y366472D01*
D02*
G37*
G36*
X490609Y365349D02*
X489918Y365211D01*
X489332Y364820D01*
X488940Y364234D01*
X488803Y363542D01*
X488940Y362851D01*
X489305Y362306D01*
X488976Y362087D01*
X488585Y361501D01*
X488447Y360809D01*
X488585Y360118D01*
X488976Y359532D01*
X489562Y359141D01*
X490254Y359003D01*
X490945Y359141D01*
X491531Y359532D01*
X491923Y360118D01*
X492060Y360809D01*
X491923Y361501D01*
X491558Y362046D01*
X491887Y362265D01*
X492278Y362851D01*
X492416Y363542D01*
X492278Y364234D01*
X491887Y364820D01*
X491301Y365211D01*
X490609Y365349D01*
D02*
G37*
G36*
X146949Y361441D02*
X146229Y361346D01*
X145559Y361069D01*
X144983Y360627D01*
X144951Y360585D01*
X144865Y360504D01*
X144833Y360478D01*
X144818Y360468D01*
X23425D01*
X22734Y360330D01*
X22148Y359939D01*
X11223Y349013D01*
X10831Y348428D01*
X10694Y347736D01*
X10831Y347045D01*
X11223Y346459D01*
X11809Y346067D01*
X12500Y345930D01*
X13191Y346067D01*
X13777Y346459D01*
X24173Y356855D01*
X144818D01*
X144824Y356851D01*
X144925Y356765D01*
X144946Y356744D01*
X144983Y356696D01*
X145559Y356254D01*
X146229Y355977D01*
X146949Y355882D01*
X147668Y355977D01*
X148339Y356254D01*
X148914Y356696D01*
X149356Y357272D01*
X149634Y357942D01*
X149729Y358661D01*
X149634Y359381D01*
X149356Y360051D01*
X148914Y360627D01*
X148339Y361069D01*
X147668Y361346D01*
X146949Y361441D01*
D02*
G37*
G36*
X472582Y361842D02*
X471891Y361705D01*
X471305Y361313D01*
X470913Y360727D01*
X470776Y360036D01*
X470913Y359345D01*
X471305Y358758D01*
Y358655D01*
X471164Y358561D01*
X470772Y357975D01*
X470635Y357283D01*
X470772Y356592D01*
X471164Y356006D01*
X471750Y355615D01*
X472441Y355477D01*
X473132Y355615D01*
X473718Y356006D01*
X474110Y356592D01*
X474247Y357283D01*
X474110Y357975D01*
X473718Y358561D01*
Y358664D01*
X473860Y358758D01*
X474251Y359345D01*
X474389Y360036D01*
X474251Y360727D01*
X473860Y361313D01*
X473273Y361705D01*
X472582Y361842D01*
D02*
G37*
G36*
X541890Y362038D02*
X540655Y361917D01*
X539467Y361557D01*
X538373Y360972D01*
X537414Y360184D01*
X536627Y359225D01*
X536042Y358131D01*
X535682Y356943D01*
X535560Y355709D01*
X535682Y354474D01*
X536042Y353286D01*
X536627Y352192D01*
X537414Y351233D01*
X538373Y350446D01*
X539467Y349861D01*
X540655Y349501D01*
X541890Y349379D01*
X543125Y349501D01*
X544312Y349861D01*
X545406Y350446D01*
X546365Y351233D01*
X547153Y352192D01*
X547738Y353286D01*
X548098Y354474D01*
X548219Y355709D01*
X548098Y356943D01*
X547738Y358131D01*
X547153Y359225D01*
X546365Y360184D01*
X545406Y360972D01*
X544312Y361557D01*
X543125Y361917D01*
X541890Y362038D01*
D02*
G37*
G36*
X234350Y353173D02*
X233631Y353079D01*
X232961Y352801D01*
X232385Y352359D01*
X231943Y351783D01*
X231665Y351113D01*
X231571Y350394D01*
X231665Y349674D01*
X231943Y349004D01*
X232385Y348428D01*
X232961Y347986D01*
X233631Y347709D01*
X234350Y347614D01*
X235070Y347709D01*
X235740Y347986D01*
X236316Y348428D01*
X236758Y349004D01*
X237035Y349674D01*
X237130Y350394D01*
X237035Y351113D01*
X236758Y351783D01*
X236316Y352359D01*
X235740Y352801D01*
X235070Y353079D01*
X234350Y353173D01*
D02*
G37*
G36*
X136221Y352397D02*
X136138Y352380D01*
X52399D01*
X51708Y352243D01*
X51122Y351851D01*
X45739Y346468D01*
X40551D01*
X40175Y346393D01*
X32957D01*
X32622Y346893D01*
X32712Y347342D01*
X32574Y348034D01*
X32183Y348620D01*
X31597Y349011D01*
X30906Y349149D01*
X30214Y349011D01*
X29628Y348620D01*
X29237Y348034D01*
X29099Y347342D01*
X29189Y346893D01*
X29046Y346609D01*
X28896Y346420D01*
X28823Y346370D01*
X28246Y346255D01*
X27660Y345864D01*
X15455Y333659D01*
X15063Y333073D01*
X14926Y332382D01*
X15063Y331691D01*
X15455Y331105D01*
X16041Y330713D01*
X16732Y330575D01*
X17424Y330713D01*
X18010Y331105D01*
X29685Y342780D01*
X40476D01*
X40852Y342855D01*
X46486D01*
X46487Y342855D01*
X47178Y342992D01*
X47764Y343384D01*
X53148Y348768D01*
X136204D01*
X136895Y348905D01*
X137481Y349297D01*
X137498Y349313D01*
X137889Y349899D01*
X138027Y350590D01*
X137889Y351282D01*
X137498Y351868D01*
X136912Y352259D01*
X136221Y352397D01*
D02*
G37*
G36*
X446063Y346776D02*
X445344Y346681D01*
X444673Y346403D01*
X444098Y345962D01*
X443967Y345791D01*
X443336D01*
X443206Y345962D01*
X442630Y346403D01*
X441960Y346681D01*
X441240Y346776D01*
X440521Y346681D01*
X439850Y346403D01*
X439275Y345962D01*
X438859Y345420D01*
X438591Y345385D01*
X438574D01*
X438306Y345420D01*
X437891Y345962D01*
X437315Y346403D01*
X436645Y346681D01*
X435925Y346776D01*
X435206Y346681D01*
X434535Y346403D01*
X433960Y345962D01*
X433518Y345386D01*
X433240Y344715D01*
X433146Y343996D01*
X433240Y343277D01*
X433518Y342606D01*
X433960Y342031D01*
X434535Y341589D01*
X435206Y341311D01*
X435925Y341216D01*
X436645Y341311D01*
X437315Y341589D01*
X437891Y342031D01*
X438306Y342572D01*
X438574Y342607D01*
X438591D01*
X438859Y342572D01*
X439275Y342031D01*
X439850Y341589D01*
X440521Y341311D01*
X441240Y341216D01*
X441960Y341311D01*
X442630Y341589D01*
X443206Y342031D01*
X443336Y342201D01*
X443967D01*
X444098Y342031D01*
X444673Y341589D01*
X445344Y341311D01*
X446063Y341216D01*
X446782Y341311D01*
X447453Y341589D01*
X448029Y342031D01*
X448470Y342606D01*
X448748Y343277D01*
X448843Y343996D01*
X448748Y344715D01*
X448470Y345386D01*
X448029Y345962D01*
X447453Y346403D01*
X446782Y346681D01*
X446063Y346776D01*
D02*
G37*
G36*
X245079Y352397D02*
X244388Y352259D01*
X243801Y351868D01*
X243410Y351282D01*
X243272Y350591D01*
X243410Y349899D01*
X243801Y349313D01*
Y348817D01*
X243410Y348231D01*
X243272Y347539D01*
X243410Y346848D01*
X243801Y346262D01*
X244388Y345870D01*
X245079Y345733D01*
X245770Y345870D01*
X246356Y346262D01*
X246748Y346848D01*
X246885Y347539D01*
X246748Y348231D01*
X246356Y348817D01*
Y349313D01*
X246748Y349899D01*
X246885Y350591D01*
X246748Y351282D01*
X246356Y351868D01*
X245770Y352259D01*
X245079Y352397D01*
D02*
G37*
G36*
X182780Y347286D02*
X182089Y347149D01*
X181503Y346757D01*
X181111Y346171D01*
X180974Y345480D01*
X181111Y344789D01*
X181503Y344203D01*
X182089Y343811D01*
X182780Y343673D01*
X183471Y343811D01*
X184057Y344203D01*
X184449Y344789D01*
X184587Y345480D01*
X184449Y346171D01*
X184057Y346757D01*
X183471Y347149D01*
X182780Y347286D01*
D02*
G37*
G36*
X317224Y343036D02*
X316505Y342941D01*
X315835Y342663D01*
X315259Y342221D01*
X315079Y341987D01*
X314449D01*
X314269Y342221D01*
X313693Y342663D01*
X313023Y342941D01*
X312303Y343036D01*
X311584Y342941D01*
X310913Y342663D01*
X310338Y342221D01*
X309986Y341764D01*
X309802Y341719D01*
X309588D01*
X309403Y341764D01*
X309052Y342221D01*
X308476Y342663D01*
X307806Y342941D01*
X307087Y343036D01*
X306367Y342941D01*
X305697Y342663D01*
X305121Y342221D01*
X304679Y341646D01*
X304402Y340975D01*
X304307Y340256D01*
X304402Y339536D01*
X304679Y338866D01*
X305121Y338290D01*
X305579Y337939D01*
X305623Y337754D01*
Y337541D01*
X305579Y337356D01*
X305121Y337005D01*
X304679Y336429D01*
X304402Y335759D01*
X304307Y335039D01*
X304402Y334320D01*
X304679Y333649D01*
X305121Y333074D01*
X305697Y332632D01*
X306367Y332354D01*
X307087Y332260D01*
X307806Y332354D01*
X308476Y332632D01*
X309052Y333074D01*
X309470Y333619D01*
X309494Y333631D01*
X309570Y333651D01*
X310039Y333660D01*
X310338Y333271D01*
X310913Y332829D01*
X311584Y332551D01*
X312303Y332456D01*
X313023Y332551D01*
X313693Y332829D01*
X314269Y333271D01*
X314473Y333537D01*
X314512Y333556D01*
X315090Y333520D01*
X315357Y333172D01*
X315933Y332731D01*
X316603Y332453D01*
X317323Y332358D01*
X318042Y332453D01*
X318713Y332731D01*
X319288Y333172D01*
X319730Y333748D01*
X320008Y334418D01*
X320103Y335138D01*
X320008Y335857D01*
X319730Y336528D01*
X319288Y337103D01*
X318856Y337435D01*
X318816Y337909D01*
X318850Y338029D01*
X319190Y338290D01*
X319632Y338866D01*
X319909Y339536D01*
X320004Y340256D01*
X319909Y340975D01*
X319632Y341646D01*
X319190Y342221D01*
X318614Y342663D01*
X317944Y342941D01*
X317224Y343036D01*
D02*
G37*
G36*
X124116Y345214D02*
X123425Y345077D01*
X122839Y344685D01*
X122448Y344099D01*
X122310Y343408D01*
X122448Y342717D01*
X122839Y342130D01*
X123425Y341739D01*
X124116Y341601D01*
X124808Y341739D01*
X125394Y342130D01*
X125785Y342717D01*
X125923Y343408D01*
X125785Y344099D01*
X125394Y344685D01*
X124808Y345077D01*
X124116Y345214D01*
D02*
G37*
G36*
X220866Y344511D02*
X220175Y344373D01*
X219589Y343982D01*
X219197Y343396D01*
X219060Y342705D01*
X219197Y342013D01*
X219589Y341427D01*
X220175Y341036D01*
X220866Y340898D01*
X221557Y341036D01*
X222143Y341427D01*
X222535Y342013D01*
X222673Y342705D01*
X222535Y343396D01*
X222143Y343982D01*
X221557Y344373D01*
X220866Y344511D01*
D02*
G37*
G36*
X383287Y340772D02*
X382568Y340677D01*
X381898Y340399D01*
X381322Y339958D01*
X380880Y339382D01*
X380792Y339170D01*
X380251D01*
X380163Y339382D01*
X379721Y339958D01*
X379146Y340399D01*
X378475Y340677D01*
X377756Y340772D01*
X377036Y340677D01*
X376366Y340399D01*
X375790Y339958D01*
X375398Y339446D01*
X375324Y339413D01*
X375161Y339392D01*
X374819Y339410D01*
X374505Y339820D01*
X373929Y340262D01*
X373259Y340539D01*
X372539Y340634D01*
X371820Y340539D01*
X371149Y340262D01*
X370574Y339820D01*
X370132Y339244D01*
X369854Y338574D01*
X369760Y337854D01*
X369854Y337135D01*
X370132Y336465D01*
X370574Y335889D01*
X371149Y335447D01*
X371820Y335169D01*
X372539Y335075D01*
X373259Y335169D01*
X373929Y335447D01*
X374505Y335889D01*
X374897Y336400D01*
X374972Y336434D01*
X375134Y336455D01*
X375476Y336436D01*
X375790Y336027D01*
X376366Y335585D01*
X377036Y335307D01*
X377756Y335212D01*
X378475Y335307D01*
X379146Y335585D01*
X379721Y336027D01*
X380163Y336602D01*
X380251Y336814D01*
X380792D01*
X380880Y336602D01*
X381322Y336027D01*
X381898Y335585D01*
X382568Y335307D01*
X383287Y335212D01*
X384007Y335307D01*
X384677Y335585D01*
X385253Y336027D01*
X385695Y336602D01*
X385972Y337273D01*
X386067Y337992D01*
X385972Y338712D01*
X385695Y339382D01*
X385253Y339958D01*
X384677Y340399D01*
X384007Y340677D01*
X383287Y340772D01*
D02*
G37*
G36*
X434350Y334641D02*
X433659Y334504D01*
X433073Y334112D01*
X432682Y333526D01*
X432544Y332835D01*
X432682Y332143D01*
X433073Y331557D01*
X433659Y331166D01*
X434350Y331028D01*
X435042Y331166D01*
X435628Y331557D01*
X436019Y332143D01*
X436157Y332835D01*
X436019Y333526D01*
X435628Y334112D01*
X435042Y334504D01*
X434350Y334641D01*
D02*
G37*
G36*
X471850Y336846D02*
X471159Y336708D01*
X470573Y336317D01*
X470182Y335731D01*
X470044Y335039D01*
X470097Y334773D01*
X469983Y334299D01*
X469733Y334237D01*
X469289Y334149D01*
X468703Y333758D01*
X468311Y333172D01*
X468174Y332480D01*
X468311Y331789D01*
X468703Y331203D01*
X469289Y330812D01*
X469980Y330674D01*
X470672Y330812D01*
X471258Y331203D01*
X471649Y331789D01*
X471787Y332480D01*
X471734Y332746D01*
X471847Y333220D01*
X472098Y333282D01*
X472542Y333370D01*
X473128Y333762D01*
X473519Y334348D01*
X473657Y335039D01*
X473519Y335731D01*
X473128Y336317D01*
X472542Y336708D01*
X471850Y336846D01*
D02*
G37*
G36*
X204626Y333302D02*
X203935Y333165D01*
X203349Y332773D01*
X202957Y332187D01*
X202820Y331496D01*
X202957Y330805D01*
X203349Y330219D01*
X203935Y329827D01*
X204626Y329690D01*
X205317Y329827D01*
X205903Y330219D01*
X206295Y330805D01*
X206432Y331496D01*
X206295Y332187D01*
X205903Y332773D01*
X205317Y333165D01*
X204626Y333302D01*
D02*
G37*
G36*
X28543Y330634D02*
X27824Y330539D01*
X27154Y330262D01*
X26578Y329820D01*
X26136Y329244D01*
X25858Y328574D01*
X25764Y327854D01*
X25858Y327135D01*
X26136Y326465D01*
X26578Y325889D01*
X27154Y325447D01*
X27824Y325169D01*
X28543Y325075D01*
X29263Y325169D01*
X29933Y325447D01*
X30509Y325889D01*
X30951Y326465D01*
X31228Y327135D01*
X31323Y327854D01*
X31228Y328574D01*
X30951Y329244D01*
X30509Y329820D01*
X29933Y330262D01*
X29263Y330539D01*
X28543Y330634D01*
D02*
G37*
G36*
X124213Y321688D02*
X123521Y321551D01*
X122935Y321159D01*
X122544Y320573D01*
X122406Y319882D01*
X122544Y319191D01*
X122935Y318605D01*
X123521Y318213D01*
X124213Y318075D01*
X124904Y318213D01*
X125490Y318605D01*
X125882Y319191D01*
X126019Y319882D01*
X125882Y320573D01*
X125490Y321159D01*
X124904Y321551D01*
X124213Y321688D01*
D02*
G37*
G36*
X541890Y330345D02*
X540655Y330224D01*
X539467Y329864D01*
X538373Y329279D01*
X537414Y328491D01*
X536627Y327532D01*
X536042Y326438D01*
X535682Y325251D01*
X535560Y324016D01*
X535682Y322781D01*
X536042Y321593D01*
X536627Y320499D01*
X537414Y319540D01*
X538373Y318753D01*
X539467Y318168D01*
X540655Y317808D01*
X541890Y317686D01*
X543125Y317808D01*
X544312Y318168D01*
X545406Y318753D01*
X546365Y319540D01*
X547153Y320499D01*
X547738Y321593D01*
X548098Y322781D01*
X548219Y324016D01*
X548098Y325251D01*
X547738Y326438D01*
X547153Y327532D01*
X546365Y328491D01*
X545406Y329279D01*
X544312Y329864D01*
X543125Y330224D01*
X541890Y330345D01*
D02*
G37*
G36*
X103396Y325837D02*
X95029D01*
Y317471D01*
X103396D01*
Y325837D01*
D02*
G37*
G36*
X234350Y321677D02*
X233631Y321583D01*
X232961Y321305D01*
X232385Y320863D01*
X231943Y320287D01*
X231665Y319617D01*
X231571Y318898D01*
X231665Y318178D01*
X231943Y317508D01*
X232385Y316932D01*
X232961Y316490D01*
X233631Y316213D01*
X234350Y316118D01*
X235070Y316213D01*
X235740Y316490D01*
X236316Y316932D01*
X236758Y317508D01*
X237035Y318178D01*
X237130Y318898D01*
X237035Y319617D01*
X236758Y320287D01*
X236316Y320863D01*
X235740Y321305D01*
X235070Y321583D01*
X234350Y321677D01*
D02*
G37*
G36*
X27677Y323693D02*
X26986Y323555D01*
X26400Y323164D01*
X26008Y322578D01*
X25871Y321886D01*
X26008Y321195D01*
X26400Y320609D01*
X26986Y320217D01*
X27677Y320080D01*
X27702Y319838D01*
X27702D01*
X27702Y319838D01*
X27381Y319471D01*
X27055Y319336D01*
X26479Y318895D01*
X26038Y318319D01*
X25760Y317649D01*
X25665Y316929D01*
X25760Y316210D01*
X26038Y315539D01*
X26479Y314964D01*
X27055Y314522D01*
X27725Y314244D01*
X28445Y314149D01*
X29164Y314244D01*
X29835Y314522D01*
X30410Y314964D01*
X30852Y315539D01*
X31130Y316210D01*
X31225Y316929D01*
X31130Y317649D01*
X30852Y318319D01*
X30410Y318895D01*
X29835Y319336D01*
X29164Y319614D01*
X28618Y319686D01*
X28198Y319905D01*
X28154Y320169D01*
X28368Y320217D01*
X28581Y320360D01*
X28954Y320609D01*
X29346Y321195D01*
X29484Y321886D01*
X29346Y322578D01*
X28954Y323164D01*
X28368Y323555D01*
X27677Y323693D01*
D02*
G37*
G36*
X50886Y316767D02*
X50195Y316630D01*
X49608Y316238D01*
X49217Y315652D01*
X49079Y314961D01*
X49217Y314269D01*
X49608Y313683D01*
X50195Y313292D01*
X50886Y313154D01*
X51577Y313292D01*
X52163Y313683D01*
X52555Y314269D01*
X52692Y314961D01*
X52555Y315652D01*
X52163Y316238D01*
X51577Y316630D01*
X50886Y316767D01*
D02*
G37*
G36*
X78740Y314306D02*
X78049Y314169D01*
X77463Y313777D01*
X77071Y313191D01*
X76934Y312500D01*
X77071Y311809D01*
X77463Y311223D01*
X78049Y310831D01*
X78740Y310694D01*
X79431Y310831D01*
X80017Y311223D01*
X80409Y311809D01*
X80546Y312500D01*
X80409Y313191D01*
X80017Y313777D01*
X79431Y314169D01*
X78740Y314306D01*
D02*
G37*
G36*
X101772Y310861D02*
X101080Y310724D01*
X100494Y310332D01*
X100103Y309746D01*
X99965Y309055D01*
X100103Y308364D01*
X100494Y307778D01*
X101080Y307386D01*
X101772Y307249D01*
X102463Y307386D01*
X103049Y307778D01*
X103440Y308364D01*
X103578Y309055D01*
X103440Y309746D01*
X103049Y310332D01*
X102463Y310724D01*
X101772Y310861D01*
D02*
G37*
G36*
X541890Y312038D02*
X540655Y311917D01*
X539467Y311557D01*
X538373Y310972D01*
X537414Y310184D01*
X536627Y309225D01*
X536042Y308131D01*
X535682Y306943D01*
X535560Y305709D01*
X535682Y304474D01*
X536042Y303286D01*
X536627Y302192D01*
X537414Y301233D01*
X538373Y300446D01*
X539467Y299861D01*
X540655Y299501D01*
X541890Y299379D01*
X543125Y299501D01*
X544312Y299861D01*
X545406Y300446D01*
X546365Y301233D01*
X547153Y302192D01*
X547738Y303286D01*
X548098Y304474D01*
X548219Y305709D01*
X548098Y306943D01*
X547738Y308131D01*
X547153Y309225D01*
X546365Y310184D01*
X545406Y310972D01*
X544312Y311557D01*
X543125Y311917D01*
X541890Y312038D01*
D02*
G37*
G36*
X20798Y301060D02*
X20106Y300922D01*
X19520Y300531D01*
X19129Y299945D01*
X18991Y299254D01*
X19129Y298562D01*
X19520Y297976D01*
X20106Y297585D01*
X20798Y297447D01*
X21489Y297585D01*
X22075Y297976D01*
X22466Y298562D01*
X22604Y299254D01*
X22466Y299945D01*
X22075Y300531D01*
X21489Y300922D01*
X20798Y301060D01*
D02*
G37*
G36*
X75129Y300921D02*
X74438Y300783D01*
X73852Y300391D01*
X73461Y299805D01*
X73323Y299114D01*
X73461Y298423D01*
X73852Y297837D01*
X74438Y297445D01*
X75129Y297308D01*
X75821Y297445D01*
X76407Y297837D01*
X76798Y298423D01*
X76936Y299114D01*
X76798Y299805D01*
X76407Y300391D01*
X75821Y300783D01*
X75129Y300921D01*
D02*
G37*
G36*
X105610Y299346D02*
X104919Y299208D01*
X104333Y298817D01*
X103941Y298231D01*
X103804Y297539D01*
X103941Y296848D01*
X104333Y296262D01*
X104919Y295870D01*
X105610Y295733D01*
X106301Y295870D01*
X106887Y296262D01*
X107279Y296848D01*
X107417Y297539D01*
X107279Y298231D01*
X106887Y298817D01*
X106301Y299208D01*
X105610Y299346D01*
D02*
G37*
G36*
X30299Y297435D02*
X29608Y297298D01*
X29022Y296906D01*
X28630Y296320D01*
X28493Y295629D01*
X28630Y294937D01*
X29022Y294352D01*
X29608Y293960D01*
X30299Y293822D01*
X30990Y293960D01*
X31576Y294352D01*
X31968Y294937D01*
X32105Y295629D01*
X31968Y296320D01*
X31576Y296906D01*
X30990Y297298D01*
X30299Y297435D01*
D02*
G37*
G36*
X94685Y297082D02*
X93994Y296944D01*
X93408Y296553D01*
X93016Y295967D01*
X92879Y295276D01*
X93016Y294584D01*
X93408Y293998D01*
X93994Y293607D01*
X94685Y293469D01*
X95376Y293607D01*
X95962Y293998D01*
X96354Y294584D01*
X96491Y295276D01*
X96354Y295967D01*
X95962Y296553D01*
X95376Y296944D01*
X94685Y297082D01*
D02*
G37*
G36*
X245079Y299838D02*
X244388Y299700D01*
X243801Y299309D01*
X243410Y298723D01*
X243272Y298031D01*
X243410Y297340D01*
X243801Y296754D01*
Y296258D01*
X243410Y295672D01*
X243272Y294980D01*
X243410Y294289D01*
X243801Y293703D01*
X244388Y293312D01*
X245079Y293174D01*
X245770Y293312D01*
X246356Y293703D01*
X246748Y294289D01*
X246885Y294980D01*
X246748Y295672D01*
X246356Y296258D01*
Y296754D01*
X246748Y297340D01*
X246885Y298031D01*
X246748Y298723D01*
X246356Y299309D01*
X245770Y299700D01*
X245079Y299838D01*
D02*
G37*
G36*
X47343Y294727D02*
X46651Y294590D01*
X46065Y294198D01*
X45674Y293612D01*
X45536Y292921D01*
X45674Y292230D01*
X46065Y291644D01*
X46651Y291252D01*
X47343Y291115D01*
X48034Y291252D01*
X48620Y291644D01*
X49011Y292230D01*
X49149Y292921D01*
X49011Y293612D01*
X48620Y294198D01*
X48034Y294590D01*
X47343Y294727D01*
D02*
G37*
G36*
X234350Y296284D02*
X233631Y296189D01*
X232961Y295911D01*
X232385Y295469D01*
X231943Y294894D01*
X231665Y294223D01*
X231571Y293504D01*
X231665Y292785D01*
X231943Y292114D01*
X232385Y291538D01*
X232961Y291097D01*
X233631Y290819D01*
X234350Y290724D01*
X235070Y290819D01*
X235740Y291097D01*
X236316Y291538D01*
X236758Y292114D01*
X237035Y292785D01*
X237130Y293504D01*
X237035Y294223D01*
X236758Y294894D01*
X236316Y295469D01*
X235740Y295911D01*
X235070Y296189D01*
X234350Y296284D01*
D02*
G37*
G36*
X179134Y293046D02*
X178443Y292909D01*
X177857Y292517D01*
X177465Y291931D01*
X177328Y291240D01*
X177465Y290549D01*
X177857Y289963D01*
X178443Y289571D01*
X179134Y289434D01*
X179825Y289571D01*
X180411Y289963D01*
X180803Y290549D01*
X180940Y291240D01*
X180803Y291931D01*
X180411Y292517D01*
X179825Y292909D01*
X179134Y293046D01*
D02*
G37*
G36*
X377953Y312044D02*
X376130Y311900D01*
X374353Y311474D01*
X372664Y310774D01*
X371105Y309819D01*
X369715Y308632D01*
X368528Y307241D01*
X367572Y305683D01*
X366873Y303994D01*
X366446Y302216D01*
X366303Y300394D01*
X366446Y298571D01*
X366873Y296794D01*
X367572Y295105D01*
X368528Y293546D01*
X369715Y292156D01*
X371105Y290969D01*
X372664Y290013D01*
X374353Y289314D01*
X376130Y288887D01*
X377953Y288744D01*
X379775Y288887D01*
X381553Y289314D01*
X383242Y290013D01*
X384801Y290969D01*
X386191Y292156D01*
X387378Y293546D01*
X388333Y295105D01*
X389033Y296794D01*
X389459Y298571D01*
X389603Y300394D01*
X389459Y302216D01*
X389033Y303994D01*
X388333Y305683D01*
X387378Y307241D01*
X386191Y308632D01*
X384801Y309819D01*
X383242Y310774D01*
X381553Y311474D01*
X379775Y311900D01*
X377953Y312044D01*
D02*
G37*
G36*
X279528D02*
X277705Y311900D01*
X275927Y311474D01*
X274238Y310774D01*
X272680Y309819D01*
X271290Y308632D01*
X270102Y307241D01*
X269147Y305683D01*
X268448Y303994D01*
X268021Y302216D01*
X267878Y300394D01*
X268021Y298571D01*
X268448Y296794D01*
X269147Y295105D01*
X270102Y293546D01*
X271290Y292156D01*
X272680Y290969D01*
X274238Y290013D01*
X275927Y289314D01*
X277705Y288887D01*
X279528Y288744D01*
X281350Y288887D01*
X283128Y289314D01*
X284817Y290013D01*
X286375Y290969D01*
X287765Y292156D01*
X288953Y293546D01*
X289908Y295105D01*
X290607Y296794D01*
X291034Y298571D01*
X291178Y300394D01*
X291034Y302216D01*
X290607Y303994D01*
X289908Y305683D01*
X288953Y307241D01*
X287765Y308632D01*
X286375Y309819D01*
X284817Y310774D01*
X283128Y311474D01*
X281350Y311900D01*
X279528Y312044D01*
D02*
G37*
G36*
X327264Y286255D02*
X326572Y286118D01*
X325987Y285726D01*
X325595Y285140D01*
X325457Y284449D01*
X325595Y283758D01*
X325987Y283172D01*
X326572Y282780D01*
X327264Y282643D01*
X327955Y282780D01*
X328541Y283172D01*
X328933Y283758D01*
X329070Y284449D01*
X328933Y285140D01*
X328541Y285726D01*
X327955Y286118D01*
X327264Y286255D01*
D02*
G37*
G36*
X-20276Y280054D02*
X-20967Y279917D01*
X-21553Y279525D01*
X-21945Y278939D01*
X-22082Y278248D01*
X-21945Y277557D01*
X-21553Y276971D01*
X-20967Y276579D01*
X-20276Y276442D01*
X-19584Y276579D01*
X-18998Y276971D01*
X-18607Y277557D01*
X-18469Y278248D01*
X-18607Y278939D01*
X-18998Y279525D01*
X-19584Y279917D01*
X-20276Y280054D01*
D02*
G37*
G36*
X60138Y278676D02*
X59447Y278539D01*
X58860Y278147D01*
X58469Y277561D01*
X58331Y276870D01*
X58469Y276179D01*
X58860Y275593D01*
X59447Y275201D01*
X60138Y275064D01*
X60829Y275201D01*
X61415Y275593D01*
X61807Y276179D01*
X61944Y276870D01*
X61807Y277561D01*
X61415Y278147D01*
X60829Y278539D01*
X60138Y278676D01*
D02*
G37*
G36*
X527557Y283353D02*
X526353Y283194D01*
X525231Y282730D01*
X524267Y281990D01*
X523528Y281027D01*
X523064Y279905D01*
X522905Y278701D01*
X523064Y277497D01*
X523528Y276375D01*
X524267Y275411D01*
X525231Y274672D01*
X526353Y274207D01*
X527557Y274049D01*
X528761Y274207D01*
X529883Y274672D01*
X530847Y275411D01*
X531586Y276375D01*
X532051Y277497D01*
X532209Y278701D01*
X532051Y279905D01*
X531586Y281027D01*
X530847Y281990D01*
X529883Y282730D01*
X528761Y283194D01*
X527557Y283353D01*
D02*
G37*
G36*
X487557D02*
X486353Y283194D01*
X485231Y282730D01*
X484268Y281990D01*
X483528Y281027D01*
X483064Y279905D01*
X482905Y278701D01*
X483064Y277497D01*
X483528Y276375D01*
X484268Y275411D01*
X485231Y274672D01*
X486353Y274207D01*
X487557Y274049D01*
X488761Y274207D01*
X489883Y274672D01*
X490847Y275411D01*
X491586Y276375D01*
X492051Y277497D01*
X492209Y278701D01*
X492051Y279905D01*
X491586Y281027D01*
X490847Y281990D01*
X489883Y282730D01*
X488761Y283194D01*
X487557Y283353D01*
D02*
G37*
G36*
X209941Y275881D02*
X209250Y275744D01*
X208664Y275352D01*
X208272Y274766D01*
X208135Y274075D01*
X208272Y273383D01*
X208664Y272797D01*
X209250Y272406D01*
X209941Y272268D01*
X210632Y272406D01*
X211218Y272797D01*
X211610Y273383D01*
X211747Y274075D01*
X211610Y274766D01*
X211218Y275352D01*
X210632Y275744D01*
X209941Y275881D01*
D02*
G37*
G36*
X327264Y273657D02*
X326572Y273519D01*
X325987Y273128D01*
X325595Y272542D01*
X325457Y271850D01*
X325595Y271159D01*
X325987Y270573D01*
X326572Y270182D01*
X327264Y270044D01*
X327955Y270182D01*
X328541Y270573D01*
X328933Y271159D01*
X329070Y271850D01*
X328933Y272542D01*
X328541Y273128D01*
X327955Y273519D01*
X327264Y273657D01*
D02*
G37*
G36*
X172736Y282121D02*
X172045Y281984D01*
X171459Y281592D01*
X171067Y281006D01*
X170930Y280315D01*
X171067Y279624D01*
X171459Y279038D01*
X171557Y278939D01*
X172143Y278548D01*
X172835Y278410D01*
X191444D01*
X191642Y277910D01*
X191343Y277463D01*
X191205Y276772D01*
X191343Y276080D01*
X191735Y275494D01*
X192321Y275103D01*
X193012Y274965D01*
X193703Y275103D01*
X194289Y275494D01*
X194681Y276080D01*
X194818Y276772D01*
X194681Y277463D01*
X194382Y277910D01*
X194580Y278410D01*
X327148D01*
X335794Y269765D01*
X336380Y269373D01*
X337071Y269236D01*
X337762Y269373D01*
X338348Y269765D01*
X338740Y270351D01*
X338877Y271042D01*
X338740Y271733D01*
X338348Y272319D01*
X329174Y281494D01*
X328588Y281885D01*
X327896Y282023D01*
X173231D01*
X172736Y282121D01*
D02*
G37*
G36*
X312500Y271590D02*
X311809Y271452D01*
X311223Y271061D01*
X310831Y270475D01*
X310694Y269783D01*
X310831Y269092D01*
X311223Y268506D01*
X311809Y268115D01*
X312500Y267977D01*
X313191Y268115D01*
X313777Y268506D01*
X314169Y269092D01*
X314306Y269783D01*
X314169Y270475D01*
X313777Y271061D01*
X313191Y271452D01*
X312500Y271590D01*
D02*
G37*
G36*
X222342Y267751D02*
X221651Y267614D01*
X221065Y267222D01*
X220674Y266636D01*
X220536Y265945D01*
X220674Y265254D01*
X221065Y264668D01*
X221262Y264471D01*
X221848Y264079D01*
X222539Y263942D01*
X303779D01*
X304470Y264079D01*
X305056Y264471D01*
X305448Y265057D01*
X305585Y265748D01*
X305448Y266439D01*
X305056Y267025D01*
X304470Y267417D01*
X303779Y267554D01*
X223123D01*
X223034Y267614D01*
X222342Y267751D01*
D02*
G37*
G36*
X319037Y266964D02*
X318346Y266826D01*
X317760Y266435D01*
X317368Y265849D01*
X317231Y265158D01*
X317368Y264466D01*
X317760Y263880D01*
X318346Y263489D01*
X319008Y263357D01*
X318935Y262992D01*
X319073Y262301D01*
X319464Y261715D01*
X320050Y261323D01*
X320742Y261186D01*
X321433Y261323D01*
X322019Y261715D01*
X322410Y262301D01*
X322548Y262992D01*
X322410Y263683D01*
X322019Y264269D01*
X321433Y264661D01*
X320771Y264793D01*
X320843Y265158D01*
X320706Y265849D01*
X320314Y266435D01*
X319728Y266826D01*
X319037Y266964D01*
D02*
G37*
G36*
X10335Y262928D02*
X9643Y262791D01*
X9057Y262399D01*
X8666Y261813D01*
X8528Y261122D01*
X8666Y260431D01*
X9057Y259845D01*
X9643Y259453D01*
X10335Y259316D01*
X11026Y259453D01*
X11612Y259845D01*
X12004Y260431D01*
X12141Y261122D01*
X12004Y261813D01*
X11612Y262399D01*
X11026Y262791D01*
X10335Y262928D01*
D02*
G37*
G36*
X387992Y261649D02*
X387301Y261511D01*
X386715Y261120D01*
X386323Y260534D01*
X386186Y259842D01*
X386323Y259151D01*
X386715Y258565D01*
X387301Y258174D01*
X387992Y258036D01*
X388683Y258174D01*
X389269Y258565D01*
X389661Y259151D01*
X389798Y259842D01*
X389661Y260534D01*
X389269Y261120D01*
X388683Y261511D01*
X387992Y261649D01*
D02*
G37*
G36*
X-25951Y264124D02*
X-26642Y263986D01*
X-27228Y263595D01*
X-27619Y263008D01*
X-27757Y262317D01*
X-27619Y261626D01*
X-27228Y261040D01*
X-27108Y260960D01*
X-27260Y260460D01*
X-34480D01*
X-35017Y260353D01*
X-35473Y260049D01*
X-36455Y259067D01*
X-36921Y258974D01*
X-37507Y258582D01*
X-37898Y257996D01*
X-38036Y257305D01*
X-37898Y256614D01*
X-37507Y256028D01*
X-36921Y255636D01*
X-36896Y255631D01*
X-36543Y255051D01*
X-36602Y254755D01*
X-36465Y254063D01*
X-36073Y253477D01*
X-35487Y253086D01*
X-34796Y252948D01*
X-34105Y253086D01*
X-33637Y253398D01*
X-32649D01*
X-32441Y252898D01*
X-32732Y252463D01*
X-32869Y251772D01*
X-32732Y251080D01*
X-32340Y250494D01*
X-31764Y250109D01*
X-31959Y249818D01*
X-32096Y249126D01*
X-31959Y248435D01*
X-31567Y247849D01*
X-30981Y247458D01*
X-30290Y247320D01*
X-29599Y247458D01*
X-29013Y247849D01*
X-28621Y248435D01*
X-28483Y249126D01*
X-28621Y249818D01*
X-29013Y250404D01*
X-29589Y250789D01*
X-29394Y251080D01*
X-29257Y251772D01*
X-29394Y252463D01*
X-29685Y252898D01*
X-29477Y253398D01*
X-19156D01*
X-18618Y253505D01*
X-18162Y253810D01*
X-16684Y255288D01*
X-8665D01*
X-8270Y255024D01*
X-7579Y254887D01*
X-6887Y255024D01*
X-6301Y255416D01*
X-5910Y256002D01*
X-5772Y256693D01*
X-5805Y256856D01*
X-5380Y257281D01*
X-5217Y257249D01*
X-4525Y257386D01*
X-3939Y257778D01*
X-3548Y258364D01*
X-3410Y259055D01*
X-3548Y259746D01*
X-3939Y260332D01*
X-4525Y260724D01*
X-5217Y260861D01*
X-5908Y260724D01*
X-6303Y260460D01*
X-18556D01*
X-18888Y260960D01*
X-18797Y261417D01*
X-18934Y262109D01*
X-19326Y262695D01*
X-19912Y263086D01*
X-20603Y263224D01*
X-21294Y263086D01*
X-21880Y262695D01*
X-22272Y262109D01*
X-22409Y261417D01*
X-22318Y260960D01*
X-22650Y260460D01*
X-24641D01*
X-24793Y260960D01*
X-24673Y261040D01*
X-24282Y261626D01*
X-24144Y262317D01*
X-24282Y263008D01*
X-24673Y263595D01*
X-25259Y263986D01*
X-25951Y264124D01*
D02*
G37*
G36*
X195276Y260271D02*
X194584Y260133D01*
X193998Y259742D01*
X193607Y259156D01*
X193469Y258465D01*
X193607Y257773D01*
X193998Y257187D01*
X194584Y256796D01*
X195276Y256658D01*
X195967Y256796D01*
X196553Y257187D01*
X196944Y257773D01*
X197082Y258465D01*
X196944Y259156D01*
X196553Y259742D01*
X195967Y260133D01*
X195276Y260271D01*
D02*
G37*
G36*
X10138Y257909D02*
X9447Y257771D01*
X8861Y257380D01*
X8469Y256794D01*
X8331Y256102D01*
X8469Y255411D01*
X8861Y254825D01*
X9447Y254433D01*
X10138Y254296D01*
X10829Y254433D01*
X11415Y254825D01*
X11807Y255411D01*
X11944Y256102D01*
X11807Y256794D01*
X11415Y257380D01*
X10829Y257771D01*
X10138Y257909D01*
D02*
G37*
G36*
X390848Y257796D02*
X390157Y257659D01*
X389571Y257267D01*
X389180Y256681D01*
X389042Y255990D01*
X389180Y255299D01*
X389571Y254713D01*
X390157Y254321D01*
X390848Y254184D01*
X391540Y254321D01*
X392126Y254713D01*
X392517Y255299D01*
X392655Y255990D01*
X392517Y256681D01*
X392126Y257267D01*
X391540Y257659D01*
X390848Y257796D01*
D02*
G37*
G36*
X106004Y257613D02*
X105313Y257476D01*
X104727Y257084D01*
X104335Y256498D01*
X104198Y255807D01*
X104335Y255116D01*
X104727Y254530D01*
X105313Y254138D01*
X106004Y254001D01*
X106695Y254138D01*
X107281Y254530D01*
X107673Y255116D01*
X107810Y255807D01*
X107673Y256498D01*
X107281Y257084D01*
X106695Y257476D01*
X106004Y257613D01*
D02*
G37*
G36*
X346555Y252692D02*
X345864Y252555D01*
X345278Y252163D01*
X345183Y252021D01*
X344581D01*
X344486Y252163D01*
X343900Y252555D01*
X343209Y252692D01*
X342517Y252555D01*
X341931Y252163D01*
X341540Y251577D01*
X341402Y250886D01*
X341540Y250195D01*
X341931Y249608D01*
X342517Y249217D01*
X343209Y249079D01*
X343900Y249217D01*
X344486Y249608D01*
X344581Y249751D01*
X345183D01*
X345278Y249608D01*
X345864Y249217D01*
X346555Y249079D01*
X347246Y249217D01*
X347832Y249608D01*
X348224Y250195D01*
X348361Y250886D01*
X348224Y251577D01*
X347832Y252163D01*
X347246Y252555D01*
X346555Y252692D01*
D02*
G37*
G36*
X502518Y266168D02*
X501061Y266024D01*
X499660Y265599D01*
X498369Y264910D01*
X497238Y263981D01*
X496309Y262849D01*
X495619Y261558D01*
X495194Y260158D01*
X495051Y258701D01*
X495194Y257244D01*
X495619Y255843D01*
X496309Y254552D01*
X497238Y253421D01*
X498369Y252492D01*
X499660Y251802D01*
X501061Y251377D01*
X502518Y251234D01*
X503974Y251377D01*
X505375Y251802D01*
X506666Y252492D01*
X507798Y253421D01*
X508726Y254552D01*
X509416Y255843D01*
X509841Y257244D01*
X509985Y258701D01*
X509841Y260158D01*
X509416Y261558D01*
X508726Y262849D01*
X507798Y263981D01*
X506666Y264910D01*
X505375Y265599D01*
X503974Y266024D01*
X502518Y266168D01*
D02*
G37*
G36*
X237008Y250921D02*
X236317Y250783D01*
X235939Y250531D01*
X235581Y250432D01*
X235222Y250531D01*
X234845Y250783D01*
X234154Y250921D01*
X233462Y250783D01*
X232881Y250394D01*
X232764Y250320D01*
X232394D01*
X232277Y250394D01*
X231695Y250783D01*
X231004Y250921D01*
X230313Y250783D01*
X229727Y250392D01*
X229335Y249805D01*
X229198Y249114D01*
X229335Y248423D01*
X229727Y247837D01*
X230313Y247445D01*
X231004Y247308D01*
X231695Y247445D01*
X232277Y247834D01*
X232394Y247908D01*
X232764D01*
X232881Y247834D01*
X233462Y247445D01*
X234154Y247308D01*
X234845Y247445D01*
X235222Y247698D01*
X235581Y247796D01*
X235939Y247698D01*
X236317Y247445D01*
X237008Y247308D01*
X237699Y247445D01*
X238285Y247837D01*
X238677Y248423D01*
X238814Y249114D01*
X238677Y249805D01*
X238285Y250392D01*
X237699Y250783D01*
X237008Y250921D01*
D02*
G37*
G36*
X-10772Y250991D02*
X-11463Y250853D01*
X-12049Y250462D01*
X-12440Y249876D01*
X-12578Y249184D01*
X-12440Y248493D01*
X-12049Y247907D01*
X-11463Y247516D01*
X-10772Y247378D01*
X-10080Y247516D01*
X-9494Y247907D01*
X-9103Y248493D01*
X-8965Y249184D01*
X-9103Y249876D01*
X-9494Y250462D01*
X-10080Y250853D01*
X-10772Y250991D01*
D02*
G37*
G36*
X-5315Y250232D02*
X-6006Y250094D01*
X-6592Y249703D01*
X-6984Y249116D01*
X-7121Y248425D01*
X-6984Y247734D01*
X-6592Y247148D01*
X-6006Y246756D01*
X-5315Y246619D01*
X-4624Y246756D01*
X-4038Y247148D01*
X-3646Y247734D01*
X-3509Y248425D01*
X-3646Y249116D01*
X-4038Y249703D01*
X-4624Y250094D01*
X-5315Y250232D01*
D02*
G37*
G36*
X12539Y246294D02*
X11848Y246157D01*
X11471Y245905D01*
X11112Y245807D01*
X10754Y245905D01*
X10376Y246157D01*
X9685Y246294D01*
X8994Y246157D01*
X8408Y245765D01*
X8016Y245179D01*
X7879Y244488D01*
X8016Y243797D01*
X8405Y243215D01*
X8479Y243098D01*
Y242729D01*
X8405Y242612D01*
X8016Y242030D01*
X7879Y241339D01*
X8016Y240647D01*
X8408Y240061D01*
X8479Y240014D01*
Y239514D01*
X8408Y239466D01*
X8016Y238880D01*
X7879Y238189D01*
X8016Y237498D01*
X8408Y236912D01*
X8994Y236520D01*
X9685Y236383D01*
X10376Y236520D01*
X10754Y236772D01*
X11112Y236871D01*
X11471Y236772D01*
X11848Y236520D01*
X12539Y236383D01*
X13231Y236520D01*
X13817Y236912D01*
X14208Y237498D01*
X14346Y238189D01*
X14208Y238880D01*
X13817Y239466D01*
X13746Y239514D01*
Y240014D01*
X13817Y240061D01*
X14208Y240647D01*
X14346Y241339D01*
X14208Y242030D01*
X13820Y242612D01*
X13746Y242729D01*
Y243098D01*
X13820Y243215D01*
X14208Y243797D01*
X14346Y244488D01*
X14208Y245179D01*
X13817Y245765D01*
X13231Y246157D01*
X12539Y246294D01*
D02*
G37*
G36*
X-34882Y246885D02*
X-35573Y246748D01*
X-36159Y246356D01*
X-36551Y245770D01*
X-36688Y245079D01*
X-36551Y244388D01*
X-36159Y243801D01*
X-35573Y243410D01*
X-34882Y243272D01*
X-34191Y243410D01*
X-33605Y243801D01*
X-33213Y244388D01*
X-33075Y245079D01*
X-33213Y245770D01*
X-33605Y246356D01*
X-34191Y246748D01*
X-34882Y246885D01*
D02*
G37*
G36*
X181195Y246221D02*
X180504Y246083D01*
X179918Y245692D01*
X179526Y245106D01*
X179389Y244415D01*
X179526Y243723D01*
X179918Y243137D01*
X180504Y242746D01*
X181195Y242608D01*
X181886Y242746D01*
X182472Y243137D01*
X182864Y243723D01*
X183001Y244415D01*
X182864Y245106D01*
X182472Y245692D01*
X181886Y246083D01*
X181195Y246221D01*
D02*
G37*
G36*
X-19783Y244326D02*
X-20475Y244188D01*
X-21061Y243797D01*
X-21452Y243211D01*
X-21590Y242520D01*
X-21452Y241828D01*
X-21061Y241242D01*
X-20475Y240851D01*
X-19783Y240713D01*
X-19092Y240851D01*
X-18506Y241242D01*
X-18115Y241828D01*
X-17977Y242520D01*
X-18115Y243211D01*
X-18506Y243797D01*
X-19092Y244188D01*
X-19783Y244326D01*
D02*
G37*
G36*
X159153Y241669D02*
X158462Y241531D01*
X157876Y241140D01*
X157485Y240553D01*
X157347Y239862D01*
X157485Y239171D01*
X157876Y238585D01*
X158462Y238193D01*
X159153Y238056D01*
X159845Y238193D01*
X160431Y238585D01*
X160822Y239171D01*
X160960Y239862D01*
X160822Y240553D01*
X160431Y241140D01*
X159845Y241531D01*
X159153Y241669D01*
D02*
G37*
G36*
X-34882Y240743D02*
X-35573Y240606D01*
X-36159Y240214D01*
X-36551Y239628D01*
X-36688Y238937D01*
X-36551Y238246D01*
X-36159Y237660D01*
X-35573Y237268D01*
X-34882Y237131D01*
X-34191Y237268D01*
X-33605Y237660D01*
X-33213Y238246D01*
X-33075Y238937D01*
X-33213Y239628D01*
X-33605Y240214D01*
X-34191Y240606D01*
X-34882Y240743D01*
D02*
G37*
G36*
X-28543Y238027D02*
X-29235Y237889D01*
X-29821Y237498D01*
X-30212Y236912D01*
X-30350Y236221D01*
X-30212Y235529D01*
X-29821Y234943D01*
X-29235Y234552D01*
X-28543Y234414D01*
X-27852Y234552D01*
X-27266Y234943D01*
X-26875Y235529D01*
X-26737Y236221D01*
X-26875Y236912D01*
X-27266Y237498D01*
X-27852Y237889D01*
X-28543Y238027D01*
D02*
G37*
G36*
X22896Y235210D02*
X22205Y235072D01*
X21619Y234681D01*
X21227Y234095D01*
X21090Y233403D01*
X21227Y232712D01*
X21619Y232126D01*
X22205Y231734D01*
X22896Y231597D01*
X23587Y231734D01*
X24173Y232126D01*
X24565Y232712D01*
X24702Y233403D01*
X24565Y234095D01*
X24173Y234681D01*
X23587Y235072D01*
X22896Y235210D01*
D02*
G37*
G36*
X-32283Y234680D02*
X-32975Y234543D01*
X-33561Y234151D01*
X-33952Y233565D01*
X-34090Y232874D01*
X-33952Y232183D01*
X-33561Y231597D01*
X-32975Y231205D01*
X-32283Y231068D01*
X-31592Y231205D01*
X-31006Y231597D01*
X-30615Y232183D01*
X-30477Y232874D01*
X-30615Y233565D01*
X-31006Y234151D01*
X-31592Y234543D01*
X-32283Y234680D01*
D02*
G37*
G36*
X18642Y234582D02*
X17951Y234444D01*
X17364Y234053D01*
X16973Y233467D01*
X16835Y232776D01*
X16973Y232084D01*
X17364Y231498D01*
X17951Y231107D01*
X18642Y230969D01*
X19333Y231107D01*
X19919Y231498D01*
X20311Y232084D01*
X20448Y232776D01*
X20311Y233467D01*
X19919Y234053D01*
X19333Y234444D01*
X18642Y234582D01*
D02*
G37*
G36*
X234350Y234276D02*
X233631Y234181D01*
X232961Y233903D01*
X232385Y233462D01*
X231943Y232886D01*
X231665Y232215D01*
X231571Y231496D01*
X231665Y230777D01*
X231943Y230106D01*
X232385Y229531D01*
X232961Y229089D01*
X233631Y228811D01*
X234350Y228716D01*
X235070Y228811D01*
X235740Y229089D01*
X236316Y229531D01*
X236758Y230106D01*
X237035Y230777D01*
X237130Y231496D01*
X237035Y232215D01*
X236758Y232886D01*
X236316Y233462D01*
X235740Y233903D01*
X235070Y234181D01*
X234350Y234276D01*
D02*
G37*
G36*
X-33268Y229857D02*
X-33959Y229720D01*
X-34545Y229328D01*
X-34937Y228742D01*
X-35074Y228051D01*
X-34937Y227360D01*
X-34545Y226774D01*
X-33959Y226382D01*
X-33268Y226245D01*
X-32577Y226382D01*
X-31990Y226774D01*
X-31599Y227360D01*
X-31461Y228051D01*
X-31599Y228742D01*
X-31990Y229328D01*
X-32577Y229720D01*
X-33268Y229857D01*
D02*
G37*
G36*
X19193Y228972D02*
X18502Y228834D01*
X17916Y228443D01*
X17524Y227857D01*
X17387Y227165D01*
X17524Y226474D01*
X17916Y225888D01*
X18502Y225497D01*
X19193Y225359D01*
X19884Y225497D01*
X20470Y225888D01*
X20862Y226474D01*
X20999Y227165D01*
X20862Y227857D01*
X20470Y228443D01*
X19884Y228834D01*
X19193Y228972D01*
D02*
G37*
G36*
X383287Y226264D02*
X382568Y226169D01*
X381898Y225891D01*
X381322Y225450D01*
X380880Y224874D01*
X380792Y224662D01*
X380251D01*
X380163Y224874D01*
X379721Y225450D01*
X379146Y225891D01*
X378475Y226169D01*
X377756Y226264D01*
X377036Y226169D01*
X376366Y225891D01*
X375790Y225450D01*
X375439Y224992D01*
X375254Y224948D01*
X375041D01*
X374856Y224992D01*
X374505Y225450D01*
X373929Y225891D01*
X373259Y226169D01*
X372539Y226264D01*
X371820Y226169D01*
X371149Y225891D01*
X370574Y225450D01*
X370132Y224874D01*
X369854Y224204D01*
X369760Y223484D01*
X369854Y222765D01*
X370132Y222094D01*
X370574Y221519D01*
X371149Y221077D01*
X371820Y220799D01*
X372539Y220705D01*
X373259Y220799D01*
X373929Y221077D01*
X374505Y221519D01*
X374856Y221977D01*
X375041Y222021D01*
X375254D01*
X375439Y221977D01*
X375790Y221519D01*
X376366Y221077D01*
X377036Y220799D01*
X377756Y220705D01*
X378475Y220799D01*
X379146Y221077D01*
X379721Y221519D01*
X380163Y222094D01*
X380251Y222307D01*
X380792D01*
X380880Y222094D01*
X381322Y221519D01*
X381898Y221077D01*
X382568Y220799D01*
X383287Y220705D01*
X384007Y220799D01*
X384677Y221077D01*
X385253Y221519D01*
X385695Y222094D01*
X385972Y222765D01*
X386067Y223484D01*
X385972Y224204D01*
X385695Y224874D01*
X385253Y225450D01*
X384677Y225891D01*
X384007Y226169D01*
X383287Y226264D01*
D02*
G37*
G36*
X173551Y226117D02*
X172860Y225980D01*
X172274Y225588D01*
X171882Y225002D01*
X171745Y224311D01*
X171882Y223620D01*
X172274Y223034D01*
X172860Y222642D01*
X173551Y222505D01*
X174242Y222642D01*
X174828Y223034D01*
X175220Y223620D01*
X175357Y224311D01*
X175220Y225002D01*
X174828Y225588D01*
X174242Y225980D01*
X173551Y226117D01*
D02*
G37*
G36*
X-36220Y223224D02*
X-36912Y223086D01*
X-37498Y222695D01*
X-37889Y222109D01*
X-38027Y221417D01*
X-37889Y220726D01*
X-37498Y220140D01*
X-36912Y219748D01*
X-36220Y219611D01*
X-35529Y219748D01*
X-34943Y220140D01*
X-34552Y220726D01*
X-34414Y221417D01*
X-34552Y222109D01*
X-34943Y222695D01*
X-35529Y223086D01*
X-36220Y223224D01*
D02*
G37*
G36*
X49428Y222843D02*
X48737Y222706D01*
X48151Y222314D01*
X47760Y221728D01*
X47622Y221037D01*
X47760Y220346D01*
X48151Y219760D01*
X48737Y219368D01*
X49428Y219231D01*
X50120Y219368D01*
X50706Y219760D01*
X51097Y220346D01*
X51235Y221037D01*
X51097Y221728D01*
X50706Y222314D01*
X50120Y222706D01*
X49428Y222843D01*
D02*
G37*
G36*
X26870Y222476D02*
X26179Y222338D01*
X25593Y221947D01*
X25201Y221361D01*
X25064Y220669D01*
X25201Y219978D01*
X25593Y219392D01*
X26179Y219000D01*
X26870Y218863D01*
X27561Y219000D01*
X28147Y219392D01*
X28539Y219978D01*
X28676Y220669D01*
X28539Y221361D01*
X28147Y221947D01*
X27561Y222338D01*
X26870Y222476D01*
D02*
G37*
G36*
X403346Y217259D02*
X402655Y217122D01*
X402069Y216730D01*
X401678Y216144D01*
X401540Y215453D01*
X401678Y214761D01*
X402069Y214176D01*
X402655Y213784D01*
X403346Y213646D01*
X404038Y213784D01*
X404624Y214176D01*
X405015Y214761D01*
X405153Y215453D01*
X405015Y216144D01*
X404624Y216730D01*
X404038Y217122D01*
X403346Y217259D01*
D02*
G37*
G36*
X-36496Y217003D02*
X-37187Y216866D01*
X-37773Y216474D01*
X-38165Y215888D01*
X-38302Y215197D01*
X-38165Y214506D01*
X-37773Y213920D01*
X-37187Y213528D01*
X-36496Y213390D01*
X-35805Y213528D01*
X-35219Y213920D01*
X-34827Y214506D01*
X-34690Y215197D01*
X-34827Y215888D01*
X-35219Y216474D01*
X-35805Y216866D01*
X-36496Y217003D01*
D02*
G37*
G36*
X44325Y216780D02*
X43634Y216643D01*
X43048Y216251D01*
X42656Y215665D01*
X42519Y214974D01*
X42656Y214283D01*
X43048Y213697D01*
X43634Y213305D01*
X44325Y213168D01*
X45017Y213305D01*
X45603Y213697D01*
X45994Y214283D01*
X46132Y214974D01*
X45994Y215665D01*
X45603Y216251D01*
X45017Y216643D01*
X44325Y216780D01*
D02*
G37*
G36*
X245079Y219228D02*
X244388Y219090D01*
X243801Y218699D01*
X243410Y218112D01*
X243272Y217421D01*
X243410Y216730D01*
X243801Y216144D01*
Y215647D01*
X243410Y215061D01*
X243272Y214370D01*
X243410Y213679D01*
X243801Y213093D01*
X244388Y212701D01*
X245079Y212564D01*
X245770Y212701D01*
X246356Y213093D01*
X246748Y213679D01*
X246885Y214370D01*
X246748Y215061D01*
X246356Y215647D01*
Y216144D01*
X246748Y216730D01*
X246885Y217421D01*
X246748Y218112D01*
X246356Y218699D01*
X245770Y219090D01*
X245079Y219228D01*
D02*
G37*
G36*
X234350Y217740D02*
X233631Y217646D01*
X232961Y217368D01*
X232385Y216926D01*
X231943Y216351D01*
X231665Y215680D01*
X231571Y214961D01*
X231665Y214241D01*
X231943Y213571D01*
X232385Y212995D01*
X232961Y212553D01*
X233631Y212276D01*
X234350Y212181D01*
X235070Y212276D01*
X235740Y212553D01*
X236316Y212995D01*
X236758Y213571D01*
X237035Y214241D01*
X237130Y214961D01*
X237035Y215680D01*
X236758Y216351D01*
X236316Y216926D01*
X235740Y217368D01*
X235070Y217646D01*
X234350Y217740D01*
D02*
G37*
G36*
X101575Y215586D02*
X100883Y215448D01*
X100297Y215057D01*
X99906Y214471D01*
X99768Y213779D01*
X99906Y213088D01*
X100297Y212502D01*
X100883Y212111D01*
X101575Y211973D01*
X102266Y212111D01*
X102852Y212502D01*
X103244Y213088D01*
X103381Y213779D01*
X103244Y214471D01*
X102852Y215057D01*
X102266Y215448D01*
X101575Y215586D01*
D02*
G37*
G36*
X427362Y289109D02*
X426671Y288972D01*
X426085Y288580D01*
X425693Y287994D01*
X425556Y287303D01*
X425693Y286612D01*
X426085Y286026D01*
X426158Y285977D01*
Y208651D01*
X425818Y208311D01*
X425732Y208328D01*
X425040Y208191D01*
X424454Y207799D01*
X424063Y207213D01*
X423925Y206522D01*
X424063Y205830D01*
X424454Y205244D01*
X425040Y204853D01*
X425732Y204715D01*
X426423Y204853D01*
X427009Y205244D01*
X427401Y205830D01*
X427538Y206522D01*
X427521Y206608D01*
X428214Y207301D01*
X428475Y207691D01*
X428566Y208152D01*
Y285977D01*
X428640Y286026D01*
X429031Y286612D01*
X429169Y287303D01*
X429031Y287994D01*
X428640Y288580D01*
X428054Y288972D01*
X427362Y289109D01*
D02*
G37*
G36*
X36555Y211452D02*
X35864Y211315D01*
X35278Y210923D01*
X34886Y210337D01*
X34749Y209646D01*
X34886Y208954D01*
X35278Y208368D01*
X35864Y207977D01*
X36555Y207839D01*
X37246Y207977D01*
X37832Y208368D01*
X38224Y208954D01*
X38361Y209646D01*
X38224Y210337D01*
X37832Y210923D01*
X37246Y211315D01*
X36555Y211452D01*
D02*
G37*
G36*
X321949Y257515D02*
X321258Y257378D01*
X320672Y256986D01*
X320280Y256400D01*
X320143Y255709D01*
Y233563D01*
X320280Y232872D01*
X320393Y232702D01*
X320126Y232202D01*
X301297D01*
X301279Y232185D01*
X300984D01*
Y212008D01*
X320982D01*
Y231322D01*
X321444Y231513D01*
X329194Y223763D01*
Y208957D01*
X329346Y208189D01*
X329782Y207538D01*
X330433Y207102D01*
X331201Y206950D01*
X361516D01*
X362284Y207102D01*
X362935Y207538D01*
X363370Y208189D01*
X363523Y208957D01*
Y226673D01*
X363370Y227441D01*
X362935Y228092D01*
X362284Y228527D01*
X361516Y228680D01*
X331201D01*
X330433Y228527D01*
X329897Y228169D01*
X323755Y234311D01*
Y255709D01*
X323618Y256400D01*
X323226Y256986D01*
X322640Y257378D01*
X321949Y257515D01*
D02*
G37*
G36*
X320768Y210369D02*
X320077Y210232D01*
X319491Y209840D01*
X319099Y209254D01*
X318962Y208563D01*
X319099Y207872D01*
X319491Y207286D01*
X320077Y206894D01*
X320768Y206757D01*
X321459Y206894D01*
X322045Y207286D01*
X322437Y207872D01*
X322574Y208563D01*
X322437Y209254D01*
X322045Y209840D01*
X321459Y210232D01*
X320768Y210369D01*
D02*
G37*
G36*
X76870Y209067D02*
X76179Y208930D01*
X75593Y208538D01*
X75201Y207952D01*
X75064Y207261D01*
X75201Y206570D01*
X75593Y205984D01*
X76179Y205592D01*
X76870Y205455D01*
X77561Y205592D01*
X78148Y205984D01*
X78539Y206570D01*
X78676Y207261D01*
X78539Y207952D01*
X78148Y208538D01*
X77561Y208930D01*
X76870Y209067D01*
D02*
G37*
G36*
X-18504Y206531D02*
X-19195Y206393D01*
X-19781Y206002D01*
X-20173Y205416D01*
X-20310Y204724D01*
X-20173Y204033D01*
X-19781Y203447D01*
X-19195Y203056D01*
X-18504Y202918D01*
X-17813Y203056D01*
X-17227Y203447D01*
X-16835Y204033D01*
X-16698Y204724D01*
X-16835Y205416D01*
X-17227Y206002D01*
X-17813Y206393D01*
X-18504Y206531D01*
D02*
G37*
G36*
X313681Y209188D02*
X312990Y209051D01*
X312404Y208659D01*
X312012Y208073D01*
X311875Y207382D01*
X312012Y206691D01*
X312244Y206344D01*
X311665Y205956D01*
X311273Y205370D01*
X311136Y204679D01*
X311273Y203988D01*
X311665Y203402D01*
X312251Y203010D01*
X312942Y202873D01*
X313633Y203010D01*
X314219Y203402D01*
X314611Y203988D01*
X314748Y204679D01*
X314611Y205370D01*
X314379Y205717D01*
X314958Y206105D01*
X315350Y206691D01*
X315488Y207382D01*
X315350Y208073D01*
X314958Y208659D01*
X314372Y209051D01*
X313681Y209188D01*
D02*
G37*
G36*
X36752Y205546D02*
X36061Y205409D01*
X35475Y205017D01*
X35083Y204431D01*
X34946Y203740D01*
X35083Y203049D01*
X35475Y202463D01*
X36061Y202071D01*
X36752Y201934D01*
X37443Y202071D01*
X38029Y202463D01*
X38421Y203049D01*
X38558Y203740D01*
X38421Y204431D01*
X38029Y205017D01*
X37443Y205409D01*
X36752Y205546D01*
D02*
G37*
G36*
X59252Y204956D02*
X58561Y204819D01*
X57975Y204427D01*
X57583Y203841D01*
X57446Y203150D01*
X57583Y202458D01*
X57975Y201872D01*
X58561Y201481D01*
X59252Y201343D01*
X59943Y201481D01*
X60529Y201872D01*
X60921Y202458D01*
X61058Y203150D01*
X60921Y203841D01*
X60529Y204427D01*
X59943Y204819D01*
X59252Y204956D01*
D02*
G37*
G36*
X296210Y211634D02*
X295518Y211497D01*
X294932Y211105D01*
X294541Y210519D01*
X294403Y209828D01*
X294541Y209137D01*
X294932Y208551D01*
X295137Y208414D01*
X295160Y207828D01*
X294768Y207242D01*
X294631Y206550D01*
X294768Y205859D01*
X295160Y205273D01*
X295549Y205013D01*
X295592Y204457D01*
X295584Y204434D01*
X295278Y204230D01*
X294886Y203644D01*
X294749Y202953D01*
X294886Y202261D01*
X295278Y201676D01*
X295864Y201284D01*
X296555Y201146D01*
X297246Y201284D01*
X297832Y201676D01*
X298224Y202261D01*
X298361Y202953D01*
X298224Y203644D01*
X297832Y204230D01*
X297443Y204490D01*
X297400Y205046D01*
X297409Y205069D01*
X297714Y205273D01*
X298106Y205859D01*
X298243Y206550D01*
X298106Y207242D01*
X297714Y207828D01*
X297510Y207964D01*
X297487Y208551D01*
X297879Y209137D01*
X298016Y209828D01*
X297879Y210519D01*
X297487Y211105D01*
X296901Y211497D01*
X296210Y211634D01*
D02*
G37*
G36*
X-35827Y204169D02*
X-36518Y204031D01*
X-37104Y203640D01*
X-37496Y203053D01*
X-37633Y202362D01*
X-37496Y201671D01*
X-37104Y201085D01*
X-36518Y200693D01*
X-35827Y200556D01*
X-35135Y200693D01*
X-34549Y201085D01*
X-34158Y201671D01*
X-34020Y202362D01*
X-34158Y203053D01*
X-34549Y203640D01*
X-35135Y204031D01*
X-35827Y204169D01*
D02*
G37*
G36*
X103868Y204971D02*
X95502D01*
Y199523D01*
X95002Y199371D01*
X94978Y199407D01*
X94392Y199799D01*
X93701Y199936D01*
X93010Y199799D01*
X92423Y199407D01*
X92032Y198821D01*
X91894Y198130D01*
X92032Y197439D01*
X92423Y196853D01*
X93010Y196461D01*
X93701Y196324D01*
X94392Y196461D01*
X94978Y196853D01*
X95002Y196888D01*
X95502Y196737D01*
Y196604D01*
X103868D01*
Y204971D01*
D02*
G37*
G36*
X87701Y202260D02*
X87010Y202123D01*
X86424Y201731D01*
X86033Y201145D01*
X85895Y200454D01*
X86033Y199763D01*
X86424Y199177D01*
X87010Y198785D01*
X87701Y198648D01*
X88393Y198785D01*
X88979Y199177D01*
X89370Y199763D01*
X89508Y200454D01*
X89370Y201145D01*
X88979Y201731D01*
X88393Y202123D01*
X87701Y202260D01*
D02*
G37*
G36*
X312076Y202155D02*
X311385Y202017D01*
X310799Y201625D01*
X310407Y201040D01*
X310270Y200348D01*
X310407Y199657D01*
X310799Y199071D01*
X311385Y198679D01*
X312076Y198542D01*
X312768Y198679D01*
X313354Y199071D01*
X313745Y199657D01*
X313883Y200348D01*
X313745Y201040D01*
X313354Y201625D01*
X312768Y202017D01*
X312076Y202155D01*
D02*
G37*
G36*
X304823Y202101D02*
X304132Y201964D01*
X303545Y201572D01*
X303154Y200986D01*
X303016Y200295D01*
X303154Y199604D01*
X303545Y199018D01*
X304132Y198626D01*
X304823Y198489D01*
X305514Y198626D01*
X306100Y199018D01*
X306492Y199604D01*
X306629Y200295D01*
X306492Y200986D01*
X306100Y201572D01*
X305514Y201964D01*
X304823Y202101D01*
D02*
G37*
G36*
X205020Y202003D02*
X204328Y201866D01*
X203742Y201474D01*
X203351Y200888D01*
X203213Y200197D01*
X203351Y199506D01*
X203742Y198920D01*
X204328Y198528D01*
X205020Y198390D01*
X205711Y198528D01*
X206297Y198920D01*
X206688Y199506D01*
X206826Y200197D01*
X206688Y200888D01*
X206297Y201474D01*
X205711Y201866D01*
X205020Y202003D01*
D02*
G37*
G36*
X36752Y200724D02*
X36061Y200586D01*
X35475Y200195D01*
X35083Y199609D01*
X34946Y198917D01*
X35083Y198226D01*
X35475Y197640D01*
X36061Y197248D01*
X36752Y197111D01*
X37443Y197248D01*
X38029Y197640D01*
X38421Y198226D01*
X38558Y198917D01*
X38421Y199609D01*
X38029Y200195D01*
X37443Y200586D01*
X36752Y200724D01*
D02*
G37*
G36*
X30118Y202484D02*
X29399Y202390D01*
X28728Y202112D01*
X28153Y201670D01*
X27711Y201095D01*
X27433Y200424D01*
X27338Y199705D01*
X27433Y198985D01*
X27711Y198315D01*
X28153Y197739D01*
X28728Y197298D01*
X29399Y197020D01*
X30118Y196925D01*
X30838Y197020D01*
X31508Y197298D01*
X32084Y197739D01*
X32525Y198315D01*
X32803Y198985D01*
X32898Y199705D01*
X32803Y200424D01*
X32525Y201095D01*
X32084Y201670D01*
X31508Y202112D01*
X30838Y202390D01*
X30118Y202484D01*
D02*
G37*
G36*
X-18602Y200232D02*
X-19294Y200094D01*
X-19880Y199703D01*
X-20271Y199117D01*
X-20409Y198425D01*
X-20271Y197734D01*
X-19880Y197148D01*
X-19294Y196756D01*
X-18602Y196619D01*
X-17911Y196756D01*
X-17325Y197148D01*
X-16933Y197734D01*
X-16796Y198425D01*
X-16933Y199117D01*
X-17325Y199703D01*
X-17911Y200094D01*
X-18602Y200232D01*
D02*
G37*
G36*
X401142Y193803D02*
X400422Y193709D01*
X399752Y193431D01*
X399176Y192989D01*
X398734Y192413D01*
X398685Y192295D01*
X398144D01*
X398136Y192315D01*
X397694Y192891D01*
X397118Y193333D01*
X396448Y193610D01*
X395728Y193705D01*
X395009Y193610D01*
X394338Y193333D01*
X393763Y192891D01*
X393321Y192315D01*
X393043Y191645D01*
X392949Y190925D01*
X393043Y190206D01*
X393321Y189535D01*
X393763Y188960D01*
X394338Y188518D01*
X395009Y188240D01*
X395128Y188225D01*
Y187720D01*
X395009Y187705D01*
X394338Y187427D01*
X393763Y186985D01*
X393321Y186409D01*
X393043Y185739D01*
X392949Y185020D01*
X393043Y184300D01*
X393321Y183630D01*
X393763Y183054D01*
X394338Y182612D01*
X395009Y182335D01*
X395128Y182319D01*
Y181815D01*
X395009Y181799D01*
X394338Y181521D01*
X393763Y181080D01*
X393321Y180504D01*
X393043Y179834D01*
X392949Y179114D01*
X393043Y178395D01*
X393321Y177724D01*
X393763Y177149D01*
X394338Y176707D01*
X395009Y176429D01*
Y175933D01*
X394338Y175655D01*
X393763Y175214D01*
X393321Y174638D01*
X393043Y173968D01*
X392949Y173248D01*
X393043Y172529D01*
X393321Y171858D01*
X393763Y171282D01*
X394338Y170841D01*
X395009Y170563D01*
X395728Y170468D01*
X396448Y170563D01*
X397118Y170841D01*
X397694Y171282D01*
X398136Y171858D01*
X398185Y171977D01*
X398726D01*
X398734Y171957D01*
X399176Y171381D01*
X399752Y170939D01*
X400422Y170661D01*
X401142Y170567D01*
X401861Y170661D01*
X402532Y170939D01*
X403107Y171381D01*
X403549Y171957D01*
X403827Y172627D01*
X403921Y173346D01*
X403827Y174066D01*
X403549Y174736D01*
X403107Y175312D01*
X402532Y175754D01*
X401861Y176031D01*
Y176528D01*
X402532Y176805D01*
X403107Y177247D01*
X403549Y177823D01*
X403827Y178493D01*
X403921Y179213D01*
X403827Y179932D01*
X403549Y180602D01*
X403107Y181178D01*
X402532Y181620D01*
X401861Y181898D01*
X401742Y181913D01*
Y182418D01*
X401861Y182433D01*
X402532Y182711D01*
X403107Y183153D01*
X403549Y183728D01*
X403827Y184399D01*
X403921Y185118D01*
X403827Y185837D01*
X403549Y186508D01*
X403107Y187084D01*
X402532Y187525D01*
X401861Y187803D01*
X401742Y187819D01*
Y188323D01*
X401861Y188339D01*
X402532Y188616D01*
X403107Y189058D01*
X403549Y189634D01*
X403827Y190304D01*
X403921Y191024D01*
X403827Y191743D01*
X403549Y192413D01*
X403107Y192989D01*
X402532Y193431D01*
X401861Y193709D01*
X401142Y193803D01*
D02*
G37*
G36*
X106188Y195852D02*
X105497Y195714D01*
X104911Y195323D01*
X104519Y194737D01*
X104382Y194045D01*
X104519Y193354D01*
X104911Y192768D01*
X105497Y192376D01*
X106188Y192239D01*
X106879Y192376D01*
X107465Y192768D01*
X107857Y193354D01*
X107994Y194045D01*
X107857Y194737D01*
X107465Y195323D01*
X106879Y195714D01*
X106188Y195852D01*
D02*
G37*
G36*
X178543Y194523D02*
X177852Y194385D01*
X177266Y193994D01*
X176874Y193408D01*
X176737Y192717D01*
X176874Y192025D01*
X177266Y191439D01*
X177852Y191048D01*
X178543Y190910D01*
X179235Y191048D01*
X179821Y191439D01*
X180212Y192025D01*
X180350Y192717D01*
X180212Y193408D01*
X179821Y193994D01*
X179235Y194385D01*
X178543Y194523D01*
D02*
G37*
G36*
X-17689Y191570D02*
X-18381Y191433D01*
X-18967Y191041D01*
X-19358Y190455D01*
X-19496Y189764D01*
X-19358Y189073D01*
X-18967Y188487D01*
X-18381Y188095D01*
X-17689Y187957D01*
X-16998Y188095D01*
X-16412Y188487D01*
X-16021Y189073D01*
X-15883Y189764D01*
X-16021Y190455D01*
X-16412Y191041D01*
X-16998Y191433D01*
X-17689Y191570D01*
D02*
G37*
G36*
X85039Y190881D02*
X84348Y190744D01*
X83762Y190352D01*
X83371Y189766D01*
X83233Y189075D01*
X83371Y188383D01*
X83762Y187797D01*
X84348Y187406D01*
X85039Y187268D01*
X85731Y187406D01*
X86317Y187797D01*
X86708Y188383D01*
X86846Y189075D01*
X86708Y189766D01*
X86317Y190352D01*
X85731Y190744D01*
X85039Y190881D01*
D02*
G37*
G36*
X234350Y191855D02*
X233631Y191760D01*
X232961Y191482D01*
X232385Y191040D01*
X231943Y190465D01*
X231665Y189794D01*
X231571Y189075D01*
X231665Y188355D01*
X231943Y187685D01*
X232385Y187109D01*
X232961Y186668D01*
X233631Y186390D01*
X234350Y186295D01*
X235070Y186390D01*
X235740Y186668D01*
X236316Y187109D01*
X236758Y187685D01*
X237035Y188355D01*
X237130Y189075D01*
X237035Y189794D01*
X236758Y190465D01*
X236316Y191040D01*
X235740Y191482D01*
X235070Y191760D01*
X234350Y191855D01*
D02*
G37*
G36*
X101772Y189405D02*
X101080Y189267D01*
X100494Y188876D01*
X100103Y188290D01*
X99965Y187598D01*
X100103Y186907D01*
X100494Y186321D01*
X101080Y185930D01*
X101772Y185792D01*
X102463Y185930D01*
X103049Y186321D01*
X103440Y186907D01*
X103578Y187598D01*
X103440Y188290D01*
X103049Y188876D01*
X102463Y189267D01*
X101772Y189405D01*
D02*
G37*
G36*
X-3740Y186870D02*
X-4431Y186732D01*
X-5017Y186341D01*
X-5409Y185755D01*
X-5547Y185063D01*
X-5409Y184372D01*
X-5017Y183786D01*
X-4431Y183395D01*
X-3740Y183257D01*
X-3049Y183395D01*
X-2463Y183786D01*
X-2071Y184372D01*
X-1934Y185063D01*
X-2071Y185755D01*
X-2463Y186341D01*
X-3049Y186732D01*
X-3740Y186870D01*
D02*
G37*
G36*
X94656Y185494D02*
X93964Y185356D01*
X93378Y184965D01*
X92987Y184378D01*
X92849Y183687D01*
X92987Y182996D01*
X93378Y182410D01*
X93964Y182018D01*
X94656Y181881D01*
X95347Y182018D01*
X95933Y182410D01*
X96324Y182996D01*
X96462Y183687D01*
X96324Y184378D01*
X95933Y184965D01*
X95347Y185356D01*
X94656Y185494D01*
D02*
G37*
G36*
X154626Y183893D02*
X153935Y183756D01*
X153349Y183364D01*
X152957Y182778D01*
X152820Y182087D01*
X152957Y181395D01*
X153349Y180809D01*
X153935Y180418D01*
X154626Y180280D01*
X155317Y180418D01*
X155903Y180809D01*
X156295Y181395D01*
X156432Y182087D01*
X156295Y182778D01*
X155903Y183364D01*
X155317Y183756D01*
X154626Y183893D01*
D02*
G37*
G36*
X211024Y188224D02*
X210332Y188086D01*
X209746Y187695D01*
X209355Y187109D01*
X209217Y186417D01*
X209355Y185726D01*
X209746Y185140D01*
X210332Y184748D01*
X210798Y184656D01*
X212097Y183357D01*
X212553Y183052D01*
X213090Y182945D01*
X322843D01*
X324124Y181664D01*
X324217Y181199D01*
X324608Y180613D01*
X325195Y180221D01*
X325886Y180083D01*
X326577Y180221D01*
X327163Y180613D01*
X327555Y181199D01*
X327692Y181890D01*
X327555Y182581D01*
X327163Y183167D01*
X326577Y183559D01*
X326111Y183651D01*
X324419Y185344D01*
X323963Y185648D01*
X323425Y185755D01*
X213672D01*
X212785Y186643D01*
X212692Y187109D01*
X212301Y187695D01*
X211715Y188086D01*
X211024Y188224D01*
D02*
G37*
G36*
X39370Y183598D02*
X38679Y183460D01*
X38093Y183069D01*
X37701Y182483D01*
X37564Y181791D01*
X37701Y181100D01*
X38093Y180514D01*
X38679Y180122D01*
X39370Y179985D01*
X40061Y180122D01*
X40647Y180514D01*
X41039Y181100D01*
X41176Y181791D01*
X41039Y182483D01*
X40647Y183069D01*
X40061Y183460D01*
X39370Y183598D01*
D02*
G37*
G36*
X173622Y182909D02*
X172931Y182771D01*
X172345Y182380D01*
X171953Y181794D01*
X171816Y181103D01*
X171953Y180411D01*
X172345Y179825D01*
X172931Y179434D01*
X173622Y179296D01*
X174313Y179434D01*
X174899Y179825D01*
X175291Y180411D01*
X175428Y181103D01*
X175291Y181794D01*
X174899Y182380D01*
X174313Y182771D01*
X173622Y182909D01*
D02*
G37*
G36*
X55216Y182909D02*
X54525Y182771D01*
X53939Y182380D01*
X53548Y181794D01*
X53410Y181102D01*
X53548Y180411D01*
X53939Y179825D01*
X54525Y179434D01*
X55216Y179296D01*
X55908Y179434D01*
X56494Y179825D01*
X56885Y180411D01*
X57023Y181102D01*
X56885Y181794D01*
X56494Y182380D01*
X55908Y182771D01*
X55216Y182909D01*
D02*
G37*
G36*
X-5610Y182613D02*
X-6301Y182476D01*
X-6887Y182084D01*
X-7279Y181498D01*
X-7417Y180807D01*
X-7279Y180116D01*
X-6887Y179530D01*
X-6301Y179138D01*
X-5610Y179001D01*
X-4919Y179138D01*
X-4333Y179530D01*
X-3941Y180116D01*
X-3804Y180807D01*
X-3941Y181498D01*
X-4333Y182084D01*
X-4919Y182476D01*
X-5610Y182613D01*
D02*
G37*
G36*
X208222Y180663D02*
X207531Y180526D01*
X206945Y180134D01*
X206553Y179548D01*
X206416Y178857D01*
X206553Y178166D01*
X206945Y177580D01*
X207531Y177188D01*
X208222Y177051D01*
X208913Y177188D01*
X209500Y177580D01*
X209891Y178166D01*
X210029Y178857D01*
X209891Y179548D01*
X209500Y180134D01*
X208913Y180526D01*
X208222Y180663D01*
D02*
G37*
G36*
X30118Y181717D02*
X29399Y181622D01*
X28728Y181344D01*
X28153Y180903D01*
X27711Y180327D01*
X27433Y179656D01*
X27338Y178937D01*
X27433Y178218D01*
X27711Y177547D01*
X28153Y176971D01*
X28728Y176530D01*
X29399Y176252D01*
X30118Y176157D01*
X30838Y176252D01*
X31508Y176530D01*
X32084Y176971D01*
X32525Y177547D01*
X32803Y178218D01*
X32898Y178937D01*
X32803Y179656D01*
X32525Y180327D01*
X32084Y180903D01*
X31508Y181344D01*
X30838Y181622D01*
X30118Y181717D01*
D02*
G37*
G36*
X317254Y176355D02*
X316563Y176218D01*
X315977Y175826D01*
X315585Y175240D01*
X315482Y174725D01*
X315068Y174488D01*
X314961Y174472D01*
X314766Y174602D01*
X314075Y174739D01*
X180512D01*
X179821Y174602D01*
X179235Y174210D01*
X170376Y165352D01*
X169985Y164766D01*
X169847Y164075D01*
X169985Y163383D01*
X170376Y162797D01*
X170962Y162406D01*
X171653Y162268D01*
X172345Y162406D01*
X172931Y162797D01*
X181260Y171127D01*
X301419D01*
X301654Y170686D01*
X301579Y170573D01*
X301442Y169882D01*
X301579Y169191D01*
X301971Y168605D01*
X302557Y168213D01*
X303248Y168076D01*
X303939Y168213D01*
X304525Y168605D01*
X304917Y169191D01*
X305054Y169882D01*
X304917Y170573D01*
X304842Y170686D01*
X305077Y171127D01*
X313327D01*
X315947Y168506D01*
X316533Y168115D01*
X317224Y167977D01*
X317916Y168115D01*
X318502Y168506D01*
X318893Y169092D01*
X319031Y169783D01*
X318893Y170475D01*
X318502Y171061D01*
X317300Y172262D01*
X317482Y172788D01*
X317945Y172880D01*
X318531Y173272D01*
X318923Y173857D01*
X319060Y174549D01*
X318923Y175240D01*
X318531Y175826D01*
X317945Y176218D01*
X317254Y176355D01*
D02*
G37*
G36*
X322124D02*
X321432Y176218D01*
X320846Y175826D01*
X320455Y175240D01*
X320317Y174549D01*
X320455Y173857D01*
X320846Y173272D01*
X321432Y172880D01*
X322124Y172742D01*
X322815Y172880D01*
X323401Y173272D01*
X323793Y173857D01*
X323930Y174549D01*
X323793Y175240D01*
X323401Y175826D01*
X322815Y176218D01*
X322124Y176355D01*
D02*
G37*
G36*
X-38701Y173854D02*
X-39392Y173716D01*
X-39978Y173325D01*
X-40370Y172739D01*
X-40507Y172047D01*
X-40370Y171356D01*
X-39978Y170770D01*
X-39392Y170378D01*
X-38701Y170241D01*
X-38010Y170378D01*
X-37424Y170770D01*
X-37032Y171356D01*
X-36894Y172047D01*
X-37032Y172739D01*
X-37424Y173325D01*
X-38010Y173716D01*
X-38701Y173854D01*
D02*
G37*
G36*
X162303Y168834D02*
X161612Y168696D01*
X161026Y168305D01*
X160634Y167719D01*
X160497Y167028D01*
X160634Y166336D01*
X161026Y165750D01*
X161612Y165359D01*
X162303Y165221D01*
X162994Y165359D01*
X163580Y165750D01*
X163972Y166336D01*
X164110Y167028D01*
X163972Y167719D01*
X163580Y168305D01*
X162994Y168696D01*
X162303Y168834D01*
D02*
G37*
G36*
X299016Y168539D02*
X298324Y168401D01*
X297739Y168010D01*
X297347Y167423D01*
X297209Y166732D01*
X297347Y166041D01*
X297739Y165455D01*
X298324Y165063D01*
X299016Y164926D01*
X299707Y165063D01*
X300293Y165455D01*
X300685Y166041D01*
X300822Y166732D01*
X300685Y167423D01*
X300293Y168010D01*
X299707Y168401D01*
X299016Y168539D01*
D02*
G37*
G36*
X30906Y168342D02*
X30214Y168204D01*
X29628Y167813D01*
X29237Y167227D01*
X29099Y166535D01*
X29237Y165844D01*
X29628Y165258D01*
X30214Y164867D01*
X30906Y164729D01*
X31597Y164867D01*
X32183Y165258D01*
X32574Y165844D01*
X32712Y166535D01*
X32574Y167227D01*
X32183Y167813D01*
X31597Y168204D01*
X30906Y168342D01*
D02*
G37*
G36*
X362402Y170212D02*
X361710Y170074D01*
X361124Y169683D01*
X360733Y169097D01*
X360595Y168405D01*
X360733Y167714D01*
X361124Y167128D01*
X361316Y167000D01*
Y166399D01*
X361223Y166336D01*
X360831Y165750D01*
X360694Y165059D01*
X360831Y164368D01*
X361223Y163782D01*
X361809Y163390D01*
X362500Y163253D01*
X363191Y163390D01*
X363777Y163782D01*
X364169Y164368D01*
X364306Y165059D01*
X364169Y165750D01*
X363777Y166336D01*
X363585Y166464D01*
Y167066D01*
X363679Y167128D01*
X364070Y167714D01*
X364208Y168405D01*
X364070Y169097D01*
X363679Y169683D01*
X363093Y170074D01*
X362402Y170212D01*
D02*
G37*
G36*
X201575Y164700D02*
X200884Y164563D01*
X200297Y164171D01*
X199906Y163585D01*
X199768Y162894D01*
X199858Y162444D01*
X199523Y161944D01*
X192776D01*
X192025Y162695D01*
X191439Y163086D01*
X190748Y163224D01*
X190057Y163086D01*
X189471Y162695D01*
X189079Y162109D01*
X188942Y161417D01*
X189079Y160726D01*
X189471Y160140D01*
X190750Y158861D01*
X191336Y158469D01*
X192027Y158331D01*
X232336D01*
X232506Y157831D01*
X232385Y157738D01*
X231943Y157163D01*
X231665Y156492D01*
X231571Y155773D01*
X231665Y155053D01*
X231943Y154383D01*
X232385Y153807D01*
X232961Y153366D01*
X233631Y153088D01*
X234350Y152993D01*
X235070Y153088D01*
X235740Y153366D01*
X236316Y153807D01*
X236758Y154383D01*
X237035Y155053D01*
X237130Y155773D01*
X237035Y156492D01*
X236758Y157163D01*
X236316Y157738D01*
X236195Y157831D01*
X236364Y158331D01*
X243027D01*
X243362Y157831D01*
X243272Y157382D01*
X243410Y156691D01*
X243801Y156105D01*
Y155608D01*
X243410Y155022D01*
X243272Y154331D01*
X243410Y153639D01*
X243801Y153053D01*
X244388Y152662D01*
X245079Y152524D01*
X245770Y152662D01*
X246356Y153053D01*
X246748Y153639D01*
X246885Y154331D01*
X246748Y155022D01*
X246356Y155608D01*
Y156105D01*
X246748Y156691D01*
X246885Y157382D01*
X246796Y157831D01*
X247131Y158331D01*
X298070D01*
X298762Y158469D01*
X299348Y158861D01*
X300447Y159960D01*
X300839Y160546D01*
X300976Y161237D01*
X300839Y161929D01*
X300447Y162515D01*
X299861Y162906D01*
X299170Y163044D01*
X298479Y162906D01*
X297893Y162515D01*
X297322Y161944D01*
X203627D01*
X203292Y162444D01*
X203381Y162894D01*
X203244Y163585D01*
X202852Y164171D01*
X202266Y164563D01*
X201575Y164700D01*
D02*
G37*
G36*
X85236Y165192D02*
X84545Y165055D01*
X83959Y164663D01*
X83567Y164077D01*
X83430Y163386D01*
X83567Y162695D01*
X83959Y162109D01*
X84545Y161717D01*
X85236Y161580D01*
X85927Y161717D01*
X86514Y162109D01*
X86905Y162695D01*
X87043Y163386D01*
X86905Y164077D01*
X86514Y164663D01*
X85927Y165055D01*
X85236Y165192D01*
D02*
G37*
G36*
X402756Y164798D02*
X402065Y164661D01*
X401479Y164269D01*
X401087Y163683D01*
X400949Y162992D01*
X401087Y162301D01*
X401479Y161715D01*
X402065Y161323D01*
X402756Y161186D01*
X403447Y161323D01*
X404033Y161715D01*
X404425Y162301D01*
X404562Y162992D01*
X404425Y163683D01*
X404033Y164269D01*
X403447Y164661D01*
X402756Y164798D01*
D02*
G37*
G36*
X27473Y163420D02*
X26781Y163283D01*
X26195Y162891D01*
X25804Y162305D01*
X25666Y161614D01*
X25804Y160923D01*
X26195Y160337D01*
X26781Y159945D01*
X27473Y159808D01*
X28164Y159945D01*
X28750Y160337D01*
X29142Y160923D01*
X29279Y161614D01*
X29142Y162305D01*
X28750Y162891D01*
X28164Y163283D01*
X27473Y163420D01*
D02*
G37*
G36*
X383287Y159473D02*
X382568Y159378D01*
X381898Y159100D01*
X381322Y158658D01*
X380880Y158083D01*
X380792Y157871D01*
X380251D01*
X380163Y158083D01*
X379721Y158658D01*
X379146Y159100D01*
X378475Y159378D01*
X377756Y159473D01*
X377036Y159378D01*
X376366Y159100D01*
X375790Y158658D01*
X375439Y158201D01*
X375254Y158156D01*
X375041D01*
X374856Y158201D01*
X374505Y158658D01*
X373929Y159100D01*
X373259Y159378D01*
X372539Y159473D01*
X371820Y159378D01*
X371149Y159100D01*
X370574Y158658D01*
X370132Y158083D01*
X369854Y157412D01*
X369760Y156693D01*
X369854Y155973D01*
X370132Y155303D01*
X370574Y154727D01*
X371149Y154286D01*
X371820Y154008D01*
X372539Y153913D01*
X373259Y154008D01*
X373929Y154286D01*
X374505Y154727D01*
X374856Y155185D01*
X375041Y155229D01*
X375254D01*
X375439Y155185D01*
X375790Y154727D01*
X376366Y154286D01*
X377036Y154008D01*
X377756Y153913D01*
X378475Y154008D01*
X379146Y154286D01*
X379721Y154727D01*
X380163Y155303D01*
X380251Y155515D01*
X380792D01*
X380880Y155303D01*
X381322Y154727D01*
X381898Y154286D01*
X382568Y154008D01*
X383287Y153913D01*
X384007Y154008D01*
X384677Y154286D01*
X385253Y154727D01*
X385695Y155303D01*
X385972Y155973D01*
X386067Y156693D01*
X385972Y157412D01*
X385695Y158083D01*
X385253Y158658D01*
X384677Y159100D01*
X384007Y159378D01*
X383287Y159473D01*
D02*
G37*
G36*
X9941Y161157D02*
X9250Y161019D01*
X8664Y160628D01*
X8272Y160042D01*
X8135Y159350D01*
X8272Y158659D01*
X8664Y158073D01*
X9250Y157682D01*
X9941Y157544D01*
X10632Y157682D01*
X11218Y158073D01*
X11610Y158659D01*
X11747Y159350D01*
X11610Y160042D01*
X11218Y160628D01*
X10632Y161019D01*
X9941Y161157D01*
D02*
G37*
G36*
X-36732Y159799D02*
X-37424Y159661D01*
X-38010Y159269D01*
X-38401Y158683D01*
X-38539Y157992D01*
X-38401Y157301D01*
X-38010Y156715D01*
X-37424Y156323D01*
X-36732Y156186D01*
X-36041Y156323D01*
X-35455Y156715D01*
X-35063Y157301D01*
X-34926Y157992D01*
X-35063Y158683D01*
X-35455Y159269D01*
X-36041Y159661D01*
X-36732Y159799D01*
D02*
G37*
G36*
X106004Y159719D02*
X105313Y159581D01*
X104727Y159190D01*
X104335Y158604D01*
X104198Y157913D01*
X104335Y157221D01*
X104727Y156635D01*
X105313Y156244D01*
X106004Y156106D01*
X106695Y156244D01*
X107281Y156635D01*
X107673Y157221D01*
X107810Y157913D01*
X107673Y158604D01*
X107281Y159190D01*
X106695Y159581D01*
X106004Y159719D01*
D02*
G37*
G36*
X30807Y159582D02*
X30116Y159444D01*
X29530Y159053D01*
X29138Y158467D01*
X29001Y157776D01*
X29138Y157084D01*
X29530Y156498D01*
X30116Y156107D01*
X30807Y155969D01*
X31498Y156107D01*
X32084Y156498D01*
X32476Y157084D01*
X32614Y157776D01*
X32476Y158467D01*
X32084Y159053D01*
X31498Y159444D01*
X30807Y159582D01*
D02*
G37*
G36*
X-31220Y158578D02*
X-31912Y158440D01*
X-32498Y158049D01*
X-32889Y157463D01*
X-33027Y156772D01*
X-32889Y156080D01*
X-32498Y155494D01*
X-31912Y155103D01*
X-31220Y154965D01*
X-30529Y155103D01*
X-29943Y155494D01*
X-29552Y156080D01*
X-29414Y156772D01*
X-29552Y157463D01*
X-29943Y158049D01*
X-30529Y158440D01*
X-31220Y158578D01*
D02*
G37*
G36*
X425295Y155645D02*
X424604Y155507D01*
X424018Y155116D01*
X423626Y154530D01*
X423489Y153839D01*
X423626Y153147D01*
X424018Y152561D01*
X424604Y152170D01*
X425295Y152032D01*
X425986Y152170D01*
X426573Y152561D01*
X426964Y153147D01*
X427102Y153839D01*
X426964Y154530D01*
X426573Y155116D01*
X425986Y155507D01*
X425295Y155645D01*
D02*
G37*
G36*
X-11943Y155257D02*
X-12634Y155119D01*
X-13220Y154728D01*
X-13612Y154142D01*
X-13749Y153451D01*
X-13612Y152759D01*
X-13220Y152173D01*
X-12634Y151782D01*
X-11943Y151644D01*
X-11252Y151782D01*
X-10666Y152173D01*
X-10274Y152759D01*
X-10137Y153451D01*
X-10274Y154142D01*
X-10666Y154728D01*
X-11252Y155119D01*
X-11943Y155257D01*
D02*
G37*
G36*
X30807Y152692D02*
X30116Y152555D01*
X29530Y152163D01*
X29138Y151577D01*
X29001Y150886D01*
X29138Y150195D01*
X29530Y149609D01*
X30116Y149217D01*
X30807Y149080D01*
X31498Y149217D01*
X32084Y149609D01*
X32476Y150195D01*
X32614Y150886D01*
X32476Y151577D01*
X32084Y152163D01*
X31498Y152555D01*
X30807Y152692D01*
D02*
G37*
G36*
Y147869D02*
X30116Y147732D01*
X29530Y147340D01*
X29138Y146754D01*
X29001Y146063D01*
X29138Y145372D01*
X29530Y144786D01*
X30116Y144394D01*
X30807Y144257D01*
X31498Y144394D01*
X32084Y144786D01*
X32476Y145372D01*
X32614Y146063D01*
X32476Y146754D01*
X32084Y147340D01*
X31498Y147732D01*
X30807Y147869D01*
D02*
G37*
G36*
X-31496Y146688D02*
X-32187Y146551D01*
X-32773Y146159D01*
X-33165Y145573D01*
X-33302Y144882D01*
X-33165Y144191D01*
X-32773Y143605D01*
X-32187Y143213D01*
X-31496Y143076D01*
X-30805Y143213D01*
X-30219Y143605D01*
X-29827Y144191D01*
X-29690Y144882D01*
X-29827Y145573D01*
X-30219Y146159D01*
X-30805Y146551D01*
X-31496Y146688D01*
D02*
G37*
G36*
X426870Y144818D02*
X426179Y144681D01*
X425593Y144289D01*
X425201Y143703D01*
X425064Y143012D01*
X425201Y142321D01*
X425593Y141735D01*
X426179Y141343D01*
X426870Y141205D01*
X427561Y141343D01*
X428147Y141735D01*
X428539Y142321D01*
X428676Y143012D01*
X428539Y143703D01*
X428147Y144289D01*
X427561Y144681D01*
X426870Y144818D01*
D02*
G37*
G36*
X-37008Y133204D02*
X-37699Y133066D01*
X-38285Y132675D01*
X-38677Y132089D01*
X-38814Y131398D01*
X-38677Y130706D01*
X-38285Y130120D01*
X-37699Y129729D01*
X-37008Y129591D01*
X-36317Y129729D01*
X-35731Y130120D01*
X-35339Y130706D01*
X-35201Y131398D01*
X-35339Y132089D01*
X-35731Y132675D01*
X-36317Y133066D01*
X-37008Y133204D01*
D02*
G37*
G36*
X87106Y131924D02*
X86415Y131787D01*
X85829Y131395D01*
X85437Y130809D01*
X85300Y130118D01*
X85437Y129427D01*
X85829Y128841D01*
X86415Y128449D01*
X87106Y128312D01*
X87798Y128449D01*
X88384Y128841D01*
X88775Y129427D01*
X88913Y130118D01*
X88775Y130809D01*
X88384Y131395D01*
X87798Y131787D01*
X87106Y131924D01*
D02*
G37*
G36*
X-2756Y134090D02*
X-3447Y133952D01*
X-4033Y133561D01*
X-4425Y132975D01*
X-4562Y132283D01*
X-4425Y131592D01*
X-4033Y131006D01*
X-3553Y130685D01*
X-3440Y130549D01*
X-3392Y130094D01*
X-3637Y129727D01*
X-3775Y129035D01*
X-3637Y128344D01*
X-3246Y127758D01*
X-2660Y127367D01*
X-1969Y127229D01*
X-1277Y127367D01*
X-691Y127758D01*
X-300Y128344D01*
X-162Y129035D01*
X-300Y129727D01*
X-691Y130313D01*
X-1172Y130634D01*
X-1284Y130770D01*
X-1332Y131225D01*
X-1087Y131592D01*
X-950Y132283D01*
X-1087Y132975D01*
X-1479Y133561D01*
X-2065Y133952D01*
X-2756Y134090D01*
D02*
G37*
G36*
X30512Y130743D02*
X29820Y130606D01*
X29234Y130214D01*
X28843Y129628D01*
X28705Y128937D01*
X28843Y128246D01*
X29234Y127660D01*
X29820Y127268D01*
X30512Y127131D01*
X31203Y127268D01*
X31789Y127660D01*
X32181Y128246D01*
X32318Y128937D01*
X32181Y129628D01*
X31789Y130214D01*
X31203Y130606D01*
X30512Y130743D01*
D02*
G37*
G36*
X2835Y129405D02*
X2143Y129267D01*
X1557Y128876D01*
X1166Y128290D01*
X1028Y127598D01*
X1166Y126907D01*
X1557Y126321D01*
X2143Y125930D01*
X2835Y125792D01*
X3526Y125930D01*
X4112Y126321D01*
X4504Y126907D01*
X4641Y127598D01*
X4504Y128290D01*
X4112Y128876D01*
X3526Y129267D01*
X2835Y129405D01*
D02*
G37*
G36*
X101810Y128771D02*
X101118Y128634D01*
X100532Y128242D01*
X100141Y127656D01*
X100003Y126965D01*
X100141Y126273D01*
X100532Y125687D01*
X101118Y125296D01*
X101810Y125158D01*
X102501Y125296D01*
X103087Y125687D01*
X103478Y126273D01*
X103616Y126965D01*
X103478Y127656D01*
X103087Y128242D01*
X102501Y128634D01*
X101810Y128771D01*
D02*
G37*
G36*
X401142Y126090D02*
X400422Y125995D01*
X399752Y125717D01*
X399176Y125276D01*
X398734Y124700D01*
X398705Y124629D01*
X398164D01*
X398136Y124697D01*
X397694Y125273D01*
X397118Y125714D01*
X396448Y125992D01*
X395728Y126087D01*
X395009Y125992D01*
X394338Y125714D01*
X393763Y125273D01*
X393321Y124697D01*
X393043Y124027D01*
X392949Y123307D01*
X393043Y122588D01*
X393321Y121917D01*
X393763Y121342D01*
X394338Y120900D01*
X395009Y120622D01*
X395128Y120607D01*
Y120102D01*
X395009Y120087D01*
X394338Y119809D01*
X393763Y119367D01*
X393321Y118791D01*
X393043Y118121D01*
X392949Y117402D01*
X393043Y116682D01*
X393321Y116012D01*
X393763Y115436D01*
X394338Y114994D01*
X395009Y114717D01*
X395128Y114701D01*
Y114197D01*
X395009Y114181D01*
X394338Y113903D01*
X393763Y113462D01*
X393321Y112886D01*
X393043Y112215D01*
X392949Y111496D01*
X393043Y110777D01*
X393321Y110106D01*
X393763Y109530D01*
X394338Y109089D01*
X395009Y108811D01*
Y108315D01*
X394338Y108037D01*
X393763Y107596D01*
X393321Y107020D01*
X393043Y106349D01*
X392949Y105630D01*
X393043Y104911D01*
X393321Y104240D01*
X393763Y103664D01*
X394338Y103223D01*
X395009Y102945D01*
X395728Y102850D01*
X396448Y102945D01*
X397118Y103223D01*
X397694Y103664D01*
X398136Y104240D01*
X398165Y104311D01*
X398706D01*
X398734Y104243D01*
X399176Y103667D01*
X399752Y103226D01*
X400422Y102948D01*
X401142Y102853D01*
X401861Y102948D01*
X402532Y103226D01*
X403107Y103667D01*
X403549Y104243D01*
X403827Y104914D01*
X403921Y105633D01*
X403827Y106352D01*
X403549Y107023D01*
X403107Y107598D01*
X402532Y108040D01*
X401861Y108318D01*
Y108814D01*
X402532Y109092D01*
X403107Y109534D01*
X403549Y110109D01*
X403827Y110780D01*
X403921Y111499D01*
X403827Y112219D01*
X403549Y112889D01*
X403107Y113465D01*
X402532Y113906D01*
X401861Y114184D01*
X401742Y114200D01*
Y114704D01*
X401861Y114720D01*
X402532Y114997D01*
X403107Y115439D01*
X403549Y116015D01*
X403827Y116685D01*
X403921Y117405D01*
X403827Y118124D01*
X403549Y118795D01*
X403107Y119370D01*
X402532Y119812D01*
X401861Y120090D01*
X401742Y120105D01*
Y120610D01*
X401861Y120625D01*
X402532Y120903D01*
X403107Y121345D01*
X403549Y121920D01*
X403827Y122591D01*
X403921Y123310D01*
X403827Y124030D01*
X403549Y124700D01*
X403107Y125276D01*
X402532Y125717D01*
X401861Y125995D01*
X401142Y126090D01*
D02*
G37*
G36*
X320982Y140568D02*
X301297D01*
X301279Y140551D01*
X300984D01*
Y120374D01*
X320982D01*
Y140568D01*
D02*
G37*
G36*
X-22736Y121688D02*
X-23427Y121551D01*
X-24013Y121159D01*
X-24405Y120573D01*
X-24543Y119882D01*
X-24405Y119191D01*
X-24013Y118605D01*
X-23427Y118213D01*
X-22736Y118076D01*
X-22045Y118213D01*
X-21459Y118605D01*
X-21067Y119191D01*
X-20930Y119882D01*
X-21067Y120573D01*
X-21459Y121159D01*
X-22045Y121551D01*
X-22736Y121688D01*
D02*
G37*
G36*
X101083Y120999D02*
X100391Y120862D01*
X99805Y120470D01*
X99414Y119884D01*
X99276Y119193D01*
X99414Y118502D01*
X99805Y117916D01*
X100391Y117524D01*
X101083Y117387D01*
X101774Y117524D01*
X102360Y117916D01*
X102752Y118502D01*
X102889Y119193D01*
X102752Y119884D01*
X102360Y120470D01*
X101774Y120862D01*
X101083Y120999D01*
D02*
G37*
G36*
X30610Y123657D02*
X29919Y123519D01*
X29333Y123128D01*
X28941Y122542D01*
X28804Y121850D01*
X28941Y121159D01*
X29333Y120573D01*
X29527Y120443D01*
Y119943D01*
X29431Y119880D01*
X29040Y119294D01*
X28902Y118602D01*
X29040Y117911D01*
X29431Y117325D01*
X30017Y116934D01*
X30709Y116796D01*
X31400Y116934D01*
X31986Y117325D01*
X32377Y117911D01*
X32515Y118602D01*
X32377Y119294D01*
X31986Y119880D01*
X31792Y120009D01*
Y120509D01*
X31888Y120573D01*
X32279Y121159D01*
X32417Y121850D01*
X32279Y122542D01*
X31888Y123128D01*
X31302Y123519D01*
X30610Y123657D01*
D02*
G37*
G36*
X322244Y166767D02*
X321553Y166630D01*
X320967Y166238D01*
X320575Y165652D01*
X320438Y164961D01*
Y146260D01*
X320575Y145569D01*
X320967Y144983D01*
X329381Y136568D01*
X329292Y136122D01*
Y118405D01*
X329445Y117637D01*
X329880Y116986D01*
X330531Y116551D01*
X331299Y116398D01*
X361614D01*
X362382Y116551D01*
X363033Y116986D01*
X363469Y117637D01*
X363621Y118405D01*
Y136122D01*
X363469Y136890D01*
X363033Y137541D01*
X362382Y137976D01*
X361614Y138129D01*
X332929D01*
X324050Y147008D01*
Y164961D01*
X323913Y165652D01*
X323521Y166238D01*
X322935Y166630D01*
X322244Y166767D01*
D02*
G37*
G36*
X89498Y119096D02*
X88807Y118958D01*
X88221Y118567D01*
X87829Y117981D01*
X87691Y117289D01*
X87709Y117203D01*
X81109Y110604D01*
X48939D01*
X48890Y110677D01*
X48304Y111068D01*
X47613Y111206D01*
X46922Y111068D01*
X46336Y110677D01*
X45944Y110091D01*
X45807Y109400D01*
X45944Y108708D01*
X46336Y108122D01*
X46922Y107731D01*
X47613Y107593D01*
X48304Y107731D01*
X48890Y108122D01*
X48939Y108195D01*
X64710D01*
X65039Y107695D01*
X64948Y107234D01*
X65085Y106543D01*
X65477Y105957D01*
X66063Y105565D01*
X66754Y105428D01*
X67445Y105565D01*
X68031Y105957D01*
X68113Y106079D01*
X82757D01*
X82757Y106079D01*
X83218Y106171D01*
X83609Y106432D01*
X86430Y109253D01*
X86516Y109236D01*
X87207Y109373D01*
X87793Y109765D01*
X88185Y110351D01*
X88322Y111042D01*
X88185Y111733D01*
X87793Y112319D01*
X87280Y112662D01*
X87112Y113201D01*
X89412Y115500D01*
X89498Y115483D01*
X90189Y115621D01*
X90775Y116012D01*
X91167Y116598D01*
X91304Y117289D01*
X91167Y117981D01*
X90775Y118567D01*
X90189Y118958D01*
X89498Y119096D01*
D02*
G37*
G36*
X204823Y115881D02*
X204132Y115744D01*
X203545Y115352D01*
X203154Y114766D01*
X203016Y114075D01*
X203154Y113383D01*
X203545Y112797D01*
X204132Y112406D01*
X204823Y112268D01*
X205514Y112406D01*
X206100Y112797D01*
X206492Y113383D01*
X206629Y114075D01*
X206492Y114766D01*
X206100Y115352D01*
X205514Y115744D01*
X204823Y115881D01*
D02*
G37*
G36*
X320602Y115684D02*
X319911Y115547D01*
X319324Y115155D01*
X318933Y114569D01*
X318795Y113878D01*
X318933Y113187D01*
X319324Y112601D01*
X319911Y112209D01*
X320602Y112072D01*
X321293Y112209D01*
X321879Y112601D01*
X322271Y113187D01*
X322408Y113878D01*
X322271Y114569D01*
X321879Y115155D01*
X321293Y115547D01*
X320602Y115684D01*
D02*
G37*
G36*
X314173Y117687D02*
X313482Y117550D01*
X312896Y117158D01*
X312504Y116572D01*
X312367Y115881D01*
X312504Y115190D01*
X312777Y114781D01*
X312305Y114466D01*
X311914Y113880D01*
X311776Y113189D01*
X311914Y112498D01*
X312305Y111912D01*
X312891Y111520D01*
X313583Y111383D01*
X314274Y111520D01*
X314860Y111912D01*
X315251Y112498D01*
X315389Y113189D01*
X315251Y113880D01*
X314979Y114288D01*
X315451Y114604D01*
X315842Y115190D01*
X315980Y115881D01*
X315842Y116572D01*
X315451Y117158D01*
X314864Y117550D01*
X314173Y117687D01*
D02*
G37*
G36*
X3150Y117062D02*
X2458Y116925D01*
X1872Y116533D01*
X1481Y115947D01*
X1343Y115256D01*
X1481Y114565D01*
X1872Y113979D01*
X2458Y113587D01*
X2867Y113506D01*
X3169Y113332D01*
X3230Y112962D01*
X3153Y112572D01*
X3290Y111880D01*
X3682Y111294D01*
X4268Y110903D01*
X4959Y110765D01*
X5650Y110903D01*
X6236Y111294D01*
X6628Y111880D01*
X6765Y112572D01*
X6628Y113263D01*
X6236Y113849D01*
X5650Y114241D01*
X5241Y114322D01*
X4940Y114495D01*
X4878Y114865D01*
X4956Y115256D01*
X4818Y115947D01*
X4427Y116533D01*
X3841Y116925D01*
X3150Y117062D01*
D02*
G37*
G36*
X39272Y113322D02*
X38580Y113185D01*
X37994Y112793D01*
X37603Y112207D01*
X37465Y111516D01*
X37603Y110825D01*
X37994Y110239D01*
X38580Y109847D01*
X39272Y109709D01*
X39963Y109847D01*
X40549Y110239D01*
X40940Y110825D01*
X41078Y111516D01*
X40940Y112207D01*
X40549Y112793D01*
X39963Y113185D01*
X39272Y113322D01*
D02*
G37*
G36*
X296949Y118932D02*
X296258Y118795D01*
X295672Y118403D01*
X295280Y117817D01*
X295143Y117126D01*
X295254Y116565D01*
X294587Y116433D01*
X294001Y116041D01*
X293609Y115455D01*
X293472Y114764D01*
X293609Y114073D01*
X294001Y113487D01*
X294587Y113095D01*
X295278Y112957D01*
X295536Y113009D01*
X295731Y112538D01*
X295672Y112498D01*
X295280Y111912D01*
X295143Y111221D01*
X295280Y110529D01*
X295672Y109943D01*
X296258Y109552D01*
X296949Y109414D01*
X297640Y109552D01*
X298226Y109943D01*
X298618Y110529D01*
X298755Y111221D01*
X298618Y111912D01*
X298226Y112498D01*
X297640Y112889D01*
X296949Y113027D01*
X296690Y112975D01*
X296495Y113446D01*
X296555Y113487D01*
X296947Y114073D01*
X297084Y114764D01*
X296973Y115324D01*
X297640Y115457D01*
X298226Y115849D01*
X298618Y116435D01*
X298755Y117126D01*
X298618Y117817D01*
X298226Y118403D01*
X297640Y118795D01*
X296949Y118932D01*
D02*
G37*
G36*
X21555Y112928D02*
X20864Y112791D01*
X20278Y112399D01*
X19886Y111813D01*
X19749Y111122D01*
X19886Y110431D01*
X20278Y109845D01*
X20864Y109453D01*
X21555Y109316D01*
X22246Y109453D01*
X22832Y109845D01*
X23224Y110431D01*
X23361Y111122D01*
X23224Y111813D01*
X22832Y112399D01*
X22246Y112791D01*
X21555Y112928D01*
D02*
G37*
G36*
X106102Y112830D02*
X105411Y112692D01*
X104825Y112301D01*
X104434Y111715D01*
X104296Y111024D01*
X104434Y110332D01*
X104825Y109746D01*
X105411Y109355D01*
X106102Y109217D01*
X106794Y109355D01*
X107380Y109746D01*
X107771Y110332D01*
X107909Y111024D01*
X107771Y111715D01*
X107380Y112301D01*
X106794Y112692D01*
X106102Y112830D01*
D02*
G37*
G36*
X-4724Y115389D02*
X-5416Y115252D01*
X-6002Y114860D01*
X-6393Y114274D01*
X-6531Y113583D01*
X-6393Y112891D01*
X-6002Y112305D01*
X-5416Y111914D01*
X-5153Y111862D01*
X-5073Y111336D01*
X-5510Y111045D01*
X-5901Y110459D01*
X-6039Y109767D01*
X-5901Y109076D01*
X-5510Y108490D01*
X-4924Y108098D01*
X-4232Y107961D01*
X-3541Y108098D01*
X-2955Y108490D01*
X-2563Y109076D01*
X-2426Y109767D01*
X-2563Y110459D01*
X-2955Y111045D01*
X-3541Y111436D01*
X-3804Y111488D01*
X-3883Y112014D01*
X-3447Y112305D01*
X-3056Y112891D01*
X-2918Y113583D01*
X-3056Y114274D01*
X-3447Y114860D01*
X-4033Y115252D01*
X-4724Y115389D01*
D02*
G37*
G36*
X234350Y113213D02*
X233631Y113118D01*
X232961Y112840D01*
X232385Y112399D01*
X231943Y111823D01*
X231665Y111153D01*
X231571Y110433D01*
X231665Y109714D01*
X231943Y109043D01*
X232385Y108467D01*
X232961Y108026D01*
X233631Y107748D01*
X234350Y107653D01*
X235070Y107748D01*
X235740Y108026D01*
X236316Y108467D01*
X236758Y109043D01*
X237035Y109714D01*
X237130Y110433D01*
X237035Y111153D01*
X236758Y111823D01*
X236316Y112399D01*
X235740Y112840D01*
X235070Y113118D01*
X234350Y113213D01*
D02*
G37*
G36*
X306201Y111058D02*
X305509Y110921D01*
X304924Y110529D01*
X304532Y109943D01*
X304394Y109252D01*
X304532Y108561D01*
X304924Y107975D01*
X305509Y107583D01*
X306201Y107446D01*
X306892Y107583D01*
X307478Y107975D01*
X307870Y108561D01*
X308007Y109252D01*
X307870Y109943D01*
X307478Y110529D01*
X306892Y110921D01*
X306201Y111058D01*
D02*
G37*
G36*
X312806Y110665D02*
X312115Y110527D01*
X311529Y110136D01*
X311138Y109550D01*
X311000Y108858D01*
X311138Y108167D01*
X311529Y107581D01*
X312115Y107189D01*
X312806Y107052D01*
X313498Y107189D01*
X314084Y107581D01*
X314475Y108167D01*
X314613Y108858D01*
X314475Y109550D01*
X314084Y110136D01*
X313498Y110527D01*
X312806Y110665D01*
D02*
G37*
G36*
X3108Y107670D02*
X2416Y107532D01*
X1830Y107141D01*
X1698Y106943D01*
X1249Y106714D01*
X663Y107105D01*
X-28Y107243D01*
X-719Y107105D01*
X-1305Y106714D01*
X-1697Y106128D01*
X-1834Y105437D01*
X-1697Y104745D01*
X-1305Y104159D01*
X-719Y103768D01*
X-28Y103630D01*
X663Y103768D01*
X1249Y104159D01*
X1382Y104357D01*
X1830Y104586D01*
X2416Y104195D01*
X3108Y104057D01*
X3799Y104195D01*
X4385Y104586D01*
X4777Y105172D01*
X4914Y105864D01*
X4777Y106555D01*
X4385Y107141D01*
X3799Y107532D01*
X3108Y107670D01*
D02*
G37*
G36*
X9646Y109484D02*
X8954Y109346D01*
X8368Y108955D01*
X7977Y108368D01*
X7839Y107677D01*
X7977Y106986D01*
X8368Y106400D01*
X8954Y106008D01*
X9646Y105871D01*
X10337Y106008D01*
X10923Y106400D01*
X11315Y106986D01*
X11452Y107677D01*
X11315Y108368D01*
X10923Y108955D01*
X10337Y109346D01*
X9646Y109484D01*
D02*
G37*
G36*
X167618Y104759D02*
X166927Y104622D01*
X166341Y104230D01*
X165949Y103644D01*
X165812Y102953D01*
X165949Y102261D01*
X166341Y101675D01*
X166927Y101284D01*
X167618Y101146D01*
X168309Y101284D01*
X168895Y101675D01*
X169287Y102261D01*
X169424Y102953D01*
X169287Y103644D01*
X168895Y104230D01*
X168309Y104622D01*
X167618Y104759D01*
D02*
G37*
G36*
X39272Y102397D02*
X38580Y102259D01*
X37994Y101868D01*
X37603Y101282D01*
X37465Y100591D01*
X37603Y99899D01*
X37994Y99313D01*
X38580Y98922D01*
X39272Y98784D01*
X39963Y98922D01*
X40549Y99313D01*
X40940Y99899D01*
X41078Y100591D01*
X40940Y101282D01*
X40549Y101868D01*
X39963Y102259D01*
X39272Y102397D01*
D02*
G37*
G36*
X25013Y101209D02*
X24322Y101072D01*
X23736Y100680D01*
X23344Y100094D01*
X23207Y99403D01*
X23344Y98711D01*
X23736Y98125D01*
X24322Y97734D01*
X25013Y97596D01*
X25704Y97734D01*
X26290Y98125D01*
X26682Y98711D01*
X26819Y99403D01*
X26682Y100094D01*
X26290Y100680D01*
X25704Y101072D01*
X25013Y101209D01*
D02*
G37*
G36*
X403483Y97690D02*
X402792Y97553D01*
X402206Y97161D01*
X401814Y96575D01*
X401676Y95884D01*
X401814Y95193D01*
X402206Y94607D01*
X402792Y94215D01*
X403483Y94078D01*
X404174Y94215D01*
X404760Y94607D01*
X405152Y95193D01*
X405289Y95884D01*
X405152Y96575D01*
X404760Y97161D01*
X404174Y97553D01*
X403483Y97690D01*
D02*
G37*
G36*
X32579Y97574D02*
X31888Y97437D01*
X31301Y97045D01*
X30910Y96459D01*
X30772Y95768D01*
X30910Y95076D01*
X31301Y94490D01*
X31888Y94099D01*
X32579Y93961D01*
X33270Y94099D01*
X33856Y94490D01*
X34248Y95076D01*
X34385Y95768D01*
X34248Y96459D01*
X33856Y97045D01*
X33270Y97437D01*
X32579Y97574D01*
D02*
G37*
G36*
X50982Y104267D02*
X50291Y104130D01*
X49705Y103738D01*
X49313Y103152D01*
X49176Y102461D01*
X49313Y101769D01*
X49705Y101183D01*
X52889Y97999D01*
X53475Y97607D01*
X54167Y97470D01*
X69949D01*
X73420Y93998D01*
X74006Y93607D01*
X74697Y93469D01*
X75389Y93607D01*
X75975Y93998D01*
X76366Y94584D01*
X76504Y95276D01*
X76366Y95967D01*
X75975Y96553D01*
X71974Y100553D01*
X71388Y100945D01*
X70697Y101083D01*
X54915D01*
X52259Y103738D01*
X51673Y104130D01*
X50982Y104267D01*
D02*
G37*
G36*
X212352Y110002D02*
X211661Y109865D01*
X211075Y109473D01*
X210683Y108887D01*
X210546Y108196D01*
X210683Y107505D01*
X211075Y106919D01*
X211661Y106527D01*
X212127Y106435D01*
X217488Y101074D01*
X217944Y100769D01*
X218481Y100662D01*
X315855D01*
X322770Y93747D01*
X322524Y93286D01*
X322244Y93342D01*
X321553Y93204D01*
X320967Y92813D01*
X320901Y92714D01*
X320470D01*
X319884Y93106D01*
X319193Y93243D01*
X318502Y93106D01*
X317916Y92714D01*
X317524Y92128D01*
X317387Y91437D01*
X317524Y90746D01*
X317916Y90160D01*
X318502Y89768D01*
X319193Y89631D01*
X319884Y89768D01*
X320470Y90160D01*
X320536Y90258D01*
X320967D01*
X321553Y89867D01*
X322244Y89729D01*
X322935Y89867D01*
X323521Y90258D01*
X323913Y90844D01*
X324050Y91535D01*
X323995Y91815D01*
X324456Y92061D01*
X325404Y91113D01*
X325497Y90647D01*
X325888Y90061D01*
X326474Y89670D01*
X327165Y89532D01*
X327857Y89670D01*
X328443Y90061D01*
X328834Y90647D01*
X328972Y91339D01*
X328834Y92030D01*
X328443Y92616D01*
X327857Y93007D01*
X327391Y93100D01*
X317430Y103060D01*
X316975Y103365D01*
X316437Y103472D01*
X219063D01*
X214114Y108422D01*
X214021Y108887D01*
X213630Y109473D01*
X213044Y109865D01*
X212352Y110002D01*
D02*
G37*
G36*
X22953Y98032D02*
X15473D01*
Y90551D01*
X22953D01*
Y98032D01*
D02*
G37*
G36*
X334941Y90192D02*
X334250Y90055D01*
X333664Y89663D01*
X333272Y89077D01*
X333135Y88386D01*
X333272Y87695D01*
X333664Y87108D01*
X334250Y86717D01*
X334941Y86580D01*
X335632Y86717D01*
X336218Y87108D01*
X336610Y87695D01*
X336747Y88386D01*
X336610Y89077D01*
X336218Y89663D01*
X335632Y90055D01*
X334941Y90192D01*
D02*
G37*
G36*
X425394Y89602D02*
X424702Y89464D01*
X424116Y89073D01*
X423725Y88486D01*
X423587Y87795D01*
X423725Y87104D01*
X424116Y86518D01*
X424702Y86126D01*
X425394Y85989D01*
X426085Y86126D01*
X426671Y86518D01*
X427063Y87104D01*
X427200Y87795D01*
X427063Y88486D01*
X426671Y89073D01*
X426085Y89464D01*
X425394Y89602D01*
D02*
G37*
G36*
X103868Y91782D02*
X95502D01*
Y83415D01*
X103868D01*
Y91782D01*
D02*
G37*
G36*
X362402Y90980D02*
X361710Y90842D01*
X361124Y90451D01*
X360733Y89864D01*
X360595Y89173D01*
X360733Y88482D01*
X361124Y87896D01*
Y87596D01*
X360733Y87010D01*
X360595Y86319D01*
X360733Y85628D01*
X361124Y85042D01*
Y84742D01*
X360733Y84156D01*
X360595Y83465D01*
X360733Y82773D01*
X361124Y82187D01*
X361710Y81796D01*
X362402Y81658D01*
X363093Y81796D01*
X363679Y82187D01*
X364070Y82773D01*
X364208Y83465D01*
X364070Y84156D01*
X363679Y84742D01*
Y85042D01*
X364070Y85628D01*
X364208Y86319D01*
X364070Y87010D01*
X363679Y87596D01*
Y87896D01*
X364070Y88482D01*
X364208Y89173D01*
X364070Y89864D01*
X363679Y90451D01*
X363093Y90842D01*
X362402Y90980D01*
D02*
G37*
G36*
X304017Y85013D02*
X303326Y84875D01*
X302740Y84484D01*
X302349Y83898D01*
X302211Y83206D01*
X302349Y82515D01*
X302740Y81929D01*
X303326Y81537D01*
X304017Y81400D01*
X304709Y81537D01*
X305295Y81929D01*
X305686Y82515D01*
X305824Y83206D01*
X305686Y83898D01*
X305295Y84484D01*
X304709Y84875D01*
X304017Y85013D01*
D02*
G37*
G36*
X19213Y88064D02*
X18236Y87935D01*
X17326Y87558D01*
X16545Y86959D01*
X15946Y86177D01*
X15569Y85268D01*
X15440Y84291D01*
X15569Y83315D01*
X15946Y82405D01*
X16545Y81624D01*
X17326Y81024D01*
X18236Y80647D01*
X19213Y80519D01*
X20189Y80647D01*
X21099Y81024D01*
X21880Y81624D01*
X22480Y82405D01*
X22857Y83315D01*
X22985Y84291D01*
X22857Y85268D01*
X22480Y86177D01*
X21880Y86959D01*
X21099Y87558D01*
X20189Y87935D01*
X19213Y88064D01*
D02*
G37*
G36*
X245079Y84976D02*
X244388Y84838D01*
X243801Y84447D01*
X243410Y83861D01*
X243272Y83169D01*
X243410Y82478D01*
X243801Y81892D01*
Y81395D01*
X243410Y80809D01*
X243272Y80118D01*
X243410Y79427D01*
X243801Y78841D01*
X244388Y78449D01*
X245079Y78312D01*
X245770Y78449D01*
X246356Y78841D01*
X246748Y79427D01*
X246885Y80118D01*
X246748Y80809D01*
X246356Y81395D01*
Y81892D01*
X246748Y82478D01*
X246885Y83169D01*
X246748Y83861D01*
X246356Y84447D01*
X245770Y84838D01*
X245079Y84976D01*
D02*
G37*
G36*
X68110Y80645D02*
X67419Y80507D01*
X66833Y80116D01*
X66441Y79530D01*
X66304Y78839D01*
X66441Y78147D01*
X66833Y77561D01*
X67419Y77170D01*
X68110Y77032D01*
X68801Y77170D01*
X69388Y77561D01*
X69779Y78147D01*
X69917Y78839D01*
X69779Y79530D01*
X69388Y80116D01*
X68801Y80507D01*
X68110Y80645D01*
D02*
G37*
G36*
X377953Y99445D02*
X376130Y99302D01*
X374353Y98875D01*
X372664Y98176D01*
X371105Y97220D01*
X369715Y96033D01*
X368528Y94643D01*
X367572Y93084D01*
X366873Y91395D01*
X366446Y89618D01*
X366303Y87795D01*
X366446Y85973D01*
X366873Y84195D01*
X367572Y82506D01*
X368528Y80948D01*
X369715Y79557D01*
X371105Y78370D01*
X372664Y77415D01*
X374353Y76715D01*
X376130Y76289D01*
X377953Y76145D01*
X379775Y76289D01*
X381553Y76715D01*
X383242Y77415D01*
X384801Y78370D01*
X386191Y79557D01*
X387378Y80948D01*
X388333Y82506D01*
X389033Y84195D01*
X389459Y85973D01*
X389603Y87795D01*
X389459Y89618D01*
X389033Y91395D01*
X388333Y93084D01*
X387378Y94643D01*
X386191Y96033D01*
X384801Y97220D01*
X383242Y98176D01*
X381553Y98875D01*
X379775Y99302D01*
X377953Y99445D01*
D02*
G37*
G36*
X279528D02*
X277705Y99302D01*
X275927Y98875D01*
X274238Y98176D01*
X272680Y97220D01*
X271290Y96033D01*
X270102Y94643D01*
X269147Y93084D01*
X268448Y91395D01*
X268021Y89618D01*
X267878Y87795D01*
X268021Y85973D01*
X268448Y84195D01*
X269147Y82506D01*
X270102Y80948D01*
X271290Y79557D01*
X272680Y78370D01*
X274238Y77415D01*
X275927Y76715D01*
X277705Y76289D01*
X279528Y76145D01*
X281350Y76289D01*
X283128Y76715D01*
X284817Y77415D01*
X286375Y78370D01*
X287765Y79557D01*
X288953Y80948D01*
X289908Y82506D01*
X290607Y84195D01*
X291034Y85973D01*
X291178Y87795D01*
X291034Y89618D01*
X290607Y91395D01*
X289908Y93084D01*
X288953Y94643D01*
X287765Y96033D01*
X286375Y97220D01*
X284817Y98176D01*
X283128Y98875D01*
X281350Y99302D01*
X279528Y99445D01*
D02*
G37*
G36*
X397342Y79365D02*
X396651Y79228D01*
X396065Y78836D01*
X395674Y78250D01*
X395536Y77559D01*
X395674Y76868D01*
X396065Y76282D01*
X396651Y75890D01*
X397342Y75753D01*
X398034Y75890D01*
X398620Y76282D01*
X399011Y76868D01*
X399149Y77559D01*
X399011Y78250D01*
X398620Y78836D01*
X398034Y79228D01*
X397342Y79365D01*
D02*
G37*
G36*
X299016Y78972D02*
X298324Y78834D01*
X297739Y78443D01*
X297347Y77857D01*
X297210Y77165D01*
X297347Y76474D01*
X297739Y75888D01*
X298324Y75497D01*
X299016Y75359D01*
X299707Y75497D01*
X300293Y75888D01*
X300685Y76474D01*
X300822Y77165D01*
X300685Y77857D01*
X300293Y78443D01*
X299707Y78834D01*
X299016Y78972D01*
D02*
G37*
G36*
X443701Y78381D02*
X443010Y78244D01*
X442423Y77852D01*
X442032Y77266D01*
X441894Y76575D01*
X442032Y75884D01*
X442423Y75297D01*
X443010Y74906D01*
X443701Y74768D01*
X444392Y74906D01*
X444978Y75297D01*
X445370Y75884D01*
X445507Y76575D01*
X445370Y77266D01*
X444978Y77852D01*
X444392Y78244D01*
X443701Y78381D01*
D02*
G37*
G36*
X43590Y77934D02*
X42899Y77797D01*
X42313Y77405D01*
X41921Y76819D01*
X41784Y76128D01*
X41921Y75437D01*
X42313Y74850D01*
X42899Y74459D01*
X43590Y74322D01*
X44282Y74459D01*
X44868Y74850D01*
X45259Y75437D01*
X45397Y76128D01*
X45259Y76819D01*
X44868Y77405D01*
X44282Y77797D01*
X43590Y77934D01*
D02*
G37*
G36*
X423848Y76640D02*
X423157Y76502D01*
X422571Y76111D01*
X422179Y75525D01*
X422042Y74833D01*
X422179Y74142D01*
X422571Y73556D01*
X423157Y73164D01*
X423848Y73027D01*
X424539Y73164D01*
X425125Y73556D01*
X425517Y74142D01*
X425655Y74833D01*
X425517Y75525D01*
X425125Y76111D01*
X424539Y76502D01*
X423848Y76640D01*
D02*
G37*
G36*
X101083Y76117D02*
X100391Y75980D01*
X99805Y75588D01*
X99414Y75002D01*
X99276Y74311D01*
X99414Y73620D01*
X99805Y73034D01*
X100391Y72642D01*
X101083Y72505D01*
X101774Y72642D01*
X102360Y73034D01*
X102752Y73620D01*
X102889Y74311D01*
X102752Y75002D01*
X102360Y75588D01*
X101774Y75980D01*
X101083Y76117D01*
D02*
G37*
G36*
X19213Y78064D02*
X18236Y77935D01*
X17326Y77558D01*
X16545Y76959D01*
X15946Y76178D01*
X15569Y75268D01*
X15440Y74291D01*
X15569Y73315D01*
X15946Y72405D01*
X16545Y71624D01*
X17326Y71024D01*
X18236Y70648D01*
X19213Y70519D01*
X20189Y70648D01*
X21099Y71024D01*
X21880Y71624D01*
X22480Y72405D01*
X22857Y73315D01*
X22985Y74291D01*
X22857Y75268D01*
X22480Y76178D01*
X21880Y76959D01*
X21099Y77558D01*
X20189Y77935D01*
X19213Y78064D01*
D02*
G37*
G36*
X383287Y72071D02*
X382568Y71976D01*
X381898Y71699D01*
X381322Y71257D01*
X380880Y70681D01*
X380792Y70469D01*
X380251D01*
X380163Y70681D01*
X379721Y71257D01*
X379146Y71699D01*
X378475Y71976D01*
X377756Y72071D01*
X377036Y71976D01*
X376366Y71699D01*
X375790Y71257D01*
X375439Y70799D01*
X375254Y70755D01*
X375041D01*
X374856Y70799D01*
X374505Y71257D01*
X373929Y71699D01*
X373259Y71976D01*
X372539Y72071D01*
X371820Y71976D01*
X371149Y71699D01*
X370574Y71257D01*
X370132Y70681D01*
X369854Y70011D01*
X369760Y69291D01*
X369854Y68572D01*
X370132Y67901D01*
X370574Y67326D01*
X371149Y66884D01*
X371820Y66606D01*
X372539Y66512D01*
X373259Y66606D01*
X373929Y66884D01*
X374505Y67326D01*
X374856Y67784D01*
X375041Y67828D01*
X375254D01*
X375439Y67784D01*
X375790Y67326D01*
X376366Y66884D01*
X377036Y66606D01*
X377756Y66512D01*
X378475Y66606D01*
X379146Y66884D01*
X379721Y67326D01*
X380163Y67901D01*
X380251Y68114D01*
X380792D01*
X380880Y67901D01*
X381322Y67326D01*
X381898Y66884D01*
X382568Y66606D01*
X383287Y66512D01*
X384007Y66606D01*
X384677Y66884D01*
X385253Y67326D01*
X385695Y67901D01*
X385972Y68572D01*
X386067Y69291D01*
X385972Y70011D01*
X385695Y70681D01*
X385253Y71257D01*
X384677Y71699D01*
X384007Y71976D01*
X383287Y72071D01*
D02*
G37*
G36*
X190354Y73558D02*
X189663Y73421D01*
X189077Y73029D01*
X188686Y72443D01*
X188548Y71752D01*
X188686Y71061D01*
X189077Y70475D01*
X189089Y70463D01*
X189675Y70071D01*
X190367Y69933D01*
X298386D01*
X298819Y69847D01*
X299510Y69985D01*
X300096Y70376D01*
X300488Y70962D01*
X300625Y71653D01*
X300488Y72345D01*
X300096Y72931D01*
X300010Y73017D01*
X299424Y73409D01*
X298733Y73546D01*
X190416D01*
X190354Y73558D01*
D02*
G37*
G36*
X67633Y73408D02*
X66942Y73270D01*
X66356Y72878D01*
X65964Y72293D01*
X65827Y71601D01*
X65964Y70910D01*
X66356Y70324D01*
X66942Y69932D01*
X67633Y69795D01*
X68325Y69932D01*
X68911Y70324D01*
X69302Y70910D01*
X69440Y71601D01*
X69302Y72293D01*
X68911Y72878D01*
X68325Y73270D01*
X67633Y73408D01*
D02*
G37*
G36*
X172146Y68932D02*
X171454Y68795D01*
X170868Y68403D01*
X170477Y67817D01*
X170339Y67126D01*
X170477Y66435D01*
X170868Y65849D01*
X171454Y65457D01*
X172146Y65320D01*
X172837Y65457D01*
X173423Y65849D01*
X173814Y66435D01*
X173952Y67126D01*
X173814Y67817D01*
X173423Y68403D01*
X172837Y68795D01*
X172146Y68932D01*
D02*
G37*
G36*
X88954Y66370D02*
X88263Y66233D01*
X87677Y65841D01*
X87285Y65255D01*
X87147Y64564D01*
X87285Y63872D01*
X87677Y63286D01*
X88263Y62895D01*
X88954Y62757D01*
X89645Y62895D01*
X90231Y63286D01*
X90623Y63872D01*
X90760Y64564D01*
X90623Y65255D01*
X90231Y65841D01*
X89645Y66233D01*
X88954Y66370D01*
D02*
G37*
G36*
X39075Y65908D02*
X38384Y65771D01*
X37797Y65379D01*
X37406Y64793D01*
X37268Y64102D01*
X37406Y63411D01*
X37797Y62824D01*
X38384Y62433D01*
X39075Y62295D01*
X39766Y62433D01*
X40352Y62824D01*
X40744Y63411D01*
X40881Y64102D01*
X40744Y64793D01*
X40352Y65379D01*
X39766Y65771D01*
X39075Y65908D01*
D02*
G37*
G36*
X19213Y68064D02*
X18236Y67935D01*
X17326Y67558D01*
X16545Y66959D01*
X15946Y66177D01*
X15569Y65268D01*
X15440Y64291D01*
X15569Y63315D01*
X15946Y62405D01*
X16545Y61624D01*
X17326Y61024D01*
X18236Y60647D01*
X19213Y60519D01*
X20189Y60647D01*
X21099Y61024D01*
X21880Y61624D01*
X22480Y62405D01*
X22857Y63315D01*
X22985Y64291D01*
X22857Y65268D01*
X22480Y66177D01*
X21880Y66959D01*
X21099Y67558D01*
X20189Y67935D01*
X19213Y68064D01*
D02*
G37*
G36*
X401142Y61362D02*
X400422Y61268D01*
X399752Y60990D01*
X399176Y60548D01*
X398734Y59973D01*
X398706Y59903D01*
X398164D01*
X398136Y59973D01*
X397694Y60548D01*
X397118Y60990D01*
X396448Y61268D01*
X395728Y61362D01*
X395009Y61268D01*
X394338Y60990D01*
X393763Y60548D01*
X393321Y59973D01*
X393043Y59302D01*
X392949Y58583D01*
X393043Y57863D01*
X393321Y57193D01*
X393763Y56617D01*
X394338Y56175D01*
X395009Y55898D01*
X395128Y55882D01*
Y55378D01*
X395009Y55362D01*
X394338Y55084D01*
X393763Y54643D01*
X393321Y54067D01*
X393043Y53397D01*
X392949Y52677D01*
X393043Y51958D01*
X393321Y51287D01*
X393763Y50712D01*
X394338Y50270D01*
X395009Y49992D01*
X395128Y49977D01*
Y49472D01*
X395009Y49457D01*
X394338Y49179D01*
X393763Y48737D01*
X393321Y48162D01*
X393043Y47491D01*
X392949Y46772D01*
X393043Y46052D01*
X393321Y45382D01*
X393763Y44806D01*
X394338Y44364D01*
X395009Y44087D01*
Y43591D01*
X394338Y43313D01*
X393763Y42871D01*
X393321Y42295D01*
X393043Y41625D01*
X392949Y40905D01*
X393043Y40186D01*
X393321Y39516D01*
X393763Y38940D01*
X394338Y38498D01*
X395009Y38221D01*
X395728Y38126D01*
X396448Y38221D01*
X397118Y38498D01*
X397694Y38940D01*
X398136Y39516D01*
X398164Y39585D01*
X398706D01*
X398734Y39516D01*
X399176Y38940D01*
X399752Y38498D01*
X400422Y38221D01*
X401142Y38126D01*
X401861Y38221D01*
X402532Y38498D01*
X403107Y38940D01*
X403549Y39516D01*
X403827Y40186D01*
X403921Y40905D01*
X403827Y41625D01*
X403549Y42295D01*
X403107Y42871D01*
X402532Y43313D01*
X401861Y43591D01*
Y44087D01*
X402532Y44364D01*
X403107Y44806D01*
X403549Y45382D01*
X403827Y46052D01*
X403921Y46772D01*
X403827Y47491D01*
X403549Y48162D01*
X403107Y48737D01*
X402532Y49179D01*
X401861Y49457D01*
X401742Y49472D01*
Y49977D01*
X401861Y49992D01*
X402532Y50270D01*
X403107Y50712D01*
X403549Y51287D01*
X403827Y51958D01*
X403921Y52677D01*
X403827Y53397D01*
X403549Y54067D01*
X403107Y54643D01*
X402532Y55084D01*
X401861Y55362D01*
X401742Y55378D01*
Y55882D01*
X401861Y55898D01*
X402532Y56175D01*
X403107Y56617D01*
X403549Y57193D01*
X403827Y57863D01*
X403921Y58583D01*
X403827Y59302D01*
X403549Y59973D01*
X403107Y60548D01*
X402532Y60990D01*
X401861Y61268D01*
X401142Y61362D01*
D02*
G37*
G36*
X233169Y63803D02*
X232450Y63709D01*
X231779Y63431D01*
X231204Y62989D01*
X230762Y62414D01*
X230484Y61743D01*
X230390Y61024D01*
X230484Y60304D01*
X230762Y59634D01*
X231204Y59058D01*
X231779Y58616D01*
X232450Y58339D01*
X233169Y58244D01*
X233889Y58339D01*
X234559Y58616D01*
X235135Y59058D01*
X235577Y59634D01*
X235854Y60304D01*
X235949Y61024D01*
X235854Y61743D01*
X235577Y62414D01*
X235135Y62989D01*
X234559Y63431D01*
X233889Y63709D01*
X233169Y63803D01*
D02*
G37*
G36*
X294291Y62436D02*
X293600Y62299D01*
X293014Y61907D01*
X286850Y55743D01*
X173327D01*
X172635Y55606D01*
X172049Y55214D01*
X171658Y54628D01*
X171520Y53937D01*
X171658Y53246D01*
X172049Y52660D01*
X172635Y52268D01*
X173327Y52131D01*
X287598D01*
X288290Y52268D01*
X288876Y52660D01*
X295569Y59353D01*
X295960Y59939D01*
X296098Y60630D01*
X295960Y61321D01*
X295569Y61907D01*
X294983Y62299D01*
X294291Y62436D01*
D02*
G37*
G36*
X19213Y58064D02*
X18236Y57935D01*
X17326Y57558D01*
X16545Y56959D01*
X15946Y56178D01*
X15569Y55268D01*
X15440Y54291D01*
X15569Y53315D01*
X15946Y52405D01*
X16545Y51624D01*
X17326Y51024D01*
X18236Y50647D01*
X19213Y50519D01*
X20189Y50647D01*
X21099Y51024D01*
X21880Y51624D01*
X22480Y52405D01*
X22857Y53315D01*
X22985Y54291D01*
X22857Y55268D01*
X22480Y56178D01*
X21880Y56959D01*
X21099Y57558D01*
X20189Y57935D01*
X19213Y58064D01*
D02*
G37*
G36*
X71752Y64011D02*
X55020D01*
X54328Y63874D01*
X53742Y63482D01*
X53351Y62896D01*
X53213Y62205D01*
X53351Y61514D01*
X53742Y60927D01*
X54328Y60536D01*
X55020Y60398D01*
X71004D01*
X80514Y50888D01*
X81100Y50497D01*
X81791Y50359D01*
X82483Y50497D01*
X83069Y50888D01*
X83460Y51474D01*
X83598Y52165D01*
X83460Y52857D01*
X83069Y53443D01*
X73029Y63482D01*
X72443Y63874D01*
X71752Y64011D01*
D02*
G37*
G36*
X31988Y53480D02*
X31297Y53342D01*
X30711Y52951D01*
X30319Y52364D01*
X30182Y51673D01*
X30319Y50982D01*
X30711Y50396D01*
X30985Y50213D01*
Y49611D01*
X30882Y49542D01*
X30491Y48956D01*
X30353Y48265D01*
X30491Y47574D01*
X30882Y46988D01*
X31468Y46596D01*
X32160Y46459D01*
X32851Y46596D01*
X33437Y46988D01*
X33828Y47574D01*
X33966Y48265D01*
X33828Y48956D01*
X33437Y49542D01*
X33162Y49726D01*
Y50327D01*
X33266Y50396D01*
X33657Y50982D01*
X33795Y51673D01*
X33657Y52364D01*
X33266Y52951D01*
X32680Y53342D01*
X31988Y53480D01*
D02*
G37*
G36*
X106201Y44326D02*
X105509Y44188D01*
X104923Y43797D01*
X104532Y43211D01*
X104394Y42520D01*
X104532Y41828D01*
X104923Y41242D01*
X105509Y40851D01*
X106201Y40713D01*
X106892Y40851D01*
X107478Y41242D01*
X107870Y41828D01*
X108007Y42520D01*
X107870Y43211D01*
X107478Y43797D01*
X106892Y44188D01*
X106201Y44326D01*
D02*
G37*
G36*
X19213Y48064D02*
X18236Y47935D01*
X17326Y47558D01*
X16545Y46959D01*
X15946Y46178D01*
X15569Y45268D01*
X15440Y44291D01*
X15569Y43315D01*
X15946Y42405D01*
X16545Y41624D01*
X17326Y41024D01*
X18236Y40648D01*
X19213Y40519D01*
X20189Y40648D01*
X21099Y41024D01*
X21880Y41624D01*
X22480Y42405D01*
X22857Y43315D01*
X22985Y44291D01*
X22857Y45268D01*
X22480Y46178D01*
X21880Y46959D01*
X21099Y47558D01*
X20189Y47935D01*
X19213Y48064D01*
D02*
G37*
G36*
X100984Y44031D02*
X100293Y43893D01*
X99707Y43502D01*
X99315Y42916D01*
X99178Y42224D01*
X99315Y41533D01*
X99707Y40947D01*
X100293Y40556D01*
X100984Y40418D01*
X101675Y40556D01*
X102261Y40947D01*
X102653Y41533D01*
X102791Y42224D01*
X102653Y42916D01*
X102261Y43502D01*
X101675Y43893D01*
X100984Y44031D01*
D02*
G37*
G36*
X233169Y45201D02*
X232450Y45106D01*
X231779Y44829D01*
X231204Y44387D01*
X230762Y43811D01*
X230484Y43141D01*
X230390Y42421D01*
X230484Y41702D01*
X230762Y41031D01*
X231204Y40456D01*
X231779Y40014D01*
X232450Y39736D01*
X233169Y39642D01*
X233889Y39736D01*
X234559Y40014D01*
X235135Y40456D01*
X235577Y41031D01*
X235854Y41702D01*
X235949Y42421D01*
X235854Y43141D01*
X235577Y43811D01*
X235135Y44387D01*
X234559Y44829D01*
X233889Y45106D01*
X233169Y45201D01*
D02*
G37*
G36*
X245079Y39897D02*
X244388Y39759D01*
X243801Y39368D01*
X243410Y38782D01*
X243272Y38091D01*
X243410Y37399D01*
X243801Y36813D01*
Y36317D01*
X243410Y35731D01*
X243272Y35039D01*
X243410Y34348D01*
X243801Y33762D01*
X244388Y33371D01*
X245079Y33233D01*
X245770Y33371D01*
X246356Y33762D01*
X246748Y34348D01*
X246885Y35039D01*
X246748Y35731D01*
X246356Y36317D01*
Y36813D01*
X246748Y37399D01*
X246885Y38091D01*
X246748Y38782D01*
X246356Y39368D01*
X245770Y39759D01*
X245079Y39897D01*
D02*
G37*
G36*
X320982Y50903D02*
X301297D01*
X301279Y50886D01*
X300984D01*
Y30709D01*
X320982D01*
Y50903D01*
D02*
G37*
G36*
X19213Y38064D02*
X18236Y37935D01*
X17326Y37558D01*
X16545Y36959D01*
X15946Y36178D01*
X15569Y35268D01*
X15440Y34291D01*
X15569Y33315D01*
X15946Y32405D01*
X16545Y31624D01*
X17326Y31024D01*
X18236Y30648D01*
X19213Y30519D01*
X20189Y30648D01*
X21099Y31024D01*
X21880Y31624D01*
X22480Y32405D01*
X22857Y33315D01*
X22985Y34291D01*
X22857Y35268D01*
X22480Y36178D01*
X21880Y36959D01*
X21099Y37558D01*
X20189Y37935D01*
X19213Y38064D01*
D02*
G37*
G36*
X38976Y30645D02*
X38285Y30507D01*
X37699Y30116D01*
X37308Y29530D01*
X37170Y28839D01*
X37308Y28147D01*
X37699Y27561D01*
X38285Y27170D01*
X38976Y27032D01*
X39668Y27170D01*
X40254Y27561D01*
X40645Y28147D01*
X40783Y28839D01*
X40645Y29530D01*
X40254Y30116D01*
X39668Y30507D01*
X38976Y30645D01*
D02*
G37*
G36*
X208366Y29759D02*
X207675Y29622D01*
X207089Y29230D01*
X206697Y28644D01*
X206560Y27953D01*
X206697Y27261D01*
X207089Y26676D01*
X207675Y26284D01*
X208366Y26146D01*
X209057Y26284D01*
X209643Y26676D01*
X210035Y27261D01*
X210173Y27953D01*
X210035Y28644D01*
X209643Y29230D01*
X209057Y29622D01*
X208366Y29759D01*
D02*
G37*
G36*
X320965Y29661D02*
X320273Y29523D01*
X319687Y29132D01*
X319296Y28546D01*
X319158Y27854D01*
X319296Y27163D01*
X319687Y26577D01*
X320273Y26186D01*
X320965Y26048D01*
X321656Y26186D01*
X322242Y26577D01*
X322634Y27163D01*
X322771Y27854D01*
X322634Y28546D01*
X322242Y29132D01*
X321656Y29523D01*
X320965Y29661D01*
D02*
G37*
G36*
X314178Y26562D02*
X313486Y26425D01*
X312900Y26033D01*
X312509Y25447D01*
X312492Y25364D01*
X312404Y25192D01*
X311713Y25330D01*
X311021Y25192D01*
X310435Y24801D01*
X310044Y24215D01*
X309906Y23524D01*
X310044Y22832D01*
X310435Y22246D01*
X311021Y21855D01*
X311713Y21717D01*
X312404Y21855D01*
X312990Y22246D01*
X313382Y22832D01*
X313398Y22916D01*
X313486Y23087D01*
X314178Y22950D01*
X314869Y23087D01*
X315455Y23479D01*
X315846Y24065D01*
X315984Y24756D01*
X315846Y25447D01*
X315455Y26033D01*
X314869Y26425D01*
X314178Y26562D01*
D02*
G37*
G36*
X201378Y28775D02*
X200687Y28637D01*
X200101Y28246D01*
X199709Y27660D01*
X199572Y26969D01*
X199709Y26277D01*
X200101Y25691D01*
X200687Y25300D01*
X201378Y25162D01*
X202069Y25300D01*
X202655Y25691D01*
X203047Y26277D01*
X203184Y26969D01*
X203047Y27660D01*
X202655Y28246D01*
X202069Y28637D01*
X201378Y28775D01*
D02*
G37*
G36*
X321949Y76708D02*
X321257Y76570D01*
X320672Y76179D01*
X320280Y75593D01*
X320143Y74902D01*
X320280Y74210D01*
X320339Y74121D01*
Y56595D01*
X320477Y55903D01*
X320868Y55317D01*
X329800Y46386D01*
X329782Y46203D01*
X329346Y45551D01*
X329194Y44783D01*
Y27067D01*
X329346Y26299D01*
X329782Y25648D01*
X330433Y25213D01*
X331201Y25060D01*
X361516D01*
X362284Y25213D01*
X362935Y25648D01*
X363370Y26299D01*
X363523Y27067D01*
Y44783D01*
X363370Y45551D01*
X362935Y46203D01*
X362284Y46638D01*
X361516Y46791D01*
X334504D01*
X323952Y57343D01*
Y74705D01*
X323815Y75396D01*
X323423Y75982D01*
X323226Y76179D01*
X322640Y76570D01*
X321949Y76708D01*
D02*
G37*
G36*
X19713Y27998D02*
Y24791D01*
X22919D01*
X22857Y25268D01*
X22480Y26178D01*
X21880Y26959D01*
X21099Y27558D01*
X20189Y27935D01*
X19713Y27998D01*
D02*
G37*
G36*
X18713D02*
X18236Y27935D01*
X17326Y27558D01*
X16545Y26959D01*
X15946Y26178D01*
X15569Y25268D01*
X15506Y24791D01*
X18713D01*
Y27998D01*
D02*
G37*
G36*
X402192Y25665D02*
X401501Y25528D01*
X400915Y25136D01*
X400524Y24550D01*
X400386Y23859D01*
X400524Y23168D01*
X400915Y22582D01*
X401501Y22190D01*
X402192Y22053D01*
X402884Y22190D01*
X403470Y22582D01*
X403861Y23168D01*
X403999Y23859D01*
X403861Y24550D01*
X403470Y25136D01*
X402884Y25528D01*
X402192Y25665D01*
D02*
G37*
G36*
X22919Y23791D02*
X19713D01*
Y20585D01*
X20189Y20648D01*
X21099Y21024D01*
X21880Y21624D01*
X22480Y22405D01*
X22857Y23315D01*
X22919Y23791D01*
D02*
G37*
G36*
X18713D02*
X15506D01*
X15569Y23315D01*
X15946Y22405D01*
X16545Y21624D01*
X17326Y21024D01*
X18236Y20648D01*
X18713Y20585D01*
Y23791D01*
D02*
G37*
G36*
X292621Y29461D02*
X291930Y29323D01*
X291344Y28932D01*
X290952Y28346D01*
X290815Y27655D01*
X290952Y26963D01*
X291344Y26377D01*
X291930Y25986D01*
X292593Y25854D01*
X292622Y25847D01*
X292975Y25409D01*
X292904Y25052D01*
X293042Y24361D01*
X293433Y23775D01*
X293622Y23649D01*
X293502Y23128D01*
X292997Y23027D01*
X292411Y22636D01*
X292020Y22050D01*
X291882Y21358D01*
X292020Y20667D01*
X292411Y20081D01*
X292997Y19689D01*
X293688Y19552D01*
X294380Y19689D01*
X294966Y20081D01*
X295357Y20667D01*
X295495Y21358D01*
X295357Y22050D01*
X294966Y22636D01*
X294777Y22762D01*
X294897Y23283D01*
X295402Y23383D01*
X295988Y23775D01*
X296380Y24361D01*
X296517Y25052D01*
X296380Y25743D01*
X295988Y26329D01*
X295402Y26721D01*
X294739Y26853D01*
X294709Y26860D01*
X294356Y27298D01*
X294427Y27655D01*
X294290Y28346D01*
X293898Y28932D01*
X293312Y29323D01*
X292621Y29461D01*
D02*
G37*
G36*
X427165Y22968D02*
X426474Y22830D01*
X425888Y22439D01*
X425496Y21853D01*
X425359Y21161D01*
X425496Y20470D01*
X425888Y19884D01*
X426474Y19493D01*
X427165Y19355D01*
X427857Y19493D01*
X428443Y19884D01*
X428834Y20470D01*
X428972Y21161D01*
X428834Y21853D01*
X428443Y22439D01*
X427857Y22830D01*
X427165Y22968D01*
D02*
G37*
G36*
X305610Y21098D02*
X304919Y20960D01*
X304333Y20569D01*
X303941Y19983D01*
X303804Y19291D01*
X303941Y18600D01*
X304333Y18014D01*
X304919Y17622D01*
X305610Y17485D01*
X306301Y17622D01*
X306888Y18014D01*
X307279Y18600D01*
X307417Y19291D01*
X307279Y19983D01*
X306888Y20569D01*
X306301Y20960D01*
X305610Y21098D01*
D02*
G37*
G36*
X311417Y20999D02*
X310726Y20862D01*
X310140Y20470D01*
X309749Y19884D01*
X309611Y19193D01*
X309749Y18502D01*
X310140Y17916D01*
X310726Y17524D01*
X311417Y17387D01*
X312109Y17524D01*
X312695Y17916D01*
X313086Y18502D01*
X313224Y19193D01*
X313086Y19884D01*
X312695Y20470D01*
X312109Y20862D01*
X311417Y20999D01*
D02*
G37*
G36*
X83169Y18145D02*
X82478Y18007D01*
X81892Y17616D01*
X81500Y17030D01*
X81363Y16339D01*
X81500Y15647D01*
X81892Y15061D01*
X82478Y14670D01*
X83169Y14532D01*
X83861Y14670D01*
X84447Y15061D01*
X84838Y15647D01*
X84976Y16339D01*
X84838Y17030D01*
X84447Y17616D01*
X83861Y18007D01*
X83169Y18145D01*
D02*
G37*
G36*
X38878Y17357D02*
X38187Y17220D01*
X37601Y16828D01*
X37209Y16242D01*
X37072Y15551D01*
X37209Y14860D01*
X37601Y14274D01*
X38187Y13882D01*
X38878Y13745D01*
X39569Y13882D01*
X40155Y14274D01*
X40547Y14860D01*
X40684Y15551D01*
X40547Y16242D01*
X40155Y16828D01*
X39569Y17220D01*
X38878Y17357D01*
D02*
G37*
%LPD*%
G36*
X145543Y357283D02*
X145467Y357358D01*
X145319Y357484D01*
X145247Y357535D01*
X145177Y357579D01*
X145108Y357614D01*
X145042Y357642D01*
X144976Y357661D01*
X144913Y357673D01*
X144850Y357677D01*
Y359646D01*
X144913Y359650D01*
X144976Y359661D01*
X145042Y359681D01*
X145108Y359709D01*
X145177Y359744D01*
X145247Y359787D01*
X145319Y359839D01*
X145392Y359898D01*
X145543Y360039D01*
Y357283D01*
D02*
G37*
G36*
X-5919Y258366D02*
X-5940Y258385D01*
X-5962Y258402D01*
X-5985Y258416D01*
X-6011Y258429D01*
X-6038Y258440D01*
X-6067Y258449D01*
X-6098Y258456D01*
X-6130Y258461D01*
X-6165Y258464D01*
X-6201Y258465D01*
Y259646D01*
X-6165Y259647D01*
X-6130Y259650D01*
X-6098Y259654D01*
X-6067Y259661D01*
X-6038Y259670D01*
X-6011Y259681D01*
X-5985Y259694D01*
X-5962Y259709D01*
X-5940Y259725D01*
X-5919Y259744D01*
Y258366D01*
D02*
G37*
G36*
X-35116Y257583D02*
X-35141Y257557D01*
X-35163Y257531D01*
X-35183Y257504D01*
X-35199Y257478D01*
X-35214Y257451D01*
X-35225Y257424D01*
X-35234Y257397D01*
X-35241Y257370D01*
X-35244Y257342D01*
X-35245Y257315D01*
X-36220Y258289D01*
X-36192Y258290D01*
X-36165Y258294D01*
X-36138Y258300D01*
X-36111Y258309D01*
X-36084Y258321D01*
X-36057Y258335D01*
X-36030Y258352D01*
X-36004Y258372D01*
X-35978Y258394D01*
X-35951Y258419D01*
X-35116Y257583D01*
D02*
G37*
G36*
X-8282Y256004D02*
X-8302Y256023D01*
X-8324Y256039D01*
X-8348Y256054D01*
X-8373Y256067D01*
X-8400Y256078D01*
X-8429Y256087D01*
X-8460Y256094D01*
X-8493Y256098D01*
X-8527Y256101D01*
X-8563Y256102D01*
Y257283D01*
X-8527Y257284D01*
X-8493Y257287D01*
X-8460Y257292D01*
X-8429Y257299D01*
X-8400Y257308D01*
X-8373Y257319D01*
X-8348Y257332D01*
X-8324Y257347D01*
X-8302Y257363D01*
X-8282Y257382D01*
Y256004D01*
D02*
G37*
G36*
X-34109Y255462D02*
X-34088Y255447D01*
X-34065Y255435D01*
X-34040Y255424D01*
X-34013Y255415D01*
X-33985Y255407D01*
X-33954Y255401D01*
X-33921Y255397D01*
X-33887Y255395D01*
X-33851Y255394D01*
X-33778Y254213D01*
X-33813Y254211D01*
X-33848Y254208D01*
X-33880Y254203D01*
X-33911Y254195D01*
X-33940Y254185D01*
X-33967Y254172D01*
X-33993Y254158D01*
X-34017Y254141D01*
X-34039Y254122D01*
X-34060Y254101D01*
X-34128Y255477D01*
X-34109Y255462D01*
D02*
G37*
G36*
X361516Y208957D02*
X331201D01*
Y226673D01*
X361516D01*
Y208957D01*
D02*
G37*
G36*
X212009Y186380D02*
X212013Y186353D01*
X212019Y186325D01*
X212028Y186298D01*
X212039Y186271D01*
X212054Y186245D01*
X212071Y186218D01*
X212090Y186191D01*
X212112Y186165D01*
X212137Y186139D01*
X211302Y185304D01*
X211276Y185329D01*
X211249Y185351D01*
X211223Y185370D01*
X211196Y185387D01*
X211170Y185401D01*
X211143Y185413D01*
X211116Y185422D01*
X211088Y185428D01*
X211061Y185432D01*
X211034Y185433D01*
X212008Y186407D01*
X212009Y186380D01*
D02*
G37*
G36*
X325634Y182978D02*
X325660Y182956D01*
X325687Y182937D01*
X325713Y182920D01*
X325740Y182906D01*
X325767Y182894D01*
X325794Y182885D01*
X325821Y182879D01*
X325849Y182875D01*
X325876Y182874D01*
X324902Y181900D01*
X324901Y181927D01*
X324897Y181954D01*
X324891Y181982D01*
X324882Y182009D01*
X324870Y182036D01*
X324856Y182062D01*
X324839Y182089D01*
X324819Y182116D01*
X324797Y182142D01*
X324772Y182168D01*
X325607Y183003D01*
X325634Y182978D01*
D02*
G37*
G36*
X361614Y118405D02*
X331299D01*
Y136122D01*
X361614D01*
Y118405D01*
D02*
G37*
G36*
X86506Y110058D02*
X86427Y110058D01*
X86177Y110042D01*
X86132Y110034D01*
X86093Y110025D01*
X86061Y110014D01*
X86036Y110001D01*
X86017Y109987D01*
X85460Y110543D01*
X85475Y110562D01*
X85487Y110587D01*
X85498Y110619D01*
X85508Y110658D01*
X85516Y110703D01*
X85527Y110815D01*
X85532Y110953D01*
X85532Y111032D01*
X86506Y110058D01*
D02*
G37*
G36*
X213338Y108159D02*
X213341Y108131D01*
X213348Y108104D01*
X213356Y108077D01*
X213368Y108050D01*
X213382Y108023D01*
X213399Y107997D01*
X213419Y107970D01*
X213441Y107944D01*
X213466Y107918D01*
X212631Y107082D01*
X212604Y107107D01*
X212578Y107130D01*
X212552Y107149D01*
X212525Y107166D01*
X212498Y107180D01*
X212471Y107192D01*
X212444Y107201D01*
X212417Y107207D01*
X212390Y107211D01*
X212362Y107212D01*
X213336Y108186D01*
X213338Y108159D01*
D02*
G37*
G36*
X361516Y27067D02*
X331201D01*
Y44783D01*
X361516D01*
Y27067D01*
D02*
G37*
%LPC*%
G36*
X528164Y58116D02*
X526950D01*
X525777Y57802D01*
X524725Y57195D01*
X523866Y56336D01*
X523259Y55284D01*
X522945Y54111D01*
Y52897D01*
X523259Y51724D01*
X523866Y50672D01*
X524725Y49813D01*
X525777Y49206D01*
X526950Y48892D01*
X528164D01*
X529338Y49206D01*
X530389Y49813D01*
X531248Y50672D01*
X531855Y51724D01*
X532169Y52897D01*
Y54111D01*
X531855Y55284D01*
X531248Y56336D01*
X530389Y57195D01*
X529338Y57802D01*
X528164Y58116D01*
D02*
G37*
G36*
X488164D02*
X486950D01*
X485777Y57802D01*
X484725Y57195D01*
X483866Y56336D01*
X483259Y55284D01*
X482945Y54111D01*
Y52897D01*
X483259Y51724D01*
X483866Y50672D01*
X484725Y49813D01*
X485777Y49206D01*
X486950Y48892D01*
X488164D01*
X489337Y49206D01*
X490389Y49813D01*
X491248Y50672D01*
X491855Y51724D01*
X492170Y52897D01*
Y54111D01*
X491855Y55284D01*
X491248Y56336D01*
X490389Y57195D01*
X489337Y57802D01*
X488164Y58116D01*
D02*
G37*
%LPD*%
D10*
X47613Y109400D02*
X81608D01*
X89498Y117289D01*
X66803Y107283D02*
X82757D01*
X86516Y111042D01*
X491564Y322961D02*
Y326371D01*
X427362Y208152D02*
Y287303D01*
X425732Y206522D02*
X427362Y208152D01*
X430709Y286122D02*
X481811Y337224D01*
X412894Y134153D02*
X430709Y151969D01*
Y286122D01*
X433366Y281594D02*
X484646Y332874D01*
X433366Y112500D02*
Y281594D01*
X420633Y99767D02*
X433366Y112500D01*
X412208Y99767D02*
X420633D01*
X410931Y101044D02*
X412208Y99767D01*
X412894Y64272D02*
Y69784D01*
X436614Y93504D02*
Y277320D01*
X412894Y69784D02*
X436614Y93504D01*
X411029Y36679D02*
X438386Y64035D01*
Y269783D01*
X411029Y34522D02*
Y36679D01*
X411021Y34513D02*
X411029Y34522D01*
X412894Y129429D02*
Y134153D01*
X438386Y269783D02*
X491564Y322961D01*
X436614Y277320D02*
X488779Y329486D01*
X481811Y337224D02*
X494287D01*
X66754Y107234D02*
X66803Y107283D01*
X503937Y332874D02*
X511909Y324902D01*
X484646Y332874D02*
X503937D01*
D15*
X411319Y167953D02*
X421457Y178091D01*
Y290551D01*
X471063Y340158D01*
X487858Y348710D02*
X493512Y343056D01*
X472135Y348710D02*
X487858D01*
X418701Y295276D02*
X472135Y348710D01*
X411614Y195906D02*
X418701Y202992D01*
Y295276D01*
X471063Y340158D02*
X511713D01*
X493512Y343056D02*
X515212D01*
X518686Y321023D02*
X520472Y322809D01*
X515212Y343056D02*
X520472Y337795D01*
Y322809D02*
Y337795D01*
X511713Y340158D02*
X514567Y337303D01*
Y316732D02*
Y337303D01*
D101*
X188484Y231101D02*
D03*
X-6217Y279938D02*
D03*
X188484Y100886D02*
D03*
X188534Y214617D02*
D03*
X35630Y331240D02*
D03*
X383287Y231949D02*
D03*
X372539D02*
D03*
X377756D02*
D03*
X233169Y17815D02*
D03*
X188287Y17815D02*
D03*
X425492Y12106D02*
D03*
X425197Y45472D02*
D03*
X425492Y114665D02*
D03*
Y182382D02*
D03*
X188484Y293307D02*
D03*
Y318799D02*
D03*
Y155773D02*
D03*
Y110433D02*
D03*
Y61024D02*
D03*
Y42224D02*
D03*
X401142Y232362D02*
D03*
Y238268D02*
D03*
Y244173D02*
D03*
Y226496D02*
D03*
X395728Y226398D02*
D03*
Y244075D02*
D03*
Y238169D02*
D03*
Y232264D02*
D03*
X148031Y28839D02*
D03*
X147835Y83760D02*
D03*
X147441Y311024D02*
D03*
X147736Y260138D02*
D03*
X147146Y196653D02*
D03*
X387894Y366240D02*
D03*
X370472D02*
D03*
X398228D02*
D03*
X382185D02*
D03*
X393012D02*
D03*
X376476D02*
D03*
X307087D02*
D03*
X323622D02*
D03*
X314567D02*
D03*
X331201D02*
D03*
X301083Y366240D02*
D03*
X49016Y340295D02*
D03*
X147343Y145866D02*
D03*
X57480Y372047D02*
D03*
X92028Y87303D02*
D03*
X146850Y371358D02*
D03*
X146949Y358661D02*
D03*
X456437Y190728D02*
D03*
X462716Y106063D02*
D03*
X456595Y212008D02*
D03*
X456732Y178819D02*
D03*
X456811Y106063D02*
D03*
X456693Y217717D02*
D03*
X456811Y123819D02*
D03*
X456791Y112303D02*
D03*
X456732Y172874D02*
D03*
X456811Y117913D02*
D03*
X456693Y229528D02*
D03*
X456732Y184724D02*
D03*
X456693Y223622D02*
D03*
X462638Y184724D02*
D03*
X462598Y217717D02*
D03*
X462638Y172874D02*
D03*
X462598Y223622D02*
D03*
X462716Y123819D02*
D03*
X462638Y190630D02*
D03*
X462785Y111939D02*
D03*
X462598Y229528D02*
D03*
X462638Y178819D02*
D03*
X462697Y117913D02*
D03*
X462894Y212205D02*
D03*
X462756Y46496D02*
D03*
X456850D02*
D03*
Y58307D02*
D03*
Y52402D02*
D03*
Y40551D02*
D03*
X462756Y58307D02*
D03*
Y52402D02*
D03*
Y40551D02*
D03*
D104*
X222539Y265748D02*
X303779D01*
X222342Y265945D02*
X222539Y265748D01*
X314075Y172933D02*
X317224Y169783D01*
X322244Y146260D02*
Y164961D01*
Y146260D02*
X334632Y133872D01*
X190367Y71740D02*
X298733D01*
X298819Y71653D01*
X321949Y74902D02*
X322146Y74705D01*
Y56595D02*
X334941Y43799D01*
X322146Y56595D02*
Y74705D01*
X70697Y99276D02*
X74697Y95276D01*
X54167Y99276D02*
X70697D01*
X71752Y62205D02*
X81791Y52165D01*
X55020Y62205D02*
X71752D01*
X321949Y233563D02*
Y255709D01*
Y233563D02*
X333885Y221627D01*
X298070Y160138D02*
X299170Y161237D01*
X192027Y160138D02*
X298070D01*
X190748Y161417D02*
X192027Y160138D01*
X172736Y280315D02*
X172835Y280217D01*
X327896D01*
X287598Y53937D02*
X294291Y60630D01*
X173327Y53937D02*
X287598D01*
X180512Y172933D02*
X314075D01*
X171653Y164075D02*
X180512Y172933D01*
X23425Y358661D02*
X146949D01*
X12500Y347736D02*
X23425Y358661D01*
X190354Y71752D02*
X190367Y71740D01*
X327896Y280217D02*
X337071Y271042D01*
X46487Y344661D02*
X52399Y350574D01*
X136204D01*
X40551Y344661D02*
X46487D01*
X28937Y344587D02*
X40476D01*
X46487Y344661D02*
X46487Y344661D01*
X40476Y344587D02*
X40551Y344661D01*
X136204Y350574D02*
X136221Y350590D01*
X50982Y102461D02*
X54167Y99276D01*
X16732Y332382D02*
X28937Y344587D01*
D106*
X211024Y186417D02*
X213090Y184350D01*
X323425D02*
X325886Y181890D01*
X213090Y184350D02*
X323425D01*
X316437Y102067D02*
X327165Y91339D01*
X218481Y102067D02*
X316437D01*
X-34480Y259055D02*
X-5217D01*
X-36230Y257305D02*
X-34480Y259055D01*
X-17266Y256693D02*
X-7579D01*
X-19156Y254803D02*
X-17266Y256693D01*
X-34747Y254803D02*
X-19156D01*
X212352Y108196D02*
X218481Y102067D01*
X-34796Y254755D02*
X-34747Y254803D01*
D110*
X502518Y89803D02*
D03*
Y33504D02*
D03*
Y146102D02*
D03*
Y202402D02*
D03*
D111*
X19213Y24291D02*
D03*
D114*
X541890Y374016D02*
D03*
Y324016D02*
D03*
Y355709D02*
D03*
Y305709D02*
D03*
D115*
X345768Y37008D02*
D03*
Y34744D02*
D03*
X349606Y30118D02*
D03*
X351870D02*
D03*
X347342Y30118D02*
D03*
X354232D02*
D03*
X355807Y37500D02*
D03*
X358071Y30118D02*
D03*
Y42323D02*
D03*
Y40059D02*
D03*
X358169Y37795D02*
D03*
Y35335D02*
D03*
Y32579D02*
D03*
X355887Y35143D02*
D03*
X355906Y32776D02*
D03*
X355816Y39854D02*
D03*
X355709Y42224D02*
D03*
X353248D02*
D03*
X350689Y42126D02*
D03*
X348130D02*
D03*
X345768Y42028D02*
D03*
Y39665D02*
D03*
X343406Y42028D02*
D03*
Y39764D02*
D03*
X343504Y37205D02*
D03*
Y34941D02*
D03*
X345768Y32382D02*
D03*
X343504Y32579D02*
D03*
Y30217D02*
D03*
X345768Y128642D02*
D03*
Y126378D02*
D03*
X349606Y121752D02*
D03*
X351870D02*
D03*
X347342Y121752D02*
D03*
X354232D02*
D03*
X355807Y129134D02*
D03*
X358071Y121752D02*
D03*
Y133957D02*
D03*
Y131693D02*
D03*
X358169Y129429D02*
D03*
Y126969D02*
D03*
Y124213D02*
D03*
X355887Y126777D02*
D03*
X355906Y124409D02*
D03*
X355816Y131488D02*
D03*
X355709Y133858D02*
D03*
X353248D02*
D03*
X350689Y133760D02*
D03*
X348130D02*
D03*
X345768Y133661D02*
D03*
Y131299D02*
D03*
X343406Y133661D02*
D03*
Y131398D02*
D03*
X343504Y128839D02*
D03*
Y126575D02*
D03*
X345768Y124016D02*
D03*
X343504Y124213D02*
D03*
Y121850D02*
D03*
X343602Y212205D02*
D03*
Y214567D02*
D03*
X345866Y214370D02*
D03*
X343602Y216929D02*
D03*
Y219193D02*
D03*
X343504Y221752D02*
D03*
Y224016D02*
D03*
X345866Y221654D02*
D03*
Y224016D02*
D03*
X348228Y224114D02*
D03*
X350787D02*
D03*
X353346Y224213D02*
D03*
X355807D02*
D03*
X355915Y221842D02*
D03*
X356004Y214764D02*
D03*
X355985Y217131D02*
D03*
X358268Y214567D02*
D03*
Y217323D02*
D03*
Y219783D02*
D03*
X358169Y222047D02*
D03*
Y224311D02*
D03*
Y212106D02*
D03*
X355906Y219488D02*
D03*
X354331Y212106D02*
D03*
X347441D02*
D03*
X351969Y212106D02*
D03*
X349705D02*
D03*
X345866Y216732D02*
D03*
Y218996D02*
D03*
X309941Y243602D02*
D03*
X21654Y100984D02*
D03*
X19587Y108957D02*
D03*
X89498Y117289D02*
D03*
X86884Y119335D02*
D03*
X86516Y111042D02*
D03*
X88093Y108782D02*
D03*
X-2264Y123721D02*
D03*
X-40780Y245590D02*
D03*
X491564Y326371D02*
D03*
X483172Y319423D02*
D03*
X479137Y323754D02*
D03*
X475200Y327100D02*
D03*
X472149Y343439D02*
D03*
X196161Y247933D02*
D03*
X199508Y247047D02*
D03*
X169513Y246654D02*
D03*
X425954Y201938D02*
D03*
X410931Y101044D02*
D03*
X442592Y209449D02*
D03*
X430512Y28266D02*
D03*
X428051Y69482D02*
D03*
X411021Y34513D02*
D03*
X428051Y134941D02*
D03*
X222342Y265945D02*
D03*
X320965Y21949D02*
D03*
X319390Y196555D02*
D03*
X317224Y169783D02*
D03*
X325886Y181890D02*
D03*
X346260Y176140D02*
D03*
X345866Y167028D02*
D03*
X322244Y164961D02*
D03*
X304528Y151279D02*
D03*
X309547Y151476D02*
D03*
X403422Y90158D02*
D03*
X309449Y61811D02*
D03*
X304724D02*
D03*
X298819Y71653D02*
D03*
X320741Y108491D02*
D03*
X342520Y88189D02*
D03*
X321949Y74902D02*
D03*
X327165Y91339D02*
D03*
X312205Y91831D02*
D03*
X307776D02*
D03*
X74697Y95276D02*
D03*
X68405Y95075D02*
D03*
X95276Y66831D02*
D03*
X81791Y52165D02*
D03*
X38780Y37205D02*
D03*
X31791Y92224D02*
D03*
X38091Y293996D02*
D03*
X-7677Y133386D02*
D03*
X-2165Y103347D02*
D03*
X304823Y243602D02*
D03*
X321949Y255709D02*
D03*
X225984Y231377D02*
D03*
X180559Y230610D02*
D03*
X203543Y249311D02*
D03*
X217323Y248819D02*
D03*
X199213Y253346D02*
D03*
X345735Y262894D02*
D03*
X345735Y257185D02*
D03*
X321850Y284449D02*
D03*
X431004Y323031D02*
D03*
X421844Y310205D02*
D03*
X427362Y287303D02*
D03*
X450492Y150886D02*
D03*
X425732Y206522D02*
D03*
X450000Y200984D02*
D03*
X450536Y84252D02*
D03*
X424909Y96917D02*
D03*
X409744Y206102D02*
D03*
X318732Y199901D02*
D03*
X49584Y179191D02*
D03*
X68145Y326279D02*
D03*
X68309Y333071D02*
D03*
X117421Y344783D02*
D03*
X162205Y322854D02*
D03*
X163484Y345768D02*
D03*
X205925Y345866D02*
D03*
X192588Y368953D02*
D03*
X-36230Y257305D02*
D03*
X-7579Y256693D02*
D03*
X118405Y381090D02*
D03*
X99945Y377614D02*
D03*
X180559Y95177D02*
D03*
X50982Y102461D02*
D03*
X303779Y265748D02*
D03*
X303248Y178150D02*
D03*
X494287Y337224D02*
D03*
X362402Y54331D02*
D03*
X412894Y64272D02*
D03*
Y129429D02*
D03*
X172736Y280315D02*
D03*
X-5217Y259055D02*
D03*
X-7677Y261516D02*
D03*
X-34796Y254755D02*
D03*
X66754Y107234D02*
D03*
X47613Y109400D02*
D03*
X295184Y196592D02*
D03*
X424705Y241220D02*
D03*
X294291Y60630D02*
D03*
X86989Y126431D02*
D03*
X101013Y123760D02*
D03*
X96044Y186175D02*
D03*
X77836Y210289D02*
D03*
X121241Y319935D02*
D03*
X106970Y301136D02*
D03*
X104706Y309108D02*
D03*
X17224Y224508D02*
D03*
X27264Y158563D02*
D03*
X47146Y105905D02*
D03*
X55165Y59363D02*
D03*
X96653Y42224D02*
D03*
X173374Y50603D02*
D03*
X172193Y63694D02*
D03*
X171110Y102867D02*
D03*
X171799Y161037D02*
D03*
X159102Y166351D02*
D03*
X173768Y227670D02*
D03*
X172441Y283858D02*
D03*
X180559Y287316D02*
D03*
X204331Y327658D02*
D03*
X25098Y75886D02*
D03*
X38878Y76181D02*
D03*
X74508Y345965D02*
D03*
X130905Y319882D02*
D03*
X432271Y20769D02*
D03*
X185335Y371752D02*
D03*
X180413Y360138D02*
D03*
Y356791D02*
D03*
X180559Y305118D02*
D03*
Y302067D02*
D03*
X198622Y129035D02*
D03*
Y125984D02*
D03*
X198622Y139665D02*
D03*
X198721Y136614D02*
D03*
X180561Y37738D02*
D03*
Y34687D02*
D03*
X180610Y212795D02*
D03*
X345866Y171534D02*
D03*
X362402Y51476D02*
D03*
Y48720D02*
D03*
X363090Y143996D02*
D03*
X363189Y140945D02*
D03*
X297441Y106102D02*
D03*
X217028Y113583D02*
D03*
X218602Y129802D02*
D03*
X217323Y143799D02*
D03*
X163484Y182579D02*
D03*
X204031Y110938D02*
D03*
X203834Y145584D02*
D03*
X180807Y365354D02*
D03*
X180559Y351096D02*
D03*
Y309560D02*
D03*
Y297159D02*
D03*
X203441Y282985D02*
D03*
X180559Y178051D02*
D03*
Y148425D02*
D03*
Y162795D02*
D03*
Y85433D02*
D03*
Y41437D02*
D03*
Y27165D02*
D03*
X163681Y13287D02*
D03*
X93307Y369980D02*
D03*
X117520Y221555D02*
D03*
X316240Y11811D02*
D03*
X300420Y11705D02*
D03*
X363189Y153445D02*
D03*
X362402Y74902D02*
D03*
Y71949D02*
D03*
Y69095D02*
D03*
X363090Y146752D02*
D03*
X363189Y150492D02*
D03*
X221850Y193384D02*
D03*
X-40780Y239449D02*
D03*
X213998Y283661D02*
D03*
X61221Y34921D02*
D03*
X79528Y15748D02*
D03*
X74171Y53693D02*
D03*
X31979Y54572D02*
D03*
X424902Y163878D02*
D03*
X452656Y297429D02*
D03*
X433861Y292553D02*
D03*
X-6496Y155709D02*
D03*
X31142Y209646D02*
D03*
X-22047Y268209D02*
D03*
X87008Y292520D02*
D03*
X142717Y305709D02*
D03*
X185925Y345571D02*
D03*
X174508Y370866D02*
D03*
X406791Y15059D02*
D03*
X114665Y378642D02*
D03*
X6373Y213344D02*
D03*
X444567Y14728D02*
D03*
X67778Y75617D02*
D03*
X-40780Y176339D02*
D03*
X404134Y156102D02*
D03*
X-40780Y170000D02*
D03*
Y157362D02*
D03*
Y116378D02*
D03*
Y131929D02*
D03*
Y141575D02*
D03*
Y151024D02*
D03*
Y163701D02*
D03*
Y182598D02*
D03*
Y207835D02*
D03*
Y201614D02*
D03*
Y214173D02*
D03*
Y220236D02*
D03*
Y226850D02*
D03*
Y232992D02*
D03*
Y251969D02*
D03*
Y258228D02*
D03*
Y264488D02*
D03*
Y270821D02*
D03*
Y277130D02*
D03*
X-40778Y280279D02*
D03*
X6333Y217123D02*
D03*
X40630Y379567D02*
D03*
X30847D02*
D03*
X21063D02*
D03*
X212352Y108196D02*
D03*
X211024Y186417D02*
D03*
X190748Y161417D02*
D03*
X171653Y164075D02*
D03*
X173327Y53937D02*
D03*
X190354Y71752D02*
D03*
X299170Y161237D02*
D03*
X337071Y271042D02*
D03*
X40551Y344661D02*
D03*
X136221Y350590D02*
D03*
X55020Y62205D02*
D03*
X16732Y332382D02*
D03*
X12500Y347736D02*
D03*
X46487Y344661D02*
D03*
X411319Y167953D02*
D03*
X411614Y195906D02*
D03*
X514567Y316732D02*
D03*
X511909Y324902D02*
D03*
X518686Y321023D02*
D03*
X488779Y329486D02*
D03*
X460669Y18425D02*
D03*
M02*
