G04*
G04 #@! TF.GenerationSoftware,Altium Limited,Altium Designer,24.8.2 (39)*
G04*
G04 Layer_Physical_Order=5*
G04 Layer_Color=16737945*
%FSLAX25Y25*%
%MOIN*%
G70*
G04*
G04 #@! TF.SameCoordinates,15C99CB6-3A05-4735-80B8-A5D9E124C9A1*
G04*
G04*
G04 #@! TF.FilePolarity,Positive*
G04*
G01*
G75*
%ADD10C,0.00787*%
%ADD101C,0.03937*%
%ADD103C,0.01968*%
%ADD104C,0.01772*%
%ADD107C,0.01181*%
%ADD110C,0.13287*%
%ADD114C,0.12598*%
%ADD115C,0.01968*%
G36*
X545972Y392535D02*
X546062Y392511D01*
X546052Y379412D01*
X545552Y379145D01*
X544874Y379598D01*
X543727Y380073D01*
X542510Y380315D01*
X541269D01*
X540052Y380073D01*
X538906Y379598D01*
X537874Y378908D01*
X536997Y378031D01*
X536307Y376999D01*
X535833Y375853D01*
X535591Y374636D01*
Y373395D01*
X535833Y372178D01*
X536307Y371032D01*
X536997Y370000D01*
X537874Y369123D01*
X538906Y368433D01*
X540052Y367958D01*
X541269Y367716D01*
X542510D01*
X543727Y367958D01*
X544874Y368433D01*
X545544Y368881D01*
X546044Y368614D01*
X546038Y361114D01*
X545538Y360847D01*
X544874Y361291D01*
X543727Y361766D01*
X542510Y362008D01*
X541269D01*
X540052Y361766D01*
X538906Y361291D01*
X537874Y360601D01*
X536997Y359724D01*
X536307Y358692D01*
X535833Y357546D01*
X535591Y356329D01*
Y355088D01*
X535833Y353871D01*
X536307Y352725D01*
X536997Y351693D01*
X537874Y350816D01*
X538906Y350126D01*
X540052Y349652D01*
X541269Y349409D01*
X542510D01*
X543727Y349652D01*
X544874Y350126D01*
X545530Y350565D01*
X546030Y350297D01*
X546027Y346720D01*
X546027D01*
X546027Y346720D01*
X546013Y329438D01*
X545513Y329170D01*
X544874Y329598D01*
X543727Y330073D01*
X542510Y330315D01*
X541269D01*
X540052Y330073D01*
X538906Y329598D01*
X537874Y328908D01*
X536997Y328031D01*
X536307Y326999D01*
X535833Y325853D01*
X535591Y324636D01*
Y323395D01*
X535833Y322178D01*
X536307Y321032D01*
X536997Y320000D01*
X537874Y319123D01*
X538906Y318433D01*
X540052Y317958D01*
X541269Y317716D01*
X542510D01*
X543727Y317958D01*
X544874Y318433D01*
X545505Y318855D01*
X546005Y318588D01*
X546003Y315952D01*
X545999Y311140D01*
X545499Y310873D01*
X544874Y311291D01*
X543727Y311766D01*
X542510Y312008D01*
X541269D01*
X540052Y311766D01*
X538906Y311291D01*
X537874Y310601D01*
X536997Y309724D01*
X536307Y308692D01*
X535833Y307546D01*
X535591Y306329D01*
Y305088D01*
X535833Y303871D01*
X536307Y302725D01*
X536997Y301693D01*
X537874Y300816D01*
X538906Y300126D01*
X540052Y299652D01*
X541269Y299409D01*
X542510D01*
X543727Y299652D01*
X544874Y300126D01*
X545491Y300539D01*
X545991Y300272D01*
X545973Y277073D01*
X545936Y228938D01*
X545938Y228871D01*
X545591Y228511D01*
X513478Y228452D01*
X481890Y228346D01*
X481076Y228742D01*
X481020Y228780D01*
X481011Y228784D01*
X481004Y228791D01*
X480851Y228893D01*
X472277Y237467D01*
X470488Y239256D01*
X462697Y247047D01*
X447441D01*
X447251Y272507D01*
X457828Y283084D01*
X458163Y283585D01*
X458281Y284177D01*
X458163Y284768D01*
X457828Y285269D01*
X457327Y285605D01*
X456735Y285722D01*
X456144Y285605D01*
X455642Y285269D01*
X447676Y277303D01*
X447214Y277493D01*
X447192Y280329D01*
X446850Y326083D01*
X407958Y364370D01*
X71823D01*
X71534Y356669D01*
X66831Y351378D01*
X1020D01*
Y381890D01*
X1020Y382597D01*
X1204Y384000D01*
X1570Y385366D01*
X2112Y386673D01*
X2819Y387898D01*
X3680Y389020D01*
X4681Y390021D01*
X5803Y390882D01*
X7028Y391589D01*
X8335Y392130D01*
X9701Y392497D01*
X11104Y392681D01*
X11811Y392681D01*
X11811Y392681D01*
X11811Y392681D01*
X543862Y392720D01*
X544569D01*
X545972Y392535D01*
D02*
G37*
G36*
X68819Y348010D02*
X73387Y343737D01*
Y340915D01*
X73387Y340915D01*
X73387Y340915D01*
X73387Y339862D01*
X73539Y339094D01*
X73539Y339094D01*
X73539Y339094D01*
X73758Y338767D01*
X73975Y338443D01*
X73975Y338443D01*
X73975Y338443D01*
X74298Y338227D01*
X74626Y338008D01*
X74626Y338008D01*
X74626Y338008D01*
X74977Y337938D01*
X75394Y337855D01*
X296490D01*
X305221Y337812D01*
X305427Y337311D01*
X305183Y337066D01*
X304823Y336198D01*
Y335259D01*
X305183Y334390D01*
X305847Y333726D01*
X306715Y333366D01*
X307655D01*
X308523Y333726D01*
X309188Y334390D01*
X309479Y335094D01*
X310009D01*
X310301Y334390D01*
X310965Y333726D01*
X311833Y333366D01*
X312773D01*
X313641Y333726D01*
X314306Y334390D01*
X314542Y334962D01*
X315084D01*
X315320Y334390D01*
X315985Y333726D01*
X316853Y333366D01*
X317793D01*
X318661Y333726D01*
X319325Y334390D01*
X319685Y335259D01*
Y336198D01*
X319325Y337066D01*
X319148Y337244D01*
X319356Y337743D01*
X368996Y337500D01*
Y307155D01*
X368356Y306275D01*
X367554Y304701D01*
X367009Y303021D01*
X366732Y301277D01*
Y299511D01*
X367009Y297766D01*
X367554Y296087D01*
X368356Y294513D01*
X368996Y293632D01*
Y261585D01*
X346929D01*
X346595Y262085D01*
X346654Y262226D01*
Y262774D01*
X346444Y263281D01*
X346056Y263668D01*
X345550Y263878D01*
X345002D01*
X344495Y263668D01*
X344107Y263281D01*
X343898Y262774D01*
Y262226D01*
X343956Y262085D01*
X343622Y261585D01*
X322699D01*
X322365Y262085D01*
X322380Y262120D01*
Y262668D01*
X322170Y263175D01*
X321782Y263562D01*
X321276Y263772D01*
X320728D01*
X320671Y263749D01*
X317398D01*
X317191Y264249D01*
X317328Y264386D01*
X317538Y264893D01*
Y265441D01*
X317328Y265947D01*
X316941Y266335D01*
X316434Y266545D01*
X315886D01*
X315564Y266411D01*
X307181D01*
X305434Y268158D01*
X305030Y268428D01*
X304554Y268522D01*
X223313D01*
X223213Y269022D01*
X223418Y269107D01*
X223806Y269495D01*
X224016Y270002D01*
Y270550D01*
X223806Y271056D01*
X223418Y271444D01*
X222912Y271654D01*
X222364D01*
X221857Y271444D01*
X221470Y271056D01*
X221260Y270550D01*
Y270380D01*
X220760Y270173D01*
X218866Y272067D01*
X219057Y272529D01*
X306690D01*
X311355Y267864D01*
X311856Y267529D01*
X312448Y267412D01*
X313039Y267529D01*
X313541Y267864D01*
X313876Y268366D01*
X313993Y268957D01*
X313876Y269549D01*
X313541Y270050D01*
X308563Y275027D01*
X308762Y275527D01*
X316769D01*
X316908Y275304D01*
X317014Y275027D01*
X316831Y274585D01*
Y274037D01*
X317040Y273531D01*
X317428Y273143D01*
X317935Y272933D01*
X318483D01*
X318989Y273143D01*
X319377Y273531D01*
X319587Y274037D01*
Y274585D01*
X319404Y275027D01*
X319509Y275304D01*
X319648Y275527D01*
X320941D01*
X325864Y270605D01*
X325997Y270283D01*
X326385Y269895D01*
X326891Y269685D01*
X327439D01*
X327946Y269895D01*
X328333Y270283D01*
X328543Y270789D01*
Y271337D01*
X328333Y271844D01*
X327946Y272231D01*
X327623Y272365D01*
X322337Y277652D01*
X321933Y277921D01*
X321457Y278016D01*
X193608D01*
X193286Y278150D01*
X192738D01*
X192534Y278065D01*
X60853D01*
X60412Y278248D01*
X59864D01*
X59357Y278038D01*
X58970Y277651D01*
X58760Y277144D01*
Y276596D01*
X58970Y276090D01*
X59357Y275702D01*
X59864Y275492D01*
X60412D01*
X60615Y275576D01*
X192296D01*
X192738Y275394D01*
X193286D01*
X193608Y275527D01*
X208533D01*
X208573Y275481D01*
X208754Y275027D01*
X208513Y274666D01*
X208396Y274075D01*
X208511Y273496D01*
X208526Y273406D01*
X208238Y272996D01*
X109335D01*
X108859Y272902D01*
X108853Y272898D01*
X8293D01*
X7817Y272803D01*
X7413Y272533D01*
X462Y265582D01*
X-0Y265774D01*
Y279486D01*
X6872Y286358D01*
X42028D01*
X42028Y286358D01*
X42427Y286437D01*
X42766Y286664D01*
X47736Y291634D01*
X47912D01*
X48418Y291844D01*
X48806Y292231D01*
X49016Y292738D01*
Y293286D01*
X48806Y293792D01*
X48418Y294180D01*
X47912Y294390D01*
X47364D01*
X46857Y294180D01*
X46470Y293792D01*
X46260Y293286D01*
Y293110D01*
X41595Y288445D01*
X6440D01*
X6440Y288445D01*
X6041Y288366D01*
X5702Y288140D01*
X462Y282899D01*
X-0Y283091D01*
Y293173D01*
X390Y293251D01*
X721Y293472D01*
X942Y293803D01*
X1020Y294193D01*
Y349371D01*
X11539D01*
X11671Y349030D01*
X11686Y348871D01*
X11332Y348517D01*
X11122Y348010D01*
Y347462D01*
X11332Y346956D01*
X11720Y346568D01*
X12226Y346358D01*
X12774D01*
X13281Y346568D01*
X13668Y346956D01*
X13878Y347462D01*
Y348010D01*
X13668Y348517D01*
X13314Y348871D01*
X13329Y349030D01*
X13461Y349371D01*
X66831D01*
X66889Y349382D01*
X66949Y349374D01*
X67271Y349459D01*
X68819Y348010D01*
D02*
G37*
G36*
X47628Y292028D02*
X47546Y292025D01*
X47465Y292015D01*
X47385Y291998D01*
X47307Y291974D01*
X47229Y291942D01*
X47153Y291904D01*
X47078Y291858D01*
X47005Y291805D01*
X46932Y291745D01*
X46861Y291678D01*
X46304Y292235D01*
X46371Y292306D01*
X46431Y292379D01*
X46484Y292452D01*
X46530Y292527D01*
X46568Y292603D01*
X46600Y292681D01*
X46624Y292759D01*
X46641Y292839D01*
X46651Y292920D01*
X46654Y293002D01*
X47628Y292028D01*
D02*
G37*
G36*
X60899Y277502D02*
X60933Y277483D01*
X60977Y277466D01*
X61030Y277452D01*
X61093Y277439D01*
X61165Y277429D01*
X61339Y277416D01*
X61550Y277411D01*
X61476Y276230D01*
X61365Y276230D01*
X60956Y276200D01*
X60904Y276189D01*
X60861Y276177D01*
X60828Y276163D01*
X60805Y276147D01*
X60874Y277523D01*
X60899Y277502D01*
D02*
G37*
G36*
X192275Y276119D02*
X192251Y276140D01*
X192217Y276159D01*
X192173Y276176D01*
X192120Y276190D01*
X192057Y276202D01*
X191984Y276212D01*
X191811Y276226D01*
X191599Y276230D01*
X191673Y277411D01*
X191785Y277412D01*
X192193Y277442D01*
X192246Y277452D01*
X192288Y277465D01*
X192321Y277479D01*
X192344Y277495D01*
X192275Y276119D01*
D02*
G37*
G36*
X193739Y277442D02*
X193773Y277425D01*
X193816Y277410D01*
X193869Y277398D01*
X193932Y277387D01*
X194086Y277371D01*
X194279Y277363D01*
X194390Y277362D01*
Y276181D01*
X194279Y276180D01*
X193932Y276156D01*
X193869Y276146D01*
X193816Y276133D01*
X193773Y276118D01*
X193739Y276101D01*
X193715Y276083D01*
Y277461D01*
X193739Y277442D01*
D02*
G37*
G36*
X326688Y272377D02*
X326950Y272149D01*
X327002Y272112D01*
X327048Y272083D01*
X327090Y272063D01*
X327125Y272051D01*
X327155Y272047D01*
X326181Y271073D01*
X326177Y271103D01*
X326165Y271139D01*
X326145Y271180D01*
X326117Y271227D01*
X326080Y271279D01*
X325982Y271399D01*
X325851Y271541D01*
X325773Y271620D01*
X326609Y272455D01*
X326688Y272377D01*
D02*
G37*
G36*
X315457Y264478D02*
X315433Y264496D01*
X315399Y264513D01*
X315356Y264528D01*
X315303Y264541D01*
X315240Y264551D01*
X315086Y264567D01*
X314893Y264575D01*
X314782Y264576D01*
Y265757D01*
X314893Y265758D01*
X315240Y265782D01*
X315303Y265792D01*
X315356Y265805D01*
X315399Y265820D01*
X315433Y265837D01*
X315457Y265856D01*
Y264478D01*
D02*
G37*
G36*
X221015Y266398D02*
X221419Y266128D01*
X221895Y266034D01*
X302154D01*
X302432Y265618D01*
X302401Y265543D01*
Y264995D01*
X302611Y264488D01*
X302850Y264249D01*
X302643Y263749D01*
X221602D01*
X216951Y268400D01*
X216547Y268669D01*
X216071Y268764D01*
X94460D01*
X93984Y268669D01*
X93580Y268400D01*
X78000Y252819D01*
X-0D01*
Y261601D01*
X8808Y270409D01*
X109237D01*
X109713Y270504D01*
X109718Y270508D01*
X216906D01*
X221015Y266398D01*
D02*
G37*
G36*
X320226Y261788D02*
X320202Y261812D01*
X320168Y261834D01*
X320125Y261852D01*
X320071Y261869D01*
X320009Y261882D01*
X319937Y261894D01*
X319764Y261909D01*
X319552Y261914D01*
X319720Y263095D01*
X319832Y263096D01*
X320289Y263126D01*
X320329Y263135D01*
X320360Y263146D01*
X320380Y263158D01*
X320226Y261788D01*
D02*
G37*
G36*
X219746Y262085D02*
X219539Y261585D01*
X204221D01*
X204121Y262085D01*
X204408Y262204D01*
X204796Y262591D01*
X205006Y263098D01*
Y263646D01*
X204796Y264152D01*
X204408Y264540D01*
X203902Y264750D01*
X203354D01*
X202847Y264540D01*
X202460Y264152D01*
X202250Y263646D01*
Y263098D01*
X202460Y262591D01*
X202847Y262204D01*
X203134Y262085D01*
X203035Y261585D01*
X195411D01*
X194820Y261467D01*
X194319Y261132D01*
X193835Y260649D01*
X193675Y260542D01*
X193340Y260040D01*
X193222Y259449D01*
X193340Y258857D01*
X193675Y258356D01*
X194176Y258021D01*
X194768Y257903D01*
X194821D01*
X195412Y258021D01*
X195914Y258356D01*
X196052Y258494D01*
X343556D01*
X343834Y258078D01*
X343822Y258050D01*
Y257502D01*
X343842Y257453D01*
X343508Y256953D01*
X140459D01*
X140136Y257087D01*
X139588D01*
X139082Y256877D01*
X138694Y256489D01*
X138484Y255983D01*
Y255435D01*
X138694Y254928D01*
X139082Y254540D01*
X139588Y254331D01*
X140136D01*
X140459Y254464D01*
X197857D01*
X198191Y253964D01*
X198130Y253817D01*
Y253269D01*
X198340Y252763D01*
X198727Y252375D01*
X199234Y252165D01*
X199782D01*
X200288Y252375D01*
X200676Y252763D01*
X200886Y253269D01*
Y253817D01*
X200825Y253964D01*
X201159Y254464D01*
X320438D01*
X320772Y253964D01*
X320768Y253954D01*
Y253405D01*
X320978Y252899D01*
X321365Y252511D01*
X321872Y252302D01*
X322420D01*
X322926Y252511D01*
X323314Y252899D01*
X323524Y253405D01*
Y253954D01*
X323519Y253964D01*
X323853Y254464D01*
X368996D01*
Y233563D01*
X297933D01*
Y211122D01*
X325295D01*
Y203839D01*
X368996D01*
Y144576D01*
X368715Y144192D01*
X368496Y144192D01*
X364855D01*
X364520Y144692D01*
X364567Y144805D01*
Y145353D01*
X364357Y145859D01*
X364185Y146032D01*
X364024Y146358D01*
X364185Y146685D01*
X364357Y146857D01*
X364567Y147364D01*
Y147912D01*
X364357Y148418D01*
X363969Y148806D01*
Y149324D01*
X364357Y149712D01*
X364567Y150218D01*
Y150766D01*
X364357Y151273D01*
X363969Y151660D01*
X363879Y151698D01*
Y152239D01*
X363969Y152277D01*
X364357Y152664D01*
X364567Y153171D01*
Y153719D01*
X364357Y154225D01*
X363969Y154613D01*
X363463Y154823D01*
X362915D01*
X362408Y154613D01*
X362021Y154225D01*
X361811Y153719D01*
Y153171D01*
X362021Y152664D01*
X362408Y152277D01*
X362499Y152239D01*
Y151698D01*
X362408Y151660D01*
X362021Y151273D01*
X361811Y150766D01*
Y150218D01*
X362021Y149712D01*
X362408Y149324D01*
Y148806D01*
X362021Y148418D01*
X361811Y147912D01*
Y147364D01*
X362021Y146857D01*
X362193Y146685D01*
X362354Y146358D01*
X362193Y146032D01*
X362021Y145859D01*
X361811Y145353D01*
Y144805D01*
X361858Y144692D01*
X361524Y144192D01*
X296766D01*
Y118961D01*
X293330D01*
X288478Y123813D01*
X288075Y124083D01*
X287598Y124177D01*
X199167D01*
X199068Y124677D01*
X199403Y124816D01*
X199790Y125204D01*
X200000Y125710D01*
Y126258D01*
X199790Y126765D01*
X199403Y127152D01*
X199193Y127239D01*
Y127780D01*
X199403Y127867D01*
X199790Y128255D01*
X200000Y128761D01*
Y129309D01*
X199790Y129816D01*
X199403Y130204D01*
X198896Y130413D01*
X198348D01*
X197842Y130204D01*
X197454Y129816D01*
X197244Y129309D01*
Y128761D01*
X197454Y128255D01*
X197842Y127867D01*
X198051Y127780D01*
Y127239D01*
X197842Y127152D01*
X197454Y126765D01*
X197244Y126258D01*
Y125710D01*
X197454Y125204D01*
X197842Y124816D01*
X198176Y124677D01*
X198077Y124177D01*
X165698D01*
X165698Y124177D01*
X106357D01*
X103111Y127423D01*
X102978Y127745D01*
X102590Y128133D01*
X102084Y128343D01*
X101535D01*
X101029Y128133D01*
X100641Y127745D01*
X100432Y127239D01*
Y126691D01*
X100641Y126184D01*
X101029Y125796D01*
X101076Y125638D01*
X100739Y125138D01*
X100232Y124928D01*
X99845Y124541D01*
X99635Y124035D01*
Y123486D01*
X99845Y122980D01*
X100021Y122803D01*
X99814Y122303D01*
X96397D01*
X88484Y130216D01*
Y130392D01*
X88275Y130899D01*
X87887Y131286D01*
X87380Y131496D01*
X86832D01*
X86326Y131286D01*
X85938Y130899D01*
X85728Y130392D01*
Y129844D01*
X85938Y129338D01*
X86326Y128950D01*
X86832Y128740D01*
X87008D01*
X87494Y128255D01*
X87307Y127893D01*
X87233Y127809D01*
X86715D01*
X86209Y127599D01*
X85821Y127211D01*
X85611Y126705D01*
Y126157D01*
X85821Y125650D01*
X86209Y125263D01*
X86715Y125053D01*
X87264D01*
X87770Y125263D01*
X88158Y125650D01*
X88367Y126157D01*
Y126674D01*
X88452Y126749D01*
X88813Y126935D01*
X95227Y120522D01*
X95227Y120522D01*
X95565Y120296D01*
X95965Y120216D01*
X95965Y120216D01*
X99504D01*
X99808Y119716D01*
X99705Y119467D01*
Y118919D01*
X99914Y118412D01*
X100302Y118025D01*
X100809Y117815D01*
X101357D01*
X101863Y118025D01*
X101988Y118149D01*
X283721D01*
X291339Y110532D01*
X291339Y110532D01*
X291677Y110305D01*
X292077Y110226D01*
X292077Y110226D01*
X296250D01*
X296447Y110029D01*
X296954Y109819D01*
X297502D01*
X298008Y110029D01*
X298396Y110416D01*
X298606Y110923D01*
Y111471D01*
X298396Y111977D01*
X298008Y112365D01*
X297502Y112575D01*
X296954D01*
X296447Y112365D01*
X296395Y112313D01*
X292509D01*
X285488Y119335D01*
X285652Y119877D01*
X285720Y119891D01*
X291388Y114223D01*
X291388Y114223D01*
X291727Y113996D01*
X292126Y113917D01*
X292126Y113917D01*
X296536D01*
X296562Y113891D01*
X297068Y113681D01*
X297617D01*
X298123Y113891D01*
X298511Y114278D01*
X298721Y114785D01*
Y115333D01*
X298511Y115840D01*
X298303Y116047D01*
X298138Y116267D01*
X298299Y116696D01*
X298410Y116807D01*
X298583Y117224D01*
X325014D01*
Y112008D01*
X368496D01*
X368715Y112008D01*
X368996Y111624D01*
Y94557D01*
X368356Y93676D01*
X367554Y92102D01*
X367009Y90423D01*
X366732Y88678D01*
Y86912D01*
X367009Y85168D01*
X367554Y83488D01*
X368356Y81915D01*
X368996Y81034D01*
Y58534D01*
X294589D01*
X294540Y59034D01*
X294921Y59109D01*
X295455Y59466D01*
X321750Y85761D01*
X336976D01*
X337606Y85887D01*
X338139Y86244D01*
X338496Y86778D01*
X338621Y87407D01*
X338496Y88037D01*
X338139Y88571D01*
X337606Y88928D01*
X336976Y89053D01*
X327940D01*
X327840Y89553D01*
X328143Y89678D01*
X328530Y90066D01*
X328740Y90572D01*
Y91121D01*
X328530Y91627D01*
X328143Y92015D01*
X327636Y92224D01*
X327088D01*
X326582Y92015D01*
X326194Y91627D01*
X325984Y91121D01*
Y90572D01*
X326194Y90066D01*
X326582Y89678D01*
X326884Y89553D01*
X326784Y89053D01*
X322634D01*
X322534Y89553D01*
X322875Y89694D01*
X323262Y90082D01*
X323472Y90588D01*
Y91136D01*
X323262Y91643D01*
X322875Y92031D01*
X322424Y92217D01*
X310710Y103931D01*
X310307Y104201D01*
X309830Y104296D01*
X297986D01*
X297887Y104796D01*
X298221Y104934D01*
X298609Y105322D01*
X298819Y105828D01*
Y106376D01*
X298609Y106883D01*
X298221Y107271D01*
X297715Y107480D01*
X297167D01*
X296660Y107271D01*
X296273Y106883D01*
X296063Y106376D01*
Y105828D01*
X296273Y105322D01*
X296660Y104934D01*
X296995Y104796D01*
X296896Y104296D01*
X263583D01*
X263106Y104201D01*
X262703Y103931D01*
X252231Y93459D01*
X181081D01*
X180981Y93959D01*
X181340Y94107D01*
X181727Y94495D01*
X181937Y95002D01*
Y95550D01*
X181727Y96056D01*
X181340Y96444D01*
X180833Y96653D01*
X180285D01*
X179779Y96444D01*
X179391Y96056D01*
X179181Y95550D01*
Y95002D01*
X179391Y94495D01*
X179779Y94107D01*
X180137Y93959D01*
X180037Y93459D01*
X76584D01*
X76376Y93958D01*
X76585Y94464D01*
Y95012D01*
X76376Y95519D01*
X75988Y95907D01*
X75482Y96116D01*
X74933D01*
X74427Y95907D01*
X74039Y95519D01*
X73830Y95012D01*
Y94464D01*
X74039Y93958D01*
X73831Y93459D01*
X73183D01*
X73044Y93682D01*
X72938Y93959D01*
X73121Y94401D01*
Y94949D01*
X72912Y95456D01*
X72524Y95843D01*
X72018Y96053D01*
X71469D01*
X70963Y95843D01*
X70575Y95456D01*
X70366Y94949D01*
Y94401D01*
X70549Y93959D01*
X70443Y93682D01*
X70304Y93459D01*
X41076D01*
X24333Y110202D01*
X24200Y110525D01*
X23812Y110912D01*
X23306Y111122D01*
X22757D01*
X22251Y110912D01*
X21863Y110525D01*
X21654Y110018D01*
Y109810D01*
X21188Y109462D01*
X20639D01*
X20133Y109252D01*
X19745Y108864D01*
X19535Y108358D01*
Y107810D01*
X19745Y107303D01*
X20133Y106916D01*
X20639Y106706D01*
X21188D01*
X21694Y106916D01*
X22082Y107303D01*
X22291Y107810D01*
Y108017D01*
X22791Y108224D01*
X39681Y91335D01*
X40085Y91065D01*
X40561Y90970D01*
X95896D01*
Y83809D01*
X103474D01*
Y90970D01*
X252746D01*
X253222Y91065D01*
X253626Y91335D01*
X264098Y101807D01*
X265045D01*
X265094Y101307D01*
X264857Y101260D01*
X264518Y101033D01*
X264518Y101033D01*
X252422Y88937D01*
X116929D01*
X116929Y88937D01*
X116530Y88858D01*
X116191Y88632D01*
X116191Y88632D01*
X110198Y82638D01*
X41092D01*
X33309Y90421D01*
X33406Y90911D01*
X33445Y90927D01*
X33832Y91315D01*
X34042Y91821D01*
Y92369D01*
X33832Y92876D01*
X33445Y93264D01*
X32938Y93473D01*
X32390D01*
X31883Y93264D01*
X31528Y92909D01*
X31389Y92819D01*
X30990Y92740D01*
X26060Y97670D01*
Y98501D01*
X26181Y98622D01*
X26391Y99129D01*
Y99677D01*
X26181Y100183D01*
X25793Y100571D01*
X25287Y100781D01*
X24739D01*
X24232Y100571D01*
X23990Y100328D01*
X23552Y100306D01*
X23385Y100376D01*
X23072Y100689D01*
X22565Y100899D01*
X22017D01*
X21511Y100689D01*
X21123Y100301D01*
X20913Y99795D01*
Y99247D01*
X21123Y98740D01*
X21511Y98353D01*
X22017Y98143D01*
X22565D01*
X23072Y98353D01*
X23315Y98595D01*
X23519Y98606D01*
X23973Y98211D01*
Y97237D01*
X23973Y97237D01*
X24052Y96838D01*
X24279Y96499D01*
X39921Y80857D01*
X39921Y80857D01*
X40260Y80630D01*
X40659Y80551D01*
X66929D01*
X67148Y80051D01*
X66993Y79882D01*
X46301D01*
X46301Y79882D01*
X45902Y79803D01*
X45563Y79577D01*
X45563Y79576D01*
X43492Y77506D01*
X43316D01*
X42810Y77296D01*
X42422Y76908D01*
X42212Y76402D01*
Y75854D01*
X42422Y75347D01*
X42810Y74960D01*
X43316Y74750D01*
X43864D01*
X44371Y74960D01*
X44758Y75347D01*
X44968Y75854D01*
Y76030D01*
X46733Y77795D01*
X67205D01*
X67330Y77670D01*
X67836Y77461D01*
X67754Y76995D01*
X67503Y76995D01*
X66997Y76785D01*
X66609Y76397D01*
X66400Y75891D01*
Y75343D01*
X66609Y74836D01*
X66997Y74449D01*
X67503Y74239D01*
X68052D01*
X68558Y74449D01*
X68946Y74836D01*
X69155Y75343D01*
Y75891D01*
X68946Y76397D01*
X68558Y76785D01*
X68052Y76995D01*
X68134Y77461D01*
X68384Y77461D01*
X68891Y77670D01*
X69278Y78058D01*
X69488Y78565D01*
Y79113D01*
X69278Y79619D01*
X68891Y80007D01*
X68784Y80051D01*
X68884Y80551D01*
X110630D01*
X110630Y80551D01*
X111029Y80630D01*
X111368Y80857D01*
X117361Y86850D01*
X179320D01*
X179527Y86350D01*
X179391Y86214D01*
X179181Y85707D01*
Y85159D01*
X179391Y84653D01*
X179779Y84265D01*
X180285Y84055D01*
X180833D01*
X181340Y84265D01*
X181727Y84653D01*
X181937Y85159D01*
Y85707D01*
X181727Y86214D01*
X181591Y86350D01*
X181798Y86850D01*
X252854D01*
X252854Y86850D01*
X253254Y86930D01*
X253592Y87156D01*
X265688Y99252D01*
X276937D01*
X276977Y98752D01*
X276900Y98739D01*
X275220Y98194D01*
X273647Y97392D01*
X272218Y96354D01*
X270969Y95105D01*
X269931Y93676D01*
X269129Y92102D01*
X268583Y90423D01*
X268307Y88678D01*
Y86912D01*
X268583Y85168D01*
X269129Y83488D01*
X269931Y81915D01*
X270969Y80486D01*
X272218Y79237D01*
X273647Y78199D01*
X275220Y77397D01*
X276900Y76851D01*
X278644Y76575D01*
X280411D01*
X282155Y76851D01*
X283835Y77397D01*
X285408Y78199D01*
X286837Y79237D01*
X288086Y80486D01*
X289124Y81915D01*
X289926Y83488D01*
X290472Y85168D01*
X290748Y86912D01*
Y88678D01*
X290472Y90423D01*
X289926Y92102D01*
X289124Y93676D01*
X288086Y95105D01*
X286837Y96354D01*
X285408Y97392D01*
X283835Y98194D01*
X282155Y98739D01*
X282078Y98752D01*
X282118Y99252D01*
X309370D01*
X317891Y90731D01*
Y90555D01*
X318100Y90049D01*
X318488Y89661D01*
X318994Y89451D01*
X319543D01*
X320049Y89661D01*
X320437Y90049D01*
X320476Y90051D01*
X320972Y90035D01*
X321314Y89694D01*
X321654Y89553D01*
X321555Y89053D01*
X321069D01*
X320439Y88928D01*
X319905Y88571D01*
X293128Y61794D01*
X292771Y61260D01*
X292646Y60630D01*
X292771Y60000D01*
X293128Y59466D01*
X293661Y59109D01*
X294042Y59034D01*
X293993Y58534D01*
X234637D01*
X234522Y58965D01*
X234520Y59034D01*
X235172Y59685D01*
X235531Y60554D01*
Y61493D01*
X235172Y62362D01*
X234507Y63026D01*
X233639Y63386D01*
X232699D01*
X231831Y63026D01*
X231167Y62362D01*
X230807Y61493D01*
Y60554D01*
X231167Y59685D01*
X231819Y59034D01*
X231816Y58965D01*
X231701Y58534D01*
X189952D01*
X189837Y58965D01*
X189835Y59034D01*
X190487Y59685D01*
X190847Y60554D01*
Y61493D01*
X190487Y62362D01*
X189822Y63026D01*
X188954Y63386D01*
X188014D01*
X187146Y63026D01*
X186482Y62362D01*
X186122Y61493D01*
Y60554D01*
X186482Y59685D01*
X187134Y59034D01*
X187131Y58965D01*
X187016Y58534D01*
X97170D01*
X90047Y65656D01*
X89545Y65991D01*
X88954Y66109D01*
X88362Y65991D01*
X87861Y65656D01*
X87526Y65155D01*
X87409Y64564D01*
X87526Y63972D01*
X87861Y63471D01*
X95437Y55895D01*
X95938Y55560D01*
X96529Y55443D01*
X172177D01*
X172384Y54943D01*
X172159Y54718D01*
X171949Y54211D01*
Y53663D01*
X172159Y53157D01*
X172546Y52769D01*
X173053Y52559D01*
X173601D01*
X174107Y52769D01*
X174495Y53157D01*
X174705Y53663D01*
Y54211D01*
X174495Y54718D01*
X174270Y54943D01*
X174477Y55443D01*
X360813D01*
X361123Y54943D01*
X361024Y54703D01*
Y54155D01*
X361070Y54043D01*
X360736Y53543D01*
X298917D01*
Y26575D01*
X324902D01*
Y20866D01*
X368602D01*
X368996Y20609D01*
Y9118D01*
X92149D01*
X84471Y16797D01*
X84338Y17119D01*
X83950Y17507D01*
X83443Y17717D01*
X82895D01*
X82389Y17507D01*
X82001Y17119D01*
X81791Y16613D01*
Y16064D01*
X82001Y15558D01*
X82389Y15170D01*
X82711Y15037D01*
X90754Y6994D01*
X91158Y6724D01*
X91634Y6630D01*
X368996D01*
Y1020D01*
X11811Y1020D01*
X11104D01*
X9701Y1204D01*
X8335Y1570D01*
X7028Y2112D01*
X5803Y2819D01*
X4680Y3680D01*
X3680Y4680D01*
X2819Y5803D01*
X2112Y7028D01*
X1570Y8335D01*
X1204Y9701D01*
X1020Y11104D01*
X1020Y11811D01*
X1020Y99508D01*
X942Y99898D01*
X721Y100229D01*
X390Y100450D01*
X-0Y100527D01*
Y104438D01*
X21Y104452D01*
X569D01*
X1076Y104662D01*
X1463Y105050D01*
X1673Y105556D01*
Y105913D01*
X1805Y106001D01*
X2353D01*
X2859Y106211D01*
X3247Y106599D01*
X3457Y107105D01*
Y107653D01*
X3247Y108160D01*
X2940Y108467D01*
X3106Y108922D01*
X3119Y108941D01*
X3226Y108920D01*
X6829D01*
X11713Y104036D01*
Y103860D01*
X11922Y103353D01*
X12310Y102966D01*
X12817Y102756D01*
X13365D01*
X13871Y102966D01*
X14259Y103353D01*
X14469Y103860D01*
Y104408D01*
X14259Y104914D01*
X13871Y105302D01*
X13365Y105512D01*
X13189D01*
X7999Y110701D01*
X7660Y110928D01*
X7261Y111007D01*
X7261Y111007D01*
X5833D01*
X5821Y111026D01*
X5680Y111507D01*
X5964Y111791D01*
X6174Y112298D01*
Y112846D01*
X5964Y113352D01*
X5577Y113740D01*
X5070Y113950D01*
X4886D01*
X4528Y114391D01*
Y114939D01*
X4318Y115446D01*
X3930Y115833D01*
X3424Y116043D01*
X3248D01*
X-0Y119291D01*
Y139094D01*
X462Y139286D01*
X26553Y113195D01*
X26956Y112925D01*
X27433Y112830D01*
X85926D01*
X86025Y112330D01*
X85735Y112210D01*
X85348Y111823D01*
X85138Y111316D01*
Y110768D01*
X85348Y110261D01*
X85735Y109874D01*
X86242Y109664D01*
X86392D01*
X86726Y109164D01*
X86694Y109087D01*
Y108539D01*
X86904Y108032D01*
X87292Y107645D01*
X87798Y107435D01*
X88346D01*
X88853Y107645D01*
X89240Y108032D01*
X89450Y108539D01*
Y109087D01*
X89240Y109593D01*
X88853Y109981D01*
X88346Y110191D01*
X88196D01*
X87862Y110691D01*
X87894Y110768D01*
Y111316D01*
X87684Y111823D01*
X87296Y112210D01*
X87006Y112330D01*
X87106Y112830D01*
X104577D01*
X104908Y112330D01*
X104823Y112126D01*
Y111578D01*
X105033Y111071D01*
X105420Y110684D01*
X105927Y110474D01*
X106475D01*
X106981Y110684D01*
X107369Y111071D01*
X107579Y111578D01*
Y112126D01*
X107494Y112330D01*
X107824Y112830D01*
X186888D01*
X186896Y112818D01*
X187041Y112330D01*
X186482Y111771D01*
X186122Y110903D01*
Y109963D01*
X186482Y109095D01*
X187146Y108431D01*
X188014Y108071D01*
X188954D01*
X189822Y108431D01*
X190487Y109095D01*
X190847Y109963D01*
Y110903D01*
X190487Y111771D01*
X189928Y112330D01*
X190073Y112818D01*
X190081Y112830D01*
X203754D01*
X203766Y112816D01*
X203764Y112694D01*
X203587Y112246D01*
X203251Y112106D01*
X202863Y111719D01*
X202653Y111212D01*
Y110664D01*
X202863Y110158D01*
X203251Y109770D01*
X203757Y109560D01*
X204305D01*
X204812Y109770D01*
X205199Y110158D01*
X205409Y110664D01*
Y111212D01*
X205199Y111719D01*
X204812Y112106D01*
X204628Y112182D01*
X204593Y112197D01*
X204631Y112389D01*
X204631D01*
X204693Y112697D01*
X204747Y112697D01*
X205097D01*
X205603Y112907D01*
X205991Y113294D01*
X206201Y113801D01*
Y114349D01*
X205991Y114855D01*
X205603Y115243D01*
X205097Y115453D01*
X204549D01*
X204226Y115319D01*
X88157D01*
X87880Y115735D01*
X87894Y115769D01*
Y116317D01*
X87684Y116824D01*
X87397Y117111D01*
X87437Y117538D01*
X87493Y117668D01*
X87770Y117782D01*
X88158Y118170D01*
X88367Y118676D01*
Y119225D01*
X88158Y119731D01*
X87770Y120119D01*
X87264Y120328D01*
X86715D01*
X86209Y120119D01*
X85821Y119731D01*
X85611Y119225D01*
Y118676D01*
X85821Y118170D01*
X86108Y117883D01*
X86068Y117456D01*
X86012Y117326D01*
X85735Y117211D01*
X85348Y116824D01*
X85138Y116317D01*
Y115769D01*
X85152Y115735D01*
X84874Y115319D01*
X27948D01*
X-0Y143267D01*
Y172784D01*
X462Y172975D01*
X2368Y171069D01*
X2772Y170799D01*
X3248Y170704D01*
X315573D01*
X315907Y170204D01*
X315846Y170057D01*
Y169509D01*
X316056Y169003D01*
X316444Y168615D01*
X316950Y168405D01*
X317498D01*
X318005Y168615D01*
X318393Y169003D01*
X318602Y169509D01*
Y170057D01*
X318542Y170204D01*
X318876Y170704D01*
X320637D01*
X321113Y170799D01*
X321517Y171069D01*
X322982Y172534D01*
X323252Y172937D01*
X323346Y173414D01*
Y174577D01*
X323480Y174899D01*
Y175447D01*
X323270Y175954D01*
X322882Y176342D01*
X322376Y176551D01*
X321828D01*
X321321Y176342D01*
X320934Y175954D01*
X320724Y175447D01*
Y174899D01*
X320858Y174577D01*
Y173929D01*
X320122Y173193D01*
X319514D01*
X319411Y173678D01*
X319411Y173693D01*
X319796Y174078D01*
X320006Y174585D01*
Y175133D01*
X319796Y175639D01*
X319409Y176027D01*
X318902Y176237D01*
X318354D01*
X318031Y176103D01*
X7251D01*
X-0Y183354D01*
Y186185D01*
X48461D01*
X53937Y180709D01*
Y180533D01*
X54147Y180026D01*
X54534Y179639D01*
X55041Y179429D01*
X55589D01*
X56095Y179639D01*
X56483Y180026D01*
X56693Y180533D01*
Y181081D01*
X56483Y181588D01*
X56095Y181975D01*
X55589Y182185D01*
X55413D01*
X49631Y187967D01*
X49293Y188193D01*
X48893Y188272D01*
X48893Y188272D01*
X-0D01*
Y191279D01*
X56458D01*
X68357Y179380D01*
X68695Y179154D01*
X69095Y179074D01*
X69095Y179074D01*
X172736D01*
X172736Y179074D01*
X173136Y179154D01*
X173474Y179380D01*
X174015Y179921D01*
X174191D01*
X174698Y180131D01*
X175085Y180519D01*
X175295Y181025D01*
Y181573D01*
X175085Y182080D01*
X174698Y182467D01*
X174191Y182677D01*
X173643D01*
X173137Y182467D01*
X172749Y182080D01*
X172539Y181573D01*
Y181397D01*
X172304Y181162D01*
X164723D01*
X164516Y181662D01*
X164652Y181798D01*
X164862Y182305D01*
Y182853D01*
X164652Y183359D01*
X164265Y183747D01*
X163758Y183957D01*
X163210D01*
X162704Y183747D01*
X162316Y183359D01*
X162106Y182853D01*
Y182305D01*
X162316Y181798D01*
X162452Y181662D01*
X162245Y181162D01*
X69527D01*
X57628Y193061D01*
X57289Y193287D01*
X56890Y193367D01*
X56890Y193367D01*
X-0D01*
Y206036D01*
X76226D01*
X76596Y205883D01*
X77144D01*
X77467Y206017D01*
X294891D01*
X295238Y205670D01*
X295632Y205407D01*
X295656Y205382D01*
X296163Y205172D01*
X296711D01*
X297218Y205382D01*
X297605Y205770D01*
X297815Y206276D01*
Y206824D01*
X297605Y207331D01*
X297218Y207718D01*
X296711Y207928D01*
X296590Y208428D01*
X296616Y208505D01*
X296990Y208660D01*
X297378Y209047D01*
X297588Y209554D01*
Y210102D01*
X297378Y210609D01*
X296990Y210996D01*
X296484Y211206D01*
X295936D01*
X295613Y211072D01*
X106064D01*
X102861Y214276D01*
X102743Y214560D01*
X102355Y214948D01*
X101849Y215158D01*
X101301D01*
X100794Y214948D01*
X100407Y214560D01*
X100197Y214054D01*
Y213505D01*
X100407Y212999D01*
X100794Y212611D01*
X101155Y212462D01*
X104611Y209005D01*
X104573Y208770D01*
X104431Y208505D01*
X78437D01*
X78338Y209005D01*
X78616Y209121D01*
X79004Y209509D01*
X79214Y210015D01*
Y210563D01*
X79004Y211070D01*
X78616Y211457D01*
X78110Y211667D01*
X77562D01*
X77055Y211457D01*
X76668Y211070D01*
X76458Y210563D01*
Y210015D01*
X76668Y209509D01*
X77037Y209139D01*
X77032Y209044D01*
X76912Y208639D01*
X76596D01*
X76321Y208525D01*
X32623D01*
X32376Y209025D01*
X32520Y209371D01*
Y209920D01*
X32310Y210426D01*
X31922Y210814D01*
X31416Y211023D01*
X30868D01*
X30361Y210814D01*
X29974Y210426D01*
X29764Y209920D01*
Y209371D01*
X29907Y209025D01*
X29660Y208525D01*
X-0D01*
Y225823D01*
X16070D01*
X16326Y225323D01*
X16189Y224992D01*
Y224444D01*
X16399Y223937D01*
X16786Y223550D01*
X17293Y223340D01*
X17841D01*
X18348Y223550D01*
X18735Y223937D01*
X18945Y224444D01*
Y224992D01*
X18808Y225323D01*
X18808Y225333D01*
X18813Y225352D01*
X19083Y225763D01*
X19115Y225787D01*
X19467D01*
X19974Y225997D01*
X20361Y226385D01*
X20571Y226891D01*
Y227439D01*
X20361Y227946D01*
X19974Y228333D01*
X19467Y228543D01*
X18919D01*
X18412Y228333D01*
X18390Y228311D01*
X-0D01*
Y250330D01*
X78515D01*
X78992Y250425D01*
X79395Y250695D01*
X94976Y266275D01*
X215556D01*
X219746Y262085D01*
D02*
G37*
G36*
X-18368Y262037D02*
X-18435Y261965D01*
X-18495Y261893D01*
X-18548Y261819D01*
X-18594Y261744D01*
X-18632Y261668D01*
X-18664Y261591D01*
X-18688Y261512D01*
X-18705Y261433D01*
X-18715Y261352D01*
X-18718Y261270D01*
X-19692Y262244D01*
X-19610Y262247D01*
X-19529Y262257D01*
X-19449Y262274D01*
X-19371Y262298D01*
X-19293Y262329D01*
X-19217Y262368D01*
X-19142Y262414D01*
X-19069Y262467D01*
X-18996Y262526D01*
X-18925Y262594D01*
X-18368Y262037D01*
D02*
G37*
G36*
X-3490Y259036D02*
X-3568Y258956D01*
X-3796Y258694D01*
X-3833Y258642D01*
X-3861Y258596D01*
X-3882Y258555D01*
X-3894Y258519D01*
X-3898Y258489D01*
X-4872Y259463D01*
X-4842Y259467D01*
X-4806Y259479D01*
X-4765Y259499D01*
X-4718Y259528D01*
X-4666Y259564D01*
X-4546Y259662D01*
X-4404Y259793D01*
X-4325Y259871D01*
X-3490Y259036D01*
D02*
G37*
G36*
X368996Y256953D02*
X346892D01*
X346558Y257453D01*
X346578Y257502D01*
Y258050D01*
X346566Y258078D01*
X346844Y258494D01*
X368996D01*
Y256953D01*
D02*
G37*
G36*
X-6965Y256850D02*
X-6953Y256814D01*
X-6932Y256773D01*
X-6904Y256726D01*
X-6867Y256674D01*
X-6769Y256554D01*
X-6638Y256412D01*
X-6561Y256333D01*
X-7396Y255498D01*
X-7475Y255576D01*
X-7737Y255804D01*
X-7789Y255841D01*
X-7836Y255870D01*
X-7877Y255890D01*
X-7913Y255902D01*
X-7943Y255906D01*
X-6968Y256880D01*
X-6965Y256850D01*
D02*
G37*
G36*
X389803Y255090D02*
X389786Y255095D01*
X389750Y255100D01*
X389696Y255104D01*
X389147Y255117D01*
X388799Y255118D01*
X388862Y256299D01*
X388972Y256301D01*
X389244Y256322D01*
X389316Y256334D01*
X389378Y256350D01*
X389430Y256368D01*
X389472Y256389D01*
X389505Y256413D01*
X389528Y256440D01*
X389803Y255090D01*
D02*
G37*
G36*
X140589Y256379D02*
X140623Y256362D01*
X140666Y256347D01*
X140719Y256335D01*
X140782Y256324D01*
X140936Y256308D01*
X141129Y256300D01*
X141240Y256299D01*
Y255118D01*
X141129Y255117D01*
X140782Y255094D01*
X140719Y255083D01*
X140666Y255070D01*
X140623Y255055D01*
X140589Y255038D01*
X140565Y255020D01*
Y256398D01*
X140589Y256379D01*
D02*
G37*
G36*
X-30336Y252442D02*
X-30302Y252425D01*
X-30259Y252410D01*
X-30206Y252398D01*
X-30143Y252387D01*
X-29989Y252371D01*
X-29796Y252363D01*
X-29685Y252362D01*
Y251181D01*
X-29796Y251180D01*
X-30143Y251156D01*
X-30206Y251146D01*
X-30259Y251133D01*
X-30302Y251118D01*
X-30336Y251101D01*
X-30360Y251083D01*
Y252461D01*
X-30336Y252442D01*
D02*
G37*
G36*
X-29578Y249872D02*
X-29544Y249855D01*
X-29500Y249839D01*
X-29447Y249826D01*
X-29385Y249815D01*
X-29230Y249798D01*
X-29037Y249790D01*
X-28927Y249789D01*
X-28948Y248608D01*
X-29059Y248607D01*
X-29406Y248584D01*
X-29469Y248574D01*
X-29521Y248562D01*
X-29565Y248548D01*
X-29598Y248532D01*
X-29622Y248514D01*
X-29602Y249891D01*
X-29578Y249872D01*
D02*
G37*
G36*
X-11484Y248506D02*
X-11508Y248525D01*
X-11542Y248542D01*
X-11586Y248558D01*
X-11639Y248571D01*
X-11702Y248582D01*
X-11856Y248599D01*
X-12049Y248607D01*
X-12160Y248608D01*
X-12139Y249789D01*
X-12028Y249790D01*
X-11681Y249813D01*
X-11618Y249823D01*
X-11565Y249835D01*
X-11522Y249849D01*
X-11488Y249866D01*
X-11464Y249883D01*
X-11484Y248506D01*
D02*
G37*
G36*
X-5793Y249739D02*
X-5530Y249511D01*
X-5478Y249474D01*
X-5432Y249446D01*
X-5391Y249425D01*
X-5355Y249413D01*
X-5325Y249409D01*
X-6299Y248435D01*
X-6303Y248465D01*
X-6315Y248501D01*
X-6335Y248542D01*
X-6364Y248589D01*
X-6400Y248641D01*
X-6498Y248761D01*
X-6629Y248903D01*
X-6707Y248982D01*
X-5872Y249817D01*
X-5793Y249739D01*
D02*
G37*
G36*
X-33897Y238842D02*
X-33887Y238804D01*
X-33868Y238761D01*
X-33841Y238713D01*
X-33805Y238660D01*
X-33761Y238602D01*
X-33648Y238469D01*
X-33501Y238316D01*
X-34393Y237538D01*
X-34472Y237616D01*
X-34782Y237885D01*
X-34826Y237914D01*
X-34865Y237935D01*
X-34898Y237949D01*
X-34925Y237954D01*
X-33900Y238874D01*
X-33897Y238842D01*
D02*
G37*
G36*
X-31297Y232782D02*
X-31287Y232701D01*
X-31269Y232622D01*
X-31245Y232543D01*
X-31214Y232466D01*
X-31175Y232389D01*
X-31130Y232315D01*
X-31077Y232241D01*
X-31017Y232168D01*
X-30950Y232097D01*
X-31506Y231540D01*
X-31578Y231607D01*
X-31650Y231667D01*
X-31724Y231720D01*
X-31799Y231766D01*
X-31875Y231804D01*
X-31952Y231836D01*
X-32031Y231860D01*
X-32111Y231877D01*
X-32192Y231887D01*
X-32274Y231890D01*
X-31299Y232864D01*
X-31297Y232782D01*
D02*
G37*
G36*
X-32281Y227959D02*
X-32271Y227878D01*
X-32254Y227799D01*
X-32230Y227720D01*
X-32198Y227643D01*
X-32160Y227567D01*
X-32114Y227492D01*
X-32061Y227418D01*
X-32001Y227345D01*
X-31934Y227274D01*
X-32491Y226717D01*
X-32562Y226784D01*
X-32635Y226845D01*
X-32708Y226897D01*
X-32783Y226943D01*
X-32859Y226982D01*
X-32937Y227013D01*
X-33015Y227037D01*
X-33095Y227054D01*
X-33176Y227064D01*
X-33258Y227067D01*
X-32283Y228041D01*
X-32281Y227959D01*
D02*
G37*
G36*
X18562Y226410D02*
X18541Y226422D01*
X18510Y226434D01*
X18469Y226444D01*
X18418Y226452D01*
X18285Y226466D01*
X18113Y226474D01*
X17899Y226476D01*
X17750Y227658D01*
X17860Y227659D01*
X18134Y227677D01*
X18207Y227688D01*
X18269Y227702D01*
X18323Y227718D01*
X18366Y227736D01*
X18400Y227757D01*
X18425Y227781D01*
X18562Y226410D01*
D02*
G37*
G36*
X-35234Y221325D02*
X-35224Y221245D01*
X-35206Y221165D01*
X-35182Y221086D01*
X-35151Y221009D01*
X-35112Y220933D01*
X-35067Y220858D01*
X-35014Y220784D01*
X-34954Y220712D01*
X-34887Y220640D01*
X-35443Y220083D01*
X-35515Y220151D01*
X-35587Y220211D01*
X-35661Y220264D01*
X-35736Y220309D01*
X-35812Y220348D01*
X-35889Y220379D01*
X-35968Y220403D01*
X-36048Y220421D01*
X-36129Y220430D01*
X-36211Y220433D01*
X-35236Y221408D01*
X-35234Y221325D01*
D02*
G37*
G36*
X-35509Y215105D02*
X-35499Y215024D01*
X-35482Y214944D01*
X-35458Y214866D01*
X-35427Y214789D01*
X-35388Y214712D01*
X-35342Y214637D01*
X-35289Y214564D01*
X-35229Y214491D01*
X-35162Y214420D01*
X-35719Y213863D01*
X-35790Y213930D01*
X-35863Y213990D01*
X-35937Y214043D01*
X-36012Y214089D01*
X-36088Y214127D01*
X-36165Y214159D01*
X-36244Y214183D01*
X-36323Y214200D01*
X-36404Y214210D01*
X-36486Y214213D01*
X-35512Y215187D01*
X-35509Y215105D01*
D02*
G37*
G36*
X102563Y213756D02*
X102576Y213721D01*
X102596Y213680D01*
X102625Y213634D01*
X102662Y213583D01*
X102760Y213463D01*
X102892Y213321D01*
X102969Y213242D01*
X102151Y212390D01*
X102072Y212468D01*
X101809Y212696D01*
X101756Y212733D01*
X101709Y212761D01*
X101668Y212781D01*
X101631Y212792D01*
X101600Y212796D01*
X102559Y213785D01*
X102563Y213756D01*
D02*
G37*
G36*
X295507Y209139D02*
X295483Y209158D01*
X295449Y209174D01*
X295406Y209189D01*
X295353Y209202D01*
X295290Y209213D01*
X295135Y209228D01*
X294943Y209236D01*
X294832Y209237D01*
Y210419D01*
X294943Y210420D01*
X295290Y210443D01*
X295353Y210454D01*
X295406Y210467D01*
X295449Y210482D01*
X295483Y210498D01*
X295507Y210517D01*
Y209139D01*
D02*
G37*
G36*
X76154Y206586D02*
X76129Y206606D01*
X76095Y206624D01*
X76052Y206639D01*
X75999Y206653D01*
X75936Y206664D01*
X75781Y206681D01*
X75589Y206689D01*
X75478Y206690D01*
X75507Y207871D01*
X75618Y207872D01*
X75965Y207894D01*
X76028Y207905D01*
X76081Y207917D01*
X76124Y207931D01*
X76157Y207946D01*
X76181Y207964D01*
X76154Y206586D01*
D02*
G37*
G36*
X77597Y207931D02*
X77631Y207915D01*
X77674Y207900D01*
X77727Y207887D01*
X77790Y207876D01*
X77944Y207860D01*
X78137Y207853D01*
X78248Y207852D01*
Y206670D01*
X78137Y206669D01*
X77790Y206646D01*
X77727Y206635D01*
X77674Y206622D01*
X77631Y206608D01*
X77597Y206591D01*
X77573Y206572D01*
Y207950D01*
X77597Y207931D01*
D02*
G37*
G36*
X-17103Y205093D02*
X-17182Y205014D01*
X-17508Y204642D01*
X-17522Y204615D01*
X-17528Y204595D01*
X-18355Y205697D01*
X-18320Y205697D01*
X-18281Y205705D01*
X-18236Y205721D01*
X-18187Y205747D01*
X-18133Y205781D01*
X-18073Y205823D01*
X-17940Y205934D01*
X-17787Y206080D01*
X-17103Y205093D01*
D02*
G37*
G36*
X-34840Y202270D02*
X-34830Y202189D01*
X-34813Y202110D01*
X-34789Y202031D01*
X-34757Y201954D01*
X-34719Y201878D01*
X-34673Y201803D01*
X-34620Y201729D01*
X-34560Y201657D01*
X-34493Y201585D01*
X-35050Y201028D01*
X-35121Y201096D01*
X-35194Y201156D01*
X-35267Y201208D01*
X-35342Y201254D01*
X-35418Y201293D01*
X-35496Y201324D01*
X-35574Y201348D01*
X-35654Y201365D01*
X-35735Y201375D01*
X-35817Y201378D01*
X-34843Y202352D01*
X-34840Y202270D01*
D02*
G37*
G36*
X-17615Y198333D02*
X-17605Y198252D01*
X-17588Y198173D01*
X-17564Y198094D01*
X-17533Y198017D01*
X-17494Y197941D01*
X-17449Y197866D01*
X-17396Y197792D01*
X-17336Y197720D01*
X-17268Y197648D01*
X-17825Y197091D01*
X-17897Y197159D01*
X-17969Y197219D01*
X-18043Y197271D01*
X-18118Y197317D01*
X-18194Y197356D01*
X-18271Y197387D01*
X-18350Y197411D01*
X-18429Y197428D01*
X-18510Y197438D01*
X-18593Y197441D01*
X-17618Y198415D01*
X-17615Y198333D01*
D02*
G37*
G36*
X-16703Y189672D02*
X-16693Y189591D01*
X-16676Y189511D01*
X-16651Y189433D01*
X-16620Y189355D01*
X-16581Y189279D01*
X-16536Y189204D01*
X-16483Y189131D01*
X-16423Y189058D01*
X-16356Y188987D01*
X-16913Y188430D01*
X-16984Y188497D01*
X-17056Y188557D01*
X-17130Y188610D01*
X-17205Y188656D01*
X-17281Y188694D01*
X-17358Y188726D01*
X-17437Y188750D01*
X-17517Y188767D01*
X-17598Y188777D01*
X-17680Y188780D01*
X-16705Y189754D01*
X-16703Y189672D01*
D02*
G37*
G36*
X-2752Y185294D02*
X-2740Y185259D01*
X-2720Y185218D01*
X-2691Y185171D01*
X-2655Y185119D01*
X-2557Y184999D01*
X-2426Y184857D01*
X-2348Y184778D01*
X-3183Y183943D01*
X-3263Y184020D01*
X-3525Y184249D01*
X-3577Y184286D01*
X-3623Y184314D01*
X-3664Y184335D01*
X-3700Y184347D01*
X-3730Y184351D01*
X-2756Y185325D01*
X-2752Y185294D01*
D02*
G37*
G36*
X54609Y182074D02*
X54682Y182014D01*
X54756Y181961D01*
X54830Y181915D01*
X54907Y181877D01*
X54984Y181845D01*
X55062Y181821D01*
X55142Y181804D01*
X55223Y181794D01*
X55305Y181791D01*
X54331Y180817D01*
X54328Y180899D01*
X54318Y180980D01*
X54301Y181060D01*
X54277Y181138D01*
X54245Y181216D01*
X54207Y181292D01*
X54161Y181367D01*
X54108Y181440D01*
X54048Y181513D01*
X53981Y181584D01*
X54538Y182141D01*
X54609Y182074D01*
D02*
G37*
G36*
X173907Y180315D02*
X173825Y180312D01*
X173744Y180302D01*
X173665Y180285D01*
X173586Y180261D01*
X173509Y180230D01*
X173433Y180191D01*
X173358Y180145D01*
X173284Y180093D01*
X173212Y180033D01*
X173140Y179965D01*
X172583Y180522D01*
X172651Y180594D01*
X172711Y180666D01*
X172764Y180740D01*
X172809Y180815D01*
X172848Y180891D01*
X172879Y180968D01*
X172903Y181047D01*
X172921Y181126D01*
X172930Y181207D01*
X172933Y181289D01*
X173907Y180315D01*
D02*
G37*
G36*
X-4622Y180767D02*
X-4610Y180731D01*
X-4590Y180690D01*
X-4561Y180644D01*
X-4525Y180592D01*
X-4427Y180471D01*
X-4296Y180329D01*
X-4218Y180250D01*
X-5054Y179415D01*
X-5133Y179493D01*
X-5395Y179722D01*
X-5447Y179758D01*
X-5493Y179787D01*
X-5534Y179807D01*
X-5570Y179819D01*
X-5600Y179823D01*
X-4626Y180797D01*
X-4622Y180767D01*
D02*
G37*
G36*
X479571Y227334D02*
X479889Y227122D01*
X480126Y226961D01*
X481299Y225787D01*
X484270D01*
X484477Y225287D01*
X484181Y224992D01*
X483626Y224030D01*
X483338Y222957D01*
Y221846D01*
X483626Y220773D01*
X484181Y219811D01*
X484967Y219026D01*
X485929Y218470D01*
X487002Y218183D01*
X488112D01*
X489185Y218470D01*
X490147Y219026D01*
X490933Y219811D01*
X491488Y220773D01*
X491776Y221846D01*
Y222957D01*
X491488Y224030D01*
X490933Y224992D01*
X490637Y225287D01*
X490845Y225787D01*
X524270Y225787D01*
X524477Y225287D01*
X524181Y224992D01*
X523626Y224030D01*
X523338Y222957D01*
Y221846D01*
X523626Y220773D01*
X524181Y219811D01*
X524967Y219026D01*
X525929Y218470D01*
X527002Y218183D01*
X528113D01*
X529185Y218470D01*
X530148Y219026D01*
X530933Y219811D01*
X531488Y220773D01*
X531776Y221846D01*
Y222957D01*
X531488Y224030D01*
X530933Y224992D01*
X530638Y225287D01*
X530845Y225787D01*
X544551D01*
Y177067D01*
X483642D01*
X454271Y206438D01*
Y245040D01*
X461866D01*
X479571Y227334D01*
D02*
G37*
G36*
X317925Y174170D02*
X317901Y174188D01*
X317867Y174205D01*
X317824Y174220D01*
X317771Y174233D01*
X317708Y174244D01*
X317554Y174259D01*
X317361Y174267D01*
X317250Y174268D01*
Y175449D01*
X317361Y175450D01*
X317708Y175474D01*
X317771Y175485D01*
X317824Y175497D01*
X317867Y175512D01*
X317901Y175529D01*
X317925Y175548D01*
Y174170D01*
D02*
G37*
G36*
X322772Y174446D02*
X322755Y174413D01*
X322741Y174369D01*
X322728Y174316D01*
X322717Y174253D01*
X322701Y174099D01*
X322693Y173906D01*
X322692Y173795D01*
X321511D01*
X321510Y173906D01*
X321487Y174253D01*
X321476Y174316D01*
X321463Y174369D01*
X321448Y174413D01*
X321432Y174446D01*
X321413Y174471D01*
X322791D01*
X322772Y174446D01*
D02*
G37*
G36*
X-37710Y172026D02*
X-37695Y171946D01*
X-37674Y171866D01*
X-37646Y171788D01*
X-37611Y171711D01*
X-37570Y171635D01*
X-37523Y171561D01*
X-37469Y171487D01*
X-37408Y171415D01*
X-37341Y171344D01*
X-37854Y170744D01*
X-37926Y170811D01*
X-37999Y170871D01*
X-38073Y170922D01*
X-38148Y170966D01*
X-38224Y171002D01*
X-38301Y171031D01*
X-38379Y171051D01*
X-38459Y171064D01*
X-38539Y171069D01*
X-38620Y171066D01*
X-37718Y172108D01*
X-37710Y172026D01*
D02*
G37*
G36*
X-35745Y157900D02*
X-35735Y157819D01*
X-35718Y157740D01*
X-35694Y157661D01*
X-35663Y157584D01*
X-35624Y157508D01*
X-35579Y157433D01*
X-35526Y157359D01*
X-35466Y157286D01*
X-35398Y157215D01*
X-35955Y156658D01*
X-36027Y156726D01*
X-36099Y156786D01*
X-36173Y156838D01*
X-36248Y156884D01*
X-36324Y156923D01*
X-36401Y156954D01*
X-36480Y156978D01*
X-36559Y156995D01*
X-36640Y157005D01*
X-36722Y157008D01*
X-35748Y157982D01*
X-35745Y157900D01*
D02*
G37*
G36*
X-10955Y153410D02*
X-10943Y153375D01*
X-10923Y153334D01*
X-10894Y153287D01*
X-10858Y153235D01*
X-10760Y153115D01*
X-10629Y152973D01*
X-10551Y152894D01*
X-11386Y152059D01*
X-11465Y152136D01*
X-11728Y152365D01*
X-11780Y152402D01*
X-11826Y152430D01*
X-11867Y152451D01*
X-11903Y152463D01*
X-11933Y152466D01*
X-10959Y153441D01*
X-10955Y153410D01*
D02*
G37*
G36*
X88093Y130026D02*
X88103Y129945D01*
X88120Y129866D01*
X88144Y129787D01*
X88176Y129710D01*
X88214Y129634D01*
X88260Y129559D01*
X88313Y129485D01*
X88373Y129412D01*
X88440Y129341D01*
X87883Y128784D01*
X87812Y128851D01*
X87739Y128911D01*
X87666Y128964D01*
X87591Y129010D01*
X87515Y129049D01*
X87437Y129080D01*
X87359Y129104D01*
X87279Y129121D01*
X87198Y129131D01*
X87116Y129134D01*
X88090Y130108D01*
X88093Y130026D01*
D02*
G37*
G36*
X102798Y126925D02*
X102810Y126889D01*
X102830Y126848D01*
X102858Y126801D01*
X102895Y126749D01*
X102993Y126629D01*
X103124Y126487D01*
X103201Y126408D01*
X102366Y125573D01*
X102287Y125651D01*
X102025Y125879D01*
X101973Y125916D01*
X101927Y125944D01*
X101885Y125965D01*
X101850Y125977D01*
X101819Y125980D01*
X102794Y126955D01*
X102798Y126925D01*
D02*
G37*
G36*
X486063Y170669D02*
X486369D01*
X486435Y170169D01*
X485929Y170034D01*
X484967Y169478D01*
X484181Y168693D01*
X483626Y167731D01*
X483338Y166658D01*
Y165547D01*
X483626Y164474D01*
X484181Y163512D01*
X484967Y162727D01*
X485929Y162171D01*
X487002Y161884D01*
X488112D01*
X489185Y162171D01*
X490147Y162727D01*
X490933Y163512D01*
X491488Y164474D01*
X491776Y165547D01*
Y166658D01*
X491488Y167731D01*
X490933Y168693D01*
X490147Y169478D01*
X489185Y170034D01*
X488679Y170169D01*
X488745Y170669D01*
X526369D01*
X526435Y170169D01*
X525929Y170034D01*
X524967Y169478D01*
X524181Y168693D01*
X523626Y167731D01*
X523338Y166658D01*
Y165547D01*
X523626Y164474D01*
X524181Y163512D01*
X524967Y162727D01*
X525929Y162171D01*
X527002Y161884D01*
X528113D01*
X529185Y162171D01*
X530148Y162727D01*
X530933Y163512D01*
X531488Y164474D01*
X531776Y165547D01*
Y166658D01*
X531488Y167731D01*
X530933Y168693D01*
X530148Y169478D01*
X529185Y170034D01*
X528679Y170169D01*
X528745Y170669D01*
X544551D01*
Y120177D01*
X488555D01*
X487397Y121384D01*
X487610Y121884D01*
X488112D01*
X489185Y122171D01*
X490147Y122727D01*
X490933Y123512D01*
X491488Y124474D01*
X491776Y125547D01*
Y126658D01*
X491488Y127731D01*
X490933Y128693D01*
X490147Y129478D01*
X489185Y130034D01*
X488112Y130321D01*
X487002D01*
X485929Y130034D01*
X484967Y129478D01*
X484181Y128693D01*
X483626Y127731D01*
X483338Y126658D01*
Y126282D01*
X482875Y126095D01*
X454271Y155895D01*
Y194823D01*
X461909D01*
X486063Y170669D01*
D02*
G37*
G36*
X101846Y119826D02*
X101910Y119776D01*
X101978Y119731D01*
X102051Y119693D01*
X102128Y119660D01*
X102209Y119634D01*
X102294Y119613D01*
X102384Y119598D01*
X102477Y119590D01*
X102575Y119587D01*
Y118799D01*
X102477Y118796D01*
X102384Y118787D01*
X102294Y118773D01*
X102209Y118752D01*
X102128Y118725D01*
X102051Y118693D01*
X101978Y118655D01*
X101910Y118610D01*
X101846Y118560D01*
X101786Y118504D01*
Y119882D01*
X101846Y119826D01*
D02*
G37*
G36*
X296455Y116997D02*
X296431Y117021D01*
X296397Y117043D01*
X296354Y117063D01*
X296301Y117080D01*
X296238Y117094D01*
X296166Y117105D01*
X295993Y117121D01*
X295782Y117126D01*
X295980Y118307D01*
X296092Y118308D01*
X296547Y118334D01*
X296586Y118343D01*
X296616Y118352D01*
X296635Y118363D01*
X296455Y116997D01*
D02*
G37*
G36*
X2444Y115932D02*
X2516Y115872D01*
X2590Y115819D01*
X2665Y115773D01*
X2741Y115735D01*
X2819Y115703D01*
X2897Y115679D01*
X2977Y115662D01*
X3058Y115652D01*
X3140Y115649D01*
X2165Y114675D01*
X2163Y114757D01*
X2153Y114838D01*
X2136Y114918D01*
X2111Y114996D01*
X2080Y115074D01*
X2042Y115150D01*
X1996Y115225D01*
X1943Y115298D01*
X1883Y115371D01*
X1816Y115442D01*
X2373Y115999D01*
X2444Y115932D01*
D02*
G37*
G36*
X296712Y114303D02*
X296647Y114353D01*
X296578Y114398D01*
X296506Y114438D01*
X296430Y114472D01*
X296351Y114501D01*
X296268Y114525D01*
X296181Y114543D01*
X296091Y114556D01*
X295997Y114564D01*
X295900Y114567D01*
X295813Y115354D01*
X295912Y115357D01*
X296005Y115367D01*
X296094Y115383D01*
X296177Y115405D01*
X296256Y115434D01*
X296329Y115470D01*
X296398Y115511D01*
X296462Y115559D01*
X296520Y115613D01*
X296574Y115674D01*
X296712Y114303D01*
D02*
G37*
G36*
X-5527Y114805D02*
X-5454Y114745D01*
X-5380Y114694D01*
X-5305Y114651D01*
X-5229Y114616D01*
X-5152Y114589D01*
X-5074Y114570D01*
X-4995Y114559D01*
X-4915Y114556D01*
X-4834Y114561D01*
X-5705Y113492D01*
X-5715Y113574D01*
X-5732Y113654D01*
X-5755Y113733D01*
X-5785Y113811D01*
X-5821Y113887D01*
X-5863Y113963D01*
X-5911Y114037D01*
X-5965Y114110D01*
X-6026Y114182D01*
X-6093Y114253D01*
X-5599Y114872D01*
X-5527Y114805D01*
D02*
G37*
G36*
X204120Y113386D02*
X204096Y113405D01*
X204062Y113421D01*
X204019Y113436D01*
X203966Y113449D01*
X203903Y113460D01*
X203749Y113475D01*
X203556Y113483D01*
X203445Y113484D01*
Y114665D01*
X203556Y114666D01*
X203903Y114690D01*
X203966Y114701D01*
X204019Y114714D01*
X204062Y114728D01*
X204096Y114745D01*
X204120Y114764D01*
Y113386D01*
D02*
G37*
G36*
X4022Y111963D02*
X3969Y112024D01*
X3911Y112079D01*
X3848Y112127D01*
X3779Y112169D01*
X3706Y112205D01*
X3628Y112234D01*
X3544Y112256D01*
X3456Y112272D01*
X3362Y112282D01*
X3264Y112285D01*
X3358Y113073D01*
X3456Y113075D01*
X3550Y113083D01*
X3640Y113096D01*
X3727Y113114D01*
X3810Y113138D01*
X3889Y113166D01*
X3965Y113200D01*
X4038Y113239D01*
X4107Y113284D01*
X4172Y113333D01*
X4022Y111963D01*
D02*
G37*
G36*
X296476Y110562D02*
X296420Y110622D01*
X296360Y110675D01*
X296295Y110722D01*
X296225Y110763D01*
X296151Y110797D01*
X296072Y110826D01*
X295988Y110848D01*
X295899Y110863D01*
X295805Y110873D01*
X295707Y110876D01*
X295771Y111663D01*
X295868Y111666D01*
X295962Y111674D01*
X296052Y111688D01*
X296138Y111707D01*
X296221Y111732D01*
X296300Y111761D01*
X296375Y111797D01*
X296446Y111838D01*
X296514Y111884D01*
X296578Y111936D01*
X296476Y110562D01*
D02*
G37*
G36*
X-4941Y111010D02*
X-4868Y110950D01*
X-4794Y110897D01*
X-4719Y110851D01*
X-4643Y110813D01*
X-4566Y110782D01*
X-4487Y110757D01*
X-4408Y110740D01*
X-4327Y110731D01*
X-4245Y110728D01*
X-5217Y109751D01*
X-5220Y109833D01*
X-5230Y109914D01*
X-5247Y109994D01*
X-5271Y110073D01*
X-5303Y110150D01*
X-5341Y110226D01*
X-5387Y110301D01*
X-5440Y110375D01*
X-5500Y110447D01*
X-5567Y110519D01*
X-5012Y111077D01*
X-4941Y111010D01*
D02*
G37*
G36*
X24020Y109704D02*
X24032Y109668D01*
X24052Y109627D01*
X24080Y109581D01*
X24117Y109529D01*
X24215Y109408D01*
X24346Y109266D01*
X24423Y109187D01*
X23588Y108352D01*
X23509Y108430D01*
X23247Y108659D01*
X23195Y108695D01*
X23148Y108724D01*
X23107Y108744D01*
X23072Y108756D01*
X23041Y108760D01*
X24016Y109734D01*
X24020Y109704D01*
D02*
G37*
G36*
X1238Y106867D02*
X1194Y106932D01*
X1143Y106990D01*
X1086Y107041D01*
X1023Y107085D01*
X954Y107123D01*
X879Y107154D01*
X798Y107177D01*
X711Y107194D01*
X618Y107205D01*
X519Y107208D01*
X721Y107996D01*
X818Y107998D01*
X1003Y108015D01*
X1090Y108030D01*
X1175Y108049D01*
X1256Y108072D01*
X1334Y108100D01*
X1409Y108132D01*
X1481Y108169D01*
X1550Y108209D01*
X1238Y106867D01*
D02*
G37*
G36*
X-408Y105141D02*
X-468Y105197D01*
X-532Y105247D01*
X-600Y105292D01*
X-673Y105330D01*
X-750Y105363D01*
X-831Y105389D01*
X-916Y105410D01*
X-1006Y105425D01*
X-1099Y105434D01*
X-1197Y105437D01*
Y106224D01*
X-1099Y106227D01*
X-1006Y106236D01*
X-916Y106251D01*
X-831Y106271D01*
X-750Y106298D01*
X-673Y106330D01*
X-600Y106369D01*
X-532Y106413D01*
X-468Y106463D01*
X-408Y106519D01*
Y105141D01*
D02*
G37*
G36*
X12385Y105401D02*
X12457Y105341D01*
X12531Y105288D01*
X12606Y105242D01*
X12682Y105203D01*
X12760Y105172D01*
X12838Y105148D01*
X12918Y105131D01*
X12999Y105121D01*
X13081Y105118D01*
X12106Y104144D01*
X12104Y104226D01*
X12094Y104307D01*
X12077Y104386D01*
X12052Y104465D01*
X12021Y104542D01*
X11982Y104618D01*
X11937Y104693D01*
X11884Y104767D01*
X11824Y104840D01*
X11757Y104911D01*
X12314Y105468D01*
X12385Y105401D01*
D02*
G37*
G36*
X25649Y98642D02*
X25599Y98578D01*
X25554Y98509D01*
X25516Y98436D01*
X25484Y98359D01*
X25457Y98278D01*
X25437Y98193D01*
X25422Y98103D01*
X25413Y98010D01*
X25410Y97912D01*
X24623Y97908D01*
X24620Y98006D01*
X24611Y98100D01*
X24596Y98190D01*
X24576Y98275D01*
X24549Y98356D01*
X24516Y98433D01*
X24478Y98505D01*
X24433Y98573D01*
X24383Y98637D01*
X24327Y98697D01*
X25705Y98702D01*
X25649Y98642D01*
D02*
G37*
G36*
X318563Y92096D02*
X318635Y92036D01*
X318709Y91983D01*
X318784Y91937D01*
X318860Y91899D01*
X318937Y91867D01*
X319016Y91843D01*
X319096Y91826D01*
X319177Y91816D01*
X319259Y91813D01*
X318284Y90839D01*
X318282Y90921D01*
X318272Y91002D01*
X318254Y91082D01*
X318230Y91160D01*
X318199Y91238D01*
X318160Y91314D01*
X318115Y91389D01*
X318062Y91462D01*
X318002Y91535D01*
X317935Y91606D01*
X318491Y92163D01*
X318563Y92096D01*
D02*
G37*
G36*
X321553Y92166D02*
X321817Y91939D01*
X321870Y91904D01*
X321918Y91876D01*
X321961Y91857D01*
X321999Y91847D01*
X322031Y91845D01*
X321111Y90819D01*
X321106Y90846D01*
X321093Y90879D01*
X321071Y90918D01*
X321042Y90963D01*
X321004Y91013D01*
X320905Y91131D01*
X320695Y91351D01*
X321474Y92243D01*
X321553Y92166D01*
D02*
G37*
G36*
X67407Y78150D02*
X67347Y78206D01*
X67283Y78256D01*
X67215Y78300D01*
X67142Y78339D01*
X67065Y78371D01*
X66984Y78398D01*
X66899Y78418D01*
X66809Y78433D01*
X66716Y78442D01*
X66618Y78445D01*
Y79232D01*
X66716Y79235D01*
X66809Y79244D01*
X66899Y79259D01*
X66984Y79280D01*
X67065Y79306D01*
X67142Y79339D01*
X67215Y79377D01*
X67283Y79421D01*
X67347Y79471D01*
X67407Y79528D01*
Y78150D01*
D02*
G37*
G36*
X44924Y76905D02*
X44857Y76834D01*
X44797Y76761D01*
X44744Y76687D01*
X44698Y76612D01*
X44660Y76536D01*
X44629Y76459D01*
X44604Y76380D01*
X44587Y76301D01*
X44577Y76220D01*
X44574Y76138D01*
X43600Y77112D01*
X43682Y77115D01*
X43763Y77125D01*
X43843Y77142D01*
X43921Y77166D01*
X43999Y77197D01*
X44075Y77236D01*
X44150Y77282D01*
X44223Y77334D01*
X44296Y77394D01*
X44367Y77462D01*
X44924Y76905D01*
D02*
G37*
G36*
X483366Y116732D02*
X544551Y116732D01*
Y64862D01*
X477408D01*
X454271Y88100D01*
Y139567D01*
X460532D01*
X483366Y116732D01*
D02*
G37*
G36*
X84157Y16298D02*
X84169Y16263D01*
X84190Y16222D01*
X84218Y16175D01*
X84255Y16123D01*
X84353Y16003D01*
X84483Y15861D01*
X84561Y15782D01*
X83726Y14947D01*
X83647Y15024D01*
X83385Y15253D01*
X83333Y15290D01*
X83286Y15318D01*
X83245Y15338D01*
X83209Y15351D01*
X83179Y15354D01*
X84153Y16329D01*
X84157Y16298D01*
D02*
G37*
G36*
X444855Y324535D02*
X445185Y280314D01*
X445206Y277478D01*
X445285Y277100D01*
X445362Y276718D01*
X445364Y276715D01*
X445365Y276711D01*
X445582Y276391D01*
X445800Y276068D01*
X445805Y276060D01*
X445825Y275452D01*
X444084Y273712D01*
X443749Y273210D01*
X443632Y272619D01*
Y257579D01*
Y211122D01*
X443688Y210838D01*
X443227Y210592D01*
X443183Y210635D01*
X442677Y210845D01*
X442129D01*
X441622Y210635D01*
X441235Y210248D01*
X441025Y209741D01*
Y209193D01*
X441235Y208687D01*
X441622Y208299D01*
X442129Y208089D01*
X442677D01*
X443183Y208299D01*
X443571Y208687D01*
X443781Y209193D01*
Y209626D01*
X444118Y209836D01*
X444243Y209871D01*
X445699Y208415D01*
Y162853D01*
X445545Y162624D01*
X445428Y162032D01*
Y159860D01*
X445364Y159540D01*
Y148900D01*
X444864Y148693D01*
X444678Y148879D01*
X444172Y149088D01*
X443623D01*
X443117Y148879D01*
X442730Y148491D01*
X442520Y147985D01*
Y147436D01*
X442730Y146930D01*
X443117Y146542D01*
X443623Y146333D01*
X444172D01*
X444678Y146542D01*
X444864Y146728D01*
X445364Y146521D01*
Y145630D01*
X444864Y145423D01*
X444777Y145509D01*
X444271Y145719D01*
X443723D01*
X443216Y145509D01*
X442829Y145122D01*
X442619Y144615D01*
Y144067D01*
X442829Y143561D01*
X443216Y143173D01*
X443723Y142963D01*
X444271D01*
X444777Y143173D01*
X444864Y143260D01*
X445364Y143052D01*
Y91998D01*
X445334Y91849D01*
X445364Y91701D01*
Y77467D01*
X444893Y77361D01*
X444864Y77360D01*
X444481Y77743D01*
X443975Y77953D01*
X443427D01*
X442920Y77743D01*
X442533Y77355D01*
X442323Y76849D01*
Y76301D01*
X442533Y75794D01*
X442920Y75407D01*
X443427Y75197D01*
X443975D01*
X444481Y75407D01*
X444864Y75789D01*
X444893Y75789D01*
X445364Y75683D01*
Y58834D01*
X445482Y58243D01*
X445600Y58065D01*
Y25492D01*
X445718Y24901D01*
X446053Y24399D01*
X446554Y24064D01*
X447146Y23947D01*
X447737Y24064D01*
X448239Y24399D01*
X448573Y24901D01*
X448691Y25492D01*
Y58598D01*
X448573Y59189D01*
X448455Y59367D01*
Y82574D01*
X448955Y82908D01*
X449037Y82874D01*
X449585D01*
X450092Y83084D01*
X450479Y83471D01*
X450689Y83978D01*
Y84526D01*
X450479Y85032D01*
X450092Y85420D01*
X449585Y85630D01*
X449037D01*
X448955Y85596D01*
X448455Y85930D01*
Y91849D01*
X448446Y91895D01*
X448455Y91940D01*
Y159284D01*
X448519Y159604D01*
Y161482D01*
X448672Y161712D01*
X448790Y162303D01*
Y199358D01*
X449205Y199636D01*
X449234Y199624D01*
X449782D01*
X450288Y199834D01*
X450676Y200221D01*
X450886Y200728D01*
Y201276D01*
X450676Y201783D01*
X450288Y202170D01*
X449782Y202380D01*
X449234D01*
X449205Y202368D01*
X448790Y202646D01*
Y209055D01*
X448672Y209647D01*
X448337Y210148D01*
X446723Y211762D01*
Y244788D01*
X447223Y245084D01*
X447441Y245040D01*
X452264D01*
Y11779D01*
X449603Y9118D01*
X389665D01*
Y36220D01*
X401575D01*
X405709Y40354D01*
X405709Y58661D01*
X400787Y63583D01*
X389665Y63583D01*
Y68877D01*
X397550Y76762D01*
X397884Y77263D01*
X398002Y77854D01*
X397884Y78446D01*
X397550Y78947D01*
X397048Y79282D01*
X396457Y79400D01*
X395865Y79282D01*
X395364Y78947D01*
X390127Y73711D01*
X389665Y73902D01*
Y99410D01*
X398917D01*
X405413Y103740D01*
Y123228D01*
X399409Y129232D01*
X389665D01*
Y168012D01*
X401673D01*
X406102Y172441D01*
Y191831D01*
X400886Y197047D01*
X389665Y197047D01*
X389665Y220177D01*
X400787Y220177D01*
X407185Y226575D01*
X407185Y246949D01*
X400689Y253445D01*
X390019Y253445D01*
X389665Y253798D01*
Y254477D01*
X389833Y254510D01*
X390204D01*
X390290Y254528D01*
X390628D01*
X391135Y254737D01*
X391523Y255125D01*
X391732Y255631D01*
Y256180D01*
X391523Y256686D01*
X391135Y257074D01*
X390628Y257283D01*
X390080D01*
X389665Y257561D01*
Y329339D01*
X383274Y335130D01*
X383467Y335630D01*
X383757D01*
X384626Y335989D01*
X385290Y336654D01*
X385650Y337522D01*
Y338462D01*
X385290Y339330D01*
X384626Y339995D01*
X383757Y340354D01*
X382818D01*
X381949Y339995D01*
X381285Y339330D01*
X380925Y338462D01*
Y337976D01*
X380490Y337776D01*
X380118Y338058D01*
Y338462D01*
X379759Y339330D01*
X379094Y339995D01*
X378226Y340354D01*
X377286D01*
X376418Y339995D01*
X376285Y339862D01*
X373865D01*
X373009Y340216D01*
X372070D01*
X371214Y339862D01*
X319587D01*
Y340726D01*
X319227Y341594D01*
X318563Y342259D01*
X317694Y342618D01*
X316755D01*
X315886Y342259D01*
X315222Y341594D01*
X315034Y341141D01*
X314493D01*
X314306Y341594D01*
X313641Y342259D01*
X312773Y342618D01*
X311833D01*
X310965Y342259D01*
X310301Y341594D01*
X309941Y340726D01*
X309449D01*
X309089Y341594D01*
X308425Y342259D01*
X307557Y342618D01*
X306617D01*
X305749Y342259D01*
X305084Y341594D01*
X304724Y340726D01*
Y339862D01*
X75394D01*
X75394Y340915D01*
Y344902D01*
X75676Y345184D01*
X75886Y345690D01*
Y346239D01*
X75676Y346745D01*
X75394Y347027D01*
X75394Y362106D01*
X407283D01*
X444855Y324535D01*
D02*
G37*
G36*
X475945Y57874D02*
X485723D01*
X485823Y57374D01*
X484967Y56880D01*
X484181Y56094D01*
X483626Y55132D01*
X483338Y54059D01*
Y52949D01*
X483626Y51876D01*
X484181Y50914D01*
X484967Y50128D01*
X485929Y49573D01*
X487002Y49285D01*
X488112D01*
X489185Y49573D01*
X490147Y50128D01*
X490933Y50914D01*
X491488Y51876D01*
X491776Y52949D01*
Y54059D01*
X491488Y55132D01*
X490933Y56094D01*
X490147Y56880D01*
X489291Y57374D01*
X489392Y57874D01*
X525723D01*
X525823Y57374D01*
X524967Y56880D01*
X524181Y56094D01*
X523626Y55132D01*
X523338Y54059D01*
Y52949D01*
X523626Y51876D01*
X524181Y50914D01*
X524967Y50128D01*
X525929Y49573D01*
X527002Y49285D01*
X528113D01*
X529185Y49573D01*
X530148Y50128D01*
X530933Y50914D01*
X531488Y51876D01*
X531776Y52949D01*
Y54059D01*
X531488Y55132D01*
X530933Y56094D01*
X530148Y56880D01*
X529291Y57374D01*
X529392Y57874D01*
X544551D01*
Y7382D01*
X469665D01*
X454271Y22776D01*
Y71653D01*
X462165D01*
X475945Y57874D01*
D02*
G37*
%LPC*%
G36*
X463438Y391201D02*
X463438Y391201D01*
X109193D01*
X109193Y391201D01*
X108793Y391122D01*
X108455Y390896D01*
X90305Y372746D01*
X90079Y372407D01*
X90000Y372008D01*
X90000Y372008D01*
Y369237D01*
X89832Y369070D01*
X89622Y368563D01*
Y368015D01*
X89832Y367509D01*
X90220Y367121D01*
X90726Y366911D01*
X91274D01*
X91781Y367121D01*
X92168Y367509D01*
X92378Y368015D01*
Y368563D01*
X92168Y369070D01*
X92087Y369151D01*
Y371576D01*
X109625Y389114D01*
X112772D01*
X112979Y388614D01*
X100109Y375744D01*
X99920D01*
X99413Y375534D01*
X99026Y375147D01*
X98816Y374640D01*
Y374092D01*
X99026Y373586D01*
X99413Y373198D01*
X99920Y372988D01*
X100468D01*
X100975Y373198D01*
X101362Y373586D01*
X101572Y374092D01*
Y374255D01*
X110924Y383607D01*
X111323Y383528D01*
X111463Y383439D01*
X111818Y383084D01*
X112324Y382874D01*
X112669D01*
X112998Y382477D01*
X113019Y382412D01*
X112952Y382252D01*
Y381703D01*
X113162Y381197D01*
X113549Y380809D01*
X114056Y380600D01*
X114604D01*
X115111Y380809D01*
X115498Y381197D01*
X115708Y381703D01*
Y381981D01*
X116541Y382815D01*
X456327D01*
X489409Y349732D01*
Y349556D01*
X489619Y349050D01*
X490007Y348662D01*
X490513Y348452D01*
X491061D01*
X491568Y348662D01*
X491956Y349050D01*
X492165Y349556D01*
Y350104D01*
X491956Y350611D01*
X491874Y350692D01*
X491713Y351155D01*
X491882Y351338D01*
X492097Y351553D01*
X492307Y352060D01*
Y352608D01*
X492097Y353114D01*
X491709Y353502D01*
X491203Y353712D01*
X491027D01*
X458606Y386132D01*
X458268Y386358D01*
X457868Y386437D01*
X457868Y386437D01*
X114709D01*
X114463Y386937D01*
X114624Y387145D01*
X462468D01*
X488950Y360663D01*
Y360630D01*
X489160Y360124D01*
X489548Y359736D01*
X490054Y359526D01*
X490603D01*
X491109Y359736D01*
X491497Y360124D01*
X491706Y360630D01*
Y361178D01*
X491497Y361685D01*
X491423Y361759D01*
X491121Y362085D01*
X491423Y362412D01*
X491497Y362486D01*
X491706Y362992D01*
Y363541D01*
X491497Y364047D01*
X491109Y364435D01*
X490603Y364645D01*
X490426D01*
X464176Y390896D01*
X463837Y391122D01*
X463438Y391201D01*
D02*
G37*
G36*
X453155Y381556D02*
X453155Y381556D01*
X121539D01*
X121140Y381476D01*
X120801Y381250D01*
X117406Y377855D01*
X117230D01*
X116723Y377645D01*
X116336Y377257D01*
X116126Y376751D01*
Y376203D01*
X116336Y375696D01*
X116723Y375309D01*
X117230Y375099D01*
X117325D01*
X117533Y374599D01*
X117323Y374093D01*
Y373545D01*
X117533Y373038D01*
X117920Y372651D01*
X118427Y372441D01*
X118975D01*
X119481Y372651D01*
X119869Y373038D01*
X120079Y373545D01*
Y373721D01*
X122735Y376378D01*
X451280D01*
X470342Y357315D01*
X470342Y357315D01*
X470681Y357089D01*
X471080Y357010D01*
X472063D01*
X472188Y356885D01*
X472694Y356675D01*
X473243D01*
X473749Y356885D01*
X474137Y357273D01*
X474346Y357779D01*
Y358328D01*
X474137Y358834D01*
X474055Y358916D01*
X473894Y359378D01*
X474063Y359561D01*
X474278Y359776D01*
X474488Y360283D01*
Y360831D01*
X474278Y361337D01*
X473890Y361725D01*
X473384Y361935D01*
X473208D01*
X453893Y381250D01*
X453554Y381476D01*
X453155Y381556D01*
D02*
G37*
G36*
X446533Y346358D02*
X445593D01*
X444725Y345999D01*
X444060Y345334D01*
X443922Y345000D01*
X443381D01*
X443243Y345334D01*
X442578Y345999D01*
X441710Y346358D01*
X440770D01*
X439902Y345999D01*
X439238Y345334D01*
X438878Y344466D01*
Y343526D01*
X439238Y342658D01*
X439902Y341993D01*
X440770Y341634D01*
X441710D01*
X442578Y341993D01*
X443243Y342658D01*
X443381Y342992D01*
X443922D01*
X444060Y342658D01*
X444725Y341993D01*
X445593Y341634D01*
X446533D01*
X447401Y341993D01*
X448066Y342658D01*
X448425Y343526D01*
Y344466D01*
X448066Y345334D01*
X447401Y345999D01*
X446533Y346358D01*
D02*
G37*
G36*
X449902Y375453D02*
X449901Y375453D01*
X181693D01*
X181293Y375374D01*
X180955Y375147D01*
X180955Y375147D01*
X174902Y369094D01*
X174726D01*
X174220Y368885D01*
X173832Y368497D01*
X173622Y367991D01*
Y367442D01*
X173832Y366936D01*
X174220Y366548D01*
X174726Y366339D01*
X175274D01*
X175780Y366548D01*
X176168Y366936D01*
X176378Y367442D01*
Y367618D01*
X182125Y373366D01*
X449469D01*
X476901Y345934D01*
X477240Y345708D01*
X477639Y345628D01*
X479038D01*
X479389Y345278D01*
X479845Y345089D01*
X479895Y344916D01*
X479894Y344568D01*
X479876Y344561D01*
X479752Y344437D01*
X476626D01*
X449360Y371703D01*
X449021Y371929D01*
X448622Y372008D01*
X448622Y372008D01*
X199705D01*
X199705Y372008D01*
X199305Y371929D01*
X198967Y371703D01*
X198967Y371703D01*
X195177Y367913D01*
X195001D01*
X194495Y367704D01*
X194107Y367316D01*
X193898Y366810D01*
Y366261D01*
X194107Y365755D01*
X194495Y365367D01*
X195001Y365158D01*
X195550D01*
X196056Y365367D01*
X196444Y365755D01*
X196653Y366261D01*
Y366437D01*
X200137Y369921D01*
X448190D01*
X475456Y342655D01*
X475456Y342655D01*
X475794Y342429D01*
X476194Y342349D01*
X479752D01*
X479876Y342225D01*
X480382Y342015D01*
X480931D01*
X481437Y342225D01*
X481825Y342612D01*
X482035Y343119D01*
Y343667D01*
X481825Y344173D01*
X481437Y344561D01*
X480981Y344750D01*
X480931Y344923D01*
X480932Y345270D01*
X480950Y345278D01*
X481338Y345666D01*
X481547Y346172D01*
Y346720D01*
X481338Y347227D01*
X480950Y347614D01*
X480443Y347824D01*
X479895D01*
X479634Y347716D01*
X478071D01*
X450640Y375147D01*
X450301Y375374D01*
X449902Y375453D01*
D02*
G37*
G36*
X436395Y346358D02*
X435455D01*
X434587Y345999D01*
X433923Y345334D01*
X433563Y344466D01*
Y343526D01*
X433923Y342658D01*
X434587Y341993D01*
X435455Y341634D01*
X436395D01*
X437263Y341993D01*
X437928Y342658D01*
X438287Y343526D01*
Y344466D01*
X437928Y345334D01*
X437263Y345999D01*
X436395Y346358D01*
D02*
G37*
G36*
X494561Y338209D02*
X494013D01*
X493507Y337999D01*
X493119Y337611D01*
X492909Y337105D01*
Y336557D01*
X493119Y336050D01*
X493507Y335663D01*
X494013Y335453D01*
X494561D01*
X495068Y335663D01*
X495455Y336050D01*
X495665Y336557D01*
Y337105D01*
X495455Y337611D01*
X495068Y337999D01*
X494561Y338209D01*
D02*
G37*
G36*
X471632Y336319D02*
X471084D01*
X470578Y336109D01*
X470190Y335721D01*
X469980Y335215D01*
Y334667D01*
X470190Y334160D01*
X470253Y334098D01*
X469969Y333674D01*
X469762Y333760D01*
X469214D01*
X468708Y333550D01*
X468320Y333162D01*
X468110Y332656D01*
Y332108D01*
X468320Y331601D01*
X468708Y331214D01*
X469214Y331004D01*
X469762D01*
X470269Y331214D01*
X470656Y331601D01*
X470866Y332108D01*
Y332656D01*
X470656Y333162D01*
X470594Y333225D01*
X470877Y333649D01*
X471084Y333563D01*
X471632D01*
X472139Y333773D01*
X472526Y334160D01*
X472736Y334667D01*
Y335215D01*
X472526Y335721D01*
X472139Y336109D01*
X471632Y336319D01*
D02*
G37*
G36*
X489054Y330863D02*
X488505D01*
X487999Y330654D01*
X487611Y330266D01*
X487402Y329760D01*
Y329211D01*
X487611Y328705D01*
X487999Y328317D01*
X488505Y328108D01*
X489054D01*
X489560Y328317D01*
X489948Y328705D01*
X490158Y329211D01*
Y329760D01*
X489948Y330266D01*
X489560Y330654D01*
X489054Y330863D01*
D02*
G37*
G36*
X491838Y327749D02*
X491290D01*
X490783Y327539D01*
X490395Y327151D01*
X490186Y326645D01*
Y326097D01*
X490395Y325590D01*
X490783Y325202D01*
X491290Y324993D01*
X491838D01*
X492344Y325202D01*
X492732Y325590D01*
X492942Y326097D01*
Y326645D01*
X492732Y327151D01*
X492344Y327539D01*
X491838Y327749D01*
D02*
G37*
G36*
X512184Y326279D02*
X511635D01*
X511129Y326070D01*
X510741Y325682D01*
X510532Y325176D01*
Y324627D01*
X510741Y324121D01*
X511129Y323733D01*
X511635Y323524D01*
X512184D01*
X512690Y323733D01*
X513078Y324121D01*
X513287Y324627D01*
Y325176D01*
X513078Y325682D01*
X512690Y326070D01*
X512184Y326279D01*
D02*
G37*
G36*
X518960Y322401D02*
X518412D01*
X517905Y322191D01*
X517518Y321803D01*
X517308Y321297D01*
Y320749D01*
X517518Y320242D01*
X517905Y319855D01*
X518412Y319645D01*
X518960D01*
X519466Y319855D01*
X519854Y320242D01*
X520064Y320749D01*
Y321297D01*
X519854Y321803D01*
X519466Y322191D01*
X518960Y322401D01*
D02*
G37*
G36*
X514841Y318110D02*
X514293D01*
X513786Y317900D01*
X513399Y317513D01*
X513189Y317006D01*
Y316458D01*
X513399Y315952D01*
X513786Y315564D01*
X514293Y315354D01*
X514841D01*
X515347Y315564D01*
X515735Y315952D01*
X515945Y316458D01*
Y317006D01*
X515735Y317513D01*
X515347Y317900D01*
X514841Y318110D01*
D02*
G37*
G36*
X528113Y282920D02*
X527002D01*
X525929Y282632D01*
X524967Y282077D01*
X524181Y281291D01*
X523626Y280329D01*
X523338Y279256D01*
Y278145D01*
X523626Y277073D01*
X524181Y276111D01*
X524967Y275325D01*
X525929Y274770D01*
X527002Y274482D01*
X528113D01*
X529185Y274770D01*
X530148Y275325D01*
X530933Y276111D01*
X531488Y277073D01*
X531776Y278145D01*
Y279256D01*
X531488Y280329D01*
X530933Y281291D01*
X530148Y282077D01*
X529185Y282632D01*
X528113Y282920D01*
D02*
G37*
G36*
X488112D02*
X487002D01*
X485929Y282632D01*
X484967Y282077D01*
X484181Y281291D01*
X483626Y280329D01*
X483338Y279256D01*
Y278145D01*
X483626Y277073D01*
X484181Y276111D01*
X484967Y275325D01*
X485929Y274770D01*
X487002Y274482D01*
X488112D01*
X489185Y274770D01*
X490147Y275325D01*
X490933Y276111D01*
X491488Y277073D01*
X491776Y278145D01*
Y279256D01*
X491488Y280329D01*
X490933Y281291D01*
X490147Y282077D01*
X489185Y282632D01*
X488112Y282920D01*
D02*
G37*
G36*
X503211Y265738D02*
X501825D01*
X500465Y265468D01*
X499184Y264937D01*
X498032Y264167D01*
X497051Y263187D01*
X496281Y262034D01*
X495751Y260753D01*
X495480Y259394D01*
Y258008D01*
X495751Y256648D01*
X496281Y255367D01*
X497051Y254215D01*
X498032Y253235D01*
X499184Y252464D01*
X500465Y251934D01*
X501825Y251663D01*
X503211D01*
X504570Y251934D01*
X505851Y252464D01*
X507004Y253235D01*
X507984Y254215D01*
X508754Y255367D01*
X509285Y256648D01*
X509555Y258008D01*
Y259394D01*
X509285Y260753D01*
X508754Y262034D01*
X507984Y263187D01*
X507004Y264167D01*
X505851Y264937D01*
X504570Y265468D01*
X503211Y265738D01*
D02*
G37*
G36*
X528113Y242919D02*
X527002D01*
X525929Y242632D01*
X524967Y242077D01*
X524181Y241291D01*
X523626Y240329D01*
X523338Y239256D01*
Y238145D01*
X523626Y237072D01*
X524181Y236110D01*
X524967Y235325D01*
X525929Y234770D01*
X527002Y234482D01*
X528113D01*
X529185Y234770D01*
X530148Y235325D01*
X530933Y236110D01*
X531488Y237072D01*
X531776Y238145D01*
Y239256D01*
X531488Y240329D01*
X530933Y241291D01*
X530148Y242077D01*
X529185Y242632D01*
X528113Y242919D01*
D02*
G37*
G36*
X488112D02*
X487002D01*
X485929Y242632D01*
X484967Y242077D01*
X484181Y241291D01*
X483626Y240329D01*
X483338Y239256D01*
Y238145D01*
X483626Y237072D01*
X484181Y236110D01*
X484967Y235325D01*
X485929Y234770D01*
X487002Y234482D01*
X488112D01*
X489185Y234770D01*
X490147Y235325D01*
X490933Y236110D01*
X491488Y237072D01*
X491776Y238145D01*
Y239256D01*
X491488Y240329D01*
X490933Y241291D01*
X490147Y242077D01*
X489185Y242632D01*
X488112Y242919D01*
D02*
G37*
%LPD*%
G36*
X113932Y385029D02*
X113865Y384958D01*
X113805Y384885D01*
X113752Y384811D01*
X113707Y384736D01*
X113668Y384660D01*
X113637Y384583D01*
X113612Y384505D01*
X113595Y384425D01*
X113585Y384344D01*
X113583Y384262D01*
X112608Y385236D01*
X112690Y385239D01*
X112771Y385249D01*
X112851Y385266D01*
X112929Y385290D01*
X113007Y385321D01*
X113083Y385360D01*
X113158Y385406D01*
X113232Y385459D01*
X113304Y385519D01*
X113375Y385586D01*
X113932Y385029D01*
D02*
G37*
G36*
X115633Y382826D02*
X115565Y382754D01*
X115506Y382681D01*
X115454Y382607D01*
X115410Y382532D01*
X115374Y382456D01*
X115346Y382379D01*
X115325Y382301D01*
X115313Y382221D01*
X115308Y382141D01*
X115311Y382060D01*
X114268Y382960D01*
X114349Y382968D01*
X114430Y382983D01*
X114509Y383005D01*
X114588Y383033D01*
X114665Y383067D01*
X114740Y383108D01*
X114815Y383156D01*
X114888Y383210D01*
X114960Y383271D01*
X115031Y383338D01*
X115633Y382826D01*
D02*
G37*
G36*
X101531Y375134D02*
X101464Y375062D01*
X101404Y374990D01*
X101351Y374916D01*
X101305Y374841D01*
X101266Y374765D01*
X101235Y374688D01*
X101210Y374609D01*
X101192Y374530D01*
X101182Y374449D01*
X101178Y374367D01*
X100213Y375350D01*
X100295Y375352D01*
X100376Y375361D01*
X100456Y375378D01*
X100534Y375402D01*
X100611Y375433D01*
X100688Y375471D01*
X100763Y375516D01*
X100836Y375569D01*
X100909Y375629D01*
X100980Y375696D01*
X101531Y375134D01*
D02*
G37*
G36*
X91437Y369762D02*
X91440Y369664D01*
X91448Y369570D01*
X91462Y369480D01*
X91482Y369394D01*
X91508Y369312D01*
X91539Y369234D01*
X91575Y369160D01*
X91618Y369090D01*
X91666Y369023D01*
X91719Y368961D01*
X90343Y369021D01*
X90401Y369079D01*
X90453Y369141D01*
X90499Y369207D01*
X90539Y369278D01*
X90573Y369354D01*
X90601Y369434D01*
X90622Y369518D01*
X90637Y369607D01*
X90646Y369701D01*
X90650Y369799D01*
X91437Y369762D01*
D02*
G37*
G36*
X489623Y364533D02*
X489695Y364473D01*
X489769Y364420D01*
X489844Y364375D01*
X489920Y364336D01*
X489997Y364305D01*
X490076Y364280D01*
X490156Y364263D01*
X490237Y364253D01*
X490319Y364251D01*
X489344Y363276D01*
X489341Y363358D01*
X489332Y363439D01*
X489315Y363519D01*
X489290Y363598D01*
X489259Y363675D01*
X489220Y363751D01*
X489175Y363826D01*
X489122Y363900D01*
X489062Y363972D01*
X488995Y364044D01*
X489551Y364600D01*
X489623Y364533D01*
D02*
G37*
G36*
X489525Y362126D02*
X489598Y362066D01*
X489672Y362015D01*
X489747Y361972D01*
X489823Y361937D01*
X489900Y361910D01*
X489978Y361891D01*
X490057Y361880D01*
X490136Y361877D01*
X490217Y361882D01*
X489349Y360813D01*
X489338Y360894D01*
X489321Y360974D01*
X489297Y361053D01*
X489268Y361131D01*
X489232Y361208D01*
X489190Y361283D01*
X489142Y361357D01*
X489087Y361431D01*
X489026Y361503D01*
X488959Y361573D01*
X489453Y362193D01*
X489525Y362126D01*
D02*
G37*
G36*
X490223Y353600D02*
X490296Y353540D01*
X490369Y353487D01*
X490444Y353442D01*
X490520Y353403D01*
X490598Y353372D01*
X490676Y353347D01*
X490756Y353330D01*
X490837Y353321D01*
X490919Y353318D01*
X489944Y352343D01*
X489942Y352426D01*
X489932Y352506D01*
X489915Y352586D01*
X489890Y352665D01*
X489859Y352742D01*
X489821Y352818D01*
X489775Y352893D01*
X489722Y352967D01*
X489662Y353039D01*
X489595Y353111D01*
X490152Y353667D01*
X490223Y353600D01*
D02*
G37*
G36*
X490082Y351097D02*
X490154Y351037D01*
X490228Y350984D01*
X490303Y350938D01*
X490379Y350900D01*
X490456Y350868D01*
X490535Y350844D01*
X490615Y350827D01*
X490695Y350817D01*
X490778Y350814D01*
X489803Y349840D01*
X489801Y349922D01*
X489790Y350003D01*
X489774Y350083D01*
X489749Y350161D01*
X489718Y350238D01*
X489679Y350315D01*
X489634Y350390D01*
X489581Y350463D01*
X489521Y350536D01*
X489454Y350607D01*
X490010Y351164D01*
X490082Y351097D01*
D02*
G37*
G36*
X118838Y377254D02*
X118771Y377183D01*
X118711Y377110D01*
X118658Y377036D01*
X118612Y376961D01*
X118573Y376885D01*
X118542Y376808D01*
X118518Y376729D01*
X118501Y376650D01*
X118491Y376569D01*
X118488Y376487D01*
X117514Y377461D01*
X117596Y377464D01*
X117677Y377474D01*
X117756Y377491D01*
X117835Y377515D01*
X117912Y377546D01*
X117988Y377585D01*
X118063Y377630D01*
X118137Y377683D01*
X118210Y377743D01*
X118281Y377811D01*
X118838Y377254D01*
D02*
G37*
G36*
X120035Y374596D02*
X119967Y374525D01*
X119907Y374452D01*
X119855Y374378D01*
X119809Y374303D01*
X119770Y374227D01*
X119739Y374150D01*
X119715Y374071D01*
X119698Y373992D01*
X119688Y373911D01*
X119685Y373829D01*
X118711Y374803D01*
X118793Y374806D01*
X118874Y374816D01*
X118953Y374833D01*
X119032Y374857D01*
X119109Y374888D01*
X119185Y374927D01*
X119260Y374973D01*
X119334Y375026D01*
X119406Y375086D01*
X119478Y375153D01*
X120035Y374596D01*
D02*
G37*
G36*
X472404Y361824D02*
X472476Y361764D01*
X472550Y361711D01*
X472625Y361665D01*
X472701Y361626D01*
X472779Y361595D01*
X472857Y361571D01*
X472937Y361554D01*
X473018Y361544D01*
X473100Y361541D01*
X472125Y360567D01*
X472123Y360649D01*
X472113Y360730D01*
X472096Y360809D01*
X472072Y360888D01*
X472040Y360965D01*
X472002Y361041D01*
X471956Y361116D01*
X471903Y361190D01*
X471843Y361262D01*
X471776Y361334D01*
X472333Y361891D01*
X472404Y361824D01*
D02*
G37*
G36*
X471732Y360459D02*
Y360283D01*
X471942Y359776D01*
X472023Y359695D01*
X472050Y359619D01*
X471813Y359251D01*
X471401Y359209D01*
X452451Y378159D01*
X452112Y378385D01*
X451713Y378465D01*
X451713Y378465D01*
X122303D01*
X122303Y378465D01*
X121904Y378385D01*
X121565Y378159D01*
X121565Y378159D01*
X119626Y376220D01*
X119111Y376412D01*
X119098Y376595D01*
X121971Y379468D01*
X452722D01*
X471732Y360459D01*
D02*
G37*
G36*
X472265Y357364D02*
X472205Y357420D01*
X472141Y357471D01*
X472073Y357515D01*
X472000Y357553D01*
X471923Y357586D01*
X471842Y357612D01*
X471757Y357633D01*
X471667Y357648D01*
X471574Y357657D01*
X471476Y357660D01*
Y358447D01*
X471574Y358450D01*
X471667Y358459D01*
X471757Y358474D01*
X471842Y358494D01*
X471923Y358521D01*
X472000Y358553D01*
X472073Y358592D01*
X472141Y358636D01*
X472205Y358686D01*
X472265Y358742D01*
Y357364D01*
D02*
G37*
G36*
X176334Y368494D02*
X176267Y368422D01*
X176207Y368350D01*
X176154Y368276D01*
X176108Y368201D01*
X176069Y368125D01*
X176038Y368048D01*
X176014Y367969D01*
X175997Y367889D01*
X175987Y367809D01*
X175984Y367726D01*
X175010Y368701D01*
X175092Y368704D01*
X175173Y368713D01*
X175252Y368730D01*
X175331Y368755D01*
X175408Y368786D01*
X175485Y368825D01*
X175559Y368870D01*
X175633Y368923D01*
X175706Y368983D01*
X175777Y369050D01*
X176334Y368494D01*
D02*
G37*
G36*
X196609Y367313D02*
X196542Y367241D01*
X196482Y367169D01*
X196429Y367095D01*
X196384Y367020D01*
X196345Y366944D01*
X196314Y366866D01*
X196290Y366788D01*
X196273Y366708D01*
X196263Y366627D01*
X196260Y366545D01*
X195285Y367520D01*
X195368Y367522D01*
X195448Y367532D01*
X195528Y367549D01*
X195607Y367574D01*
X195684Y367605D01*
X195760Y367643D01*
X195835Y367689D01*
X195909Y367742D01*
X195981Y367802D01*
X196053Y367869D01*
X196609Y367313D01*
D02*
G37*
G36*
X479327Y345937D02*
X479283Y346002D01*
X479232Y346060D01*
X479176Y346111D01*
X479113Y346155D01*
X479044Y346193D01*
X478969Y346224D01*
X478889Y346248D01*
X478801Y346265D01*
X478708Y346275D01*
X478609Y346278D01*
X478814Y347066D01*
X478911Y347068D01*
X479096Y347085D01*
X479184Y347100D01*
X479268Y347119D01*
X479350Y347142D01*
X479428Y347170D01*
X479503Y347202D01*
X479575Y347238D01*
X479643Y347278D01*
X479327Y345937D01*
D02*
G37*
G36*
X479954Y342704D02*
X479894Y342760D01*
X479830Y342810D01*
X479761Y342854D01*
X479688Y342893D01*
X479612Y342925D01*
X479530Y342952D01*
X479445Y342973D01*
X479356Y342987D01*
X479262Y342996D01*
X479164Y342999D01*
Y343787D01*
X479262Y343790D01*
X479356Y343798D01*
X479445Y343813D01*
X479530Y343834D01*
X479612Y343860D01*
X479688Y343893D01*
X479761Y343931D01*
X479830Y343975D01*
X479894Y344026D01*
X479954Y344082D01*
Y342704D01*
D02*
G37*
%LPC*%
G36*
X40825Y346039D02*
X40277D01*
X39771Y345830D01*
X39383Y345442D01*
X39173Y344935D01*
Y344387D01*
X39383Y343881D01*
X39771Y343493D01*
X40277Y343284D01*
X40825D01*
X41332Y343493D01*
X41719Y343881D01*
X41929Y344387D01*
Y344935D01*
X41719Y345442D01*
X41332Y345830D01*
X40825Y346039D01*
D02*
G37*
G36*
X46761Y346039D02*
X46213D01*
X45706Y345830D01*
X45318Y345442D01*
X45109Y344935D01*
Y344387D01*
X45318Y343881D01*
X45706Y343493D01*
X46213Y343283D01*
X46761D01*
X47267Y343493D01*
X47655Y343881D01*
X47865Y344387D01*
Y344935D01*
X47655Y345442D01*
X47267Y345830D01*
X46761Y346039D01*
D02*
G37*
G36*
X49486Y342657D02*
X48546D01*
X47678Y342298D01*
X47013Y341633D01*
X46654Y340765D01*
Y339825D01*
X47013Y338957D01*
X47678Y338293D01*
X48546Y337933D01*
X49486D01*
X50354Y338293D01*
X51018Y338957D01*
X51378Y339825D01*
Y340765D01*
X51018Y341633D01*
X50354Y342298D01*
X49486Y342657D01*
D02*
G37*
G36*
X158640Y334547D02*
X158092D01*
X157586Y334337D01*
X157198Y333950D01*
X156988Y333443D01*
Y332895D01*
X157198Y332389D01*
X157586Y332001D01*
X158092Y331791D01*
X158640D01*
X159147Y332001D01*
X159534Y332389D01*
X159744Y332895D01*
Y333443D01*
X159534Y333950D01*
X159147Y334337D01*
X158640Y334547D01*
D02*
G37*
G36*
X68680Y334492D02*
X68131D01*
X67625Y334282D01*
X67237Y333895D01*
X67028Y333388D01*
Y332840D01*
X67237Y332334D01*
X67625Y331946D01*
X68131Y331736D01*
X68680D01*
X69186Y331946D01*
X69574Y332334D01*
X69784Y332840D01*
Y333388D01*
X69574Y333895D01*
X69186Y334282D01*
X68680Y334492D01*
D02*
G37*
G36*
X17006Y333760D02*
X16458D01*
X15952Y333550D01*
X15564Y333162D01*
X15354Y332656D01*
Y332108D01*
X15564Y331601D01*
X15952Y331214D01*
X16458Y331004D01*
X17006D01*
X17513Y331214D01*
X17900Y331601D01*
X18110Y332108D01*
Y332656D01*
X17900Y333162D01*
X17513Y333550D01*
X17006Y333760D01*
D02*
G37*
G36*
X233608Y333629D02*
X233060D01*
X232554Y333419D01*
X232166Y333032D01*
X231956Y332525D01*
Y331977D01*
X232166Y331471D01*
X232554Y331083D01*
X233060Y330873D01*
X233608D01*
X234115Y331083D01*
X234503Y331471D01*
X234712Y331977D01*
Y332525D01*
X234503Y333032D01*
X234115Y333419D01*
X233608Y333629D01*
D02*
G37*
G36*
X204900Y332874D02*
X204352D01*
X203845Y332664D01*
X203458Y332277D01*
X203248Y331770D01*
Y331222D01*
X203458Y330715D01*
X203845Y330328D01*
X204352Y330118D01*
X204900D01*
X205406Y330328D01*
X205794Y330715D01*
X206004Y331222D01*
Y331770D01*
X205794Y332277D01*
X205406Y332664D01*
X204900Y332874D01*
D02*
G37*
G36*
X36100Y333602D02*
X35160D01*
X34292Y333243D01*
X33627Y332578D01*
X33268Y331710D01*
Y330770D01*
X33627Y329902D01*
X34292Y329238D01*
X35160Y328878D01*
X36100D01*
X36968Y329238D01*
X37633Y329902D01*
X37992Y330770D01*
Y331710D01*
X37633Y332578D01*
X36968Y333243D01*
X36100Y333602D01*
D02*
G37*
G36*
X205491Y328740D02*
X204942D01*
X204436Y328530D01*
X204048Y328143D01*
X203839Y327636D01*
Y327088D01*
X204048Y326582D01*
X204436Y326194D01*
X204942Y325984D01*
X205491D01*
X205997Y326194D01*
X206385Y326582D01*
X206594Y327088D01*
Y327636D01*
X206385Y328143D01*
X205997Y328530D01*
X205491Y328740D01*
D02*
G37*
G36*
X158640Y327658D02*
X158092D01*
X157586Y327448D01*
X157198Y327060D01*
X156988Y326554D01*
Y326005D01*
X157198Y325499D01*
X157586Y325111D01*
X158092Y324902D01*
X158640D01*
X159147Y325111D01*
X159534Y325499D01*
X159744Y326005D01*
Y326554D01*
X159534Y327060D01*
X159147Y327448D01*
X158640Y327658D01*
D02*
G37*
G36*
X68680Y327461D02*
X68131D01*
X67625Y327251D01*
X67237Y326863D01*
X67028Y326357D01*
Y325809D01*
X67237Y325302D01*
X67625Y324915D01*
X68131Y324705D01*
X68680D01*
X69186Y324915D01*
X69574Y325302D01*
X69784Y325809D01*
Y326357D01*
X69574Y326863D01*
X69186Y327251D01*
X68680Y327461D01*
D02*
G37*
G36*
X131180Y321260D02*
X130631D01*
X130125Y321050D01*
X129737Y320662D01*
X129528Y320156D01*
Y319608D01*
X129737Y319101D01*
X130125Y318714D01*
X130631Y318504D01*
X131180D01*
X131686Y318714D01*
X132074Y319101D01*
X132283Y319608D01*
Y320156D01*
X132074Y320662D01*
X131686Y321050D01*
X131180Y321260D01*
D02*
G37*
G36*
X121516Y321313D02*
X120967D01*
X120461Y321103D01*
X120073Y320715D01*
X119863Y320209D01*
Y319661D01*
X120073Y319154D01*
X120461Y318767D01*
X120967Y318557D01*
X121516D01*
X122022Y318767D01*
X122409Y319154D01*
X122445Y319241D01*
X122987D01*
X123044Y319101D01*
X123432Y318714D01*
X123939Y318504D01*
X124487D01*
X124993Y318714D01*
X125381Y319101D01*
X125591Y319608D01*
Y320156D01*
X125381Y320662D01*
X124993Y321050D01*
X124487Y321260D01*
X123939D01*
X123432Y321050D01*
X123044Y320662D01*
X123009Y320576D01*
X122467D01*
X122409Y320715D01*
X122022Y321103D01*
X121516Y321313D01*
D02*
G37*
G36*
X103002Y325443D02*
X95423D01*
Y317864D01*
X103002D01*
Y325443D01*
D02*
G37*
G36*
X234820Y321260D02*
X233880D01*
X233012Y320900D01*
X232348Y320236D01*
X231988Y319368D01*
Y318428D01*
X232348Y317560D01*
X233012Y316895D01*
X233880Y316535D01*
X234820D01*
X235688Y316895D01*
X236353Y317560D01*
X236713Y318428D01*
Y319368D01*
X236353Y320236D01*
X235688Y320900D01*
X234820Y321260D01*
D02*
G37*
G36*
X188954Y321161D02*
X188014D01*
X187146Y320802D01*
X186482Y320137D01*
X186122Y319269D01*
Y318329D01*
X186482Y317461D01*
X187146Y316797D01*
X188014Y316437D01*
X188954D01*
X189822Y316797D01*
X190487Y317461D01*
X190847Y318329D01*
Y319269D01*
X190487Y320137D01*
X189822Y320802D01*
X188954Y321161D01*
D02*
G37*
G36*
X104980Y310486D02*
X104432D01*
X103925Y310276D01*
X103538Y309889D01*
X103498Y309794D01*
X102957D01*
X102940Y309836D01*
X102552Y310223D01*
X102046Y310433D01*
X101498D01*
X100991Y310223D01*
X100603Y309836D01*
X100394Y309329D01*
Y308781D01*
X100603Y308275D01*
X100991Y307887D01*
X101498Y307677D01*
X102046D01*
X102552Y307887D01*
X102940Y308275D01*
X102979Y308369D01*
X103520D01*
X103538Y308328D01*
X103925Y307940D01*
X104432Y307730D01*
X104980D01*
X105487Y307940D01*
X105874Y308328D01*
X106084Y308834D01*
Y309382D01*
X105874Y309889D01*
X105487Y310276D01*
X104980Y310486D01*
D02*
G37*
G36*
X147911Y313386D02*
X146971D01*
X146103Y313026D01*
X145438Y312362D01*
X145079Y311493D01*
Y310554D01*
X145438Y309685D01*
X146103Y309021D01*
X146971Y308661D01*
X147911D01*
X148779Y309021D01*
X149443Y309685D01*
X149803Y310554D01*
Y311493D01*
X149443Y312362D01*
X148779Y313026D01*
X147911Y313386D01*
D02*
G37*
G36*
X180833Y310938D02*
X180285D01*
X179779Y310728D01*
X179391Y310341D01*
X179181Y309834D01*
Y309286D01*
X179391Y308780D01*
X179779Y308392D01*
X180285Y308182D01*
X180833D01*
X181340Y308392D01*
X181727Y308780D01*
X181937Y309286D01*
Y309834D01*
X181727Y310341D01*
X181340Y310728D01*
X180833Y310938D01*
D02*
G37*
G36*
X142991Y307087D02*
X142443D01*
X141936Y306877D01*
X141548Y306489D01*
X141339Y305983D01*
Y305435D01*
X141548Y304928D01*
X141936Y304540D01*
X142443Y304331D01*
X142991D01*
X143497Y304540D01*
X143885Y304928D01*
X144095Y305435D01*
Y305983D01*
X143885Y306489D01*
X143497Y306877D01*
X142991Y307087D01*
D02*
G37*
G36*
X180833Y306496D02*
X180285D01*
X179779Y306286D01*
X179391Y305899D01*
X179181Y305392D01*
Y304844D01*
X179391Y304338D01*
X179779Y303950D01*
X179988Y303863D01*
Y303322D01*
X179779Y303235D01*
X179391Y302848D01*
X179181Y302341D01*
Y301793D01*
X179391Y301286D01*
X179779Y300899D01*
X180285Y300689D01*
X180833D01*
X181340Y300899D01*
X181727Y301286D01*
X181937Y301793D01*
Y302341D01*
X181727Y302848D01*
X181340Y303235D01*
X181130Y303322D01*
Y303863D01*
X181340Y303950D01*
X181727Y304338D01*
X181937Y304844D01*
Y305392D01*
X181727Y305899D01*
X181340Y306286D01*
X180833Y306496D01*
D02*
G37*
G36*
X107244Y302514D02*
X106696D01*
X106189Y302304D01*
X105801Y301916D01*
X105592Y301410D01*
Y300862D01*
X105801Y300355D01*
X106189Y299967D01*
X106696Y299758D01*
X107244D01*
X107750Y299967D01*
X108138Y300355D01*
X108348Y300862D01*
Y301410D01*
X108138Y301916D01*
X107750Y302304D01*
X107244Y302514D01*
D02*
G37*
G36*
X21072Y300632D02*
X20523D01*
X20017Y300422D01*
X19629Y300034D01*
X19420Y299528D01*
Y298979D01*
X19629Y298473D01*
X20017Y298085D01*
X20523Y297876D01*
X21072D01*
X21578Y298085D01*
X21966Y298473D01*
X22175Y298979D01*
Y299528D01*
X21966Y300034D01*
X21578Y300422D01*
X21072Y300632D01*
D02*
G37*
G36*
X75403Y300492D02*
X74855D01*
X74349Y300282D01*
X73961Y299895D01*
X73751Y299388D01*
Y298840D01*
X73961Y298334D01*
X74349Y297946D01*
X74855Y297736D01*
X75403D01*
X75910Y297946D01*
X76297Y298334D01*
X76507Y298840D01*
Y299388D01*
X76297Y299895D01*
X75910Y300282D01*
X75403Y300492D01*
D02*
G37*
G36*
X105884Y298917D02*
X105336D01*
X104830Y298708D01*
X104442Y298320D01*
X104232Y297814D01*
Y297265D01*
X104442Y296759D01*
X104830Y296371D01*
X105336Y296161D01*
X105884D01*
X106391Y296371D01*
X106778Y296759D01*
X106988Y297265D01*
Y297814D01*
X106778Y298320D01*
X106391Y298708D01*
X105884Y298917D01*
D02*
G37*
G36*
X180833Y298537D02*
X180285D01*
X179779Y298327D01*
X179391Y297939D01*
X179181Y297433D01*
Y296884D01*
X179391Y296378D01*
X179779Y295990D01*
X180285Y295781D01*
X180833D01*
X181340Y295990D01*
X181727Y296378D01*
X181937Y296884D01*
Y297433D01*
X181727Y297939D01*
X181340Y298327D01*
X180833Y298537D01*
D02*
G37*
G36*
X94959Y296654D02*
X94411D01*
X93905Y296444D01*
X93517Y296056D01*
X93307Y295550D01*
Y295002D01*
X93517Y294495D01*
X93905Y294107D01*
X94411Y293898D01*
X94959D01*
X95466Y294107D01*
X95853Y294495D01*
X96063Y295002D01*
Y295550D01*
X95853Y296056D01*
X95466Y296444D01*
X94959Y296654D01*
D02*
G37*
G36*
X245353Y299410D02*
X244805D01*
X244298Y299200D01*
X243911Y298812D01*
X243701Y298306D01*
Y297757D01*
X243911Y297251D01*
X244298Y296863D01*
X244508Y296777D01*
Y296235D01*
X244298Y296148D01*
X243911Y295761D01*
X243701Y295254D01*
Y294706D01*
X243911Y294200D01*
X244298Y293812D01*
X244805Y293602D01*
X245353D01*
X245859Y293812D01*
X246247Y294200D01*
X246457Y294706D01*
Y295254D01*
X246247Y295761D01*
X245859Y296148D01*
X245650Y296235D01*
Y296777D01*
X245859Y296863D01*
X246247Y297251D01*
X246457Y297757D01*
Y298306D01*
X246247Y298812D01*
X245859Y299200D01*
X245353Y299410D01*
D02*
G37*
G36*
X38758Y295374D02*
X38210D01*
X37704Y295164D01*
X37316Y294777D01*
X37106Y294270D01*
Y293722D01*
X37316Y293215D01*
X37704Y292828D01*
X38210Y292618D01*
X38758D01*
X39265Y292828D01*
X39652Y293215D01*
X39862Y293722D01*
Y294270D01*
X39652Y294777D01*
X39265Y295164D01*
X38758Y295374D01*
D02*
G37*
G36*
X87282Y293898D02*
X86734D01*
X86227Y293688D01*
X85840Y293300D01*
X85630Y292794D01*
Y292246D01*
X85840Y291739D01*
X86227Y291352D01*
X86734Y291142D01*
X87282D01*
X87788Y291352D01*
X88176Y291739D01*
X88386Y292246D01*
Y292794D01*
X88176Y293300D01*
X87788Y293688D01*
X87282Y293898D01*
D02*
G37*
G36*
X234820Y295866D02*
X233880D01*
X233012Y295507D01*
X232348Y294842D01*
X231988Y293974D01*
Y293034D01*
X232348Y292166D01*
X233012Y291501D01*
X233880Y291142D01*
X234820D01*
X235688Y291501D01*
X236353Y292166D01*
X236713Y293034D01*
Y293974D01*
X236353Y294842D01*
X235688Y295507D01*
X234820Y295866D01*
D02*
G37*
G36*
X188954Y295669D02*
X188014D01*
X187146Y295310D01*
X186482Y294645D01*
X186122Y293777D01*
Y292837D01*
X186482Y291969D01*
X187146Y291304D01*
X188014Y290945D01*
X188954D01*
X189822Y291304D01*
X190487Y291969D01*
X190847Y292837D01*
Y293777D01*
X190487Y294645D01*
X189822Y295310D01*
X188954Y295669D01*
D02*
G37*
G36*
X179408Y292618D02*
X178860D01*
X178353Y292408D01*
X177966Y292021D01*
X177756Y291514D01*
Y290966D01*
X177966Y290460D01*
X178353Y290072D01*
X178860Y289862D01*
X179408D01*
X179914Y290072D01*
X180302Y290460D01*
X180512Y290966D01*
Y291514D01*
X180302Y292021D01*
X179914Y292408D01*
X179408Y292618D01*
D02*
G37*
G36*
X280411Y311614D02*
X278644D01*
X276900Y311338D01*
X275220Y310792D01*
X273647Y309990D01*
X272218Y308952D01*
X270969Y307703D01*
X269931Y306275D01*
X269129Y304701D01*
X268583Y303021D01*
X268307Y301277D01*
Y299511D01*
X268583Y297766D01*
X269129Y296087D01*
X269931Y294513D01*
X270969Y293084D01*
X272218Y291835D01*
X273647Y290797D01*
X275220Y289995D01*
X276900Y289450D01*
X278644Y289173D01*
X280411D01*
X282155Y289450D01*
X283835Y289995D01*
X285408Y290797D01*
X286837Y291835D01*
X288086Y293084D01*
X289124Y294513D01*
X289926Y296087D01*
X290472Y297766D01*
X290748Y299511D01*
Y301277D01*
X290472Y303021D01*
X289926Y304701D01*
X289124Y306275D01*
X288086Y307703D01*
X286837Y308952D01*
X285408Y309990D01*
X283835Y310792D01*
X282155Y311338D01*
X280411Y311614D01*
D02*
G37*
G36*
X180833Y288694D02*
X180285D01*
X179779Y288484D01*
X179391Y288097D01*
X179181Y287590D01*
Y287042D01*
X179391Y286536D01*
X179779Y286148D01*
X180285Y285938D01*
X180833D01*
X181340Y286148D01*
X181727Y286536D01*
X181937Y287042D01*
Y287590D01*
X181727Y288097D01*
X181340Y288484D01*
X180833Y288694D01*
D02*
G37*
G36*
X214272Y285039D02*
X213723D01*
X213217Y284830D01*
X212829Y284442D01*
X212620Y283935D01*
Y283387D01*
X212829Y282881D01*
X213217Y282493D01*
X213723Y282283D01*
X214272D01*
X214778Y282493D01*
X215166Y282881D01*
X215375Y283387D01*
Y283935D01*
X215166Y284442D01*
X214778Y284830D01*
X214272Y285039D01*
D02*
G37*
G36*
X203715Y284363D02*
X203167D01*
X202660Y284154D01*
X202272Y283766D01*
X202063Y283260D01*
Y282711D01*
X202272Y282205D01*
X202660Y281817D01*
X203167Y281608D01*
X203715D01*
X204221Y281817D01*
X204609Y282205D01*
X204819Y282711D01*
Y283260D01*
X204609Y283766D01*
X204221Y284154D01*
X203715Y284363D01*
D02*
G37*
G36*
X322092Y284347D02*
X321544D01*
X321038Y284137D01*
X320650Y283750D01*
X320440Y283243D01*
Y282695D01*
X320650Y282189D01*
X321038Y281801D01*
X321544Y281591D01*
X322092D01*
X322599Y281801D01*
X322986Y282189D01*
X323196Y282695D01*
Y283243D01*
X322986Y283750D01*
X322599Y284137D01*
X322092Y284347D01*
D02*
G37*
G36*
X173109Y284744D02*
X172561D01*
X172054Y284534D01*
X171667Y284147D01*
X171457Y283640D01*
Y283092D01*
X171667Y282586D01*
X172054Y282198D01*
X172194Y282140D01*
Y281599D01*
X172152Y281582D01*
X171765Y281194D01*
X171555Y280687D01*
Y280139D01*
X171765Y279633D01*
X172152Y279245D01*
X172659Y279035D01*
X173207D01*
X173714Y279245D01*
X174101Y279633D01*
X174311Y280139D01*
Y280687D01*
X174101Y281194D01*
X173714Y281582D01*
X173574Y281640D01*
Y282181D01*
X173615Y282198D01*
X174003Y282586D01*
X174213Y283092D01*
Y283640D01*
X174003Y284147D01*
X173615Y284534D01*
X173109Y284744D01*
D02*
G37*
G36*
X337345Y272420D02*
X336797D01*
X336291Y272210D01*
X335903Y271823D01*
X335693Y271316D01*
Y270768D01*
X335903Y270261D01*
X336291Y269874D01*
X336797Y269664D01*
X337345D01*
X337852Y269874D01*
X338239Y270261D01*
X338449Y270768D01*
Y271316D01*
X338239Y271823D01*
X337852Y272210D01*
X337345Y272420D01*
D02*
G37*
G36*
X342794Y271949D02*
X342246D01*
X341739Y271739D01*
X341352Y271351D01*
X341142Y270845D01*
Y270297D01*
X341352Y269790D01*
X341739Y269403D01*
X342246Y269193D01*
X342794D01*
X343300Y269403D01*
X343688Y269790D01*
X343898Y270297D01*
Y270845D01*
X343688Y271351D01*
X343300Y271739D01*
X342794Y271949D01*
D02*
G37*
G36*
X345451Y268602D02*
X344903D01*
X344397Y268393D01*
X344009Y268005D01*
X343799Y267498D01*
Y266950D01*
X344009Y266444D01*
X344397Y266056D01*
X344903Y265846D01*
X345451D01*
X345958Y266056D01*
X346345Y266444D01*
X346555Y266950D01*
Y267498D01*
X346345Y268005D01*
X345958Y268393D01*
X345451Y268602D01*
D02*
G37*
G36*
X10609Y262500D02*
X10061D01*
X9554Y262290D01*
X9166Y261903D01*
X8957Y261396D01*
Y260848D01*
X9166Y260342D01*
X9554Y259954D01*
X10061Y259744D01*
X10609D01*
X11115Y259954D01*
X11503Y260342D01*
X11713Y260848D01*
Y261396D01*
X11503Y261903D01*
X11115Y262290D01*
X10609Y262500D01*
D02*
G37*
G36*
X10412Y257480D02*
X9864D01*
X9357Y257271D01*
X8970Y256883D01*
X8760Y256377D01*
Y255828D01*
X8970Y255322D01*
X9357Y254934D01*
X9864Y254724D01*
X10412D01*
X10918Y254934D01*
X11306Y255322D01*
X11516Y255828D01*
Y256377D01*
X11306Y256883D01*
X10918Y257271D01*
X10412Y257480D01*
D02*
G37*
G36*
X148206Y262500D02*
X147266D01*
X146398Y262140D01*
X145734Y261476D01*
X145374Y260608D01*
Y259668D01*
X145734Y258800D01*
X146398Y258135D01*
X147266Y257776D01*
X148206D01*
X149074Y258135D01*
X149739Y258800D01*
X150098Y259668D01*
Y260608D01*
X149739Y261476D01*
X149074Y262140D01*
X148206Y262500D01*
D02*
G37*
G36*
X106278Y257185D02*
X105730D01*
X105223Y256975D01*
X104836Y256588D01*
X104626Y256081D01*
Y255533D01*
X104836Y255027D01*
X105223Y254639D01*
X105730Y254429D01*
X106278D01*
X106784Y254639D01*
X107172Y255027D01*
X107382Y255533D01*
Y256081D01*
X107172Y256588D01*
X106784Y256975D01*
X106278Y257185D01*
D02*
G37*
G36*
X236101Y250492D02*
X235553D01*
X235046Y250282D01*
X234972Y250208D01*
X234646Y249907D01*
X234319Y250208D01*
X234245Y250282D01*
X233739Y250492D01*
X233190D01*
X232684Y250282D01*
X232561Y250159D01*
X232234Y249937D01*
X231908Y250159D01*
X231785Y250282D01*
X231278Y250492D01*
X230730D01*
X230223Y250282D01*
X229836Y249895D01*
X229626Y249388D01*
Y248840D01*
X229836Y248334D01*
X230223Y247946D01*
X230730Y247736D01*
X231278D01*
X231785Y247946D01*
X231908Y248069D01*
X232234Y248291D01*
X232561Y248069D01*
X232684Y247946D01*
X233190Y247736D01*
X233739D01*
X234245Y247946D01*
X234319Y248020D01*
X234646Y248322D01*
X234972Y248020D01*
X235046Y247946D01*
X235553Y247736D01*
X236101D01*
X236607Y247946D01*
X236995Y248334D01*
X237205Y248840D01*
Y249388D01*
X236995Y249895D01*
X236607Y250282D01*
X236101Y250492D01*
D02*
G37*
G36*
X346829Y252264D02*
X346281D01*
X345775Y252054D01*
X345387Y251666D01*
X345177Y251160D01*
Y250612D01*
X345387Y250105D01*
X345775Y249718D01*
X346281Y249508D01*
X346829D01*
X347336Y249718D01*
X347723Y250105D01*
X347933Y250612D01*
Y251160D01*
X347723Y251666D01*
X347336Y252054D01*
X346829Y252264D01*
D02*
G37*
G36*
X343483D02*
X342935D01*
X342428Y252054D01*
X342040Y251666D01*
X341831Y251160D01*
Y250612D01*
X342040Y250105D01*
X342428Y249718D01*
X342935Y249508D01*
X343483D01*
X343989Y249718D01*
X344377Y250105D01*
X344587Y250612D01*
Y251160D01*
X344377Y251666D01*
X343989Y252054D01*
X343483Y252264D01*
D02*
G37*
G36*
X180983Y251032D02*
X180435D01*
X179928Y250822D01*
X179541Y250434D01*
X179331Y249928D01*
Y249380D01*
X179541Y248873D01*
X179928Y248486D01*
X180435Y248276D01*
X180983D01*
X181489Y248486D01*
X181877Y248873D01*
X182087Y249380D01*
Y249928D01*
X181877Y250434D01*
X181489Y250822D01*
X180983Y251032D01*
D02*
G37*
G36*
X175214Y250965D02*
X174666D01*
X174160Y250756D01*
X173772Y250368D01*
X173562Y249862D01*
Y249313D01*
X173772Y248807D01*
X174160Y248419D01*
X174666Y248209D01*
X175214D01*
X175721Y248419D01*
X176108Y248807D01*
X176318Y249313D01*
Y249862D01*
X176108Y250368D01*
X175721Y250756D01*
X175214Y250965D01*
D02*
G37*
G36*
X203817Y250689D02*
X203269D01*
X202763Y250479D01*
X202375Y250092D01*
X202165Y249585D01*
Y249037D01*
X202375Y248531D01*
X202763Y248143D01*
X203269Y247933D01*
X203817D01*
X204324Y248143D01*
X204712Y248531D01*
X204921Y249037D01*
Y249585D01*
X204712Y250092D01*
X204324Y250479D01*
X203817Y250689D01*
D02*
G37*
G36*
X217597Y250197D02*
X217049D01*
X216542Y249987D01*
X216155Y249599D01*
X215945Y249093D01*
Y248545D01*
X216155Y248038D01*
X216542Y247651D01*
X217049Y247441D01*
X217597D01*
X218103Y247651D01*
X218491Y248038D01*
X218701Y248545D01*
Y249093D01*
X218491Y249599D01*
X218103Y249987D01*
X217597Y250197D01*
D02*
G37*
G36*
X195308Y249122D02*
X194759D01*
X194253Y248912D01*
X193865Y248525D01*
X193655Y248018D01*
Y247470D01*
X193865Y246964D01*
X194253Y246576D01*
X194759Y246366D01*
X195308D01*
X195814Y246576D01*
X196202Y246964D01*
X196411Y247470D01*
Y248018D01*
X196202Y248525D01*
X195814Y248912D01*
X195308Y249122D01*
D02*
G37*
G36*
X199782Y248228D02*
X199234D01*
X198727Y248019D01*
X198340Y247631D01*
X198130Y247125D01*
Y246576D01*
X198340Y246070D01*
X198727Y245682D01*
X199234Y245472D01*
X199782D01*
X200288Y245682D01*
X200676Y246070D01*
X200886Y246576D01*
Y247125D01*
X200676Y247631D01*
X200288Y248019D01*
X199782Y248228D01*
D02*
G37*
G36*
X304998Y244291D02*
X304450D01*
X303944Y244082D01*
X303556Y243694D01*
X303346Y243187D01*
Y242639D01*
X303556Y242133D01*
X303944Y241745D01*
X304450Y241535D01*
X304998D01*
X305505Y241745D01*
X305893Y242133D01*
X306102Y242639D01*
Y243187D01*
X305893Y243694D01*
X305505Y244082D01*
X304998Y244291D01*
D02*
G37*
G36*
X310132Y244136D02*
X309584D01*
X309078Y243926D01*
X308690Y243539D01*
X308480Y243032D01*
Y242484D01*
X308690Y241978D01*
X309078Y241590D01*
X309584Y241380D01*
X310132D01*
X310639Y241590D01*
X311026Y241978D01*
X311236Y242484D01*
Y243032D01*
X311026Y243539D01*
X310639Y243926D01*
X310132Y244136D01*
D02*
G37*
G36*
X21140Y236811D02*
X20592D01*
X20086Y236601D01*
X19698Y236214D01*
X19488Y235707D01*
Y235159D01*
X19698Y234652D01*
X20086Y234265D01*
X20592Y234055D01*
X21140D01*
X21647Y234265D01*
X22034Y234652D01*
X22244Y235159D01*
Y235707D01*
X22034Y236214D01*
X21647Y236601D01*
X21140Y236811D01*
D02*
G37*
G36*
X226258Y232754D02*
X225710D01*
X225204Y232545D01*
X224816Y232157D01*
X224606Y231650D01*
Y231102D01*
X224816Y230596D01*
X225204Y230208D01*
X225710Y229998D01*
X226258D01*
X226765Y230208D01*
X227152Y230596D01*
X227362Y231102D01*
Y231650D01*
X227152Y232157D01*
X226765Y232545D01*
X226258Y232754D01*
D02*
G37*
G36*
X180833Y231988D02*
X180285D01*
X179779Y231778D01*
X179391Y231391D01*
X179181Y230884D01*
Y230336D01*
X179391Y229830D01*
X179779Y229442D01*
X180285Y229232D01*
X180833D01*
X181340Y229442D01*
X181727Y229830D01*
X181937Y230336D01*
Y230884D01*
X181727Y231391D01*
X181340Y231778D01*
X180833Y231988D01*
D02*
G37*
G36*
X234820Y233858D02*
X233880D01*
X233012Y233499D01*
X232348Y232834D01*
X231988Y231966D01*
Y231026D01*
X232348Y230158D01*
X233012Y229493D01*
X233880Y229134D01*
X234820D01*
X235688Y229493D01*
X236353Y230158D01*
X236713Y231026D01*
Y231966D01*
X236353Y232834D01*
X235688Y233499D01*
X234820Y233858D01*
D02*
G37*
G36*
X188954Y233463D02*
X188014D01*
X187146Y233104D01*
X186482Y232439D01*
X186122Y231571D01*
Y230631D01*
X186482Y229763D01*
X187146Y229098D01*
X188014Y228739D01*
X188954D01*
X189822Y229098D01*
X190487Y229763D01*
X190847Y230631D01*
Y231571D01*
X190487Y232439D01*
X189822Y233104D01*
X188954Y233463D01*
D02*
G37*
G36*
X174042Y229048D02*
X173494D01*
X172987Y228839D01*
X172599Y228451D01*
X172390Y227944D01*
Y227396D01*
X172599Y226890D01*
X172987Y226502D01*
X173494Y226292D01*
X174042D01*
X174548Y226502D01*
X174936Y226890D01*
X175146Y227396D01*
Y227944D01*
X174936Y228451D01*
X174548Y228839D01*
X174042Y229048D01*
D02*
G37*
G36*
X173825Y225689D02*
X173277D01*
X172771Y225479D01*
X172383Y225092D01*
X172173Y224585D01*
Y224037D01*
X172383Y223531D01*
X172771Y223143D01*
X173277Y222933D01*
X173825D01*
X174332Y223143D01*
X174719Y223531D01*
X174929Y224037D01*
Y224585D01*
X174719Y225092D01*
X174332Y225479D01*
X173825Y225689D01*
D02*
G37*
G36*
X49703Y222415D02*
X49154D01*
X48648Y222205D01*
X48260Y221817D01*
X48217Y221713D01*
X27775D01*
X27651Y221837D01*
X27144Y222047D01*
X26596D01*
X26090Y221837D01*
X25702Y221450D01*
X25492Y220943D01*
Y220395D01*
X25702Y219889D01*
X26090Y219501D01*
X26596Y219291D01*
X27144D01*
X27651Y219501D01*
X27775Y219626D01*
X49061D01*
X49061Y219626D01*
X49229Y219659D01*
X49703D01*
X50209Y219869D01*
X50597Y220256D01*
X50806Y220763D01*
Y221311D01*
X50597Y221817D01*
X50209Y222205D01*
X49703Y222415D01*
D02*
G37*
G36*
X117794Y222933D02*
X117246D01*
X116739Y222723D01*
X116351Y222336D01*
X116142Y221829D01*
Y221281D01*
X116351Y220775D01*
X116739Y220387D01*
X117246Y220177D01*
X117794D01*
X118300Y220387D01*
X118688Y220775D01*
X118898Y221281D01*
Y221829D01*
X118688Y222336D01*
X118300Y222723D01*
X117794Y222933D01*
D02*
G37*
G36*
X6607Y218501D02*
X6059D01*
X5553Y218291D01*
X5165Y217904D01*
X4955Y217397D01*
Y216849D01*
X5165Y216342D01*
X5553Y215955D01*
X6059Y215745D01*
X6607D01*
X7114Y215955D01*
X7501Y216342D01*
X7711Y216849D01*
Y217397D01*
X7501Y217904D01*
X7114Y218291D01*
X6607Y218501D01*
D02*
G37*
G36*
X44600Y216352D02*
X44051D01*
X43545Y216142D01*
X43157Y215754D01*
X42947Y215248D01*
Y214700D01*
X43157Y214193D01*
X43545Y213806D01*
X44051Y213596D01*
X44600D01*
X45106Y213806D01*
X45494Y214193D01*
X45703Y214700D01*
Y215248D01*
X45494Y215754D01*
X45106Y216142D01*
X44600Y216352D01*
D02*
G37*
G36*
X245353Y218799D02*
X244805D01*
X244298Y218589D01*
X243911Y218202D01*
X243701Y217695D01*
Y217147D01*
X243911Y216641D01*
X244298Y216253D01*
X244508Y216166D01*
Y215625D01*
X244298Y215538D01*
X243911Y215151D01*
X243701Y214644D01*
Y214096D01*
X243911Y213590D01*
X244298Y213202D01*
X244805Y212992D01*
X245353D01*
X245859Y213202D01*
X246247Y213590D01*
X246457Y214096D01*
Y214644D01*
X246247Y215151D01*
X245859Y215538D01*
X245650Y215625D01*
Y216166D01*
X245859Y216253D01*
X246247Y216641D01*
X246457Y217147D01*
Y217695D01*
X246247Y218202D01*
X245859Y218589D01*
X245353Y218799D01*
D02*
G37*
G36*
X234820Y217323D02*
X233880D01*
X233012Y216963D01*
X232348Y216299D01*
X231988Y215430D01*
Y214491D01*
X232348Y213623D01*
X233012Y212958D01*
X233880Y212598D01*
X234820D01*
X235688Y212958D01*
X236353Y213623D01*
X236713Y214491D01*
Y215430D01*
X236353Y216299D01*
X235688Y216963D01*
X234820Y217323D01*
D02*
G37*
G36*
X188954Y216929D02*
X188014D01*
X187146Y216569D01*
X186482Y215905D01*
X186122Y215037D01*
Y214097D01*
X186482Y213229D01*
X187146Y212564D01*
X188014Y212205D01*
X188954D01*
X189822Y212564D01*
X190487Y213229D01*
X190847Y214097D01*
Y215037D01*
X190487Y215905D01*
X189822Y216569D01*
X188954Y216929D01*
D02*
G37*
G36*
X180833Y214961D02*
X180285D01*
X179779Y214751D01*
X179391Y214363D01*
X179181Y213857D01*
Y213309D01*
X179391Y212802D01*
X179779Y212415D01*
X180285Y212205D01*
X180833D01*
X181340Y212415D01*
X181727Y212802D01*
X181937Y213309D01*
Y213857D01*
X181727Y214363D01*
X181340Y214751D01*
X180833Y214961D01*
D02*
G37*
G36*
X6647Y214721D02*
X6098D01*
X5592Y214512D01*
X5204Y214124D01*
X4995Y213618D01*
Y213069D01*
X5204Y212563D01*
X5592Y212175D01*
X6098Y211966D01*
X6647D01*
X7153Y212175D01*
X7541Y212563D01*
X7751Y213069D01*
Y213618D01*
X7541Y214124D01*
X7153Y214512D01*
X6647Y214721D01*
D02*
G37*
G36*
X103474Y204577D02*
X95896D01*
Y198163D01*
X95434Y197971D01*
X94784Y198622D01*
Y198798D01*
X94574Y199304D01*
X94186Y199692D01*
X93680Y199902D01*
X93131D01*
X92625Y199692D01*
X92237Y199304D01*
X92028Y198798D01*
Y198249D01*
X92237Y197743D01*
X92625Y197355D01*
X93131Y197146D01*
X93308D01*
X94823Y195630D01*
X94823Y195630D01*
X95162Y195404D01*
X95561Y195325D01*
X104554D01*
X104888Y194825D01*
X104810Y194635D01*
Y194087D01*
X105020Y193581D01*
X105408Y193193D01*
X105914Y192983D01*
X106462D01*
X106969Y193193D01*
X107356Y193581D01*
X107566Y194087D01*
Y194635D01*
X107481Y194841D01*
X107480Y194849D01*
X107763Y195388D01*
X107841Y195404D01*
X108180Y195630D01*
X113984Y201434D01*
X295770D01*
X295770Y201434D01*
X296012Y201482D01*
X296286D01*
X296547Y201374D01*
X297096D01*
X297276Y201449D01*
X297603Y201514D01*
X297941Y201740D01*
X298168Y202079D01*
X298247Y202478D01*
X298200Y202717D01*
Y203026D01*
X297990Y203533D01*
X297602Y203920D01*
X297096Y204130D01*
X296547D01*
X296041Y203920D01*
X295659Y203538D01*
X295576Y203522D01*
X113552D01*
X113152Y203442D01*
X112814Y203216D01*
X112814Y203216D01*
X107009Y197412D01*
X103474D01*
Y204577D01*
D02*
G37*
G36*
X313955Y208760D02*
X313407D01*
X312901Y208550D01*
X312513Y208162D01*
X312303Y207656D01*
Y207108D01*
X312472Y206701D01*
X312450Y206482D01*
X312270Y206137D01*
X311916Y205991D01*
X311529Y205603D01*
X311395Y205281D01*
X307457Y201343D01*
X305419D01*
X305097Y201476D01*
X304549D01*
X304042Y201267D01*
X303655Y200879D01*
X303445Y200373D01*
Y199824D01*
X303655Y199318D01*
X304042Y198930D01*
X304549Y198721D01*
X305097D01*
X305419Y198854D01*
X307972D01*
X308449Y198949D01*
X308765Y199160D01*
X309330Y199102D01*
X309363Y199023D01*
X309751Y198635D01*
X310257Y198425D01*
X310806D01*
X311128Y198559D01*
X312303D01*
X312779Y198653D01*
X313183Y198923D01*
X315841Y201581D01*
X316110Y201984D01*
X316205Y202461D01*
Y206102D01*
X316110Y206579D01*
X315841Y206982D01*
X314983Y207840D01*
X314849Y208162D01*
X314462Y208550D01*
X313955Y208760D01*
D02*
G37*
G36*
X318443Y201783D02*
X317895D01*
X317388Y201573D01*
X317001Y201186D01*
X316791Y200679D01*
Y200131D01*
X317001Y199625D01*
X317388Y199237D01*
X317895Y199027D01*
X318443D01*
X318950Y199237D01*
X319337Y199625D01*
X319547Y200131D01*
Y200679D01*
X319337Y201186D01*
X318950Y201573D01*
X318443Y201783D01*
D02*
G37*
G36*
X296836Y198244D02*
X296288D01*
X295782Y198034D01*
X295394Y197647D01*
X295184Y197140D01*
Y196592D01*
X295394Y196086D01*
X295782Y195698D01*
X296288Y195488D01*
X296836D01*
X297343Y195698D01*
X297730Y196086D01*
X297940Y196592D01*
Y197140D01*
X297730Y197647D01*
X297343Y198034D01*
X296836Y198244D01*
D02*
G37*
G36*
X318978Y198002D02*
X318429D01*
X317923Y197792D01*
X317535Y197404D01*
X317326Y196898D01*
Y196350D01*
X317535Y195843D01*
X317923Y195456D01*
X318429Y195246D01*
X318978D01*
X319484Y195456D01*
X319872Y195843D01*
X320081Y196350D01*
Y196898D01*
X319872Y197404D01*
X319484Y197792D01*
X318978Y198002D01*
D02*
G37*
G36*
X147616Y199016D02*
X146676D01*
X145808Y198656D01*
X145143Y197992D01*
X144783Y197123D01*
Y196184D01*
X145143Y195316D01*
X145808Y194651D01*
X146676Y194291D01*
X147616D01*
X148484Y194651D01*
X149148Y195316D01*
X149508Y196184D01*
Y197123D01*
X149148Y197992D01*
X148484Y198656D01*
X147616Y199016D01*
D02*
G37*
G36*
X222125Y194762D02*
X221576D01*
X221070Y194553D01*
X220682Y194165D01*
X220472Y193658D01*
Y193110D01*
X220682Y192604D01*
X221070Y192216D01*
X221576Y192006D01*
X222125D01*
X222631Y192216D01*
X223019Y192604D01*
X223228Y193110D01*
Y193658D01*
X223019Y194165D01*
X222631Y194553D01*
X222125Y194762D01*
D02*
G37*
G36*
X86790Y191929D02*
X86242D01*
X85735Y191719D01*
X85348Y191332D01*
X85138Y190825D01*
Y190277D01*
X85348Y189771D01*
X85735Y189383D01*
X86242Y189173D01*
X86790D01*
X87296Y189383D01*
X87684Y189771D01*
X87894Y190277D01*
Y190825D01*
X87684Y191332D01*
X87296Y191719D01*
X86790Y191929D01*
D02*
G37*
G36*
X102046Y188976D02*
X101498D01*
X100991Y188767D01*
X100603Y188379D01*
X100394Y187873D01*
Y187324D01*
X100603Y186818D01*
X100991Y186430D01*
X101498Y186221D01*
X102046D01*
X102552Y186430D01*
X102940Y186818D01*
X103150Y187324D01*
Y187873D01*
X102940Y188379D01*
X102552Y188767D01*
X102046Y188976D01*
D02*
G37*
G36*
X211298Y187795D02*
X210750D01*
X210243Y187585D01*
X209856Y187198D01*
X209646Y186691D01*
Y186143D01*
X209856Y185637D01*
X210243Y185249D01*
X210750Y185039D01*
X211298D01*
X211804Y185249D01*
X212192Y185637D01*
X212402Y186143D01*
Y186691D01*
X212192Y187198D01*
X211804Y187585D01*
X211298Y187795D01*
D02*
G37*
G36*
X234820Y187500D02*
X233880D01*
X233012Y187140D01*
X232348Y186476D01*
X231988Y185608D01*
Y184668D01*
X232348Y183800D01*
X233012Y183135D01*
X233880Y182776D01*
X234820D01*
X235688Y183135D01*
X236353Y183800D01*
X236713Y184668D01*
Y185608D01*
X236353Y186476D01*
X235688Y187140D01*
X234820Y187500D01*
D02*
G37*
G36*
X96319Y187553D02*
X95770D01*
X95264Y187343D01*
X94876Y186955D01*
X94667Y186449D01*
Y185901D01*
X94806Y185565D01*
X94586Y185131D01*
X94513Y185065D01*
X94381D01*
X93875Y184855D01*
X93488Y184468D01*
X93278Y183961D01*
Y183413D01*
X93488Y182907D01*
X93875Y182519D01*
X94381Y182309D01*
X94930D01*
X95436Y182519D01*
X95824Y182907D01*
X96034Y183413D01*
Y183961D01*
X95894Y184297D01*
X96114Y184731D01*
X96187Y184797D01*
X96319D01*
X96825Y185007D01*
X97213Y185394D01*
X97422Y185901D01*
Y186449D01*
X97213Y186955D01*
X96825Y187343D01*
X96319Y187553D01*
D02*
G37*
G36*
X48798Y180785D02*
X48250D01*
X47743Y180575D01*
X47355Y180187D01*
X47146Y179681D01*
Y179133D01*
X47355Y178626D01*
X47743Y178238D01*
X48250Y178029D01*
X48798D01*
X49304Y178238D01*
X49692Y178626D01*
X49902Y179133D01*
Y179681D01*
X49692Y180187D01*
X49304Y180575D01*
X48798Y180785D01*
D02*
G37*
G36*
X208496Y180235D02*
X207948D01*
X207442Y180025D01*
X207054Y179638D01*
X206844Y179131D01*
Y178583D01*
X207054Y178077D01*
X207442Y177689D01*
X207948Y177479D01*
X208496D01*
X209003Y177689D01*
X209390Y178077D01*
X209600Y178583D01*
Y179131D01*
X209390Y179638D01*
X209003Y180025D01*
X208496Y180235D01*
D02*
G37*
G36*
X303522Y179626D02*
X302974D01*
X302467Y179416D01*
X302080Y179029D01*
X301870Y178522D01*
Y177974D01*
X302080Y177468D01*
X302467Y177080D01*
X302974Y176870D01*
X303522D01*
X304029Y177080D01*
X304416Y177468D01*
X304626Y177974D01*
Y178522D01*
X304416Y179029D01*
X304029Y179416D01*
X303522Y179626D01*
D02*
G37*
G36*
X180833Y179429D02*
X180285D01*
X179779Y179219D01*
X179391Y178832D01*
X179181Y178325D01*
Y177777D01*
X179391Y177271D01*
X179779Y176883D01*
X180285Y176673D01*
X180833D01*
X181340Y176883D01*
X181727Y177271D01*
X181937Y177777D01*
Y178325D01*
X181727Y178832D01*
X181340Y179219D01*
X180833Y179429D01*
D02*
G37*
G36*
X344762Y177165D02*
X344214D01*
X343708Y176956D01*
X343320Y176568D01*
X343110Y176061D01*
Y175513D01*
X343320Y175007D01*
X343708Y174619D01*
X344214Y174409D01*
X344762D01*
X345269Y174619D01*
X345656Y175007D01*
X345866Y175513D01*
Y176061D01*
X345656Y176568D01*
X345269Y176956D01*
X344762Y177165D01*
D02*
G37*
G36*
X327538Y176083D02*
X326990D01*
X326483Y175873D01*
X326096Y175485D01*
X325886Y174979D01*
Y174431D01*
X326096Y173924D01*
X326483Y173537D01*
X326990Y173327D01*
X327538D01*
X328044Y173537D01*
X328432Y173924D01*
X328642Y174431D01*
Y174979D01*
X328432Y175485D01*
X328044Y175873D01*
X327538Y176083D01*
D02*
G37*
G36*
X346140Y172912D02*
X345592D01*
X345086Y172702D01*
X344698Y172315D01*
X344488Y171808D01*
Y171260D01*
X344698Y170754D01*
X345086Y170366D01*
X345592Y170156D01*
X346140D01*
X346647Y170366D01*
X347034Y170754D01*
X347244Y171260D01*
Y171808D01*
X347034Y172315D01*
X346647Y172702D01*
X346140Y172912D01*
D02*
G37*
G36*
X299016Y168278D02*
X298962D01*
X298371Y168160D01*
X298253Y168081D01*
X162303D01*
X161712Y167963D01*
X161210Y167628D01*
X160875Y167127D01*
X160855Y167027D01*
X160335Y166975D01*
X160271Y167132D01*
X159883Y167520D01*
X159377Y167729D01*
X158828D01*
X158322Y167520D01*
X157934Y167132D01*
X157724Y166626D01*
Y166077D01*
X157934Y165571D01*
X158322Y165183D01*
X158828Y164974D01*
X159377D01*
X159883Y165183D01*
X160271Y165571D01*
X160385Y165847D01*
X160608Y165891D01*
X160932Y165860D01*
X161210Y165443D01*
X161712Y165108D01*
X162303Y164990D01*
X170000D01*
X170334Y164490D01*
X170276Y164349D01*
Y163801D01*
X170485Y163294D01*
X170873Y162907D01*
X171140Y162796D01*
Y162255D01*
X171019Y162205D01*
X170631Y161817D01*
X170421Y161311D01*
Y160763D01*
X170631Y160256D01*
X171019Y159868D01*
X171525Y159659D01*
X172073D01*
X172580Y159868D01*
X172967Y160256D01*
X173177Y160763D01*
Y161311D01*
X172967Y161817D01*
X172580Y162205D01*
X172313Y162315D01*
Y162856D01*
X172434Y162907D01*
X172822Y163294D01*
X173031Y163801D01*
Y164349D01*
X172973Y164490D01*
X173307Y164990D01*
X298766D01*
X299357Y165108D01*
X299858Y165443D01*
X299948Y165532D01*
X300109Y165639D01*
X300444Y166141D01*
X300561Y166732D01*
X300444Y167324D01*
X300109Y167825D01*
X299607Y168160D01*
X299016Y168278D01*
D02*
G37*
G36*
X361790Y170571D02*
X361242D01*
X360735Y170361D01*
X360348Y169974D01*
X360138Y169467D01*
Y168919D01*
X359797Y168436D01*
X359456Y168294D01*
X359068Y167906D01*
X358858Y167400D01*
Y166852D01*
X359068Y166345D01*
X359456Y165958D01*
X359962Y165748D01*
X360510D01*
X361017Y165958D01*
X361189Y166130D01*
X361516Y166291D01*
X361842Y166130D01*
X362015Y165958D01*
X362521Y165748D01*
X363069D01*
X363576Y165958D01*
X363963Y166345D01*
X364173Y166852D01*
Y167400D01*
X363963Y167906D01*
X363576Y168294D01*
X363235Y168435D01*
X362894Y168919D01*
Y169467D01*
X362684Y169974D01*
X362296Y170361D01*
X361790Y170571D01*
D02*
G37*
G36*
X345353Y168406D02*
X344805D01*
X344298Y168196D01*
X343911Y167808D01*
X343701Y167302D01*
Y166753D01*
X343911Y166247D01*
X344298Y165859D01*
X344805Y165650D01*
X345353D01*
X345859Y165859D01*
X346247Y166247D01*
X346457Y166753D01*
Y167302D01*
X346247Y167808D01*
X345859Y168196D01*
X345353Y168406D01*
D02*
G37*
G36*
X86987Y164567D02*
X86439D01*
X85932Y164357D01*
X85808Y164233D01*
X29048D01*
X29048Y164233D01*
X28648Y164153D01*
X28310Y163927D01*
X28310Y163927D01*
X27375Y162992D01*
X27199D01*
X26692Y162782D01*
X26305Y162395D01*
X26095Y161888D01*
Y161340D01*
X26305Y160834D01*
X26692Y160446D01*
X26488Y159997D01*
X26438Y159947D01*
X26228Y159441D01*
Y158892D01*
X26438Y158386D01*
X26826Y157998D01*
X27332Y157789D01*
X27880D01*
X28387Y157998D01*
X28774Y158386D01*
X28984Y158892D01*
Y159441D01*
X28774Y159947D01*
X28387Y160335D01*
X28591Y160784D01*
X28641Y160834D01*
X28851Y161340D01*
Y161516D01*
X29480Y162145D01*
X85808D01*
X85932Y162021D01*
X86439Y161811D01*
X86987D01*
X87493Y162021D01*
X87881Y162408D01*
X88090Y162915D01*
Y163463D01*
X87881Y163970D01*
X87493Y164357D01*
X86987Y164567D01*
D02*
G37*
G36*
X322796Y166043D02*
X322248D01*
X321741Y165834D01*
X321354Y165446D01*
X321144Y164939D01*
Y164391D01*
X321354Y163885D01*
X321741Y163497D01*
X322248Y163287D01*
X322796D01*
X323302Y163497D01*
X323690Y163885D01*
X323900Y164391D01*
Y164939D01*
X323690Y165446D01*
X323302Y165834D01*
X322796Y166043D01*
D02*
G37*
G36*
X180833Y164173D02*
X180285D01*
X179779Y163963D01*
X179391Y163576D01*
X179181Y163069D01*
Y162521D01*
X179391Y162015D01*
X179779Y161627D01*
X180285Y161417D01*
X180833D01*
X181340Y161627D01*
X181727Y162015D01*
X181937Y162521D01*
Y163069D01*
X181727Y163576D01*
X181340Y163963D01*
X180833Y164173D01*
D02*
G37*
G36*
X202735Y164075D02*
X202186D01*
X201680Y163865D01*
X201292Y163477D01*
X201083Y162971D01*
Y162423D01*
X201292Y161916D01*
X201680Y161529D01*
X202186Y161319D01*
X202735D01*
X203241Y161529D01*
X203629Y161916D01*
X203839Y162423D01*
Y162971D01*
X203629Y163477D01*
X203241Y163865D01*
X202735Y164075D01*
D02*
G37*
G36*
X191022Y162795D02*
X190474D01*
X189968Y162585D01*
X189580Y162198D01*
X189370Y161691D01*
Y161143D01*
X189580Y160637D01*
X189968Y160249D01*
X190474Y160039D01*
X191022D01*
X191529Y160249D01*
X191916Y160637D01*
X192126Y161143D01*
Y161691D01*
X191916Y162198D01*
X191529Y162585D01*
X191022Y162795D01*
D02*
G37*
G36*
X299444Y162615D02*
X298896D01*
X298389Y162406D01*
X298002Y162018D01*
X297792Y161511D01*
Y160963D01*
X298002Y160457D01*
X298389Y160069D01*
X298896Y159859D01*
X299444D01*
X299950Y160069D01*
X300338Y160457D01*
X300548Y160963D01*
Y161511D01*
X300338Y162018D01*
X299950Y162406D01*
X299444Y162615D01*
D02*
G37*
G36*
X106278Y159291D02*
X105730D01*
X105223Y159081D01*
X104836Y158693D01*
X104626Y158187D01*
Y157639D01*
X104836Y157132D01*
X105223Y156744D01*
X105730Y156535D01*
X106278D01*
X106784Y156744D01*
X107172Y157132D01*
X107382Y157639D01*
Y158187D01*
X107172Y158693D01*
X106784Y159081D01*
X106278Y159291D01*
D02*
G37*
G36*
X234820Y158135D02*
X233880D01*
X233012Y157775D01*
X232348Y157111D01*
X231988Y156243D01*
Y155303D01*
X232348Y154435D01*
X233012Y153770D01*
X233880Y153411D01*
X234820D01*
X235688Y153770D01*
X236353Y154435D01*
X236713Y155303D01*
Y156243D01*
X236353Y157111D01*
X235688Y157775D01*
X234820Y158135D01*
D02*
G37*
G36*
X188954D02*
X188014D01*
X187146Y157775D01*
X186482Y157111D01*
X186122Y156243D01*
Y155303D01*
X186482Y154435D01*
X187146Y153770D01*
X188014Y153411D01*
X188954D01*
X189822Y153770D01*
X190487Y154435D01*
X190847Y155303D01*
Y156243D01*
X190487Y157111D01*
X189822Y157775D01*
X188954Y158135D01*
D02*
G37*
G36*
X245353Y158760D02*
X244805D01*
X244298Y158550D01*
X243911Y158162D01*
X243701Y157656D01*
Y157108D01*
X243911Y156601D01*
X244298Y156214D01*
X244508Y156127D01*
Y155586D01*
X244298Y155499D01*
X243911Y155111D01*
X243701Y154605D01*
Y154057D01*
X243911Y153550D01*
X244298Y153163D01*
X244805Y152953D01*
X245353D01*
X245859Y153163D01*
X246247Y153550D01*
X246457Y154057D01*
Y154605D01*
X246247Y155111D01*
X245859Y155499D01*
X245650Y155586D01*
Y156127D01*
X245859Y156214D01*
X246247Y156601D01*
X246457Y157108D01*
Y157656D01*
X246247Y158162D01*
X245859Y158550D01*
X245353Y158760D01*
D02*
G37*
G36*
X309821Y152165D02*
X309273D01*
X308767Y151956D01*
X308379Y151568D01*
X308169Y151061D01*
Y150513D01*
X308379Y150007D01*
X308767Y149619D01*
X309273Y149409D01*
X309821D01*
X310328Y149619D01*
X310715Y150007D01*
X310925Y150513D01*
Y151061D01*
X310715Y151568D01*
X310328Y151956D01*
X309821Y152165D01*
D02*
G37*
G36*
X304802D02*
X304254D01*
X303747Y151956D01*
X303359Y151568D01*
X303150Y151061D01*
Y150513D01*
X303359Y150007D01*
X303747Y149619D01*
X304254Y149409D01*
X304802D01*
X305308Y149619D01*
X305696Y150007D01*
X305906Y150513D01*
Y151061D01*
X305696Y151568D01*
X305308Y151956D01*
X304802Y152165D01*
D02*
G37*
G36*
X180833Y149803D02*
X180285D01*
X179779Y149593D01*
X179391Y149206D01*
X179181Y148699D01*
Y148151D01*
X179391Y147645D01*
X179779Y147257D01*
X180285Y147047D01*
X180833D01*
X181340Y147257D01*
X181727Y147645D01*
X181937Y148151D01*
Y148699D01*
X181727Y149206D01*
X181340Y149593D01*
X180833Y149803D01*
D02*
G37*
G36*
X204108Y146962D02*
X203560D01*
X203054Y146752D01*
X202666Y146364D01*
X202456Y145858D01*
Y145310D01*
X202666Y144803D01*
X203054Y144416D01*
X203560Y144206D01*
X204108D01*
X204615Y144416D01*
X205002Y144803D01*
X205212Y145310D01*
Y145858D01*
X205002Y146364D01*
X204615Y146752D01*
X204108Y146962D01*
D02*
G37*
G36*
X147812Y148228D02*
X146873D01*
X146004Y147869D01*
X145340Y147204D01*
X144980Y146336D01*
Y145396D01*
X145340Y144528D01*
X146004Y143864D01*
X146873Y143504D01*
X147812D01*
X148681Y143864D01*
X149345Y144528D01*
X149705Y145396D01*
Y146336D01*
X149345Y147204D01*
X148681Y147869D01*
X147812Y148228D01*
D02*
G37*
G36*
X217597Y145177D02*
X217049D01*
X216542Y144967D01*
X216155Y144580D01*
X215945Y144073D01*
Y143525D01*
X216155Y143019D01*
X216542Y142631D01*
X217049Y142421D01*
X217597D01*
X218103Y142631D01*
X218491Y143019D01*
X218701Y143525D01*
Y144073D01*
X218491Y144580D01*
X218103Y144967D01*
X217597Y145177D01*
D02*
G37*
G36*
X198896Y141043D02*
X198348D01*
X197842Y140833D01*
X197454Y140446D01*
X197244Y139939D01*
Y139391D01*
X197454Y138885D01*
X197842Y138497D01*
X198100Y138390D01*
Y137849D01*
X197940Y137782D01*
X197552Y137395D01*
X197343Y136888D01*
Y136340D01*
X197552Y135834D01*
X197940Y135446D01*
X198446Y135236D01*
X198995D01*
X199501Y135446D01*
X199889Y135834D01*
X200098Y136340D01*
Y136888D01*
X199889Y137395D01*
X199501Y137782D01*
X199242Y137890D01*
Y138431D01*
X199403Y138497D01*
X199790Y138885D01*
X200000Y139391D01*
Y139939D01*
X199790Y140446D01*
X199403Y140833D01*
X198896Y141043D01*
D02*
G37*
G36*
X218877Y131180D02*
X218328D01*
X217822Y130970D01*
X217434Y130582D01*
X217224Y130076D01*
Y129527D01*
X217434Y129021D01*
X217822Y128633D01*
X218328Y128424D01*
X218877D01*
X219383Y128633D01*
X219771Y129021D01*
X219980Y129527D01*
Y130076D01*
X219771Y130582D01*
X219383Y130970D01*
X218877Y131180D01*
D02*
G37*
G36*
X204010Y131115D02*
X203462D01*
X202955Y130905D01*
X202568Y130518D01*
X202358Y130011D01*
Y129463D01*
X202568Y128957D01*
X202955Y128569D01*
X203462Y128359D01*
X204010D01*
X204516Y128569D01*
X204904Y128957D01*
X205114Y129463D01*
Y130011D01*
X204904Y130518D01*
X204516Y130905D01*
X204010Y131115D01*
D02*
G37*
G36*
X217302Y114961D02*
X216754D01*
X216247Y114751D01*
X215859Y114363D01*
X215650Y113857D01*
Y113309D01*
X215859Y112802D01*
X216247Y112415D01*
X216754Y112205D01*
X217302D01*
X217808Y112415D01*
X218196Y112802D01*
X218406Y113309D01*
Y113857D01*
X218196Y114363D01*
X217808Y114751D01*
X217302Y114961D01*
D02*
G37*
G36*
X314466Y116377D02*
X313918D01*
X313411Y116167D01*
X313024Y115780D01*
X312814Y115273D01*
Y114725D01*
X312517Y114135D01*
X312341Y114062D01*
X311953Y113674D01*
X311743Y113168D01*
Y112992D01*
X309047Y110296D01*
X307106D01*
X306981Y110420D01*
X306475Y110630D01*
X305927D01*
X305420Y110420D01*
X305033Y110032D01*
X304823Y109526D01*
Y108978D01*
X305033Y108471D01*
X305420Y108084D01*
X305927Y107874D01*
X306475D01*
X306981Y108084D01*
X307106Y108208D01*
X309480D01*
X309480Y108208D01*
X309879Y108288D01*
X310218Y108514D01*
X310802Y109099D01*
X311302Y108891D01*
Y108742D01*
X311512Y108236D01*
X311900Y107848D01*
X312406Y107639D01*
X312954D01*
X313461Y107848D01*
X313635Y108023D01*
X314162D01*
X314162Y108023D01*
X314561Y108102D01*
X314900Y108328D01*
X315892Y109320D01*
X316060Y109268D01*
X316354Y109075D01*
Y108630D01*
X316564Y108123D01*
X316951Y107736D01*
X317458Y107526D01*
X318006D01*
X318512Y107736D01*
X318900Y108123D01*
X319110Y108630D01*
Y109178D01*
X318900Y109685D01*
X318512Y110072D01*
X318006Y110282D01*
X317458D01*
X317035Y110107D01*
X316764Y110248D01*
X316587Y110415D01*
X316595Y110456D01*
Y113896D01*
X316515Y114296D01*
X316289Y114634D01*
X316289Y114634D01*
X315513Y115410D01*
X315360Y115780D01*
X314972Y116167D01*
X314466Y116377D01*
D02*
G37*
G36*
X234820Y112795D02*
X233880D01*
X233012Y112436D01*
X232348Y111771D01*
X231988Y110903D01*
Y109963D01*
X232348Y109095D01*
X233012Y108431D01*
X233880Y108071D01*
X234820D01*
X235688Y108431D01*
X236353Y109095D01*
X236713Y109963D01*
Y110903D01*
X236353Y111771D01*
X235688Y112436D01*
X234820Y112795D01*
D02*
G37*
G36*
X212626Y109574D02*
X212078D01*
X211572Y109364D01*
X211184Y108977D01*
X210974Y108470D01*
Y107922D01*
X211184Y107415D01*
X211572Y107028D01*
X212078Y106818D01*
X212626D01*
X213133Y107028D01*
X213521Y107415D01*
X213730Y107922D01*
Y108470D01*
X213521Y108977D01*
X213133Y109364D01*
X212626Y109574D01*
D02*
G37*
G36*
X67028Y108661D02*
X66480D01*
X65973Y108452D01*
X65586Y108064D01*
X65376Y107558D01*
Y107009D01*
X65586Y106503D01*
X65973Y106115D01*
X66480Y105905D01*
X67028D01*
X67535Y106115D01*
X67922Y106503D01*
X68132Y107009D01*
Y107558D01*
X67922Y108064D01*
X67535Y108452D01*
X67028Y108661D01*
D02*
G37*
G36*
X47223Y110433D02*
X46675D01*
X46168Y110223D01*
X45781Y109836D01*
X45571Y109329D01*
Y108781D01*
X45781Y108275D01*
X45989Y108067D01*
X46086Y107697D01*
X45970Y107432D01*
X45730Y107191D01*
X45520Y106685D01*
Y106137D01*
X45730Y105630D01*
X46117Y105242D01*
X46624Y105033D01*
X47172D01*
X47678Y105242D01*
X48066Y105630D01*
X48276Y106137D01*
Y106685D01*
X48066Y107191D01*
X47858Y107399D01*
X47761Y107768D01*
X47876Y108034D01*
X48117Y108275D01*
X48327Y108781D01*
Y109329D01*
X48117Y109836D01*
X47729Y110223D01*
X47223Y110433D01*
D02*
G37*
G36*
X167892Y104331D02*
X167344D01*
X166838Y104121D01*
X166450Y103733D01*
X166240Y103227D01*
Y102679D01*
X166450Y102172D01*
X166838Y101785D01*
X167344Y101575D01*
X167892D01*
X168399Y101785D01*
X168786Y102172D01*
X168996Y102679D01*
Y103227D01*
X168786Y103733D01*
X168399Y104121D01*
X167892Y104331D01*
D02*
G37*
G36*
X171384Y104245D02*
X170836D01*
X170330Y104035D01*
X169942Y103648D01*
X169732Y103141D01*
Y102593D01*
X169942Y102087D01*
X170330Y101699D01*
X170836Y101489D01*
X171384D01*
X171891Y101699D01*
X172278Y102087D01*
X172488Y102593D01*
Y103141D01*
X172278Y103648D01*
X171891Y104035D01*
X171384Y104245D01*
D02*
G37*
G36*
X51256Y103839D02*
X50708D01*
X50201Y103629D01*
X49814Y103241D01*
X49604Y102735D01*
Y102187D01*
X49814Y101680D01*
X50201Y101293D01*
X50708Y101083D01*
X51256D01*
X51762Y101293D01*
X52150Y101680D01*
X52360Y102187D01*
Y102735D01*
X52150Y103241D01*
X51762Y103629D01*
X51256Y103839D01*
D02*
G37*
G36*
X188954Y100098D02*
X188014D01*
X187146Y99739D01*
X186482Y99074D01*
X186122Y98206D01*
Y97266D01*
X186482Y96398D01*
X187146Y95734D01*
X188014Y95374D01*
X188954D01*
X189822Y95734D01*
X190487Y96398D01*
X190847Y97266D01*
Y98206D01*
X190487Y99074D01*
X189822Y99739D01*
X188954Y100098D01*
D02*
G37*
G36*
X234637Y99966D02*
X233697D01*
X232829Y99606D01*
X232164Y98942D01*
X231805Y98073D01*
Y97134D01*
X232164Y96266D01*
X232829Y95601D01*
X233697Y95241D01*
X234637D01*
X235505Y95601D01*
X236170Y96266D01*
X236529Y97134D01*
Y98073D01*
X236170Y98942D01*
X235505Y99606D01*
X234637Y99966D01*
D02*
G37*
G36*
X22559Y97638D02*
X15866D01*
Y90945D01*
X22559D01*
Y97638D01*
D02*
G37*
G36*
X307951Y92421D02*
X307403D01*
X306897Y92212D01*
X306509Y91824D01*
X306299Y91317D01*
Y90769D01*
X306509Y90263D01*
X306897Y89875D01*
X307403Y89665D01*
X307951D01*
X308458Y89875D01*
X308845Y90263D01*
X309055Y90769D01*
Y91317D01*
X308845Y91824D01*
X308458Y92212D01*
X307951Y92421D01*
D02*
G37*
G36*
X312479Y92323D02*
X311931D01*
X311424Y92113D01*
X311036Y91725D01*
X310827Y91219D01*
Y90671D01*
X311036Y90164D01*
X311424Y89777D01*
X311931Y89567D01*
X312479D01*
X312985Y89777D01*
X313373Y90164D01*
X313583Y90671D01*
Y91219D01*
X313373Y91725D01*
X312985Y92113D01*
X312479Y92323D01*
D02*
G37*
G36*
X342700Y88750D02*
X342152D01*
X341645Y88540D01*
X341258Y88153D01*
X341048Y87646D01*
Y87098D01*
X341258Y86592D01*
X341645Y86204D01*
X342152Y85994D01*
X342700D01*
X343207Y86204D01*
X343594Y86592D01*
X343804Y87098D01*
Y87646D01*
X343594Y88153D01*
X343207Y88540D01*
X342700Y88750D01*
D02*
G37*
G36*
X93186Y89567D02*
X92247D01*
X91378Y89207D01*
X90714Y88543D01*
X90354Y87675D01*
Y86735D01*
X90714Y85867D01*
X91378Y85202D01*
X92247Y84842D01*
X93186D01*
X94055Y85202D01*
X94719Y85867D01*
X95079Y86735D01*
Y87675D01*
X94719Y88543D01*
X94055Y89207D01*
X93186Y89567D01*
D02*
G37*
G36*
X362676Y90059D02*
X362127D01*
X361621Y89849D01*
X361233Y89462D01*
X361024Y88955D01*
Y88407D01*
X361233Y87901D01*
X361307Y87827D01*
X361609Y87500D01*
X361307Y87173D01*
X361233Y87099D01*
X361024Y86593D01*
Y86045D01*
X361233Y85538D01*
X361585Y85187D01*
X361233Y84836D01*
X361024Y84329D01*
Y83781D01*
X361233Y83275D01*
X361621Y82887D01*
X362127Y82677D01*
X362676D01*
X363182Y82887D01*
X363570Y83275D01*
X363779Y83781D01*
Y84329D01*
X363570Y84836D01*
X363218Y85187D01*
X363570Y85538D01*
X363779Y86045D01*
Y86593D01*
X363570Y87099D01*
X363496Y87173D01*
X363194Y87500D01*
X363496Y87827D01*
X363570Y87901D01*
X363779Y88407D01*
Y88955D01*
X363570Y89462D01*
X363182Y89849D01*
X362676Y90059D01*
D02*
G37*
G36*
X148304Y86122D02*
X147365D01*
X146497Y85762D01*
X145832Y85098D01*
X145473Y84230D01*
Y83290D01*
X145832Y82422D01*
X146497Y81757D01*
X147365Y81398D01*
X148304D01*
X149173Y81757D01*
X149837Y82422D01*
X150197Y83290D01*
Y84230D01*
X149837Y85098D01*
X149173Y85762D01*
X148304Y86122D01*
D02*
G37*
G36*
X19653Y87638D02*
X18772D01*
X17921Y87410D01*
X17158Y86969D01*
X16535Y86346D01*
X16094Y85583D01*
X15866Y84732D01*
Y83851D01*
X16094Y83000D01*
X16535Y82237D01*
X17158Y81613D01*
X17921Y81173D01*
X18772Y80945D01*
X19653D01*
X20504Y81173D01*
X21267Y81613D01*
X21890Y82237D01*
X22331Y83000D01*
X22559Y83851D01*
Y84732D01*
X22331Y85583D01*
X21890Y86346D01*
X21267Y86969D01*
X20504Y87410D01*
X19653Y87638D01*
D02*
G37*
G36*
X245353Y84547D02*
X244805D01*
X244298Y84338D01*
X243911Y83950D01*
X243701Y83443D01*
Y82895D01*
X243911Y82389D01*
X244298Y82001D01*
X244508Y81914D01*
Y81373D01*
X244298Y81286D01*
X243911Y80899D01*
X243701Y80392D01*
Y79844D01*
X243911Y79338D01*
X244298Y78950D01*
X244805Y78740D01*
X245353D01*
X245859Y78950D01*
X246247Y79338D01*
X246457Y79844D01*
Y80392D01*
X246247Y80899D01*
X245859Y81286D01*
X245650Y81373D01*
Y81914D01*
X245859Y82001D01*
X246247Y82389D01*
X246457Y82895D01*
Y83443D01*
X246247Y83950D01*
X245859Y84338D01*
X245353Y84547D01*
D02*
G37*
G36*
X39152Y77559D02*
X38604D01*
X38097Y77349D01*
X37710Y76962D01*
X37500Y76455D01*
Y75907D01*
X37710Y75401D01*
X38097Y75013D01*
X38604Y74803D01*
X39152D01*
X39658Y75013D01*
X40046Y75401D01*
X40256Y75907D01*
Y76455D01*
X40046Y76962D01*
X39658Y77349D01*
X39152Y77559D01*
D02*
G37*
G36*
X25372Y77264D02*
X24824D01*
X24318Y77054D01*
X23930Y76666D01*
X23720Y76160D01*
Y75612D01*
X23930Y75105D01*
X24318Y74718D01*
X24824Y74508D01*
X25372D01*
X25879Y74718D01*
X26267Y75105D01*
X26476Y75612D01*
Y76160D01*
X26267Y76666D01*
X25879Y77054D01*
X25372Y77264D01*
D02*
G37*
G36*
X101357Y75689D02*
X100809D01*
X100302Y75479D01*
X99914Y75092D01*
X99705Y74585D01*
Y74037D01*
X99914Y73531D01*
X100302Y73143D01*
X100809Y72933D01*
X101357D01*
X101863Y73143D01*
X101967Y73247D01*
X102384Y73428D01*
X102620Y73247D01*
X102810Y73057D01*
X103316Y72848D01*
X103865D01*
X104371Y73057D01*
X104759Y73445D01*
X104969Y73952D01*
Y74500D01*
X104759Y75006D01*
X104371Y75394D01*
X103865Y75603D01*
X103316D01*
X102810Y75394D01*
X102706Y75290D01*
X102289Y75108D01*
X102053Y75290D01*
X101863Y75479D01*
X101357Y75689D01*
D02*
G37*
G36*
X322458Y75552D02*
X321910D01*
X321403Y75343D01*
X321016Y74955D01*
X320806Y74449D01*
Y73900D01*
X321016Y73394D01*
X321403Y73006D01*
X321910Y72796D01*
X322458D01*
X322964Y73006D01*
X323352Y73394D01*
X323562Y73900D01*
Y74449D01*
X323352Y74955D01*
X322964Y75343D01*
X322458Y75552D01*
D02*
G37*
G36*
X19653Y77638D02*
X18772D01*
X17921Y77410D01*
X17158Y76969D01*
X16535Y76346D01*
X16094Y75583D01*
X15866Y74732D01*
Y73851D01*
X16094Y73000D01*
X16535Y72237D01*
X17158Y71614D01*
X17921Y71173D01*
X18772Y70945D01*
X19653D01*
X20504Y71173D01*
X21267Y71614D01*
X21890Y72237D01*
X22331Y73000D01*
X22559Y73851D01*
Y74732D01*
X22331Y75583D01*
X21890Y76346D01*
X21267Y76969D01*
X20504Y77410D01*
X19653Y77638D01*
D02*
G37*
G36*
X190628Y73130D02*
X190080D01*
X189574Y72920D01*
X189186Y72532D01*
X188976Y72026D01*
Y71478D01*
X189186Y70971D01*
X189574Y70584D01*
X190080Y70374D01*
X190628D01*
X191135Y70584D01*
X191523Y70971D01*
X191732Y71478D01*
Y72026D01*
X191523Y72532D01*
X191135Y72920D01*
X190628Y73130D01*
D02*
G37*
G36*
X299588Y73118D02*
X299040D01*
X298534Y72908D01*
X298146Y72520D01*
X297936Y72014D01*
Y71466D01*
X298146Y70959D01*
X298534Y70572D01*
X299040Y70362D01*
X299588D01*
X300095Y70572D01*
X300482Y70959D01*
X300692Y71466D01*
Y72014D01*
X300482Y72520D01*
X300095Y72908D01*
X299588Y73118D01*
D02*
G37*
G36*
X67907Y72979D02*
X67359D01*
X66853Y72769D01*
X66465Y72382D01*
X66255Y71875D01*
Y71327D01*
X66465Y70821D01*
X66853Y70433D01*
X67359Y70223D01*
X67907D01*
X68414Y70433D01*
X68801Y70821D01*
X69011Y71327D01*
Y71875D01*
X68801Y72382D01*
X68414Y72769D01*
X67907Y72979D01*
D02*
G37*
G36*
X362676Y76279D02*
X362127D01*
X361621Y76070D01*
X361233Y75682D01*
X361024Y75176D01*
Y74628D01*
X361233Y74121D01*
X361621Y73733D01*
X361712Y73696D01*
Y73155D01*
X361621Y73117D01*
X361233Y72729D01*
X361024Y72223D01*
Y71675D01*
X361233Y71168D01*
X361621Y70781D01*
Y70263D01*
X361233Y69875D01*
X361024Y69369D01*
Y68820D01*
X361233Y68314D01*
X361621Y67926D01*
X362127Y67716D01*
X362676D01*
X363182Y67926D01*
X363570Y68314D01*
X363779Y68820D01*
Y69369D01*
X363570Y69875D01*
X363182Y70263D01*
Y70781D01*
X363570Y71168D01*
X363779Y71675D01*
Y72223D01*
X363570Y72729D01*
X363182Y73117D01*
X363091Y73155D01*
Y73696D01*
X363182Y73733D01*
X363570Y74121D01*
X363779Y74628D01*
Y75176D01*
X363570Y75682D01*
X363182Y76070D01*
X362676Y76279D01*
D02*
G37*
G36*
X95658Y68435D02*
X95110D01*
X94604Y68225D01*
X94216Y67837D01*
X94006Y67331D01*
Y66783D01*
X94216Y66276D01*
X94604Y65889D01*
X95110Y65679D01*
X95658D01*
X96165Y65889D01*
X96552Y66276D01*
X96762Y66783D01*
Y67331D01*
X96552Y67837D01*
X96165Y68225D01*
X95658Y68435D01*
D02*
G37*
G36*
X299016Y78811D02*
X298386Y78686D01*
X297852Y78329D01*
X288295Y68772D01*
X172146D01*
X171516Y68647D01*
X170982Y68290D01*
X170625Y67756D01*
X170500Y67126D01*
X170625Y66496D01*
X170982Y65962D01*
X171516Y65605D01*
X171843Y65540D01*
X171863Y65412D01*
X171827Y65034D01*
X171412Y64862D01*
X171025Y64475D01*
X170815Y63968D01*
Y63420D01*
X171025Y62914D01*
X171412Y62526D01*
X171919Y62316D01*
X172467D01*
X172974Y62526D01*
X173361Y62914D01*
X173571Y63420D01*
Y63968D01*
X173361Y64475D01*
X172974Y64862D01*
X172689Y64980D01*
X172788Y65480D01*
X288976D01*
X289606Y65605D01*
X290140Y65962D01*
X300180Y76002D01*
X300536Y76536D01*
X300662Y77165D01*
X300536Y77795D01*
X300180Y78329D01*
X299646Y78686D01*
X299016Y78811D01*
D02*
G37*
G36*
X19653Y67638D02*
X18772D01*
X17921Y67410D01*
X17158Y66969D01*
X16535Y66346D01*
X16094Y65583D01*
X15866Y64732D01*
Y63851D01*
X16094Y63000D01*
X16535Y62237D01*
X17158Y61614D01*
X17921Y61173D01*
X18772Y60945D01*
X19653D01*
X20504Y61173D01*
X21267Y61614D01*
X21890Y62237D01*
X22331Y63000D01*
X22559Y63851D01*
Y64732D01*
X22331Y65583D01*
X21890Y66346D01*
X21267Y66969D01*
X20504Y67410D01*
X19653Y67638D01*
D02*
G37*
G36*
X309526Y62500D02*
X308978D01*
X308471Y62290D01*
X308084Y61903D01*
X307874Y61396D01*
Y60848D01*
X308084Y60342D01*
X308471Y59954D01*
X308978Y59744D01*
X309526D01*
X310033Y59954D01*
X310420Y60342D01*
X310630Y60848D01*
Y61396D01*
X310420Y61903D01*
X310033Y62290D01*
X309526Y62500D01*
D02*
G37*
G36*
X304900Y62402D02*
X304352D01*
X303845Y62192D01*
X303458Y61804D01*
X303248Y61298D01*
Y60750D01*
X303458Y60243D01*
X303845Y59855D01*
X304352Y59646D01*
X304900D01*
X305406Y59855D01*
X305794Y60243D01*
X306004Y60750D01*
Y61298D01*
X305794Y61804D01*
X305406Y62192D01*
X304900Y62402D01*
D02*
G37*
G36*
X55294Y63583D02*
X54746D01*
X54239Y63373D01*
X53851Y62985D01*
X53642Y62479D01*
Y61931D01*
X53851Y61424D01*
X54239Y61036D01*
X54268Y61024D01*
X54317Y60816D01*
X54317Y60463D01*
X53997Y60144D01*
X53787Y59637D01*
Y59089D01*
X53997Y58583D01*
X54385Y58195D01*
X54891Y57985D01*
X55439D01*
X55946Y58195D01*
X56334Y58583D01*
X56543Y59089D01*
Y59637D01*
X56334Y60144D01*
X55946Y60532D01*
X55917Y60544D01*
X55867Y60752D01*
X55869Y61105D01*
X56188Y61424D01*
X56398Y61931D01*
Y62479D01*
X56188Y62985D01*
X55800Y63373D01*
X55294Y63583D01*
D02*
G37*
G36*
X32253Y55950D02*
X31705D01*
X31199Y55741D01*
X30811Y55353D01*
X30601Y54847D01*
Y54298D01*
X30811Y53792D01*
X31199Y53404D01*
X31705Y53194D01*
X32253D01*
X32760Y53404D01*
X33147Y53792D01*
X33357Y54298D01*
Y54847D01*
X33147Y55353D01*
X32760Y55741D01*
X32253Y55950D01*
D02*
G37*
G36*
X74445Y55071D02*
X73896D01*
X73390Y54862D01*
X73002Y54474D01*
X72793Y53968D01*
Y53419D01*
X73002Y52913D01*
X73390Y52525D01*
X73896Y52315D01*
X74445D01*
X74951Y52525D01*
X75339Y52913D01*
X75549Y53419D01*
Y53968D01*
X75339Y54474D01*
X74951Y54862D01*
X74445Y55071D01*
D02*
G37*
G36*
X19653Y57638D02*
X18772D01*
X17921Y57410D01*
X17158Y56969D01*
X16535Y56346D01*
X16094Y55583D01*
X15866Y54732D01*
Y53851D01*
X16094Y53000D01*
X16535Y52237D01*
X17158Y51613D01*
X17921Y51173D01*
X18772Y50945D01*
X19653D01*
X20504Y51173D01*
X21267Y51613D01*
X21890Y52237D01*
X22331Y53000D01*
X22559Y53851D01*
Y54732D01*
X22331Y55583D01*
X21890Y56346D01*
X21267Y56969D01*
X20504Y57410D01*
X19653Y57638D01*
D02*
G37*
G36*
X82075Y53267D02*
X81527D01*
X81020Y53057D01*
X80633Y52669D01*
X80423Y52163D01*
Y51615D01*
X80633Y51108D01*
X81020Y50721D01*
X81527Y50511D01*
X82075D01*
X82581Y50721D01*
X82969Y51108D01*
X83179Y51615D01*
Y52163D01*
X82969Y52669D01*
X82581Y53057D01*
X82075Y53267D01*
D02*
G37*
G36*
X173648Y51982D02*
X173100D01*
X172593Y51772D01*
X172206Y51384D01*
X171996Y50878D01*
Y50329D01*
X172206Y49823D01*
X172593Y49435D01*
X173100Y49226D01*
X173648D01*
X174155Y49435D01*
X174542Y49823D01*
X174752Y50329D01*
Y50878D01*
X174542Y51384D01*
X174155Y51772D01*
X173648Y51982D01*
D02*
G37*
G36*
X103668Y45978D02*
X103120D01*
X102613Y45768D01*
X102225Y45380D01*
X102016Y44874D01*
Y44326D01*
X102225Y43819D01*
X102613Y43431D01*
X103120Y43222D01*
X103668D01*
X104174Y43431D01*
X104562Y43819D01*
X104772Y44326D01*
Y44874D01*
X104562Y45380D01*
X104174Y45768D01*
X103668Y45978D01*
D02*
G37*
G36*
X106475Y43898D02*
X105927D01*
X105420Y43688D01*
X105033Y43300D01*
X104823Y42794D01*
Y42246D01*
X105033Y41739D01*
X105420Y41352D01*
X105927Y41142D01*
X106475D01*
X106981Y41352D01*
X107369Y41739D01*
X107579Y42246D01*
Y42794D01*
X107369Y43300D01*
X106981Y43688D01*
X106475Y43898D01*
D02*
G37*
G36*
X19653Y47638D02*
X18772D01*
X17921Y47410D01*
X17158Y46969D01*
X16535Y46346D01*
X16094Y45583D01*
X15866Y44732D01*
Y43851D01*
X16094Y43000D01*
X16535Y42237D01*
X17158Y41614D01*
X17921Y41173D01*
X18772Y40945D01*
X19653D01*
X20504Y41173D01*
X21267Y41614D01*
X21890Y42237D01*
X22331Y43000D01*
X22559Y43851D01*
Y44732D01*
X22331Y45583D01*
X21890Y46346D01*
X21267Y46969D01*
X20504Y47410D01*
X19653Y47638D01*
D02*
G37*
G36*
X180833Y42815D02*
X180285D01*
X179779Y42605D01*
X179391Y42218D01*
X179181Y41711D01*
Y41163D01*
X179391Y40657D01*
X179779Y40269D01*
X180285Y40059D01*
X180833D01*
X181340Y40269D01*
X181727Y40657D01*
X181937Y41163D01*
Y41711D01*
X181727Y42218D01*
X181340Y42605D01*
X180833Y42815D01*
D02*
G37*
G36*
X233639Y44783D02*
X232699D01*
X231831Y44424D01*
X231167Y43759D01*
X230807Y42891D01*
Y41951D01*
X231167Y41083D01*
X231831Y40419D01*
X232699Y40059D01*
X233639D01*
X234507Y40419D01*
X235172Y41083D01*
X235531Y41951D01*
Y42891D01*
X235172Y43759D01*
X234507Y44424D01*
X233639Y44783D01*
D02*
G37*
G36*
X188954Y44587D02*
X188014D01*
X187146Y44227D01*
X186482Y43562D01*
X186122Y42694D01*
Y41754D01*
X186482Y40886D01*
X187146Y40222D01*
X188014Y39862D01*
X188954D01*
X189822Y40222D01*
X190487Y40886D01*
X190847Y41754D01*
Y42694D01*
X190487Y43562D01*
X189822Y44227D01*
X188954Y44587D01*
D02*
G37*
G36*
X38955Y39173D02*
X38407D01*
X37901Y38963D01*
X37513Y38576D01*
X37303Y38069D01*
Y37521D01*
X37513Y37015D01*
X37901Y36627D01*
X38407Y36417D01*
X38955D01*
X39462Y36627D01*
X39849Y37015D01*
X40059Y37521D01*
Y38069D01*
X39849Y38576D01*
X39462Y38963D01*
X38955Y39173D01*
D02*
G37*
G36*
X61495Y36299D02*
X60946D01*
X60440Y36089D01*
X60052Y35702D01*
X59842Y35195D01*
Y34647D01*
X60052Y34141D01*
X60440Y33753D01*
X60946Y33543D01*
X61495D01*
X62001Y33753D01*
X62389Y34141D01*
X62598Y34647D01*
Y35195D01*
X62389Y35702D01*
X62001Y36089D01*
X61495Y36299D01*
D02*
G37*
G36*
X19653Y37638D02*
X18772D01*
X17921Y37410D01*
X17158Y36969D01*
X16535Y36346D01*
X16094Y35583D01*
X15866Y34732D01*
Y33851D01*
X16094Y33000D01*
X16535Y32237D01*
X17158Y31613D01*
X17921Y31173D01*
X18772Y30945D01*
X19653D01*
X20504Y31173D01*
X21267Y31613D01*
X21890Y32237D01*
X22331Y33000D01*
X22559Y33851D01*
Y34732D01*
X22331Y35583D01*
X21890Y36346D01*
X21267Y36969D01*
X20504Y37410D01*
X19653Y37638D01*
D02*
G37*
G36*
X101258Y43602D02*
X100710D01*
X100204Y43393D01*
X99816Y43005D01*
X99606Y42498D01*
Y41950D01*
X99816Y41444D01*
X100204Y41056D01*
X100526Y40923D01*
X110144Y31305D01*
X110547Y31035D01*
X111024Y30941D01*
X146086D01*
X146293Y30441D01*
X146029Y30177D01*
X145669Y29308D01*
Y28369D01*
X146029Y27501D01*
X146693Y26836D01*
X147562Y26476D01*
X148501D01*
X149370Y26836D01*
X150034Y27501D01*
X150394Y28369D01*
Y29308D01*
X150034Y30177D01*
X149770Y30441D01*
X149977Y30941D01*
X287575D01*
X291319Y27196D01*
X291453Y26874D01*
X291681Y26646D01*
X291474Y26146D01*
X211933D01*
X209668Y28411D01*
X209534Y28733D01*
X209147Y29121D01*
X208640Y29331D01*
X208092D01*
X207586Y29121D01*
X207198Y28733D01*
X206988Y28227D01*
Y27679D01*
X207198Y27172D01*
X207586Y26785D01*
X207908Y26651D01*
X210537Y24022D01*
X210941Y23752D01*
X211417Y23657D01*
X293964D01*
X294286Y23524D01*
X294834D01*
X295341Y23733D01*
X295728Y24121D01*
X295938Y24627D01*
Y25176D01*
X295728Y25682D01*
X295341Y26070D01*
X294834Y26280D01*
X294286D01*
X293964Y26146D01*
X293768D01*
X293561Y26646D01*
X293789Y26874D01*
X293999Y27380D01*
Y27929D01*
X293789Y28435D01*
X293402Y28823D01*
X293079Y28956D01*
X288970Y33065D01*
X288567Y33335D01*
X288091Y33429D01*
X246071D01*
X245963Y33655D01*
X245918Y33929D01*
X246247Y34259D01*
X246457Y34765D01*
Y35313D01*
X246247Y35820D01*
X245859Y36208D01*
X245650Y36294D01*
Y36836D01*
X245859Y36922D01*
X246247Y37310D01*
X246457Y37817D01*
Y38365D01*
X246247Y38871D01*
X245859Y39259D01*
X245353Y39469D01*
X244805D01*
X244298Y39259D01*
X243911Y38871D01*
X243701Y38365D01*
Y37817D01*
X243911Y37310D01*
X244298Y36922D01*
X244508Y36836D01*
Y36294D01*
X244298Y36208D01*
X243911Y35820D01*
X243701Y35313D01*
Y34765D01*
X243911Y34259D01*
X244240Y33929D01*
X244195Y33655D01*
X244087Y33429D01*
X181959D01*
X181729Y33907D01*
X181939Y34413D01*
Y34961D01*
X181729Y35468D01*
X181342Y35855D01*
X181132Y35942D01*
Y36483D01*
X181342Y36570D01*
X181729Y36958D01*
X181939Y37464D01*
Y38012D01*
X181729Y38519D01*
X181342Y38906D01*
X180835Y39116D01*
X180287D01*
X179780Y38906D01*
X179393Y38519D01*
X179183Y38012D01*
Y37464D01*
X179393Y36958D01*
X179780Y36570D01*
X179990Y36483D01*
Y35942D01*
X179780Y35855D01*
X179393Y35468D01*
X179183Y34961D01*
Y34413D01*
X179393Y33907D01*
X179163Y33429D01*
X111539D01*
X102286Y42682D01*
X102152Y43005D01*
X101765Y43393D01*
X101258Y43602D01*
D02*
G37*
G36*
X180833Y28543D02*
X180285D01*
X179779Y28334D01*
X179391Y27946D01*
X179181Y27439D01*
Y26891D01*
X179391Y26385D01*
X179779Y25997D01*
X180285Y25787D01*
X180833D01*
X181340Y25997D01*
X181727Y26385D01*
X181937Y26891D01*
Y27439D01*
X181727Y27946D01*
X181340Y28334D01*
X180833Y28543D01*
D02*
G37*
G36*
X314386Y25584D02*
X313837D01*
X313331Y25374D01*
X312943Y24986D01*
X312794Y24626D01*
X312736Y24594D01*
X312342Y24511D01*
X312249Y24518D01*
X311984Y24783D01*
X311478Y24993D01*
X310930D01*
X310423Y24783D01*
X310036Y24395D01*
X309902Y24073D01*
X306067Y20237D01*
X305761D01*
X305675Y20220D01*
X305336D01*
X304830Y20010D01*
X304442Y19623D01*
X304232Y19117D01*
Y18568D01*
X304442Y18062D01*
X304830Y17674D01*
X305336Y17464D01*
X305884D01*
X306391Y17674D01*
X306465Y17749D01*
X306582D01*
X307059Y17843D01*
X307462Y18113D01*
X311662Y22313D01*
X311984Y22446D01*
X312212Y22674D01*
X312643Y22501D01*
X312694Y22009D01*
X310779Y20095D01*
X310457Y19961D01*
X310069Y19574D01*
X309859Y19067D01*
Y18519D01*
X310069Y18012D01*
X310457Y17625D01*
X310963Y17415D01*
X311511D01*
X312018Y17625D01*
X312405Y18012D01*
X312539Y18335D01*
X314841Y20637D01*
X315110Y21041D01*
X315205Y21517D01*
Y23351D01*
X315280Y23425D01*
X315489Y23932D01*
Y24480D01*
X315280Y24986D01*
X314892Y25374D01*
X314386Y25584D01*
D02*
G37*
G36*
X19653Y27638D02*
X18772D01*
X17921Y27410D01*
X17158Y26969D01*
X16535Y26346D01*
X16094Y25583D01*
X15866Y24732D01*
Y23851D01*
X16094Y23000D01*
X16535Y22237D01*
X17158Y21613D01*
X17921Y21173D01*
X18772Y20945D01*
X19653D01*
X20504Y21173D01*
X21267Y21613D01*
X21890Y22237D01*
X22331Y23000D01*
X22559Y23851D01*
Y24732D01*
X22331Y25583D01*
X21890Y26346D01*
X21267Y26969D01*
X20504Y27410D01*
X19653Y27638D01*
D02*
G37*
G36*
X201652Y28346D02*
X201104D01*
X200597Y28137D01*
X200210Y27749D01*
X200000Y27243D01*
Y26694D01*
X200210Y26188D01*
X200597Y25800D01*
X200920Y25667D01*
X206108Y20478D01*
X206512Y20209D01*
X206988Y20114D01*
X231420D01*
X231628Y19614D01*
X231167Y19153D01*
X230807Y18285D01*
Y17345D01*
X231167Y16477D01*
X231831Y15812D01*
X232699Y15453D01*
X233639D01*
X234507Y15812D01*
X235172Y16477D01*
X235531Y17345D01*
Y18285D01*
X235172Y19153D01*
X234711Y19614D01*
X234918Y20114D01*
X293092D01*
X293414Y19980D01*
X293963D01*
X294469Y20190D01*
X294857Y20578D01*
X295066Y21084D01*
Y21632D01*
X294857Y22139D01*
X294469Y22526D01*
X293963Y22736D01*
X293414D01*
X293092Y22603D01*
X207504D01*
X202680Y27427D01*
X202546Y27749D01*
X202158Y28137D01*
X201652Y28346D01*
D02*
G37*
G36*
X317793Y20596D02*
X317245D01*
X316738Y20387D01*
X316351Y19999D01*
X316141Y19492D01*
Y18944D01*
X316351Y18438D01*
X316738Y18050D01*
X317245Y17841D01*
X317793D01*
X318299Y18050D01*
X318687Y18438D01*
X318897Y18944D01*
Y19492D01*
X318687Y19999D01*
X318299Y20387D01*
X317793Y20596D01*
D02*
G37*
G36*
X188757Y20177D02*
X187818D01*
X186949Y19817D01*
X186285Y19153D01*
X185925Y18285D01*
Y17345D01*
X186285Y16477D01*
X186949Y15812D01*
X187818Y15453D01*
X188757D01*
X189626Y15812D01*
X190290Y16477D01*
X190650Y17345D01*
Y18285D01*
X190290Y19153D01*
X189626Y19817D01*
X188757Y20177D01*
D02*
G37*
G36*
X79802Y17126D02*
X79254D01*
X78747Y16916D01*
X78359Y16529D01*
X78150Y16022D01*
Y15474D01*
X78359Y14967D01*
X78747Y14580D01*
X79254Y14370D01*
X79802D01*
X80308Y14580D01*
X80696Y14967D01*
X80905Y15474D01*
Y16022D01*
X80696Y16529D01*
X80308Y16916D01*
X79802Y17126D01*
D02*
G37*
G36*
X141219Y15157D02*
X140671D01*
X140164Y14948D01*
X139777Y14560D01*
X139567Y14054D01*
Y13505D01*
X139777Y12999D01*
X140164Y12611D01*
X140671Y12402D01*
X141219D01*
X141725Y12611D01*
X142113Y12999D01*
X142323Y13505D01*
Y14054D01*
X142113Y14560D01*
X141725Y14948D01*
X141219Y15157D01*
D02*
G37*
G36*
X163955Y14665D02*
X163407D01*
X162901Y14456D01*
X162513Y14068D01*
X162303Y13562D01*
Y13013D01*
X162513Y12507D01*
X162901Y12119D01*
X163407Y11909D01*
X163955D01*
X164462Y12119D01*
X164849Y12507D01*
X165059Y13013D01*
Y13562D01*
X164849Y14068D01*
X164462Y14456D01*
X163955Y14665D01*
D02*
G37*
G36*
X316514Y13189D02*
X315966D01*
X315460Y12979D01*
X315072Y12592D01*
X314862Y12085D01*
Y11537D01*
X315072Y11030D01*
X315460Y10643D01*
X315966Y10433D01*
X316514D01*
X317021Y10643D01*
X317408Y11030D01*
X317618Y11537D01*
Y12085D01*
X317408Y12592D01*
X317021Y12979D01*
X316514Y13189D01*
D02*
G37*
G36*
X300694Y13083D02*
X300146D01*
X299640Y12873D01*
X299252Y12485D01*
X299042Y11979D01*
Y11431D01*
X299252Y10924D01*
X299640Y10537D01*
X300146Y10327D01*
X300694D01*
X301201Y10537D01*
X301588Y10924D01*
X301798Y11431D01*
Y11979D01*
X301588Y12485D01*
X301201Y12873D01*
X300694Y13083D01*
D02*
G37*
%LPD*%
G36*
X49034Y220135D02*
X48968Y220162D01*
X48899Y220186D01*
X48749Y220225D01*
X48669Y220240D01*
X48498Y220263D01*
X48407Y220270D01*
X48214Y220276D01*
X47854Y221063D01*
X47954Y221066D01*
X48047Y221077D01*
X48132Y221094D01*
X48210Y221119D01*
X48280Y221151D01*
X48343Y221189D01*
X48398Y221235D01*
X48446Y221287D01*
X48486Y221347D01*
X48519Y221413D01*
X49034Y220135D01*
D02*
G37*
G36*
X27633Y221302D02*
X27697Y221252D01*
X27766Y221208D01*
X27838Y221169D01*
X27915Y221137D01*
X27996Y221110D01*
X28082Y221090D01*
X28171Y221075D01*
X28265Y221066D01*
X28363Y221063D01*
Y220276D01*
X28265Y220273D01*
X28171Y220264D01*
X28082Y220249D01*
X27996Y220228D01*
X27915Y220202D01*
X27838Y220169D01*
X27766Y220131D01*
X27697Y220087D01*
X27633Y220036D01*
X27573Y219980D01*
Y221358D01*
X27633Y221302D01*
D02*
G37*
G36*
X94393Y198432D02*
X94402Y198351D01*
X94419Y198271D01*
X94444Y198193D01*
X94475Y198115D01*
X94514Y198039D01*
X94559Y197964D01*
X94612Y197890D01*
X94672Y197818D01*
X94739Y197747D01*
X94183Y197190D01*
X94111Y197257D01*
X94039Y197317D01*
X93965Y197370D01*
X93890Y197415D01*
X93814Y197454D01*
X93737Y197485D01*
X93658Y197510D01*
X93578Y197527D01*
X93498Y197537D01*
X93415Y197539D01*
X94390Y198514D01*
X94393Y198432D01*
D02*
G37*
G36*
X314669Y207342D02*
X314681Y207306D01*
X314701Y207265D01*
X314730Y207218D01*
X314767Y207166D01*
X314864Y207046D01*
X314995Y206904D01*
X315073Y206825D01*
X314238Y205990D01*
X314159Y206068D01*
X313897Y206296D01*
X313845Y206333D01*
X313798Y206362D01*
X313757Y206382D01*
X313721Y206394D01*
X313691Y206398D01*
X314665Y207372D01*
X314669Y207342D01*
D02*
G37*
G36*
X312687Y203839D02*
X312657Y203835D01*
X312621Y203823D01*
X312580Y203802D01*
X312533Y203774D01*
X312481Y203737D01*
X312361Y203639D01*
X312219Y203509D01*
X312140Y203431D01*
X311305Y204266D01*
X311383Y204345D01*
X311611Y204607D01*
X311648Y204659D01*
X311677Y204706D01*
X311697Y204747D01*
X311709Y204783D01*
X311713Y204813D01*
X312687Y203839D01*
D02*
G37*
G36*
X305550Y200769D02*
X305584Y200752D01*
X305627Y200737D01*
X305680Y200724D01*
X305743Y200714D01*
X305897Y200698D01*
X306090Y200690D01*
X306201Y200689D01*
Y199508D01*
X306090Y199507D01*
X305743Y199483D01*
X305680Y199472D01*
X305627Y199460D01*
X305584Y199445D01*
X305550Y199428D01*
X305526Y199409D01*
Y200787D01*
X305550Y200769D01*
D02*
G37*
G36*
X311259Y200473D02*
X311292Y200457D01*
X311336Y200442D01*
X311389Y200429D01*
X311451Y200418D01*
X311606Y200403D01*
X311799Y200395D01*
X311910Y200394D01*
Y199213D01*
X311799Y199212D01*
X311451Y199188D01*
X311389Y199177D01*
X311336Y199164D01*
X311292Y199150D01*
X311259Y199133D01*
X311234Y199114D01*
Y200492D01*
X311259Y200473D01*
D02*
G37*
G36*
X86010Y162500D02*
X85950Y162556D01*
X85886Y162606D01*
X85817Y162651D01*
X85744Y162689D01*
X85668Y162722D01*
X85587Y162748D01*
X85501Y162769D01*
X85412Y162784D01*
X85318Y162792D01*
X85220Y162795D01*
Y163583D01*
X85318Y163586D01*
X85412Y163594D01*
X85501Y163609D01*
X85587Y163630D01*
X85668Y163656D01*
X85744Y163689D01*
X85817Y163727D01*
X85886Y163772D01*
X85950Y163822D01*
X86010Y163878D01*
Y162500D01*
D02*
G37*
G36*
X28807Y162391D02*
X28739Y162320D01*
X28679Y162247D01*
X28626Y162174D01*
X28581Y162099D01*
X28542Y162022D01*
X28511Y161945D01*
X28487Y161867D01*
X28470Y161787D01*
X28460Y161706D01*
X28457Y161624D01*
X27483Y162598D01*
X27565Y162601D01*
X27646Y162611D01*
X27725Y162628D01*
X27804Y162652D01*
X27881Y162684D01*
X27957Y162722D01*
X28032Y162768D01*
X28106Y162821D01*
X28178Y162881D01*
X28250Y162948D01*
X28807Y162391D01*
D02*
G37*
G36*
X315178Y115092D02*
X315200Y115014D01*
X315229Y114936D01*
X315262Y114860D01*
X315301Y114785D01*
X315346Y114710D01*
X315396Y114637D01*
X315452Y114565D01*
X315514Y114494D01*
X315581Y114423D01*
X315139Y113752D01*
X315066Y113820D01*
X314993Y113878D01*
X314919Y113928D01*
X314845Y113970D01*
X314770Y114002D01*
X314694Y114026D01*
X314617Y114041D01*
X314540Y114048D01*
X314461Y114045D01*
X314383Y114034D01*
X315161Y115171D01*
X315178Y115092D01*
D02*
G37*
G36*
X313111Y111909D02*
X313029Y111907D01*
X312949Y111897D01*
X312869Y111880D01*
X312790Y111855D01*
X312713Y111824D01*
X312637Y111786D01*
X312562Y111740D01*
X312488Y111687D01*
X312416Y111627D01*
X312344Y111560D01*
X311788Y112117D01*
X311855Y112188D01*
X311915Y112260D01*
X311968Y112334D01*
X312013Y112409D01*
X312052Y112485D01*
X312083Y112563D01*
X312107Y112641D01*
X312124Y112721D01*
X312134Y112802D01*
X312137Y112884D01*
X313111Y111909D01*
D02*
G37*
G36*
X306964Y109885D02*
X307028Y109835D01*
X307096Y109790D01*
X307169Y109752D01*
X307246Y109720D01*
X307327Y109693D01*
X307412Y109672D01*
X307502Y109658D01*
X307595Y109649D01*
X307693Y109646D01*
Y108858D01*
X307595Y108855D01*
X307502Y108846D01*
X307412Y108832D01*
X307327Y108811D01*
X307246Y108784D01*
X307169Y108752D01*
X307096Y108714D01*
X307028Y108669D01*
X306964Y108619D01*
X306904Y108563D01*
Y109941D01*
X306964Y109885D01*
D02*
G37*
G36*
X313477Y109604D02*
X313518Y109574D01*
X313568Y109547D01*
X313626Y109524D01*
X313692Y109504D01*
X313767Y109488D01*
X313850Y109476D01*
X314041Y109462D01*
X314149Y109460D01*
X314162Y108673D01*
X314060Y108671D01*
X313880Y108655D01*
X313802Y108641D01*
X313732Y108623D01*
X313670Y108602D01*
X313616Y108576D01*
X313570Y108546D01*
X313532Y108513D01*
X313503Y108476D01*
X313444Y109638D01*
X313477Y109604D01*
D02*
G37*
G36*
X101972Y42184D02*
X101984Y42149D01*
X102005Y42107D01*
X102033Y42061D01*
X102070Y42009D01*
X102168Y41889D01*
X102298Y41747D01*
X102376Y41668D01*
X101541Y40832D01*
X101462Y40910D01*
X101200Y41139D01*
X101148Y41176D01*
X101101Y41204D01*
X101060Y41224D01*
X101024Y41236D01*
X100994Y41240D01*
X101968Y42215D01*
X101972Y42184D01*
D02*
G37*
G36*
X292143Y28969D02*
X292406Y28740D01*
X292458Y28703D01*
X292504Y28675D01*
X292545Y28655D01*
X292581Y28643D01*
X292611Y28639D01*
X291637Y27664D01*
X291633Y27695D01*
X291621Y27730D01*
X291601Y27771D01*
X291572Y27818D01*
X291536Y27870D01*
X291438Y27990D01*
X291307Y28132D01*
X291229Y28211D01*
X292064Y29046D01*
X292143Y28969D01*
D02*
G37*
G36*
X209354Y27913D02*
X209366Y27877D01*
X209386Y27836D01*
X209415Y27789D01*
X209452Y27737D01*
X209549Y27617D01*
X209680Y27475D01*
X209758Y27396D01*
X208923Y26561D01*
X208844Y26638D01*
X208582Y26867D01*
X208530Y26904D01*
X208483Y26932D01*
X208442Y26953D01*
X208406Y26965D01*
X208376Y26969D01*
X209350Y27943D01*
X209354Y27913D01*
D02*
G37*
G36*
X293857Y24213D02*
X293833Y24231D01*
X293799Y24248D01*
X293756Y24263D01*
X293703Y24276D01*
X293640Y24286D01*
X293486Y24302D01*
X293293Y24310D01*
X293182Y24311D01*
Y25492D01*
X293293Y25493D01*
X293640Y25517D01*
X293703Y25528D01*
X293756Y25540D01*
X293799Y25555D01*
X293833Y25572D01*
X293857Y25591D01*
Y24213D01*
D02*
G37*
G36*
X314685Y23406D02*
X314659Y23382D01*
X314637Y23348D01*
X314617Y23305D01*
X314599Y23252D01*
X314585Y23190D01*
X314573Y23118D01*
X314557Y22946D01*
X314553Y22845D01*
X314551Y22735D01*
X313370Y22968D01*
X313370Y23079D01*
X313340Y23570D01*
X313332Y23599D01*
X313323Y23617D01*
X314685Y23406D01*
D02*
G37*
G36*
X311194Y22630D02*
X311164Y22626D01*
X311128Y22614D01*
X311087Y22594D01*
X311040Y22566D01*
X310988Y22529D01*
X310868Y22431D01*
X310726Y22300D01*
X310647Y22223D01*
X309812Y23058D01*
X309890Y23137D01*
X310119Y23399D01*
X310155Y23451D01*
X310184Y23498D01*
X310204Y23539D01*
X310216Y23574D01*
X310220Y23605D01*
X311194Y22630D01*
D02*
G37*
G36*
X307418Y18993D02*
X306456Y18340D01*
X306199Y19631D01*
X306223Y19620D01*
X306254Y19619D01*
X306291Y19627D01*
X306333Y19646D01*
X306382Y19674D01*
X306437Y19712D01*
X306498Y19760D01*
X306638Y19885D01*
X306717Y19963D01*
X307418Y18993D01*
D02*
G37*
G36*
X312629Y19350D02*
X312551Y19271D01*
X312323Y19008D01*
X312286Y18957D01*
X312258Y18910D01*
X312237Y18869D01*
X312225Y18833D01*
X312221Y18803D01*
X311247Y19777D01*
X311277Y19781D01*
X311313Y19793D01*
X311354Y19813D01*
X311401Y19842D01*
X311453Y19879D01*
X311573Y19976D01*
X311715Y20107D01*
X311794Y20185D01*
X312629Y19350D01*
D02*
G37*
G36*
X202366Y26928D02*
X202378Y26893D01*
X202398Y26851D01*
X202427Y26805D01*
X202463Y26753D01*
X202561Y26633D01*
X202692Y26491D01*
X202770Y26412D01*
X201935Y25577D01*
X201856Y25654D01*
X201593Y25883D01*
X201541Y25920D01*
X201495Y25948D01*
X201454Y25968D01*
X201418Y25980D01*
X201388Y25984D01*
X202362Y26959D01*
X202366Y26928D01*
D02*
G37*
G36*
X292986Y20669D02*
X292961Y20688D01*
X292928Y20705D01*
X292884Y20719D01*
X292831Y20732D01*
X292769Y20743D01*
X292614Y20759D01*
X292421Y20767D01*
X292311Y20768D01*
Y21949D01*
X292421Y21950D01*
X292769Y21973D01*
X292831Y21984D01*
X292884Y21997D01*
X292928Y22012D01*
X292961Y22028D01*
X292986Y22047D01*
Y20669D01*
D02*
G37*
%LPC*%
G36*
X528113Y186620D02*
X527002D01*
X525929Y186333D01*
X524967Y185777D01*
X524181Y184992D01*
X523626Y184030D01*
X523338Y182957D01*
Y181846D01*
X523626Y180773D01*
X524181Y179811D01*
X524967Y179026D01*
X525929Y178470D01*
X527002Y178183D01*
X528113D01*
X529185Y178470D01*
X530148Y179026D01*
X530933Y179811D01*
X531488Y180773D01*
X531776Y181846D01*
Y182957D01*
X531488Y184030D01*
X530933Y184992D01*
X530148Y185777D01*
X529185Y186333D01*
X528113Y186620D01*
D02*
G37*
G36*
X488112D02*
X487002D01*
X485929Y186333D01*
X484967Y185777D01*
X484181Y184992D01*
X483626Y184030D01*
X483338Y182957D01*
Y181846D01*
X483626Y180773D01*
X484181Y179811D01*
X484967Y179026D01*
X485929Y178470D01*
X487002Y178183D01*
X488112D01*
X489185Y178470D01*
X490147Y179026D01*
X490933Y179811D01*
X491488Y180773D01*
X491776Y181846D01*
Y182957D01*
X491488Y184030D01*
X490933Y184992D01*
X490147Y185777D01*
X489185Y186333D01*
X488112Y186620D01*
D02*
G37*
G36*
X528113Y130321D02*
X527002D01*
X525929Y130034D01*
X524967Y129478D01*
X524181Y128693D01*
X523626Y127731D01*
X523338Y126658D01*
Y125547D01*
X523626Y124474D01*
X524181Y123512D01*
X524967Y122727D01*
X525929Y122171D01*
X527002Y121884D01*
X528113D01*
X529185Y122171D01*
X530148Y122727D01*
X530933Y123512D01*
X531488Y124474D01*
X531776Y125547D01*
Y126658D01*
X531488Y127731D01*
X530933Y128693D01*
X530148Y129478D01*
X529185Y130034D01*
X528113Y130321D01*
D02*
G37*
G36*
Y114022D02*
X527002D01*
X525929Y113734D01*
X524967Y113179D01*
X524181Y112394D01*
X523626Y111432D01*
X523338Y110359D01*
Y109248D01*
X523626Y108175D01*
X524181Y107213D01*
X524967Y106427D01*
X525929Y105872D01*
X527002Y105585D01*
X528113D01*
X529185Y105872D01*
X530148Y106427D01*
X530933Y107213D01*
X531488Y108175D01*
X531776Y109248D01*
Y110359D01*
X531488Y111432D01*
X530933Y112394D01*
X530148Y113179D01*
X529185Y113734D01*
X528113Y114022D01*
D02*
G37*
G36*
X488112D02*
X487002D01*
X485929Y113734D01*
X484967Y113179D01*
X484181Y112394D01*
X483626Y111432D01*
X483338Y110359D01*
Y109248D01*
X483626Y108175D01*
X484181Y107213D01*
X484967Y106427D01*
X485929Y105872D01*
X487002Y105585D01*
X488112D01*
X489185Y105872D01*
X490147Y106427D01*
X490933Y107213D01*
X491488Y108175D01*
X491776Y109248D01*
Y110359D01*
X491488Y111432D01*
X490933Y112394D01*
X490147Y113179D01*
X489185Y113734D01*
X488112Y114022D01*
D02*
G37*
G36*
X528113Y74022D02*
X527002D01*
X525929Y73734D01*
X524967Y73179D01*
X524181Y72394D01*
X523626Y71432D01*
X523338Y70359D01*
Y69248D01*
X523626Y68175D01*
X524181Y67213D01*
X524967Y66427D01*
X525929Y65872D01*
X527002Y65584D01*
X528113D01*
X529185Y65872D01*
X530148Y66427D01*
X530933Y67213D01*
X531488Y68175D01*
X531776Y69248D01*
Y70359D01*
X531488Y71432D01*
X530933Y72394D01*
X530148Y73179D01*
X529185Y73734D01*
X528113Y74022D01*
D02*
G37*
G36*
X488112D02*
X487002D01*
X485929Y73734D01*
X484967Y73179D01*
X484181Y72394D01*
X483626Y71432D01*
X483338Y70359D01*
Y69248D01*
X483626Y68175D01*
X484181Y67213D01*
X484967Y66427D01*
X485929Y65872D01*
X487002Y65584D01*
X488112D01*
X489185Y65872D01*
X490147Y66427D01*
X490933Y67213D01*
X491488Y68175D01*
X491776Y69248D01*
Y70359D01*
X491488Y71432D01*
X490933Y72394D01*
X490147Y73179D01*
X489185Y73734D01*
X488112Y74022D01*
D02*
G37*
G36*
X181180Y361417D02*
X180631D01*
X180125Y361208D01*
X179737Y360820D01*
X179528Y360314D01*
Y359765D01*
X179737Y359259D01*
X180125Y358871D01*
X180467Y358730D01*
Y358200D01*
X180125Y358058D01*
X179737Y357670D01*
X179528Y357164D01*
Y356616D01*
X179737Y356109D01*
X180125Y355722D01*
X180631Y355512D01*
X181180D01*
X181686Y355722D01*
X182074Y356109D01*
X182283Y356616D01*
Y357164D01*
X182074Y357670D01*
X181686Y358058D01*
X181344Y358200D01*
Y358730D01*
X181686Y358871D01*
X182074Y359259D01*
X182283Y359765D01*
Y360314D01*
X182074Y360820D01*
X181686Y361208D01*
X181180Y361417D01*
D02*
G37*
G36*
X180833Y352474D02*
X180285D01*
X179779Y352264D01*
X179391Y351876D01*
X179181Y351370D01*
Y350821D01*
X179391Y350315D01*
X179779Y349927D01*
X180285Y349718D01*
X180833D01*
X181340Y349927D01*
X181727Y350315D01*
X181937Y350821D01*
Y351370D01*
X181727Y351876D01*
X181340Y352264D01*
X180833Y352474D01*
D02*
G37*
G36*
X234820Y352756D02*
X233880D01*
X233012Y352396D01*
X232348Y351732D01*
X231988Y350864D01*
Y349924D01*
X232348Y349056D01*
X233012Y348391D01*
X233880Y348031D01*
X234820D01*
X235688Y348391D01*
X236353Y349056D01*
X236713Y349924D01*
Y350864D01*
X236353Y351732D01*
X235688Y352396D01*
X234820Y352756D01*
D02*
G37*
G36*
X245353Y351969D02*
X244805D01*
X244298Y351759D01*
X243911Y351371D01*
X243701Y350865D01*
Y350317D01*
X243911Y349810D01*
X244298Y349422D01*
X244508Y349336D01*
Y348794D01*
X244298Y348708D01*
X243911Y348320D01*
X243701Y347814D01*
Y347265D01*
X243911Y346759D01*
X244298Y346371D01*
X244805Y346161D01*
X245353D01*
X245859Y346371D01*
X246247Y346759D01*
X246457Y347265D01*
Y347814D01*
X246247Y348320D01*
X245859Y348708D01*
X245650Y348794D01*
Y349336D01*
X245859Y349422D01*
X246247Y349810D01*
X246457Y350317D01*
Y350865D01*
X246247Y351371D01*
X245859Y351759D01*
X245353Y351969D01*
D02*
G37*
G36*
X205491Y347342D02*
X204942D01*
X204436Y347133D01*
X204048Y346745D01*
X203839Y346239D01*
Y345690D01*
X204048Y345184D01*
X204436Y344796D01*
X204942Y344587D01*
X205491D01*
X205997Y344796D01*
X206385Y345184D01*
X206594Y345690D01*
Y346239D01*
X206385Y346745D01*
X205997Y347133D01*
X205491Y347342D01*
D02*
G37*
G36*
X163955Y347146D02*
X163407D01*
X162900Y346936D01*
X162513Y346548D01*
X162303Y346042D01*
Y345494D01*
X162513Y344987D01*
X162900Y344600D01*
X163407Y344390D01*
X163955D01*
X164462Y344600D01*
X164849Y344987D01*
X165059Y345494D01*
Y346042D01*
X164849Y346548D01*
X164462Y346936D01*
X163955Y347146D01*
D02*
G37*
G36*
X185609Y346850D02*
X185061D01*
X184554Y346641D01*
X184167Y346253D01*
X183957Y345746D01*
Y345198D01*
X184167Y344692D01*
X184554Y344304D01*
X185061Y344094D01*
X185609D01*
X186115Y344304D01*
X186503Y344692D01*
X186713Y345198D01*
Y345746D01*
X186503Y346253D01*
X186115Y346641D01*
X185609Y346850D01*
D02*
G37*
G36*
X116809Y345866D02*
X116261D01*
X115755Y345656D01*
X115367Y345269D01*
X115157Y344762D01*
Y344214D01*
X115367Y343708D01*
X115755Y343320D01*
X116261Y343110D01*
X116809D01*
X117316Y343320D01*
X117704Y343708D01*
X117913Y344214D01*
Y344762D01*
X117704Y345269D01*
X117316Y345656D01*
X116809Y345866D01*
D02*
G37*
G36*
X432020Y324381D02*
X431472D01*
X430965Y324171D01*
X430578Y323783D01*
X430368Y323277D01*
Y322729D01*
X430578Y322222D01*
X430965Y321835D01*
X431472Y321625D01*
X432020D01*
X432526Y321835D01*
X432914Y322222D01*
X433124Y322729D01*
Y323277D01*
X432914Y323783D01*
X432526Y324171D01*
X432020Y324381D01*
D02*
G37*
G36*
X422523Y313497D02*
X421975D01*
X421468Y313288D01*
X421080Y312900D01*
X420871Y312394D01*
Y311845D01*
X421080Y311339D01*
X421468Y310951D01*
X421975Y310741D01*
X422523D01*
X423029Y310951D01*
X423417Y311339D01*
X423627Y311845D01*
Y312394D01*
X423417Y312900D01*
X423029Y313288D01*
X422523Y313497D01*
D02*
G37*
G36*
X434135Y293931D02*
X433587D01*
X433081Y293721D01*
X432693Y293334D01*
X432483Y292827D01*
Y292279D01*
X432693Y291773D01*
X433081Y291385D01*
X433587Y291175D01*
X434135D01*
X434642Y291385D01*
X435030Y291773D01*
X435239Y292279D01*
Y292827D01*
X435030Y293334D01*
X434642Y293721D01*
X434135Y293931D01*
D02*
G37*
G36*
X427556Y289061D02*
X427008D01*
X426501Y288851D01*
X426114Y288463D01*
X425904Y287957D01*
Y287409D01*
X426114Y286902D01*
X426501Y286515D01*
X427008Y286305D01*
X427556D01*
X428062Y286515D01*
X428450Y286902D01*
X428660Y287409D01*
Y287957D01*
X428450Y288463D01*
X428062Y288851D01*
X427556Y289061D01*
D02*
G37*
G36*
X424979Y242598D02*
X424431D01*
X423924Y242388D01*
X423536Y242001D01*
X423327Y241494D01*
Y240946D01*
X423536Y240440D01*
X423924Y240052D01*
X424431Y239842D01*
X424979D01*
X425485Y240052D01*
X425873Y240440D01*
X426083Y240946D01*
Y241494D01*
X425873Y242001D01*
X425485Y242388D01*
X424979Y242598D01*
D02*
G37*
G36*
X427580Y209449D02*
X427032D01*
X426525Y209239D01*
X426138Y208852D01*
X425928Y208345D01*
Y207797D01*
X426138Y207290D01*
X426525Y206903D01*
X427032Y206693D01*
X427580D01*
X428087Y206903D01*
X428474Y207290D01*
X428684Y207797D01*
Y208345D01*
X428474Y208852D01*
X428087Y209239D01*
X427580Y209449D01*
D02*
G37*
G36*
X410018Y207972D02*
X409470D01*
X408963Y207763D01*
X408576Y207375D01*
X408366Y206869D01*
Y206320D01*
X408576Y205814D01*
X408963Y205426D01*
X409470Y205217D01*
X410018D01*
X410525Y205426D01*
X410912Y205814D01*
X411122Y206320D01*
Y206869D01*
X410912Y207375D01*
X410525Y207763D01*
X410018Y207972D01*
D02*
G37*
G36*
X440771Y200299D02*
X440223D01*
X439716Y200089D01*
X439328Y199701D01*
X439119Y199195D01*
Y198646D01*
X439328Y198140D01*
X439716Y197752D01*
X440223Y197543D01*
X440771D01*
X441277Y197752D01*
X441665Y198140D01*
X441875Y198646D01*
Y199195D01*
X441665Y199701D01*
X441277Y200089D01*
X440771Y200299D01*
D02*
G37*
G36*
X426258Y200079D02*
X425710D01*
X425204Y199869D01*
X424816Y199481D01*
X424606Y198975D01*
Y198426D01*
X424816Y197920D01*
X425204Y197532D01*
X425710Y197323D01*
X426258D01*
X426765Y197532D01*
X427152Y197920D01*
X427362Y198426D01*
Y198975D01*
X427152Y199481D01*
X426765Y199869D01*
X426258Y200079D01*
D02*
G37*
G36*
X411888Y197283D02*
X411340D01*
X410834Y197074D01*
X410446Y196686D01*
X410236Y196180D01*
Y195632D01*
X410446Y195125D01*
X410834Y194737D01*
X411340Y194528D01*
X411888D01*
X412395Y194737D01*
X412782Y195125D01*
X412992Y195632D01*
Y196180D01*
X412782Y196686D01*
X412395Y197074D01*
X411888Y197283D01*
D02*
G37*
G36*
X425962Y184744D02*
X425022D01*
X424154Y184385D01*
X423490Y183720D01*
X423130Y182852D01*
Y181912D01*
X423490Y181044D01*
X424154Y180379D01*
X425022Y180020D01*
X425962D01*
X426830Y180379D01*
X427495Y181044D01*
X427854Y181912D01*
Y182852D01*
X427495Y183720D01*
X426830Y184385D01*
X425962Y184744D01*
D02*
G37*
G36*
X411593Y169331D02*
X411045D01*
X410538Y169121D01*
X410151Y168733D01*
X409941Y168227D01*
Y167679D01*
X410151Y167172D01*
X410538Y166785D01*
X411045Y166575D01*
X411593D01*
X412099Y166785D01*
X412487Y167172D01*
X412697Y167679D01*
Y168227D01*
X412487Y168733D01*
X412099Y169121D01*
X411593Y169331D01*
D02*
G37*
G36*
X425176Y165256D02*
X424627D01*
X424121Y165046D01*
X423733Y164658D01*
X423524Y164152D01*
Y163604D01*
X423733Y163097D01*
X424121Y162710D01*
X424627Y162500D01*
X425176D01*
X425682Y162710D01*
X426070Y163097D01*
X426279Y163604D01*
Y164152D01*
X426070Y164658D01*
X425682Y165046D01*
X425176Y165256D01*
D02*
G37*
G36*
X434251Y160335D02*
X433703D01*
X433197Y160125D01*
X432809Y159737D01*
X432599Y159231D01*
Y158683D01*
X432809Y158176D01*
X433197Y157789D01*
X433703Y157579D01*
X434251D01*
X434758Y157789D01*
X435145Y158176D01*
X435355Y158683D01*
Y159231D01*
X435145Y159737D01*
X434758Y160125D01*
X434251Y160335D01*
D02*
G37*
G36*
X404408Y157480D02*
X403860D01*
X403353Y157271D01*
X402966Y156883D01*
X402756Y156376D01*
Y155828D01*
X402966Y155322D01*
X403353Y154934D01*
X403860Y154724D01*
X404408D01*
X404914Y154934D01*
X405302Y155322D01*
X405512Y155828D01*
Y156376D01*
X405302Y156883D01*
X404914Y157271D01*
X404408Y157480D01*
D02*
G37*
G36*
X425569Y155217D02*
X425021D01*
X424515Y155007D01*
X424127Y154619D01*
X423917Y154113D01*
Y153565D01*
X424127Y153058D01*
X424515Y152670D01*
X425021Y152461D01*
X425569D01*
X426076Y152670D01*
X426464Y153058D01*
X426673Y153565D01*
Y154113D01*
X426464Y154619D01*
X426076Y155007D01*
X425569Y155217D01*
D02*
G37*
G36*
X426258Y135138D02*
X425710D01*
X425204Y134928D01*
X424816Y134540D01*
X424606Y134034D01*
Y133486D01*
X424816Y132979D01*
X425204Y132592D01*
X425710Y132382D01*
X426258D01*
X426765Y132592D01*
X427152Y132979D01*
X427362Y133486D01*
Y134034D01*
X427152Y134540D01*
X426765Y134928D01*
X426258Y135138D01*
D02*
G37*
G36*
X413237Y130789D02*
X412689D01*
X412183Y130580D01*
X411795Y130192D01*
X411585Y129685D01*
Y129137D01*
X411795Y128631D01*
X412183Y128243D01*
X412689Y128033D01*
X413237D01*
X413744Y128243D01*
X414131Y128631D01*
X414341Y129137D01*
Y129685D01*
X414131Y130192D01*
X413744Y130580D01*
X413237Y130789D01*
D02*
G37*
G36*
X425962Y117027D02*
X425022D01*
X424154Y116668D01*
X423490Y116003D01*
X423130Y115135D01*
Y114196D01*
X423490Y113327D01*
X424154Y112663D01*
X425022Y112303D01*
X425962D01*
X426830Y112663D01*
X427495Y113327D01*
X427854Y114196D01*
Y115135D01*
X427495Y116003D01*
X426830Y116668D01*
X425962Y117027D01*
D02*
G37*
G36*
X413463Y102559D02*
X412915D01*
X412408Y102349D01*
X412021Y101962D01*
X411811Y101455D01*
Y100907D01*
X412021Y100400D01*
X412408Y100013D01*
X412915Y99803D01*
X413463D01*
X413970Y100013D01*
X414357Y100400D01*
X414567Y100907D01*
Y101455D01*
X414357Y101962D01*
X413970Y102349D01*
X413463Y102559D01*
D02*
G37*
G36*
X425247Y98044D02*
X424699D01*
X424192Y97834D01*
X423805Y97447D01*
X423595Y96940D01*
Y96392D01*
X423805Y95886D01*
X424192Y95498D01*
X424699Y95288D01*
X425247D01*
X425754Y95498D01*
X426141Y95886D01*
X426351Y96392D01*
Y96940D01*
X426141Y97447D01*
X425754Y97834D01*
X425247Y98044D01*
D02*
G37*
G36*
X441914Y94391D02*
X441366D01*
X440859Y94181D01*
X440472Y93793D01*
X440262Y93287D01*
Y92739D01*
X440472Y92232D01*
X440859Y91844D01*
X441366Y91635D01*
X441914D01*
X442420Y91844D01*
X442808Y92232D01*
X443018Y92739D01*
Y93287D01*
X442808Y93793D01*
X442420Y94181D01*
X441914Y94391D01*
D02*
G37*
G36*
X404900Y91535D02*
X404352D01*
X403845Y91326D01*
X403458Y90938D01*
X403248Y90432D01*
Y89883D01*
X403458Y89377D01*
X403845Y88989D01*
X404352Y88779D01*
X404900D01*
X405407Y88989D01*
X405794Y89377D01*
X406004Y89883D01*
Y90432D01*
X405794Y90938D01*
X405407Y91326D01*
X404900Y91535D01*
D02*
G37*
G36*
X425176Y89173D02*
X424627D01*
X424121Y88964D01*
X423733Y88576D01*
X423524Y88069D01*
Y87521D01*
X423733Y87015D01*
X424121Y86627D01*
X424627Y86417D01*
X425176D01*
X425682Y86627D01*
X426070Y87015D01*
X426279Y87521D01*
Y88069D01*
X426070Y88576D01*
X425682Y88964D01*
X425176Y89173D01*
D02*
G37*
G36*
X426258Y67320D02*
X425710D01*
X425204Y67110D01*
X424816Y66723D01*
X424606Y66216D01*
Y65668D01*
X424816Y65162D01*
X425204Y64774D01*
X425710Y64564D01*
X426258D01*
X426765Y64774D01*
X427152Y65162D01*
X427362Y65668D01*
Y66216D01*
X427152Y66723D01*
X426765Y67110D01*
X426258Y67320D01*
D02*
G37*
G36*
X413069Y65256D02*
X412521D01*
X412015Y65046D01*
X411627Y64658D01*
X411417Y64152D01*
Y63604D01*
X411627Y63097D01*
X412015Y62710D01*
X412521Y62500D01*
X413069D01*
X413576Y62710D01*
X413964Y63097D01*
X414173Y63604D01*
Y64152D01*
X413964Y64658D01*
X413576Y65046D01*
X413069Y65256D01*
D02*
G37*
G36*
X425962Y47933D02*
X425022D01*
X424154Y47573D01*
X423490Y46909D01*
X423130Y46041D01*
Y45101D01*
X423490Y44233D01*
X424154Y43568D01*
X425022Y43209D01*
X425962D01*
X426830Y43568D01*
X427495Y44233D01*
X427854Y45101D01*
Y46041D01*
X427495Y46909D01*
X426830Y47573D01*
X425962Y47933D01*
D02*
G37*
G36*
X411298Y36575D02*
X410749D01*
X410243Y36365D01*
X409856Y35977D01*
X409646Y35471D01*
Y34923D01*
X409856Y34416D01*
X410243Y34029D01*
X410749Y33819D01*
X411298D01*
X411804Y34029D01*
X412192Y34416D01*
X412402Y34923D01*
Y35471D01*
X412192Y35977D01*
X411804Y36365D01*
X411298Y36575D01*
D02*
G37*
G36*
X432656Y28740D02*
X432108D01*
X431601Y28530D01*
X431214Y28143D01*
X431004Y27636D01*
Y27088D01*
X431214Y26582D01*
X431601Y26194D01*
X432108Y25984D01*
X432656D01*
X433162Y26194D01*
X433550Y26582D01*
X433760Y27088D01*
Y27636D01*
X433550Y28143D01*
X433162Y28530D01*
X432656Y28740D01*
D02*
G37*
G36*
X427439Y22539D02*
X426891D01*
X426385Y22330D01*
X425997Y21942D01*
X425787Y21436D01*
Y20887D01*
X425997Y20381D01*
X426385Y19993D01*
X426891Y19783D01*
X427439D01*
X427946Y19993D01*
X428334Y20381D01*
X428543Y20887D01*
Y21436D01*
X428334Y21942D01*
X427946Y22330D01*
X427439Y22539D01*
D02*
G37*
G36*
X432545Y22147D02*
X431997D01*
X431490Y21937D01*
X431103Y21549D01*
X430893Y21043D01*
Y20495D01*
X431103Y19988D01*
X431490Y19601D01*
X431997Y19391D01*
X432545D01*
X433051Y19601D01*
X433439Y19988D01*
X433649Y20495D01*
Y21043D01*
X433439Y21549D01*
X433051Y21937D01*
X432545Y22147D01*
D02*
G37*
G36*
X407065Y16437D02*
X406517D01*
X406011Y16227D01*
X405623Y15840D01*
X405413Y15333D01*
Y14785D01*
X405623Y14278D01*
X406011Y13891D01*
X406517Y13681D01*
X407065D01*
X407572Y13891D01*
X407960Y14278D01*
X408169Y14785D01*
Y15333D01*
X407960Y15840D01*
X407572Y16227D01*
X407065Y16437D01*
D02*
G37*
G36*
X444841Y16105D02*
X444293D01*
X443786Y15896D01*
X443399Y15508D01*
X443189Y15002D01*
Y14453D01*
X443399Y13947D01*
X443786Y13559D01*
X444293Y13350D01*
X444841D01*
X445347Y13559D01*
X445735Y13947D01*
X445945Y14453D01*
Y15002D01*
X445735Y15508D01*
X445347Y15896D01*
X444841Y16105D01*
D02*
G37*
G36*
X425962Y14469D02*
X425022D01*
X424154Y14109D01*
X423490Y13444D01*
X423130Y12576D01*
Y11636D01*
X423490Y10768D01*
X424154Y10104D01*
X425022Y9744D01*
X425962D01*
X426830Y10104D01*
X427495Y10768D01*
X427854Y11636D01*
Y12576D01*
X427495Y13444D01*
X426830Y14109D01*
X425962Y14469D01*
D02*
G37*
G36*
X528113Y17723D02*
X527002D01*
X525929Y17435D01*
X524967Y16880D01*
X524181Y16094D01*
X523626Y15132D01*
X523338Y14059D01*
Y12949D01*
X523626Y11876D01*
X524181Y10914D01*
X524967Y10128D01*
X525929Y9573D01*
X527002Y9285D01*
X528113D01*
X529185Y9573D01*
X530148Y10128D01*
X530933Y10914D01*
X531488Y11876D01*
X531776Y12949D01*
Y14059D01*
X531488Y15132D01*
X530933Y16094D01*
X530148Y16880D01*
X529185Y17435D01*
X528113Y17723D01*
D02*
G37*
G36*
X488112D02*
X487002D01*
X485929Y17435D01*
X484967Y16880D01*
X484181Y16094D01*
X483626Y15132D01*
X483338Y14059D01*
Y12949D01*
X483626Y11876D01*
X484181Y10914D01*
X484967Y10128D01*
X485929Y9573D01*
X487002Y9285D01*
X488112D01*
X489185Y9573D01*
X490147Y10128D01*
X490933Y10914D01*
X491488Y11876D01*
X491776Y12949D01*
Y14059D01*
X491488Y15132D01*
X490933Y16094D01*
X490147Y16880D01*
X489185Y17435D01*
X488112Y17723D01*
D02*
G37*
%LPD*%
D10*
X-23796Y123304D02*
X-8094Y107602D01*
X-23796Y123304D02*
Y157243D01*
X-8094Y107602D02*
X1856D01*
X25017Y97237D02*
Y99399D01*
X25013Y99403D02*
X25017Y99399D01*
Y97237D02*
X40659Y81595D01*
X114030Y388189D02*
X462900D01*
X109193Y390158D02*
X463438D01*
X490329Y363266D01*
X462900Y388189D02*
X490185Y360904D01*
X490329D01*
X-35813Y202348D02*
X-27989Y194525D01*
Y164356D02*
Y194525D01*
X-36220Y221417D02*
X-24839Y210036D01*
Y169440D02*
Y210036D01*
X-32283Y232874D02*
X-21575Y222165D01*
Y170630D02*
Y222165D01*
X42028Y287402D02*
X47583Y292957D01*
X6440Y287402D02*
X42028D01*
X309803Y100295D02*
X319268Y90829D01*
X56890Y192323D02*
X69095Y180118D01*
X172736D01*
X284154Y119193D02*
X292077Y111270D01*
X101083Y119193D02*
X284154D01*
X172736Y180118D02*
X173917Y181299D01*
X95561Y196368D02*
X107442D01*
X93405Y198524D02*
X95561Y196368D01*
X40659Y81595D02*
X110630D01*
X116929Y87894D01*
X-12500Y192323D02*
X56890D01*
X107442Y196368D02*
X113552Y202478D01*
X297155Y202526D02*
X297203Y202478D01*
X113552D02*
X295770D01*
X295818Y202526D02*
X297155D01*
X295770Y202478D02*
X295818Y202526D01*
X-18602Y198425D02*
X-12500Y192323D01*
X116929Y87894D02*
X252854D01*
X314192Y114999D02*
X314448D01*
X309480Y109252D02*
X313121Y112894D01*
X306201Y109252D02*
X309480D01*
X315551Y110456D02*
Y113896D01*
X314448Y114999D02*
X315551Y113896D01*
X292126Y114961D02*
X297244D01*
X297342Y115059D01*
X95965Y121260D02*
X285827D01*
X292126Y114961D01*
X297155Y111270D02*
X297228Y111197D01*
X292077Y111270D02*
X297155D01*
X312680Y109016D02*
X312730Y109066D01*
X314162D01*
X315551Y110456D01*
X-17689Y189764D02*
X-15154Y187229D01*
X48893D01*
X55315Y180807D01*
X49061Y220669D02*
X49428Y221037D01*
X26870Y220669D02*
X49061D01*
X27473Y161614D02*
X29048Y163189D01*
X86713D01*
X-15709Y133524D02*
Y164764D01*
Y133524D02*
X3150Y114665D01*
X-21575Y170630D02*
X-15709Y164764D01*
X252854Y87894D02*
X265256Y100295D01*
X309803D01*
X87106Y130118D02*
X95965Y121260D01*
X7261Y109963D02*
X13091Y104134D01*
X3226Y109963D02*
X7261D01*
X4689Y112679D02*
X4796Y112572D01*
X2631Y112679D02*
X4689D01*
X-11467Y105830D02*
X295D01*
X-25371Y119734D02*
X-11467Y105830D01*
X1856Y107602D02*
X2079Y107379D01*
X-17402Y132711D02*
X2631Y112679D01*
X-25371Y119734D02*
Y146631D01*
X-18976Y132165D02*
X3226Y109963D01*
X-20641Y129358D02*
X-4866Y113583D01*
X-18976Y132165D02*
Y163577D01*
X-4866Y113583D02*
X-4724D01*
X-20641Y129358D02*
Y162975D01*
X-4236Y109744D02*
X-4232D01*
X-22216Y127724D02*
X-4236Y109744D01*
X-22216Y127724D02*
Y158583D01*
X-17402Y132711D02*
Y164230D01*
X-23194Y170022D02*
X-17402Y164230D01*
X-26414Y168748D02*
Y205115D01*
X-36496Y215197D02*
X-26414Y205115D01*
X-19702Y261260D02*
X6440Y287402D01*
X100200Y374359D02*
X114030Y388189D01*
X43590Y76128D02*
X46301Y78839D01*
X490543Y352091D02*
Y352719D01*
X46301Y78839D02*
X68110D01*
X-23194Y170022D02*
Y217978D01*
X-24839Y169440D02*
X-18976Y163577D01*
X-26414Y168748D02*
X-20641Y162975D01*
X-38701Y172047D02*
X-38601D01*
X-23796Y157243D01*
X-27989Y164356D02*
X-22216Y158583D01*
X-33268Y228051D02*
X-23194Y217978D01*
X91043Y372008D02*
X109193Y390158D01*
X456759Y383858D02*
X490787Y349830D01*
X490537Y352085D02*
X490543Y352091D01*
X457868Y385394D02*
X490543Y352719D01*
X113740Y385394D02*
X457868D01*
X116109Y383858D02*
X456759D01*
X453155Y380512D02*
X473110Y360557D01*
X117504Y376477D02*
X121539Y380512D01*
X453155D01*
X118701Y373819D02*
X122303Y377421D01*
X451713D01*
X471080Y358053D01*
X472968D01*
X473110Y360557D02*
X473110D01*
X449902Y374410D02*
X477639Y346672D01*
X181693Y374410D02*
X449902D01*
X175000Y367717D02*
X181693Y374410D01*
X477639Y346672D02*
X479943D01*
X199705Y370965D02*
X448622D01*
X476194Y343393D02*
X480657D01*
X448622Y370965D02*
X476194Y343393D01*
X195276Y366535D02*
X199705Y370965D01*
X91043Y368602D02*
Y372008D01*
X112598Y384252D02*
X113740Y385394D01*
X114330Y382080D02*
X116109Y383858D01*
X114330Y381978D02*
Y382080D01*
X479943Y346672D02*
X480169Y346446D01*
X-36732Y157992D02*
X-25371Y146631D01*
D101*
X387894Y366240D02*
D03*
X370472D02*
D03*
X398228D02*
D03*
X382185D02*
D03*
X393012D02*
D03*
X376476D02*
D03*
X307087D02*
D03*
X323622D02*
D03*
X314567D02*
D03*
X331201D02*
D03*
X301083Y366240D02*
D03*
X57480Y372047D02*
D03*
X146850Y371358D02*
D03*
X30118Y178937D02*
D03*
Y199705D02*
D03*
X28543Y327854D02*
D03*
X28445Y316929D02*
D03*
X146949Y358661D02*
D03*
X456437Y190728D02*
D03*
X462716Y106063D02*
D03*
X456595Y212008D02*
D03*
X456732Y178819D02*
D03*
X456811Y106063D02*
D03*
X456693Y217717D02*
D03*
X456811Y123819D02*
D03*
X456791Y112303D02*
D03*
X456732Y172874D02*
D03*
X456811Y117913D02*
D03*
X456693Y229528D02*
D03*
X456732Y184724D02*
D03*
X456693Y223622D02*
D03*
X462638Y184724D02*
D03*
X462598Y217717D02*
D03*
X462638Y172874D02*
D03*
X462598Y223622D02*
D03*
X462716Y123819D02*
D03*
X462638Y190630D02*
D03*
X462785Y111939D02*
D03*
X462598Y229528D02*
D03*
X462638Y178819D02*
D03*
X462697Y117913D02*
D03*
X462894Y212205D02*
D03*
X462756Y46496D02*
D03*
X456850D02*
D03*
Y58307D02*
D03*
Y52402D02*
D03*
Y40551D02*
D03*
X462756Y58307D02*
D03*
Y52402D02*
D03*
Y40551D02*
D03*
D103*
X294291Y60630D02*
X321069Y87407D01*
X336976D01*
X172146Y67126D02*
X288976D01*
X299016Y77165D01*
D104*
X88954Y64564D02*
X96529Y56988D01*
X375590D02*
X396457Y77854D01*
X96529Y56988D02*
X375590D01*
X446880Y91849D02*
X446910D01*
Y58834D02*
X447146Y58598D01*
X446910Y58834D02*
Y91849D01*
X447146Y25492D02*
Y58598D01*
X307330Y274075D02*
X312448Y268957D01*
X209941Y274075D02*
X307330D01*
X298766Y166535D02*
X298962Y166732D01*
X162303Y166535D02*
X298766D01*
X298962Y166732D02*
X299016D01*
X195411Y260039D02*
X387894D01*
X194768Y259449D02*
X194821D01*
X195411Y260039D01*
X445177Y257579D02*
Y272619D01*
Y211122D02*
Y257579D01*
Y211122D02*
X447244Y209055D01*
X446935Y159566D02*
X446973Y159604D01*
Y162032D02*
X447244Y162303D01*
X446973Y159604D02*
Y162032D01*
X446910Y91940D02*
Y159540D01*
X447244Y162303D02*
Y209055D01*
X445177Y272619D02*
X456735Y284177D01*
D107*
X-30315Y249213D02*
X-30301Y249199D01*
X-10786D01*
X-10772Y249184D01*
X-7953Y256890D02*
X-2638Y251575D01*
X78515D01*
X192963Y276821D02*
X193012Y276772D01*
X60187Y276821D02*
X192963D01*
X60138Y276870D02*
X60187Y276821D01*
X193012Y276772D02*
X321457D01*
X-3740Y185335D02*
X6736Y174859D01*
X318628D01*
X3248Y171949D02*
X320637D01*
X-5610Y180807D02*
X3248Y171949D01*
X322102Y173414D02*
Y175173D01*
X320637Y171949D02*
X322102Y173414D01*
X309830Y103051D02*
X322019Y90862D01*
X263583Y103051D02*
X309830D01*
X252746Y92215D02*
X263583Y103051D01*
X217421Y271752D02*
X221895Y267278D01*
X109335Y271752D02*
X217421D01*
X221895Y267278D02*
X304554D01*
X321457Y276772D02*
X327165Y271063D01*
X23031Y109744D02*
X40561Y92215D01*
X252746D01*
X139862Y255709D02*
X389601D01*
X389647Y255755D01*
X390204D01*
X390354Y255906D01*
X101597Y213779D02*
X105549Y209828D01*
X296210D01*
X101810Y126965D02*
X105841Y122933D01*
X100984Y42224D02*
X111024Y32185D01*
X288091D01*
X-11943Y153451D02*
X27433Y114075D01*
X204823D01*
X76870Y207261D02*
X295407D01*
X296117Y206550D01*
X296437D01*
X307972Y200098D02*
X312697Y204823D01*
X304823Y200098D02*
X307972D01*
X313681Y207382D02*
X314961Y206102D01*
Y202461D02*
Y206102D01*
X312303Y199803D02*
X314961Y202461D01*
X310531Y199803D02*
X312303D01*
X297113Y117717D02*
X297242Y117588D01*
X292815Y117717D02*
X297113D01*
X287598Y122933D02*
X292815Y117717D01*
X288091Y32185D02*
X292621Y27655D01*
X206988Y21358D02*
X293688D01*
X201378Y26969D02*
X206988Y21358D01*
X208366Y27953D02*
X211417Y24902D01*
X294560D01*
X306582Y18993D02*
X311204Y23615D01*
X305761Y18993D02*
X306582D01*
X305610Y18842D02*
X305761Y18993D01*
X313961Y24055D02*
X314111Y24206D01*
X311237Y18793D02*
X313961Y21517D01*
Y24055D01*
X216071Y267520D02*
X221087Y262504D01*
X320892D01*
X321002Y262394D01*
X6945Y227067D02*
X19094D01*
X19193Y227165D01*
X-23087Y227067D02*
X6945D01*
X-34882Y238862D02*
X-23087Y227067D01*
X306665Y265167D02*
X316133D01*
X304554Y267278D02*
X306665Y265167D01*
X94460Y267520D02*
X216071D01*
X78515Y251575D02*
X94460Y267520D01*
X8293Y271654D02*
X109237D01*
X109335Y271752D01*
X-4882Y258479D02*
X8293Y271654D01*
X-8661Y251772D02*
X-5315Y248425D01*
X-31063Y251772D02*
X-8661D01*
X165698Y122933D02*
X165698Y122933D01*
X105841Y122933D02*
X165698D01*
X165698Y122933D02*
X287598D01*
X-15751Y207281D02*
X76614D01*
X-18307Y204724D02*
X-15751Y207281D01*
X-18504Y204724D02*
X-18307D01*
X91634Y7874D02*
X450118D01*
X83169Y16339D02*
X91634Y7874D01*
X450118D02*
X460669Y18425D01*
D110*
X502518Y89803D02*
D03*
Y33504D02*
D03*
Y146102D02*
D03*
Y202402D02*
D03*
D114*
X541890Y374016D02*
D03*
Y324016D02*
D03*
Y355709D02*
D03*
Y305709D02*
D03*
D115*
X294291Y60630D02*
D03*
X25013Y99403D02*
D03*
X490329Y363266D02*
D03*
Y360904D02*
D03*
X-30315Y249213D02*
D03*
X60138Y276870D02*
D03*
X447146Y25492D02*
D03*
X185335Y371752D02*
D03*
X180807Y365354D02*
D03*
X98327Y376378D02*
D03*
X93012Y369783D02*
D03*
X452656Y297429D02*
D03*
X193405Y368602D02*
D03*
X175000Y370374D02*
D03*
X114665Y378642D02*
D03*
X118405Y381299D02*
D03*
X40630Y379567D02*
D03*
X30847D02*
D03*
X21063D02*
D03*
X307157Y169980D02*
D03*
X322094Y90862D02*
D03*
X319268Y90829D02*
D03*
X205020Y200197D02*
D03*
X193012Y276772D02*
D03*
X209941Y274075D02*
D03*
X78740Y312500D02*
D03*
X101575Y213779D02*
D03*
X101810Y126965D02*
D03*
X100984Y42224D02*
D03*
X101083Y119193D02*
D03*
X173917Y181299D02*
D03*
X93405Y198524D02*
D03*
X204823Y114075D02*
D03*
X39272Y112106D02*
D03*
X162303Y166535D02*
D03*
X172146Y67126D02*
D03*
X151299Y181890D02*
D03*
X317520Y25098D02*
D03*
X317225Y206201D02*
D03*
X312697Y204823D02*
D03*
X313681Y207382D02*
D03*
X310531Y199803D02*
D03*
X304823Y200098D02*
D03*
X314192Y114999D02*
D03*
X317884Y114272D02*
D03*
X297242Y117588D02*
D03*
X297342Y115059D02*
D03*
X297228Y111197D02*
D03*
X313121Y112894D02*
D03*
X312680Y109016D02*
D03*
X306201Y109252D02*
D03*
X293688Y21358D02*
D03*
X201378Y26969D02*
D03*
X294560Y24902D02*
D03*
X208366Y27953D02*
D03*
X292621Y27655D02*
D03*
X311204Y23615D02*
D03*
X314111Y24206D02*
D03*
X311237Y18793D02*
D03*
X305610Y18842D02*
D03*
X327238Y283074D02*
D03*
X321002Y262394D02*
D03*
X322102Y175173D02*
D03*
X318628Y174859D02*
D03*
X425780Y74357D02*
D03*
X327165Y271063D02*
D03*
X49428Y221037D02*
D03*
X26870Y220669D02*
D03*
X23031Y109744D02*
D03*
X27473Y161614D02*
D03*
X19193Y227165D02*
D03*
X316160Y265167D02*
D03*
X312448Y268957D02*
D03*
X-10772Y249184D02*
D03*
X-3740Y185335D02*
D03*
X-5610Y180807D02*
D03*
X-5315Y248425D02*
D03*
X39790Y181820D02*
D03*
X-11943Y153451D02*
D03*
X304017Y83206D02*
D03*
X-32283Y232874D02*
D03*
X299016Y77165D02*
D03*
X299016Y166732D02*
D03*
X336976Y87407D02*
D03*
X30709Y118602D02*
D03*
X87106Y130118D02*
D03*
X296210Y209828D02*
D03*
X76870Y207261D02*
D03*
X296437Y206550D02*
D03*
X-18504Y204724D02*
D03*
X87701Y200454D02*
D03*
X296821Y202752D02*
D03*
X390354Y255906D02*
D03*
X387894Y260039D02*
D03*
X404035Y215512D02*
D03*
X83169Y16339D02*
D03*
X182780Y345480D02*
D03*
X30512Y128937D02*
D03*
X55315Y180807D02*
D03*
X47638Y293012D02*
D03*
X447244Y209055D02*
D03*
X38878Y15551D02*
D03*
X38976Y28839D02*
D03*
X13091Y104134D02*
D03*
X3150Y114665D02*
D03*
X4796Y112572D02*
D03*
X295Y105830D02*
D03*
X2079Y107379D02*
D03*
X-4724Y113583D02*
D03*
X-4232Y109744D02*
D03*
X30906Y346949D02*
D03*
X446910Y91940D02*
D03*
X446935Y159566D02*
D03*
X445177Y257579D02*
D03*
X456735Y284177D02*
D03*
X434350Y332835D02*
D03*
X50529Y314771D02*
D03*
X136221Y350590D02*
D03*
X30807Y157776D02*
D03*
X32579Y95768D02*
D03*
X10079Y241339D02*
D03*
Y238189D02*
D03*
Y244488D02*
D03*
X2835Y127598D02*
D03*
X27677Y321886D02*
D03*
X178543Y192717D02*
D03*
X9941Y159350D02*
D03*
X30299Y295629D02*
D03*
X36752Y198917D02*
D03*
Y203740D02*
D03*
X12539Y238189D02*
D03*
Y241339D02*
D03*
Y244488D02*
D03*
X39272Y100591D02*
D03*
X30807Y146063D02*
D03*
X30610Y121850D02*
D03*
X59252Y203150D02*
D03*
X36555Y209646D02*
D03*
X18642Y232776D02*
D03*
X30807Y150886D02*
D03*
X31988Y51673D02*
D03*
X31890Y47539D02*
D03*
X39075Y64102D02*
D03*
X30906Y166535D02*
D03*
X100194Y374366D02*
D03*
X91000Y368289D02*
D03*
X426170Y203637D02*
D03*
X86713Y163189D02*
D03*
X43590Y76128D02*
D03*
X68110Y78839D02*
D03*
X-17689Y189764D02*
D03*
X-33268Y228051D02*
D03*
X139862Y255709D02*
D03*
X-18602Y198425D02*
D03*
X-34882Y238937D02*
D03*
X194768Y259449D02*
D03*
X402192Y23859D02*
D03*
X490787Y349830D02*
D03*
X490929Y352334D02*
D03*
X472968Y358053D02*
D03*
X473110Y360557D02*
D03*
X425098Y141634D02*
D03*
X114330Y381978D02*
D03*
X112598Y384252D02*
D03*
X117504Y376477D02*
D03*
X118701Y373819D02*
D03*
X220866Y342705D02*
D03*
X396457Y77854D02*
D03*
X-36220Y221417D02*
D03*
X195276Y366535D02*
D03*
X175000Y367717D02*
D03*
X124392Y342940D02*
D03*
X88954Y64564D02*
D03*
X-19702Y261260D02*
D03*
X-4882Y258479D02*
D03*
X-36732Y157992D02*
D03*
X403483Y95884D02*
D03*
X402756Y162992D02*
D03*
X480169Y346446D02*
D03*
X-38701Y172047D02*
D03*
X460669Y18425D02*
D03*
X-35827Y202362D02*
D03*
X-36496Y215197D02*
D03*
X-31063Y251772D02*
D03*
X480657Y343393D02*
D03*
X-7953Y256890D02*
D03*
M02*
