G04*
G04 #@! TF.GenerationSoftware,Altium Limited,Altium Designer,24.9.1 (31)*
G04*
G04 Layer_Physical_Order=3*
G04 Layer_Color=16440176*
%FSLAX25Y25*%
%MOIN*%
G70*
G04*
G04 #@! TF.SameCoordinates,750FAD7C-2C45-4948-A75F-6248DA3FEDE9*
G04*
G04*
G04 #@! TF.FilePolarity,Positive*
G04*
G01*
G75*
%ADD11C,0.02362*%
%ADD14C,0.00787*%
%ADD101C,0.03937*%
%ADD103C,0.01181*%
%ADD104C,0.01968*%
%ADD106C,0.01772*%
%ADD110C,0.13287*%
%ADD111C,0.05906*%
%ADD114C,0.12598*%
%ADD115C,0.01968*%
G36*
X215217Y392342D02*
Y366339D01*
X215255Y366151D01*
X215254Y365958D01*
X215254Y365958D01*
X215256Y365953D01*
Y365948D01*
X215270Y365914D01*
X215302Y365751D01*
X215364Y365601D01*
X215370Y365571D01*
X215376Y365562D01*
X215382Y365550D01*
X215382Y365550D01*
X215417Y365374D01*
X215526Y365210D01*
X215602Y365027D01*
X215742Y364887D01*
X215852Y364722D01*
X215915Y364680D01*
X215930Y364654D01*
X215984Y364370D01*
X215930Y364086D01*
X215915Y364060D01*
X215852Y364018D01*
X215742Y363853D01*
X215602Y363713D01*
X215526Y363531D01*
X215417Y363367D01*
X215382Y363191D01*
X215382Y363190D01*
X215376Y363178D01*
X215370Y363169D01*
X215364Y363139D01*
X215302Y362989D01*
X215274Y362848D01*
X215261Y362818D01*
X215261Y362817D01*
X215261Y362804D01*
X215256Y362791D01*
X215256Y362594D01*
X215217Y362401D01*
Y362203D01*
Y250788D01*
X215255Y250599D01*
X215254Y250407D01*
X215254Y250407D01*
X215256Y250402D01*
Y250397D01*
X215270Y250363D01*
X215302Y250200D01*
X215364Y250050D01*
X215370Y250020D01*
X215376Y250011D01*
X215382Y249999D01*
X215382Y249998D01*
X215417Y249822D01*
X215526Y249658D01*
X215602Y249476D01*
X215742Y249336D01*
X215852Y249171D01*
X215915Y249129D01*
X215930Y249103D01*
X215984Y248819D01*
X215930Y248535D01*
X215915Y248509D01*
X215852Y248466D01*
X215742Y248302D01*
X215602Y248162D01*
X215526Y247979D01*
X215417Y247815D01*
X215382Y247639D01*
X215382Y247639D01*
X215376Y247627D01*
X215370Y247618D01*
X215364Y247588D01*
X215302Y247438D01*
X215274Y247297D01*
X215261Y247266D01*
X215261Y247266D01*
X215261Y247253D01*
X215256Y247240D01*
X215256Y247043D01*
X215217Y246850D01*
Y246652D01*
Y145768D01*
X215255Y145580D01*
X215254Y145387D01*
X215254Y145387D01*
X215256Y145382D01*
Y145377D01*
X215270Y145343D01*
X215302Y145180D01*
X215364Y145030D01*
X215370Y145000D01*
X215376Y144991D01*
X215382Y144979D01*
X215382Y144979D01*
X215417Y144803D01*
X215526Y144639D01*
X215602Y144456D01*
X215742Y144316D01*
X215852Y144152D01*
X215915Y144109D01*
X215930Y144083D01*
X215984Y143799D01*
X215930Y143515D01*
X215915Y143489D01*
X215852Y143447D01*
X215742Y143282D01*
X215602Y143142D01*
X215526Y142960D01*
X215417Y142796D01*
X215382Y142620D01*
X215382Y142620D01*
X215376Y142607D01*
X215370Y142598D01*
X215364Y142568D01*
X215302Y142418D01*
X215274Y142277D01*
X215261Y142247D01*
X215261Y142246D01*
X215261Y142233D01*
X215256Y142221D01*
X215256Y142024D01*
X215217Y141830D01*
Y131780D01*
X215256Y131586D01*
X215256Y131566D01*
X215248Y131446D01*
X215256Y131424D01*
Y131388D01*
X215269Y131323D01*
X215345Y131140D01*
X215370Y131012D01*
X215426Y130929D01*
X215503Y130705D01*
X215545Y130658D01*
X215569Y130599D01*
X215802Y130366D01*
X215805Y130361D01*
X215808Y130359D01*
X216021Y130118D01*
X216108Y130052D01*
X216108Y129552D01*
X216021Y129485D01*
X215808Y129244D01*
X215805Y129242D01*
X215802Y129237D01*
X215569Y129004D01*
X215545Y128946D01*
X215503Y128898D01*
X215426Y128675D01*
X215370Y128591D01*
X215345Y128463D01*
X215269Y128281D01*
X215256Y128215D01*
Y128179D01*
X215248Y128157D01*
X215256Y128038D01*
Y128017D01*
X215217Y127823D01*
Y115835D01*
X215278Y115528D01*
X215315Y115217D01*
X215470Y114736D01*
X215510Y114666D01*
X215526Y114586D01*
X215700Y114326D01*
X215852Y114053D01*
X215916Y114003D01*
X215961Y113935D01*
X215997Y113851D01*
X216015Y113372D01*
X215979Y113315D01*
X215852Y113230D01*
X215742Y113066D01*
X215602Y112926D01*
X215526Y112743D01*
X215417Y112579D01*
X215382Y112403D01*
X215382Y112403D01*
X215376Y112391D01*
X215370Y112381D01*
X215364Y112352D01*
X215302Y112202D01*
X215274Y112061D01*
X215261Y112030D01*
X215261Y112030D01*
X215261Y112016D01*
X215256Y112004D01*
X215256Y111807D01*
X215217Y111613D01*
Y111416D01*
Y1020D01*
X11811D01*
X11104D01*
X9701Y1204D01*
X8335Y1570D01*
X7028Y2112D01*
X5803Y2819D01*
X4680Y3680D01*
X3680Y4680D01*
X2819Y5803D01*
X2112Y7028D01*
X1570Y8335D01*
X1204Y9701D01*
X1020Y11104D01*
X1020Y11811D01*
X1020Y99508D01*
X942Y99898D01*
X721Y100229D01*
X390Y100450D01*
X-0Y100527D01*
X-23910D01*
X-23934Y100522D01*
X-23960Y100526D01*
X-24345Y100507D01*
X-24419Y100489D01*
X-24494D01*
X-25251Y100338D01*
X-25344Y100300D01*
X-25442Y100280D01*
X-26155Y99985D01*
X-26239Y99929D01*
X-26332Y99891D01*
X-26974Y99462D01*
X-27044Y99391D01*
X-27128Y99335D01*
X-27674Y98789D01*
X-27729Y98706D01*
X-27801Y98635D01*
X-28229Y97993D01*
X-28268Y97900D01*
X-28324Y97817D01*
X-28619Y97104D01*
X-28638Y97005D01*
X-28677Y96913D01*
X-28828Y96156D01*
Y96080D01*
X-28846Y96007D01*
X-28865Y95621D01*
X-28861Y95596D01*
X-28866Y95571D01*
Y93209D01*
X-28866Y93098D01*
X-28951Y92894D01*
X-29107Y92738D01*
X-29311Y92653D01*
X-33834D01*
Y105413D01*
X-33839Y105439D01*
X-33836Y105464D01*
X-33855Y105850D01*
X-33873Y105923D01*
X-33873Y105998D01*
X-34023Y106755D01*
X-34062Y106848D01*
X-34082Y106946D01*
X-34377Y107659D01*
X-34433Y107743D01*
X-34471Y107835D01*
X-34900Y108477D01*
X-34971Y108548D01*
X-35026Y108632D01*
X-35572Y109177D01*
X-35656Y109233D01*
X-35727Y109304D01*
X-36368Y109733D01*
X-36461Y109772D01*
X-36545Y109827D01*
X-37258Y110123D01*
X-37356Y110142D01*
X-37449Y110181D01*
X-38206Y110331D01*
X-38282D01*
X-38355Y110350D01*
X-38741Y110369D01*
X-38766Y110365D01*
X-38791Y110370D01*
X-56496D01*
Y184807D01*
X-38004Y184807D01*
X-37971Y184814D01*
X-37937Y184809D01*
X-37321Y184850D01*
X-37224Y184876D01*
X-37123Y184882D01*
X-35932Y185202D01*
X-35813Y185261D01*
X-35686Y185303D01*
X-34618Y185920D01*
X-34518Y186008D01*
X-34407Y186082D01*
X-33535Y186954D01*
X-33461Y187065D01*
X-33373Y187165D01*
X-32756Y188233D01*
X-32713Y188360D01*
X-32654Y188479D01*
X-32335Y189671D01*
X-32326Y189804D01*
X-32300Y189935D01*
Y191168D01*
X-32326Y191299D01*
X-32335Y191432D01*
X-32654Y192623D01*
X-32713Y192743D01*
X-32756Y192869D01*
X-33373Y193937D01*
X-33461Y194037D01*
X-33535Y194148D01*
X-34407Y195020D01*
X-34518Y195094D01*
X-34618Y195182D01*
X-35686Y195799D01*
X-35813Y195842D01*
X-35932Y195901D01*
X-37123Y196220D01*
X-37224Y196227D01*
X-37321Y196253D01*
X-37937Y196293D01*
X-37971Y196289D01*
X-38004Y196295D01*
X-56496D01*
Y283331D01*
X-38791D01*
X-38766Y283336D01*
X-38741Y283332D01*
X-38355Y283351D01*
X-38282Y283369D01*
X-38206Y283369D01*
X-37449Y283520D01*
X-37356Y283558D01*
X-37258Y283578D01*
X-36545Y283873D01*
X-36461Y283929D01*
X-36368Y283967D01*
X-35727Y284396D01*
X-35656Y284467D01*
X-35572Y284523D01*
X-35026Y285069D01*
X-34971Y285152D01*
X-34900Y285223D01*
X-34471Y285865D01*
X-34432Y285958D01*
X-34377Y286041D01*
X-34081Y286754D01*
X-34062Y286853D01*
X-34023Y286946D01*
X-33873Y287703D01*
X-33873Y287778D01*
X-33854Y287852D01*
X-33835Y288237D01*
X-33839Y288263D01*
X-33834Y288287D01*
Y301047D01*
X-29421D01*
X-29421Y301047D01*
X-29421Y301047D01*
X-29311Y301047D01*
X-29107Y300963D01*
X-28951Y300807D01*
X-28866Y300603D01*
X-28866Y300492D01*
X-28866Y300492D01*
X-28866Y300492D01*
Y298130D01*
X-28861Y298105D01*
X-28865Y298080D01*
X-28846Y297694D01*
X-28828Y297621D01*
Y297545D01*
X-28677Y296788D01*
X-28638Y296695D01*
X-28619Y296597D01*
X-28324Y295884D01*
X-28268Y295800D01*
X-28229Y295708D01*
X-27801Y295066D01*
X-27730Y294995D01*
X-27674Y294911D01*
X-27128Y294366D01*
X-27044Y294310D01*
X-26974Y294239D01*
X-26332Y293810D01*
X-26239Y293772D01*
X-26155Y293716D01*
X-25442Y293421D01*
X-25344Y293401D01*
X-25251Y293362D01*
X-24494Y293212D01*
X-24419D01*
X-24345Y293194D01*
X-23959Y293175D01*
X-23934Y293178D01*
X-23910Y293173D01*
X-0D01*
X390Y293251D01*
X721Y293472D01*
X942Y293803D01*
X1020Y294193D01*
Y381890D01*
X1020Y382597D01*
X1204Y384000D01*
X1570Y385366D01*
X2112Y386673D01*
X2819Y387898D01*
X3680Y389020D01*
X4681Y390021D01*
X5803Y390882D01*
X7028Y391589D01*
X8335Y392130D01*
X9701Y392497D01*
X11104Y392681D01*
X11811Y392681D01*
X11811Y392681D01*
X11811Y392681D01*
X214864Y392696D01*
X215217Y392342D01*
D02*
G37*
G36*
X545972Y392535D02*
X547338Y392169D01*
X548645Y391628D01*
X549870Y390920D01*
X550993Y390059D01*
X551993Y389059D01*
X552854Y387937D01*
X553561Y386712D01*
X554103Y385405D01*
X554469Y384038D01*
X554654Y382636D01*
Y381928D01*
X554654Y235925D01*
X531781D01*
X531531Y236358D01*
X531855Y236920D01*
X532169Y238094D01*
Y239308D01*
X531855Y240481D01*
X531248Y241533D01*
X530389Y242392D01*
X529338Y242999D01*
X528164Y243313D01*
X526950D01*
X525777Y242999D01*
X524725Y242392D01*
X523866Y241533D01*
X523259Y240481D01*
X522945Y239308D01*
Y238094D01*
X523259Y236920D01*
X523584Y236358D01*
X523334Y235925D01*
X491781D01*
X491531Y236358D01*
X491855Y236920D01*
X492170Y238094D01*
Y239308D01*
X491855Y240481D01*
X491248Y241533D01*
X490389Y242392D01*
X489337Y242999D01*
X488164Y243313D01*
X486950D01*
X485777Y242999D01*
X484725Y242392D01*
X483866Y241533D01*
X483259Y240481D01*
X482945Y239308D01*
Y238094D01*
X483259Y236920D01*
X483584Y236358D01*
X483334Y235925D01*
X480413D01*
X468602Y247736D01*
X455465D01*
X455281Y247773D01*
X439454D01*
X439270Y247736D01*
X415078D01*
X401963Y260852D01*
X401409Y261222D01*
X400756Y261352D01*
X399573D01*
X396850Y264075D01*
X384744D01*
Y234867D01*
X384582Y234716D01*
X384282Y234563D01*
X384206Y234556D01*
X383650Y234705D01*
X382925D01*
X382224Y234517D01*
X381595Y234154D01*
X381082Y233641D01*
X380800Y233152D01*
X380665Y233112D01*
X380379D01*
X380244Y233152D01*
X379961Y233641D01*
X379448Y234154D01*
X378820Y234517D01*
X378119Y234705D01*
X377393D01*
X376692Y234517D01*
X376064Y234154D01*
X375551Y233641D01*
X375436Y233443D01*
X374859D01*
X374745Y233641D01*
X374232Y234154D01*
X373603Y234517D01*
X372902Y234705D01*
X372177D01*
X371476Y234517D01*
X370847Y234154D01*
X370334Y233641D01*
X369971Y233013D01*
X369783Y232312D01*
Y231586D01*
X369971Y230885D01*
X370296Y230323D01*
X370141Y229823D01*
X349213Y229823D01*
X349153Y229763D01*
X337106D01*
X336338Y229610D01*
X335687Y229175D01*
X335252Y228524D01*
X335099Y227756D01*
Y197638D01*
X335252Y196870D01*
X335687Y196219D01*
X336338Y195783D01*
X337106Y195631D01*
X339228D01*
X366043Y168815D01*
Y162716D01*
X365866Y162681D01*
X365215Y162246D01*
X364780Y161595D01*
X364627Y160827D01*
Y155166D01*
X364127Y154974D01*
X363541Y155217D01*
X362837D01*
X362185Y154947D01*
X361687Y154448D01*
X361417Y153797D01*
Y153093D01*
X361687Y152441D01*
X362160Y151969D01*
X361687Y151496D01*
X361417Y150845D01*
Y150140D01*
X361687Y149489D01*
X362185Y148990D01*
X362372Y148913D01*
Y148372D01*
X362087Y148254D01*
X361589Y147756D01*
X361319Y147104D01*
Y146400D01*
X361589Y145748D01*
X361963Y145374D01*
X361589Y145000D01*
X361319Y144349D01*
Y143644D01*
X361589Y142992D01*
X362087Y142494D01*
X361833Y142095D01*
X361687Y141948D01*
X361417Y141297D01*
Y140593D01*
X361687Y139941D01*
X362185Y139443D01*
X362837Y139173D01*
X363541D01*
X364127Y139416D01*
X364627Y139224D01*
Y138227D01*
X337106D01*
X336338Y138075D01*
X335687Y137640D01*
X335252Y136988D01*
X335099Y136221D01*
Y99508D01*
X335252Y98740D01*
X335687Y98089D01*
X336338Y97654D01*
X337106Y97501D01*
X366043D01*
Y76416D01*
X364272D01*
X363538Y76271D01*
X363405Y76403D01*
X362754Y76673D01*
X362049D01*
X361398Y76403D01*
X360900Y75905D01*
X360630Y75254D01*
Y74549D01*
X360900Y73898D01*
X361372Y73425D01*
X360900Y72952D01*
X360630Y72301D01*
Y71596D01*
X360900Y70945D01*
X361323Y70522D01*
X360900Y70098D01*
X360630Y69447D01*
Y68742D01*
X360900Y68091D01*
X361398Y67593D01*
X362049Y67323D01*
X362265D01*
Y55610D01*
X362049D01*
X361398Y55340D01*
X360900Y54842D01*
X360630Y54191D01*
Y53486D01*
X360900Y52835D01*
X361077Y52658D01*
X360900Y52480D01*
X360630Y51829D01*
Y51124D01*
X360900Y50473D01*
X361274Y50098D01*
X360900Y49724D01*
X360630Y49073D01*
Y48368D01*
X360703Y48191D01*
X360426Y47775D01*
X335925D01*
X335157Y47622D01*
X334506Y47187D01*
X334071Y46536D01*
X333918Y45768D01*
Y1020D01*
X333418Y1020D01*
X217224Y1020D01*
Y111416D01*
Y111613D01*
X217225Y111614D01*
X217231Y111624D01*
X217236Y111636D01*
X217271Y111811D01*
X217380D01*
X218031Y112081D01*
X218530Y112579D01*
X218799Y113230D01*
Y113935D01*
X218530Y114586D01*
X218031Y115085D01*
X217380Y115354D01*
X217224Y115835D01*
Y127823D01*
X217237Y127889D01*
X217663Y128214D01*
X217969Y128147D01*
X218250Y128030D01*
X218955D01*
X219606Y128300D01*
X220104Y128798D01*
X220374Y129449D01*
Y130154D01*
X220104Y130805D01*
X219606Y131304D01*
X218955Y131573D01*
X218250D01*
X217969Y131457D01*
X217663Y131389D01*
X217237Y131714D01*
X217224Y131780D01*
Y141830D01*
X217225Y141830D01*
X217231Y141840D01*
X217236Y141852D01*
X217271Y142027D01*
X217675D01*
X218326Y142297D01*
X218825Y142796D01*
X219094Y143447D01*
Y144152D01*
X218825Y144803D01*
X218326Y145301D01*
X217675Y145571D01*
X217271D01*
X217236Y145746D01*
X217231Y145758D01*
X217225Y145768D01*
X217224Y145768D01*
Y246652D01*
Y246850D01*
X217225Y246850D01*
X217231Y246860D01*
X217236Y246872D01*
X217271Y247047D01*
X217675D01*
X218326Y247317D01*
X218825Y247815D01*
X219094Y248466D01*
Y249171D01*
X218825Y249822D01*
X218326Y250321D01*
X217675Y250590D01*
X217271D01*
X217236Y250766D01*
X217231Y250778D01*
X217225Y250788D01*
X217224Y250788D01*
Y362203D01*
Y362401D01*
X217225Y362401D01*
X217231Y362411D01*
X217236Y362423D01*
X217271Y362598D01*
X217478D01*
X218129Y362868D01*
X218628Y363367D01*
X218898Y364018D01*
Y364722D01*
X218628Y365374D01*
X218129Y365872D01*
X217478Y366142D01*
X217271D01*
X217236Y366317D01*
X217231Y366329D01*
X217225Y366339D01*
X217224Y366339D01*
Y392696D01*
X543862Y392720D01*
X544569D01*
X545972Y392535D01*
D02*
G37*
G36*
X437447Y244837D02*
X437447Y226021D01*
X436985Y225830D01*
X417547Y245267D01*
X417739Y245729D01*
X436554D01*
X437447Y244837D01*
D02*
G37*
G36*
X405443Y252546D02*
X410369Y246824D01*
X410539Y246654D01*
X411336D01*
X437598Y220391D01*
Y218416D01*
X437098Y218209D01*
X398408Y256899D01*
X397953Y257204D01*
X397415Y257311D01*
X392351D01*
X392244Y257440D01*
X392479Y257940D01*
X400050D01*
X405443Y252546D01*
D02*
G37*
G36*
X440728Y214961D02*
X443029D01*
X444818Y213171D01*
Y211568D01*
X444749Y211221D01*
X444886Y210529D01*
X445278Y209943D01*
X445864Y209552D01*
X446555Y209414D01*
X447246Y209552D01*
X447832Y209943D01*
X447924Y210081D01*
X448422Y210130D01*
X461746Y196820D01*
X461554Y196358D01*
X449520D01*
X439496Y206383D01*
Y215230D01*
X439432Y215549D01*
X439893Y215796D01*
X440728Y214961D01*
D02*
G37*
G36*
X474275Y226772D02*
X484901D01*
X485035Y226272D01*
X484725Y226093D01*
X483866Y225234D01*
X483259Y224182D01*
X482945Y223009D01*
Y221794D01*
X483259Y220621D01*
X483866Y219569D01*
X484725Y218711D01*
X485777Y218104D01*
X486950Y217789D01*
X488164D01*
X489337Y218104D01*
X490389Y218711D01*
X491248Y219569D01*
X491855Y220621D01*
X492170Y221794D01*
Y223009D01*
X491855Y224182D01*
X491248Y225234D01*
X490389Y226093D01*
X490079Y226272D01*
X490213Y226772D01*
X524901Y226772D01*
X525035Y226272D01*
X524725Y226093D01*
X523866Y225234D01*
X523259Y224182D01*
X522945Y223009D01*
Y221794D01*
X523259Y220621D01*
X523866Y219569D01*
X524725Y218711D01*
X525777Y218104D01*
X526950Y217789D01*
X528164D01*
X529338Y218104D01*
X530389Y218711D01*
X531248Y219569D01*
X531855Y220621D01*
X532169Y221794D01*
Y223009D01*
X531855Y224182D01*
X531248Y225234D01*
X530389Y226093D01*
X530079Y226272D01*
X530213Y226772D01*
X542062D01*
X554654Y226772D01*
Y177953D01*
X547252D01*
X530076D01*
X529942Y178453D01*
X530389Y178711D01*
X531248Y179569D01*
X531855Y180621D01*
X532169Y181794D01*
Y183009D01*
X531855Y184182D01*
X531248Y185234D01*
X530389Y186092D01*
X529338Y186700D01*
X528164Y187014D01*
X526950D01*
X525777Y186700D01*
X524725Y186092D01*
X523866Y185234D01*
X523259Y184182D01*
X522945Y183009D01*
Y181794D01*
X523259Y180621D01*
X523866Y179569D01*
X524725Y178711D01*
X525172Y178453D01*
X525038Y177953D01*
X512563Y177953D01*
X490076D01*
X489942Y178453D01*
X490389Y178711D01*
X491248Y179569D01*
X491855Y180621D01*
X492170Y181794D01*
Y183009D01*
X491855Y184182D01*
X491248Y185234D01*
X490389Y186092D01*
X489337Y186700D01*
X488164Y187014D01*
X486950D01*
X485777Y186700D01*
X484725Y186092D01*
X483866Y185234D01*
X483259Y184182D01*
X482945Y183009D01*
Y181794D01*
X483259Y180621D01*
X483866Y179569D01*
X484725Y178711D01*
X485172Y178453D01*
X485038Y177953D01*
X483473D01*
X448230Y213158D01*
Y213878D01*
X448100Y214531D01*
X447730Y215084D01*
X439454Y223361D01*
X439454Y245766D01*
X455281D01*
X474275Y226772D01*
D02*
G37*
G36*
X418583Y194409D02*
Y170177D01*
X367520D01*
X340059Y197638D01*
X337106D01*
Y227756D01*
X385236D01*
X418583Y194409D01*
D02*
G37*
G36*
X387513Y258439D02*
X388067Y258069D01*
X388720Y257940D01*
X389677D01*
X389829Y257440D01*
X389571Y257267D01*
X389180Y256681D01*
X389042Y255990D01*
X389180Y255299D01*
X389571Y254713D01*
X390157Y254321D01*
X390848Y254184D01*
X391540Y254321D01*
X391808Y254501D01*
X396833D01*
X436686Y214648D01*
Y205801D01*
X436793Y205264D01*
X437097Y204808D01*
X442045Y199860D01*
X441925Y199273D01*
X441538Y199014D01*
X441146Y198427D01*
X441009Y197736D01*
X441146Y197045D01*
X441271Y196858D01*
X441004Y196358D01*
X437795D01*
Y194081D01*
X437791Y194075D01*
X437639Y193307D01*
Y169449D01*
X437639Y169448D01*
X437639Y169448D01*
X437715Y169062D01*
X437791Y168681D01*
X437792Y168680D01*
X437792Y168680D01*
X437795Y168675D01*
Y165256D01*
X441003D01*
X443080Y163181D01*
X442915Y162639D01*
X442814Y162619D01*
X442228Y162227D01*
X441836Y161641D01*
X441699Y160950D01*
X441836Y160259D01*
X442100Y159864D01*
Y157836D01*
X437362Y153098D01*
X437104Y153047D01*
X436518Y152655D01*
X436126Y152069D01*
X435989Y151378D01*
X436126Y150687D01*
X436518Y150101D01*
X437104Y149709D01*
X437795Y149572D01*
X438486Y149709D01*
X439073Y150101D01*
X439464Y150687D01*
X439598Y151360D01*
X444498Y156261D01*
X444803Y156716D01*
X444910Y157254D01*
Y159864D01*
X445174Y160259D01*
X445194Y160362D01*
X445737Y160527D01*
X464272Y142011D01*
Y139469D01*
X463679D01*
X463485Y139507D01*
X440670D01*
X440476Y139469D01*
X437303D01*
Y103347D01*
X439074Y101482D01*
X439251Y101218D01*
X440741Y99728D01*
X441043Y99410D01*
X441059D01*
X454815Y85654D01*
X452461Y83301D01*
X439530D01*
X439264Y83788D01*
X439264Y83801D01*
X445039Y89575D01*
X445408Y90128D01*
X445538Y90781D01*
Y92289D01*
X445639Y92793D01*
X445501Y93485D01*
X445110Y94071D01*
X444523Y94462D01*
X443832Y94600D01*
X443141Y94462D01*
X442555Y94071D01*
X442163Y93485D01*
X442026Y92793D01*
X442126Y92289D01*
Y91488D01*
X436847Y86209D01*
X436420Y85923D01*
X436028Y85337D01*
X435890Y84646D01*
X436028Y83954D01*
X436131Y83801D01*
X435864Y83301D01*
X401378D01*
X400725Y83171D01*
X400172Y82801D01*
X396493Y79122D01*
X396065Y78836D01*
X395674Y78250D01*
X395536Y77559D01*
X395664Y76916D01*
X395640Y76781D01*
X395445Y76416D01*
X390831D01*
X390453Y76916D01*
X390453Y93209D01*
X390453Y97047D01*
X408051D01*
X408100Y96547D01*
X408014Y96530D01*
X407605Y96449D01*
X407019Y96057D01*
X406627Y95471D01*
X406490Y94780D01*
X406627Y94089D01*
X407019Y93502D01*
X407605Y93111D01*
X408296Y92973D01*
X408987Y93111D01*
X409573Y93502D01*
X409965Y94089D01*
X410102Y94780D01*
X409965Y95471D01*
X409573Y96057D01*
X408987Y96449D01*
X408578Y96530D01*
X408491Y96547D01*
X408540Y97047D01*
X419882D01*
X422096Y99262D01*
X421870Y99488D01*
Y130887D01*
X420502Y132256D01*
X420476Y132382D01*
X420041Y133033D01*
X415435Y137640D01*
X415435Y137640D01*
X390829Y162246D01*
X390177Y162681D01*
X390048Y162707D01*
X385046Y167708D01*
X385237Y168170D01*
X411141D01*
X411319Y167953D01*
X411456Y167262D01*
X411848Y166675D01*
X412434Y166284D01*
X413125Y166147D01*
X413816Y166284D01*
X414402Y166675D01*
X414794Y167262D01*
X414932Y167953D01*
X415110Y168170D01*
X418583D01*
X419271Y168307D01*
X421870D01*
Y194666D01*
X386713Y229823D01*
Y234604D01*
X386751Y234798D01*
Y258548D01*
X387213Y258740D01*
X387513Y258439D01*
D02*
G37*
G36*
X485276Y171457D02*
X554654D01*
Y121260D01*
X529237D01*
X529171Y121760D01*
X529338Y121804D01*
X530389Y122412D01*
X531248Y123270D01*
X531855Y124322D01*
X532169Y125495D01*
Y126710D01*
X531855Y127883D01*
X531248Y128935D01*
X530389Y129793D01*
X529338Y130401D01*
X528164Y130715D01*
X526950D01*
X525777Y130401D01*
X524725Y129793D01*
X523866Y128935D01*
X523259Y127883D01*
X522945Y126710D01*
Y125495D01*
X523259Y124322D01*
X523866Y123270D01*
X524725Y122412D01*
X525777Y121804D01*
X525943Y121760D01*
X525877Y121260D01*
X489237D01*
X489171Y121760D01*
X489337Y121804D01*
X490389Y122412D01*
X491248Y123270D01*
X491855Y124322D01*
X492170Y125495D01*
Y126710D01*
X491855Y127883D01*
X491248Y128935D01*
X490389Y129793D01*
X489337Y130401D01*
X488164Y130715D01*
X486950D01*
X485777Y130401D01*
X484725Y129793D01*
X483866Y128935D01*
X483259Y127883D01*
X482985Y126860D01*
X482486Y126652D01*
X439646Y169449D01*
Y193307D01*
X463425D01*
X485276Y171457D01*
D02*
G37*
G36*
X414016Y136221D02*
X418622Y131614D01*
X418622Y99508D01*
X412607D01*
X412400Y100008D01*
X412433Y100040D01*
X412703Y100692D01*
Y101397D01*
X412433Y102048D01*
X411935Y102546D01*
X411283Y102816D01*
X410579D01*
X409927Y102546D01*
X409429Y102048D01*
X409159Y101397D01*
Y100692D01*
X409429Y100040D01*
X409462Y100008D01*
X409255Y99508D01*
X337106D01*
Y136221D01*
X366535D01*
X366634Y136319D01*
Y160827D01*
X389409D01*
X414016Y136221D01*
D02*
G37*
G36*
X464272Y76197D02*
Y73130D01*
X462851D01*
X462657Y73168D01*
X443090D01*
X442897Y73130D01*
X440905D01*
X437303Y69587D01*
Y36713D01*
X437772Y36143D01*
X437791Y36043D01*
X438227Y35392D01*
X439141Y34477D01*
X440945Y32283D01*
X452469Y20759D01*
X454389Y18839D01*
X471747Y1481D01*
X471556Y1020D01*
X421870D01*
Y73705D01*
X422370Y73857D01*
X422571Y73556D01*
X423157Y73164D01*
X423848Y73027D01*
X424539Y73164D01*
X425125Y73556D01*
X425517Y74142D01*
X425655Y74833D01*
X425517Y75525D01*
X425125Y76111D01*
X424539Y76502D01*
X423848Y76640D01*
X423157Y76502D01*
X422571Y76111D01*
X422179Y75525D01*
X422045Y74850D01*
X421968Y74796D01*
X421578Y74600D01*
X419748Y76279D01*
X419271D01*
X418583Y76416D01*
X399320Y76416D01*
X399113Y76916D01*
X402085Y79888D01*
X444012D01*
X444346Y79388D01*
X444257Y78937D01*
X444394Y78246D01*
X444786Y77660D01*
X445372Y77268D01*
X446063Y77131D01*
X446754Y77268D01*
X447340Y77660D01*
X447732Y78246D01*
X447869Y78937D01*
X447780Y79388D01*
X448114Y79888D01*
X453168D01*
X453821Y80018D01*
X454374Y80388D01*
X457227Y83241D01*
X464272Y76197D01*
D02*
G37*
G36*
X472859Y128125D02*
X485566Y116003D01*
X554654D01*
X554654Y64862D01*
X528870D01*
X528804Y65362D01*
X529338Y65505D01*
X530389Y66112D01*
X531248Y66971D01*
X531855Y68023D01*
X532169Y69196D01*
Y70411D01*
X531855Y71583D01*
X531248Y72635D01*
X530389Y73494D01*
X529338Y74101D01*
X528164Y74416D01*
X526950D01*
X525777Y74101D01*
X524725Y73494D01*
X523866Y72635D01*
X523259Y71583D01*
X522945Y70411D01*
Y69196D01*
X523259Y68023D01*
X523866Y66971D01*
X524725Y66112D01*
X525777Y65505D01*
X526310Y65362D01*
X526244Y64862D01*
X488870D01*
X488804Y65362D01*
X489337Y65505D01*
X490389Y66112D01*
X491248Y66971D01*
X491855Y68023D01*
X492170Y69196D01*
Y70411D01*
X491855Y71583D01*
X491248Y72635D01*
X490389Y73494D01*
X489337Y74101D01*
X488164Y74416D01*
X486950D01*
X485777Y74101D01*
X484725Y73494D01*
X483866Y72635D01*
X483259Y71583D01*
X482945Y70411D01*
Y69196D01*
X483259Y68023D01*
X483866Y66971D01*
X484725Y66112D01*
X485777Y65505D01*
X486310Y65362D01*
X486244Y64862D01*
X478445D01*
X440670Y102637D01*
Y137500D01*
X463485D01*
X472859Y128125D01*
D02*
G37*
G36*
X474862Y58957D02*
X554654D01*
Y11811D01*
Y11811D01*
Y11811D01*
X554654Y11104D01*
X554469Y9701D01*
X554103Y8335D01*
X553562Y7028D01*
X552854Y5803D01*
X551993Y4680D01*
X550993Y3680D01*
X549870Y2819D01*
X548645Y2112D01*
X547338Y1570D01*
X545972Y1204D01*
X544569Y1020D01*
X543862D01*
X475437D01*
X439646Y36811D01*
Y67716D01*
X443090Y71161D01*
X462657D01*
X474862Y58957D01*
D02*
G37*
G36*
X418583Y74409D02*
Y31299D01*
X418386Y31102D01*
Y1020D01*
X335925D01*
Y45768D01*
X364272D01*
Y74410D01*
X418583Y74409D01*
D02*
G37*
%LPC*%
G36*
X112841Y385816D02*
X112149Y385679D01*
X111563Y385287D01*
X111172Y384701D01*
X111034Y384010D01*
X111051Y383924D01*
X102169Y375042D01*
X101691Y375187D01*
X101669Y375298D01*
X101277Y375884D01*
X100691Y376275D01*
X100000Y376413D01*
X99309Y376275D01*
X98723Y375884D01*
X98331Y375298D01*
X98194Y374606D01*
X98331Y373915D01*
X98723Y373329D01*
X99309Y372937D01*
X99420Y372915D01*
X99565Y372437D01*
X80448Y353320D01*
X80187Y352929D01*
X80095Y352468D01*
X80095Y352468D01*
Y97645D01*
X76951Y94501D01*
X76855Y94519D01*
X76467Y95091D01*
X76504Y95276D01*
X76366Y95967D01*
X75975Y96553D01*
X75389Y96944D01*
X74697Y97082D01*
X74006Y96944D01*
X73420Y96553D01*
X73028Y95967D01*
X72891Y95276D01*
X73028Y94584D01*
X73420Y93998D01*
X74006Y93607D01*
X74697Y93469D01*
X74882Y93506D01*
X75454Y93117D01*
X75472Y93022D01*
X58950Y76499D01*
X55755D01*
X55706Y76573D01*
X55120Y76964D01*
X54429Y77102D01*
X53738Y76964D01*
X53288Y76664D01*
X52788Y76860D01*
Y101712D01*
X53617Y102541D01*
X54008Y103127D01*
X54146Y103818D01*
Y206960D01*
X54008Y207651D01*
X53617Y208237D01*
X46132Y215722D01*
Y317962D01*
X46632Y318197D01*
X47244Y318075D01*
X47935Y318213D01*
X48521Y318605D01*
X48913Y319191D01*
X49051Y319882D01*
X48913Y320573D01*
X48521Y321159D01*
X47935Y321551D01*
X47244Y321688D01*
X46632Y321566D01*
X46132Y321801D01*
Y341752D01*
X47764Y343384D01*
X48156Y343970D01*
X48293Y344661D01*
X48156Y345353D01*
X47764Y345939D01*
X47178Y346330D01*
X46487Y346468D01*
X45796Y346330D01*
X45209Y345939D01*
X43048Y343777D01*
X42656Y343191D01*
X42519Y342500D01*
Y331051D01*
X42057Y330860D01*
X40324Y332593D01*
X40052Y332774D01*
X39793Y332974D01*
X39729Y332991D01*
X39673Y333028D01*
X39352Y333092D01*
X39036Y333176D01*
X38970Y333168D01*
X38905Y333181D01*
X38584Y333117D01*
X38260Y333074D01*
X37732Y332895D01*
X37544Y332786D01*
X37320Y332931D01*
X37176Y333155D01*
X37285Y333342D01*
X37464Y333870D01*
X37507Y334195D01*
X37570Y334515D01*
X37557Y334581D01*
X37566Y334647D01*
X37481Y334963D01*
X37418Y335283D01*
X37381Y335339D01*
X37363Y335403D01*
X37164Y335663D01*
X36983Y335935D01*
X36163Y336754D01*
X35512Y337189D01*
X34744Y337342D01*
X25000Y337342D01*
X24232Y337189D01*
X23581Y336754D01*
X21022Y334195D01*
X20587Y333544D01*
X20434Y332776D01*
Y301060D01*
X20360D01*
X19669Y300922D01*
X19083Y300531D01*
X19001Y300448D01*
X18539Y300640D01*
Y332382D01*
X18401Y333073D01*
X18010Y333659D01*
X17424Y334051D01*
X16732Y334188D01*
X16041Y334051D01*
X15455Y333659D01*
X15063Y333073D01*
X14926Y332382D01*
Y260918D01*
X11917Y257909D01*
X10138D01*
X9447Y257771D01*
X8861Y257380D01*
X8469Y256794D01*
X8331Y256102D01*
X8469Y255411D01*
X8861Y254825D01*
X9447Y254433D01*
X10138Y254296D01*
X11823D01*
X12013Y253834D01*
X7424Y249290D01*
X1760Y249346D01*
X1755Y249345D01*
X1749Y249346D01*
X1370Y249272D01*
X991Y249201D01*
X986Y249198D01*
X981Y249197D01*
X657Y248983D01*
X335Y248772D01*
X332Y248768D01*
X327Y248764D01*
X-133Y248308D01*
X-136Y248304D01*
X-140Y248302D01*
X-355Y247980D01*
X-571Y247659D01*
X-572Y247654D01*
X-575Y247650D01*
X-650Y247270D01*
X-728Y246891D01*
X-727Y246887D01*
X-728Y246882D01*
Y234941D01*
X-575Y234173D01*
X-140Y233522D01*
X512Y233087D01*
X1280Y232934D01*
X11373D01*
X16968Y227339D01*
X17133Y227229D01*
X17273Y227089D01*
X17413Y227031D01*
X17524Y226474D01*
X17916Y225888D01*
X18502Y225497D01*
X18968Y225404D01*
X20156Y224215D01*
Y169778D01*
X20060Y169634D01*
X19953Y169097D01*
Y114472D01*
X19689Y114077D01*
X19552Y113386D01*
X19689Y112695D01*
X20081Y112109D01*
X20667Y111717D01*
X21358Y111580D01*
X22050Y111717D01*
X22174Y111800D01*
X22615Y111564D01*
Y100597D01*
X22615Y100597D01*
X22217Y100204D01*
X21971Y100040D01*
X21711Y99901D01*
X21648Y99824D01*
X21565Y99769D01*
X21402Y99523D01*
X21215Y99295D01*
X21186Y99200D01*
X21130Y99117D01*
X21073Y98828D01*
X20987Y98546D01*
X20989Y98527D01*
X20775Y98032D01*
X15473D01*
Y90551D01*
X20978D01*
Y88059D01*
X20562Y87781D01*
X20189Y87935D01*
X19213Y88064D01*
X18236Y87935D01*
X17326Y87558D01*
X16545Y86959D01*
X15946Y86177D01*
X15569Y85268D01*
X15440Y84291D01*
X15569Y83315D01*
X15946Y82405D01*
X16545Y81624D01*
X17326Y81024D01*
X18236Y80647D01*
X19213Y80519D01*
X20189Y80647D01*
X20562Y80802D01*
X20978Y80524D01*
Y78059D01*
X20562Y77781D01*
X20189Y77935D01*
X19213Y78064D01*
X18236Y77935D01*
X17326Y77558D01*
X16545Y76959D01*
X15946Y76178D01*
X15569Y75268D01*
X15440Y74291D01*
X15569Y73315D01*
X15946Y72405D01*
X16545Y71624D01*
X17326Y71024D01*
X18236Y70648D01*
X19213Y70519D01*
X20189Y70648D01*
X20562Y70802D01*
X20978Y70524D01*
Y68059D01*
X20562Y67781D01*
X20189Y67935D01*
X19213Y68064D01*
X18236Y67935D01*
X17326Y67558D01*
X16545Y66959D01*
X15946Y66177D01*
X15569Y65268D01*
X15440Y64291D01*
X15569Y63315D01*
X15946Y62405D01*
X16545Y61624D01*
X17326Y61024D01*
X18236Y60647D01*
X19213Y60519D01*
X20189Y60647D01*
X20562Y60802D01*
X20978Y60524D01*
Y58059D01*
X20562Y57781D01*
X20189Y57935D01*
X19213Y58064D01*
X18236Y57935D01*
X17326Y57558D01*
X16545Y56959D01*
X15946Y56178D01*
X15569Y55268D01*
X15440Y54291D01*
X15569Y53315D01*
X15946Y52405D01*
X16545Y51624D01*
X17326Y51024D01*
X18236Y50647D01*
X19213Y50519D01*
X20189Y50647D01*
X20562Y50802D01*
X20978Y50524D01*
Y48059D01*
X20562Y47781D01*
X20189Y47935D01*
X19213Y48064D01*
X18236Y47935D01*
X17326Y47558D01*
X16545Y46959D01*
X15946Y46178D01*
X15569Y45268D01*
X15440Y44291D01*
X15569Y43315D01*
X15946Y42405D01*
X16545Y41624D01*
X17326Y41024D01*
X18236Y40648D01*
X19213Y40519D01*
X20189Y40648D01*
X21099Y41024D01*
X21158Y41069D01*
X21565Y41002D01*
X22217Y40567D01*
X22985Y40414D01*
X23873D01*
X34410Y29877D01*
Y12992D01*
X34563Y12224D01*
X34998Y11573D01*
X35649Y11138D01*
X36417Y10985D01*
X41240D01*
X42008Y11138D01*
X42659Y11573D01*
X43095Y12224D01*
X43247Y12992D01*
Y42323D01*
X43149Y42818D01*
Y75481D01*
X43097Y75744D01*
X43078Y76011D01*
X43031Y76181D01*
X43078Y76351D01*
X43097Y76619D01*
X43149Y76881D01*
Y212943D01*
X43611Y213134D01*
X50533Y206212D01*
Y104566D01*
X49705Y103738D01*
X49313Y103152D01*
X49176Y102461D01*
Y66242D01*
X49313Y65551D01*
X49705Y64965D01*
X53742Y60927D01*
X54328Y60536D01*
X55020Y60398D01*
X55711Y60536D01*
X56297Y60927D01*
X56688Y61514D01*
X56826Y62205D01*
X56688Y62896D01*
X56297Y63482D01*
X52788Y66991D01*
Y73731D01*
X53288Y73927D01*
X53738Y73626D01*
X54429Y73489D01*
X55120Y73626D01*
X55706Y74018D01*
X55755Y74091D01*
X57630D01*
X57782Y73591D01*
X57558Y73441D01*
X57166Y72855D01*
X57029Y72164D01*
X57166Y71473D01*
X57558Y70887D01*
X58144Y70495D01*
X58835Y70358D01*
X58921Y70375D01*
X60069Y69227D01*
X60069Y69227D01*
X60460Y68966D01*
X60921Y68875D01*
X72835D01*
X72835Y68875D01*
X73295Y68966D01*
X73686Y69227D01*
X83726Y79267D01*
X83726Y79267D01*
X83987Y79657D01*
X84078Y80118D01*
X84078Y80118D01*
Y130452D01*
X84578Y130659D01*
X85345Y129893D01*
X85437Y129427D01*
X85829Y128841D01*
X86415Y128449D01*
X87106Y128312D01*
X87798Y128449D01*
X88256Y128756D01*
X88756Y128567D01*
Y118925D01*
X88221Y118567D01*
X87829Y117981D01*
X87691Y117289D01*
X87829Y116598D01*
X88221Y116012D01*
X88733Y115670D01*
X88901Y115131D01*
X86602Y112831D01*
X86516Y112848D01*
X85825Y112711D01*
X85238Y112319D01*
X84847Y111733D01*
X84709Y111042D01*
X84847Y110351D01*
X85238Y109765D01*
X85825Y109373D01*
X86516Y109236D01*
X87207Y109373D01*
X87793Y109765D01*
X88185Y110351D01*
X88322Y111042D01*
X88305Y111128D01*
X92515Y115338D01*
X92515Y115338D01*
X92776Y115729D01*
X92867Y116190D01*
Y181456D01*
X93367Y181607D01*
X93506Y181400D01*
X94092Y181008D01*
X94776Y180872D01*
X95056Y180593D01*
Y124016D01*
X95056Y124016D01*
X95147Y123555D01*
X95408Y123164D01*
X99294Y119279D01*
X99276Y119193D01*
X99414Y118502D01*
X99805Y117916D01*
X100391Y117524D01*
X101083Y117387D01*
X101774Y117524D01*
X102360Y117916D01*
X102752Y118502D01*
X102889Y119193D01*
X102752Y119884D01*
X102360Y120470D01*
X101774Y120862D01*
X101083Y120999D01*
X100996Y120982D01*
X97464Y124515D01*
Y181091D01*
X97464Y181091D01*
X97372Y181552D01*
X97111Y181943D01*
X97111Y181943D01*
X96554Y182500D01*
X96590Y182677D01*
X96452Y183368D01*
X96061Y183955D01*
X95475Y184346D01*
X94784Y184484D01*
X94092Y184346D01*
X93506Y183955D01*
X93367Y183747D01*
X92867Y183898D01*
Y196000D01*
X93367Y196390D01*
X93701Y196324D01*
X94392Y196461D01*
X94978Y196853D01*
X95002Y196888D01*
X95502Y196737D01*
Y196604D01*
X103694D01*
X103868Y196604D01*
X104194Y196239D01*
Y194695D01*
X104150Y194629D01*
X103997Y193861D01*
Y188056D01*
X103497Y188006D01*
X103440Y188290D01*
X103049Y188876D01*
X102463Y189267D01*
X101772Y189405D01*
X101080Y189267D01*
X100494Y188876D01*
X100103Y188290D01*
X99965Y187598D01*
X100103Y186907D01*
X100405Y186456D01*
Y128051D01*
X100141Y127656D01*
X100003Y126965D01*
X100141Y126273D01*
X100532Y125687D01*
X101118Y125296D01*
X101810Y125158D01*
X102501Y125296D01*
X103087Y125687D01*
X103478Y126273D01*
X103528Y126522D01*
X104064Y126653D01*
X104095Y126615D01*
Y111024D01*
X104194Y110529D01*
Y92147D01*
X103868Y91782D01*
X103694Y91782D01*
X95502D01*
Y83415D01*
X103694D01*
X103868Y83415D01*
X104194Y83050D01*
Y42520D01*
X104347Y41752D01*
X104782Y41100D01*
X105433Y40665D01*
X106201Y40513D01*
X106969Y40665D01*
X107620Y41100D01*
X108055Y41752D01*
X108208Y42520D01*
Y110925D01*
X108109Y111420D01*
Y157814D01*
X108011Y158309D01*
Y193236D01*
X108032Y193267D01*
X108185Y194035D01*
Y194109D01*
X108208Y194226D01*
Y255807D01*
Y296949D01*
X108055Y297717D01*
X107620Y298368D01*
X107029Y298959D01*
X106378Y299394D01*
X105610Y299546D01*
X104842Y299394D01*
X104191Y298959D01*
X103756Y298307D01*
X103603Y297539D01*
X103756Y296771D01*
X104191Y296120D01*
X104194Y296117D01*
Y255807D01*
Y205336D01*
X103868Y204971D01*
X103694Y204971D01*
X95502D01*
Y200044D01*
X95002Y199792D01*
X94905Y199864D01*
Y250220D01*
X98785Y254100D01*
X98785Y254100D01*
X99046Y254491D01*
X99137Y254951D01*
X99137Y254952D01*
Y288657D01*
X99137Y288657D01*
X99046Y289118D01*
X98785Y289508D01*
X98390Y289903D01*
X98460Y290256D01*
X98322Y290947D01*
X97931Y291533D01*
X97345Y291925D01*
X96653Y292062D01*
X95962Y291925D01*
X95376Y291533D01*
X94985Y290947D01*
X94847Y290256D01*
X94985Y289565D01*
X95376Y288979D01*
X95962Y288587D01*
X96384Y288503D01*
X96729Y288158D01*
Y255450D01*
X93240Y251961D01*
X92740Y252168D01*
Y343989D01*
X119552Y370802D01*
X119552Y370802D01*
X119813Y371193D01*
X119905Y371654D01*
X119905Y371654D01*
Y372493D01*
X119978Y372542D01*
X120370Y373128D01*
X120507Y373819D01*
X120370Y374510D01*
X119978Y375096D01*
X119392Y375488D01*
X119208Y375964D01*
X119310Y376477D01*
X119173Y377168D01*
X118781Y377754D01*
X118195Y378146D01*
X117504Y378283D01*
X116813Y378146D01*
X116227Y377754D01*
X115835Y377168D01*
X115698Y376477D01*
X115715Y376391D01*
X89169Y349845D01*
X88908Y349454D01*
X88816Y348993D01*
X88816Y348993D01*
Y347605D01*
X88756Y347306D01*
X88756Y347306D01*
Y345042D01*
X88756Y345042D01*
X88756Y345042D01*
Y131669D01*
X88256Y131480D01*
X87798Y131787D01*
X87332Y131880D01*
X86641Y132570D01*
Y162300D01*
X86905Y162695D01*
X87043Y163386D01*
X86905Y164077D01*
X86543Y164619D01*
Y187595D01*
X86807Y187990D01*
X86944Y188681D01*
X86807Y189372D01*
X86415Y189958D01*
X85829Y190350D01*
X85138Y190488D01*
X84578Y190376D01*
X84078Y190659D01*
Y350023D01*
X113347Y379291D01*
X113347Y379291D01*
X114108Y380052D01*
X114470Y379980D01*
X115161Y380118D01*
X115747Y380510D01*
X116139Y381096D01*
X116276Y381787D01*
X116139Y382478D01*
X115747Y383064D01*
X115161Y383456D01*
X114561Y383575D01*
X114647Y384010D01*
X114509Y384701D01*
X114118Y385287D01*
X113532Y385679D01*
X112841Y385816D01*
D02*
G37*
G36*
X195276Y370148D02*
X194584Y370011D01*
X193998Y369619D01*
X193607Y369033D01*
X193469Y368342D01*
X193607Y367651D01*
X193998Y367064D01*
X194584Y366673D01*
X195276Y366535D01*
X195967Y366673D01*
X196553Y367064D01*
X196944Y367651D01*
X197082Y368342D01*
X196944Y369033D01*
X196553Y369619D01*
X195967Y370011D01*
X195276Y370148D01*
D02*
G37*
G36*
X91000Y370095D02*
X90309Y369958D01*
X89723Y369566D01*
X89332Y368980D01*
X89194Y368289D01*
X89332Y367598D01*
X89723Y367012D01*
X90309Y366620D01*
X91000Y366483D01*
X91692Y366620D01*
X92278Y367012D01*
X92669Y367598D01*
X92807Y368289D01*
X92669Y368980D01*
X92278Y369566D01*
X91692Y369958D01*
X91000Y370095D01*
D02*
G37*
G36*
X175000Y369523D02*
X174309Y369385D01*
X173723Y368994D01*
X173331Y368408D01*
X173194Y367717D01*
X173331Y367025D01*
X173723Y366439D01*
X174309Y366048D01*
X175000Y365910D01*
X175691Y366048D01*
X176277Y366439D01*
X176669Y367025D01*
X176806Y367717D01*
X176669Y368408D01*
X176277Y368994D01*
X175691Y369385D01*
X175000Y369523D01*
D02*
G37*
G36*
X146949Y361441D02*
X146229Y361346D01*
X145559Y361069D01*
X144983Y360627D01*
X144542Y360051D01*
X144264Y359381D01*
X144169Y358661D01*
X144264Y357942D01*
X144542Y357272D01*
X144983Y356696D01*
X145559Y356254D01*
X146229Y355977D01*
X146949Y355882D01*
X147668Y355977D01*
X148339Y356254D01*
X148914Y356696D01*
X149356Y357272D01*
X149634Y357942D01*
X149729Y358661D01*
X149634Y359381D01*
X149356Y360051D01*
X148914Y360627D01*
X148339Y361069D01*
X147668Y361346D01*
X146949Y361441D01*
D02*
G37*
G36*
X136221Y352397D02*
X135529Y352259D01*
X134943Y351868D01*
X134552Y351282D01*
X134414Y350590D01*
X134552Y349899D01*
X134943Y349313D01*
X135529Y348922D01*
X136221Y348784D01*
X136912Y348922D01*
X137498Y349313D01*
X137889Y349899D01*
X138027Y350590D01*
X137889Y351282D01*
X137498Y351868D01*
X136912Y352259D01*
X136221Y352397D01*
D02*
G37*
G36*
X30906Y349149D02*
X30214Y349011D01*
X29628Y348620D01*
X29237Y348034D01*
X29099Y347342D01*
X29237Y346651D01*
X29628Y346065D01*
X30214Y345674D01*
X30906Y345536D01*
X31597Y345674D01*
X32183Y346065D01*
X32574Y346651D01*
X32712Y347342D01*
X32574Y348034D01*
X32183Y348620D01*
X31597Y349011D01*
X30906Y349149D01*
D02*
G37*
G36*
X182780Y347286D02*
X182089Y347149D01*
X181503Y346757D01*
X181111Y346171D01*
X180974Y345480D01*
X180991Y345394D01*
X168407Y332810D01*
X168146Y332419D01*
X168054Y331958D01*
X168054Y331958D01*
Y269233D01*
X166941Y268120D01*
X166855Y268138D01*
X166164Y268000D01*
X165578Y267608D01*
X165187Y267022D01*
X165049Y266331D01*
X165187Y265640D01*
X165578Y265054D01*
X166164Y264662D01*
X166855Y264525D01*
X167547Y264662D01*
X168133Y265054D01*
X168524Y265640D01*
X168662Y266331D01*
X168645Y266417D01*
X170110Y267883D01*
X170110Y267883D01*
X170371Y268273D01*
X170463Y268734D01*
Y309373D01*
X170963Y309703D01*
X171424Y309611D01*
X172115Y309749D01*
X172701Y310140D01*
X173092Y310726D01*
X173230Y311417D01*
X173092Y312109D01*
X172701Y312695D01*
X172115Y313086D01*
X171424Y313224D01*
X170963Y313132D01*
X170463Y313461D01*
Y331459D01*
X182694Y343691D01*
X182780Y343673D01*
X183471Y343811D01*
X184057Y344203D01*
X184449Y344789D01*
X184587Y345480D01*
X184449Y346171D01*
X184057Y346757D01*
X183471Y347149D01*
X182780Y347286D01*
D02*
G37*
G36*
X40551Y346468D02*
X39860Y346330D01*
X39274Y345939D01*
X38882Y345353D01*
X38745Y344661D01*
X38882Y343970D01*
X39274Y343384D01*
X39860Y342993D01*
X40551Y342855D01*
X41242Y342993D01*
X41829Y343384D01*
X42220Y343970D01*
X42358Y344661D01*
X42220Y345353D01*
X41829Y345939D01*
X41242Y346330D01*
X40551Y346468D01*
D02*
G37*
G36*
X124116Y345214D02*
X123425Y345077D01*
X122839Y344685D01*
X122448Y344099D01*
X122310Y343408D01*
X122448Y342717D01*
X122839Y342130D01*
X123425Y341739D01*
X124116Y341601D01*
X124808Y341739D01*
X125394Y342130D01*
X125785Y342717D01*
X125923Y343408D01*
X125785Y344099D01*
X125394Y344685D01*
X124808Y345077D01*
X124116Y345214D01*
D02*
G37*
G36*
X59646Y321294D02*
X58954Y321157D01*
X58368Y320765D01*
X57977Y320179D01*
X57839Y319488D01*
X57977Y318797D01*
X58368Y318211D01*
X58954Y317819D01*
X59646Y317682D01*
X60337Y317819D01*
X60923Y318211D01*
X61314Y318797D01*
X61452Y319488D01*
X61314Y320179D01*
X60923Y320765D01*
X60337Y321157D01*
X59646Y321294D01*
D02*
G37*
G36*
X103396Y325837D02*
X95029D01*
Y317471D01*
X103396D01*
Y325837D01*
D02*
G37*
G36*
X66339Y314405D02*
X65647Y314267D01*
X65061Y313876D01*
X64670Y313290D01*
X64532Y312598D01*
X64670Y311907D01*
X65061Y311321D01*
X65647Y310930D01*
X66339Y310792D01*
X67030Y310930D01*
X67616Y311321D01*
X68007Y311907D01*
X68145Y312598D01*
X68007Y313290D01*
X67616Y313876D01*
X67030Y314267D01*
X66339Y314405D01*
D02*
G37*
G36*
X52067Y299247D02*
X51376Y299110D01*
X50790Y298718D01*
X50398Y298132D01*
X50261Y297441D01*
X50398Y296750D01*
X50790Y296164D01*
X51376Y295772D01*
X52067Y295635D01*
X52758Y295772D01*
X53344Y296164D01*
X53736Y296750D01*
X53873Y297441D01*
X53736Y298132D01*
X53344Y298718D01*
X52758Y299110D01*
X52067Y299247D01*
D02*
G37*
G36*
X179134Y293046D02*
X178443Y292909D01*
X177857Y292517D01*
X177465Y291931D01*
X177328Y291240D01*
X177465Y290549D01*
X177857Y289963D01*
X178443Y289571D01*
X179134Y289434D01*
X179638Y289534D01*
X181577D01*
X187967Y283144D01*
X188520Y282774D01*
X189173Y282644D01*
X191818D01*
X192323Y282544D01*
X193014Y282681D01*
X193600Y283073D01*
X193992Y283659D01*
X194129Y284350D01*
X193992Y285042D01*
X193600Y285628D01*
X193014Y286019D01*
X192323Y286157D01*
X191818Y286056D01*
X189880D01*
X183490Y292446D01*
X182936Y292816D01*
X182283Y292946D01*
X179638D01*
X179134Y293046D01*
D02*
G37*
G36*
X-20276Y280054D02*
X-20967Y279917D01*
X-21553Y279525D01*
X-21945Y278939D01*
X-22082Y278248D01*
X-21945Y277557D01*
X-21553Y276971D01*
X-20967Y276579D01*
X-20276Y276442D01*
X-19584Y276579D01*
X-18998Y276971D01*
X-18607Y277557D01*
X-18469Y278248D01*
X-18607Y278939D01*
X-18998Y279525D01*
X-19584Y279917D01*
X-20276Y280054D01*
D02*
G37*
G36*
X172933Y279759D02*
X172242Y279622D01*
X171656Y279230D01*
X171264Y278644D01*
X171127Y277953D01*
X171264Y277261D01*
X171656Y276676D01*
X172242Y276284D01*
X172933Y276146D01*
X173624Y276284D01*
X174210Y276676D01*
X174602Y277261D01*
X174739Y277953D01*
X174602Y278644D01*
X174210Y279230D01*
X173624Y279622D01*
X172933Y279759D01*
D02*
G37*
G36*
X-25951Y264124D02*
X-26642Y263986D01*
X-27228Y263595D01*
X-27619Y263008D01*
X-27757Y262317D01*
X-27619Y261626D01*
X-27228Y261040D01*
X-26642Y260648D01*
X-25951Y260511D01*
X-25259Y260648D01*
X-24673Y261040D01*
X-24282Y261626D01*
X-24144Y262317D01*
X-24282Y263008D01*
X-24673Y263595D01*
X-25259Y263986D01*
X-25951Y264124D01*
D02*
G37*
G36*
X-20603Y263224D02*
X-21294Y263086D01*
X-21880Y262695D01*
X-22272Y262109D01*
X-22409Y261417D01*
X-22392Y261331D01*
X-24867Y258856D01*
X-25128Y258465D01*
X-25220Y258004D01*
X-25220Y258004D01*
Y241247D01*
X-28457Y238010D01*
X-28543Y238027D01*
X-29235Y237889D01*
X-29821Y237498D01*
X-30212Y236912D01*
X-30350Y236221D01*
X-30212Y235529D01*
X-29821Y234943D01*
X-29235Y234552D01*
X-28543Y234414D01*
X-27852Y234552D01*
X-27266Y234943D01*
X-26875Y235529D01*
X-26737Y236221D01*
X-26754Y236307D01*
X-23164Y239896D01*
X-23164Y239896D01*
X-22903Y240287D01*
X-22812Y240748D01*
X-22812Y240748D01*
Y257506D01*
X-20689Y259628D01*
X-20603Y259611D01*
X-19912Y259749D01*
X-19326Y260140D01*
X-18934Y260726D01*
X-18797Y261417D01*
X-18934Y262109D01*
X-19326Y262695D01*
X-19912Y263086D01*
X-20603Y263224D01*
D02*
G37*
G36*
X-7151Y262947D02*
X-7842Y262810D01*
X-8428Y262418D01*
X-8820Y261832D01*
X-8957Y261141D01*
X-8820Y260450D01*
X-8428Y259864D01*
X-7842Y259472D01*
X-7151Y259335D01*
X-6460Y259472D01*
X-5874Y259864D01*
X-5482Y260450D01*
X-5345Y261141D01*
X-5482Y261832D01*
X-5874Y262418D01*
X-6460Y262810D01*
X-7151Y262947D01*
D02*
G37*
G36*
X12500Y349543D02*
X11809Y349405D01*
X11223Y349013D01*
X10831Y348428D01*
X10694Y347736D01*
Y264036D01*
X9057Y262399D01*
X8666Y261813D01*
X8528Y261122D01*
X8666Y260431D01*
X9057Y259845D01*
X9643Y259453D01*
X10335Y259316D01*
X11026Y259453D01*
X11612Y259845D01*
X13777Y262010D01*
X14169Y262596D01*
X14306Y263287D01*
Y347736D01*
X14169Y348428D01*
X13777Y349013D01*
X13191Y349405D01*
X12500Y349543D01*
D02*
G37*
G36*
X-7579Y258499D02*
X-8270Y258362D01*
X-8856Y257970D01*
X-9248Y257384D01*
X-9385Y256693D01*
X-9248Y256002D01*
X-8856Y255416D01*
X-8270Y255024D01*
X-7579Y254887D01*
X-6887Y255024D01*
X-6301Y255416D01*
X-5910Y256002D01*
X-5772Y256693D01*
X-5910Y257384D01*
X-6301Y257970D01*
X-6887Y258362D01*
X-7579Y258499D01*
D02*
G37*
G36*
X-36230Y259111D02*
X-36921Y258974D01*
X-37507Y258582D01*
X-37898Y257996D01*
X-38036Y257305D01*
X-37898Y256614D01*
X-37507Y256028D01*
X-36921Y255636D01*
X-36896Y255631D01*
X-36543Y255051D01*
X-36602Y254755D01*
X-36465Y254063D01*
X-36073Y253477D01*
X-35487Y253086D01*
X-34796Y252948D01*
X-34105Y253086D01*
X-33519Y253477D01*
X-33127Y254063D01*
X-32990Y254755D01*
X-33127Y255446D01*
X-33519Y256032D01*
X-34105Y256423D01*
X-34129Y256428D01*
X-34482Y257008D01*
X-34423Y257305D01*
X-34561Y257996D01*
X-34952Y258582D01*
X-35538Y258974D01*
X-36230Y259111D01*
D02*
G37*
G36*
X184153Y255546D02*
X183462Y255409D01*
X182876Y255017D01*
X182485Y254431D01*
X182347Y253740D01*
X182485Y253049D01*
X182876Y252463D01*
X183462Y252071D01*
X184153Y251934D01*
X184845Y252071D01*
X185431Y252463D01*
X185822Y253049D01*
X185960Y253740D01*
X185822Y254431D01*
X185431Y255017D01*
X184845Y255409D01*
X184153Y255546D01*
D02*
G37*
G36*
X-31063Y253578D02*
X-31754Y253440D01*
X-32340Y253049D01*
X-32732Y252463D01*
X-32869Y251772D01*
X-32732Y251080D01*
X-32340Y250494D01*
X-31764Y250109D01*
X-31959Y249818D01*
X-32096Y249126D01*
X-31959Y248435D01*
X-31567Y247849D01*
X-30981Y247458D01*
X-30290Y247320D01*
X-29599Y247458D01*
X-29013Y247849D01*
X-28621Y248435D01*
X-28483Y249126D01*
X-28621Y249818D01*
X-29013Y250404D01*
X-29589Y250789D01*
X-29394Y251080D01*
X-29257Y251772D01*
X-29394Y252463D01*
X-29786Y253049D01*
X-30372Y253440D01*
X-31063Y253578D01*
D02*
G37*
G36*
X-34882Y246885D02*
X-35573Y246748D01*
X-36159Y246356D01*
X-36551Y245770D01*
X-36688Y245079D01*
X-36551Y244388D01*
X-36159Y243801D01*
X-35573Y243410D01*
X-34882Y243272D01*
X-34191Y243410D01*
X-33605Y243801D01*
X-33213Y244388D01*
X-33075Y245079D01*
X-33213Y245770D01*
X-33605Y246356D01*
X-34191Y246748D01*
X-34882Y246885D01*
D02*
G37*
G36*
X-19783Y244326D02*
X-20475Y244188D01*
X-21061Y243797D01*
X-21452Y243211D01*
X-21590Y242520D01*
X-21452Y241828D01*
X-21061Y241242D01*
X-20475Y240851D01*
X-19783Y240713D01*
X-19092Y240851D01*
X-18506Y241242D01*
X-18115Y241828D01*
X-17977Y242520D01*
X-18115Y243211D01*
X-18506Y243797D01*
X-19092Y244188D01*
X-19783Y244326D01*
D02*
G37*
G36*
X124213Y321688D02*
X123521Y321551D01*
X122935Y321159D01*
X122544Y320573D01*
X122406Y319882D01*
X122544Y319191D01*
X122808Y318796D01*
Y262894D01*
X122915Y262356D01*
X123219Y261900D01*
X146251Y238869D01*
X146706Y238564D01*
X147244Y238457D01*
X158067D01*
X158462Y238193D01*
X159153Y238056D01*
X159845Y238193D01*
X160431Y238585D01*
X160822Y239171D01*
X160960Y239862D01*
X160822Y240553D01*
X160431Y241140D01*
X159845Y241531D01*
X159153Y241669D01*
X158462Y241531D01*
X158067Y241267D01*
X147826D01*
X125618Y263476D01*
Y318796D01*
X125882Y319191D01*
X126019Y319882D01*
X125882Y320573D01*
X125490Y321159D01*
X124904Y321551D01*
X124213Y321688D01*
D02*
G37*
G36*
X-34882Y240743D02*
X-35573Y240606D01*
X-36159Y240214D01*
X-36551Y239628D01*
X-36688Y238937D01*
X-36551Y238246D01*
X-36159Y237660D01*
X-35573Y237268D01*
X-34882Y237131D01*
X-34191Y237268D01*
X-33605Y237660D01*
X-33213Y238246D01*
X-33075Y238937D01*
X-33213Y239628D01*
X-33605Y240214D01*
X-34191Y240606D01*
X-34882Y240743D01*
D02*
G37*
G36*
X-32283Y234680D02*
X-32975Y234543D01*
X-33561Y234151D01*
X-33952Y233565D01*
X-34090Y232874D01*
X-33952Y232183D01*
X-33561Y231597D01*
X-32975Y231205D01*
X-32283Y231068D01*
X-31592Y231205D01*
X-31006Y231597D01*
X-30615Y232183D01*
X-30477Y232874D01*
X-30615Y233565D01*
X-31006Y234151D01*
X-31592Y234543D01*
X-32283Y234680D01*
D02*
G37*
G36*
X-33268Y229857D02*
X-33959Y229720D01*
X-34545Y229328D01*
X-34937Y228742D01*
X-35074Y228051D01*
X-34937Y227360D01*
X-34545Y226774D01*
X-33959Y226382D01*
X-33268Y226245D01*
X-32577Y226382D01*
X-31990Y226774D01*
X-31599Y227360D01*
X-31461Y228051D01*
X-31599Y228742D01*
X-31990Y229328D01*
X-32577Y229720D01*
X-33268Y229857D01*
D02*
G37*
G36*
X56004Y272082D02*
X55313Y271944D01*
X54727Y271553D01*
X54335Y270967D01*
X54198Y270276D01*
X54335Y269584D01*
X54727Y268998D01*
X54800Y268950D01*
Y228111D01*
X49515Y222826D01*
X49428Y222843D01*
X48737Y222706D01*
X48151Y222314D01*
X47760Y221728D01*
X47622Y221037D01*
X47760Y220346D01*
X48151Y219760D01*
X48737Y219368D01*
X49428Y219231D01*
X50120Y219368D01*
X50706Y219760D01*
X51097Y220346D01*
X51235Y221037D01*
X51218Y221123D01*
X56855Y226761D01*
X57117Y227151D01*
X57208Y227612D01*
X57208Y227612D01*
Y268950D01*
X57281Y268998D01*
X57673Y269584D01*
X57810Y270276D01*
X57673Y270967D01*
X57281Y271553D01*
X56695Y271944D01*
X56004Y272082D01*
D02*
G37*
G36*
X-36220Y223224D02*
X-36912Y223086D01*
X-37498Y222695D01*
X-37889Y222109D01*
X-38027Y221417D01*
X-37889Y220726D01*
X-37498Y220140D01*
X-36912Y219748D01*
X-36220Y219611D01*
X-35529Y219748D01*
X-34943Y220140D01*
X-34552Y220726D01*
X-34414Y221417D01*
X-34552Y222109D01*
X-34943Y222695D01*
X-35529Y223086D01*
X-36220Y223224D01*
D02*
G37*
G36*
X-36496Y217003D02*
X-37187Y216866D01*
X-37773Y216474D01*
X-38165Y215888D01*
X-38302Y215197D01*
X-38165Y214506D01*
X-37773Y213920D01*
X-37187Y213528D01*
X-36496Y213390D01*
X-35805Y213528D01*
X-35219Y213920D01*
X-34827Y214506D01*
X-34690Y215197D01*
X-34827Y215888D01*
X-35219Y216474D01*
X-35805Y216866D01*
X-36496Y217003D01*
D02*
G37*
G36*
X101772Y310861D02*
X101080Y310724D01*
X100494Y310332D01*
X100103Y309746D01*
X99965Y309055D01*
X100103Y308364D01*
X100469Y307816D01*
Y215171D01*
X100297Y215057D01*
X99906Y214471D01*
X99768Y213779D01*
X99906Y213088D01*
X100297Y212502D01*
X100883Y212111D01*
X101575Y211973D01*
X102266Y212111D01*
X102852Y212502D01*
X103244Y213088D01*
X103381Y213779D01*
X103244Y214471D01*
X102877Y215019D01*
Y307663D01*
X103049Y307778D01*
X103440Y308364D01*
X103578Y309055D01*
X103440Y309746D01*
X103049Y310332D01*
X102463Y310724D01*
X101772Y310861D01*
D02*
G37*
G36*
X67775Y211550D02*
X67084Y211413D01*
X66498Y211021D01*
X66106Y210435D01*
X65969Y209744D01*
X66106Y209053D01*
X66498Y208467D01*
X67084Y208075D01*
X67775Y207938D01*
X68466Y208075D01*
X69052Y208467D01*
X69444Y209053D01*
X69581Y209744D01*
X69444Y210435D01*
X69052Y211021D01*
X68466Y211413D01*
X67775Y211550D01*
D02*
G37*
G36*
X55709D02*
X55017Y211413D01*
X54431Y211021D01*
X54040Y210435D01*
X53902Y209744D01*
X54040Y209053D01*
X54431Y208467D01*
X55017Y208075D01*
X55709Y207938D01*
X56400Y208075D01*
X56986Y208467D01*
X57377Y209053D01*
X57515Y209744D01*
X57377Y210435D01*
X56986Y211021D01*
X56400Y211413D01*
X55709Y211550D01*
D02*
G37*
G36*
X66437Y299641D02*
X65746Y299503D01*
X65160Y299112D01*
X64768Y298526D01*
X64631Y297835D01*
X64768Y297143D01*
X65032Y296748D01*
Y217717D01*
X65139Y217179D01*
X65444Y216723D01*
X75010Y207156D01*
X75103Y206691D01*
X75494Y206105D01*
X76080Y205713D01*
X76772Y205575D01*
X77463Y205713D01*
X78049Y206105D01*
X78440Y206691D01*
X78578Y207382D01*
X78440Y208073D01*
X78049Y208659D01*
X77463Y209051D01*
X76997Y209143D01*
X67842Y218299D01*
Y296748D01*
X68106Y297143D01*
X68243Y297835D01*
X68106Y298526D01*
X67714Y299112D01*
X67128Y299503D01*
X66437Y299641D01*
D02*
G37*
G36*
X-18504Y206531D02*
X-19195Y206393D01*
X-19781Y206002D01*
X-20173Y205416D01*
X-20310Y204724D01*
X-20173Y204033D01*
X-19781Y203447D01*
X-19195Y203056D01*
X-18504Y202918D01*
X-17813Y203056D01*
X-17227Y203447D01*
X-16835Y204033D01*
X-16698Y204724D01*
X-16835Y205416D01*
X-17227Y206002D01*
X-17813Y206393D01*
X-18504Y206531D01*
D02*
G37*
G36*
X-35827Y204169D02*
X-36518Y204031D01*
X-37104Y203640D01*
X-37496Y203053D01*
X-37633Y202362D01*
X-37496Y201671D01*
X-37104Y201085D01*
X-36518Y200693D01*
X-35827Y200556D01*
X-35135Y200693D01*
X-34549Y201085D01*
X-34158Y201671D01*
X-34020Y202362D01*
X-34158Y203053D01*
X-34549Y203640D01*
X-35135Y204031D01*
X-35827Y204169D01*
D02*
G37*
G36*
X76046Y202630D02*
X75354Y202493D01*
X74768Y202101D01*
X74377Y201515D01*
X74239Y200824D01*
X74377Y200132D01*
X74768Y199546D01*
X75354Y199155D01*
X76046Y199017D01*
X76737Y199155D01*
X77323Y199546D01*
X77715Y200132D01*
X77852Y200824D01*
X77715Y201515D01*
X77323Y202101D01*
X76737Y202493D01*
X76046Y202630D01*
D02*
G37*
G36*
X173551Y226117D02*
X172860Y225980D01*
X172274Y225588D01*
X171882Y225002D01*
X171745Y224311D01*
X171882Y223620D01*
X172274Y223034D01*
X184906Y210401D01*
Y200492D01*
X185044Y199801D01*
X185435Y199215D01*
X186021Y198823D01*
X186713Y198686D01*
X187404Y198823D01*
X187990Y199215D01*
X188382Y199801D01*
X188519Y200492D01*
Y211150D01*
X188382Y211841D01*
X187990Y212427D01*
X174828Y225588D01*
X174242Y225980D01*
X173551Y226117D01*
D02*
G37*
G36*
X144691Y202171D02*
X144000Y202034D01*
X143414Y201642D01*
X143022Y201056D01*
X142885Y200365D01*
X143022Y199674D01*
X143414Y199088D01*
X144000Y198696D01*
X144691Y198558D01*
X145382Y198696D01*
X145968Y199088D01*
X146360Y199674D01*
X146497Y200365D01*
X146360Y201056D01*
X145968Y201642D01*
X145382Y202034D01*
X144691Y202171D01*
D02*
G37*
G36*
X166043Y202397D02*
X165352Y202259D01*
X164766Y201868D01*
X164374Y201282D01*
X164237Y200591D01*
X164374Y199899D01*
X164766Y199313D01*
X165352Y198922D01*
X166043Y198784D01*
X166735Y198922D01*
X167258Y198670D01*
X167327Y198325D01*
X167719Y197739D01*
X168305Y197347D01*
X168996Y197209D01*
X169687Y197347D01*
X170273Y197739D01*
X170665Y198325D01*
X170802Y199016D01*
X170665Y199707D01*
X170273Y200293D01*
X169687Y200685D01*
X168996Y200822D01*
X168305Y200685D01*
X167781Y200936D01*
X167712Y201282D01*
X167321Y201868D01*
X166735Y202259D01*
X166043Y202397D01*
D02*
G37*
G36*
X-18602Y200232D02*
X-19294Y200094D01*
X-19880Y199703D01*
X-20271Y199117D01*
X-20409Y198425D01*
X-20271Y197734D01*
X-19880Y197148D01*
X-19294Y196756D01*
X-18602Y196619D01*
X-17911Y196756D01*
X-17325Y197148D01*
X-16933Y197734D01*
X-16796Y198425D01*
X-16933Y199117D01*
X-17325Y199703D01*
X-17911Y200094D01*
X-18602Y200232D01*
D02*
G37*
G36*
X168951Y194379D02*
X168260Y194242D01*
X167674Y193850D01*
X167282Y193264D01*
X167145Y192573D01*
X167282Y191882D01*
X167674Y191296D01*
X168260Y190904D01*
X168951Y190767D01*
X169642Y190904D01*
X170228Y191296D01*
X170620Y191882D01*
X170757Y192573D01*
X170620Y193264D01*
X170228Y193850D01*
X169642Y194242D01*
X168951Y194379D01*
D02*
G37*
G36*
X144685Y193342D02*
X143994Y193204D01*
X143408Y192813D01*
X143016Y192227D01*
X142879Y191535D01*
X143016Y190844D01*
X143408Y190258D01*
X143994Y189867D01*
X144685Y189729D01*
X145376Y189867D01*
X145962Y190258D01*
X146354Y190844D01*
X146491Y191535D01*
X146354Y192227D01*
X145962Y192813D01*
X145376Y193204D01*
X144685Y193342D01*
D02*
G37*
G36*
X-17689Y191570D02*
X-18381Y191433D01*
X-18967Y191041D01*
X-19358Y190455D01*
X-19496Y189764D01*
X-19358Y189073D01*
X-18967Y188487D01*
X-18381Y188095D01*
X-17689Y187957D01*
X-16998Y188095D01*
X-16412Y188487D01*
X-16021Y189073D01*
X-15883Y189764D01*
X-16021Y190455D01*
X-16412Y191041D01*
X-16998Y191433D01*
X-17689Y191570D01*
D02*
G37*
G36*
X56557Y190805D02*
X55866Y190668D01*
X55280Y190276D01*
X54888Y189690D01*
X54751Y188999D01*
X54888Y188307D01*
X55280Y187722D01*
X55866Y187330D01*
X56557Y187192D01*
X57249Y187330D01*
X57835Y187722D01*
X58226Y188307D01*
X58364Y188999D01*
X58226Y189690D01*
X57835Y190276D01*
X57249Y190668D01*
X56557Y190805D01*
D02*
G37*
G36*
X194095Y266767D02*
X193403Y266630D01*
X192817Y266238D01*
X192426Y265652D01*
X192288Y264961D01*
X192426Y264269D01*
X192817Y263683D01*
X193403Y263292D01*
X193869Y263199D01*
X210012Y247056D01*
Y186027D01*
X209749Y185632D01*
X209611Y184941D01*
X209749Y184250D01*
X210012Y183855D01*
Y179630D01*
X209512Y179478D01*
X209360Y179707D01*
X194569Y194497D01*
X194113Y194802D01*
X193575Y194909D01*
X181795D01*
X181400Y195173D01*
X180709Y195310D01*
X180017Y195173D01*
X179431Y194781D01*
X179040Y194195D01*
X178902Y193504D01*
X179040Y192813D01*
X179431Y192227D01*
X180017Y191835D01*
X180709Y191698D01*
X181400Y191835D01*
X181795Y192099D01*
X192993D01*
X206961Y178131D01*
Y115143D01*
X206878Y115083D01*
X206199Y115205D01*
X206100Y115352D01*
X205514Y115744D01*
X204823Y115881D01*
X204132Y115744D01*
X203545Y115352D01*
X203279Y114953D01*
X202779Y115104D01*
Y176382D01*
X202672Y176920D01*
X202367Y177376D01*
X196269Y183474D01*
X195813Y183778D01*
X195276Y183885D01*
X190752D01*
X190357Y184149D01*
X189665Y184287D01*
X188974Y184149D01*
X188388Y183758D01*
X187996Y183172D01*
X187859Y182480D01*
X187996Y181789D01*
X188388Y181203D01*
X188974Y180811D01*
X189665Y180674D01*
X190357Y180811D01*
X190752Y181075D01*
X194694D01*
X199969Y175800D01*
Y28048D01*
X199709Y27660D01*
X199572Y26969D01*
X199709Y26277D01*
X200101Y25691D01*
X200687Y25300D01*
X201378Y25162D01*
X202069Y25300D01*
X202655Y25691D01*
X203047Y26277D01*
X203184Y26969D01*
X203047Y27660D01*
X202779Y28061D01*
Y113045D01*
X203279Y113197D01*
X203545Y112797D01*
X204132Y112406D01*
X204597Y112313D01*
X206961Y109950D01*
Y29039D01*
X206697Y28644D01*
X206560Y27953D01*
X206697Y27261D01*
X207089Y26676D01*
X207675Y26284D01*
X208366Y26146D01*
X209057Y26284D01*
X209643Y26676D01*
X210035Y27261D01*
X210173Y27953D01*
X210035Y28644D01*
X209771Y29039D01*
Y105553D01*
X210271Y105603D01*
X210283Y105545D01*
X210674Y104959D01*
X211260Y104567D01*
X211951Y104430D01*
X212643Y104567D01*
X213229Y104959D01*
X213620Y105545D01*
X213758Y106236D01*
X213620Y106928D01*
X213229Y107514D01*
X212822Y107785D01*
Y183855D01*
X213086Y184250D01*
X213224Y184941D01*
X213086Y185632D01*
X212822Y186027D01*
Y247638D01*
X212715Y248176D01*
X212411Y248631D01*
X195856Y265186D01*
X195763Y265652D01*
X195372Y266238D01*
X194786Y266630D01*
X194095Y266767D01*
D02*
G37*
G36*
X-10772Y250991D02*
X-11463Y250853D01*
X-12049Y250462D01*
X-12440Y249876D01*
X-12578Y249184D01*
X-12440Y248493D01*
X-12049Y247907D01*
X-11463Y247516D01*
X-11153Y247454D01*
X-9968Y246268D01*
Y183760D01*
X-9861Y183222D01*
X-9556Y182766D01*
X-7372Y180582D01*
X-7279Y180116D01*
X-6887Y179530D01*
X-6301Y179138D01*
X-5610Y179001D01*
X-4919Y179138D01*
X-4333Y179530D01*
X-3941Y180116D01*
X-3914Y180255D01*
X-3371Y180420D01*
X3221Y173828D01*
Y173134D01*
X2957Y172739D01*
X2820Y172047D01*
X2957Y171356D01*
X3349Y170770D01*
X3935Y170378D01*
X4626Y170241D01*
X5317Y170378D01*
X5903Y170770D01*
X6295Y171356D01*
X6432Y172047D01*
X6295Y172739D01*
X6031Y173134D01*
Y174409D01*
X5924Y174947D01*
X5619Y175403D01*
X-3910Y184932D01*
Y247339D01*
X-3646Y247734D01*
X-3509Y248425D01*
X-3646Y249116D01*
X-4038Y249703D01*
X-4624Y250094D01*
X-5315Y250232D01*
X-6006Y250094D01*
X-6592Y249703D01*
X-6984Y249116D01*
X-7121Y248425D01*
X-7022Y247924D01*
X-7493Y247729D01*
X-7570Y247844D01*
X-8979Y249253D01*
X-9103Y249876D01*
X-9494Y250462D01*
X-10080Y250853D01*
X-10772Y250991D01*
D02*
G37*
G36*
X-38701Y173854D02*
X-39392Y173716D01*
X-39978Y173325D01*
X-40370Y172739D01*
X-40507Y172047D01*
X-40370Y171356D01*
X-39978Y170770D01*
X-39392Y170378D01*
X-38701Y170241D01*
X-38010Y170378D01*
X-37424Y170770D01*
X-37032Y171356D01*
X-36894Y172047D01*
X-37032Y172739D01*
X-37424Y173325D01*
X-38010Y173716D01*
X-38701Y173854D01*
D02*
G37*
G36*
X171653Y165881D02*
X170962Y165744D01*
X170376Y165352D01*
X169985Y164766D01*
X169847Y164075D01*
X169985Y163383D01*
X170376Y162797D01*
X170962Y162406D01*
X171653Y162268D01*
X172345Y162406D01*
X172931Y162797D01*
X173322Y163383D01*
X173460Y164075D01*
X173322Y164766D01*
X172931Y165352D01*
X172345Y165744D01*
X171653Y165881D01*
D02*
G37*
G36*
X9941Y161157D02*
X9250Y161019D01*
X8664Y160628D01*
X8272Y160042D01*
X8135Y159350D01*
X8272Y158659D01*
X8664Y158073D01*
X9250Y157682D01*
X9941Y157544D01*
X10632Y157682D01*
X11218Y158073D01*
X11610Y158659D01*
X11747Y159350D01*
X11610Y160042D01*
X11218Y160628D01*
X10632Y161019D01*
X9941Y161157D01*
D02*
G37*
G36*
X-36732Y159799D02*
X-37424Y159661D01*
X-38010Y159269D01*
X-38401Y158683D01*
X-38539Y157992D01*
X-38401Y157301D01*
X-38010Y156715D01*
X-37424Y156323D01*
X-36732Y156186D01*
X-36041Y156323D01*
X-35455Y156715D01*
X-35063Y157301D01*
X-34926Y157992D01*
X-35063Y158683D01*
X-35455Y159269D01*
X-36041Y159661D01*
X-36732Y159799D01*
D02*
G37*
G36*
X-31220Y158578D02*
X-31912Y158440D01*
X-32498Y158049D01*
X-32889Y157463D01*
X-33027Y156772D01*
X-32889Y156080D01*
X-32498Y155494D01*
X-31912Y155103D01*
X-31220Y154965D01*
X-30529Y155103D01*
X-29943Y155494D01*
X-29552Y156080D01*
X-29414Y156772D01*
X-29552Y157463D01*
X-29943Y158049D01*
X-30529Y158440D01*
X-31220Y158578D01*
D02*
G37*
G36*
X-11943Y155257D02*
X-12634Y155119D01*
X-13220Y154728D01*
X-13612Y154142D01*
X-13749Y153451D01*
X-13612Y152759D01*
X-13220Y152173D01*
X-12634Y151782D01*
X-11943Y151644D01*
X-11252Y151782D01*
X-10666Y152173D01*
X-10274Y152759D01*
X-10137Y153451D01*
X-10274Y154142D01*
X-10666Y154728D01*
X-11252Y155119D01*
X-11943Y155257D01*
D02*
G37*
G36*
X-31496Y146688D02*
X-32187Y146551D01*
X-32773Y146159D01*
X-33165Y145573D01*
X-33302Y144882D01*
X-33165Y144191D01*
X-32773Y143605D01*
X-32187Y143213D01*
X-31496Y143076D01*
X-30805Y143213D01*
X-30219Y143605D01*
X-29827Y144191D01*
X-29690Y144882D01*
X-29827Y145573D01*
X-30219Y146159D01*
X-30805Y146551D01*
X-31496Y146688D01*
D02*
G37*
G36*
X-37008Y133204D02*
X-37699Y133066D01*
X-38285Y132675D01*
X-38677Y132089D01*
X-38814Y131398D01*
X-38677Y130706D01*
X-38285Y130120D01*
X-37699Y129729D01*
X-37008Y129591D01*
X-36317Y129729D01*
X-35731Y130120D01*
X-35339Y130706D01*
X-35201Y131398D01*
X-35339Y132089D01*
X-35731Y132675D01*
X-36317Y133066D01*
X-37008Y133204D01*
D02*
G37*
G36*
X-2756Y134090D02*
X-3447Y133952D01*
X-4033Y133561D01*
X-4425Y132975D01*
X-4562Y132283D01*
X-4425Y131592D01*
X-4033Y131006D01*
X-3553Y130685D01*
X-3440Y130549D01*
X-3392Y130094D01*
X-3637Y129727D01*
X-3775Y129035D01*
X-3637Y128344D01*
X-3246Y127758D01*
X-2660Y127367D01*
X-1969Y127229D01*
X-1277Y127367D01*
X-691Y127758D01*
X-300Y128344D01*
X-162Y129035D01*
X-300Y129727D01*
X-691Y130313D01*
X-1172Y130634D01*
X-1284Y130770D01*
X-1332Y131225D01*
X-1087Y131592D01*
X-950Y132283D01*
X-1087Y132975D01*
X-1479Y133561D01*
X-2065Y133952D01*
X-2756Y134090D01*
D02*
G37*
G36*
X2835Y129405D02*
X2143Y129267D01*
X1557Y128876D01*
X1166Y128290D01*
X1028Y127598D01*
X1166Y126907D01*
X1557Y126321D01*
X2143Y125930D01*
X2835Y125792D01*
X3526Y125930D01*
X4112Y126321D01*
X4504Y126907D01*
X4641Y127598D01*
X4504Y128290D01*
X4112Y128876D01*
X3526Y129267D01*
X2835Y129405D01*
D02*
G37*
G36*
X-22736Y121688D02*
X-23427Y121551D01*
X-24013Y121159D01*
X-24405Y120573D01*
X-24543Y119882D01*
X-24405Y119191D01*
X-24013Y118605D01*
X-23427Y118213D01*
X-22736Y118076D01*
X-22045Y118213D01*
X-21459Y118605D01*
X-21067Y119191D01*
X-20930Y119882D01*
X-21067Y120573D01*
X-21459Y121159D01*
X-22045Y121551D01*
X-22736Y121688D01*
D02*
G37*
G36*
X3150Y117062D02*
X2458Y116925D01*
X1872Y116533D01*
X1481Y115947D01*
X1343Y115256D01*
X1481Y114565D01*
X1872Y113979D01*
X2458Y113587D01*
X2867Y113506D01*
X3169Y113332D01*
X3230Y112962D01*
X3153Y112572D01*
X3290Y111880D01*
X3682Y111294D01*
X4268Y110903D01*
X4959Y110765D01*
X5650Y110903D01*
X6236Y111294D01*
X6628Y111880D01*
X6765Y112572D01*
X6628Y113263D01*
X6236Y113849D01*
X5650Y114241D01*
X5241Y114322D01*
X4940Y114495D01*
X4878Y114865D01*
X4956Y115256D01*
X4818Y115947D01*
X4427Y116533D01*
X3841Y116925D01*
X3150Y117062D01*
D02*
G37*
G36*
X-4724Y115389D02*
X-5416Y115252D01*
X-6002Y114860D01*
X-6393Y114274D01*
X-6531Y113583D01*
X-6393Y112891D01*
X-6002Y112305D01*
X-5416Y111914D01*
X-5153Y111862D01*
X-5073Y111336D01*
X-5510Y111045D01*
X-5901Y110459D01*
X-6039Y109767D01*
X-5901Y109076D01*
X-5510Y108490D01*
X-4924Y108098D01*
X-4232Y107961D01*
X-3541Y108098D01*
X-2955Y108490D01*
X-2563Y109076D01*
X-2426Y109767D01*
X-2563Y110459D01*
X-2955Y111045D01*
X-3541Y111436D01*
X-3804Y111488D01*
X-3883Y112014D01*
X-3447Y112305D01*
X-3056Y112891D01*
X-2918Y113583D01*
X-3056Y114274D01*
X-3447Y114860D01*
X-4033Y115252D01*
X-4724Y115389D01*
D02*
G37*
G36*
X47613Y111206D02*
X46922Y111068D01*
X46336Y110677D01*
X45944Y110091D01*
X45807Y109400D01*
X45944Y108708D01*
X46336Y108122D01*
X46922Y107731D01*
X47613Y107593D01*
X48304Y107731D01*
X48890Y108122D01*
X49282Y108708D01*
X49419Y109400D01*
X49282Y110091D01*
X48890Y110677D01*
X48304Y111068D01*
X47613Y111206D01*
D02*
G37*
G36*
X3108Y107670D02*
X2416Y107532D01*
X1830Y107141D01*
X1698Y106943D01*
X1249Y106714D01*
X663Y107105D01*
X-28Y107243D01*
X-719Y107105D01*
X-1305Y106714D01*
X-1697Y106128D01*
X-1834Y105437D01*
X-1697Y104745D01*
X-1305Y104159D01*
X-719Y103768D01*
X-28Y103630D01*
X663Y103768D01*
X1249Y104159D01*
X1382Y104357D01*
X1830Y104586D01*
X2416Y104195D01*
X3108Y104057D01*
X3799Y104195D01*
X4385Y104586D01*
X4777Y105172D01*
X4914Y105864D01*
X4777Y106555D01*
X4385Y107141D01*
X3799Y107532D01*
X3108Y107670D01*
D02*
G37*
G36*
X9646Y109484D02*
X8954Y109346D01*
X8368Y108955D01*
X7977Y108368D01*
X7839Y107677D01*
X7977Y106986D01*
X8368Y106400D01*
X8954Y106008D01*
X9646Y105871D01*
X10337Y106008D01*
X10923Y106400D01*
X11315Y106986D01*
X11452Y107677D01*
X11315Y108368D01*
X10923Y108955D01*
X10337Y109346D01*
X9646Y109484D01*
D02*
G37*
G36*
X66754Y109041D02*
X66063Y108903D01*
X65477Y108512D01*
X65085Y107925D01*
X64948Y107234D01*
X65085Y106543D01*
X65477Y105957D01*
X66063Y105565D01*
X66754Y105428D01*
X67445Y105565D01*
X68031Y105957D01*
X68423Y106543D01*
X68560Y107234D01*
X68423Y107925D01*
X68031Y108512D01*
X67445Y108903D01*
X66754Y109041D01*
D02*
G37*
G36*
X181496Y106629D02*
X180805Y106492D01*
X180219Y106100D01*
X179827Y105514D01*
X179690Y104823D01*
X179827Y104132D01*
X180219Y103545D01*
X180805Y103154D01*
X181496Y103016D01*
X182187Y103154D01*
X182773Y103545D01*
X183165Y104132D01*
X183302Y104823D01*
X183165Y105514D01*
X182773Y106100D01*
X182187Y106492D01*
X181496Y106629D01*
D02*
G37*
G36*
X172047Y86255D02*
X171356Y86118D01*
X170770Y85726D01*
X170378Y85140D01*
X170241Y84449D01*
X170378Y83758D01*
X170770Y83171D01*
X171356Y82780D01*
X172047Y82643D01*
X172739Y82780D01*
X173325Y83171D01*
X173716Y83758D01*
X173854Y84449D01*
X173716Y85140D01*
X173325Y85726D01*
X172739Y86118D01*
X172047Y86255D01*
D02*
G37*
G36*
X88954Y66370D02*
X88263Y66233D01*
X87677Y65841D01*
X87285Y65255D01*
X87147Y64564D01*
X87285Y63872D01*
X87677Y63286D01*
X88263Y62895D01*
X88954Y62757D01*
X89645Y62895D01*
X90231Y63286D01*
X90623Y63872D01*
X90760Y64564D01*
X90623Y65255D01*
X90231Y65841D01*
X89645Y66233D01*
X88954Y66370D01*
D02*
G37*
G36*
X175197Y60960D02*
X174506Y60822D01*
X173920Y60431D01*
X173528Y59845D01*
X173390Y59153D01*
X173528Y58462D01*
X173920Y57876D01*
X174506Y57485D01*
X175197Y57347D01*
X175888Y57485D01*
X176474Y57876D01*
X176866Y58462D01*
X177003Y59153D01*
X176866Y59845D01*
X176474Y60431D01*
X175888Y60822D01*
X175197Y60960D01*
D02*
G37*
G36*
X81791Y53972D02*
X81100Y53834D01*
X80514Y53443D01*
X80123Y52857D01*
X79985Y52165D01*
X80123Y51474D01*
X80514Y50888D01*
X81100Y50497D01*
X81791Y50359D01*
X82483Y50497D01*
X83069Y50888D01*
X83460Y51474D01*
X83598Y52165D01*
X83460Y52857D01*
X83069Y53443D01*
X82483Y53834D01*
X81791Y53972D01*
D02*
G37*
G36*
X101083Y76117D02*
X100391Y75980D01*
X99805Y75588D01*
X99414Y75002D01*
X99276Y74311D01*
X99414Y73620D01*
X99629Y73298D01*
Y43384D01*
X99315Y42916D01*
X99178Y42224D01*
X99315Y41533D01*
X99707Y40947D01*
X100293Y40556D01*
X100984Y40418D01*
X101675Y40556D01*
X102261Y40947D01*
X102653Y41533D01*
X102791Y42224D01*
X102653Y42916D01*
X102438Y43237D01*
Y73151D01*
X102752Y73620D01*
X102889Y74311D01*
X102752Y75002D01*
X102360Y75588D01*
X101774Y75980D01*
X101083Y76117D01*
D02*
G37*
G36*
X19213Y38064D02*
X18236Y37935D01*
X17326Y37558D01*
X16545Y36959D01*
X15946Y36178D01*
X15569Y35268D01*
X15440Y34291D01*
X15569Y33315D01*
X15946Y32405D01*
X16545Y31624D01*
X17326Y31024D01*
X18236Y30648D01*
X19213Y30519D01*
X20189Y30648D01*
X21099Y31024D01*
X21880Y31624D01*
X22480Y32405D01*
X22857Y33315D01*
X22985Y34291D01*
X22857Y35268D01*
X22480Y36178D01*
X21880Y36959D01*
X21099Y37558D01*
X20189Y37935D01*
X19213Y38064D01*
D02*
G37*
G36*
X19713Y27998D02*
Y24791D01*
X22919D01*
X22857Y25268D01*
X22480Y26178D01*
X21880Y26959D01*
X21099Y27558D01*
X20189Y27935D01*
X19713Y27998D01*
D02*
G37*
G36*
X18713D02*
X18236Y27935D01*
X17326Y27558D01*
X16545Y26959D01*
X15946Y26178D01*
X15569Y25268D01*
X15506Y24791D01*
X18713D01*
Y27998D01*
D02*
G37*
G36*
X22919Y23791D02*
X19713D01*
Y20585D01*
X20189Y20648D01*
X21099Y21024D01*
X21880Y21624D01*
X22480Y22405D01*
X22857Y23315D01*
X22919Y23791D01*
D02*
G37*
G36*
X18713D02*
X15506D01*
X15569Y23315D01*
X15946Y22405D01*
X16545Y21624D01*
X17326Y21024D01*
X18236Y20648D01*
X18713Y20585D01*
Y23791D01*
D02*
G37*
G36*
X83169Y18145D02*
X82478Y18007D01*
X81892Y17616D01*
X81500Y17030D01*
X81363Y16339D01*
X81500Y15647D01*
X81892Y15061D01*
X82478Y14670D01*
X83169Y14532D01*
X83861Y14670D01*
X84447Y15061D01*
X84838Y15647D01*
X84976Y16339D01*
X84838Y17030D01*
X84447Y17616D01*
X83861Y18007D01*
X83169Y18145D01*
D02*
G37*
%LPD*%
G36*
X116955Y373517D02*
X117032Y373128D01*
X117423Y372542D01*
X117388Y372043D01*
X91627Y346283D01*
X91165Y346474D01*
Y347066D01*
X91224Y347365D01*
Y348494D01*
X116412Y373682D01*
X116955Y373517D01*
D02*
G37*
G36*
X20434Y296119D02*
Y262171D01*
X19000Y260752D01*
X18539Y260944D01*
Y294877D01*
X19972Y296311D01*
X20434Y296119D01*
D02*
G37*
G36*
X35563Y334515D02*
X35384Y333987D01*
X34911Y333925D01*
X34240Y333647D01*
X33664Y333206D01*
X33223Y332630D01*
X32945Y331960D01*
X32850Y331240D01*
X32945Y330521D01*
X33223Y329850D01*
X33664Y329275D01*
X34240Y328833D01*
X34911Y328555D01*
X35630Y328461D01*
X36349Y328555D01*
X37020Y328833D01*
X37595Y329275D01*
X38037Y329850D01*
X38315Y330521D01*
X38377Y330994D01*
X38905Y331174D01*
X41142Y328937D01*
Y76881D01*
X41019Y76432D01*
X41019Y76432D01*
Y76432D01*
X40642Y76395D01*
X40631Y76447D01*
X40547Y76872D01*
X40155Y77458D01*
X39569Y77850D01*
X38878Y77987D01*
X38187Y77850D01*
X37601Y77458D01*
X37209Y76872D01*
X37072Y76181D01*
X37209Y75490D01*
X37601Y74904D01*
X38187Y74512D01*
X38878Y74375D01*
X39569Y74512D01*
X40155Y74904D01*
X40547Y75490D01*
X40631Y75915D01*
X40642Y75967D01*
X41019Y75930D01*
Y75930D01*
X41019Y75930D01*
X41142Y75481D01*
Y42421D01*
X41240Y42323D01*
Y12992D01*
X36417D01*
Y30709D01*
X24705Y42421D01*
X22985D01*
Y44288D01*
X22985Y44291D01*
X22985Y44295D01*
Y54288D01*
X22985Y54291D01*
X22985Y54295D01*
Y64288D01*
X22985Y64291D01*
X22985Y64294D01*
Y74288D01*
X22985Y74291D01*
X22985Y74295D01*
Y75029D01*
X23111Y75076D01*
X23485Y75112D01*
X23821Y74608D01*
X24407Y74217D01*
X25098Y74080D01*
X25790Y74217D01*
X26376Y74608D01*
X26767Y75195D01*
X26905Y75886D01*
X26767Y76577D01*
X26376Y77163D01*
X25790Y77555D01*
X25098Y77692D01*
X24407Y77555D01*
X23821Y77163D01*
X23485Y76660D01*
X23111Y76696D01*
X22985Y76743D01*
Y84288D01*
X22985Y84291D01*
X22985Y84294D01*
Y98349D01*
X23485Y98501D01*
X23736Y98125D01*
X24322Y97734D01*
X25013Y97596D01*
X25704Y97734D01*
X26290Y98125D01*
X26682Y98711D01*
X26819Y99403D01*
X26682Y100094D01*
X26290Y100680D01*
X25704Y101072D01*
X25023Y101207D01*
Y158183D01*
X25523Y158233D01*
X25595Y157872D01*
X25986Y157286D01*
X26572Y156894D01*
X27264Y156757D01*
X27955Y156894D01*
X28541Y157286D01*
X28933Y157872D01*
X29070Y158563D01*
X28933Y159254D01*
X28654Y159671D01*
X28690Y160297D01*
X28750Y160337D01*
X29142Y160923D01*
X29279Y161614D01*
X29142Y162305D01*
X28750Y162891D01*
X28164Y163283D01*
X27473Y163420D01*
X26781Y163283D01*
X26195Y162891D01*
X25804Y162305D01*
X25666Y161614D01*
X25804Y160923D01*
X26083Y160506D01*
X26047Y159881D01*
X25986Y159840D01*
X25595Y159254D01*
X25523Y158893D01*
X25023Y158943D01*
Y219345D01*
X25523Y219496D01*
X25593Y219392D01*
X26179Y219000D01*
X26870Y218863D01*
X27561Y219000D01*
X28147Y219392D01*
X28539Y219978D01*
X28676Y220669D01*
X28539Y221361D01*
X28147Y221947D01*
X27561Y222338D01*
X26870Y222476D01*
X26179Y222338D01*
X25593Y221947D01*
X25523Y221842D01*
X25023Y221994D01*
Y232351D01*
X24931Y232812D01*
X24670Y233203D01*
X24670Y233203D01*
X24664Y233210D01*
X24702Y233403D01*
X24565Y234095D01*
X24173Y234681D01*
X23587Y235072D01*
X22896Y235210D01*
X22205Y235072D01*
X21619Y234681D01*
X21227Y234095D01*
X21090Y233403D01*
X21227Y232712D01*
X21619Y232126D01*
X22205Y231734D01*
X22615Y231653D01*
Y226438D01*
X22115Y226231D01*
X20954Y227391D01*
X20862Y227857D01*
X20470Y228443D01*
X19884Y228834D01*
X19193Y228972D01*
X18502Y228834D01*
X18388Y228758D01*
X12205Y234941D01*
X1280D01*
Y246882D01*
X1740Y247339D01*
X8242Y247274D01*
X22441Y261334D01*
Y298524D01*
X22466Y298562D01*
X22604Y299254D01*
X22466Y299945D01*
X22441Y299983D01*
Y332776D01*
X25000Y335335D01*
X34744Y335335D01*
X35563Y334515D01*
D02*
G37*
G36*
X103997Y187141D02*
Y157913D01*
X104095Y157418D01*
Y127314D01*
X104064Y127277D01*
X103727Y127310D01*
X103528Y127407D01*
X103478Y127656D01*
X103215Y128051D01*
Y186569D01*
X103440Y186907D01*
X103497Y187190D01*
X103997Y187141D01*
D02*
G37*
G36*
X81670Y95160D02*
Y80617D01*
X72336Y71283D01*
X61419D01*
X60624Y72078D01*
X60641Y72164D01*
X60504Y72855D01*
X60112Y73441D01*
X59799Y73651D01*
X59904Y74182D01*
X59910Y74183D01*
X60300Y74444D01*
X81208Y95351D01*
X81670Y95160D01*
D02*
G37*
%LPC*%
G36*
X35236Y316570D02*
X34545Y316433D01*
X33959Y316041D01*
X33567Y315455D01*
X33430Y314764D01*
X33567Y314072D01*
X33959Y313487D01*
X34545Y313095D01*
X35236Y312957D01*
X35928Y313095D01*
X36514Y313487D01*
X36905Y314072D01*
X37043Y314764D01*
X36905Y315455D01*
X36514Y316041D01*
X35928Y316433D01*
X35236Y316570D01*
D02*
G37*
G36*
X36220Y287535D02*
X35529Y287397D01*
X34943Y287006D01*
X34552Y286420D01*
X34414Y285728D01*
X34552Y285037D01*
X34943Y284451D01*
X35529Y284060D01*
X36220Y283922D01*
X36912Y284060D01*
X37498Y284451D01*
X37889Y285037D01*
X38027Y285728D01*
X37889Y286420D01*
X37498Y287006D01*
X36912Y287397D01*
X36220Y287535D01*
D02*
G37*
G36*
X32210Y211550D02*
X31519Y211413D01*
X30933Y211021D01*
X30542Y210435D01*
X30404Y209744D01*
X30542Y209053D01*
X30933Y208467D01*
X31519Y208075D01*
X32210Y207938D01*
X32902Y208075D01*
X33488Y208467D01*
X33879Y209053D01*
X34017Y209744D01*
X33879Y210435D01*
X33488Y211021D01*
X32902Y211413D01*
X32210Y211550D01*
D02*
G37*
G36*
X38780Y184385D02*
X38088Y184248D01*
X37502Y183856D01*
X37111Y183270D01*
X36973Y182579D01*
X37111Y181887D01*
X37502Y181301D01*
X38088Y180910D01*
X38780Y180772D01*
X39471Y180910D01*
X40057Y181301D01*
X40448Y181887D01*
X40586Y182579D01*
X40448Y183270D01*
X40057Y183856D01*
X39471Y184248D01*
X38780Y184385D01*
D02*
G37*
G36*
X31791Y94031D02*
X31100Y93893D01*
X30514Y93502D01*
X30123Y92916D01*
X29985Y92224D01*
X30123Y91533D01*
X30514Y90947D01*
X31100Y90556D01*
X31791Y90418D01*
X32483Y90556D01*
X33069Y90947D01*
X33460Y91533D01*
X33598Y92224D01*
X33460Y92916D01*
X33069Y93502D01*
X32483Y93893D01*
X31791Y94031D01*
D02*
G37*
G36*
X31979Y56379D02*
X31288Y56241D01*
X30702Y55850D01*
X30310Y55264D01*
X30173Y54572D01*
X30310Y53881D01*
X30702Y53295D01*
X31288Y52904D01*
X31979Y52766D01*
X32671Y52904D01*
X33257Y53295D01*
X33648Y53881D01*
X33786Y54572D01*
X33648Y55264D01*
X33257Y55850D01*
X32671Y56241D01*
X31979Y56379D01*
D02*
G37*
G36*
X38780Y39011D02*
X38088Y38874D01*
X37502Y38482D01*
X37111Y37896D01*
X36973Y37205D01*
X37111Y36514D01*
X37502Y35927D01*
X38088Y35536D01*
X38780Y35398D01*
X39471Y35536D01*
X40057Y35927D01*
X40448Y36514D01*
X40586Y37205D01*
X40448Y37896D01*
X40057Y38482D01*
X39471Y38874D01*
X38780Y39011D01*
D02*
G37*
G36*
X398591Y368996D02*
X397866D01*
X397165Y368808D01*
X396536Y368445D01*
X396023Y367932D01*
X395909Y367734D01*
X395331D01*
X395217Y367932D01*
X394704Y368445D01*
X394076Y368808D01*
X393375Y368996D01*
X392649D01*
X391948Y368808D01*
X391320Y368445D01*
X390807Y367932D01*
X390703Y367753D01*
X390203D01*
X390099Y367932D01*
X389586Y368445D01*
X388958Y368808D01*
X388257Y368996D01*
X387531D01*
X386830Y368808D01*
X386202Y368445D01*
X385688Y367932D01*
X385326Y367304D01*
X385298Y367201D01*
X384781D01*
X384753Y367304D01*
X384390Y367932D01*
X383877Y368445D01*
X383249Y368808D01*
X382548Y368996D01*
X381822D01*
X381121Y368808D01*
X380493Y368445D01*
X379980Y367932D01*
X379617Y367304D01*
X379590Y367202D01*
X379072D01*
X379045Y367304D01*
X378682Y367932D01*
X378169Y368445D01*
X377540Y368808D01*
X376839Y368996D01*
X376114D01*
X375413Y368808D01*
X374784Y368445D01*
X374271Y367932D01*
X373908Y367304D01*
X373721Y366603D01*
X373228D01*
X373041Y367304D01*
X372678Y367932D01*
X372165Y368445D01*
X371536Y368808D01*
X370835Y368996D01*
X370110D01*
X369409Y368808D01*
X368780Y368445D01*
X368267Y367932D01*
X367904Y367304D01*
X367717Y366603D01*
Y365877D01*
X367904Y365176D01*
X368267Y364548D01*
X368780Y364035D01*
X369409Y363672D01*
X370110Y363484D01*
X370835D01*
X371536Y363672D01*
X372165Y364035D01*
X372678Y364548D01*
X373041Y365176D01*
X373228Y365877D01*
X373721D01*
X373908Y365176D01*
X374271Y364548D01*
X374784Y364035D01*
X375413Y363672D01*
X376114Y363484D01*
X376839D01*
X377540Y363672D01*
X378169Y364035D01*
X378682Y364548D01*
X379045Y365176D01*
X379072Y365279D01*
X379590D01*
X379617Y365176D01*
X379980Y364548D01*
X380493Y364035D01*
X381121Y363672D01*
X381822Y363484D01*
X382548D01*
X383249Y363672D01*
X383877Y364035D01*
X384390Y364548D01*
X384753Y365176D01*
X384781Y365279D01*
X385298D01*
X385326Y365176D01*
X385688Y364548D01*
X386202Y364035D01*
X386830Y363672D01*
X387531Y363484D01*
X388257D01*
X388958Y363672D01*
X389586Y364035D01*
X390099Y364548D01*
X390203Y364728D01*
X390703D01*
X390807Y364548D01*
X391320Y364035D01*
X391948Y363672D01*
X392649Y363484D01*
X393375D01*
X394076Y363672D01*
X394704Y364035D01*
X395217Y364548D01*
X395331Y364746D01*
X395909D01*
X396023Y364548D01*
X396536Y364035D01*
X397165Y363672D01*
X397866Y363484D01*
X398591D01*
X399292Y363672D01*
X399921Y364035D01*
X400434Y364548D01*
X400796Y365176D01*
X400984Y365877D01*
Y366603D01*
X400796Y367304D01*
X400434Y367932D01*
X399921Y368445D01*
X399292Y368808D01*
X398591Y368996D01*
D02*
G37*
G36*
X542510Y380315D02*
X541269D01*
X540052Y380073D01*
X538906Y379598D01*
X537874Y378908D01*
X536997Y378031D01*
X536307Y376999D01*
X535833Y375853D01*
X535591Y374636D01*
Y373395D01*
X535833Y372178D01*
X536307Y371032D01*
X536997Y370000D01*
X537874Y369123D01*
X538906Y368433D01*
X540052Y367958D01*
X541269Y367716D01*
X542510D01*
X543727Y367958D01*
X544874Y368433D01*
X545905Y369123D01*
X546783Y370000D01*
X547472Y371032D01*
X547947Y372178D01*
X548189Y373395D01*
Y374636D01*
X547947Y375853D01*
X547472Y376999D01*
X546783Y378031D01*
X545905Y378908D01*
X544874Y379598D01*
X543727Y380073D01*
X542510Y380315D01*
D02*
G37*
G36*
X307449Y368996D02*
X306724D01*
X306023Y368808D01*
X305395Y368445D01*
X304881Y367932D01*
X304519Y367304D01*
X304331Y366603D01*
X303839Y366603D01*
X303651Y367304D01*
X303288Y367932D01*
X302775Y368445D01*
X302146Y368808D01*
X301446Y368996D01*
X300720D01*
X300019Y368808D01*
X299391Y368445D01*
X298877Y367932D01*
X298515Y367304D01*
X298327Y366603D01*
Y365877D01*
X298515Y365176D01*
X298877Y364548D01*
X299391Y364035D01*
X300019Y363672D01*
X300720Y363484D01*
X301446D01*
X302146Y363672D01*
X302775Y364035D01*
X303288Y364548D01*
X303651Y365176D01*
X303839Y365877D01*
X304331Y365877D01*
X304519Y365176D01*
X304881Y364548D01*
X305395Y364035D01*
X306023Y363672D01*
X306724Y363484D01*
X307449D01*
X308150Y363672D01*
X308779Y364035D01*
X309292Y364548D01*
X309655Y365176D01*
X309842Y365877D01*
Y366603D01*
X309655Y367304D01*
X309292Y367932D01*
X308779Y368445D01*
X308150Y368808D01*
X307449Y368996D01*
D02*
G37*
G36*
X331564D02*
X330838D01*
X330137Y368808D01*
X329509Y368445D01*
X328995Y367932D01*
X328633Y367304D01*
X328445Y366603D01*
Y365877D01*
X328633Y365176D01*
X328995Y364548D01*
X329509Y364035D01*
X330137Y363672D01*
X330838Y363484D01*
X331564D01*
X332264Y363672D01*
X332893Y364035D01*
X333406Y364548D01*
X333769Y365176D01*
X333957Y365877D01*
Y366603D01*
X333769Y367304D01*
X333406Y367932D01*
X332893Y368445D01*
X332264Y368808D01*
X331564Y368996D01*
D02*
G37*
G36*
X323985D02*
X323259D01*
X322558Y368808D01*
X321930Y368445D01*
X321417Y367932D01*
X321054Y367304D01*
X320866Y366603D01*
Y365877D01*
X321054Y365176D01*
X321417Y364548D01*
X321930Y364035D01*
X322558Y363672D01*
X323259Y363484D01*
X323985D01*
X324686Y363672D01*
X325314Y364035D01*
X325827Y364548D01*
X326190Y365176D01*
X326378Y365877D01*
Y366603D01*
X326190Y367304D01*
X325827Y367932D01*
X325314Y368445D01*
X324686Y368808D01*
X323985Y368996D01*
D02*
G37*
G36*
X314930D02*
X314204D01*
X313503Y368808D01*
X312875Y368445D01*
X312362Y367932D01*
X311999Y367304D01*
X311811Y366603D01*
Y365877D01*
X311999Y365176D01*
X312362Y364548D01*
X312875Y364035D01*
X313503Y363672D01*
X314204Y363484D01*
X314930D01*
X315631Y363672D01*
X316259Y364035D01*
X316772Y364548D01*
X317135Y365176D01*
X317323Y365877D01*
Y366603D01*
X317135Y367304D01*
X316772Y367932D01*
X316259Y368445D01*
X315631Y368808D01*
X314930Y368996D01*
D02*
G37*
G36*
X490962Y365314D02*
X490257D01*
X489606Y365044D01*
X489107Y364546D01*
X488838Y363895D01*
Y363190D01*
X489107Y362539D01*
X488939Y362000D01*
X488752Y361813D01*
X488482Y361162D01*
Y360457D01*
X488752Y359806D01*
X489250Y359308D01*
X489901Y359038D01*
X490606D01*
X491257Y359308D01*
X491756Y359806D01*
X492025Y360457D01*
Y361162D01*
X491756Y361813D01*
X491924Y362352D01*
X492111Y362539D01*
X492381Y363190D01*
Y363895D01*
X492111Y364546D01*
X491613Y365044D01*
X490962Y365314D01*
D02*
G37*
G36*
X472935Y361807D02*
X472230D01*
X471579Y361538D01*
X471080Y361039D01*
X470811Y360388D01*
Y359683D01*
X471080Y359032D01*
X471382Y358730D01*
X470939Y358287D01*
X470669Y357636D01*
Y356931D01*
X470939Y356280D01*
X471437Y355782D01*
X472088Y355512D01*
X472793D01*
X473445Y355782D01*
X473943Y356280D01*
X474213Y356931D01*
Y357636D01*
X473943Y358287D01*
X473641Y358589D01*
X474084Y359032D01*
X474354Y359683D01*
Y360388D01*
X474084Y361039D01*
X473586Y361538D01*
X472935Y361807D01*
D02*
G37*
G36*
X542510Y362008D02*
X541269D01*
X540052Y361766D01*
X538906Y361291D01*
X537874Y360601D01*
X536997Y359724D01*
X536307Y358692D01*
X535833Y357546D01*
X535591Y356329D01*
Y355088D01*
X535833Y353871D01*
X536307Y352725D01*
X536997Y351693D01*
X537874Y350816D01*
X538906Y350126D01*
X540052Y349652D01*
X541269Y349409D01*
X542510D01*
X543727Y349652D01*
X544874Y350126D01*
X545905Y350816D01*
X546783Y351693D01*
X547472Y352725D01*
X547947Y353871D01*
X548189Y355088D01*
Y356329D01*
X547947Y357546D01*
X547472Y358692D01*
X546783Y359724D01*
X545905Y360601D01*
X544874Y361291D01*
X543727Y361766D01*
X542510Y362008D01*
D02*
G37*
G36*
X491631Y354173D02*
X490927D01*
X490275Y353903D01*
X489777Y353404D01*
X489507Y352753D01*
Y352048D01*
X489777Y351397D01*
X490203Y350971D01*
X490201Y350960D01*
X489702Y350462D01*
X489433Y349811D01*
Y349106D01*
X489702Y348455D01*
X490201Y347957D01*
X490852Y347687D01*
X491557D01*
X492208Y347957D01*
X492706Y348455D01*
X492976Y349106D01*
Y349811D01*
X492706Y350462D01*
X492280Y350888D01*
X492282Y350899D01*
X492781Y351397D01*
X493050Y352048D01*
Y352753D01*
X492781Y353404D01*
X492282Y353903D01*
X491631Y354173D01*
D02*
G37*
G36*
X472501Y345211D02*
X471796D01*
X471145Y344941D01*
X470647Y344443D01*
X470377Y343791D01*
Y343087D01*
X470647Y342436D01*
X471145Y341937D01*
X471796Y341667D01*
X472501D01*
X473152Y341937D01*
X473651Y342436D01*
X473920Y343087D01*
Y343791D01*
X473651Y344443D01*
X473152Y344941D01*
X472501Y345211D01*
D02*
G37*
G36*
X480522Y348218D02*
X479817D01*
X479166Y347948D01*
X478667Y347450D01*
X478398Y346798D01*
Y346094D01*
X478667Y345443D01*
X479166Y344944D01*
X479255Y344497D01*
X479155Y344396D01*
X478885Y343745D01*
Y343040D01*
X479155Y342389D01*
X479653Y341891D01*
X480304Y341621D01*
X481009D01*
X481660Y341891D01*
X482159Y342389D01*
X482428Y343040D01*
Y343745D01*
X482159Y344396D01*
X481660Y344895D01*
X481571Y345342D01*
X481671Y345443D01*
X481941Y346094D01*
Y346798D01*
X481671Y347450D01*
X481173Y347948D01*
X480522Y348218D01*
D02*
G37*
G36*
X221218Y344476D02*
X220514D01*
X219863Y344207D01*
X219364Y343708D01*
X219094Y343057D01*
Y342352D01*
X219364Y341701D01*
X219863Y341203D01*
X220514Y340933D01*
X221218D01*
X221870Y341203D01*
X222368Y341701D01*
X222638Y342352D01*
Y343057D01*
X222368Y343708D01*
X221870Y344207D01*
X221218Y344476D01*
D02*
G37*
G36*
X494640Y338996D02*
X493935D01*
X493284Y338726D01*
X492785Y338228D01*
X492516Y337577D01*
Y336872D01*
X492785Y336221D01*
X493284Y335722D01*
X493935Y335453D01*
X494640D01*
X495291Y335722D01*
X495789Y336221D01*
X496059Y336872D01*
Y337577D01*
X495789Y338228D01*
X495291Y338726D01*
X494640Y338996D01*
D02*
G37*
G36*
X471833Y339834D02*
X471129D01*
X470477Y339564D01*
X469979Y339066D01*
X469709Y338415D01*
Y337710D01*
X469979Y337059D01*
X470477Y336560D01*
X470542Y336236D01*
X470349Y336043D01*
X470079Y335392D01*
Y334687D01*
X470349Y334036D01*
X470847Y333537D01*
X471498Y333268D01*
X472203D01*
X472854Y333537D01*
X473352Y334036D01*
X473622Y334687D01*
Y335392D01*
X473352Y336043D01*
X472854Y336541D01*
X472789Y336865D01*
X472983Y337059D01*
X473253Y337710D01*
Y338415D01*
X472983Y339066D01*
X472485Y339564D01*
X471833Y339834D01*
D02*
G37*
G36*
X434801Y334449D02*
X434096D01*
X433445Y334179D01*
X432947Y333681D01*
X432677Y333030D01*
Y332325D01*
X432947Y331674D01*
X433445Y331175D01*
X434096Y330906D01*
X434801D01*
X435452Y331175D01*
X435951Y331674D01*
X436221Y332325D01*
Y333030D01*
X435951Y333681D01*
X435452Y334179D01*
X434801Y334449D01*
D02*
G37*
G36*
X472591Y331698D02*
X471886D01*
X471235Y331429D01*
X470737Y330930D01*
X470467Y330279D01*
Y329574D01*
X470737Y328923D01*
X471235Y328425D01*
X471886Y328155D01*
X472591D01*
X473242Y328425D01*
X473740Y328923D01*
X474010Y329574D01*
Y330279D01*
X473740Y330930D01*
X473242Y331429D01*
X472591Y331698D01*
D02*
G37*
G36*
X512262Y326673D02*
X511557D01*
X510906Y326403D01*
X510407Y325905D01*
X510138Y325254D01*
Y324549D01*
X510407Y323898D01*
X510906Y323400D01*
X511557Y323130D01*
X512262D01*
X512913Y323400D01*
X513411Y323898D01*
X513681Y324549D01*
Y325254D01*
X513411Y325905D01*
X512913Y326403D01*
X512262Y326673D01*
D02*
G37*
G36*
X477518Y325689D02*
X476813D01*
X476162Y325419D01*
X475663Y324921D01*
X475394Y324270D01*
Y323565D01*
X475663Y322914D01*
X476162Y322415D01*
X476813Y322146D01*
X477518D01*
X478169Y322415D01*
X478667Y322914D01*
X478937Y323565D01*
Y324270D01*
X478667Y324921D01*
X478169Y325419D01*
X477518Y325689D01*
D02*
G37*
G36*
X519038Y322794D02*
X518333D01*
X517682Y322525D01*
X517184Y322026D01*
X516914Y321375D01*
Y320670D01*
X517184Y320019D01*
X517682Y319521D01*
X518333Y319251D01*
X519038D01*
X519689Y319521D01*
X520188Y320019D01*
X520457Y320670D01*
Y321375D01*
X520188Y322026D01*
X519689Y322525D01*
X519038Y322794D01*
D02*
G37*
G36*
X480372Y321555D02*
X479667D01*
X479016Y321285D01*
X478518Y320787D01*
X478248Y320136D01*
Y319431D01*
X478518Y318780D01*
X479016Y318282D01*
X479667Y318012D01*
X480372D01*
X481023Y318282D01*
X481522Y318780D01*
X481791Y319431D01*
Y320136D01*
X481522Y320787D01*
X481023Y321285D01*
X480372Y321555D01*
D02*
G37*
G36*
X542510Y330315D02*
X541269D01*
X540052Y330073D01*
X538906Y329598D01*
X537874Y328908D01*
X536997Y328031D01*
X536307Y326999D01*
X535833Y325853D01*
X535591Y324636D01*
Y323395D01*
X535833Y322178D01*
X536307Y321032D01*
X536997Y320000D01*
X537874Y319123D01*
X538906Y318433D01*
X540052Y317958D01*
X541269Y317716D01*
X542510D01*
X543727Y317958D01*
X544874Y318433D01*
X545905Y319123D01*
X546783Y320000D01*
X547472Y321032D01*
X547947Y322178D01*
X548189Y323395D01*
Y324636D01*
X547947Y325853D01*
X547472Y326999D01*
X546783Y328031D01*
X545905Y328908D01*
X544874Y329598D01*
X543727Y330073D01*
X542510Y330315D01*
D02*
G37*
G36*
X489034Y325000D02*
X488329D01*
X487677Y324730D01*
X487179Y324232D01*
X486909Y323581D01*
Y322876D01*
X487179Y322225D01*
X487677Y321726D01*
X488329Y321457D01*
X488662D01*
X488761Y320957D01*
X488367Y320793D01*
X487868Y320295D01*
X487598Y319644D01*
Y318939D01*
X487868Y318288D01*
X488367Y317789D01*
X489018Y317520D01*
X489302D01*
X489726Y317482D01*
X489764Y317058D01*
Y316774D01*
X490033Y316122D01*
X490532Y315624D01*
X491183Y315354D01*
X491888D01*
X492539Y315624D01*
X493037Y316122D01*
X493307Y316774D01*
Y317478D01*
X493037Y318129D01*
X492539Y318628D01*
X491888Y318898D01*
X491604D01*
X491180Y318936D01*
X491142Y319360D01*
Y319644D01*
X490872Y320295D01*
X490374Y320793D01*
X489722Y321063D01*
X489390D01*
X489290Y321563D01*
X489685Y321726D01*
X490183Y322225D01*
X490453Y322876D01*
Y323581D01*
X490183Y324232D01*
X489685Y324730D01*
X489034Y325000D01*
D02*
G37*
G36*
X514919Y318504D02*
X514215D01*
X513563Y318234D01*
X513065Y317736D01*
X512795Y317085D01*
Y316380D01*
X513065Y315729D01*
X513563Y315230D01*
X514215Y314961D01*
X514919D01*
X515570Y315230D01*
X516069Y315729D01*
X516339Y316380D01*
Y317085D01*
X516069Y317736D01*
X515570Y318234D01*
X514919Y318504D01*
D02*
G37*
G36*
X483522Y316043D02*
X482817D01*
X482166Y315774D01*
X481667Y315275D01*
X481398Y314624D01*
Y313919D01*
X481667Y313268D01*
X482166Y312770D01*
X482817Y312500D01*
X483522D01*
X484173Y312770D01*
X484671Y313268D01*
X484941Y313919D01*
Y314624D01*
X484671Y315275D01*
X484173Y315774D01*
X483522Y316043D01*
D02*
G37*
G36*
X440805Y315453D02*
X440100D01*
X439449Y315183D01*
X438951Y314685D01*
X438681Y314034D01*
Y313329D01*
X438951Y312678D01*
X439449Y312179D01*
X440100Y311910D01*
X440805D01*
X441456Y312179D01*
X441955Y312678D01*
X442224Y313329D01*
Y314034D01*
X441955Y314685D01*
X441456Y315183D01*
X440805Y315453D01*
D02*
G37*
G36*
X440989Y303607D02*
X440284D01*
X439633Y303337D01*
X439135Y302838D01*
X438865Y302187D01*
Y301483D01*
X439135Y300831D01*
X439633Y300333D01*
X440284Y300063D01*
X440989D01*
X441640Y300333D01*
X442139Y300831D01*
X442409Y301483D01*
Y302187D01*
X442139Y302838D01*
X441640Y303337D01*
X440989Y303607D01*
D02*
G37*
G36*
X542510Y312008D02*
X541269D01*
X540052Y311766D01*
X538906Y311291D01*
X537874Y310601D01*
X536997Y309724D01*
X536307Y308692D01*
X535833Y307546D01*
X535591Y306329D01*
Y305088D01*
X535833Y303871D01*
X536307Y302725D01*
X536997Y301693D01*
X537874Y300816D01*
X538906Y300126D01*
X540052Y299652D01*
X541269Y299409D01*
X542510D01*
X543727Y299652D01*
X544874Y300126D01*
X545905Y300816D01*
X546783Y301693D01*
X547472Y302725D01*
X547947Y303871D01*
X548189Y305088D01*
Y306329D01*
X547947Y307546D01*
X547472Y308692D01*
X546783Y309724D01*
X545905Y310601D01*
X544874Y311291D01*
X543727Y311766D01*
X542510Y312008D01*
D02*
G37*
G36*
X457476Y299256D02*
X456772D01*
X456120Y298987D01*
X455622Y298488D01*
X455352Y297837D01*
Y297132D01*
X455622Y296481D01*
X456120Y295983D01*
X456772Y295713D01*
X457476D01*
X458128Y295983D01*
X458626Y296481D01*
X458896Y297132D01*
Y297837D01*
X458626Y298488D01*
X458128Y298987D01*
X457476Y299256D01*
D02*
G37*
G36*
X378867Y312008D02*
X377039D01*
X375233Y311722D01*
X373495Y311157D01*
X371866Y310327D01*
X370387Y309253D01*
X369094Y307960D01*
X368019Y306481D01*
X367190Y304852D01*
X366625Y303113D01*
X366339Y301308D01*
Y299480D01*
X366625Y297674D01*
X367190Y295935D01*
X368019Y294307D01*
X369094Y292828D01*
X370387Y291535D01*
X371866Y290460D01*
X373495Y289630D01*
X375233Y289066D01*
X377039Y288779D01*
X378867D01*
X380672Y289066D01*
X382411Y289630D01*
X384040Y290460D01*
X385519Y291535D01*
X386811Y292828D01*
X387886Y294307D01*
X388716Y295935D01*
X389281Y297674D01*
X389567Y299480D01*
Y301308D01*
X389281Y303113D01*
X388716Y304852D01*
X387886Y306481D01*
X386811Y307960D01*
X385519Y309253D01*
X384040Y310327D01*
X382411Y311157D01*
X380672Y311722D01*
X378867Y312008D01*
D02*
G37*
G36*
X280442D02*
X278613D01*
X276808Y311722D01*
X275069Y311157D01*
X273440Y310327D01*
X271961Y309253D01*
X270669Y307960D01*
X269594Y306481D01*
X268764Y304852D01*
X268199Y303113D01*
X267913Y301308D01*
Y299480D01*
X268199Y297674D01*
X268764Y295935D01*
X269594Y294307D01*
X270669Y292828D01*
X271961Y291535D01*
X273440Y290460D01*
X275069Y289630D01*
X276808Y289066D01*
X278613Y288779D01*
X280442D01*
X282247Y289066D01*
X283986Y289630D01*
X285615Y290460D01*
X287094Y291535D01*
X288386Y292828D01*
X289461Y294307D01*
X290291Y295935D01*
X290856Y297674D01*
X291142Y299480D01*
Y301308D01*
X290856Y303113D01*
X290291Y304852D01*
X289461Y306481D01*
X288386Y307960D01*
X287094Y309253D01*
X285615Y310327D01*
X283986Y311157D01*
X282247Y311722D01*
X280442Y312008D01*
D02*
G37*
G36*
X416754Y291021D02*
X416049D01*
X415398Y290751D01*
X414899Y290253D01*
X414630Y289602D01*
Y288897D01*
X414899Y288246D01*
X415398Y287747D01*
X416049Y287477D01*
X416754D01*
X417405Y287747D01*
X417903Y288246D01*
X418173Y288897D01*
Y289602D01*
X417903Y290253D01*
X417405Y290751D01*
X416754Y291021D01*
D02*
G37*
G36*
X454123Y287245D02*
X453419D01*
X452768Y286975D01*
X452269Y286477D01*
X451999Y285825D01*
Y285121D01*
X452269Y284470D01*
X452768Y283971D01*
X453419Y283701D01*
X454123D01*
X454775Y283971D01*
X455273Y284470D01*
X455543Y285121D01*
Y285825D01*
X455273Y286477D01*
X454775Y286975D01*
X454123Y287245D01*
D02*
G37*
G36*
X332291Y285433D02*
X331586D01*
X330935Y285163D01*
X330437Y284665D01*
X330167Y284014D01*
Y283309D01*
X330437Y282658D01*
X330935Y282159D01*
X331586Y281890D01*
X332291D01*
X332942Y282159D01*
X333441Y282658D01*
X333710Y283309D01*
Y284014D01*
X333441Y284665D01*
X332942Y285163D01*
X332291Y285433D01*
D02*
G37*
G36*
X317970Y285039D02*
X317266D01*
X316615Y284770D01*
X316116Y284271D01*
X315846Y283620D01*
Y282915D01*
X316116Y282264D01*
X316615Y281766D01*
X317266Y281496D01*
X317970D01*
X318622Y281766D01*
X319120Y282264D01*
X319390Y282915D01*
Y283620D01*
X319120Y284271D01*
X318622Y284770D01*
X317970Y285039D01*
D02*
G37*
G36*
X311278Y278740D02*
X310573D01*
X309922Y278470D01*
X309423Y277972D01*
X309154Y277321D01*
Y276616D01*
X309423Y275965D01*
X309922Y275467D01*
X310573Y275197D01*
X311278D01*
X311929Y275467D01*
X312427Y275965D01*
X312697Y276616D01*
Y277321D01*
X312427Y277972D01*
X311929Y278470D01*
X311278Y278740D01*
D02*
G37*
G36*
X528164Y283313D02*
X526950D01*
X525777Y282999D01*
X524725Y282392D01*
X523866Y281533D01*
X523259Y280481D01*
X522945Y279308D01*
Y278094D01*
X523259Y276921D01*
X523866Y275869D01*
X524725Y275010D01*
X525777Y274403D01*
X526950Y274088D01*
X528164D01*
X529338Y274403D01*
X530389Y275010D01*
X531248Y275869D01*
X531855Y276921D01*
X532169Y278094D01*
Y279308D01*
X531855Y280481D01*
X531248Y281533D01*
X530389Y282392D01*
X529338Y282999D01*
X528164Y283313D01*
D02*
G37*
G36*
X488164D02*
X486950D01*
X485777Y282999D01*
X484725Y282392D01*
X483866Y281533D01*
X483259Y280481D01*
X482945Y279308D01*
Y278094D01*
X483259Y276921D01*
X483866Y275869D01*
X484725Y275010D01*
X485777Y274403D01*
X486950Y274088D01*
X488164D01*
X489337Y274403D01*
X490389Y275010D01*
X491248Y275869D01*
X491855Y276921D01*
X492170Y278094D01*
Y279308D01*
X491855Y280481D01*
X491248Y281533D01*
X490389Y282392D01*
X489337Y282999D01*
X488164Y283313D01*
D02*
G37*
G36*
X343758Y276673D02*
X343053D01*
X342402Y276404D01*
X341904Y275905D01*
X341634Y275254D01*
Y274549D01*
X341904Y273898D01*
X342402Y273400D01*
X343053Y273130D01*
X343758D01*
X344409Y273400D01*
X344907Y273898D01*
X345177Y274549D01*
Y275254D01*
X344907Y275905D01*
X344409Y276404D01*
X343758Y276673D01*
D02*
G37*
G36*
X338033Y276312D02*
X337328D01*
X336677Y276043D01*
X336179Y275544D01*
X335909Y274893D01*
Y274188D01*
X336179Y273537D01*
X336677Y273039D01*
X337328Y272769D01*
X338033D01*
X338684Y273039D01*
X339183Y273537D01*
X339453Y274188D01*
Y274893D01*
X339183Y275544D01*
X338684Y276043D01*
X338033Y276312D01*
D02*
G37*
G36*
X320369Y274016D02*
X319664D01*
X319013Y273746D01*
X318515Y273248D01*
X318245Y272597D01*
Y271892D01*
X318515Y271241D01*
X319013Y270742D01*
X319664Y270473D01*
X320369D01*
X321020Y270742D01*
X321519Y271241D01*
X321788Y271892D01*
Y272597D01*
X321519Y273248D01*
X321020Y273746D01*
X320369Y274016D01*
D02*
G37*
G36*
X325750Y274016D02*
X325046D01*
X324394Y273746D01*
X323896Y273248D01*
X323626Y272597D01*
Y271892D01*
X323896Y271241D01*
X324394Y270742D01*
X325046Y270473D01*
X325750D01*
X326402Y270742D01*
X326900Y271241D01*
X327170Y271892D01*
Y272597D01*
X326900Y273248D01*
X326402Y273746D01*
X325750Y274016D01*
D02*
G37*
G36*
X330274Y273425D02*
X329569D01*
X328918Y273155D01*
X328419Y272657D01*
X328150Y272006D01*
Y271301D01*
X328419Y270650D01*
X328918Y270152D01*
X329569Y269882D01*
X330274D01*
X330925Y270152D01*
X331423Y270650D01*
X331693Y271301D01*
Y272006D01*
X331423Y272657D01*
X330925Y273155D01*
X330274Y273425D01*
D02*
G37*
G36*
X301140Y266732D02*
X300435D01*
X299784Y266463D01*
X299286Y265964D01*
X299016Y265313D01*
Y264608D01*
X299286Y263957D01*
X299758Y263484D01*
X299581Y263307D01*
X299311Y262655D01*
Y261951D01*
X299581Y261300D01*
X300079Y260801D01*
X300730Y260531D01*
X301435D01*
X302086Y260801D01*
X302585Y261300D01*
X302854Y261951D01*
Y262655D01*
X302585Y263307D01*
X302112Y263779D01*
X302289Y263957D01*
X302559Y264608D01*
Y265313D01*
X302289Y265964D01*
X301791Y266463D01*
X301140Y266732D01*
D02*
G37*
G36*
X327616Y257185D02*
X326911D01*
X326260Y256915D01*
X325762Y256417D01*
X325492Y255766D01*
Y255061D01*
X325762Y254410D01*
X326260Y253911D01*
X326911Y253642D01*
X327616D01*
X328267Y253911D01*
X328766Y254410D01*
X329035Y255061D01*
Y255766D01*
X328766Y256417D01*
X328267Y256915D01*
X327616Y257185D01*
D02*
G37*
G36*
X320027Y251673D02*
X319322D01*
X318671Y251403D01*
X318173Y250905D01*
X317903Y250254D01*
Y249549D01*
X318173Y248898D01*
X318671Y248400D01*
X319322Y248130D01*
X320027D01*
X320678Y248400D01*
X321177Y248898D01*
X321446Y249549D01*
Y250254D01*
X321177Y250905D01*
X320678Y251403D01*
X320027Y251673D01*
D02*
G37*
G36*
X332047Y247885D02*
X331342D01*
X330691Y247616D01*
X330192Y247117D01*
X329923Y246466D01*
Y245761D01*
X330192Y245110D01*
X330691Y244612D01*
X331342Y244342D01*
X332047D01*
X332698Y244612D01*
X333196Y245110D01*
X333466Y245761D01*
Y246466D01*
X333196Y247117D01*
X332698Y247616D01*
X332047Y247885D01*
D02*
G37*
G36*
X305175Y245374D02*
X304470D01*
X303819Y245104D01*
X303321Y244606D01*
X303051Y243955D01*
Y243250D01*
X303321Y242599D01*
X303819Y242100D01*
X304470Y241831D01*
X305175D01*
X305826Y242100D01*
X306325Y242599D01*
X306594Y243250D01*
Y243955D01*
X306325Y244606D01*
X305826Y245104D01*
X305175Y245374D01*
D02*
G37*
G36*
X310293Y245374D02*
X309589D01*
X308937Y245104D01*
X308439Y244606D01*
X308169Y243955D01*
Y243250D01*
X308439Y242599D01*
X308937Y242100D01*
X309589Y241831D01*
X310293D01*
X310945Y242100D01*
X311443Y242599D01*
X311713Y243250D01*
Y243955D01*
X311443Y244606D01*
X310945Y245104D01*
X310293Y245374D01*
D02*
G37*
G36*
X226337Y233148D02*
X225632D01*
X224981Y232878D01*
X224482Y232380D01*
X224213Y231729D01*
Y231024D01*
X224482Y230373D01*
X224981Y229874D01*
X225632Y229605D01*
X226337D01*
X226988Y229874D01*
X227486Y230373D01*
X227756Y231024D01*
Y231729D01*
X227486Y232380D01*
X226988Y232878D01*
X226337Y233148D01*
D02*
G37*
G36*
X321120Y210335D02*
X320415D01*
X319764Y210065D01*
X319266Y209567D01*
X318996Y208915D01*
Y208211D01*
X319266Y207559D01*
X319764Y207061D01*
X320415Y206791D01*
X321120D01*
X321771Y207061D01*
X322270Y207559D01*
X322539Y208211D01*
Y208915D01*
X322270Y209567D01*
X321771Y210065D01*
X321120Y210335D01*
D02*
G37*
G36*
X314034Y209154D02*
X313329D01*
X312678Y208884D01*
X312179Y208385D01*
X311910Y207734D01*
Y207030D01*
X312022Y206757D01*
X311938Y206181D01*
X311440Y205682D01*
X311170Y205031D01*
Y204327D01*
X311440Y203675D01*
X311938Y203177D01*
X312590Y202907D01*
X313294D01*
X313946Y203177D01*
X314444Y203675D01*
X314714Y204327D01*
Y205031D01*
X314601Y205304D01*
X314685Y205880D01*
X315183Y206378D01*
X315453Y207030D01*
Y207734D01*
X315183Y208385D01*
X314685Y208884D01*
X314034Y209154D01*
D02*
G37*
G36*
X296562Y211600D02*
X295857D01*
X295206Y211330D01*
X294708Y210831D01*
X294438Y210180D01*
Y209475D01*
X294708Y208824D01*
X295130Y208402D01*
X295205Y208315D01*
X295178Y207797D01*
X294935Y207554D01*
X294665Y206903D01*
Y206198D01*
X294935Y205547D01*
X295433Y205048D01*
X295556Y204998D01*
Y204456D01*
X295552Y204455D01*
X295053Y203956D01*
X294783Y203305D01*
Y202600D01*
X295053Y201949D01*
X295552Y201451D01*
X296203Y201181D01*
X296907D01*
X297559Y201451D01*
X298057Y201949D01*
X298327Y202600D01*
Y203305D01*
X298057Y203956D01*
X297559Y204455D01*
X297436Y204505D01*
Y205047D01*
X297441Y205048D01*
X297939Y205547D01*
X298209Y206198D01*
Y206903D01*
X297939Y207554D01*
X297517Y207976D01*
X297441Y208063D01*
X297469Y208582D01*
X297712Y208824D01*
X297981Y209475D01*
Y210180D01*
X297712Y210831D01*
X297213Y211330D01*
X296562Y211600D01*
D02*
G37*
G36*
X312429Y202120D02*
X311724D01*
X311073Y201850D01*
X310574Y201352D01*
X310305Y200701D01*
Y199996D01*
X310574Y199345D01*
X311073Y198846D01*
X311724Y198577D01*
X312429D01*
X313080Y198846D01*
X313578Y199345D01*
X313848Y199996D01*
Y200701D01*
X313578Y201352D01*
X313080Y201850D01*
X312429Y202120D01*
D02*
G37*
G36*
X305175Y202067D02*
X304470D01*
X303819Y201797D01*
X303321Y201299D01*
X303051Y200647D01*
Y199943D01*
X303321Y199292D01*
X303819Y198793D01*
X304470Y198523D01*
X305175D01*
X305826Y198793D01*
X306325Y199292D01*
X306594Y199943D01*
Y200647D01*
X306325Y201299D01*
X305826Y201797D01*
X305175Y202067D01*
D02*
G37*
G36*
X295537Y198364D02*
X294832D01*
X294181Y198094D01*
X293682Y197596D01*
X293413Y196945D01*
Y196240D01*
X293682Y195589D01*
X294181Y195090D01*
X294832Y194820D01*
X295537D01*
X296188Y195090D01*
X296686Y195589D01*
X296956Y196240D01*
Y196945D01*
X296686Y197596D01*
X296188Y198094D01*
X295537Y198364D01*
D02*
G37*
G36*
X319084Y201673D02*
X318379D01*
X317728Y201403D01*
X317230Y200905D01*
X316960Y200254D01*
Y199549D01*
X317230Y198898D01*
X317728Y198400D01*
X317936Y198314D01*
X318053Y197724D01*
X317888Y197559D01*
X317618Y196907D01*
Y196203D01*
X317888Y195552D01*
X318386Y195053D01*
X319038Y194783D01*
X319742D01*
X320393Y195053D01*
X320892Y195552D01*
X321162Y196203D01*
Y196907D01*
X320892Y197559D01*
X320393Y198057D01*
X320186Y198143D01*
X320069Y198733D01*
X320234Y198898D01*
X320503Y199549D01*
Y200254D01*
X320234Y200905D01*
X319735Y201403D01*
X319084Y201673D01*
D02*
G37*
G36*
X222203Y197933D02*
X221498D01*
X220847Y197663D01*
X220349Y197165D01*
X220079Y196514D01*
Y195809D01*
X220349Y195158D01*
X220847Y194659D01*
X221498Y194390D01*
X222203D01*
X222854Y194659D01*
X223352Y195158D01*
X223622Y195809D01*
Y196514D01*
X223352Y197165D01*
X222854Y197663D01*
X222203Y197933D01*
D02*
G37*
G36*
X322498Y182776D02*
X321793D01*
X321142Y182506D01*
X320644Y182008D01*
X320374Y181356D01*
Y180651D01*
X320644Y180000D01*
X321142Y179502D01*
X321793Y179232D01*
X322498D01*
X323149Y179502D01*
X323648Y180000D01*
X323917Y180651D01*
Y181356D01*
X323648Y182008D01*
X323149Y182506D01*
X322498Y182776D01*
D02*
G37*
G36*
X343758Y181004D02*
X343053D01*
X342402Y180734D01*
X341904Y180236D01*
X341634Y179585D01*
Y178880D01*
X341904Y178229D01*
X342402Y177730D01*
X343053Y177461D01*
X343758D01*
X344409Y177730D01*
X344907Y178229D01*
X345177Y178880D01*
Y179585D01*
X344907Y180236D01*
X344409Y180734D01*
X343758Y181004D01*
D02*
G37*
G36*
X337852D02*
X337148D01*
X336496Y180734D01*
X335998Y180236D01*
X335728Y179585D01*
Y178880D01*
X335998Y178229D01*
X336496Y177730D01*
X337148Y177461D01*
X337852D01*
X338504Y177730D01*
X339002Y178229D01*
X339272Y178880D01*
Y179585D01*
X339002Y180236D01*
X338504Y180734D01*
X337852Y181004D01*
D02*
G37*
G36*
X302715Y180051D02*
X302010D01*
X301359Y179781D01*
X300860Y179282D01*
X300590Y178631D01*
Y177927D01*
X300860Y177275D01*
X301359Y176777D01*
X302010Y176507D01*
X302715D01*
X303366Y176777D01*
X303864Y177275D01*
X304134Y177927D01*
Y178631D01*
X303864Y179282D01*
X303366Y179781D01*
X302715Y180051D01*
D02*
G37*
G36*
X323926Y176340D02*
X323221D01*
X322570Y176071D01*
X322072Y175572D01*
X321802Y174921D01*
Y174216D01*
X322072Y173565D01*
X322570Y173067D01*
X323221Y172797D01*
X323926D01*
X324577Y173067D01*
X325075Y173565D01*
X325345Y174216D01*
Y174921D01*
X325075Y175572D01*
X324577Y176071D01*
X323926Y176340D01*
D02*
G37*
G36*
X328588Y175702D02*
X327883D01*
X327232Y175432D01*
X326733Y174934D01*
X326464Y174283D01*
Y173578D01*
X326733Y172926D01*
X327232Y172428D01*
X327883Y172158D01*
X328588D01*
X329239Y172428D01*
X329737Y172926D01*
X330007Y173578D01*
Y174283D01*
X329737Y174934D01*
X329239Y175432D01*
X328588Y175702D01*
D02*
G37*
G36*
X311877Y171654D02*
X311172D01*
X310521Y171384D01*
X310022Y170886D01*
X309752Y170234D01*
Y169530D01*
X310022Y168878D01*
X310521Y168380D01*
X311172Y168110D01*
X311877D01*
X312528Y168380D01*
X313026Y168878D01*
X313296Y169530D01*
Y170234D01*
X313026Y170886D01*
X312528Y171384D01*
X311877Y171654D01*
D02*
G37*
G36*
X306849Y171653D02*
X306144D01*
X305492Y171384D01*
X304994Y170885D01*
X304724Y170234D01*
Y169529D01*
X304994Y168878D01*
X305492Y168380D01*
X306144Y168110D01*
X306849D01*
X307500Y168380D01*
X307998Y168878D01*
X308268Y169529D01*
Y170234D01*
X307998Y170885D01*
X307500Y171384D01*
X306849Y171653D01*
D02*
G37*
G36*
X297203Y168110D02*
X296498D01*
X295847Y167841D01*
X295349Y167342D01*
X295079Y166691D01*
Y165986D01*
X295349Y165335D01*
X295847Y164837D01*
X296498Y164567D01*
X297203D01*
X297854Y164837D01*
X298352Y165335D01*
X298622Y165986D01*
Y166691D01*
X298352Y167342D01*
X297854Y167841D01*
X297203Y168110D01*
D02*
G37*
G36*
X328622Y167095D02*
X327917D01*
X327266Y166825D01*
X326768Y166326D01*
X326498Y165675D01*
Y164971D01*
X326768Y164319D01*
X327266Y163821D01*
X327917Y163551D01*
X328622D01*
X329273Y163821D01*
X329772Y164319D01*
X330042Y164971D01*
Y165675D01*
X329772Y166326D01*
X329273Y166825D01*
X328622Y167095D01*
D02*
G37*
G36*
X297892Y163386D02*
X297187D01*
X296536Y163116D01*
X296037Y162618D01*
X295768Y161967D01*
Y161262D01*
X296037Y160611D01*
X296536Y160112D01*
X297187Y159843D01*
X297892D01*
X298543Y160112D01*
X299041Y160611D01*
X299311Y161262D01*
Y161967D01*
X299041Y162618D01*
X298543Y163116D01*
X297892Y163386D01*
D02*
G37*
G36*
X319939Y160531D02*
X319234D01*
X318583Y160262D01*
X318085Y159763D01*
X317815Y159112D01*
Y158407D01*
X318085Y157756D01*
X318583Y157258D01*
X319234Y156988D01*
X319939D01*
X320590Y157258D01*
X321089Y157756D01*
X321358Y158407D01*
Y159112D01*
X321089Y159763D01*
X320590Y160262D01*
X319939Y160531D01*
D02*
G37*
G36*
X312411Y160286D02*
X311706D01*
X311055Y160016D01*
X310557Y159518D01*
X310287Y158867D01*
Y158162D01*
X310557Y157511D01*
X311055Y157012D01*
X311706Y156743D01*
X312411D01*
X313062Y157012D01*
X313561Y157511D01*
X313830Y158162D01*
Y158867D01*
X313561Y159518D01*
X313062Y160016D01*
X312411Y160286D01*
D02*
G37*
G36*
X307576Y160132D02*
X306871D01*
X306220Y159862D01*
X305721Y159363D01*
X305452Y158712D01*
Y158008D01*
X305721Y157356D01*
X306220Y156858D01*
X306871Y156588D01*
X307576D01*
X308227Y156858D01*
X308725Y157356D01*
X308995Y158008D01*
Y158712D01*
X308725Y159363D01*
X308227Y159862D01*
X307576Y160132D01*
D02*
G37*
G36*
X302518Y159941D02*
X301813D01*
X301162Y159671D01*
X300663Y159173D01*
X300394Y158522D01*
Y157817D01*
X300663Y157166D01*
X301162Y156667D01*
X301813Y156398D01*
X302518D01*
X303169Y156667D01*
X303667Y157166D01*
X303937Y157817D01*
Y158522D01*
X303667Y159173D01*
X303169Y159671D01*
X302518Y159941D01*
D02*
G37*
G36*
X331803Y157208D02*
X331099D01*
X330448Y156938D01*
X329949Y156440D01*
X329679Y155789D01*
Y155084D01*
X329949Y154433D01*
X330448Y153934D01*
X331099Y153665D01*
X331803D01*
X332455Y153934D01*
X332953Y154433D01*
X333223Y155084D01*
Y155789D01*
X332953Y156440D01*
X332455Y156938D01*
X331803Y157208D01*
D02*
G37*
G36*
X309900Y153248D02*
X309195D01*
X308544Y152978D01*
X308045Y152480D01*
X307776Y151829D01*
Y151124D01*
X308045Y150473D01*
X308544Y149975D01*
X309195Y149705D01*
X309900D01*
X310551Y149975D01*
X311049Y150473D01*
X311319Y151124D01*
Y151829D01*
X311049Y152480D01*
X310551Y152978D01*
X309900Y153248D01*
D02*
G37*
G36*
X304880Y153051D02*
X304175D01*
X303524Y152781D01*
X303026Y152283D01*
X302756Y151632D01*
Y150927D01*
X303026Y150276D01*
X303524Y149777D01*
X304175Y149508D01*
X304880D01*
X305531Y149777D01*
X306030Y150276D01*
X306299Y150927D01*
Y151632D01*
X306030Y152283D01*
X305531Y152781D01*
X304880Y153051D01*
D02*
G37*
G36*
X320954Y115649D02*
X320249D01*
X319598Y115380D01*
X319100Y114882D01*
X318830Y114230D01*
Y113525D01*
X319100Y112874D01*
X319598Y112376D01*
X320249Y112106D01*
X320954D01*
X321605Y112376D01*
X322104Y112874D01*
X322374Y113525D01*
Y114230D01*
X322104Y114882D01*
X321605Y115380D01*
X320954Y115649D01*
D02*
G37*
G36*
X314526Y117652D02*
X313821D01*
X313170Y117383D01*
X312671Y116884D01*
X312402Y116233D01*
Y115529D01*
X312532Y115213D01*
X312574Y114750D01*
X312365Y114477D01*
X312081Y114193D01*
X311811Y113541D01*
Y112837D01*
X312081Y112185D01*
X312579Y111687D01*
X313230Y111417D01*
X313935D01*
X314586Y111687D01*
X315085Y112185D01*
X315354Y112837D01*
Y113541D01*
X315224Y113857D01*
X315182Y114320D01*
X315391Y114593D01*
X315675Y114877D01*
X315945Y115529D01*
Y116233D01*
X315675Y116884D01*
X315177Y117383D01*
X314526Y117652D01*
D02*
G37*
G36*
X297301Y118898D02*
X296596D01*
X295945Y118628D01*
X295447Y118130D01*
X295177Y117478D01*
Y116774D01*
X295018Y116535D01*
X294925D01*
X294274Y116266D01*
X293776Y115767D01*
X293506Y115116D01*
Y114411D01*
X293776Y113760D01*
X294274Y113262D01*
X294925Y112992D01*
X295508D01*
X295726Y112633D01*
X295753Y112530D01*
X295447Y112224D01*
X295177Y111573D01*
Y110868D01*
X295447Y110217D01*
X295945Y109719D01*
X296596Y109449D01*
X297301D01*
X297952Y109719D01*
X298451Y110217D01*
X298721Y110868D01*
Y111573D01*
X298451Y112224D01*
X297952Y112722D01*
X297301Y112992D01*
X296719D01*
X296501Y113351D01*
X296474Y113454D01*
X296780Y113760D01*
X297050Y114411D01*
Y115116D01*
X297209Y115354D01*
X297301D01*
X297952Y115624D01*
X298451Y116122D01*
X298721Y116774D01*
Y117478D01*
X298451Y118130D01*
X297952Y118628D01*
X297301Y118898D01*
D02*
G37*
G36*
X306553Y111024D02*
X305848D01*
X305197Y110754D01*
X304699Y110256D01*
X304429Y109604D01*
Y109387D01*
X304429Y109246D01*
X303943Y109214D01*
X303885Y109354D01*
X303673Y109865D01*
X303174Y110363D01*
X302523Y110633D01*
X301819D01*
X301167Y110363D01*
X300669Y109865D01*
X300399Y109214D01*
Y108509D01*
X300669Y107858D01*
X301167Y107359D01*
X301819Y107090D01*
X302523D01*
X303174Y107359D01*
X303673Y107858D01*
X303943Y108509D01*
Y108726D01*
X303943Y108867D01*
X304429Y108899D01*
X304487Y108759D01*
X304699Y108248D01*
X305197Y107750D01*
X305848Y107480D01*
X306553D01*
X307204Y107750D01*
X307703Y108248D01*
X307972Y108900D01*
Y109604D01*
X307703Y110256D01*
X307204Y110754D01*
X306553Y111024D01*
D02*
G37*
G36*
X313159Y110630D02*
X312454D01*
X311803Y110360D01*
X311304Y109862D01*
X311035Y109211D01*
Y108506D01*
X311304Y107855D01*
X311803Y107356D01*
X312454Y107087D01*
X313159D01*
X313810Y107356D01*
X314308Y107855D01*
X314578Y108506D01*
Y109211D01*
X314308Y109862D01*
X313810Y110360D01*
X313159Y110630D01*
D02*
G37*
G36*
X321093Y110263D02*
X320389D01*
X319737Y109993D01*
X319239Y109495D01*
X318969Y108844D01*
Y108139D01*
X319239Y107488D01*
X319737Y106989D01*
X320389Y106720D01*
X321093D01*
X321744Y106989D01*
X322243Y107488D01*
X322513Y108139D01*
Y108844D01*
X322243Y109495D01*
X321744Y109993D01*
X321093Y110263D01*
D02*
G37*
G36*
X322487Y92788D02*
X321782D01*
X321131Y92519D01*
X320632Y92020D01*
X320363Y91369D01*
Y90664D01*
X320632Y90013D01*
X321131Y89515D01*
X321782Y89245D01*
X322487D01*
X323138Y89515D01*
X323636Y90013D01*
X323906Y90664D01*
Y91369D01*
X323636Y92020D01*
X323138Y92519D01*
X322487Y92788D01*
D02*
G37*
G36*
X303620Y90466D02*
X302916D01*
X302264Y90197D01*
X301766Y89698D01*
X301496Y89047D01*
Y88342D01*
X301766Y87691D01*
X302264Y87193D01*
X302916Y86923D01*
X303620D01*
X304272Y87193D01*
X304770Y87691D01*
X305040Y88342D01*
Y89047D01*
X304770Y89698D01*
X304272Y90197D01*
X303620Y90466D01*
D02*
G37*
G36*
X343659Y89075D02*
X342955D01*
X342303Y88805D01*
X341805Y88307D01*
X341535Y87656D01*
Y86951D01*
X341805Y86300D01*
X342303Y85801D01*
X342955Y85532D01*
X343659D01*
X344311Y85801D01*
X344809Y86300D01*
X345079Y86951D01*
Y87656D01*
X344809Y88307D01*
X344311Y88805D01*
X343659Y89075D01*
D02*
G37*
G36*
X338345D02*
X337640D01*
X336989Y88805D01*
X336490Y88307D01*
X336221Y87656D01*
Y86951D01*
X336490Y86300D01*
X336989Y85801D01*
X337640Y85532D01*
X338345D01*
X338996Y85801D01*
X339494Y86300D01*
X339764Y86951D01*
Y87656D01*
X339494Y88307D01*
X338996Y88805D01*
X338345Y89075D01*
D02*
G37*
G36*
X322239Y86319D02*
X321534D01*
X320883Y86049D01*
X320385Y85551D01*
X320115Y84899D01*
Y84195D01*
X320385Y83543D01*
X320883Y83045D01*
X321534Y82775D01*
X322239D01*
X322890Y83045D01*
X323389Y83543D01*
X323658Y84195D01*
Y84899D01*
X323389Y85551D01*
X322890Y86049D01*
X322239Y86319D01*
D02*
G37*
G36*
X329177Y86232D02*
X328472D01*
X327821Y85962D01*
X327323Y85464D01*
X327053Y84812D01*
Y84108D01*
X327323Y83456D01*
X327821Y82958D01*
X328472Y82688D01*
X329177D01*
X329828Y82958D01*
X330327Y83456D01*
X330596Y84108D01*
Y84812D01*
X330327Y85464D01*
X329828Y85962D01*
X329177Y86232D01*
D02*
G37*
G36*
X311278Y82185D02*
X310573D01*
X309922Y81915D01*
X309423Y81417D01*
X309154Y80766D01*
Y80061D01*
X309423Y79410D01*
X309922Y78912D01*
X310573Y78642D01*
X311278D01*
X311929Y78912D01*
X312427Y79410D01*
X312697Y80061D01*
Y80766D01*
X312427Y81417D01*
X311929Y81915D01*
X311278Y82185D01*
D02*
G37*
G36*
X307145Y82154D02*
X306440D01*
X305789Y81884D01*
X305290Y81386D01*
X305021Y80735D01*
Y80030D01*
X305290Y79379D01*
X305789Y78881D01*
X306440Y78611D01*
X307145D01*
X307796Y78881D01*
X308294Y79379D01*
X308564Y80030D01*
Y80735D01*
X308294Y81386D01*
X307796Y81884D01*
X307145Y82154D01*
D02*
G37*
G36*
X280442Y99410D02*
X278613D01*
X276808Y99124D01*
X275069Y98559D01*
X273440Y97729D01*
X271961Y96654D01*
X270669Y95361D01*
X269594Y93882D01*
X268764Y92254D01*
X268199Y90515D01*
X267913Y88709D01*
Y86881D01*
X268199Y85076D01*
X268764Y83337D01*
X269594Y81708D01*
X270669Y80229D01*
X271961Y78936D01*
X273440Y77862D01*
X275069Y77032D01*
X276808Y76467D01*
X278613Y76181D01*
X280442D01*
X282247Y76467D01*
X283986Y77032D01*
X285615Y77862D01*
X287094Y78936D01*
X288386Y80229D01*
X289461Y81708D01*
X290291Y83337D01*
X290856Y85076D01*
X291142Y86881D01*
Y88709D01*
X290856Y90515D01*
X290291Y92254D01*
X289461Y93882D01*
X288386Y95361D01*
X287094Y96654D01*
X285615Y97729D01*
X283986Y98559D01*
X282247Y99124D01*
X280442Y99410D01*
D02*
G37*
G36*
X328534Y76829D02*
X327829D01*
X327178Y76559D01*
X326680Y76061D01*
X326410Y75410D01*
Y74705D01*
X326680Y74054D01*
X327178Y73555D01*
X327829Y73286D01*
X328534D01*
X329185Y73555D01*
X329684Y74054D01*
X329953Y74705D01*
Y75410D01*
X329684Y76061D01*
X329185Y76559D01*
X328534Y76829D01*
D02*
G37*
G36*
X298042Y74639D02*
X297337D01*
X296686Y74369D01*
X296187Y73870D01*
X295918Y73219D01*
Y72515D01*
X296187Y71863D01*
X296686Y71365D01*
X297337Y71095D01*
X298042D01*
X298693Y71365D01*
X299191Y71863D01*
X299461Y72515D01*
Y73219D01*
X299191Y73870D01*
X298693Y74369D01*
X298042Y74639D01*
D02*
G37*
G36*
X320011Y70768D02*
X319306D01*
X318655Y70498D01*
X318156Y70000D01*
X317887Y69349D01*
Y68644D01*
X318156Y67993D01*
X318655Y67494D01*
X319306Y67224D01*
X320011D01*
X320662Y67494D01*
X321160Y67993D01*
X321430Y68644D01*
Y69349D01*
X321160Y70000D01*
X320662Y70498D01*
X320011Y70768D01*
D02*
G37*
G36*
X307585Y69211D02*
X306881D01*
X306229Y68942D01*
X305731Y68443D01*
X305461Y67792D01*
Y67087D01*
X305731Y66436D01*
X306229Y65938D01*
X306881Y65668D01*
X307585D01*
X308237Y65938D01*
X308735Y66436D01*
X309005Y67087D01*
Y67792D01*
X308735Y68443D01*
X308237Y68942D01*
X307585Y69211D01*
D02*
G37*
G36*
X312655Y69193D02*
X311951D01*
X311300Y68923D01*
X310801Y68425D01*
X310531Y67774D01*
Y67069D01*
X310801Y66418D01*
X311300Y65919D01*
X311951Y65650D01*
X312655D01*
X313307Y65919D01*
X313805Y66418D01*
X314075Y67069D01*
Y67774D01*
X313805Y68425D01*
X313307Y68923D01*
X312655Y69193D01*
D02*
G37*
G36*
X302419Y68996D02*
X301714D01*
X301063Y68726D01*
X300565Y68228D01*
X300295Y67577D01*
Y66872D01*
X300565Y66221D01*
X301063Y65723D01*
X301714Y65453D01*
X302419D01*
X303070Y65723D01*
X303569Y66221D01*
X303839Y66872D01*
Y67577D01*
X303569Y68228D01*
X303070Y68726D01*
X302419Y68996D01*
D02*
G37*
G36*
X331675Y66965D02*
X330970D01*
X330319Y66695D01*
X329821Y66197D01*
X329551Y65546D01*
Y64841D01*
X329821Y64190D01*
X330319Y63692D01*
X330970Y63422D01*
X331675D01*
X332326Y63692D01*
X332824Y64190D01*
X333094Y64841D01*
Y65546D01*
X332824Y66197D01*
X332326Y66695D01*
X331675Y66965D01*
D02*
G37*
G36*
X309801Y63583D02*
X309096D01*
X308445Y63313D01*
X307947Y62814D01*
X307677Y62163D01*
Y61458D01*
X307947Y60807D01*
X308445Y60309D01*
X309096Y60039D01*
X309801D01*
X310452Y60309D01*
X310951Y60807D01*
X311221Y61458D01*
Y62163D01*
X310951Y62814D01*
X310452Y63313D01*
X309801Y63583D01*
D02*
G37*
G36*
X305077D02*
X304372D01*
X303721Y63313D01*
X303222Y62814D01*
X302953Y62163D01*
Y61458D01*
X303222Y60807D01*
X303721Y60309D01*
X304372Y60039D01*
X305077D01*
X305728Y60309D01*
X306226Y60807D01*
X306496Y61458D01*
Y62163D01*
X306226Y62814D01*
X305728Y63313D01*
X305077Y63583D01*
D02*
G37*
G36*
X321317Y29626D02*
X320612D01*
X319961Y29356D01*
X319463Y28858D01*
X319193Y28207D01*
Y27502D01*
X319463Y26851D01*
X319961Y26352D01*
X320612Y26083D01*
X321317D01*
X321968Y26352D01*
X322467Y26851D01*
X322736Y27502D01*
Y28207D01*
X322467Y28858D01*
X321968Y29356D01*
X321317Y29626D01*
D02*
G37*
G36*
X314530Y26528D02*
X313825D01*
X313174Y26258D01*
X312676Y25760D01*
X312422Y25147D01*
X312065Y25295D01*
X311360D01*
X310709Y25025D01*
X310211Y24527D01*
X309941Y23876D01*
Y23171D01*
X310211Y22520D01*
X310709Y22022D01*
X311360Y21752D01*
X312065D01*
X312716Y22022D01*
X313215Y22520D01*
X313468Y23132D01*
X313825Y22985D01*
X314530D01*
X315181Y23254D01*
X315680Y23753D01*
X315949Y24404D01*
Y25109D01*
X315680Y25760D01*
X315181Y26258D01*
X314530Y26528D01*
D02*
G37*
G36*
X321317Y23720D02*
X320612D01*
X319961Y23451D01*
X319463Y22952D01*
X319193Y22301D01*
Y21596D01*
X319463Y20945D01*
X319961Y20447D01*
X320612Y20177D01*
X321317D01*
X321968Y20447D01*
X322467Y20945D01*
X322736Y21596D01*
Y22301D01*
X322467Y22952D01*
X321968Y23451D01*
X321317Y23720D01*
D02*
G37*
G36*
X292973Y29426D02*
X292269D01*
X291617Y29157D01*
X291119Y28658D01*
X290849Y28007D01*
Y27302D01*
X291119Y26651D01*
X291617Y26153D01*
X292269Y25883D01*
X292596D01*
X292939Y25405D01*
Y24700D01*
X293209Y24049D01*
X293628Y23630D01*
X293543Y23254D01*
X293474Y23130D01*
X293336D01*
X292685Y22860D01*
X292186Y22362D01*
X291917Y21711D01*
Y21006D01*
X292186Y20355D01*
X292685Y19856D01*
X293336Y19587D01*
X294041D01*
X294692Y19856D01*
X295190Y20355D01*
X295460Y21006D01*
Y21711D01*
X295190Y22362D01*
X294772Y22781D01*
X294856Y23157D01*
X294925Y23281D01*
X295063D01*
X295714Y23550D01*
X296213Y24049D01*
X296482Y24700D01*
Y25405D01*
X296213Y26056D01*
X295714Y26554D01*
X295063Y26824D01*
X294736D01*
X294393Y27302D01*
Y28007D01*
X294123Y28658D01*
X293625Y29157D01*
X292973Y29426D01*
D02*
G37*
G36*
X305963Y21063D02*
X305258D01*
X304607Y20793D01*
X304108Y20295D01*
X303839Y19644D01*
Y18939D01*
X304108Y18288D01*
X304607Y17789D01*
X305258Y17520D01*
X305963D01*
X306614Y17789D01*
X307112Y18288D01*
X307382Y18939D01*
Y19644D01*
X307112Y20295D01*
X306614Y20793D01*
X305963Y21063D01*
D02*
G37*
G36*
X311770Y20965D02*
X311065D01*
X310414Y20695D01*
X309915Y20197D01*
X309646Y19545D01*
Y18841D01*
X309915Y18189D01*
X310414Y17691D01*
X311065Y17421D01*
X311770D01*
X312421Y17691D01*
X312919Y18189D01*
X313189Y18841D01*
Y19545D01*
X312919Y20197D01*
X312421Y20695D01*
X311770Y20965D01*
D02*
G37*
G36*
X233532Y20571D02*
X232806D01*
X232105Y20383D01*
X231477Y20020D01*
X230964Y19507D01*
X230601Y18879D01*
X230413Y18178D01*
Y17452D01*
X230601Y16751D01*
X230964Y16123D01*
X231477Y15610D01*
X232105Y15247D01*
X232806Y15059D01*
X233532D01*
X234233Y15247D01*
X234861Y15610D01*
X235375Y16123D01*
X235737Y16751D01*
X235925Y17452D01*
Y18178D01*
X235737Y18879D01*
X235375Y19507D01*
X234861Y20020D01*
X234233Y20383D01*
X233532Y20571D01*
D02*
G37*
G36*
X316593Y13583D02*
X315888D01*
X315237Y13313D01*
X314738Y12815D01*
X314469Y12163D01*
Y11459D01*
X314738Y10808D01*
X315237Y10309D01*
X315888Y10039D01*
X316593D01*
X317244Y10309D01*
X317742Y10808D01*
X318012Y11459D01*
Y12163D01*
X317742Y12815D01*
X317244Y13313D01*
X316593Y13583D01*
D02*
G37*
G36*
X300773Y13477D02*
X300068D01*
X299416Y13207D01*
X298918Y12709D01*
X298649Y12057D01*
Y11353D01*
X298918Y10701D01*
X299416Y10203D01*
X300068Y9933D01*
X300773D01*
X301424Y10203D01*
X301922Y10701D01*
X302192Y11353D01*
Y12057D01*
X301922Y12709D01*
X301424Y13207D01*
X300773Y13477D01*
D02*
G37*
G36*
X413635Y197677D02*
X412931D01*
X412280Y197407D01*
X411781Y196909D01*
X411511Y196258D01*
Y195553D01*
X411781Y194902D01*
X412280Y194404D01*
X412931Y194134D01*
X413635D01*
X414287Y194404D01*
X414785Y194902D01*
X415055Y195553D01*
Y196258D01*
X414785Y196909D01*
X414287Y197407D01*
X413635Y197677D01*
D02*
G37*
G36*
X408465Y215881D02*
X407773Y215744D01*
X407187Y215352D01*
X406796Y214766D01*
X406658Y214075D01*
X406796Y213384D01*
X407187Y212797D01*
X407773Y212406D01*
X408465Y212268D01*
X409156Y212406D01*
X409742Y212797D01*
X410133Y213384D01*
X410271Y214075D01*
X410133Y214766D01*
X409742Y215352D01*
X409156Y215744D01*
X408465Y215881D01*
D02*
G37*
G36*
X428480Y212928D02*
X427788Y212791D01*
X427202Y212399D01*
X426811Y211813D01*
X426673Y211122D01*
X426811Y210431D01*
X427202Y209845D01*
X427788Y209453D01*
X428480Y209316D01*
X429171Y209453D01*
X429757Y209845D01*
X430148Y210431D01*
X430286Y211122D01*
X430148Y211813D01*
X429757Y212399D01*
X429171Y212791D01*
X428480Y212928D01*
D02*
G37*
G36*
X414397Y209219D02*
X413706Y209082D01*
X413120Y208690D01*
X412729Y208104D01*
X412591Y207413D01*
X412729Y206721D01*
X413120Y206136D01*
X413706Y205744D01*
X414397Y205606D01*
X415089Y205744D01*
X415675Y206136D01*
X416066Y206721D01*
X416204Y207413D01*
X416066Y208104D01*
X415675Y208690D01*
X415089Y209082D01*
X414397Y209219D01*
D02*
G37*
G36*
X408359Y162899D02*
X407667Y162761D01*
X407081Y162370D01*
X406690Y161784D01*
X406552Y161092D01*
X406690Y160401D01*
X407081Y159815D01*
X407667Y159423D01*
X408359Y159286D01*
X409050Y159423D01*
X409636Y159815D01*
X410028Y160401D01*
X410165Y161092D01*
X410028Y161784D01*
X409636Y162370D01*
X409050Y162761D01*
X408359Y162899D01*
D02*
G37*
G36*
X446752Y145507D02*
X446061Y145370D01*
X445475Y144978D01*
X445083Y144392D01*
X444946Y143701D01*
X445083Y143009D01*
X445475Y142423D01*
X446061Y142032D01*
X446752Y141894D01*
X447443Y142032D01*
X448029Y142423D01*
X448421Y143009D01*
X448558Y143701D01*
X448421Y144392D01*
X448029Y144978D01*
X447443Y145370D01*
X446752Y145507D01*
D02*
G37*
G36*
X426870Y144818D02*
X426179Y144681D01*
X425593Y144289D01*
X425201Y143703D01*
X425064Y143012D01*
X425201Y142321D01*
X425593Y141735D01*
X426179Y141343D01*
X426870Y141205D01*
X427561Y141343D01*
X428147Y141735D01*
X428539Y142321D01*
X428676Y143012D01*
X428539Y143703D01*
X428147Y144289D01*
X427561Y144681D01*
X426870Y144818D01*
D02*
G37*
G36*
X528164Y170715D02*
X526950D01*
X525777Y170401D01*
X524725Y169793D01*
X523866Y168935D01*
X523259Y167883D01*
X522945Y166710D01*
Y165495D01*
X523259Y164322D01*
X523866Y163270D01*
X524725Y162412D01*
X525777Y161804D01*
X526950Y161490D01*
X528164D01*
X529338Y161804D01*
X530389Y162412D01*
X531248Y163270D01*
X531855Y164322D01*
X532169Y165495D01*
Y166710D01*
X531855Y167883D01*
X531248Y168935D01*
X530389Y169793D01*
X529338Y170401D01*
X528164Y170715D01*
D02*
G37*
G36*
X488164D02*
X486950D01*
X485777Y170401D01*
X484725Y169793D01*
X483866Y168935D01*
X483259Y167883D01*
X482945Y166710D01*
Y165495D01*
X483259Y164322D01*
X483866Y163270D01*
X484725Y162412D01*
X485777Y161804D01*
X486950Y161490D01*
X488164D01*
X489337Y161804D01*
X490389Y162412D01*
X491248Y163270D01*
X491855Y164322D01*
X492170Y165495D01*
Y166710D01*
X491855Y167883D01*
X491248Y168935D01*
X490389Y169793D01*
X489337Y170401D01*
X488164Y170715D01*
D02*
G37*
G36*
X413246Y131201D02*
X412541D01*
X411890Y130931D01*
X411392Y130433D01*
X411122Y129781D01*
Y129077D01*
X411392Y128426D01*
X411890Y127927D01*
X412541Y127657D01*
X413246D01*
X413897Y127927D01*
X414396Y128426D01*
X414665Y129077D01*
Y129781D01*
X414396Y130433D01*
X413897Y130931D01*
X413246Y131201D01*
D02*
G37*
G36*
X450856Y78798D02*
X450165Y78661D01*
X449579Y78269D01*
X449187Y77683D01*
X449050Y76992D01*
X449187Y76300D01*
X449579Y75714D01*
X450165Y75323D01*
X450856Y75185D01*
X451547Y75323D01*
X452133Y75714D01*
X452525Y76300D01*
X452662Y76992D01*
X452525Y77683D01*
X452133Y78269D01*
X451547Y78661D01*
X450856Y78798D01*
D02*
G37*
G36*
X442717Y28184D02*
X442025Y28047D01*
X441439Y27655D01*
X441153Y27228D01*
X436598Y22672D01*
X436228Y22119D01*
X436098Y21466D01*
Y18839D01*
X435998Y18335D01*
X436136Y17643D01*
X436527Y17057D01*
X437113Y16666D01*
X437805Y16528D01*
X438496Y16666D01*
X439082Y17057D01*
X439473Y17643D01*
X439611Y18335D01*
X439510Y18839D01*
Y20759D01*
X443566Y24815D01*
X443994Y25101D01*
X444385Y25687D01*
X444523Y26378D01*
X444385Y27069D01*
X443994Y27655D01*
X443408Y28047D01*
X442717Y28184D01*
D02*
G37*
G36*
X450227Y14260D02*
X449536Y14122D01*
X448950Y13731D01*
X448558Y13145D01*
X448420Y12454D01*
X448558Y11762D01*
X448950Y11176D01*
X449536Y10785D01*
X450227Y10647D01*
X450918Y10785D01*
X451504Y11176D01*
X451896Y11762D01*
X452033Y12454D01*
X451896Y13145D01*
X451504Y13731D01*
X450918Y14122D01*
X450227Y14260D01*
D02*
G37*
G36*
X528164Y114416D02*
X526950D01*
X525777Y114101D01*
X524725Y113494D01*
X523866Y112635D01*
X523259Y111583D01*
X522945Y110410D01*
Y109196D01*
X523259Y108023D01*
X523866Y106971D01*
X524725Y106112D01*
X525777Y105505D01*
X526950Y105191D01*
X528164D01*
X529338Y105505D01*
X530389Y106112D01*
X531248Y106971D01*
X531855Y108023D01*
X532169Y109196D01*
Y110410D01*
X531855Y111583D01*
X531248Y112635D01*
X530389Y113494D01*
X529338Y114101D01*
X528164Y114416D01*
D02*
G37*
G36*
X488164D02*
X486950D01*
X485777Y114101D01*
X484725Y113494D01*
X483866Y112635D01*
X483259Y111583D01*
X482945Y110410D01*
Y109196D01*
X483259Y108023D01*
X483866Y106971D01*
X484725Y106112D01*
X485777Y105505D01*
X486950Y105191D01*
X488164D01*
X489337Y105505D01*
X490389Y106112D01*
X491248Y106971D01*
X491855Y108023D01*
X492170Y109196D01*
Y110410D01*
X491855Y111583D01*
X491248Y112635D01*
X490389Y113494D01*
X489337Y114101D01*
X488164Y114416D01*
D02*
G37*
G36*
X528164Y58116D02*
X526950D01*
X525777Y57802D01*
X524725Y57195D01*
X523866Y56336D01*
X523259Y55284D01*
X522945Y54111D01*
Y52897D01*
X523259Y51724D01*
X523866Y50672D01*
X524725Y49813D01*
X525777Y49206D01*
X526950Y48892D01*
X528164D01*
X529338Y49206D01*
X530389Y49813D01*
X531248Y50672D01*
X531855Y51724D01*
X532169Y52897D01*
Y54111D01*
X531855Y55284D01*
X531248Y56336D01*
X530389Y57195D01*
X529338Y57802D01*
X528164Y58116D01*
D02*
G37*
G36*
X488164D02*
X486950D01*
X485777Y57802D01*
X484725Y57195D01*
X483866Y56336D01*
X483259Y55284D01*
X482945Y54111D01*
Y52897D01*
X483259Y51724D01*
X483866Y50672D01*
X484725Y49813D01*
X485777Y49206D01*
X486950Y48892D01*
X488164D01*
X489337Y49206D01*
X490389Y49813D01*
X491248Y50672D01*
X491855Y51724D01*
X492170Y52897D01*
Y54111D01*
X491855Y55284D01*
X491248Y56336D01*
X490389Y57195D01*
X489337Y57802D01*
X488164Y58116D01*
D02*
G37*
G36*
X528164Y18116D02*
X526950D01*
X525777Y17802D01*
X524725Y17195D01*
X523866Y16336D01*
X523259Y15284D01*
X522945Y14111D01*
Y12897D01*
X523259Y11724D01*
X523866Y10672D01*
X524725Y9813D01*
X525777Y9206D01*
X526950Y8892D01*
X528164D01*
X529338Y9206D01*
X530389Y9813D01*
X531248Y10672D01*
X531855Y11724D01*
X532169Y12897D01*
Y14111D01*
X531855Y15284D01*
X531248Y16336D01*
X530389Y17195D01*
X529338Y17802D01*
X528164Y18116D01*
D02*
G37*
G36*
X488164D02*
X486950D01*
X485777Y17802D01*
X484725Y17195D01*
X483866Y16336D01*
X483259Y15284D01*
X482945Y14111D01*
Y12897D01*
X483259Y11724D01*
X483866Y10672D01*
X484725Y9813D01*
X485777Y9206D01*
X486950Y8892D01*
X488164D01*
X489337Y9206D01*
X490389Y9813D01*
X491248Y10672D01*
X491855Y11724D01*
X492170Y12897D01*
Y14111D01*
X491855Y15284D01*
X491248Y16336D01*
X490389Y17195D01*
X489337Y17802D01*
X488164Y18116D01*
D02*
G37*
G36*
X413246Y66043D02*
X412541D01*
X411890Y65774D01*
X411392Y65275D01*
X411122Y64624D01*
Y63919D01*
X411392Y63268D01*
X411890Y62770D01*
X412541Y62500D01*
X413246D01*
X413897Y62770D01*
X414396Y63268D01*
X414665Y63919D01*
Y64624D01*
X414396Y65275D01*
X413897Y65774D01*
X413246Y66043D01*
D02*
G37*
G36*
X411354Y35180D02*
X410649D01*
X409998Y34910D01*
X409500Y34412D01*
X409230Y33761D01*
Y33056D01*
X409500Y32405D01*
X409998Y31907D01*
X410649Y31637D01*
X411354D01*
X412005Y31907D01*
X412504Y32405D01*
X412773Y33056D01*
Y33761D01*
X412504Y34412D01*
X412005Y34910D01*
X411354Y35180D01*
D02*
G37*
G36*
X410813Y29169D02*
X410108D01*
X409457Y28900D01*
X408959Y28401D01*
X408689Y27750D01*
Y27046D01*
X408959Y26394D01*
X409457Y25896D01*
X410108Y25626D01*
X410813D01*
X411464Y25896D01*
X411963Y26394D01*
X412232Y27046D01*
Y27750D01*
X411963Y28401D01*
X411464Y28900D01*
X410813Y29169D01*
D02*
G37*
%LPD*%
D11*
X106201Y194226D02*
Y255807D01*
X106177Y194203D02*
X106201Y194226D01*
X106177Y194035D02*
Y194203D01*
X106004Y193861D02*
X106177Y194035D01*
X106004Y157913D02*
Y193861D01*
Y157913D02*
X106102Y157814D01*
Y111024D02*
X106201Y110925D01*
Y42520D02*
Y110925D01*
X106102Y111024D02*
Y157814D01*
X106201Y255807D02*
Y296949D01*
X105610Y297539D02*
X106201Y296949D01*
D14*
X60921Y70079D02*
X72835D01*
X58835Y72164D02*
X60921Y70079D01*
X59449Y75295D02*
X81299Y97146D01*
X54429Y75295D02*
X59449D01*
X81299Y97146D02*
Y352468D01*
X169258Y331958D02*
X182780Y345480D01*
X166855Y266331D02*
X169258Y268734D01*
Y331958D01*
X96653Y289936D02*
X97933Y288657D01*
X96653Y289936D02*
Y290256D01*
X97933Y254951D02*
Y288657D01*
X94784Y182568D02*
Y182677D01*
Y182568D02*
X96260Y181091D01*
Y124016D02*
Y181091D01*
Y124016D02*
X101083Y119193D01*
X91535Y197233D02*
Y344488D01*
X118701Y371654D02*
Y373819D01*
X91535Y344488D02*
X118701Y371654D01*
X89961Y345042D02*
X89961Y345042D01*
X90020Y347365D02*
Y348993D01*
X89961Y347306D02*
X90020Y347365D01*
X89961Y345042D02*
Y347306D01*
X72835Y70079D02*
X82874Y80118D01*
Y350522D01*
X56004Y227612D02*
Y270276D01*
X49428Y221037D02*
X56004Y227612D01*
X22896Y233274D02*
Y233403D01*
X23819Y100597D02*
Y232351D01*
X22896Y233274D02*
X23819Y232351D01*
Y100597D02*
X25013Y99403D01*
X89498Y117289D02*
Y117609D01*
X89961Y118072D02*
Y345042D01*
X89498Y117609D02*
X89961Y118072D01*
X91535Y197233D02*
X91663Y197105D01*
X86516Y111042D02*
X91663Y116190D01*
Y197105D01*
X82874Y350522D02*
X112495Y380143D01*
X81299Y352468D02*
X112841Y384010D01*
X-24016Y258004D02*
X-20603Y261417D01*
X-24016Y240748D02*
Y258004D01*
X114150Y381787D02*
X114470D01*
X113572Y381208D02*
X114150Y381787D01*
X112495Y380143D02*
X112495D01*
X113561Y381208D02*
X113572D01*
X112495Y380143D02*
X113561Y381208D01*
X93701Y250719D02*
X97933Y254951D01*
X93701Y198130D02*
Y250719D01*
X101673Y308957D02*
X101772Y309055D01*
X101673Y213878D02*
Y308957D01*
X101575Y213779D02*
X101673Y213878D01*
X101772Y187598D02*
X101810Y187561D01*
X90020Y348993D02*
X117504Y376477D01*
X-28543Y236221D02*
X-24016Y240748D01*
D101*
X227067Y112106D02*
D03*
X188500Y291339D02*
D03*
X188484Y318799D02*
D03*
X245866Y357677D02*
D03*
X234252Y350787D02*
D03*
X235138Y160827D02*
D03*
X228543Y160827D02*
D03*
X234055Y81398D02*
D03*
X227461Y81398D02*
D03*
X226575Y42421D02*
D03*
X30118Y179263D02*
D03*
X188484Y60138D02*
D03*
X233169D02*
D03*
X188484Y138681D02*
D03*
X147441Y83760D02*
D03*
X234350Y195669D02*
D03*
X147441Y250197D02*
D03*
X456811Y117913D02*
D03*
X456791Y112303D02*
D03*
X456811Y106063D02*
D03*
Y123819D02*
D03*
X428051Y115551D02*
D03*
X234350Y231496D02*
D03*
X188484Y231101D02*
D03*
X307087Y335039D02*
D03*
X312303Y335236D02*
D03*
X317323Y335138D02*
D03*
X-6201Y280315D02*
D03*
X188534Y214617D02*
D03*
X372539Y337854D02*
D03*
X188287Y17815D02*
D03*
X425492Y12106D02*
D03*
X424803Y45374D02*
D03*
X425492Y182382D02*
D03*
X188484Y155773D02*
D03*
Y130807D02*
D03*
Y42224D02*
D03*
X234350Y293504D02*
D03*
Y214961D02*
D03*
X233169Y42421D02*
D03*
X401142Y232362D02*
D03*
Y238268D02*
D03*
Y244173D02*
D03*
Y226496D02*
D03*
X395728Y226398D02*
D03*
Y244075D02*
D03*
Y238169D02*
D03*
Y232264D02*
D03*
X234350Y318898D02*
D03*
Y112205D02*
D03*
X147441Y28839D02*
D03*
X147441Y311024D02*
D03*
X49016Y340295D02*
D03*
X312303Y340256D02*
D03*
X317224D02*
D03*
X307087D02*
D03*
X435925Y343996D02*
D03*
X446063D02*
D03*
X441240D02*
D03*
X377756Y337992D02*
D03*
X383287D02*
D03*
X147343Y145866D02*
D03*
X57480Y372047D02*
D03*
X92028Y87303D02*
D03*
X146850Y371358D02*
D03*
X30118Y199705D02*
D03*
X28543Y327854D02*
D03*
X28445Y316929D02*
D03*
X377756Y69291D02*
D03*
X383287D02*
D03*
X372539D02*
D03*
Y156693D02*
D03*
X383287D02*
D03*
X377756D02*
D03*
X377756Y223484D02*
D03*
X372539D02*
D03*
X383287D02*
D03*
X395728Y40905D02*
D03*
X401142D02*
D03*
Y46772D02*
D03*
X395728D02*
D03*
X401142Y52677D02*
D03*
X395728D02*
D03*
X401142Y58583D02*
D03*
X395728D02*
D03*
X456437Y190728D02*
D03*
X462716Y106063D02*
D03*
X395728Y105630D02*
D03*
Y123307D02*
D03*
Y117402D02*
D03*
Y111496D02*
D03*
X395728Y179114D02*
D03*
Y185020D02*
D03*
Y190925D02*
D03*
Y173248D02*
D03*
X456595Y212008D02*
D03*
X456732Y178819D02*
D03*
X456693Y217717D02*
D03*
X456732Y172874D02*
D03*
X456693Y229528D02*
D03*
X456732Y184724D02*
D03*
X456693Y223622D02*
D03*
X462638Y184724D02*
D03*
X462598Y217717D02*
D03*
X462638Y172874D02*
D03*
X462598Y223622D02*
D03*
X462716Y123819D02*
D03*
X462638Y190630D02*
D03*
X462785Y111939D02*
D03*
X462598Y229528D02*
D03*
X462638Y178819D02*
D03*
X462697Y117913D02*
D03*
X462894Y212205D02*
D03*
X462756Y46496D02*
D03*
X456850D02*
D03*
Y58307D02*
D03*
Y52402D02*
D03*
Y40551D02*
D03*
X462756Y58307D02*
D03*
Y52402D02*
D03*
Y40551D02*
D03*
X401142Y111499D02*
D03*
Y117405D02*
D03*
Y123310D02*
D03*
Y105633D02*
D03*
Y173346D02*
D03*
Y191024D02*
D03*
Y185118D02*
D03*
Y179213D02*
D03*
D103*
X101033Y74262D02*
X101083Y74311D01*
X101033Y42274D02*
Y74262D01*
X211417Y184941D02*
Y247638D01*
Y107067D02*
Y184941D01*
Y107067D02*
X211801Y106683D01*
Y106387D02*
X211951Y106236D01*
X211801Y106387D02*
Y106683D01*
X194095Y264961D02*
X211417Y247638D01*
X66437Y217717D02*
Y297835D01*
Y217717D02*
X76772Y207382D01*
X180709Y193504D02*
X193575D01*
X208366Y178713D01*
Y27953D02*
Y178713D01*
X195276Y182480D02*
X201374Y176382D01*
X189665Y182480D02*
X195276D01*
X201374Y26973D02*
Y176382D01*
Y26973D02*
X201378Y26969D01*
X453090Y190801D02*
X456364D01*
X438091Y205801D02*
Y215230D01*
X456364Y190801D02*
X456437Y190728D01*
X438091Y205801D02*
X453090Y190801D01*
X21358Y113386D02*
Y169097D01*
X21561Y169299D01*
Y224797D01*
X19193Y227165D02*
X21561Y224797D01*
X100984Y42224D02*
X101033Y42274D01*
X204823Y114075D02*
X208268Y110630D01*
X4626Y172047D02*
Y174409D01*
X-5315Y184350D02*
X4626Y174409D01*
X-5315Y184350D02*
Y248425D01*
X437795Y151378D02*
Y151544D01*
X443505Y157254D02*
Y160950D01*
X437795Y151544D02*
X443505Y157254D01*
X390933Y255906D02*
X397415D01*
X390848Y255990D02*
X390933Y255906D01*
X147244Y239862D02*
X159153D01*
X124213Y262894D02*
X147244Y239862D01*
X124213Y262894D02*
Y319882D01*
X397415Y255906D02*
X438091Y215230D01*
X85138Y163484D02*
X85236Y163386D01*
Y131988D02*
Y163386D01*
X85138Y163484D02*
Y188681D01*
X85236Y131988D02*
X87106Y130118D01*
X101810Y126965D02*
Y187561D01*
X-10772Y249059D02*
X-8563Y246850D01*
Y183760D02*
X-5610Y180807D01*
X-8563Y183760D02*
Y246850D01*
X-10772Y249059D02*
Y249184D01*
D104*
X50982Y66242D02*
Y102461D01*
Y66242D02*
X55020Y62205D01*
X50982Y102461D02*
X52339Y103818D01*
X173551Y224311D02*
X186713Y211150D01*
Y200492D02*
Y211150D01*
X10138Y256102D02*
X12665D01*
X16732Y260170D02*
Y332382D01*
X12665Y256102D02*
X16732Y260170D01*
X12500Y263287D02*
Y347736D01*
X10335Y261122D02*
X12500Y263287D01*
X52339Y103818D02*
Y206960D01*
X44325Y214974D02*
X52339Y206960D01*
X44325Y214974D02*
Y342500D01*
X46487Y344661D01*
X20360Y299254D02*
X20798D01*
X16803Y295697D02*
X20360Y299254D01*
D106*
X189173Y284350D02*
X192323D01*
X179134Y291240D02*
X182283D01*
X189173Y284350D01*
X401378Y81595D02*
X453168D01*
X397342Y77559D02*
X401378Y81595D01*
X453168D02*
X456811Y85238D01*
X386751Y261614D02*
X388720Y259646D01*
X400756D02*
X446524Y213878D01*
X388720Y259646D02*
X400756D01*
X456811Y85238D02*
Y106063D01*
X446524Y211252D02*
Y213878D01*
Y211252D02*
X446555Y211221D01*
X437697Y84646D02*
X443832Y90781D01*
Y92793D01*
X437805Y21466D02*
X442717Y26378D01*
X437805Y18335D02*
Y21466D01*
D110*
X502518Y89803D02*
D03*
Y33504D02*
D03*
Y146102D02*
D03*
Y258701D02*
D03*
Y202402D02*
D03*
D111*
X19213Y24291D02*
D03*
D114*
X541890Y374016D02*
D03*
Y324016D02*
D03*
Y355709D02*
D03*
Y305709D02*
D03*
D115*
X58835Y72164D02*
D03*
X101083Y74311D02*
D03*
X67778Y73327D02*
D03*
X54429Y75295D02*
D03*
X68209Y177657D02*
D03*
X211417Y184941D02*
D03*
X211951Y106236D02*
D03*
X170858Y102408D02*
D03*
X213681Y285433D02*
D03*
X203248Y285630D02*
D03*
X190650Y311221D02*
D03*
X179564Y296164D02*
D03*
X186319Y312697D02*
D03*
X180559Y309560D02*
D03*
X204331Y327658D02*
D03*
X442520Y75886D02*
D03*
X118110Y277854D02*
D03*
X137500Y298130D02*
D03*
X167421Y244783D02*
D03*
X137402Y245079D02*
D03*
X112598Y262598D02*
D03*
X112500Y225984D02*
D03*
X137500Y22244D02*
D03*
X112303Y15650D02*
D03*
X112598Y49311D02*
D03*
X137598Y63681D02*
D03*
X112500Y83957D02*
D03*
X117815Y110630D02*
D03*
X167224Y133366D02*
D03*
X137500Y133957D02*
D03*
X198721Y136614D02*
D03*
X198622Y129035D02*
D03*
Y125984D02*
D03*
X118110Y132579D02*
D03*
Y157874D02*
D03*
X117955Y168799D02*
D03*
X118135Y196271D02*
D03*
X133027Y182736D02*
D03*
X156354Y178603D02*
D03*
X89622Y26732D02*
D03*
X61614Y178347D02*
D03*
X59055Y285728D02*
D03*
X53543Y286713D02*
D03*
X386751Y261614D02*
D03*
X416684Y84848D02*
D03*
X66437Y297835D02*
D03*
X76772Y207382D02*
D03*
X36555Y209744D02*
D03*
X96653Y290256D02*
D03*
X177362Y177264D02*
D03*
X162894Y177067D02*
D03*
X44390Y202756D02*
D03*
X134706Y200787D02*
D03*
X180709Y193504D02*
D03*
X106177Y194045D02*
D03*
X189665Y182480D02*
D03*
X85138Y188681D02*
D03*
X94784Y182677D02*
D03*
X101083Y119193D02*
D03*
X174213Y269685D02*
D03*
X182552Y264584D02*
D03*
X166855Y266331D02*
D03*
X158366Y269587D02*
D03*
X451757Y204858D02*
D03*
X424803Y97638D02*
D03*
X425689Y27756D02*
D03*
X180559Y178279D02*
D03*
X346555Y253937D02*
D03*
X343209D02*
D03*
X194095Y264961D02*
D03*
X192323Y284350D02*
D03*
X68431Y94902D02*
D03*
X21358Y113386D02*
D03*
X39272Y100591D02*
D03*
X172193Y63694D02*
D03*
X245079Y78839D02*
D03*
X179858Y95878D02*
D03*
X179528Y87500D02*
D03*
X95276Y64862D02*
D03*
X245079Y84350D02*
D03*
X362402Y168405D02*
D03*
Y164961D02*
D03*
X186713Y200492D02*
D03*
X4626Y172047D02*
D03*
X172332Y284650D02*
D03*
X56004Y270276D02*
D03*
X49428Y221037D02*
D03*
X-9173Y263013D02*
D03*
X10138Y256102D02*
D03*
X10335Y261122D02*
D03*
X237008Y248622D02*
D03*
X234154D02*
D03*
X231004D02*
D03*
X452461Y84646D02*
D03*
X446555Y211221D02*
D03*
X443832Y92793D02*
D03*
X443504Y213140D02*
D03*
X437697Y84646D02*
D03*
X425591Y208661D02*
D03*
X451772Y154331D02*
D03*
X432995Y20565D02*
D03*
X442717Y26378D02*
D03*
X442205Y143577D02*
D03*
X443505Y160950D02*
D03*
X427756Y202165D02*
D03*
X437795Y151378D02*
D03*
X412808Y147558D02*
D03*
X452283Y21000D02*
D03*
X437805Y18335D02*
D03*
X313189Y135236D02*
D03*
X310925D02*
D03*
X306299Y131398D02*
D03*
Y129134D02*
D03*
X306299Y133661D02*
D03*
Y126772D02*
D03*
X313681Y125197D02*
D03*
X306299Y122933D02*
D03*
X318504D02*
D03*
X316240D02*
D03*
X313976Y122835D02*
D03*
X311516D02*
D03*
X308760D02*
D03*
X311324Y125117D02*
D03*
X308957Y125098D02*
D03*
X316035Y125188D02*
D03*
X318406Y125295D02*
D03*
Y127756D02*
D03*
X318307Y130315D02*
D03*
Y132874D02*
D03*
X318209Y135236D02*
D03*
X315846D02*
D03*
X318209Y137598D02*
D03*
X315945D02*
D03*
X313386Y137500D02*
D03*
X311122D02*
D03*
X308563Y135236D02*
D03*
X308760Y137500D02*
D03*
X306398D02*
D03*
X312795Y227559D02*
D03*
X310531D02*
D03*
X305906Y223721D02*
D03*
Y221457D02*
D03*
X305906Y225984D02*
D03*
Y219094D02*
D03*
X313287Y217520D02*
D03*
X305906Y215256D02*
D03*
X318110D02*
D03*
X315846D02*
D03*
X313583Y215158D02*
D03*
X311122D02*
D03*
X308366D02*
D03*
X310930Y217440D02*
D03*
X308563Y217421D02*
D03*
X315641Y217510D02*
D03*
X318012Y217618D02*
D03*
Y220079D02*
D03*
X317913Y222638D02*
D03*
Y225197D02*
D03*
X317815Y227559D02*
D03*
X315453D02*
D03*
X317815Y229921D02*
D03*
X315551D02*
D03*
X312992Y229823D02*
D03*
X310728D02*
D03*
X308169Y227559D02*
D03*
X308366Y229823D02*
D03*
X306004D02*
D03*
X306496Y47835D02*
D03*
X308858D02*
D03*
X308661Y45571D02*
D03*
X311221Y47835D02*
D03*
X313484D02*
D03*
X316043Y47933D02*
D03*
X318307D02*
D03*
X315945Y45571D02*
D03*
X318307D02*
D03*
X318406Y43209D02*
D03*
Y40650D02*
D03*
X318504Y38091D02*
D03*
Y35630D02*
D03*
X316134Y35522D02*
D03*
X309055Y35433D02*
D03*
X311422Y35452D02*
D03*
X308858Y33169D02*
D03*
X311614D02*
D03*
X314075D02*
D03*
X316339Y33268D02*
D03*
X318602D02*
D03*
X306398D02*
D03*
X313779Y35531D02*
D03*
X306398Y37106D02*
D03*
Y43996D02*
D03*
X306398Y39469D02*
D03*
Y41732D02*
D03*
X311024Y45571D02*
D03*
X313287D02*
D03*
X345768Y37008D02*
D03*
Y34744D02*
D03*
X349606Y30118D02*
D03*
X351870D02*
D03*
X347342Y30118D02*
D03*
X354232D02*
D03*
X355807Y37500D02*
D03*
X358071Y30118D02*
D03*
Y42323D02*
D03*
Y40059D02*
D03*
X358169Y37795D02*
D03*
Y35335D02*
D03*
Y32579D02*
D03*
X355887Y35143D02*
D03*
X355906Y32776D02*
D03*
X355816Y39854D02*
D03*
X355709Y42224D02*
D03*
X353248D02*
D03*
X350689Y42126D02*
D03*
X348130D02*
D03*
X345768Y42028D02*
D03*
Y39665D02*
D03*
X343406Y42028D02*
D03*
Y39764D02*
D03*
X343504Y37205D02*
D03*
Y34941D02*
D03*
X345768Y32382D02*
D03*
X343504Y32579D02*
D03*
Y30217D02*
D03*
X345768Y128642D02*
D03*
Y126378D02*
D03*
X349606Y121752D02*
D03*
X351870D02*
D03*
X347342Y121752D02*
D03*
X354232D02*
D03*
X355807Y129134D02*
D03*
X358071Y121752D02*
D03*
Y133957D02*
D03*
Y131693D02*
D03*
X358169Y129429D02*
D03*
Y126969D02*
D03*
Y124213D02*
D03*
X355887Y126777D02*
D03*
X355906Y124409D02*
D03*
X355816Y131488D02*
D03*
X355709Y133858D02*
D03*
X353248D02*
D03*
X350689Y133760D02*
D03*
X348130D02*
D03*
X345768Y133661D02*
D03*
Y131299D02*
D03*
X343406Y133661D02*
D03*
Y131398D02*
D03*
X343504Y128839D02*
D03*
Y126575D02*
D03*
X345768Y124016D02*
D03*
X343504Y124213D02*
D03*
Y121850D02*
D03*
X343602Y212205D02*
D03*
Y214567D02*
D03*
X345866Y214370D02*
D03*
X343602Y216929D02*
D03*
Y219193D02*
D03*
X343504Y221752D02*
D03*
Y224016D02*
D03*
X345866Y221654D02*
D03*
Y224016D02*
D03*
X348228Y224114D02*
D03*
X350787D02*
D03*
X353346Y224213D02*
D03*
X355807D02*
D03*
X355915Y221842D02*
D03*
X356004Y214764D02*
D03*
X355985Y217131D02*
D03*
X358268Y214567D02*
D03*
Y217323D02*
D03*
Y219783D02*
D03*
X358169Y222047D02*
D03*
Y224311D02*
D03*
Y212106D02*
D03*
X355906Y219488D02*
D03*
X354331Y212106D02*
D03*
X347441D02*
D03*
X351969Y212106D02*
D03*
X349705D02*
D03*
X345866Y216732D02*
D03*
Y218996D02*
D03*
X21654Y100984D02*
D03*
X22896Y233403D02*
D03*
X19587Y108957D02*
D03*
X89498Y117289D02*
D03*
X86884Y119335D02*
D03*
X86516Y111042D02*
D03*
X88093Y108782D02*
D03*
X-2264Y123721D02*
D03*
X-40780Y245590D02*
D03*
X199508Y247047D02*
D03*
X397342Y77559D02*
D03*
X428051Y69482D02*
D03*
Y134941D02*
D03*
X32160Y48265D02*
D03*
X-7677Y133386D02*
D03*
X-2165Y103347D02*
D03*
X159153Y239862D02*
D03*
X180559Y230610D02*
D03*
X203543Y249311D02*
D03*
X199213Y253346D02*
D03*
X390848Y255990D02*
D03*
X85236Y163386D02*
D03*
X68145Y326279D02*
D03*
X68309Y333071D02*
D03*
X117421Y344783D02*
D03*
X162205Y322854D02*
D03*
X163484Y345768D02*
D03*
X224311Y364665D02*
D03*
X205925Y345866D02*
D03*
X192588Y368953D02*
D03*
X-20603Y261417D02*
D03*
X118405Y381090D02*
D03*
X99945Y377614D02*
D03*
X112841Y384010D02*
D03*
X114470Y381787D02*
D03*
X50982Y102461D02*
D03*
X106102Y111024D02*
D03*
X93701Y198130D02*
D03*
X86989Y126431D02*
D03*
X101013Y123760D02*
D03*
X96044Y186175D02*
D03*
X77836Y210289D02*
D03*
X121241Y319935D02*
D03*
X106970Y301136D02*
D03*
X104706Y309108D02*
D03*
X17224Y224508D02*
D03*
X47146Y105905D02*
D03*
X25013Y99403D02*
D03*
X55165Y59363D02*
D03*
X96653Y42224D02*
D03*
X173374Y50603D02*
D03*
X171799Y161037D02*
D03*
X159102Y166351D02*
D03*
X173768Y227670D02*
D03*
X180559Y287316D02*
D03*
X74508Y345965D02*
D03*
X130905Y319882D02*
D03*
X362402Y83465D02*
D03*
Y86319D02*
D03*
Y89173D02*
D03*
X185335Y371752D02*
D03*
X180413Y360138D02*
D03*
Y356791D02*
D03*
X198622Y139665D02*
D03*
X180561Y37738D02*
D03*
Y34687D02*
D03*
X180610Y212795D02*
D03*
X245079Y350591D02*
D03*
Y347539D02*
D03*
Y298031D02*
D03*
Y294980D02*
D03*
Y217421D02*
D03*
Y214370D02*
D03*
Y157382D02*
D03*
Y154331D02*
D03*
Y35039D02*
D03*
Y38091D02*
D03*
X204031Y110938D02*
D03*
X203834Y145584D02*
D03*
X180807Y365354D02*
D03*
X180559Y351096D02*
D03*
Y148425D02*
D03*
Y162795D02*
D03*
Y41437D02*
D03*
Y27165D02*
D03*
X163681Y13287D02*
D03*
X93307Y369980D02*
D03*
X117520Y221555D02*
D03*
X-40780Y239449D02*
D03*
X61221Y34921D02*
D03*
X79528Y15748D02*
D03*
X74171Y53693D02*
D03*
X424902Y163878D02*
D03*
X-6496Y155709D02*
D03*
X-22047Y268209D02*
D03*
X87008Y292520D02*
D03*
X142717Y305709D02*
D03*
X185925Y345571D02*
D03*
X174508Y370866D02*
D03*
X114665Y378642D02*
D03*
X6373Y213344D02*
D03*
X-40780Y176339D02*
D03*
Y170000D02*
D03*
Y157362D02*
D03*
Y116378D02*
D03*
Y131929D02*
D03*
Y141575D02*
D03*
Y151024D02*
D03*
Y163701D02*
D03*
Y182598D02*
D03*
Y207835D02*
D03*
Y201614D02*
D03*
Y214173D02*
D03*
Y220236D02*
D03*
Y226850D02*
D03*
Y232992D02*
D03*
Y251969D02*
D03*
Y258228D02*
D03*
Y264488D02*
D03*
Y270821D02*
D03*
Y277130D02*
D03*
X-40778Y280279D02*
D03*
X6333Y217123D02*
D03*
X40630Y379567D02*
D03*
X30847D02*
D03*
X21063D02*
D03*
X173551Y224311D02*
D03*
X101575Y213779D02*
D03*
X101772Y309055D02*
D03*
X105610Y297539D02*
D03*
X101772Y187598D02*
D03*
X101810Y126965D02*
D03*
X106004Y255807D02*
D03*
Y157913D02*
D03*
X106201Y42520D02*
D03*
X100984Y42224D02*
D03*
X204823Y114075D02*
D03*
X39272Y111516D02*
D03*
X179134Y291240D02*
D03*
X201378Y26969D02*
D03*
X208366Y27953D02*
D03*
X19193Y227165D02*
D03*
X-10772Y249184D02*
D03*
X-5610Y180807D02*
D03*
X-5315Y248425D02*
D03*
X30709Y118602D02*
D03*
X87106Y130118D02*
D03*
X182780Y345480D02*
D03*
X30512Y128937D02*
D03*
X38878Y15551D02*
D03*
X38976Y28839D02*
D03*
X30807Y157776D02*
D03*
X32579Y95768D02*
D03*
X9685Y241339D02*
D03*
Y238189D02*
D03*
Y244488D02*
D03*
X27677Y321886D02*
D03*
X36752Y198917D02*
D03*
Y203740D02*
D03*
X12539Y238189D02*
D03*
Y241339D02*
D03*
Y244488D02*
D03*
X30807Y146063D02*
D03*
X30610Y121850D02*
D03*
X18642Y232776D02*
D03*
X30807Y150886D02*
D03*
X31988Y51673D02*
D03*
X39075Y64102D02*
D03*
X30906Y166535D02*
D03*
X124213Y319882D02*
D03*
X55020Y62205D02*
D03*
X20798Y299254D02*
D03*
X-28543Y236221D02*
D03*
X44325Y214974D02*
D03*
X16732Y332382D02*
D03*
X12500Y347736D02*
D03*
X46487Y344661D02*
D03*
X117504Y376477D02*
D03*
X118701Y373819D02*
D03*
X460669Y18425D02*
D03*
M02*
