G04*
G04 #@! TF.GenerationSoftware,Altium Limited,Altium Designer,24.9.1 (31)*
G04*
G04 Layer_Physical_Order=2*
G04 Layer_Color=36540*
%FSLAX25Y25*%
%MOIN*%
G70*
G04*
G04 #@! TF.SameCoordinates,750FAD7C-2C45-4948-A75F-6248DA3FEDE9*
G04*
G04*
G04 #@! TF.FilePolarity,Positive*
G04*
G01*
G75*
%ADD101C,0.03937*%
%ADD105C,0.01575*%
%ADD110C,0.13287*%
%ADD111C,0.05906*%
%ADD114C,0.12598*%
%ADD115C,0.01968*%
G36*
X545972Y392535D02*
X547338Y392169D01*
X548645Y391628D01*
X549870Y390920D01*
X550993Y390059D01*
X551993Y389059D01*
X552854Y387937D01*
X553561Y386712D01*
X554103Y385405D01*
X554469Y384038D01*
X554654Y382636D01*
Y381928D01*
X554654Y229206D01*
X554188Y228740D01*
X482992D01*
Y229394D01*
X464552Y247834D01*
X462583D01*
X461951Y248466D01*
X461300Y248902D01*
X460532Y249054D01*
X440846D01*
X440078Y248902D01*
X439427Y248466D01*
X438992Y247815D01*
X438839Y247047D01*
Y220059D01*
X438992Y219291D01*
X439427Y218640D01*
X439488Y218579D01*
Y218287D01*
X445302Y212473D01*
X445053Y212224D01*
X444783Y211573D01*
Y210868D01*
X445053Y210217D01*
X445552Y209718D01*
X446203Y209449D01*
X446908D01*
X447559Y209718D01*
X447808Y209968D01*
X453248Y204528D01*
Y197283D01*
X444654D01*
X444587Y197384D01*
Y198089D01*
X444317Y198740D01*
X443819Y199238D01*
X443167Y199508D01*
X442463D01*
X441811Y199238D01*
X441313Y198740D01*
X441043Y198089D01*
Y197384D01*
X440976Y197283D01*
X439665D01*
X439571Y197264D01*
X439488D01*
Y197247D01*
X438897Y197130D01*
X438246Y196695D01*
X437811Y196044D01*
X437658Y195276D01*
Y171279D01*
X437731Y170914D01*
X437796Y170549D01*
X437807Y170531D01*
X437811Y170511D01*
X438017Y170202D01*
X438217Y169889D01*
X439488Y168565D01*
Y168203D01*
X448148Y159544D01*
X453248Y154230D01*
Y143209D01*
X448617D01*
X448524Y143348D01*
Y144053D01*
X448254Y144704D01*
X447755Y145203D01*
X447104Y145472D01*
X446400D01*
X445748Y145203D01*
X445250Y144704D01*
X444980Y144053D01*
Y143348D01*
X444887Y143209D01*
X439488D01*
Y142952D01*
X437795D01*
X437027Y142799D01*
X436376Y142364D01*
X435941Y141713D01*
X435788Y140945D01*
Y104841D01*
X435864Y104458D01*
X435939Y104077D01*
X435941Y104076D01*
X435941Y104074D01*
X436157Y103750D01*
X436373Y103425D01*
X439488Y100297D01*
Y98898D01*
X443359Y95027D01*
X443221Y94458D01*
X442829Y94295D01*
X442330Y93797D01*
X442061Y93146D01*
Y92441D01*
X442330Y91790D01*
X442829Y91291D01*
X443480Y91022D01*
X444185D01*
X444836Y91291D01*
X445334Y91790D01*
X445497Y92182D01*
X446066Y92320D01*
X453248Y85138D01*
X453150Y85039D01*
Y74350D01*
X440256D01*
X439488Y74197D01*
X438837Y73762D01*
X438402Y73111D01*
X438249Y72342D01*
Y36988D01*
X438402Y36220D01*
X438837Y35569D01*
X439488Y34918D01*
Y34843D01*
X439563D01*
X472924Y1481D01*
X472733Y1020D01*
X421090D01*
X420590Y1020D01*
Y31299D01*
Y72146D01*
X420437Y72914D01*
X420002Y73565D01*
X419351Y74000D01*
X418583Y74153D01*
X367520D01*
X366752Y74000D01*
X366101Y73565D01*
X365665Y72914D01*
X365513Y72146D01*
Y47775D01*
X333465D01*
X332697Y47622D01*
X332045Y47187D01*
X331610Y46536D01*
X331457Y45768D01*
Y1020D01*
X330958Y1020D01*
X11811Y1020D01*
X11104D01*
X9701Y1204D01*
X8335Y1570D01*
X7028Y2112D01*
X5803Y2819D01*
X4680Y3680D01*
X3680Y4680D01*
X2819Y5803D01*
X2112Y7028D01*
X1570Y8335D01*
X1204Y9701D01*
X1020Y11104D01*
X1020Y11811D01*
X1020Y99508D01*
X942Y99898D01*
X721Y100229D01*
X390Y100450D01*
X-0Y100527D01*
X-23910D01*
X-23934Y100522D01*
X-23960Y100526D01*
X-24345Y100507D01*
X-24419Y100489D01*
X-24494D01*
X-25251Y100338D01*
X-25344Y100300D01*
X-25442Y100280D01*
X-26155Y99985D01*
X-26239Y99929D01*
X-26332Y99891D01*
X-26974Y99462D01*
X-27044Y99391D01*
X-27128Y99335D01*
X-27674Y98789D01*
X-27729Y98706D01*
X-27801Y98635D01*
X-28229Y97993D01*
X-28268Y97900D01*
X-28324Y97817D01*
X-28619Y97104D01*
X-28638Y97005D01*
X-28677Y96913D01*
X-28828Y96156D01*
Y96080D01*
X-28846Y96007D01*
X-28865Y95621D01*
X-28861Y95596D01*
X-28866Y95571D01*
Y93209D01*
X-28866Y93098D01*
X-28951Y92894D01*
X-29107Y92738D01*
X-29311Y92653D01*
X-33834D01*
Y105413D01*
X-33839Y105439D01*
X-33836Y105464D01*
X-33855Y105850D01*
X-33873Y105923D01*
X-33873Y105998D01*
X-34023Y106755D01*
X-34062Y106848D01*
X-34082Y106946D01*
X-34377Y107659D01*
X-34433Y107743D01*
X-34471Y107835D01*
X-34900Y108477D01*
X-34971Y108548D01*
X-35026Y108632D01*
X-35572Y109177D01*
X-35656Y109233D01*
X-35727Y109304D01*
X-36368Y109733D01*
X-36461Y109772D01*
X-36545Y109827D01*
X-37258Y110123D01*
X-37356Y110142D01*
X-37449Y110181D01*
X-38206Y110331D01*
X-38282D01*
X-38355Y110350D01*
X-38741Y110369D01*
X-38766Y110365D01*
X-38791Y110370D01*
X-57457D01*
Y184807D01*
X-38004Y184807D01*
X-37971Y184814D01*
X-37937Y184809D01*
X-37321Y184850D01*
X-37224Y184876D01*
X-37123Y184882D01*
X-35932Y185202D01*
X-35813Y185261D01*
X-35686Y185303D01*
X-34618Y185920D01*
X-34518Y186008D01*
X-34407Y186082D01*
X-33535Y186954D01*
X-33461Y187065D01*
X-33373Y187165D01*
X-32756Y188233D01*
X-32713Y188360D01*
X-32654Y188479D01*
X-32335Y189671D01*
X-32326Y189804D01*
X-32300Y189935D01*
Y191168D01*
X-32326Y191299D01*
X-32335Y191432D01*
X-32654Y192623D01*
X-32713Y192743D01*
X-32756Y192869D01*
X-33373Y193937D01*
X-33461Y194037D01*
X-33535Y194148D01*
X-34407Y195020D01*
X-34518Y195094D01*
X-34618Y195182D01*
X-35686Y195799D01*
X-35813Y195842D01*
X-35932Y195901D01*
X-37123Y196220D01*
X-37224Y196227D01*
X-37321Y196253D01*
X-37937Y196293D01*
X-37971Y196289D01*
X-38004Y196295D01*
X-57457D01*
Y283331D01*
X-38791D01*
X-38766Y283336D01*
X-38741Y283332D01*
X-38355Y283351D01*
X-38282Y283369D01*
X-38206Y283369D01*
X-37449Y283520D01*
X-37356Y283558D01*
X-37258Y283578D01*
X-36545Y283873D01*
X-36461Y283929D01*
X-36368Y283967D01*
X-35727Y284396D01*
X-35656Y284467D01*
X-35572Y284523D01*
X-35026Y285069D01*
X-34971Y285152D01*
X-34900Y285223D01*
X-34471Y285865D01*
X-34432Y285958D01*
X-34377Y286041D01*
X-34081Y286754D01*
X-34062Y286853D01*
X-34023Y286946D01*
X-33873Y287703D01*
X-33873Y287778D01*
X-33854Y287852D01*
X-33835Y288237D01*
X-33839Y288263D01*
X-33834Y288287D01*
Y301047D01*
X-29421D01*
X-29421Y301047D01*
X-29421Y301047D01*
X-29311Y301047D01*
X-29107Y300963D01*
X-28951Y300807D01*
X-28866Y300603D01*
X-28866Y300492D01*
X-28866Y300492D01*
X-28866Y300492D01*
Y298130D01*
X-28861Y298105D01*
X-28865Y298080D01*
X-28846Y297694D01*
X-28828Y297621D01*
Y297545D01*
X-28677Y296788D01*
X-28638Y296695D01*
X-28619Y296597D01*
X-28324Y295884D01*
X-28268Y295800D01*
X-28229Y295708D01*
X-27801Y295066D01*
X-27730Y294995D01*
X-27674Y294911D01*
X-27128Y294366D01*
X-27044Y294310D01*
X-26974Y294239D01*
X-26332Y293810D01*
X-26239Y293772D01*
X-26155Y293716D01*
X-25442Y293421D01*
X-25344Y293401D01*
X-25251Y293362D01*
X-24494Y293212D01*
X-24419D01*
X-24345Y293194D01*
X-23959Y293175D01*
X-23934Y293178D01*
X-23910Y293173D01*
X-0D01*
X390Y293251D01*
X721Y293472D01*
X942Y293803D01*
X1020Y294193D01*
Y381890D01*
X1020Y382597D01*
X1204Y384000D01*
X1570Y385366D01*
X2112Y386673D01*
X2819Y387898D01*
X3680Y389020D01*
X4681Y390021D01*
X5803Y390882D01*
X7028Y391589D01*
X8335Y392130D01*
X9701Y392497D01*
X11104Y392681D01*
X11811Y392681D01*
X11811Y392681D01*
X11811Y392681D01*
X543862Y392720D01*
X544569D01*
X545972Y392535D01*
D02*
G37*
G36*
X481299Y226279D02*
X484205D01*
X484412Y225780D01*
X483866Y225234D01*
X483259Y224182D01*
X482945Y223009D01*
Y221794D01*
X483259Y220621D01*
X483866Y219569D01*
X484725Y218711D01*
X485777Y218104D01*
X486950Y217789D01*
X488164D01*
X489337Y218104D01*
X490389Y218711D01*
X491248Y219569D01*
X491855Y220621D01*
X492170Y221794D01*
Y223009D01*
X491855Y224182D01*
X491248Y225234D01*
X490702Y225780D01*
X490909Y226279D01*
X503842D01*
X524205Y226279D01*
X524412Y225780D01*
X523866Y225234D01*
X523259Y224182D01*
X522945Y223009D01*
Y221794D01*
X523259Y220621D01*
X523866Y219569D01*
X524725Y218711D01*
X525777Y218104D01*
X526950Y217789D01*
X528164D01*
X529338Y218104D01*
X530389Y218711D01*
X531248Y219569D01*
X531855Y220621D01*
X532169Y221794D01*
Y223009D01*
X531855Y224182D01*
X531248Y225234D01*
X530702Y225780D01*
X530909Y226279D01*
X554654Y226280D01*
Y178740D01*
X531072D01*
X530880Y179202D01*
X531248Y179569D01*
X531855Y180621D01*
X532169Y181794D01*
Y183009D01*
X531855Y184182D01*
X531248Y185234D01*
X530389Y186092D01*
X529338Y186700D01*
X528164Y187014D01*
X526950D01*
X525777Y186700D01*
X524725Y186092D01*
X523866Y185234D01*
X523259Y184182D01*
X522945Y183009D01*
Y181794D01*
X523259Y180621D01*
X523866Y179569D01*
X524234Y179202D01*
X524042Y178740D01*
X491072D01*
X490880Y179202D01*
X491248Y179569D01*
X491855Y180621D01*
X492170Y181794D01*
Y183009D01*
X491855Y184182D01*
X491248Y185234D01*
X490389Y186092D01*
X489337Y186700D01*
X488164Y187014D01*
X486950D01*
X485777Y186700D01*
X484725Y186092D01*
X483866Y185234D01*
X483259Y184182D01*
X482945Y183009D01*
Y181794D01*
X483259Y180621D01*
X483866Y179569D01*
X484234Y179202D01*
X484042Y178740D01*
X482165D01*
X440846Y220059D01*
Y247047D01*
X460532D01*
X481299Y226279D01*
D02*
G37*
G36*
X485650Y171279D02*
X554654D01*
Y121260D01*
X529237D01*
X529171Y121760D01*
X529338Y121804D01*
X530389Y122412D01*
X531248Y123270D01*
X531855Y124322D01*
X532169Y125495D01*
Y126710D01*
X531855Y127883D01*
X531248Y128935D01*
X530389Y129793D01*
X529338Y130401D01*
X528164Y130715D01*
X526950D01*
X525777Y130401D01*
X524725Y129793D01*
X523866Y128935D01*
X523259Y127883D01*
X522945Y126710D01*
Y125495D01*
X523259Y124322D01*
X523866Y123270D01*
X524725Y122412D01*
X525777Y121804D01*
X525943Y121760D01*
X525877Y121260D01*
X489237D01*
X489171Y121760D01*
X489337Y121804D01*
X490389Y122412D01*
X491248Y123270D01*
X491855Y124322D01*
X492170Y125495D01*
Y126710D01*
X491855Y127883D01*
X491248Y128935D01*
X490389Y129793D01*
X489337Y130401D01*
X488164Y130715D01*
X486950D01*
X485777Y130401D01*
X484725Y129793D01*
X483866Y128935D01*
X483259Y127883D01*
X482987Y126868D01*
X482484Y126671D01*
X439665Y171279D01*
Y195276D01*
X461654D01*
X485650Y171279D01*
D02*
G37*
G36*
X484842Y115551D02*
X554654Y115551D01*
X554654Y64862D01*
X528870D01*
X528804Y65362D01*
X529338Y65505D01*
X530389Y66112D01*
X531248Y66971D01*
X531855Y68023D01*
X532169Y69196D01*
Y70411D01*
X531855Y71583D01*
X531248Y72635D01*
X530389Y73494D01*
X529338Y74101D01*
X528164Y74416D01*
X526950D01*
X525777Y74101D01*
X524725Y73494D01*
X523866Y72635D01*
X523259Y71583D01*
X522945Y70411D01*
Y69196D01*
X523259Y68023D01*
X523866Y66971D01*
X524725Y66112D01*
X525777Y65505D01*
X526310Y65362D01*
X526244Y64862D01*
X488870D01*
X488804Y65362D01*
X489337Y65505D01*
X490389Y66112D01*
X491248Y66971D01*
X491855Y68023D01*
X492170Y69196D01*
Y70411D01*
X491855Y71583D01*
X491248Y72635D01*
X490389Y73494D01*
X489337Y74101D01*
X488164Y74416D01*
X486950D01*
X485777Y74101D01*
X484725Y73494D01*
X483866Y72635D01*
X483259Y71583D01*
X482945Y70411D01*
Y69196D01*
X483259Y68023D01*
X483866Y66971D01*
X484725Y66112D01*
X485777Y65505D01*
X486310Y65362D01*
X486244Y64862D01*
X477601D01*
X437795Y104841D01*
Y140945D01*
X459449D01*
X484842Y115551D01*
D02*
G37*
G36*
X475157Y58858D02*
X554654D01*
Y11811D01*
Y11811D01*
Y11811D01*
X554654Y11104D01*
X554469Y9701D01*
X554103Y8335D01*
X553562Y7028D01*
X552854Y5803D01*
X551993Y4680D01*
X550993Y3680D01*
X549870Y2819D01*
X548645Y2112D01*
X547338Y1570D01*
X545972Y1204D01*
X544569Y1020D01*
X543862D01*
X476225D01*
D01*
X440256Y36988D01*
Y72342D01*
X461673D01*
X475157Y58858D01*
D02*
G37*
G36*
X418583Y31299D02*
Y1020D01*
X333465D01*
Y45768D01*
X367520D01*
Y72146D01*
X418583D01*
Y31299D01*
D02*
G37*
%LPC*%
G36*
X113193Y385781D02*
X112488D01*
X111837Y385512D01*
X111339Y385013D01*
X111069Y384362D01*
Y383657D01*
X111339Y383006D01*
X111837Y382508D01*
X112240Y382341D01*
X112698Y382139D01*
Y381434D01*
X112968Y380783D01*
X113466Y380285D01*
X114117Y380015D01*
X114822D01*
X115473Y380285D01*
X115972Y380783D01*
X116241Y381434D01*
Y382139D01*
X115972Y382790D01*
X115473Y383289D01*
X115070Y383456D01*
X114612Y383657D01*
Y384362D01*
X114343Y385013D01*
X113844Y385512D01*
X113193Y385781D01*
D02*
G37*
G36*
X100352Y376378D02*
X99648D01*
X98996Y376108D01*
X98498Y375610D01*
X98228Y374959D01*
Y374254D01*
X98498Y373603D01*
X98996Y373104D01*
X99648Y372835D01*
X100352D01*
X101004Y373104D01*
X101502Y373603D01*
X101772Y374254D01*
Y374959D01*
X101502Y375610D01*
X101004Y376108D01*
X100352Y376378D01*
D02*
G37*
G36*
X117856Y378248D02*
X117151D01*
X116500Y377979D01*
X116002Y377480D01*
X115732Y376829D01*
Y376124D01*
X116002Y375473D01*
X116500Y374975D01*
X117150Y374706D01*
X116929Y374171D01*
Y373466D01*
X117199Y372815D01*
X117697Y372317D01*
X118348Y372047D01*
X119053D01*
X119704Y372317D01*
X120203Y372815D01*
X120472Y373466D01*
Y374171D01*
X120203Y374822D01*
X119704Y375321D01*
X119054Y375590D01*
X119276Y376124D01*
Y376829D01*
X119006Y377480D01*
X118508Y377979D01*
X117856Y378248D01*
D02*
G37*
G36*
X542510Y380315D02*
X541269D01*
X540052Y380073D01*
X538906Y379598D01*
X537874Y378908D01*
X536997Y378031D01*
X536307Y376999D01*
X535833Y375853D01*
X535591Y374636D01*
Y373395D01*
X535833Y372178D01*
X536307Y371032D01*
X536997Y370000D01*
X537874Y369123D01*
X538906Y368433D01*
X540052Y367958D01*
X541269Y367716D01*
X542510D01*
X543727Y367958D01*
X544874Y368433D01*
X545905Y369123D01*
X546783Y370000D01*
X547472Y371032D01*
X547947Y372178D01*
X548189Y373395D01*
Y374636D01*
X547947Y375853D01*
X547472Y376999D01*
X546783Y378031D01*
X545905Y378908D01*
X544874Y379598D01*
X543727Y380073D01*
X542510Y380315D01*
D02*
G37*
G36*
X195628Y370113D02*
X194923D01*
X194272Y369844D01*
X193774Y369345D01*
X193504Y368694D01*
Y367989D01*
X193774Y367338D01*
X194272Y366840D01*
X194923Y366570D01*
X195628D01*
X196279Y366840D01*
X196777Y367338D01*
X197047Y367989D01*
Y368694D01*
X196777Y369345D01*
X196279Y369844D01*
X195628Y370113D01*
D02*
G37*
G36*
X91353Y370061D02*
X90648D01*
X89997Y369791D01*
X89498Y369293D01*
X89229Y368641D01*
Y367937D01*
X89498Y367285D01*
X89997Y366787D01*
X90648Y366517D01*
X91353D01*
X92004Y366787D01*
X92502Y367285D01*
X92772Y367937D01*
Y368641D01*
X92502Y369293D01*
X92004Y369791D01*
X91353Y370061D01*
D02*
G37*
G36*
X175352Y369488D02*
X174648D01*
X173996Y369218D01*
X173498Y368720D01*
X173228Y368069D01*
Y367364D01*
X173498Y366713D01*
X173996Y366215D01*
X174648Y365945D01*
X175352D01*
X176004Y366215D01*
X176502Y366713D01*
X176772Y367364D01*
Y368069D01*
X176502Y368720D01*
X176004Y369218D01*
X175352Y369488D01*
D02*
G37*
G36*
X224663Y366437D02*
X223959D01*
X223307Y366167D01*
X222809Y365669D01*
X222539Y365018D01*
Y364313D01*
X222809Y363662D01*
X223307Y363163D01*
X223959Y362894D01*
X224663D01*
X225315Y363163D01*
X225813Y363662D01*
X226083Y364313D01*
Y365018D01*
X225813Y365669D01*
X225315Y366167D01*
X224663Y366437D01*
D02*
G37*
G36*
X490962Y365314D02*
X490257D01*
X489606Y365044D01*
X489107Y364546D01*
X488838Y363895D01*
Y363190D01*
X489107Y362539D01*
X488939Y362000D01*
X488752Y361813D01*
X488482Y361162D01*
Y360457D01*
X488752Y359806D01*
X489250Y359308D01*
X489901Y359038D01*
X490606D01*
X491257Y359308D01*
X491756Y359806D01*
X492025Y360457D01*
Y361162D01*
X491756Y361813D01*
X491924Y362352D01*
X492111Y362539D01*
X492381Y363190D01*
Y363895D01*
X492111Y364546D01*
X491613Y365044D01*
X490962Y365314D01*
D02*
G37*
G36*
X147312Y361417D02*
X146586D01*
X145885Y361229D01*
X145257Y360867D01*
X144744Y360354D01*
X144381Y359725D01*
X144193Y359024D01*
Y358299D01*
X144381Y357598D01*
X144744Y356969D01*
X145257Y356456D01*
X145885Y356093D01*
X146586Y355906D01*
X147312D01*
X148013Y356093D01*
X148641Y356456D01*
X149154Y356969D01*
X149517Y357598D01*
X149705Y358299D01*
Y359024D01*
X149517Y359725D01*
X149154Y360354D01*
X148641Y360867D01*
X148013Y361229D01*
X147312Y361417D01*
D02*
G37*
G36*
X472935Y361807D02*
X472230D01*
X471579Y361538D01*
X471080Y361039D01*
X470811Y360388D01*
Y359683D01*
X471080Y359032D01*
X471382Y358730D01*
X470939Y358287D01*
X470669Y357636D01*
Y356931D01*
X470939Y356280D01*
X471437Y355782D01*
X472088Y355512D01*
X472793D01*
X473445Y355782D01*
X473943Y356280D01*
X474213Y356931D01*
Y357636D01*
X473943Y358287D01*
X473641Y358589D01*
X474084Y359032D01*
X474354Y359683D01*
Y360388D01*
X474084Y361039D01*
X473586Y361538D01*
X472935Y361807D01*
D02*
G37*
G36*
X246229Y360433D02*
X245503D01*
X244802Y360245D01*
X244174Y359882D01*
X243661Y359369D01*
X243298Y358741D01*
X243110Y358040D01*
Y357314D01*
X243298Y356613D01*
X243661Y355985D01*
X244174Y355472D01*
X244802Y355109D01*
X245503Y354921D01*
X246229D01*
X246930Y355109D01*
X247558Y355472D01*
X248071Y355985D01*
X248434Y356613D01*
X248622Y357314D01*
Y358040D01*
X248434Y358741D01*
X248071Y359369D01*
X247558Y359882D01*
X246930Y360245D01*
X246229Y360433D01*
D02*
G37*
G36*
X542510Y362008D02*
X541269D01*
X540052Y361766D01*
X538906Y361291D01*
X537874Y360601D01*
X536997Y359724D01*
X536307Y358692D01*
X535833Y357546D01*
X535591Y356329D01*
Y355088D01*
X535833Y353871D01*
X536307Y352725D01*
X536997Y351693D01*
X537874Y350816D01*
X538906Y350126D01*
X540052Y349652D01*
X541269Y349409D01*
X542510D01*
X543727Y349652D01*
X544874Y350126D01*
X545905Y350816D01*
X546783Y351693D01*
X547472Y352725D01*
X547947Y353871D01*
X548189Y355088D01*
Y356329D01*
X547947Y357546D01*
X547472Y358692D01*
X546783Y359724D01*
X545905Y360601D01*
X544874Y361291D01*
X543727Y361766D01*
X542510Y362008D01*
D02*
G37*
G36*
X136573Y352362D02*
X135868D01*
X135217Y352093D01*
X134719Y351594D01*
X134449Y350943D01*
Y350238D01*
X134719Y349587D01*
X135217Y349089D01*
X135868Y348819D01*
X136573D01*
X137224Y349089D01*
X137722Y349587D01*
X137992Y350238D01*
Y350943D01*
X137722Y351594D01*
X137224Y352093D01*
X136573Y352362D01*
D02*
G37*
G36*
X234615Y353543D02*
X233889D01*
X233188Y353356D01*
X232560Y352993D01*
X232047Y352480D01*
X231684Y351851D01*
X231496Y351150D01*
Y350425D01*
X231684Y349724D01*
X232047Y349095D01*
X232560Y348582D01*
X233188Y348219D01*
X233889Y348031D01*
X234615D01*
X235316Y348219D01*
X235944Y348582D01*
X236457Y349095D01*
X236820Y349724D01*
X237008Y350425D01*
Y351150D01*
X236820Y351851D01*
X236457Y352480D01*
X235944Y352993D01*
X235316Y353356D01*
X234615Y353543D01*
D02*
G37*
G36*
X491631Y354173D02*
X490927D01*
X490275Y353903D01*
X489777Y353404D01*
X489507Y352753D01*
Y352048D01*
X489777Y351397D01*
X490203Y350971D01*
X490201Y350960D01*
X489702Y350462D01*
X489433Y349811D01*
Y349106D01*
X489702Y348455D01*
X490201Y347957D01*
X490852Y347687D01*
X491557D01*
X492208Y347957D01*
X492706Y348455D01*
X492976Y349106D01*
Y349811D01*
X492706Y350462D01*
X492280Y350888D01*
X492282Y350899D01*
X492781Y351397D01*
X493050Y352048D01*
Y352753D01*
X492781Y353404D01*
X492282Y353903D01*
X491631Y354173D01*
D02*
G37*
G36*
X12852Y349508D02*
X12148D01*
X11496Y349238D01*
X10998Y348740D01*
X10728Y348089D01*
Y347384D01*
X10998Y346733D01*
X11496Y346234D01*
X12148Y345965D01*
X12852D01*
X13504Y346234D01*
X14002Y346733D01*
X14272Y347384D01*
Y348089D01*
X14002Y348740D01*
X13504Y349238D01*
X12852Y349508D01*
D02*
G37*
G36*
X245431Y352362D02*
X244726D01*
X244075Y352093D01*
X243577Y351594D01*
X243307Y350943D01*
Y350238D01*
X243577Y349587D01*
X243772Y349392D01*
X244055Y349065D01*
X243772Y348738D01*
X243577Y348543D01*
X243307Y347892D01*
Y347187D01*
X243577Y346536D01*
X244075Y346037D01*
X244726Y345768D01*
X245431D01*
X246082Y346037D01*
X246581Y346536D01*
X246850Y347187D01*
Y347892D01*
X246581Y348543D01*
X246385Y348738D01*
X246103Y349065D01*
X246385Y349392D01*
X246581Y349587D01*
X246850Y350238D01*
Y350943D01*
X246581Y351594D01*
X246082Y352093D01*
X245431Y352362D01*
D02*
G37*
G36*
X446426Y346752D02*
X445700D01*
X444999Y346564D01*
X444371Y346201D01*
X443962Y345793D01*
X443652Y345730D01*
X443341Y345793D01*
X442932Y346201D01*
X442304Y346564D01*
X441603Y346752D01*
X440877D01*
X440176Y346564D01*
X439548Y346201D01*
X439035Y345688D01*
X438871Y345405D01*
X438294D01*
X438131Y345688D01*
X437617Y346201D01*
X436989Y346564D01*
X436288Y346752D01*
X435562D01*
X434862Y346564D01*
X434233Y346201D01*
X433720Y345688D01*
X433357Y345060D01*
X433169Y344359D01*
Y343633D01*
X433357Y342932D01*
X433720Y342304D01*
X434233Y341791D01*
X434862Y341428D01*
X435562Y341240D01*
X436288D01*
X436989Y341428D01*
X437617Y341791D01*
X438131Y342304D01*
X438294Y342587D01*
X438871D01*
X439035Y342304D01*
X439548Y341791D01*
X440176Y341428D01*
X440877Y341240D01*
X441603D01*
X442304Y341428D01*
X442932Y341791D01*
X443341Y342199D01*
X443652Y342262D01*
X443962Y342199D01*
X444371Y341791D01*
X444999Y341428D01*
X445700Y341240D01*
X446426D01*
X447127Y341428D01*
X447755Y341791D01*
X448268Y342304D01*
X448631Y342932D01*
X448819Y343633D01*
Y344359D01*
X448631Y345060D01*
X448268Y345688D01*
X447755Y346201D01*
X447127Y346564D01*
X446426Y346752D01*
D02*
G37*
G36*
X31258Y349114D02*
X30553D01*
X29902Y348844D01*
X29404Y348346D01*
X29134Y347695D01*
Y346990D01*
X29404Y346339D01*
X29902Y345841D01*
X30553Y345571D01*
X31258D01*
X31909Y345841D01*
X32407Y346339D01*
X32677Y346990D01*
Y347695D01*
X32407Y348346D01*
X31909Y348844D01*
X31258Y349114D01*
D02*
G37*
G36*
X183133Y347252D02*
X182428D01*
X181777Y346982D01*
X181278Y346483D01*
X181009Y345832D01*
Y345128D01*
X181278Y344476D01*
X181777Y343978D01*
X182428Y343708D01*
X183133D01*
X183784Y343978D01*
X184282Y344476D01*
X184552Y345128D01*
Y345832D01*
X184282Y346483D01*
X183784Y346982D01*
X183133Y347252D01*
D02*
G37*
G36*
X40904Y346433D02*
X40199D01*
X39548Y346163D01*
X39049Y345665D01*
X38780Y345014D01*
Y344309D01*
X39049Y343658D01*
X39548Y343160D01*
X40199Y342890D01*
X40904D01*
X41555Y343160D01*
X42053Y343658D01*
X42323Y344309D01*
Y345014D01*
X42053Y345665D01*
X41555Y346163D01*
X40904Y346433D01*
D02*
G37*
G36*
X46839Y346433D02*
X46134D01*
X45483Y346163D01*
X44985Y345665D01*
X44715Y345014D01*
Y344309D01*
X44985Y343658D01*
X45483Y343159D01*
X46134Y342890D01*
X46839D01*
X47490Y343159D01*
X47989Y343658D01*
X48258Y344309D01*
Y345014D01*
X47989Y345665D01*
X47490Y346163D01*
X46839Y346433D01*
D02*
G37*
G36*
X317587Y343012D02*
X316862D01*
X316161Y342824D01*
X315532Y342461D01*
X315061Y341990D01*
X314815Y341939D01*
X314712D01*
X314466Y341990D01*
X313995Y342461D01*
X313367Y342824D01*
X312666Y343012D01*
X311940D01*
X311239Y342824D01*
X310611Y342461D01*
X310098Y341948D01*
X309984Y341750D01*
X309406D01*
X309292Y341948D01*
X308779Y342461D01*
X308150Y342824D01*
X307449Y343012D01*
X306724D01*
X306023Y342824D01*
X305395Y342461D01*
X304881Y341948D01*
X304519Y341320D01*
X304331Y340619D01*
Y339893D01*
X304519Y339192D01*
X304881Y338564D01*
X305395Y338051D01*
X305592Y337936D01*
Y337359D01*
X305395Y337245D01*
X304881Y336732D01*
X304519Y336103D01*
X304331Y335402D01*
Y334677D01*
X304519Y333976D01*
X304881Y333347D01*
X305395Y332834D01*
X306023Y332471D01*
X306724Y332283D01*
X307449D01*
X308150Y332471D01*
X308779Y332834D01*
X309292Y333347D01*
X309463Y333644D01*
X310040D01*
X310098Y333544D01*
X310611Y333031D01*
X311239Y332668D01*
X311940Y332480D01*
X312666D01*
X313367Y332668D01*
X313995Y333031D01*
X314493Y333528D01*
X314562Y333589D01*
X315035D01*
X315118Y333446D01*
X315631Y332932D01*
X316259Y332570D01*
X316960Y332382D01*
X317686D01*
X318387Y332570D01*
X319015Y332932D01*
X319528Y333446D01*
X319891Y334074D01*
X320079Y334775D01*
Y335501D01*
X319891Y336202D01*
X319528Y336830D01*
X319015Y337343D01*
X318853Y337437D01*
Y338014D01*
X318917Y338051D01*
X319430Y338564D01*
X319793Y339192D01*
X319980Y339893D01*
Y340619D01*
X319793Y341320D01*
X319430Y341948D01*
X318917Y342461D01*
X318288Y342824D01*
X317587Y343012D01*
D02*
G37*
G36*
X124469Y345179D02*
X123764D01*
X123113Y344910D01*
X122615Y344411D01*
X122345Y343760D01*
Y343055D01*
X122615Y342404D01*
X123113Y341906D01*
X123764Y341636D01*
X124469D01*
X125120Y341906D01*
X125618Y342404D01*
X125888Y343055D01*
Y343760D01*
X125618Y344411D01*
X125120Y344910D01*
X124469Y345179D01*
D02*
G37*
G36*
X480522Y348218D02*
X479817D01*
X479166Y347948D01*
X478667Y347450D01*
X478398Y346798D01*
Y346094D01*
X478667Y345443D01*
X479166Y344944D01*
X479255Y344497D01*
X479155Y344396D01*
X478885Y343745D01*
Y343040D01*
X479155Y342389D01*
X479653Y341891D01*
X480304Y341621D01*
X481009D01*
X481660Y341891D01*
X482159Y342389D01*
X482428Y343040D01*
Y343745D01*
X482159Y344396D01*
X481660Y344895D01*
X481571Y345342D01*
X481671Y345443D01*
X481941Y346094D01*
Y346798D01*
X481671Y347450D01*
X481173Y347948D01*
X480522Y348218D01*
D02*
G37*
G36*
X221218Y344476D02*
X220514D01*
X219863Y344207D01*
X219364Y343708D01*
X219094Y343057D01*
Y342352D01*
X219364Y341701D01*
X219863Y341203D01*
X220514Y340933D01*
X221218D01*
X221870Y341203D01*
X222368Y341701D01*
X222638Y342352D01*
Y343057D01*
X222368Y343708D01*
X221870Y344207D01*
X221218Y344476D01*
D02*
G37*
G36*
X383650Y340748D02*
X382925D01*
X382224Y340560D01*
X381595Y340197D01*
X381082Y339684D01*
X380800Y339195D01*
X380665Y339156D01*
X380379D01*
X380244Y339195D01*
X379961Y339684D01*
X379448Y340197D01*
X378820Y340560D01*
X378119Y340748D01*
X377393D01*
X376692Y340560D01*
X376064Y340197D01*
X375551Y339684D01*
X375396Y339417D01*
X374819D01*
X374745Y339546D01*
X374232Y340060D01*
X373603Y340422D01*
X372902Y340610D01*
X372177D01*
X371476Y340422D01*
X370847Y340060D01*
X370334Y339546D01*
X369971Y338918D01*
X369783Y338217D01*
Y337491D01*
X369971Y336791D01*
X370334Y336162D01*
X370847Y335649D01*
X371476Y335286D01*
X372177Y335098D01*
X372902D01*
X373603Y335286D01*
X374232Y335649D01*
X374745Y336162D01*
X374899Y336429D01*
X375476D01*
X375551Y336300D01*
X376064Y335787D01*
X376692Y335424D01*
X377393Y335236D01*
X378119D01*
X378820Y335424D01*
X379448Y335787D01*
X379961Y336300D01*
X380244Y336789D01*
X380379Y336829D01*
X380665D01*
X380800Y336789D01*
X381082Y336300D01*
X381595Y335787D01*
X382224Y335424D01*
X382925Y335236D01*
X383650D01*
X384351Y335424D01*
X384980Y335787D01*
X385493Y336300D01*
X385856Y336928D01*
X386043Y337629D01*
Y338355D01*
X385856Y339056D01*
X385493Y339684D01*
X384980Y340197D01*
X384351Y340560D01*
X383650Y340748D01*
D02*
G37*
G36*
X494640Y338996D02*
X493935D01*
X493284Y338726D01*
X492785Y338228D01*
X492516Y337577D01*
Y336872D01*
X492785Y336221D01*
X493284Y335722D01*
X493935Y335453D01*
X494640D01*
X495291Y335722D01*
X495789Y336221D01*
X496059Y336872D01*
Y337577D01*
X495789Y338228D01*
X495291Y338726D01*
X494640Y338996D01*
D02*
G37*
G36*
X471833Y339834D02*
X471129D01*
X470477Y339564D01*
X469979Y339066D01*
X469709Y338415D01*
Y337710D01*
X469979Y337059D01*
X470477Y336560D01*
X470542Y336236D01*
X470349Y336043D01*
X470079Y335392D01*
Y334687D01*
X470349Y334036D01*
X470847Y333537D01*
X471498Y333268D01*
X472203D01*
X472854Y333537D01*
X473352Y334036D01*
X473622Y334687D01*
Y335392D01*
X473352Y336043D01*
X472854Y336541D01*
X472789Y336865D01*
X472983Y337059D01*
X473253Y337710D01*
Y338415D01*
X472983Y339066D01*
X472485Y339564D01*
X471833Y339834D01*
D02*
G37*
G36*
X434801Y334449D02*
X434096D01*
X433445Y334179D01*
X432947Y333681D01*
X432677Y333030D01*
Y332325D01*
X432947Y331674D01*
X433445Y331175D01*
X434096Y330906D01*
X434801D01*
X435452Y331175D01*
X435951Y331674D01*
X436221Y332325D01*
Y333030D01*
X435951Y333681D01*
X435452Y334179D01*
X434801Y334449D01*
D02*
G37*
G36*
X17085Y334154D02*
X16380D01*
X15729Y333884D01*
X15230Y333385D01*
X14961Y332734D01*
Y332030D01*
X15230Y331378D01*
X15729Y330880D01*
X16380Y330610D01*
X17085D01*
X17736Y330880D01*
X18234Y331378D01*
X18504Y332030D01*
Y332734D01*
X18234Y333385D01*
X17736Y333884D01*
X17085Y334154D01*
D02*
G37*
G36*
X28906Y330610D02*
X28181D01*
X27480Y330422D01*
X26851Y330060D01*
X26338Y329546D01*
X25975Y328918D01*
X25787Y328217D01*
Y327491D01*
X25975Y326791D01*
X26338Y326162D01*
X26851Y325649D01*
X27480Y325286D01*
X28181Y325098D01*
X28906D01*
X29607Y325286D01*
X30235Y325649D01*
X30749Y326162D01*
X31111Y326791D01*
X31299Y327491D01*
Y328217D01*
X31111Y328918D01*
X30749Y329546D01*
X30235Y330060D01*
X29607Y330422D01*
X28906Y330610D01*
D02*
G37*
G36*
X512262Y326673D02*
X511557D01*
X510906Y326403D01*
X510407Y325905D01*
X510138Y325254D01*
Y324549D01*
X510407Y323898D01*
X510906Y323400D01*
X511557Y323130D01*
X512262D01*
X512913Y323400D01*
X513411Y323898D01*
X513681Y324549D01*
Y325254D01*
X513411Y325905D01*
X512913Y326403D01*
X512262Y326673D01*
D02*
G37*
G36*
X489034Y325000D02*
X488329D01*
X487677Y324730D01*
X487179Y324232D01*
X486909Y323581D01*
Y322876D01*
X487179Y322225D01*
X487677Y321726D01*
X488329Y321457D01*
X489034D01*
X489685Y321726D01*
X490183Y322225D01*
X490453Y322876D01*
Y323581D01*
X490183Y324232D01*
X489685Y324730D01*
X489034Y325000D01*
D02*
G37*
G36*
X519038Y322794D02*
X518333D01*
X517682Y322525D01*
X517184Y322026D01*
X516914Y321375D01*
Y320670D01*
X517184Y320019D01*
X517682Y319521D01*
X518333Y319251D01*
X519038D01*
X519689Y319521D01*
X520188Y320019D01*
X520457Y320670D01*
Y321375D01*
X520188Y322026D01*
X519689Y322525D01*
X519038Y322794D01*
D02*
G37*
G36*
X124565Y321654D02*
X123860D01*
X123209Y321384D01*
X122711Y320885D01*
X122441Y320234D01*
Y319530D01*
X122711Y318878D01*
X123209Y318380D01*
X123860Y318110D01*
X124565D01*
X125216Y318380D01*
X125715Y318878D01*
X125984Y319530D01*
Y320234D01*
X125715Y320885D01*
X125216Y321384D01*
X124565Y321654D01*
D02*
G37*
G36*
X47596D02*
X46892D01*
X46240Y321384D01*
X45742Y320885D01*
X45472Y320234D01*
Y319530D01*
X45742Y318878D01*
X46240Y318380D01*
X46892Y318110D01*
X47596D01*
X48248Y318380D01*
X48746Y318878D01*
X49016Y319530D01*
Y320234D01*
X48746Y320885D01*
X48248Y321384D01*
X47596Y321654D01*
D02*
G37*
G36*
X59998Y321260D02*
X59293D01*
X58642Y320990D01*
X58144Y320492D01*
X57874Y319841D01*
Y319136D01*
X58144Y318485D01*
X58642Y317986D01*
X59293Y317717D01*
X59998D01*
X60649Y317986D01*
X61148Y318485D01*
X61417Y319136D01*
Y319841D01*
X61148Y320492D01*
X60649Y320990D01*
X59998Y321260D01*
D02*
G37*
G36*
X542510Y330315D02*
X541269D01*
X540052Y330073D01*
X538906Y329598D01*
X537874Y328908D01*
X536997Y328031D01*
X536307Y326999D01*
X535833Y325853D01*
X535591Y324636D01*
Y323395D01*
X535833Y322178D01*
X536307Y321032D01*
X536997Y320000D01*
X537874Y319123D01*
X538906Y318433D01*
X540052Y317958D01*
X541269Y317716D01*
X542510D01*
X543727Y317958D01*
X544874Y318433D01*
X545905Y319123D01*
X546783Y320000D01*
X547472Y321032D01*
X547947Y322178D01*
X548189Y323395D01*
Y324636D01*
X547947Y325853D01*
X547472Y326999D01*
X546783Y328031D01*
X545905Y328908D01*
X544874Y329598D01*
X543727Y330073D01*
X542510Y330315D01*
D02*
G37*
G36*
X103396Y325837D02*
X95029D01*
Y317471D01*
X103396D01*
Y325837D01*
D02*
G37*
G36*
X234713Y321654D02*
X233988D01*
X233287Y321466D01*
X232658Y321103D01*
X232145Y320590D01*
X231782Y319961D01*
X231594Y319260D01*
Y318535D01*
X231782Y317834D01*
X232145Y317206D01*
X232658Y316692D01*
X233287Y316330D01*
X233988Y316142D01*
X234713D01*
X235414Y316330D01*
X236042Y316692D01*
X236556Y317206D01*
X236918Y317834D01*
X237106Y318535D01*
Y319260D01*
X236918Y319961D01*
X236556Y320590D01*
X236042Y321103D01*
X235414Y321466D01*
X234713Y321654D01*
D02*
G37*
G36*
X491888Y318898D02*
X491183D01*
X490532Y318628D01*
X490033Y318129D01*
X489764Y317478D01*
Y316774D01*
X490033Y316122D01*
X490532Y315624D01*
X491183Y315354D01*
X491888D01*
X492539Y315624D01*
X493037Y316122D01*
X493307Y316774D01*
Y317478D01*
X493037Y318129D01*
X492539Y318628D01*
X491888Y318898D01*
D02*
G37*
G36*
X514919Y318504D02*
X514215D01*
X513563Y318234D01*
X513065Y317736D01*
X512795Y317085D01*
Y316380D01*
X513065Y315729D01*
X513563Y315230D01*
X514215Y314961D01*
X514919D01*
X515570Y315230D01*
X516069Y315729D01*
X516339Y316380D01*
Y317085D01*
X516069Y317736D01*
X515570Y318234D01*
X514919Y318504D01*
D02*
G37*
G36*
X28030Y323658D02*
X27325D01*
X26674Y323388D01*
X26175Y322890D01*
X25905Y322239D01*
Y321534D01*
X26175Y320883D01*
X26674Y320385D01*
X27325Y320115D01*
X27714D01*
X27754Y320115D01*
X27820Y319615D01*
X27804Y319611D01*
X27381Y319497D01*
X26753Y319134D01*
X26240Y318621D01*
X25877Y317993D01*
X25689Y317292D01*
Y316566D01*
X25877Y315865D01*
X26240Y315237D01*
X26753Y314724D01*
X27381Y314361D01*
X28082Y314173D01*
X28808D01*
X29509Y314361D01*
X30137Y314724D01*
X30650Y315237D01*
X31013Y315865D01*
X31201Y316566D01*
Y317292D01*
X31013Y317993D01*
X30650Y318621D01*
X30137Y319134D01*
X29509Y319497D01*
X28808Y319685D01*
X28315D01*
X28299Y319685D01*
X28199Y320185D01*
X28238Y320201D01*
X28681Y320385D01*
X29179Y320883D01*
X29449Y321534D01*
Y322239D01*
X29179Y322890D01*
X28681Y323388D01*
X28030Y323658D01*
D02*
G37*
G36*
X66691Y314370D02*
X65986D01*
X65335Y314100D01*
X64837Y313602D01*
X64567Y312951D01*
Y312246D01*
X64837Y311595D01*
X65335Y311097D01*
X65986Y310827D01*
X66691D01*
X67342Y311097D01*
X67840Y311595D01*
X68110Y312246D01*
Y312951D01*
X67840Y313602D01*
X67342Y314100D01*
X66691Y314370D01*
D02*
G37*
G36*
X171776Y313189D02*
X171071D01*
X170420Y312919D01*
X169922Y312421D01*
X169652Y311770D01*
Y311065D01*
X169922Y310414D01*
X170420Y309915D01*
X171071Y309646D01*
X171776D01*
X172427Y309915D01*
X172926Y310414D01*
X173195Y311065D01*
Y311770D01*
X172926Y312421D01*
X172427Y312919D01*
X171776Y313189D01*
D02*
G37*
G36*
X102124Y310827D02*
X101419D01*
X100768Y310557D01*
X100270Y310059D01*
X100000Y309407D01*
Y308703D01*
X100270Y308052D01*
X100768Y307553D01*
X101419Y307283D01*
X102124D01*
X102775Y307553D01*
X103274Y308052D01*
X103543Y308703D01*
Y309407D01*
X103274Y310059D01*
X102775Y310557D01*
X102124Y310827D01*
D02*
G37*
G36*
X542510Y312008D02*
X541269D01*
X540052Y311766D01*
X538906Y311291D01*
X537874Y310601D01*
X536997Y309724D01*
X536307Y308692D01*
X535833Y307546D01*
X535591Y306329D01*
Y305088D01*
X535833Y303871D01*
X536307Y302725D01*
X536997Y301693D01*
X537874Y300816D01*
X538906Y300126D01*
X540052Y299652D01*
X541269Y299409D01*
X542510D01*
X543727Y299652D01*
X544874Y300126D01*
X545905Y300816D01*
X546783Y301693D01*
X547472Y302725D01*
X547947Y303871D01*
X548189Y305088D01*
Y306329D01*
X547947Y307546D01*
X547472Y308692D01*
X546783Y309724D01*
X545905Y310601D01*
X544874Y311291D01*
X543727Y311766D01*
X542510Y312008D01*
D02*
G37*
G36*
X21150Y301025D02*
X20445D01*
X19794Y300756D01*
X19296Y300257D01*
X19026Y299606D01*
Y298901D01*
X19296Y298250D01*
X19794Y297752D01*
X20445Y297482D01*
X21150D01*
X21801Y297752D01*
X22299Y298250D01*
X22569Y298901D01*
Y299606D01*
X22299Y300257D01*
X21801Y300756D01*
X21150Y301025D01*
D02*
G37*
G36*
X66789Y299606D02*
X66085D01*
X65434Y299337D01*
X64935Y298838D01*
X64665Y298187D01*
Y297482D01*
X64935Y296831D01*
X65434Y296333D01*
X66085Y296063D01*
X66789D01*
X67441Y296333D01*
X67939Y296831D01*
X68209Y297482D01*
Y298187D01*
X67939Y298838D01*
X67441Y299337D01*
X66789Y299606D01*
D02*
G37*
G36*
X105963Y299311D02*
X105258D01*
X104607Y299041D01*
X104108Y298543D01*
X103839Y297892D01*
Y297187D01*
X104108Y296536D01*
X104607Y296037D01*
X105258Y295768D01*
X105963D01*
X106614Y296037D01*
X107112Y296536D01*
X107382Y297187D01*
Y297892D01*
X107112Y298543D01*
X106614Y299041D01*
X105963Y299311D01*
D02*
G37*
G36*
X52419Y299213D02*
X51714D01*
X51063Y298943D01*
X50565Y298445D01*
X50295Y297793D01*
Y297089D01*
X50565Y296437D01*
X51063Y295939D01*
X51714Y295669D01*
X52419D01*
X53070Y295939D01*
X53569Y296437D01*
X53839Y297089D01*
Y297793D01*
X53569Y298445D01*
X53070Y298943D01*
X52419Y299213D01*
D02*
G37*
G36*
X245431Y299803D02*
X244726D01*
X244075Y299533D01*
X243577Y299035D01*
X243307Y298384D01*
Y297679D01*
X243577Y297028D01*
X243772Y296832D01*
X244055Y296506D01*
X243772Y296179D01*
X243577Y295984D01*
X243307Y295333D01*
Y294628D01*
X243577Y293977D01*
X244075Y293478D01*
X244726Y293209D01*
X245431D01*
X246082Y293478D01*
X246581Y293977D01*
X246850Y294628D01*
Y295333D01*
X246581Y295984D01*
X246385Y296179D01*
X246103Y296506D01*
X246385Y296832D01*
X246581Y297028D01*
X246850Y297679D01*
Y298384D01*
X246581Y299035D01*
X246082Y299533D01*
X245431Y299803D01*
D02*
G37*
G36*
X234713Y296260D02*
X233988D01*
X233287Y296072D01*
X232658Y295709D01*
X232145Y295196D01*
X231782Y294568D01*
X231594Y293867D01*
Y293141D01*
X231782Y292440D01*
X232145Y291812D01*
X232658Y291299D01*
X233287Y290936D01*
X233988Y290748D01*
X234713D01*
X235414Y290936D01*
X236042Y291299D01*
X236556Y291812D01*
X236918Y292440D01*
X237106Y293141D01*
Y293867D01*
X236918Y294568D01*
X236556Y295196D01*
X236042Y295709D01*
X235414Y296072D01*
X234713Y296260D01*
D02*
G37*
G36*
X179486Y293012D02*
X178781D01*
X178130Y292742D01*
X177632Y292244D01*
X177362Y291593D01*
Y290888D01*
X177632Y290237D01*
X178130Y289738D01*
X178781Y289469D01*
X179486D01*
X180137Y289738D01*
X180636Y290237D01*
X180905Y290888D01*
Y291593D01*
X180636Y292244D01*
X180137Y292742D01*
X179486Y293012D01*
D02*
G37*
G36*
X378867Y312008D02*
X377039D01*
X375233Y311722D01*
X373495Y311157D01*
X371866Y310327D01*
X370387Y309253D01*
X369094Y307960D01*
X368019Y306481D01*
X367190Y304852D01*
X366625Y303113D01*
X366339Y301308D01*
Y299480D01*
X366625Y297674D01*
X367190Y295935D01*
X368019Y294307D01*
X369094Y292828D01*
X370387Y291535D01*
X371866Y290460D01*
X373495Y289630D01*
X375233Y289066D01*
X377039Y288779D01*
X378867D01*
X380672Y289066D01*
X382411Y289630D01*
X384040Y290460D01*
X385519Y291535D01*
X386811Y292828D01*
X387886Y294307D01*
X388716Y295935D01*
X389281Y297674D01*
X389567Y299480D01*
Y301308D01*
X389281Y303113D01*
X388716Y304852D01*
X387886Y306481D01*
X386811Y307960D01*
X385519Y309253D01*
X384040Y310327D01*
X382411Y311157D01*
X380672Y311722D01*
X378867Y312008D01*
D02*
G37*
G36*
X280442D02*
X278613D01*
X276808Y311722D01*
X275069Y311157D01*
X273440Y310327D01*
X271961Y309253D01*
X270669Y307960D01*
X269594Y306481D01*
X268764Y304852D01*
X268199Y303113D01*
X267913Y301308D01*
Y299480D01*
X268199Y297674D01*
X268764Y295935D01*
X269594Y294307D01*
X270669Y292828D01*
X271961Y291535D01*
X273440Y290460D01*
X275069Y289630D01*
X276808Y289066D01*
X278613Y288779D01*
X280442D01*
X282247Y289066D01*
X283986Y289630D01*
X285615Y290460D01*
X287094Y291535D01*
X288386Y292828D01*
X289461Y294307D01*
X290291Y295935D01*
X290856Y297674D01*
X291142Y299480D01*
Y301308D01*
X290856Y303113D01*
X290291Y304852D01*
X289461Y306481D01*
X288386Y307960D01*
X287094Y309253D01*
X285615Y310327D01*
X283986Y311157D01*
X282247Y311722D01*
X280442Y312008D01*
D02*
G37*
G36*
X97006Y292028D02*
X96301D01*
X95650Y291758D01*
X95152Y291260D01*
X94882Y290608D01*
Y289903D01*
X95152Y289252D01*
X95650Y288754D01*
X96301Y288484D01*
X97006D01*
X97657Y288754D01*
X98155Y289252D01*
X98425Y289903D01*
Y290608D01*
X98155Y291260D01*
X97657Y291758D01*
X97006Y292028D01*
D02*
G37*
G36*
X416754Y291021D02*
X416049D01*
X415398Y290751D01*
X414899Y290253D01*
X414630Y289602D01*
Y288897D01*
X414899Y288246D01*
X415398Y287747D01*
X416049Y287477D01*
X416754D01*
X417405Y287747D01*
X417903Y288246D01*
X418173Y288897D01*
Y289602D01*
X417903Y290253D01*
X417405Y290751D01*
X416754Y291021D01*
D02*
G37*
G36*
X454123Y287245D02*
X453419D01*
X452768Y286975D01*
X452269Y286477D01*
X451999Y285825D01*
Y285121D01*
X452269Y284470D01*
X452768Y283971D01*
X453419Y283701D01*
X454123D01*
X454775Y283971D01*
X455273Y284470D01*
X455543Y285121D01*
Y285825D01*
X455273Y286477D01*
X454775Y286975D01*
X454123Y287245D01*
D02*
G37*
G36*
X192675Y286122D02*
X191970D01*
X191319Y285852D01*
X190821Y285354D01*
X190551Y284703D01*
Y283998D01*
X190821Y283347D01*
X191319Y282849D01*
X191970Y282579D01*
X192675D01*
X193326Y282849D01*
X193825Y283347D01*
X194095Y283998D01*
Y284703D01*
X193825Y285354D01*
X193326Y285852D01*
X192675Y286122D01*
D02*
G37*
G36*
X317970Y285039D02*
X317266D01*
X316615Y284770D01*
X316116Y284271D01*
X315846Y283620D01*
Y282915D01*
X316116Y282264D01*
X316615Y281766D01*
X317266Y281496D01*
X317970D01*
X318622Y281766D01*
X319120Y282264D01*
X319390Y282915D01*
Y283620D01*
X319120Y284271D01*
X318622Y284770D01*
X317970Y285039D01*
D02*
G37*
G36*
X-19923Y280020D02*
X-20628D01*
X-21279Y279750D01*
X-21778Y279252D01*
X-22047Y278600D01*
Y277896D01*
X-21778Y277244D01*
X-21279Y276746D01*
X-20628Y276476D01*
X-19923D01*
X-19272Y276746D01*
X-18774Y277244D01*
X-18504Y277896D01*
Y278600D01*
X-18774Y279252D01*
X-19272Y279750D01*
X-19923Y280020D01*
D02*
G37*
G36*
X173285Y279724D02*
X172581D01*
X171930Y279455D01*
X171431Y278956D01*
X171161Y278305D01*
Y277600D01*
X171431Y276949D01*
X171930Y276451D01*
X172581Y276181D01*
X173285D01*
X173937Y276451D01*
X174435Y276949D01*
X174705Y277600D01*
Y278305D01*
X174435Y278956D01*
X173937Y279455D01*
X173285Y279724D01*
D02*
G37*
G36*
X311278Y278740D02*
X310573D01*
X309922Y278470D01*
X309423Y277972D01*
X309154Y277321D01*
Y276616D01*
X309423Y275965D01*
X309922Y275467D01*
X310573Y275197D01*
X311278D01*
X311929Y275467D01*
X312427Y275965D01*
X312697Y276616D01*
Y277321D01*
X312427Y277972D01*
X311929Y278470D01*
X311278Y278740D01*
D02*
G37*
G36*
X528164Y283313D02*
X526950D01*
X525777Y282999D01*
X524725Y282392D01*
X523866Y281533D01*
X523259Y280481D01*
X522945Y279308D01*
Y278094D01*
X523259Y276921D01*
X523866Y275869D01*
X524725Y275010D01*
X525777Y274403D01*
X526950Y274088D01*
X528164D01*
X529338Y274403D01*
X530389Y275010D01*
X531248Y275869D01*
X531855Y276921D01*
X532169Y278094D01*
Y279308D01*
X531855Y280481D01*
X531248Y281533D01*
X530389Y282392D01*
X529338Y282999D01*
X528164Y283313D01*
D02*
G37*
G36*
X488164D02*
X486950D01*
X485777Y282999D01*
X484725Y282392D01*
X483866Y281533D01*
X483259Y280481D01*
X482945Y279308D01*
Y278094D01*
X483259Y276921D01*
X483866Y275869D01*
X484725Y275010D01*
X485777Y274403D01*
X486950Y274088D01*
X488164D01*
X489337Y274403D01*
X490389Y275010D01*
X491248Y275869D01*
X491855Y276921D01*
X492170Y278094D01*
Y279308D01*
X491855Y280481D01*
X491248Y281533D01*
X490389Y282392D01*
X489337Y282999D01*
X488164Y283313D01*
D02*
G37*
G36*
X343758Y276673D02*
X343053D01*
X342402Y276404D01*
X341904Y275905D01*
X341634Y275254D01*
Y274549D01*
X341904Y273898D01*
X342402Y273400D01*
X343053Y273130D01*
X343758D01*
X344409Y273400D01*
X344907Y273898D01*
X345177Y274549D01*
Y275254D01*
X344907Y275905D01*
X344409Y276404D01*
X343758Y276673D01*
D02*
G37*
G36*
X338033Y276312D02*
X337328D01*
X336677Y276043D01*
X336179Y275544D01*
X335909Y274893D01*
Y274188D01*
X336179Y273537D01*
X336677Y273039D01*
X337328Y272769D01*
X338033D01*
X338684Y273039D01*
X339183Y273537D01*
X339453Y274188D01*
Y274893D01*
X339183Y275544D01*
X338684Y276043D01*
X338033Y276312D01*
D02*
G37*
G36*
X320369Y274016D02*
X319664D01*
X319013Y273746D01*
X318515Y273248D01*
X318245Y272597D01*
Y271892D01*
X318515Y271241D01*
X319013Y270742D01*
X319664Y270473D01*
X320369D01*
X321020Y270742D01*
X321519Y271241D01*
X321788Y271892D01*
Y272597D01*
X321519Y273248D01*
X321020Y273746D01*
X320369Y274016D01*
D02*
G37*
G36*
X325750Y274016D02*
X325046D01*
X324394Y273746D01*
X323896Y273248D01*
X323626Y272597D01*
Y271892D01*
X323896Y271241D01*
X324394Y270742D01*
X325046Y270473D01*
X325750D01*
X326402Y270742D01*
X326900Y271241D01*
X327170Y271892D01*
Y272597D01*
X326900Y273248D01*
X326402Y273746D01*
X325750Y274016D01*
D02*
G37*
G36*
X330274Y273425D02*
X329569D01*
X328918Y273155D01*
X328419Y272657D01*
X328150Y272006D01*
Y271301D01*
X328419Y270650D01*
X328918Y270152D01*
X329569Y269882D01*
X330274D01*
X330925Y270152D01*
X331423Y270650D01*
X331693Y271301D01*
Y272006D01*
X331423Y272657D01*
X330925Y273155D01*
X330274Y273425D01*
D02*
G37*
G36*
X56356Y272047D02*
X55651D01*
X55000Y271778D01*
X54502Y271279D01*
X54232Y270628D01*
Y269923D01*
X54502Y269272D01*
X55000Y268774D01*
X55651Y268504D01*
X56356D01*
X57007Y268774D01*
X57506Y269272D01*
X57776Y269923D01*
Y270628D01*
X57506Y271279D01*
X57007Y271778D01*
X56356Y272047D01*
D02*
G37*
G36*
X167208Y268103D02*
X166503D01*
X165852Y267833D01*
X165353Y267335D01*
X165084Y266684D01*
Y265979D01*
X165353Y265328D01*
X165852Y264829D01*
X166503Y264560D01*
X167208D01*
X167859Y264829D01*
X168357Y265328D01*
X168627Y265979D01*
Y266684D01*
X168357Y267335D01*
X167859Y267833D01*
X167208Y268103D01*
D02*
G37*
G36*
X194447Y266732D02*
X193742D01*
X193091Y266463D01*
X192593Y265964D01*
X192323Y265313D01*
Y264608D01*
X192593Y263957D01*
X193091Y263459D01*
X193742Y263189D01*
X194447D01*
X195098Y263459D01*
X195596Y263957D01*
X195866Y264608D01*
Y265313D01*
X195596Y265964D01*
X195098Y266463D01*
X194447Y266732D01*
D02*
G37*
G36*
X-25598Y264089D02*
X-26303D01*
X-26954Y263819D01*
X-27452Y263321D01*
X-27722Y262670D01*
Y261965D01*
X-27452Y261314D01*
X-26954Y260815D01*
X-26303Y260546D01*
X-25598D01*
X-24947Y260815D01*
X-24449Y261314D01*
X-24179Y261965D01*
Y262670D01*
X-24449Y263321D01*
X-24947Y263819D01*
X-25598Y264089D01*
D02*
G37*
G36*
X387104Y263386D02*
X386399D01*
X385748Y263116D01*
X385249Y262618D01*
X384980Y261967D01*
Y261262D01*
X385249Y260611D01*
X385748Y260112D01*
X386399Y259842D01*
X387104D01*
X387755Y260112D01*
X388253Y260611D01*
X388523Y261262D01*
Y261967D01*
X388253Y262618D01*
X387755Y263116D01*
X387104Y263386D01*
D02*
G37*
G36*
X-20251Y263189D02*
X-20955D01*
X-21607Y262919D01*
X-22105Y262421D01*
X-22375Y261770D01*
Y261065D01*
X-22105Y260414D01*
X-21607Y259915D01*
X-20955Y259646D01*
X-20251D01*
X-19599Y259915D01*
X-19101Y260414D01*
X-18831Y261065D01*
Y261770D01*
X-19101Y262421D01*
X-19599Y262919D01*
X-20251Y263189D01*
D02*
G37*
G36*
X-6798Y262913D02*
X-7503D01*
X-8155Y262643D01*
X-8653Y262145D01*
X-8923Y261493D01*
Y260789D01*
X-8653Y260137D01*
X-8155Y259639D01*
X-7503Y259369D01*
X-6798D01*
X-6147Y259639D01*
X-5649Y260137D01*
X-5379Y260789D01*
Y261493D01*
X-5649Y262145D01*
X-6147Y262643D01*
X-6798Y262913D01*
D02*
G37*
G36*
X10687Y262894D02*
X9982D01*
X9331Y262624D01*
X8833Y262126D01*
X8563Y261474D01*
Y260770D01*
X8833Y260119D01*
X9331Y259620D01*
X9982Y259350D01*
X10687D01*
X11338Y259620D01*
X11837Y260119D01*
X12106Y260770D01*
Y261474D01*
X11837Y262126D01*
X11338Y262624D01*
X10687Y262894D01*
D02*
G37*
G36*
X346907Y255709D02*
X346203D01*
X345552Y255439D01*
X345194Y255081D01*
X344882Y254990D01*
X344570Y255081D01*
X344212Y255439D01*
X343561Y255709D01*
X342856D01*
X342205Y255439D01*
X341707Y254941D01*
X341437Y254289D01*
Y253585D01*
X341707Y252933D01*
X342205Y252435D01*
X342856Y252165D01*
X343561D01*
X344212Y252435D01*
X344570Y252793D01*
X344882Y252884D01*
X345194Y252793D01*
X345552Y252435D01*
X346203Y252165D01*
X346907D01*
X347559Y252435D01*
X348057Y252933D01*
X348327Y253585D01*
Y254289D01*
X348057Y254941D01*
X347559Y255439D01*
X346907Y255709D01*
D02*
G37*
G36*
X-7226Y258465D02*
X-7931D01*
X-8582Y258195D01*
X-9081Y257697D01*
X-9350Y257045D01*
Y256341D01*
X-9081Y255689D01*
X-8582Y255191D01*
X-7931Y254921D01*
X-7226D01*
X-6575Y255191D01*
X-6077Y255689D01*
X-5807Y256341D01*
Y257045D01*
X-6077Y257697D01*
X-6575Y258195D01*
X-7226Y258465D01*
D02*
G37*
G36*
X10490Y257874D02*
X9785D01*
X9134Y257604D01*
X8636Y257106D01*
X8366Y256455D01*
Y255750D01*
X8636Y255099D01*
X9134Y254600D01*
X9785Y254331D01*
X10490D01*
X11141Y254600D01*
X11640Y255099D01*
X11909Y255750D01*
Y256455D01*
X11640Y257106D01*
X11141Y257604D01*
X10490Y257874D01*
D02*
G37*
G36*
X391201Y257762D02*
X390496D01*
X389845Y257492D01*
X389347Y256994D01*
X389077Y256342D01*
Y255638D01*
X389347Y254987D01*
X389845Y254488D01*
X390496Y254218D01*
X391201D01*
X391852Y254488D01*
X392350Y254987D01*
X392620Y255638D01*
Y256342D01*
X392350Y256994D01*
X391852Y257492D01*
X391201Y257762D01*
D02*
G37*
G36*
X106356Y257579D02*
X105651D01*
X105000Y257309D01*
X104502Y256811D01*
X104232Y256159D01*
Y255455D01*
X104502Y254803D01*
X105000Y254305D01*
X105651Y254035D01*
X106356D01*
X107008Y254305D01*
X107506Y254803D01*
X107776Y255455D01*
Y256159D01*
X107506Y256811D01*
X107008Y257309D01*
X106356Y257579D01*
D02*
G37*
G36*
X327616Y257185D02*
X326911D01*
X326260Y256915D01*
X325762Y256417D01*
X325492Y255766D01*
Y255061D01*
X325762Y254410D01*
X326260Y253911D01*
X326911Y253642D01*
X327616D01*
X328267Y253911D01*
X328766Y254410D01*
X329035Y255061D01*
Y255766D01*
X328766Y256417D01*
X328267Y256915D01*
X327616Y257185D01*
D02*
G37*
G36*
X-35877Y259077D02*
X-36582D01*
X-37233Y258807D01*
X-37732Y258309D01*
X-38001Y257658D01*
Y256953D01*
X-37732Y256301D01*
X-37233Y255803D01*
X-36582Y255533D01*
X-36464Y255357D01*
X-36568Y255107D01*
Y254402D01*
X-36298Y253751D01*
X-35800Y253253D01*
X-35148Y252983D01*
X-34444D01*
X-33792Y253253D01*
X-33294Y253751D01*
X-33024Y254402D01*
Y255107D01*
X-33294Y255758D01*
X-33792Y256257D01*
X-34444Y256526D01*
X-34561Y256703D01*
X-34458Y256953D01*
Y257658D01*
X-34728Y258309D01*
X-35226Y258807D01*
X-35877Y259077D01*
D02*
G37*
G36*
X184506Y255512D02*
X183801D01*
X183150Y255242D01*
X182652Y254744D01*
X182382Y254093D01*
Y253388D01*
X182652Y252737D01*
X183150Y252238D01*
X183801Y251969D01*
X184506D01*
X185157Y252238D01*
X185655Y252737D01*
X185925Y253388D01*
Y254093D01*
X185655Y254744D01*
X185157Y255242D01*
X184506Y255512D01*
D02*
G37*
G36*
X503250Y266132D02*
X501786D01*
X500350Y265846D01*
X498998Y265286D01*
X497781Y264473D01*
X496746Y263438D01*
X495932Y262221D01*
X495372Y260868D01*
X495087Y259433D01*
Y257969D01*
X495372Y256533D01*
X495932Y255181D01*
X496746Y253964D01*
X497781Y252929D01*
X498998Y252116D01*
X500350Y251555D01*
X501786Y251270D01*
X503250D01*
X504685Y251555D01*
X506038Y252116D01*
X507255Y252929D01*
X508290Y253964D01*
X509103Y255181D01*
X509663Y256533D01*
X509949Y257969D01*
Y259433D01*
X509663Y260868D01*
X509103Y262221D01*
X508290Y263438D01*
X507255Y264473D01*
X506038Y265286D01*
X504685Y265846D01*
X503250Y266132D01*
D02*
G37*
G36*
X237360Y250394D02*
X236655D01*
X236004Y250124D01*
X235581Y249700D01*
X235157Y250124D01*
X234506Y250394D01*
X233801D01*
X233150Y250124D01*
X232905Y249879D01*
X232579Y249672D01*
X232252Y249879D01*
X232008Y250124D01*
X231356Y250394D01*
X230651D01*
X230000Y250124D01*
X229502Y249626D01*
X229232Y248974D01*
Y248270D01*
X229502Y247619D01*
X230000Y247120D01*
X230651Y246850D01*
X231356D01*
X232008Y247120D01*
X232252Y247365D01*
X232579Y247572D01*
X232905Y247365D01*
X233150Y247120D01*
X233801Y246850D01*
X234506D01*
X235157Y247120D01*
X235581Y247544D01*
X236004Y247120D01*
X236655Y246850D01*
X237360D01*
X238011Y247120D01*
X238510Y247619D01*
X238779Y248270D01*
Y248974D01*
X238510Y249626D01*
X238011Y250124D01*
X237360Y250394D01*
D02*
G37*
G36*
X-10419Y250956D02*
X-11124D01*
X-11775Y250686D01*
X-12273Y250188D01*
X-12543Y249537D01*
Y248832D01*
X-12273Y248181D01*
X-11775Y247682D01*
X-11124Y247413D01*
X-10419D01*
X-9768Y247682D01*
X-9269Y248181D01*
X-9000Y248832D01*
Y249537D01*
X-9269Y250188D01*
X-9768Y250686D01*
X-10419Y250956D01*
D02*
G37*
G36*
X-30711Y253543D02*
X-31416D01*
X-32067Y253274D01*
X-32565Y252775D01*
X-32835Y252124D01*
Y251419D01*
X-32565Y250768D01*
X-32185Y250388D01*
X-32067Y250270D01*
X-31954Y249738D01*
X-32061Y249479D01*
Y248774D01*
X-31792Y248123D01*
X-31293Y247624D01*
X-30642Y247355D01*
X-29937D01*
X-29286Y247624D01*
X-28788Y248123D01*
X-28518Y248774D01*
Y249479D01*
X-28788Y250130D01*
X-29168Y250510D01*
X-29286Y250628D01*
X-29399Y251160D01*
X-29291Y251419D01*
Y252124D01*
X-29561Y252775D01*
X-30059Y253274D01*
X-30711Y253543D01*
D02*
G37*
G36*
X-4963Y250197D02*
X-5667D01*
X-6318Y249927D01*
X-6817Y249429D01*
X-7087Y248778D01*
Y248073D01*
X-6817Y247422D01*
X-6318Y246923D01*
X-5667Y246654D01*
X-4963D01*
X-4311Y246923D01*
X-3813Y247422D01*
X-3543Y248073D01*
Y248778D01*
X-3813Y249429D01*
X-4311Y249927D01*
X-4963Y250197D01*
D02*
G37*
G36*
X12892Y246260D02*
X12187D01*
X11536Y245990D01*
X11112Y245567D01*
X10689Y245990D01*
X10037Y246260D01*
X9333D01*
X8681Y245990D01*
X8183Y245492D01*
X7913Y244841D01*
Y244136D01*
X8183Y243485D01*
X8428Y243240D01*
X8635Y242913D01*
X8428Y242587D01*
X8183Y242342D01*
X7913Y241691D01*
Y240986D01*
X8183Y240335D01*
X8428Y240090D01*
X8635Y239764D01*
X8428Y239437D01*
X8183Y239193D01*
X7913Y238541D01*
Y237837D01*
X8183Y237185D01*
X8681Y236687D01*
X9333Y236417D01*
X10037D01*
X10689Y236687D01*
X11112Y237111D01*
X11536Y236687D01*
X12187Y236417D01*
X12892D01*
X13543Y236687D01*
X14041Y237185D01*
X14311Y237837D01*
Y238541D01*
X14041Y239193D01*
X13797Y239437D01*
X13589Y239764D01*
X13797Y240090D01*
X14041Y240335D01*
X14311Y240986D01*
Y241691D01*
X14041Y242342D01*
X13797Y242587D01*
X13589Y242913D01*
X13797Y243240D01*
X14041Y243485D01*
X14311Y244136D01*
Y244841D01*
X14041Y245492D01*
X13543Y245990D01*
X12892Y246260D01*
D02*
G37*
G36*
X320027Y251673D02*
X319322D01*
X318671Y251403D01*
X318173Y250905D01*
X317903Y250254D01*
Y249549D01*
X318173Y248898D01*
X318671Y248400D01*
X319072Y248234D01*
X322327Y244978D01*
X322848Y244630D01*
X323463Y244508D01*
X330941D01*
X331342Y244342D01*
X332047D01*
X332698Y244612D01*
X333196Y245110D01*
X333466Y245761D01*
Y246466D01*
X333196Y247117D01*
X332698Y247616D01*
X332047Y247885D01*
X331342D01*
X330941Y247719D01*
X324128D01*
X321343Y250504D01*
X321177Y250905D01*
X320678Y251403D01*
X320027Y251673D01*
D02*
G37*
G36*
X-34530Y246850D02*
X-35234D01*
X-35885Y246581D01*
X-36384Y246082D01*
X-36654Y245431D01*
Y244726D01*
X-36384Y244075D01*
X-35885Y243577D01*
X-35234Y243307D01*
X-34530D01*
X-33878Y243577D01*
X-33380Y244075D01*
X-33110Y244726D01*
Y245431D01*
X-33380Y246082D01*
X-33878Y246581D01*
X-34530Y246850D01*
D02*
G37*
G36*
X-19431Y244291D02*
X-20136D01*
X-20787Y244022D01*
X-21285Y243523D01*
X-21555Y242872D01*
Y242167D01*
X-21285Y241516D01*
X-20787Y241018D01*
X-20136Y240748D01*
X-19431D01*
X-18780Y241018D01*
X-18282Y241516D01*
X-18012Y242167D01*
Y242872D01*
X-18282Y243523D01*
X-18780Y244022D01*
X-19431Y244291D01*
D02*
G37*
G36*
X159506Y241634D02*
X158801D01*
X158150Y241364D01*
X157652Y240866D01*
X157382Y240215D01*
Y239510D01*
X157652Y238859D01*
X158150Y238360D01*
X158801Y238090D01*
X159506D01*
X160157Y238360D01*
X160655Y238859D01*
X160925Y239510D01*
Y240215D01*
X160655Y240866D01*
X160157Y241364D01*
X159506Y241634D01*
D02*
G37*
G36*
X-34530Y240709D02*
X-35234D01*
X-35885Y240439D01*
X-36384Y239941D01*
X-36654Y239289D01*
Y238585D01*
X-36384Y237933D01*
X-35885Y237435D01*
X-35234Y237165D01*
X-34530D01*
X-33878Y237435D01*
X-33380Y237933D01*
X-33110Y238585D01*
Y239289D01*
X-33380Y239941D01*
X-33878Y240439D01*
X-34530Y240709D01*
D02*
G37*
G36*
X-28191Y237992D02*
X-28896D01*
X-29547Y237722D01*
X-30045Y237224D01*
X-30315Y236573D01*
Y235868D01*
X-30045Y235217D01*
X-29547Y234718D01*
X-28896Y234449D01*
X-28191D01*
X-27540Y234718D01*
X-27041Y235217D01*
X-26772Y235868D01*
Y236573D01*
X-27041Y237224D01*
X-27540Y237722D01*
X-28191Y237992D01*
D02*
G37*
G36*
X528164Y243313D02*
X526950D01*
X525777Y242999D01*
X524725Y242392D01*
X523866Y241533D01*
X523259Y240481D01*
X522945Y239308D01*
Y238094D01*
X523259Y236920D01*
X523866Y235869D01*
X524725Y235010D01*
X525777Y234403D01*
X526950Y234088D01*
X528164D01*
X529338Y234403D01*
X530389Y235010D01*
X531248Y235869D01*
X531855Y236920D01*
X532169Y238094D01*
Y239308D01*
X531855Y240481D01*
X531248Y241533D01*
X530389Y242392D01*
X529338Y242999D01*
X528164Y243313D01*
D02*
G37*
G36*
X488164D02*
X486950D01*
X485777Y242999D01*
X484725Y242392D01*
X483866Y241533D01*
X483259Y240481D01*
X482945Y239308D01*
Y238094D01*
X483259Y236920D01*
X483866Y235869D01*
X484725Y235010D01*
X485777Y234403D01*
X486950Y234088D01*
X488164D01*
X489337Y234403D01*
X490389Y235010D01*
X491248Y235869D01*
X491855Y236920D01*
X492170Y238094D01*
Y239308D01*
X491855Y240481D01*
X491248Y241533D01*
X490389Y242392D01*
X489337Y242999D01*
X488164Y243313D01*
D02*
G37*
G36*
X23248Y235175D02*
X22544D01*
X21892Y234905D01*
X21394Y234407D01*
X21124Y233756D01*
Y233051D01*
X21394Y232400D01*
X21892Y231901D01*
X22544Y231632D01*
X23248D01*
X23900Y231901D01*
X24398Y232400D01*
X24668Y233051D01*
Y233756D01*
X24398Y234407D01*
X23900Y234905D01*
X23248Y235175D01*
D02*
G37*
G36*
X318167Y231693D02*
X317463D01*
X316811Y231423D01*
X316683Y231295D01*
X316555Y231423D01*
X315904Y231693D01*
X315199D01*
X314548Y231423D01*
X314222Y231098D01*
X313996Y231325D01*
X313345Y231594D01*
X312640D01*
X311989Y231325D01*
X311860Y231196D01*
X311732Y231325D01*
X311081Y231594D01*
X310376D01*
X309725Y231325D01*
X309547Y231147D01*
X309370Y231325D01*
X308718Y231594D01*
X308014D01*
X307363Y231325D01*
X307185Y231147D01*
X307008Y231325D01*
X306356Y231594D01*
X305651D01*
X305000Y231325D01*
X304502Y230826D01*
X304232Y230175D01*
Y229470D01*
X304502Y228819D01*
X305000Y228321D01*
X305306Y228194D01*
Y227653D01*
X304902Y227486D01*
X304404Y226988D01*
X304134Y226337D01*
Y225632D01*
X304404Y224981D01*
X304532Y224852D01*
X304404Y224724D01*
X304134Y224073D01*
Y223368D01*
X304404Y222717D01*
X304532Y222589D01*
X304404Y222460D01*
X304134Y221809D01*
Y221104D01*
X304404Y220453D01*
X304581Y220276D01*
X304404Y220098D01*
X304134Y219447D01*
Y218742D01*
X304404Y218091D01*
X304902Y217593D01*
X305256Y217446D01*
Y216905D01*
X304902Y216758D01*
X304404Y216260D01*
X304134Y215608D01*
Y214903D01*
X304404Y214252D01*
X304902Y213754D01*
X305553Y213484D01*
X306258D01*
X306909Y213754D01*
X307087Y213931D01*
X307363Y213655D01*
X308014Y213386D01*
X308719D01*
X309370Y213655D01*
X309744Y214030D01*
X310119Y213655D01*
X310770Y213386D01*
X311474D01*
X312126Y213655D01*
X312352Y213882D01*
X312579Y213655D01*
X313230Y213386D01*
X313935D01*
X314586Y213655D01*
X314764Y213833D01*
X314843Y213754D01*
X315494Y213484D01*
X316199D01*
X316850Y213754D01*
X316978Y213882D01*
X317107Y213754D01*
X317758Y213484D01*
X318463D01*
X319114Y213754D01*
X319612Y214252D01*
X319882Y214903D01*
Y215608D01*
X319612Y216260D01*
X319385Y216486D01*
X319514Y216615D01*
X319783Y217266D01*
Y217970D01*
X319514Y218622D01*
X319287Y218848D01*
X319514Y219075D01*
X319783Y219726D01*
Y220431D01*
X319514Y221082D01*
X319189Y221408D01*
X319415Y221634D01*
X319685Y222285D01*
Y222990D01*
X319415Y223641D01*
X319139Y223917D01*
X319415Y224193D01*
X319685Y224845D01*
Y225549D01*
X319415Y226200D01*
X319189Y226427D01*
X319317Y226555D01*
X319587Y227207D01*
Y227911D01*
X319317Y228563D01*
X319139Y228740D01*
X319317Y228918D01*
X319587Y229569D01*
Y230274D01*
X319317Y230925D01*
X318818Y231423D01*
X318167Y231693D01*
D02*
G37*
G36*
X-31931Y234646D02*
X-32636D01*
X-33287Y234376D01*
X-33785Y233878D01*
X-34055Y233226D01*
Y232522D01*
X-33785Y231871D01*
X-33287Y231372D01*
X-32636Y231102D01*
X-31931D01*
X-31280Y231372D01*
X-30781Y231871D01*
X-30512Y232522D01*
Y233226D01*
X-30781Y233878D01*
X-31280Y234376D01*
X-31931Y234646D01*
D02*
G37*
G36*
X18994Y234547D02*
X18289D01*
X17638Y234278D01*
X17140Y233779D01*
X16870Y233128D01*
Y232423D01*
X17140Y231772D01*
X17638Y231274D01*
X18289Y231004D01*
X18994D01*
X19645Y231274D01*
X20144Y231772D01*
X20413Y232423D01*
Y233128D01*
X20144Y233779D01*
X19645Y234278D01*
X18994Y234547D01*
D02*
G37*
G36*
X234713Y234252D02*
X233988D01*
X233287Y234064D01*
X232658Y233701D01*
X232145Y233188D01*
X231782Y232560D01*
X231594Y231859D01*
Y231133D01*
X231782Y230432D01*
X232145Y229804D01*
X232658Y229291D01*
X233287Y228928D01*
X233988Y228740D01*
X234713D01*
X235414Y228928D01*
X236042Y229291D01*
X236556Y229804D01*
X236918Y230432D01*
X237106Y231133D01*
Y231859D01*
X236918Y232560D01*
X236556Y233188D01*
X236042Y233701D01*
X235414Y234064D01*
X234713Y234252D01*
D02*
G37*
G36*
X-32915Y229823D02*
X-33620D01*
X-34271Y229553D01*
X-34770Y229055D01*
X-35039Y228404D01*
Y227699D01*
X-34770Y227048D01*
X-34271Y226549D01*
X-33620Y226279D01*
X-32915D01*
X-32264Y226549D01*
X-31766Y227048D01*
X-31496Y227699D01*
Y228404D01*
X-31766Y229055D01*
X-32264Y229553D01*
X-32915Y229823D01*
D02*
G37*
G36*
X19545Y228937D02*
X18841D01*
X18189Y228667D01*
X17691Y228169D01*
X17421Y227518D01*
Y226813D01*
X17691Y226162D01*
X18189Y225663D01*
X18841Y225394D01*
X19545D01*
X20197Y225663D01*
X20695Y226162D01*
X20965Y226813D01*
Y227518D01*
X20695Y228169D01*
X20197Y228667D01*
X19545Y228937D01*
D02*
G37*
G36*
X173904Y226083D02*
X173199D01*
X172547Y225813D01*
X172049Y225315D01*
X171779Y224663D01*
Y223959D01*
X172049Y223307D01*
X172547Y222809D01*
X173199Y222539D01*
X173904D01*
X174555Y222809D01*
X175053Y223307D01*
X175323Y223959D01*
Y224663D01*
X175053Y225315D01*
X174555Y225813D01*
X173904Y226083D01*
D02*
G37*
G36*
X-35868Y223189D02*
X-36573D01*
X-37224Y222919D01*
X-37722Y222421D01*
X-37992Y221770D01*
Y221065D01*
X-37722Y220414D01*
X-37224Y219915D01*
X-36573Y219646D01*
X-35868D01*
X-35217Y219915D01*
X-34718Y220414D01*
X-34449Y221065D01*
Y221770D01*
X-34718Y222421D01*
X-35217Y222919D01*
X-35868Y223189D01*
D02*
G37*
G36*
X49781Y222809D02*
X49076D01*
X48425Y222539D01*
X47927Y222041D01*
X47657Y221389D01*
Y220685D01*
X47927Y220033D01*
X48425Y219535D01*
X49076Y219265D01*
X49781D01*
X50432Y219535D01*
X50931Y220033D01*
X51200Y220685D01*
Y221389D01*
X50931Y222041D01*
X50432Y222539D01*
X49781Y222809D01*
D02*
G37*
G36*
X27222Y222441D02*
X26518D01*
X25866Y222171D01*
X25368Y221673D01*
X25098Y221022D01*
Y220317D01*
X25368Y219666D01*
X25866Y219167D01*
X26518Y218898D01*
X27222D01*
X27874Y219167D01*
X28372Y219666D01*
X28642Y220317D01*
Y221022D01*
X28372Y221673D01*
X27874Y222171D01*
X27222Y222441D01*
D02*
G37*
G36*
X-36144Y216968D02*
X-36849D01*
X-37500Y216699D01*
X-37998Y216200D01*
X-38268Y215549D01*
Y214844D01*
X-37998Y214193D01*
X-37500Y213695D01*
X-36849Y213425D01*
X-36144D01*
X-35493Y213695D01*
X-34994Y214193D01*
X-34724Y214844D01*
Y215549D01*
X-34994Y216200D01*
X-35493Y216699D01*
X-36144Y216968D01*
D02*
G37*
G36*
X44678Y216745D02*
X43973D01*
X43322Y216476D01*
X42823Y215977D01*
X42554Y215326D01*
Y214621D01*
X42823Y213970D01*
X43322Y213472D01*
X43973Y213202D01*
X44678D01*
X45329Y213472D01*
X45827Y213970D01*
X46097Y214621D01*
Y215326D01*
X45827Y215977D01*
X45329Y216476D01*
X44678Y216745D01*
D02*
G37*
G36*
X245431Y219193D02*
X244726D01*
X244075Y218923D01*
X243577Y218425D01*
X243307Y217774D01*
Y217069D01*
X243577Y216418D01*
X243772Y216222D01*
X244055Y215896D01*
X243772Y215569D01*
X243577Y215374D01*
X243307Y214722D01*
Y214018D01*
X243577Y213367D01*
X244075Y212868D01*
X244726Y212598D01*
X245431D01*
X246082Y212868D01*
X246581Y213367D01*
X246850Y214018D01*
Y214722D01*
X246581Y215374D01*
X246385Y215569D01*
X246103Y215896D01*
X246385Y216222D01*
X246581Y216418D01*
X246850Y217069D01*
Y217774D01*
X246581Y218425D01*
X246082Y218923D01*
X245431Y219193D01*
D02*
G37*
G36*
X408817Y215846D02*
X408112D01*
X407461Y215577D01*
X406963Y215078D01*
X406693Y214427D01*
Y213722D01*
X406963Y213071D01*
X407461Y212573D01*
X408112Y212303D01*
X408817D01*
X409468Y212573D01*
X409967Y213071D01*
X410236Y213722D01*
Y214427D01*
X409967Y215078D01*
X409468Y215577D01*
X408817Y215846D01*
D02*
G37*
G36*
X234713Y217717D02*
X233988D01*
X233287Y217529D01*
X232658Y217166D01*
X232145Y216653D01*
X231782Y216024D01*
X231594Y215323D01*
Y214598D01*
X231782Y213897D01*
X232145Y213268D01*
X232658Y212755D01*
X233287Y212392D01*
X233988Y212205D01*
X234713D01*
X235414Y212392D01*
X236042Y212755D01*
X236556Y213268D01*
X236918Y213897D01*
X237106Y214598D01*
Y215323D01*
X236918Y216024D01*
X236556Y216653D01*
X236042Y217166D01*
X235414Y217529D01*
X234713Y217717D01*
D02*
G37*
G36*
X101927Y215551D02*
X101222D01*
X100571Y215282D01*
X100073Y214783D01*
X99803Y214132D01*
Y213427D01*
X100073Y212776D01*
X100571Y212278D01*
X101222Y212008D01*
X101927D01*
X102578Y212278D01*
X103077Y212776D01*
X103347Y213427D01*
Y214132D01*
X103077Y214783D01*
X102578Y215282D01*
X101927Y215551D01*
D02*
G37*
G36*
X428832Y212894D02*
X428127D01*
X427476Y212624D01*
X426978Y212126D01*
X426708Y211474D01*
Y210770D01*
X426978Y210119D01*
X427476Y209620D01*
X428127Y209350D01*
X428832D01*
X429483Y209620D01*
X429982Y210119D01*
X430251Y210770D01*
Y211474D01*
X429982Y212126D01*
X429483Y212624D01*
X428832Y212894D01*
D02*
G37*
G36*
X68127Y211516D02*
X67422D01*
X66771Y211246D01*
X66273Y210748D01*
X66003Y210097D01*
Y209392D01*
X66273Y208740D01*
X66771Y208242D01*
X67422Y207972D01*
X68127D01*
X68778Y208242D01*
X69277Y208740D01*
X69547Y209392D01*
Y210097D01*
X69277Y210748D01*
X68778Y211246D01*
X68127Y211516D01*
D02*
G37*
G36*
X56061D02*
X55356D01*
X54705Y211246D01*
X54207Y210748D01*
X53937Y210097D01*
Y209392D01*
X54207Y208740D01*
X54705Y208242D01*
X55356Y207972D01*
X56061D01*
X56712Y208242D01*
X57211Y208740D01*
X57480Y209392D01*
Y210097D01*
X57211Y210748D01*
X56712Y211246D01*
X56061Y211516D01*
D02*
G37*
G36*
X36908D02*
X36203D01*
X35552Y211246D01*
X35053Y210748D01*
X34784Y210097D01*
Y209392D01*
X35053Y208740D01*
X35552Y208242D01*
X36203Y207972D01*
X36908D01*
X37559Y208242D01*
X38057Y208740D01*
X38327Y209392D01*
Y210097D01*
X38057Y210748D01*
X37559Y211246D01*
X36908Y211516D01*
D02*
G37*
G36*
X321120Y210335D02*
X320415D01*
X319764Y210065D01*
X319266Y209567D01*
X318996Y208915D01*
Y208211D01*
X319266Y207559D01*
X319764Y207061D01*
X320415Y206791D01*
X321120D01*
X321771Y207061D01*
X322270Y207559D01*
X322539Y208211D01*
Y208915D01*
X322270Y209567D01*
X321771Y210065D01*
X321120Y210335D01*
D02*
G37*
G36*
X414750Y209184D02*
X414045D01*
X413394Y208915D01*
X412896Y208416D01*
X412626Y207765D01*
Y207060D01*
X412896Y206409D01*
X413394Y205911D01*
X414045Y205641D01*
X414750D01*
X415401Y205911D01*
X415900Y206409D01*
X416169Y207060D01*
Y207765D01*
X415900Y208416D01*
X415401Y208915D01*
X414750Y209184D01*
D02*
G37*
G36*
X77124Y209154D02*
X76419D01*
X75768Y208884D01*
X75270Y208385D01*
X75000Y207734D01*
Y207030D01*
X75270Y206378D01*
X75768Y205880D01*
X76419Y205610D01*
X77124D01*
X77775Y205880D01*
X78274Y206378D01*
X78543Y207030D01*
Y207734D01*
X78274Y208385D01*
X77775Y208884D01*
X77124Y209154D01*
D02*
G37*
G36*
X-18151Y206496D02*
X-18856D01*
X-19508Y206226D01*
X-20006Y205728D01*
X-20276Y205077D01*
Y204372D01*
X-20006Y203721D01*
X-19508Y203222D01*
X-18856Y202953D01*
X-18151D01*
X-17500Y203222D01*
X-17002Y203721D01*
X-16732Y204372D01*
Y205077D01*
X-17002Y205728D01*
X-17500Y206226D01*
X-18151Y206496D01*
D02*
G37*
G36*
X314034Y209154D02*
X313329D01*
X312678Y208884D01*
X312179Y208385D01*
X311910Y207734D01*
Y207030D01*
X312022Y206757D01*
X311938Y206181D01*
X311440Y205682D01*
X311170Y205031D01*
Y204327D01*
X311440Y203675D01*
X311938Y203177D01*
X312590Y202907D01*
X313294D01*
X313946Y203177D01*
X314444Y203675D01*
X314714Y204327D01*
Y205031D01*
X314601Y205304D01*
X314685Y205880D01*
X315183Y206378D01*
X315453Y207030D01*
Y207734D01*
X315183Y208385D01*
X314685Y208884D01*
X314034Y209154D01*
D02*
G37*
G36*
X37104Y205512D02*
X36400D01*
X35748Y205242D01*
X35250Y204744D01*
X34980Y204093D01*
Y203388D01*
X35250Y202737D01*
X35748Y202238D01*
X36400Y201969D01*
X37104D01*
X37756Y202238D01*
X38254Y202737D01*
X38524Y203388D01*
Y204093D01*
X38254Y204744D01*
X37756Y205242D01*
X37104Y205512D01*
D02*
G37*
G36*
X296562Y211600D02*
X295857D01*
X295206Y211330D01*
X294708Y210831D01*
X294438Y210180D01*
Y209475D01*
X294708Y208824D01*
X295130Y208402D01*
X295205Y208315D01*
X295178Y207797D01*
X294935Y207554D01*
X294665Y206903D01*
Y206198D01*
X294935Y205547D01*
X295433Y205048D01*
X295556Y204998D01*
Y204456D01*
X295552Y204455D01*
X295053Y203956D01*
X294783Y203305D01*
Y202600D01*
X295053Y201949D01*
X295552Y201451D01*
X296203Y201181D01*
X296907D01*
X297559Y201451D01*
X298057Y201949D01*
X298327Y202600D01*
Y203305D01*
X298057Y203956D01*
X297559Y204455D01*
X297436Y204505D01*
Y205047D01*
X297441Y205048D01*
X297939Y205547D01*
X298209Y206198D01*
Y206903D01*
X297939Y207554D01*
X297517Y207976D01*
X297441Y208063D01*
X297469Y208582D01*
X297712Y208824D01*
X297981Y209475D01*
Y210180D01*
X297712Y210831D01*
X297213Y211330D01*
X296562Y211600D01*
D02*
G37*
G36*
X-35474Y204134D02*
X-36179D01*
X-36830Y203864D01*
X-37329Y203366D01*
X-37598Y202715D01*
Y202010D01*
X-37329Y201359D01*
X-36830Y200860D01*
X-36179Y200591D01*
X-35474D01*
X-34823Y200860D01*
X-34325Y201359D01*
X-34055Y202010D01*
Y202715D01*
X-34325Y203366D01*
X-34823Y203864D01*
X-35474Y204134D01*
D02*
G37*
G36*
X103868Y204971D02*
X95502D01*
Y199541D01*
X95002Y199334D01*
X94704Y199632D01*
X94053Y199902D01*
X93348D01*
X92697Y199632D01*
X92199Y199134D01*
X91929Y198482D01*
Y197777D01*
X92199Y197126D01*
X92697Y196628D01*
X93348Y196358D01*
X94053D01*
X94704Y196628D01*
X95002Y196926D01*
X95502Y196719D01*
Y196604D01*
X103868D01*
Y204971D01*
D02*
G37*
G36*
X76398Y202595D02*
X75693D01*
X75042Y202326D01*
X74544Y201827D01*
X74274Y201176D01*
Y200471D01*
X74544Y199820D01*
X75042Y199322D01*
X75693Y199052D01*
X76398D01*
X77049Y199322D01*
X77548Y199820D01*
X77817Y200471D01*
Y201176D01*
X77548Y201827D01*
X77049Y202326D01*
X76398Y202595D01*
D02*
G37*
G36*
X187065Y202264D02*
X186360D01*
X185709Y201994D01*
X185211Y201496D01*
X184941Y200845D01*
Y200140D01*
X185211Y199489D01*
X185709Y198990D01*
X186360Y198721D01*
X187065D01*
X187716Y198990D01*
X188215Y199489D01*
X188484Y200140D01*
Y200845D01*
X188215Y201496D01*
X187716Y201994D01*
X187065Y202264D01*
D02*
G37*
G36*
X145043Y202136D02*
X144339D01*
X143687Y201867D01*
X143189Y201368D01*
X142919Y200717D01*
Y200012D01*
X143189Y199361D01*
X143687Y198863D01*
X144339Y198593D01*
X145043D01*
X145694Y198863D01*
X146193Y199361D01*
X146463Y200012D01*
Y200717D01*
X146193Y201368D01*
X145694Y201867D01*
X145043Y202136D01*
D02*
G37*
G36*
X312429Y202120D02*
X311724D01*
X311073Y201850D01*
X310574Y201352D01*
X310305Y200701D01*
Y199996D01*
X310574Y199345D01*
X311073Y198846D01*
X311724Y198577D01*
X312429D01*
X313080Y198846D01*
X313578Y199345D01*
X313848Y199996D01*
Y200701D01*
X313578Y201352D01*
X313080Y201850D01*
X312429Y202120D01*
D02*
G37*
G36*
X305175Y202067D02*
X304470D01*
X303819Y201797D01*
X303321Y201299D01*
X303051Y200647D01*
Y199943D01*
X303321Y199292D01*
X303819Y198793D01*
X304470Y198523D01*
X305175D01*
X305826Y198793D01*
X306325Y199292D01*
X306594Y199943D01*
Y200647D01*
X306325Y201299D01*
X305826Y201797D01*
X305175Y202067D01*
D02*
G37*
G36*
X166396Y202362D02*
X165691D01*
X165040Y202093D01*
X164541Y201594D01*
X164272Y200943D01*
Y200238D01*
X164541Y199587D01*
X165040Y199089D01*
X165691Y198819D01*
X166396D01*
X166724Y198955D01*
X167224Y198663D01*
X167494Y198012D01*
X167992Y197514D01*
X168644Y197244D01*
X169349D01*
X170000Y197514D01*
X170498Y198012D01*
X170768Y198663D01*
Y199368D01*
X170498Y200019D01*
X170000Y200518D01*
X169349Y200787D01*
X168644D01*
X168315Y200651D01*
X167815Y200943D01*
X167545Y201594D01*
X167047Y202093D01*
X166396Y202362D01*
D02*
G37*
G36*
X37104Y200689D02*
X36400D01*
X35748Y200419D01*
X35250Y199921D01*
X34980Y199270D01*
Y198565D01*
X35250Y197914D01*
X35748Y197415D01*
X36400Y197146D01*
X37104D01*
X37756Y197415D01*
X38254Y197914D01*
X38524Y198565D01*
Y199270D01*
X38254Y199921D01*
X37756Y200419D01*
X37104Y200689D01*
D02*
G37*
G36*
X30481Y202461D02*
X29755D01*
X29054Y202273D01*
X28426Y201910D01*
X27913Y201397D01*
X27550Y200768D01*
X27362Y200067D01*
Y199342D01*
X27550Y198641D01*
X27913Y198013D01*
X28426Y197500D01*
X29054Y197137D01*
X29755Y196949D01*
X30481D01*
X31182Y197137D01*
X31810Y197500D01*
X32323Y198013D01*
X32686Y198641D01*
X32874Y199342D01*
Y200067D01*
X32686Y200768D01*
X32323Y201397D01*
X31810Y201910D01*
X31182Y202273D01*
X30481Y202461D01*
D02*
G37*
G36*
X-18250Y200197D02*
X-18955D01*
X-19606Y199927D01*
X-20104Y199429D01*
X-20374Y198778D01*
Y198073D01*
X-20104Y197422D01*
X-19606Y196923D01*
X-18955Y196653D01*
X-18250D01*
X-17599Y196923D01*
X-17100Y197422D01*
X-16831Y198073D01*
Y198778D01*
X-17100Y199429D01*
X-17599Y199927D01*
X-18250Y200197D01*
D02*
G37*
G36*
X234713Y198425D02*
X233988D01*
X233287Y198237D01*
X232658Y197875D01*
X232145Y197361D01*
X231782Y196733D01*
X231594Y196032D01*
Y195307D01*
X231782Y194606D01*
X232145Y193977D01*
X232658Y193464D01*
X233287Y193101D01*
X233988Y192913D01*
X234713D01*
X235414Y193101D01*
X236042Y193464D01*
X236556Y193977D01*
X236918Y194606D01*
X237106Y195307D01*
Y196032D01*
X236918Y196733D01*
X236556Y197361D01*
X236042Y197875D01*
X235414Y198237D01*
X234713Y198425D01*
D02*
G37*
G36*
X106530Y195817D02*
X105825D01*
X105174Y195547D01*
X104675Y195049D01*
X104406Y194398D01*
Y193693D01*
X104675Y193042D01*
X105174Y192543D01*
X105825Y192274D01*
X106530D01*
X107181Y192543D01*
X107679Y193042D01*
X107949Y193693D01*
Y194398D01*
X107679Y195049D01*
X107181Y195547D01*
X106530Y195817D01*
D02*
G37*
G36*
X181061Y195276D02*
X180356D01*
X179705Y195006D01*
X179207Y194508D01*
X178937Y193856D01*
Y193151D01*
X179207Y192500D01*
X179705Y192002D01*
X180356Y191732D01*
X181061D01*
X181712Y192002D01*
X182211Y192500D01*
X182480Y193151D01*
Y193856D01*
X182211Y194508D01*
X181712Y195006D01*
X181061Y195276D01*
D02*
G37*
G36*
X169303Y194345D02*
X168598D01*
X167947Y194075D01*
X167449Y193577D01*
X167179Y192925D01*
Y192220D01*
X167449Y191569D01*
X167947Y191071D01*
X168598Y190801D01*
X169303D01*
X169954Y191071D01*
X170453Y191569D01*
X170722Y192220D01*
Y192925D01*
X170453Y193577D01*
X169954Y194075D01*
X169303Y194345D01*
D02*
G37*
G36*
X145037Y193307D02*
X144333D01*
X143682Y193037D01*
X143183Y192539D01*
X142913Y191888D01*
Y191183D01*
X143183Y190532D01*
X143682Y190033D01*
X144333Y189764D01*
X145037D01*
X145689Y190033D01*
X146187Y190532D01*
X146457Y191183D01*
Y191888D01*
X146187Y192539D01*
X145689Y193037D01*
X145037Y193307D01*
D02*
G37*
G36*
X-17337Y191535D02*
X-18042D01*
X-18693Y191266D01*
X-19192Y190767D01*
X-19461Y190116D01*
Y189411D01*
X-19192Y188760D01*
X-18693Y188262D01*
X-18042Y187992D01*
X-17337D01*
X-16686Y188262D01*
X-16188Y188760D01*
X-15918Y189411D01*
Y190116D01*
X-16188Y190767D01*
X-16686Y191266D01*
X-17337Y191535D01*
D02*
G37*
G36*
X56910Y190770D02*
X56205D01*
X55554Y190501D01*
X55055Y190002D01*
X54786Y189351D01*
Y188646D01*
X55055Y187995D01*
X55554Y187497D01*
X56205Y187227D01*
X56910D01*
X57561Y187497D01*
X58059Y187995D01*
X58329Y188646D01*
Y189351D01*
X58059Y190002D01*
X57561Y190501D01*
X56910Y190770D01*
D02*
G37*
G36*
X85490Y190453D02*
X84785D01*
X84134Y190183D01*
X83636Y189685D01*
X83366Y189033D01*
Y188329D01*
X83636Y187678D01*
X84134Y187179D01*
X84785Y186909D01*
X85490D01*
X86141Y187179D01*
X86640Y187678D01*
X86910Y188329D01*
Y189033D01*
X86640Y189685D01*
X86141Y190183D01*
X85490Y190453D01*
D02*
G37*
G36*
X102124Y189370D02*
X101419D01*
X100768Y189100D01*
X100270Y188602D01*
X100000Y187951D01*
Y187246D01*
X100270Y186595D01*
X100768Y186097D01*
X101419Y185827D01*
X102124D01*
X102775Y186097D01*
X103274Y186595D01*
X103543Y187246D01*
Y187951D01*
X103274Y188602D01*
X102775Y189100D01*
X102124Y189370D01*
D02*
G37*
G36*
X211770Y186713D02*
X211065D01*
X210414Y186443D01*
X209915Y185944D01*
X209646Y185293D01*
Y184589D01*
X209915Y183937D01*
X210414Y183439D01*
X211065Y183169D01*
X211770D01*
X212421Y183439D01*
X212919Y183937D01*
X213189Y184589D01*
Y185293D01*
X212919Y185944D01*
X212421Y186443D01*
X211770Y186713D01*
D02*
G37*
G36*
X95136Y184449D02*
X94431D01*
X93780Y184179D01*
X93282Y183681D01*
X93012Y183030D01*
Y182325D01*
X93282Y181674D01*
X93780Y181175D01*
X94431Y180905D01*
X95136D01*
X95787Y181175D01*
X96285Y181674D01*
X96555Y182325D01*
Y183030D01*
X96285Y183681D01*
X95787Y184179D01*
X95136Y184449D01*
D02*
G37*
G36*
X190018Y184252D02*
X189313D01*
X188662Y183982D01*
X188163Y183484D01*
X187894Y182833D01*
Y182128D01*
X188163Y181477D01*
X188662Y180978D01*
X189313Y180709D01*
X190018D01*
X190669Y180978D01*
X191167Y181477D01*
X191437Y182128D01*
Y182833D01*
X191167Y183484D01*
X190669Y183982D01*
X190018Y184252D01*
D02*
G37*
G36*
X322498Y182776D02*
X321793D01*
X321142Y182506D01*
X320644Y182008D01*
X320374Y181356D01*
Y180651D01*
X320644Y180000D01*
X321142Y179502D01*
X321793Y179232D01*
X322498D01*
X323149Y179502D01*
X323648Y180000D01*
X323917Y180651D01*
Y181356D01*
X323648Y182008D01*
X323149Y182506D01*
X322498Y182776D01*
D02*
G37*
G36*
X-5258Y182579D02*
X-5963D01*
X-6614Y182309D01*
X-7112Y181811D01*
X-7382Y181159D01*
Y180455D01*
X-7112Y179804D01*
X-6614Y179305D01*
X-5963Y179035D01*
X-5258D01*
X-4607Y179305D01*
X-4108Y179804D01*
X-3839Y180455D01*
Y181159D01*
X-4108Y181811D01*
X-4607Y182309D01*
X-5258Y182579D01*
D02*
G37*
G36*
X343758Y181004D02*
X343053D01*
X342402Y180734D01*
X341904Y180236D01*
X341634Y179585D01*
Y178880D01*
X341904Y178229D01*
X342402Y177730D01*
X343053Y177461D01*
X343758D01*
X344409Y177730D01*
X344907Y178229D01*
X345177Y178880D01*
Y179585D01*
X344907Y180236D01*
X344409Y180734D01*
X343758Y181004D01*
D02*
G37*
G36*
X337852D02*
X337148D01*
X336496Y180734D01*
X335998Y180236D01*
X335728Y179585D01*
Y178880D01*
X335998Y178229D01*
X336496Y177730D01*
X337148Y177461D01*
X337852D01*
X338504Y177730D01*
X339002Y178229D01*
X339272Y178880D01*
Y179585D01*
X339002Y180236D01*
X338504Y180734D01*
X337852Y181004D01*
D02*
G37*
G36*
X30481Y182019D02*
X29755D01*
X29054Y181831D01*
X28426Y181468D01*
X27913Y180955D01*
X27550Y180327D01*
X27362Y179626D01*
Y178900D01*
X27550Y178199D01*
X27913Y177571D01*
X28426Y177058D01*
X29054Y176695D01*
X29755Y176507D01*
X30481D01*
X31182Y176695D01*
X31810Y177058D01*
X32323Y177571D01*
X32686Y178199D01*
X32874Y178900D01*
Y179626D01*
X32686Y180327D01*
X32323Y180955D01*
X31810Y181468D01*
X31182Y181831D01*
X30481Y182019D01*
D02*
G37*
G36*
X302715Y180051D02*
X302010D01*
X301359Y179781D01*
X300860Y179282D01*
X300590Y178631D01*
Y177927D01*
X300860Y177275D01*
X301359Y176777D01*
X302010Y176507D01*
X302715D01*
X303366Y176777D01*
X303864Y177275D01*
X304134Y177927D01*
Y178631D01*
X303864Y179282D01*
X303366Y179781D01*
X302715Y180051D01*
D02*
G37*
G36*
X323926Y176340D02*
X323221D01*
X322570Y176071D01*
X322072Y175572D01*
X321802Y174921D01*
Y174216D01*
X322072Y173565D01*
X322570Y173067D01*
X323221Y172797D01*
X323926D01*
X324577Y173067D01*
X325075Y173565D01*
X325345Y174216D01*
Y174921D01*
X325075Y175572D01*
X324577Y176071D01*
X323926Y176340D01*
D02*
G37*
G36*
X328588Y175702D02*
X327883D01*
X327232Y175432D01*
X326733Y174934D01*
X326464Y174283D01*
Y173578D01*
X326733Y172926D01*
X327232Y172428D01*
X327883Y172158D01*
X328588D01*
X329239Y172428D01*
X329737Y172926D01*
X330007Y173578D01*
Y174283D01*
X329737Y174934D01*
X329239Y175432D01*
X328588Y175702D01*
D02*
G37*
G36*
X4978Y173819D02*
X4274D01*
X3622Y173549D01*
X3124Y173051D01*
X2854Y172400D01*
Y171695D01*
X3124Y171044D01*
X3622Y170545D01*
X4274Y170276D01*
X4978D01*
X5630Y170545D01*
X6128Y171044D01*
X6398Y171695D01*
Y172400D01*
X6128Y173051D01*
X5630Y173549D01*
X4978Y173819D01*
D02*
G37*
G36*
X-38348Y173819D02*
X-39053D01*
X-39704Y173549D01*
X-40203Y173051D01*
X-40472Y172400D01*
Y171695D01*
X-40203Y171044D01*
X-39704Y170545D01*
X-39053Y170276D01*
X-38348D01*
X-37697Y170545D01*
X-37199Y171044D01*
X-36929Y171695D01*
Y172400D01*
X-37199Y173051D01*
X-37697Y173549D01*
X-38348Y173819D01*
D02*
G37*
G36*
X385236Y229763D02*
X336417D01*
X335649Y229610D01*
X334998Y229175D01*
X334563Y228524D01*
X334410Y227756D01*
Y197638D01*
X334563Y196870D01*
X334998Y196219D01*
X335649Y195783D01*
X336417Y195631D01*
X337555D01*
X362508Y170677D01*
X362301Y170177D01*
X362049D01*
X361398Y169907D01*
X360900Y169409D01*
X360630Y168758D01*
Y168053D01*
X360900Y167402D01*
X361327Y166974D01*
X361368Y166683D01*
X361327Y166392D01*
X360900Y165964D01*
X360630Y165313D01*
Y164608D01*
X360900Y163957D01*
X361398Y163459D01*
X362049Y163189D01*
X362754D01*
X363405Y163459D01*
X363903Y163957D01*
X364173Y164608D01*
Y165313D01*
X363903Y165964D01*
X363476Y166392D01*
X363436Y166683D01*
X363476Y166974D01*
X363903Y167402D01*
X364173Y168053D01*
Y168392D01*
X364673Y168659D01*
X364881Y168520D01*
X365650Y168367D01*
X410879Y168367D01*
X411354Y167867D01*
Y167600D01*
X411623Y166949D01*
X412122Y166451D01*
X412773Y166181D01*
X413478D01*
X414129Y166451D01*
X414627Y166949D01*
X414897Y167600D01*
Y168305D01*
X414938Y168367D01*
X418583D01*
X419351Y168520D01*
X420002Y168955D01*
X420437Y169606D01*
X420590Y170374D01*
Y194409D01*
X420437Y195177D01*
X420002Y195829D01*
X386655Y229175D01*
X386004Y229610D01*
X385236Y229763D01*
D02*
G37*
G36*
X31258Y168307D02*
X30553D01*
X29902Y168037D01*
X29404Y167539D01*
X29134Y166888D01*
Y166183D01*
X29404Y165532D01*
X29902Y165033D01*
X30553Y164764D01*
X31258D01*
X31909Y165033D01*
X32407Y165532D01*
X32677Y166183D01*
Y166888D01*
X32407Y167539D01*
X31909Y168037D01*
X31258Y168307D01*
D02*
G37*
G36*
X297203Y168110D02*
X296498D01*
X295847Y167841D01*
X295349Y167342D01*
X295079Y166691D01*
Y165986D01*
X295349Y165335D01*
X295847Y164837D01*
X296498Y164567D01*
X297203D01*
X297854Y164837D01*
X298352Y165335D01*
X298622Y165986D01*
Y166691D01*
X298352Y167342D01*
X297854Y167841D01*
X297203Y168110D01*
D02*
G37*
G36*
X328622Y167095D02*
X327917D01*
X327266Y166825D01*
X326768Y166326D01*
X326498Y165675D01*
Y164971D01*
X326768Y164319D01*
X327266Y163821D01*
X327917Y163551D01*
X328622D01*
X329273Y163821D01*
X329772Y164319D01*
X330042Y164971D01*
Y165675D01*
X329772Y166326D01*
X329273Y166825D01*
X328622Y167095D01*
D02*
G37*
G36*
X172006Y165847D02*
X171301D01*
X170650Y165577D01*
X170152Y165078D01*
X169882Y164427D01*
Y163722D01*
X170152Y163071D01*
X170650Y162573D01*
X171301Y162303D01*
X172006D01*
X172657Y162573D01*
X173155Y163071D01*
X173425Y163722D01*
Y164427D01*
X173155Y165078D01*
X172657Y165577D01*
X172006Y165847D01*
D02*
G37*
G36*
X85589Y165157D02*
X84884D01*
X84233Y164888D01*
X83734Y164389D01*
X83465Y163738D01*
Y163033D01*
X83734Y162382D01*
X84233Y161884D01*
X84884Y161614D01*
X85589D01*
X86240Y161884D01*
X86738Y162382D01*
X87008Y163033D01*
Y163738D01*
X86738Y164389D01*
X86240Y164888D01*
X85589Y165157D01*
D02*
G37*
G36*
X27825Y163386D02*
X27120D01*
X26469Y163116D01*
X25971Y162618D01*
X25701Y161967D01*
Y161262D01*
X25971Y160611D01*
X26469Y160112D01*
X27120Y159843D01*
X27825D01*
X28476Y160112D01*
X28975Y160611D01*
X29244Y161262D01*
Y161967D01*
X28975Y162618D01*
X28476Y163116D01*
X27825Y163386D01*
D02*
G37*
G36*
X408711Y162864D02*
X408006D01*
X407355Y162594D01*
X406857Y162096D01*
X406587Y161445D01*
Y160740D01*
X406857Y160089D01*
X407355Y159590D01*
X408006Y159321D01*
X408711D01*
X409362Y159590D01*
X409861Y160089D01*
X410130Y160740D01*
Y161445D01*
X409861Y162096D01*
X409362Y162594D01*
X408711Y162864D01*
D02*
G37*
G36*
X443857Y162722D02*
X443153D01*
X442501Y162452D01*
X442003Y161953D01*
X441733Y161302D01*
Y160598D01*
X442003Y159946D01*
X442501Y159448D01*
X443153Y159178D01*
X443857D01*
X444509Y159448D01*
X445007Y159946D01*
X445277Y160598D01*
Y161302D01*
X445007Y161953D01*
X444509Y162452D01*
X443857Y162722D01*
D02*
G37*
G36*
X228906Y163583D02*
X228181D01*
X227480Y163395D01*
X226851Y163032D01*
X226338Y162519D01*
X225975Y161890D01*
X225787Y161190D01*
Y160464D01*
X225975Y159763D01*
X226338Y159135D01*
X226851Y158622D01*
X227480Y158259D01*
X228181Y158071D01*
X228906D01*
X229607Y158259D01*
X230236Y158622D01*
X230749Y159135D01*
X231111Y159763D01*
X231299Y160464D01*
Y161190D01*
X231111Y161890D01*
X230749Y162519D01*
X230236Y163032D01*
X229607Y163395D01*
X228906Y163583D01*
D02*
G37*
G36*
X235501Y163583D02*
X234775D01*
X234074Y163395D01*
X233446Y163032D01*
X232932Y162519D01*
X232570Y161890D01*
X232382Y161190D01*
Y160464D01*
X232570Y159763D01*
X232932Y159135D01*
X233446Y158622D01*
X234074Y158259D01*
X234775Y158071D01*
X235501D01*
X236202Y158259D01*
X236830Y158622D01*
X237343Y159135D01*
X237706Y159763D01*
X237894Y160464D01*
Y161190D01*
X237706Y161890D01*
X237343Y162519D01*
X236830Y163032D01*
X236202Y163395D01*
X235501Y163583D01*
D02*
G37*
G36*
X10293Y161122D02*
X9589D01*
X8937Y160852D01*
X8439Y160354D01*
X8169Y159703D01*
Y158998D01*
X8439Y158347D01*
X8937Y157849D01*
X9589Y157579D01*
X10293D01*
X10944Y157849D01*
X11443Y158347D01*
X11713Y158998D01*
Y159703D01*
X11443Y160354D01*
X10944Y160852D01*
X10293Y161122D01*
D02*
G37*
G36*
X-36380Y159764D02*
X-37085D01*
X-37736Y159494D01*
X-38234Y158996D01*
X-38504Y158344D01*
Y157640D01*
X-38234Y156989D01*
X-37736Y156490D01*
X-37085Y156220D01*
X-36380D01*
X-35729Y156490D01*
X-35230Y156989D01*
X-34961Y157640D01*
Y158344D01*
X-35230Y158996D01*
X-35729Y159494D01*
X-36380Y159764D01*
D02*
G37*
G36*
X106356Y159684D02*
X105651D01*
X105000Y159415D01*
X104502Y158916D01*
X104232Y158265D01*
Y157560D01*
X104502Y156909D01*
X105000Y156411D01*
X105651Y156141D01*
X106356D01*
X107008Y156411D01*
X107506Y156909D01*
X107776Y157560D01*
Y158265D01*
X107506Y158916D01*
X107008Y159415D01*
X106356Y159684D01*
D02*
G37*
G36*
X31159Y159547D02*
X30455D01*
X29803Y159277D01*
X29305Y158779D01*
X29035Y158128D01*
Y157423D01*
X29305Y156772D01*
X29803Y156274D01*
X30455Y156004D01*
X31159D01*
X31811Y156274D01*
X32309Y156772D01*
X32579Y157423D01*
Y158128D01*
X32309Y158779D01*
X31811Y159277D01*
X31159Y159547D01*
D02*
G37*
G36*
X-30868Y158543D02*
X-31573D01*
X-32224Y158274D01*
X-32722Y157775D01*
X-32992Y157124D01*
Y156419D01*
X-32722Y155768D01*
X-32224Y155270D01*
X-31573Y155000D01*
X-30868D01*
X-30217Y155270D01*
X-29719Y155768D01*
X-29449Y156419D01*
Y157124D01*
X-29719Y157775D01*
X-30217Y158274D01*
X-30868Y158543D01*
D02*
G37*
G36*
X319939Y160531D02*
X319234D01*
X318583Y160262D01*
X318085Y159763D01*
X317815Y159112D01*
Y158407D01*
X318085Y157756D01*
X318583Y157258D01*
X318984Y157092D01*
X321775Y154301D01*
X321775Y154301D01*
X322296Y153953D01*
X322910Y153831D01*
X330698D01*
X331099Y153665D01*
X331803D01*
X332455Y153934D01*
X332953Y154433D01*
X333223Y155084D01*
Y155789D01*
X332953Y156440D01*
X332455Y156938D01*
X331803Y157208D01*
X331099D01*
X330698Y157042D01*
X323575D01*
X321254Y159363D01*
X321089Y159763D01*
X320590Y160262D01*
X319939Y160531D01*
D02*
G37*
G36*
X245431Y159153D02*
X244726D01*
X244075Y158884D01*
X243577Y158386D01*
X243307Y157734D01*
Y157029D01*
X243577Y156378D01*
X243772Y156183D01*
X244055Y155856D01*
X243772Y155530D01*
X243577Y155334D01*
X243307Y154683D01*
Y153978D01*
X243577Y153327D01*
X244075Y152829D01*
X244726Y152559D01*
X245431D01*
X246082Y152829D01*
X246581Y153327D01*
X246850Y153978D01*
Y154683D01*
X246581Y155334D01*
X246385Y155530D01*
X246103Y155856D01*
X246385Y156183D01*
X246581Y156378D01*
X246850Y157029D01*
Y157734D01*
X246581Y158386D01*
X246082Y158884D01*
X245431Y159153D01*
D02*
G37*
G36*
X-11591Y155222D02*
X-12296D01*
X-12947Y154953D01*
X-13445Y154454D01*
X-13715Y153803D01*
Y153098D01*
X-13445Y152447D01*
X-12947Y151949D01*
X-12296Y151679D01*
X-11591D01*
X-10939Y151949D01*
X-10441Y152447D01*
X-10171Y153098D01*
Y153803D01*
X-10441Y154454D01*
X-10939Y154953D01*
X-11591Y155222D01*
D02*
G37*
G36*
X438148Y153150D02*
X437443D01*
X436792Y152880D01*
X436293Y152382D01*
X436024Y151730D01*
Y151025D01*
X436293Y150374D01*
X436792Y149876D01*
X437443Y149606D01*
X438148D01*
X438799Y149876D01*
X439297Y150374D01*
X439567Y151025D01*
Y151730D01*
X439297Y152382D01*
X438799Y152880D01*
X438148Y153150D01*
D02*
G37*
G36*
X31159Y152657D02*
X30455D01*
X29803Y152388D01*
X29305Y151889D01*
X29035Y151238D01*
Y150533D01*
X29305Y149882D01*
X29803Y149384D01*
X30455Y149114D01*
X31159D01*
X31811Y149384D01*
X32309Y149882D01*
X32579Y150533D01*
Y151238D01*
X32309Y151889D01*
X31811Y152388D01*
X31159Y152657D01*
D02*
G37*
G36*
Y147835D02*
X30455D01*
X29803Y147565D01*
X29305Y147067D01*
X29035Y146415D01*
Y145711D01*
X29305Y145059D01*
X29803Y144561D01*
X30455Y144291D01*
X31159D01*
X31811Y144561D01*
X32309Y145059D01*
X32579Y145711D01*
Y146415D01*
X32309Y147067D01*
X31811Y147565D01*
X31159Y147835D01*
D02*
G37*
G36*
X-31144Y146653D02*
X-31848D01*
X-32500Y146384D01*
X-32998Y145885D01*
X-33268Y145234D01*
Y144529D01*
X-32998Y143878D01*
X-32500Y143380D01*
X-31848Y143110D01*
X-31144D01*
X-30492Y143380D01*
X-29994Y143878D01*
X-29724Y144529D01*
Y145234D01*
X-29994Y145885D01*
X-30492Y146384D01*
X-31144Y146653D01*
D02*
G37*
G36*
X427222Y144783D02*
X426518D01*
X425867Y144514D01*
X425368Y144015D01*
X425098Y143364D01*
Y142659D01*
X425368Y142008D01*
X425867Y141510D01*
X426518Y141240D01*
X427222D01*
X427874Y141510D01*
X428372Y142008D01*
X428642Y142659D01*
Y143364D01*
X428372Y144015D01*
X427874Y144514D01*
X427222Y144783D01*
D02*
G37*
G36*
X318561Y139370D02*
X317856D01*
X317205Y139100D01*
X317077Y138972D01*
X316949Y139100D01*
X316297Y139370D01*
X315593D01*
X314941Y139100D01*
X314616Y138775D01*
X314389Y139002D01*
X313738Y139272D01*
X313033D01*
X312382Y139002D01*
X312254Y138874D01*
X312126Y139002D01*
X311474Y139272D01*
X310770D01*
X310119Y139002D01*
X309941Y138824D01*
X309763Y139002D01*
X309112Y139272D01*
X308407D01*
X307756Y139002D01*
X307579Y138824D01*
X307401Y139002D01*
X306750Y139272D01*
X306045D01*
X305394Y139002D01*
X304896Y138504D01*
X304626Y137852D01*
Y137148D01*
X304896Y136496D01*
X305394Y135998D01*
X305699Y135872D01*
Y135330D01*
X305296Y135163D01*
X304797Y134665D01*
X304528Y134014D01*
Y133309D01*
X304797Y132658D01*
X304926Y132529D01*
X304797Y132401D01*
X304528Y131750D01*
Y131045D01*
X304797Y130394D01*
X304926Y130266D01*
X304797Y130137D01*
X304528Y129486D01*
Y128781D01*
X304797Y128130D01*
X304975Y127953D01*
X304797Y127775D01*
X304528Y127124D01*
Y126419D01*
X304797Y125768D01*
X305296Y125270D01*
X305650Y125123D01*
Y124582D01*
X305296Y124435D01*
X304797Y123937D01*
X304528Y123285D01*
Y122581D01*
X304797Y121930D01*
X305296Y121431D01*
X305947Y121161D01*
X306652D01*
X307303Y121431D01*
X307480Y121609D01*
X307756Y121333D01*
X308407Y121063D01*
X309112D01*
X309763Y121333D01*
X310138Y121707D01*
X310512Y121333D01*
X311163Y121063D01*
X311868D01*
X312519Y121333D01*
X312746Y121560D01*
X312973Y121333D01*
X313624Y121063D01*
X314329D01*
X314980Y121333D01*
X315158Y121510D01*
X315237Y121431D01*
X315888Y121161D01*
X316593D01*
X317244Y121431D01*
X317372Y121560D01*
X317500Y121431D01*
X318151Y121161D01*
X318856D01*
X319508Y121431D01*
X320006Y121930D01*
X320276Y122581D01*
Y123285D01*
X320006Y123937D01*
X319779Y124163D01*
X319907Y124292D01*
X320177Y124943D01*
Y125648D01*
X319907Y126299D01*
X319681Y126526D01*
X319907Y126752D01*
X320177Y127403D01*
Y128108D01*
X319907Y128760D01*
X319582Y129085D01*
X319809Y129311D01*
X320079Y129963D01*
Y130667D01*
X319809Y131318D01*
X319533Y131595D01*
X319809Y131870D01*
X320079Y132522D01*
Y133226D01*
X319809Y133878D01*
X319582Y134104D01*
X319711Y134233D01*
X319980Y134884D01*
Y135589D01*
X319711Y136240D01*
X319533Y136417D01*
X319711Y136595D01*
X319980Y137246D01*
Y137951D01*
X319711Y138602D01*
X319212Y139100D01*
X318561Y139370D01*
D02*
G37*
G36*
X-36656Y133169D02*
X-37360D01*
X-38011Y132900D01*
X-38510Y132401D01*
X-38780Y131750D01*
Y131045D01*
X-38510Y130394D01*
X-38011Y129896D01*
X-37360Y129626D01*
X-36656D01*
X-36004Y129896D01*
X-35506Y130394D01*
X-35236Y131045D01*
Y131750D01*
X-35506Y132401D01*
X-36004Y132900D01*
X-36656Y133169D01*
D02*
G37*
G36*
X87459Y131890D02*
X86754D01*
X86103Y131620D01*
X85604Y131122D01*
X85335Y130471D01*
Y129766D01*
X85604Y129115D01*
X86103Y128616D01*
X86754Y128347D01*
X87459D01*
X88110Y128616D01*
X88608Y129115D01*
X88878Y129766D01*
Y130471D01*
X88608Y131122D01*
X88110Y131620D01*
X87459Y131890D01*
D02*
G37*
G36*
X-2403Y134055D02*
X-3108D01*
X-3760Y133785D01*
X-4258Y133287D01*
X-4528Y132636D01*
Y131931D01*
X-4258Y131280D01*
X-3760Y130781D01*
X-3530Y130686D01*
X-3413Y130097D01*
X-3470Y130039D01*
X-3740Y129388D01*
Y128683D01*
X-3470Y128032D01*
X-2972Y127533D01*
X-2321Y127264D01*
X-1616D01*
X-965Y127533D01*
X-467Y128032D01*
X-197Y128683D01*
Y129388D01*
X-467Y130039D01*
X-965Y130537D01*
X-1194Y130632D01*
X-1312Y131222D01*
X-1254Y131280D01*
X-984Y131931D01*
Y132636D01*
X-1254Y133287D01*
X-1752Y133785D01*
X-2403Y134055D01*
D02*
G37*
G36*
X30864Y130709D02*
X30159D01*
X29508Y130439D01*
X29010Y129941D01*
X28740Y129289D01*
Y128585D01*
X29010Y127933D01*
X29508Y127435D01*
X30159Y127165D01*
X30864D01*
X31515Y127435D01*
X32014Y127933D01*
X32283Y128585D01*
Y129289D01*
X32014Y129941D01*
X31515Y130439D01*
X30864Y130709D01*
D02*
G37*
G36*
X3187Y129370D02*
X2482D01*
X1831Y129100D01*
X1333Y128602D01*
X1063Y127951D01*
Y127246D01*
X1333Y126595D01*
X1831Y126096D01*
X2482Y125827D01*
X3187D01*
X3838Y126096D01*
X4337Y126595D01*
X4606Y127246D01*
Y127951D01*
X4337Y128602D01*
X3838Y129100D01*
X3187Y129370D01*
D02*
G37*
G36*
X102162Y128736D02*
X101457D01*
X100806Y128467D01*
X100308Y127968D01*
X100038Y127317D01*
Y126612D01*
X100308Y125961D01*
X100806Y125463D01*
X101457Y125193D01*
X102162D01*
X102813Y125463D01*
X103311Y125961D01*
X103581Y126612D01*
Y127317D01*
X103311Y127968D01*
X102813Y128467D01*
X102162Y128736D01*
D02*
G37*
G36*
X-22384Y121653D02*
X-23089D01*
X-23740Y121384D01*
X-24238Y120885D01*
X-24508Y120234D01*
Y119529D01*
X-24238Y118878D01*
X-23740Y118380D01*
X-23089Y118110D01*
X-22384D01*
X-21733Y118380D01*
X-21234Y118878D01*
X-20965Y119529D01*
Y120234D01*
X-21234Y120885D01*
X-21733Y121384D01*
X-22384Y121653D01*
D02*
G37*
G36*
X101435Y120965D02*
X100730D01*
X100079Y120695D01*
X99581Y120196D01*
X99311Y119545D01*
Y118841D01*
X99581Y118189D01*
X100079Y117691D01*
X100730Y117421D01*
X101435D01*
X102086Y117691D01*
X102585Y118189D01*
X102854Y118841D01*
Y119545D01*
X102585Y120196D01*
X102086Y120695D01*
X101435Y120965D01*
D02*
G37*
G36*
X30963Y123622D02*
X30258D01*
X29607Y123352D01*
X29108Y122854D01*
X28839Y122203D01*
Y121498D01*
X29108Y120847D01*
X29451Y120504D01*
X29589Y120287D01*
X29466Y119865D01*
X29207Y119606D01*
X28937Y118955D01*
Y118250D01*
X29207Y117599D01*
X29705Y117100D01*
X30356Y116831D01*
X31061D01*
X31712Y117100D01*
X32211Y117599D01*
X32480Y118250D01*
Y118955D01*
X32211Y119606D01*
X31868Y119949D01*
X31730Y120166D01*
X31853Y120587D01*
X32112Y120847D01*
X32382Y121498D01*
Y122203D01*
X32112Y122854D01*
X31614Y123352D01*
X30963Y123622D01*
D02*
G37*
G36*
X89850Y119061D02*
X89145D01*
X88494Y118791D01*
X87996Y118293D01*
X87726Y117642D01*
Y116937D01*
X87996Y116286D01*
X88494Y115787D01*
X89145Y115518D01*
X89850D01*
X90501Y115787D01*
X91000Y116286D01*
X91269Y116937D01*
Y117642D01*
X91000Y118293D01*
X90501Y118791D01*
X89850Y119061D01*
D02*
G37*
G36*
X205175Y115847D02*
X204470D01*
X203819Y115577D01*
X203321Y115078D01*
X203051Y114427D01*
Y113722D01*
X203321Y113071D01*
X203819Y112573D01*
X204470Y112303D01*
X205175D01*
X205826Y112573D01*
X206325Y113071D01*
X206594Y113722D01*
Y114427D01*
X206325Y115078D01*
X205826Y115577D01*
X205175Y115847D01*
D02*
G37*
G36*
X320954Y115649D02*
X320249D01*
X319598Y115380D01*
X319100Y114882D01*
X318830Y114230D01*
Y113525D01*
X319100Y112874D01*
X319598Y112376D01*
X320249Y112106D01*
X320954D01*
X321605Y112376D01*
X322104Y112874D01*
X322374Y113525D01*
Y114230D01*
X322104Y114882D01*
X321605Y115380D01*
X320954Y115649D01*
D02*
G37*
G36*
X21711Y115157D02*
X21006D01*
X20355Y114888D01*
X19856Y114389D01*
X19587Y113738D01*
Y113033D01*
X19856Y112382D01*
X20355Y111884D01*
X21006Y111614D01*
X21711D01*
X22362Y111884D01*
X22860Y112382D01*
X23130Y113033D01*
Y113738D01*
X22860Y114389D01*
X22362Y114888D01*
X21711Y115157D01*
D02*
G37*
G36*
X314526Y117652D02*
X313821D01*
X313170Y117383D01*
X312671Y116884D01*
X312402Y116233D01*
Y115529D01*
X312532Y115213D01*
X312574Y114750D01*
X312365Y114477D01*
X312081Y114193D01*
X311811Y113541D01*
Y112837D01*
X312081Y112185D01*
X312579Y111687D01*
X313230Y111417D01*
X313935D01*
X314586Y111687D01*
X315085Y112185D01*
X315354Y112837D01*
Y113541D01*
X315224Y113857D01*
X315182Y114320D01*
X315391Y114593D01*
X315675Y114877D01*
X315945Y115529D01*
Y116233D01*
X315675Y116884D01*
X315177Y117383D01*
X314526Y117652D01*
D02*
G37*
G36*
X3502Y117028D02*
X2797D01*
X2146Y116758D01*
X1648Y116260D01*
X1378Y115608D01*
Y114903D01*
X1648Y114252D01*
X2146Y113754D01*
X2797Y113484D01*
X2970D01*
X3247Y113068D01*
X3187Y112924D01*
Y112219D01*
X3457Y111568D01*
X3956Y111070D01*
X4607Y110800D01*
X5311D01*
X5963Y111070D01*
X6461Y111568D01*
X6731Y112219D01*
Y112924D01*
X6461Y113575D01*
X5963Y114074D01*
X5311Y114343D01*
X5139D01*
X4861Y114759D01*
X4921Y114903D01*
Y115608D01*
X4651Y116260D01*
X4153Y116758D01*
X3502Y117028D01*
D02*
G37*
G36*
X39624Y113287D02*
X38919D01*
X38268Y113018D01*
X37770Y112519D01*
X37500Y111868D01*
Y111163D01*
X37770Y110512D01*
X38268Y110014D01*
X38919Y109744D01*
X39624D01*
X40275Y110014D01*
X40774Y110512D01*
X41043Y111163D01*
Y111868D01*
X40774Y112519D01*
X40275Y113018D01*
X39624Y113287D01*
D02*
G37*
G36*
X297301Y118898D02*
X296596D01*
X295945Y118628D01*
X295447Y118130D01*
X295177Y117478D01*
Y116774D01*
X295018Y116535D01*
X294925D01*
X294274Y116266D01*
X293776Y115767D01*
X293506Y115116D01*
Y114411D01*
X293776Y113760D01*
X294274Y113262D01*
X294925Y112992D01*
X295508D01*
X295726Y112633D01*
X295753Y112530D01*
X295447Y112224D01*
X295177Y111573D01*
Y110868D01*
X295447Y110217D01*
X295945Y109719D01*
X296596Y109449D01*
X297301D01*
X297952Y109719D01*
X298451Y110217D01*
X298721Y110868D01*
Y111573D01*
X298451Y112224D01*
X297952Y112722D01*
X297301Y112992D01*
X296719D01*
X296501Y113351D01*
X296474Y113454D01*
X296780Y113760D01*
X297050Y114411D01*
Y115116D01*
X297209Y115354D01*
X297301D01*
X297952Y115624D01*
X298451Y116122D01*
X298721Y116774D01*
Y117478D01*
X298451Y118130D01*
X297952Y118628D01*
X297301Y118898D01*
D02*
G37*
G36*
X234713Y114961D02*
X233988D01*
X233287Y114773D01*
X232658Y114410D01*
X232145Y113897D01*
X231782Y113268D01*
X231594Y112567D01*
Y111842D01*
X231782Y111141D01*
X232145Y110513D01*
X232658Y110000D01*
X233287Y109637D01*
X233988Y109449D01*
X234713D01*
X235414Y109637D01*
X236042Y110000D01*
X236556Y110513D01*
X236918Y111141D01*
X237106Y111842D01*
Y112567D01*
X236918Y113268D01*
X236556Y113897D01*
X236042Y114410D01*
X235414Y114773D01*
X234713Y114961D01*
D02*
G37*
G36*
X227430Y114862D02*
X226704D01*
X226003Y114674D01*
X225375Y114312D01*
X224862Y113798D01*
X224499Y113170D01*
X224311Y112469D01*
Y111743D01*
X224499Y111043D01*
X224862Y110414D01*
X225375Y109901D01*
X226003Y109538D01*
X226704Y109350D01*
X227430D01*
X228131Y109538D01*
X228759Y109901D01*
X229272Y110414D01*
X229635Y111043D01*
X229823Y111743D01*
Y112469D01*
X229635Y113170D01*
X229272Y113798D01*
X228759Y114312D01*
X228131Y114674D01*
X227430Y114862D01*
D02*
G37*
G36*
X86868Y112814D02*
X86163D01*
X85512Y112544D01*
X85014Y112046D01*
X84744Y111395D01*
Y110690D01*
X85014Y110038D01*
X85512Y109540D01*
X86163Y109270D01*
X86868D01*
X87519Y109540D01*
X88018Y110038D01*
X88287Y110690D01*
Y111395D01*
X88018Y112046D01*
X87519Y112544D01*
X86868Y112814D01*
D02*
G37*
G36*
X106455Y112795D02*
X105750D01*
X105099Y112525D01*
X104600Y112027D01*
X104331Y111376D01*
Y110671D01*
X104600Y110020D01*
X105099Y109522D01*
X105750Y109252D01*
X106455D01*
X107106Y109522D01*
X107604Y110020D01*
X107874Y110671D01*
Y111376D01*
X107604Y112027D01*
X107106Y112525D01*
X106455Y112795D01*
D02*
G37*
G36*
X-4372Y115354D02*
X-5077D01*
X-5728Y115085D01*
X-6226Y114586D01*
X-6496Y113935D01*
Y113230D01*
X-6226Y112579D01*
X-5728Y112081D01*
X-5156Y111844D01*
X-5092Y111563D01*
X-5106Y111323D01*
X-5236Y111269D01*
X-5734Y110771D01*
X-6004Y110120D01*
Y109415D01*
X-5734Y108764D01*
X-5236Y108265D01*
X-4585Y107996D01*
X-3880D01*
X-3229Y108265D01*
X-2730Y108764D01*
X-2461Y109415D01*
Y110120D01*
X-2730Y110771D01*
X-3229Y111269D01*
X-3801Y111506D01*
X-3865Y111787D01*
X-3851Y112027D01*
X-3721Y112081D01*
X-3223Y112579D01*
X-2953Y113230D01*
Y113935D01*
X-3223Y114586D01*
X-3721Y115085D01*
X-4372Y115354D01*
D02*
G37*
G36*
X47965Y111171D02*
X47260D01*
X46609Y110901D01*
X46111Y110403D01*
X45841Y109752D01*
Y109047D01*
X46111Y108396D01*
X46609Y107898D01*
X47260Y107628D01*
X47965D01*
X48616Y107898D01*
X49115Y108396D01*
X49385Y109047D01*
Y109752D01*
X49115Y110403D01*
X48616Y110901D01*
X47965Y111171D01*
D02*
G37*
G36*
X306553Y111024D02*
X305848D01*
X305197Y110754D01*
X304699Y110256D01*
X304429Y109604D01*
Y108900D01*
X304699Y108248D01*
X305197Y107750D01*
X305848Y107480D01*
X306553D01*
X307204Y107750D01*
X307703Y108248D01*
X307972Y108900D01*
Y109604D01*
X307703Y110256D01*
X307204Y110754D01*
X306553Y111024D01*
D02*
G37*
G36*
X313159Y110630D02*
X312454D01*
X311803Y110360D01*
X311304Y109862D01*
X311035Y109211D01*
Y108506D01*
X311304Y107855D01*
X311803Y107356D01*
X312454Y107087D01*
X313159D01*
X313810Y107356D01*
X314308Y107855D01*
X314578Y108506D01*
Y109211D01*
X314308Y109862D01*
X313810Y110360D01*
X313159Y110630D01*
D02*
G37*
G36*
X3460Y107635D02*
X2755D01*
X2104Y107366D01*
X1606Y106867D01*
X1140Y106774D01*
X976Y106938D01*
X325Y107208D01*
X-380D01*
X-1031Y106938D01*
X-1530Y106440D01*
X-1799Y105789D01*
Y105084D01*
X-1530Y104433D01*
X-1031Y103935D01*
X-380Y103665D01*
X325D01*
X976Y103935D01*
X1474Y104433D01*
X1940Y104526D01*
X2104Y104362D01*
X2755Y104092D01*
X3460D01*
X4111Y104362D01*
X4610Y104860D01*
X4879Y105511D01*
Y106216D01*
X4610Y106867D01*
X4111Y107366D01*
X3460Y107635D01*
D02*
G37*
G36*
X9998Y109449D02*
X9293D01*
X8642Y109179D01*
X8144Y108681D01*
X7874Y108030D01*
Y107325D01*
X8144Y106674D01*
X8642Y106175D01*
X9293Y105905D01*
X9998D01*
X10649Y106175D01*
X11148Y106674D01*
X11417Y107325D01*
Y108030D01*
X11148Y108681D01*
X10649Y109179D01*
X9998Y109449D01*
D02*
G37*
G36*
X67106Y109006D02*
X66402D01*
X65750Y108736D01*
X65252Y108238D01*
X64982Y107587D01*
Y106882D01*
X65252Y106231D01*
X65750Y105732D01*
X66402Y105463D01*
X67106D01*
X67757Y105732D01*
X68256Y106231D01*
X68526Y106882D01*
Y107587D01*
X68256Y108238D01*
X67757Y108736D01*
X67106Y109006D01*
D02*
G37*
G36*
X212304Y108008D02*
X211599D01*
X210948Y107738D01*
X210450Y107240D01*
X210180Y106589D01*
Y105884D01*
X210450Y105233D01*
X210948Y104734D01*
X211599Y104465D01*
X212304D01*
X212955Y104734D01*
X213453Y105233D01*
X213723Y105884D01*
Y106589D01*
X213453Y107240D01*
X212955Y107738D01*
X212304Y108008D01*
D02*
G37*
G36*
X181849Y106595D02*
X181144D01*
X180492Y106325D01*
X179994Y105826D01*
X179724Y105175D01*
Y104470D01*
X179994Y103819D01*
X180492Y103321D01*
X181144Y103051D01*
X181849D01*
X182500Y103321D01*
X182998Y103819D01*
X183268Y104470D01*
Y105175D01*
X182998Y105826D01*
X182500Y106325D01*
X181849Y106595D01*
D02*
G37*
G36*
X51334Y104232D02*
X50630D01*
X49978Y103963D01*
X49480Y103464D01*
X49210Y102813D01*
Y102108D01*
X49480Y101457D01*
X49978Y100959D01*
X50630Y100689D01*
X51334D01*
X51986Y100959D01*
X52484Y101457D01*
X52754Y102108D01*
Y102813D01*
X52484Y103464D01*
X51986Y103963D01*
X51334Y104232D01*
D02*
G37*
G36*
X39624Y102362D02*
X38919D01*
X38268Y102093D01*
X37770Y101594D01*
X37500Y100943D01*
Y100238D01*
X37770Y99587D01*
X38268Y99089D01*
X38919Y98819D01*
X39624D01*
X40275Y99089D01*
X40774Y99587D01*
X41043Y100238D01*
Y100943D01*
X40774Y101594D01*
X40275Y102093D01*
X39624Y102362D01*
D02*
G37*
G36*
X25365Y101174D02*
X24660D01*
X24009Y100905D01*
X23511Y100406D01*
X23241Y99755D01*
Y99050D01*
X23511Y98399D01*
X24009Y97901D01*
X24660Y97631D01*
X25365D01*
X26017Y97901D01*
X26515Y98399D01*
X26785Y99050D01*
Y99755D01*
X26515Y100406D01*
X26017Y100905D01*
X25365Y101174D01*
D02*
G37*
G36*
X390591Y161653D02*
X368504D01*
X367736Y161500D01*
X367085Y161065D01*
X366650Y160414D01*
X366497Y159646D01*
Y138227D01*
X335827D01*
X335059Y138075D01*
X334408Y137640D01*
X333973Y136988D01*
X333820Y136221D01*
Y99508D01*
X333973Y98740D01*
X334408Y98089D01*
X335059Y97654D01*
X335827Y97501D01*
X370743D01*
X370898Y97025D01*
X370387Y96654D01*
X369094Y95361D01*
X368019Y93882D01*
X367190Y92254D01*
X366625Y90515D01*
X366339Y88709D01*
Y86881D01*
X366625Y85076D01*
X367190Y83337D01*
X368019Y81708D01*
X369094Y80229D01*
X370387Y78936D01*
X371866Y77862D01*
X373495Y77032D01*
X375233Y76467D01*
X377039Y76181D01*
X378867D01*
X380672Y76467D01*
X382411Y77032D01*
X384040Y77862D01*
X385519Y78936D01*
X386811Y80229D01*
X387886Y81708D01*
X388716Y83337D01*
X389281Y85076D01*
X389567Y86881D01*
Y88709D01*
X389281Y90515D01*
X388716Y92254D01*
X387886Y93882D01*
X386811Y95361D01*
X385519Y96654D01*
X385008Y97025D01*
X385162Y97501D01*
X409255D01*
X410023Y97654D01*
X410674Y98089D01*
X410674Y98089D01*
X411188Y98089D01*
X411839Y97654D01*
X412607Y97501D01*
X418622D01*
X419390Y97654D01*
X420041Y98089D01*
X420476Y98740D01*
X420629Y99508D01*
X420629Y131614D01*
X420476Y132382D01*
X420041Y133033D01*
X415435Y137640D01*
X415435Y137640D01*
X392010Y161065D01*
X391359Y161500D01*
X390591Y161653D01*
D02*
G37*
G36*
X32931Y97539D02*
X32226D01*
X31575Y97270D01*
X31077Y96771D01*
X30807Y96120D01*
Y95415D01*
X31077Y94764D01*
X31575Y94266D01*
X32226Y93996D01*
X32931D01*
X33582Y94266D01*
X34081Y94764D01*
X34350Y95415D01*
Y96120D01*
X34081Y96771D01*
X33582Y97270D01*
X32931Y97539D01*
D02*
G37*
G36*
X75050Y97047D02*
X74345D01*
X73694Y96777D01*
X73195Y96279D01*
X72926Y95628D01*
Y94923D01*
X73195Y94272D01*
X73694Y93774D01*
X74345Y93504D01*
X75050D01*
X75701Y93774D01*
X76199Y94272D01*
X76469Y94923D01*
Y95628D01*
X76199Y96279D01*
X75701Y96777D01*
X75050Y97047D01*
D02*
G37*
G36*
X408648Y96551D02*
X407943D01*
X407292Y96282D01*
X406794Y95783D01*
X406524Y95132D01*
Y94427D01*
X406794Y93776D01*
X407292Y93278D01*
X407943Y93008D01*
X408648D01*
X409299Y93278D01*
X409798Y93776D01*
X410068Y94427D01*
Y95132D01*
X409798Y95783D01*
X409299Y96282D01*
X408648Y96551D01*
D02*
G37*
G36*
X22953Y98032D02*
X15473D01*
Y90551D01*
X22953D01*
Y98032D01*
D02*
G37*
G36*
X322487Y92788D02*
X321782D01*
X321131Y92519D01*
X320632Y92020D01*
X320363Y91369D01*
Y90664D01*
X320632Y90013D01*
X321131Y89515D01*
X321782Y89245D01*
X322487D01*
X323138Y89515D01*
X323636Y90013D01*
X323906Y90664D01*
Y91369D01*
X323636Y92020D01*
X323138Y92519D01*
X322487Y92788D01*
D02*
G37*
G36*
X303620Y90466D02*
X302916D01*
X302264Y90197D01*
X301766Y89698D01*
X301496Y89047D01*
Y88342D01*
X301766Y87691D01*
X302264Y87193D01*
X302916Y86923D01*
X303620D01*
X304272Y87193D01*
X304770Y87691D01*
X305040Y88342D01*
Y89047D01*
X304770Y89698D01*
X304272Y90197D01*
X303620Y90466D01*
D02*
G37*
G36*
X343659Y89075D02*
X342955D01*
X342303Y88805D01*
X341805Y88307D01*
X341535Y87656D01*
Y86951D01*
X341805Y86300D01*
X342303Y85801D01*
X342955Y85532D01*
X343659D01*
X344311Y85801D01*
X344809Y86300D01*
X345079Y86951D01*
Y87656D01*
X344809Y88307D01*
X344311Y88805D01*
X343659Y89075D01*
D02*
G37*
G36*
X338345D02*
X337640D01*
X336989Y88805D01*
X336490Y88307D01*
X336221Y87656D01*
Y86951D01*
X336490Y86300D01*
X336989Y85801D01*
X337640Y85532D01*
X338345D01*
X338996Y85801D01*
X339494Y86300D01*
X339764Y86951D01*
Y87656D01*
X339494Y88307D01*
X338996Y88805D01*
X338345Y89075D01*
D02*
G37*
G36*
X103868Y91782D02*
X95502D01*
Y83415D01*
X103868D01*
Y91782D01*
D02*
G37*
G36*
X438049Y86417D02*
X437344D01*
X436693Y86148D01*
X436195Y85649D01*
X435925Y84998D01*
Y84293D01*
X436195Y83642D01*
X436693Y83144D01*
X437344Y82874D01*
X438049D01*
X438700Y83144D01*
X439199Y83642D01*
X439468Y84293D01*
Y84998D01*
X439199Y85649D01*
X438700Y86148D01*
X438049Y86417D01*
D02*
G37*
G36*
X322239Y86319D02*
X321534D01*
X320883Y86049D01*
X320385Y85551D01*
X320115Y84899D01*
Y84195D01*
X320385Y83543D01*
X320883Y83045D01*
X321534Y82775D01*
X322239D01*
X322890Y83045D01*
X323389Y83543D01*
X323658Y84195D01*
Y84899D01*
X323389Y85551D01*
X322890Y86049D01*
X322239Y86319D01*
D02*
G37*
G36*
X329177Y86232D02*
X328472D01*
X327821Y85962D01*
X327323Y85464D01*
X327053Y84812D01*
Y84108D01*
X327323Y83456D01*
X327821Y82958D01*
X328472Y82688D01*
X329177D01*
X329828Y82958D01*
X330327Y83456D01*
X330596Y84108D01*
Y84812D01*
X330327Y85464D01*
X329828Y85962D01*
X329177Y86232D01*
D02*
G37*
G36*
X172400Y86221D02*
X171695D01*
X171044Y85951D01*
X170545Y85452D01*
X170276Y84801D01*
Y84096D01*
X170545Y83445D01*
X171044Y82947D01*
X171695Y82677D01*
X172400D01*
X173051Y82947D01*
X173549Y83445D01*
X173819Y84096D01*
Y84801D01*
X173549Y85452D01*
X173051Y85951D01*
X172400Y86221D01*
D02*
G37*
G36*
X245431Y86122D02*
X244726D01*
X244075Y85852D01*
X243577Y85354D01*
X243307Y84703D01*
Y83998D01*
X243577Y83347D01*
X244075Y82849D01*
X244726Y82579D01*
X245431D01*
X246082Y82849D01*
X246581Y83347D01*
X246850Y83998D01*
Y84703D01*
X246581Y85354D01*
X246082Y85852D01*
X245431Y86122D01*
D02*
G37*
G36*
X362754Y90945D02*
X362049D01*
X361398Y90675D01*
X360900Y90177D01*
X360630Y89526D01*
Y88821D01*
X360900Y88170D01*
X361323Y87746D01*
X360900Y87322D01*
X360630Y86671D01*
Y85966D01*
X360900Y85315D01*
X361323Y84892D01*
X360900Y84468D01*
X360630Y83817D01*
Y83112D01*
X360900Y82461D01*
X361398Y81963D01*
X362049Y81693D01*
X362754D01*
X363405Y81963D01*
X363903Y82461D01*
X364173Y83112D01*
Y83817D01*
X363903Y84468D01*
X363480Y84892D01*
X363903Y85315D01*
X364173Y85966D01*
Y86671D01*
X363903Y87322D01*
X363480Y87746D01*
X363903Y88170D01*
X364173Y88821D01*
Y89526D01*
X363903Y90177D01*
X363405Y90675D01*
X362754Y90945D01*
D02*
G37*
G36*
X19705Y88032D02*
X18720D01*
X17769Y87777D01*
X16916Y87284D01*
X16220Y86588D01*
X15727Y85735D01*
X15473Y84784D01*
Y83799D01*
X15727Y82848D01*
X16220Y81995D01*
X16916Y81299D01*
X17769Y80806D01*
X18720Y80551D01*
X19705D01*
X20656Y80806D01*
X21509Y81299D01*
X22206Y81995D01*
X22698Y82848D01*
X22953Y83799D01*
Y84784D01*
X22698Y85735D01*
X22206Y86588D01*
X21509Y87284D01*
X20656Y87777D01*
X19705Y88032D01*
D02*
G37*
G36*
X227823Y84153D02*
X227098D01*
X226397Y83966D01*
X225768Y83603D01*
X225255Y83090D01*
X224892Y82461D01*
X224705Y81761D01*
Y81035D01*
X224892Y80334D01*
X225255Y79706D01*
X225768Y79192D01*
X226397Y78830D01*
X227098Y78642D01*
X227823D01*
X228524Y78830D01*
X229153Y79192D01*
X229666Y79706D01*
X230029Y80334D01*
X230217Y81035D01*
Y81761D01*
X230029Y82461D01*
X229666Y83090D01*
X229153Y83603D01*
X228524Y83966D01*
X227823Y84153D01*
D02*
G37*
G36*
X234418Y84153D02*
X233692D01*
X232991Y83966D01*
X232363Y83603D01*
X231850Y83090D01*
X231487Y82461D01*
X231299Y81761D01*
Y81035D01*
X231487Y80334D01*
X231850Y79706D01*
X232363Y79192D01*
X232991Y78829D01*
X233692Y78642D01*
X234418D01*
X235119Y78829D01*
X235747Y79192D01*
X236260Y79706D01*
X236623Y80334D01*
X236811Y81035D01*
Y81761D01*
X236623Y82461D01*
X236260Y83090D01*
X235747Y83603D01*
X235119Y83966D01*
X234418Y84153D01*
D02*
G37*
G36*
X446415Y80709D02*
X445711D01*
X445059Y80439D01*
X444561Y79941D01*
X444291Y79289D01*
Y78585D01*
X444561Y77934D01*
X445059Y77435D01*
X445711Y77165D01*
X446415D01*
X447067Y77435D01*
X447565Y77934D01*
X447835Y78585D01*
Y79289D01*
X447565Y79941D01*
X447067Y80439D01*
X446415Y80709D01*
D02*
G37*
G36*
X245431Y80610D02*
X244726D01*
X244075Y80340D01*
X243577Y79842D01*
X243307Y79191D01*
Y78486D01*
X243577Y77835D01*
X244075Y77337D01*
X244726Y77067D01*
X245431D01*
X246082Y77337D01*
X246581Y77835D01*
X246850Y78486D01*
Y79191D01*
X246581Y79842D01*
X246082Y80340D01*
X245431Y80610D01*
D02*
G37*
G36*
X280442Y99410D02*
X278613D01*
X276808Y99124D01*
X275069Y98559D01*
X273440Y97729D01*
X271961Y96654D01*
X270669Y95361D01*
X269594Y93882D01*
X268764Y92254D01*
X268199Y90515D01*
X267913Y88709D01*
Y86881D01*
X268199Y85076D01*
X268764Y83337D01*
X269594Y81708D01*
X270669Y80229D01*
X271961Y78936D01*
X273440Y77862D01*
X275069Y77032D01*
X276808Y76467D01*
X278613Y76181D01*
X280442D01*
X282247Y76467D01*
X283986Y77032D01*
X285615Y77862D01*
X287094Y78936D01*
X288386Y80229D01*
X289461Y81708D01*
X290291Y83337D01*
X290856Y85076D01*
X291142Y86881D01*
Y88709D01*
X290856Y90515D01*
X290291Y92254D01*
X289461Y93882D01*
X288386Y95361D01*
X287094Y96654D01*
X285615Y97729D01*
X283986Y98559D01*
X282247Y99124D01*
X280442Y99410D01*
D02*
G37*
G36*
X397695Y79331D02*
X396990D01*
X396339Y79061D01*
X395841Y78563D01*
X395571Y77912D01*
Y77207D01*
X395841Y76556D01*
X396339Y76057D01*
X396990Y75787D01*
X397695D01*
X398346Y76057D01*
X398845Y76556D01*
X399114Y77207D01*
Y77912D01*
X398845Y78563D01*
X398346Y79061D01*
X397695Y79331D01*
D02*
G37*
G36*
X451208Y78763D02*
X450504D01*
X449853Y78493D01*
X449354Y77995D01*
X449084Y77344D01*
Y76639D01*
X449354Y75988D01*
X449853Y75490D01*
X450504Y75220D01*
X451208D01*
X451860Y75490D01*
X452358Y75988D01*
X452628Y76639D01*
Y77344D01*
X452358Y77995D01*
X451860Y78493D01*
X451208Y78763D01*
D02*
G37*
G36*
X54782Y77067D02*
X54077D01*
X53426Y76797D01*
X52927Y76299D01*
X52658Y75648D01*
Y74943D01*
X52927Y74292D01*
X53426Y73793D01*
X54077Y73524D01*
X54782D01*
X55433Y73793D01*
X55931Y74292D01*
X56201Y74943D01*
Y75648D01*
X55931Y76299D01*
X55433Y76797D01*
X54782Y77067D01*
D02*
G37*
G36*
X328534Y76829D02*
X327829D01*
X327178Y76559D01*
X326680Y76061D01*
X326410Y75410D01*
Y74705D01*
X326680Y74054D01*
X327178Y73555D01*
X327829Y73286D01*
X328534D01*
X329185Y73555D01*
X329684Y74054D01*
X329953Y74705D01*
Y75410D01*
X329684Y76061D01*
X329185Y76559D01*
X328534Y76829D01*
D02*
G37*
G36*
X424200Y76605D02*
X423496D01*
X422845Y76335D01*
X422346Y75837D01*
X422077Y75186D01*
Y74481D01*
X422346Y73830D01*
X422845Y73331D01*
X423496Y73062D01*
X424200D01*
X424852Y73331D01*
X425350Y73830D01*
X425620Y74481D01*
Y75186D01*
X425350Y75837D01*
X424852Y76335D01*
X424200Y76605D01*
D02*
G37*
G36*
X101435Y76083D02*
X100730D01*
X100079Y75813D01*
X99581Y75315D01*
X99311Y74663D01*
Y73959D01*
X99581Y73308D01*
X100079Y72809D01*
X100730Y72539D01*
X101435D01*
X102086Y72809D01*
X102585Y73308D01*
X102854Y73959D01*
Y74663D01*
X102585Y75315D01*
X102086Y75813D01*
X101435Y76083D01*
D02*
G37*
G36*
X298042Y74639D02*
X297337D01*
X296686Y74369D01*
X296187Y73870D01*
X295918Y73219D01*
Y72515D01*
X296187Y71863D01*
X296686Y71365D01*
X297337Y71095D01*
X298042D01*
X298693Y71365D01*
X299191Y71863D01*
X299461Y72515D01*
Y73219D01*
X299191Y73870D01*
X298693Y74369D01*
X298042Y74639D01*
D02*
G37*
G36*
X19705Y78031D02*
X18720D01*
X17769Y77777D01*
X16916Y77284D01*
X16220Y76588D01*
X15727Y75735D01*
X15473Y74784D01*
Y73799D01*
X15727Y72848D01*
X16220Y71995D01*
X16916Y71298D01*
X17769Y70806D01*
X18720Y70551D01*
X19705D01*
X20656Y70806D01*
X21509Y71298D01*
X22206Y71995D01*
X22698Y72848D01*
X22953Y73799D01*
Y74784D01*
X22698Y75735D01*
X22206Y76588D01*
X21509Y77284D01*
X20656Y77777D01*
X19705Y78031D01*
D02*
G37*
G36*
X59188Y73936D02*
X58483D01*
X57832Y73666D01*
X57333Y73168D01*
X57064Y72517D01*
Y71812D01*
X57333Y71161D01*
X57832Y70662D01*
X58483Y70393D01*
X59188D01*
X59839Y70662D01*
X60337Y71161D01*
X60607Y71812D01*
Y72517D01*
X60337Y73168D01*
X59839Y73666D01*
X59188Y73936D01*
D02*
G37*
G36*
X320011Y70768D02*
X319306D01*
X318655Y70498D01*
X318156Y70000D01*
X317887Y69349D01*
Y68644D01*
X318156Y67993D01*
X318655Y67494D01*
X319056Y67328D01*
X322325Y64058D01*
X322846Y63710D01*
X323461Y63588D01*
X330569D01*
X330970Y63422D01*
X331675D01*
X332326Y63692D01*
X332824Y64190D01*
X333094Y64841D01*
Y65546D01*
X332824Y66197D01*
X332326Y66695D01*
X331675Y66965D01*
X330970D01*
X330569Y66799D01*
X324126D01*
X321326Y69599D01*
X321160Y70000D01*
X320662Y70498D01*
X320011Y70768D01*
D02*
G37*
G36*
X89306Y66335D02*
X88601D01*
X87950Y66066D01*
X87452Y65567D01*
X87182Y64916D01*
Y64211D01*
X87452Y63560D01*
X87950Y63062D01*
X88601Y62792D01*
X89306D01*
X89957Y63062D01*
X90456Y63560D01*
X90725Y64211D01*
Y64916D01*
X90456Y65567D01*
X89957Y66066D01*
X89306Y66335D01*
D02*
G37*
G36*
X39427Y65873D02*
X38722D01*
X38071Y65604D01*
X37573Y65105D01*
X37303Y64454D01*
Y63749D01*
X37573Y63098D01*
X38071Y62600D01*
X38722Y62330D01*
X39427D01*
X40078Y62600D01*
X40577Y63098D01*
X40846Y63749D01*
Y64454D01*
X40577Y65105D01*
X40078Y65604D01*
X39427Y65873D01*
D02*
G37*
G36*
X19705Y68032D02*
X18720D01*
X17769Y67777D01*
X16916Y67284D01*
X16220Y66588D01*
X15727Y65735D01*
X15473Y64784D01*
Y63799D01*
X15727Y62848D01*
X16220Y61995D01*
X16916Y61299D01*
X17769Y60806D01*
X18720Y60551D01*
X19705D01*
X20656Y60806D01*
X21509Y61299D01*
X22206Y61995D01*
X22698Y62848D01*
X22953Y63799D01*
Y64784D01*
X22698Y65735D01*
X22206Y66588D01*
X21509Y67284D01*
X20656Y67777D01*
X19705Y68032D01*
D02*
G37*
G36*
X55372Y63976D02*
X54667D01*
X54016Y63707D01*
X53518Y63208D01*
X53248Y62557D01*
Y61852D01*
X53518Y61201D01*
X54016Y60703D01*
X54667Y60433D01*
X55372D01*
X56023Y60703D01*
X56522Y61201D01*
X56791Y61852D01*
Y62557D01*
X56522Y63208D01*
X56023Y63707D01*
X55372Y63976D01*
D02*
G37*
G36*
X233532Y62894D02*
X232806D01*
X232105Y62706D01*
X231477Y62343D01*
X230964Y61830D01*
X230601Y61202D01*
X230413Y60501D01*
Y59775D01*
X230601Y59074D01*
X230964Y58446D01*
X231477Y57933D01*
X232105Y57570D01*
X232806Y57382D01*
X233532D01*
X234233Y57570D01*
X234861Y57933D01*
X235375Y58446D01*
X235737Y59074D01*
X235925Y59775D01*
Y60501D01*
X235737Y61202D01*
X235375Y61830D01*
X234861Y62343D01*
X234233Y62706D01*
X233532Y62894D01*
D02*
G37*
G36*
X175549Y60925D02*
X174845D01*
X174193Y60655D01*
X173695Y60157D01*
X173425Y59506D01*
Y58801D01*
X173695Y58150D01*
X174193Y57652D01*
X174845Y57382D01*
X175549D01*
X176200Y57652D01*
X176699Y58150D01*
X176969Y58801D01*
Y59506D01*
X176699Y60157D01*
X176200Y60655D01*
X175549Y60925D01*
D02*
G37*
G36*
X19705Y58031D02*
X18720D01*
X17769Y57777D01*
X16916Y57284D01*
X16220Y56588D01*
X15727Y55735D01*
X15473Y54784D01*
Y53799D01*
X15727Y52848D01*
X16220Y51995D01*
X16916Y51298D01*
X17769Y50806D01*
X18720Y50551D01*
X19705D01*
X20656Y50806D01*
X21509Y51298D01*
X22206Y51995D01*
X22698Y52848D01*
X22953Y53799D01*
Y54784D01*
X22698Y55735D01*
X22206Y56588D01*
X21509Y57284D01*
X20656Y57777D01*
X19705Y58031D01*
D02*
G37*
G36*
X82144Y53937D02*
X81439D01*
X80788Y53667D01*
X80289Y53169D01*
X80020Y52518D01*
Y51813D01*
X80289Y51162D01*
X80788Y50663D01*
X81439Y50394D01*
X82144D01*
X82795Y50663D01*
X83293Y51162D01*
X83563Y51813D01*
Y52518D01*
X83293Y53169D01*
X82795Y53667D01*
X82144Y53937D01*
D02*
G37*
G36*
X318659Y49705D02*
X317955D01*
X317303Y49435D01*
X317175Y49307D01*
X317047Y49435D01*
X316396Y49705D01*
X315691D01*
X315040Y49435D01*
X314715Y49110D01*
X314488Y49337D01*
X313837Y49606D01*
X313132D01*
X312481Y49337D01*
X312352Y49208D01*
X312224Y49337D01*
X311573Y49606D01*
X310868D01*
X310217Y49337D01*
X310039Y49159D01*
X309862Y49337D01*
X309211Y49606D01*
X308506D01*
X307855Y49337D01*
X307677Y49159D01*
X307500Y49337D01*
X306849Y49606D01*
X306144D01*
X305492Y49337D01*
X304994Y48838D01*
X304724Y48187D01*
Y47482D01*
X304994Y46831D01*
X305492Y46333D01*
X305798Y46206D01*
Y45665D01*
X305394Y45498D01*
X304896Y45000D01*
X304626Y44348D01*
Y43644D01*
X304896Y42992D01*
X305024Y42864D01*
X304896Y42736D01*
X304626Y42085D01*
Y41380D01*
X304896Y40729D01*
X305024Y40600D01*
X304896Y40472D01*
X304626Y39821D01*
Y39116D01*
X304896Y38465D01*
X305073Y38287D01*
X304896Y38110D01*
X304626Y37459D01*
Y36754D01*
X304896Y36103D01*
X305394Y35604D01*
X305748Y35458D01*
Y34916D01*
X305394Y34770D01*
X304896Y34271D01*
X304626Y33620D01*
Y32915D01*
X304896Y32264D01*
X305394Y31766D01*
X306045Y31496D01*
X306750D01*
X307401Y31766D01*
X307579Y31943D01*
X307855Y31667D01*
X308506Y31398D01*
X309211D01*
X309862Y31667D01*
X310236Y32042D01*
X310611Y31667D01*
X311262Y31398D01*
X311967D01*
X312618Y31667D01*
X312844Y31894D01*
X313071Y31667D01*
X313722Y31398D01*
X314427D01*
X315078Y31667D01*
X315256Y31845D01*
X315335Y31766D01*
X315986Y31496D01*
X316691D01*
X317342Y31766D01*
X317471Y31894D01*
X317599Y31766D01*
X318250Y31496D01*
X318955D01*
X319606Y31766D01*
X320104Y32264D01*
X320374Y32915D01*
Y33620D01*
X320104Y34271D01*
X319878Y34498D01*
X320006Y34626D01*
X320276Y35278D01*
Y35982D01*
X320006Y36634D01*
X319779Y36860D01*
X320006Y37087D01*
X320276Y37738D01*
Y38443D01*
X320006Y39094D01*
X319681Y39419D01*
X319907Y39646D01*
X320177Y40297D01*
Y41002D01*
X319907Y41653D01*
X319632Y41929D01*
X319907Y42205D01*
X320177Y42856D01*
Y43561D01*
X319907Y44212D01*
X319681Y44439D01*
X319809Y44567D01*
X320079Y45219D01*
Y45923D01*
X319809Y46574D01*
X319632Y46752D01*
X319809Y46929D01*
X320079Y47581D01*
Y48285D01*
X319809Y48937D01*
X319311Y49435D01*
X318659Y49705D01*
D02*
G37*
G36*
X32341Y53445D02*
X31636D01*
X30985Y53175D01*
X30486Y52677D01*
X30217Y52026D01*
Y51321D01*
X30486Y50670D01*
X30946Y50210D01*
X30987Y50124D01*
X31009Y49620D01*
X30658Y49268D01*
X30388Y48617D01*
Y47913D01*
X30658Y47261D01*
X31156Y46763D01*
X31807Y46493D01*
X32512D01*
X33163Y46763D01*
X33661Y47261D01*
X33931Y47913D01*
Y48617D01*
X33661Y49268D01*
X33202Y49728D01*
X33161Y49814D01*
X33139Y50318D01*
X33490Y50670D01*
X33760Y51321D01*
Y52026D01*
X33490Y52677D01*
X32992Y53175D01*
X32341Y53445D01*
D02*
G37*
G36*
X106553Y44291D02*
X105848D01*
X105197Y44022D01*
X104699Y43523D01*
X104429Y42872D01*
Y42167D01*
X104699Y41516D01*
X105197Y41018D01*
X105848Y40748D01*
X106553D01*
X107204Y41018D01*
X107703Y41516D01*
X107972Y42167D01*
Y42872D01*
X107703Y43523D01*
X107204Y44022D01*
X106553Y44291D01*
D02*
G37*
G36*
X19705Y48031D02*
X18720D01*
X17769Y47777D01*
X16916Y47284D01*
X16220Y46588D01*
X15727Y45735D01*
X15473Y44784D01*
Y43799D01*
X15727Y42848D01*
X16220Y41995D01*
X16916Y41298D01*
X17769Y40806D01*
X18720Y40551D01*
X19705D01*
X20656Y40806D01*
X21509Y41298D01*
X22206Y41995D01*
X22698Y42848D01*
X22953Y43799D01*
Y44784D01*
X22698Y45735D01*
X22206Y46588D01*
X21509Y47284D01*
X20656Y47777D01*
X19705Y48031D01*
D02*
G37*
G36*
X101337Y43996D02*
X100632D01*
X99981Y43726D01*
X99482Y43228D01*
X99213Y42577D01*
Y41872D01*
X99482Y41221D01*
X99981Y40723D01*
X100632Y40453D01*
X101337D01*
X101988Y40723D01*
X102486Y41221D01*
X102756Y41872D01*
Y42577D01*
X102486Y43228D01*
X101988Y43726D01*
X101337Y43996D01*
D02*
G37*
G36*
X226938Y45177D02*
X226212D01*
X225511Y44989D01*
X224883Y44627D01*
X224370Y44113D01*
X224007Y43485D01*
X223819Y42784D01*
Y42058D01*
X224007Y41357D01*
X224370Y40729D01*
X224883Y40216D01*
X225511Y39853D01*
X226212Y39665D01*
X226938D01*
X227639Y39853D01*
X228267Y40216D01*
X228780Y40729D01*
X229143Y41357D01*
X229331Y42058D01*
Y42784D01*
X229143Y43485D01*
X228780Y44113D01*
X228267Y44627D01*
X227639Y44989D01*
X226938Y45177D01*
D02*
G37*
G36*
X233532Y45177D02*
X232806D01*
X232105Y44989D01*
X231477Y44627D01*
X230964Y44113D01*
X230601Y43485D01*
X230413Y42784D01*
Y42058D01*
X230601Y41357D01*
X230964Y40729D01*
X231477Y40216D01*
X232105Y39853D01*
X232806Y39665D01*
X233532D01*
X234233Y39853D01*
X234861Y40216D01*
X235375Y40729D01*
X235737Y41357D01*
X235925Y42058D01*
Y42784D01*
X235737Y43485D01*
X235375Y44113D01*
X234861Y44627D01*
X234233Y44989D01*
X233532Y45177D01*
D02*
G37*
G36*
X245431Y39862D02*
X244726D01*
X244075Y39592D01*
X243577Y39094D01*
X243307Y38443D01*
Y37738D01*
X243577Y37087D01*
X243772Y36892D01*
X244055Y36565D01*
X243772Y36238D01*
X243577Y36043D01*
X243307Y35392D01*
Y34687D01*
X243577Y34036D01*
X244075Y33538D01*
X244726Y33268D01*
X245431D01*
X246082Y33538D01*
X246581Y34036D01*
X246850Y34687D01*
Y35392D01*
X246581Y36043D01*
X246385Y36238D01*
X246103Y36565D01*
X246385Y36892D01*
X246581Y37087D01*
X246850Y37738D01*
Y38443D01*
X246581Y39094D01*
X246082Y39592D01*
X245431Y39862D01*
D02*
G37*
G36*
X19705Y38032D02*
X18720D01*
X17769Y37777D01*
X16916Y37284D01*
X16220Y36588D01*
X15727Y35735D01*
X15473Y34784D01*
Y33799D01*
X15727Y32848D01*
X16220Y31995D01*
X16916Y31299D01*
X17769Y30806D01*
X18720Y30551D01*
X19705D01*
X20656Y30806D01*
X21509Y31299D01*
X22206Y31995D01*
X22698Y32848D01*
X22953Y33799D01*
Y34784D01*
X22698Y35735D01*
X22206Y36588D01*
X21509Y37284D01*
X20656Y37777D01*
X19705Y38032D01*
D02*
G37*
G36*
X39329Y30610D02*
X38624D01*
X37973Y30340D01*
X37475Y29842D01*
X37205Y29191D01*
Y28486D01*
X37475Y27835D01*
X37973Y27337D01*
X38624Y27067D01*
X39329D01*
X39980Y27337D01*
X40478Y27835D01*
X40748Y28486D01*
Y29191D01*
X40478Y29842D01*
X39980Y30340D01*
X39329Y30610D01*
D02*
G37*
G36*
X208718Y29724D02*
X208014D01*
X207363Y29455D01*
X206864Y28956D01*
X206594Y28305D01*
Y27600D01*
X206864Y26949D01*
X207363Y26451D01*
X208014Y26181D01*
X208718D01*
X209370Y26451D01*
X209868Y26949D01*
X210138Y27600D01*
Y28305D01*
X209868Y28956D01*
X209370Y29455D01*
X208718Y29724D01*
D02*
G37*
G36*
X321317Y29626D02*
X320612D01*
X319961Y29356D01*
X319463Y28858D01*
X319193Y28207D01*
Y27502D01*
X319463Y26851D01*
X319961Y26352D01*
X320612Y26083D01*
X321317D01*
X321968Y26352D01*
X322467Y26851D01*
X322736Y27502D01*
Y28207D01*
X322467Y28858D01*
X321968Y29356D01*
X321317Y29626D01*
D02*
G37*
G36*
X201730Y28740D02*
X201026D01*
X200374Y28470D01*
X199876Y27972D01*
X199606Y27321D01*
Y26616D01*
X199876Y25965D01*
X200374Y25467D01*
X201026Y25197D01*
X201730D01*
X202381Y25467D01*
X202880Y25965D01*
X203150Y26616D01*
Y27321D01*
X202880Y27972D01*
X202381Y28470D01*
X201730Y28740D01*
D02*
G37*
G36*
X314530Y26528D02*
X313825D01*
X313174Y26258D01*
X312676Y25760D01*
X312422Y25147D01*
X312065Y25295D01*
X311360D01*
X310709Y25025D01*
X310211Y24527D01*
X309941Y23876D01*
Y23171D01*
X310211Y22520D01*
X310709Y22022D01*
X311360Y21752D01*
X312065D01*
X312716Y22022D01*
X313215Y22520D01*
X313468Y23132D01*
X313825Y22985D01*
X314530D01*
X315181Y23254D01*
X315680Y23753D01*
X315949Y24404D01*
Y25109D01*
X315680Y25760D01*
X315181Y26258D01*
X314530Y26528D01*
D02*
G37*
G36*
X19713Y28030D02*
Y24791D01*
X22951D01*
X22698Y25735D01*
X22206Y26588D01*
X21509Y27284D01*
X20656Y27777D01*
X19713Y28030D01*
D02*
G37*
G36*
X18713D02*
X17769Y27777D01*
X16916Y27284D01*
X16220Y26588D01*
X15727Y25735D01*
X15474Y24791D01*
X18713D01*
Y28030D01*
D02*
G37*
G36*
X443069Y28150D02*
X442364D01*
X441713Y27880D01*
X441215Y27382D01*
X440945Y26730D01*
Y26026D01*
X441215Y25374D01*
X441713Y24876D01*
X442364Y24606D01*
X443069D01*
X443720Y24876D01*
X444218Y25374D01*
X444488Y26026D01*
Y26730D01*
X444218Y27382D01*
X443720Y27880D01*
X443069Y28150D01*
D02*
G37*
G36*
X22951Y23791D02*
X19713D01*
Y20553D01*
X20656Y20806D01*
X21509Y21298D01*
X22206Y21995D01*
X22698Y22848D01*
X22951Y23791D01*
D02*
G37*
G36*
X18713D02*
X15474D01*
X15727Y22848D01*
X16220Y21995D01*
X16916Y21298D01*
X17769Y20806D01*
X18713Y20553D01*
Y23791D01*
D02*
G37*
G36*
X292973Y29426D02*
X292269D01*
X291617Y29157D01*
X291119Y28658D01*
X290849Y28007D01*
Y27302D01*
X291119Y26651D01*
X291617Y26153D01*
X292269Y25883D01*
X292596D01*
X292939Y25405D01*
Y24700D01*
X293209Y24049D01*
X293628Y23630D01*
X293543Y23254D01*
X293474Y23130D01*
X293336D01*
X292685Y22860D01*
X292186Y22362D01*
X291917Y21711D01*
Y21006D01*
X292186Y20355D01*
X292685Y19856D01*
X293336Y19587D01*
X294041D01*
X294692Y19856D01*
X295190Y20355D01*
X295460Y21006D01*
Y21711D01*
X295190Y22362D01*
X294772Y22781D01*
X294856Y23157D01*
X294925Y23281D01*
X295063D01*
X295714Y23550D01*
X296213Y24049D01*
X296482Y24700D01*
Y25405D01*
X296213Y26056D01*
X295714Y26554D01*
X295063Y26824D01*
X294736D01*
X294393Y27302D01*
Y28007D01*
X294123Y28658D01*
X293625Y29157D01*
X292973Y29426D01*
D02*
G37*
G36*
X305963Y21063D02*
X305258D01*
X304607Y20793D01*
X304108Y20295D01*
X303839Y19644D01*
Y18939D01*
X304108Y18288D01*
X304607Y17789D01*
X305258Y17520D01*
X305963D01*
X306614Y17789D01*
X307112Y18288D01*
X307382Y18939D01*
Y19644D01*
X307112Y20295D01*
X306614Y20793D01*
X305963Y21063D01*
D02*
G37*
G36*
X311770Y20965D02*
X311065D01*
X310414Y20695D01*
X309915Y20197D01*
X309646Y19545D01*
Y18841D01*
X309915Y18189D01*
X310414Y17691D01*
X311065Y17421D01*
X311770D01*
X312421Y17691D01*
X312919Y18189D01*
X313189Y18841D01*
Y19545D01*
X312919Y20197D01*
X312421Y20695D01*
X311770Y20965D01*
D02*
G37*
G36*
X438157Y20106D02*
X437452D01*
X436801Y19837D01*
X436303Y19338D01*
X436033Y18687D01*
Y17982D01*
X436303Y17331D01*
X436801Y16833D01*
X437452Y16563D01*
X438157D01*
X438808Y16833D01*
X439306Y17331D01*
X439576Y17982D01*
Y18687D01*
X439306Y19338D01*
X438808Y19837D01*
X438157Y20106D01*
D02*
G37*
G36*
X83522Y18110D02*
X82817D01*
X82166Y17841D01*
X81667Y17342D01*
X81398Y16691D01*
Y15986D01*
X81667Y15335D01*
X82166Y14837D01*
X82817Y14567D01*
X83522D01*
X84173Y14837D01*
X84671Y15335D01*
X84941Y15986D01*
Y16691D01*
X84671Y17342D01*
X84173Y17841D01*
X83522Y18110D01*
D02*
G37*
G36*
X39230Y17323D02*
X38526D01*
X37874Y17053D01*
X37376Y16555D01*
X37106Y15904D01*
Y15199D01*
X37376Y14548D01*
X37874Y14049D01*
X38526Y13780D01*
X39230D01*
X39882Y14049D01*
X40380Y14548D01*
X40650Y15199D01*
Y15904D01*
X40380Y16555D01*
X39882Y17053D01*
X39230Y17323D01*
D02*
G37*
G36*
X450579Y14225D02*
X449874D01*
X449223Y13956D01*
X448725Y13457D01*
X448455Y12806D01*
Y12101D01*
X448725Y11450D01*
X449223Y10952D01*
X449874Y10682D01*
X450579D01*
X451230Y10952D01*
X451729Y11450D01*
X451999Y12101D01*
Y12806D01*
X451729Y13457D01*
X451230Y13956D01*
X450579Y14225D01*
D02*
G37*
%LPD*%
G36*
X418583Y194409D02*
Y170374D01*
X365650Y170374D01*
X338386Y197638D01*
X336417D01*
Y227756D01*
X385236D01*
X418583Y194409D01*
D02*
G37*
%LPC*%
G36*
X413635Y197677D02*
X412931D01*
X412280Y197407D01*
X411781Y196909D01*
X411511Y196258D01*
Y195553D01*
X411781Y194902D01*
X412280Y194404D01*
X412931Y194134D01*
X413635D01*
X414287Y194404D01*
X414785Y194902D01*
X415055Y195553D01*
Y196258D01*
X414785Y196909D01*
X414287Y197407D01*
X413635Y197677D01*
D02*
G37*
%LPD*%
G36*
X414016Y136221D02*
X418622Y131614D01*
X418622Y99508D01*
X412607D01*
X412400Y100008D01*
X412433Y100040D01*
X412703Y100692D01*
Y101397D01*
X412433Y102048D01*
X411935Y102546D01*
X411283Y102816D01*
X410579D01*
X409927Y102546D01*
X409429Y102048D01*
X409159Y101397D01*
Y100692D01*
X409429Y100040D01*
X409462Y100008D01*
X409255Y99508D01*
X335827D01*
Y136221D01*
X368504D01*
Y159646D01*
X390591D01*
X414016Y136221D01*
D02*
G37*
%LPC*%
G36*
X413246Y131201D02*
X412541D01*
X411890Y130931D01*
X411392Y130433D01*
X411122Y129781D01*
Y129077D01*
X411392Y128426D01*
X411890Y127927D01*
X412541Y127657D01*
X413246D01*
X413897Y127927D01*
X414396Y128426D01*
X414665Y129077D01*
Y129781D01*
X414396Y130433D01*
X413897Y130931D01*
X413246Y131201D01*
D02*
G37*
G36*
X528164Y170715D02*
X526950D01*
X525777Y170401D01*
X524725Y169793D01*
X523866Y168935D01*
X523259Y167883D01*
X522945Y166710D01*
Y165495D01*
X523259Y164322D01*
X523866Y163270D01*
X524725Y162412D01*
X525777Y161804D01*
X526950Y161490D01*
X528164D01*
X529338Y161804D01*
X530389Y162412D01*
X531248Y163270D01*
X531855Y164322D01*
X532169Y165495D01*
Y166710D01*
X531855Y167883D01*
X531248Y168935D01*
X530389Y169793D01*
X529338Y170401D01*
X528164Y170715D01*
D02*
G37*
G36*
X488164D02*
X486950D01*
X485777Y170401D01*
X484725Y169793D01*
X483866Y168935D01*
X483259Y167883D01*
X482945Y166710D01*
Y165495D01*
X483259Y164322D01*
X483866Y163270D01*
X484725Y162412D01*
X485777Y161804D01*
X486950Y161490D01*
X488164D01*
X489337Y161804D01*
X490389Y162412D01*
X491248Y163270D01*
X491855Y164322D01*
X492170Y165495D01*
Y166710D01*
X491855Y167883D01*
X491248Y168935D01*
X490389Y169793D01*
X489337Y170401D01*
X488164Y170715D01*
D02*
G37*
G36*
X528164Y114416D02*
X526950D01*
X525777Y114101D01*
X524725Y113494D01*
X523866Y112635D01*
X523259Y111583D01*
X522945Y110410D01*
Y109196D01*
X523259Y108023D01*
X523866Y106971D01*
X524725Y106112D01*
X525777Y105505D01*
X526950Y105191D01*
X528164D01*
X529338Y105505D01*
X530389Y106112D01*
X531248Y106971D01*
X531855Y108023D01*
X532169Y109196D01*
Y110410D01*
X531855Y111583D01*
X531248Y112635D01*
X530389Y113494D01*
X529338Y114101D01*
X528164Y114416D01*
D02*
G37*
G36*
X488164D02*
X486950D01*
X485777Y114101D01*
X484725Y113494D01*
X483866Y112635D01*
X483259Y111583D01*
X482945Y110410D01*
Y109196D01*
X483259Y108023D01*
X483866Y106971D01*
X484725Y106112D01*
X485777Y105505D01*
X486950Y105191D01*
X488164D01*
X489337Y105505D01*
X490389Y106112D01*
X491248Y106971D01*
X491855Y108023D01*
X492170Y109196D01*
Y110410D01*
X491855Y111583D01*
X491248Y112635D01*
X490389Y113494D01*
X489337Y114101D01*
X488164Y114416D01*
D02*
G37*
G36*
X528164Y58116D02*
X526950D01*
X525777Y57802D01*
X524725Y57195D01*
X523866Y56336D01*
X523259Y55284D01*
X522945Y54111D01*
Y52897D01*
X523259Y51724D01*
X523866Y50672D01*
X524725Y49813D01*
X525777Y49206D01*
X526950Y48892D01*
X528164D01*
X529338Y49206D01*
X530389Y49813D01*
X531248Y50672D01*
X531855Y51724D01*
X532169Y52897D01*
Y54111D01*
X531855Y55284D01*
X531248Y56336D01*
X530389Y57195D01*
X529338Y57802D01*
X528164Y58116D01*
D02*
G37*
G36*
X488164D02*
X486950D01*
X485777Y57802D01*
X484725Y57195D01*
X483866Y56336D01*
X483259Y55284D01*
X482945Y54111D01*
Y52897D01*
X483259Y51724D01*
X483866Y50672D01*
X484725Y49813D01*
X485777Y49206D01*
X486950Y48892D01*
X488164D01*
X489337Y49206D01*
X490389Y49813D01*
X491248Y50672D01*
X491855Y51724D01*
X492170Y52897D01*
Y54111D01*
X491855Y55284D01*
X491248Y56336D01*
X490389Y57195D01*
X489337Y57802D01*
X488164Y58116D01*
D02*
G37*
G36*
X528164Y18116D02*
X526950D01*
X525777Y17802D01*
X524725Y17195D01*
X523866Y16336D01*
X523259Y15284D01*
X522945Y14111D01*
Y12897D01*
X523259Y11724D01*
X523866Y10672D01*
X524725Y9813D01*
X525777Y9206D01*
X526950Y8892D01*
X528164D01*
X529338Y9206D01*
X530389Y9813D01*
X531248Y10672D01*
X531855Y11724D01*
X532169Y12897D01*
Y14111D01*
X531855Y15284D01*
X531248Y16336D01*
X530389Y17195D01*
X529338Y17802D01*
X528164Y18116D01*
D02*
G37*
G36*
X488164D02*
X486950D01*
X485777Y17802D01*
X484725Y17195D01*
X483866Y16336D01*
X483259Y15284D01*
X482945Y14111D01*
Y12897D01*
X483259Y11724D01*
X483866Y10672D01*
X484725Y9813D01*
X485777Y9206D01*
X486950Y8892D01*
X488164D01*
X489337Y9206D01*
X490389Y9813D01*
X491248Y10672D01*
X491855Y11724D01*
X492170Y12897D01*
Y14111D01*
X491855Y15284D01*
X491248Y16336D01*
X490389Y17195D01*
X489337Y17802D01*
X488164Y18116D01*
D02*
G37*
G36*
X413246Y66043D02*
X412541D01*
X411890Y65774D01*
X411392Y65275D01*
X411122Y64624D01*
Y63919D01*
X411392Y63268D01*
X411890Y62770D01*
X412541Y62500D01*
X413246D01*
X413897Y62770D01*
X414396Y63268D01*
X414665Y63919D01*
Y64624D01*
X414396Y65275D01*
X413897Y65774D01*
X413246Y66043D01*
D02*
G37*
G36*
X411354Y35180D02*
X410649D01*
X409998Y34910D01*
X409500Y34412D01*
X409230Y33761D01*
Y33056D01*
X409500Y32405D01*
X409998Y31907D01*
X410649Y31637D01*
X411354D01*
X412005Y31907D01*
X412504Y32405D01*
X412773Y33056D01*
Y33761D01*
X412504Y34412D01*
X412005Y34910D01*
X411354Y35180D01*
D02*
G37*
G36*
X410813Y29169D02*
X410108D01*
X409457Y28900D01*
X408959Y28401D01*
X408689Y27750D01*
Y27046D01*
X408959Y26394D01*
X409457Y25896D01*
X410108Y25626D01*
X410813D01*
X411464Y25896D01*
X411963Y26394D01*
X412232Y27046D01*
Y27750D01*
X411963Y28401D01*
X411464Y28900D01*
X410813Y29169D01*
D02*
G37*
%LPD*%
D101*
X188500Y291339D02*
D03*
X188484Y318799D02*
D03*
Y60138D02*
D03*
Y138681D02*
D03*
X147441Y83760D02*
D03*
Y250197D02*
D03*
X456811Y117913D02*
D03*
X456791Y112303D02*
D03*
X456811Y106063D02*
D03*
Y123819D02*
D03*
X428051Y115551D02*
D03*
X188484Y231101D02*
D03*
X-6201Y280315D02*
D03*
X188534Y214617D02*
D03*
X35630Y331240D02*
D03*
X383287Y231949D02*
D03*
X372539D02*
D03*
X377756D02*
D03*
X233169Y17815D02*
D03*
X188287Y17815D02*
D03*
X425492Y12106D02*
D03*
X424803Y45374D02*
D03*
X425492Y182382D02*
D03*
X188484Y155773D02*
D03*
Y130807D02*
D03*
Y42224D02*
D03*
X401142Y232362D02*
D03*
Y238268D02*
D03*
Y244173D02*
D03*
Y226496D02*
D03*
X395728Y226398D02*
D03*
Y244075D02*
D03*
Y238169D02*
D03*
Y232264D02*
D03*
X147441Y28839D02*
D03*
X147441Y311024D02*
D03*
X387894Y366240D02*
D03*
X370472D02*
D03*
X398228D02*
D03*
X382185D02*
D03*
X393012D02*
D03*
X376476D02*
D03*
X307087D02*
D03*
X323622D02*
D03*
X314567D02*
D03*
X331201D02*
D03*
X301083Y366240D02*
D03*
X49016Y340295D02*
D03*
X147343Y145866D02*
D03*
X57480Y372047D02*
D03*
X92028Y87303D02*
D03*
X146850Y371358D02*
D03*
X377756Y69291D02*
D03*
X383287D02*
D03*
X372539D02*
D03*
Y156693D02*
D03*
X383287D02*
D03*
X377756D02*
D03*
X377756Y223484D02*
D03*
X372539D02*
D03*
X383287D02*
D03*
X395728Y40905D02*
D03*
X401142D02*
D03*
Y46772D02*
D03*
X395728D02*
D03*
X401142Y52677D02*
D03*
X395728D02*
D03*
X401142Y58583D02*
D03*
X395728D02*
D03*
X456437Y190728D02*
D03*
X462716Y106063D02*
D03*
X395728Y105630D02*
D03*
Y123307D02*
D03*
Y117402D02*
D03*
Y111496D02*
D03*
X395728Y179114D02*
D03*
Y185020D02*
D03*
Y190925D02*
D03*
Y173248D02*
D03*
X456595Y212008D02*
D03*
X456732Y178819D02*
D03*
X456693Y217717D02*
D03*
X456732Y172874D02*
D03*
X456693Y229528D02*
D03*
X456732Y184724D02*
D03*
X456693Y223622D02*
D03*
X462638Y184724D02*
D03*
X462598Y217717D02*
D03*
X462638Y172874D02*
D03*
X462598Y223622D02*
D03*
X462716Y123819D02*
D03*
X462638Y190630D02*
D03*
X462785Y111939D02*
D03*
X462598Y229528D02*
D03*
X462638Y178819D02*
D03*
X462697Y117913D02*
D03*
X462894Y212205D02*
D03*
X462756Y46496D02*
D03*
X456850D02*
D03*
Y58307D02*
D03*
Y52402D02*
D03*
Y40551D02*
D03*
X462756Y58307D02*
D03*
Y52402D02*
D03*
Y40551D02*
D03*
X401142Y111499D02*
D03*
Y117405D02*
D03*
Y123310D02*
D03*
Y105633D02*
D03*
Y173346D02*
D03*
Y191024D02*
D03*
Y185118D02*
D03*
Y179213D02*
D03*
D105*
X323463Y246114D02*
X331694D01*
X319675Y249902D02*
X323463Y246114D01*
X322910Y155436D02*
X331451D01*
X319587Y158760D02*
X322910Y155436D01*
X323461Y65193D02*
X331323D01*
X319658Y68996D02*
X323461Y65193D01*
D110*
X502518Y89803D02*
D03*
Y33504D02*
D03*
Y146102D02*
D03*
Y202402D02*
D03*
D111*
X19213Y24291D02*
D03*
D114*
X541890Y374016D02*
D03*
Y324016D02*
D03*
Y355709D02*
D03*
Y305709D02*
D03*
D115*
X67778Y73327D02*
D03*
X68209Y177657D02*
D03*
X170858Y102408D02*
D03*
X302171Y108861D02*
D03*
X320741Y108491D02*
D03*
X213681Y285433D02*
D03*
X203248Y285630D02*
D03*
X190650Y311221D02*
D03*
X179564Y296164D02*
D03*
X186319Y312697D02*
D03*
X180559Y309560D02*
D03*
X204331Y327658D02*
D03*
X442520Y75886D02*
D03*
X118110Y277854D02*
D03*
X137500Y298130D02*
D03*
X167421Y244783D02*
D03*
X137402Y245079D02*
D03*
X112598Y262598D02*
D03*
X112500Y225984D02*
D03*
X137500Y22244D02*
D03*
X112303Y15650D02*
D03*
X112598Y49311D02*
D03*
X137598Y63681D02*
D03*
X112500Y83957D02*
D03*
X117815Y110630D02*
D03*
X167224Y133366D02*
D03*
X137500Y133957D02*
D03*
X198721Y136614D02*
D03*
X218602Y129802D02*
D03*
X198622Y129035D02*
D03*
Y125984D02*
D03*
X118110Y132579D02*
D03*
Y157874D02*
D03*
X117955Y168799D02*
D03*
X118135Y196271D02*
D03*
X133027Y182736D02*
D03*
X156354Y178603D02*
D03*
X89622Y26732D02*
D03*
X61614Y178347D02*
D03*
X36220Y285728D02*
D03*
X59055D02*
D03*
X53543Y286713D02*
D03*
X217126Y364370D02*
D03*
X440453Y313681D02*
D03*
X416684Y84848D02*
D03*
X300787Y264961D02*
D03*
X301083Y262303D02*
D03*
X32210Y209744D02*
D03*
X35236Y314764D02*
D03*
X177362Y177264D02*
D03*
X162894Y177067D02*
D03*
X44390Y202756D02*
D03*
X134706Y200787D02*
D03*
X38780Y182579D02*
D03*
X174213Y269685D02*
D03*
X182552Y264584D02*
D03*
X158366Y269587D02*
D03*
X451757Y204858D02*
D03*
X457124Y297485D02*
D03*
X440637Y301835D02*
D03*
X424803Y97638D02*
D03*
X425689Y27756D02*
D03*
X311524Y169882D02*
D03*
X306496Y169882D02*
D03*
X180559Y178279D02*
D03*
X331694Y246114D02*
D03*
X304823Y243602D02*
D03*
X309941Y243602D02*
D03*
X319675Y249902D02*
D03*
X331451Y155436D02*
D03*
X319587Y158760D02*
D03*
X331323Y65193D02*
D03*
X319658Y68996D02*
D03*
X310925Y80413D02*
D03*
X306792Y80382D02*
D03*
X312059Y158514D02*
D03*
X307223Y158360D02*
D03*
X302165Y158169D02*
D03*
X312303Y67421D02*
D03*
X307233Y67440D02*
D03*
X302067Y67224D02*
D03*
X297539Y161614D02*
D03*
X331939Y283661D02*
D03*
X68431Y94902D02*
D03*
X172193Y63694D02*
D03*
X179858Y95878D02*
D03*
X362402Y53839D02*
D03*
X179528Y87500D02*
D03*
X95276Y64862D02*
D03*
X221850Y196161D02*
D03*
X172332Y284650D02*
D03*
X-9173Y263013D02*
D03*
X217323Y248819D02*
D03*
X452461Y84646D02*
D03*
X477165Y323917D02*
D03*
X443504Y213140D02*
D03*
X425591Y208661D02*
D03*
X451772Y154331D02*
D03*
X432995Y20565D02*
D03*
X442205Y143577D02*
D03*
X427756Y202165D02*
D03*
X483169Y314272D02*
D03*
X480020Y319783D02*
D03*
X472239Y329927D02*
D03*
X412808Y147558D02*
D03*
X452283Y21000D02*
D03*
X489370Y319291D02*
D03*
X345768Y37008D02*
D03*
Y34744D02*
D03*
X349606Y30118D02*
D03*
X351870D02*
D03*
X347342Y30118D02*
D03*
X354232D02*
D03*
X355807Y37500D02*
D03*
X358071Y30118D02*
D03*
Y42323D02*
D03*
Y40059D02*
D03*
X358169Y37795D02*
D03*
Y35335D02*
D03*
Y32579D02*
D03*
X355887Y35143D02*
D03*
X355906Y32776D02*
D03*
X355816Y39854D02*
D03*
X355709Y42224D02*
D03*
X353248D02*
D03*
X350689Y42126D02*
D03*
X348130D02*
D03*
X345768Y42028D02*
D03*
Y39665D02*
D03*
X343406Y42028D02*
D03*
Y39764D02*
D03*
X343504Y37205D02*
D03*
Y34941D02*
D03*
X345768Y32382D02*
D03*
X343504Y32579D02*
D03*
Y30217D02*
D03*
X345768Y128642D02*
D03*
Y126378D02*
D03*
X349606Y121752D02*
D03*
X351870D02*
D03*
X347342Y121752D02*
D03*
X354232D02*
D03*
X355807Y129134D02*
D03*
X358071Y121752D02*
D03*
Y133957D02*
D03*
Y131693D02*
D03*
X358169Y129429D02*
D03*
Y126969D02*
D03*
Y124213D02*
D03*
X355887Y126777D02*
D03*
X355906Y124409D02*
D03*
X355816Y131488D02*
D03*
X355709Y133858D02*
D03*
X353248D02*
D03*
X350689Y133760D02*
D03*
X348130D02*
D03*
X345768Y133661D02*
D03*
Y131299D02*
D03*
X343406Y133661D02*
D03*
Y131398D02*
D03*
X343504Y128839D02*
D03*
Y126575D02*
D03*
X345768Y124016D02*
D03*
X343504Y124213D02*
D03*
Y121850D02*
D03*
X343602Y212205D02*
D03*
Y214567D02*
D03*
X345866Y214370D02*
D03*
X343602Y216929D02*
D03*
Y219193D02*
D03*
X343504Y221752D02*
D03*
Y224016D02*
D03*
X345866Y221654D02*
D03*
Y224016D02*
D03*
X348228Y224114D02*
D03*
X350787D02*
D03*
X353346Y224213D02*
D03*
X355807D02*
D03*
X355915Y221842D02*
D03*
X356004Y214764D02*
D03*
X355985Y217131D02*
D03*
X358268Y214567D02*
D03*
Y217323D02*
D03*
Y219783D02*
D03*
X358169Y222047D02*
D03*
Y224311D02*
D03*
Y212106D02*
D03*
X355906Y219488D02*
D03*
X354331Y212106D02*
D03*
X347441D02*
D03*
X351969Y212106D02*
D03*
X349705D02*
D03*
X345866Y216732D02*
D03*
Y218996D02*
D03*
X21654Y100984D02*
D03*
X19587Y108957D02*
D03*
X86884Y119335D02*
D03*
X88093Y108782D02*
D03*
X-2264Y123721D02*
D03*
X-40780Y245590D02*
D03*
X472149Y343439D02*
D03*
X199508Y247047D02*
D03*
X428051Y69482D02*
D03*
Y134941D02*
D03*
X320965Y21949D02*
D03*
X319390Y196555D02*
D03*
X304528Y151279D02*
D03*
X309547Y151476D02*
D03*
X309449Y61811D02*
D03*
X304724D02*
D03*
X38780Y37205D02*
D03*
X31791Y92224D02*
D03*
X-7677Y133386D02*
D03*
X-2165Y103347D02*
D03*
X225984Y231377D02*
D03*
X180559Y230610D02*
D03*
X203543Y249311D02*
D03*
X199213Y253346D02*
D03*
X318732Y199901D02*
D03*
X68145Y326279D02*
D03*
X68309Y333071D02*
D03*
X117421Y344783D02*
D03*
X162205Y322854D02*
D03*
X163484Y345768D02*
D03*
X205925Y345866D02*
D03*
X192588Y368953D02*
D03*
X118405Y381090D02*
D03*
X99945Y377614D02*
D03*
X295184Y196592D02*
D03*
X86989Y126431D02*
D03*
X101013Y123760D02*
D03*
X96044Y186175D02*
D03*
X77836Y210289D02*
D03*
X121241Y319935D02*
D03*
X106970Y301136D02*
D03*
X104706Y309108D02*
D03*
X17224Y224508D02*
D03*
X27264Y158563D02*
D03*
X47146Y105905D02*
D03*
X55165Y59363D02*
D03*
X96653Y42224D02*
D03*
X173374Y50603D02*
D03*
X171799Y161037D02*
D03*
X159102Y166351D02*
D03*
X173768Y227670D02*
D03*
X180559Y287316D02*
D03*
X25098Y75886D02*
D03*
X38878Y76181D02*
D03*
X74508Y345965D02*
D03*
X130905Y319882D02*
D03*
X185335Y371752D02*
D03*
X180413Y360138D02*
D03*
Y356791D02*
D03*
X198622Y139665D02*
D03*
X180561Y37738D02*
D03*
Y34687D02*
D03*
X180610Y212795D02*
D03*
X362402Y51476D02*
D03*
Y48720D02*
D03*
X363090Y143996D02*
D03*
X363189Y140945D02*
D03*
X217028Y113583D02*
D03*
X217323Y143799D02*
D03*
X204031Y110938D02*
D03*
X203834Y145584D02*
D03*
X180807Y365354D02*
D03*
X180559Y351096D02*
D03*
Y148425D02*
D03*
Y162795D02*
D03*
Y41437D02*
D03*
Y27165D02*
D03*
X163681Y13287D02*
D03*
X93307Y369980D02*
D03*
X117520Y221555D02*
D03*
X316240Y11811D02*
D03*
X300420Y11705D02*
D03*
X363189Y153445D02*
D03*
X362402Y74902D02*
D03*
Y71949D02*
D03*
Y69095D02*
D03*
X363090Y146752D02*
D03*
X363189Y150492D02*
D03*
X-40780Y239449D02*
D03*
X61221Y34921D02*
D03*
X79528Y15748D02*
D03*
X74171Y53693D02*
D03*
X31979Y54572D02*
D03*
X424902Y163878D02*
D03*
X-6496Y155709D02*
D03*
X-22047Y268209D02*
D03*
X87008Y292520D02*
D03*
X142717Y305709D02*
D03*
X185925Y345571D02*
D03*
X174508Y370866D02*
D03*
X114665Y378642D02*
D03*
X6373Y213344D02*
D03*
X-40780Y176339D02*
D03*
Y170000D02*
D03*
Y157362D02*
D03*
Y116378D02*
D03*
Y131929D02*
D03*
Y141575D02*
D03*
Y151024D02*
D03*
Y163701D02*
D03*
Y182598D02*
D03*
Y207835D02*
D03*
Y201614D02*
D03*
Y214173D02*
D03*
Y220236D02*
D03*
Y226850D02*
D03*
Y232992D02*
D03*
Y251969D02*
D03*
Y258228D02*
D03*
Y264488D02*
D03*
Y270821D02*
D03*
Y277130D02*
D03*
X-40778Y280279D02*
D03*
X6333Y217123D02*
D03*
X40630Y379567D02*
D03*
X30847D02*
D03*
X21063D02*
D03*
X460669Y18425D02*
D03*
M02*
