G04*
G04 #@! TF.GenerationSoftware,Altium Limited,Altium Designer,23.0.1 (38)*
G04*
G04 Layer_Physical_Order=2*
G04 Layer_Color=36540*
%FSLAX25Y25*%
%MOIN*%
G70*
G04*
G04 #@! TF.SameCoordinates,C73A8D95-9E1D-4458-8665-D4227823169D*
G04*
G04*
G04 #@! TF.FilePolarity,Positive*
G04*
G01*
G75*
%ADD13C,0.00984*%
%ADD80C,0.03937*%
%ADD82C,0.01772*%
%ADD83C,0.01968*%
%ADD84C,0.01181*%
%ADD87C,0.13287*%
%ADD93C,0.01968*%
G36*
X167165Y392339D02*
Y276079D01*
X166665Y275980D01*
X166555Y276246D01*
X166167Y276634D01*
X165661Y276844D01*
X165113D01*
X164606Y276634D01*
X164219Y276246D01*
X164009Y275740D01*
Y275191D01*
X164219Y274685D01*
X164606Y274297D01*
X165113Y274088D01*
X165661D01*
X166167Y274297D01*
X166555Y274685D01*
X166665Y274952D01*
X167165Y274852D01*
Y266732D01*
X191929D01*
Y266617D01*
X192259Y265821D01*
X192574Y265505D01*
X192367Y265005D01*
X179291D01*
X178792Y264906D01*
X178369Y264623D01*
X157692Y243947D01*
X157448Y243845D01*
X157060Y243458D01*
X156850Y242951D01*
Y242403D01*
X157060Y241897D01*
X157448Y241509D01*
X157954Y241299D01*
X158502D01*
X159009Y241509D01*
X159397Y241897D01*
X159442Y242006D01*
X179832Y262396D01*
X210887D01*
X211064Y262323D01*
X211613D01*
X212119Y262533D01*
X212507Y262920D01*
X212717Y263427D01*
Y263975D01*
X212507Y264481D01*
X212119Y264869D01*
X211613Y265079D01*
X211064D01*
X210887Y265005D01*
X195822D01*
X195615Y265505D01*
X195930Y265821D01*
X196260Y266617D01*
Y266732D01*
X216020D01*
X216450Y266554D01*
X217311D01*
X217741Y266732D01*
X312402D01*
Y265963D01*
X312616Y265162D01*
X313031Y264444D01*
X313617Y263858D01*
X313866Y263714D01*
Y263137D01*
X313617Y262993D01*
X313031Y262406D01*
X312616Y261688D01*
X312402Y260887D01*
Y260058D01*
X312616Y259257D01*
X313031Y258539D01*
X313617Y257952D01*
X314335Y257538D01*
X315137Y257323D01*
X315966D01*
X316767Y257538D01*
X317485Y257952D01*
X318072Y258539D01*
X318486Y259257D01*
X318701Y260058D01*
Y260887D01*
X318486Y261688D01*
X318072Y262406D01*
X317485Y262993D01*
X317236Y263137D01*
Y263714D01*
X317485Y263858D01*
X318072Y264444D01*
X318486Y265162D01*
X318701Y265963D01*
Y266732D01*
X319567D01*
Y265963D01*
X319782Y265162D01*
X320196Y264444D01*
X320783Y263858D01*
X321032Y263714D01*
Y263137D01*
X320783Y262993D01*
X320196Y262406D01*
X319782Y261688D01*
X319567Y260887D01*
Y260058D01*
X319782Y259257D01*
X320196Y258539D01*
X320783Y257952D01*
X321501Y257538D01*
X322302Y257323D01*
X323131D01*
X323932Y257538D01*
X324651Y257952D01*
X325237Y258539D01*
X325652Y259257D01*
X325866Y260058D01*
Y260887D01*
X325652Y261688D01*
X325237Y262406D01*
X324651Y262993D01*
X324401Y263137D01*
Y263714D01*
X324651Y263858D01*
X325237Y264444D01*
X325652Y265162D01*
X325866Y265963D01*
Y266732D01*
X363583D01*
X363819Y266634D01*
Y254674D01*
X363319Y254467D01*
X362901Y254885D01*
X362105Y255214D01*
X361244D01*
X360448Y254885D01*
X359839Y254275D01*
X359509Y253480D01*
Y252618D01*
X359839Y251822D01*
X360448Y251213D01*
X361244Y250884D01*
X362105D01*
X362901Y251213D01*
X363319Y251631D01*
X363819Y251424D01*
Y240551D01*
X361762D01*
Y241276D01*
X361433Y242072D01*
X360824Y242681D01*
X360028Y243011D01*
X359166D01*
X358371Y242681D01*
X357761Y242072D01*
X357432Y241276D01*
Y240551D01*
X352908D01*
X352701Y241051D01*
X352834Y241184D01*
X353043Y241690D01*
Y242238D01*
X352834Y242745D01*
X352446Y243133D01*
X352102Y243275D01*
X352080Y243804D01*
X352423Y243947D01*
X352811Y244334D01*
X353021Y244841D01*
Y245389D01*
X352811Y245895D01*
X352423Y246283D01*
X351917Y246493D01*
X351369D01*
X350862Y246283D01*
X350475Y245895D01*
X350265Y245389D01*
Y244841D01*
X350475Y244334D01*
X350862Y243947D01*
X351205Y243804D01*
X351228Y243275D01*
X350885Y243133D01*
X350497Y242745D01*
X350287Y242238D01*
Y241690D01*
X350497Y241184D01*
X350630Y241051D01*
X350423Y240551D01*
X308503D01*
X307638Y239686D01*
Y217309D01*
X307176Y217117D01*
X278701Y245592D01*
Y248149D01*
X278866Y248314D01*
X279076Y248820D01*
Y249369D01*
X278866Y249875D01*
X278478Y250263D01*
X277972Y250472D01*
X277424D01*
X276917Y250263D01*
X276529Y249875D01*
X276320Y249369D01*
Y248820D01*
X276529Y248314D01*
X276694Y248149D01*
Y245459D01*
X276455Y245299D01*
X275907D01*
X275401Y245090D01*
X275013Y244702D01*
X274803Y244195D01*
Y243647D01*
X275013Y243141D01*
X275401Y242753D01*
X275907Y242543D01*
X276140D01*
X277935Y240748D01*
X277842Y240135D01*
X277791Y240108D01*
X277285Y240318D01*
X276737D01*
X276230Y240108D01*
X275843Y239721D01*
X275633Y239214D01*
Y238666D01*
X275843Y238159D01*
X276230Y237772D01*
X276737Y237562D01*
X277285D01*
X277791Y237772D01*
X277956Y237936D01*
X278952D01*
X307638Y209250D01*
Y191220D01*
X325667D01*
X337125Y179763D01*
X337451Y179545D01*
X337835Y179469D01*
X354528D01*
X354912Y179545D01*
X355237Y179763D01*
X356263Y180789D01*
X356591Y180649D01*
X356723Y180542D01*
Y180045D01*
X356933Y179538D01*
X357321Y179151D01*
X357827Y178941D01*
X358375D01*
X358882Y179151D01*
X359179Y179448D01*
X363819D01*
Y167559D01*
X352299D01*
X351851Y167745D01*
X351302D01*
X350854Y167559D01*
X349879D01*
X341817Y167559D01*
X339015Y170361D01*
X338689Y170579D01*
X338305Y170655D01*
X329213D01*
X329088Y170781D01*
X328581Y170990D01*
X328033D01*
X327527Y170781D01*
X327139Y170393D01*
X326929Y169887D01*
Y169338D01*
X327139Y168832D01*
X327527Y168444D01*
X328033Y168235D01*
X328581D01*
X329088Y168444D01*
X329292Y168648D01*
X337890D01*
X338517Y168021D01*
X338326Y167559D01*
X333957D01*
X333812Y167704D01*
X333306Y167913D01*
X332757D01*
X332251Y167704D01*
X332106Y167559D01*
X326684D01*
X326600Y167764D01*
X325990Y168374D01*
X325195Y168703D01*
X324333D01*
X323537Y168374D01*
X323424Y168260D01*
X322880Y168804D01*
X322084Y169134D01*
X321223D01*
X320427Y168804D01*
X319818Y168195D01*
X319488Y167399D01*
Y166538D01*
X319500Y166508D01*
X312992Y160000D01*
Y146365D01*
X312898Y146271D01*
Y110000D01*
X357520D01*
Y109451D01*
X357849Y108655D01*
X358458Y108046D01*
X359254Y107717D01*
X360116D01*
X360912Y108046D01*
X361521Y108655D01*
X361850Y109451D01*
Y110000D01*
X363740D01*
X363819Y109921D01*
Y95283D01*
X363357Y95091D01*
X362470Y95978D01*
X361786Y96435D01*
X360980Y96596D01*
X303760D01*
X303620Y96653D01*
X302758D01*
X301962Y96324D01*
X301353Y95715D01*
X301024Y94919D01*
Y94058D01*
X301353Y93262D01*
X301962Y92652D01*
X302758Y92323D01*
X303620D01*
X303760Y92381D01*
X358829D01*
X359164Y91881D01*
X359014Y91518D01*
Y90657D01*
X359343Y89861D01*
X359952Y89252D01*
X360748Y88922D01*
X361610D01*
X362405Y89252D01*
X363015Y89861D01*
X363070Y89994D01*
X363440Y89920D01*
X363819D01*
Y79961D01*
X356972D01*
X356668Y80461D01*
X356772Y80710D01*
Y81258D01*
X356562Y81765D01*
X356234Y82092D01*
X356230Y82424D01*
X356276Y82651D01*
X356664Y83039D01*
X356873Y83545D01*
Y84093D01*
X356664Y84600D01*
X356276Y84987D01*
X355770Y85197D01*
X355222D01*
X354715Y84987D01*
X354327Y84600D01*
X354118Y84093D01*
Y83545D01*
X354327Y83039D01*
X354655Y82711D01*
X354659Y82379D01*
X354613Y82152D01*
X354225Y81765D01*
X354016Y81258D01*
Y80710D01*
X354109Y80484D01*
X353475Y80221D01*
X353215Y79961D01*
X338740D01*
Y80235D01*
X338530Y80741D01*
X338143Y81129D01*
X337793Y81274D01*
X337892Y81774D01*
X338045D01*
X338552Y81984D01*
X338939Y82371D01*
X339149Y82877D01*
Y83426D01*
X338939Y83932D01*
X338552Y84320D01*
X338323Y84414D01*
X338423Y84914D01*
X338423D01*
X338930Y85124D01*
X339317Y85512D01*
X339527Y86018D01*
Y86567D01*
X339317Y87073D01*
X338930Y87461D01*
X338423Y87670D01*
X337875D01*
X337368Y87461D01*
X336981Y87073D01*
X336771Y86567D01*
Y86018D01*
X336981Y85512D01*
X337368Y85124D01*
X337597Y85030D01*
X337497Y84530D01*
X337497D01*
X336991Y84320D01*
X336603Y83932D01*
X336393Y83426D01*
Y82877D01*
X336603Y82371D01*
X336991Y81984D01*
X337341Y81839D01*
X337241Y81339D01*
X337088D01*
X336582Y81129D01*
X336194Y80741D01*
X335984Y80235D01*
Y79961D01*
X311457D01*
Y49504D01*
X311095Y49376D01*
X310957Y49365D01*
X310597Y49725D01*
X310091Y49935D01*
X309542D01*
X309036Y49725D01*
X308648Y49337D01*
X308439Y48831D01*
Y48283D01*
X308648Y47776D01*
X309036Y47388D01*
X309312Y47274D01*
X309213Y46774D01*
X308978D01*
X308471Y46564D01*
X308084Y46177D01*
X307874Y45670D01*
Y45122D01*
X308084Y44616D01*
X308471Y44228D01*
X308978Y44018D01*
X309526D01*
X310033Y44228D01*
X310420Y44616D01*
X310630Y45122D01*
Y45670D01*
X310420Y46177D01*
X310033Y46564D01*
X309756Y46679D01*
X309856Y47179D01*
X310091D01*
X310597Y47388D01*
X310957Y47748D01*
X311095Y47737D01*
X311457Y47609D01*
Y27736D01*
X356211D01*
X356418Y27236D01*
X356038Y26856D01*
X355709Y26061D01*
Y25199D01*
X356038Y24403D01*
X356647Y23794D01*
X357443Y23465D01*
X358305D01*
X359101Y23794D01*
X359710Y24403D01*
X360039Y25199D01*
Y26061D01*
X359710Y26856D01*
X359330Y27236D01*
X359537Y27736D01*
X396229D01*
X396703Y28210D01*
X397165Y28019D01*
Y1020D01*
X11811Y1020D01*
X11104D01*
X9701Y1204D01*
X8335Y1570D01*
X7028Y2112D01*
X5803Y2819D01*
X4680Y3680D01*
X3680Y4680D01*
X2819Y5803D01*
X2112Y7028D01*
X1570Y8335D01*
X1204Y9701D01*
X1020Y11104D01*
X1020Y11811D01*
X1020Y99508D01*
X942Y99898D01*
X721Y100229D01*
X390Y100450D01*
X115Y100505D01*
X108Y111950D01*
X164Y112006D01*
X374Y112512D01*
Y113060D01*
X362Y113090D01*
X646Y113710D01*
X770Y113761D01*
X1158Y114149D01*
X1272Y114424D01*
X1664Y114398D01*
X1785Y114358D01*
X1981Y113885D01*
X2369Y113497D01*
X2875Y113287D01*
X3424D01*
X3930Y113497D01*
X4318Y113885D01*
X4528Y114391D01*
Y114939D01*
X4318Y115446D01*
X3930Y115833D01*
X3424Y116043D01*
X2875D01*
X2369Y115833D01*
X1981Y115446D01*
X1867Y115171D01*
X1475Y115197D01*
X1354Y115237D01*
X1158Y115710D01*
X770Y116098D01*
X264Y116308D01*
X106D01*
X80Y159981D01*
X433Y160335D01*
X1946D01*
X5512Y156770D01*
Y156537D01*
X5722Y156030D01*
X6109Y155643D01*
X6616Y155433D01*
X7164D01*
X7670Y155643D01*
X8058Y156030D01*
X8268Y156537D01*
Y157085D01*
X8058Y157592D01*
X7670Y157979D01*
X7164Y158189D01*
X6931D01*
X3072Y162048D01*
X2746Y162266D01*
X2362Y162342D01*
X78D01*
X42Y222782D01*
X0Y293174D01*
X390Y293251D01*
X721Y293472D01*
X942Y293803D01*
X1020Y294193D01*
Y381890D01*
X1020Y382597D01*
X1204Y384000D01*
X1570Y385366D01*
X2112Y386673D01*
X2819Y387898D01*
X3680Y389020D01*
X4681Y390021D01*
X5803Y390882D01*
X7028Y391589D01*
X8335Y392130D01*
X9701Y392497D01*
X11104Y392681D01*
X11811Y392681D01*
X11811Y392681D01*
X11811Y392681D01*
X166812Y392692D01*
X167165Y392339D01*
D02*
G37*
G36*
X545972Y392535D02*
X547338Y392169D01*
X548645Y391628D01*
X549870Y390920D01*
X550993Y390059D01*
X551993Y389059D01*
X552854Y387937D01*
X553561Y386712D01*
X554103Y385405D01*
X554469Y384038D01*
X554654Y382636D01*
Y381928D01*
X554654Y230584D01*
X554188Y230118D01*
X482992D01*
Y230772D01*
X464552Y249212D01*
X439488D01*
Y230236D01*
X439606Y230118D01*
Y1020D01*
X398870D01*
X398370Y1020D01*
Y26553D01*
X401292Y29475D01*
X425832D01*
X425848Y29390D01*
X425848Y29390D01*
X426305Y28707D01*
X427589Y27422D01*
X427306Y26999D01*
X427252Y27021D01*
X426390D01*
X425594Y26691D01*
X424985Y26082D01*
X424656Y25286D01*
Y24425D01*
X424985Y23629D01*
X424686Y23221D01*
X424424Y22959D01*
X424095Y22163D01*
Y21302D01*
X424424Y20506D01*
X425033Y19896D01*
X425829Y19567D01*
X426691D01*
X426717Y19549D01*
Y18303D01*
X426688Y18274D01*
X426358Y17478D01*
Y16616D01*
X426688Y15821D01*
X427297Y15212D01*
X428093Y14882D01*
X428954D01*
X429750Y15212D01*
X430359Y15821D01*
X430639Y16496D01*
X431473D01*
X432269Y16826D01*
X432878Y17435D01*
X433208Y18231D01*
Y19092D01*
X433149Y19232D01*
Y26950D01*
X432989Y27756D01*
X432989Y27756D01*
X432532Y28440D01*
X429903Y31070D01*
Y77508D01*
X430039Y77837D01*
Y78698D01*
X430001Y78791D01*
Y149854D01*
X430079Y150042D01*
Y150903D01*
X430021Y151043D01*
Y190938D01*
X431648Y192565D01*
X432104Y193249D01*
X432265Y194055D01*
Y262487D01*
X432104Y263294D01*
X431648Y263977D01*
X429114Y266511D01*
Y268339D01*
X429134Y268388D01*
Y269250D01*
X428804Y270045D01*
X428195Y270655D01*
X427399Y270984D01*
X426538D01*
X425742Y270655D01*
X425133Y270045D01*
X424803Y269250D01*
Y268459D01*
X424615Y268317D01*
X424341Y268213D01*
X419366Y273189D01*
Y274650D01*
X419395Y274679D01*
X419725Y275475D01*
Y276336D01*
X419395Y277132D01*
X418786Y277741D01*
X417990Y278071D01*
X417128D01*
X416333Y277741D01*
X415723Y277132D01*
X415394Y276336D01*
Y275475D01*
X415723Y274679D01*
X415753Y274650D01*
Y272441D01*
X415890Y271750D01*
X416282Y271164D01*
X425949Y261496D01*
Y209018D01*
X425357D01*
X424561Y208689D01*
X423952Y208080D01*
X423622Y207284D01*
Y206422D01*
X423952Y205627D01*
X423981Y205597D01*
Y200884D01*
X422205Y199108D01*
X421814Y198522D01*
X421676Y197831D01*
Y195669D01*
X421214Y195477D01*
X402625Y214066D01*
X402909Y214490D01*
X403388Y214291D01*
X404250D01*
X405046Y214621D01*
X405655Y215230D01*
X405984Y216026D01*
Y216887D01*
X405655Y217683D01*
X405046Y218292D01*
X404250Y218622D01*
X403388D01*
X402592Y218292D01*
X401983Y217683D01*
X401653Y216887D01*
Y216026D01*
X401852Y215546D01*
X401428Y215263D01*
X399078Y217613D01*
Y219503D01*
X386747Y231834D01*
X365023D01*
Y266634D01*
X364932Y267095D01*
X364670Y267486D01*
X364280Y267747D01*
X364043Y267845D01*
X363583Y267936D01*
X325866D01*
X325496Y267863D01*
X325237Y268312D01*
X324651Y268898D01*
X324402Y269042D01*
Y269619D01*
X324651Y269763D01*
X325237Y270350D01*
X325652Y271068D01*
X325866Y271869D01*
Y272698D01*
X325652Y273499D01*
X325237Y274217D01*
X324651Y274804D01*
X323932Y275218D01*
X323131Y275433D01*
X322302D01*
X321501Y275218D01*
X320783Y274804D01*
X320196Y274217D01*
X319782Y273499D01*
X319567Y272698D01*
Y271869D01*
X319782Y271068D01*
X320196Y270350D01*
X320783Y269763D01*
X321032Y269619D01*
Y269042D01*
X320783Y268898D01*
X320196Y268312D01*
X319937Y267863D01*
X319567Y267936D01*
X318701D01*
X318331Y267863D01*
X318072Y268312D01*
X317485Y268898D01*
X317236Y269042D01*
Y269619D01*
X317485Y269763D01*
X318072Y270350D01*
X318486Y271068D01*
X318701Y271869D01*
Y272698D01*
X318486Y273499D01*
X318072Y274217D01*
X317485Y274804D01*
X316767Y275218D01*
X315966Y275433D01*
X315137D01*
X314335Y275218D01*
X313617Y274804D01*
X313031Y274217D01*
X312616Y273499D01*
X312402Y272698D01*
Y271869D01*
X312616Y271068D01*
X313031Y270350D01*
X313617Y269763D01*
X313866Y269619D01*
Y269042D01*
X313617Y268898D01*
X313031Y268312D01*
X312772Y267863D01*
X312402Y267936D01*
X217741D01*
X217280Y267845D01*
X217072Y267758D01*
X216689D01*
X216481Y267845D01*
X216020Y267936D01*
X196260D01*
X195799Y267845D01*
X195408Y267584D01*
X195147Y267193D01*
X195103Y266970D01*
X195102Y266968D01*
X193087D01*
X193086Y266970D01*
X193042Y267193D01*
X192781Y267584D01*
X192390Y267845D01*
X191929Y267936D01*
X168370D01*
Y271321D01*
X168870Y271656D01*
X169254Y271496D01*
X170116D01*
X170912Y271826D01*
X171521Y272435D01*
X171851Y273231D01*
Y274092D01*
X171521Y274888D01*
X170912Y275497D01*
X170116Y275827D01*
X169254D01*
X168803Y275640D01*
X168645Y275710D01*
X168413Y275906D01*
X168353Y275994D01*
X168370Y276079D01*
Y392339D01*
X168370Y392339D01*
X168373Y392343D01*
X263591Y392677D01*
X270175Y392700D01*
X543862Y392720D01*
X544569D01*
X545972Y392535D01*
D02*
G37*
G36*
X363819Y190000D02*
Y188208D01*
X336085D01*
X333535Y190759D01*
X333726Y191220D01*
X362598D01*
X363819Y190000D01*
D02*
G37*
G36*
X485236Y217441D02*
X486729D01*
X486898Y217395D01*
X488216D01*
X488386Y217441D01*
X514173Y217441D01*
Y187402D01*
X488239D01*
X488216Y187408D01*
X486898D01*
X486875Y187402D01*
X473504D01*
X449409Y211496D01*
Y232008D01*
X470669D01*
X485236Y217441D01*
D02*
G37*
G36*
X357914Y185701D02*
X357771Y185557D01*
X357441Y184761D01*
Y183900D01*
X357521Y183707D01*
X357243Y183291D01*
X356343D01*
X356329Y183288D01*
X355829Y183621D01*
X355619Y184127D01*
X355232Y184515D01*
X354725Y184724D01*
X354177D01*
X353671Y184515D01*
X353506Y184350D01*
X337716D01*
X336327Y185739D01*
X336518Y186201D01*
X357707D01*
X357914Y185701D01*
D02*
G37*
G36*
X397966Y217152D02*
X398227Y216762D01*
X398227Y216762D01*
X400577Y214412D01*
X400675Y214346D01*
X400759Y214262D01*
X400869Y214216D01*
X400967Y214151D01*
X401513Y213605D01*
X401513Y213605D01*
X401579Y213507D01*
X401624Y213397D01*
X401708Y213313D01*
X401774Y213215D01*
X415469Y199520D01*
X415566Y199285D01*
X416175Y198676D01*
X416409Y198579D01*
X418583Y196406D01*
Y166890D01*
X384587D01*
Y181161D01*
X376339Y189409D01*
X365023D01*
Y190000D01*
X365023Y190000D01*
X364932Y190461D01*
X364670Y190851D01*
X364670Y190851D01*
X363450Y192072D01*
X363424Y192089D01*
Y212402D01*
X350866D01*
Y230630D01*
X384488D01*
X397966Y217152D01*
D02*
G37*
G36*
X485688Y171242D02*
X485517Y170705D01*
X484483Y170108D01*
X483551Y169176D01*
X482892Y168035D01*
X482551Y166762D01*
Y165443D01*
X482892Y164170D01*
X483551Y163029D01*
X484483Y162097D01*
X485625Y161437D01*
X486898Y161096D01*
X488216D01*
X489489Y161437D01*
X490631Y162097D01*
X491563Y163029D01*
X492160Y164062D01*
X492696Y164233D01*
X496024Y160906D01*
X514173D01*
Y131063D01*
X488386D01*
X488216Y131108D01*
X486898D01*
X486728Y131063D01*
X478268D01*
X453780Y156575D01*
Y195709D01*
X461220D01*
X485688Y171242D01*
D02*
G37*
G36*
X376083Y146063D02*
X392126D01*
X406575Y131614D01*
X418622D01*
Y100315D01*
X388006D01*
X387815Y100601D01*
Y101462D01*
X387485Y102258D01*
X387156Y102588D01*
X387485Y102918D01*
X387815Y103713D01*
Y104575D01*
X387485Y105371D01*
X386876Y105980D01*
X386080Y106309D01*
X385219D01*
X384806Y106139D01*
X380228Y110716D01*
X376470Y110716D01*
X367402D01*
Y133268D01*
X354449D01*
Y151654D01*
X370492D01*
X376083Y146063D01*
D02*
G37*
G36*
X483182Y107369D02*
X483551Y106729D01*
X484483Y105797D01*
X485123Y105428D01*
X485906Y104646D01*
X514173Y104646D01*
Y74921D01*
X467585D01*
X453780Y88788D01*
Y128976D01*
X461575D01*
X483182Y107369D01*
D02*
G37*
G36*
X373149Y65118D02*
X418583D01*
Y30680D01*
X401292D01*
X400831Y30588D01*
X400540Y30394D01*
X367165D01*
Y52165D01*
X354252Y52165D01*
Y70512D01*
X355669Y71929D01*
X366339D01*
X373149Y65118D01*
D02*
G37*
G36*
X483504Y50511D02*
X483551Y50430D01*
X484483Y49498D01*
X485625Y48839D01*
X486898Y48498D01*
X488216D01*
X489489Y48839D01*
X490631Y49498D01*
X490857Y49724D01*
X514173D01*
Y17205D01*
X490936D01*
X490631Y17510D01*
X489489Y18169D01*
X488216Y18510D01*
X486898D01*
X485625Y18169D01*
X484483Y17510D01*
X484178Y17205D01*
X460039D01*
X453780Y23465D01*
Y63150D01*
X470866D01*
X483504Y50511D01*
D02*
G37*
%LPC*%
G36*
X37281Y381732D02*
X36420D01*
X35624Y381403D01*
X35015Y380793D01*
X34685Y379998D01*
Y379136D01*
X35015Y378340D01*
X35624Y377731D01*
X36420Y377402D01*
X37281D01*
X38077Y377731D01*
X38686Y378340D01*
X39016Y379136D01*
Y379998D01*
X38686Y380793D01*
X38077Y381403D01*
X37281Y381732D01*
D02*
G37*
G36*
X29210D02*
X28349D01*
X27553Y381403D01*
X26944Y380793D01*
X26614Y379998D01*
Y379136D01*
X26944Y378340D01*
X27553Y377731D01*
X28349Y377402D01*
X29210D01*
X30006Y377731D01*
X30615Y378340D01*
X30945Y379136D01*
Y379998D01*
X30615Y380793D01*
X30006Y381403D01*
X29210Y381732D01*
D02*
G37*
G36*
X21494D02*
X20632D01*
X19836Y381403D01*
X19227Y380793D01*
X18898Y379998D01*
Y379136D01*
X19227Y378340D01*
X19836Y377731D01*
X20632Y377402D01*
X21494D01*
X22290Y377731D01*
X22899Y378340D01*
X23228Y379136D01*
Y379998D01*
X22899Y380793D01*
X22290Y381403D01*
X21494Y381732D01*
D02*
G37*
G36*
X57895Y372284D02*
X57066D01*
X56265Y372069D01*
X55546Y371654D01*
X54960Y371068D01*
X54545Y370350D01*
X54331Y369549D01*
Y368719D01*
X54545Y367918D01*
X54960Y367200D01*
X55546Y366614D01*
X56265Y366199D01*
X57066Y365984D01*
X57895D01*
X58696Y366199D01*
X59414Y366614D01*
X60001Y367200D01*
X60415Y367918D01*
X60630Y368719D01*
Y369549D01*
X60415Y370350D01*
X60001Y371068D01*
X59414Y371654D01*
X58696Y372069D01*
X57895Y372284D01*
D02*
G37*
G36*
X138131Y372126D02*
X137302D01*
X136501Y371911D01*
X135783Y371497D01*
X135196Y370910D01*
X134782Y370192D01*
X134567Y369391D01*
Y368562D01*
X134782Y367761D01*
X135196Y367042D01*
X135783Y366456D01*
X136501Y366041D01*
X137302Y365827D01*
X138131D01*
X138932Y366041D01*
X139650Y366456D01*
X140237Y367042D01*
X140652Y367761D01*
X140866Y368562D01*
Y369391D01*
X140652Y370192D01*
X140237Y370910D01*
X139650Y371497D01*
X138932Y371911D01*
X138131Y372126D01*
D02*
G37*
G36*
X124831Y363326D02*
X123970D01*
X123174Y362996D01*
X122565Y362387D01*
X122235Y361591D01*
Y360730D01*
X122565Y359934D01*
X123174Y359325D01*
X123970Y358995D01*
X124831D01*
X125627Y359325D01*
X126236Y359934D01*
X126566Y360730D01*
Y361591D01*
X126236Y362387D01*
X125627Y362996D01*
X124831Y363326D01*
D02*
G37*
G36*
X162675Y359488D02*
X161813D01*
X161018Y359158D01*
X160408Y358549D01*
X160079Y357753D01*
Y356892D01*
X160408Y356096D01*
X161018Y355487D01*
X161813Y355157D01*
X162675D01*
X163471Y355487D01*
X164080Y356096D01*
X164409Y356892D01*
Y357753D01*
X164080Y358549D01*
X163471Y359158D01*
X162675Y359488D01*
D02*
G37*
G36*
X151368Y352205D02*
X150820D01*
X150313Y351995D01*
X149925Y351607D01*
X149716Y351101D01*
Y350553D01*
X149925Y350046D01*
X150313Y349659D01*
X150103Y349215D01*
X149919Y349291D01*
X149057D01*
X148262Y348962D01*
X147652Y348353D01*
X147323Y347557D01*
Y346695D01*
X147652Y345899D01*
X148262Y345290D01*
X149057Y344961D01*
X149919D01*
X150715Y345290D01*
X151324Y345899D01*
X151654Y346695D01*
Y347557D01*
X151324Y348353D01*
X150715Y348962D01*
X150654Y348987D01*
X150820Y349449D01*
X151368D01*
X151874Y349659D01*
X152262Y350046D01*
X152472Y350553D01*
Y351101D01*
X152262Y351607D01*
X151874Y351995D01*
X151368Y352205D01*
D02*
G37*
G36*
X36967Y346102D02*
X36419D01*
X35912Y345893D01*
X35525Y345505D01*
X35315Y344999D01*
Y344450D01*
X35525Y343944D01*
X35912Y343556D01*
X36419Y343347D01*
X36967D01*
X37473Y343556D01*
X37861Y343944D01*
X38071Y344450D01*
Y344999D01*
X37861Y345505D01*
X37473Y345893D01*
X36967Y346102D01*
D02*
G37*
G36*
X124817Y344341D02*
X124269D01*
X123763Y344131D01*
X123375Y343743D01*
X123165Y343237D01*
Y342689D01*
X123375Y342182D01*
X123763Y341795D01*
X124269Y341585D01*
X124817D01*
X125324Y341795D01*
X125711Y342182D01*
X125921Y342689D01*
Y343237D01*
X125711Y343743D01*
X125324Y344131D01*
X124817Y344341D01*
D02*
G37*
G36*
X109792Y336397D02*
X108930D01*
X108134Y336067D01*
X107525Y335458D01*
X107196Y334662D01*
Y333801D01*
X107525Y333005D01*
X108134Y332396D01*
X108930Y332066D01*
X109792D01*
X110588Y332396D01*
X111197Y333005D01*
X111526Y333801D01*
Y334662D01*
X111197Y335458D01*
X110588Y336067D01*
X109792Y336397D01*
D02*
G37*
G36*
X139683Y331614D02*
X138821D01*
X138025Y331284D01*
X137416Y330675D01*
X137087Y329879D01*
Y329018D01*
X137416Y328222D01*
X138025Y327613D01*
X138821Y327284D01*
X139683D01*
X140479Y327613D01*
X141088Y328222D01*
X141417Y329018D01*
Y329879D01*
X141088Y330675D01*
X140479Y331284D01*
X139683Y331614D01*
D02*
G37*
G36*
X148580Y331339D02*
X147719D01*
X146923Y331009D01*
X146314Y330400D01*
X145984Y329604D01*
Y328743D01*
X146314Y327947D01*
X146923Y327338D01*
X147719Y327008D01*
X148580D01*
X149376Y327338D01*
X149985Y327947D01*
X150315Y328743D01*
Y329604D01*
X149985Y330400D01*
X149376Y331009D01*
X148580Y331339D01*
D02*
G37*
G36*
X107412Y329419D02*
X99833D01*
Y321841D01*
X107412D01*
Y329419D01*
D02*
G37*
G36*
X75174Y316928D02*
X74626D01*
X74120Y316718D01*
X73732Y316330D01*
X73522Y315824D01*
Y315276D01*
X73732Y314769D01*
X74120Y314382D01*
X74626Y314172D01*
X74930D01*
X75179Y314162D01*
X75392Y313721D01*
Y313605D01*
X75602Y313099D01*
X75990Y312711D01*
X76496Y312501D01*
X77044D01*
X77551Y312711D01*
X77938Y313099D01*
X78148Y313605D01*
Y314154D01*
X77938Y314660D01*
X77551Y315048D01*
X77044Y315257D01*
X76740D01*
X76491Y315267D01*
X76278Y315708D01*
Y315824D01*
X76068Y316330D01*
X75681Y316718D01*
X75174Y316928D01*
D02*
G37*
G36*
X151359Y314921D02*
X150530D01*
X149729Y314707D01*
X149011Y314292D01*
X148425Y313705D01*
X148010Y312987D01*
X147795Y312186D01*
Y311357D01*
X148010Y310556D01*
X148425Y309838D01*
X149011Y309251D01*
X149729Y308837D01*
X150530Y308622D01*
X151359D01*
X152161Y308837D01*
X152879Y309251D01*
X153465Y309838D01*
X153880Y310556D01*
X154095Y311357D01*
Y312186D01*
X153880Y312987D01*
X153465Y313705D01*
X152879Y314292D01*
X152161Y314707D01*
X151359Y314921D01*
D02*
G37*
G36*
X124919Y307165D02*
X124057D01*
X123262Y306836D01*
X122652Y306227D01*
X122323Y305431D01*
Y304569D01*
X122652Y303773D01*
X123262Y303164D01*
X124057Y302835D01*
X124919D01*
X125715Y303164D01*
X126324Y303773D01*
X126654Y304569D01*
Y305431D01*
X126324Y306227D01*
X125715Y306836D01*
X124919Y307165D01*
D02*
G37*
G36*
X108895Y306772D02*
X108034D01*
X107238Y306442D01*
X106629Y305833D01*
X106299Y305037D01*
Y304176D01*
X106629Y303380D01*
X107238Y302771D01*
X108034Y302441D01*
X108895D01*
X109691Y302771D01*
X110300Y303380D01*
X110630Y304176D01*
Y305037D01*
X110300Y305833D01*
X109691Y306442D01*
X108895Y306772D01*
D02*
G37*
G36*
X28109Y300905D02*
X27561D01*
X27054Y300696D01*
X26667Y300308D01*
X26457Y299802D01*
Y299254D01*
X26667Y298747D01*
X27054Y298359D01*
X27561Y298150D01*
X28109D01*
X28615Y298359D01*
X29003Y298747D01*
X29213Y299254D01*
Y299802D01*
X29003Y300308D01*
X28615Y300696D01*
X28109Y300905D01*
D02*
G37*
G36*
X121533Y300197D02*
X120672D01*
X119876Y299867D01*
X119267Y299258D01*
X118937Y298462D01*
Y297601D01*
X119267Y296805D01*
X119876Y296196D01*
X120672Y295866D01*
X121533D01*
X122329Y296196D01*
X122938Y296805D01*
X123268Y297601D01*
Y298462D01*
X122938Y299258D01*
X122329Y299867D01*
X121533Y300197D01*
D02*
G37*
G36*
X95588Y297756D02*
X94727D01*
X93931Y297426D01*
X93322Y296817D01*
X92992Y296021D01*
Y295160D01*
X93322Y294364D01*
X93931Y293755D01*
X94727Y293425D01*
X95588D01*
X96384Y293755D01*
X96993Y294364D01*
X97323Y295160D01*
Y296021D01*
X96993Y296817D01*
X96384Y297426D01*
X95588Y297756D01*
D02*
G37*
G36*
X103188Y287402D02*
X102639D01*
X102133Y287192D01*
X101745Y286804D01*
X101535Y286298D01*
Y285750D01*
X101745Y285243D01*
X102133Y284856D01*
X102639Y284646D01*
X103188D01*
X103694Y284856D01*
X104082Y285243D01*
X104291Y285750D01*
Y286298D01*
X104082Y286804D01*
X103694Y287192D01*
X103188Y287402D01*
D02*
G37*
G36*
X149801Y286811D02*
X148939D01*
X148143Y286481D01*
X147534Y285872D01*
X147205Y285076D01*
Y284215D01*
X147534Y283419D01*
X148143Y282810D01*
X148939Y282480D01*
X149801D01*
X150597Y282810D01*
X151206Y283419D01*
X151535Y284215D01*
Y285076D01*
X151206Y285872D01*
X150597Y286481D01*
X149801Y286811D01*
D02*
G37*
G36*
X32084Y287829D02*
X31255D01*
X30454Y287615D01*
X29735Y287200D01*
X29149Y286614D01*
X28734Y285895D01*
X28520Y285094D01*
Y284265D01*
X28734Y283464D01*
X29149Y282746D01*
X29735Y282159D01*
X30454Y281745D01*
X31255Y281530D01*
X32084D01*
X32885Y281745D01*
X33603Y282159D01*
X34190Y282746D01*
X34604Y283464D01*
X34819Y284265D01*
Y285094D01*
X34604Y285895D01*
X34190Y286614D01*
X33603Y287200D01*
X32885Y287615D01*
X32084Y287829D01*
D02*
G37*
G36*
X19650Y275415D02*
X19102D01*
X18596Y275205D01*
X18208Y274817D01*
X17998Y274311D01*
Y273762D01*
X18208Y273256D01*
X18596Y272868D01*
X19102Y272659D01*
X19650D01*
X20157Y272868D01*
X20545Y273256D01*
X20754Y273762D01*
Y274311D01*
X20545Y274817D01*
X20157Y275205D01*
X19650Y275415D01*
D02*
G37*
G36*
X50982Y273858D02*
X50121D01*
X49325Y273529D01*
X48715Y272920D01*
X48386Y272124D01*
Y271262D01*
X48715Y270466D01*
X49325Y269857D01*
X50121Y269528D01*
X50982D01*
X51778Y269857D01*
X52387Y270466D01*
X52716Y271262D01*
Y272124D01*
X52387Y272920D01*
X51778Y273529D01*
X50982Y273858D01*
D02*
G37*
G36*
X114250Y271378D02*
X113388D01*
X112592Y271048D01*
X111983Y270439D01*
X111653Y269643D01*
Y268782D01*
X111983Y267986D01*
X112592Y267377D01*
X113388Y267047D01*
X114250D01*
X115045Y267377D01*
X115655Y267986D01*
X115984Y268782D01*
Y269643D01*
X115655Y270439D01*
X115045Y271048D01*
X114250Y271378D01*
D02*
G37*
G36*
X165392Y283543D02*
X164844D01*
X164338Y283334D01*
X163950Y282946D01*
X163740Y282439D01*
Y282207D01*
X152143Y270610D01*
X124215D01*
X123831Y270533D01*
X123505Y270316D01*
X114450Y261260D01*
X114293D01*
X113786Y261050D01*
X113399Y260662D01*
X113189Y260156D01*
Y259608D01*
X113399Y259101D01*
X113786Y258714D01*
X114293Y258504D01*
X114841D01*
X115348Y258714D01*
X115735Y259101D01*
X115945Y259608D01*
Y259917D01*
X124631Y268603D01*
X137471D01*
X137678Y268103D01*
X137338Y267762D01*
X137008Y266966D01*
Y266105D01*
X137338Y265309D01*
X137947Y264700D01*
X138743Y264370D01*
X139604D01*
X140400Y264700D01*
X141009Y265309D01*
X141339Y266105D01*
Y266966D01*
X141009Y267762D01*
X140668Y268103D01*
X140875Y268603D01*
X146108D01*
X146299Y268141D01*
X146274Y268116D01*
X145945Y267320D01*
Y266459D01*
X146274Y265663D01*
X146884Y265054D01*
X147679Y264724D01*
X148541D01*
X149337Y265054D01*
X149946Y265663D01*
X150276Y266459D01*
Y267320D01*
X149946Y268116D01*
X149922Y268141D01*
X150113Y268603D01*
X152559D01*
X152943Y268679D01*
X153269Y268897D01*
X165159Y280787D01*
X165392D01*
X165899Y280997D01*
X166286Y281385D01*
X166496Y281891D01*
Y282439D01*
X166286Y282946D01*
X165899Y283334D01*
X165392Y283543D01*
D02*
G37*
G36*
X352991Y258543D02*
X352443D01*
X351936Y258333D01*
X351548Y257946D01*
X351339Y257439D01*
Y256891D01*
X351548Y256385D01*
X351936Y255997D01*
X352443Y255787D01*
X352991D01*
X353497Y255997D01*
X353885Y256385D01*
X354095Y256891D01*
Y257439D01*
X353885Y257946D01*
X353497Y258333D01*
X352991Y258543D01*
D02*
G37*
G36*
X209761Y260079D02*
X208900D01*
X208104Y259749D01*
X207495Y259140D01*
X207165Y258344D01*
Y257483D01*
X207495Y256687D01*
X208104Y256078D01*
X208900Y255748D01*
X209761D01*
X210557Y256078D01*
X211166Y256687D01*
X211496Y257483D01*
Y258344D01*
X211166Y259140D01*
X210557Y259749D01*
X209761Y260079D01*
D02*
G37*
G36*
X330498Y259074D02*
X329637D01*
X328841Y258744D01*
X328232Y258135D01*
X327902Y257339D01*
Y256478D01*
X328232Y255682D01*
X328841Y255073D01*
X329637Y254743D01*
X330498D01*
X331294Y255073D01*
X331903Y255682D01*
X332233Y256478D01*
Y257339D01*
X331903Y258135D01*
X331294Y258744D01*
X330498Y259074D01*
D02*
G37*
G36*
X38604Y260157D02*
X37774D01*
X36973Y259943D01*
X36255Y259528D01*
X35669Y258942D01*
X35254Y258224D01*
X35039Y257422D01*
Y256593D01*
X35254Y255792D01*
X35669Y255074D01*
X36255Y254488D01*
X36973Y254073D01*
X37774Y253858D01*
X38604D01*
X39405Y254073D01*
X40123Y254488D01*
X40709Y255074D01*
X41124Y255792D01*
X41339Y256593D01*
Y257422D01*
X41124Y258224D01*
X40709Y258942D01*
X40123Y259528D01*
X39405Y259943D01*
X38604Y260157D01*
D02*
G37*
G36*
X10392Y261929D02*
X9844D01*
X9338Y261719D01*
X8950Y261332D01*
X8740Y260825D01*
Y260277D01*
X8950Y259771D01*
X9338Y259383D01*
X9679Y259242D01*
Y258711D01*
X9338Y258570D01*
X8950Y258182D01*
X8740Y257676D01*
Y257127D01*
X8950Y256621D01*
X9338Y256233D01*
X9679Y256092D01*
Y255562D01*
X9338Y255420D01*
X8950Y255032D01*
X8740Y254526D01*
Y253978D01*
X8950Y253471D01*
X9338Y253084D01*
X9844Y252874D01*
X10392D01*
X10899Y253084D01*
X11286Y253471D01*
X11496Y253978D01*
Y254526D01*
X11286Y255032D01*
X10899Y255420D01*
X10557Y255562D01*
Y256092D01*
X10899Y256233D01*
X11286Y256621D01*
X11496Y257127D01*
Y257676D01*
X11286Y258182D01*
X10899Y258570D01*
X10557Y258711D01*
Y259242D01*
X10899Y259383D01*
X11286Y259771D01*
X11496Y260277D01*
Y260825D01*
X11286Y261332D01*
X10899Y261719D01*
X10392Y261929D01*
D02*
G37*
G36*
X345010Y254484D02*
X344462D01*
X343956Y254274D01*
X343568Y253887D01*
X343358Y253380D01*
Y252832D01*
X343568Y252326D01*
X343956Y251938D01*
X344462Y251728D01*
X345010D01*
X345517Y251938D01*
X345904Y252326D01*
X346114Y252832D01*
Y253380D01*
X345904Y253887D01*
X345517Y254274D01*
X345010Y254484D01*
D02*
G37*
G36*
X272856Y257087D02*
X272026D01*
X271225Y256872D01*
X270507Y256457D01*
X269921Y255871D01*
X269506Y255153D01*
X269291Y254352D01*
Y253522D01*
X269506Y252721D01*
X269921Y252003D01*
X270507Y251417D01*
X271225Y251002D01*
X272026Y250787D01*
X272856D01*
X273657Y251002D01*
X274375Y251417D01*
X274961Y252003D01*
X275376Y252721D01*
X275590Y253522D01*
Y254352D01*
X275376Y255153D01*
X274961Y255871D01*
X274375Y256457D01*
X273657Y256872D01*
X272856Y257087D01*
D02*
G37*
G36*
X142698Y256890D02*
X141869D01*
X141068Y256675D01*
X140350Y256260D01*
X139763Y255674D01*
X139348Y254956D01*
X139134Y254155D01*
Y253326D01*
X139348Y252524D01*
X139763Y251806D01*
X140350Y251220D01*
X141068Y250805D01*
X141869Y250591D01*
X142698D01*
X143499Y250805D01*
X144217Y251220D01*
X144804Y251806D01*
X145218Y252524D01*
X145433Y253326D01*
Y254155D01*
X145218Y254956D01*
X144804Y255674D01*
X144217Y256260D01*
X143499Y256675D01*
X142698Y256890D01*
D02*
G37*
G36*
X245297Y256693D02*
X244467D01*
X243666Y256478D01*
X242948Y256064D01*
X242362Y255477D01*
X241947Y254759D01*
X241732Y253958D01*
Y253129D01*
X241947Y252328D01*
X242362Y251609D01*
X242948Y251023D01*
X243666Y250608D01*
X244467Y250394D01*
X245297D01*
X246098Y250608D01*
X246816Y251023D01*
X247402Y251609D01*
X247817Y252328D01*
X248031Y253129D01*
Y253958D01*
X247817Y254759D01*
X247402Y255477D01*
X246816Y256064D01*
X246098Y256478D01*
X245297Y256693D01*
D02*
G37*
G36*
X107412Y255718D02*
X99833D01*
Y248140D01*
X107412D01*
Y255718D01*
D02*
G37*
G36*
X121416Y250787D02*
X120868D01*
X120361Y250578D01*
X119974Y250190D01*
X119764Y249683D01*
Y249135D01*
X119974Y248629D01*
X120361Y248241D01*
X120868Y248031D01*
X121416D01*
X121922Y248241D01*
X122310Y248629D01*
X122520Y249135D01*
Y249683D01*
X122310Y250190D01*
X121922Y250578D01*
X121416Y250787D01*
D02*
G37*
G36*
X187950Y251890D02*
X187089D01*
X186293Y251560D01*
X185684Y250951D01*
X185354Y250155D01*
Y249294D01*
X185684Y248498D01*
X186293Y247889D01*
X187089Y247559D01*
X187950D01*
X188746Y247889D01*
X189355Y248498D01*
X189685Y249294D01*
Y250155D01*
X189355Y250951D01*
X188746Y251560D01*
X187950Y251890D01*
D02*
G37*
G36*
X318423Y247835D02*
X317561D01*
X316766Y247505D01*
X316156Y246896D01*
X315827Y246100D01*
Y245239D01*
X316156Y244443D01*
X316766Y243834D01*
X317561Y243504D01*
X318423D01*
X319219Y243834D01*
X319828Y244443D01*
X320158Y245239D01*
Y246100D01*
X319828Y246896D01*
X319219Y247505D01*
X318423Y247835D01*
D02*
G37*
G36*
X325945Y254160D02*
X325397D01*
X324890Y253950D01*
X324503Y253563D01*
X324293Y253056D01*
Y252508D01*
X324309Y252469D01*
X324175Y251969D01*
X324040Y251913D01*
X323668Y251759D01*
X323281Y251371D01*
X323071Y250865D01*
Y250317D01*
X323102Y250241D01*
X322836Y249843D01*
X322330Y249633D01*
X321942Y249245D01*
X321732Y248739D01*
Y248190D01*
X321942Y247684D01*
X321995Y247631D01*
X321923Y247269D01*
X321314Y246660D01*
X320984Y245864D01*
Y245002D01*
X321314Y244207D01*
X321923Y243597D01*
X322719Y243268D01*
X323580D01*
X324376Y243597D01*
X324985Y244207D01*
X325315Y245002D01*
Y245864D01*
X324985Y246660D01*
X324376Y247269D01*
X324360Y247276D01*
X324278Y247684D01*
X324488Y248190D01*
Y248739D01*
X324457Y248815D01*
X324723Y249213D01*
X325229Y249422D01*
X325617Y249810D01*
X325827Y250317D01*
Y250865D01*
X325810Y250904D01*
X325945Y251404D01*
X326080Y251460D01*
X326451Y251614D01*
X326839Y252002D01*
X327049Y252508D01*
Y253056D01*
X326839Y253563D01*
X326451Y253950D01*
X325945Y254160D01*
D02*
G37*
G36*
X124880Y239764D02*
X124018D01*
X123222Y239434D01*
X122613Y238825D01*
X122283Y238029D01*
Y237168D01*
X122613Y236372D01*
X123222Y235763D01*
X124018Y235433D01*
X124880D01*
X125675Y235763D01*
X126285Y236372D01*
X126614Y237168D01*
Y238029D01*
X126285Y238825D01*
X125675Y239434D01*
X124880Y239764D01*
D02*
G37*
G36*
X237676Y237323D02*
X237127D01*
X236621Y237113D01*
X236233Y236725D01*
X236024Y236219D01*
Y235671D01*
X236200Y235244D01*
X236077Y234935D01*
X235947Y234744D01*
X234370D01*
X234206Y234908D01*
X233699Y235118D01*
X233151D01*
X232645Y234908D01*
X232257Y234521D01*
X232047Y234014D01*
Y233466D01*
X232257Y232960D01*
X232645Y232572D01*
X233151Y232362D01*
X233699D01*
X234206Y232572D01*
X234370Y232737D01*
X269769D01*
X269948Y232237D01*
X269488Y231776D01*
X269073Y231058D01*
X268858Y230257D01*
Y229428D01*
X269073Y228627D01*
X269488Y227909D01*
X270074Y227322D01*
X270792Y226908D01*
X271593Y226693D01*
X272423D01*
X273224Y226908D01*
X273942Y227322D01*
X274528Y227909D01*
X274943Y228627D01*
X275157Y229428D01*
Y230257D01*
X274943Y231058D01*
X274528Y231776D01*
X274068Y232237D01*
X274247Y232737D01*
X276413D01*
X280856Y228293D01*
X303714Y205435D01*
Y205202D01*
X303924Y204696D01*
X304312Y204308D01*
X304818Y204098D01*
X305366D01*
X305873Y204308D01*
X306260Y204696D01*
X306470Y205202D01*
Y205750D01*
X306260Y206257D01*
X305873Y206644D01*
X305366Y206854D01*
X305134D01*
X304613Y207375D01*
X304820Y207874D01*
X304880D01*
X305386Y208084D01*
X305774Y208472D01*
X305984Y208978D01*
Y209526D01*
X305774Y210033D01*
X305386Y210421D01*
X304880Y210630D01*
X304647D01*
X278623Y236654D01*
X278297Y236872D01*
X277913Y236948D01*
X238347D01*
X238182Y237113D01*
X237676Y237323D01*
D02*
G37*
G36*
X21179Y233110D02*
X20317D01*
X19522Y232780D01*
X18912Y232171D01*
X18583Y231375D01*
Y230514D01*
X18912Y229718D01*
X19522Y229109D01*
X20317Y228779D01*
X21179D01*
X21975Y229109D01*
X22584Y229718D01*
X22913Y230514D01*
Y231375D01*
X22584Y232171D01*
X21975Y232780D01*
X21179Y233110D01*
D02*
G37*
G36*
X149696Y226640D02*
X148835D01*
X148039Y226310D01*
X147430Y225701D01*
X147100Y224905D01*
Y224044D01*
X147430Y223248D01*
X148039Y222639D01*
X148835Y222309D01*
X149696D01*
X150492Y222639D01*
X151101Y223248D01*
X151431Y224044D01*
Y224905D01*
X151101Y225701D01*
X150492Y226310D01*
X149696Y226640D01*
D02*
G37*
G36*
X221637Y225767D02*
X220775D01*
X219980Y225437D01*
X219370Y224828D01*
X219041Y224032D01*
Y223171D01*
X219370Y222375D01*
X219980Y221766D01*
X220775Y221436D01*
X221637D01*
X222433Y221766D01*
X223042Y222375D01*
X223371Y223171D01*
Y224032D01*
X223042Y224828D01*
X222433Y225437D01*
X221637Y225767D01*
D02*
G37*
G36*
X251642Y225570D02*
X250781D01*
X249985Y225240D01*
X249376Y224631D01*
X249046Y223835D01*
Y222974D01*
X249376Y222178D01*
X249985Y221569D01*
X250781Y221239D01*
X251642D01*
X252438Y221569D01*
X253047Y222178D01*
X253377Y222974D01*
Y223835D01*
X253047Y224631D01*
X252438Y225240D01*
X251642Y225570D01*
D02*
G37*
G36*
X115432Y222992D02*
X114883D01*
X114377Y222782D01*
X113989Y222395D01*
X113779Y221888D01*
Y221340D01*
X113989Y220834D01*
X114377Y220446D01*
X114883Y220236D01*
X115432D01*
X115938Y220446D01*
X116326Y220834D01*
X116535Y221340D01*
Y221888D01*
X116326Y222395D01*
X115938Y222782D01*
X115432Y222992D01*
D02*
G37*
G36*
X25943Y222323D02*
X25395D01*
X24889Y222113D01*
X24501Y221725D01*
X24291Y221219D01*
Y220671D01*
X24501Y220164D01*
X24889Y219777D01*
X25395Y219567D01*
X25943D01*
X26450Y219777D01*
X26838Y220164D01*
X27047Y220671D01*
Y221219D01*
X26838Y221725D01*
X26450Y222113D01*
X25943Y222323D01*
D02*
G37*
G36*
X272895Y224055D02*
X272066D01*
X271265Y223840D01*
X270546Y223426D01*
X269960Y222839D01*
X269545Y222121D01*
X269331Y221320D01*
Y220491D01*
X269545Y219690D01*
X269960Y218972D01*
X270546Y218385D01*
X271265Y217971D01*
X272066Y217756D01*
X272895D01*
X273696Y217971D01*
X274414Y218385D01*
X275001Y218972D01*
X275415Y219690D01*
X275630Y220491D01*
Y221320D01*
X275415Y222121D01*
X275001Y222839D01*
X274414Y223426D01*
X273696Y223840D01*
X272895Y224055D01*
D02*
G37*
G36*
X44600Y216493D02*
X44051D01*
X43545Y216283D01*
X43157Y215896D01*
X42947Y215389D01*
Y214841D01*
X43157Y214335D01*
X43545Y213947D01*
X44051Y213737D01*
X44600D01*
X45106Y213947D01*
X45494Y214335D01*
X45703Y214841D01*
Y215389D01*
X45494Y215896D01*
X45106Y216283D01*
X44600Y216493D01*
D02*
G37*
G36*
X92754Y215276D02*
X92206D01*
X91700Y215066D01*
X91312Y214678D01*
X91102Y214172D01*
Y213623D01*
X91312Y213117D01*
X91700Y212730D01*
X92206Y212520D01*
X92754D01*
X93261Y212730D01*
X93648Y213117D01*
X93858Y213623D01*
Y214172D01*
X93648Y214678D01*
X93261Y215066D01*
X92754Y215276D01*
D02*
G37*
G36*
X6764Y219288D02*
X5903D01*
X5107Y218959D01*
X4498Y218350D01*
X4168Y217554D01*
Y216692D01*
X4498Y215897D01*
X4854Y215540D01*
X5086Y215254D01*
X4854Y214887D01*
X4537Y214570D01*
X4207Y213774D01*
Y212913D01*
X4537Y212117D01*
X5146Y211508D01*
X5942Y211178D01*
X6803D01*
X7599Y211508D01*
X8208Y212117D01*
X8538Y212913D01*
Y213774D01*
X8208Y214570D01*
X7852Y214926D01*
X7620Y215213D01*
X7852Y215580D01*
X8169Y215897D01*
X8499Y216692D01*
Y217554D01*
X8169Y218350D01*
X7560Y218959D01*
X6764Y219288D01*
D02*
G37*
G36*
X110746Y214094D02*
X109884D01*
X109088Y213765D01*
X108479Y213156D01*
X108150Y212360D01*
Y211498D01*
X108479Y210703D01*
X109088Y210093D01*
X109884Y209764D01*
X110746D01*
X111541Y210093D01*
X112151Y210703D01*
X112480Y211498D01*
Y212360D01*
X112151Y213156D01*
X111541Y213765D01*
X110746Y214094D01*
D02*
G37*
G36*
X173857Y212244D02*
X173309D01*
X172802Y212034D01*
X172415Y211647D01*
X172205Y211140D01*
Y210592D01*
X172415Y210086D01*
X172802Y209698D01*
X173309Y209488D01*
X173857D01*
X174363Y209698D01*
X174751Y210086D01*
X174961Y210592D01*
Y211140D01*
X174751Y211647D01*
X174363Y212034D01*
X173857Y212244D01*
D02*
G37*
G36*
X206377Y211299D02*
X205828D01*
X205322Y211089D01*
X204934Y210702D01*
X204724Y210195D01*
Y209647D01*
X204934Y209141D01*
X205322Y208753D01*
X205828Y208543D01*
X206377D01*
X206883Y208753D01*
X207271Y209141D01*
X207480Y209647D01*
Y210195D01*
X207271Y210702D01*
X206883Y211089D01*
X206377Y211299D01*
D02*
G37*
G36*
X265510Y211107D02*
X264962D01*
X264456Y210897D01*
X264068Y210510D01*
X263858Y210003D01*
Y209455D01*
X264068Y208948D01*
X264456Y208561D01*
X264962Y208351D01*
X265510D01*
X266017Y208561D01*
X266404Y208948D01*
X266614Y209455D01*
Y210003D01*
X266404Y210510D01*
X266017Y210897D01*
X265510Y211107D01*
D02*
G37*
G36*
X86824Y210784D02*
X86276D01*
X85769Y210575D01*
X85529Y210334D01*
X78397D01*
X78013Y210258D01*
X77688Y210040D01*
X45856Y178208D01*
X25433D01*
X25269Y178373D01*
X24762Y178583D01*
X24214D01*
X23708Y178373D01*
X23320Y177985D01*
X23110Y177479D01*
Y176931D01*
X23320Y176424D01*
X23708Y176037D01*
X24214Y175827D01*
X24762D01*
X25269Y176037D01*
X25433Y176201D01*
X41244D01*
X41261Y175709D01*
X40755Y175499D01*
X40367Y175111D01*
X40157Y174605D01*
Y174056D01*
X40367Y173550D01*
X40755Y173162D01*
X41261Y172953D01*
X41809D01*
X42316Y173162D01*
X42704Y173550D01*
X42913Y174056D01*
Y174605D01*
X42704Y175111D01*
X42316Y175499D01*
X41809Y175709D01*
X41827Y176201D01*
X46271D01*
X46655Y176278D01*
X46981Y176495D01*
X78813Y208327D01*
X85680D01*
X85769Y208238D01*
X86276Y208029D01*
X86824D01*
X87330Y208238D01*
X87718Y208626D01*
X87928Y209132D01*
Y209681D01*
X87718Y210187D01*
X87330Y210575D01*
X86824Y210784D01*
D02*
G37*
G36*
X31572Y211811D02*
X30711D01*
X29915Y211481D01*
X29306Y210872D01*
X28976Y210076D01*
Y209215D01*
X29306Y208419D01*
X29915Y207810D01*
X30711Y207480D01*
X31572D01*
X32368Y207810D01*
X32977Y208419D01*
X33307Y209215D01*
Y210076D01*
X32977Y210872D01*
X32368Y211481D01*
X31572Y211811D01*
D02*
G37*
G36*
X285824Y209567D02*
X284963D01*
X284167Y209237D01*
X283558Y208628D01*
X283228Y207832D01*
Y206971D01*
X283558Y206175D01*
X284167Y205566D01*
X284963Y205236D01*
X285824D01*
X286620Y205566D01*
X287229Y206175D01*
X287559Y206971D01*
Y207832D01*
X287229Y208628D01*
X286620Y209237D01*
X285824Y209567D01*
D02*
G37*
G36*
X113659Y209134D02*
X112798D01*
X112002Y208804D01*
X111393Y208195D01*
X111063Y207399D01*
Y206538D01*
X111393Y205742D01*
X112002Y205133D01*
X112798Y204803D01*
X113659D01*
X114455Y205133D01*
X115064Y205742D01*
X115394Y206538D01*
Y207399D01*
X115064Y208195D01*
X114455Y208804D01*
X113659Y209134D01*
D02*
G37*
G36*
X63778Y206732D02*
X63230D01*
X62723Y206522D01*
X62336Y206135D01*
X62126Y205628D01*
Y205080D01*
X62336Y204574D01*
X62723Y204186D01*
X63230Y203976D01*
X63778D01*
X64284Y204186D01*
X64672Y204574D01*
X64882Y205080D01*
Y205628D01*
X64672Y206135D01*
X64284Y206522D01*
X63778Y206732D01*
D02*
G37*
G36*
X279644Y205984D02*
X279096D01*
X278590Y205774D01*
X278202Y205387D01*
X277992Y204880D01*
Y204332D01*
X278202Y203826D01*
X278590Y203438D01*
X279096Y203228D01*
X279644D01*
X280151Y203438D01*
X280538Y203826D01*
X280748Y204332D01*
Y204880D01*
X280538Y205387D01*
X280151Y205774D01*
X279644Y205984D01*
D02*
G37*
G36*
X176849Y204921D02*
X176301D01*
X175794Y204711D01*
X175407Y204324D01*
X175197Y203817D01*
Y203269D01*
X175407Y202763D01*
X175794Y202375D01*
X176301Y202165D01*
X176849D01*
X177355Y202375D01*
X177743Y202763D01*
X177953Y203269D01*
Y203817D01*
X177743Y204324D01*
X177355Y204711D01*
X176849Y204921D01*
D02*
G37*
G36*
X148935Y206339D02*
X148073D01*
X147277Y206009D01*
X146668Y205400D01*
X146339Y204604D01*
Y203743D01*
X146668Y202947D01*
X147277Y202338D01*
X148073Y202008D01*
X148935D01*
X149731Y202338D01*
X150340Y202947D01*
X150669Y203743D01*
Y204604D01*
X150340Y205400D01*
X149731Y206009D01*
X148935Y206339D01*
D02*
G37*
G36*
X139840Y206260D02*
X138979D01*
X138183Y205930D01*
X137574Y205321D01*
X137244Y204525D01*
Y203664D01*
X137574Y202868D01*
X138183Y202259D01*
X138979Y201929D01*
X139840D01*
X140636Y202259D01*
X141245Y202868D01*
X141575Y203664D01*
Y204525D01*
X141245Y205321D01*
X140636Y205930D01*
X139840Y206260D01*
D02*
G37*
G36*
X163266Y204606D02*
X162718D01*
X162212Y204397D01*
X161824Y204009D01*
X161614Y203502D01*
Y202954D01*
X161824Y202448D01*
X162212Y202060D01*
X162718Y201851D01*
X163266D01*
X163773Y202060D01*
X164160Y202448D01*
X164370Y202954D01*
Y203502D01*
X164160Y204009D01*
X163773Y204397D01*
X163266Y204606D01*
D02*
G37*
G36*
X265569Y202382D02*
X265021D01*
X264515Y202172D01*
X264127Y201785D01*
X263917Y201278D01*
Y200730D01*
X264127Y200223D01*
X264515Y199836D01*
X265021Y199626D01*
X265569D01*
X266076Y199836D01*
X266463Y200223D01*
X266673Y200730D01*
Y201278D01*
X266463Y201785D01*
X266076Y202172D01*
X265569Y202382D01*
D02*
G37*
G36*
X45530Y199783D02*
X44982D01*
X44475Y199574D01*
X44088Y199186D01*
X43878Y198679D01*
Y198131D01*
X44088Y197625D01*
X44475Y197237D01*
X44982Y197028D01*
X45530D01*
X46036Y197237D01*
X46424Y197625D01*
X46634Y198131D01*
Y198679D01*
X46424Y199186D01*
X46036Y199574D01*
X45530Y199783D01*
D02*
G37*
G36*
X107412Y204577D02*
X99833D01*
Y196998D01*
X107412D01*
Y204577D01*
D02*
G37*
G36*
X117892Y199705D02*
X117344D01*
X116838Y199495D01*
X116450Y199107D01*
X116240Y198601D01*
Y198053D01*
X116450Y197546D01*
X116838Y197159D01*
X117344Y196949D01*
X117892D01*
X118399Y197159D01*
X118786Y197546D01*
X118996Y198053D01*
Y198601D01*
X118786Y199107D01*
X118399Y199495D01*
X117892Y199705D01*
D02*
G37*
G36*
X130458Y196614D02*
X129910D01*
X129403Y196404D01*
X129016Y196017D01*
X128806Y195510D01*
Y194962D01*
X129016Y194456D01*
X129403Y194068D01*
X129910Y193858D01*
X130458D01*
X130965Y194068D01*
X131352Y194456D01*
X131562Y194962D01*
Y195510D01*
X131352Y196017D01*
X130965Y196404D01*
X130458Y196614D01*
D02*
G37*
G36*
X272659Y196181D02*
X271829D01*
X271028Y195966D01*
X270310Y195552D01*
X269724Y194965D01*
X269309Y194247D01*
X269094Y193446D01*
Y192617D01*
X269309Y191816D01*
X269724Y191098D01*
X270310Y190511D01*
X271028Y190096D01*
X271829Y189882D01*
X272659D01*
X273460Y190096D01*
X274178Y190511D01*
X274764Y191098D01*
X275179Y191816D01*
X275394Y192617D01*
Y193446D01*
X275179Y194247D01*
X274764Y194965D01*
X274178Y195552D01*
X273460Y195966D01*
X272659Y196181D01*
D02*
G37*
G36*
X124643Y193819D02*
X123782D01*
X122986Y193489D01*
X122377Y192880D01*
X122047Y192084D01*
Y191223D01*
X122377Y190427D01*
X122986Y189818D01*
X123782Y189488D01*
X124643D01*
X125439Y189818D01*
X126048Y190427D01*
X126378Y191223D01*
Y192084D01*
X126048Y192880D01*
X125439Y193489D01*
X124643Y193819D01*
D02*
G37*
G36*
X235021Y193898D02*
X234192D01*
X233391Y193683D01*
X232672Y193268D01*
X232086Y192682D01*
X231671Y191964D01*
X231457Y191163D01*
Y190333D01*
X231671Y189532D01*
X232086Y188814D01*
X232672Y188228D01*
X233391Y187813D01*
X234192Y187598D01*
X235021D01*
X235822Y187813D01*
X236540Y188228D01*
X237127Y188814D01*
X237541Y189532D01*
X237756Y190333D01*
Y191163D01*
X237541Y191964D01*
X237127Y192682D01*
X236540Y193268D01*
X235822Y193683D01*
X235021Y193898D01*
D02*
G37*
G36*
X153997Y192795D02*
X153168D01*
X152367Y192581D01*
X151649Y192166D01*
X151062Y191580D01*
X150648Y190861D01*
X150433Y190060D01*
Y189231D01*
X150648Y188430D01*
X151062Y187712D01*
X151649Y187125D01*
X152367Y186711D01*
X153168Y186496D01*
X153997D01*
X154798Y186711D01*
X155517Y187125D01*
X156103Y187712D01*
X156518Y188430D01*
X156732Y189231D01*
Y190060D01*
X156518Y190861D01*
X156103Y191580D01*
X155517Y192166D01*
X154798Y192581D01*
X153997Y192795D01*
D02*
G37*
G36*
X47934Y192480D02*
X47105D01*
X46304Y192266D01*
X45586Y191851D01*
X44999Y191265D01*
X44585Y190546D01*
X44370Y189745D01*
Y188916D01*
X44585Y188115D01*
X44999Y187397D01*
X45586Y186810D01*
X46304Y186396D01*
X47105Y186181D01*
X47934D01*
X48735Y186396D01*
X49454Y186810D01*
X50040Y187397D01*
X50455Y188115D01*
X50669Y188916D01*
Y189745D01*
X50455Y190546D01*
X50040Y191265D01*
X49454Y191851D01*
X48735Y192266D01*
X47934Y192480D01*
D02*
G37*
G36*
X187243Y185197D02*
X186695D01*
X186188Y184987D01*
X185973Y184772D01*
X185790Y184603D01*
X185327Y184764D01*
X185246Y184846D01*
X184739Y185056D01*
X184191D01*
X183685Y184846D01*
X183297Y184458D01*
X183087Y183952D01*
Y183404D01*
X183297Y182897D01*
X183685Y182510D01*
X184191Y182300D01*
X184739D01*
X185246Y182510D01*
X185461Y182725D01*
X185644Y182894D01*
X186106Y182732D01*
X186188Y182651D01*
X186695Y182441D01*
X187243D01*
X187749Y182651D01*
X188137Y183038D01*
X188347Y183545D01*
Y184093D01*
X188137Y184599D01*
X187749Y184987D01*
X187243Y185197D01*
D02*
G37*
G36*
X27793Y188465D02*
X26932D01*
X26136Y188135D01*
X25526Y187526D01*
X25197Y186730D01*
Y185869D01*
X25526Y185073D01*
X26136Y184464D01*
X26932Y184134D01*
X27793D01*
X28589Y184464D01*
X29198Y185073D01*
X29528Y185869D01*
Y186730D01*
X29198Y187526D01*
X28589Y188135D01*
X27793Y188465D01*
D02*
G37*
G36*
X75413Y188503D02*
X74865D01*
X74359Y188293D01*
X73971Y187905D01*
X73761Y187399D01*
Y186850D01*
X73971Y186344D01*
X74359Y185956D01*
X74865Y185747D01*
X74970D01*
X75414Y185729D01*
X75432Y185285D01*
Y185180D01*
X75642Y184674D01*
X76029Y184286D01*
X76536Y184076D01*
X77084D01*
X77590Y184286D01*
X77978Y184674D01*
X78188Y185180D01*
Y185728D01*
X77978Y186235D01*
X77590Y186622D01*
X77084Y186832D01*
X76979D01*
X76535Y186850D01*
X76517Y187294D01*
Y187399D01*
X76307Y187905D01*
X75920Y188293D01*
X75413Y188503D01*
D02*
G37*
G36*
X318423Y189842D02*
X317561D01*
X316766Y189513D01*
X316156Y188904D01*
X315827Y188108D01*
Y187247D01*
X316156Y186451D01*
X316268Y186339D01*
X316156Y186227D01*
X315827Y185431D01*
Y184569D01*
X316156Y183773D01*
X316766Y183164D01*
X317561Y182835D01*
X318423D01*
X319219Y183164D01*
X319828Y183773D01*
X320158Y184569D01*
Y185431D01*
X319828Y186227D01*
X319716Y186339D01*
X319828Y186451D01*
X320158Y187247D01*
Y188108D01*
X319828Y188904D01*
X319219Y189513D01*
X318423Y189842D01*
D02*
G37*
G36*
X164506Y181673D02*
X123200D01*
X122816Y181596D01*
X122491Y181379D01*
X109115Y168003D01*
X108525Y168120D01*
X108446Y168311D01*
X108058Y168699D01*
X107552Y168908D01*
X107003D01*
X106497Y168699D01*
X106109Y168311D01*
X105900Y167804D01*
Y167256D01*
X106109Y166750D01*
X106497Y166362D01*
X106688Y166283D01*
X106805Y165693D01*
X96761Y155649D01*
X25355D01*
X25190Y155814D01*
X24683Y156024D01*
X24135D01*
X23629Y155814D01*
X23241Y155426D01*
X23031Y154920D01*
Y154372D01*
X23241Y153865D01*
X23629Y153478D01*
X24135Y153268D01*
X24683D01*
X25190Y153478D01*
X25355Y153642D01*
X97177D01*
X97561Y153718D01*
X97886Y153936D01*
X102486Y158535D01*
X102692Y158466D01*
X102947Y158290D01*
Y157833D01*
X103157Y157327D01*
X103545Y156939D01*
X104051Y156729D01*
X104599D01*
X105106Y156939D01*
X105494Y157327D01*
X105703Y157833D01*
Y158381D01*
X105494Y158888D01*
X105106Y159275D01*
X104599Y159485D01*
X104143D01*
X103966Y159740D01*
X103898Y159947D01*
X107546Y163596D01*
X108036Y163498D01*
X108086Y163380D01*
X108695Y162771D01*
X109491Y162441D01*
X110352D01*
X111148Y162771D01*
X111757Y163380D01*
X112087Y164176D01*
Y165037D01*
X111757Y165833D01*
X111148Y166442D01*
X111029Y166491D01*
X110932Y166981D01*
X122530Y178580D01*
X122992Y178389D01*
Y178270D01*
X123322Y177474D01*
X123931Y176865D01*
X124727Y176535D01*
X125588D01*
X126384Y176865D01*
X126993Y177474D01*
X127323Y178270D01*
Y179131D01*
X127274Y179250D01*
X127551Y179666D01*
X164090D01*
X165056Y178700D01*
X165381Y178482D01*
X165765Y178406D01*
X205196D01*
X205361Y178241D01*
X205868Y178032D01*
X206416D01*
X206922Y178241D01*
X207310Y178629D01*
X207520Y179135D01*
Y179683D01*
X207310Y180190D01*
X206922Y180578D01*
X206416Y180787D01*
X205868D01*
X205361Y180578D01*
X205196Y180413D01*
X166181D01*
X165215Y181379D01*
X164890Y181596D01*
X164506Y181673D01*
D02*
G37*
G36*
X109289Y181339D02*
X108428D01*
X107632Y181009D01*
X107023Y180400D01*
X106693Y179604D01*
Y178743D01*
X107023Y177947D01*
X107632Y177338D01*
X108428Y177008D01*
X109289D01*
X110085Y177338D01*
X110694Y177947D01*
X111024Y178743D01*
Y179604D01*
X110694Y180400D01*
X110085Y181009D01*
X109289Y181339D01*
D02*
G37*
G36*
X160789Y176878D02*
X160241D01*
X159735Y176668D01*
X159347Y176281D01*
X159137Y175774D01*
Y175226D01*
X159347Y174720D01*
X159735Y174332D01*
X160241Y174122D01*
X160789D01*
X161296Y174332D01*
X161683Y174720D01*
X161893Y175226D01*
Y175774D01*
X161683Y176281D01*
X161296Y176668D01*
X160789Y176878D01*
D02*
G37*
G36*
X5684Y175394D02*
X5136D01*
X4629Y175184D01*
X4242Y174796D01*
X4032Y174290D01*
Y173742D01*
X4242Y173235D01*
X4629Y172848D01*
X5136Y172638D01*
X5684D01*
X6191Y172848D01*
X6578Y173235D01*
X6788Y173742D01*
Y174290D01*
X6578Y174796D01*
X6191Y175184D01*
X5684Y175394D01*
D02*
G37*
G36*
X358383Y176890D02*
X357522D01*
X356726Y176560D01*
X356117Y175951D01*
X355787Y175155D01*
Y174294D01*
X356117Y173498D01*
X356726Y172889D01*
X357522Y172559D01*
X358383D01*
X359179Y172889D01*
X359788Y173498D01*
X360118Y174294D01*
Y175155D01*
X359788Y175951D01*
X359179Y176560D01*
X358383Y176890D01*
D02*
G37*
G36*
X221603Y176515D02*
X220741D01*
X219945Y176185D01*
X219336Y175576D01*
X219007Y174780D01*
Y173919D01*
X219336Y173123D01*
X219945Y172514D01*
X220741Y172184D01*
X221603D01*
X222398Y172514D01*
X223008Y173123D01*
X223337Y173919D01*
Y174780D01*
X223008Y175576D01*
X222398Y176185D01*
X221603Y176515D01*
D02*
G37*
G36*
X345313Y174882D02*
X344765D01*
X344259Y174672D01*
X343871Y174285D01*
X343661Y173778D01*
Y173230D01*
X343871Y172723D01*
X344259Y172336D01*
X344765Y172126D01*
X345313D01*
X345820Y172336D01*
X346207Y172723D01*
X346417Y173230D01*
Y173778D01*
X346207Y174285D01*
X345820Y174672D01*
X345313Y174882D01*
D02*
G37*
G36*
X254430Y178307D02*
X253601D01*
X252800Y178092D01*
X252082Y177678D01*
X251495Y177091D01*
X251081Y176373D01*
X250866Y175572D01*
Y174743D01*
X251081Y173942D01*
X251495Y173224D01*
X252082Y172637D01*
X252800Y172222D01*
X253601Y172008D01*
X254430D01*
X255231Y172222D01*
X255950Y172637D01*
X256536Y173224D01*
X256951Y173942D01*
X257165Y174743D01*
Y175572D01*
X256951Y176373D01*
X256536Y177091D01*
X255950Y177678D01*
X255231Y178092D01*
X254430Y178307D01*
D02*
G37*
G36*
X322351Y175715D02*
X321489D01*
X320693Y175385D01*
X320084Y174776D01*
X319755Y173980D01*
Y173119D01*
X320084Y172323D01*
X320693Y171714D01*
X321489Y171384D01*
X322351D01*
X323147Y171714D01*
X323756Y172323D01*
X324085Y173119D01*
Y173980D01*
X323756Y174776D01*
X323147Y175385D01*
X322351Y175715D01*
D02*
G37*
G36*
X226618Y171962D02*
X226069D01*
X225563Y171752D01*
X225175Y171364D01*
X224966Y170858D01*
Y170310D01*
X225175Y169803D01*
X225563Y169416D01*
X226069Y169206D01*
X226618D01*
X227124Y169416D01*
X227512Y169803D01*
X227722Y170310D01*
Y170858D01*
X227512Y171364D01*
X227124Y171752D01*
X226618Y171962D01*
D02*
G37*
G36*
X166862Y171740D02*
X166314D01*
X165807Y171531D01*
X165420Y171143D01*
X165210Y170637D01*
Y170088D01*
X165420Y169582D01*
X165807Y169194D01*
X166314Y168985D01*
X166862D01*
X167368Y169194D01*
X167756Y169582D01*
X167966Y170088D01*
Y170637D01*
X167756Y171143D01*
X167368Y171531D01*
X166862Y171740D01*
D02*
G37*
G36*
X240983Y169921D02*
X240435D01*
X239928Y169711D01*
X239541Y169324D01*
X239331Y168817D01*
Y168269D01*
X239541Y167763D01*
X239928Y167375D01*
X240435Y167165D01*
X240983D01*
X241489Y167375D01*
X241877Y167763D01*
X242087Y168269D01*
Y168817D01*
X241877Y169324D01*
X241489Y169711D01*
X240983Y169921D01*
D02*
G37*
G36*
X96809Y169764D02*
X95947D01*
X95151Y169434D01*
X94542Y168825D01*
X94213Y168029D01*
Y167168D01*
X94542Y166372D01*
X95151Y165763D01*
X95947Y165433D01*
X96809D01*
X97605Y165763D01*
X98214Y166372D01*
X98543Y167168D01*
Y168029D01*
X98214Y168825D01*
X97605Y169434D01*
X96809Y169764D01*
D02*
G37*
G36*
X51691Y168032D02*
X50829D01*
X50033Y167702D01*
X49424Y167093D01*
X49095Y166297D01*
Y165435D01*
X49424Y164640D01*
X50033Y164030D01*
X50829Y163701D01*
X51691D01*
X52486Y164030D01*
X53096Y164640D01*
X53425Y165435D01*
Y166297D01*
X53096Y167093D01*
X52486Y167702D01*
X51691Y168032D01*
D02*
G37*
G36*
X152872Y166024D02*
X152010D01*
X151214Y165694D01*
X150605Y165085D01*
X150276Y164289D01*
Y163428D01*
X150605Y162632D01*
X151214Y162023D01*
X152010Y161693D01*
X152872D01*
X153667Y162023D01*
X154277Y162632D01*
X154606Y163428D01*
Y164289D01*
X154277Y165085D01*
X153667Y165694D01*
X152872Y166024D01*
D02*
G37*
G36*
X188541Y162874D02*
X187680D01*
X186884Y162544D01*
X186275Y161935D01*
X185945Y161139D01*
Y160278D01*
X186275Y159482D01*
X186884Y158873D01*
X187680Y158543D01*
X188541D01*
X189337Y158873D01*
X189946Y159482D01*
X190276Y160278D01*
Y161139D01*
X189946Y161935D01*
X189337Y162544D01*
X188541Y162874D01*
D02*
G37*
G36*
X139210Y162402D02*
X138349D01*
X137553Y162072D01*
X136944Y161463D01*
X136614Y160667D01*
Y159806D01*
X136944Y159010D01*
X137553Y158400D01*
X138349Y158071D01*
X139210D01*
X140006Y158400D01*
X140615Y159010D01*
X140945Y159806D01*
Y160667D01*
X140615Y161463D01*
X140006Y162072D01*
X139210Y162402D01*
D02*
G37*
G36*
X207596Y156811D02*
X206735D01*
X205939Y156481D01*
X205330Y155872D01*
X205000Y155076D01*
Y154215D01*
X205330Y153419D01*
X205939Y152810D01*
X206735Y152480D01*
X207596D01*
X208392Y152810D01*
X208908Y153326D01*
X209315Y153295D01*
X209466Y153235D01*
X209580Y152960D01*
X209967Y152572D01*
X210474Y152362D01*
X211022D01*
X211528Y152572D01*
X211916Y152960D01*
X212126Y153466D01*
Y154014D01*
X211916Y154521D01*
X211528Y154908D01*
X211022Y155118D01*
X210474D01*
X209967Y154908D01*
X209831Y154772D01*
X209331Y154979D01*
Y155076D01*
X209001Y155872D01*
X208392Y156481D01*
X207596Y156811D01*
D02*
G37*
G36*
X163305Y156457D02*
X162443D01*
X161647Y156127D01*
X161038Y155518D01*
X160709Y154722D01*
Y153861D01*
X161038Y153065D01*
X161647Y152456D01*
X162443Y152126D01*
X163305D01*
X164101Y152456D01*
X164710Y153065D01*
X165039Y153861D01*
Y154722D01*
X164710Y155518D01*
X164101Y156127D01*
X163305Y156457D01*
D02*
G37*
G36*
X12478Y150236D02*
X11616D01*
X10821Y149907D01*
X10211Y149297D01*
X9882Y148502D01*
Y147640D01*
X10211Y146844D01*
X10821Y146235D01*
X11616Y145905D01*
X12478D01*
X13274Y146235D01*
X13883Y146844D01*
X14213Y147640D01*
Y148502D01*
X13883Y149297D01*
X13274Y149907D01*
X12478Y150236D01*
D02*
G37*
G36*
X113757Y146634D02*
X112896D01*
X112100Y146304D01*
X111491Y145695D01*
X111161Y144899D01*
Y144038D01*
X111491Y143242D01*
X112100Y142633D01*
X112896Y142303D01*
X113757D01*
X114553Y142633D01*
X115162Y143242D01*
X115492Y144038D01*
Y144899D01*
X115162Y145695D01*
X114553Y146304D01*
X113757Y146634D01*
D02*
G37*
G36*
X51533Y145984D02*
X50672D01*
X49876Y145655D01*
X49267Y145045D01*
X48937Y144250D01*
Y143388D01*
X49267Y142592D01*
X49876Y141983D01*
X50672Y141654D01*
X51533D01*
X52329Y141983D01*
X52938Y142592D01*
X53268Y143388D01*
Y144250D01*
X52938Y145045D01*
X52329Y145655D01*
X51533Y145984D01*
D02*
G37*
G36*
X236495Y142284D02*
X235946D01*
X235440Y142074D01*
X235052Y141686D01*
X234843Y141180D01*
Y140631D01*
X235052Y140125D01*
X235440Y139737D01*
X235946Y139528D01*
X236495D01*
X237001Y139737D01*
X237389Y140125D01*
X237598Y140631D01*
Y141180D01*
X237389Y141686D01*
X237001Y142074D01*
X236495Y142284D01*
D02*
G37*
G36*
X143919Y145827D02*
X143089D01*
X142288Y145612D01*
X141570Y145197D01*
X140984Y144611D01*
X140569Y143893D01*
X140354Y143092D01*
Y142262D01*
X140569Y141462D01*
X140984Y140743D01*
X141570Y140157D01*
X142288Y139742D01*
X143089Y139528D01*
X143919D01*
X144720Y139742D01*
X145438Y140157D01*
X146024Y140743D01*
X146439Y141462D01*
X146653Y142262D01*
Y143092D01*
X146439Y143893D01*
X146024Y144611D01*
X145438Y145197D01*
X144720Y145612D01*
X143919Y145827D01*
D02*
G37*
G36*
X188655Y140236D02*
X188107D01*
X187601Y140026D01*
X187213Y139639D01*
X187003Y139132D01*
Y138584D01*
X187213Y138078D01*
X187601Y137690D01*
X188107Y137480D01*
X188655D01*
X189162Y137690D01*
X189549Y138078D01*
X189759Y138584D01*
Y139132D01*
X189549Y139639D01*
X189162Y140026D01*
X188655Y140236D01*
D02*
G37*
G36*
X242479Y138740D02*
X241931D01*
X241424Y138530D01*
X241037Y138143D01*
X240827Y137636D01*
Y137088D01*
X241037Y136582D01*
X241424Y136194D01*
X241931Y135984D01*
X242479D01*
X242985Y136194D01*
X243373Y136582D01*
X243583Y137088D01*
Y137636D01*
X243373Y138143D01*
X242985Y138530D01*
X242479Y138740D01*
D02*
G37*
G36*
X107412Y140994D02*
X99833D01*
Y133415D01*
X107412D01*
Y140994D01*
D02*
G37*
G36*
X227737Y139291D02*
X226908D01*
X226107Y139077D01*
X225389Y138662D01*
X224802Y138076D01*
X224388Y137357D01*
X224173Y136556D01*
Y135727D01*
X224388Y134926D01*
X224802Y134208D01*
X225389Y133621D01*
X226107Y133207D01*
X226908Y132992D01*
X227737D01*
X228538Y133207D01*
X229257Y133621D01*
X229843Y134208D01*
X230258Y134926D01*
X230472Y135727D01*
Y136556D01*
X230258Y137357D01*
X229843Y138076D01*
X229257Y138662D01*
X228538Y139077D01*
X227737Y139291D01*
D02*
G37*
G36*
X130770Y135118D02*
X130221D01*
X129715Y134908D01*
X129327Y134521D01*
X129118Y134014D01*
Y133466D01*
X129327Y132960D01*
X129715Y132572D01*
X130221Y132362D01*
X130770D01*
X131276Y132572D01*
X131664Y132960D01*
X131874Y133466D01*
Y134014D01*
X131664Y134521D01*
X131276Y134908D01*
X130770Y135118D01*
D02*
G37*
G36*
X282124Y151299D02*
X281576D01*
X281070Y151089D01*
X280682Y150702D01*
X280472Y150195D01*
Y149647D01*
X280682Y149141D01*
X281070Y148753D01*
X281576Y148543D01*
X281809D01*
X298464Y131889D01*
X298789Y131671D01*
X299173Y131595D01*
X308348D01*
X308513Y131430D01*
X309019Y131220D01*
X309568D01*
X310074Y131430D01*
X310462Y131818D01*
X310671Y132324D01*
Y132872D01*
X310462Y133379D01*
X310074Y133767D01*
X309568Y133976D01*
X309019D01*
X308513Y133767D01*
X308348Y133602D01*
X299589D01*
X283228Y149962D01*
Y150195D01*
X283018Y150702D01*
X282631Y151089D01*
X282124Y151299D01*
D02*
G37*
G36*
X253722Y135039D02*
X252892D01*
X252091Y134825D01*
X251373Y134410D01*
X250787Y133824D01*
X250372Y133106D01*
X250157Y132304D01*
Y131475D01*
X250372Y130674D01*
X250787Y129956D01*
X251373Y129369D01*
X252091Y128955D01*
X252892Y128740D01*
X253722D01*
X254523Y128955D01*
X255241Y129369D01*
X255827Y129956D01*
X256242Y130674D01*
X256457Y131475D01*
Y132304D01*
X256242Y133106D01*
X255827Y133824D01*
X255241Y134410D01*
X254523Y134825D01*
X253722Y135039D01*
D02*
G37*
G36*
X281298Y147605D02*
X280749D01*
X280243Y147395D01*
X279855Y147008D01*
X279646Y146501D01*
Y145953D01*
X279855Y145447D01*
X280243Y145059D01*
X280749Y144849D01*
X280858D01*
X296889Y128818D01*
X297214Y128601D01*
X297598Y128524D01*
X309488D01*
X309653Y128359D01*
X310159Y128150D01*
X310707D01*
X311214Y128359D01*
X311601Y128747D01*
X311811Y129253D01*
Y129802D01*
X311601Y130308D01*
X311214Y130696D01*
X310707Y130906D01*
X310159D01*
X309653Y130696D01*
X309488Y130531D01*
X298014D01*
X282401Y146144D01*
Y146501D01*
X282192Y147008D01*
X281804Y147395D01*
X281298Y147605D01*
D02*
G37*
G36*
X184407Y131653D02*
X183546D01*
X182750Y131324D01*
X182141Y130715D01*
X181811Y129919D01*
Y129058D01*
X182141Y128262D01*
X182750Y127653D01*
X183546Y127323D01*
X184407D01*
X185203Y127653D01*
X185812Y128262D01*
X186142Y129058D01*
Y129919D01*
X185812Y130715D01*
X185203Y131324D01*
X184407Y131653D01*
D02*
G37*
G36*
X126218Y131142D02*
X125357D01*
X124561Y130812D01*
X123952Y130203D01*
X123622Y129407D01*
Y128546D01*
X123952Y127750D01*
X124561Y127141D01*
X125357Y126811D01*
X126218D01*
X127014Y127141D01*
X127623Y127750D01*
X127953Y128546D01*
Y129407D01*
X127623Y130203D01*
X127014Y130812D01*
X126218Y131142D01*
D02*
G37*
G36*
X289368Y131457D02*
X288506D01*
X287710Y131127D01*
X287101Y130518D01*
X286772Y129722D01*
Y128861D01*
X287101Y128065D01*
X287321Y127845D01*
X287327Y127777D01*
X287175Y127284D01*
X286857Y127152D01*
X286470Y126765D01*
X286260Y126258D01*
Y125710D01*
X286470Y125204D01*
X286857Y124816D01*
X287364Y124606D01*
X287912D01*
X288418Y124816D01*
X288806Y125204D01*
X289016Y125710D01*
Y126258D01*
X288863Y126626D01*
X289046Y127016D01*
X289152Y127126D01*
X289368D01*
X290164Y127456D01*
X290773Y128065D01*
X291102Y128861D01*
Y129722D01*
X290773Y130518D01*
X290164Y131127D01*
X289368Y131457D01*
D02*
G37*
G36*
X96376Y122047D02*
X95828D01*
X95322Y121837D01*
X94934Y121450D01*
X94724Y120943D01*
Y120395D01*
X94934Y119889D01*
X95322Y119501D01*
X95828Y119291D01*
X96376D01*
X96883Y119501D01*
X97271Y119889D01*
X97480Y120395D01*
Y120943D01*
X97271Y121450D01*
X96883Y121837D01*
X96376Y122047D01*
D02*
G37*
G36*
X158857Y120043D02*
X158309D01*
X157803Y119833D01*
X157415Y119445D01*
X157205Y118939D01*
Y118391D01*
X157415Y117884D01*
X157803Y117497D01*
X158309Y117287D01*
X158857D01*
X159364Y117497D01*
X159751Y117884D01*
X159961Y118391D01*
Y118939D01*
X159751Y119445D01*
X159364Y119833D01*
X158857Y120043D01*
D02*
G37*
G36*
X16369Y119127D02*
X15821D01*
X15315Y118917D01*
X14927Y118529D01*
X14717Y118023D01*
Y117475D01*
X14927Y116968D01*
X15315Y116581D01*
X15821Y116371D01*
X16369D01*
X16876Y116581D01*
X17263Y116968D01*
X17473Y117475D01*
Y118023D01*
X17263Y118529D01*
X16876Y118917D01*
X16369Y119127D01*
D02*
G37*
G36*
X83895Y119488D02*
X83034D01*
X82238Y119158D01*
X81629Y118549D01*
X81299Y117754D01*
Y116892D01*
X81629Y116096D01*
X82238Y115487D01*
X83034Y115157D01*
X83895D01*
X84691Y115487D01*
X85300Y116096D01*
X85630Y116892D01*
Y117754D01*
X85300Y118549D01*
X84691Y119158D01*
X83895Y119488D01*
D02*
G37*
G36*
X151139Y118976D02*
X150278D01*
X149482Y118647D01*
X148873Y118038D01*
X148543Y117242D01*
Y116380D01*
X148873Y115584D01*
X149482Y114975D01*
X150278Y114646D01*
X151139D01*
X151935Y114975D01*
X152544Y115584D01*
X152874Y116380D01*
Y117242D01*
X152544Y118038D01*
X151935Y118647D01*
X151139Y118976D01*
D02*
G37*
G36*
X226406Y118405D02*
X225544D01*
X224748Y118075D01*
X224139Y117466D01*
X223810Y116670D01*
Y115808D01*
X224139Y115013D01*
X224748Y114403D01*
X225544Y114074D01*
X226406D01*
X227202Y114403D01*
X227811Y115013D01*
X228140Y115808D01*
Y116670D01*
X227811Y117466D01*
X227202Y118075D01*
X226406Y118405D01*
D02*
G37*
G36*
X255697Y118168D02*
X254836D01*
X254040Y117839D01*
X253431Y117230D01*
X253101Y116434D01*
Y115572D01*
X253431Y114776D01*
X254040Y114167D01*
X254836Y113838D01*
X255697D01*
X256493Y114167D01*
X257102Y114776D01*
X257432Y115572D01*
Y116434D01*
X257102Y117230D01*
X256493Y117839D01*
X255697Y118168D01*
D02*
G37*
G36*
X271635Y116220D02*
X270806D01*
X270005Y116006D01*
X269287Y115591D01*
X268700Y115005D01*
X268285Y114287D01*
X268071Y113486D01*
Y112656D01*
X268285Y111855D01*
X268700Y111137D01*
X269287Y110551D01*
X270005Y110136D01*
X270806Y109921D01*
X271635D01*
X272436Y110136D01*
X273154Y110551D01*
X273741Y111137D01*
X274155Y111855D01*
X274370Y112656D01*
Y113486D01*
X274155Y114287D01*
X273741Y115005D01*
X273154Y115591D01*
X272436Y116006D01*
X271635Y116220D01*
D02*
G37*
G36*
X256180Y108504D02*
X255631D01*
X255125Y108294D01*
X254737Y107907D01*
X254528Y107400D01*
Y106852D01*
X254737Y106345D01*
X255125Y105958D01*
X255631Y105748D01*
X256180D01*
X256686Y105958D01*
X257074Y106345D01*
X257283Y106852D01*
Y107400D01*
X257074Y107907D01*
X256686Y108294D01*
X256180Y108504D01*
D02*
G37*
G36*
X318698Y106220D02*
X317837D01*
X317041Y105891D01*
X316432Y105282D01*
X316102Y104486D01*
Y103624D01*
X316432Y102829D01*
X317041Y102219D01*
X317837Y101890D01*
X318698D01*
X319494Y102219D01*
X320103Y102829D01*
X320433Y103624D01*
Y104486D01*
X320103Y105282D01*
X319494Y105891D01*
X318698Y106220D01*
D02*
G37*
G36*
X307832D02*
X306971D01*
X306175Y105891D01*
X305566Y105282D01*
X305236Y104486D01*
Y103624D01*
X305566Y102829D01*
X306175Y102219D01*
X306971Y101890D01*
X307832D01*
X308628Y102219D01*
X309237Y102829D01*
X309567Y103624D01*
Y104486D01*
X309237Y105282D01*
X308628Y105891D01*
X307832Y106220D01*
D02*
G37*
G36*
X312950Y106142D02*
X312089D01*
X311293Y105812D01*
X310684Y105203D01*
X310354Y104407D01*
Y103546D01*
X310684Y102750D01*
X311293Y102141D01*
X312089Y101811D01*
X312950D01*
X313746Y102141D01*
X314355Y102750D01*
X314685Y103546D01*
Y104407D01*
X314355Y105203D01*
X313746Y105812D01*
X312950Y106142D01*
D02*
G37*
G36*
X188266Y102913D02*
X187718D01*
X187212Y102704D01*
X186824Y102316D01*
X186614Y101810D01*
Y101261D01*
X186824Y100755D01*
X187212Y100367D01*
X187718Y100157D01*
X188266D01*
X188773Y100367D01*
X189160Y100755D01*
X189370Y101261D01*
Y101810D01*
X189160Y102316D01*
X188773Y102704D01*
X188266Y102913D01*
D02*
G37*
G36*
X109511Y105706D02*
X108963D01*
X108456Y105496D01*
X108069Y105108D01*
X107859Y104602D01*
Y104054D01*
X108069Y103547D01*
X108456Y103160D01*
X108560Y103117D01*
X108609Y103067D01*
X108799Y102488D01*
X108583Y101966D01*
Y101105D01*
X108912Y100309D01*
X109521Y99700D01*
X110317Y99370D01*
X111179D01*
X111975Y99700D01*
X112584Y100309D01*
X112913Y101105D01*
Y101966D01*
X112584Y102762D01*
X111975Y103371D01*
X111179Y103701D01*
X110851D01*
X110615Y104054D01*
Y104602D01*
X110405Y105108D01*
X110017Y105496D01*
X109511Y105706D01*
D02*
G37*
G36*
X140692Y99582D02*
X139830D01*
X139034Y99252D01*
X138425Y98643D01*
X138096Y97847D01*
Y96986D01*
X138425Y96190D01*
X139034Y95581D01*
X139830Y95251D01*
X140692D01*
X141488Y95581D01*
X142097Y96190D01*
X142426Y96986D01*
Y97847D01*
X142097Y98643D01*
X141488Y99252D01*
X140692Y99582D01*
D02*
G37*
G36*
X150273Y99449D02*
X149412D01*
X148616Y99119D01*
X148007Y98510D01*
X147677Y97714D01*
Y96853D01*
X148007Y96057D01*
X148616Y95448D01*
X149412Y95118D01*
X150273D01*
X151069Y95448D01*
X151678Y96057D01*
X152008Y96853D01*
Y97714D01*
X151678Y98510D01*
X151069Y99119D01*
X150273Y99449D01*
D02*
G37*
G36*
X215813Y94394D02*
X215265D01*
X214758Y94184D01*
X214371Y93796D01*
X214161Y93290D01*
Y92742D01*
X214371Y92235D01*
X214758Y91847D01*
X215265Y91638D01*
X215813D01*
X216319Y91847D01*
X216707Y92235D01*
X216917Y92742D01*
Y93290D01*
X216707Y93796D01*
X216319Y94184D01*
X215813Y94394D01*
D02*
G37*
G36*
X22559Y97638D02*
X15866D01*
Y90945D01*
X22559D01*
Y97638D01*
D02*
G37*
G36*
X348961Y91398D02*
X348413D01*
X347907Y91188D01*
X347519Y90800D01*
X347309Y90294D01*
Y89745D01*
X347519Y89239D01*
X347907Y88851D01*
X348413Y88642D01*
X348961D01*
X349468Y88851D01*
X349855Y89239D01*
X350065Y89745D01*
Y90294D01*
X349855Y90800D01*
X349468Y91188D01*
X348961Y91398D01*
D02*
G37*
G36*
X344333Y91155D02*
X343784D01*
X343278Y90945D01*
X342890Y90557D01*
X342681Y90051D01*
Y89503D01*
X342890Y88996D01*
X343278Y88608D01*
X343784Y88399D01*
X344333D01*
X344839Y88608D01*
X345227Y88996D01*
X345437Y89503D01*
Y90051D01*
X345227Y90557D01*
X344839Y90945D01*
X344333Y91155D01*
D02*
G37*
G36*
X208466Y90981D02*
X207918D01*
X207412Y90772D01*
X207024Y90384D01*
X206814Y89877D01*
Y89329D01*
X207024Y88823D01*
X207412Y88435D01*
X207918Y88226D01*
X208466D01*
X208973Y88435D01*
X209361Y88823D01*
X209570Y89329D01*
Y89877D01*
X209361Y90384D01*
X208973Y90772D01*
X208466Y90981D01*
D02*
G37*
G36*
X326572Y88543D02*
X325711D01*
X324915Y88214D01*
X324306Y87604D01*
X324060Y87011D01*
X323519D01*
X323371Y87368D01*
X322762Y87977D01*
X321966Y88307D01*
X321105D01*
X320309Y87977D01*
X319700Y87368D01*
X319370Y86572D01*
Y85711D01*
X319700Y84915D01*
X320309Y84306D01*
X321105Y83976D01*
X321966D01*
X322762Y84306D01*
X323371Y84915D01*
X323617Y85509D01*
X324158D01*
X324306Y85151D01*
X324915Y84542D01*
X325711Y84213D01*
X326572D01*
X327368Y84542D01*
X327977Y85151D01*
X328307Y85947D01*
Y86809D01*
X327977Y87604D01*
X327368Y88214D01*
X326572Y88543D01*
D02*
G37*
G36*
X88840Y90787D02*
X88011D01*
X87209Y90573D01*
X86491Y90158D01*
X85905Y89572D01*
X85490Y88854D01*
X85276Y88052D01*
Y87223D01*
X85490Y86422D01*
X85905Y85704D01*
X86491Y85118D01*
X87209Y84703D01*
X88011Y84488D01*
X88840D01*
X89641Y84703D01*
X90359Y85118D01*
X90946Y85704D01*
X91360Y86422D01*
X91575Y87223D01*
Y88052D01*
X91360Y88854D01*
X90946Y89572D01*
X90359Y90158D01*
X89641Y90573D01*
X88840Y90787D01*
D02*
G37*
G36*
X238265Y88386D02*
X237404D01*
X236608Y88056D01*
X235999Y87447D01*
X235669Y86651D01*
Y85790D01*
X235999Y84994D01*
X236608Y84385D01*
X237404Y84055D01*
X238265D01*
X239061Y84385D01*
X239670Y84994D01*
X240000Y85790D01*
Y86651D01*
X239670Y87447D01*
X239061Y88056D01*
X238265Y88386D01*
D02*
G37*
G36*
X107411Y91388D02*
X99833D01*
Y83809D01*
X107411D01*
Y91388D01*
D02*
G37*
G36*
X117636Y86457D02*
X117088D01*
X116582Y86247D01*
X116194Y85859D01*
X115984Y85353D01*
Y84805D01*
X116194Y84298D01*
X116582Y83911D01*
X117088Y83701D01*
X117636D01*
X118143Y83911D01*
X118530Y84298D01*
X118740Y84805D01*
Y85353D01*
X118530Y85859D01*
X118143Y86247D01*
X117636Y86457D01*
D02*
G37*
G36*
X19653Y87638D02*
X18772D01*
X17921Y87410D01*
X17158Y86969D01*
X16535Y86346D01*
X16094Y85583D01*
X15866Y84732D01*
Y83851D01*
X16094Y83000D01*
X16535Y82237D01*
X17158Y81613D01*
X17921Y81173D01*
X18772Y80945D01*
X19653D01*
X20504Y81173D01*
X21267Y81613D01*
X21890Y82237D01*
X22331Y83000D01*
X22559Y83851D01*
Y84732D01*
X22331Y85583D01*
X21890Y86346D01*
X21267Y86969D01*
X20504Y87410D01*
X19653Y87638D01*
D02*
G37*
G36*
X60353Y80827D02*
X59805D01*
X59298Y80617D01*
X58911Y80229D01*
X58729Y79792D01*
X58447Y79668D01*
X58201Y79614D01*
X58103Y79711D01*
X57597Y79921D01*
X57049D01*
X56542Y79711D01*
X56155Y79324D01*
X55945Y78817D01*
Y78269D01*
X56155Y77763D01*
X56542Y77375D01*
X57049Y77165D01*
X57282D01*
X89212Y45235D01*
X89212Y45235D01*
X89642Y44804D01*
X89968Y44587D01*
X90352Y44511D01*
X129233D01*
X129322Y44422D01*
X129829Y44212D01*
X130377D01*
X130883Y44422D01*
X131271Y44809D01*
X131373Y45055D01*
X131943Y45192D01*
X132080Y45054D01*
X132876Y44724D01*
X133738D01*
X134534Y45054D01*
X135143Y45663D01*
X135472Y46459D01*
Y47321D01*
X135143Y48116D01*
X134534Y48726D01*
X133738Y49055D01*
X132876D01*
X132080Y48726D01*
X131471Y48116D01*
X131142Y47321D01*
Y47153D01*
X130642Y46858D01*
X130377Y46968D01*
X129829D01*
X129322Y46758D01*
X129082Y46518D01*
X90768D01*
X90631Y46654D01*
X60031Y77254D01*
X60221Y77771D01*
X60329Y77779D01*
X83995Y54113D01*
X84321Y53896D01*
X84705Y53819D01*
X103612D01*
X104591Y52840D01*
Y52607D01*
X104800Y52101D01*
X104717Y51679D01*
X104518Y51596D01*
X103909Y50987D01*
X103580Y50192D01*
Y49330D01*
X103909Y48534D01*
X104518Y47925D01*
X105314Y47596D01*
X106176D01*
X106972Y47925D01*
X107581Y48534D01*
X107910Y49330D01*
Y50192D01*
X107581Y50987D01*
X107129Y51439D01*
X106972Y51596D01*
X107115Y52078D01*
X107137Y52101D01*
X107347Y52607D01*
Y53155D01*
X107137Y53662D01*
X106749Y54049D01*
X106243Y54259D01*
X106010D01*
X104737Y55532D01*
X104411Y55750D01*
X104027Y55826D01*
X85120D01*
X61457Y79490D01*
Y79723D01*
X61247Y80229D01*
X60859Y80617D01*
X60353Y80827D01*
D02*
G37*
G36*
X188344Y82284D02*
X187483D01*
X186687Y81954D01*
X186078Y81345D01*
X185748Y80549D01*
Y79687D01*
X186078Y78891D01*
X186687Y78282D01*
X187483Y77953D01*
X188344D01*
X189140Y78282D01*
X189749Y78891D01*
X190079Y79687D01*
Y80549D01*
X189749Y81345D01*
X189140Y81954D01*
X188344Y82284D01*
D02*
G37*
G36*
X233643Y80512D02*
X232814D01*
X232013Y80297D01*
X231294Y79883D01*
X230708Y79296D01*
X230293Y78578D01*
X230079Y77777D01*
Y76948D01*
X230293Y76147D01*
X230708Y75428D01*
X231294Y74842D01*
X232013Y74427D01*
X232814Y74213D01*
X233643D01*
X234444Y74427D01*
X235162Y74842D01*
X235749Y75428D01*
X236163Y76147D01*
X236378Y76948D01*
Y77777D01*
X236163Y78578D01*
X235749Y79296D01*
X235162Y79883D01*
X234444Y80297D01*
X233643Y80512D01*
D02*
G37*
G36*
X124486Y78031D02*
X123624D01*
X122828Y77702D01*
X122219Y77093D01*
X121890Y76297D01*
Y75435D01*
X122219Y74640D01*
X122828Y74030D01*
X123624Y73701D01*
X124486D01*
X125282Y74030D01*
X125891Y74640D01*
X126221Y75435D01*
Y76297D01*
X125891Y77093D01*
X125282Y77702D01*
X124486Y78031D01*
D02*
G37*
G36*
X221484Y75491D02*
X220623D01*
X219827Y75161D01*
X219218Y74552D01*
X218888Y73757D01*
Y72895D01*
X219218Y72099D01*
X219827Y71490D01*
X220623Y71161D01*
X221484D01*
X222280Y71490D01*
X222889Y72099D01*
X223219Y72895D01*
Y73757D01*
X222889Y74552D01*
X222280Y75161D01*
X221484Y75491D01*
D02*
G37*
G36*
X19653Y77638D02*
X18772D01*
X17921Y77410D01*
X17158Y76969D01*
X16535Y76346D01*
X16094Y75583D01*
X15866Y74732D01*
Y73851D01*
X16094Y73000D01*
X16535Y72237D01*
X17158Y71614D01*
X17921Y71173D01*
X18772Y70945D01*
X19653D01*
X20504Y71173D01*
X21267Y71614D01*
X21890Y72237D01*
X22331Y73000D01*
X22559Y73851D01*
Y74732D01*
X22331Y75583D01*
X21890Y76346D01*
X21267Y76969D01*
X20504Y77410D01*
X19653Y77638D01*
D02*
G37*
G36*
X77441Y74467D02*
X76893D01*
X76386Y74257D01*
X75999Y73870D01*
X75789Y73363D01*
Y72815D01*
X75999Y72309D01*
X76386Y71921D01*
X76893Y71711D01*
X76997D01*
X77441Y71694D01*
X77459Y71249D01*
Y71145D01*
X77669Y70638D01*
X78056Y70251D01*
X78563Y70041D01*
X79111D01*
X79618Y70251D01*
X80005Y70638D01*
X80215Y71145D01*
Y71693D01*
X80005Y72199D01*
X79618Y72587D01*
X79111Y72797D01*
X79006D01*
X78562Y72815D01*
X78545Y73259D01*
Y73363D01*
X78335Y73870D01*
X77947Y74257D01*
X77441Y74467D01*
D02*
G37*
G36*
X288285Y91142D02*
X286519D01*
X284774Y90865D01*
X283094Y90320D01*
X281521Y89518D01*
X280092Y88480D01*
X278843Y87231D01*
X277805Y85802D01*
X277003Y84228D01*
X276457Y82549D01*
X276181Y80804D01*
Y79038D01*
X276457Y77294D01*
X277003Y75614D01*
X277805Y74040D01*
X278843Y72612D01*
X280092Y71363D01*
X281521Y70325D01*
X283094Y69523D01*
X284774Y68977D01*
X286519Y68701D01*
X288285D01*
X290029Y68977D01*
X291709Y69523D01*
X293282Y70325D01*
X294711Y71363D01*
X295960Y72612D01*
X296998Y74040D01*
X297800Y75614D01*
X298346Y77294D01*
X298622Y79038D01*
Y80804D01*
X298346Y82549D01*
X297800Y84228D01*
X296998Y85802D01*
X295960Y87231D01*
X294711Y88480D01*
X293282Y89518D01*
X291709Y90320D01*
X290029Y90865D01*
X288285Y91142D01*
D02*
G37*
G36*
X168825Y134416D02*
X168276D01*
X167770Y134207D01*
X167382Y133819D01*
X167173Y133313D01*
Y132764D01*
X167246Y132587D01*
Y111393D01*
X167345Y110893D01*
X167593Y110523D01*
Y89308D01*
X165810Y87525D01*
X165630Y87256D01*
X165527Y87102D01*
X165527Y87102D01*
X165527Y87102D01*
X165496Y86945D01*
X165428Y86603D01*
Y63599D01*
X164928Y63265D01*
X164743Y63342D01*
X164438D01*
X164188Y63356D01*
X163976Y63793D01*
Y63916D01*
X163767Y64422D01*
X163379Y64810D01*
X162873Y65020D01*
X162324D01*
X161818Y64810D01*
X161430Y64422D01*
X161221Y63916D01*
Y63368D01*
X161430Y62861D01*
X161818Y62473D01*
X162324Y62264D01*
X162629D01*
X162879Y62250D01*
X163091Y61813D01*
Y61690D01*
X163300Y61184D01*
X163688Y60796D01*
X164195Y60586D01*
X164743D01*
X164928Y60663D01*
X165428Y60329D01*
Y57165D01*
X165428Y57165D01*
Y56967D01*
X165504Y56784D01*
X165527Y56666D01*
X165594Y56566D01*
X165638Y56461D01*
X165718Y56380D01*
X165810Y56243D01*
X165947Y56151D01*
X166025Y56073D01*
X166128Y56031D01*
X166233Y55960D01*
X166358Y55935D01*
X166532Y55863D01*
X166720D01*
X166732Y55861D01*
X166745Y55863D01*
X167080D01*
X167586Y56073D01*
X167974Y56461D01*
X168184Y56967D01*
Y57515D01*
X168037Y57870D01*
Y86062D01*
X169592Y87617D01*
X169678Y87653D01*
X170066Y88041D01*
X170275Y88547D01*
Y89095D01*
X170202Y89272D01*
Y111046D01*
X170103Y111545D01*
X169855Y111916D01*
Y132587D01*
X169928Y132764D01*
Y133313D01*
X169719Y133819D01*
X169331Y134207D01*
X168825Y134416D01*
D02*
G37*
G36*
X149604Y66024D02*
X148742D01*
X147947Y65694D01*
X147337Y65085D01*
X147008Y64289D01*
Y63428D01*
X147337Y62632D01*
X147947Y62023D01*
X148742Y61693D01*
X149604D01*
X150400Y62023D01*
X151009Y62632D01*
X151339Y63428D01*
Y64289D01*
X151009Y65085D01*
X150400Y65694D01*
X149604Y66024D01*
D02*
G37*
G36*
X255938Y64210D02*
X255390D01*
X254883Y64000D01*
X254496Y63612D01*
X254286Y63106D01*
Y62558D01*
X254496Y62051D01*
X254883Y61664D01*
X255390Y61454D01*
X255938D01*
X256445Y61664D01*
X256832Y62051D01*
X257042Y62558D01*
Y63106D01*
X256832Y63612D01*
X256445Y64000D01*
X255938Y64210D01*
D02*
G37*
G36*
X19653Y67638D02*
X18772D01*
X17921Y67410D01*
X17158Y66969D01*
X16535Y66346D01*
X16094Y65583D01*
X15866Y64732D01*
Y63851D01*
X16094Y63000D01*
X16535Y62237D01*
X17158Y61614D01*
X17921Y61173D01*
X18772Y60945D01*
X19653D01*
X20504Y61173D01*
X21267Y61614D01*
X21890Y62237D01*
X22331Y63000D01*
X22559Y63851D01*
Y64732D01*
X22331Y65583D01*
X21890Y66346D01*
X21267Y66969D01*
X20504Y67410D01*
X19653Y67638D01*
D02*
G37*
G36*
X248025Y62123D02*
X247477D01*
X246970Y61913D01*
X246582Y61526D01*
X246373Y61019D01*
Y60471D01*
X246582Y59965D01*
X246970Y59577D01*
X247477Y59367D01*
X248025D01*
X248531Y59577D01*
X248919Y59965D01*
X249129Y60471D01*
Y61019D01*
X248919Y61526D01*
X248531Y61913D01*
X248025Y62123D01*
D02*
G37*
G36*
X125234Y62795D02*
X124372D01*
X123577Y62466D01*
X122968Y61857D01*
X122638Y61061D01*
Y60199D01*
X122968Y59403D01*
X123577Y58794D01*
X124372Y58465D01*
X125234D01*
X126030Y58794D01*
X126639Y59403D01*
X126969Y60199D01*
Y61061D01*
X126639Y61857D01*
X126030Y62466D01*
X125234Y62795D01*
D02*
G37*
G36*
X109250Y62323D02*
X108388D01*
X107592Y61993D01*
X106983Y61384D01*
X106653Y60588D01*
Y59727D01*
X106983Y58931D01*
X107592Y58322D01*
X108388Y57992D01*
X109250D01*
X110046Y58322D01*
X110655Y58931D01*
X110984Y59727D01*
Y60588D01*
X110655Y61384D01*
X110046Y61993D01*
X109250Y62323D01*
D02*
G37*
G36*
X164363Y54446D02*
X163815D01*
X163309Y54236D01*
X162921Y53849D01*
X162711Y53342D01*
Y52794D01*
X162921Y52288D01*
X163309Y51900D01*
X163815Y51690D01*
X164363D01*
X164870Y51900D01*
X165257Y52288D01*
X165467Y52794D01*
Y53342D01*
X165257Y53849D01*
X164870Y54236D01*
X164363Y54446D01*
D02*
G37*
G36*
X19653Y57638D02*
X18772D01*
X17921Y57410D01*
X17158Y56969D01*
X16535Y56346D01*
X16094Y55583D01*
X15866Y54732D01*
Y53851D01*
X16094Y53000D01*
X16535Y52237D01*
X17158Y51613D01*
X17921Y51173D01*
X18772Y50945D01*
X19653D01*
X20504Y51173D01*
X21267Y51613D01*
X21890Y52237D01*
X22331Y53000D01*
X22559Y53851D01*
Y54732D01*
X22331Y55583D01*
X21890Y56346D01*
X21267Y56969D01*
X20504Y57410D01*
X19653Y57638D01*
D02*
G37*
G36*
X293187Y54094D02*
X292325D01*
X291529Y53765D01*
X290920Y53156D01*
X290591Y52360D01*
Y51498D01*
X290920Y50703D01*
X291529Y50093D01*
X292325Y49764D01*
X293187D01*
X293983Y50093D01*
X294592Y50703D01*
X294921Y51498D01*
Y52360D01*
X294592Y53156D01*
X293983Y53765D01*
X293187Y54094D01*
D02*
G37*
G36*
X96606Y52992D02*
X95745D01*
X94949Y52662D01*
X94340Y52053D01*
X94010Y51257D01*
Y50396D01*
X94340Y49600D01*
X94949Y48991D01*
X95745Y48661D01*
X96606D01*
X97402Y48991D01*
X98011Y49600D01*
X98341Y50396D01*
Y51257D01*
X98011Y52053D01*
X97402Y52662D01*
X96606Y52992D01*
D02*
G37*
G36*
X51376Y52244D02*
X50514D01*
X49718Y51914D01*
X49109Y51305D01*
X48779Y50509D01*
Y49648D01*
X49109Y48852D01*
X49718Y48243D01*
X50514Y47913D01*
X51376D01*
X52171Y48243D01*
X52781Y48852D01*
X53110Y49648D01*
Y50509D01*
X52781Y51305D01*
X52171Y51914D01*
X51376Y52244D01*
D02*
G37*
G36*
X289093Y46890D02*
X288545D01*
X288038Y46680D01*
X287651Y46292D01*
X287441Y45786D01*
Y45238D01*
X287651Y44731D01*
X288038Y44344D01*
X288545Y44134D01*
X289093D01*
X289599Y44344D01*
X289987Y44731D01*
X290197Y45238D01*
Y45786D01*
X289987Y46292D01*
X289599Y46680D01*
X289093Y46890D01*
D02*
G37*
G36*
X146533Y46535D02*
X145672D01*
X144876Y46206D01*
X144267Y45597D01*
X143937Y44801D01*
Y43939D01*
X144267Y43143D01*
X144876Y42534D01*
X145672Y42205D01*
X146533D01*
X147329Y42534D01*
X147938Y43143D01*
X148268Y43939D01*
Y44801D01*
X147938Y45597D01*
X147329Y46206D01*
X146533Y46535D01*
D02*
G37*
G36*
X253997Y47992D02*
X253168D01*
X252367Y47778D01*
X251649Y47363D01*
X251062Y46776D01*
X250648Y46058D01*
X250433Y45257D01*
Y44428D01*
X250648Y43627D01*
X251062Y42909D01*
X251649Y42322D01*
X252367Y41908D01*
X253168Y41693D01*
X253997D01*
X254798Y41908D01*
X255517Y42322D01*
X256103Y42909D01*
X256518Y43627D01*
X256732Y44428D01*
Y45257D01*
X256518Y46058D01*
X256103Y46776D01*
X255517Y47363D01*
X254798Y47778D01*
X253997Y47992D01*
D02*
G37*
G36*
X272147Y47520D02*
X271318D01*
X270517Y47305D01*
X269798Y46890D01*
X269212Y46304D01*
X268797Y45586D01*
X268583Y44785D01*
Y43955D01*
X268797Y43154D01*
X269212Y42436D01*
X269798Y41850D01*
X270517Y41435D01*
X271318Y41221D01*
X272147D01*
X272948Y41435D01*
X273666Y41850D01*
X274253Y42436D01*
X274667Y43154D01*
X274882Y43955D01*
Y44785D01*
X274667Y45586D01*
X274253Y46304D01*
X273666Y46890D01*
X272948Y47305D01*
X272147Y47520D01*
D02*
G37*
G36*
X19653Y47638D02*
X18772D01*
X17921Y47410D01*
X17158Y46969D01*
X16535Y46346D01*
X16094Y45583D01*
X15866Y44732D01*
Y43851D01*
X16094Y43000D01*
X16535Y42237D01*
X17158Y41614D01*
X17921Y41173D01*
X18772Y40945D01*
X19653D01*
X20504Y41173D01*
X21267Y41614D01*
X21890Y42237D01*
X22331Y43000D01*
X22559Y43851D01*
Y44732D01*
X22331Y45583D01*
X21890Y46346D01*
X21267Y46969D01*
X20504Y47410D01*
X19653Y47638D01*
D02*
G37*
G36*
X104639Y43186D02*
X104091D01*
X103584Y42976D01*
X103197Y42589D01*
X102987Y42082D01*
Y41534D01*
X103197Y41028D01*
X103584Y40640D01*
X104091Y40430D01*
X104639D01*
X105145Y40640D01*
X105533Y41028D01*
X105743Y41534D01*
Y42082D01*
X105533Y42589D01*
X105145Y42976D01*
X104639Y43186D01*
D02*
G37*
G36*
X182911Y42992D02*
X182050D01*
X181254Y42663D01*
X180645Y42053D01*
X180315Y41258D01*
Y40396D01*
X180645Y39600D01*
X181254Y38991D01*
X182050Y38661D01*
X182911D01*
X183707Y38991D01*
X184316Y39600D01*
X184646Y40396D01*
Y41258D01*
X184316Y42053D01*
X183707Y42663D01*
X182911Y42992D01*
D02*
G37*
G36*
X190707Y40866D02*
X190159D01*
X189653Y40656D01*
X189265Y40269D01*
X189055Y39762D01*
Y39214D01*
X189265Y38708D01*
X189653Y38320D01*
X190159Y38110D01*
X190707D01*
X191214Y38320D01*
X191601Y38708D01*
X191811Y39214D01*
Y39762D01*
X191601Y40269D01*
X191214Y40656D01*
X190707Y40866D01*
D02*
G37*
G36*
X135549Y38976D02*
X134687D01*
X133891Y38647D01*
X133282Y38038D01*
X132953Y37242D01*
Y36380D01*
X133282Y35584D01*
X133891Y34975D01*
X134687Y34646D01*
X135549D01*
X136345Y34975D01*
X136954Y35584D01*
X137284Y36380D01*
Y37242D01*
X136954Y38038D01*
X136345Y38647D01*
X135549Y38976D01*
D02*
G37*
G36*
X19653Y37638D02*
X18772D01*
X17921Y37410D01*
X17158Y36969D01*
X16535Y36346D01*
X16094Y35583D01*
X15866Y34732D01*
Y33851D01*
X16094Y33000D01*
X16535Y32237D01*
X17158Y31613D01*
X17921Y31173D01*
X18772Y30945D01*
X19653D01*
X20504Y31173D01*
X21267Y31613D01*
X21890Y32237D01*
X22331Y33000D01*
X22559Y33851D01*
Y34732D01*
X22331Y35583D01*
X21890Y36346D01*
X21267Y36969D01*
X20504Y37410D01*
X19653Y37638D01*
D02*
G37*
G36*
X228643Y36654D02*
X227814D01*
X227013Y36439D01*
X226294Y36024D01*
X225708Y35438D01*
X225293Y34720D01*
X225079Y33919D01*
Y33089D01*
X225293Y32288D01*
X225708Y31570D01*
X226294Y30984D01*
X227013Y30569D01*
X227814Y30354D01*
X228643D01*
X229444Y30569D01*
X230162Y30984D01*
X230749Y31570D01*
X231163Y32288D01*
X231378Y33089D01*
Y33919D01*
X231163Y34720D01*
X230749Y35438D01*
X230162Y36024D01*
X229444Y36439D01*
X228643Y36654D01*
D02*
G37*
G36*
X129053Y34291D02*
X128191D01*
X127395Y33962D01*
X126786Y33353D01*
X126457Y32557D01*
Y31695D01*
X126786Y30899D01*
X127395Y30290D01*
X128191Y29961D01*
X129053D01*
X129849Y30290D01*
X130458Y30899D01*
X130787Y31695D01*
Y32557D01*
X130458Y33353D01*
X129849Y33962D01*
X129053Y34291D01*
D02*
G37*
G36*
X88210Y35433D02*
X87381D01*
X86580Y35218D01*
X85861Y34804D01*
X85275Y34217D01*
X84860Y33499D01*
X84646Y32698D01*
Y31869D01*
X84860Y31068D01*
X85275Y30350D01*
X85861Y29763D01*
X86580Y29348D01*
X87381Y29134D01*
X88210D01*
X89011Y29348D01*
X89729Y29763D01*
X90316Y30350D01*
X90730Y31068D01*
X90945Y31869D01*
Y32698D01*
X90730Y33499D01*
X90316Y34217D01*
X89729Y34804D01*
X89011Y35218D01*
X88210Y35433D01*
D02*
G37*
G36*
X187666Y31042D02*
X186804D01*
X186008Y30713D01*
X185399Y30104D01*
X185070Y29308D01*
Y28446D01*
X185399Y27650D01*
X186008Y27041D01*
X186804Y26712D01*
X187666D01*
X188461Y27041D01*
X189071Y27650D01*
X189400Y28446D01*
Y29308D01*
X189071Y30104D01*
X188461Y30713D01*
X187666Y31042D01*
D02*
G37*
G36*
X113620Y30315D02*
X112758D01*
X111962Y29985D01*
X111353Y29376D01*
X111024Y28580D01*
Y27719D01*
X111353Y26923D01*
X111962Y26314D01*
X112758Y25984D01*
X113620D01*
X114416Y26314D01*
X115025Y26923D01*
X115354Y27719D01*
Y28580D01*
X115025Y29376D01*
X114416Y29985D01*
X113620Y30315D01*
D02*
G37*
G36*
X51297Y29528D02*
X50435D01*
X49640Y29198D01*
X49031Y28589D01*
X48701Y27793D01*
Y26932D01*
X49031Y26136D01*
X49640Y25526D01*
X50435Y25197D01*
X51297D01*
X52093Y25526D01*
X52702Y26136D01*
X53031Y26932D01*
Y27793D01*
X52702Y28589D01*
X52093Y29198D01*
X51297Y29528D01*
D02*
G37*
G36*
X313265Y25551D02*
X312404D01*
X311608Y25221D01*
X311024Y24637D01*
X310439Y25221D01*
X309643Y25551D01*
X308782D01*
X307986Y25221D01*
X307377Y24612D01*
X307047Y23817D01*
Y22955D01*
X307377Y22159D01*
X307986Y21550D01*
X308782Y21220D01*
X309643D01*
X310439Y21550D01*
X311024Y22135D01*
X311608Y21550D01*
X312404Y21220D01*
X313265D01*
X314061Y21550D01*
X314670Y22159D01*
X315000Y22955D01*
Y23817D01*
X314670Y24612D01*
X314061Y25221D01*
X313265Y25551D01*
D02*
G37*
G36*
X385195Y26713D02*
X384647D01*
X384141Y26503D01*
X383753Y26115D01*
X383543Y25609D01*
Y25060D01*
X383753Y24554D01*
X384141Y24167D01*
X384647Y23957D01*
X385195D01*
X385702Y24167D01*
X386089Y24554D01*
X386299Y25060D01*
Y25609D01*
X386089Y26115D01*
X385702Y26503D01*
X385195Y26713D01*
D02*
G37*
G36*
X272226Y30118D02*
X271396D01*
X270595Y29904D01*
X269877Y29489D01*
X269291Y28902D01*
X268876Y28184D01*
X268661Y27383D01*
Y26554D01*
X268876Y25753D01*
X269291Y25035D01*
X269877Y24448D01*
X270595Y24034D01*
X271396Y23819D01*
X272226D01*
X273027Y24034D01*
X273745Y24448D01*
X274331Y25035D01*
X274746Y25753D01*
X274961Y26554D01*
Y27383D01*
X274746Y28184D01*
X274331Y28902D01*
X273745Y29489D01*
X273027Y29904D01*
X272226Y30118D01*
D02*
G37*
G36*
X253997D02*
X253168D01*
X252367Y29904D01*
X251649Y29489D01*
X251062Y28902D01*
X250648Y28184D01*
X250433Y27383D01*
Y26554D01*
X250648Y25753D01*
X251062Y25035D01*
X251649Y24448D01*
X252367Y24034D01*
X253168Y23819D01*
X253997D01*
X254798Y24034D01*
X255517Y24448D01*
X256103Y25035D01*
X256518Y25753D01*
X256732Y26554D01*
Y27383D01*
X256518Y28184D01*
X256103Y28902D01*
X255517Y29489D01*
X254798Y29904D01*
X253997Y30118D01*
D02*
G37*
G36*
X366022Y26181D02*
X365474D01*
X364967Y25971D01*
X364580Y25584D01*
X364370Y25077D01*
Y24529D01*
X364580Y24023D01*
X364967Y23635D01*
X365474Y23425D01*
X365849D01*
X366540Y22734D01*
X366514Y22387D01*
X366041Y22106D01*
X365707Y22244D01*
X365159D01*
X364653Y22034D01*
X364265Y21647D01*
X364055Y21140D01*
Y20592D01*
X364265Y20086D01*
X364430Y19921D01*
Y18110D01*
X364506Y17726D01*
X364723Y17401D01*
X368976Y13148D01*
Y12915D01*
X369186Y12409D01*
X369574Y12021D01*
X370080Y11811D01*
X370628D01*
X371135Y12021D01*
X371522Y12409D01*
X371732Y12915D01*
Y13463D01*
X371522Y13970D01*
X371135Y14357D01*
X370628Y14567D01*
X370396D01*
X366437Y18526D01*
Y19921D01*
X366601Y20086D01*
X366811Y20592D01*
Y21140D01*
X366785Y21203D01*
X367209Y21487D01*
X375095Y13600D01*
X375279Y13157D01*
X375667Y12769D01*
X376173Y12559D01*
X376721D01*
X377228Y12769D01*
X377615Y13157D01*
X377825Y13663D01*
Y14211D01*
X377615Y14718D01*
X377228Y15105D01*
X376721Y15315D01*
X376173D01*
X376005Y15245D01*
X368450Y22800D01*
Y23005D01*
X368381Y23350D01*
X368185Y23643D01*
X367126Y24702D01*
Y25077D01*
X366916Y25584D01*
X366529Y25971D01*
X366022Y26181D01*
D02*
G37*
G36*
X318777Y25630D02*
X317916D01*
X317120Y25300D01*
X316511Y24691D01*
X316181Y23895D01*
Y23034D01*
X316511Y22238D01*
X317120Y21629D01*
X317916Y21299D01*
X318777D01*
X319573Y21629D01*
X320182Y22238D01*
X320512Y23034D01*
Y23895D01*
X320182Y24691D01*
X319573Y25300D01*
X318777Y25630D01*
D02*
G37*
G36*
X19757Y28425D02*
X18668D01*
X17617Y28144D01*
X16674Y27599D01*
X15905Y26830D01*
X15360Y25887D01*
X15079Y24836D01*
Y23747D01*
X15360Y22696D01*
X15905Y21753D01*
X16674Y20983D01*
X17617Y20439D01*
X18668Y20157D01*
X19757D01*
X20808Y20439D01*
X21751Y20983D01*
X22521Y21753D01*
X23065Y22696D01*
X23346Y23747D01*
Y24836D01*
X23065Y25887D01*
X22521Y26830D01*
X21751Y27599D01*
X20808Y28144D01*
X19757Y28425D01*
D02*
G37*
G36*
X251563Y23365D02*
X250702D01*
X249906Y23035D01*
X249297Y22426D01*
X248967Y21631D01*
Y20769D01*
X249297Y19973D01*
X249906Y19364D01*
X250702Y19035D01*
X251563D01*
X252359Y19364D01*
X252968Y19973D01*
X253298Y20769D01*
Y21631D01*
X252968Y22426D01*
X252359Y23035D01*
X251563Y23365D01*
D02*
G37*
G36*
X221642Y23247D02*
X220781D01*
X219985Y22917D01*
X219376Y22308D01*
X219046Y21512D01*
Y20651D01*
X219376Y19855D01*
X219985Y19246D01*
X220781Y18916D01*
X221642D01*
X222438Y19246D01*
X223047Y19855D01*
X223377Y20651D01*
Y21512D01*
X223047Y22308D01*
X222438Y22917D01*
X221642Y23247D01*
D02*
G37*
G36*
X107412Y25167D02*
X99833D01*
Y17589D01*
X107412D01*
Y25167D01*
D02*
G37*
G36*
X118970Y20312D02*
X118421D01*
X117915Y20102D01*
X117527Y19715D01*
X117318Y19208D01*
Y18660D01*
X117527Y18154D01*
X117915Y17766D01*
X118421Y17556D01*
X118970D01*
X119476Y17766D01*
X119864Y18154D01*
X120073Y18660D01*
Y19208D01*
X119864Y19715D01*
X119476Y20102D01*
X118970Y20312D01*
D02*
G37*
G36*
X185990Y20036D02*
X185442D01*
X184935Y19827D01*
X184548Y19439D01*
X184338Y18933D01*
Y18384D01*
X184548Y17878D01*
X184935Y17490D01*
X185442Y17280D01*
X185990D01*
X186496Y17490D01*
X186884Y17878D01*
X187094Y18384D01*
Y18933D01*
X186884Y19439D01*
X186496Y19827D01*
X185990Y20036D01*
D02*
G37*
G36*
X174915D02*
X174366D01*
X173860Y19827D01*
X173472Y19439D01*
X173262Y18933D01*
Y18384D01*
X173472Y17878D01*
X173860Y17490D01*
X174366Y17280D01*
X174915D01*
X175421Y17490D01*
X175809Y17878D01*
X176018Y18384D01*
Y18933D01*
X175809Y19439D01*
X175421Y19827D01*
X174915Y20036D01*
D02*
G37*
G36*
X384551Y22185D02*
X384002D01*
X383496Y21975D01*
X383108Y21588D01*
X382899Y21081D01*
Y20533D01*
X383108Y20027D01*
X383045Y19522D01*
X382690Y19166D01*
X382480Y18660D01*
Y18112D01*
X382690Y17605D01*
X383078Y17218D01*
X383584Y17008D01*
X384132D01*
X384639Y17218D01*
X385027Y17605D01*
X385236Y18112D01*
Y18660D01*
X385027Y19166D01*
X385089Y19671D01*
X385445Y20027D01*
X385654Y20533D01*
Y21081D01*
X385445Y21588D01*
X385057Y21975D01*
X384551Y22185D01*
D02*
G37*
G36*
X147517Y17126D02*
X146656D01*
X145860Y16796D01*
X145251Y16187D01*
X144921Y15391D01*
Y14530D01*
X145251Y13734D01*
X145860Y13125D01*
X146656Y12795D01*
X147517D01*
X148313Y13125D01*
X148922Y13734D01*
X149252Y14530D01*
Y15391D01*
X148922Y16187D01*
X148313Y16796D01*
X147517Y17126D01*
D02*
G37*
G36*
X389998Y15315D02*
X389136D01*
X388340Y14985D01*
X387731Y14376D01*
X387402Y13580D01*
Y12719D01*
X387731Y11923D01*
X388340Y11314D01*
X389136Y10984D01*
X389998D01*
X390793Y11314D01*
X391403Y11923D01*
X391732Y12719D01*
Y13580D01*
X391403Y14376D01*
X390793Y14985D01*
X389998Y15315D01*
D02*
G37*
G36*
X358147Y15276D02*
X357286D01*
X356490Y14946D01*
X355881Y14337D01*
X355551Y13541D01*
Y12679D01*
X355881Y11884D01*
X356490Y11275D01*
X357286Y10945D01*
X358147D01*
X358943Y11275D01*
X359552Y11884D01*
X359882Y12679D01*
Y13541D01*
X359552Y14337D01*
X358943Y14946D01*
X358147Y15276D01*
D02*
G37*
G36*
X73541Y8110D02*
X72680D01*
X71884Y7781D01*
X71275Y7171D01*
X70945Y6376D01*
Y5514D01*
X71275Y4718D01*
X71884Y4109D01*
X72680Y3779D01*
X73541D01*
X74337Y4109D01*
X74946Y4718D01*
X75276Y5514D01*
Y6376D01*
X74946Y7171D01*
X74337Y7781D01*
X73541Y8110D01*
D02*
G37*
G36*
X128895Y7992D02*
X128034D01*
X127238Y7662D01*
X126629Y7053D01*
X126299Y6257D01*
Y5396D01*
X126629Y4600D01*
X127238Y3991D01*
X128034Y3661D01*
X128895D01*
X129691Y3991D01*
X130300Y4600D01*
X130630Y5396D01*
Y6257D01*
X130300Y7053D01*
X129691Y7662D01*
X128895Y7992D01*
D02*
G37*
G36*
X186810Y380983D02*
X185949D01*
X185153Y380653D01*
X184544Y380044D01*
X184214Y379248D01*
Y378387D01*
X184544Y377591D01*
X185153Y376982D01*
X185949Y376652D01*
X186810D01*
X187606Y376982D01*
X188215Y377591D01*
X188545Y378387D01*
Y379248D01*
X188215Y380044D01*
X187606Y380653D01*
X186810Y380983D01*
D02*
G37*
G36*
X191494Y376299D02*
X190632D01*
X189837Y375970D01*
X189227Y375360D01*
X188898Y374565D01*
Y373703D01*
X189227Y372907D01*
X189837Y372298D01*
X190632Y371969D01*
X191494D01*
X192290Y372298D01*
X192899Y372907D01*
X193228Y373703D01*
Y374565D01*
X192899Y375360D01*
X192290Y375970D01*
X191494Y376299D01*
D02*
G37*
G36*
X542626Y381496D02*
X541153D01*
X539708Y381208D01*
X538346Y380645D01*
X537121Y379826D01*
X536079Y378784D01*
X535261Y377559D01*
X534697Y376198D01*
X534409Y374752D01*
Y373279D01*
X534697Y371834D01*
X535261Y370472D01*
X536079Y369247D01*
X537121Y368205D01*
X538346Y367387D01*
X539708Y366823D01*
X541153Y366535D01*
X542626D01*
X544072Y366823D01*
X545433Y367387D01*
X546658Y368205D01*
X547700Y369247D01*
X548519Y370472D01*
X549083Y371834D01*
X549370Y373279D01*
Y374752D01*
X549083Y376198D01*
X548519Y377559D01*
X547700Y378784D01*
X546658Y379826D01*
X545433Y380645D01*
X544072Y381208D01*
X542626Y381496D01*
D02*
G37*
G36*
X236651Y370827D02*
X235790D01*
X234994Y370497D01*
X234385Y369888D01*
X234055Y369092D01*
Y368231D01*
X234385Y367435D01*
X234994Y366826D01*
X235790Y366496D01*
X236651D01*
X237447Y366826D01*
X238056Y367435D01*
X238386Y368231D01*
Y369092D01*
X238056Y369888D01*
X237447Y370497D01*
X236651Y370827D01*
D02*
G37*
G36*
X281691Y369803D02*
X280829D01*
X280033Y369474D01*
X279424Y368864D01*
X279095Y368069D01*
Y367207D01*
X279424Y366411D01*
X280033Y365802D01*
X280829Y365472D01*
X281691D01*
X282486Y365802D01*
X283096Y366411D01*
X283425Y367207D01*
Y368069D01*
X283096Y368864D01*
X282486Y369474D01*
X281691Y369803D01*
D02*
G37*
G36*
X491297Y364134D02*
X490435D01*
X489640Y363804D01*
X489031Y363195D01*
X488701Y362399D01*
Y361538D01*
X489012Y360787D01*
X488701Y360037D01*
Y359176D01*
X489031Y358380D01*
X489640Y357771D01*
X490435Y357441D01*
X491297D01*
X492093Y357771D01*
X492702Y358380D01*
X493032Y359176D01*
Y360037D01*
X492721Y360787D01*
X493032Y361538D01*
Y362399D01*
X492702Y363195D01*
X492093Y363804D01*
X491297Y364134D01*
D02*
G37*
G36*
X474171Y362205D02*
X473310D01*
X472514Y361875D01*
X471905Y361266D01*
X471575Y360470D01*
Y359609D01*
X471878Y358877D01*
X471763Y358763D01*
X471434Y357967D01*
Y357105D01*
X471763Y356309D01*
X472372Y355700D01*
X473168Y355371D01*
X474030D01*
X474825Y355700D01*
X475435Y356309D01*
X475764Y357105D01*
Y357967D01*
X475461Y358698D01*
X475576Y358813D01*
X475906Y359609D01*
Y360470D01*
X475576Y361266D01*
X474967Y361875D01*
X474171Y362205D01*
D02*
G37*
G36*
X217439Y359566D02*
X216577D01*
X215781Y359237D01*
X215172Y358627D01*
X214843Y357832D01*
Y356970D01*
X215172Y356174D01*
X215781Y355565D01*
X216577Y355235D01*
X217439D01*
X218234Y355565D01*
X218844Y356174D01*
X219173Y356970D01*
Y357832D01*
X218844Y358627D01*
X218234Y359237D01*
X217439Y359566D01*
D02*
G37*
G36*
X542626Y363189D02*
X541153D01*
X539708Y362901D01*
X538346Y362338D01*
X537121Y361519D01*
X536079Y360477D01*
X535261Y359252D01*
X534697Y357891D01*
X534409Y356445D01*
Y354972D01*
X534697Y353527D01*
X535261Y352165D01*
X536079Y350940D01*
X537121Y349898D01*
X538346Y349080D01*
X539708Y348516D01*
X541153Y348228D01*
X542626D01*
X544072Y348516D01*
X545433Y349080D01*
X546658Y349898D01*
X547700Y350940D01*
X548519Y352165D01*
X549083Y353527D01*
X549370Y354972D01*
Y356445D01*
X549083Y357891D01*
X548519Y359252D01*
X547700Y360477D01*
X546658Y361519D01*
X545433Y362338D01*
X544072Y362901D01*
X542626Y363189D01*
D02*
G37*
G36*
X491359Y353094D02*
X490498D01*
X489702Y352764D01*
X489093Y352155D01*
X488763Y351359D01*
Y350498D01*
X489066Y349766D01*
X488952Y349652D01*
X488622Y348856D01*
Y347994D01*
X488952Y347199D01*
X489561Y346589D01*
X490357Y346260D01*
X491218D01*
X492014Y346589D01*
X492623Y347199D01*
X492953Y347994D01*
Y348856D01*
X492650Y349587D01*
X492764Y349702D01*
X493094Y350498D01*
Y351359D01*
X492764Y352155D01*
X492155Y352764D01*
X491359Y353094D01*
D02*
G37*
G36*
X320454Y362795D02*
X319625D01*
X318824Y362581D01*
X318106Y362166D01*
X317519Y361580D01*
X317104Y360861D01*
X316890Y360060D01*
Y359231D01*
X317104Y358430D01*
X317519Y357712D01*
X318106Y357125D01*
X318354Y356982D01*
Y356404D01*
X318106Y356261D01*
X317519Y355674D01*
X317104Y354956D01*
X316890Y354155D01*
Y353326D01*
X317104Y352525D01*
X317519Y351806D01*
X318106Y351220D01*
X318355Y351076D01*
Y350499D01*
X318106Y350355D01*
X317519Y349769D01*
X317104Y349050D01*
X316890Y348249D01*
Y347420D01*
X317104Y346619D01*
X317519Y345901D01*
X318106Y345314D01*
X318824Y344900D01*
X319625Y344685D01*
X320454D01*
X321255Y344900D01*
X321973Y345314D01*
X322560Y345901D01*
X322974Y346619D01*
X323189Y347420D01*
Y348249D01*
X322974Y349050D01*
X322560Y349769D01*
X321973Y350355D01*
X321724Y350499D01*
Y351076D01*
X321973Y351220D01*
X322560Y351806D01*
X322974Y352525D01*
X323189Y353326D01*
Y354155D01*
X322974Y354956D01*
X322560Y355674D01*
X321973Y356261D01*
X321724Y356404D01*
Y356982D01*
X321973Y357125D01*
X322560Y357712D01*
X322974Y358430D01*
X323189Y359231D01*
Y360060D01*
X322974Y360861D01*
X322560Y361580D01*
X321973Y362166D01*
X321255Y362581D01*
X320454Y362795D01*
D02*
G37*
G36*
X480600Y348611D02*
X479739D01*
X478943Y348282D01*
X478334Y347673D01*
X478004Y346877D01*
Y346015D01*
X478334Y345219D01*
X478877Y344676D01*
X478821Y344619D01*
X478491Y343824D01*
Y342962D01*
X478821Y342166D01*
X479430Y341557D01*
X480226Y341228D01*
X481087D01*
X481883Y341557D01*
X482492Y342166D01*
X482822Y342962D01*
Y343824D01*
X482492Y344619D01*
X481949Y345163D01*
X482005Y345219D01*
X482335Y346015D01*
Y346877D01*
X482005Y347673D01*
X481396Y348282D01*
X480600Y348611D01*
D02*
G37*
G36*
X513560Y336359D02*
X512698D01*
X511903Y336029D01*
X511293Y335420D01*
X510964Y334625D01*
Y333763D01*
X511289Y332978D01*
X510984Y332242D01*
Y331380D01*
X511314Y330585D01*
X511923Y329975D01*
X512719Y329646D01*
X513580D01*
X514376Y329975D01*
X514985Y330585D01*
X515315Y331380D01*
Y332242D01*
X514990Y333027D01*
X515294Y333763D01*
Y334625D01*
X514965Y335420D01*
X514356Y336029D01*
X513560Y336359D01*
D02*
G37*
G36*
X480917Y330139D02*
X480055D01*
X479260Y329809D01*
X478651Y329200D01*
X478321Y328404D01*
Y327543D01*
X478637Y326778D01*
X478558Y326699D01*
X478228Y325903D01*
Y325042D01*
X478558Y324246D01*
X479167Y323637D01*
X479963Y323307D01*
X480824D01*
X481620Y323637D01*
X482229Y324246D01*
X482559Y325042D01*
Y325903D01*
X482242Y326667D01*
X482322Y326747D01*
X482652Y327543D01*
Y328404D01*
X482322Y329200D01*
X481713Y329809D01*
X480917Y330139D01*
D02*
G37*
G36*
X423935Y323563D02*
X423073D01*
X422277Y323233D01*
X421668Y322624D01*
X421339Y321828D01*
Y320967D01*
X421668Y320171D01*
X422277Y319562D01*
X423073Y319232D01*
X423935D01*
X424730Y319562D01*
X425340Y320171D01*
X425669Y320967D01*
Y321828D01*
X425340Y322624D01*
X424730Y323233D01*
X423935Y323563D01*
D02*
G37*
G36*
X171730Y322677D02*
X170868D01*
X170073Y322347D01*
X169463Y321738D01*
X169134Y320942D01*
Y320081D01*
X169463Y319285D01*
X170073Y318676D01*
X170868Y318347D01*
X171730D01*
X172526Y318676D01*
X173135Y319285D01*
X173465Y320081D01*
Y320942D01*
X173135Y321738D01*
X172526Y322347D01*
X171730Y322677D01*
D02*
G37*
G36*
X542626Y331496D02*
X541153D01*
X539708Y331208D01*
X538346Y330645D01*
X537121Y329826D01*
X536079Y328784D01*
X535261Y327559D01*
X534697Y326198D01*
X534409Y324752D01*
Y323279D01*
X534697Y321834D01*
X535261Y320472D01*
X536079Y319247D01*
X537121Y318205D01*
X538346Y317387D01*
X539708Y316823D01*
X541153Y316535D01*
X542626D01*
X544072Y316823D01*
X545433Y317387D01*
X546658Y318205D01*
X547700Y319247D01*
X548519Y320472D01*
X549083Y321834D01*
X549370Y323279D01*
Y324752D01*
X549083Y326198D01*
X548519Y327559D01*
X547700Y328784D01*
X546658Y329826D01*
X545433Y330645D01*
X544072Y331208D01*
X542626Y331496D01*
D02*
G37*
G36*
X489607Y321824D02*
X488746D01*
X487950Y321495D01*
X487341Y320886D01*
X487011Y320090D01*
Y319228D01*
X487328Y318462D01*
X487259Y318392D01*
X486929Y317596D01*
Y316735D01*
X487259Y315939D01*
X487868Y315330D01*
X488664Y315000D01*
X489525D01*
X490321Y315330D01*
X490930Y315939D01*
X491260Y316735D01*
Y317596D01*
X490942Y318363D01*
X491012Y318432D01*
X491342Y319228D01*
Y320090D01*
X491012Y320886D01*
X490403Y321495D01*
X489607Y321824D01*
D02*
G37*
G36*
X202046Y318543D02*
X201185D01*
X200389Y318214D01*
X199780Y317604D01*
X199450Y316809D01*
Y315947D01*
X199780Y315151D01*
X200389Y314542D01*
X201185Y314213D01*
X202046D01*
X202842Y314542D01*
X203451Y315151D01*
X203781Y315947D01*
Y316809D01*
X203451Y317604D01*
X202842Y318214D01*
X202046Y318543D01*
D02*
G37*
G36*
X313580Y318366D02*
X312719D01*
X311923Y318037D01*
X311314Y317427D01*
X311175Y317093D01*
X310549Y316811D01*
X309687D01*
X308892Y316481D01*
X308282Y315872D01*
X307953Y315076D01*
Y315000D01*
X307719D01*
X306923Y314670D01*
X306314Y314061D01*
X305984Y313265D01*
Y312404D01*
X306314Y311608D01*
X306923Y310999D01*
X307719Y310669D01*
X308580D01*
X309376Y310999D01*
X309985Y311608D01*
X310315Y312404D01*
Y312480D01*
X310549D01*
X311345Y312810D01*
X311954Y313419D01*
X312092Y313754D01*
X312719Y314035D01*
X313580D01*
X314376Y314365D01*
X314985Y314974D01*
X315315Y315770D01*
Y316632D01*
X314985Y317427D01*
X314376Y318037D01*
X313580Y318366D01*
D02*
G37*
G36*
X203819Y312791D02*
X202958D01*
X202162Y312461D01*
X201553Y311852D01*
X201223Y311056D01*
Y310349D01*
X200901Y310057D01*
X200763Y309998D01*
X200499Y310108D01*
X199638D01*
X198842Y309778D01*
X198233Y309169D01*
X197903Y308373D01*
Y307512D01*
X198233Y306716D01*
X198842Y306107D01*
X199638Y305777D01*
X200499D01*
X201295Y306107D01*
X201904Y306716D01*
X202234Y307512D01*
Y308219D01*
X202556Y308511D01*
X202694Y308570D01*
X202958Y308460D01*
X203819D01*
X204615Y308790D01*
X205224Y309399D01*
X205554Y310195D01*
Y311056D01*
X205224Y311852D01*
X204615Y312461D01*
X203819Y312791D01*
D02*
G37*
G36*
X182045Y307362D02*
X181183D01*
X180388Y307032D01*
X179778Y306423D01*
X179449Y305627D01*
Y304766D01*
X179778Y303970D01*
X180388Y303361D01*
X181183Y303031D01*
X182045D01*
X182841Y303361D01*
X183450Y303970D01*
X183780Y304766D01*
Y305627D01*
X183450Y306423D01*
X182841Y307032D01*
X182045Y307362D01*
D02*
G37*
G36*
X542626Y313189D02*
X541153D01*
X539708Y312901D01*
X538346Y312338D01*
X537121Y311519D01*
X536079Y310477D01*
X535261Y309252D01*
X534697Y307891D01*
X534409Y306445D01*
Y304972D01*
X534697Y303527D01*
X535261Y302165D01*
X536079Y300940D01*
X537121Y299898D01*
X538346Y299080D01*
X539708Y298516D01*
X541153Y298228D01*
X542626D01*
X544072Y298516D01*
X545433Y299080D01*
X546658Y299898D01*
X547700Y300940D01*
X548519Y302165D01*
X549083Y303527D01*
X549370Y304972D01*
Y306445D01*
X549083Y307891D01*
X548519Y309252D01*
X547700Y310477D01*
X546658Y311519D01*
X545433Y312338D01*
X544072Y312901D01*
X542626Y313189D01*
D02*
G37*
G36*
X378898Y312205D02*
X377008D01*
X375141Y311909D01*
X373343Y311325D01*
X371659Y310467D01*
X370130Y309356D01*
X368794Y308019D01*
X367683Y306490D01*
X366825Y304806D01*
X366241Y303009D01*
X365945Y301142D01*
Y299252D01*
X366241Y297385D01*
X366825Y295587D01*
X367683Y293903D01*
X368794Y292374D01*
X370130Y291038D01*
X371659Y289927D01*
X373343Y289069D01*
X375141Y288485D01*
X377008Y288189D01*
X378898D01*
X380765Y288485D01*
X382562Y289069D01*
X384246Y289927D01*
X385775Y291038D01*
X387112Y292374D01*
X388223Y293903D01*
X389081Y295587D01*
X389665Y297385D01*
X389961Y299252D01*
Y301142D01*
X389665Y303009D01*
X389081Y304806D01*
X388223Y306490D01*
X387112Y308019D01*
X385775Y309356D01*
X384246Y310467D01*
X382562Y311325D01*
X380765Y311909D01*
X378898Y312205D01*
D02*
G37*
G36*
X288347D02*
X286456D01*
X284590Y311909D01*
X282792Y311325D01*
X281108Y310467D01*
X279579Y309356D01*
X278242Y308019D01*
X277132Y306490D01*
X276273Y304806D01*
X275689Y303009D01*
X275394Y301142D01*
Y299252D01*
X275689Y297385D01*
X276273Y295587D01*
X277132Y293903D01*
X278242Y292374D01*
X279579Y291038D01*
X281108Y289927D01*
X282792Y289069D01*
X284590Y288485D01*
X286456Y288189D01*
X288347D01*
X290213Y288485D01*
X292011Y289069D01*
X293695Y289927D01*
X295224Y291038D01*
X296561Y292374D01*
X297672Y293903D01*
X298530Y295587D01*
X299114Y297385D01*
X299409Y299252D01*
Y301142D01*
X299114Y303009D01*
X298530Y304806D01*
X297672Y306490D01*
X296561Y308019D01*
X295224Y309356D01*
X293695Y310467D01*
X292011Y311325D01*
X290213Y311909D01*
X288347Y312205D01*
D02*
G37*
G36*
X230509Y290158D02*
X229648D01*
X228852Y289828D01*
X228243Y289219D01*
X227913Y288423D01*
Y287561D01*
X228243Y286766D01*
X228852Y286156D01*
X229648Y285827D01*
X230509D01*
X231305Y286156D01*
X231914Y286766D01*
X232244Y287561D01*
Y288423D01*
X231914Y289219D01*
X231305Y289828D01*
X230509Y290158D01*
D02*
G37*
G36*
X395706Y280630D02*
X394845D01*
X394049Y280300D01*
X393440Y279691D01*
X393110Y278895D01*
Y278034D01*
X393440Y277238D01*
X394049Y276629D01*
X394845Y276299D01*
X395706D01*
X396502Y276629D01*
X397111Y277238D01*
X397441Y278034D01*
Y278895D01*
X397111Y279691D01*
X396502Y280300D01*
X395706Y280630D01*
D02*
G37*
G36*
X216454Y278110D02*
X215593D01*
X214797Y277781D01*
X214188Y277171D01*
X213858Y276376D01*
Y275514D01*
X214188Y274718D01*
X214797Y274109D01*
X215593Y273780D01*
X216454D01*
X217250Y274109D01*
X217859Y274718D01*
X218189Y275514D01*
Y276376D01*
X217859Y277171D01*
X217250Y277781D01*
X216454Y278110D01*
D02*
G37*
G36*
X528216Y283707D02*
X526898D01*
X525625Y283366D01*
X524483Y282707D01*
X523551Y281775D01*
X522892Y280633D01*
X522551Y279360D01*
Y278042D01*
X522892Y276768D01*
X523551Y275627D01*
X524483Y274695D01*
X525625Y274036D01*
X526898Y273695D01*
X528216D01*
X529489Y274036D01*
X530631Y274695D01*
X531563Y275627D01*
X532222Y276768D01*
X532563Y278042D01*
Y279360D01*
X532222Y280633D01*
X531563Y281775D01*
X530631Y282707D01*
X529489Y283366D01*
X528216Y283707D01*
D02*
G37*
G36*
X488216D02*
X486898D01*
X485625Y283366D01*
X484483Y282707D01*
X483551Y281775D01*
X482892Y280633D01*
X482551Y279360D01*
Y278042D01*
X482892Y276768D01*
X483551Y275627D01*
X484483Y274695D01*
X485625Y274036D01*
X486898Y273695D01*
X488216D01*
X489489Y274036D01*
X490631Y274695D01*
X491563Y275627D01*
X492222Y276768D01*
X492563Y278042D01*
Y279360D01*
X492222Y280633D01*
X491563Y281775D01*
X490631Y282707D01*
X489489Y283366D01*
X488216Y283707D01*
D02*
G37*
G36*
X410076Y272047D02*
X409215D01*
X408419Y271718D01*
X407810Y271109D01*
X407480Y270313D01*
Y269451D01*
X407810Y268655D01*
X408419Y268046D01*
X409215Y267717D01*
X410076D01*
X410872Y268046D01*
X411481Y268655D01*
X411811Y269451D01*
Y270313D01*
X411481Y271109D01*
X410872Y271718D01*
X410076Y272047D01*
D02*
G37*
G36*
X503288Y266526D02*
X501747D01*
X500235Y266225D01*
X498811Y265635D01*
X497530Y264779D01*
X496440Y263689D01*
X495583Y262407D01*
X494994Y260983D01*
X494693Y259472D01*
Y257930D01*
X494994Y256418D01*
X495583Y254994D01*
X496440Y253713D01*
X497530Y252623D01*
X498811Y251767D01*
X500235Y251177D01*
X501747Y250876D01*
X503288D01*
X504800Y251177D01*
X506224Y251767D01*
X507506Y252623D01*
X508596Y253713D01*
X509452Y254994D01*
X510042Y256418D01*
X510343Y257930D01*
Y259472D01*
X510042Y260983D01*
X509452Y262407D01*
X508596Y263689D01*
X507506Y264779D01*
X506224Y265635D01*
X504800Y266225D01*
X503288Y266526D01*
D02*
G37*
G36*
X528216Y243707D02*
X526898D01*
X525625Y243366D01*
X524483Y242707D01*
X523551Y241775D01*
X522892Y240633D01*
X522551Y239360D01*
Y238042D01*
X522892Y236769D01*
X523551Y235627D01*
X524483Y234695D01*
X525625Y234036D01*
X526898Y233695D01*
X528216D01*
X529489Y234036D01*
X530631Y234695D01*
X531563Y235627D01*
X532222Y236769D01*
X532563Y238042D01*
Y239360D01*
X532222Y240633D01*
X531563Y241775D01*
X530631Y242707D01*
X529489Y243366D01*
X528216Y243707D01*
D02*
G37*
G36*
X488216D02*
X486898D01*
X485625Y243366D01*
X484483Y242707D01*
X483551Y241775D01*
X482892Y240633D01*
X482551Y239360D01*
Y238042D01*
X482892Y236769D01*
X483551Y235627D01*
X484483Y234695D01*
X485625Y234036D01*
X486898Y233695D01*
X488216D01*
X489489Y234036D01*
X490631Y234695D01*
X491563Y235627D01*
X492222Y236769D01*
X492563Y238042D01*
Y239360D01*
X492222Y240633D01*
X491563Y241775D01*
X490631Y242707D01*
X489489Y243366D01*
X488216Y243707D01*
D02*
G37*
G36*
X403462Y26969D02*
X402601D01*
X401805Y26639D01*
X401196Y26030D01*
X400866Y25234D01*
Y24372D01*
X401196Y23577D01*
X401805Y22967D01*
X402601Y22638D01*
X403462D01*
X404258Y22967D01*
X404867Y23577D01*
X405197Y24372D01*
Y25234D01*
X404867Y26030D01*
X404258Y26639D01*
X403462Y26969D01*
D02*
G37*
%LPD*%
D13*
X367547Y22426D02*
X376036Y13937D01*
X367547Y22426D02*
Y23005D01*
X365748Y24803D02*
X367547Y23005D01*
X376036Y13937D02*
X376447D01*
D80*
X488661Y378583D02*
D03*
X253976Y345669D02*
D03*
X272284Y345590D02*
D03*
X272244Y362795D02*
D03*
X254016Y363110D02*
D03*
X386417Y345197D02*
D03*
X386181Y363583D02*
D03*
X367245Y363570D02*
D03*
X240669Y292874D02*
D03*
X361536Y57323D02*
D03*
Y62835D02*
D03*
X361496Y67953D02*
D03*
X362126Y137874D02*
D03*
Y143386D02*
D03*
X362087Y148504D02*
D03*
X358386Y217480D02*
D03*
Y222992D02*
D03*
X358386Y228110D02*
D03*
X462756Y46496D02*
D03*
X456850D02*
D03*
Y58307D02*
D03*
Y52402D02*
D03*
Y40551D02*
D03*
X462756Y58307D02*
D03*
Y52402D02*
D03*
Y40551D02*
D03*
X462716Y106063D02*
D03*
Y117913D02*
D03*
Y123819D02*
D03*
X456811Y106063D02*
D03*
Y117913D02*
D03*
Y123819D02*
D03*
Y112008D02*
D03*
X462716D02*
D03*
X462638Y178819D02*
D03*
X456732D02*
D03*
Y190630D02*
D03*
Y184724D02*
D03*
Y172874D02*
D03*
X462638Y190630D02*
D03*
Y184724D02*
D03*
Y172874D02*
D03*
X401142Y46772D02*
D03*
Y52677D02*
D03*
Y58583D02*
D03*
Y40905D02*
D03*
X401152Y111499D02*
D03*
Y117405D02*
D03*
Y123310D02*
D03*
Y105633D02*
D03*
X401142Y173346D02*
D03*
Y191024D02*
D03*
Y185118D02*
D03*
Y179213D02*
D03*
X385827Y255000D02*
D03*
X367598D02*
D03*
Y237126D02*
D03*
X385827D02*
D03*
X401339Y232244D02*
D03*
Y238150D02*
D03*
Y244055D02*
D03*
X395433D02*
D03*
Y238150D02*
D03*
Y232244D02*
D03*
X462598Y217717D02*
D03*
Y223622D02*
D03*
Y229528D02*
D03*
X451850Y214685D02*
D03*
X456693Y217717D02*
D03*
Y223622D02*
D03*
Y229528D02*
D03*
D82*
X427715Y191613D02*
X430158Y194055D01*
X427715Y191484D02*
Y191613D01*
X430158Y194055D02*
Y262487D01*
X427006Y265638D02*
X430158Y262487D01*
X426968Y268819D02*
X427006Y268781D01*
Y265638D02*
Y268781D01*
X388521Y92028D02*
X399134Y81415D01*
X363440Y92028D02*
X388521D01*
X352756Y213701D02*
X352953Y213898D01*
X312795Y213701D02*
X352756D01*
X427795Y30197D02*
Y78050D01*
X427810Y78203D02*
X427836Y78177D01*
Y78091D02*
Y78177D01*
X427795Y78050D02*
X427836Y78091D01*
X427913Y150472D02*
Y191285D01*
X427894Y150453D02*
X427913Y150472D01*
X427894Y78288D02*
Y150453D01*
X431042Y18715D02*
Y26950D01*
X427795Y30197D02*
X431042Y26950D01*
X158248Y242657D02*
X179291Y263701D01*
X211338D01*
X303189Y94488D02*
X360980D01*
X363440Y92028D01*
X168551Y111393D02*
Y133038D01*
Y111393D02*
X168897Y111046D01*
Y111045D02*
Y111046D01*
Y88768D02*
Y88821D01*
Y111045D01*
X166732Y57165D02*
Y86603D01*
X168897Y88768D01*
D83*
X315787Y54606D02*
X355472D01*
X315512Y54331D02*
X315787Y54606D01*
X356050Y135066D02*
X356102Y135118D01*
X315983Y135066D02*
X356050D01*
D84*
X425787Y200135D02*
Y206853D01*
X423483Y197831D02*
X425787Y200135D01*
X427756Y205158D02*
Y262244D01*
Y205158D02*
X427894Y205020D01*
X417559Y272441D02*
X427756Y262244D01*
X423483Y161908D02*
Y197831D01*
X418484Y156910D02*
X423483Y161908D01*
X417559Y272441D02*
Y275905D01*
X237402Y235945D02*
X277913D01*
X233425Y233740D02*
X276828D01*
X78397Y209331D02*
X86476D01*
X276181Y243921D02*
X279588Y240515D01*
X335669Y187205D02*
X366811D01*
X337300Y183346D02*
X354451D01*
X277698Y245176D02*
X335669Y187205D01*
X277698Y245176D02*
Y249095D01*
X279588Y240515D02*
X280132D01*
X337300Y183346D01*
X337835Y180472D02*
X354528D01*
X279367Y238940D02*
X337835Y180472D01*
X277011Y238940D02*
X279367D01*
X-36102Y161339D02*
X2362D01*
X6890Y156811D01*
X-36142Y161299D02*
X-36102Y161339D01*
X426821Y24643D02*
X428524Y22940D01*
X426821Y24643D02*
Y24856D01*
X428524Y17047D02*
Y22940D01*
X-28555Y246496D02*
X-6968D01*
X-30758Y248700D02*
X-28555Y246496D01*
X-31063Y251772D02*
X-20722D01*
X-18675Y249724D01*
X276828Y233740D02*
X281566Y229003D01*
X277913Y235945D02*
X304606Y209252D01*
X366265Y105591D02*
X369297D01*
X366264Y105589D02*
X366265Y105591D01*
X104027Y54823D02*
X105969Y52881D01*
X84705Y54823D02*
X104027D01*
X368469Y182288D02*
X372745Y178011D01*
X356343Y182288D02*
X368469D01*
X354528Y180472D02*
X356343Y182288D01*
X358101Y180319D02*
X358234Y180452D01*
X368078D01*
X366811Y187205D02*
X381102Y172913D01*
X369297Y105591D02*
X380596Y94292D01*
X366144Y103233D02*
X375086Y94291D01*
X380596D02*
Y94292D01*
X366096Y103233D02*
X366144D01*
X375086Y94291D02*
X375134D01*
X165765Y179409D02*
X206142D01*
X123200Y180669D02*
X164506D01*
X165765Y179409D01*
X97177Y154646D02*
X123200Y180669D01*
X281566Y229003D02*
X305092Y205476D01*
X367992Y172441D02*
X371209Y169224D01*
X367992Y172441D02*
Y177390D01*
X367992Y177390D01*
X372745Y174775D02*
Y178011D01*
X370803Y174489D02*
X373504Y171789D01*
X368078Y180452D02*
X370803Y177726D01*
X367992Y177390D02*
Y177753D01*
X372745Y174775D02*
X377835Y169685D01*
X373504Y168664D02*
Y171789D01*
X370803Y174489D02*
Y177726D01*
X381102Y169685D02*
Y172913D01*
X-10187Y232096D02*
X-10164D01*
X-4724Y237536D02*
Y237536D01*
X-10433Y231850D02*
X-10187Y232096D01*
X-10164D02*
X-4724Y237536D01*
Y237536D02*
X-2913Y239347D01*
X24409Y154646D02*
X97177D01*
X328307Y169652D02*
X338305D01*
X344176Y163781D02*
X351363D01*
X396673Y156910D02*
X418484D01*
X391929Y152165D02*
X396673Y156910D01*
X281024Y146102D02*
X297598Y129528D01*
X281024Y146102D02*
Y146227D01*
X297598Y129528D02*
X310433D01*
X46271Y177205D02*
X78397Y209331D01*
X355347Y83819D02*
X355496D01*
X90352Y45514D02*
X130029D01*
X89921Y45945D02*
X90352Y45514D01*
X365433Y18110D02*
X370354Y13189D01*
X365433Y18110D02*
Y20866D01*
X60079Y79449D02*
X84705Y54823D01*
X57323Y78543D02*
X89921Y45945D01*
X338305Y169652D02*
X344176Y163781D01*
X371112Y169320D02*
X371209Y169224D01*
X-2913Y239347D02*
Y273268D01*
X-4843Y275197D02*
X-2913Y273268D01*
X24488Y177205D02*
X46271D01*
X114567Y259882D02*
Y259958D01*
X124215Y269606D01*
X152559D01*
X165118Y282165D01*
X281850Y149921D02*
X299173Y132598D01*
X309294D01*
X60039Y79449D02*
X60079D01*
D87*
X502518Y89803D02*
D03*
Y33504D02*
D03*
Y146102D02*
D03*
Y202402D02*
D03*
D93*
X460669Y18425D02*
D03*
X445315Y311142D02*
D03*
X441890Y313819D02*
D03*
X421063Y311653D02*
D03*
X433583Y313032D02*
D03*
X413150Y314252D02*
D03*
X409567Y314291D02*
D03*
X425787Y206853D02*
D03*
X427894Y205020D02*
D03*
X432421Y202126D02*
D03*
X417402Y200512D02*
D03*
X431142Y269252D02*
D03*
X417559Y275905D02*
D03*
X237402Y235945D02*
D03*
X233425Y233740D02*
D03*
X426968Y268819D02*
D03*
X399134Y81415D02*
D03*
X224843Y330925D02*
D03*
X235984Y336043D02*
D03*
X86550Y209406D02*
D03*
X315512Y54331D02*
D03*
X315983Y135066D02*
D03*
X312795Y213701D02*
D03*
X276181Y243921D02*
D03*
X277011Y238940D02*
D03*
X2835Y127598D02*
D03*
X-36142Y161299D02*
D03*
X427677Y191575D02*
D03*
X427913Y150472D02*
D03*
X428524Y17047D02*
D03*
X431042Y18661D02*
D03*
X10079Y244488D02*
D03*
X-6968Y246496D02*
D03*
X-30758Y248700D02*
D03*
X-18675Y249724D02*
D03*
X366264Y105589D02*
D03*
X422008Y285630D02*
D03*
X151989Y219339D02*
D03*
X158228Y242677D02*
D03*
X119075Y300251D02*
D03*
X99252Y51221D02*
D03*
X359963Y246314D02*
D03*
X360039Y177520D02*
D03*
X-31063Y251772D02*
D03*
X281024Y146227D02*
D03*
X147008Y173268D02*
D03*
X358101Y180319D02*
D03*
X168897Y88821D02*
D03*
X303189Y94488D02*
D03*
X380596Y94291D02*
D03*
X375134D02*
D03*
X427874Y78268D02*
D03*
X194095Y267047D02*
D03*
X187323Y300118D02*
D03*
X95945Y339724D02*
D03*
X94548Y277922D02*
D03*
X224882Y371693D02*
D03*
X27677Y321886D02*
D03*
X371161Y169272D02*
D03*
X354451Y183346D02*
D03*
X367992Y177753D02*
D03*
X305092Y205476D02*
D03*
X304606Y209252D02*
D03*
X10079Y238189D02*
D03*
Y241339D02*
D03*
X-10433Y231850D02*
D03*
X117107Y75678D02*
D03*
X94115Y107213D02*
D03*
X118760Y128631D02*
D03*
X102362Y177362D02*
D03*
X117658Y191583D02*
D03*
X95611Y217410D02*
D03*
X117540Y237568D02*
D03*
X117697Y360993D02*
D03*
X152382Y111898D02*
D03*
X151359Y281544D02*
D03*
X151713Y343946D02*
D03*
X288052Y122450D02*
D03*
X357579Y18434D02*
D03*
X288819Y42835D02*
D03*
X361299Y88543D02*
D03*
X395945Y9921D02*
D03*
X285787Y201929D02*
D03*
X277698Y249095D02*
D03*
X-4843Y275197D02*
D03*
X211338Y263701D02*
D03*
X24409Y154646D02*
D03*
X206142Y179409D02*
D03*
X351432Y163760D02*
D03*
X391929Y152165D02*
D03*
X6890Y156811D02*
D03*
X60079Y79449D02*
D03*
X355496Y83819D02*
D03*
X168551Y133038D02*
D03*
X130103Y45590D02*
D03*
X166806Y57241D02*
D03*
X105969Y52881D02*
D03*
X437795Y8701D02*
D03*
X455630Y289488D02*
D03*
X216881Y268720D02*
D03*
X365748Y24803D02*
D03*
X365433Y20866D02*
D03*
X366096Y103233D02*
D03*
X426821Y24856D02*
D03*
X403780Y18701D02*
D03*
X376447Y13937D02*
D03*
X207087Y358819D02*
D03*
X221496Y288976D02*
D03*
X177520Y289134D02*
D03*
X433779Y77992D02*
D03*
X437756Y141260D02*
D03*
X28819Y347283D02*
D03*
X360097Y98196D02*
D03*
X357862Y171187D02*
D03*
X328307Y169612D02*
D03*
X373504Y168664D02*
D03*
X377835Y169685D02*
D03*
X370354Y13189D02*
D03*
X24488Y177205D02*
D03*
X114567Y259882D02*
D03*
X381102Y169685D02*
D03*
X165118Y282165D02*
D03*
X57323Y78543D02*
D03*
X281850Y149921D02*
D03*
X309294Y132598D02*
D03*
X310433Y129528D02*
D03*
M02*
