G04*
G04 #@! TF.GenerationSoftware,Altium Limited,Altium Designer,23.0.1 (38)*
G04*
G04 Layer_Color=8388736*
%FSLAX25Y25*%
%MOIN*%
G70*
G04*
G04 #@! TF.SameCoordinates,C73A8D95-9E1D-4458-8665-D4227823169D*
G04*
G04*
G04 #@! TF.FilePolarity,Negative*
G04*
G01*
G75*
%ADD45R,0.11430X0.05918*%
%ADD46R,0.06312X0.02572*%
%ADD47R,0.04540X0.04147*%
%ADD48R,0.07414X0.13202*%
%ADD49R,0.04147X0.04540*%
%ADD50R,0.04343X0.03556*%
%ADD51R,0.03556X0.04343*%
%ADD52C,0.04737*%
%ADD53R,0.05524X0.07099*%
%ADD54R,0.04147X0.01981*%
%ADD55R,0.02769X0.02769*%
%ADD56R,0.05131X0.02769*%
%ADD57R,0.03950X0.03162*%
%ADD58R,0.15564X0.18162*%
%ADD59R,0.03162X0.13398*%
%ADD60R,0.04737X0.04737*%
%ADD61R,0.03950X0.02178*%
%ADD62R,0.04737X0.09068*%
%ADD63R,0.06115X0.06902*%
%ADD64R,0.04737X0.04737*%
%ADD65R,0.05328X0.06115*%
%ADD66R,0.04934X0.02965*%
%ADD67R,0.03950X0.03950*%
%ADD68R,0.12808X0.03202*%
%ADD69R,0.05524X0.03162*%
%ADD70R,0.11417X0.02559*%
%ADD71R,0.07690X0.03162*%
%ADD72R,0.11627X0.25210*%
%ADD73C,0.08450*%
%ADD74C,0.14087*%
%ADD75C,0.06706*%
%ADD76R,0.06706X0.06706*%
%ADD77C,0.22453*%
%ADD78R,0.07591X0.07591*%
%ADD79C,0.13398*%
G36*
X549600Y320240D02*
X549651Y320230D01*
X549701Y320213D01*
X549748Y320190D01*
X549791Y320161D01*
X549831Y320126D01*
X549865Y320087D01*
X549894Y320043D01*
X549918Y319996D01*
X549934Y319946D01*
X549945Y319895D01*
X549948Y319843D01*
Y310000D01*
X549945Y309948D01*
X549934Y309896D01*
X549918Y309847D01*
X549894Y309800D01*
X549865Y309756D01*
X549831Y309717D01*
X549791Y309682D01*
X549748Y309653D01*
X549701Y309630D01*
X549651Y309613D01*
X549600Y309603D01*
X549547Y309599D01*
X534232D01*
X534180Y309603D01*
X534129Y309613D01*
X534079Y309630D01*
X534032Y309653D01*
X533988Y309682D01*
X533949Y309717D01*
X533914Y309756D01*
X533885Y309800D01*
X533862Y309847D01*
X533845Y309896D01*
X533835Y309948D01*
X533831Y310000D01*
Y319843D01*
X533835Y319895D01*
X533845Y319946D01*
X533862Y319996D01*
X533885Y320043D01*
X533914Y320087D01*
X533949Y320126D01*
X533988Y320161D01*
X534032Y320190D01*
X534079Y320213D01*
X534129Y320230D01*
X534180Y320240D01*
X534232Y320243D01*
X536647D01*
X536659Y320243D01*
X536670Y320243D01*
X536685Y320241D01*
X536699Y320240D01*
X536711Y320238D01*
X536722Y320236D01*
X536736Y320233D01*
X536751Y320230D01*
X536762Y320226D01*
X536773Y320223D01*
X536786Y320218D01*
X536801Y320213D01*
X536811Y320208D01*
X536821Y320203D01*
X536834Y320196D01*
X536848Y320190D01*
X536857Y320183D01*
X536867Y320178D01*
X536879Y320169D01*
X536891Y320161D01*
X536900Y320153D01*
X536909Y320146D01*
X536919Y320136D01*
X536931Y320126D01*
X536931Y320126D01*
X536938Y320117D01*
X536946Y320109D01*
X537425Y319573D01*
X538536Y318686D01*
X539808Y318073D01*
X541184Y317758D01*
X542595D01*
X543971Y318073D01*
X545243Y318686D01*
X546355Y319573D01*
X546833Y320109D01*
X546841Y320117D01*
X546848Y320126D01*
X546860Y320136D01*
X546870Y320146D01*
X546879Y320153D01*
X546888Y320161D01*
X546900Y320169D01*
X546912Y320178D01*
X546922Y320183D01*
X546932Y320190D01*
X546945Y320196D01*
X546958Y320203D01*
X546968Y320208D01*
X546979Y320213D01*
X546993Y320218D01*
X547006Y320223D01*
X547017Y320226D01*
X547028Y320230D01*
X547043Y320233D01*
X547057Y320236D01*
X547068Y320238D01*
X547080Y320240D01*
X547094Y320241D01*
X547109Y320243D01*
X547121Y320243D01*
X547132Y320243D01*
X549547Y320243D01*
X549600Y320240D01*
D02*
G37*
G36*
Y388429D02*
X549651Y388419D01*
X549701Y388402D01*
X549748Y388379D01*
X549791Y388350D01*
X549831Y388315D01*
X549865Y388276D01*
X549894Y388232D01*
X549918Y388185D01*
X549934Y388135D01*
X549945Y388084D01*
X549948Y388032D01*
Y378189D01*
X549945Y378137D01*
X549934Y378085D01*
X549918Y378036D01*
X549894Y377989D01*
X549865Y377945D01*
X549831Y377906D01*
X549791Y377871D01*
X549748Y377842D01*
X549701Y377819D01*
X549651Y377802D01*
X549600Y377792D01*
X549547Y377788D01*
X547132D01*
X547121Y377789D01*
X547109Y377789D01*
X547094Y377791D01*
X547080Y377792D01*
X547068Y377794D01*
X547057Y377795D01*
X547043Y377799D01*
X547028Y377802D01*
X547017Y377805D01*
X547006Y377808D01*
X546993Y377814D01*
X546979Y377819D01*
X546968Y377824D01*
X546958Y377828D01*
X546945Y377835D01*
X546932Y377842D01*
X546922Y377848D01*
X546912Y377854D01*
X546900Y377863D01*
X546888Y377871D01*
X546879Y377878D01*
X546870Y377885D01*
X546860Y377896D01*
X546848Y377906D01*
X546841Y377914D01*
X546833Y377922D01*
X546355Y378458D01*
X545243Y379346D01*
X543971Y379959D01*
X542595Y380273D01*
X541184D01*
X539808Y379959D01*
X538536Y379346D01*
X537425Y378458D01*
X536946Y377922D01*
X536938Y377914D01*
X536931Y377906D01*
X536919Y377896D01*
X536909Y377885D01*
X536900Y377878D01*
X536891Y377871D01*
X536879Y377863D01*
X536867Y377854D01*
X536857Y377848D01*
X536848Y377842D01*
X536834Y377835D01*
X536821Y377828D01*
X536811Y377824D01*
X536801Y377819D01*
X536786Y377814D01*
X536773Y377808D01*
X536762Y377805D01*
X536751Y377802D01*
X536736Y377799D01*
X536722Y377795D01*
X536711Y377794D01*
X536699Y377792D01*
X536685Y377791D01*
X536670Y377789D01*
X536659Y377789D01*
X536647Y377788D01*
X534232D01*
X534180Y377792D01*
X534129Y377802D01*
X534079Y377819D01*
X534032Y377842D01*
X533988Y377871D01*
X533949Y377906D01*
X533914Y377945D01*
X533885Y377989D01*
X533862Y378036D01*
X533845Y378085D01*
X533835Y378137D01*
X533831Y378189D01*
Y388032D01*
X533835Y388084D01*
X533845Y388135D01*
X533862Y388185D01*
X533885Y388232D01*
X533914Y388276D01*
X533949Y388315D01*
X533988Y388350D01*
X534032Y388379D01*
X534079Y388402D01*
X534129Y388419D01*
X534180Y388429D01*
X534232Y388432D01*
X549547D01*
X549600Y388429D01*
D02*
G37*
D45*
X35512Y198189D02*
D03*
Y187165D02*
D03*
D46*
X420472Y29429D02*
D03*
Y26870D02*
D03*
Y24311D02*
D03*
Y21752D02*
D03*
X437795D02*
D03*
Y24311D02*
D03*
Y26870D02*
D03*
Y29429D02*
D03*
X420472Y95374D02*
D03*
Y92815D02*
D03*
Y90256D02*
D03*
Y87697D02*
D03*
X437795D02*
D03*
Y90256D02*
D03*
Y92815D02*
D03*
Y95374D02*
D03*
X420472Y162146D02*
D03*
Y159587D02*
D03*
Y157028D02*
D03*
Y154469D02*
D03*
X437795D02*
D03*
Y157028D02*
D03*
Y159587D02*
D03*
Y162146D02*
D03*
X420472Y212500D02*
D03*
Y209941D02*
D03*
Y207382D02*
D03*
Y204823D02*
D03*
X437795D02*
D03*
Y207382D02*
D03*
Y209941D02*
D03*
Y212500D02*
D03*
D47*
X-16693Y124016D02*
D03*
Y118898D02*
D03*
X20748Y234646D02*
D03*
Y239764D02*
D03*
X83622Y120984D02*
D03*
Y126102D02*
D03*
X73110Y9685D02*
D03*
Y14803D02*
D03*
X445669Y152362D02*
D03*
Y147244D02*
D03*
Y85590D02*
D03*
Y80472D02*
D03*
X445709Y20000D02*
D03*
Y14882D02*
D03*
X446535Y301496D02*
D03*
Y296378D02*
D03*
X437520Y277874D02*
D03*
Y282992D02*
D03*
X27874Y234685D02*
D03*
Y239803D02*
D03*
X417402Y319213D02*
D03*
X437401D02*
D03*
X18543Y151732D02*
D03*
Y156850D02*
D03*
X11929Y156851D02*
D03*
Y151732D02*
D03*
X90984Y120984D02*
D03*
Y126102D02*
D03*
X445315Y199488D02*
D03*
Y204606D02*
D03*
Y210472D02*
D03*
Y215590D02*
D03*
X82717Y14842D02*
D03*
Y9724D02*
D03*
X373898Y164409D02*
D03*
Y159291D02*
D03*
X445669Y159567D02*
D03*
Y164685D02*
D03*
X395905Y13110D02*
D03*
Y18228D02*
D03*
X445669Y97913D02*
D03*
Y92795D02*
D03*
X445709Y32008D02*
D03*
Y26890D02*
D03*
X117126Y66988D02*
D03*
Y72106D02*
D03*
X124063D02*
D03*
Y66988D02*
D03*
X147646Y47972D02*
D03*
Y53090D02*
D03*
X117717Y188051D02*
D03*
Y182933D02*
D03*
X124220D02*
D03*
Y188051D02*
D03*
X147803Y163917D02*
D03*
Y169035D02*
D03*
X125756Y119941D02*
D03*
Y125059D02*
D03*
X118897D02*
D03*
Y119941D02*
D03*
X149803Y100866D02*
D03*
Y105984D02*
D03*
X124409Y228937D02*
D03*
Y234055D02*
D03*
X117717D02*
D03*
Y228937D02*
D03*
X148433Y209941D02*
D03*
Y215059D02*
D03*
X113071Y18858D02*
D03*
Y23976D02*
D03*
Y85079D02*
D03*
Y90197D02*
D03*
X117717Y294350D02*
D03*
Y289232D02*
D03*
X36693Y351102D02*
D03*
Y356220D02*
D03*
X28819Y351102D02*
D03*
Y356220D02*
D03*
X20945Y351102D02*
D03*
Y356220D02*
D03*
Y340472D02*
D03*
Y335354D02*
D03*
X437401Y314094D02*
D03*
X417402D02*
D03*
X408347Y301496D02*
D03*
Y296378D02*
D03*
X417362Y285118D02*
D03*
Y280000D02*
D03*
X113346Y198228D02*
D03*
Y203347D02*
D03*
Y134528D02*
D03*
Y139646D02*
D03*
X113347Y249449D02*
D03*
Y254567D02*
D03*
X124528Y294350D02*
D03*
Y289232D02*
D03*
X148118Y275335D02*
D03*
Y270216D02*
D03*
X148189Y337992D02*
D03*
Y332874D02*
D03*
X113347Y323228D02*
D03*
Y328347D02*
D03*
X117717Y351890D02*
D03*
Y357008D02*
D03*
X124409D02*
D03*
Y351890D02*
D03*
X-6850Y124016D02*
D03*
Y118898D02*
D03*
X2992Y124016D02*
D03*
Y118898D02*
D03*
D48*
X-14252Y241220D02*
D03*
X4567D02*
D03*
X-14252Y258228D02*
D03*
X4567D02*
D03*
X-14252Y275236D02*
D03*
X4567D02*
D03*
D49*
X156339Y106024D02*
D03*
X161457D02*
D03*
X367598Y171732D02*
D03*
X362480D02*
D03*
X325551Y173504D02*
D03*
X330669D02*
D03*
X353346Y173504D02*
D03*
X348228D02*
D03*
X384606Y93897D02*
D03*
X389724D02*
D03*
X371220Y93662D02*
D03*
X366102D02*
D03*
X361968Y13268D02*
D03*
X367087D02*
D03*
X380787Y13268D02*
D03*
X385906D02*
D03*
X154606Y53071D02*
D03*
X159724D02*
D03*
X156575Y175827D02*
D03*
X151456D02*
D03*
X159882Y169016D02*
D03*
X154764D02*
D03*
X161496Y114291D02*
D03*
X156378D02*
D03*
X352677Y90709D02*
D03*
X357795D02*
D03*
X334961Y90709D02*
D03*
X340079D02*
D03*
X160520Y215059D02*
D03*
X155402D02*
D03*
X161063Y223228D02*
D03*
X155945D02*
D03*
X522086Y303346D02*
D03*
X527205D02*
D03*
X160197Y282126D02*
D03*
X155079D02*
D03*
X160197Y275315D02*
D03*
X155079D02*
D03*
X155701Y346161D02*
D03*
X160819D02*
D03*
X155157Y337992D02*
D03*
X160275D02*
D03*
X357453Y253067D02*
D03*
X352335D02*
D03*
X333830Y253067D02*
D03*
X338949D02*
D03*
D50*
X452441Y296181D02*
D03*
Y301693D02*
D03*
X431063Y272362D02*
D03*
Y277874D02*
D03*
X27244Y215236D02*
D03*
Y209724D02*
D03*
X402441Y301693D02*
D03*
Y296181D02*
D03*
X408032Y202835D02*
D03*
Y208346D02*
D03*
X363662Y177480D02*
D03*
Y182992D02*
D03*
X407559Y151496D02*
D03*
Y157008D02*
D03*
X312638Y112757D02*
D03*
Y107245D02*
D03*
X307520Y112757D02*
D03*
Y107245D02*
D03*
X318169Y112796D02*
D03*
Y107284D02*
D03*
X300000Y145985D02*
D03*
Y140473D02*
D03*
X310236Y145985D02*
D03*
Y140473D02*
D03*
X305118Y145985D02*
D03*
Y140473D02*
D03*
X326925Y163615D02*
D03*
Y158103D02*
D03*
X321689Y163615D02*
D03*
Y158103D02*
D03*
X297795Y123190D02*
D03*
Y128701D02*
D03*
X292834Y123190D02*
D03*
Y128701D02*
D03*
X310236Y65433D02*
D03*
Y59921D02*
D03*
X305118D02*
D03*
Y65433D02*
D03*
X300000Y59921D02*
D03*
Y65433D02*
D03*
X321689Y83063D02*
D03*
Y77552D02*
D03*
X326925Y83063D02*
D03*
Y77552D02*
D03*
X361260Y107323D02*
D03*
Y101811D02*
D03*
X360984Y25827D02*
D03*
Y20315D02*
D03*
X413858Y90236D02*
D03*
Y84724D02*
D03*
Y24331D02*
D03*
Y18819D02*
D03*
X407559Y84724D02*
D03*
Y90236D02*
D03*
X138622Y53071D02*
D03*
Y47559D02*
D03*
X138779Y169016D02*
D03*
Y163504D02*
D03*
X139173Y275315D02*
D03*
Y269803D02*
D03*
X140401Y106240D02*
D03*
Y100728D02*
D03*
X139488Y214921D02*
D03*
Y209409D02*
D03*
X139291Y338031D02*
D03*
Y332520D02*
D03*
X110433Y55197D02*
D03*
Y49685D02*
D03*
X318067Y242356D02*
D03*
Y236844D02*
D03*
X359882Y85079D02*
D03*
Y79567D02*
D03*
X437756Y17362D02*
D03*
Y11850D02*
D03*
X437795Y150354D02*
D03*
Y144842D02*
D03*
Y83583D02*
D03*
Y78071D02*
D03*
X27205Y189685D02*
D03*
Y195197D02*
D03*
X3740Y193543D02*
D03*
Y188032D02*
D03*
X323303Y236844D02*
D03*
Y242356D02*
D03*
X-2008Y188032D02*
D03*
Y193543D02*
D03*
X113701Y165551D02*
D03*
Y171063D02*
D03*
X114803Y101654D02*
D03*
Y107165D02*
D03*
X114094Y211969D02*
D03*
Y217480D02*
D03*
X355906Y167835D02*
D03*
Y162323D02*
D03*
X318168Y32244D02*
D03*
Y26732D02*
D03*
X297795Y42638D02*
D03*
Y48150D02*
D03*
X292834Y42638D02*
D03*
Y48150D02*
D03*
X413858Y151496D02*
D03*
Y157008D02*
D03*
X309015Y191497D02*
D03*
Y185985D02*
D03*
X314547Y191536D02*
D03*
Y186024D02*
D03*
X306614Y224725D02*
D03*
Y219213D02*
D03*
X296378Y224725D02*
D03*
Y219213D02*
D03*
X303898Y191497D02*
D03*
Y185985D02*
D03*
X301496Y224725D02*
D03*
Y219213D02*
D03*
X294173Y201930D02*
D03*
Y207442D02*
D03*
X289212Y201930D02*
D03*
Y207442D02*
D03*
X413543Y202835D02*
D03*
Y208346D02*
D03*
X407559Y18819D02*
D03*
Y24331D02*
D03*
X307520Y26693D02*
D03*
Y32205D02*
D03*
X312638Y26693D02*
D03*
Y32205D02*
D03*
X113898Y278150D02*
D03*
Y272638D02*
D03*
X356035Y240862D02*
D03*
Y246374D02*
D03*
X113819Y339842D02*
D03*
Y334331D02*
D03*
D51*
X424764Y285788D02*
D03*
X430275D02*
D03*
X437795Y198701D02*
D03*
X432284D02*
D03*
X430236Y312087D02*
D03*
X424724D02*
D03*
D52*
X32480Y322001D02*
D03*
X63866Y334831D02*
D03*
X32480Y300669D02*
D03*
X32480Y335433D02*
D03*
D53*
X345748Y189016D02*
D03*
X334331D02*
D03*
X345748Y180945D02*
D03*
X334331D02*
D03*
X377205Y180315D02*
D03*
X376693Y103543D02*
D03*
X337795Y111536D02*
D03*
X349213D02*
D03*
X332717Y130906D02*
D03*
X344134D02*
D03*
X332717Y122835D02*
D03*
X344134D02*
D03*
X349213Y103465D02*
D03*
X337795D02*
D03*
X344134Y42283D02*
D03*
X332716D02*
D03*
Y50354D02*
D03*
X344134D02*
D03*
X375394Y22559D02*
D03*
X346417Y82323D02*
D03*
X342756Y165079D02*
D03*
X329094Y209646D02*
D03*
X340512D02*
D03*
X329094Y201575D02*
D03*
X340512D02*
D03*
X349213Y22913D02*
D03*
X337795D02*
D03*
X349213Y30984D02*
D03*
X337795D02*
D03*
X342453Y243583D02*
D03*
D54*
X381929Y183268D02*
D03*
Y181299D02*
D03*
Y179331D02*
D03*
Y177362D02*
D03*
X372480D02*
D03*
Y179331D02*
D03*
Y181299D02*
D03*
Y183268D02*
D03*
X381417Y106496D02*
D03*
Y104527D02*
D03*
Y102559D02*
D03*
Y100590D02*
D03*
X371969D02*
D03*
Y102559D02*
D03*
Y104527D02*
D03*
Y106496D02*
D03*
X380118Y25512D02*
D03*
Y23543D02*
D03*
Y21575D02*
D03*
Y19606D02*
D03*
X370669D02*
D03*
Y21575D02*
D03*
Y23543D02*
D03*
Y25512D02*
D03*
X351142Y79370D02*
D03*
Y81339D02*
D03*
Y83307D02*
D03*
Y85276D02*
D03*
X341693D02*
D03*
Y83307D02*
D03*
Y81339D02*
D03*
Y79370D02*
D03*
X347480Y162126D02*
D03*
Y164094D02*
D03*
Y166063D02*
D03*
Y168032D02*
D03*
X338032D02*
D03*
Y166063D02*
D03*
Y164094D02*
D03*
Y162126D02*
D03*
X337728Y240630D02*
D03*
Y242598D02*
D03*
Y244567D02*
D03*
Y246535D02*
D03*
X347177D02*
D03*
Y244567D02*
D03*
Y242598D02*
D03*
Y240630D02*
D03*
D55*
X361319Y128209D02*
D03*
Y123209D02*
D03*
Y118209D02*
D03*
X358327Y138406D02*
D03*
Y143406D02*
D03*
Y148406D02*
D03*
X358090Y57854D02*
D03*
Y62854D02*
D03*
Y67854D02*
D03*
X361319Y37657D02*
D03*
Y42657D02*
D03*
Y47657D02*
D03*
X357697Y206949D02*
D03*
Y201949D02*
D03*
Y196949D02*
D03*
X354704Y217146D02*
D03*
Y222146D02*
D03*
Y227146D02*
D03*
D56*
X362500Y113209D02*
D03*
X357146Y153406D02*
D03*
X356909Y72854D02*
D03*
X362500Y32657D02*
D03*
X358878Y191949D02*
D03*
X353523Y232146D02*
D03*
D57*
X384941Y113209D02*
D03*
Y118209D02*
D03*
Y123209D02*
D03*
Y128209D02*
D03*
X334705Y153406D02*
D03*
Y148406D02*
D03*
Y143406D02*
D03*
Y138406D02*
D03*
X334468Y72854D02*
D03*
Y67854D02*
D03*
Y62854D02*
D03*
Y57854D02*
D03*
X384941Y47657D02*
D03*
Y42657D02*
D03*
Y37657D02*
D03*
Y32657D02*
D03*
X381319Y191949D02*
D03*
Y196949D02*
D03*
Y201949D02*
D03*
Y206949D02*
D03*
X331083Y232146D02*
D03*
Y227146D02*
D03*
Y222146D02*
D03*
Y217146D02*
D03*
D58*
X375984Y120709D02*
D03*
X343661Y145906D02*
D03*
X343425Y65354D02*
D03*
X375984Y40157D02*
D03*
X372362Y199449D02*
D03*
X340039Y224646D02*
D03*
D59*
X363484Y123524D02*
D03*
X356161Y143091D02*
D03*
X355925Y62539D02*
D03*
X363484Y42972D02*
D03*
X359862Y202264D02*
D03*
X352539Y221831D02*
D03*
D60*
X204016Y234961D02*
D03*
Y240867D02*
D03*
X204173Y121969D02*
D03*
Y116064D02*
D03*
X204173Y173721D02*
D03*
Y167816D02*
D03*
X203937Y20945D02*
D03*
Y15039D02*
D03*
Y72697D02*
D03*
Y66791D02*
D03*
X204016Y286713D02*
D03*
Y292619D02*
D03*
D61*
X304665Y133071D02*
D03*
Y130512D02*
D03*
Y127953D02*
D03*
Y125394D02*
D03*
Y122835D02*
D03*
Y120276D02*
D03*
Y117717D02*
D03*
X321004D02*
D03*
Y120276D02*
D03*
Y122835D02*
D03*
Y127953D02*
D03*
Y130512D02*
D03*
Y133071D02*
D03*
Y52520D02*
D03*
Y49961D02*
D03*
Y47402D02*
D03*
Y42284D02*
D03*
Y39724D02*
D03*
Y37165D02*
D03*
X304665D02*
D03*
Y39724D02*
D03*
Y42284D02*
D03*
Y44843D02*
D03*
Y47402D02*
D03*
Y49961D02*
D03*
Y52520D02*
D03*
X301043Y211812D02*
D03*
Y209253D02*
D03*
Y206694D02*
D03*
Y204135D02*
D03*
Y201576D02*
D03*
Y199017D02*
D03*
Y196457D02*
D03*
X317382D02*
D03*
Y199017D02*
D03*
Y201576D02*
D03*
Y206694D02*
D03*
Y209253D02*
D03*
Y211812D02*
D03*
D62*
X221220Y167757D02*
D03*
X231220D02*
D03*
X251220D02*
D03*
Y207521D02*
D03*
X221220D02*
D03*
X221220Y115985D02*
D03*
X231221D02*
D03*
X251220D02*
D03*
Y155749D02*
D03*
X221220D02*
D03*
Y14961D02*
D03*
X231221D02*
D03*
X251220D02*
D03*
Y54724D02*
D03*
X221220D02*
D03*
Y66732D02*
D03*
X231221D02*
D03*
X251220D02*
D03*
Y106496D02*
D03*
X221220D02*
D03*
Y217166D02*
D03*
X231221D02*
D03*
X251220D02*
D03*
Y256930D02*
D03*
X221220D02*
D03*
Y268938D02*
D03*
X231221D02*
D03*
X251220D02*
D03*
Y308701D02*
D03*
X221220D02*
D03*
D63*
X195984Y113977D02*
D03*
X188110D02*
D03*
X195984Y124646D02*
D03*
X188110D02*
D03*
X195984Y165678D02*
D03*
X188110D02*
D03*
X195984Y176241D02*
D03*
X188110D02*
D03*
X195748Y23622D02*
D03*
X187874D02*
D03*
X187874Y75216D02*
D03*
X195748D02*
D03*
X187953Y243544D02*
D03*
X195827D02*
D03*
X195827Y295139D02*
D03*
X187953D02*
D03*
X187953Y232875D02*
D03*
X195827D02*
D03*
X187953Y284575D02*
D03*
X195827D02*
D03*
X195748Y64654D02*
D03*
X187874D02*
D03*
X195748Y12953D02*
D03*
X187874D02*
D03*
D64*
X39213Y215276D02*
D03*
X33307D02*
D03*
X98543Y55748D02*
D03*
X92638D02*
D03*
X104567Y107165D02*
D03*
X98661D02*
D03*
X103110Y171102D02*
D03*
X97205D02*
D03*
X105590Y217402D02*
D03*
X99685D02*
D03*
X104606Y278150D02*
D03*
X98701D02*
D03*
X105709Y339843D02*
D03*
X99803D02*
D03*
X402520Y163386D02*
D03*
X408425D02*
D03*
X402520Y95551D02*
D03*
X408425D02*
D03*
X402524Y28858D02*
D03*
X408429D02*
D03*
X424528Y317677D02*
D03*
X430433D02*
D03*
X407638Y214094D02*
D03*
X413543D02*
D03*
X-8583Y187992D02*
D03*
X-14488D02*
D03*
D65*
X144626Y62362D02*
D03*
X137736D02*
D03*
X137894Y178307D02*
D03*
X144783D02*
D03*
X139429Y116516D02*
D03*
X146319D02*
D03*
X138523Y224114D02*
D03*
X145413D02*
D03*
X145098Y284606D02*
D03*
X138209D02*
D03*
X145169Y347047D02*
D03*
X138279D02*
D03*
D66*
X119457Y53090D02*
D03*
Y56831D02*
D03*
Y60571D02*
D03*
X129693D02*
D03*
Y56831D02*
D03*
Y53090D02*
D03*
X129850Y169035D02*
D03*
Y172775D02*
D03*
Y176516D02*
D03*
X119614D02*
D03*
Y172775D02*
D03*
Y169035D02*
D03*
X131386Y106043D02*
D03*
Y109784D02*
D03*
Y113524D02*
D03*
X121150D02*
D03*
Y109784D02*
D03*
Y106043D02*
D03*
X130315Y215039D02*
D03*
Y218780D02*
D03*
Y222520D02*
D03*
X120079D02*
D03*
Y218780D02*
D03*
Y215039D02*
D03*
X119929Y275335D02*
D03*
Y279075D02*
D03*
Y282815D02*
D03*
X130165D02*
D03*
Y279075D02*
D03*
Y275335D02*
D03*
X119921Y337992D02*
D03*
Y341732D02*
D03*
Y345472D02*
D03*
X130157D02*
D03*
Y341732D02*
D03*
Y337992D02*
D03*
D67*
X36693Y374528D02*
D03*
Y368228D02*
D03*
X28819Y374528D02*
D03*
Y368228D02*
D03*
X20945Y374528D02*
D03*
Y368228D02*
D03*
D68*
X502598Y363071D02*
D03*
Y359055D02*
D03*
Y355039D02*
D03*
Y351024D02*
D03*
Y347008D02*
D03*
Y342992D02*
D03*
Y338976D02*
D03*
Y334961D02*
D03*
D69*
X20591Y220866D02*
D03*
Y217126D02*
D03*
Y213386D02*
D03*
X10748D02*
D03*
Y217126D02*
D03*
Y220866D02*
D03*
X10473Y196496D02*
D03*
Y192756D02*
D03*
Y189016D02*
D03*
X20315D02*
D03*
Y196496D02*
D03*
D70*
X-48976Y116500D02*
D03*
Y280280D02*
D03*
Y277130D02*
D03*
Y270831D02*
D03*
Y264531D02*
D03*
Y258232D02*
D03*
Y251933D02*
D03*
Y245634D02*
D03*
Y239335D02*
D03*
Y233035D02*
D03*
Y226736D02*
D03*
Y220437D02*
D03*
Y214138D02*
D03*
Y207839D02*
D03*
Y201539D02*
D03*
Y182642D02*
D03*
Y176343D02*
D03*
Y170043D02*
D03*
Y163744D02*
D03*
Y157445D02*
D03*
Y151146D02*
D03*
Y141697D02*
D03*
Y132248D02*
D03*
Y273980D02*
D03*
Y267681D02*
D03*
Y261382D02*
D03*
Y255083D02*
D03*
Y248783D02*
D03*
Y242484D02*
D03*
Y236185D02*
D03*
Y229886D02*
D03*
Y223587D02*
D03*
Y217287D02*
D03*
Y210988D02*
D03*
Y204689D02*
D03*
Y198390D02*
D03*
Y179492D02*
D03*
Y173193D02*
D03*
Y166894D02*
D03*
Y160594D02*
D03*
Y154295D02*
D03*
Y147996D02*
D03*
Y144846D02*
D03*
Y138547D02*
D03*
Y135398D02*
D03*
Y129098D02*
D03*
Y125949D02*
D03*
Y122799D02*
D03*
Y119650D02*
D03*
Y113350D02*
D03*
D71*
X417402Y291437D02*
D03*
Y296437D02*
D03*
Y301437D02*
D03*
Y306437D02*
D03*
X437480D02*
D03*
Y301437D02*
D03*
Y296437D02*
D03*
Y291437D02*
D03*
D72*
X445472Y49173D02*
D03*
X412795D02*
D03*
Y115157D02*
D03*
X445472D02*
D03*
Y181929D02*
D03*
X412795D02*
D03*
Y233425D02*
D03*
X445472D02*
D03*
D73*
X527557Y109803D02*
D03*
X487557D02*
D03*
Y69803D02*
D03*
X527557D02*
D03*
Y53504D02*
D03*
X487557D02*
D03*
Y13504D02*
D03*
X527557D02*
D03*
Y126102D02*
D03*
X487557D02*
D03*
Y166102D02*
D03*
X527557D02*
D03*
Y238701D02*
D03*
X487557D02*
D03*
Y278701D02*
D03*
X527557D02*
D03*
Y222402D02*
D03*
X487557D02*
D03*
Y182402D02*
D03*
X527557D02*
D03*
D74*
X502518Y89803D02*
D03*
Y33504D02*
D03*
Y146102D02*
D03*
Y258701D02*
D03*
Y202402D02*
D03*
D75*
X19213Y24291D02*
D03*
Y34291D02*
D03*
Y44291D02*
D03*
Y54291D02*
D03*
Y64291D02*
D03*
Y74291D02*
D03*
Y84291D02*
D03*
D76*
Y94291D02*
D03*
D77*
X377953Y79921D02*
D03*
X287402D02*
D03*
Y300197D02*
D03*
X377953D02*
D03*
D78*
X103622Y200787D02*
D03*
Y21378D02*
D03*
Y137205D02*
D03*
X103622Y87598D02*
D03*
X103622Y251929D02*
D03*
Y325630D02*
D03*
D79*
X541890Y374016D02*
D03*
Y324016D02*
D03*
Y355709D02*
D03*
Y305709D02*
D03*
M02*
